<?xml version="1.0" encoding="UTF-8" standalone="no"?>
<!DOCTYPE svg PUBLIC "-//W3C//DTD SVG 1.1//EN"
 "http://www.w3.org/Graphics/SVG/1.1/DTD/svg11.dtd">
<!-- Generated by graphviz version 2.38.0 (20140413.2041)
 -->
<!-- Title: src/analysis/utils/A2GeoAcceptance.cc Pages: 1 -->
<svg width="1044pt" height="319pt"
 viewBox="0.00 0.00 1043.50 319.00" xmlns="http://www.w3.org/2000/svg" xmlns:xlink="http://www.w3.org/1999/xlink">
<g id="graph0" class="graph" transform="scale(1 1) rotate(0) translate(4 315)">
<title>src/analysis/utils/A2GeoAcceptance.cc</title>
<polygon fill="white" stroke="none" points="-4,4 -4,-315 1039.5,-315 1039.5,4 -4,4"/>
<!-- Node0 -->
<g id="node1" class="node"><title>Node0</title>
<polygon fill="#bfbfbf" stroke="black" points="613,-280.5 613,-310.5 735,-310.5 735,-280.5 613,-280.5"/>
<text text-anchor="start" x="621" y="-298.5" font-family="Helvetica,sans-Serif" font-size="10.00">src/analysis/utils</text>
<text text-anchor="middle" x="674" y="-287.5" font-family="Helvetica,sans-Serif" font-size="10.00">/A2GeoAcceptance.cc</text>
</g>
<!-- Node1 -->
<g id="node2" class="node"><title>Node1</title>
<g id="a_node2"><a xlink:href="_a2_geo_acceptance_8h.html" target="_top" xlink:title="A2GeoAcceptance.h">
<polygon fill="white" stroke="black" points="550,-224.5 550,-243.5 664,-243.5 664,-224.5 550,-224.5"/>
<text text-anchor="middle" x="607" y="-231.5" font-family="Helvetica,sans-Serif" font-size="10.00">A2GeoAcceptance.h</text>
</a>
</g>
</g>
<!-- Node0&#45;&gt;Node1 -->
<g id="edge1" class="edge"><title>Node0&#45;&gt;Node1</title>
<path fill="none" stroke="midnightblue" d="M658.122,-280.399C647.985,-271.397 634.838,-259.721 624.415,-250.465"/>
<polygon fill="midnightblue" stroke="midnightblue" points="626.55,-247.681 616.749,-243.658 621.902,-252.915 626.55,-247.681"/>
</g>
<!-- Node16 -->
<g id="node17" class="node"><title>Node16</title>
<g id="a_node17"><a xlink:href="base_2std__ext_2math_8h.html" target="_top" xlink:title="base/std_ext/math.h">
<polygon fill="white" stroke="black" points="708,-112.5 708,-131.5 824,-131.5 824,-112.5 708,-112.5"/>
<text text-anchor="middle" x="766" y="-119.5" font-family="Helvetica,sans-Serif" font-size="10.00">base/std_ext/math.h</text>
</a>
</g>
</g>
<!-- Node0&#45;&gt;Node16 -->
<g id="edge27" class="edge"><title>Node0&#45;&gt;Node16</title>
<path fill="none" stroke="midnightblue" d="M681.529,-280.465C698.174,-249.436 738.078,-175.049 756.448,-140.806"/>
<polygon fill="midnightblue" stroke="midnightblue" points="759.765,-142.026 761.408,-131.56 753.597,-138.717 759.765,-142.026"/>
</g>
<!-- Node2 -->
<g id="node3" class="node"><title>Node2</title>
<g id="a_node3"><a xlink:href="interval_8h.html" target="_top" xlink:title="base/interval.h">
<polygon fill="white" stroke="black" points="208.5,-168.5 208.5,-187.5 295.5,-187.5 295.5,-168.5 208.5,-168.5"/>
<text text-anchor="middle" x="252" y="-175.5" font-family="Helvetica,sans-Serif" font-size="10.00">base/interval.h</text>
</a>
</g>
</g>
<!-- Node1&#45;&gt;Node2 -->
<g id="edge2" class="edge"><title>Node1&#45;&gt;Node2</title>
<path fill="none" stroke="midnightblue" d="M550.749,-224.444C483.569,-214.225 372.002,-197.254 305.885,-187.197"/>
<polygon fill="midnightblue" stroke="midnightblue" points="306.09,-183.688 295.677,-185.644 305.037,-190.608 306.09,-183.688"/>
</g>
<!-- Node10 -->
<g id="node11" class="node"><title>Node10</title>
<g id="a_node11"><a xlink:href="_detector__t_8h.html" target="_top" xlink:title="base/Detector_t.h">
<polygon fill="white" stroke="black" points="555.5,-168.5 555.5,-187.5 658.5,-187.5 658.5,-168.5 555.5,-168.5"/>
<text text-anchor="middle" x="607" y="-175.5" font-family="Helvetica,sans-Serif" font-size="10.00">base/Detector_t.h</text>
</a>
</g>
</g>
<!-- Node1&#45;&gt;Node10 -->
<g id="edge10" class="edge"><title>Node1&#45;&gt;Node10</title>
<path fill="none" stroke="midnightblue" d="M607,-224.083C607,-217.006 607,-206.861 607,-197.986"/>
<polygon fill="midnightblue" stroke="midnightblue" points="610.5,-197.751 607,-187.751 603.5,-197.751 610.5,-197.751"/>
</g>
<!-- Node3 -->
<g id="node4" class="node"><title>Node3</title>
<g id="a_node4"><a xlink:href="types_8h.html" target="_top" xlink:title="types.h">
<polygon fill="white" stroke="black" points="118,-112.5 118,-131.5 170,-131.5 170,-112.5 118,-112.5"/>
<text text-anchor="middle" x="144" y="-119.5" font-family="Helvetica,sans-Serif" font-size="10.00">types.h</text>
</a>
</g>
</g>
<!-- Node2&#45;&gt;Node3 -->
<g id="edge3" class="edge"><title>Node2&#45;&gt;Node3</title>
<path fill="none" stroke="midnightblue" d="M234.648,-168.324C217.328,-159.664 190.485,-146.242 170.498,-136.249"/>
<polygon fill="midnightblue" stroke="midnightblue" points="171.819,-132.996 161.309,-131.655 168.688,-139.257 171.819,-132.996"/>
</g>
<!-- Node4 -->
<g id="node5" class="node"><title>Node4</title>
<polygon fill="white" stroke="#bfbfbf" points="0,-112.5 0,-131.5 62,-131.5 62,-112.5 0,-112.5"/>
<text text-anchor="middle" x="31" y="-119.5" font-family="Helvetica,sans-Serif" font-size="10.00">algorithm</text>
</g>
<!-- Node2&#45;&gt;Node4 -->
<g id="edge4" class="edge"><title>Node2&#45;&gt;Node4</title>
<path fill="none" stroke="midnightblue" d="M216.982,-168.444C177.628,-158.828 113.806,-143.233 72.1159,-133.046"/>
<polygon fill="midnightblue" stroke="midnightblue" points="72.826,-129.617 62.281,-130.643 71.1645,-136.417 72.826,-129.617"/>
</g>
<!-- Node5 -->
<g id="node6" class="node"><title>Node5</title>
<polygon fill="white" stroke="#bfbfbf" points="372,-112.5 372,-131.5 436,-131.5 436,-112.5 372,-112.5"/>
<text text-anchor="middle" x="404" y="-119.5" font-family="Helvetica,sans-Serif" font-size="10.00">stdexcept</text>
</g>
<!-- Node2&#45;&gt;Node5 -->
<g id="edge5" class="edge"><title>Node2&#45;&gt;Node5</title>
<path fill="none" stroke="midnightblue" d="M276.085,-168.444C301.545,-159.399 341.894,-145.064 370.459,-134.916"/>
<polygon fill="midnightblue" stroke="midnightblue" points="371.777,-138.162 380.028,-131.516 369.433,-131.566 371.777,-138.162"/>
</g>
<!-- Node6 -->
<g id="node7" class="node"><title>Node6</title>
<polygon fill="white" stroke="#bfbfbf" points="413,-56.5 413,-75.5 455,-75.5 455,-56.5 413,-56.5"/>
<text text-anchor="middle" x="434" y="-63.5" font-family="Helvetica,sans-Serif" font-size="10.00">limits</text>
</g>
<!-- Node2&#45;&gt;Node6 -->
<g id="edge6" class="edge"><title>Node2&#45;&gt;Node6</title>
<path fill="none" stroke="midnightblue" d="M266.281,-168.368C297.645,-149.412 372.781,-104.001 410.932,-80.9424"/>
<polygon fill="midnightblue" stroke="midnightblue" points="413.037,-83.7595 419.785,-75.5914 409.416,-77.7687 413.037,-83.7595"/>
</g>
<!-- Node7 -->
<g id="node8" class="node"><title>Node7</title>
<polygon fill="white" stroke="#bfbfbf" points="188.5,-112.5 188.5,-131.5 241.5,-131.5 241.5,-112.5 188.5,-112.5"/>
<text text-anchor="middle" x="215" y="-119.5" font-family="Helvetica,sans-Serif" font-size="10.00">istream</text>
</g>
<!-- Node2&#45;&gt;Node7 -->
<g id="edge7" class="edge"><title>Node2&#45;&gt;Node7</title>
<path fill="none" stroke="midnightblue" d="M245.89,-168.083C240.718,-160.534 233.154,-149.495 226.806,-140.23"/>
<polygon fill="midnightblue" stroke="midnightblue" points="229.536,-138.022 220.996,-131.751 223.761,-141.979 229.536,-138.022"/>
</g>
<!-- Node8 -->
<g id="node9" class="node"><title>Node8</title>
<polygon fill="white" stroke="#bfbfbf" points="260,-112.5 260,-131.5 316,-131.5 316,-112.5 260,-112.5"/>
<text text-anchor="middle" x="288" y="-119.5" font-family="Helvetica,sans-Serif" font-size="10.00">sstream</text>
</g>
<!-- Node2&#45;&gt;Node8 -->
<g id="edge8" class="edge"><title>Node2&#45;&gt;Node8</title>
<path fill="none" stroke="midnightblue" d="M257.945,-168.083C262.977,-160.534 270.337,-149.495 276.513,-140.23"/>
<polygon fill="midnightblue" stroke="midnightblue" points="279.531,-142.013 282.166,-131.751 273.707,-138.13 279.531,-142.013"/>
</g>
<!-- Node9 -->
<g id="node10" class="node"><title>Node9</title>
<polygon fill="white" stroke="#bfbfbf" points="767.5,-0.5 767.5,-19.5 814.5,-19.5 814.5,-0.5 767.5,-0.5"/>
<text text-anchor="middle" x="791" y="-7.5" font-family="Helvetica,sans-Serif" font-size="10.00">cmath</text>
</g>
<!-- Node2&#45;&gt;Node9 -->
<g id="edge9" class="edge"><title>Node2&#45;&gt;Node9</title>
<path fill="none" stroke="midnightblue" d="M208.069,-172.515C155.675,-165.442 78.7371,-148.548 109,-112 192.447,-11.2216 630.775,-8.91224 756.975,-10.3857"/>
<polygon fill="midnightblue" stroke="midnightblue" points="757.152,-13.8883 767.198,-10.5218 757.246,-6.88891 757.152,-13.8883"/>
</g>
<!-- Node10&#45;&gt;Node5 -->
<g id="edge23" class="edge"><title>Node10&#45;&gt;Node5</title>
<path fill="none" stroke="midnightblue" d="M574.834,-168.444C539.941,-159.162 484.107,-144.309 445.829,-134.127"/>
<polygon fill="midnightblue" stroke="midnightblue" points="446.579,-130.705 436.015,-131.516 444.78,-137.47 446.579,-130.705"/>
</g>
<!-- Node11 -->
<g id="node12" class="node"><title>Node11</title>
<g id="a_node12"><a xlink:href="bitflag_8h.html" target="_top" xlink:title="base/bitflag.h">
<polygon fill="white" stroke="black" points="954.5,-112.5 954.5,-131.5 1035.5,-131.5 1035.5,-112.5 954.5,-112.5"/>
<text text-anchor="middle" x="995" y="-119.5" font-family="Helvetica,sans-Serif" font-size="10.00">base/bitflag.h</text>
</a>
</g>
</g>
<!-- Node10&#45;&gt;Node11 -->
<g id="edge11" class="edge"><title>Node10&#45;&gt;Node11</title>
<path fill="none" stroke="midnightblue" d="M658.643,-170.87C723.022,-163.061 836.674,-148.734 944.306,-132.044"/>
<polygon fill="midnightblue" stroke="midnightblue" points="945.026,-135.474 954.367,-130.474 943.947,-128.558 945.026,-135.474"/>
</g>
<!-- Node13 -->
<g id="node14" class="node"><title>Node13</title>
<g id="a_node14"><a xlink:href="vec3_8h.html" target="_top" xlink:title="base/vec/vec3.h">
<polygon fill="white" stroke="black" points="842,-112.5 842,-131.5 936,-131.5 936,-112.5 842,-112.5"/>
<text text-anchor="middle" x="889" y="-119.5" font-family="Helvetica,sans-Serif" font-size="10.00">base/vec/vec3.h</text>
</a>
</g>
</g>
<!-- Node10&#45;&gt;Node13 -->
<g id="edge13" class="edge"><title>Node10&#45;&gt;Node13</title>
<path fill="none" stroke="midnightblue" d="M651.684,-168.444C701.29,-158.944 781.365,-143.611 834.585,-133.42"/>
<polygon fill="midnightblue" stroke="midnightblue" points="835.362,-136.835 844.525,-131.516 834.045,-129.96 835.362,-136.835"/>
</g>
<!-- Node10&#45;&gt;Node16 -->
<g id="edge18" class="edge"><title>Node10&#45;&gt;Node16</title>
<path fill="none" stroke="midnightblue" d="M632.194,-168.444C658.943,-159.359 701.403,-144.939 731.305,-134.783"/>
<polygon fill="midnightblue" stroke="midnightblue" points="732.581,-138.046 740.924,-131.516 730.329,-131.418 732.581,-138.046"/>
</g>
<!-- Node17 -->
<g id="node18" class="node"><title>Node17</title>
<polygon fill="white" stroke="#bfbfbf" points="564.5,-56.5 564.5,-75.5 611.5,-75.5 611.5,-56.5 564.5,-56.5"/>
<text text-anchor="middle" x="588" y="-63.5" font-family="Helvetica,sans-Serif" font-size="10.00">vector</text>
</g>
<!-- Node10&#45;&gt;Node17 -->
<g id="edge26" class="edge"><title>Node10&#45;&gt;Node17</title>
<path fill="none" stroke="midnightblue" d="M555.412,-172.059C529.14,-166.63 499.365,-155.348 483,-132 461.877,-101.863 516.293,-82.9162 554.441,-73.7033"/>
<polygon fill="midnightblue" stroke="midnightblue" points="555.247,-77.1096 564.213,-71.4656 553.684,-70.2862 555.247,-77.1096"/>
</g>
<!-- Node18 -->
<g id="node19" class="node"><title>Node18</title>
<polygon fill="white" stroke="#bfbfbf" points="492.5,-112.5 492.5,-131.5 541.5,-131.5 541.5,-112.5 492.5,-112.5"/>
<text text-anchor="middle" x="517" y="-119.5" font-family="Helvetica,sans-Serif" font-size="10.00">cstdint</text>
</g>
<!-- Node10&#45;&gt;Node18 -->
<g id="edge22" class="edge"><title>Node10&#45;&gt;Node18</title>
<path fill="none" stroke="midnightblue" d="M592.54,-168.324C578.5,-159.9 556.952,-146.971 540.457,-137.074"/>
<polygon fill="midnightblue" stroke="midnightblue" points="541.8,-133.798 531.424,-131.655 538.198,-139.801 541.8,-133.798"/>
</g>
<!-- Node19 -->
<g id="node20" class="node"><title>Node19</title>
<polygon fill="white" stroke="#bfbfbf" points="560,-112.5 560,-131.5 604,-131.5 604,-112.5 560,-112.5"/>
<text text-anchor="middle" x="582" y="-119.5" font-family="Helvetica,sans-Serif" font-size="10.00">string</text>
</g>
<!-- Node10&#45;&gt;Node19 -->
<g id="edge24" class="edge"><title>Node10&#45;&gt;Node19</title>
<path fill="none" stroke="midnightblue" d="M602.872,-168.083C599.486,-160.77 594.584,-150.181 590.381,-141.103"/>
<polygon fill="midnightblue" stroke="midnightblue" points="593.429,-139.355 586.051,-131.751 587.077,-142.296 593.429,-139.355"/>
</g>
<!-- Node20 -->
<g id="node21" class="node"><title>Node20</title>
<polygon fill="white" stroke="#bfbfbf" points="622,-112.5 622,-131.5 690,-131.5 690,-112.5 622,-112.5"/>
<text text-anchor="middle" x="656" y="-119.5" font-family="Helvetica,sans-Serif" font-size="10.00">type_traits</text>
</g>
<!-- Node10&#45;&gt;Node20 -->
<g id="edge25" class="edge"><title>Node10&#45;&gt;Node20</title>
<path fill="none" stroke="midnightblue" d="M615.091,-168.083C622.155,-160.298 632.588,-148.801 641.149,-139.367"/>
<polygon fill="midnightblue" stroke="midnightblue" points="643.931,-141.509 648.059,-131.751 638.747,-136.805 643.931,-141.509"/>
</g>
<!-- Node12 -->
<g id="node13" class="node"><title>Node12</title>
<polygon fill="white" stroke="#bfbfbf" points="973,-56.5 973,-75.5 1017,-75.5 1017,-56.5 973,-56.5"/>
<text text-anchor="middle" x="995" y="-63.5" font-family="Helvetica,sans-Serif" font-size="10.00">bitset</text>
</g>
<!-- Node11&#45;&gt;Node12 -->
<g id="edge12" class="edge"><title>Node11&#45;&gt;Node12</title>
<path fill="none" stroke="midnightblue" d="M995,-112.083C995,-105.006 995,-94.8611 995,-85.9865"/>
<polygon fill="midnightblue" stroke="midnightblue" points="998.5,-85.751 995,-75.7511 991.5,-85.7511 998.5,-85.751"/>
</g>
<!-- Node13&#45;&gt;Node9 -->
<g id="edge17" class="edge"><title>Node13&#45;&gt;Node9</title>
<path fill="none" stroke="midnightblue" d="M900.205,-112.441C915.556,-99.6648 939.742,-75.0664 926,-56 903.093,-24.2186 856.766,-14.5437 824.822,-11.7828"/>
<polygon fill="midnightblue" stroke="midnightblue" points="824.809,-8.27391 814.595,-11.0895 824.336,-15.2579 824.809,-8.27391"/>
</g>
<!-- Node14 -->
<g id="node15" class="node"><title>Node14</title>
<g id="a_node15"><a xlink:href="vec2_8h.html" target="_top" xlink:title="vec2.h">
<polygon fill="white" stroke="black" points="793,-56.5 793,-75.5 841,-75.5 841,-56.5 793,-56.5"/>
<text text-anchor="middle" x="817" y="-63.5" font-family="Helvetica,sans-Serif" font-size="10.00">vec2.h</text>
</a>
</g>
</g>
<!-- Node13&#45;&gt;Node14 -->
<g id="edge14" class="edge"><title>Node13&#45;&gt;Node14</title>
<path fill="none" stroke="midnightblue" d="M877.432,-112.324C866.58,-104.185 850.119,-91.8395 837.117,-82.0874"/>
<polygon fill="midnightblue" stroke="midnightblue" points="838.879,-79.0339 828.779,-75.8339 834.679,-84.6339 838.879,-79.0339"/>
</g>
<!-- Node15 -->
<g id="node16" class="node"><title>Node15</title>
<polygon fill="white" stroke="#bfbfbf" points="859.5,-56.5 859.5,-75.5 916.5,-75.5 916.5,-56.5 859.5,-56.5"/>
<text text-anchor="middle" x="888" y="-63.5" font-family="Helvetica,sans-Serif" font-size="10.00">ostream</text>
</g>
<!-- Node13&#45;&gt;Node15 -->
<g id="edge16" class="edge"><title>Node13&#45;&gt;Node15</title>
<path fill="none" stroke="midnightblue" d="M888.835,-112.083C888.704,-105.006 888.516,-94.8611 888.352,-85.9865"/>
<polygon fill="midnightblue" stroke="midnightblue" points="891.847,-85.6845 888.162,-75.7511 884.848,-85.8142 891.847,-85.6845"/>
</g>
<!-- Node14&#45;&gt;Node9 -->
<g id="edge15" class="edge"><title>Node14&#45;&gt;Node9</title>
<path fill="none" stroke="midnightblue" d="M812.707,-56.083C809.148,-48.6913 803.978,-37.9533 799.576,-28.8111"/>
<polygon fill="midnightblue" stroke="midnightblue" points="802.705,-27.2427 795.213,-19.7511 796.398,-30.2795 802.705,-27.2427"/>
</g>
<!-- Node16&#45;&gt;Node6 -->
<g id="edge20" class="edge"><title>Node16&#45;&gt;Node6</title>
<path fill="none" stroke="midnightblue" d="M713.394,-112.444C643.483,-101.072 522.172,-81.3413 465.221,-72.0781"/>
<polygon fill="midnightblue" stroke="midnightblue" points="465.475,-68.5735 455.043,-70.4226 464.351,-75.4827 465.475,-68.5735"/>
</g>
<!-- Node16&#45;&gt;Node9 -->
<g id="edge19" class="edge"><title>Node16&#45;&gt;Node9</title>
<path fill="none" stroke="midnightblue" d="M767.962,-112.368C771.996,-94.617 781.303,-53.6664 786.773,-29.5974"/>
<polygon fill="midnightblue" stroke="midnightblue" points="790.244,-30.1185 789.047,-19.5914 783.418,-28.567 790.244,-30.1185"/>
</g>
<!-- Node16&#45;&gt;Node17 -->
<g id="edge21" class="edge"><title>Node16&#45;&gt;Node17</title>
<path fill="none" stroke="midnightblue" d="M737.795,-112.444C706.169,-102.849 654.922,-87.3021 621.339,-77.1141"/>
<polygon fill="midnightblue" stroke="midnightblue" points="622.111,-73.6907 611.525,-74.1368 620.078,-80.3892 622.111,-73.6907"/>
</g>
</g>
</svg>
