<?xml version="1.0" encoding="UTF-8" standalone="no"?>
<!DOCTYPE svg PUBLIC "-//W3C//DTD SVG 1.1//EN"
 "http://www.w3.org/Graphics/SVG/1.1/DTD/svg11.dtd">
<!-- Generated by graphviz version 2.38.0 (20140413.2041)
 -->
<!-- Title: src/analysis/utils/A2GeoAcceptance.h Pages: 1 -->
<svg width="1019pt" height="263pt"
 viewBox="0.00 0.00 1019.22 263.00" xmlns="http://www.w3.org/2000/svg" xmlns:xlink="http://www.w3.org/1999/xlink">
<g id="graph0" class="graph" transform="scale(1 1) rotate(0) translate(4 259)">
<title>src/analysis/utils/A2GeoAcceptance.h</title>
<polygon fill="white" stroke="none" points="-4,4 -4,-259 1015.22,-259 1015.22,4 -4,4"/>
<!-- Node0 -->
<g id="node1" class="node"><title>Node0</title>
<polygon fill="#bfbfbf" stroke="black" points="422.72,-224.5 422.72,-254.5 539.72,-254.5 539.72,-224.5 422.72,-224.5"/>
<text text-anchor="start" x="430.72" y="-242.5" font-family="Helvetica,sans-Serif" font-size="10.00">src/analysis/utils</text>
<text text-anchor="middle" x="481.22" y="-231.5" font-family="Helvetica,sans-Serif" font-size="10.00">/A2GeoAcceptance.h</text>
</g>
<!-- Node1 -->
<g id="node2" class="node"><title>Node1</title>
<g id="a_node2"><a xlink:href="interval_8h.html" target="_top" xlink:title="base/interval.h">
<polygon fill="white" stroke="black" points="184.72,-168.5 184.72,-187.5 271.72,-187.5 271.72,-168.5 184.72,-168.5"/>
<text text-anchor="middle" x="228.22" y="-175.5" font-family="Helvetica,sans-Serif" font-size="10.00">base/interval.h</text>
</a>
</g>
</g>
<!-- Node0&#45;&gt;Node1 -->
<g id="edge1" class="edge"><title>Node0&#45;&gt;Node1</title>
<path fill="none" stroke="midnightblue" d="M422.541,-224.7C377.499,-214.107 316.171,-199.684 274.545,-189.895"/>
<polygon fill="midnightblue" stroke="midnightblue" points="275.206,-186.455 264.67,-187.572 273.604,-193.269 275.206,-186.455"/>
</g>
<!-- Node9 -->
<g id="node10" class="node"><title>Node9</title>
<g id="a_node10"><a xlink:href="_detector__t_8h.html" target="_top" xlink:title="base/Detector_t.h">
<polygon fill="white" stroke="black" points="647.72,-168.5 647.72,-187.5 750.72,-187.5 750.72,-168.5 647.72,-168.5"/>
<text text-anchor="middle" x="699.22" y="-175.5" font-family="Helvetica,sans-Serif" font-size="10.00">base/Detector_t.h</text>
</a>
</g>
</g>
<!-- Node0&#45;&gt;Node9 -->
<g id="edge9" class="edge"><title>Node0&#45;&gt;Node9</title>
<path fill="none" stroke="midnightblue" d="M532.607,-224.475C570.873,-214.03 622.434,-199.958 658.013,-190.247"/>
<polygon fill="midnightblue" stroke="midnightblue" points="659.328,-193.516 668.054,-187.506 657.485,-186.763 659.328,-193.516"/>
</g>
<!-- Node2 -->
<g id="node3" class="node"><title>Node2</title>
<g id="a_node3"><a xlink:href="types_8h.html" target="_top" xlink:title="types.h">
<polygon fill="white" stroke="black" points="167.22,-112.5 167.22,-131.5 219.22,-131.5 219.22,-112.5 167.22,-112.5"/>
<text text-anchor="middle" x="193.22" y="-119.5" font-family="Helvetica,sans-Serif" font-size="10.00">types.h</text>
</a>
</g>
</g>
<!-- Node1&#45;&gt;Node2 -->
<g id="edge2" class="edge"><title>Node1&#45;&gt;Node2</title>
<path fill="none" stroke="midnightblue" d="M222.44,-168.083C217.547,-160.534 210.392,-149.495 204.387,-140.23"/>
<polygon fill="midnightblue" stroke="midnightblue" points="207.268,-138.239 198.892,-131.751 201.394,-142.046 207.268,-138.239"/>
</g>
<!-- Node3 -->
<g id="node4" class="node"><title>Node3</title>
<polygon fill="white" stroke="#bfbfbf" points="87.2197,-112.5 87.2197,-131.5 149.22,-131.5 149.22,-112.5 87.2197,-112.5"/>
<text text-anchor="middle" x="118.22" y="-119.5" font-family="Helvetica,sans-Serif" font-size="10.00">algorithm</text>
</g>
<!-- Node1&#45;&gt;Node3 -->
<g id="edge3" class="edge"><title>Node1&#45;&gt;Node3</title>
<path fill="none" stroke="midnightblue" d="M210.546,-168.324C192.826,-159.625 165.317,-146.12 144.931,-136.113"/>
<polygon fill="midnightblue" stroke="midnightblue" points="146.368,-132.919 135.849,-131.655 143.284,-139.203 146.368,-132.919"/>
</g>
<!-- Node4 -->
<g id="node5" class="node"><title>Node4</title>
<polygon fill="white" stroke="#bfbfbf" points="309.22,-112.5 309.22,-131.5 373.22,-131.5 373.22,-112.5 309.22,-112.5"/>
<text text-anchor="middle" x="341.22" y="-119.5" font-family="Helvetica,sans-Serif" font-size="10.00">stdexcept</text>
</g>
<!-- Node1&#45;&gt;Node4 -->
<g id="edge4" class="edge"><title>Node1&#45;&gt;Node4</title>
<path fill="none" stroke="midnightblue" d="M246.125,-168.444C264.474,-159.675 293.225,-145.935 314.313,-135.858"/>
<polygon fill="midnightblue" stroke="midnightblue" points="315.885,-138.986 323.398,-131.516 312.866,-132.67 315.885,-138.986"/>
</g>
<!-- Node5 -->
<g id="node6" class="node"><title>Node5</title>
<polygon fill="white" stroke="#bfbfbf" points="637.22,-56.5 637.22,-75.5 679.22,-75.5 679.22,-56.5 637.22,-56.5"/>
<text text-anchor="middle" x="658.22" y="-63.5" font-family="Helvetica,sans-Serif" font-size="10.00">limits</text>
</g>
<!-- Node1&#45;&gt;Node5 -->
<g id="edge5" class="edge"><title>Node1&#45;&gt;Node5</title>
<path fill="none" stroke="midnightblue" d="M271.769,-175.22C356.114,-171.196 538.37,-159.514 594.22,-132 616.337,-121.104 635.224,-99.4205 646.629,-84.1004"/>
<polygon fill="midnightblue" stroke="midnightblue" points="649.777,-85.7134 652.725,-75.5371 644.074,-81.6536 649.777,-85.7134"/>
</g>
<!-- Node6 -->
<g id="node7" class="node"><title>Node6</title>
<polygon fill="white" stroke="#bfbfbf" points="237.72,-112.5 237.72,-131.5 290.72,-131.5 290.72,-112.5 237.72,-112.5"/>
<text text-anchor="middle" x="264.22" y="-119.5" font-family="Helvetica,sans-Serif" font-size="10.00">istream</text>
</g>
<!-- Node1&#45;&gt;Node6 -->
<g id="edge6" class="edge"><title>Node1&#45;&gt;Node6</title>
<path fill="none" stroke="midnightblue" d="M234.164,-168.083C239.197,-160.534 246.556,-149.495 252.733,-140.23"/>
<polygon fill="midnightblue" stroke="midnightblue" points="255.751,-142.013 258.386,-131.751 249.926,-138.13 255.751,-142.013"/>
</g>
<!-- Node7 -->
<g id="node8" class="node"><title>Node7</title>
<polygon fill="white" stroke="#bfbfbf" points="13.2197,-112.5 13.2197,-131.5 69.2197,-131.5 69.2197,-112.5 13.2197,-112.5"/>
<text text-anchor="middle" x="41.2197" y="-119.5" font-family="Helvetica,sans-Serif" font-size="10.00">sstream</text>
</g>
<!-- Node1&#45;&gt;Node7 -->
<g id="edge7" class="edge"><title>Node1&#45;&gt;Node7</title>
<path fill="none" stroke="midnightblue" d="M198.589,-168.444C166.345,-159.132 114.688,-144.216 79.4188,-134.031"/>
<polygon fill="midnightblue" stroke="midnightblue" points="80.0662,-130.575 69.4877,-131.163 78.1241,-137.3 80.0662,-130.575"/>
</g>
<!-- Node8 -->
<g id="node9" class="node"><title>Node8</title>
<polygon fill="white" stroke="#bfbfbf" points="469.72,-0.5 469.72,-19.5 516.72,-19.5 516.72,-0.5 469.72,-0.5"/>
<text text-anchor="middle" x="493.22" y="-7.5" font-family="Helvetica,sans-Serif" font-size="10.00">cmath</text>
</g>
<!-- Node1&#45;&gt;Node8 -->
<g id="edge8" class="edge"><title>Node1&#45;&gt;Node8</title>
<path fill="none" stroke="midnightblue" d="M184.242,-174.583C125.588,-170.336 26.5266,-159.234 4.21971,-132 -1.4128,-125.123 -1.39412,-118.892 4.21971,-112 62.1274,-40.9096 358.237,-18.3424 459.338,-12.6482"/>
<polygon fill="midnightblue" stroke="midnightblue" points="459.796,-16.1285 469.592,-12.0914 459.417,-9.13882 459.796,-16.1285"/>
</g>
<!-- Node9&#45;&gt;Node4 -->
<g id="edge22" class="edge"><title>Node9&#45;&gt;Node4</title>
<path fill="none" stroke="midnightblue" d="M647.693,-170.893C586.839,-163.411 482.358,-149.726 383.281,-132.08"/>
<polygon fill="midnightblue" stroke="midnightblue" points="383.864,-128.629 373.403,-130.304 382.626,-135.518 383.864,-128.629"/>
</g>
<!-- Node10 -->
<g id="node11" class="node"><title>Node10</title>
<g id="a_node11"><a xlink:href="bitflag_8h.html" target="_top" xlink:title="base/bitflag.h">
<polygon fill="white" stroke="black" points="391.72,-112.5 391.72,-131.5 472.72,-131.5 472.72,-112.5 391.72,-112.5"/>
<text text-anchor="middle" x="432.22" y="-119.5" font-family="Helvetica,sans-Serif" font-size="10.00">base/bitflag.h</text>
</a>
</g>
</g>
<!-- Node9&#45;&gt;Node10 -->
<g id="edge10" class="edge"><title>Node9&#45;&gt;Node10</title>
<path fill="none" stroke="midnightblue" d="M656.913,-168.444C609.727,-158.9 533.427,-143.469 483.042,-133.279"/>
<polygon fill="midnightblue" stroke="midnightblue" points="483.511,-129.803 473.015,-131.251 482.123,-136.664 483.511,-129.803"/>
</g>
<!-- Node12 -->
<g id="node13" class="node"><title>Node12</title>
<g id="a_node13"><a xlink:href="vec3_8h.html" target="_top" xlink:title="base/vec/vec3.h">
<polygon fill="white" stroke="black" points="491.22,-112.5 491.22,-131.5 585.22,-131.5 585.22,-112.5 491.22,-112.5"/>
<text text-anchor="middle" x="538.22" y="-119.5" font-family="Helvetica,sans-Serif" font-size="10.00">base/vec/vec3.h</text>
</a>
</g>
</g>
<!-- Node9&#45;&gt;Node12 -->
<g id="edge12" class="edge"><title>Node9&#45;&gt;Node12</title>
<path fill="none" stroke="midnightblue" d="M673.709,-168.444C646.624,-159.359 603.63,-144.939 573.351,-134.783"/>
<polygon fill="midnightblue" stroke="midnightblue" points="574.205,-131.378 563.611,-131.516 571.979,-138.015 574.205,-131.378"/>
</g>
<!-- Node15 -->
<g id="node16" class="node"><title>Node15</title>
<g id="a_node16"><a xlink:href="base_2std__ext_2math_8h.html" target="_top" xlink:title="base/std_ext/math.h">
<polygon fill="white" stroke="black" points="641.22,-112.5 641.22,-131.5 757.22,-131.5 757.22,-112.5 641.22,-112.5"/>
<text text-anchor="middle" x="699.22" y="-119.5" font-family="Helvetica,sans-Serif" font-size="10.00">base/std_ext/math.h</text>
</a>
</g>
</g>
<!-- Node9&#45;&gt;Node15 -->
<g id="edge17" class="edge"><title>Node9&#45;&gt;Node15</title>
<path fill="none" stroke="midnightblue" d="M699.22,-168.083C699.22,-161.006 699.22,-150.861 699.22,-141.986"/>
<polygon fill="midnightblue" stroke="midnightblue" points="702.72,-141.751 699.22,-131.751 695.72,-141.751 702.72,-141.751"/>
</g>
<!-- Node16 -->
<g id="node17" class="node"><title>Node16</title>
<polygon fill="white" stroke="#bfbfbf" points="752.72,-56.5 752.72,-75.5 799.72,-75.5 799.72,-56.5 752.72,-56.5"/>
<text text-anchor="middle" x="776.22" y="-63.5" font-family="Helvetica,sans-Serif" font-size="10.00">vector</text>
</g>
<!-- Node9&#45;&gt;Node16 -->
<g id="edge25" class="edge"><title>Node9&#45;&gt;Node16</title>
<path fill="none" stroke="midnightblue" d="M720.258,-168.476C735.553,-161.14 755.399,-149.031 766.22,-132 774.926,-118.297 777.045,-99.7643 777.21,-85.9937"/>
<polygon fill="midnightblue" stroke="midnightblue" points="780.704,-85.6795 776.989,-75.7571 773.706,-85.8302 780.704,-85.6795"/>
</g>
<!-- Node17 -->
<g id="node18" class="node"><title>Node17</title>
<polygon fill="white" stroke="#bfbfbf" points="813.72,-112.5 813.72,-131.5 862.72,-131.5 862.72,-112.5 813.72,-112.5"/>
<text text-anchor="middle" x="838.22" y="-119.5" font-family="Helvetica,sans-Serif" font-size="10.00">cstdint</text>
</g>
<!-- Node9&#45;&gt;Node17 -->
<g id="edge21" class="edge"><title>Node9&#45;&gt;Node17</title>
<path fill="none" stroke="midnightblue" d="M721.245,-168.444C744.324,-159.478 780.782,-145.314 806.861,-135.183"/>
<polygon fill="midnightblue" stroke="midnightblue" points="808.244,-138.4 816.298,-131.516 805.709,-131.875 808.244,-138.4"/>
</g>
<!-- Node18 -->
<g id="node19" class="node"><title>Node18</title>
<polygon fill="white" stroke="#bfbfbf" points="881.22,-112.5 881.22,-131.5 925.22,-131.5 925.22,-112.5 881.22,-112.5"/>
<text text-anchor="middle" x="903.22" y="-119.5" font-family="Helvetica,sans-Serif" font-size="10.00">string</text>
</g>
<!-- Node9&#45;&gt;Node18 -->
<g id="edge23" class="edge"><title>Node9&#45;&gt;Node18</title>
<path fill="none" stroke="midnightblue" d="M733.107,-168.485C766.061,-160.138 817.768,-146.867 871.242,-132.217"/>
<polygon fill="midnightblue" stroke="midnightblue" points="872.176,-135.59 880.89,-129.564 870.32,-128.841 872.176,-135.59"/>
</g>
<!-- Node19 -->
<g id="node20" class="node"><title>Node19</title>
<polygon fill="white" stroke="#bfbfbf" points="943.22,-112.5 943.22,-131.5 1011.22,-131.5 1011.22,-112.5 943.22,-112.5"/>
<text text-anchor="middle" x="977.22" y="-119.5" font-family="Helvetica,sans-Serif" font-size="10.00">type_traits</text>
</g>
<!-- Node9&#45;&gt;Node19 -->
<g id="edge24" class="edge"><title>Node9&#45;&gt;Node19</title>
<path fill="none" stroke="midnightblue" d="M745.196,-168.437C790.473,-159.95 861.87,-146.424 932.94,-132.232"/>
<polygon fill="midnightblue" stroke="midnightblue" points="933.845,-135.62 942.963,-130.225 932.471,-128.756 933.845,-135.62"/>
</g>
<!-- Node11 -->
<g id="node12" class="node"><title>Node11</title>
<polygon fill="white" stroke="#bfbfbf" points="395.22,-56.5 395.22,-75.5 439.22,-75.5 439.22,-56.5 395.22,-56.5"/>
<text text-anchor="middle" x="417.22" y="-63.5" font-family="Helvetica,sans-Serif" font-size="10.00">bitset</text>
</g>
<!-- Node10&#45;&gt;Node11 -->
<g id="edge11" class="edge"><title>Node10&#45;&gt;Node11</title>
<path fill="none" stroke="midnightblue" d="M429.743,-112.083C427.733,-104.849 424.833,-94.4087 422.33,-85.3968"/>
<polygon fill="midnightblue" stroke="midnightblue" points="425.699,-84.4495 419.651,-75.7511 418.955,-86.323 425.699,-84.4495"/>
</g>
<!-- Node12&#45;&gt;Node8 -->
<g id="edge16" class="edge"><title>Node12&#45;&gt;Node8</title>
<path fill="none" stroke="midnightblue" d="M522.436,-112.467C510.017,-104.769 493.615,-92.179 486.22,-76 479.518,-61.3384 482.408,-42.9377 486.308,-29.4599"/>
<polygon fill="midnightblue" stroke="midnightblue" points="489.662,-30.4654 489.49,-19.8719 483.018,-28.2609 489.662,-30.4654"/>
</g>
<!-- Node13 -->
<g id="node14" class="node"><title>Node13</title>
<g id="a_node14"><a xlink:href="vec2_8h.html" target="_top" xlink:title="vec2.h">
<polygon fill="white" stroke="black" points="495.22,-56.5 495.22,-75.5 543.22,-75.5 543.22,-56.5 495.22,-56.5"/>
<text text-anchor="middle" x="519.22" y="-63.5" font-family="Helvetica,sans-Serif" font-size="10.00">vec2.h</text>
</a>
</g>
</g>
<!-- Node12&#45;&gt;Node13 -->
<g id="edge13" class="edge"><title>Node12&#45;&gt;Node13</title>
<path fill="none" stroke="midnightblue" d="M535.082,-112.083C532.537,-104.849 528.864,-94.4087 525.693,-85.3968"/>
<polygon fill="midnightblue" stroke="midnightblue" points="528.92,-84.0225 522.299,-75.7511 522.316,-86.3459 528.92,-84.0225"/>
</g>
<!-- Node14 -->
<g id="node15" class="node"><title>Node14</title>
<polygon fill="white" stroke="#bfbfbf" points="561.72,-56.5 561.72,-75.5 618.72,-75.5 618.72,-56.5 561.72,-56.5"/>
<text text-anchor="middle" x="590.22" y="-63.5" font-family="Helvetica,sans-Serif" font-size="10.00">ostream</text>
</g>
<!-- Node12&#45;&gt;Node14 -->
<g id="edge15" class="edge"><title>Node12&#45;&gt;Node14</title>
<path fill="none" stroke="midnightblue" d="M546.806,-112.083C554.379,-104.22 565.598,-92.5688 574.734,-83.0813"/>
<polygon fill="midnightblue" stroke="midnightblue" points="577.377,-85.3821 581.793,-75.7511 572.335,-80.5266 577.377,-85.3821"/>
</g>
<!-- Node13&#45;&gt;Node8 -->
<g id="edge14" class="edge"><title>Node13&#45;&gt;Node8</title>
<path fill="none" stroke="midnightblue" d="M514.926,-56.083C511.367,-48.6913 506.197,-37.9533 501.795,-28.8111"/>
<polygon fill="midnightblue" stroke="midnightblue" points="504.925,-27.2427 497.433,-19.7511 498.618,-30.2795 504.925,-27.2427"/>
</g>
<!-- Node15&#45;&gt;Node5 -->
<g id="edge19" class="edge"><title>Node15&#45;&gt;Node5</title>
<path fill="none" stroke="midnightblue" d="M692.449,-112.083C686.658,-104.455 678.161,-93.2645 671.082,-83.9408"/>
<polygon fill="midnightblue" stroke="midnightblue" points="673.699,-81.5991 664.864,-75.7511 668.124,-85.8321 673.699,-81.5991"/>
</g>
<!-- Node15&#45;&gt;Node8 -->
<g id="edge18" class="edge"><title>Node15&#45;&gt;Node8</title>
<path fill="none" stroke="midnightblue" d="M700.526,-112.104C702.027,-98.1994 702.664,-71.3249 688.22,-56 666.472,-32.9266 576.614,-19.88 526.82,-14.2913"/>
<polygon fill="midnightblue" stroke="midnightblue" points="527.161,-10.8077 516.842,-13.211 526.407,-17.7671 527.161,-10.8077"/>
</g>
<!-- Node15&#45;&gt;Node16 -->
<g id="edge20" class="edge"><title>Node15&#45;&gt;Node16</title>
<path fill="none" stroke="midnightblue" d="M711.591,-112.324C723.378,-104.058 741.352,-91.4527 755.355,-81.6322"/>
<polygon fill="midnightblue" stroke="midnightblue" points="757.701,-84.2619 763.879,-75.6545 753.682,-78.5307 757.701,-84.2619"/>
</g>
</g>
</svg>
