<?xml version="1.0" encoding="UTF-8" standalone="no"?>
<!DOCTYPE svg PUBLIC "-//W3C//DTD SVG 1.1//EN"
 "http://www.w3.org/Graphics/SVG/1.1/DTD/svg11.dtd">
<!-- Generated by graphviz version 2.38.0 (20140413.2041)
 -->
<!-- Title: progs/Ant&#45;addTID.cc Pages: 1 -->
<svg width="320pt" height="140pt"
 viewBox="0.00 0.00 319.50 140.00" xmlns="http://www.w3.org/2000/svg" xmlns:xlink="http://www.w3.org/1999/xlink">
<g id="graph0" class="graph" transform="scale(1 1) rotate(0) translate(4 136)">
<title>progs/Ant&#45;addTID.cc</title>
<polygon fill="white" stroke="none" points="-4,4 -4,-136 315.5,-136 315.5,4 -4,4"/>
<!-- Node0 -->
<g id="node1" class="node"><title>Node0</title>
<polygon fill="#bfbfbf" stroke="black" points="135.5,-112.5 135.5,-131.5 248.5,-131.5 248.5,-112.5 135.5,-112.5"/>
<text text-anchor="middle" x="192" y="-119.5" font-family="Helvetica,sans-Serif" font-size="10.00">progs/Ant&#45;addTID.cc</text>
</g>
<!-- Node1 -->
<g id="node2" class="node"><title>Node1</title>
<g id="a_node2"><a xlink:href="_pluto_t_i_d_8h.html" target="_top" xlink:title="mc/pluto/utils/PlutoTID.h">
<polygon fill="white" stroke="black" points="0,-56.5 0,-75.5 132,-75.5 132,-56.5 0,-56.5"/>
<text text-anchor="middle" x="66" y="-63.5" font-family="Helvetica,sans-Serif" font-size="10.00">mc/pluto/utils/PlutoTID.h</text>
</a>
</g>
</g>
<!-- Node0&#45;&gt;Node1 -->
<g id="edge1" class="edge"><title>Node0&#45;&gt;Node1</title>
<path fill="none" stroke="midnightblue" d="M172.035,-112.444C151.391,-103.596 118.937,-89.6875 95.3684,-79.5865"/>
<polygon fill="midnightblue" stroke="midnightblue" points="96.4419,-76.2387 85.8717,-75.5164 93.6844,-82.6727 96.4419,-76.2387"/>
</g>
<!-- Node3 -->
<g id="node4" class="node"><title>Node3</title>
<g id="a_node4"><a xlink:href="_logger_8h.html" target="_top" xlink:title="base/Logger.h">
<polygon fill="white" stroke="black" points="150,-56.5 150,-75.5 234,-75.5 234,-56.5 150,-56.5"/>
<text text-anchor="middle" x="192" y="-63.5" font-family="Helvetica,sans-Serif" font-size="10.00">base/Logger.h</text>
</a>
</g>
</g>
<!-- Node0&#45;&gt;Node3 -->
<g id="edge3" class="edge"><title>Node0&#45;&gt;Node3</title>
<path fill="none" stroke="midnightblue" d="M192,-112.083C192,-105.006 192,-94.8611 192,-85.9865"/>
<polygon fill="midnightblue" stroke="midnightblue" points="195.5,-85.751 192,-75.7511 188.5,-85.7511 195.5,-85.751"/>
</g>
<!-- Node5 -->
<g id="node6" class="node"><title>Node5</title>
<polygon fill="white" stroke="#bfbfbf" points="252.5,-56.5 252.5,-75.5 311.5,-75.5 311.5,-56.5 252.5,-56.5"/>
<text text-anchor="middle" x="282" y="-63.5" font-family="Helvetica,sans-Serif" font-size="10.00">iostream</text>
</g>
<!-- Node0&#45;&gt;Node5 -->
<g id="edge5" class="edge"><title>Node0&#45;&gt;Node5</title>
<path fill="none" stroke="midnightblue" d="M206.46,-112.324C220.5,-103.9 242.048,-90.9709 258.543,-81.0741"/>
<polygon fill="midnightblue" stroke="midnightblue" points="260.802,-83.8007 267.576,-75.6545 257.2,-77.7983 260.802,-83.8007"/>
</g>
<!-- Node2 -->
<g id="node3" class="node"><title>Node2</title>
<polygon fill="white" stroke="#bfbfbf" points="44,-0.5 44,-19.5 88,-19.5 88,-0.5 44,-0.5"/>
<text text-anchor="middle" x="66" y="-7.5" font-family="Helvetica,sans-Serif" font-size="10.00">string</text>
</g>
<!-- Node1&#45;&gt;Node2 -->
<g id="edge2" class="edge"><title>Node1&#45;&gt;Node2</title>
<path fill="none" stroke="midnightblue" d="M66,-56.083C66,-49.0059 66,-38.8611 66,-29.9865"/>
<polygon fill="midnightblue" stroke="midnightblue" points="69.5001,-29.751 66,-19.7511 62.5001,-29.7511 69.5001,-29.751"/>
</g>
<!-- Node4 -->
<g id="node5" class="node"><title>Node4</title>
<polygon fill="white" stroke="#bfbfbf" points="142.5,-0.5 142.5,-19.5 241.5,-19.5 241.5,-0.5 142.5,-0.5"/>
<text text-anchor="middle" x="192" y="-7.5" font-family="Helvetica,sans-Serif" font-size="10.00">easylogging++.h</text>
</g>
<!-- Node3&#45;&gt;Node4 -->
<g id="edge4" class="edge"><title>Node3&#45;&gt;Node4</title>
<path fill="none" stroke="midnightblue" d="M192,-56.083C192,-49.0059 192,-38.8611 192,-29.9865"/>
<polygon fill="midnightblue" stroke="midnightblue" points="195.5,-29.751 192,-19.7511 188.5,-29.7511 195.5,-29.751"/>
</g>
</g>
</svg>
