<?xml version="1.0" encoding="UTF-8" standalone="no"?>
<!DOCTYPE svg PUBLIC "-//W3C//DTD SVG 1.1//EN"
 "http://www.w3.org/Graphics/SVG/1.1/DTD/svg11.dtd">
<!-- Generated by graphviz version 2.38.0 (20140413.2041)
 -->
<!-- Title: progs/Ant&#45;treeTool.cc Pages: 1 -->
<svg width="1506pt" height="252pt"
 viewBox="0.00 0.00 1505.50 252.00" xmlns="http://www.w3.org/2000/svg" xmlns:xlink="http://www.w3.org/1999/xlink">
<g id="graph0" class="graph" transform="scale(1 1) rotate(0) translate(4 248)">
<title>progs/Ant&#45;treeTool.cc</title>
<polygon fill="white" stroke="none" points="-4,4 -4,-248 1501.5,-248 1501.5,4 -4,4"/>
<!-- Node0 -->
<g id="node1" class="node"><title>Node0</title>
<polygon fill="#bfbfbf" stroke="black" points="381.5,-224.5 381.5,-243.5 499.5,-243.5 499.5,-224.5 381.5,-224.5"/>
<text text-anchor="middle" x="440.5" y="-231.5" font-family="Helvetica,sans-Serif" font-size="10.00">progs/Ant&#45;treeTool.cc</text>
</g>
<!-- Node1 -->
<g id="node2" class="node"><title>Node1</title>
<g id="a_node2"><a xlink:href="_logger_8h.html" target="_top" xlink:title="base/Logger.h">
<polygon fill="white" stroke="black" points="100.5,-168.5 100.5,-187.5 184.5,-187.5 184.5,-168.5 100.5,-168.5"/>
<text text-anchor="middle" x="142.5" y="-175.5" font-family="Helvetica,sans-Serif" font-size="10.00">base/Logger.h</text>
</a>
</g>
</g>
<!-- Node0&#45;&gt;Node1 -->
<g id="edge1" class="edge"><title>Node0&#45;&gt;Node1</title>
<path fill="none" stroke="midnightblue" d="M393.281,-224.444C339.206,-214.645 250.87,-198.638 194.765,-188.471"/>
<polygon fill="midnightblue" stroke="midnightblue" points="195.144,-184.983 184.68,-186.643 193.896,-191.87 195.144,-184.983"/>
</g>
<!-- Node3 -->
<g id="node4" class="node"><title>Node3</title>
<polygon fill="white" stroke="#bfbfbf" points="259.5,-168.5 259.5,-187.5 353.5,-187.5 353.5,-168.5 259.5,-168.5"/>
<text text-anchor="middle" x="306.5" y="-175.5" font-family="Helvetica,sans-Serif" font-size="10.00">tclap/CmdLine.h</text>
</g>
<!-- Node0&#45;&gt;Node3 -->
<g id="edge3" class="edge"><title>Node0&#45;&gt;Node3</title>
<path fill="none" stroke="midnightblue" d="M419.267,-224.444C397.116,-215.517 362.181,-201.439 337.064,-191.317"/>
<polygon fill="midnightblue" stroke="midnightblue" points="338.217,-188.008 327.633,-187.516 335.6,-194.501 338.217,-188.008"/>
</g>
<!-- Node4 -->
<g id="node5" class="node"><title>Node4</title>
<polygon fill="white" stroke="#bfbfbf" points="372,-168.5 372,-187.5 431,-187.5 431,-168.5 372,-168.5"/>
<text text-anchor="middle" x="401.5" y="-175.5" font-family="Helvetica,sans-Serif" font-size="10.00">iostream</text>
</g>
<!-- Node0&#45;&gt;Node4 -->
<g id="edge4" class="edge"><title>Node0&#45;&gt;Node4</title>
<path fill="none" stroke="midnightblue" d="M434.06,-224.083C428.551,-216.455 420.469,-205.264 413.735,-195.941"/>
<polygon fill="midnightblue" stroke="midnightblue" points="416.513,-193.809 407.82,-187.751 410.838,-197.907 416.513,-193.809"/>
</g>
<!-- Node5 -->
<g id="node6" class="node"><title>Node5</title>
<g id="a_node6"><a xlink:href="_wrap_t_file_8h.html" target="_top" xlink:title="base/WrapTFile.h">
<polygon fill="white" stroke="black" points="919,-168.5 919,-187.5 1014,-187.5 1014,-168.5 919,-168.5"/>
<text text-anchor="middle" x="966.5" y="-175.5" font-family="Helvetica,sans-Serif" font-size="10.00">base/WrapTFile.h</text>
</a>
</g>
</g>
<!-- Node0&#45;&gt;Node5 -->
<g id="edge5" class="edge"><title>Node0&#45;&gt;Node5</title>
<path fill="none" stroke="midnightblue" d="M499.562,-226.937C601.274,-216.495 808.247,-195.247 908.923,-184.911"/>
<polygon fill="midnightblue" stroke="midnightblue" points="909.321,-188.389 918.911,-183.886 908.606,-181.425 909.321,-188.389"/>
</g>
<!-- Node26 -->
<g id="node27" class="node"><title>Node26</title>
<polygon fill="white" stroke="#bfbfbf" points="1032.5,-168.5 1032.5,-187.5 1082.5,-187.5 1082.5,-168.5 1032.5,-168.5"/>
<text text-anchor="middle" x="1057.5" y="-175.5" font-family="Helvetica,sans-Serif" font-size="10.00">TTree.h</text>
</g>
<!-- Node0&#45;&gt;Node26 -->
<g id="edge31" class="edge"><title>Node0&#45;&gt;Node26</title>
<path fill="none" stroke="midnightblue" d="M499.561,-231.832C605.167,-228.989 833.045,-219.436 1022.5,-188 1022.6,-187.983 1022.7,-187.966 1022.8,-187.949"/>
<polygon fill="midnightblue" stroke="midnightblue" points="1023.27,-191.427 1032.38,-186.019 1021.88,-184.565 1023.27,-191.427"/>
</g>
<!-- Node27 -->
<g id="node28" class="node"><title>Node27</title>
<g id="a_node28"><a xlink:href="_t_i_d_8h.html" target="_top" xlink:title="tree/TID.h">
<polygon fill="white" stroke="black" points="449,-168.5 449,-187.5 512,-187.5 512,-168.5 449,-168.5"/>
<text text-anchor="middle" x="480.5" y="-175.5" font-family="Helvetica,sans-Serif" font-size="10.00">tree/TID.h</text>
</a>
</g>
</g>
<!-- Node0&#45;&gt;Node27 -->
<g id="edge32" class="edge"><title>Node0&#45;&gt;Node27</title>
<path fill="none" stroke="midnightblue" d="M447.105,-224.083C452.755,-216.455 461.045,-205.264 467.951,-195.941"/>
<polygon fill="midnightblue" stroke="midnightblue" points="470.878,-197.87 474.018,-187.751 465.253,-193.703 470.878,-197.87"/>
</g>
<!-- Node2 -->
<g id="node3" class="node"><title>Node2</title>
<polygon fill="white" stroke="#bfbfbf" points="0,-112.5 0,-131.5 99,-131.5 99,-112.5 0,-112.5"/>
<text text-anchor="middle" x="49.5" y="-119.5" font-family="Helvetica,sans-Serif" font-size="10.00">easylogging++.h</text>
</g>
<!-- Node1&#45;&gt;Node2 -->
<g id="edge2" class="edge"><title>Node1&#45;&gt;Node2</title>
<path fill="none" stroke="midnightblue" d="M127.558,-168.324C112.915,-159.822 90.3663,-146.729 73.2623,-136.797"/>
<polygon fill="midnightblue" stroke="midnightblue" points="74.8104,-133.649 64.405,-131.655 71.2954,-139.703 74.8104,-133.649"/>
</g>
<!-- Node6 -->
<g id="node7" class="node"><title>Node6</title>
<g id="a_node7"><a xlink:href="string_8h.html" target="_top" xlink:title="base/std_ext/string.h">
<polygon fill="white" stroke="black" points="688,-56.5 688,-75.5 805,-75.5 805,-56.5 688,-56.5"/>
<text text-anchor="middle" x="746.5" y="-63.5" font-family="Helvetica,sans-Serif" font-size="10.00">base/std_ext/string.h</text>
</a>
</g>
</g>
<!-- Node5&#45;&gt;Node6 -->
<g id="edge6" class="edge"><title>Node5&#45;&gt;Node6</title>
<path fill="none" stroke="midnightblue" d="M918.773,-172.757C864.417,-166.916 780.301,-154.476 758.5,-132 746.9,-120.041 744.598,-100.74 744.778,-86.2709"/>
<polygon fill="midnightblue" stroke="midnightblue" points="748.292,-86.107 745.325,-75.936 741.302,-85.7371 748.292,-86.107"/>
</g>
<!-- Node7 -->
<g id="node8" class="node"><title>Node7</title>
<polygon fill="white" stroke="#bfbfbf" points="918.5,-0.5 918.5,-19.5 962.5,-19.5 962.5,-0.5 918.5,-0.5"/>
<text text-anchor="middle" x="940.5" y="-7.5" font-family="Helvetica,sans-Serif" font-size="10.00">string</text>
</g>
<!-- Node5&#45;&gt;Node7 -->
<g id="edge26" class="edge"><title>Node5&#45;&gt;Node7</title>
<path fill="none" stroke="midnightblue" d="M965.102,-168.075C961.01,-141.945 948.991,-65.2106 943.41,-29.577"/>
<polygon fill="midnightblue" stroke="midnightblue" points="946.847,-28.906 941.842,-19.5681 939.932,-29.9893 946.847,-28.906"/>
</g>
<!-- Node11 -->
<g id="node12" class="node"><title>Node11</title>
<g id="a_node12"><a xlink:href="misc_8h.html" target="_top" xlink:title="base/std_ext/misc.h">
<polygon fill="white" stroke="black" points="1244,-112.5 1244,-131.5 1357,-131.5 1357,-112.5 1244,-112.5"/>
<text text-anchor="middle" x="1300.5" y="-119.5" font-family="Helvetica,sans-Serif" font-size="10.00">base/std_ext/misc.h</text>
</a>
</g>
</g>
<!-- Node5&#45;&gt;Node11 -->
<g id="edge11" class="edge"><title>Node5&#45;&gt;Node11</title>
<path fill="none" stroke="midnightblue" d="M1014.35,-169.263C1073.08,-159.768 1172.83,-143.641 1237.68,-133.157"/>
<polygon fill="midnightblue" stroke="midnightblue" points="1238.46,-136.576 1247.78,-131.524 1237.34,-129.665 1238.46,-136.576"/>
</g>
<!-- Node12 -->
<g id="node13" class="node"><title>Node12</title>
<polygon fill="white" stroke="#bfbfbf" points="1330,-56.5 1330,-75.5 1393,-75.5 1393,-56.5 1330,-56.5"/>
<text text-anchor="middle" x="1361.5" y="-63.5" font-family="Helvetica,sans-Serif" font-size="10.00">functional</text>
</g>
<!-- Node5&#45;&gt;Node12 -->
<g id="edge30" class="edge"><title>Node5&#45;&gt;Node12</title>
<path fill="none" stroke="midnightblue" d="M1014.06,-169.301C1017.25,-168.843 1020.42,-168.404 1023.5,-168 1099.49,-158.02 1315.21,-188.952 1366.5,-132 1377.71,-119.547 1374.28,-99.7559 1369.4,-85.2804"/>
<polygon fill="midnightblue" stroke="midnightblue" points="1372.63,-83.9351 1365.77,-75.8603 1366.1,-86.4501 1372.63,-83.9351"/>
</g>
<!-- Node16 -->
<g id="node17" class="node"><title>Node16</title>
<polygon fill="white" stroke="#bfbfbf" points="1411,-56.5 1411,-75.5 1468,-75.5 1468,-56.5 1411,-56.5"/>
<text text-anchor="middle" x="1439.5" y="-63.5" font-family="Helvetica,sans-Serif" font-size="10.00">memory</text>
</g>
<!-- Node5&#45;&gt;Node16 -->
<g id="edge25" class="edge"><title>Node5&#45;&gt;Node16</title>
<path fill="none" stroke="midnightblue" d="M1014.06,-169.284C1017.25,-168.83 1020.42,-168.397 1023.5,-168 1103.24,-157.726 1312.17,-169.102 1383.5,-132 1403.88,-121.399 1420.03,-99.9819 1429.65,-84.627"/>
<polygon fill="midnightblue" stroke="midnightblue" points="1432.92,-85.974 1435,-75.5868 1426.89,-82.4053 1432.92,-85.974"/>
</g>
<!-- Node17 -->
<g id="node18" class="node"><title>Node17</title>
<polygon fill="white" stroke="#bfbfbf" points="1451.5,-112.5 1451.5,-131.5 1497.5,-131.5 1497.5,-112.5 1451.5,-112.5"/>
<text text-anchor="middle" x="1474.5" y="-119.5" font-family="Helvetica,sans-Serif" font-size="10.00">TFile.h</text>
</g>
<!-- Node5&#45;&gt;Node17 -->
<g id="edge19" class="edge"><title>Node5&#45;&gt;Node17</title>
<path fill="none" stroke="midnightblue" d="M1014.05,-169.237C1017.25,-168.795 1020.42,-168.377 1023.5,-168 1206.83,-145.584 1255.24,-161.913 1437.5,-132 1438.75,-131.795 1440.02,-131.571 1441.29,-131.331"/>
<polygon fill="midnightblue" stroke="midnightblue" points="1442.06,-134.746 1451.12,-129.254 1440.61,-127.897 1442.06,-134.746"/>
</g>
<!-- Node18 -->
<g id="node19" class="node"><title>Node18</title>
<polygon fill="white" stroke="#bfbfbf" points="768,-112.5 768,-131.5 841,-131.5 841,-112.5 768,-112.5"/>
<text text-anchor="middle" x="804.5" y="-119.5" font-family="Helvetica,sans-Serif" font-size="10.00">TDirectory.h</text>
</g>
<!-- Node5&#45;&gt;Node18 -->
<g id="edge20" class="edge"><title>Node5&#45;&gt;Node18</title>
<path fill="none" stroke="midnightblue" d="M940.831,-168.444C913.577,-159.359 870.316,-144.939 839.849,-134.783"/>
<polygon fill="midnightblue" stroke="midnightblue" points="840.643,-131.358 830.049,-131.516 838.429,-137.999 840.643,-131.358"/>
</g>
<!-- Node19 -->
<g id="node20" class="node"><title>Node19</title>
<polygon fill="white" stroke="#bfbfbf" points="859,-112.5 859,-131.5 912,-131.5 912,-112.5 859,-112.5"/>
<text text-anchor="middle" x="885.5" y="-119.5" font-family="Helvetica,sans-Serif" font-size="10.00">TError.h</text>
</g>
<!-- Node5&#45;&gt;Node19 -->
<g id="edge21" class="edge"><title>Node5&#45;&gt;Node19</title>
<path fill="none" stroke="midnightblue" d="M953.486,-168.324C940.968,-159.979 921.818,-147.212 907.029,-137.352"/>
<polygon fill="midnightblue" stroke="midnightblue" points="908.744,-134.289 898.482,-131.655 904.861,-140.114 908.744,-134.289"/>
</g>
<!-- Node20 -->
<g id="node21" class="node"><title>Node20</title>
<polygon fill="white" stroke="#bfbfbf" points="969,-112.5 969,-131.5 1016,-131.5 1016,-112.5 969,-112.5"/>
<text text-anchor="middle" x="992.5" y="-119.5" font-family="Helvetica,sans-Serif" font-size="10.00">TList.h</text>
</g>
<!-- Node5&#45;&gt;Node20 -->
<g id="edge22" class="edge"><title>Node5&#45;&gt;Node20</title>
<path fill="none" stroke="midnightblue" d="M970.793,-168.083C974.352,-160.691 979.522,-149.953 983.924,-140.811"/>
<polygon fill="midnightblue" stroke="midnightblue" points="987.102,-142.279 988.287,-131.751 980.795,-139.243 987.102,-142.279"/>
</g>
<!-- Node21 -->
<g id="node22" class="node"><title>Node21</title>
<polygon fill="white" stroke="#bfbfbf" points="1034,-112.5 1034,-131.5 1111,-131.5 1111,-112.5 1034,-112.5"/>
<text text-anchor="middle" x="1072.5" y="-119.5" font-family="Helvetica,sans-Serif" font-size="10.00">TCollection.h</text>
</g>
<!-- Node5&#45;&gt;Node21 -->
<g id="edge23" class="edge"><title>Node5&#45;&gt;Node21</title>
<path fill="none" stroke="midnightblue" d="M983.531,-168.324C1000.53,-159.664 1026.88,-146.242 1046.49,-136.249"/>
<polygon fill="midnightblue" stroke="midnightblue" points="1048.19,-139.312 1055.51,-131.655 1045.01,-133.075 1048.19,-139.312"/>
</g>
<!-- Node22 -->
<g id="node23" class="node"><title>Node22</title>
<polygon fill="white" stroke="#bfbfbf" points="1129.5,-112.5 1129.5,-131.5 1175.5,-131.5 1175.5,-112.5 1129.5,-112.5"/>
<text text-anchor="middle" x="1152.5" y="-119.5" font-family="Helvetica,sans-Serif" font-size="10.00">TKey.h</text>
</g>
<!-- Node5&#45;&gt;Node22 -->
<g id="edge24" class="edge"><title>Node5&#45;&gt;Node22</title>
<path fill="none" stroke="midnightblue" d="M995.972,-168.444C1029.63,-158.672 1084.55,-142.727 1119.58,-132.557"/>
<polygon fill="midnightblue" stroke="midnightblue" points="1120.71,-135.874 1129.34,-129.725 1118.76,-129.152 1120.71,-135.874"/>
</g>
<!-- Node23 -->
<g id="node24" class="node"><title>Node23</title>
<polygon fill="white" stroke="#bfbfbf" points="599.5,-112.5 599.5,-131.5 629.5,-131.5 629.5,-112.5 599.5,-112.5"/>
<text text-anchor="middle" x="614.5" y="-119.5" font-family="Helvetica,sans-Serif" font-size="10.00">list</text>
</g>
<!-- Node5&#45;&gt;Node23 -->
<g id="edge27" class="edge"><title>Node5&#45;&gt;Node23</title>
<path fill="none" stroke="midnightblue" d="M918.885,-173.804C856.443,-168.882 743.536,-157.472 639.307,-131.69"/>
<polygon fill="midnightblue" stroke="midnightblue" points="640.125,-128.286 629.573,-129.233 638.412,-135.073 640.125,-128.286"/>
</g>
<!-- Node24 -->
<g id="node25" class="node"><title>Node24</title>
<polygon fill="white" stroke="#bfbfbf" points="1193.5,-112.5 1193.5,-131.5 1225.5,-131.5 1225.5,-112.5 1193.5,-112.5"/>
<text text-anchor="middle" x="1209.5" y="-119.5" font-family="Helvetica,sans-Serif" font-size="10.00">set</text>
</g>
<!-- Node5&#45;&gt;Node24 -->
<g id="edge28" class="edge"><title>Node5&#45;&gt;Node24</title>
<path fill="none" stroke="midnightblue" d="M1014.17,-169.172C1056.48,-161.775 1120.07,-149.56 1183.68,-131.911"/>
<polygon fill="midnightblue" stroke="midnightblue" points="1184.8,-135.232 1193.47,-129.15 1182.9,-128.495 1184.8,-135.232"/>
</g>
<!-- Node25 -->
<g id="node26" class="node"><title>Node25</title>
<polygon fill="white" stroke="#bfbfbf" points="647.5,-112.5 647.5,-131.5 711.5,-131.5 711.5,-112.5 647.5,-112.5"/>
<text text-anchor="middle" x="679.5" y="-119.5" font-family="Helvetica,sans-Serif" font-size="10.00">stdexcept</text>
</g>
<!-- Node5&#45;&gt;Node25 -->
<g id="edge29" class="edge"><title>Node5&#45;&gt;Node25</title>
<path fill="none" stroke="midnightblue" d="M920.276,-168.491C871.745,-159.529 793.226,-144.948 725.5,-132 724.241,-131.759 722.963,-131.514 721.673,-131.266"/>
<polygon fill="midnightblue" stroke="midnightblue" points="722.147,-127.793 711.664,-129.33 720.817,-134.665 722.147,-127.793"/>
</g>
<!-- Node6&#45;&gt;Node7 -->
<g id="edge7" class="edge"><title>Node6&#45;&gt;Node7</title>
<path fill="none" stroke="midnightblue" d="M777.24,-56.4435C813.025,-46.4827 871.857,-30.1068 908.268,-19.9717"/>
<polygon fill="midnightblue" stroke="midnightblue" points="909.657,-23.2183 918.352,-17.1649 907.78,-16.4747 909.657,-23.2183"/>
</g>
<!-- Node8 -->
<g id="node9" class="node"><title>Node8</title>
<polygon fill="white" stroke="#bfbfbf" points="661.5,-0.5 661.5,-19.5 717.5,-19.5 717.5,-0.5 661.5,-0.5"/>
<text text-anchor="middle" x="689.5" y="-7.5" font-family="Helvetica,sans-Serif" font-size="10.00">sstream</text>
</g>
<!-- Node6&#45;&gt;Node8 -->
<g id="edge8" class="edge"><title>Node6&#45;&gt;Node8</title>
<path fill="none" stroke="midnightblue" d="M737.342,-56.324C728.999,-48.4196 716.468,-36.5482 706.323,-26.9377"/>
<polygon fill="midnightblue" stroke="midnightblue" points="708.491,-24.1705 698.825,-19.8339 703.677,-29.2522 708.491,-24.1705"/>
</g>
<!-- Node9 -->
<g id="node10" class="node"><title>Node9</title>
<polygon fill="white" stroke="#bfbfbf" points="826.5,-0.5 826.5,-19.5 888.5,-19.5 888.5,-0.5 826.5,-0.5"/>
<text text-anchor="middle" x="857.5" y="-7.5" font-family="Helvetica,sans-Serif" font-size="10.00">algorithm</text>
</g>
<!-- Node6&#45;&gt;Node9 -->
<g id="edge9" class="edge"><title>Node6&#45;&gt;Node9</title>
<path fill="none" stroke="midnightblue" d="M764.334,-56.324C782.216,-47.6247 809.975,-34.1202 830.546,-24.113"/>
<polygon fill="midnightblue" stroke="midnightblue" points="832.249,-27.1765 839.71,-19.6545 829.187,-20.8819 832.249,-27.1765"/>
</g>
<!-- Node10 -->
<g id="node11" class="node"><title>Node10</title>
<polygon fill="white" stroke="#bfbfbf" points="736,-0.5 736,-19.5 783,-19.5 783,-0.5 736,-0.5"/>
<text text-anchor="middle" x="759.5" y="-7.5" font-family="Helvetica,sans-Serif" font-size="10.00">vector</text>
</g>
<!-- Node6&#45;&gt;Node10 -->
<g id="edge10" class="edge"><title>Node6&#45;&gt;Node10</title>
<path fill="none" stroke="midnightblue" d="M748.647,-56.083C750.369,-48.9272 752.847,-38.6353 755,-29.6911"/>
<polygon fill="midnightblue" stroke="midnightblue" points="758.455,-30.2925 757.393,-19.7511 751.65,-28.6541 758.455,-30.2925"/>
</g>
<!-- Node11&#45;&gt;Node7 -->
<g id="edge18" class="edge"><title>Node11&#45;&gt;Node7</title>
<path fill="none" stroke="midnightblue" d="M1272.55,-112.46C1206.71,-92.3423 1042.18,-42.0685 972.491,-20.7751"/>
<polygon fill="midnightblue" stroke="midnightblue" points="973.121,-17.308 962.535,-17.7329 971.076,-24.0024 973.121,-17.308"/>
</g>
<!-- Node11&#45;&gt;Node9 -->
<g id="edge12" class="edge"><title>Node11&#45;&gt;Node9</title>
<path fill="none" stroke="midnightblue" d="M1254.77,-112.485C1210.9,-104.078 1142.88,-90.4201 1084.5,-76 1016.98,-59.3227 939.246,-36.1999 894.498,-22.5009"/>
<polygon fill="midnightblue" stroke="midnightblue" points="895.517,-19.1525 884.93,-19.5614 893.461,-25.8439 895.517,-19.1525"/>
</g>
<!-- Node11&#45;&gt;Node12 -->
<g id="edge13" class="edge"><title>Node11&#45;&gt;Node12</title>
<path fill="none" stroke="midnightblue" d="M1310.3,-112.324C1319.32,-104.341 1332.91,-92.3128 1343.82,-82.6529"/>
<polygon fill="midnightblue" stroke="midnightblue" points="1346.35,-85.083 1351.52,-75.8339 1341.71,-79.8416 1346.35,-85.083"/>
</g>
<!-- Node13 -->
<g id="node14" class="node"><title>Node13</title>
<polygon fill="white" stroke="#bfbfbf" points="1190,-56.5 1190,-75.5 1237,-75.5 1237,-56.5 1190,-56.5"/>
<text text-anchor="middle" x="1213.5" y="-63.5" font-family="Helvetica,sans-Serif" font-size="10.00">cmath</text>
</g>
<!-- Node11&#45;&gt;Node13 -->
<g id="edge14" class="edge"><title>Node11&#45;&gt;Node13</title>
<path fill="none" stroke="midnightblue" d="M1286.52,-112.324C1272.95,-103.9 1252.12,-90.9709 1236.18,-81.0741"/>
<polygon fill="midnightblue" stroke="midnightblue" points="1237.79,-77.9544 1227.44,-75.6545 1234.09,-83.9019 1237.79,-77.9544"/>
</g>
<!-- Node14 -->
<g id="node15" class="node"><title>Node14</title>
<polygon fill="white" stroke="#bfbfbf" points="1255.5,-56.5 1255.5,-75.5 1311.5,-75.5 1311.5,-56.5 1255.5,-56.5"/>
<text text-anchor="middle" x="1283.5" y="-63.5" font-family="Helvetica,sans-Serif" font-size="10.00">cxxabi.h</text>
</g>
<!-- Node11&#45;&gt;Node14 -->
<g id="edge15" class="edge"><title>Node11&#45;&gt;Node14</title>
<path fill="none" stroke="midnightblue" d="M1297.69,-112.083C1295.42,-104.849 1292.13,-94.4087 1289.29,-85.3968"/>
<polygon fill="midnightblue" stroke="midnightblue" points="1292.6,-84.2385 1286.25,-75.7511 1285.92,-86.3406 1292.6,-84.2385"/>
</g>
<!-- Node15 -->
<g id="node16" class="node"><title>Node15</title>
<polygon fill="white" stroke="#bfbfbf" points="837.5,-56.5 837.5,-75.5 905.5,-75.5 905.5,-56.5 837.5,-56.5"/>
<text text-anchor="middle" x="871.5" y="-63.5" font-family="Helvetica,sans-Serif" font-size="10.00">type_traits</text>
</g>
<!-- Node11&#45;&gt;Node15 -->
<g id="edge16" class="edge"><title>Node11&#45;&gt;Node15</title>
<path fill="none" stroke="midnightblue" d="M1243.98,-113.247C1240.77,-112.821 1237.6,-112.403 1234.5,-112 1119.5,-97.0312 983.841,-80.5183 915.525,-72.2822"/>
<polygon fill="midnightblue" stroke="midnightblue" points="915.896,-68.8015 905.549,-71.0805 915.058,-75.7513 915.896,-68.8015"/>
</g>
<!-- Node11&#45;&gt;Node16 -->
<g id="edge17" class="edge"><title>Node11&#45;&gt;Node16</title>
<path fill="none" stroke="midnightblue" d="M1322.52,-112.444C1345.6,-103.478 1382.06,-89.314 1408.14,-79.1827"/>
<polygon fill="midnightblue" stroke="midnightblue" points="1409.52,-82.4002 1417.58,-75.5164 1406.99,-75.8753 1409.52,-82.4002"/>
</g>
<!-- Node27&#45;&gt;Node15 -->
<g id="edge38" class="edge"><title>Node27&#45;&gt;Node15</title>
<path fill="none" stroke="midnightblue" d="M493.548,-168.448C518.068,-152.52 570.365,-119.265 590.5,-112 596.046,-109.999 749.621,-85.9523 827.337,-73.8566"/>
<polygon fill="midnightblue" stroke="midnightblue" points="827.983,-77.2984 837.326,-72.3028 826.907,-70.3816 827.983,-77.2984"/>
</g>
<!-- Node27&#45;&gt;Node23 -->
<g id="edge42" class="edge"><title>Node27&#45;&gt;Node23</title>
<path fill="none" stroke="midnightblue" d="M501.733,-168.444C525.602,-158.825 564.315,-143.224 589.593,-133.037"/>
<polygon fill="midnightblue" stroke="midnightblue" points="591.235,-136.149 599.202,-129.165 588.619,-129.656 591.235,-136.149"/>
</g>
<!-- Node27&#45;&gt;Node25 -->
<g id="edge41" class="edge"><title>Node27&#45;&gt;Node25</title>
<path fill="none" stroke="midnightblue" d="M512.032,-168.444C546.092,-159.201 600.506,-144.436 638.015,-134.257"/>
<polygon fill="midnightblue" stroke="midnightblue" points="639.381,-137.513 648.115,-131.516 637.548,-130.758 639.381,-137.513"/>
</g>
<!-- Node28 -->
<g id="node29" class="node"><title>Node28</title>
<polygon fill="white" stroke="#bfbfbf" points="285.5,-112.5 285.5,-131.5 343.5,-131.5 343.5,-112.5 285.5,-112.5"/>
<text text-anchor="middle" x="314.5" y="-119.5" font-family="Helvetica,sans-Serif" font-size="10.00">Rtypes.h</text>
</g>
<!-- Node27&#45;&gt;Node28 -->
<g id="edge33" class="edge"><title>Node27&#45;&gt;Node28</title>
<path fill="none" stroke="midnightblue" d="M454.197,-168.444C426.149,-159.32 381.556,-144.813 350.316,-134.651"/>
<polygon fill="midnightblue" stroke="midnightblue" points="351.272,-131.282 340.68,-131.516 349.107,-137.938 351.272,-131.282"/>
</g>
<!-- Node29 -->
<g id="node30" class="node"><title>Node29</title>
<g id="a_node30"><a xlink:href="base_2std__ext_2_time_8h.html" target="_top" xlink:title="base/std_ext/time.h">
<polygon fill="white" stroke="black" points="155.5,-112.5 155.5,-131.5 267.5,-131.5 267.5,-112.5 155.5,-112.5"/>
<text text-anchor="middle" x="211.5" y="-119.5" font-family="Helvetica,sans-Serif" font-size="10.00">base/std_ext/time.h</text>
</a>
</g>
</g>
<!-- Node27&#45;&gt;Node29 -->
<g id="edge34" class="edge"><title>Node27&#45;&gt;Node29</title>
<path fill="none" stroke="midnightblue" d="M448.73,-169.956C445.613,-169.286 442.496,-168.624 439.5,-168 380.379,-155.678 312.449,-142.382 266.222,-133.462"/>
<polygon fill="midnightblue" stroke="midnightblue" points="266.6,-129.971 256.119,-131.516 265.276,-136.845 266.6,-129.971"/>
</g>
<!-- Node31 -->
<g id="node32" class="node"><title>Node31</title>
<polygon fill="white" stroke="#bfbfbf" points="114.5,-56.5 114.5,-75.5 158.5,-75.5 158.5,-56.5 114.5,-56.5"/>
<text text-anchor="middle" x="136.5" y="-63.5" font-family="Helvetica,sans-Serif" font-size="10.00">ctime</text>
</g>
<!-- Node27&#45;&gt;Node31 -->
<g id="edge44" class="edge"><title>Node27&#45;&gt;Node31</title>
<path fill="none" stroke="midnightblue" d="M448.774,-169.728C445.648,-169.104 442.517,-168.515 439.5,-168 374.836,-156.955 193.586,-177.676 146.5,-132 134.353,-120.217 132.92,-100.289 133.866,-85.5976"/>
<polygon fill="midnightblue" stroke="midnightblue" points="137.352,-85.9162 134.915,-75.6053 130.39,-85.1851 137.352,-85.9162"/>
</g>
<!-- Node32 -->
<g id="node33" class="node"><title>Node32</title>
<polygon fill="white" stroke="#bfbfbf" points="362,-112.5 362,-131.5 403,-131.5 403,-112.5 362,-112.5"/>
<text text-anchor="middle" x="382.5" y="-119.5" font-family="Helvetica,sans-Serif" font-size="10.00">tuple</text>
</g>
<!-- Node27&#45;&gt;Node32 -->
<g id="edge39" class="edge"><title>Node27&#45;&gt;Node32</title>
<path fill="none" stroke="midnightblue" d="M464.755,-168.324C449.181,-159.743 425.123,-146.486 407.041,-136.522"/>
<polygon fill="midnightblue" stroke="midnightblue" points="408.654,-133.415 398.206,-131.655 405.276,-139.546 408.654,-133.415"/>
</g>
<!-- Node33 -->
<g id="node34" class="node"><title>Node33</title>
<polygon fill="white" stroke="#bfbfbf" points="421,-112.5 421,-131.5 470,-131.5 470,-112.5 421,-112.5"/>
<text text-anchor="middle" x="445.5" y="-119.5" font-family="Helvetica,sans-Serif" font-size="10.00">cstdint</text>
</g>
<!-- Node27&#45;&gt;Node33 -->
<g id="edge40" class="edge"><title>Node27&#45;&gt;Node33</title>
<path fill="none" stroke="midnightblue" d="M474.72,-168.083C469.828,-160.534 462.673,-149.495 456.667,-140.23"/>
<polygon fill="midnightblue" stroke="midnightblue" points="459.548,-138.239 451.172,-131.751 453.674,-142.046 459.548,-138.239"/>
</g>
<!-- Node34 -->
<g id="node35" class="node"><title>Node34</title>
<polygon fill="white" stroke="#bfbfbf" points="488,-112.5 488,-131.5 543,-131.5 543,-112.5 488,-112.5"/>
<text text-anchor="middle" x="515.5" y="-119.5" font-family="Helvetica,sans-Serif" font-size="10.00">iomanip</text>
</g>
<!-- Node27&#45;&gt;Node34 -->
<g id="edge43" class="edge"><title>Node27&#45;&gt;Node34</title>
<path fill="none" stroke="midnightblue" d="M486.28,-168.083C491.172,-160.534 498.327,-149.495 504.333,-140.23"/>
<polygon fill="midnightblue" stroke="midnightblue" points="507.326,-142.046 509.828,-131.751 501.452,-138.239 507.326,-142.046"/>
</g>
<!-- Node29&#45;&gt;Node6 -->
<g id="edge35" class="edge"><title>Node29&#45;&gt;Node6</title>
<path fill="none" stroke="midnightblue" d="M267.501,-113.094C270.543,-112.712 273.558,-112.344 276.5,-112 418.928,-95.3287 586.18,-80.4281 677.816,-72.6634"/>
<polygon fill="midnightblue" stroke="midnightblue" points="678.128,-76.1497 687.798,-71.8205 677.539,-69.1745 678.128,-76.1497"/>
</g>
<!-- Node30 -->
<g id="node31" class="node"><title>Node30</title>
<polygon fill="white" stroke="#bfbfbf" points="187,-56.5 187,-75.5 236,-75.5 236,-56.5 187,-56.5"/>
<text text-anchor="middle" x="211.5" y="-63.5" font-family="Helvetica,sans-Serif" font-size="10.00">cstring</text>
</g>
<!-- Node29&#45;&gt;Node30 -->
<g id="edge36" class="edge"><title>Node29&#45;&gt;Node30</title>
<path fill="none" stroke="midnightblue" d="M211.5,-112.083C211.5,-105.006 211.5,-94.8611 211.5,-85.9865"/>
<polygon fill="midnightblue" stroke="midnightblue" points="215,-85.751 211.5,-75.7511 208,-85.7511 215,-85.751"/>
</g>
<!-- Node29&#45;&gt;Node31 -->
<g id="edge37" class="edge"><title>Node29&#45;&gt;Node31</title>
<path fill="none" stroke="midnightblue" d="M199.45,-112.324C188.037,-104.107 170.669,-91.6017 157.065,-81.8069"/>
<polygon fill="midnightblue" stroke="midnightblue" points="158.93,-78.8366 148.769,-75.8339 154.84,-84.5174 158.93,-78.8366"/>
</g>
</g>
</svg>
