<?xml version="1.0" encoding="UTF-8" standalone="no"?>
<!DOCTYPE svg PUBLIC "-//W3C//DTD SVG 1.1//EN"
 "http://www.w3.org/Graphics/SVG/1.1/DTD/svg11.dtd">
<!-- Generated by graphviz version 2.38.0 (20140413.2041)
 -->
<!-- Title: progs/Ant&#45;calib&#45;regedit.cc Pages: 1 -->
<svg width="1749pt" height="308pt"
 viewBox="0.00 0.00 1749.00 308.00" xmlns="http://www.w3.org/2000/svg" xmlns:xlink="http://www.w3.org/1999/xlink">
<g id="graph0" class="graph" transform="scale(1 1) rotate(0) translate(4 304)">
<title>progs/Ant&#45;calib&#45;regedit.cc</title>
<polygon fill="white" stroke="none" points="-4,4 -4,-304 1745,-304 1745,4 -4,4"/>
<!-- Node0 -->
<g id="node1" class="node"><title>Node0</title>
<polygon fill="#bfbfbf" stroke="black" points="784.5,-280.5 784.5,-299.5 924.5,-299.5 924.5,-280.5 784.5,-280.5"/>
<text text-anchor="middle" x="854.5" y="-287.5" font-family="Helvetica,sans-Serif" font-size="10.00">progs/Ant&#45;calib&#45;regedit.cc</text>
</g>
<!-- Node1 -->
<g id="node2" class="node"><title>Node1</title>
<g id="a_node2"><a xlink:href="_logger_8h.html" target="_top" xlink:title="base/Logger.h">
<polygon fill="white" stroke="black" points="67.5,-224.5 67.5,-243.5 151.5,-243.5 151.5,-224.5 67.5,-224.5"/>
<text text-anchor="middle" x="109.5" y="-231.5" font-family="Helvetica,sans-Serif" font-size="10.00">base/Logger.h</text>
</a>
</g>
</g>
<!-- Node0&#45;&gt;Node1 -->
<g id="edge1" class="edge"><title>Node0&#45;&gt;Node1</title>
<path fill="none" stroke="midnightblue" d="M784.412,-283.92C636.114,-273.171 293.436,-248.332 162.067,-238.81"/>
<polygon fill="midnightblue" stroke="midnightblue" points="162.094,-235.303 151.867,-238.071 161.588,-242.285 162.094,-235.303"/>
</g>
<!-- Node3 -->
<g id="node4" class="node"><title>Node3</title>
<polygon fill="white" stroke="#bfbfbf" points="245.5,-224.5 245.5,-243.5 339.5,-243.5 339.5,-224.5 245.5,-224.5"/>
<text text-anchor="middle" x="292.5" y="-231.5" font-family="Helvetica,sans-Serif" font-size="10.00">tclap/CmdLine.h</text>
</g>
<!-- Node0&#45;&gt;Node3 -->
<g id="edge3" class="edge"><title>Node0&#45;&gt;Node3</title>
<path fill="none" stroke="midnightblue" d="M784.35,-284.335C688.517,-277.611 511.088,-263.915 349.638,-244.059"/>
<polygon fill="midnightblue" stroke="midnightblue" points="349.874,-240.562 339.519,-242.804 349.012,-247.508 349.874,-240.562"/>
</g>
<!-- Node4 -->
<g id="node5" class="node"><title>Node4</title>
<g id="a_node5"><a xlink:href="system_8h.html" target="_top" xlink:title="base/std_ext/system.h">
<polygon fill="white" stroke="black" points="792,-168.5 792,-187.5 917,-187.5 917,-168.5 792,-168.5"/>
<text text-anchor="middle" x="854.5" y="-175.5" font-family="Helvetica,sans-Serif" font-size="10.00">base/std_ext/system.h</text>
</a>
</g>
</g>
<!-- Node0&#45;&gt;Node4 -->
<g id="edge4" class="edge"><title>Node0&#45;&gt;Node4</title>
<path fill="none" stroke="midnightblue" d="M854.5,-280.368C854.5,-262.617 854.5,-221.666 854.5,-197.597"/>
<polygon fill="midnightblue" stroke="midnightblue" points="858,-197.591 854.5,-187.591 851,-197.591 858,-197.591"/>
</g>
<!-- Node7 -->
<g id="node8" class="node"><title>Node7</title>
<g id="a_node8"><a xlink:href="string_8h.html" target="_top" xlink:title="base/std_ext/string.h">
<polygon fill="white" stroke="black" points="1012,-56.5 1012,-75.5 1129,-75.5 1129,-56.5 1012,-56.5"/>
<text text-anchor="middle" x="1070.5" y="-63.5" font-family="Helvetica,sans-Serif" font-size="10.00">base/std_ext/string.h</text>
</a>
</g>
</g>
<!-- Node0&#45;&gt;Node7 -->
<g id="edge7" class="edge"><title>Node0&#45;&gt;Node7</title>
<path fill="none" stroke="midnightblue" d="M860.574,-280.151C879.529,-252.933 940.116,-168.867 1003.5,-112 1016.72,-100.14 1033.27,-88.9924 1046.62,-80.7597"/>
<polygon fill="midnightblue" stroke="midnightblue" points="1048.5,-83.71 1055.26,-75.5528 1044.89,-77.7134 1048.5,-83.71"/>
</g>
<!-- Node11 -->
<g id="node12" class="node"><title>Node11</title>
<g id="a_node12"><a xlink:href="_wrap_t_file_8h.html" target="_top" xlink:title="base/WrapTFile.h">
<polygon fill="white" stroke="black" points="1186,-168.5 1186,-187.5 1281,-187.5 1281,-168.5 1186,-168.5"/>
<text text-anchor="middle" x="1233.5" y="-175.5" font-family="Helvetica,sans-Serif" font-size="10.00">base/WrapTFile.h</text>
</a>
</g>
</g>
<!-- Node0&#45;&gt;Node11 -->
<g id="edge12" class="edge"><title>Node0&#45;&gt;Node11</title>
<path fill="none" stroke="midnightblue" d="M875.103,-280.389C896.332,-271.465 930.346,-257.024 959.5,-244 978.744,-235.403 982.453,-230.507 1002.5,-224 1060.07,-205.314 1128.36,-193.186 1175.69,-186.283"/>
<polygon fill="midnightblue" stroke="midnightblue" points="1176.35,-189.724 1185.75,-184.847 1175.36,-182.794 1176.35,-189.724"/>
</g>
<!-- Node26 -->
<g id="node27" class="node"><title>Node26</title>
<g id="a_node27"><a xlink:href="_t_calibration_data_8h.html" target="_top" xlink:title="tree/TCalibrationData.h">
<polygon fill="white" stroke="black" points="358,-224.5 358,-243.5 485,-243.5 485,-224.5 358,-224.5"/>
<text text-anchor="middle" x="421.5" y="-231.5" font-family="Helvetica,sans-Serif" font-size="10.00">tree/TCalibrationData.h</text>
</a>
</g>
</g>
<!-- Node0&#45;&gt;Node26 -->
<g id="edge34" class="edge"><title>Node0&#45;&gt;Node26</title>
<path fill="none" stroke="midnightblue" d="M785.89,-280.444C706.651,-270.562 576.783,-254.365 495.377,-244.213"/>
<polygon fill="midnightblue" stroke="midnightblue" points="495.562,-240.709 485.206,-242.945 494.696,-247.656 495.562,-240.709"/>
</g>
<!-- Node36 -->
<g id="node37" class="node"><title>Node36</title>
<g id="a_node37"><a xlink:href="_t_ant_header_8h.html" target="_top" xlink:title="tree/TAntHeader.h">
<polygon fill="white" stroke="black" points="657.5,-224.5 657.5,-243.5 761.5,-243.5 761.5,-224.5 657.5,-224.5"/>
<text text-anchor="middle" x="709.5" y="-231.5" font-family="Helvetica,sans-Serif" font-size="10.00">tree/TAntHeader.h</text>
</a>
</g>
</g>
<!-- Node0&#45;&gt;Node36 -->
<g id="edge52" class="edge"><title>Node0&#45;&gt;Node36</title>
<path fill="none" stroke="midnightblue" d="M831.524,-280.444C807.343,-271.438 769.082,-257.189 741.854,-247.049"/>
<polygon fill="midnightblue" stroke="midnightblue" points="742.961,-243.727 732.368,-243.516 740.518,-250.286 742.961,-243.727"/>
</g>
<!-- Node38 -->
<g id="node39" class="node"><title>Node38</title>
<polygon fill="white" stroke="#bfbfbf" points="1011.5,-224.5 1011.5,-243.5 1061.5,-243.5 1061.5,-224.5 1011.5,-224.5"/>
<text text-anchor="middle" x="1036.5" y="-231.5" font-family="Helvetica,sans-Serif" font-size="10.00">TTree.h</text>
</g>
<!-- Node0&#45;&gt;Node38 -->
<g id="edge56" class="edge"><title>Node0&#45;&gt;Node38</title>
<path fill="none" stroke="midnightblue" d="M883.338,-280.444C915.45,-270.916 967.344,-255.519 1001.69,-245.328"/>
<polygon fill="midnightblue" stroke="midnightblue" points="1002.72,-248.673 1011.31,-242.473 1000.73,-241.962 1002.72,-248.673"/>
</g>
<!-- Node39 -->
<g id="node40" class="node"><title>Node39</title>
<polygon fill="white" stroke="#bfbfbf" points="1080,-224.5 1080,-243.5 1139,-243.5 1139,-224.5 1080,-224.5"/>
<text text-anchor="middle" x="1109.5" y="-231.5" font-family="Helvetica,sans-Serif" font-size="10.00">iostream</text>
</g>
<!-- Node0&#45;&gt;Node39 -->
<g id="edge57" class="edge"><title>Node0&#45;&gt;Node39</title>
<path fill="none" stroke="midnightblue" d="M896.774,-280.471C938.232,-272.045 1003.5,-258.616 1069.53,-244.176"/>
<polygon fill="midnightblue" stroke="midnightblue" points="1070.69,-247.506 1079.7,-241.945 1069.19,-240.669 1070.69,-247.506"/>
</g>
<!-- Node2 -->
<g id="node3" class="node"><title>Node2</title>
<polygon fill="white" stroke="#bfbfbf" points="0,-168.5 0,-187.5 99,-187.5 99,-168.5 0,-168.5"/>
<text text-anchor="middle" x="49.5" y="-175.5" font-family="Helvetica,sans-Serif" font-size="10.00">easylogging++.h</text>
</g>
<!-- Node1&#45;&gt;Node2 -->
<g id="edge2" class="edge"><title>Node1&#45;&gt;Node2</title>
<path fill="none" stroke="midnightblue" d="M99.86,-224.324C90.9904,-216.341 77.6253,-204.313 66.8921,-194.653"/>
<polygon fill="midnightblue" stroke="midnightblue" points="69.0898,-191.922 59.3154,-187.834 64.407,-197.125 69.0898,-191.922"/>
</g>
<!-- Node5 -->
<g id="node6" class="node"><title>Node5</title>
<polygon fill="white" stroke="#bfbfbf" points="887.5,-112.5 887.5,-131.5 917.5,-131.5 917.5,-112.5 887.5,-112.5"/>
<text text-anchor="middle" x="902.5" y="-119.5" font-family="Helvetica,sans-Serif" font-size="10.00">list</text>
</g>
<!-- Node4&#45;&gt;Node5 -->
<g id="edge5" class="edge"><title>Node4&#45;&gt;Node5</title>
<path fill="none" stroke="midnightblue" d="M862.426,-168.083C869.346,-160.298 879.565,-148.801 887.952,-139.367"/>
<polygon fill="midnightblue" stroke="midnightblue" points="890.694,-141.55 894.721,-131.751 885.462,-136.9 890.694,-141.55"/>
</g>
<!-- Node6 -->
<g id="node7" class="node"><title>Node6</title>
<polygon fill="white" stroke="#bfbfbf" points="717.5,-0.5 717.5,-19.5 761.5,-19.5 761.5,-0.5 717.5,-0.5"/>
<text text-anchor="middle" x="739.5" y="-7.5" font-family="Helvetica,sans-Serif" font-size="10.00">string</text>
</g>
<!-- Node4&#45;&gt;Node6 -->
<g id="edge6" class="edge"><title>Node4&#45;&gt;Node6</title>
<path fill="none" stroke="midnightblue" d="M839.559,-168.238C826.79,-160.147 808.615,-147.117 796.5,-132 770.821,-99.9576 753.421,-54.4484 745.115,-29.3653"/>
<polygon fill="midnightblue" stroke="midnightblue" points="748.4,-28.1458 742.027,-19.6815 741.73,-30.2722 748.4,-28.1458"/>
</g>
<!-- Node7&#45;&gt;Node6 -->
<g id="edge8" class="edge"><title>Node7&#45;&gt;Node6</title>
<path fill="none" stroke="midnightblue" d="M1018.05,-56.4435C948.722,-45.1328 828.689,-25.5505 771.536,-16.2265"/>
<polygon fill="midnightblue" stroke="midnightblue" points="772.056,-12.7651 761.623,-14.6092 770.929,-19.6737 772.056,-12.7651"/>
</g>
<!-- Node8 -->
<g id="node9" class="node"><title>Node8</title>
<polygon fill="white" stroke="#bfbfbf" points="1077.5,-0.5 1077.5,-19.5 1133.5,-19.5 1133.5,-0.5 1077.5,-0.5"/>
<text text-anchor="middle" x="1105.5" y="-7.5" font-family="Helvetica,sans-Serif" font-size="10.00">sstream</text>
</g>
<!-- Node7&#45;&gt;Node8 -->
<g id="edge9" class="edge"><title>Node7&#45;&gt;Node8</title>
<path fill="none" stroke="midnightblue" d="M1076.28,-56.083C1081.17,-48.5341 1088.33,-37.4948 1094.33,-28.2298"/>
<polygon fill="midnightblue" stroke="midnightblue" points="1097.33,-30.0463 1099.83,-19.7511 1091.45,-26.239 1097.33,-30.0463"/>
</g>
<!-- Node9 -->
<g id="node10" class="node"><title>Node9</title>
<polygon fill="white" stroke="#bfbfbf" points="1293.5,-0.5 1293.5,-19.5 1355.5,-19.5 1355.5,-0.5 1293.5,-0.5"/>
<text text-anchor="middle" x="1324.5" y="-7.5" font-family="Helvetica,sans-Serif" font-size="10.00">algorithm</text>
</g>
<!-- Node7&#45;&gt;Node9 -->
<g id="edge10" class="edge"><title>Node7&#45;&gt;Node9</title>
<path fill="none" stroke="midnightblue" d="M1110.75,-56.4435C1157.92,-46.4138 1235.69,-29.88 1283.28,-19.7623"/>
<polygon fill="midnightblue" stroke="midnightblue" points="1284.2,-23.1469 1293.25,-17.6439 1282.74,-16.3 1284.2,-23.1469"/>
</g>
<!-- Node10 -->
<g id="node11" class="node"><title>Node10</title>
<polygon fill="white" stroke="#bfbfbf" points="1012,-0.5 1012,-19.5 1059,-19.5 1059,-0.5 1012,-0.5"/>
<text text-anchor="middle" x="1035.5" y="-7.5" font-family="Helvetica,sans-Serif" font-size="10.00">vector</text>
</g>
<!-- Node7&#45;&gt;Node10 -->
<g id="edge11" class="edge"><title>Node7&#45;&gt;Node10</title>
<path fill="none" stroke="midnightblue" d="M1064.72,-56.083C1059.83,-48.5341 1052.67,-37.4948 1046.67,-28.2298"/>
<polygon fill="midnightblue" stroke="midnightblue" points="1049.55,-26.239 1041.17,-19.7511 1043.67,-30.0463 1049.55,-26.239"/>
</g>
<!-- Node11&#45;&gt;Node5 -->
<g id="edge30" class="edge"><title>Node11&#45;&gt;Node5</title>
<path fill="none" stroke="midnightblue" d="M1185.72,-169.206C1114.39,-157.568 982.562,-136.061 927.592,-127.093"/>
<polygon fill="midnightblue" stroke="midnightblue" points="928.096,-123.63 917.663,-125.474 926.969,-130.538 928.096,-123.63"/>
</g>
<!-- Node11&#45;&gt;Node6 -->
<g id="edge29" class="edge"><title>Node11&#45;&gt;Node6</title>
<path fill="none" stroke="midnightblue" d="M1185.98,-171.054C1138.89,-164.384 1065.08,-151.827 1003.5,-132 911.426,-102.355 809.084,-49.1849 763.577,-24.4003"/>
<polygon fill="midnightblue" stroke="midnightblue" points="765.204,-21.3009 754.753,-19.5611 761.838,-27.4385 765.204,-21.3009"/>
</g>
<!-- Node11&#45;&gt;Node7 -->
<g id="edge13" class="edge"><title>Node11&#45;&gt;Node7</title>
<path fill="none" stroke="midnightblue" d="M1225.58,-168.115C1213.29,-154.699 1188.42,-129.031 1163.5,-112 1144.33,-98.9 1120.77,-87.5431 1102.16,-79.5155"/>
<polygon fill="midnightblue" stroke="midnightblue" points="1103.51,-76.2835 1092.93,-75.6294 1100.79,-82.7352 1103.51,-76.2835"/>
</g>
<!-- Node12 -->
<g id="node13" class="node"><title>Node12</title>
<g id="a_node13"><a xlink:href="misc_8h.html" target="_top" xlink:title="base/std_ext/misc.h">
<polygon fill="white" stroke="black" points="1325,-112.5 1325,-131.5 1438,-131.5 1438,-112.5 1325,-112.5"/>
<text text-anchor="middle" x="1381.5" y="-119.5" font-family="Helvetica,sans-Serif" font-size="10.00">base/std_ext/misc.h</text>
</a>
</g>
</g>
<!-- Node11&#45;&gt;Node12 -->
<g id="edge14" class="edge"><title>Node11&#45;&gt;Node12</title>
<path fill="none" stroke="midnightblue" d="M1256.95,-168.444C1281.63,-159.438 1320.69,-145.189 1348.48,-135.049"/>
<polygon fill="midnightblue" stroke="midnightblue" points="1349.96,-138.232 1358.16,-131.516 1347.56,-131.656 1349.96,-138.232"/>
</g>
<!-- Node13 -->
<g id="node14" class="node"><title>Node13</title>
<polygon fill="white" stroke="#bfbfbf" points="1536,-56.5 1536,-75.5 1599,-75.5 1599,-56.5 1536,-56.5"/>
<text text-anchor="middle" x="1567.5" y="-63.5" font-family="Helvetica,sans-Serif" font-size="10.00">functional</text>
</g>
<!-- Node11&#45;&gt;Node13 -->
<g id="edge33" class="edge"><title>Node11&#45;&gt;Node13</title>
<path fill="none" stroke="midnightblue" d="M1281.09,-174.535C1353.71,-169.982 1487.96,-158.217 1527.5,-132 1544.03,-121.04 1554.9,-100.677 1561.08,-85.653"/>
<polygon fill="midnightblue" stroke="midnightblue" points="1564.52,-86.4589 1564.77,-75.867 1557.97,-83.9916 1564.52,-86.4589"/>
</g>
<!-- Node17 -->
<g id="node18" class="node"><title>Node17</title>
<polygon fill="white" stroke="#bfbfbf" points="1461,-56.5 1461,-75.5 1518,-75.5 1518,-56.5 1461,-56.5"/>
<text text-anchor="middle" x="1489.5" y="-63.5" font-family="Helvetica,sans-Serif" font-size="10.00">memory</text>
</g>
<!-- Node11&#45;&gt;Node17 -->
<g id="edge28" class="edge"><title>Node11&#45;&gt;Node17</title>
<path fill="none" stroke="midnightblue" d="M1281.06,-176.428C1352.55,-174.447 1482.46,-166.114 1511.5,-132 1523.27,-118.176 1513.23,-97.7803 1503.18,-83.5336"/>
<polygon fill="midnightblue" stroke="midnightblue" points="1505.96,-81.4048 1497.11,-75.5713 1500.39,-85.6469 1505.96,-81.4048"/>
</g>
<!-- Node18 -->
<g id="node19" class="node"><title>Node18</title>
<polygon fill="white" stroke="#bfbfbf" points="1456.5,-112.5 1456.5,-131.5 1502.5,-131.5 1502.5,-112.5 1456.5,-112.5"/>
<text text-anchor="middle" x="1479.5" y="-119.5" font-family="Helvetica,sans-Serif" font-size="10.00">TFile.h</text>
</g>
<!-- Node11&#45;&gt;Node18 -->
<g id="edge22" class="edge"><title>Node11&#45;&gt;Node18</title>
<path fill="none" stroke="midnightblue" d="M1278.37,-168.472C1319.69,-160.416 1382.88,-147.585 1446.65,-132.082"/>
<polygon fill="midnightblue" stroke="midnightblue" points="1447.6,-135.455 1456.48,-129.674 1445.93,-128.656 1447.6,-135.455"/>
</g>
<!-- Node19 -->
<g id="node20" class="node"><title>Node19</title>
<polygon fill="white" stroke="#bfbfbf" points="1597,-112.5 1597,-131.5 1670,-131.5 1670,-112.5 1597,-112.5"/>
<text text-anchor="middle" x="1633.5" y="-119.5" font-family="Helvetica,sans-Serif" font-size="10.00">TDirectory.h</text>
</g>
<!-- Node11&#45;&gt;Node19 -->
<g id="edge23" class="edge"><title>Node11&#45;&gt;Node19</title>
<path fill="none" stroke="midnightblue" d="M1281.02,-171.582C1348.27,-163.753 1475,-148.407 1582.5,-132 1583.94,-131.78 1585.41,-131.551 1586.89,-131.316"/>
<polygon fill="midnightblue" stroke="midnightblue" points="1587.46,-134.769 1596.76,-129.693 1586.33,-127.862 1587.46,-134.769"/>
</g>
<!-- Node20 -->
<g id="node21" class="node"><title>Node20</title>
<polygon fill="white" stroke="#bfbfbf" points="1688,-112.5 1688,-131.5 1741,-131.5 1741,-112.5 1688,-112.5"/>
<text text-anchor="middle" x="1714.5" y="-119.5" font-family="Helvetica,sans-Serif" font-size="10.00">TError.h</text>
</g>
<!-- Node11&#45;&gt;Node20 -->
<g id="edge24" class="edge"><title>Node11&#45;&gt;Node20</title>
<path fill="none" stroke="midnightblue" d="M1281.02,-174.569C1361.07,-169.961 1527.93,-158.148 1677.55,-132.116"/>
<polygon fill="midnightblue" stroke="midnightblue" points="1678.6,-135.485 1687.84,-130.299 1677.38,-128.592 1678.6,-135.485"/>
</g>
<!-- Node21 -->
<g id="node22" class="node"><title>Node21</title>
<polygon fill="white" stroke="#bfbfbf" points="1012,-112.5 1012,-131.5 1059,-131.5 1059,-112.5 1012,-112.5"/>
<text text-anchor="middle" x="1035.5" y="-119.5" font-family="Helvetica,sans-Serif" font-size="10.00">TList.h</text>
</g>
<!-- Node11&#45;&gt;Node21 -->
<g id="edge25" class="edge"><title>Node11&#45;&gt;Node21</title>
<path fill="none" stroke="midnightblue" d="M1202.13,-168.444C1165.85,-158.549 1106.35,-142.323 1069.14,-132.174"/>
<polygon fill="midnightblue" stroke="midnightblue" points="1069.84,-128.737 1059.27,-129.483 1068,-135.491 1069.84,-128.737"/>
</g>
<!-- Node22 -->
<g id="node23" class="node"><title>Node22</title>
<polygon fill="white" stroke="#bfbfbf" points="1077,-112.5 1077,-131.5 1154,-131.5 1154,-112.5 1077,-112.5"/>
<text text-anchor="middle" x="1115.5" y="-119.5" font-family="Helvetica,sans-Serif" font-size="10.00">TCollection.h</text>
</g>
<!-- Node11&#45;&gt;Node22 -->
<g id="edge26" class="edge"><title>Node11&#45;&gt;Node22</title>
<path fill="none" stroke="midnightblue" d="M1214.8,-168.444C1195.56,-159.636 1165.35,-145.812 1143.3,-135.722"/>
<polygon fill="midnightblue" stroke="midnightblue" points="1144.66,-132.495 1134.11,-131.516 1141.75,-138.86 1144.66,-132.495"/>
</g>
<!-- Node23 -->
<g id="node24" class="node"><title>Node23</title>
<polygon fill="white" stroke="#bfbfbf" points="1210.5,-112.5 1210.5,-131.5 1256.5,-131.5 1256.5,-112.5 1210.5,-112.5"/>
<text text-anchor="middle" x="1233.5" y="-119.5" font-family="Helvetica,sans-Serif" font-size="10.00">TKey.h</text>
</g>
<!-- Node11&#45;&gt;Node23 -->
<g id="edge27" class="edge"><title>Node11&#45;&gt;Node23</title>
<path fill="none" stroke="midnightblue" d="M1233.5,-168.083C1233.5,-161.006 1233.5,-150.861 1233.5,-141.986"/>
<polygon fill="midnightblue" stroke="midnightblue" points="1237,-141.751 1233.5,-131.751 1230,-141.751 1237,-141.751"/>
</g>
<!-- Node24 -->
<g id="node25" class="node"><title>Node24</title>
<polygon fill="white" stroke="#bfbfbf" points="1274.5,-112.5 1274.5,-131.5 1306.5,-131.5 1306.5,-112.5 1274.5,-112.5"/>
<text text-anchor="middle" x="1290.5" y="-119.5" font-family="Helvetica,sans-Serif" font-size="10.00">set</text>
</g>
<!-- Node11&#45;&gt;Node24 -->
<g id="edge31" class="edge"><title>Node11&#45;&gt;Node24</title>
<path fill="none" stroke="midnightblue" d="M1242.66,-168.324C1251,-160.42 1263.53,-148.548 1273.68,-138.938"/>
<polygon fill="midnightblue" stroke="midnightblue" points="1276.32,-141.252 1281.18,-131.834 1271.51,-136.171 1276.32,-141.252"/>
</g>
<!-- Node25 -->
<g id="node26" class="node"><title>Node25</title>
<polygon fill="white" stroke="#bfbfbf" points="805.5,-112.5 805.5,-131.5 869.5,-131.5 869.5,-112.5 805.5,-112.5"/>
<text text-anchor="middle" x="837.5" y="-119.5" font-family="Helvetica,sans-Serif" font-size="10.00">stdexcept</text>
</g>
<!-- Node11&#45;&gt;Node25 -->
<g id="edge32" class="edge"><title>Node11&#45;&gt;Node25</title>
<path fill="none" stroke="midnightblue" d="M1185.93,-172.345C1119.55,-165.548 995.224,-151.718 879.748,-132.081"/>
<polygon fill="midnightblue" stroke="midnightblue" points="880.124,-128.595 869.675,-130.35 878.937,-135.493 880.124,-128.595"/>
</g>
<!-- Node12&#45;&gt;Node6 -->
<g id="edge21" class="edge"><title>Node12&#45;&gt;Node6</title>
<path fill="none" stroke="midnightblue" d="M1359.64,-112.371C1337.53,-103.55 1302.44,-89.2962 1272.5,-76 1253.6,-67.6078 1250.44,-61.473 1230.5,-56 1143.47,-32.1086 866.663,-17.0436 771.779,-12.4748"/>
<polygon fill="midnightblue" stroke="midnightblue" points="771.795,-8.9717 761.641,-11.9934 771.463,-15.9638 771.795,-8.9717"/>
</g>
<!-- Node12&#45;&gt;Node9 -->
<g id="edge15" class="edge"><title>Node12&#45;&gt;Node9</title>
<path fill="none" stroke="midnightblue" d="M1391.18,-112.291C1404.15,-99.533 1424.24,-75.1967 1412.5,-56 1402.15,-39.0801 1383.2,-28.2653 1365.54,-21.4919"/>
<polygon fill="midnightblue" stroke="midnightblue" points="1366.51,-18.1247 1355.91,-18.1316 1364.2,-24.7332 1366.51,-18.1247"/>
</g>
<!-- Node12&#45;&gt;Node13 -->
<g id="edge16" class="edge"><title>Node12&#45;&gt;Node13</title>
<path fill="none" stroke="midnightblue" d="M1410.97,-112.444C1442.67,-103.241 1493.23,-88.5617 1528.27,-78.3879"/>
<polygon fill="midnightblue" stroke="midnightblue" points="1529.54,-81.6658 1538.17,-75.5164 1527.59,-74.9434 1529.54,-81.6658"/>
</g>
<!-- Node14 -->
<g id="node15" class="node"><title>Node14</title>
<polygon fill="white" stroke="#bfbfbf" points="1356,-56.5 1356,-75.5 1403,-75.5 1403,-56.5 1356,-56.5"/>
<text text-anchor="middle" x="1379.5" y="-63.5" font-family="Helvetica,sans-Serif" font-size="10.00">cmath</text>
</g>
<!-- Node12&#45;&gt;Node14 -->
<g id="edge17" class="edge"><title>Node12&#45;&gt;Node14</title>
<path fill="none" stroke="midnightblue" d="M1381.17,-112.083C1380.91,-105.006 1380.53,-94.8611 1380.2,-85.9865"/>
<polygon fill="midnightblue" stroke="midnightblue" points="1383.69,-85.6147 1379.82,-75.7511 1376.7,-85.8738 1383.69,-85.6147"/>
</g>
<!-- Node15 -->
<g id="node16" class="node"><title>Node15</title>
<polygon fill="white" stroke="#bfbfbf" points="1281.5,-56.5 1281.5,-75.5 1337.5,-75.5 1337.5,-56.5 1281.5,-56.5"/>
<text text-anchor="middle" x="1309.5" y="-63.5" font-family="Helvetica,sans-Serif" font-size="10.00">cxxabi.h</text>
</g>
<!-- Node12&#45;&gt;Node15 -->
<g id="edge18" class="edge"><title>Node12&#45;&gt;Node15</title>
<path fill="none" stroke="midnightblue" d="M1369.93,-112.324C1359.08,-104.185 1342.62,-91.8395 1329.62,-82.0874"/>
<polygon fill="midnightblue" stroke="midnightblue" points="1331.38,-79.0339 1321.28,-75.8339 1327.18,-84.6339 1331.38,-79.0339"/>
</g>
<!-- Node16 -->
<g id="node17" class="node"><title>Node16</title>
<polygon fill="white" stroke="#bfbfbf" points="1153.5,-56.5 1153.5,-75.5 1221.5,-75.5 1221.5,-56.5 1153.5,-56.5"/>
<text text-anchor="middle" x="1187.5" y="-63.5" font-family="Helvetica,sans-Serif" font-size="10.00">type_traits</text>
</g>
<!-- Node12&#45;&gt;Node16 -->
<g id="edge19" class="edge"><title>Node12&#45;&gt;Node16</title>
<path fill="none" stroke="midnightblue" d="M1350.76,-112.444C1317.56,-103.201 1264.51,-88.4356 1227.94,-78.2572"/>
<polygon fill="midnightblue" stroke="midnightblue" points="1228.67,-74.8262 1218.1,-75.5164 1226.79,-81.5699 1228.67,-74.8262"/>
</g>
<!-- Node12&#45;&gt;Node17 -->
<g id="edge20" class="edge"><title>Node12&#45;&gt;Node17</title>
<path fill="none" stroke="midnightblue" d="M1398.85,-112.324C1416.17,-103.664 1443.02,-90.2424 1463,-80.249"/>
<polygon fill="midnightblue" stroke="midnightblue" points="1464.81,-83.2572 1472.19,-75.6545 1461.68,-76.9962 1464.81,-83.2572"/>
</g>
<!-- Node26&#45;&gt;Node6 -->
<g id="edge50" class="edge"><title>Node26&#45;&gt;Node6</title>
<path fill="none" stroke="midnightblue" d="M357.708,-224.667C278.625,-214.029 153.333,-196.042 146.5,-188 109.334,-144.258 57.583,-153.775 208.5,-56 250.393,-28.8587 599.026,-15.498 707.45,-11.9721"/>
<polygon fill="midnightblue" stroke="midnightblue" points="707.579,-15.4699 717.462,-11.6524 707.356,-8.47342 707.579,-15.4699"/>
</g>
<!-- Node27 -->
<g id="node28" class="node"><title>Node27</title>
<g id="a_node28"><a xlink:href="_t_i_d_8h.html" target="_top" xlink:title="TID.h">
<polygon fill="white" stroke="black" points="521,-168.5 521,-187.5 562,-187.5 562,-168.5 521,-168.5"/>
<text text-anchor="middle" x="541.5" y="-175.5" font-family="Helvetica,sans-Serif" font-size="10.00">TID.h</text>
</a>
</g>
</g>
<!-- Node26&#45;&gt;Node27 -->
<g id="edge35" class="edge"><title>Node26&#45;&gt;Node27</title>
<path fill="none" stroke="midnightblue" d="M440.514,-224.444C460.088,-215.636 490.808,-201.812 513.229,-191.722"/>
<polygon fill="midnightblue" stroke="midnightblue" points="514.892,-194.812 522.575,-187.516 512.019,-188.428 514.892,-194.812"/>
</g>
<!-- Node31 -->
<g id="node32" class="node"><title>Node31</title>
<polygon fill="white" stroke="#bfbfbf" points="235.5,-56.5 235.5,-75.5 279.5,-75.5 279.5,-56.5 235.5,-56.5"/>
<text text-anchor="middle" x="257.5" y="-63.5" font-family="Helvetica,sans-Serif" font-size="10.00">ctime</text>
</g>
<!-- Node26&#45;&gt;Node31 -->
<g id="edge51" class="edge"><title>Node26&#45;&gt;Node31</title>
<path fill="none" stroke="midnightblue" d="M393.377,-224.492C355.635,-211.413 289.94,-182.44 260.5,-132 252.403,-118.128 252.375,-99.6132 253.951,-85.8929"/>
<polygon fill="midnightblue" stroke="midnightblue" points="257.457,-86.1168 255.509,-75.7026 250.537,-85.0585 257.457,-86.1168"/>
</g>
<!-- Node35 -->
<g id="node36" class="node"><title>Node35</title>
<g id="a_node36"><a xlink:href="_git_info_8h.html" target="_top" xlink:title="base/GitInfo.h">
<polygon fill="white" stroke="black" points="156,-168.5 156,-187.5 239,-187.5 239,-168.5 156,-168.5"/>
<text text-anchor="middle" x="197.5" y="-175.5" font-family="Helvetica,sans-Serif" font-size="10.00">base/GitInfo.h</text>
</a>
</g>
</g>
<!-- Node26&#45;&gt;Node35 -->
<g id="edge48" class="edge"><title>Node26&#45;&gt;Node35</title>
<path fill="none" stroke="midnightblue" d="M386.007,-224.444C347.176,-215.083 284.844,-200.056 242.582,-189.868"/>
<polygon fill="midnightblue" stroke="midnightblue" points="243.369,-186.458 232.827,-187.516 241.729,-193.263 243.369,-186.458"/>
</g>
<!-- Node27&#45;&gt;Node5 -->
<g id="edge45" class="edge"><title>Node27&#45;&gt;Node5</title>
<path fill="none" stroke="midnightblue" d="M562.321,-175.859C614.229,-172.672 753.523,-162.022 877.401,-131.744"/>
<polygon fill="midnightblue" stroke="midnightblue" points="878.575,-135.059 887.429,-129.241 876.879,-128.267 878.575,-135.059"/>
</g>
<!-- Node27&#45;&gt;Node16 -->
<g id="edge41" class="edge"><title>Node27&#45;&gt;Node16</title>
<path fill="none" stroke="midnightblue" d="M562.101,-170.663C605.183,-157.654 708.132,-127.828 796.5,-112 946.946,-85.0535 987.226,-97.8214 1138.5,-76 1140,-75.7839 1141.52,-75.5553 1143.06,-75.3169"/>
<polygon fill="midnightblue" stroke="midnightblue" points="1143.99,-78.7105 1153.29,-73.6302 1142.85,-71.8037 1143.99,-78.7105"/>
</g>
<!-- Node27&#45;&gt;Node25 -->
<g id="edge44" class="edge"><title>Node27&#45;&gt;Node25</title>
<path fill="none" stroke="midnightblue" d="M562.262,-173.372C605.134,-165.857 706.549,-147.955 791.5,-132 792.76,-131.763 794.038,-131.522 795.329,-131.277"/>
<polygon fill="midnightblue" stroke="midnightblue" points="796.18,-134.678 805.341,-129.356 794.861,-127.803 796.18,-134.678"/>
</g>
<!-- Node28 -->
<g id="node29" class="node"><title>Node28</title>
<polygon fill="white" stroke="#bfbfbf" points="615.5,-112.5 615.5,-131.5 673.5,-131.5 673.5,-112.5 615.5,-112.5"/>
<text text-anchor="middle" x="644.5" y="-119.5" font-family="Helvetica,sans-Serif" font-size="10.00">Rtypes.h</text>
</g>
<!-- Node27&#45;&gt;Node28 -->
<g id="edge36" class="edge"><title>Node27&#45;&gt;Node28</title>
<path fill="none" stroke="midnightblue" d="M558.049,-168.324C574.492,-159.703 599.935,-146.364 618.968,-136.386"/>
<polygon fill="midnightblue" stroke="midnightblue" points="620.761,-139.398 627.992,-131.655 617.511,-133.198 620.761,-139.398"/>
</g>
<!-- Node29 -->
<g id="node30" class="node"><title>Node29</title>
<g id="a_node30"><a xlink:href="base_2std__ext_2_time_8h.html" target="_top" xlink:title="base/std_ext/time.h">
<polygon fill="white" stroke="black" points="485.5,-112.5 485.5,-131.5 597.5,-131.5 597.5,-112.5 485.5,-112.5"/>
<text text-anchor="middle" x="541.5" y="-119.5" font-family="Helvetica,sans-Serif" font-size="10.00">base/std_ext/time.h</text>
</a>
</g>
</g>
<!-- Node27&#45;&gt;Node29 -->
<g id="edge37" class="edge"><title>Node27&#45;&gt;Node29</title>
<path fill="none" stroke="midnightblue" d="M541.5,-168.083C541.5,-161.006 541.5,-150.861 541.5,-141.986"/>
<polygon fill="midnightblue" stroke="midnightblue" points="545,-141.751 541.5,-131.751 538,-141.751 545,-141.751"/>
</g>
<!-- Node27&#45;&gt;Node31 -->
<g id="edge47" class="edge"><title>Node27&#45;&gt;Node31</title>
<path fill="none" stroke="midnightblue" d="M520.868,-176.25C465.036,-173.807 312.752,-164.267 276.5,-132 263.483,-120.414 259.17,-100.455 257.846,-85.7025"/>
<polygon fill="midnightblue" stroke="midnightblue" points="261.338,-85.4644 257.321,-75.6608 254.348,-85.8299 261.338,-85.4644"/>
</g>
<!-- Node32 -->
<g id="node33" class="node"><title>Node32</title>
<polygon fill="white" stroke="#bfbfbf" points="286,-112.5 286,-131.5 327,-131.5 327,-112.5 286,-112.5"/>
<text text-anchor="middle" x="306.5" y="-119.5" font-family="Helvetica,sans-Serif" font-size="10.00">tuple</text>
</g>
<!-- Node27&#45;&gt;Node32 -->
<g id="edge42" class="edge"><title>Node27&#45;&gt;Node32</title>
<path fill="none" stroke="midnightblue" d="M520.893,-173.108C485.251,-166.246 409.623,-151.121 336.818,-132.184"/>
<polygon fill="midnightblue" stroke="midnightblue" points="337.593,-128.769 327.032,-129.611 335.813,-135.539 337.593,-128.769"/>
</g>
<!-- Node33 -->
<g id="node34" class="node"><title>Node33</title>
<polygon fill="white" stroke="#bfbfbf" points="345,-112.5 345,-131.5 394,-131.5 394,-112.5 345,-112.5"/>
<text text-anchor="middle" x="369.5" y="-119.5" font-family="Helvetica,sans-Serif" font-size="10.00">cstdint</text>
</g>
<!-- Node27&#45;&gt;Node33 -->
<g id="edge43" class="edge"><title>Node27&#45;&gt;Node33</title>
<path fill="none" stroke="midnightblue" d="M520.753,-170.486C491.802,-161.397 438.919,-144.794 403.988,-133.828"/>
<polygon fill="midnightblue" stroke="midnightblue" points="404.798,-130.414 394.209,-130.758 402.702,-137.092 404.798,-130.414"/>
</g>
<!-- Node34 -->
<g id="node35" class="node"><title>Node34</title>
<polygon fill="white" stroke="#bfbfbf" points="412,-112.5 412,-131.5 467,-131.5 467,-112.5 412,-112.5"/>
<text text-anchor="middle" x="439.5" y="-119.5" font-family="Helvetica,sans-Serif" font-size="10.00">iomanip</text>
</g>
<!-- Node27&#45;&gt;Node34 -->
<g id="edge46" class="edge"><title>Node27&#45;&gt;Node34</title>
<path fill="none" stroke="midnightblue" d="M525.112,-168.324C508.829,-159.703 483.633,-146.364 464.784,-136.386"/>
<polygon fill="midnightblue" stroke="midnightblue" points="466.323,-133.24 455.847,-131.655 463.048,-139.427 466.323,-133.24"/>
</g>
<!-- Node29&#45;&gt;Node7 -->
<g id="edge38" class="edge"><title>Node29&#45;&gt;Node7</title>
<path fill="none" stroke="midnightblue" d="M597.501,-113.098C600.544,-112.715 603.558,-112.346 606.5,-112 746.587,-95.5157 910.988,-80.6196 1001.67,-72.7894"/>
<polygon fill="midnightblue" stroke="midnightblue" points="1002.16,-76.2605 1011.82,-71.9159 1001.56,-69.2862 1002.16,-76.2605"/>
</g>
<!-- Node30 -->
<g id="node31" class="node"><title>Node30</title>
<polygon fill="white" stroke="#bfbfbf" points="517,-56.5 517,-75.5 566,-75.5 566,-56.5 517,-56.5"/>
<text text-anchor="middle" x="541.5" y="-63.5" font-family="Helvetica,sans-Serif" font-size="10.00">cstring</text>
</g>
<!-- Node29&#45;&gt;Node30 -->
<g id="edge39" class="edge"><title>Node29&#45;&gt;Node30</title>
<path fill="none" stroke="midnightblue" d="M541.5,-112.083C541.5,-105.006 541.5,-94.8611 541.5,-85.9865"/>
<polygon fill="midnightblue" stroke="midnightblue" points="545,-85.751 541.5,-75.7511 538,-85.7511 545,-85.751"/>
</g>
<!-- Node29&#45;&gt;Node31 -->
<g id="edge40" class="edge"><title>Node29&#45;&gt;Node31</title>
<path fill="none" stroke="midnightblue" d="M496.499,-112.444C438.821,-101.477 340.244,-82.7331 289.605,-73.1045"/>
<polygon fill="midnightblue" stroke="midnightblue" points="290.037,-69.6239 279.559,-71.1943 288.729,-76.5007 290.037,-69.6239"/>
</g>
<!-- Node35&#45;&gt;Node6 -->
<g id="edge49" class="edge"><title>Node35&#45;&gt;Node6</title>
<path fill="none" stroke="midnightblue" d="M196.53,-168.281C194.557,-145.701 192.797,-85.0581 226.5,-56 262.914,-24.6041 600.348,-14.1977 707.208,-11.6744"/>
<polygon fill="midnightblue" stroke="midnightblue" points="707.463,-15.1696 717.38,-11.4418 707.303,-8.17143 707.463,-15.1696"/>
</g>
<!-- Node36&#45;&gt;Node6 -->
<g id="edge55" class="edge"><title>Node36&#45;&gt;Node6</title>
<path fill="none" stroke="midnightblue" d="M706.336,-224.202C702.237,-211.738 695.905,-188.206 698.5,-168 705.086,-116.713 723.305,-58.2602 733.09,-29.283"/>
<polygon fill="midnightblue" stroke="midnightblue" points="736.444,-30.2915 736.385,-19.6968 729.824,-28.0159 736.444,-30.2915"/>
</g>
<!-- Node36&#45;&gt;Node27 -->
<g id="edge53" class="edge"><title>Node36&#45;&gt;Node27</title>
<path fill="none" stroke="midnightblue" d="M682.88,-224.444C652.658,-214.729 603.453,-198.913 571.788,-188.735"/>
<polygon fill="midnightblue" stroke="midnightblue" points="572.761,-185.372 562.17,-185.644 570.619,-192.036 572.761,-185.372"/>
</g>
<!-- Node37 -->
<g id="node38" class="node"><title>Node37</title>
<polygon fill="white" stroke="#bfbfbf" points="707.5,-168.5 707.5,-187.5 773.5,-187.5 773.5,-168.5 707.5,-168.5"/>
<text text-anchor="middle" x="740.5" y="-175.5" font-family="Helvetica,sans-Serif" font-size="10.00">TNamed.h</text>
</g>
<!-- Node36&#45;&gt;Node37 -->
<g id="edge54" class="edge"><title>Node36&#45;&gt;Node37</title>
<path fill="none" stroke="midnightblue" d="M714.619,-224.083C718.908,-216.613 725.158,-205.724 730.442,-196.52"/>
<polygon fill="midnightblue" stroke="midnightblue" points="733.533,-198.166 735.476,-187.751 727.462,-194.681 733.533,-198.166"/>
</g>
</g>
</svg>
