<?xml version="1.0" encoding="UTF-8" standalone="no"?>
<!DOCTYPE svg PUBLIC "-//W3C//DTD SVG 1.1//EN"
 "http://www.w3.org/Graphics/SVG/1.1/DTD/svg11.dtd">
<!-- Generated by graphviz version 2.38.0 (20140413.2041)
 -->
<!-- Title: src/base/Array2D.cc Pages: 1 -->
<svg width="772pt" height="196pt"
 viewBox="0.00 0.00 772.00 196.00" xmlns="http://www.w3.org/2000/svg" xmlns:xlink="http://www.w3.org/1999/xlink">
<g id="graph0" class="graph" transform="scale(1 1) rotate(0) translate(4 192)">
<title>src/base/Array2D.cc</title>
<polygon fill="white" stroke="none" points="-4,4 -4,-192 768,-192 768,4 -4,4"/>
<!-- Node0 -->
<g id="node1" class="node"><title>Node0</title>
<polygon fill="#bfbfbf" stroke="black" points="231.5,-168.5 231.5,-187.5 344.5,-187.5 344.5,-168.5 231.5,-168.5"/>
<text text-anchor="middle" x="288" y="-175.5" font-family="Helvetica,sans-Serif" font-size="10.00">src/base/Array2D.cc</text>
</g>
<!-- Node1 -->
<g id="node2" class="node"><title>Node1</title>
<g id="a_node2"><a xlink:href="_array2_d_8h.html" target="_top" xlink:title="Array2D.h">
<polygon fill="white" stroke="black" points="194.5,-112.5 194.5,-131.5 259.5,-131.5 259.5,-112.5 194.5,-112.5"/>
<text text-anchor="middle" x="227" y="-119.5" font-family="Helvetica,sans-Serif" font-size="10.00">Array2D.h</text>
</a>
</g>
</g>
<!-- Node0&#45;&gt;Node1 -->
<g id="edge1" class="edge"><title>Node0&#45;&gt;Node1</title>
<path fill="none" stroke="midnightblue" d="M278.199,-168.324C269.182,-160.341 255.594,-148.313 244.682,-138.653"/>
<polygon fill="midnightblue" stroke="midnightblue" points="246.787,-135.842 236.979,-131.834 242.147,-141.083 246.787,-135.842"/>
</g>
<!-- Node3 -->
<g id="node4" class="node"><title>Node3</title>
<g id="a_node4"><a xlink:href="interval_8h.html" target="_top" xlink:title="base/interval.h">
<polygon fill="white" stroke="black" points="102.5,-56.5 102.5,-75.5 189.5,-75.5 189.5,-56.5 102.5,-56.5"/>
<text text-anchor="middle" x="146" y="-63.5" font-family="Helvetica,sans-Serif" font-size="10.00">base/interval.h</text>
</a>
</g>
</g>
<!-- Node0&#45;&gt;Node3 -->
<g id="edge16" class="edge"><title>Node0&#45;&gt;Node3</title>
<path fill="none" stroke="midnightblue" d="M255.414,-168.464C233.576,-161.467 205.225,-149.78 185,-132 170.366,-119.135 159.613,-99.4083 153.148,-85.0605"/>
<polygon fill="midnightblue" stroke="midnightblue" points="156.324,-83.5844 149.204,-75.7387 149.877,-86.3122 156.324,-83.5844"/>
</g>
<!-- Node6 -->
<g id="node7" class="node"><title>Node6</title>
<polygon fill="white" stroke="#bfbfbf" points="0,-0.5 0,-19.5 64,-19.5 64,-0.5 0,-0.5"/>
<text text-anchor="middle" x="32" y="-7.5" font-family="Helvetica,sans-Serif" font-size="10.00">stdexcept</text>
</g>
<!-- Node0&#45;&gt;Node6 -->
<g id="edge31" class="edge"><title>Node0&#45;&gt;Node6</title>
<path fill="none" stroke="midnightblue" d="M256.515,-168.438C230.948,-160.8 194.438,-148.308 165,-132 129.538,-112.355 122.962,-103.308 93,-76 75.9504,-60.4607 58.0742,-40.9798 46.1146,-27.416"/>
<polygon fill="midnightblue" stroke="midnightblue" points="48.7035,-25.0595 39.4929,-19.8234 43.428,-29.6604 48.7035,-25.0595"/>
</g>
<!-- Node11 -->
<g id="node12" class="node"><title>Node11</title>
<g id="a_node12"><a xlink:href="string_8h.html" target="_top" xlink:title="base/std_ext/string.h">
<polygon fill="white" stroke="black" points="494.5,-56.5 494.5,-75.5 611.5,-75.5 611.5,-56.5 494.5,-56.5"/>
<text text-anchor="middle" x="553" y="-63.5" font-family="Helvetica,sans-Serif" font-size="10.00">base/std_ext/string.h</text>
</a>
</g>
</g>
<!-- Node0&#45;&gt;Node11 -->
<g id="edge11" class="edge"><title>Node0&#45;&gt;Node11</title>
<path fill="none" stroke="midnightblue" d="M344.835,-171.958C385.531,-166.49 440.579,-155.195 484,-132 506.57,-119.943 527.177,-98.5545 539.88,-83.617"/>
<polygon fill="midnightblue" stroke="midnightblue" points="542.753,-85.6339 546.401,-75.6869 537.346,-81.188 542.753,-85.6339"/>
</g>
<!-- Node13 -->
<g id="node14" class="node"><title>Node13</title>
<g id="a_node14"><a xlink:href="_flood_fill_averages_8h.html" target="_top" xlink:title="base/FloodFillAverages.h">
<polygon fill="white" stroke="black" points="342.5,-112.5 342.5,-131.5 475.5,-131.5 475.5,-112.5 342.5,-112.5"/>
<text text-anchor="middle" x="409" y="-119.5" font-family="Helvetica,sans-Serif" font-size="10.00">base/FloodFillAverages.h</text>
</a>
</g>
</g>
<!-- Node0&#45;&gt;Node13 -->
<g id="edge17" class="edge"><title>Node0&#45;&gt;Node13</title>
<path fill="none" stroke="midnightblue" d="M307.173,-168.444C326.909,-159.636 357.885,-145.812 380.493,-135.722"/>
<polygon fill="midnightblue" stroke="midnightblue" points="382.211,-138.788 389.917,-131.516 379.359,-132.396 382.211,-138.788"/>
</g>
<!-- Node16 -->
<g id="node17" class="node"><title>Node16</title>
<g id="a_node17"><a xlink:href="base_2std__ext_2math_8h.html" target="_top" xlink:title="base/std_ext/math.h">
<polygon fill="white" stroke="black" points="208,-56.5 208,-75.5 324,-75.5 324,-56.5 208,-56.5"/>
<text text-anchor="middle" x="266" y="-63.5" font-family="Helvetica,sans-Serif" font-size="10.00">base/std_ext/math.h</text>
</a>
</g>
</g>
<!-- Node0&#45;&gt;Node16 -->
<g id="edge26" class="edge"><title>Node0&#45;&gt;Node16</title>
<path fill="none" stroke="midnightblue" d="M286.274,-168.368C282.723,-150.617 274.533,-109.666 269.719,-85.5974"/>
<polygon fill="midnightblue" stroke="midnightblue" points="273.112,-84.7108 267.718,-75.5914 266.247,-86.0837 273.112,-84.7108"/>
</g>
<!-- Node17 -->
<g id="node18" class="node"><title>Node17</title>
<polygon fill="white" stroke="#bfbfbf" points="532,-112.5 532,-131.5 584,-131.5 584,-112.5 532,-112.5"/>
<text text-anchor="middle" x="558" y="-119.5" font-family="Helvetica,sans-Serif" font-size="10.00">TH2D.h</text>
</g>
<!-- Node0&#45;&gt;Node17 -->
<g id="edge30" class="edge"><title>Node0&#45;&gt;Node17</title>
<path fill="none" stroke="midnightblue" d="M333.462,-168.496C379.914,-159.714 454.094,-145.438 518,-132 519.254,-131.736 520.529,-131.465 521.817,-131.189"/>
<polygon fill="midnightblue" stroke="midnightblue" points="522.752,-134.567 531.773,-129.012 521.256,-127.729 522.752,-134.567"/>
</g>
<!-- Node2 -->
<g id="node3" class="node"><title>Node2</title>
<polygon fill="white" stroke="#bfbfbf" points="423.5,-0.5 423.5,-19.5 470.5,-19.5 470.5,-0.5 423.5,-0.5"/>
<text text-anchor="middle" x="447" y="-7.5" font-family="Helvetica,sans-Serif" font-size="10.00">vector</text>
</g>
<!-- Node1&#45;&gt;Node2 -->
<g id="edge2" class="edge"><title>Node1&#45;&gt;Node2</title>
<path fill="none" stroke="midnightblue" d="M249.264,-112.428C270.95,-103.875 304.693,-90.0188 333,-76 365.658,-59.8263 402.013,-38.4866 424.694,-24.7515"/>
<polygon fill="midnightblue" stroke="midnightblue" points="426.527,-27.7334 433.245,-19.5408 422.884,-21.7559 426.527,-27.7334"/>
</g>
<!-- Node1&#45;&gt;Node3 -->
<g id="edge3" class="edge"><title>Node1&#45;&gt;Node3</title>
<path fill="none" stroke="midnightblue" d="M213.986,-112.324C201.468,-103.979 182.318,-91.2122 167.529,-81.3524"/>
<polygon fill="midnightblue" stroke="midnightblue" points="169.244,-78.2894 158.982,-75.6545 165.361,-84.1137 169.244,-78.2894"/>
</g>
<!-- Node4 -->
<g id="node5" class="node"><title>Node4</title>
<g id="a_node5"><a xlink:href="types_8h.html" target="_top" xlink:title="types.h">
<polygon fill="white" stroke="black" points="82,-0.5 82,-19.5 134,-19.5 134,-0.5 82,-0.5"/>
<text text-anchor="middle" x="108" y="-7.5" font-family="Helvetica,sans-Serif" font-size="10.00">types.h</text>
</a>
</g>
</g>
<!-- Node3&#45;&gt;Node4 -->
<g id="edge4" class="edge"><title>Node3&#45;&gt;Node4</title>
<path fill="none" stroke="midnightblue" d="M139.725,-56.083C134.358,-48.4554 126.482,-37.2645 119.921,-27.9408"/>
<polygon fill="midnightblue" stroke="midnightblue" points="122.775,-25.9149 114.158,-19.7511 117.051,-29.9434 122.775,-25.9149"/>
</g>
<!-- Node5 -->
<g id="node6" class="node"><title>Node5</title>
<polygon fill="white" stroke="#bfbfbf" points="505,-0.5 505,-19.5 567,-19.5 567,-0.5 505,-0.5"/>
<text text-anchor="middle" x="536" y="-7.5" font-family="Helvetica,sans-Serif" font-size="10.00">algorithm</text>
</g>
<!-- Node3&#45;&gt;Node5 -->
<g id="edge5" class="edge"><title>Node3&#45;&gt;Node5</title>
<path fill="none" stroke="midnightblue" d="M189.65,-57.4442C192.812,-56.941 195.954,-56.4543 199,-56 323.096,-37.4936 354.798,-37.7861 479,-20 484.137,-19.2644 489.528,-18.458 494.861,-17.6396"/>
<polygon fill="midnightblue" stroke="midnightblue" points="495.62,-21.0637 504.962,-16.0664 494.543,-14.1471 495.62,-21.0637"/>
</g>
<!-- Node3&#45;&gt;Node6 -->
<g id="edge6" class="edge"><title>Node3&#45;&gt;Node6</title>
<path fill="none" stroke="midnightblue" d="M127.936,-56.4435C109.425,-47.6751 80.4193,-33.9355 59.1445,-23.8579"/>
<polygon fill="midnightblue" stroke="midnightblue" points="60.5148,-20.6343 49.9791,-19.5164 57.5182,-26.9604 60.5148,-20.6343"/>
</g>
<!-- Node7 -->
<g id="node8" class="node"><title>Node7</title>
<polygon fill="white" stroke="#bfbfbf" points="289,-0.5 289,-19.5 331,-19.5 331,-0.5 289,-0.5"/>
<text text-anchor="middle" x="310" y="-7.5" font-family="Helvetica,sans-Serif" font-size="10.00">limits</text>
</g>
<!-- Node3&#45;&gt;Node7 -->
<g id="edge7" class="edge"><title>Node3&#45;&gt;Node7</title>
<path fill="none" stroke="midnightblue" d="M171.986,-56.4435C201.037,-46.8782 248.054,-31.3969 279,-21.2075"/>
<polygon fill="midnightblue" stroke="midnightblue" points="280.425,-24.423 288.829,-17.971 278.236,-17.7741 280.425,-24.423"/>
</g>
<!-- Node8 -->
<g id="node9" class="node"><title>Node8</title>
<polygon fill="white" stroke="#bfbfbf" points="152.5,-0.5 152.5,-19.5 205.5,-19.5 205.5,-0.5 152.5,-0.5"/>
<text text-anchor="middle" x="179" y="-7.5" font-family="Helvetica,sans-Serif" font-size="10.00">istream</text>
</g>
<!-- Node3&#45;&gt;Node8 -->
<g id="edge8" class="edge"><title>Node3&#45;&gt;Node8</title>
<path fill="none" stroke="midnightblue" d="M151.449,-56.083C156.014,-48.6127 162.668,-37.7244 168.293,-28.5199"/>
<polygon fill="midnightblue" stroke="midnightblue" points="171.424,-30.109 173.652,-19.7511 165.451,-26.4588 171.424,-30.109"/>
</g>
<!-- Node9 -->
<g id="node10" class="node"><title>Node9</title>
<polygon fill="white" stroke="#bfbfbf" points="349,-0.5 349,-19.5 405,-19.5 405,-0.5 349,-0.5"/>
<text text-anchor="middle" x="377" y="-7.5" font-family="Helvetica,sans-Serif" font-size="10.00">sstream</text>
</g>
<!-- Node3&#45;&gt;Node9 -->
<g id="edge9" class="edge"><title>Node3&#45;&gt;Node9</title>
<path fill="none" stroke="midnightblue" d="M183.219,-56.491C220.233,-48.0012 278.906,-34.4697 338.728,-20.2848"/>
<polygon fill="midnightblue" stroke="midnightblue" points="339.805,-23.6263 348.726,-17.9104 338.188,-16.8158 339.805,-23.6263"/>
</g>
<!-- Node10 -->
<g id="node11" class="node"><title>Node10</title>
<polygon fill="white" stroke="#bfbfbf" points="223.5,-0.5 223.5,-19.5 270.5,-19.5 270.5,-0.5 223.5,-0.5"/>
<text text-anchor="middle" x="247" y="-7.5" font-family="Helvetica,sans-Serif" font-size="10.00">cmath</text>
</g>
<!-- Node3&#45;&gt;Node10 -->
<g id="edge10" class="edge"><title>Node3&#45;&gt;Node10</title>
<path fill="none" stroke="midnightblue" d="M162.227,-56.324C178.351,-47.7034 203.3,-34.3643 221.964,-24.3855"/>
<polygon fill="midnightblue" stroke="midnightblue" points="223.644,-27.456 230.813,-19.6545 220.344,-21.283 223.644,-27.456"/>
</g>
<!-- Node11&#45;&gt;Node2 -->
<g id="edge15" class="edge"><title>Node11&#45;&gt;Node2</title>
<path fill="none" stroke="midnightblue" d="M535.969,-56.324C518.97,-47.6641 492.624,-34.2424 473.007,-24.249"/>
<polygon fill="midnightblue" stroke="midnightblue" points="474.488,-21.0752 463.988,-19.6545 471.31,-27.3125 474.488,-21.0752"/>
</g>
<!-- Node11&#45;&gt;Node5 -->
<g id="edge14" class="edge"><title>Node11&#45;&gt;Node5</title>
<path fill="none" stroke="midnightblue" d="M550.193,-56.083C547.915,-48.8486 544.629,-38.4087 541.792,-29.3968"/>
<polygon fill="midnightblue" stroke="midnightblue" points="545.096,-28.2385 538.755,-19.7511 538.419,-30.3406 545.096,-28.2385"/>
</g>
<!-- Node11&#45;&gt;Node9 -->
<g id="edge13" class="edge"><title>Node11&#45;&gt;Node9</title>
<path fill="none" stroke="midnightblue" d="M525.112,-56.4435C495.246,-47.2801 447.685,-32.6876 414.544,-22.5192"/>
<polygon fill="midnightblue" stroke="midnightblue" points="415.344,-19.1037 404.757,-19.5164 413.291,-25.7958 415.344,-19.1037"/>
</g>
<!-- Node12 -->
<g id="node13" class="node"><title>Node12</title>
<polygon fill="white" stroke="#bfbfbf" points="596,-0.5 596,-19.5 640,-19.5 640,-0.5 596,-0.5"/>
<text text-anchor="middle" x="618" y="-7.5" font-family="Helvetica,sans-Serif" font-size="10.00">string</text>
</g>
<!-- Node11&#45;&gt;Node12 -->
<g id="edge12" class="edge"><title>Node11&#45;&gt;Node12</title>
<path fill="none" stroke="midnightblue" d="M563.443,-56.324C573.146,-48.2631 587.815,-36.0765 599.5,-26.3695"/>
<polygon fill="midnightblue" stroke="midnightblue" points="601.911,-28.9163 607.367,-19.8339 597.438,-23.532 601.911,-28.9163"/>
</g>
<!-- Node13&#45;&gt;Node2 -->
<g id="edge18" class="edge"><title>Node13&#45;&gt;Node2</title>
<path fill="none" stroke="midnightblue" d="M411.982,-112.368C418.142,-94.5366 432.389,-53.2953 440.688,-29.2717"/>
<polygon fill="midnightblue" stroke="midnightblue" points="444.075,-30.1862 444.032,-19.5914 437.459,-27.9005 444.075,-30.1862"/>
</g>
<!-- Node13&#45;&gt;Node5 -->
<g id="edge20" class="edge"><title>Node13&#45;&gt;Node5</title>
<path fill="none" stroke="midnightblue" d="M418.965,-112.368C440.388,-93.8137 491.073,-49.9129 518.177,-26.4376"/>
<polygon fill="midnightblue" stroke="midnightblue" points="520.813,-28.7841 526.081,-19.5914 516.23,-23.4929 520.813,-28.7841"/>
</g>
<!-- Node13&#45;&gt;Node7 -->
<g id="edge19" class="edge"><title>Node13&#45;&gt;Node7</title>
<path fill="none" stroke="midnightblue" d="M401.232,-112.368C384.677,-93.9744 345.704,-50.6712 324.447,-27.0519"/>
<polygon fill="midnightblue" stroke="midnightblue" points="327.023,-24.683 317.732,-19.5914 321.82,-29.3658 327.023,-24.683"/>
</g>
<!-- Node14 -->
<g id="node15" class="node"><title>Node14</title>
<g id="a_node15"><a xlink:href="container_8h.html" target="_top" xlink:title="base/std_ext/container.h">
<polygon fill="white" stroke="black" points="630,-56.5 630,-75.5 764,-75.5 764,-56.5 630,-56.5"/>
<text text-anchor="middle" x="697" y="-63.5" font-family="Helvetica,sans-Serif" font-size="10.00">base/std_ext/container.h</text>
</a>
</g>
</g>
<!-- Node13&#45;&gt;Node14 -->
<g id="edge21" class="edge"><title>Node13&#45;&gt;Node14</title>
<path fill="none" stroke="midnightblue" d="M454.634,-112.444C505.297,-102.944 587.075,-87.611 641.428,-77.4198"/>
<polygon fill="midnightblue" stroke="midnightblue" points="642.395,-80.7994 651.579,-75.5164 641.105,-73.9193 642.395,-80.7994"/>
</g>
<!-- Node14&#45;&gt;Node2 -->
<g id="edge22" class="edge"><title>Node14&#45;&gt;Node2</title>
<path fill="none" stroke="midnightblue" d="M657.387,-56.4435C608.593,-45.9041 526.549,-28.1826 480.662,-18.271"/>
<polygon fill="midnightblue" stroke="midnightblue" points="481.144,-14.7944 470.63,-16.1041 479.666,-21.6366 481.144,-14.7944"/>
</g>
<!-- Node14&#45;&gt;Node5 -->
<g id="edge23" class="edge"><title>Node14&#45;&gt;Node5</title>
<path fill="none" stroke="midnightblue" d="M671.489,-56.4435C644.404,-47.3591 601.41,-32.9388 571.131,-22.7831"/>
<polygon fill="midnightblue" stroke="midnightblue" points="571.986,-19.3781 561.392,-19.5164 569.76,-26.0148 571.986,-19.3781"/>
</g>
<!-- Node14&#45;&gt;Node12 -->
<g id="edge25" class="edge"><title>Node14&#45;&gt;Node12</title>
<path fill="none" stroke="midnightblue" d="M684.307,-56.324C672.099,-47.979 653.422,-35.2122 638.997,-25.3524"/>
<polygon fill="midnightblue" stroke="midnightblue" points="640.892,-22.4082 630.661,-19.6545 636.942,-28.1871 640.892,-22.4082"/>
</g>
<!-- Node15 -->
<g id="node16" class="node"><title>Node15</title>
<polygon fill="white" stroke="#bfbfbf" points="669,-0.5 669,-19.5 725,-19.5 725,-0.5 669,-0.5"/>
<text text-anchor="middle" x="697" y="-7.5" font-family="Helvetica,sans-Serif" font-size="10.00">numeric</text>
</g>
<!-- Node14&#45;&gt;Node15 -->
<g id="edge24" class="edge"><title>Node14&#45;&gt;Node15</title>
<path fill="none" stroke="midnightblue" d="M697,-56.083C697,-49.0059 697,-38.8611 697,-29.9865"/>
<polygon fill="midnightblue" stroke="midnightblue" points="700.5,-29.751 697,-19.7511 693.5,-29.7511 700.5,-29.751"/>
</g>
<!-- Node16&#45;&gt;Node2 -->
<g id="edge29" class="edge"><title>Node16&#45;&gt;Node2</title>
<path fill="none" stroke="midnightblue" d="M294.68,-56.4435C326.93,-46.8219 379.243,-31.2147 413.386,-21.0283"/>
<polygon fill="midnightblue" stroke="midnightblue" points="414.775,-24.2666 423.357,-18.0537 412.774,-17.5588 414.775,-24.2666"/>
</g>
<!-- Node16&#45;&gt;Node7 -->
<g id="edge28" class="edge"><title>Node16&#45;&gt;Node7</title>
<path fill="none" stroke="midnightblue" d="M273.266,-56.083C279.545,-48.3768 288.788,-37.0333 296.431,-27.6531"/>
<polygon fill="midnightblue" stroke="midnightblue" points="299.266,-29.7143 302.869,-19.7511 293.839,-25.2926 299.266,-29.7143"/>
</g>
<!-- Node16&#45;&gt;Node10 -->
<g id="edge27" class="edge"><title>Node16&#45;&gt;Node10</title>
<path fill="none" stroke="midnightblue" d="M262.863,-56.083C260.317,-48.8486 256.644,-38.4087 253.473,-29.3968"/>
<polygon fill="midnightblue" stroke="midnightblue" points="256.7,-28.0225 250.079,-19.7511 250.097,-30.3459 256.7,-28.0225"/>
</g>
</g>
</svg>
