<?xml version="1.0" encoding="UTF-8" standalone="no"?>
<!DOCTYPE svg PUBLIC "-//W3C//DTD SVG 1.1//EN"
 "http://www.w3.org/Graphics/SVG/1.1/DTD/svg11.dtd">
<!-- Generated by graphviz version 2.38.0 (20140413.2041)
 -->
<!-- Title: src/calibration/gui/AvgBuffer_traits.h Pages: 1 -->
<svg width="1034pt" height="173pt"
 viewBox="0.00 0.00 1033.50 173.00" xmlns="http://www.w3.org/2000/svg" xmlns:xlink="http://www.w3.org/1999/xlink">
<g id="graph0" class="graph" transform="scale(1 1) rotate(0) translate(4 169)">
<title>src/calibration/gui/AvgBuffer_traits.h</title>
<polygon fill="white" stroke="none" points="-4,4 -4,-169 1029.5,-169 1029.5,4 -4,4"/>
<!-- Node23 -->
<g id="node1" class="node"><title>Node23</title>
<polygon fill="#bfbfbf" stroke="black" points="327,-134.5 327,-164.5 431,-164.5 431,-134.5 327,-134.5"/>
<text text-anchor="start" x="335" y="-152.5" font-family="Helvetica,sans-Serif" font-size="10.00">src/calibration/gui</text>
<text text-anchor="middle" x="379" y="-141.5" font-family="Helvetica,sans-Serif" font-size="10.00">/AvgBuffer_traits.h</text>
</g>
<!-- Node24 -->
<g id="node2" class="node"><title>Node24</title>
<g id="a_node2"><a xlink:href="_avg_buffer_8h.html" target="_top" xlink:title="src/calibration/gui\l/AvgBuffer.h">
<polygon fill="white" stroke="black" points="408.5,-67.5 408.5,-97.5 509.5,-97.5 509.5,-67.5 408.5,-67.5"/>
<text text-anchor="start" x="416.5" y="-85.5" font-family="Helvetica,sans-Serif" font-size="10.00">src/calibration/gui</text>
<text text-anchor="middle" x="459" y="-74.5" font-family="Helvetica,sans-Serif" font-size="10.00">/AvgBuffer.h</text>
</a>
</g>
</g>
<!-- Node23&#45;&gt;Node24 -->
<g id="edge1" class="edge"><title>Node23&#45;&gt;Node24</title>
<path fill="none" stroke="midnightblue" d="M404.375,-127.883C416.532,-118.005 430.779,-106.429 441.675,-97.5765"/>
<polygon fill="midnightblue" stroke="midnightblue" points="401.913,-125.374 396.359,-134.396 406.327,-130.806 401.913,-125.374"/>
</g>
<!-- Node31 -->
<g id="node9" class="node"><title>Node31</title>
<g id="a_node9"><a xlink:href="_manager_8h.html" target="_top" xlink:title="src/calibration/gui\l/Manager.h">
<polygon fill="white" stroke="black" points="248.5,-67.5 248.5,-97.5 349.5,-97.5 349.5,-67.5 248.5,-67.5"/>
<text text-anchor="start" x="256.5" y="-85.5" font-family="Helvetica,sans-Serif" font-size="10.00">src/calibration/gui</text>
<text text-anchor="middle" x="299" y="-74.5" font-family="Helvetica,sans-Serif" font-size="10.00">/Manager.h</text>
</a>
</g>
</g>
<!-- Node23&#45;&gt;Node31 -->
<g id="edge8" class="edge"><title>Node23&#45;&gt;Node31</title>
<path fill="none" stroke="midnightblue" d="M353.625,-127.883C341.468,-118.005 327.221,-106.429 316.325,-97.5765"/>
<polygon fill="midnightblue" stroke="midnightblue" points="351.673,-130.806 361.641,-134.396 356.087,-125.374 351.673,-130.806"/>
</g>
<!-- Node25 -->
<g id="node3" class="node"><title>Node25</title>
<g id="a_node3"><a xlink:href="_ant-calib-smooth_8cc.html" target="_top" xlink:title="progs/Ant&#45;calib&#45;smooth.cc">
<polygon fill="white" stroke="black" points="568.5,-6 568.5,-25 711.5,-25 711.5,-6 568.5,-6"/>
<text text-anchor="middle" x="640" y="-13" font-family="Helvetica,sans-Serif" font-size="10.00">progs/Ant&#45;calib&#45;smooth.cc</text>
</a>
</g>
</g>
<!-- Node24&#45;&gt;Node25 -->
<g id="edge2" class="edge"><title>Node24&#45;&gt;Node25</title>
<path fill="none" stroke="midnightblue" d="M507.881,-63.9459C543.036,-51.3213 588.902,-34.8502 616.311,-25.007"/>
<polygon fill="midnightblue" stroke="midnightblue" points="506.503,-60.722 498.274,-67.396 508.869,-67.3101 506.503,-60.722"/>
</g>
<!-- Node26 -->
<g id="node4" class="node"><title>Node26</title>
<g id="a_node4"><a xlink:href="_ant-calib_8cc.html" target="_top" xlink:title="progs/Ant&#45;calib.cc">
<polygon fill="white" stroke="black" points="128,-6 128,-25 230,-25 230,-6 128,-6"/>
<text text-anchor="middle" x="179" y="-13" font-family="Helvetica,sans-Serif" font-size="10.00">progs/Ant&#45;calib.cc</text>
</a>
</g>
</g>
<!-- Node24&#45;&gt;Node26 -->
<g id="edge3" class="edge"><title>Node24&#45;&gt;Node26</title>
<path fill="none" stroke="midnightblue" d="M398.134,-67.5803C354.175,-57.4991 293.397,-43.5027 240,-31 231.839,-29.0891 223.069,-27.016 214.794,-25.051"/>
<polygon fill="midnightblue" stroke="midnightblue" points="397.559,-71.0394 408.088,-69.8623 399.123,-64.2163 397.559,-71.0394"/>
</g>
<!-- Node27 -->
<g id="node5" class="node"><title>Node27</title>
<g id="a_node5"><a xlink:href="_ant-smooth_tagg_eff_8cc.html" target="_top" xlink:title="progs/Ant&#45;smoothTaggEff.cc">
<polygon fill="white" stroke="black" points="729.5,-6 729.5,-25 880.5,-25 880.5,-6 729.5,-6"/>
<text text-anchor="middle" x="805" y="-13" font-family="Helvetica,sans-Serif" font-size="10.00">progs/Ant&#45;smoothTaggEff.cc</text>
</a>
</g>
</g>
<!-- Node24&#45;&gt;Node27 -->
<g id="edge4" class="edge"><title>Node24&#45;&gt;Node27</title>
<path fill="none" stroke="midnightblue" d="M519.903,-70.0586C588.471,-57.1773 698.298,-36.5451 759.699,-25.0103"/>
<polygon fill="midnightblue" stroke="midnightblue" points="518.864,-66.6926 509.682,-71.9788 520.156,-73.5723 518.864,-66.6926"/>
</g>
<!-- Node28 -->
<g id="node6" class="node"><title>Node28</title>
<g id="a_node6"><a xlink:href="_manager_8cc.html" target="_top" xlink:title="src/calibration/gui\l/Manager.cc">
<polygon fill="white" stroke="black" points="248.5,-0.5 248.5,-30.5 349.5,-30.5 349.5,-0.5 248.5,-0.5"/>
<text text-anchor="start" x="256.5" y="-18.5" font-family="Helvetica,sans-Serif" font-size="10.00">src/calibration/gui</text>
<text text-anchor="middle" x="299" y="-7.5" font-family="Helvetica,sans-Serif" font-size="10.00">/Manager.cc</text>
</a>
</g>
</g>
<!-- Node24&#45;&gt;Node28 -->
<g id="edge5" class="edge"><title>Node24&#45;&gt;Node28</title>
<path fill="none" stroke="midnightblue" d="M414.801,-63.5442C389.198,-53.143 357.432,-40.238 333.65,-30.5765"/>
<polygon fill="midnightblue" stroke="midnightblue" points="413.7,-66.8748 424.282,-67.396 416.335,-60.3895 413.7,-66.8748"/>
</g>
<!-- Node29 -->
<g id="node7" class="node"><title>Node29</title>
<g id="a_node7"><a xlink:href="_test_avg_buffer_8cc.html" target="_top" xlink:title="test/calibration/TestAvg\lBuffer.cc">
<polygon fill="white" stroke="black" points="898.5,-0.5 898.5,-30.5 1025.5,-30.5 1025.5,-0.5 898.5,-0.5"/>
<text text-anchor="start" x="906.5" y="-18.5" font-family="Helvetica,sans-Serif" font-size="10.00">test/calibration/TestAvg</text>
<text text-anchor="middle" x="962" y="-7.5" font-family="Helvetica,sans-Serif" font-size="10.00">Buffer.cc</text>
</a>
</g>
</g>
<!-- Node24&#45;&gt;Node29 -->
<g id="edge6" class="edge"><title>Node24&#45;&gt;Node29</title>
<path fill="none" stroke="midnightblue" d="M519.697,-75.9735C603.329,-67.9981 758.579,-51.8965 890,-31 892.77,-30.5595 895.596,-30.0876 898.448,-29.593"/>
<polygon fill="midnightblue" stroke="midnightblue" points="519.239,-72.5012 509.614,-76.9288 519.899,-79.47 519.239,-72.5012"/>
</g>
<!-- Node30 -->
<g id="node8" class="node"><title>Node30</title>
<g id="a_node8"><a xlink:href="_test_g_u_i_manager_8cc.html" target="_top" xlink:title="test/calibration/TestGUIManager.cc">
<polygon fill="white" stroke="black" points="368,-6 368,-25 550,-25 550,-6 368,-6"/>
<text text-anchor="middle" x="459" y="-13" font-family="Helvetica,sans-Serif" font-size="10.00">test/calibration/TestGUIManager.cc</text>
</a>
</g>
</g>
<!-- Node24&#45;&gt;Node30 -->
<g id="edge7" class="edge"><title>Node24&#45;&gt;Node30</title>
<path fill="none" stroke="midnightblue" d="M459,-57.2495C459,-46.017 459,-33.3767 459,-25.1945"/>
<polygon fill="midnightblue" stroke="midnightblue" points="455.5,-57.3959 459,-67.396 462.5,-57.396 455.5,-57.3959"/>
</g>
<!-- Node31&#45;&gt;Node26 -->
<g id="edge9" class="edge"><title>Node31&#45;&gt;Node26</title>
<path fill="none" stroke="midnightblue" d="M263.873,-62.4727C240.965,-50.0641 212.178,-34.4716 194.705,-25.007"/>
<polygon fill="midnightblue" stroke="midnightblue" points="262.502,-65.7106 272.962,-67.396 265.836,-59.5556 262.502,-65.7106"/>
</g>
<!-- Node31&#45;&gt;Node28 -->
<g id="edge10" class="edge"><title>Node31&#45;&gt;Node28</title>
<path fill="none" stroke="midnightblue" d="M299,-57.1081C299,-48.1539 299,-38.3227 299,-30.5765"/>
<polygon fill="midnightblue" stroke="midnightblue" points="295.5,-57.3959 299,-67.396 302.5,-57.396 295.5,-57.3959"/>
</g>
<!-- Node31&#45;&gt;Node30 -->
<g id="edge12" class="edge"><title>Node31&#45;&gt;Node30</title>
<path fill="none" stroke="midnightblue" d="M343.009,-63.6214C373.978,-51.0403 414.037,-34.7661 438.06,-25.007"/>
<polygon fill="midnightblue" stroke="midnightblue" points="341.665,-60.3895 333.718,-67.396 344.3,-66.8748 341.665,-60.3895"/>
</g>
<!-- Node32 -->
<g id="node10" class="node"><title>Node32</title>
<g id="a_node10"><a xlink:href="_manager_window_8cc.html" target="_top" xlink:title="src/calibration/gui\l/ManagerWindow.cc">
<polygon fill="white" stroke="black" points="0,-0.5 0,-30.5 110,-30.5 110,-0.5 0,-0.5"/>
<text text-anchor="start" x="8" y="-18.5" font-family="Helvetica,sans-Serif" font-size="10.00">src/calibration/gui</text>
<text text-anchor="middle" x="55" y="-7.5" font-family="Helvetica,sans-Serif" font-size="10.00">/ManagerWindow.cc</text>
</a>
</g>
</g>
<!-- Node31&#45;&gt;Node32 -->
<g id="edge11" class="edge"><title>Node31&#45;&gt;Node32</title>
<path fill="none" stroke="midnightblue" d="M238.756,-65.4514C198.531,-54.7358 146.142,-40.7796 107.599,-30.5121"/>
<polygon fill="midnightblue" stroke="midnightblue" points="237.879,-68.8398 248.443,-68.032 239.681,-62.0757 237.879,-68.8398"/>
</g>
</g>
</svg>
