<?xml version="1.0" encoding="UTF-8" standalone="no"?>
<!DOCTYPE svg PUBLIC "-//W3C//DTD SVG 1.1//EN"
 "http://www.w3.org/Graphics/SVG/1.1/DTD/svg11.dtd">
<!-- Generated by graphviz version 2.38.0 (20140413.2041)
 -->
<!-- Title: src/calibration/gui/AvgBuffer.h Pages: 1 -->
<svg width="906pt" height="106pt"
 viewBox="0.00 0.00 905.50 106.00" xmlns="http://www.w3.org/2000/svg" xmlns:xlink="http://www.w3.org/1999/xlink">
<g id="graph0" class="graph" transform="scale(1 1) rotate(0) translate(4 102)">
<title>src/calibration/gui/AvgBuffer.h</title>
<polygon fill="white" stroke="none" points="-4,4 -4,-102 901.5,-102 901.5,4 -4,4"/>
<!-- Node30 -->
<g id="node1" class="node"><title>Node30</title>
<polygon fill="#bfbfbf" stroke="black" points="379,-67.5 379,-97.5 480,-97.5 480,-67.5 379,-67.5"/>
<text text-anchor="start" x="387" y="-85.5" font-family="Helvetica,sans-Serif" font-size="10.00">src/calibration/gui</text>
<text text-anchor="middle" x="429.5" y="-74.5" font-family="Helvetica,sans-Serif" font-size="10.00">/AvgBuffer.h</text>
</g>
<!-- Node31 -->
<g id="node2" class="node"><title>Node31</title>
<g id="a_node2"><a xlink:href="_ant-calib-smooth_8cc.html" target="_top" xlink:title="progs/Ant&#45;calib&#45;smooth.cc">
<polygon fill="white" stroke="black" points="0,-6 0,-25 143,-25 143,-6 0,-6"/>
<text text-anchor="middle" x="71.5" y="-13" font-family="Helvetica,sans-Serif" font-size="10.00">progs/Ant&#45;calib&#45;smooth.cc</text>
</a>
</g>
</g>
<!-- Node30&#45;&gt;Node31 -->
<g id="edge1" class="edge"><title>Node30&#45;&gt;Node31</title>
<path fill="none" stroke="midnightblue" d="M368.862,-70.4903C298.096,-57.6418 182.602,-36.6722 118.36,-25.008"/>
<polygon fill="midnightblue" stroke="midnightblue" points="368.502,-73.9821 378.967,-72.3249 369.753,-67.0947 368.502,-73.9821"/>
</g>
<!-- Node32 -->
<g id="node3" class="node"><title>Node32</title>
<g id="a_node3"><a xlink:href="_ant-calib_8cc.html" target="_top" xlink:title="progs/Ant&#45;calib.cc">
<polygon fill="white" stroke="black" points="161.5,-6 161.5,-25 263.5,-25 263.5,-6 161.5,-6"/>
<text text-anchor="middle" x="212.5" y="-13" font-family="Helvetica,sans-Serif" font-size="10.00">progs/Ant&#45;calib.cc</text>
</a>
</g>
</g>
<!-- Node30&#45;&gt;Node32 -->
<g id="edge2" class="edge"><title>Node30&#45;&gt;Node32</title>
<path fill="none" stroke="midnightblue" d="M373.048,-64.5904C330.668,-51.896 274.405,-35.0429 240.973,-25.0287"/>
<polygon fill="midnightblue" stroke="midnightblue" points="372.098,-67.9593 382.681,-67.476 374.106,-61.2537 372.098,-67.9593"/>
</g>
<!-- Node33 -->
<g id="node4" class="node"><title>Node33</title>
<g id="a_node4"><a xlink:href="_ant-smooth_tagg_eff_8cc.html" target="_top" xlink:title="progs/Ant&#45;smoothTaggEff.cc">
<polygon fill="white" stroke="black" points="282,-6 282,-25 433,-25 433,-6 282,-6"/>
<text text-anchor="middle" x="357.5" y="-13" font-family="Helvetica,sans-Serif" font-size="10.00">progs/Ant&#45;smoothTaggEff.cc</text>
</a>
</g>
</g>
<!-- Node30&#45;&gt;Node33 -->
<g id="edge3" class="edge"><title>Node30&#45;&gt;Node33</title>
<path fill="none" stroke="midnightblue" d="M406.429,-60.6722C393.135,-48.6707 377.129,-34.2203 367.131,-25.1945"/>
<polygon fill="midnightblue" stroke="midnightblue" points="404.109,-63.2929 413.877,-67.396 408.8,-58.097 404.109,-63.2929"/>
</g>
<!-- Node34 -->
<g id="node5" class="node"><title>Node34</title>
<g id="a_node5"><a xlink:href="_manager_8cc.html" target="_top" xlink:title="src/calibration/gui\l/Manager.cc">
<polygon fill="white" stroke="black" points="451,-0.5 451,-30.5 552,-30.5 552,-0.5 451,-0.5"/>
<text text-anchor="start" x="459" y="-18.5" font-family="Helvetica,sans-Serif" font-size="10.00">src/calibration/gui</text>
<text text-anchor="middle" x="501.5" y="-7.5" font-family="Helvetica,sans-Serif" font-size="10.00">/Manager.cc</text>
</a>
</g>
</g>
<!-- Node30&#45;&gt;Node34 -->
<g id="edge4" class="edge"><title>Node30&#45;&gt;Node34</title>
<path fill="none" stroke="midnightblue" d="M452.653,-60.5978C463.525,-50.7831 476.196,-39.3442 485.908,-30.5765"/>
<polygon fill="midnightblue" stroke="midnightblue" points="450.2,-58.097 445.123,-67.396 454.891,-63.2929 450.2,-58.097"/>
</g>
<!-- Node35 -->
<g id="node6" class="node"><title>Node35</title>
<g id="a_node6"><a xlink:href="_test_avg_buffer_8cc.html" target="_top" xlink:title="test/calibration/TestAvg\lBuffer.cc">
<polygon fill="white" stroke="black" points="570,-0.5 570,-30.5 697,-30.5 697,-0.5 570,-0.5"/>
<text text-anchor="start" x="578" y="-18.5" font-family="Helvetica,sans-Serif" font-size="10.00">test/calibration/TestAvg</text>
<text text-anchor="middle" x="633.5" y="-7.5" font-family="Helvetica,sans-Serif" font-size="10.00">Buffer.cc</text>
</a>
</g>
</g>
<!-- Node30&#45;&gt;Node35 -->
<g id="edge5" class="edge"><title>Node30&#45;&gt;Node35</title>
<path fill="none" stroke="midnightblue" d="M483.455,-64.3084C516.457,-53.7932 558.155,-40.5068 589.213,-30.6109"/>
<polygon fill="midnightblue" stroke="midnightblue" points="481.979,-61.1052 473.514,-67.476 484.104,-67.7748 481.979,-61.1052"/>
</g>
<!-- Node36 -->
<g id="node7" class="node"><title>Node36</title>
<g id="a_node7"><a xlink:href="_test_g_u_i_manager_8cc.html" target="_top" xlink:title="test/calibration/TestGUIManager.cc">
<polygon fill="white" stroke="black" points="715.5,-6 715.5,-25 897.5,-25 897.5,-6 715.5,-6"/>
<text text-anchor="middle" x="806.5" y="-13" font-family="Helvetica,sans-Serif" font-size="10.00">test/calibration/TestGUIManager.cc</text>
</a>
</g>
</g>
<!-- Node30&#45;&gt;Node36 -->
<g id="edge6" class="edge"><title>Node30&#45;&gt;Node36</title>
<path fill="none" stroke="midnightblue" d="M490.473,-70.9874C564.671,-58.1946 688.509,-36.8434 757.06,-25.0242"/>
<polygon fill="midnightblue" stroke="midnightblue" points="489.604,-67.5855 480.344,-72.7338 490.793,-74.4838 489.604,-67.5855"/>
</g>
</g>
</svg>
