<?xml version="1.0" encoding="UTF-8" standalone="no"?>
<!DOCTYPE svg PUBLIC "-//W3C//DTD SVG 1.1//EN"
 "http://www.w3.org/Graphics/SVG/1.1/DTD/svg11.dtd">
<!-- Generated by graphviz version 2.38.0 (20140413.2041)
 -->
<!-- Title: src/calibration/gui/AvgBuffer.h Pages: 1 -->
<svg width="1126pt" height="319pt"
 viewBox="0.00 0.00 1126.00 319.00" xmlns="http://www.w3.org/2000/svg" xmlns:xlink="http://www.w3.org/1999/xlink">
<g id="graph0" class="graph" transform="scale(1 1) rotate(0) translate(4 315)">
<title>src/calibration/gui/AvgBuffer.h</title>
<polygon fill="white" stroke="none" points="-4,4 -4,-315 1122,-315 1122,4 -4,4"/>
<!-- Node0 -->
<g id="node1" class="node"><title>Node0</title>
<polygon fill="#bfbfbf" stroke="black" points="743.5,-280.5 743.5,-310.5 844.5,-310.5 844.5,-280.5 743.5,-280.5"/>
<text text-anchor="start" x="751.5" y="-298.5" font-family="Helvetica,sans-Serif" font-size="10.00">src/calibration/gui</text>
<text text-anchor="middle" x="794" y="-287.5" font-family="Helvetica,sans-Serif" font-size="10.00">/AvgBuffer.h</text>
</g>
<!-- Node1 -->
<g id="node2" class="node"><title>Node1</title>
<polygon fill="white" stroke="#bfbfbf" points="256.5,-168.5 256.5,-187.5 313.5,-187.5 313.5,-168.5 256.5,-168.5"/>
<text text-anchor="middle" x="285" y="-175.5" font-family="Helvetica,sans-Serif" font-size="10.00">memory</text>
</g>
<!-- Node0&#45;&gt;Node1 -->
<g id="edge1" class="edge"><title>Node0&#45;&gt;Node1</title>
<path fill="none" stroke="midnightblue" d="M743.445,-290.608C676.068,-284.615 553.533,-270.889 452,-244 401.305,-230.574 344.967,-206.648 312.396,-191.87"/>
<polygon fill="midnightblue" stroke="midnightblue" points="313.632,-188.586 303.083,-187.599 310.714,-194.949 313.632,-188.586"/>
</g>
<!-- Node2 -->
<g id="node3" class="node"><title>Node2</title>
<polygon fill="white" stroke="#bfbfbf" points="994,-112.5 994,-131.5 1024,-131.5 1024,-112.5 994,-112.5"/>
<text text-anchor="middle" x="1009" y="-119.5" font-family="Helvetica,sans-Serif" font-size="10.00">list</text>
</g>
<!-- Node0&#45;&gt;Node2 -->
<g id="edge2" class="edge"><title>Node0&#45;&gt;Node2</title>
<path fill="none" stroke="midnightblue" d="M804.621,-280.25C816.458,-265.03 836.746,-240.83 858,-224 883.89,-203.499 895.314,-206.001 923,-188 947.184,-172.276 973.422,-151.924 990.473,-138.216"/>
<polygon fill="midnightblue" stroke="midnightblue" points="992.93,-140.73 998.493,-131.713 988.522,-135.293 992.93,-140.73"/>
</g>
<!-- Node3 -->
<g id="node4" class="node"><title>Node3</title>
<polygon fill="white" stroke="#bfbfbf" points="866.5,-224.5 866.5,-243.5 913.5,-243.5 913.5,-224.5 866.5,-224.5"/>
<text text-anchor="middle" x="890" y="-231.5" font-family="Helvetica,sans-Serif" font-size="10.00">queue</text>
</g>
<!-- Node0&#45;&gt;Node3 -->
<g id="edge3" class="edge"><title>Node0&#45;&gt;Node3</title>
<path fill="none" stroke="midnightblue" d="M816.751,-280.399C831.995,-270.951 851.989,-258.559 867.236,-249.109"/>
<polygon fill="midnightblue" stroke="midnightblue" points="869.375,-251.901 876.031,-243.658 865.687,-245.951 869.375,-251.901"/>
</g>
<!-- Node4 -->
<g id="node5" class="node"><title>Node4</title>
<polygon fill="white" stroke="#bfbfbf" points="932,-224.5 932,-243.5 984,-243.5 984,-224.5 932,-224.5"/>
<text text-anchor="middle" x="958" y="-231.5" font-family="Helvetica,sans-Serif" font-size="10.00">cassert</text>
</g>
<!-- Node0&#45;&gt;Node4 -->
<g id="edge4" class="edge"><title>Node0&#45;&gt;Node4</title>
<path fill="none" stroke="midnightblue" d="M832.866,-280.399C860.751,-270.283 897.939,-256.791 924.513,-247.149"/>
<polygon fill="midnightblue" stroke="midnightblue" points="925.93,-250.359 934.137,-243.658 923.542,-243.778 925.93,-250.359"/>
</g>
<!-- Node5 -->
<g id="node6" class="node"><title>Node5</title>
<g id="a_node6"><a xlink:href="_avg_buffer__traits_8h.html" target="_top" xlink:title="AvgBuffer_traits.h">
<polygon fill="white" stroke="black" points="512.5,-224.5 512.5,-243.5 613.5,-243.5 613.5,-224.5 512.5,-224.5"/>
<text text-anchor="middle" x="563" y="-231.5" font-family="Helvetica,sans-Serif" font-size="10.00">AvgBuffer_traits.h</text>
</a>
</g>
</g>
<!-- Node0&#45;&gt;Node5 -->
<g id="edge5" class="edge"><title>Node0&#45;&gt;Node5</title>
<path fill="none" stroke="midnightblue" d="M743.306,-281.442C702.221,-270.86 644.959,-256.111 606.069,-246.093"/>
<polygon fill="midnightblue" stroke="midnightblue" points="606.664,-242.633 596.107,-243.528 604.918,-249.411 606.664,-242.633"/>
</g>
<!-- Node6 -->
<g id="node7" class="node"><title>Node6</title>
<g id="a_node7"><a xlink:href="interval_8h.html" target="_top" xlink:title="base/interval.h">
<polygon fill="white" stroke="black" points="331.5,-168.5 331.5,-187.5 418.5,-187.5 418.5,-168.5 331.5,-168.5"/>
<text text-anchor="middle" x="375" y="-175.5" font-family="Helvetica,sans-Serif" font-size="10.00">base/interval.h</text>
</a>
</g>
</g>
<!-- Node0&#45;&gt;Node6 -->
<g id="edge32" class="edge"><title>Node0&#45;&gt;Node6</title>
<path fill="none" stroke="midnightblue" d="M743.462,-290.331C684.525,-284.426 584.747,-271.168 503,-244 463.992,-231.036 422.118,-207.797 397.261,-192.903"/>
<polygon fill="midnightblue" stroke="midnightblue" points="398.973,-189.848 388.61,-187.643 395.336,-195.829 398.973,-189.848"/>
</g>
<!-- Node14 -->
<g id="node15" class="node"><title>Node14</title>
<g id="a_node15"><a xlink:href="_t_i_d_8h.html" target="_top" xlink:title="tree/TID.h">
<polygon fill="white" stroke="black" points="632.5,-168.5 632.5,-187.5 695.5,-187.5 695.5,-168.5 632.5,-168.5"/>
<text text-anchor="middle" x="664" y="-175.5" font-family="Helvetica,sans-Serif" font-size="10.00">tree/TID.h</text>
</a>
</g>
</g>
<!-- Node0&#45;&gt;Node14 -->
<g id="edge38" class="edge"><title>Node0&#45;&gt;Node14</title>
<path fill="none" stroke="midnightblue" d="M743.456,-281.755C722.132,-274.037 698.669,-262.079 683,-244 671.82,-231.101 667.21,-211.926 665.314,-197.743"/>
<polygon fill="midnightblue" stroke="midnightblue" points="668.783,-197.254 664.301,-187.653 661.818,-197.953 668.783,-197.254"/>
</g>
<!-- Node26 -->
<g id="node27" class="node"><title>Node26</title>
<g id="a_node27"><a xlink:href="_savitzky_golay_8h.html" target="_top" xlink:title="base/SavitzkyGolay.h">
<polygon fill="white" stroke="black" points="692.5,-224.5 692.5,-243.5 809.5,-243.5 809.5,-224.5 692.5,-224.5"/>
<text text-anchor="middle" x="751" y="-231.5" font-family="Helvetica,sans-Serif" font-size="10.00">base/SavitzkyGolay.h</text>
</a>
</g>
</g>
<!-- Node0&#45;&gt;Node26 -->
<g id="edge33" class="edge"><title>Node0&#45;&gt;Node26</title>
<path fill="none" stroke="midnightblue" d="M783.81,-280.399C777.626,-271.842 769.697,-260.871 763.182,-251.857"/>
<polygon fill="midnightblue" stroke="midnightblue" points="765.951,-249.713 757.257,-243.658 760.278,-253.813 765.951,-249.713"/>
</g>
<!-- Node28 -->
<g id="node29" class="node"><title>Node28</title>
<polygon fill="white" stroke="#bfbfbf" points="1002,-224.5 1002,-243.5 1046,-243.5 1046,-224.5 1002,-224.5"/>
<text text-anchor="middle" x="1024" y="-231.5" font-family="Helvetica,sans-Serif" font-size="10.00">TH1.h</text>
</g>
<!-- Node0&#45;&gt;Node28 -->
<g id="edge39" class="edge"><title>Node0&#45;&gt;Node28</title>
<path fill="none" stroke="midnightblue" d="M844.836,-282.105C882.838,-272.725 936.308,-259.285 991.683,-244.296"/>
<polygon fill="midnightblue" stroke="midnightblue" points="992.943,-247.581 1001.67,-241.58 991.107,-240.826 992.943,-247.581"/>
</g>
<!-- Node29 -->
<g id="node30" class="node"><title>Node29</title>
<polygon fill="white" stroke="#bfbfbf" points="1064,-224.5 1064,-243.5 1118,-243.5 1118,-224.5 1064,-224.5"/>
<text text-anchor="middle" x="1091" y="-231.5" font-family="Helvetica,sans-Serif" font-size="10.00">TArray.h</text>
</g>
<!-- Node0&#45;&gt;Node29 -->
<g id="edge40" class="edge"><title>Node0&#45;&gt;Node29</title>
<path fill="none" stroke="midnightblue" d="M844.69,-285.528C895.238,-276.393 975.324,-261.416 1053.85,-244.164"/>
<polygon fill="midnightblue" stroke="midnightblue" points="1054.9,-247.515 1063.91,-241.938 1053.39,-240.681 1054.9,-247.515"/>
</g>
<!-- Node5&#45;&gt;Node1 -->
<g id="edge31" class="edge"><title>Node5&#45;&gt;Node1</title>
<path fill="none" stroke="midnightblue" d="M512.994,-224.475C466.336,-216.338 394.558,-203.356 323.646,-188.272"/>
<polygon fill="midnightblue" stroke="midnightblue" points="324.159,-184.803 313.648,-186.13 322.693,-191.648 324.159,-184.803"/>
</g>
<!-- Node5&#45;&gt;Node6 -->
<g id="edge6" class="edge"><title>Node5&#45;&gt;Node6</title>
<path fill="none" stroke="midnightblue" d="M533.211,-224.444C501.171,-215.241 450.067,-200.562 414.647,-190.388"/>
<polygon fill="midnightblue" stroke="midnightblue" points="415.227,-186.913 404.65,-187.516 413.295,-193.641 415.227,-186.913"/>
</g>
<!-- Node5&#45;&gt;Node14 -->
<g id="edge14" class="edge"><title>Node5&#45;&gt;Node14</title>
<path fill="none" stroke="midnightblue" d="M579.227,-224.324C595.351,-215.703 620.3,-202.364 638.964,-192.386"/>
<polygon fill="midnightblue" stroke="midnightblue" points="640.644,-195.456 647.813,-187.655 637.344,-189.283 640.644,-195.456"/>
</g>
<!-- Node7 -->
<g id="node8" class="node"><title>Node7</title>
<g id="a_node8"><a xlink:href="types_8h.html" target="_top" xlink:title="types.h">
<polygon fill="white" stroke="black" points="0,-112.5 0,-131.5 52,-131.5 52,-112.5 0,-112.5"/>
<text text-anchor="middle" x="26" y="-119.5" font-family="Helvetica,sans-Serif" font-size="10.00">types.h</text>
</a>
</g>
</g>
<!-- Node6&#45;&gt;Node7 -->
<g id="edge7" class="edge"><title>Node6&#45;&gt;Node7</title>
<path fill="none" stroke="midnightblue" d="M331.343,-169.485C328.183,-168.972 325.043,-168.472 322,-168 208.462,-150.38 179.03,-152.628 66,-132 64.7396,-131.77 63.4586,-131.528 62.1663,-131.276"/>
<polygon fill="midnightblue" stroke="midnightblue" points="62.6889,-127.81 52.1874,-129.214 61.2718,-134.666 62.6889,-127.81"/>
</g>
<!-- Node8 -->
<g id="node9" class="node"><title>Node8</title>
<polygon fill="white" stroke="#bfbfbf" points="197,-0.5 197,-19.5 259,-19.5 259,-0.5 197,-0.5"/>
<text text-anchor="middle" x="228" y="-7.5" font-family="Helvetica,sans-Serif" font-size="10.00">algorithm</text>
</g>
<!-- Node6&#45;&gt;Node8 -->
<g id="edge8" class="edge"><title>Node6&#45;&gt;Node8</title>
<path fill="none" stroke="midnightblue" d="M331.46,-169.585C259.796,-157.332 124.676,-134.002 123,-132 109.689,-116.102 119.406,-77.8344 137,-56 149.69,-40.252 169.287,-29.5804 187.05,-22.5984"/>
<polygon fill="midnightblue" stroke="midnightblue" points="188.477,-25.8035 196.674,-19.0903 186.08,-19.2268 188.477,-25.8035"/>
</g>
<!-- Node9 -->
<g id="node10" class="node"><title>Node9</title>
<polygon fill="white" stroke="#bfbfbf" points="343,-112.5 343,-131.5 407,-131.5 407,-112.5 343,-112.5"/>
<text text-anchor="middle" x="375" y="-119.5" font-family="Helvetica,sans-Serif" font-size="10.00">stdexcept</text>
</g>
<!-- Node6&#45;&gt;Node9 -->
<g id="edge9" class="edge"><title>Node6&#45;&gt;Node9</title>
<path fill="none" stroke="midnightblue" d="M375,-168.083C375,-161.006 375,-150.861 375,-141.986"/>
<polygon fill="midnightblue" stroke="midnightblue" points="378.5,-141.751 375,-131.751 371.5,-141.751 378.5,-141.751"/>
</g>
<!-- Node10 -->
<g id="node11" class="node"><title>Node10</title>
<polygon fill="white" stroke="#bfbfbf" points="146,-112.5 146,-131.5 188,-131.5 188,-112.5 146,-112.5"/>
<text text-anchor="middle" x="167" y="-119.5" font-family="Helvetica,sans-Serif" font-size="10.00">limits</text>
</g>
<!-- Node6&#45;&gt;Node10 -->
<g id="edge10" class="edge"><title>Node6&#45;&gt;Node10</title>
<path fill="none" stroke="midnightblue" d="M339.418,-168.491C305.44,-160.258 252.575,-147.17 198.098,-132.219"/>
<polygon fill="midnightblue" stroke="midnightblue" points="198.843,-128.794 188.272,-129.507 196.98,-135.542 198.843,-128.794"/>
</g>
<!-- Node11 -->
<g id="node12" class="node"><title>Node11</title>
<polygon fill="white" stroke="#bfbfbf" points="206.5,-112.5 206.5,-131.5 259.5,-131.5 259.5,-112.5 206.5,-112.5"/>
<text text-anchor="middle" x="233" y="-119.5" font-family="Helvetica,sans-Serif" font-size="10.00">istream</text>
</g>
<!-- Node6&#45;&gt;Node11 -->
<g id="edge11" class="edge"><title>Node6&#45;&gt;Node11</title>
<path fill="none" stroke="midnightblue" d="M352.5,-168.444C328.923,-159.478 291.678,-145.314 265.036,-135.183"/>
<polygon fill="midnightblue" stroke="midnightblue" points="265.986,-131.8 255.395,-131.516 263.498,-138.342 265.986,-131.8"/>
</g>
<!-- Node12 -->
<g id="node13" class="node"><title>Node12</title>
<polygon fill="white" stroke="#bfbfbf" points="351,-0.5 351,-19.5 407,-19.5 407,-0.5 351,-0.5"/>
<text text-anchor="middle" x="379" y="-7.5" font-family="Helvetica,sans-Serif" font-size="10.00">sstream</text>
</g>
<!-- Node6&#45;&gt;Node12 -->
<g id="edge12" class="edge"><title>Node6&#45;&gt;Node12</title>
<path fill="none" stroke="midnightblue" d="M331.5,-169.495C263.677,-157.695 140.111,-135.754 137,-132 77.0015,-59.5941 258.822,-26.4373 340.953,-15.4214"/>
<polygon fill="midnightblue" stroke="midnightblue" points="341.451,-18.8862 350.917,-14.1282 340.55,-11.9445 341.451,-18.8862"/>
</g>
<!-- Node13 -->
<g id="node14" class="node"><title>Node13</title>
<polygon fill="white" stroke="#bfbfbf" points="277.5,-112.5 277.5,-131.5 324.5,-131.5 324.5,-112.5 277.5,-112.5"/>
<text text-anchor="middle" x="301" y="-119.5" font-family="Helvetica,sans-Serif" font-size="10.00">cmath</text>
</g>
<!-- Node6&#45;&gt;Node13 -->
<g id="edge13" class="edge"><title>Node6&#45;&gt;Node13</title>
<path fill="none" stroke="midnightblue" d="M363.111,-168.324C351.85,-160.107 334.713,-147.602 321.291,-137.807"/>
<polygon fill="midnightblue" stroke="midnightblue" points="323.247,-134.901 313.106,-131.834 319.12,-140.556 323.247,-134.901"/>
</g>
<!-- Node14&#45;&gt;Node2 -->
<g id="edge28" class="edge"><title>Node14&#45;&gt;Node2</title>
<path fill="none" stroke="midnightblue" d="M695.64,-170.62C700.445,-169.706 705.349,-168.805 710,-168 762.822,-158.862 921.671,-135.663 983.749,-126.655"/>
<polygon fill="midnightblue" stroke="midnightblue" points="984.446,-130.09 993.841,-125.192 983.442,-123.163 984.446,-130.09"/>
</g>
<!-- Node14&#45;&gt;Node9 -->
<g id="edge27" class="edge"><title>Node14&#45;&gt;Node9</title>
<path fill="none" stroke="midnightblue" d="M632.219,-171.616C586.769,-163.834 500.352,-148.728 417.079,-132.161"/>
<polygon fill="midnightblue" stroke="midnightblue" points="417.698,-128.715 407.206,-130.186 416.325,-135.579 417.698,-128.715"/>
</g>
<!-- Node15 -->
<g id="node16" class="node"><title>Node15</title>
<polygon fill="white" stroke="#bfbfbf" points="734,-112.5 734,-131.5 792,-131.5 792,-112.5 734,-112.5"/>
<text text-anchor="middle" x="763" y="-119.5" font-family="Helvetica,sans-Serif" font-size="10.00">Rtypes.h</text>
</g>
<!-- Node14&#45;&gt;Node15 -->
<g id="edge15" class="edge"><title>Node14&#45;&gt;Node15</title>
<path fill="none" stroke="midnightblue" d="M679.906,-168.324C695.638,-159.743 719.942,-146.486 738.209,-136.522"/>
<polygon fill="midnightblue" stroke="midnightblue" points="740.03,-139.516 747.133,-131.655 736.678,-133.37 740.03,-139.516"/>
</g>
<!-- Node16 -->
<g id="node17" class="node"><title>Node16</title>
<g id="a_node17"><a xlink:href="base_2std__ext_2_time_8h.html" target="_top" xlink:title="base/std_ext/time.h">
<polygon fill="white" stroke="black" points="566,-112.5 566,-131.5 678,-131.5 678,-112.5 566,-112.5"/>
<text text-anchor="middle" x="622" y="-119.5" font-family="Helvetica,sans-Serif" font-size="10.00">base/std_ext/time.h</text>
</a>
</g>
</g>
<!-- Node14&#45;&gt;Node16 -->
<g id="edge16" class="edge"><title>Node14&#45;&gt;Node16</title>
<path fill="none" stroke="midnightblue" d="M657.065,-168.083C651.071,-160.377 642.248,-149.033 634.952,-139.653"/>
<polygon fill="midnightblue" stroke="midnightblue" points="637.709,-137.496 628.806,-131.751 632.183,-141.793 637.709,-137.496"/>
</g>
<!-- Node21 -->
<g id="node22" class="node"><title>Node21</title>
<polygon fill="white" stroke="#bfbfbf" points="675,-56.5 675,-75.5 719,-75.5 719,-56.5 675,-56.5"/>
<text text-anchor="middle" x="697" y="-63.5" font-family="Helvetica,sans-Serif" font-size="10.00">ctime</text>
</g>
<!-- Node14&#45;&gt;Node21 -->
<g id="edge30" class="edge"><title>Node14&#45;&gt;Node21</title>
<path fill="none" stroke="midnightblue" d="M669.456,-168.397C674.778,-159.597 682.683,-145.358 687,-132 691.888,-116.875 694.417,-98.9772 695.707,-85.7957"/>
<polygon fill="midnightblue" stroke="midnightblue" points="699.213,-85.869 696.55,-75.6142 692.237,-85.2913 699.213,-85.869"/>
</g>
<!-- Node22 -->
<g id="node23" class="node"><title>Node22</title>
<polygon fill="white" stroke="#bfbfbf" points="810,-112.5 810,-131.5 878,-131.5 878,-112.5 810,-112.5"/>
<text text-anchor="middle" x="844" y="-119.5" font-family="Helvetica,sans-Serif" font-size="10.00">type_traits</text>
</g>
<!-- Node14&#45;&gt;Node22 -->
<g id="edge24" class="edge"><title>Node14&#45;&gt;Node22</title>
<path fill="none" stroke="midnightblue" d="M692.522,-168.444C723.066,-159.28 771.708,-144.688 805.603,-134.519"/>
<polygon fill="midnightblue" stroke="midnightblue" points="807.039,-137.742 815.612,-131.516 805.028,-131.038 807.039,-137.742"/>
</g>
<!-- Node23 -->
<g id="node24" class="node"><title>Node23</title>
<polygon fill="white" stroke="#bfbfbf" points="896.5,-112.5 896.5,-131.5 937.5,-131.5 937.5,-112.5 896.5,-112.5"/>
<text text-anchor="middle" x="917" y="-119.5" font-family="Helvetica,sans-Serif" font-size="10.00">tuple</text>
</g>
<!-- Node14&#45;&gt;Node23 -->
<g id="edge25" class="edge"><title>Node14&#45;&gt;Node23</title>
<path fill="none" stroke="midnightblue" d="M695.842,-170.744C747.616,-160.549 847.481,-140.784 886.409,-131.851"/>
<polygon fill="midnightblue" stroke="midnightblue" points="887.506,-135.187 896.412,-129.449 885.872,-128.38 887.506,-135.187"/>
</g>
<!-- Node24 -->
<g id="node25" class="node"><title>Node24</title>
<polygon fill="white" stroke="#bfbfbf" points="425.5,-112.5 425.5,-131.5 474.5,-131.5 474.5,-112.5 425.5,-112.5"/>
<text text-anchor="middle" x="450" y="-119.5" font-family="Helvetica,sans-Serif" font-size="10.00">cstdint</text>
</g>
<!-- Node14&#45;&gt;Node24 -->
<g id="edge26" class="edge"><title>Node14&#45;&gt;Node24</title>
<path fill="none" stroke="midnightblue" d="M632.229,-169.331C598.022,-161.024 541.754,-147.214 484.747,-132.419"/>
<polygon fill="midnightblue" stroke="midnightblue" points="485.409,-128.974 474.85,-129.842 483.646,-135.749 485.409,-128.974"/>
</g>
<!-- Node25 -->
<g id="node26" class="node"><title>Node25</title>
<polygon fill="white" stroke="#bfbfbf" points="492.5,-112.5 492.5,-131.5 547.5,-131.5 547.5,-112.5 492.5,-112.5"/>
<text text-anchor="middle" x="520" y="-119.5" font-family="Helvetica,sans-Serif" font-size="10.00">iomanip</text>
</g>
<!-- Node14&#45;&gt;Node25 -->
<g id="edge29" class="edge"><title>Node14&#45;&gt;Node25</title>
<path fill="none" stroke="midnightblue" d="M641.183,-168.444C617.168,-159.438 579.171,-145.189 552.131,-135.049"/>
<polygon fill="midnightblue" stroke="midnightblue" points="553.303,-131.751 542.71,-131.516 550.845,-138.305 553.303,-131.751"/>
</g>
<!-- Node17 -->
<g id="node18" class="node"><title>Node17</title>
<g id="a_node18"><a xlink:href="string_8h.html" target="_top" xlink:title="base/std_ext/string.h">
<polygon fill="white" stroke="black" points="425.5,-56.5 425.5,-75.5 542.5,-75.5 542.5,-56.5 425.5,-56.5"/>
<text text-anchor="middle" x="484" y="-63.5" font-family="Helvetica,sans-Serif" font-size="10.00">base/std_ext/string.h</text>
</a>
</g>
</g>
<!-- Node16&#45;&gt;Node17 -->
<g id="edge17" class="edge"><title>Node16&#45;&gt;Node17</title>
<path fill="none" stroke="midnightblue" d="M600.133,-112.444C577.221,-103.478 541.025,-89.314 515.134,-79.1827"/>
<polygon fill="midnightblue" stroke="midnightblue" points="516.352,-75.9011 505.764,-75.5164 513.801,-82.4198 516.352,-75.9011"/>
</g>
<!-- Node20 -->
<g id="node21" class="node"><title>Node20</title>
<polygon fill="white" stroke="#bfbfbf" points="597.5,-56.5 597.5,-75.5 646.5,-75.5 646.5,-56.5 597.5,-56.5"/>
<text text-anchor="middle" x="622" y="-63.5" font-family="Helvetica,sans-Serif" font-size="10.00">cstring</text>
</g>
<!-- Node16&#45;&gt;Node20 -->
<g id="edge22" class="edge"><title>Node16&#45;&gt;Node20</title>
<path fill="none" stroke="midnightblue" d="M622,-112.083C622,-105.006 622,-94.8611 622,-85.9865"/>
<polygon fill="midnightblue" stroke="midnightblue" points="625.5,-85.751 622,-75.7511 618.5,-85.7511 625.5,-85.751"/>
</g>
<!-- Node16&#45;&gt;Node21 -->
<g id="edge23" class="edge"><title>Node16&#45;&gt;Node21</title>
<path fill="none" stroke="midnightblue" d="M634.05,-112.324C645.463,-104.107 662.831,-91.6017 676.435,-81.8069"/>
<polygon fill="midnightblue" stroke="midnightblue" points="678.66,-84.5174 684.731,-75.8339 674.57,-78.8366 678.66,-84.5174"/>
</g>
<!-- Node17&#45;&gt;Node8 -->
<g id="edge20" class="edge"><title>Node17&#45;&gt;Node8</title>
<path fill="none" stroke="midnightblue" d="M443.436,-56.4435C395.756,-46.3861 317.072,-29.7886 269.143,-19.6786"/>
<polygon fill="midnightblue" stroke="midnightblue" points="269.621,-16.2024 259.114,-17.5631 268.176,-23.0517 269.621,-16.2024"/>
</g>
<!-- Node17&#45;&gt;Node12 -->
<g id="edge19" class="edge"><title>Node17&#45;&gt;Node12</title>
<path fill="none" stroke="midnightblue" d="M467.13,-56.324C450.291,-47.6641 424.193,-34.2424 404.762,-24.249"/>
<polygon fill="midnightblue" stroke="midnightblue" points="406.322,-21.1155 395.828,-19.6545 403.12,-27.3405 406.322,-21.1155"/>
</g>
<!-- Node18 -->
<g id="node19" class="node"><title>Node18</title>
<polygon fill="white" stroke="#bfbfbf" points="462,-0.5 462,-19.5 506,-19.5 506,-0.5 462,-0.5"/>
<text text-anchor="middle" x="484" y="-7.5" font-family="Helvetica,sans-Serif" font-size="10.00">string</text>
</g>
<!-- Node17&#45;&gt;Node18 -->
<g id="edge18" class="edge"><title>Node17&#45;&gt;Node18</title>
<path fill="none" stroke="midnightblue" d="M484,-56.083C484,-49.0059 484,-38.8611 484,-29.9865"/>
<polygon fill="midnightblue" stroke="midnightblue" points="487.5,-29.751 484,-19.7511 480.5,-29.7511 487.5,-29.751"/>
</g>
<!-- Node19 -->
<g id="node20" class="node"><title>Node19</title>
<polygon fill="white" stroke="#bfbfbf" points="733.5,-0.5 733.5,-19.5 780.5,-19.5 780.5,-0.5 733.5,-0.5"/>
<text text-anchor="middle" x="757" y="-7.5" font-family="Helvetica,sans-Serif" font-size="10.00">vector</text>
</g>
<!-- Node17&#45;&gt;Node19 -->
<g id="edge21" class="edge"><title>Node17&#45;&gt;Node19</title>
<path fill="none" stroke="midnightblue" d="M527.258,-56.4435C581.719,-45.6709 674.114,-27.395 723.508,-17.6249"/>
<polygon fill="midnightblue" stroke="midnightblue" points="724.235,-21.0489 733.366,-15.6749 722.877,-14.182 724.235,-21.0489"/>
</g>
<!-- Node26&#45;&gt;Node1 -->
<g id="edge35" class="edge"><title>Node26&#45;&gt;Node1</title>
<path fill="none" stroke="midnightblue" d="M692.157,-227.813C595.817,-219.163 407.506,-201.551 323.55,-188.029"/>
<polygon fill="midnightblue" stroke="midnightblue" points="324.045,-184.563 313.604,-186.359 322.886,-191.466 324.045,-184.563"/>
</g>
<!-- Node26&#45;&gt;Node6 -->
<g id="edge34" class="edge"><title>Node26&#45;&gt;Node6</title>
<path fill="none" stroke="midnightblue" d="M692.25,-224.562C620.002,-214.186 498.394,-196.722 428.594,-186.697"/>
<polygon fill="midnightblue" stroke="midnightblue" points="429.079,-183.231 418.683,-185.274 428.084,-190.16 429.079,-183.231"/>
</g>
<!-- Node26&#45;&gt;Node19 -->
<g id="edge36" class="edge"><title>Node26&#45;&gt;Node19</title>
<path fill="none" stroke="midnightblue" d="M794.377,-224.445C841.33,-212.617 913.922,-186.257 947,-132 986.724,-66.8417 855.493,-30.7131 790.848,-17.2171"/>
<polygon fill="midnightblue" stroke="midnightblue" points="791.206,-13.7189 780.712,-15.1724 789.822,-20.5807 791.206,-13.7189"/>
</g>
<!-- Node27 -->
<g id="node28" class="node"><title>Node27</title>
<polygon fill="white" stroke="#bfbfbf" points="719.5,-168.5 719.5,-187.5 782.5,-187.5 782.5,-168.5 719.5,-168.5"/>
<text text-anchor="middle" x="751" y="-175.5" font-family="Helvetica,sans-Serif" font-size="10.00">functional</text>
</g>
<!-- Node26&#45;&gt;Node27 -->
<g id="edge37" class="edge"><title>Node26&#45;&gt;Node27</title>
<path fill="none" stroke="midnightblue" d="M751,-224.083C751,-217.006 751,-206.861 751,-197.986"/>
<polygon fill="midnightblue" stroke="midnightblue" points="754.5,-197.751 751,-187.751 747.5,-197.751 754.5,-197.751"/>
</g>
</g>
</svg>
