<?xml version="1.0" encoding="UTF-8" standalone="no"?>
<!DOCTYPE svg PUBLIC "-//W3C//DTD SVG 1.1//EN"
 "http://www.w3.org/Graphics/SVG/1.1/DTD/svg11.dtd">
<!-- Generated by graphviz version 2.38.0 (20140413.2041)
 -->
<!-- Title: src/base/BinSettings.cc Pages: 1 -->
<svg width="499pt" height="196pt"
 viewBox="0.00 0.00 499.00 196.00" xmlns="http://www.w3.org/2000/svg" xmlns:xlink="http://www.w3.org/1999/xlink">
<g id="graph0" class="graph" transform="scale(1 1) rotate(0) translate(4 192)">
<title>src/base/BinSettings.cc</title>
<polygon fill="white" stroke="none" points="-4,4 -4,-192 495,-192 495,4 -4,4"/>
<!-- Node0 -->
<g id="node1" class="node"><title>Node0</title>
<polygon fill="#bfbfbf" stroke="black" points="330.5,-168.5 330.5,-187.5 458.5,-187.5 458.5,-168.5 330.5,-168.5"/>
<text text-anchor="middle" x="394.5" y="-175.5" font-family="Helvetica,sans-Serif" font-size="10.00">src/base/BinSettings.cc</text>
</g>
<!-- Node1 -->
<g id="node2" class="node"><title>Node1</title>
<g id="a_node2"><a xlink:href="_bin_settings_8h.html" target="_top" xlink:title="BinSettings.h">
<polygon fill="white" stroke="black" points="126.5,-112.5 126.5,-131.5 206.5,-131.5 206.5,-112.5 126.5,-112.5"/>
<text text-anchor="middle" x="166.5" y="-119.5" font-family="Helvetica,sans-Serif" font-size="10.00">BinSettings.h</text>
</a>
</g>
</g>
<!-- Node0&#45;&gt;Node1 -->
<g id="edge1" class="edge"><title>Node0&#45;&gt;Node1</title>
<path fill="none" stroke="midnightblue" d="M358.373,-168.444C318.849,-159.083 255.403,-144.056 212.387,-133.868"/>
<polygon fill="midnightblue" stroke="midnightblue" points="212.996,-130.415 202.458,-131.516 211.382,-137.227 212.996,-130.415"/>
</g>
<!-- Node9 -->
<g id="node10" class="node"><title>Node9</title>
<polygon fill="white" stroke="#bfbfbf" points="444,-0.5 444,-19.5 491,-19.5 491,-0.5 444,-0.5"/>
<text text-anchor="middle" x="467.5" y="-7.5" font-family="Helvetica,sans-Serif" font-size="10.00">cmath</text>
</g>
<!-- Node0&#45;&gt;Node9 -->
<g id="edge14" class="edge"><title>Node0&#45;&gt;Node9</title>
<path fill="none" stroke="midnightblue" d="M396.414,-168.395C399.356,-155.768 405.5,-131.592 413.5,-112 425.975,-81.45 444.97,-48.0626 456.789,-28.356"/>
<polygon fill="midnightblue" stroke="midnightblue" points="459.896,-29.9824 462.098,-19.619 453.914,-26.347 459.896,-29.9824"/>
</g>
<!-- Node12 -->
<g id="node13" class="node"><title>Node12</title>
<polygon fill="white" stroke="#bfbfbf" points="422.5,-112.5 422.5,-131.5 478.5,-131.5 478.5,-112.5 422.5,-112.5"/>
<text text-anchor="middle" x="450.5" y="-119.5" font-family="Helvetica,sans-Serif" font-size="10.00">numeric</text>
</g>
<!-- Node0&#45;&gt;Node12 -->
<g id="edge15" class="edge"><title>Node0&#45;&gt;Node12</title>
<path fill="none" stroke="midnightblue" d="M403.497,-168.324C411.694,-160.42 424.006,-148.548 433.972,-138.938"/>
<polygon fill="midnightblue" stroke="midnightblue" points="436.57,-141.295 441.339,-131.834 431.711,-136.256 436.57,-141.295"/>
</g>
<!-- Node2 -->
<g id="node3" class="node"><title>Node2</title>
<g id="a_node3"><a xlink:href="interval_8h.html" target="_top" xlink:title="base/interval.h">
<polygon fill="white" stroke="black" points="223,-56.5 223,-75.5 310,-75.5 310,-56.5 223,-56.5"/>
<text text-anchor="middle" x="266.5" y="-63.5" font-family="Helvetica,sans-Serif" font-size="10.00">base/interval.h</text>
</a>
</g>
</g>
<!-- Node1&#45;&gt;Node2 -->
<g id="edge2" class="edge"><title>Node1&#45;&gt;Node2</title>
<path fill="none" stroke="midnightblue" d="M182.567,-112.324C198.458,-103.743 223.007,-90.486 241.458,-80.5224"/>
<polygon fill="midnightblue" stroke="midnightblue" points="243.337,-83.4857 250.473,-75.6545 240.011,-77.3264 243.337,-83.4857"/>
</g>
<!-- Node5 -->
<g id="node6" class="node"><title>Node5</title>
<polygon fill="white" stroke="#bfbfbf" points="77.5,-0.5 77.5,-19.5 141.5,-19.5 141.5,-0.5 77.5,-0.5"/>
<text text-anchor="middle" x="109.5" y="-7.5" font-family="Helvetica,sans-Serif" font-size="10.00">stdexcept</text>
</g>
<!-- Node1&#45;&gt;Node5 -->
<g id="edge11" class="edge"><title>Node1&#45;&gt;Node5</title>
<path fill="none" stroke="midnightblue" d="M170.526,-112.441C176.009,-99.4499 184.104,-74.3296 174.5,-56 167.221,-42.1082 153.491,-31.6523 140.517,-24.3328"/>
<polygon fill="midnightblue" stroke="midnightblue" points="141.796,-21.0532 131.308,-19.553 138.572,-27.2662 141.796,-21.0532"/>
</g>
<!-- Node7 -->
<g id="node8" class="node"><title>Node7</title>
<polygon fill="white" stroke="#bfbfbf" points="0,-0.5 0,-19.5 53,-19.5 53,-0.5 0,-0.5"/>
<text text-anchor="middle" x="26.5" y="-7.5" font-family="Helvetica,sans-Serif" font-size="10.00">istream</text>
</g>
<!-- Node1&#45;&gt;Node7 -->
<g id="edge12" class="edge"><title>Node1&#45;&gt;Node7</title>
<path fill="none" stroke="midnightblue" d="M126.368,-118.367C96.3185,-114.139 56.7155,-103.34 34.5,-76 24.09,-63.1886 22.9146,-44.0018 23.8476,-29.7919"/>
<polygon fill="midnightblue" stroke="midnightblue" points="27.3459,-29.9911 24.9117,-19.6797 20.3843,-29.2585 27.3459,-29.9911"/>
</g>
<!-- Node10 -->
<g id="node11" class="node"><title>Node10</title>
<polygon fill="white" stroke="#bfbfbf" points="44,-56.5 44,-75.5 91,-75.5 91,-56.5 44,-56.5"/>
<text text-anchor="middle" x="67.5" y="-63.5" font-family="Helvetica,sans-Serif" font-size="10.00">vector</text>
</g>
<!-- Node1&#45;&gt;Node10 -->
<g id="edge10" class="edge"><title>Node1&#45;&gt;Node10</title>
<path fill="none" stroke="midnightblue" d="M150.594,-112.324C134.862,-103.743 110.558,-90.486 92.2911,-80.5224"/>
<polygon fill="midnightblue" stroke="midnightblue" points="93.8216,-77.3704 83.3666,-75.6545 90.4696,-83.5157 93.8216,-77.3704"/>
</g>
<!-- Node11 -->
<g id="node12" class="node"><title>Node11</title>
<polygon fill="white" stroke="#bfbfbf" points="109,-56.5 109,-75.5 166,-75.5 166,-56.5 109,-56.5"/>
<text text-anchor="middle" x="137.5" y="-63.5" font-family="Helvetica,sans-Serif" font-size="10.00">ostream</text>
</g>
<!-- Node1&#45;&gt;Node11 -->
<g id="edge13" class="edge"><title>Node1&#45;&gt;Node11</title>
<path fill="none" stroke="midnightblue" d="M161.711,-112.083C157.742,-104.691 151.975,-93.9533 147.065,-84.8111"/>
<polygon fill="midnightblue" stroke="midnightblue" points="150.014,-82.9051 142.2,-75.7511 143.847,-86.217 150.014,-82.9051"/>
</g>
<!-- Node3 -->
<g id="node4" class="node"><title>Node3</title>
<g id="a_node4"><a xlink:href="types_8h.html" target="_top" xlink:title="types.h">
<polygon fill="white" stroke="black" points="373.5,-0.5 373.5,-19.5 425.5,-19.5 425.5,-0.5 373.5,-0.5"/>
<text text-anchor="middle" x="399.5" y="-7.5" font-family="Helvetica,sans-Serif" font-size="10.00">types.h</text>
</a>
</g>
</g>
<!-- Node2&#45;&gt;Node3 -->
<g id="edge3" class="edge"><title>Node2&#45;&gt;Node3</title>
<path fill="none" stroke="midnightblue" d="M287.574,-56.4435C309.56,-47.5171 344.234,-33.4387 369.164,-23.3168"/>
<polygon fill="midnightblue" stroke="midnightblue" points="370.576,-26.5213 378.524,-19.5164 367.942,-20.0355 370.576,-26.5213"/>
</g>
<!-- Node4 -->
<g id="node5" class="node"><title>Node4</title>
<polygon fill="white" stroke="#bfbfbf" points="159.5,-0.5 159.5,-19.5 221.5,-19.5 221.5,-0.5 159.5,-0.5"/>
<text text-anchor="middle" x="190.5" y="-7.5" font-family="Helvetica,sans-Serif" font-size="10.00">algorithm</text>
</g>
<!-- Node2&#45;&gt;Node4 -->
<g id="edge4" class="edge"><title>Node2&#45;&gt;Node4</title>
<path fill="none" stroke="midnightblue" d="M254.289,-56.324C242.724,-48.1066 225.125,-35.6017 211.339,-25.8069"/>
<polygon fill="midnightblue" stroke="midnightblue" points="213.112,-22.7729 202.933,-19.8339 209.057,-28.4791 213.112,-22.7729"/>
</g>
<!-- Node2&#45;&gt;Node5 -->
<g id="edge5" class="edge"><title>Node2&#45;&gt;Node5</title>
<path fill="none" stroke="midnightblue" d="M241.623,-56.4435C215.211,-47.3591 173.285,-32.9388 143.758,-22.7831"/>
<polygon fill="midnightblue" stroke="midnightblue" points="144.855,-19.4593 134.261,-19.5164 142.579,-26.0787 144.855,-19.4593"/>
</g>
<!-- Node6 -->
<g id="node7" class="node"><title>Node6</title>
<polygon fill="white" stroke="#bfbfbf" points="239.5,-0.5 239.5,-19.5 281.5,-19.5 281.5,-0.5 239.5,-0.5"/>
<text text-anchor="middle" x="260.5" y="-7.5" font-family="Helvetica,sans-Serif" font-size="10.00">limits</text>
</g>
<!-- Node2&#45;&gt;Node6 -->
<g id="edge6" class="edge"><title>Node2&#45;&gt;Node6</title>
<path fill="none" stroke="midnightblue" d="M265.509,-56.083C264.714,-48.9272 263.571,-38.6353 262.577,-29.6911"/>
<polygon fill="midnightblue" stroke="midnightblue" points="266.055,-29.3034 261.472,-19.7511 259.098,-30.0765 266.055,-29.3034"/>
</g>
<!-- Node2&#45;&gt;Node7 -->
<g id="edge7" class="edge"><title>Node2&#45;&gt;Node7</title>
<path fill="none" stroke="midnightblue" d="M228.471,-56.4435C183.101,-46.2352 107.784,-29.2889 63.0679,-19.2278"/>
<polygon fill="midnightblue" stroke="midnightblue" points="63.7285,-15.789 53.2041,-17.0084 62.1919,-22.6183 63.7285,-15.789"/>
</g>
<!-- Node8 -->
<g id="node9" class="node"><title>Node8</title>
<polygon fill="white" stroke="#bfbfbf" points="299.5,-0.5 299.5,-19.5 355.5,-19.5 355.5,-0.5 299.5,-0.5"/>
<text text-anchor="middle" x="327.5" y="-7.5" font-family="Helvetica,sans-Serif" font-size="10.00">sstream</text>
</g>
<!-- Node2&#45;&gt;Node8 -->
<g id="edge8" class="edge"><title>Node2&#45;&gt;Node8</title>
<path fill="none" stroke="midnightblue" d="M276.301,-56.324C285.318,-48.3414 298.906,-36.3128 309.818,-26.6529"/>
<polygon fill="midnightblue" stroke="midnightblue" points="312.353,-29.083 317.521,-19.8339 307.713,-23.8416 312.353,-29.083"/>
</g>
<!-- Node2&#45;&gt;Node9 -->
<g id="edge9" class="edge"><title>Node2&#45;&gt;Node9</title>
<path fill="none" stroke="midnightblue" d="M298.406,-56.4999C330.228,-48.0121 380.769,-34.5038 433.786,-20.1841"/>
<polygon fill="midnightblue" stroke="midnightblue" points="434.97,-23.4898 443.71,-17.5019 433.144,-16.7323 434.97,-23.4898"/>
</g>
</g>
</svg>
