<?xml version="1.0" encoding="UTF-8" standalone="no"?>
<!DOCTYPE svg PUBLIC "-//W3C//DTD SVG 1.1//EN"
 "http://www.w3.org/Graphics/SVG/1.1/DTD/svg11.dtd">
<!-- Generated by graphviz version 2.38.0 (20140413.2041)
 -->
<!-- Title: src/root&#45;addons/analysis_codes/BrowseHistograms.h Pages: 1 -->
<svg width="213pt" height="95pt"
 viewBox="0.00 0.00 212.50 95.00" xmlns="http://www.w3.org/2000/svg" xmlns:xlink="http://www.w3.org/1999/xlink">
<g id="graph0" class="graph" transform="scale(1 1) rotate(0) translate(4 91)">
<title>src/root&#45;addons/analysis_codes/BrowseHistograms.h</title>
<polygon fill="white" stroke="none" points="-4,4 -4,-91 208.5,-91 208.5,4 -4,4"/>
<!-- Node0 -->
<g id="node1" class="node"><title>Node0</title>
<polygon fill="#bfbfbf" stroke="black" points="9,-56.5 9,-86.5 161,-86.5 161,-56.5 9,-56.5"/>
<text text-anchor="start" x="17" y="-74.5" font-family="Helvetica,sans-Serif" font-size="10.00">src/root&#45;addons/analysis</text>
<text text-anchor="middle" x="85" y="-63.5" font-family="Helvetica,sans-Serif" font-size="10.00">_codes/BrowseHistograms.h</text>
</g>
<!-- Node1 -->
<g id="node2" class="node"><title>Node1</title>
<polygon fill="white" stroke="#bfbfbf" points="0,-0.5 0,-19.5 30,-19.5 30,-0.5 0,-0.5"/>
<text text-anchor="middle" x="15" y="-7.5" font-family="Helvetica,sans-Serif" font-size="10.00">list</text>
</g>
<!-- Node0&#45;&gt;Node1 -->
<g id="edge1" class="edge"><title>Node0&#45;&gt;Node1</title>
<path fill="none" stroke="midnightblue" d="M68.411,-56.3993C57.7148,-47.3076 43.8117,-35.4899 32.8717,-26.1909"/>
<polygon fill="midnightblue" stroke="midnightblue" points="35.0718,-23.4675 25.1856,-19.6578 30.5383,-28.8011 35.0718,-23.4675"/>
</g>
<!-- Node2 -->
<g id="node3" class="node"><title>Node2</title>
<polygon fill="white" stroke="#bfbfbf" points="48.5,-0.5 48.5,-19.5 121.5,-19.5 121.5,-0.5 48.5,-0.5"/>
<text text-anchor="middle" x="85" y="-7.5" font-family="Helvetica,sans-Serif" font-size="10.00">TDirectory.h</text>
</g>
<!-- Node0&#45;&gt;Node2 -->
<g id="edge2" class="edge"><title>Node0&#45;&gt;Node2</title>
<path fill="none" stroke="midnightblue" d="M85,-56.3993C85,-48.4664 85,-38.458 85,-29.8583"/>
<polygon fill="midnightblue" stroke="midnightblue" points="88.5001,-29.6577 85,-19.6578 81.5001,-29.6578 88.5001,-29.6577"/>
</g>
<!-- Node3 -->
<g id="node4" class="node"><title>Node3</title>
<polygon fill="white" stroke="#bfbfbf" points="139.5,-0.5 139.5,-19.5 204.5,-19.5 204.5,-0.5 139.5,-0.5"/>
<text text-anchor="middle" x="172" y="-7.5" font-family="Helvetica,sans-Serif" font-size="10.00">TCanvas.h</text>
</g>
<!-- Node0&#45;&gt;Node3 -->
<g id="edge3" class="edge"><title>Node0&#45;&gt;Node3</title>
<path fill="none" stroke="midnightblue" d="M105.618,-56.3993C119.303,-47.0402 137.211,-34.7924 150.978,-25.3771"/>
<polygon fill="midnightblue" stroke="midnightblue" points="153.062,-28.1919 159.341,-19.6578 149.111,-22.414 153.062,-28.1919"/>
</g>
</g>
</svg>
