<?xml version="1.0" encoding="UTF-8" standalone="no"?>
<!DOCTYPE svg PUBLIC "-//W3C//DTD SVG 1.1//EN"
 "http://www.w3.org/Graphics/SVG/1.1/DTD/svg11.dtd">
<!-- Generated by graphviz version 2.38.0 (20140413.2041)
 -->
<!-- Title: src/root&#45;addons/analysis_codes/BrowseHistograms.cc Pages: 1 -->
<svg width="389pt" height="151pt"
 viewBox="0.00 0.00 388.50 151.00" xmlns="http://www.w3.org/2000/svg" xmlns:xlink="http://www.w3.org/1999/xlink">
<g id="graph0" class="graph" transform="scale(1 1) rotate(0) translate(4 147)">
<title>src/root&#45;addons/analysis_codes/BrowseHistograms.cc</title>
<polygon fill="white" stroke="none" points="-4,4 -4,-147 384.5,-147 384.5,4 -4,4"/>
<!-- Node0 -->
<g id="node1" class="node"><title>Node0</title>
<polygon fill="#bfbfbf" stroke="black" points="138.5,-112.5 138.5,-142.5 295.5,-142.5 295.5,-112.5 138.5,-112.5"/>
<text text-anchor="start" x="146.5" y="-130.5" font-family="Helvetica,sans-Serif" font-size="10.00">src/root&#45;addons/analysis</text>
<text text-anchor="middle" x="217" y="-119.5" font-family="Helvetica,sans-Serif" font-size="10.00">_codes/BrowseHistograms.cc</text>
</g>
<!-- Node1 -->
<g id="node2" class="node"><title>Node1</title>
<g id="a_node2"><a xlink:href="_browse_histograms_8h.html" target="_top" xlink:title="BrowseHistograms.h">
<polygon fill="white" stroke="black" points="23,-56.5 23,-75.5 139,-75.5 139,-56.5 23,-56.5"/>
<text text-anchor="middle" x="81" y="-63.5" font-family="Helvetica,sans-Serif" font-size="10.00">BrowseHistograms.h</text>
</a>
</g>
</g>
<!-- Node0&#45;&gt;Node1 -->
<g id="edge1" class="edge"><title>Node0&#45;&gt;Node1</title>
<path fill="none" stroke="midnightblue" d="M184.77,-112.399C162.155,-102.505 132.162,-89.3832 110.239,-79.7919"/>
<polygon fill="midnightblue" stroke="midnightblue" points="111.354,-76.4595 100.789,-75.6578 108.548,-82.8726 111.354,-76.4595"/>
</g>
<!-- Node3 -->
<g id="node4" class="node"><title>Node3</title>
<polygon fill="white" stroke="#bfbfbf" points="131.5,-0.5 131.5,-19.5 204.5,-19.5 204.5,-0.5 131.5,-0.5"/>
<text text-anchor="middle" x="168" y="-7.5" font-family="Helvetica,sans-Serif" font-size="10.00">TDirectory.h</text>
</g>
<!-- Node0&#45;&gt;Node3 -->
<g id="edge7" class="edge"><title>Node0&#45;&gt;Node3</title>
<path fill="none" stroke="midnightblue" d="M206.63,-112.071C199.982,-102.28 191.581,-88.8294 186,-76 179.431,-60.9007 174.647,-42.7763 171.67,-29.5065"/>
<polygon fill="midnightblue" stroke="midnightblue" points="175.085,-28.7359 169.594,-19.6746 168.236,-30.182 175.085,-28.7359"/>
</g>
<!-- Node5 -->
<g id="node6" class="node"><title>Node5</title>
<polygon fill="white" stroke="#bfbfbf" points="195,-56.5 195,-75.5 239,-75.5 239,-56.5 195,-56.5"/>
<text text-anchor="middle" x="217" y="-63.5" font-family="Helvetica,sans-Serif" font-size="10.00">TH1.h</text>
</g>
<!-- Node0&#45;&gt;Node5 -->
<g id="edge5" class="edge"><title>Node0&#45;&gt;Node5</title>
<path fill="none" stroke="midnightblue" d="M217,-112.399C217,-104.466 217,-94.458 217,-85.8583"/>
<polygon fill="midnightblue" stroke="midnightblue" points="220.5,-85.6577 217,-75.6578 213.5,-85.6578 220.5,-85.6577"/>
</g>
<!-- Node6 -->
<g id="node7" class="node"><title>Node6</title>
<polygon fill="white" stroke="#bfbfbf" points="257,-56.5 257,-75.5 303,-75.5 303,-56.5 257,-56.5"/>
<text text-anchor="middle" x="280" y="-63.5" font-family="Helvetica,sans-Serif" font-size="10.00">TKey.h</text>
</g>
<!-- Node0&#45;&gt;Node6 -->
<g id="edge6" class="edge"><title>Node0&#45;&gt;Node6</title>
<path fill="none" stroke="midnightblue" d="M231.93,-112.399C241.368,-103.486 253.58,-91.9523 263.333,-82.7408"/>
<polygon fill="midnightblue" stroke="midnightblue" points="265.966,-85.0686 270.833,-75.6578 261.16,-79.9795 265.966,-85.0686"/>
</g>
<!-- Node7 -->
<g id="node8" class="node"><title>Node7</title>
<polygon fill="white" stroke="#bfbfbf" points="321.5,-56.5 321.5,-75.5 380.5,-75.5 380.5,-56.5 321.5,-56.5"/>
<text text-anchor="middle" x="351" y="-63.5" font-family="Helvetica,sans-Serif" font-size="10.00">iostream</text>
</g>
<!-- Node0&#45;&gt;Node7 -->
<g id="edge8" class="edge"><title>Node0&#45;&gt;Node7</title>
<path fill="none" stroke="midnightblue" d="M248.756,-112.399C271.038,-102.505 300.591,-89.3832 322.191,-79.7919"/>
<polygon fill="midnightblue" stroke="midnightblue" points="323.783,-82.9149 331.502,-75.6578 320.942,-76.5172 323.783,-82.9149"/>
</g>
<!-- Node2 -->
<g id="node3" class="node"><title>Node2</title>
<polygon fill="white" stroke="#bfbfbf" points="0,-0.5 0,-19.5 30,-19.5 30,-0.5 0,-0.5"/>
<text text-anchor="middle" x="15" y="-7.5" font-family="Helvetica,sans-Serif" font-size="10.00">list</text>
</g>
<!-- Node1&#45;&gt;Node2 -->
<g id="edge2" class="edge"><title>Node1&#45;&gt;Node2</title>
<path fill="none" stroke="midnightblue" d="M70.396,-56.324C60.5438,-48.2631 45.6491,-36.0765 33.7849,-26.3695"/>
<polygon fill="midnightblue" stroke="midnightblue" points="35.7529,-23.4575 25.797,-19.8339 31.3202,-28.8752 35.7529,-23.4575"/>
</g>
<!-- Node1&#45;&gt;Node3 -->
<g id="edge3" class="edge"><title>Node1&#45;&gt;Node3</title>
<path fill="none" stroke="midnightblue" d="M94.9781,-56.324C108.55,-47.9002 129.38,-34.9709 145.325,-25.0741"/>
<polygon fill="midnightblue" stroke="midnightblue" points="147.406,-27.9019 154.057,-19.6545 143.714,-21.9544 147.406,-27.9019"/>
</g>
<!-- Node4 -->
<g id="node5" class="node"><title>Node4</title>
<polygon fill="white" stroke="#bfbfbf" points="48.5,-0.5 48.5,-19.5 113.5,-19.5 113.5,-0.5 48.5,-0.5"/>
<text text-anchor="middle" x="81" y="-7.5" font-family="Helvetica,sans-Serif" font-size="10.00">TCanvas.h</text>
</g>
<!-- Node1&#45;&gt;Node4 -->
<g id="edge4" class="edge"><title>Node1&#45;&gt;Node4</title>
<path fill="none" stroke="midnightblue" d="M81,-56.083C81,-49.0059 81,-38.8611 81,-29.9865"/>
<polygon fill="midnightblue" stroke="midnightblue" points="84.5001,-29.751 81,-19.7511 77.5001,-29.7511 84.5001,-29.751"/>
</g>
</g>
</svg>
