<?xml version="1.0" encoding="UTF-8" standalone="no"?>
<!DOCTYPE svg PUBLIC "-//W3C//DTD SVG 1.1//EN"
 "http://www.w3.org/Graphics/SVG/1.1/DTD/svg11.dtd">
<!-- Generated by graphviz version 2.38.0 (20140413.2041)
 -->
<!-- Title: src/calibration/gui/CalCanvas.h Pages: 1 -->
<svg width="2017pt" height="106pt"
 viewBox="0.00 0.00 2016.50 106.00" xmlns="http://www.w3.org/2000/svg" xmlns:xlink="http://www.w3.org/1999/xlink">
<g id="graph0" class="graph" transform="scale(1 1) rotate(0) translate(4 102)">
<title>src/calibration/gui/CalCanvas.h</title>
<polygon fill="white" stroke="none" points="-4,4 -4,-102 2012.5,-102 2012.5,4 -4,4"/>
<!-- Node20 -->
<g id="node1" class="node"><title>Node20</title>
<polygon fill="#bfbfbf" stroke="black" points="891,-67.5 891,-97.5 992,-97.5 992,-67.5 891,-67.5"/>
<text text-anchor="start" x="899" y="-85.5" font-family="Helvetica,sans-Serif" font-size="10.00">src/calibration/gui</text>
<text text-anchor="middle" x="941.5" y="-74.5" font-family="Helvetica,sans-Serif" font-size="10.00">/CalCanvas.h</text>
</g>
<!-- Node21 -->
<g id="node2" class="node"><title>Node21</title>
<g id="a_node2"><a xlink:href="_cal_canvas_8cc.html" target="_top" xlink:title="src/calibration/gui\l/CalCanvas.cc">
<polygon fill="white" stroke="black" points="0,-0.5 0,-30.5 101,-30.5 101,-0.5 0,-0.5"/>
<text text-anchor="start" x="8" y="-18.5" font-family="Helvetica,sans-Serif" font-size="10.00">src/calibration/gui</text>
<text text-anchor="middle" x="50.5" y="-7.5" font-family="Helvetica,sans-Serif" font-size="10.00">/CalCanvas.cc</text>
</a>
</g>
</g>
<!-- Node20&#45;&gt;Node21 -->
<g id="edge1" class="edge"><title>Node20&#45;&gt;Node21</title>
<path fill="none" stroke="midnightblue" d="M880.636,-81.55C742.631,-80.848 395.691,-74.4891 109.5,-31 106.789,-30.588 104.02,-30.1101 101.232,-29.584"/>
<polygon fill="midnightblue" stroke="midnightblue" points="880.978,-85.0514 890.992,-81.5939 881.007,-78.0514 880.978,-85.0514"/>
</g>
<!-- Node22 -->
<g id="node3" class="node"><title>Node22</title>
<g id="a_node3"><a xlink:href="_manager_8cc.html" target="_top" xlink:title="src/calibration/gui\l/Manager.cc">
<polygon fill="white" stroke="black" points="119,-0.5 119,-30.5 220,-30.5 220,-0.5 119,-0.5"/>
<text text-anchor="start" x="127" y="-18.5" font-family="Helvetica,sans-Serif" font-size="10.00">src/calibration/gui</text>
<text text-anchor="middle" x="169.5" y="-7.5" font-family="Helvetica,sans-Serif" font-size="10.00">/Manager.cc</text>
</a>
</g>
</g>
<!-- Node20&#45;&gt;Node22 -->
<g id="edge2" class="edge"><title>Node20&#45;&gt;Node22</title>
<path fill="none" stroke="midnightblue" d="M880.657,-80.5873C757.182,-77.9879 468.608,-68.1078 229.5,-31 226.429,-30.5234 223.284,-29.9687 220.121,-29.3597"/>
<polygon fill="midnightblue" stroke="midnightblue" points="880.606,-84.0869 890.674,-80.7897 880.747,-77.0883 880.606,-84.0869"/>
</g>
<!-- Node23 -->
<g id="node4" class="node"><title>Node23</title>
<g id="a_node4"><a xlink:href="_manager_window_8cc.html" target="_top" xlink:title="src/calibration/gui\l/ManagerWindow.cc">
<polygon fill="white" stroke="black" points="238.5,-0.5 238.5,-30.5 348.5,-30.5 348.5,-0.5 238.5,-0.5"/>
<text text-anchor="start" x="246.5" y="-18.5" font-family="Helvetica,sans-Serif" font-size="10.00">src/calibration/gui</text>
<text text-anchor="middle" x="293.5" y="-7.5" font-family="Helvetica,sans-Serif" font-size="10.00">/ManagerWindow.cc</text>
</a>
</g>
</g>
<!-- Node20&#45;&gt;Node23 -->
<g id="edge3" class="edge"><title>Node20&#45;&gt;Node23</title>
<path fill="none" stroke="midnightblue" d="M880.596,-78.9748C774.025,-73.9466 547.019,-60.5217 357.5,-31 354.573,-30.5441 351.581,-30.0312 348.566,-29.4777"/>
<polygon fill="midnightblue" stroke="midnightblue" points="880.684,-82.4826 890.836,-79.4495 881.008,-75.4901 880.684,-82.4826"/>
</g>
<!-- Node24 -->
<g id="node5" class="node"><title>Node24</title>
<g id="a_node5"><a xlink:href="calibration_2modules_2_c_b___energy_8cc.html" target="_top" xlink:title="src/calibration/modules\l/CB_Energy.cc">
<polygon fill="white" stroke="black" points="366.5,-0.5 366.5,-30.5 494.5,-30.5 494.5,-0.5 366.5,-0.5"/>
<text text-anchor="start" x="374.5" y="-18.5" font-family="Helvetica,sans-Serif" font-size="10.00">src/calibration/modules</text>
<text text-anchor="middle" x="430.5" y="-7.5" font-family="Helvetica,sans-Serif" font-size="10.00">/CB_Energy.cc</text>
</a>
</g>
</g>
<!-- Node20&#45;&gt;Node24 -->
<g id="edge4" class="edge"><title>Node20&#45;&gt;Node24</title>
<path fill="none" stroke="midnightblue" d="M880.772,-76.0723C796.018,-68.1396 637.574,-52.0091 503.5,-31 500.564,-30.5399 497.566,-30.0455 494.542,-29.5266"/>
<polygon fill="midnightblue" stroke="midnightblue" points="880.455,-79.5578 890.736,-76.9989 881.103,-72.5879 880.455,-79.5578"/>
</g>
<!-- Node25 -->
<g id="node6" class="node"><title>Node25</title>
<g id="a_node6"><a xlink:href="calibration_2modules_2_c_b___source_calib_8cc.html" target="_top" xlink:title="src/calibration/modules\l/CB_SourceCalib.cc">
<polygon fill="white" stroke="black" points="512.5,-0.5 512.5,-30.5 640.5,-30.5 640.5,-0.5 512.5,-0.5"/>
<text text-anchor="start" x="520.5" y="-18.5" font-family="Helvetica,sans-Serif" font-size="10.00">src/calibration/modules</text>
<text text-anchor="middle" x="576.5" y="-7.5" font-family="Helvetica,sans-Serif" font-size="10.00">/CB_SourceCalib.cc</text>
</a>
</g>
</g>
<!-- Node20&#45;&gt;Node25 -->
<g id="edge5" class="edge"><title>Node20&#45;&gt;Node25</title>
<path fill="none" stroke="midnightblue" d="M880.874,-71.4661C821.761,-61.5762 729.352,-45.8331 649.5,-31 646.578,-30.4572 643.592,-29.895 640.577,-29.321"/>
<polygon fill="midnightblue" stroke="midnightblue" points="880.351,-74.927 890.791,-73.1225 881.504,-68.0227 880.351,-74.927"/>
</g>
<!-- Node26 -->
<g id="node7" class="node"><title>Node26</title>
<g id="a_node7"><a xlink:href="calibration_2modules_2_c_b___time_walk_8cc.html" target="_top" xlink:title="src/calibration/modules\l/CB_TimeWalk.cc">
<polygon fill="white" stroke="black" points="658.5,-0.5 658.5,-30.5 786.5,-30.5 786.5,-0.5 658.5,-0.5"/>
<text text-anchor="start" x="666.5" y="-18.5" font-family="Helvetica,sans-Serif" font-size="10.00">src/calibration/modules</text>
<text text-anchor="middle" x="722.5" y="-7.5" font-family="Helvetica,sans-Serif" font-size="10.00">/CB_TimeWalk.cc</text>
</a>
</g>
</g>
<!-- Node20&#45;&gt;Node26 -->
<g id="edge6" class="edge"><title>Node20&#45;&gt;Node26</title>
<path fill="none" stroke="midnightblue" d="M884.492,-64.5797C848.922,-54.0225 803.672,-40.5921 770.043,-30.6109"/>
<polygon fill="midnightblue" stroke="midnightblue" points="883.667,-67.9859 894.25,-67.476 885.659,-61.2752 883.667,-67.9859"/>
</g>
<!-- Node27 -->
<g id="node8" class="node"><title>Node27</title>
<g id="a_node8"><a xlink:href="_energy___g_u_i_8cc.html" target="_top" xlink:title="src/calibration/modules\l/Energy_GUI.cc">
<polygon fill="white" stroke="black" points="804.5,-0.5 804.5,-30.5 932.5,-30.5 932.5,-0.5 804.5,-0.5"/>
<text text-anchor="start" x="812.5" y="-18.5" font-family="Helvetica,sans-Serif" font-size="10.00">src/calibration/modules</text>
<text text-anchor="middle" x="868.5" y="-7.5" font-family="Helvetica,sans-Serif" font-size="10.00">/Energy_GUI.cc</text>
</a>
</g>
</g>
<!-- Node20&#45;&gt;Node27 -->
<g id="edge7" class="edge"><title>Node20&#45;&gt;Node27</title>
<path fill="none" stroke="midnightblue" d="M918.025,-60.5978C907.003,-50.7831 894.156,-39.3442 884.309,-30.5765"/>
<polygon fill="midnightblue" stroke="midnightblue" points="915.864,-63.3599 925.66,-67.396 920.519,-58.132 915.864,-63.3599"/>
</g>
<!-- Node28 -->
<g id="node9" class="node"><title>Node28</title>
<g id="a_node9"><a xlink:href="calibration_2modules_2_p_i_d___energy_8cc.html" target="_top" xlink:title="src/calibration/modules\l/PID_Energy.cc">
<polygon fill="white" stroke="black" points="950.5,-0.5 950.5,-30.5 1078.5,-30.5 1078.5,-0.5 950.5,-0.5"/>
<text text-anchor="start" x="958.5" y="-18.5" font-family="Helvetica,sans-Serif" font-size="10.00">src/calibration/modules</text>
<text text-anchor="middle" x="1014.5" y="-7.5" font-family="Helvetica,sans-Serif" font-size="10.00">/PID_Energy.cc</text>
</a>
</g>
</g>
<!-- Node20&#45;&gt;Node28 -->
<g id="edge8" class="edge"><title>Node20&#45;&gt;Node28</title>
<path fill="none" stroke="midnightblue" d="M964.975,-60.5978C975.997,-50.7831 988.844,-39.3442 998.691,-30.5765"/>
<polygon fill="midnightblue" stroke="midnightblue" points="962.481,-58.132 957.34,-67.396 967.136,-63.3599 962.481,-58.132"/>
</g>
<!-- Node29 -->
<g id="node10" class="node"><title>Node29</title>
<g id="a_node10"><a xlink:href="calibration_2modules_2_p_i_d___phi_angle_8cc.html" target="_top" xlink:title="src/calibration/modules\l/PID_PhiAngle.cc">
<polygon fill="white" stroke="black" points="1096.5,-0.5 1096.5,-30.5 1224.5,-30.5 1224.5,-0.5 1096.5,-0.5"/>
<text text-anchor="start" x="1104.5" y="-18.5" font-family="Helvetica,sans-Serif" font-size="10.00">src/calibration/modules</text>
<text text-anchor="middle" x="1160.5" y="-7.5" font-family="Helvetica,sans-Serif" font-size="10.00">/PID_PhiAngle.cc</text>
</a>
</g>
</g>
<!-- Node20&#45;&gt;Node29 -->
<g id="edge9" class="edge"><title>Node20&#45;&gt;Node29</title>
<path fill="none" stroke="midnightblue" d="M998.508,-64.5797C1034.08,-54.0225 1079.33,-40.5921 1112.96,-30.6109"/>
<polygon fill="midnightblue" stroke="midnightblue" points="997.341,-61.2752 988.75,-67.476 999.333,-67.9859 997.341,-61.2752"/>
</g>
<!-- Node30 -->
<g id="node11" class="node"><title>Node30</title>
<g id="a_node11"><a xlink:href="calibration_2modules_2_t_a_p_s___energy_8cc.html" target="_top" xlink:title="src/calibration/modules\l/TAPS_Energy.cc">
<polygon fill="white" stroke="black" points="1242.5,-0.5 1242.5,-30.5 1370.5,-30.5 1370.5,-0.5 1242.5,-0.5"/>
<text text-anchor="start" x="1250.5" y="-18.5" font-family="Helvetica,sans-Serif" font-size="10.00">src/calibration/modules</text>
<text text-anchor="middle" x="1306.5" y="-7.5" font-family="Helvetica,sans-Serif" font-size="10.00">/TAPS_Energy.cc</text>
</a>
</g>
</g>
<!-- Node20&#45;&gt;Node30 -->
<g id="edge10" class="edge"><title>Node20&#45;&gt;Node30</title>
<path fill="none" stroke="midnightblue" d="M1002.13,-71.4661C1061.24,-61.5762 1153.65,-45.8331 1233.5,-31 1236.42,-30.4572 1239.41,-29.895 1242.42,-29.321"/>
<polygon fill="midnightblue" stroke="midnightblue" points="1001.5,-68.0227 992.209,-73.1225 1002.65,-74.927 1001.5,-68.0227"/>
</g>
<!-- Node31 -->
<g id="node12" class="node"><title>Node31</title>
<g id="a_node12"><a xlink:href="calibration_2modules_2_t_a_p_s___short_energy_8cc.html" target="_top" xlink:title="src/calibration/modules\l/TAPS_ShortEnergy.cc">
<polygon fill="white" stroke="black" points="1388.5,-0.5 1388.5,-30.5 1516.5,-30.5 1516.5,-0.5 1388.5,-0.5"/>
<text text-anchor="start" x="1396.5" y="-18.5" font-family="Helvetica,sans-Serif" font-size="10.00">src/calibration/modules</text>
<text text-anchor="middle" x="1452.5" y="-7.5" font-family="Helvetica,sans-Serif" font-size="10.00">/TAPS_ShortEnergy.cc</text>
</a>
</g>
</g>
<!-- Node20&#45;&gt;Node31 -->
<g id="edge11" class="edge"><title>Node20&#45;&gt;Node31</title>
<path fill="none" stroke="midnightblue" d="M1002.23,-76.0723C1086.98,-68.1396 1245.43,-52.0091 1379.5,-31 1382.44,-30.5399 1385.43,-30.0455 1388.46,-29.5266"/>
<polygon fill="midnightblue" stroke="midnightblue" points="1001.9,-72.5879 992.264,-76.9989 1002.55,-79.5578 1001.9,-72.5879"/>
</g>
<!-- Node32 -->
<g id="node13" class="node"><title>Node32</title>
<g id="a_node13"><a xlink:href="_t_a_p_s___to_f_8cc.html" target="_top" xlink:title="src/calibration/modules\l/TAPS_ToF.cc">
<polygon fill="white" stroke="black" points="1534.5,-0.5 1534.5,-30.5 1662.5,-30.5 1662.5,-0.5 1534.5,-0.5"/>
<text text-anchor="start" x="1542.5" y="-18.5" font-family="Helvetica,sans-Serif" font-size="10.00">src/calibration/modules</text>
<text text-anchor="middle" x="1598.5" y="-7.5" font-family="Helvetica,sans-Serif" font-size="10.00">/TAPS_ToF.cc</text>
</a>
</g>
</g>
<!-- Node20&#45;&gt;Node32 -->
<g id="edge12" class="edge"><title>Node20&#45;&gt;Node32</title>
<path fill="none" stroke="midnightblue" d="M1002.33,-78.4457C1108.78,-72.6093 1335.6,-57.9868 1525.5,-31 1528.44,-30.5819 1531.45,-30.1218 1534.47,-29.6308"/>
<polygon fill="midnightblue" stroke="midnightblue" points="1001.89,-74.9639 992.097,-78.9997 1002.27,-81.9536 1001.89,-74.9639"/>
</g>
<!-- Node33 -->
<g id="node14" class="node"><title>Node33</title>
<g id="a_node14"><a xlink:href="calibration_2modules_2_time_8cc.html" target="_top" xlink:title="src/calibration/modules\l/Time.cc">
<polygon fill="white" stroke="black" points="1680.5,-0.5 1680.5,-30.5 1808.5,-30.5 1808.5,-0.5 1680.5,-0.5"/>
<text text-anchor="start" x="1688.5" y="-18.5" font-family="Helvetica,sans-Serif" font-size="10.00">src/calibration/modules</text>
<text text-anchor="middle" x="1744.5" y="-7.5" font-family="Helvetica,sans-Serif" font-size="10.00">/Time.cc</text>
</a>
</g>
</g>
<!-- Node20&#45;&gt;Node33 -->
<g id="edge13" class="edge"><title>Node20&#45;&gt;Node33</title>
<path fill="none" stroke="midnightblue" d="M1002.35,-79.9016C1127.92,-76.0292 1424.7,-63.912 1671.5,-31 1674.45,-30.6072 1677.45,-30.1679 1680.48,-29.6936"/>
<polygon fill="midnightblue" stroke="midnightblue" points="1002.06,-76.4087 992.169,-80.2089 1002.27,-83.4055 1002.06,-76.4087"/>
</g>
<!-- Node34 -->
<g id="node15" class="node"><title>Node34</title>
<g id="a_node15"><a xlink:href="_test_g_u_i_manager_8cc.html" target="_top" xlink:title="test/calibration/TestGUIManager.cc">
<polygon fill="white" stroke="black" points="1826.5,-6 1826.5,-25 2008.5,-25 2008.5,-6 1826.5,-6"/>
<text text-anchor="middle" x="1917.5" y="-13" font-family="Helvetica,sans-Serif" font-size="10.00">test/calibration/TestGUIManager.cc</text>
</a>
</g>
</g>
<!-- Node20&#45;&gt;Node34 -->
<g id="edge14" class="edge"><title>Node20&#45;&gt;Node34</title>
<path fill="none" stroke="midnightblue" d="M1002.79,-79.789C1145.79,-75.3991 1512.53,-61.8422 1817.5,-31 1832.86,-29.4467 1849.48,-27.2479 1864.67,-25.0309"/>
<polygon fill="midnightblue" stroke="midnightblue" points="1002.36,-76.3001 992.474,-80.1015 1002.58,-83.2969 1002.36,-76.3001"/>
</g>
</g>
</svg>
