<?xml version="1.0" encoding="UTF-8" standalone="no"?>
<!DOCTYPE svg PUBLIC "-//W3C//DTD SVG 1.1//EN"
 "http://www.w3.org/Graphics/SVG/1.1/DTD/svg11.dtd">
<!-- Generated by graphviz version 2.38.0 (20140413.2041)
 -->
<!-- Title: src/base/ClippedInterpolatorWrapper.cc Pages: 1 -->
<svg width="583pt" height="263pt"
 viewBox="0.00 0.00 582.50 263.00" xmlns="http://www.w3.org/2000/svg" xmlns:xlink="http://www.w3.org/1999/xlink">
<g id="graph0" class="graph" transform="scale(1 1) rotate(0) translate(4 259)">
<title>src/base/ClippedInterpolatorWrapper.cc</title>
<polygon fill="white" stroke="none" points="-4,4 -4,-259 578.5,-259 578.5,4 -4,4"/>
<!-- Node0 -->
<g id="node1" class="node"><title>Node0</title>
<polygon fill="#bfbfbf" stroke="black" points="233,-224.5 233,-254.5 384,-254.5 384,-224.5 233,-224.5"/>
<text text-anchor="start" x="241" y="-242.5" font-family="Helvetica,sans-Serif" font-size="10.00">src/base/ClippedInterpolator</text>
<text text-anchor="middle" x="308.5" y="-231.5" font-family="Helvetica,sans-Serif" font-size="10.00">Wrapper.cc</text>
</g>
<!-- Node1 -->
<g id="node2" class="node"><title>Node1</title>
<g id="a_node2"><a xlink:href="_clipped_interpolator_wrapper_8h.html" target="_top" xlink:title="ClippedInterpolatorWrapper.h">
<polygon fill="white" stroke="black" points="0,-168.5 0,-187.5 155,-187.5 155,-168.5 0,-168.5"/>
<text text-anchor="middle" x="77.5" y="-175.5" font-family="Helvetica,sans-Serif" font-size="10.00">ClippedInterpolatorWrapper.h</text>
</a>
</g>
</g>
<!-- Node0&#45;&gt;Node1 -->
<g id="edge1" class="edge"><title>Node0&#45;&gt;Node1</title>
<path fill="none" stroke="midnightblue" d="M254.049,-224.475C213.326,-213.986 158.396,-199.837 120.68,-190.122"/>
<polygon fill="midnightblue" stroke="midnightblue" points="121.082,-186.611 110.525,-187.506 119.336,-193.39 121.082,-186.611"/>
</g>
<!-- Node15 -->
<g id="node16" class="node"><title>Node15</title>
<polygon fill="white" stroke="#bfbfbf" points="173.5,-168.5 173.5,-187.5 225.5,-187.5 225.5,-168.5 173.5,-168.5"/>
<text text-anchor="middle" x="199.5" y="-175.5" font-family="Helvetica,sans-Serif" font-size="10.00">TH2D.h</text>
</g>
<!-- Node0&#45;&gt;Node15 -->
<g id="edge18" class="edge"><title>Node0&#45;&gt;Node15</title>
<path fill="none" stroke="midnightblue" d="M282.669,-224.399C265.033,-214.773 241.8,-202.09 224.372,-192.577"/>
<polygon fill="midnightblue" stroke="midnightblue" points="225.815,-189.377 215.36,-187.658 222.461,-195.521 225.815,-189.377"/>
</g>
<!-- Node16 -->
<g id="node17" class="node"><title>Node16</title>
<g id="a_node17"><a xlink:href="_array2_d_8h.html" target="_top" xlink:title="base/Array2D.h">
<polygon fill="white" stroke="black" points="349,-112.5 349,-131.5 440,-131.5 440,-112.5 349,-112.5"/>
<text text-anchor="middle" x="394.5" y="-119.5" font-family="Helvetica,sans-Serif" font-size="10.00">base/Array2D.h</text>
</a>
</g>
</g>
<!-- Node0&#45;&gt;Node16 -->
<g id="edge19" class="edge"><title>Node0&#45;&gt;Node16</title>
<path fill="none" stroke="midnightblue" d="M339.076,-224.39C354.11,-215.916 371.173,-203.711 381.5,-188 390.488,-174.326 393.502,-155.79 394.406,-142.011"/>
<polygon fill="midnightblue" stroke="midnightblue" points="397.912,-141.879 394.753,-131.766 390.916,-141.642 397.912,-141.879"/>
</g>
<!-- Node17 -->
<g id="node18" class="node"><title>Node17</title>
<g id="a_node18"><a xlink:href="base_2std__ext_2math_8h.html" target="_top" xlink:title="base/std_ext/math.h">
<polygon fill="white" stroke="black" points="458.5,-112.5 458.5,-131.5 574.5,-131.5 574.5,-112.5 458.5,-112.5"/>
<text text-anchor="middle" x="516.5" y="-119.5" font-family="Helvetica,sans-Serif" font-size="10.00">base/std_ext/math.h</text>
</a>
</g>
</g>
<!-- Node0&#45;&gt;Node17 -->
<g id="edge22" class="edge"><title>Node0&#45;&gt;Node17</title>
<path fill="none" stroke="midnightblue" d="M334.31,-224.411C352.769,-214.315 378.193,-200.372 400.5,-188 432.261,-170.385 468.794,-149.872 492.239,-136.676"/>
<polygon fill="midnightblue" stroke="midnightblue" points="494.142,-139.621 501.137,-131.665 490.707,-133.522 494.142,-139.621"/>
</g>
<!-- Node18 -->
<g id="node19" class="node"><title>Node18</title>
<g id="a_node19"><a xlink:href="memory_8h.html" target="_top" xlink:title="base/std_ext/memory.h">
<polygon fill="white" stroke="black" points="244,-168.5 244,-187.5 373,-187.5 373,-168.5 244,-168.5"/>
<text text-anchor="middle" x="308.5" y="-175.5" font-family="Helvetica,sans-Serif" font-size="10.00">base/std_ext/memory.h</text>
</a>
</g>
</g>
<!-- Node0&#45;&gt;Node18 -->
<g id="edge26" class="edge"><title>Node0&#45;&gt;Node18</title>
<path fill="none" stroke="midnightblue" d="M308.5,-224.399C308.5,-216.466 308.5,-206.458 308.5,-197.858"/>
<polygon fill="midnightblue" stroke="midnightblue" points="312,-197.658 308.5,-187.658 305,-197.658 312,-197.658"/>
</g>
<!-- Node2 -->
<g id="node3" class="node"><title>Node2</title>
<polygon fill="white" stroke="#bfbfbf" points="371,-56.5 371,-75.5 418,-75.5 418,-56.5 371,-56.5"/>
<text text-anchor="middle" x="394.5" y="-63.5" font-family="Helvetica,sans-Serif" font-size="10.00">vector</text>
</g>
<!-- Node1&#45;&gt;Node2 -->
<g id="edge2" class="edge"><title>Node1&#45;&gt;Node2</title>
<path fill="none" stroke="midnightblue" d="M121.847,-168.45C157.735,-160.857 209.24,-148.42 252.5,-132 270.712,-125.087 273.9,-120.348 291.5,-112 315.853,-100.449 343.912,-88.2627 364.588,-79.4891"/>
<polygon fill="midnightblue" stroke="midnightblue" points="365.961,-82.7085 373.811,-75.5936 363.237,-76.26 365.961,-82.7085"/>
</g>
<!-- Node3 -->
<g id="node4" class="node"><title>Node3</title>
<polygon fill="white" stroke="#bfbfbf" points="47,-56.5 47,-75.5 104,-75.5 104,-56.5 47,-56.5"/>
<text text-anchor="middle" x="75.5" y="-63.5" font-family="Helvetica,sans-Serif" font-size="10.00">memory</text>
</g>
<!-- Node1&#45;&gt;Node3 -->
<g id="edge3" class="edge"><title>Node1&#45;&gt;Node3</title>
<path fill="none" stroke="midnightblue" d="M56.0174,-168.36C41.1084,-161.09 22.3893,-149.117 13.5,-132 2.66853,-111.143 26.0743,-92.3174 47.1619,-80.3589"/>
<polygon fill="midnightblue" stroke="midnightblue" points="49.0722,-83.307 56.2529,-75.5168 45.7814,-77.1287 49.0722,-83.307"/>
</g>
<!-- Node4 -->
<g id="node5" class="node"><title>Node4</title>
<g id="a_node5"><a xlink:href="_interpolator_8h.html" target="_top" xlink:title="base/Interpolator.h">
<polygon fill="white" stroke="black" points="137,-112.5 137,-131.5 244,-131.5 244,-112.5 137,-112.5"/>
<text text-anchor="middle" x="190.5" y="-119.5" font-family="Helvetica,sans-Serif" font-size="10.00">base/Interpolator.h</text>
</a>
</g>
</g>
<!-- Node1&#45;&gt;Node4 -->
<g id="edge4" class="edge"><title>Node1&#45;&gt;Node4</title>
<path fill="none" stroke="midnightblue" d="M95.4052,-168.444C113.754,-159.675 142.505,-145.935 163.594,-135.858"/>
<polygon fill="midnightblue" stroke="midnightblue" points="165.165,-138.986 172.679,-131.516 162.147,-132.67 165.165,-138.986"/>
</g>
<!-- Node14 -->
<g id="node15" class="node"><title>Node14</title>
<polygon fill="white" stroke="#bfbfbf" points="23,-112.5 23,-131.5 80,-131.5 80,-112.5 23,-112.5"/>
<text text-anchor="middle" x="51.5" y="-119.5" font-family="Helvetica,sans-Serif" font-size="10.00">ostream</text>
</g>
<!-- Node1&#45;&gt;Node14 -->
<g id="edge17" class="edge"><title>Node1&#45;&gt;Node14</title>
<path fill="none" stroke="midnightblue" d="M73.2066,-168.083C69.6477,-160.691 64.4775,-149.953 60.0757,-140.811"/>
<polygon fill="midnightblue" stroke="midnightblue" points="63.2052,-139.243 55.7135,-131.751 56.8982,-142.279 63.2052,-139.243"/>
</g>
<!-- Node4&#45;&gt;Node2 -->
<g id="edge5" class="edge"><title>Node4&#45;&gt;Node2</title>
<path fill="none" stroke="midnightblue" d="M223.305,-112.46C255.795,-103.981 307.22,-90.5069 361.004,-76.1156"/>
<polygon fill="midnightblue" stroke="midnightblue" points="361.96,-79.483 370.714,-73.5144 360.149,-72.7214 361.96,-79.483"/>
</g>
<!-- Node4&#45;&gt;Node3 -->
<g id="edge7" class="edge"><title>Node4&#45;&gt;Node3</title>
<path fill="none" stroke="midnightblue" d="M172.278,-112.444C153.604,-103.675 124.344,-89.9355 102.883,-79.8579"/>
<polygon fill="midnightblue" stroke="midnightblue" points="104.176,-76.5988 93.6368,-75.5164 101.201,-82.935 104.176,-76.5988"/>
</g>
<!-- Node5 -->
<g id="node6" class="node"><title>Node5</title>
<polygon fill="white" stroke="#bfbfbf" points="82.5,-0.5 82.5,-19.5 146.5,-19.5 146.5,-0.5 82.5,-0.5"/>
<text text-anchor="middle" x="114.5" y="-7.5" font-family="Helvetica,sans-Serif" font-size="10.00">stdexcept</text>
</g>
<!-- Node4&#45;&gt;Node5 -->
<g id="edge6" class="edge"><title>Node4&#45;&gt;Node5</title>
<path fill="none" stroke="midnightblue" d="M193.697,-112.302C197.957,-99.1296 203.832,-73.7756 193.5,-56 184.764,-40.9696 168.922,-30.5428 153.705,-23.5405"/>
<polygon fill="midnightblue" stroke="midnightblue" points="154.955,-20.2692 144.381,-19.6125 152.238,-26.7202 154.955,-20.2692"/>
</g>
<!-- Node6 -->
<g id="node7" class="node"><title>Node6</title>
<polygon fill="white" stroke="#bfbfbf" points="122,-56.5 122,-75.5 185,-75.5 185,-56.5 122,-56.5"/>
<text text-anchor="middle" x="153.5" y="-63.5" font-family="Helvetica,sans-Serif" font-size="10.00">functional</text>
</g>
<!-- Node4&#45;&gt;Node6 -->
<g id="edge8" class="edge"><title>Node4&#45;&gt;Node6</title>
<path fill="none" stroke="midnightblue" d="M184.39,-112.083C179.218,-104.534 171.654,-93.4948 165.306,-84.2298"/>
<polygon fill="midnightblue" stroke="midnightblue" points="168.036,-82.0221 159.496,-75.7511 162.261,-85.9787 168.036,-82.0221"/>
</g>
<!-- Node7 -->
<g id="node8" class="node"><title>Node7</title>
<g id="a_node8"><a xlink:href="interval_8h.html" target="_top" xlink:title="base/interval.h">
<polygon fill="white" stroke="black" points="266,-56.5 266,-75.5 353,-75.5 353,-56.5 266,-56.5"/>
<text text-anchor="middle" x="309.5" y="-63.5" font-family="Helvetica,sans-Serif" font-size="10.00">base/interval.h</text>
</a>
</g>
</g>
<!-- Node4&#45;&gt;Node7 -->
<g id="edge9" class="edge"><title>Node4&#45;&gt;Node7</title>
<path fill="none" stroke="midnightblue" d="M209.356,-112.444C228.766,-103.636 259.23,-89.8116 281.465,-79.722"/>
<polygon fill="midnightblue" stroke="midnightblue" points="283.072,-82.836 290.732,-75.5164 280.18,-76.4615 283.072,-82.836"/>
</g>
<!-- Node7&#45;&gt;Node5 -->
<g id="edge12" class="edge"><title>Node7&#45;&gt;Node5</title>
<path fill="none" stroke="midnightblue" d="M278.602,-56.4435C245.226,-47.2011 191.906,-32.4356 155.151,-22.2572"/>
<polygon fill="midnightblue" stroke="midnightblue" points="155.825,-18.8122 145.254,-19.5164 153.957,-25.5583 155.825,-18.8122"/>
</g>
<!-- Node8 -->
<g id="node9" class="node"><title>Node8</title>
<g id="a_node9"><a xlink:href="types_8h.html" target="_top" xlink:title="types.h">
<polygon fill="white" stroke="black" points="390.5,-0.5 390.5,-19.5 442.5,-19.5 442.5,-0.5 390.5,-0.5"/>
<text text-anchor="middle" x="416.5" y="-7.5" font-family="Helvetica,sans-Serif" font-size="10.00">types.h</text>
</a>
</g>
</g>
<!-- Node7&#45;&gt;Node8 -->
<g id="edge10" class="edge"><title>Node7&#45;&gt;Node8</title>
<path fill="none" stroke="midnightblue" d="M326.691,-56.324C343.851,-47.6641 370.446,-34.2424 390.247,-24.249"/>
<polygon fill="midnightblue" stroke="midnightblue" points="392.001,-27.2847 399.351,-19.6545 388.847,-21.0354 392.001,-27.2847"/>
</g>
<!-- Node9 -->
<g id="node10" class="node"><title>Node9</title>
<polygon fill="white" stroke="#bfbfbf" points="164.5,-0.5 164.5,-19.5 226.5,-19.5 226.5,-0.5 164.5,-0.5"/>
<text text-anchor="middle" x="195.5" y="-7.5" font-family="Helvetica,sans-Serif" font-size="10.00">algorithm</text>
</g>
<!-- Node7&#45;&gt;Node9 -->
<g id="edge11" class="edge"><title>Node7&#45;&gt;Node9</title>
<path fill="none" stroke="midnightblue" d="M291.436,-56.4435C272.925,-47.6751 243.919,-33.9355 222.645,-23.8579"/>
<polygon fill="midnightblue" stroke="midnightblue" points="224.015,-20.6343 213.479,-19.5164 221.018,-26.9604 224.015,-20.6343"/>
</g>
<!-- Node10 -->
<g id="node11" class="node"><title>Node10</title>
<polygon fill="white" stroke="#bfbfbf" points="526.5,-0.5 526.5,-19.5 568.5,-19.5 568.5,-0.5 526.5,-0.5"/>
<text text-anchor="middle" x="547.5" y="-7.5" font-family="Helvetica,sans-Serif" font-size="10.00">limits</text>
</g>
<!-- Node7&#45;&gt;Node10 -->
<g id="edge13" class="edge"><title>Node7&#45;&gt;Node10</title>
<path fill="none" stroke="midnightblue" d="M353.157,-56.5912C393.261,-48.6354 454.534,-35.9003 516.333,-20.1518"/>
<polygon fill="midnightblue" stroke="midnightblue" points="517.441,-23.4808 526.252,-17.5987 515.696,-16.7018 517.441,-23.4808"/>
</g>
<!-- Node11 -->
<g id="node12" class="node"><title>Node11</title>
<polygon fill="white" stroke="#bfbfbf" points="245,-0.5 245,-19.5 298,-19.5 298,-0.5 245,-0.5"/>
<text text-anchor="middle" x="271.5" y="-7.5" font-family="Helvetica,sans-Serif" font-size="10.00">istream</text>
</g>
<!-- Node7&#45;&gt;Node11 -->
<g id="edge14" class="edge"><title>Node7&#45;&gt;Node11</title>
<path fill="none" stroke="midnightblue" d="M303.225,-56.083C297.858,-48.4554 289.982,-37.2645 283.421,-27.9408"/>
<polygon fill="midnightblue" stroke="midnightblue" points="286.275,-25.9149 277.658,-19.7511 280.551,-29.9434 286.275,-25.9149"/>
</g>
<!-- Node12 -->
<g id="node13" class="node"><title>Node12</title>
<polygon fill="white" stroke="#bfbfbf" points="316.5,-0.5 316.5,-19.5 372.5,-19.5 372.5,-0.5 316.5,-0.5"/>
<text text-anchor="middle" x="344.5" y="-7.5" font-family="Helvetica,sans-Serif" font-size="10.00">sstream</text>
</g>
<!-- Node7&#45;&gt;Node12 -->
<g id="edge15" class="edge"><title>Node7&#45;&gt;Node12</title>
<path fill="none" stroke="midnightblue" d="M315.28,-56.083C320.172,-48.5341 327.327,-37.4948 333.333,-28.2298"/>
<polygon fill="midnightblue" stroke="midnightblue" points="336.326,-30.0463 338.828,-19.7511 330.452,-26.239 336.326,-30.0463"/>
</g>
<!-- Node13 -->
<g id="node14" class="node"><title>Node13</title>
<polygon fill="white" stroke="#bfbfbf" points="461,-0.5 461,-19.5 508,-19.5 508,-0.5 461,-0.5"/>
<text text-anchor="middle" x="484.5" y="-7.5" font-family="Helvetica,sans-Serif" font-size="10.00">cmath</text>
</g>
<!-- Node7&#45;&gt;Node13 -->
<g id="edge16" class="edge"><title>Node7&#45;&gt;Node13</title>
<path fill="none" stroke="midnightblue" d="M337.229,-56.4435C368.148,-46.9028 418.141,-31.4766 451.165,-21.2863"/>
<polygon fill="midnightblue" stroke="midnightblue" points="452.306,-24.5972 460.829,-18.3042 450.242,-17.9084 452.306,-24.5972"/>
</g>
<!-- Node16&#45;&gt;Node2 -->
<g id="edge20" class="edge"><title>Node16&#45;&gt;Node2</title>
<path fill="none" stroke="midnightblue" d="M394.5,-112.083C394.5,-105.006 394.5,-94.8611 394.5,-85.9865"/>
<polygon fill="midnightblue" stroke="midnightblue" points="398,-85.751 394.5,-75.7511 391,-85.7511 398,-85.751"/>
</g>
<!-- Node16&#45;&gt;Node7 -->
<g id="edge21" class="edge"><title>Node16&#45;&gt;Node7</title>
<path fill="none" stroke="midnightblue" d="M380.843,-112.324C367.584,-103.9 347.232,-90.9709 331.654,-81.0741"/>
<polygon fill="midnightblue" stroke="midnightblue" points="333.44,-78.0626 323.123,-75.6545 329.687,-83.9711 333.44,-78.0626"/>
</g>
<!-- Node17&#45;&gt;Node2 -->
<g id="edge25" class="edge"><title>Node17&#45;&gt;Node2</title>
<path fill="none" stroke="midnightblue" d="M497.169,-112.444C477.18,-103.596 445.757,-89.6875 422.936,-79.5865"/>
<polygon fill="midnightblue" stroke="midnightblue" points="424.302,-76.3635 413.741,-75.5164 421.468,-82.7645 424.302,-76.3635"/>
</g>
<!-- Node17&#45;&gt;Node10 -->
<g id="edge24" class="edge"><title>Node17&#45;&gt;Node10</title>
<path fill="none" stroke="midnightblue" d="M518.933,-112.368C523.958,-94.5366 535.58,-53.2953 542.351,-29.2717"/>
<polygon fill="midnightblue" stroke="midnightblue" points="545.735,-30.1659 545.079,-19.5914 538.997,-28.2671 545.735,-30.1659"/>
</g>
<!-- Node17&#45;&gt;Node13 -->
<g id="edge23" class="edge"><title>Node17&#45;&gt;Node13</title>
<path fill="none" stroke="midnightblue" d="M513.989,-112.368C508.802,-94.5366 496.804,-53.2953 489.815,-29.2717"/>
<polygon fill="midnightblue" stroke="midnightblue" points="493.153,-28.2157 486.999,-19.5914 486.432,-30.1711 493.153,-28.2157"/>
</g>
<!-- Node18&#45;&gt;Node3 -->
<g id="edge27" class="edge"><title>Node18&#45;&gt;Node3</title>
<path fill="none" stroke="midnightblue" d="M259.569,-168.496C213.747,-159.884 149.174,-145.888 127.5,-132 108.935,-120.104 94.0278,-99.2983 85.0133,-84.4295"/>
<polygon fill="midnightblue" stroke="midnightblue" points="87.9889,-82.5832 79.9611,-75.6691 81.925,-86.0803 87.9889,-82.5832"/>
</g>
<!-- Node19 -->
<g id="node20" class="node"><title>Node19</title>
<polygon fill="white" stroke="#bfbfbf" points="300.5,-112.5 300.5,-131.5 330.5,-131.5 330.5,-112.5 300.5,-112.5"/>
<text text-anchor="middle" x="315.5" y="-119.5" font-family="Helvetica,sans-Serif" font-size="10.00">list</text>
</g>
<!-- Node18&#45;&gt;Node19 -->
<g id="edge28" class="edge"><title>Node18&#45;&gt;Node19</title>
<path fill="none" stroke="midnightblue" d="M309.656,-168.083C310.584,-160.927 311.918,-150.635 313.077,-141.691"/>
<polygon fill="midnightblue" stroke="midnightblue" points="316.551,-142.118 314.366,-131.751 309.609,-141.218 316.551,-142.118"/>
</g>
</g>
</svg>
