<?xml version="1.0" encoding="UTF-8" standalone="no"?>
<!DOCTYPE svg PUBLIC "-//W3C//DTD SVG 1.1//EN"
 "http://www.w3.org/Graphics/SVG/1.1/DTD/svg11.dtd">
<!-- Generated by graphviz version 2.38.0 (20140413.2041)
 -->
<!-- Title: src/analysis/utils/ClusterTools.h Pages: 1 -->
<svg width="1616pt" height="251pt"
 viewBox="0.00 0.00 1615.50 251.00" xmlns="http://www.w3.org/2000/svg" xmlns:xlink="http://www.w3.org/1999/xlink">
<g id="graph0" class="graph" transform="scale(1 1) rotate(0) translate(4 247)">
<title>src/analysis/utils/ClusterTools.h</title>
<polygon fill="white" stroke="none" points="-4,4 -4,-247 1611.5,-247 1611.5,4 -4,4"/>
<!-- Node17 -->
<g id="node1" class="node"><title>Node17</title>
<polygon fill="#bfbfbf" stroke="black" points="552.5,-212.5 552.5,-242.5 647.5,-242.5 647.5,-212.5 552.5,-212.5"/>
<text text-anchor="start" x="560.5" y="-230.5" font-family="Helvetica,sans-Serif" font-size="10.00">src/analysis/utils</text>
<text text-anchor="middle" x="600" y="-219.5" font-family="Helvetica,sans-Serif" font-size="10.00">/ClusterTools.h</text>
</g>
<!-- Node18 -->
<g id="node2" class="node"><title>Node18</title>
<g id="a_node2"><a xlink:href="_candidates_analysis_8h.html" target="_top" xlink:title="src/analysis/physics\l/common/CandidatesAnalysis.h">
<polygon fill="white" stroke="black" points="40.5,-145.5 40.5,-175.5 207.5,-175.5 207.5,-145.5 40.5,-145.5"/>
<text text-anchor="start" x="48.5" y="-163.5" font-family="Helvetica,sans-Serif" font-size="10.00">src/analysis/physics</text>
<text text-anchor="middle" x="124" y="-152.5" font-family="Helvetica,sans-Serif" font-size="10.00">/common/CandidatesAnalysis.h</text>
</a>
</g>
</g>
<!-- Node17&#45;&gt;Node18 -->
<g id="edge1" class="edge"><title>Node17&#45;&gt;Node18</title>
<path fill="none" stroke="midnightblue" d="M542.104,-218.594C458.524,-207.181 303.588,-186.024 207.6,-172.916"/>
<polygon fill="midnightblue" stroke="midnightblue" points="541.798,-222.085 552.18,-219.97 542.745,-215.149 541.798,-222.085"/>
</g>
<!-- Node19 -->
<g id="node3" class="node"><title>Node19</title>
<g id="a_node3"><a xlink:href="_candidates_analysis_8cc.html" target="_top" xlink:title="src/analysis/physics\l/common/CandidatesAnalysis.cc">
<polygon fill="white" stroke="black" points="0,-73 0,-103 172,-103 172,-73 0,-73"/>
<text text-anchor="start" x="8" y="-91" font-family="Helvetica,sans-Serif" font-size="10.00">src/analysis/physics</text>
<text text-anchor="middle" x="86" y="-80" font-family="Helvetica,sans-Serif" font-size="10.00">/common/CandidatesAnalysis.cc</text>
</a>
</g>
</g>
<!-- Node17&#45;&gt;Node19 -->
<g id="edge3" class="edge"><title>Node17&#45;&gt;Node19</title>
<path fill="none" stroke="midnightblue" d="M542.152,-215.329C495.019,-205.886 426.873,-191.459 368,-176 281.774,-153.358 182.484,-121.303 127.724,-103.091"/>
<polygon fill="midnightblue" stroke="midnightblue" points="541.684,-218.804 552.175,-217.325 543.052,-211.939 541.684,-218.804"/>
</g>
<!-- Node20 -->
<g id="node4" class="node"><title>Node20</title>
<g id="a_node4"><a xlink:href="_meson_dalitz_decays_8h.html" target="_top" xlink:title="src/analysis/physics\l/common/MesonDalitzDecays.h">
<polygon fill="white" stroke="black" points="377,-145.5 377,-175.5 545,-175.5 545,-145.5 377,-145.5"/>
<text text-anchor="start" x="385" y="-163.5" font-family="Helvetica,sans-Serif" font-size="10.00">src/analysis/physics</text>
<text text-anchor="middle" x="461" y="-152.5" font-family="Helvetica,sans-Serif" font-size="10.00">/common/MesonDalitzDecays.h</text>
</a>
</g>
</g>
<!-- Node17&#45;&gt;Node20 -->
<g id="edge4" class="edge"><title>Node17&#45;&gt;Node20</title>
<path fill="none" stroke="midnightblue" d="M560.718,-208.131C538.631,-197.802 511.49,-185.11 491.102,-175.577"/>
<polygon fill="midnightblue" stroke="midnightblue" points="559.298,-211.33 569.839,-212.396 562.263,-204.989 559.298,-211.33"/>
</g>
<!-- Node23 -->
<g id="node7" class="node"><title>Node23</title>
<g id="a_node7"><a xlink:href="etaprime__dalitz_8h.html" target="_top" xlink:title="src/analysis/physics\l/etaprime/etaprime_dalitz.h">
<polygon fill="white" stroke="black" points="723.5,-145.5 723.5,-175.5 872.5,-175.5 872.5,-145.5 723.5,-145.5"/>
<text text-anchor="start" x="731.5" y="-163.5" font-family="Helvetica,sans-Serif" font-size="10.00">src/analysis/physics</text>
<text text-anchor="middle" x="798" y="-152.5" font-family="Helvetica,sans-Serif" font-size="10.00">/etaprime/etaprime_dalitz.h</text>
</a>
</g>
</g>
<!-- Node17&#45;&gt;Node23 -->
<g id="edge7" class="edge"><title>Node17&#45;&gt;Node23</title>
<path fill="none" stroke="midnightblue" d="M652.614,-209.228C684.643,-198.713 725.042,-185.451 755.121,-175.577"/>
<polygon fill="midnightblue" stroke="midnightblue" points="651.372,-205.951 642.963,-212.396 653.556,-212.602 651.372,-205.951"/>
</g>
<!-- Node30 -->
<g id="node14" class="node"><title>Node30</title>
<g id="a_node14"><a xlink:href="_omega___ep_em_8h.html" target="_top" xlink:title="src/analysis/physics\l/omega/Omega_EpEm.h">
<polygon fill="white" stroke="black" points="1120,-145.5 1120,-175.5 1254,-175.5 1254,-145.5 1120,-145.5"/>
<text text-anchor="start" x="1128" y="-163.5" font-family="Helvetica,sans-Serif" font-size="10.00">src/analysis/physics</text>
<text text-anchor="middle" x="1187" y="-152.5" font-family="Helvetica,sans-Serif" font-size="10.00">/omega/Omega_EpEm.h</text>
</a>
</g>
</g>
<!-- Node17&#45;&gt;Node30 -->
<g id="edge14" class="edge"><title>Node17&#45;&gt;Node30</title>
<path fill="none" stroke="midnightblue" d="M657.702,-220.111C766.901,-208.019 1003.23,-181.849 1119.55,-168.969"/>
<polygon fill="midnightblue" stroke="midnightblue" points="657.093,-216.656 647.539,-221.236 657.864,-223.614 657.093,-216.656"/>
</g>
<!-- Node33 -->
<g id="node17" class="node"><title>Node33</title>
<g id="a_node17"><a xlink:href="_cluster_tools_8cc.html" target="_top" xlink:title="src/analysis/utils\l/ClusterTools.cc">
<polygon fill="white" stroke="black" points="1272.5,-145.5 1272.5,-175.5 1367.5,-175.5 1367.5,-145.5 1272.5,-145.5"/>
<text text-anchor="start" x="1280.5" y="-163.5" font-family="Helvetica,sans-Serif" font-size="10.00">src/analysis/utils</text>
<text text-anchor="middle" x="1320" y="-152.5" font-family="Helvetica,sans-Serif" font-size="10.00">/ClusterTools.cc</text>
</a>
</g>
</g>
<!-- Node17&#45;&gt;Node33 -->
<g id="edge17" class="edge"><title>Node17&#45;&gt;Node33</title>
<path fill="none" stroke="midnightblue" d="M657.82,-225.454C773.485,-222.624 1041.29,-212.362 1263,-176 1266.02,-175.504 1269.12,-174.925 1272.23,-174.29"/>
<polygon fill="midnightblue" stroke="midnightblue" points="657.683,-221.956 647.768,-225.69 657.848,-228.954 657.683,-221.956"/>
</g>
<!-- Node18&#45;&gt;Node19 -->
<g id="edge2" class="edge"><title>Node18&#45;&gt;Node19</title>
<path fill="none" stroke="midnightblue" d="M111.456,-136.227C105.582,-125.33 98.775,-112.701 93.6784,-103.246"/>
<polygon fill="midnightblue" stroke="midnightblue" points="108.484,-138.091 116.31,-145.233 114.646,-134.77 108.484,-138.091"/>
</g>
<!-- Node21 -->
<g id="node5" class="node"><title>Node21</title>
<g id="a_node5"><a xlink:href="_meson_dalitz_decays_8cc.html" target="_top" xlink:title="Physics class to investigate Dalitz decays for different mesons. ">
<polygon fill="white" stroke="black" points="190.5,-73 190.5,-103 363.5,-103 363.5,-73 190.5,-73"/>
<text text-anchor="start" x="198.5" y="-91" font-family="Helvetica,sans-Serif" font-size="10.00">src/analysis/physics</text>
<text text-anchor="middle" x="277" y="-80" font-family="Helvetica,sans-Serif" font-size="10.00">/common/MesonDalitzDecays.cc</text>
</a>
</g>
</g>
<!-- Node20&#45;&gt;Node21 -->
<g id="edge5" class="edge"><title>Node20&#45;&gt;Node21</title>
<path fill="none" stroke="midnightblue" d="M414.83,-141.81C383.557,-129.827 342.795,-114.21 313.729,-103.073"/>
<polygon fill="midnightblue" stroke="midnightblue" points="413.617,-145.093 424.207,-145.403 416.121,-138.556 413.617,-145.093"/>
</g>
<!-- Node22 -->
<g id="node6" class="node"><title>Node22</title>
<g id="a_node6"><a xlink:href="_meson_dalitz_decays__plot_8cc.html" target="_top" xlink:title="src/analysis/physics\l/common/MesonDalitzDecays\l_plot.cc">
<polygon fill="white" stroke="black" points="381.5,-67.5 381.5,-108.5 540.5,-108.5 540.5,-67.5 381.5,-67.5"/>
<text text-anchor="start" x="389.5" y="-96.5" font-family="Helvetica,sans-Serif" font-size="10.00">src/analysis/physics</text>
<text text-anchor="start" x="389.5" y="-85.5" font-family="Helvetica,sans-Serif" font-size="10.00">/common/MesonDalitzDecays</text>
<text text-anchor="middle" x="461" y="-74.5" font-family="Helvetica,sans-Serif" font-size="10.00">_plot.cc</text>
</a>
</g>
</g>
<!-- Node20&#45;&gt;Node22 -->
<g id="edge6" class="edge"><title>Node20&#45;&gt;Node22</title>
<path fill="none" stroke="midnightblue" d="M461,-134.982C461,-126.347 461,-116.762 461,-108.588"/>
<polygon fill="midnightblue" stroke="midnightblue" points="457.5,-135.233 461,-145.233 464.5,-135.233 457.5,-135.233"/>
</g>
<!-- Node24 -->
<g id="node8" class="node"><title>Node24</title>
<g id="a_node8"><a xlink:href="_etap_dalitz__fit_8cc.html" target="_top" xlink:title="progs/EtapDalitz_fit.cc">
<polygon fill="white" stroke="black" points="558.5,-78.5 558.5,-97.5 681.5,-97.5 681.5,-78.5 558.5,-78.5"/>
<text text-anchor="middle" x="620" y="-85.5" font-family="Helvetica,sans-Serif" font-size="10.00">progs/EtapDalitz_fit.cc</text>
</a>
</g>
</g>
<!-- Node23&#45;&gt;Node24 -->
<g id="edge8" class="edge"><title>Node23&#45;&gt;Node24</title>
<path fill="none" stroke="midnightblue" d="M752.71,-141.562C717.063,-127.444 668.971,-108.396 641.546,-97.5336"/>
<polygon fill="midnightblue" stroke="midnightblue" points="751.821,-144.974 762.407,-145.403 754.398,-138.466 751.821,-144.974"/>
</g>
<!-- Node25 -->
<g id="node9" class="node"><title>Node25</title>
<g id="a_node9"><a xlink:href="_p_c_a_8cc.html" target="_top" xlink:title="Tool to perform a Principal Component Analysis, based on ROOTs TPrincipal class, to create principal ...">
<polygon fill="white" stroke="black" points="700,-78.5 700,-97.5 780,-97.5 780,-78.5 700,-78.5"/>
<text text-anchor="middle" x="740" y="-85.5" font-family="Helvetica,sans-Serif" font-size="10.00">progs/PCA.cc</text>
</a>
</g>
</g>
<!-- Node23&#45;&gt;Node25 -->
<g id="edge9" class="edge"><title>Node23&#45;&gt;Node25</title>
<path fill="none" stroke="midnightblue" d="M779.806,-137.385C768.824,-124.036 755.43,-107.756 747.316,-97.8932"/>
<polygon fill="midnightblue" stroke="midnightblue" points="777.207,-139.734 786.263,-145.233 782.612,-135.287 777.207,-139.734"/>
</g>
<!-- Node26 -->
<g id="node10" class="node"><title>Node26</title>
<g id="a_node10"><a xlink:href="_etap_dalitz__plot_8cc.html" target="_top" xlink:title="src/analysis/physics\l/etaprime/EtapDalitz\l_plot.cc">
<polygon fill="white" stroke="black" points="798.5,-67.5 798.5,-108.5 913.5,-108.5 913.5,-67.5 798.5,-67.5"/>
<text text-anchor="start" x="806.5" y="-96.5" font-family="Helvetica,sans-Serif" font-size="10.00">src/analysis/physics</text>
<text text-anchor="start" x="806.5" y="-85.5" font-family="Helvetica,sans-Serif" font-size="10.00">/etaprime/EtapDalitz</text>
<text text-anchor="middle" x="856" y="-74.5" font-family="Helvetica,sans-Serif" font-size="10.00">_plot.cc</text>
</a>
</g>
</g>
<!-- Node23&#45;&gt;Node26 -->
<g id="edge10" class="edge"><title>Node23&#45;&gt;Node26</title>
<path fill="none" stroke="midnightblue" d="M816.297,-137.26C823.864,-128.062 832.562,-117.489 839.885,-108.588"/>
<polygon fill="midnightblue" stroke="midnightblue" points="813.388,-135.287 809.737,-145.233 818.793,-139.734 813.388,-135.287"/>
</g>
<!-- Node27 -->
<g id="node11" class="node"><title>Node27</title>
<g id="a_node11"><a xlink:href="etaprime__dalitz_8cc.html" target="_top" xlink:title="src/analysis/physics\l/etaprime/etaprime_dalitz.cc">
<polygon fill="white" stroke="black" points="932,-73 932,-103 1086,-103 1086,-73 932,-73"/>
<text text-anchor="start" x="940" y="-91" font-family="Helvetica,sans-Serif" font-size="10.00">src/analysis/physics</text>
<text text-anchor="middle" x="1009" y="-80" font-family="Helvetica,sans-Serif" font-size="10.00">/etaprime/etaprime_dalitz.cc</text>
</a>
</g>
</g>
<!-- Node23&#45;&gt;Node27 -->
<g id="edge11" class="edge"><title>Node23&#45;&gt;Node27</title>
<path fill="none" stroke="midnightblue" d="M849.764,-142.205C885.739,-130.184 933.087,-114.364 966.779,-103.107"/>
<polygon fill="midnightblue" stroke="midnightblue" points="848.314,-138.998 839.939,-145.487 850.533,-145.638 848.314,-138.998"/>
</g>
<!-- Node28 -->
<g id="node12" class="node"><title>Node28</title>
<g id="a_node12"><a xlink:href="_etap_dalitz_m_c_8h.html" target="_top" xlink:title="src/analysis/physics\l/scratch/wagner/EtapDalitzMC.h">
<polygon fill="white" stroke="black" points="1104,-73 1104,-103 1272,-103 1272,-73 1104,-73"/>
<text text-anchor="start" x="1112" y="-91" font-family="Helvetica,sans-Serif" font-size="10.00">src/analysis/physics</text>
<text text-anchor="middle" x="1188" y="-80" font-family="Helvetica,sans-Serif" font-size="10.00">/scratch/wagner/EtapDalitzMC.h</text>
</a>
</g>
</g>
<!-- Node23&#45;&gt;Node28 -->
<g id="edge12" class="edge"><title>Node23&#45;&gt;Node28</title>
<path fill="none" stroke="midnightblue" d="M882.719,-146.098C942.23,-136.439 1023.63,-122.735 1095,-109 1104.57,-107.159 1114.67,-105.104 1124.54,-103.031"/>
<polygon fill="midnightblue" stroke="midnightblue" points="881.929,-142.68 872.617,-147.733 883.047,-149.59 881.929,-142.68"/>
</g>
<!-- Node29 -->
<g id="node13" class="node"><title>Node29</title>
<g id="a_node13"><a xlink:href="_etap_dalitz_m_c_8cc.html" target="_top" xlink:title="src/analysis/physics\l/scratch/wagner/EtapDalitzMC.cc">
<polygon fill="white" stroke="black" points="1101.5,-0.5 1101.5,-30.5 1274.5,-30.5 1274.5,-0.5 1101.5,-0.5"/>
<text text-anchor="start" x="1109.5" y="-18.5" font-family="Helvetica,sans-Serif" font-size="10.00">src/analysis/physics</text>
<text text-anchor="middle" x="1188" y="-7.5" font-family="Helvetica,sans-Serif" font-size="10.00">/scratch/wagner/EtapDalitzMC.cc</text>
</a>
</g>
</g>
<!-- Node28&#45;&gt;Node29 -->
<g id="edge13" class="edge"><title>Node28&#45;&gt;Node29</title>
<path fill="none" stroke="midnightblue" d="M1188,-62.7317C1188,-52.0679 1188,-39.9145 1188,-30.7455"/>
<polygon fill="midnightblue" stroke="midnightblue" points="1184.5,-62.7332 1188,-72.7333 1191.5,-62.7333 1184.5,-62.7332"/>
</g>
<!-- Node31 -->
<g id="node15" class="node"><title>Node31</title>
<g id="a_node15"><a xlink:href="_omega___ep_em_8cc.html" target="_top" xlink:title="src/analysis/physics\l/omega/Omega_EpEm.cc">
<polygon fill="white" stroke="black" points="1290,-73 1290,-103 1428,-103 1428,-73 1290,-73"/>
<text text-anchor="start" x="1298" y="-91" font-family="Helvetica,sans-Serif" font-size="10.00">src/analysis/physics</text>
<text text-anchor="middle" x="1359" y="-80" font-family="Helvetica,sans-Serif" font-size="10.00">/omega/Omega_EpEm.cc</text>
</a>
</g>
</g>
<!-- Node30&#45;&gt;Node31 -->
<g id="edge15" class="edge"><title>Node30&#45;&gt;Node31</title>
<path fill="none" stroke="midnightblue" d="M1230.92,-141.499C1260.05,-129.559 1297.73,-114.114 1324.67,-103.073"/>
<polygon fill="midnightblue" stroke="midnightblue" points="1229.32,-138.372 1221.39,-145.403 1231.97,-144.849 1229.32,-138.372"/>
</g>
<!-- Node32 -->
<g id="node16" class="node"><title>Node32</title>
<g id="a_node16"><a xlink:href="_omega___ep_em__plot_8cc.html" target="_top" xlink:title="src/analysis/physics\l/omega/Omega_EpEm_plot.cc">
<polygon fill="white" stroke="black" points="1446.5,-73 1446.5,-103 1607.5,-103 1607.5,-73 1446.5,-73"/>
<text text-anchor="start" x="1454.5" y="-91" font-family="Helvetica,sans-Serif" font-size="10.00">src/analysis/physics</text>
<text text-anchor="middle" x="1527" y="-80" font-family="Helvetica,sans-Serif" font-size="10.00">/omega/Omega_EpEm_plot.cc</text>
</a>
</g>
</g>
<!-- Node30&#45;&gt;Node32 -->
<g id="edge16" class="edge"><title>Node30&#45;&gt;Node32</title>
<path fill="none" stroke="midnightblue" d="M1264.17,-144.312C1313.62,-134.481 1379.15,-121.269 1437,-109 1445.92,-107.107 1455.34,-105.066 1464.58,-103.036"/>
<polygon fill="midnightblue" stroke="midnightblue" points="1263.31,-140.914 1254.19,-146.295 1264.68,-147.78 1263.31,-140.914"/>
</g>
</g>
</svg>
