<?xml version="1.0" encoding="UTF-8" standalone="no"?>
<!DOCTYPE svg PUBLIC "-//W3C//DTD SVG 1.1//EN"
 "http://www.w3.org/Graphics/SVG/1.1/DTD/svg11.dtd">
<!-- Generated by graphviz version 2.38.0 (20140413.2041)
 -->
<!-- Title: progs/detail/Corrections.cc Pages: 1 -->
<svg width="872pt" height="319pt"
 viewBox="0.00 0.00 871.50 319.00" xmlns="http://www.w3.org/2000/svg" xmlns:xlink="http://www.w3.org/1999/xlink">
<g id="graph0" class="graph" transform="scale(1 1) rotate(0) translate(4 315)">
<title>progs/detail/Corrections.cc</title>
<polygon fill="white" stroke="none" points="-4,4 -4,-315 867.5,-315 867.5,4 -4,4"/>
<!-- Node0 -->
<g id="node1" class="node"><title>Node0</title>
<polygon fill="#bfbfbf" stroke="black" points="485,-291.5 485,-310.5 629,-310.5 629,-291.5 485,-291.5"/>
<text text-anchor="middle" x="557" y="-298.5" font-family="Helvetica,sans-Serif" font-size="10.00">progs/detail/Corrections.cc</text>
</g>
<!-- Node1 -->
<g id="node2" class="node"><title>Node1</title>
<g id="a_node2"><a xlink:href="_corrections_8h.html" target="_top" xlink:title="Corrections.h">
<polygon fill="white" stroke="black" points="382,-235.5 382,-254.5 462,-254.5 462,-235.5 382,-235.5"/>
<text text-anchor="middle" x="422" y="-242.5" font-family="Helvetica,sans-Serif" font-size="10.00">Corrections.h</text>
</a>
</g>
</g>
<!-- Node0&#45;&gt;Node1 -->
<g id="edge1" class="edge"><title>Node0&#45;&gt;Node1</title>
<path fill="none" stroke="midnightblue" d="M535.609,-291.444C513.293,-282.517 478.097,-268.439 452.792,-258.317"/>
<polygon fill="midnightblue" stroke="midnightblue" points="453.876,-254.981 443.291,-254.516 451.276,-261.48 453.876,-254.981"/>
</g>
<!-- Node13 -->
<g id="node14" class="node"><title>Node13</title>
<g id="a_node14"><a xlink:href="_logger_8h.html" target="_top" xlink:title="base/Logger.h">
<polygon fill="white" stroke="black" points="651,-235.5 651,-254.5 735,-254.5 735,-235.5 651,-235.5"/>
<text text-anchor="middle" x="693" y="-242.5" font-family="Helvetica,sans-Serif" font-size="10.00">base/Logger.h</text>
</a>
</g>
</g>
<!-- Node0&#45;&gt;Node13 -->
<g id="edge16" class="edge"><title>Node0&#45;&gt;Node13</title>
<path fill="none" stroke="midnightblue" d="M578.55,-291.444C601.031,-282.517 636.488,-268.439 661.98,-258.317"/>
<polygon fill="midnightblue" stroke="midnightblue" points="663.549,-261.46 671.551,-254.516 660.965,-254.954 663.549,-261.46"/>
</g>
<!-- Node2 -->
<g id="node3" class="node"><title>Node2</title>
<polygon fill="white" stroke="#bfbfbf" points="601.5,-112.5 601.5,-131.5 648.5,-131.5 648.5,-112.5 601.5,-112.5"/>
<text text-anchor="middle" x="625" y="-119.5" font-family="Helvetica,sans-Serif" font-size="10.00">vector</text>
</g>
<!-- Node1&#45;&gt;Node2 -->
<g id="edge2" class="edge"><title>Node1&#45;&gt;Node2</title>
<path fill="none" stroke="midnightblue" d="M462.017,-244.043C534.858,-243.176 684.592,-236.727 717,-199 725.978,-188.549 724.295,-179.688 717,-168 704.218,-147.519 679.114,-136.104 658.354,-129.901"/>
<polygon fill="midnightblue" stroke="midnightblue" points="659.152,-126.491 648.585,-127.257 657.324,-133.248 659.152,-126.491"/>
</g>
<!-- Node3 -->
<g id="node4" class="node"><title>Node3</title>
<polygon fill="white" stroke="#bfbfbf" points="0,-174 0,-193 62,-193 62,-174 0,-174"/>
<text text-anchor="middle" x="31" y="-181" font-family="Helvetica,sans-Serif" font-size="10.00">algorithm</text>
</g>
<!-- Node1&#45;&gt;Node3 -->
<g id="edge3" class="edge"><title>Node1&#45;&gt;Node3</title>
<path fill="none" stroke="midnightblue" d="M381.863,-241.861C315.939,-237.685 180.966,-226.338 70,-199 67.0103,-198.263 63.935,-197.37 60.8854,-196.393"/>
<polygon fill="midnightblue" stroke="midnightblue" points="61.9634,-193.062 51.3686,-193.073 59.6579,-199.671 61.9634,-193.062"/>
</g>
<!-- Node4 -->
<g id="node5" class="node"><title>Node4</title>
<g id="a_node5"><a xlink:href="_lorentz_vec_8h.html" target="_top" xlink:title="base/vec/LorentzVec.h">
<polygon fill="white" stroke="black" points="79.5,-174 79.5,-193 204.5,-193 204.5,-174 79.5,-174"/>
<text text-anchor="middle" x="142" y="-181" font-family="Helvetica,sans-Serif" font-size="10.00">base/vec/LorentzVec.h</text>
</a>
</g>
</g>
<!-- Node1&#45;&gt;Node4 -->
<g id="edge4" class="edge"><title>Node1&#45;&gt;Node4</title>
<path fill="none" stroke="midnightblue" d="M381.883,-235.475C331.878,-224.849 246.399,-206.685 192.129,-195.152"/>
<polygon fill="midnightblue" stroke="midnightblue" points="192.552,-191.664 182.043,-193.009 191.097,-198.511 192.552,-191.664"/>
</g>
<!-- Node9 -->
<g id="node10" class="node"><title>Node9</title>
<polygon fill="white" stroke="#bfbfbf" points="222.5,-174 222.5,-193 319.5,-193 319.5,-174 222.5,-174"/>
<text text-anchor="middle" x="271" y="-181" font-family="Helvetica,sans-Serif" font-size="10.00">TLorentzVector.h</text>
</g>
<!-- Node1&#45;&gt;Node9 -->
<g id="edge10" class="edge"><title>Node1&#45;&gt;Node9</title>
<path fill="none" stroke="midnightblue" d="M400.365,-235.475C374.576,-225.313 331.289,-208.256 301.96,-196.7"/>
<polygon fill="midnightblue" stroke="midnightblue" points="303.181,-193.419 292.594,-193.009 300.615,-199.932 303.181,-193.419"/>
</g>
<!-- Node10 -->
<g id="node11" class="node"><title>Node10</title>
<polygon fill="white" stroke="#bfbfbf" points="338,-174 338,-193 404,-193 404,-174 338,-174"/>
<text text-anchor="middle" x="371" y="-181" font-family="Helvetica,sans-Serif" font-size="10.00">PParticle.h</text>
</g>
<!-- Node1&#45;&gt;Node10 -->
<g id="edge11" class="edge"><title>Node1&#45;&gt;Node10</title>
<path fill="none" stroke="midnightblue" d="M414.693,-235.475C406.967,-226.462 394.592,-212.025 384.982,-200.812"/>
<polygon fill="midnightblue" stroke="midnightblue" points="387.459,-198.324 378.294,-193.009 382.144,-202.879 387.459,-198.324"/>
</g>
<!-- Node11 -->
<g id="node12" class="node"><title>Node11</title>
<g id="a_node12"><a xlink:href="dilepton__radiative__corrections_8h.html" target="_top" xlink:title="dilepton_radiative\l_corrections.h">
<polygon fill="white" stroke="black" points="422.5,-168.5 422.5,-198.5 523.5,-198.5 523.5,-168.5 422.5,-168.5"/>
<text text-anchor="start" x="430.5" y="-186.5" font-family="Helvetica,sans-Serif" font-size="10.00">dilepton_radiative</text>
<text text-anchor="middle" x="473" y="-175.5" font-family="Helvetica,sans-Serif" font-size="10.00">_corrections.h</text>
</a>
</g>
</g>
<!-- Node1&#45;&gt;Node11 -->
<g id="edge12" class="edge"><title>Node1&#45;&gt;Node11</title>
<path fill="none" stroke="midnightblue" d="M429.307,-235.475C435.827,-227.869 445.658,-216.399 454.344,-206.265"/>
<polygon fill="midnightblue" stroke="midnightblue" points="457.13,-208.393 460.98,-198.523 451.815,-203.838 457.13,-208.393"/>
</g>
<!-- Node12 -->
<g id="node13" class="node"><title>Node12</title>
<g id="a_node13"><a xlink:href="dimuon__radiative__corrections_8h.html" target="_top" xlink:title="dimuon_radiative_corrections.h">
<polygon fill="white" stroke="black" points="541.5,-174 541.5,-193 708.5,-193 708.5,-174 541.5,-174"/>
<text text-anchor="middle" x="625" y="-181" font-family="Helvetica,sans-Serif" font-size="10.00">dimuon_radiative_corrections.h</text>
</a>
</g>
</g>
<!-- Node1&#45;&gt;Node12 -->
<g id="edge14" class="edge"><title>Node1&#45;&gt;Node12</title>
<path fill="none" stroke="midnightblue" d="M451.085,-235.475C486.585,-225.07 546.745,-207.437 586.174,-195.88"/>
<polygon fill="midnightblue" stroke="midnightblue" points="587.357,-199.181 595.969,-193.009 585.388,-192.463 587.357,-199.181"/>
</g>
<!-- Node5 -->
<g id="node6" class="node"><title>Node5</title>
<g id="a_node6"><a xlink:href="vec3_8h.html" target="_top" xlink:title="base/vec/vec3.h">
<polygon fill="white" stroke="black" points="95,-112.5 95,-131.5 189,-131.5 189,-112.5 95,-112.5"/>
<text text-anchor="middle" x="142" y="-119.5" font-family="Helvetica,sans-Serif" font-size="10.00">base/vec/vec3.h</text>
</a>
</g>
</g>
<!-- Node4&#45;&gt;Node5 -->
<g id="edge5" class="edge"><title>Node4&#45;&gt;Node5</title>
<path fill="none" stroke="midnightblue" d="M142,-173.975C142,-165.58 142,-152.481 142,-141.663"/>
<polygon fill="midnightblue" stroke="midnightblue" points="145.5,-141.509 142,-131.509 138.5,-141.509 145.5,-141.509"/>
</g>
<!-- Node6 -->
<g id="node7" class="node"><title>Node6</title>
<g id="a_node7"><a xlink:href="vec2_8h.html" target="_top" xlink:title="vec2.h">
<polygon fill="white" stroke="black" points="66,-56.5 66,-75.5 114,-75.5 114,-56.5 66,-56.5"/>
<text text-anchor="middle" x="90" y="-63.5" font-family="Helvetica,sans-Serif" font-size="10.00">vec2.h</text>
</a>
</g>
</g>
<!-- Node5&#45;&gt;Node6 -->
<g id="edge6" class="edge"><title>Node5&#45;&gt;Node6</title>
<path fill="none" stroke="midnightblue" d="M133.413,-112.083C125.841,-104.22 114.622,-92.5688 105.486,-83.0813"/>
<polygon fill="midnightblue" stroke="midnightblue" points="107.885,-80.5266 98.427,-75.7511 102.842,-85.3821 107.885,-80.5266"/>
</g>
<!-- Node7 -->
<g id="node8" class="node"><title>Node7</title>
<polygon fill="white" stroke="#bfbfbf" points="92.5,-0.5 92.5,-19.5 139.5,-19.5 139.5,-0.5 92.5,-0.5"/>
<text text-anchor="middle" x="116" y="-7.5" font-family="Helvetica,sans-Serif" font-size="10.00">cmath</text>
</g>
<!-- Node5&#45;&gt;Node7 -->
<g id="edge9" class="edge"><title>Node5&#45;&gt;Node7</title>
<path fill="none" stroke="midnightblue" d="M139.96,-112.368C135.764,-94.617 126.085,-53.6664 120.396,-29.5974"/>
<polygon fill="midnightblue" stroke="midnightblue" points="123.737,-28.5182 118.031,-19.5914 116.925,-30.1284 123.737,-28.5182"/>
</g>
<!-- Node8 -->
<g id="node9" class="node"><title>Node8</title>
<polygon fill="white" stroke="#bfbfbf" points="170.5,-56.5 170.5,-75.5 227.5,-75.5 227.5,-56.5 170.5,-56.5"/>
<text text-anchor="middle" x="199" y="-63.5" font-family="Helvetica,sans-Serif" font-size="10.00">ostream</text>
</g>
<!-- Node5&#45;&gt;Node8 -->
<g id="edge8" class="edge"><title>Node5&#45;&gt;Node8</title>
<path fill="none" stroke="midnightblue" d="M151.158,-112.324C159.501,-104.42 172.032,-92.5482 182.177,-82.9377"/>
<polygon fill="midnightblue" stroke="midnightblue" points="184.823,-85.2522 189.675,-75.8339 180.009,-80.1705 184.823,-85.2522"/>
</g>
<!-- Node6&#45;&gt;Node7 -->
<g id="edge7" class="edge"><title>Node6&#45;&gt;Node7</title>
<path fill="none" stroke="midnightblue" d="M94.2934,-56.083C97.8523,-48.6913 103.022,-37.9533 107.424,-28.8111"/>
<polygon fill="midnightblue" stroke="midnightblue" points="110.602,-30.2795 111.787,-19.7511 104.295,-27.2427 110.602,-30.2795"/>
</g>
<!-- Node11&#45;&gt;Node2 -->
<g id="edge13" class="edge"><title>Node11&#45;&gt;Node2</title>
<path fill="none" stroke="midnightblue" d="M509.022,-168.399C534.639,-158.372 568.727,-145.028 593.31,-135.405"/>
<polygon fill="midnightblue" stroke="midnightblue" points="594.846,-138.562 602.883,-131.658 592.295,-132.044 594.846,-138.562"/>
</g>
<!-- Node12&#45;&gt;Node2 -->
<g id="edge15" class="edge"><title>Node12&#45;&gt;Node2</title>
<path fill="none" stroke="midnightblue" d="M625,-173.975C625,-165.58 625,-152.481 625,-141.663"/>
<polygon fill="midnightblue" stroke="midnightblue" points="628.5,-141.509 625,-131.509 621.5,-141.509 628.5,-141.509"/>
</g>
<!-- Node14 -->
<g id="node15" class="node"><title>Node14</title>
<polygon fill="white" stroke="#bfbfbf" points="764.5,-174 764.5,-193 863.5,-193 863.5,-174 764.5,-174"/>
<text text-anchor="middle" x="814" y="-181" font-family="Helvetica,sans-Serif" font-size="10.00">easylogging++.h</text>
</g>
<!-- Node13&#45;&gt;Node14 -->
<g id="edge17" class="edge"><title>Node13&#45;&gt;Node14</title>
<path fill="none" stroke="midnightblue" d="M710.336,-235.475C730.553,-225.534 764.187,-208.995 787.642,-197.461"/>
<polygon fill="midnightblue" stroke="midnightblue" points="789.267,-200.563 796.696,-193.009 786.178,-194.281 789.267,-200.563"/>
</g>
</g>
</svg>
