<?xml version="1.0" encoding="UTF-8" standalone="no"?>
<!DOCTYPE svg PUBLIC "-//W3C//DTD SVG 1.1//EN"
 "http://www.w3.org/Graphics/SVG/1.1/DTD/svg11.dtd">
<!-- Generated by graphviz version 2.38.0 (20140413.2041)
 -->
<!-- Title: src/calibration/gui/Dialogs.h Pages: 1 -->
<svg width="346pt" height="95pt"
 viewBox="0.00 0.00 345.50 95.00" xmlns="http://www.w3.org/2000/svg" xmlns:xlink="http://www.w3.org/1999/xlink">
<g id="graph0" class="graph" transform="scale(1 1) rotate(0) translate(4 91)">
<title>src/calibration/gui/Dialogs.h</title>
<polygon fill="white" stroke="none" points="-4,4 -4,-91 341.5,-91 341.5,4 -4,4"/>
<!-- Node0 -->
<g id="node1" class="node"><title>Node0</title>
<polygon fill="#bfbfbf" stroke="black" points="96.5,-56.5 96.5,-86.5 197.5,-86.5 197.5,-56.5 96.5,-56.5"/>
<text text-anchor="start" x="104.5" y="-74.5" font-family="Helvetica,sans-Serif" font-size="10.00">src/calibration/gui</text>
<text text-anchor="middle" x="147" y="-63.5" font-family="Helvetica,sans-Serif" font-size="10.00">/Dialogs.h</text>
</g>
<!-- Node1 -->
<g id="node2" class="node"><title>Node1</title>
<polygon fill="white" stroke="#bfbfbf" points="0,-0.5 0,-19.5 44,-19.5 44,-0.5 0,-0.5"/>
<text text-anchor="middle" x="22" y="-7.5" font-family="Helvetica,sans-Serif" font-size="10.00">string</text>
</g>
<!-- Node0&#45;&gt;Node1 -->
<g id="edge1" class="edge"><title>Node0&#45;&gt;Node1</title>
<path fill="none" stroke="midnightblue" d="M117.377,-56.3993C96.7784,-46.5945 69.5197,-33.6194 49.4201,-24.052"/>
<polygon fill="midnightblue" stroke="midnightblue" points="50.7222,-20.7955 40.1886,-19.6578 47.7136,-27.116 50.7222,-20.7955"/>
</g>
<!-- Node2 -->
<g id="node3" class="node"><title>Node2</title>
<polygon fill="white" stroke="#bfbfbf" points="62,-0.5 62,-19.5 92,-19.5 92,-0.5 62,-0.5"/>
<text text-anchor="middle" x="77" y="-7.5" font-family="Helvetica,sans-Serif" font-size="10.00">list</text>
</g>
<!-- Node0&#45;&gt;Node2 -->
<g id="edge2" class="edge"><title>Node0&#45;&gt;Node2</title>
<path fill="none" stroke="midnightblue" d="M130.411,-56.3993C119.715,-47.3076 105.812,-35.4899 94.8717,-26.1909"/>
<polygon fill="midnightblue" stroke="midnightblue" points="97.0718,-23.4675 87.1856,-19.6578 92.5383,-28.8011 97.0718,-23.4675"/>
</g>
<!-- Node3 -->
<g id="node4" class="node"><title>Node3</title>
<polygon fill="white" stroke="#bfbfbf" points="110.5,-0.5 110.5,-19.5 183.5,-19.5 183.5,-0.5 110.5,-0.5"/>
<text text-anchor="middle" x="147" y="-7.5" font-family="Helvetica,sans-Serif" font-size="10.00">TGListBox.h</text>
</g>
<!-- Node0&#45;&gt;Node3 -->
<g id="edge3" class="edge"><title>Node0&#45;&gt;Node3</title>
<path fill="none" stroke="midnightblue" d="M147,-56.3993C147,-48.4664 147,-38.458 147,-29.8583"/>
<polygon fill="midnightblue" stroke="midnightblue" points="150.5,-29.6577 147,-19.6578 143.5,-29.6578 150.5,-29.6577"/>
</g>
<!-- Node4 -->
<g id="node5" class="node"><title>Node4</title>
<polygon fill="white" stroke="#bfbfbf" points="202,-0.5 202,-19.5 266,-19.5 266,-0.5 202,-0.5"/>
<text text-anchor="middle" x="234" y="-7.5" font-family="Helvetica,sans-Serif" font-size="10.00">TGLabel.h</text>
</g>
<!-- Node0&#45;&gt;Node4 -->
<g id="edge4" class="edge"><title>Node0&#45;&gt;Node4</title>
<path fill="none" stroke="midnightblue" d="M167.618,-56.3993C181.303,-47.0402 199.211,-34.7924 212.978,-25.3771"/>
<polygon fill="midnightblue" stroke="midnightblue" points="215.062,-28.1919 221.341,-19.6578 211.111,-22.414 215.062,-28.1919"/>
</g>
<!-- Node5 -->
<g id="node6" class="node"><title>Node5</title>
<polygon fill="white" stroke="#bfbfbf" points="284.5,-0.5 284.5,-19.5 337.5,-19.5 337.5,-0.5 284.5,-0.5"/>
<text text-anchor="middle" x="311" y="-7.5" font-family="Helvetica,sans-Serif" font-size="10.00">TExec.h</text>
</g>
<!-- Node0&#45;&gt;Node5 -->
<g id="edge5" class="edge"><title>Node0&#45;&gt;Node5</title>
<path fill="none" stroke="midnightblue" d="M185.866,-56.3993C213.751,-46.2826 250.939,-32.7905 277.513,-23.1493"/>
<polygon fill="midnightblue" stroke="midnightblue" points="278.93,-26.3585 287.137,-19.6578 276.542,-19.7782 278.93,-26.3585"/>
</g>
</g>
</svg>
