<?xml version="1.0" encoding="UTF-8" standalone="no"?>
<!DOCTYPE svg PUBLIC "-//W3C//DTD SVG 1.1//EN"
 "http://www.w3.org/Graphics/SVG/1.1/DTD/svg11.dtd">
<!-- Generated by graphviz version 2.38.0 (20140413.2041)
 -->
<!-- Title: src/root&#45;addons/analysis_codes/DisplayClustering.h Pages: 1 -->
<svg width="153pt" height="95pt"
 viewBox="0.00 0.00 153.00 95.00" xmlns="http://www.w3.org/2000/svg" xmlns:xlink="http://www.w3.org/1999/xlink">
<g id="graph0" class="graph" transform="scale(1 1) rotate(0) translate(4 91)">
<title>src/root&#45;addons/analysis_codes/DisplayClustering.h</title>
<polygon fill="white" stroke="none" points="-4,4 -4,-91 149,-91 149,4 -4,4"/>
<!-- Node0 -->
<g id="node1" class="node"><title>Node0</title>
<polygon fill="#bfbfbf" stroke="black" points="0,-56.5 0,-86.5 145,-86.5 145,-56.5 0,-56.5"/>
<text text-anchor="start" x="8" y="-74.5" font-family="Helvetica,sans-Serif" font-size="10.00">src/root&#45;addons/analysis</text>
<text text-anchor="middle" x="72.5" y="-63.5" font-family="Helvetica,sans-Serif" font-size="10.00">_codes/DisplayClustering.h</text>
</g>
<!-- Node1 -->
<g id="node2" class="node"><title>Node1</title>
<polygon fill="white" stroke="#bfbfbf" points="3.5,-0.5 3.5,-19.5 61.5,-19.5 61.5,-0.5 3.5,-0.5"/>
<text text-anchor="middle" x="32.5" y="-7.5" font-family="Helvetica,sans-Serif" font-size="10.00">Rtypes.h</text>
</g>
<!-- Node0&#45;&gt;Node1 -->
<g id="edge1" class="edge"><title>Node0&#45;&gt;Node1</title>
<path fill="none" stroke="midnightblue" d="M63.0206,-56.3993C57.3279,-47.9315 50.0456,-37.0991 44.0222,-28.1393"/>
<polygon fill="midnightblue" stroke="midnightblue" points="46.8042,-26.0041 38.3204,-19.6578 40.9949,-29.9095 46.8042,-26.0041"/>
</g>
<!-- Node2 -->
<g id="node3" class="node"><title>Node2</title>
<polygon fill="white" stroke="#bfbfbf" points="80,-0.5 80,-19.5 145,-19.5 145,-0.5 80,-0.5"/>
<text text-anchor="middle" x="112.5" y="-7.5" font-family="Helvetica,sans-Serif" font-size="10.00">TCanvas.h</text>
</g>
<!-- Node0&#45;&gt;Node2 -->
<g id="edge2" class="edge"><title>Node0&#45;&gt;Node2</title>
<path fill="none" stroke="midnightblue" d="M81.9794,-56.3993C87.6721,-47.9315 94.9544,-37.0991 100.978,-28.1393"/>
<polygon fill="midnightblue" stroke="midnightblue" points="104.005,-29.9095 106.68,-19.6578 98.1958,-26.0041 104.005,-29.9095"/>
</g>
</g>
</svg>
