<?xml version="1.0" encoding="UTF-8" standalone="no"?>
<!DOCTYPE svg PUBLIC "-//W3C//DTD SVG 1.1//EN"
 "http://www.w3.org/Graphics/SVG/1.1/DTD/svg11.dtd">
<!-- Generated by graphviz version 2.38.0 (20140413.2041)
 -->
<!-- Title: src/calibration/gui/EditorCanvas.h Pages: 1 -->
<svg width="1260pt" height="386pt"
 viewBox="0.00 0.00 1259.69 386.00" xmlns="http://www.w3.org/2000/svg" xmlns:xlink="http://www.w3.org/1999/xlink">
<g id="graph0" class="graph" transform="scale(1 1) rotate(0) translate(4 382)">
<title>src/calibration/gui/EditorCanvas.h</title>
<polygon fill="white" stroke="none" points="-4,4 -4,-382 1255.69,-382 1255.69,4 -4,4"/>
<!-- Node0 -->
<g id="node1" class="node"><title>Node0</title>
<polygon fill="#bfbfbf" stroke="black" points="709.687,-347.5 709.687,-377.5 810.687,-377.5 810.687,-347.5 709.687,-347.5"/>
<text text-anchor="start" x="717.687" y="-365.5" font-family="Helvetica,sans-Serif" font-size="10.00">src/calibration/gui</text>
<text text-anchor="middle" x="760.187" y="-354.5" font-family="Helvetica,sans-Serif" font-size="10.00">/EditorCanvas.h</text>
</g>
<!-- Node1 -->
<g id="node2" class="node"><title>Node1</title>
<g id="a_node2"><a xlink:href="_editor_8h.html" target="_top" xlink:title="calibration/Editor.h">
<polygon fill="white" stroke="black" points="310.687,-291.5 310.687,-310.5 415.687,-310.5 415.687,-291.5 310.687,-291.5"/>
<text text-anchor="middle" x="363.187" y="-298.5" font-family="Helvetica,sans-Serif" font-size="10.00">calibration/Editor.h</text>
</a>
</g>
</g>
<!-- Node0&#45;&gt;Node1 -->
<g id="edge1" class="edge"><title>Node0&#45;&gt;Node1</title>
<path fill="none" stroke="midnightblue" d="M709.503,-353.904C637.184,-343.065 504.474,-323.175 426.007,-311.415"/>
<polygon fill="midnightblue" stroke="midnightblue" points="426.185,-307.903 415.777,-309.882 425.147,-314.825 426.185,-307.903"/>
</g>
<!-- Node4 -->
<g id="node5" class="node"><title>Node4</title>
<polygon fill="white" stroke="#bfbfbf" points="686.187,-112.5 686.187,-131.5 744.187,-131.5 744.187,-112.5 686.187,-112.5"/>
<text text-anchor="middle" x="715.187" y="-119.5" font-family="Helvetica,sans-Serif" font-size="10.00">Rtypes.h</text>
</g>
<!-- Node0&#45;&gt;Node4 -->
<g id="edge25" class="edge"><title>Node0&#45;&gt;Node4</title>
<path fill="none" stroke="midnightblue" d="M757.506,-347.295C749.78,-306.346 727.46,-188.051 718.739,-141.826"/>
<polygon fill="midnightblue" stroke="midnightblue" points="722.168,-141.123 716.875,-131.946 715.289,-142.421 722.168,-141.123"/>
</g>
<!-- Node20 -->
<g id="node21" class="node"><title>Node20</title>
<polygon fill="white" stroke="#bfbfbf" points="762.687,-112.5 762.687,-131.5 825.687,-131.5 825.687,-112.5 762.687,-112.5"/>
<text text-anchor="middle" x="794.187" y="-119.5" font-family="Helvetica,sans-Serif" font-size="10.00">functional</text>
</g>
<!-- Node0&#45;&gt;Node20 -->
<g id="edge24" class="edge"><title>Node0&#45;&gt;Node20</title>
<path fill="none" stroke="midnightblue" d="M760.498,-347.252C761.438,-314.991 765.126,-234.03 779.187,-168 781.095,-159.039 784.177,-149.368 787.053,-141.297"/>
<polygon fill="midnightblue" stroke="midnightblue" points="790.379,-142.394 790.598,-131.801 783.822,-139.946 790.379,-142.394"/>
</g>
<!-- Node21 -->
<g id="node22" class="node"><title>Node21</title>
<g id="a_node22"><a xlink:href="_root_draw_8h.html" target="_top" xlink:title="analysis/plot/RootDraw.h">
<polygon fill="white" stroke="black" points="788.187,-168.5 788.187,-187.5 920.187,-187.5 920.187,-168.5 788.187,-168.5"/>
<text text-anchor="middle" x="854.187" y="-175.5" font-family="Helvetica,sans-Serif" font-size="10.00">analysis/plot/RootDraw.h</text>
</a>
</g>
</g>
<!-- Node0&#45;&gt;Node21 -->
<g id="edge26" class="edge"><title>Node0&#45;&gt;Node21</title>
<path fill="none" stroke="midnightblue" d="M767.407,-347.483C784.304,-314.676 826.399,-232.949 845.047,-196.745"/>
<polygon fill="midnightblue" stroke="midnightblue" points="848.177,-198.311 849.644,-187.819 841.954,-195.106 848.177,-198.311"/>
</g>
<!-- Node30 -->
<g id="node31" class="node"><title>Node30</title>
<g id="a_node31"><a xlink:href="_indicator__traits_8h.html" target="_top" xlink:title="calibration/gui/Indicator\l_traits.h">
<polygon fill="white" stroke="black" points="566.187,-224.5 566.187,-254.5 694.187,-254.5 694.187,-224.5 566.187,-224.5"/>
<text text-anchor="start" x="574.187" y="-242.5" font-family="Helvetica,sans-Serif" font-size="10.00">calibration/gui/Indicator</text>
<text text-anchor="middle" x="630.187" y="-231.5" font-family="Helvetica,sans-Serif" font-size="10.00">_traits.h</text>
</a>
</g>
</g>
<!-- Node0&#45;&gt;Node30 -->
<g id="edge46" class="edge"><title>Node0&#45;&gt;Node30</title>
<path fill="none" stroke="midnightblue" d="M745.02,-347.383C722.318,-326.253 679.35,-286.26 652.896,-261.637"/>
<polygon fill="midnightblue" stroke="midnightblue" points="654.962,-258.778 645.257,-254.527 650.192,-263.902 654.962,-258.778"/>
</g>
<!-- Node31 -->
<g id="node32" class="node"><title>Node31</title>
<polygon fill="white" stroke="#bfbfbf" points="826.687,-291.5 826.687,-310.5 891.687,-310.5 891.687,-291.5 826.687,-291.5"/>
<text text-anchor="middle" x="859.187" y="-298.5" font-family="Helvetica,sans-Serif" font-size="10.00">TCanvas.h</text>
</g>
<!-- Node0&#45;&gt;Node31 -->
<g id="edge48" class="edge"><title>Node0&#45;&gt;Node31</title>
<path fill="none" stroke="midnightblue" d="M783.648,-347.399C799.517,-337.862 820.377,-325.325 836.155,-315.842"/>
<polygon fill="midnightblue" stroke="midnightblue" points="838.013,-318.809 844.781,-310.658 834.407,-312.809 838.013,-318.809"/>
</g>
<!-- Node32 -->
<g id="node33" class="node"><title>Node32</title>
<polygon fill="white" stroke="#bfbfbf" points="909.687,-291.5 909.687,-310.5 1048.69,-310.5 1048.69,-291.5 909.687,-291.5"/>
<text text-anchor="middle" x="979.187" y="-298.5" font-family="Helvetica,sans-Serif" font-size="10.00">TRootEmbeddedCanvas.h</text>
</g>
<!-- Node0&#45;&gt;Node32 -->
<g id="edge49" class="edge"><title>Node0&#45;&gt;Node32</title>
<path fill="none" stroke="midnightblue" d="M810.705,-347.775C849.385,-337.266 902.062,-322.954 938.158,-313.147"/>
<polygon fill="midnightblue" stroke="midnightblue" points="939.142,-316.507 947.874,-310.507 937.306,-309.752 939.142,-316.507"/>
</g>
<!-- Node2 -->
<g id="node3" class="node"><title>Node2</title>
<g id="a_node3"><a xlink:href="_t_calibration_data_8h.html" target="_top" xlink:title="tree/TCalibrationData.h">
<polygon fill="white" stroke="black" points="61.6866,-230 61.6866,-249 188.687,-249 188.687,-230 61.6866,-230"/>
<text text-anchor="middle" x="125.187" y="-237" font-family="Helvetica,sans-Serif" font-size="10.00">tree/TCalibrationData.h</text>
</a>
</g>
</g>
<!-- Node1&#45;&gt;Node2 -->
<g id="edge2" class="edge"><title>Node1&#45;&gt;Node2</title>
<path fill="none" stroke="midnightblue" d="M329.087,-291.475C286.936,-280.937 215.132,-262.986 168.953,-251.441"/>
<polygon fill="midnightblue" stroke="midnightblue" points="169.773,-248.039 159.223,-249.009 168.076,-254.83 169.773,-248.039"/>
</g>
<!-- Node3 -->
<g id="node4" class="node"><title>Node3</title>
<g id="a_node4"><a xlink:href="_t_i_d_8h.html" target="_top" xlink:title="TID.h">
<polygon fill="white" stroke="black" points="373.687,-168.5 373.687,-187.5 414.687,-187.5 414.687,-168.5 373.687,-168.5"/>
<text text-anchor="middle" x="394.187" y="-175.5" font-family="Helvetica,sans-Serif" font-size="10.00">TID.h</text>
</a>
</g>
</g>
<!-- Node2&#45;&gt;Node3 -->
<g id="edge3" class="edge"><title>Node2&#45;&gt;Node3</title>
<path fill="none" stroke="midnightblue" d="M163.728,-229.975C217.595,-218.06 314.31,-196.668 363.559,-185.774"/>
<polygon fill="midnightblue" stroke="midnightblue" points="364.59,-189.131 373.598,-183.554 363.078,-182.296 364.59,-189.131"/>
</g>
<!-- Node7 -->
<g id="node8" class="node"><title>Node7</title>
<polygon fill="white" stroke="#bfbfbf" points="328.187,-0.5 328.187,-19.5 372.187,-19.5 372.187,-0.5 328.187,-0.5"/>
<text text-anchor="middle" x="350.187" y="-7.5" font-family="Helvetica,sans-Serif" font-size="10.00">string</text>
</g>
<!-- Node2&#45;&gt;Node7 -->
<g id="edge22" class="edge"><title>Node2&#45;&gt;Node7</title>
<path fill="none" stroke="midnightblue" d="M76.2416,-229.934C35.141,-220.257 -14.1657,-201.331 4.18665,-168 68.173,-51.7912 245.157,-21.2746 318.112,-13.5307"/>
<polygon fill="midnightblue" stroke="midnightblue" points="318.487,-17.0108 328.095,-12.546 317.8,-10.0446 318.487,-17.0108"/>
</g>
<!-- Node12 -->
<g id="node13" class="node"><title>Node12</title>
<polygon fill="white" stroke="#bfbfbf" points="274.187,-56.5 274.187,-75.5 318.187,-75.5 318.187,-56.5 274.187,-56.5"/>
<text text-anchor="middle" x="296.187" y="-63.5" font-family="Helvetica,sans-Serif" font-size="10.00">ctime</text>
</g>
<!-- Node2&#45;&gt;Node12 -->
<g id="edge23" class="edge"><title>Node2&#45;&gt;Node12</title>
<path fill="none" stroke="midnightblue" d="M122.967,-229.911C117.749,-207.574 107.221,-146.975 136.187,-112 152.39,-92.4344 221.996,-78.495 263.878,-71.6984"/>
<polygon fill="midnightblue" stroke="midnightblue" points="264.545,-75.1367 273.879,-70.1253 263.457,-68.2217 264.545,-75.1367"/>
</g>
<!-- Node19 -->
<g id="node20" class="node"><title>Node19</title>
<g id="a_node20"><a xlink:href="_git_info_8h.html" target="_top" xlink:title="base/GitInfo.h">
<polygon fill="white" stroke="black" points="13.6866,-168.5 13.6866,-187.5 96.6866,-187.5 96.6866,-168.5 13.6866,-168.5"/>
<text text-anchor="middle" x="55.1866" y="-175.5" font-family="Helvetica,sans-Serif" font-size="10.00">base/GitInfo.h</text>
</a>
</g>
</g>
<!-- Node2&#45;&gt;Node19 -->
<g id="edge20" class="edge"><title>Node2&#45;&gt;Node19</title>
<path fill="none" stroke="midnightblue" d="M115.157,-229.975C104.138,-220.608 86.2265,-205.384 72.8432,-194.008"/>
<polygon fill="midnightblue" stroke="midnightblue" points="75.0835,-191.319 65.1973,-187.509 70.55,-196.652 75.0835,-191.319"/>
</g>
<!-- Node3&#45;&gt;Node4 -->
<g id="edge4" class="edge"><title>Node3&#45;&gt;Node4</title>
<path fill="none" stroke="midnightblue" d="M414.876,-174.252C460.288,-168.104 572.282,-152.32 675.788,-132.16"/>
<polygon fill="midnightblue" stroke="midnightblue" points="676.639,-135.56 685.776,-130.195 675.288,-128.691 676.639,-135.56"/>
</g>
<!-- Node5 -->
<g id="node6" class="node"><title>Node5</title>
<g id="a_node6"><a xlink:href="base_2std__ext_2_time_8h.html" target="_top" xlink:title="base/std_ext/time.h">
<polygon fill="white" stroke="black" points="470.187,-112.5 470.187,-131.5 582.187,-131.5 582.187,-112.5 470.187,-112.5"/>
<text text-anchor="middle" x="526.187" y="-119.5" font-family="Helvetica,sans-Serif" font-size="10.00">base/std_ext/time.h</text>
</a>
</g>
</g>
<!-- Node3&#45;&gt;Node5 -->
<g id="edge5" class="edge"><title>Node3&#45;&gt;Node5</title>
<path fill="none" stroke="midnightblue" d="M414.812,-168.562C436.576,-159.659 471.099,-145.536 495.942,-135.373"/>
<polygon fill="midnightblue" stroke="midnightblue" points="497.341,-138.582 505.271,-131.556 494.69,-132.103 497.341,-138.582"/>
</g>
<!-- Node3&#45;&gt;Node12 -->
<g id="edge19" class="edge"><title>Node3&#45;&gt;Node12</title>
<path fill="none" stroke="midnightblue" d="M373.383,-170.21C355.453,-163.322 330.159,-150.949 315.187,-132 304.604,-118.607 299.914,-99.4981 297.836,-85.4649"/>
<polygon fill="midnightblue" stroke="midnightblue" points="301.309,-85.0286 296.667,-75.5047 294.357,-85.8445 301.309,-85.0286"/>
</g>
<!-- Node13 -->
<g id="node14" class="node"><title>Node13</title>
<polygon fill="white" stroke="#bfbfbf" points="324.187,-112.5 324.187,-131.5 392.187,-131.5 392.187,-112.5 324.187,-112.5"/>
<text text-anchor="middle" x="358.187" y="-119.5" font-family="Helvetica,sans-Serif" font-size="10.00">type_traits</text>
</g>
<!-- Node3&#45;&gt;Node13 -->
<g id="edge13" class="edge"><title>Node3&#45;&gt;Node13</title>
<path fill="none" stroke="midnightblue" d="M388.242,-168.083C383.209,-160.534 375.85,-149.495 369.673,-140.23"/>
<polygon fill="midnightblue" stroke="midnightblue" points="372.48,-138.13 364.021,-131.751 366.656,-142.013 372.48,-138.13"/>
</g>
<!-- Node14 -->
<g id="node15" class="node"><title>Node14</title>
<polygon fill="white" stroke="#bfbfbf" points="410.687,-112.5 410.687,-131.5 451.687,-131.5 451.687,-112.5 410.687,-112.5"/>
<text text-anchor="middle" x="431.187" y="-119.5" font-family="Helvetica,sans-Serif" font-size="10.00">tuple</text>
</g>
<!-- Node3&#45;&gt;Node14 -->
<g id="edge14" class="edge"><title>Node3&#45;&gt;Node14</title>
<path fill="none" stroke="midnightblue" d="M400.296,-168.083C405.469,-160.534 413.033,-149.495 419.381,-140.23"/>
<polygon fill="midnightblue" stroke="midnightblue" points="422.425,-141.979 425.191,-131.751 416.651,-138.022 422.425,-141.979"/>
</g>
<!-- Node15 -->
<g id="node16" class="node"><title>Node15</title>
<polygon fill="white" stroke="#bfbfbf" points="145.687,-112.5 145.687,-131.5 194.687,-131.5 194.687,-112.5 145.687,-112.5"/>
<text text-anchor="middle" x="170.187" y="-119.5" font-family="Helvetica,sans-Serif" font-size="10.00">cstdint</text>
</g>
<!-- Node3&#45;&gt;Node15 -->
<g id="edge15" class="edge"><title>Node3&#45;&gt;Node15</title>
<path fill="none" stroke="midnightblue" d="M373.496,-172.374C340.031,-164.839 271.733,-149.242 204.878,-132.372"/>
<polygon fill="midnightblue" stroke="midnightblue" points="205.582,-128.94 195.028,-129.875 203.861,-135.725 205.582,-128.94"/>
</g>
<!-- Node16 -->
<g id="node17" class="node"><title>Node16</title>
<polygon fill="white" stroke="#bfbfbf" points="921.187,-0.5 921.187,-19.5 985.187,-19.5 985.187,-0.5 921.187,-0.5"/>
<text text-anchor="middle" x="953.187" y="-7.5" font-family="Helvetica,sans-Serif" font-size="10.00">stdexcept</text>
</g>
<!-- Node3&#45;&gt;Node16 -->
<g id="edge16" class="edge"><title>Node3&#45;&gt;Node16</title>
<path fill="none" stroke="midnightblue" d="M414.827,-174.096C451.262,-168.576 529.004,-155.018 591.187,-132 609.085,-125.375 611.265,-118.561 629.187,-112 698.855,-86.496 721.322,-97.9632 792.187,-76 839.991,-61.184 893.509,-38.2452 925.221,-23.9519"/>
<polygon fill="midnightblue" stroke="midnightblue" points="927.061,-26.9604 934.716,-19.6362 924.164,-20.5878 927.061,-26.9604"/>
</g>
<!-- Node17 -->
<g id="node18" class="node"><title>Node17</title>
<polygon fill="white" stroke="#bfbfbf" points="638.187,-112.5 638.187,-131.5 668.187,-131.5 668.187,-112.5 638.187,-112.5"/>
<text text-anchor="middle" x="653.187" y="-119.5" font-family="Helvetica,sans-Serif" font-size="10.00">list</text>
</g>
<!-- Node3&#45;&gt;Node17 -->
<g id="edge17" class="edge"><title>Node3&#45;&gt;Node17</title>
<path fill="none" stroke="midnightblue" d="M414.969,-173.706C455.507,-167.111 547.847,-151.254 624.187,-132 625.452,-131.681 626.743,-131.339 628.044,-130.983"/>
<polygon fill="midnightblue" stroke="midnightblue" points="629.318,-134.256 637.923,-128.075 627.341,-127.541 629.318,-134.256"/>
</g>
<!-- Node18 -->
<g id="node19" class="node"><title>Node18</title>
<polygon fill="white" stroke="#bfbfbf" points="212.687,-112.5 212.687,-131.5 267.687,-131.5 267.687,-112.5 212.687,-112.5"/>
<text text-anchor="middle" x="240.187" y="-119.5" font-family="Helvetica,sans-Serif" font-size="10.00">iomanip</text>
</g>
<!-- Node3&#45;&gt;Node18 -->
<g id="edge18" class="edge"><title>Node3&#45;&gt;Node18</title>
<path fill="none" stroke="midnightblue" d="M373.418,-169.717C348.043,-160.82 304.756,-145.641 274.428,-135.007"/>
<polygon fill="midnightblue" stroke="midnightblue" points="275.279,-131.596 264.684,-131.59 272.963,-138.202 275.279,-131.596"/>
</g>
<!-- Node6 -->
<g id="node7" class="node"><title>Node6</title>
<g id="a_node7"><a xlink:href="string_8h.html" target="_top" xlink:title="base/std_ext/string.h">
<polygon fill="white" stroke="black" points="666.687,-56.5 666.687,-75.5 783.687,-75.5 783.687,-56.5 666.687,-56.5"/>
<text text-anchor="middle" x="725.187" y="-63.5" font-family="Helvetica,sans-Serif" font-size="10.00">base/std_ext/string.h</text>
</a>
</g>
</g>
<!-- Node5&#45;&gt;Node6 -->
<g id="edge6" class="edge"><title>Node5&#45;&gt;Node6</title>
<path fill="none" stroke="midnightblue" d="M557.719,-112.444C591.779,-103.201 646.193,-88.4356 683.702,-78.2572"/>
<polygon fill="midnightblue" stroke="midnightblue" points="685.068,-81.5132 693.802,-75.5164 683.234,-74.7575 685.068,-81.5132"/>
</g>
<!-- Node11 -->
<g id="node12" class="node"><title>Node11</title>
<polygon fill="white" stroke="#bfbfbf" points="501.687,-56.5 501.687,-75.5 550.687,-75.5 550.687,-56.5 501.687,-56.5"/>
<text text-anchor="middle" x="526.187" y="-63.5" font-family="Helvetica,sans-Serif" font-size="10.00">cstring</text>
</g>
<!-- Node5&#45;&gt;Node11 -->
<g id="edge11" class="edge"><title>Node5&#45;&gt;Node11</title>
<path fill="none" stroke="midnightblue" d="M526.187,-112.083C526.187,-105.006 526.187,-94.8611 526.187,-85.9865"/>
<polygon fill="midnightblue" stroke="midnightblue" points="529.687,-85.751 526.187,-75.7511 522.687,-85.7511 529.687,-85.751"/>
</g>
<!-- Node5&#45;&gt;Node12 -->
<g id="edge12" class="edge"><title>Node5&#45;&gt;Node12</title>
<path fill="none" stroke="midnightblue" d="M489.742,-112.444C445.158,-101.976 370.399,-84.4239 328.024,-74.4748"/>
<polygon fill="midnightblue" stroke="midnightblue" points="328.773,-71.0556 318.238,-72.1772 327.173,-77.8703 328.773,-71.0556"/>
</g>
<!-- Node6&#45;&gt;Node7 -->
<g id="edge7" class="edge"><title>Node6&#45;&gt;Node7</title>
<path fill="none" stroke="midnightblue" d="M666.593,-56.5625C586.56,-45.0377 445.794,-24.7675 382.553,-15.6608"/>
<polygon fill="midnightblue" stroke="midnightblue" points="382.78,-12.1574 372.383,-14.1963 381.782,-19.0859 382.78,-12.1574"/>
</g>
<!-- Node8 -->
<g id="node9" class="node"><title>Node8</title>
<polygon fill="white" stroke="#bfbfbf" points="767.187,-0.5 767.187,-19.5 823.187,-19.5 823.187,-0.5 767.187,-0.5"/>
<text text-anchor="middle" x="795.187" y="-7.5" font-family="Helvetica,sans-Serif" font-size="10.00">sstream</text>
</g>
<!-- Node6&#45;&gt;Node8 -->
<g id="edge8" class="edge"><title>Node6&#45;&gt;Node8</title>
<path fill="none" stroke="midnightblue" d="M736.433,-56.324C746.984,-48.1849 762.987,-35.8395 775.629,-26.0874"/>
<polygon fill="midnightblue" stroke="midnightblue" points="777.955,-28.7132 783.735,-19.8339 773.68,-23.1707 777.955,-28.7132"/>
</g>
<!-- Node9 -->
<g id="node10" class="node"><title>Node9</title>
<polygon fill="white" stroke="#bfbfbf" points="841.187,-0.5 841.187,-19.5 903.187,-19.5 903.187,-0.5 841.187,-0.5"/>
<text text-anchor="middle" x="872.187" y="-7.5" font-family="Helvetica,sans-Serif" font-size="10.00">algorithm</text>
</g>
<!-- Node6&#45;&gt;Node9 -->
<g id="edge9" class="edge"><title>Node6&#45;&gt;Node9</title>
<path fill="none" stroke="midnightblue" d="M748.479,-56.4435C772.994,-47.4381 811.783,-33.1891 839.387,-23.049"/>
<polygon fill="midnightblue" stroke="midnightblue" points="840.823,-26.25 849.003,-19.5164 838.409,-19.6793 840.823,-26.25"/>
</g>
<!-- Node10 -->
<g id="node11" class="node"><title>Node10</title>
<polygon fill="white" stroke="#bfbfbf" points="701.687,-0.5 701.687,-19.5 748.687,-19.5 748.687,-0.5 701.687,-0.5"/>
<text text-anchor="middle" x="725.187" y="-7.5" font-family="Helvetica,sans-Serif" font-size="10.00">vector</text>
</g>
<!-- Node6&#45;&gt;Node10 -->
<g id="edge10" class="edge"><title>Node6&#45;&gt;Node10</title>
<path fill="none" stroke="midnightblue" d="M725.187,-56.083C725.187,-49.0059 725.187,-38.8611 725.187,-29.9865"/>
<polygon fill="midnightblue" stroke="midnightblue" points="728.687,-29.751 725.187,-19.7511 721.687,-29.7511 728.687,-29.751"/>
</g>
<!-- Node19&#45;&gt;Node7 -->
<g id="edge21" class="edge"><title>Node19&#45;&gt;Node7</title>
<path fill="none" stroke="midnightblue" d="M62.1029,-168.412C73.321,-154.931 96.7068,-128.625 121.187,-112 185.685,-68.1978 272.268,-36.1803 318.292,-20.946"/>
<polygon fill="midnightblue" stroke="midnightblue" points="319.587,-24.2051 328.011,-17.7796 317.419,-17.5494 319.587,-24.2051"/>
</g>
<!-- Node21&#45;&gt;Node4 -->
<g id="edge45" class="edge"><title>Node21&#45;&gt;Node4</title>
<path fill="none" stroke="midnightblue" d="M832.162,-168.444C809.083,-159.478 772.625,-145.314 746.546,-135.183"/>
<polygon fill="midnightblue" stroke="midnightblue" points="747.697,-131.875 737.109,-131.516 745.162,-138.4 747.697,-131.875"/>
</g>
<!-- Node21&#45;&gt;Node7 -->
<g id="edge27" class="edge"><title>Node21&#45;&gt;Node7</title>
<path fill="none" stroke="midnightblue" d="M854.168,-168.387C853.642,-154.38 850.456,-126.751 834.187,-112 774.714,-58.0793 735.789,-92.3142 657.187,-76 556.96,-55.1974 438.481,-29.9167 382.532,-17.9372"/>
<polygon fill="midnightblue" stroke="midnightblue" points="383.027,-14.4638 372.516,-15.7915 381.561,-21.3085 383.027,-14.4638"/>
</g>
<!-- Node21&#45;&gt;Node10 -->
<g id="edge29" class="edge"><title>Node21&#45;&gt;Node10</title>
<path fill="none" stroke="midnightblue" d="M859.633,-168.119C866.829,-155.146 877.558,-130.545 868.187,-112 861.667,-99.0975 785.861,-49.5917 747.351,-25.0124"/>
<polygon fill="midnightblue" stroke="midnightblue" points="749.179,-22.0273 738.863,-19.6132 745.422,-27.9336 749.179,-22.0273"/>
</g>
<!-- Node21&#45;&gt;Node17 -->
<g id="edge28" class="edge"><title>Node21&#45;&gt;Node17</title>
<path fill="none" stroke="midnightblue" d="M815.52,-168.46C781.545,-160.671 730.635,-148.309 678.149,-132.049"/>
<polygon fill="midnightblue" stroke="midnightblue" points="678.924,-128.623 668.335,-128.967 676.827,-135.302 678.924,-128.623"/>
</g>
<!-- Node21&#45;&gt;Node20 -->
<g id="edge31" class="edge"><title>Node21&#45;&gt;Node20</title>
<path fill="none" stroke="midnightblue" d="M844.547,-168.324C835.677,-160.341 822.312,-148.313 811.579,-138.653"/>
<polygon fill="midnightblue" stroke="midnightblue" points="813.776,-135.922 804.002,-131.834 809.094,-141.125 813.776,-135.922"/>
</g>
<!-- Node22 -->
<g id="node23" class="node"><title>Node22</title>
<polygon fill="white" stroke="#bfbfbf" points="1045.69,-112.5 1045.69,-131.5 1102.69,-131.5 1102.69,-112.5 1045.69,-112.5"/>
<text text-anchor="middle" x="1074.19" y="-119.5" font-family="Helvetica,sans-Serif" font-size="10.00">memory</text>
</g>
<!-- Node21&#45;&gt;Node22 -->
<g id="edge30" class="edge"><title>Node21&#45;&gt;Node22</title>
<path fill="none" stroke="midnightblue" d="M889.046,-168.444C929.006,-158.635 994.306,-142.607 1035.72,-132.442"/>
<polygon fill="midnightblue" stroke="midnightblue" points="1036.57,-135.837 1045.45,-130.054 1034.9,-129.038 1036.57,-135.837"/>
</g>
<!-- Node23 -->
<g id="node24" class="node"><title>Node23</title>
<g id="a_node24"><a xlink:href="_bin_settings_8h.html" target="_top" xlink:title="base/BinSettings.h">
<polygon fill="white" stroke="black" points="920.687,-112.5 920.687,-131.5 1027.69,-131.5 1027.69,-112.5 920.687,-112.5"/>
<text text-anchor="middle" x="974.187" y="-119.5" font-family="Helvetica,sans-Serif" font-size="10.00">base/BinSettings.h</text>
</a>
</g>
</g>
<!-- Node21&#45;&gt;Node23 -->
<g id="edge32" class="edge"><title>Node21&#45;&gt;Node23</title>
<path fill="none" stroke="midnightblue" d="M873.201,-168.444C892.774,-159.636 923.494,-145.812 945.916,-135.722"/>
<polygon fill="midnightblue" stroke="midnightblue" points="947.578,-138.812 955.261,-131.516 944.706,-132.428 947.578,-138.812"/>
</g>
<!-- Node23&#45;&gt;Node10 -->
<g id="edge41" class="edge"><title>Node23&#45;&gt;Node10</title>
<path fill="none" stroke="midnightblue" d="M954.648,-112.368C910.919,-93.0507 805.001,-46.2592 753.817,-23.6481"/>
<polygon fill="midnightblue" stroke="midnightblue" points="755.196,-20.4309 744.634,-19.5914 752.367,-26.8339 755.196,-20.4309"/>
</g>
<!-- Node23&#45;&gt;Node16 -->
<g id="edge42" class="edge"><title>Node23&#45;&gt;Node16</title>
<path fill="none" stroke="midnightblue" d="M977.411,-112.406C981.662,-99.7922 987.965,-75.6331 982.187,-56 979.174,-45.7645 973.032,-35.6599 967.173,-27.627"/>
<polygon fill="midnightblue" stroke="midnightblue" points="969.772,-25.2694 960.86,-19.5413 964.255,-29.5773 969.772,-25.2694"/>
</g>
<!-- Node24 -->
<g id="node25" class="node"><title>Node24</title>
<g id="a_node25"><a xlink:href="interval_8h.html" target="_top" xlink:title="base/interval.h">
<polygon fill="white" stroke="black" points="1030.69,-56.5 1030.69,-75.5 1117.69,-75.5 1117.69,-56.5 1030.69,-56.5"/>
<text text-anchor="middle" x="1074.19" y="-63.5" font-family="Helvetica,sans-Serif" font-size="10.00">base/interval.h</text>
</a>
</g>
</g>
<!-- Node23&#45;&gt;Node24 -->
<g id="edge33" class="edge"><title>Node23&#45;&gt;Node24</title>
<path fill="none" stroke="midnightblue" d="M990.253,-112.324C1006.14,-103.743 1030.69,-90.486 1049.15,-80.5224"/>
<polygon fill="midnightblue" stroke="midnightblue" points="1051.02,-83.4857 1058.16,-75.6545 1047.7,-77.3264 1051.02,-83.4857"/>
</g>
<!-- Node27 -->
<g id="node28" class="node"><title>Node27</title>
<polygon fill="white" stroke="#bfbfbf" points="1198.69,-0.5 1198.69,-19.5 1251.69,-19.5 1251.69,-0.5 1198.69,-0.5"/>
<text text-anchor="middle" x="1225.19" y="-7.5" font-family="Helvetica,sans-Serif" font-size="10.00">istream</text>
</g>
<!-- Node23&#45;&gt;Node27 -->
<g id="edge43" class="edge"><title>Node23&#45;&gt;Node27</title>
<path fill="none" stroke="midnightblue" d="M1014.72,-112.429C1046.03,-105.001 1089.99,-92.795 1126.19,-76 1155.97,-62.1797 1187.13,-40.3054 1206.35,-25.805"/>
<polygon fill="midnightblue" stroke="midnightblue" points="1208.72,-28.3941 1214.53,-19.5318 1204.46,-22.8391 1208.72,-28.3941"/>
</g>
<!-- Node29 -->
<g id="node30" class="node"><title>Node29</title>
<polygon fill="white" stroke="#bfbfbf" points="916.687,-56.5 916.687,-75.5 973.687,-75.5 973.687,-56.5 916.687,-56.5"/>
<text text-anchor="middle" x="945.187" y="-63.5" font-family="Helvetica,sans-Serif" font-size="10.00">ostream</text>
</g>
<!-- Node23&#45;&gt;Node29 -->
<g id="edge44" class="edge"><title>Node23&#45;&gt;Node29</title>
<path fill="none" stroke="midnightblue" d="M969.398,-112.083C965.428,-104.691 959.662,-93.9533 954.752,-84.8111"/>
<polygon fill="midnightblue" stroke="midnightblue" points="957.701,-82.9051 949.886,-75.7511 951.534,-86.217 957.701,-82.9051"/>
</g>
<!-- Node24&#45;&gt;Node8 -->
<g id="edge39" class="edge"><title>Node24&#45;&gt;Node8</title>
<path fill="none" stroke="midnightblue" d="M1030.33,-57.5882C983.821,-49.5644 907.998,-36.0117 833.461,-20.1844"/>
<polygon fill="midnightblue" stroke="midnightblue" points="833.943,-16.7083 823.432,-18.0391 832.478,-23.5535 833.943,-16.7083"/>
</g>
<!-- Node24&#45;&gt;Node9 -->
<g id="edge35" class="edge"><title>Node24&#45;&gt;Node9</title>
<path fill="none" stroke="midnightblue" d="M1042.18,-56.4435C1007.25,-47.107 951.245,-32.1343 913.139,-21.9478"/>
<polygon fill="midnightblue" stroke="midnightblue" points="913.945,-18.5404 903.381,-19.339 912.137,-25.3029 913.945,-18.5404"/>
</g>
<!-- Node24&#45;&gt;Node16 -->
<g id="edge36" class="edge"><title>Node24&#45;&gt;Node16</title>
<path fill="none" stroke="midnightblue" d="M1055.01,-56.4435C1035.28,-47.6356 1004.3,-33.8116 981.693,-23.722"/>
<polygon fill="midnightblue" stroke="midnightblue" points="982.828,-20.3957 972.27,-19.5164 979.975,-26.788 982.828,-20.3957"/>
</g>
<!-- Node25 -->
<g id="node26" class="node"><title>Node25</title>
<g id="a_node26"><a xlink:href="types_8h.html" target="_top" xlink:title="types.h">
<polygon fill="white" stroke="black" points="1003.19,-0.5 1003.19,-19.5 1055.19,-19.5 1055.19,-0.5 1003.19,-0.5"/>
<text text-anchor="middle" x="1029.19" y="-7.5" font-family="Helvetica,sans-Serif" font-size="10.00">types.h</text>
</a>
</g>
</g>
<!-- Node24&#45;&gt;Node25 -->
<g id="edge34" class="edge"><title>Node24&#45;&gt;Node25</title>
<path fill="none" stroke="midnightblue" d="M1066.76,-56.083C1060.33,-48.3768 1050.88,-37.0333 1043.06,-27.6531"/>
<polygon fill="midnightblue" stroke="midnightblue" points="1045.57,-25.1927 1036.48,-19.7511 1040.19,-29.674 1045.57,-25.1927"/>
</g>
<!-- Node26 -->
<g id="node27" class="node"><title>Node26</title>
<polygon fill="white" stroke="#bfbfbf" points="1073.19,-0.5 1073.19,-19.5 1115.19,-19.5 1115.19,-0.5 1073.19,-0.5"/>
<text text-anchor="middle" x="1094.19" y="-7.5" font-family="Helvetica,sans-Serif" font-size="10.00">limits</text>
</g>
<!-- Node24&#45;&gt;Node26 -->
<g id="edge37" class="edge"><title>Node24&#45;&gt;Node26</title>
<path fill="none" stroke="midnightblue" d="M1077.49,-56.083C1080.17,-48.8486 1084.04,-38.4087 1087.37,-29.3968"/>
<polygon fill="midnightblue" stroke="midnightblue" points="1090.75,-30.3442 1090.95,-19.7511 1084.19,-27.9129 1090.75,-30.3442"/>
</g>
<!-- Node24&#45;&gt;Node27 -->
<g id="edge38" class="edge"><title>Node24&#45;&gt;Node27</title>
<path fill="none" stroke="midnightblue" d="M1098.11,-56.4435C1123.41,-47.3986 1163.49,-33.064 1191.87,-22.9158"/>
<polygon fill="midnightblue" stroke="midnightblue" points="1193.13,-26.1794 1201.37,-19.5164 1190.78,-19.5882 1193.13,-26.1794"/>
</g>
<!-- Node28 -->
<g id="node29" class="node"><title>Node28</title>
<polygon fill="white" stroke="#bfbfbf" points="1133.69,-0.5 1133.69,-19.5 1180.69,-19.5 1180.69,-0.5 1133.69,-0.5"/>
<text text-anchor="middle" x="1157.19" y="-7.5" font-family="Helvetica,sans-Serif" font-size="10.00">cmath</text>
</g>
<!-- Node24&#45;&gt;Node28 -->
<g id="edge40" class="edge"><title>Node24&#45;&gt;Node28</title>
<path fill="none" stroke="midnightblue" d="M1087.52,-56.324C1100.35,-47.979 1119.97,-35.2122 1135.13,-25.3524"/>
<polygon fill="midnightblue" stroke="midnightblue" points="1137.41,-28.0417 1143.88,-19.6545 1133.59,-22.1742 1137.41,-28.0417"/>
</g>
<!-- Node30&#45;&gt;Node4 -->
<g id="edge47" class="edge"><title>Node30&#45;&gt;Node4</title>
<path fill="none" stroke="midnightblue" d="M640.609,-224.337C656.342,-202.96 686.095,-162.53 702.874,-139.731"/>
<polygon fill="midnightblue" stroke="midnightblue" points="705.698,-141.798 708.807,-131.669 700.06,-137.649 705.698,-141.798"/>
</g>
</g>
</svg>
