<?xml version="1.0" encoding="UTF-8" standalone="no"?>
<!DOCTYPE svg PUBLIC "-//W3C//DTD SVG 1.1//EN"
 "http://www.w3.org/Graphics/SVG/1.1/DTD/svg11.dtd">
<!-- Generated by graphviz version 2.38.0 (20140413.2041)
 -->
<!-- Title: src/calibration/gui/EditorWindow.cc Pages: 1 -->
<svg width="1857pt" height="442pt"
 viewBox="0.00 0.00 1857.09 442.00" xmlns="http://www.w3.org/2000/svg" xmlns:xlink="http://www.w3.org/1999/xlink">
<g id="graph0" class="graph" transform="scale(1 1) rotate(0) translate(4 438)">
<title>src/calibration/gui/EditorWindow.cc</title>
<polygon fill="white" stroke="none" points="-4,4 -4,-438 1853.09,-438 1853.09,4 -4,4"/>
<!-- Node0 -->
<g id="node1" class="node"><title>Node0</title>
<polygon fill="#bfbfbf" stroke="black" points="1197.09,-403.5 1197.09,-433.5 1298.09,-433.5 1298.09,-403.5 1197.09,-403.5"/>
<text text-anchor="start" x="1205.09" y="-421.5" font-family="Helvetica,sans-Serif" font-size="10.00">src/calibration/gui</text>
<text text-anchor="middle" x="1247.59" y="-410.5" font-family="Helvetica,sans-Serif" font-size="10.00">/EditorWindow.cc</text>
</g>
<!-- Node1 -->
<g id="node2" class="node"><title>Node1</title>
<g id="a_node2"><a xlink:href="_editor_window_8h.html" target="_top" xlink:title="EditorWindow.h">
<polygon fill="white" stroke="black" points="475.591,-347.5 475.591,-366.5 563.591,-366.5 563.591,-347.5 475.591,-347.5"/>
<text text-anchor="middle" x="519.591" y="-354.5" font-family="Helvetica,sans-Serif" font-size="10.00">EditorWindow.h</text>
</a>
</g>
</g>
<!-- Node0&#45;&gt;Node1 -->
<g id="edge1" class="edge"><title>Node0&#45;&gt;Node1</title>
<path fill="none" stroke="midnightblue" d="M1196.98,-413.363C1064.83,-402.563 710.233,-373.581 573.967,-362.444"/>
<polygon fill="midnightblue" stroke="midnightblue" points="574.021,-358.937 563.769,-361.611 573.451,-365.914 574.021,-358.937"/>
</g>
<!-- Node7 -->
<g id="node8" class="node"><title>Node7</title>
<g id="a_node8"><a xlink:href="string_8h.html" target="_top" xlink:title="base/std_ext/string.h">
<polygon fill="white" stroke="black" points="517.091,-56.5 517.091,-75.5 634.091,-75.5 634.091,-56.5 517.091,-56.5"/>
<text text-anchor="middle" x="575.591" y="-63.5" font-family="Helvetica,sans-Serif" font-size="10.00">base/std_ext/string.h</text>
</a>
</g>
</g>
<!-- Node0&#45;&gt;Node7 -->
<g id="edge33" class="edge"><title>Node0&#45;&gt;Node7</title>
<path fill="none" stroke="midnightblue" d="M1240.68,-403.463C1224.84,-371.827 1185.51,-296.437 1162.59,-280 1088.82,-227.098 836.196,-243.794 764.591,-188 734.643,-164.665 754.773,-136.285 725.591,-112 702.697,-92.9481 671.93,-81.9614 644.219,-75.6261"/>
<polygon fill="midnightblue" stroke="midnightblue" points="644.677,-72.1454 634.169,-73.4961 643.226,-78.9934 644.677,-72.1454"/>
</g>
<!-- Node9 -->
<g id="node10" class="node"><title>Node9</title>
<polygon fill="white" stroke="#bfbfbf" points="530.591,-0.5 530.591,-19.5 586.591,-19.5 586.591,-0.5 530.591,-0.5"/>
<text text-anchor="middle" x="558.591" y="-7.5" font-family="Helvetica,sans-Serif" font-size="10.00">sstream</text>
</g>
<!-- Node0&#45;&gt;Node9 -->
<g id="edge73" class="edge"><title>Node0&#45;&gt;Node9</title>
<path fill="none" stroke="midnightblue" d="M1197.08,-417.79C1022.22,-418.345 443.571,-416.321 265.591,-367 153.501,-335.938 94.4671,-343.718 34.5906,-244 -77.1744,-57.8673 381.694,-19.7733 520.127,-12.5709"/>
<polygon fill="midnightblue" stroke="midnightblue" points="520.463,-16.0587 530.278,-12.0688 520.117,-9.0672 520.463,-16.0587"/>
</g>
<!-- Node14 -->
<g id="node15" class="node"><title>Node14</title>
<polygon fill="white" stroke="#bfbfbf" points="165.591,-112.5 165.591,-131.5 233.591,-131.5 233.591,-112.5 165.591,-112.5"/>
<text text-anchor="middle" x="199.591" y="-119.5" font-family="Helvetica,sans-Serif" font-size="10.00">type_traits</text>
</g>
<!-- Node0&#45;&gt;Node14 -->
<g id="edge72" class="edge"><title>Node0&#45;&gt;Node14</title>
<path fill="none" stroke="midnightblue" d="M1196.97,-416.257C1015.51,-411.594 404.015,-394.015 320.591,-367 276.843,-352.833 259.132,-349.239 233.591,-311 198.015,-257.74 196.764,-177.862 198.297,-141.825"/>
<polygon fill="midnightblue" stroke="midnightblue" points="201.796,-141.932 198.852,-131.754 194.807,-141.546 201.796,-141.932"/>
</g>
<!-- Node19 -->
<g id="node20" class="node"><title>Node19</title>
<polygon fill="white" stroke="#bfbfbf" points="252.091,-112.5 252.091,-131.5 307.091,-131.5 307.091,-112.5 252.091,-112.5"/>
<text text-anchor="middle" x="279.591" y="-119.5" font-family="Helvetica,sans-Serif" font-size="10.00">iomanip</text>
</g>
<!-- Node0&#45;&gt;Node19 -->
<g id="edge74" class="edge"><title>Node0&#45;&gt;Node19</title>
<path fill="none" stroke="midnightblue" d="M1196.81,-416.816C992.002,-413.399 237.591,-394.182 237.591,-296.5 237.591,-296.5 237.591,-296.5 237.591,-233 237.591,-198.412 255.938,-161.492 268.38,-140.432"/>
<polygon fill="midnightblue" stroke="midnightblue" points="271.497,-142.045 273.751,-131.692 265.533,-138.38 271.497,-142.045"/>
</g>
<!-- Node27 -->
<g id="node28" class="node"><title>Node27</title>
<g id="a_node28"><a xlink:href="memory_8h.html" target="_top" xlink:title="base/std_ext/memory.h">
<polygon fill="white" stroke="black" points="774.091,-168.5 774.091,-187.5 903.091,-187.5 903.091,-168.5 774.091,-168.5"/>
<text text-anchor="middle" x="838.591" y="-175.5" font-family="Helvetica,sans-Serif" font-size="10.00">base/std_ext/memory.h</text>
</a>
</g>
</g>
<!-- Node0&#45;&gt;Node27 -->
<g id="edge34" class="edge"><title>Node0&#45;&gt;Node27</title>
<path fill="none" stroke="midnightblue" d="M1244.02,-403.119C1235.9,-371.478 1215.3,-297.267 1196.59,-280 1153.29,-240.043 989.841,-205.734 899.515,-189.322"/>
<polygon fill="midnightblue" stroke="midnightblue" points="899.87,-185.83 889.409,-187.505 898.632,-192.719 899.87,-185.83"/>
</g>
<!-- Node28 -->
<g id="node29" class="node"><title>Node28</title>
<g id="a_node29"><a xlink:href="_editor_canvas_8h.html" target="_top" xlink:title="calibration/gui/EditorCanvas.h">
<polygon fill="white" stroke="black" points="850.591,-347.5 850.591,-366.5 1008.59,-366.5 1008.59,-347.5 850.591,-347.5"/>
<text text-anchor="middle" x="929.591" y="-354.5" font-family="Helvetica,sans-Serif" font-size="10.00">calibration/gui/EditorCanvas.h</text>
</a>
</g>
</g>
<!-- Node0&#45;&gt;Node28 -->
<g id="edge37" class="edge"><title>Node0&#45;&gt;Node28</title>
<path fill="none" stroke="midnightblue" d="M1196.85,-408.006C1139.08,-397.197 1045.01,-379.595 985.261,-368.416"/>
<polygon fill="midnightblue" stroke="midnightblue" points="985.724,-364.942 975.251,-366.543 984.437,-371.823 985.724,-364.942"/>
</g>
<!-- Node39 -->
<g id="node40" class="node"><title>Node39</title>
<polygon fill="white" stroke="#bfbfbf" points="1249.09,-347.5 1249.09,-366.5 1302.09,-366.5 1302.09,-347.5 1249.09,-347.5"/>
<text text-anchor="middle" x="1275.59" y="-354.5" font-family="Helvetica,sans-Serif" font-size="10.00">TExec.h</text>
</g>
<!-- Node0&#45;&gt;Node39 -->
<g id="edge64" class="edge"><title>Node0&#45;&gt;Node39</title>
<path fill="none" stroke="midnightblue" d="M1254.23,-403.399C1258.13,-395.11 1263.09,-384.554 1267.26,-375.708"/>
<polygon fill="midnightblue" stroke="midnightblue" points="1270.43,-377.196 1271.52,-366.658 1264.09,-374.216 1270.43,-377.196"/>
</g>
<!-- Node40 -->
<g id="node41" class="node"><title>Node40</title>
<polygon fill="white" stroke="#bfbfbf" points="1320.09,-347.5 1320.09,-366.5 1403.09,-366.5 1403.09,-347.5 1320.09,-347.5"/>
<text text-anchor="middle" x="1361.59" y="-354.5" font-family="Helvetica,sans-Serif" font-size="10.00">TApplication.h</text>
</g>
<!-- Node0&#45;&gt;Node40 -->
<g id="edge65" class="edge"><title>Node0&#45;&gt;Node40</title>
<path fill="none" stroke="midnightblue" d="M1274.61,-403.399C1293.22,-393.684 1317.8,-380.855 1336.08,-371.314"/>
<polygon fill="midnightblue" stroke="midnightblue" points="1337.76,-374.388 1345,-366.658 1334.52,-368.182 1337.76,-374.388"/>
</g>
<!-- Node41 -->
<g id="node42" class="node"><title>Node41</title>
<polygon fill="white" stroke="#bfbfbf" points="1421.59,-347.5 1421.59,-366.5 1489.59,-366.5 1489.59,-347.5 1421.59,-347.5"/>
<text text-anchor="middle" x="1455.59" y="-354.5" font-family="Helvetica,sans-Serif" font-size="10.00">TSystem.h</text>
</g>
<!-- Node0&#45;&gt;Node41 -->
<g id="edge66" class="edge"><title>Node0&#45;&gt;Node41</title>
<path fill="none" stroke="midnightblue" d="M1296.62,-403.475C1332.97,-393.075 1381.9,-379.078 1415.84,-369.372"/>
<polygon fill="midnightblue" stroke="midnightblue" points="1417.2,-372.622 1425.85,-366.506 1415.28,-365.892 1417.2,-372.622"/>
</g>
<!-- Node42 -->
<g id="node43" class="node"><title>Node42</title>
<polygon fill="white" stroke="#bfbfbf" points="1508.09,-347.5 1508.09,-366.5 1579.09,-366.5 1579.09,-347.5 1508.09,-347.5"/>
<text text-anchor="middle" x="1543.59" y="-354.5" font-family="Helvetica,sans-Serif" font-size="10.00">TGButton.h</text>
</g>
<!-- Node0&#45;&gt;Node42 -->
<g id="edge67" class="edge"><title>Node0&#45;&gt;Node42</title>
<path fill="none" stroke="midnightblue" d="M1298.14,-407.339C1354.14,-396.083 1443.64,-378.091 1497.7,-367.225"/>
<polygon fill="midnightblue" stroke="midnightblue" points="1498.58,-370.619 1507.69,-365.217 1497.2,-363.756 1498.58,-370.619"/>
</g>
<!-- Node43 -->
<g id="node44" class="node"><title>Node43</title>
<polygon fill="white" stroke="#bfbfbf" points="1597.59,-347.5 1597.59,-366.5 1665.59,-366.5 1665.59,-347.5 1597.59,-347.5"/>
<text text-anchor="middle" x="1631.59" y="-354.5" font-family="Helvetica,sans-Serif" font-size="10.00">TVirtualX.h</text>
</g>
<!-- Node0&#45;&gt;Node43 -->
<g id="edge68" class="edge"><title>Node0&#45;&gt;Node43</title>
<path fill="none" stroke="midnightblue" d="M1298.13,-410.866C1364.67,-401.934 1485.19,-385.064 1587.59,-367 1587.69,-366.982 1587.79,-366.964 1587.89,-366.947"/>
<polygon fill="midnightblue" stroke="midnightblue" points="1588.32,-370.427 1597.52,-365.16 1587.04,-363.544 1588.32,-370.427"/>
</g>
<!-- Node44 -->
<g id="node45" class="node"><title>Node44</title>
<polygon fill="white" stroke="#bfbfbf" points="1683.59,-347.5 1683.59,-366.5 1739.59,-366.5 1739.59,-347.5 1683.59,-347.5"/>
<text text-anchor="middle" x="1711.59" y="-354.5" font-family="Helvetica,sans-Serif" font-size="10.00">TROOT.h</text>
</g>
<!-- Node0&#45;&gt;Node44 -->
<g id="edge69" class="edge"><title>Node0&#45;&gt;Node44</title>
<path fill="none" stroke="midnightblue" d="M1298.17,-413.512C1376.52,-406.898 1532.08,-392.028 1673.25,-367.049"/>
<polygon fill="midnightblue" stroke="midnightblue" points="1674.16,-370.442 1683.38,-365.233 1672.92,-363.551 1674.16,-370.442"/>
</g>
<!-- Node45 -->
<g id="node46" class="node"><title>Node45</title>
<g id="a_node46"><a xlink:href="_logger_8h.html" target="_top" xlink:title="base/Logger.h">
<polygon fill="white" stroke="black" points="1757.59,-347.5 1757.59,-366.5 1841.59,-366.5 1841.59,-347.5 1757.59,-347.5"/>
<text text-anchor="middle" x="1799.59" y="-354.5" font-family="Helvetica,sans-Serif" font-size="10.00">base/Logger.h</text>
</a>
</g>
</g>
<!-- Node0&#45;&gt;Node45 -->
<g id="edge70" class="edge"><title>Node0&#45;&gt;Node45</title>
<path fill="none" stroke="midnightblue" d="M1298.23,-413.646C1387.05,-406.614 1576.89,-390.368 1747.18,-367.106"/>
<polygon fill="midnightblue" stroke="midnightblue" points="1747.9,-370.539 1757.33,-365.707 1746.94,-363.605 1747.9,-370.539"/>
</g>
<!-- Node2 -->
<g id="node3" class="node"><title>Node2</title>
<g id="a_node3"><a xlink:href="_editor_8h.html" target="_top" xlink:title="calibration/Editor.h">
<polygon fill="white" stroke="black" points="631.091,-286 631.091,-305 736.091,-305 736.091,-286 631.091,-286"/>
<text text-anchor="middle" x="683.591" y="-293" font-family="Helvetica,sans-Serif" font-size="10.00">calibration/Editor.h</text>
</a>
</g>
</g>
<!-- Node1&#45;&gt;Node2 -->
<g id="edge2" class="edge"><title>Node1&#45;&gt;Node2</title>
<path fill="none" stroke="midnightblue" d="M543.088,-347.475C571.22,-337.269 618.52,-320.108 650.379,-308.549"/>
<polygon fill="midnightblue" stroke="midnightblue" points="651.93,-311.71 660.137,-305.009 649.543,-305.13 651.93,-311.71"/>
</g>
<!-- Node8 -->
<g id="node9" class="node"><title>Node8</title>
<polygon fill="white" stroke="#bfbfbf" points="34.5906,-0.5 34.5906,-19.5 78.5906,-19.5 78.5906,-0.5 34.5906,-0.5"/>
<text text-anchor="middle" x="56.5906" y="-7.5" font-family="Helvetica,sans-Serif" font-size="10.00">string</text>
</g>
<!-- Node1&#45;&gt;Node8 -->
<g id="edge31" class="edge"><title>Node1&#45;&gt;Node8</title>
<path fill="none" stroke="midnightblue" d="M475.197,-352.326C366.578,-342.359 92.1034,-310.94 34.5906,-244 -19.8883,-180.591 -0.0160047,-134.551 28.5906,-56 32.2051,-46.0748 38.2083,-36.0022 43.7311,-27.9102"/>
<polygon fill="midnightblue" stroke="midnightblue" points="46.6166,-29.8924 49.6094,-19.729 40.9319,-25.8078 46.6166,-29.8924"/>
</g>
<!-- Node21 -->
<g id="node22" class="node"><title>Node21</title>
<g id="a_node22"><a xlink:href="_indicator__traits_8h.html" target="_top" xlink:title="calibration/gui/Indicator\l_traits.h">
<polygon fill="white" stroke="black" points="754.591,-280.5 754.591,-310.5 882.591,-310.5 882.591,-280.5 754.591,-280.5"/>
<text text-anchor="start" x="762.591" y="-298.5" font-family="Helvetica,sans-Serif" font-size="10.00">calibration/gui/Indicator</text>
<text text-anchor="middle" x="818.591" y="-287.5" font-family="Helvetica,sans-Serif" font-size="10.00">_traits.h</text>
</a>
</g>
</g>
<!-- Node1&#45;&gt;Node21 -->
<g id="edge25" class="edge"><title>Node1&#45;&gt;Node21</title>
<path fill="none" stroke="midnightblue" d="M562.43,-347.475C609.805,-338.048 686.996,-322.687 744.278,-311.288"/>
<polygon fill="midnightblue" stroke="midnightblue" points="745.246,-314.664 754.37,-309.28 743.879,-307.799 745.246,-314.664"/>
</g>
<!-- Node22 -->
<g id="node23" class="node"><title>Node22</title>
<polygon fill="white" stroke="#bfbfbf" points="265.591,-286 265.591,-305 333.591,-305 333.591,-286 265.591,-286"/>
<text text-anchor="middle" x="299.591" y="-293" font-family="Helvetica,sans-Serif" font-size="10.00">TGFrame.h</text>
</g>
<!-- Node1&#45;&gt;Node22 -->
<g id="edge27" class="edge"><title>Node1&#45;&gt;Node22</title>
<path fill="none" stroke="midnightblue" d="M482.415,-347.421C446.443,-338.915 390.485,-325.141 342.591,-311 339.663,-310.136 336.636,-309.201 333.607,-308.236"/>
<polygon fill="midnightblue" stroke="midnightblue" points="334.639,-304.891 324.046,-305.106 332.461,-311.544 334.639,-304.891"/>
</g>
<!-- Node23 -->
<g id="node24" class="node"><title>Node23</title>
<polygon fill="white" stroke="#bfbfbf" points="352.091,-286 352.091,-305 435.091,-305 435.091,-286 352.091,-286"/>
<text text-anchor="middle" x="393.591" y="-293" font-family="Helvetica,sans-Serif" font-size="10.00">KeySymbols.h</text>
</g>
<!-- Node1&#45;&gt;Node23 -->
<g id="edge28" class="edge"><title>Node1&#45;&gt;Node23</title>
<path fill="none" stroke="midnightblue" d="M501.538,-347.475C480.392,-337.49 445.15,-320.848 420.712,-309.307"/>
<polygon fill="midnightblue" stroke="midnightblue" points="422.147,-306.114 411.61,-305.009 419.158,-312.444 422.147,-306.114"/>
</g>
<!-- Node24 -->
<g id="node25" class="node"><title>Node24</title>
<polygon fill="white" stroke="#bfbfbf" points="548.091,-286 548.091,-305 613.091,-305 613.091,-286 548.091,-286"/>
<text text-anchor="middle" x="580.591" y="-293" font-family="Helvetica,sans-Serif" font-size="10.00">TCanvas.h</text>
</g>
<!-- Node1&#45;&gt;Node24 -->
<g id="edge29" class="edge"><title>Node1&#45;&gt;Node24</title>
<path fill="none" stroke="midnightblue" d="M528.33,-347.475C537.752,-338.285 552.955,-323.456 564.54,-312.156"/>
<polygon fill="midnightblue" stroke="midnightblue" points="567.152,-314.497 571.867,-305.009 562.265,-309.486 567.152,-314.497"/>
</g>
<!-- Node25 -->
<g id="node26" class="node"><title>Node25</title>
<polygon fill="white" stroke="#bfbfbf" points="453.591,-286 453.591,-305 491.591,-305 491.591,-286 453.591,-286"/>
<text text-anchor="middle" x="472.591" y="-293" font-family="Helvetica,sans-Serif" font-size="10.00">map</text>
</g>
<!-- Node1&#45;&gt;Node25 -->
<g id="edge30" class="edge"><title>Node1&#45;&gt;Node25</title>
<path fill="none" stroke="midnightblue" d="M512.857,-347.475C505.807,-338.55 494.556,-324.307 485.737,-313.143"/>
<polygon fill="midnightblue" stroke="midnightblue" points="488.257,-310.687 479.312,-305.009 482.764,-315.026 488.257,-310.687"/>
</g>
<!-- Node26 -->
<g id="node27" class="node"><title>Node26</title>
<polygon fill="white" stroke="#bfbfbf" points="821.091,-112.5 821.091,-131.5 878.091,-131.5 878.091,-112.5 821.091,-112.5"/>
<text text-anchor="middle" x="849.591" y="-119.5" font-family="Helvetica,sans-Serif" font-size="10.00">memory</text>
</g>
<!-- Node1&#45;&gt;Node26 -->
<g id="edge32" class="edge"><title>Node1&#45;&gt;Node26</title>
<path fill="none" stroke="midnightblue" d="M519.512,-347.476C519.807,-332.274 522.46,-300.188 538.591,-280 576.452,-232.614 745.884,-163.11 817.485,-135.231"/>
<polygon fill="midnightblue" stroke="midnightblue" points="818.853,-138.454 826.915,-131.58 816.326,-131.926 818.853,-138.454"/>
</g>
<!-- Node3 -->
<g id="node4" class="node"><title>Node3</title>
<g id="a_node4"><a xlink:href="_t_calibration_data_8h.html" target="_top" xlink:title="tree/TCalibrationData.h">
<polygon fill="white" stroke="black" points="44.0906,-224.5 44.0906,-243.5 171.091,-243.5 171.091,-224.5 44.0906,-224.5"/>
<text text-anchor="middle" x="107.591" y="-231.5" font-family="Helvetica,sans-Serif" font-size="10.00">tree/TCalibrationData.h</text>
</a>
</g>
</g>
<!-- Node2&#45;&gt;Node3 -->
<g id="edge3" class="edge"><title>Node2&#45;&gt;Node3</title>
<path fill="none" stroke="midnightblue" d="M650.943,-285.946C641.524,-283.729 631.196,-281.536 621.591,-280 465.949,-255.117 281.436,-243.18 181.269,-238.149"/>
<polygon fill="midnightblue" stroke="midnightblue" points="181.412,-234.652 171.251,-237.655 181.067,-241.643 181.412,-234.652"/>
</g>
<!-- Node4 -->
<g id="node5" class="node"><title>Node4</title>
<g id="a_node5"><a xlink:href="_t_i_d_8h.html" target="_top" xlink:title="TID.h">
<polygon fill="white" stroke="black" points="446.091,-168.5 446.091,-187.5 487.091,-187.5 487.091,-168.5 446.091,-168.5"/>
<text text-anchor="middle" x="466.591" y="-175.5" font-family="Helvetica,sans-Serif" font-size="10.00">TID.h</text>
</a>
</g>
</g>
<!-- Node3&#45;&gt;Node4 -->
<g id="edge4" class="edge"><title>Node3&#45;&gt;Node4</title>
<path fill="none" stroke="midnightblue" d="M164.475,-224.444C241.319,-212.885 375.59,-192.688 435.82,-183.628"/>
<polygon fill="midnightblue" stroke="midnightblue" points="436.472,-187.07 445.84,-182.121 435.431,-180.148 436.472,-187.07"/>
</g>
<!-- Node3&#45;&gt;Node8 -->
<g id="edge23" class="edge"><title>Node3&#45;&gt;Node8</title>
<path fill="none" stroke="midnightblue" d="M83.1212,-224.438C67.0236,-217.378 47.2135,-205.626 37.5906,-188 9.26016,-136.108 33.8791,-62.9344 48.1336,-29.2605"/>
<polygon fill="midnightblue" stroke="midnightblue" points="51.4769,-30.3538 52.3172,-19.7924 45.0741,-27.5246 51.4769,-30.3538"/>
</g>
<!-- Node13 -->
<g id="node14" class="node"><title>Node13</title>
<polygon fill="white" stroke="#bfbfbf" points="313.591,-56.5 313.591,-75.5 357.591,-75.5 357.591,-56.5 313.591,-56.5"/>
<text text-anchor="middle" x="335.591" y="-63.5" font-family="Helvetica,sans-Serif" font-size="10.00">ctime</text>
</g>
<!-- Node3&#45;&gt;Node13 -->
<g id="edge24" class="edge"><title>Node3&#45;&gt;Node13</title>
<path fill="none" stroke="midnightblue" d="M115.067,-224.288C122.125,-215.63 132.507,-201.699 138.591,-188 152.678,-156.275 132.214,-136.713 156.591,-112 176.892,-91.4175 257.507,-77.4933 303.323,-71.067"/>
<polygon fill="midnightblue" stroke="midnightblue" points="303.915,-74.5189 313.351,-69.7022 302.971,-67.5828 303.915,-74.5189"/>
</g>
<!-- Node20 -->
<g id="node21" class="node"><title>Node20</title>
<g id="a_node21"><a xlink:href="_git_info_8h.html" target="_top" xlink:title="base/GitInfo.h">
<polygon fill="white" stroke="black" points="47.0906,-168.5 47.0906,-187.5 130.091,-187.5 130.091,-168.5 47.0906,-168.5"/>
<text text-anchor="middle" x="88.5906" y="-175.5" font-family="Helvetica,sans-Serif" font-size="10.00">base/GitInfo.h</text>
</a>
</g>
</g>
<!-- Node3&#45;&gt;Node20 -->
<g id="edge21" class="edge"><title>Node3&#45;&gt;Node20</title>
<path fill="none" stroke="midnightblue" d="M104.453,-224.083C101.908,-216.849 98.2344,-206.409 95.0635,-197.397"/>
<polygon fill="midnightblue" stroke="midnightblue" points="98.2904,-196.023 91.6696,-187.751 91.6872,-198.346 98.2904,-196.023"/>
</g>
<!-- Node5 -->
<g id="node6" class="node"><title>Node5</title>
<polygon fill="white" stroke="#bfbfbf" points="658.591,-112.5 658.591,-131.5 716.591,-131.5 716.591,-112.5 658.591,-112.5"/>
<text text-anchor="middle" x="687.591" y="-119.5" font-family="Helvetica,sans-Serif" font-size="10.00">Rtypes.h</text>
</g>
<!-- Node4&#45;&gt;Node5 -->
<g id="edge5" class="edge"><title>Node4&#45;&gt;Node5</title>
<path fill="none" stroke="midnightblue" d="M487.382,-171.92C524.221,-162.918 601.495,-144.037 648.534,-132.543"/>
<polygon fill="midnightblue" stroke="midnightblue" points="649.488,-135.913 658.372,-130.139 647.827,-129.113 649.488,-135.913"/>
</g>
<!-- Node6 -->
<g id="node7" class="node"><title>Node6</title>
<g id="a_node7"><a xlink:href="base_2std__ext_2_time_8h.html" target="_top" xlink:title="base/std_ext/time.h">
<polygon fill="white" stroke="black" points="363.591,-112.5 363.591,-131.5 475.591,-131.5 475.591,-112.5 363.591,-112.5"/>
<text text-anchor="middle" x="419.591" y="-119.5" font-family="Helvetica,sans-Serif" font-size="10.00">base/std_ext/time.h</text>
</a>
</g>
</g>
<!-- Node4&#45;&gt;Node6 -->
<g id="edge6" class="edge"><title>Node4&#45;&gt;Node6</title>
<path fill="none" stroke="midnightblue" d="M458.829,-168.083C452.054,-160.298 442.047,-148.801 433.835,-139.367"/>
<polygon fill="midnightblue" stroke="midnightblue" points="436.413,-136.996 427.207,-131.751 431.132,-141.592 436.413,-136.996"/>
</g>
<!-- Node4&#45;&gt;Node13 -->
<g id="edge20" class="edge"><title>Node4&#45;&gt;Node13</title>
<path fill="none" stroke="midnightblue" d="M445.709,-174.191C420.548,-169.705 378.662,-158.545 354.591,-132 343.124,-119.355 338.552,-100.146 336.743,-85.8856"/>
<polygon fill="midnightblue" stroke="midnightblue" points="340.21,-85.3656 335.805,-75.7298 333.24,-86.0093 340.21,-85.3656"/>
</g>
<!-- Node4&#45;&gt;Node14 -->
<g id="edge14" class="edge"><title>Node4&#45;&gt;Node14</title>
<path fill="none" stroke="midnightblue" d="M445.888,-172.899C407.9,-165.361 324.265,-148.71 243.664,-132.208"/>
<polygon fill="midnightblue" stroke="midnightblue" points="244.352,-128.777 233.853,-130.197 242.946,-135.634 244.352,-128.777"/>
</g>
<!-- Node15 -->
<g id="node16" class="node"><title>Node15</title>
<polygon fill="white" stroke="#bfbfbf" points="494.091,-112.5 494.091,-131.5 535.091,-131.5 535.091,-112.5 494.091,-112.5"/>
<text text-anchor="middle" x="514.591" y="-119.5" font-family="Helvetica,sans-Serif" font-size="10.00">tuple</text>
</g>
<!-- Node4&#45;&gt;Node15 -->
<g id="edge15" class="edge"><title>Node4&#45;&gt;Node15</title>
<path fill="none" stroke="midnightblue" d="M474.517,-168.083C481.437,-160.298 491.656,-148.801 500.043,-139.367"/>
<polygon fill="midnightblue" stroke="midnightblue" points="502.784,-141.55 506.812,-131.751 497.552,-136.9 502.784,-141.55"/>
</g>
<!-- Node16 -->
<g id="node17" class="node"><title>Node16</title>
<polygon fill="white" stroke="#bfbfbf" points="553.091,-112.5 553.091,-131.5 602.091,-131.5 602.091,-112.5 553.091,-112.5"/>
<text text-anchor="middle" x="577.591" y="-119.5" font-family="Helvetica,sans-Serif" font-size="10.00">cstdint</text>
</g>
<!-- Node4&#45;&gt;Node16 -->
<g id="edge16" class="edge"><title>Node4&#45;&gt;Node16</title>
<path fill="none" stroke="midnightblue" d="M484.425,-168.324C502.306,-159.625 530.066,-146.12 550.636,-136.113"/>
<polygon fill="midnightblue" stroke="midnightblue" points="552.34,-139.177 559.801,-131.655 549.277,-132.882 552.34,-139.177"/>
</g>
<!-- Node17 -->
<g id="node18" class="node"><title>Node17</title>
<polygon fill="white" stroke="#bfbfbf" points="684.591,-0.5 684.591,-19.5 748.591,-19.5 748.591,-0.5 684.591,-0.5"/>
<text text-anchor="middle" x="716.591" y="-7.5" font-family="Helvetica,sans-Serif" font-size="10.00">stdexcept</text>
</g>
<!-- Node4&#45;&gt;Node17 -->
<g id="edge17" class="edge"><title>Node4&#45;&gt;Node17</title>
<path fill="none" stroke="midnightblue" d="M487.173,-174.179C516.552,-169.389 571.3,-157.581 610.591,-132 653.322,-104.179 689.018,-54.4951 705.979,-28.2846"/>
<polygon fill="midnightblue" stroke="midnightblue" points="708.974,-30.0971 711.358,-19.7741 703.057,-26.3569 708.974,-30.0971"/>
</g>
<!-- Node18 -->
<g id="node19" class="node"><title>Node18</title>
<polygon fill="white" stroke="#bfbfbf" points="772.591,-112.5 772.591,-131.5 802.591,-131.5 802.591,-112.5 772.591,-112.5"/>
<text text-anchor="middle" x="787.591" y="-119.5" font-family="Helvetica,sans-Serif" font-size="10.00">list</text>
</g>
<!-- Node4&#45;&gt;Node18 -->
<g id="edge18" class="edge"><title>Node4&#45;&gt;Node18</title>
<path fill="none" stroke="midnightblue" d="M487.159,-173.54C543.551,-164.053 700.51,-137.649 762.215,-127.269"/>
<polygon fill="midnightblue" stroke="midnightblue" points="762.976,-130.69 772.257,-125.58 761.815,-123.787 762.976,-130.69"/>
</g>
<!-- Node4&#45;&gt;Node19 -->
<g id="edge19" class="edge"><title>Node4&#45;&gt;Node19</title>
<path fill="none" stroke="midnightblue" d="M445.864,-171.015C414.875,-162.066 355.975,-145.058 317.247,-133.874"/>
<polygon fill="midnightblue" stroke="midnightblue" points="317.961,-130.437 307.383,-131.026 316.019,-137.163 317.961,-130.437"/>
</g>
<!-- Node6&#45;&gt;Node7 -->
<g id="edge7" class="edge"><title>Node6&#45;&gt;Node7</title>
<path fill="none" stroke="midnightblue" d="M444.309,-112.444C470.439,-103.399 511.85,-89.064 541.167,-78.9158"/>
<polygon fill="midnightblue" stroke="midnightblue" points="542.683,-82.0951 550.988,-75.5164 540.393,-75.4801 542.683,-82.0951"/>
</g>
<!-- Node12 -->
<g id="node13" class="node"><title>Node12</title>
<polygon fill="white" stroke="#bfbfbf" points="395.091,-56.5 395.091,-75.5 444.091,-75.5 444.091,-56.5 395.091,-56.5"/>
<text text-anchor="middle" x="419.591" y="-63.5" font-family="Helvetica,sans-Serif" font-size="10.00">cstring</text>
</g>
<!-- Node6&#45;&gt;Node12 -->
<g id="edge12" class="edge"><title>Node6&#45;&gt;Node12</title>
<path fill="none" stroke="midnightblue" d="M419.591,-112.083C419.591,-105.006 419.591,-94.8611 419.591,-85.9865"/>
<polygon fill="midnightblue" stroke="midnightblue" points="423.091,-85.751 419.591,-75.7511 416.091,-85.7511 423.091,-85.751"/>
</g>
<!-- Node6&#45;&gt;Node13 -->
<g id="edge13" class="edge"><title>Node6&#45;&gt;Node13</title>
<path fill="none" stroke="midnightblue" d="M406.094,-112.324C392.991,-103.9 372.879,-90.9709 357.484,-81.0741"/>
<polygon fill="midnightblue" stroke="midnightblue" points="359.358,-78.118 349.053,-75.6545 355.572,-84.0063 359.358,-78.118"/>
</g>
<!-- Node7&#45;&gt;Node8 -->
<g id="edge8" class="edge"><title>Node7&#45;&gt;Node8</title>
<path fill="none" stroke="midnightblue" d="M517.033,-57.665C512.149,-57.0884 507.286,-56.5262 502.591,-56 347.791,-38.6503 162.412,-20.9219 88.9017,-14.013"/>
<polygon fill="midnightblue" stroke="midnightblue" points="89.1677,-10.5227 78.8845,-13.0735 88.5139,-17.4921 89.1677,-10.5227"/>
</g>
<!-- Node7&#45;&gt;Node9 -->
<g id="edge9" class="edge"><title>Node7&#45;&gt;Node9</title>
<path fill="none" stroke="midnightblue" d="M572.783,-56.083C570.506,-48.8486 567.219,-38.4087 564.382,-29.3968"/>
<polygon fill="midnightblue" stroke="midnightblue" points="567.687,-28.2385 561.346,-19.7511 561.01,-30.3406 567.687,-28.2385"/>
</g>
<!-- Node10 -->
<g id="node11" class="node"><title>Node10</title>
<polygon fill="white" stroke="#bfbfbf" points="604.591,-0.5 604.591,-19.5 666.591,-19.5 666.591,-0.5 604.591,-0.5"/>
<text text-anchor="middle" x="635.591" y="-7.5" font-family="Helvetica,sans-Serif" font-size="10.00">algorithm</text>
</g>
<!-- Node7&#45;&gt;Node10 -->
<g id="edge10" class="edge"><title>Node7&#45;&gt;Node10</title>
<path fill="none" stroke="midnightblue" d="M585.231,-56.324C594.1,-48.3414 607.465,-36.3128 618.198,-26.6529"/>
<polygon fill="midnightblue" stroke="midnightblue" points="620.684,-29.1251 625.775,-19.8339 616.001,-23.922 620.684,-29.1251"/>
</g>
<!-- Node11 -->
<g id="node12" class="node"><title>Node11</title>
<polygon fill="white" stroke="#bfbfbf" points="1033.09,-0.5 1033.09,-19.5 1080.09,-19.5 1080.09,-0.5 1033.09,-0.5"/>
<text text-anchor="middle" x="1056.59" y="-7.5" font-family="Helvetica,sans-Serif" font-size="10.00">vector</text>
</g>
<!-- Node7&#45;&gt;Node11 -->
<g id="edge11" class="edge"><title>Node7&#45;&gt;Node11</title>
<path fill="none" stroke="midnightblue" d="M634.378,-62.2136C718.487,-57.5399 878.059,-46.1231 1022.94,-19.8032"/>
<polygon fill="midnightblue" stroke="midnightblue" points="1023.71,-23.2215 1032.91,-17.9653 1022.44,-16.3377 1023.71,-23.2215"/>
</g>
<!-- Node20&#45;&gt;Node8 -->
<g id="edge22" class="edge"><title>Node20&#45;&gt;Node8</title>
<path fill="none" stroke="midnightblue" d="M86.8701,-168.075C81.833,-141.945 67.0408,-65.2106 60.1717,-29.577"/>
<polygon fill="midnightblue" stroke="midnightblue" points="63.5719,-28.7248 58.2422,-19.5681 56.6984,-30.0499 63.5719,-28.7248"/>
</g>
<!-- Node21&#45;&gt;Node5 -->
<g id="edge26" class="edge"><title>Node21&#45;&gt;Node5</title>
<path fill="none" stroke="midnightblue" d="M771.958,-280.411C731.335,-265.168 675.855,-236.318 655.591,-188 648.487,-171.063 659.897,-152.301 671.013,-139.305"/>
<polygon fill="midnightblue" stroke="midnightblue" points="673.851,-141.391 678.077,-131.675 668.715,-136.635 673.851,-141.391"/>
</g>
<!-- Node27&#45;&gt;Node18 -->
<g id="edge36" class="edge"><title>Node27&#45;&gt;Node18</title>
<path fill="none" stroke="midnightblue" d="M830.169,-168.083C822.742,-160.22 811.739,-148.569 802.778,-139.081"/>
<polygon fill="midnightblue" stroke="midnightblue" points="805.266,-136.618 795.855,-131.751 800.177,-141.424 805.266,-136.618"/>
</g>
<!-- Node27&#45;&gt;Node26 -->
<g id="edge35" class="edge"><title>Node27&#45;&gt;Node26</title>
<path fill="none" stroke="midnightblue" d="M840.407,-168.083C841.865,-160.927 843.961,-150.635 845.783,-141.691"/>
<polygon fill="midnightblue" stroke="midnightblue" points="849.241,-142.248 847.808,-131.751 842.382,-140.851 849.241,-142.248"/>
</g>
<!-- Node28&#45;&gt;Node2 -->
<g id="edge38" class="edge"><title>Node28&#45;&gt;Node2</title>
<path fill="none" stroke="midnightblue" d="M894.345,-347.475C850.686,-336.915 776.248,-318.911 728.528,-307.369"/>
<polygon fill="midnightblue" stroke="midnightblue" points="729.314,-303.958 718.771,-305.009 727.668,-310.762 729.314,-303.958"/>
</g>
<!-- Node28&#45;&gt;Node5 -->
<g id="edge40" class="edge"><title>Node28&#45;&gt;Node5</title>
<path fill="none" stroke="midnightblue" d="M927.787,-347.458C923.99,-331.639 913.64,-297.778 891.591,-280 841.241,-239.404 801.271,-284.182 750.591,-244 717.139,-217.478 699.561,-168.317 692.088,-141.547"/>
<polygon fill="midnightblue" stroke="midnightblue" points="695.397,-140.368 689.486,-131.575 688.624,-142.135 695.397,-140.368"/>
</g>
<!-- Node28&#45;&gt;Node21 -->
<g id="edge61" class="edge"><title>Node28&#45;&gt;Node21</title>
<path fill="none" stroke="midnightblue" d="M913.687,-347.475C898.092,-339.115 873.792,-326.09 853.661,-315.299"/>
<polygon fill="midnightblue" stroke="midnightblue" points="855.218,-312.163 844.751,-310.523 851.911,-318.332 855.218,-312.163"/>
</g>
<!-- Node28&#45;&gt;Node24 -->
<g id="edge62" class="edge"><title>Node28&#45;&gt;Node24</title>
<path fill="none" stroke="midnightblue" d="M850.283,-348.709C787.589,-341.918 698.18,-329.946 621.591,-311 618.537,-310.245 615.392,-309.351 612.266,-308.385"/>
<polygon fill="midnightblue" stroke="midnightblue" points="613.073,-304.965 602.48,-305.128 610.863,-311.607 613.073,-304.965"/>
</g>
<!-- Node29 -->
<g id="node30" class="node"><title>Node29</title>
<polygon fill="white" stroke="#bfbfbf" points="1099.09,-112.5 1099.09,-131.5 1162.09,-131.5 1162.09,-112.5 1099.09,-112.5"/>
<text text-anchor="middle" x="1130.59" y="-119.5" font-family="Helvetica,sans-Serif" font-size="10.00">functional</text>
</g>
<!-- Node28&#45;&gt;Node29 -->
<g id="edge39" class="edge"><title>Node28&#45;&gt;Node29</title>
<path fill="none" stroke="midnightblue" d="M936.983,-347.431C966.525,-313.185 1076.43,-185.782 1116.15,-139.738"/>
<polygon fill="midnightblue" stroke="midnightblue" points="1119.03,-141.754 1122.92,-131.896 1113.73,-137.181 1119.03,-141.754"/>
</g>
<!-- Node30 -->
<g id="node31" class="node"><title>Node30</title>
<g id="a_node31"><a xlink:href="_root_draw_8h.html" target="_top" xlink:title="analysis/plot/RootDraw.h">
<polygon fill="white" stroke="black" points="921.591,-168.5 921.591,-187.5 1053.59,-187.5 1053.59,-168.5 921.591,-168.5"/>
<text text-anchor="middle" x="987.591" y="-175.5" font-family="Helvetica,sans-Serif" font-size="10.00">analysis/plot/RootDraw.h</text>
</a>
</g>
</g>
<!-- Node28&#45;&gt;Node30 -->
<g id="edge41" class="edge"><title>Node28&#45;&gt;Node30</title>
<path fill="none" stroke="midnightblue" d="M932.388,-347.463C941.285,-320.311 969.072,-235.512 981.49,-197.618"/>
<polygon fill="midnightblue" stroke="midnightblue" points="984.897,-198.461 984.685,-187.868 978.245,-196.281 984.897,-198.461"/>
</g>
<!-- Node38 -->
<g id="node39" class="node"><title>Node38</title>
<polygon fill="white" stroke="#bfbfbf" points="1015.09,-286 1015.09,-305 1154.09,-305 1154.09,-286 1015.09,-286"/>
<text text-anchor="middle" x="1084.59" y="-293" font-family="Helvetica,sans-Serif" font-size="10.00">TRootEmbeddedCanvas.h</text>
</g>
<!-- Node28&#45;&gt;Node38 -->
<g id="edge63" class="edge"><title>Node28&#45;&gt;Node38</title>
<path fill="none" stroke="midnightblue" d="M951.798,-347.475C978.271,-337.313 1022.7,-320.256 1052.81,-308.7"/>
<polygon fill="midnightblue" stroke="midnightblue" points="1054.34,-311.86 1062.42,-305.009 1051.83,-305.325 1054.34,-311.86"/>
</g>
<!-- Node30&#45;&gt;Node5 -->
<g id="edge60" class="edge"><title>Node30&#45;&gt;Node5</title>
<path fill="none" stroke="midnightblue" d="M940.055,-168.444C881.073,-157.827 781.604,-139.922 726.781,-130.054"/>
<polygon fill="midnightblue" stroke="midnightblue" points="727.223,-126.578 716.761,-128.251 725.983,-133.467 727.223,-126.578"/>
</g>
<!-- Node30&#45;&gt;Node8 -->
<g id="edge42" class="edge"><title>Node30&#45;&gt;Node8</title>
<path fill="none" stroke="midnightblue" d="M975.706,-168.324C953.355,-152.184 905.606,-118.583 886.591,-112 726.698,-56.6479 672.651,-113.212 507.591,-76 482.217,-70.2797 477.91,-61.9541 452.591,-56 319.926,-24.8029 156.988,-14.9731 88.8916,-12.0984"/>
<polygon fill="midnightblue" stroke="midnightblue" points="88.928,-8.59716 78.7961,-11.6946 88.6481,-15.5916 88.928,-8.59716"/>
</g>
<!-- Node30&#45;&gt;Node11 -->
<g id="edge44" class="edge"><title>Node30&#45;&gt;Node11</title>
<path fill="none" stroke="midnightblue" d="M1007.89,-168.45C1022.54,-161.1 1041.31,-148.985 1050.59,-132 1068.34,-99.5076 1064.52,-54.4854 1060.4,-29.5302"/>
<polygon fill="midnightblue" stroke="midnightblue" points="1063.82,-28.79 1058.56,-19.5935 1056.94,-30.0633 1063.82,-28.79"/>
</g>
<!-- Node30&#45;&gt;Node18 -->
<g id="edge43" class="edge"><title>Node30&#45;&gt;Node18</title>
<path fill="none" stroke="midnightblue" d="M949.145,-168.439C915.364,-160.635 864.743,-148.264 812.508,-132.038"/>
<polygon fill="midnightblue" stroke="midnightblue" points="813.329,-128.628 802.74,-128.964 811.228,-135.305 813.329,-128.628"/>
</g>
<!-- Node30&#45;&gt;Node26 -->
<g id="edge45" class="edge"><title>Node30&#45;&gt;Node26</title>
<path fill="none" stroke="midnightblue" d="M965.724,-168.444C942.811,-159.478 906.615,-145.314 880.724,-135.183"/>
<polygon fill="midnightblue" stroke="midnightblue" points="881.943,-131.901 871.355,-131.516 879.392,-138.42 881.943,-131.901"/>
</g>
<!-- Node30&#45;&gt;Node29 -->
<g id="edge46" class="edge"><title>Node30&#45;&gt;Node29</title>
<path fill="none" stroke="midnightblue" d="M1010.25,-168.444C1033.99,-159.478 1071.5,-145.314 1098.33,-135.183"/>
<polygon fill="midnightblue" stroke="midnightblue" points="1099.92,-138.324 1108.04,-131.516 1097.45,-131.775 1099.92,-138.324"/>
</g>
<!-- Node31 -->
<g id="node32" class="node"><title>Node31</title>
<g id="a_node32"><a xlink:href="_bin_settings_8h.html" target="_top" xlink:title="base/BinSettings.h">
<polygon fill="white" stroke="black" points="935.091,-112.5 935.091,-131.5 1042.09,-131.5 1042.09,-112.5 935.091,-112.5"/>
<text text-anchor="middle" x="988.591" y="-119.5" font-family="Helvetica,sans-Serif" font-size="10.00">base/BinSettings.h</text>
</a>
</g>
</g>
<!-- Node30&#45;&gt;Node31 -->
<g id="edge47" class="edge"><title>Node30&#45;&gt;Node31</title>
<path fill="none" stroke="midnightblue" d="M987.756,-168.083C987.887,-161.006 988.075,-150.861 988.239,-141.986"/>
<polygon fill="midnightblue" stroke="midnightblue" points="991.743,-141.814 988.428,-131.751 984.744,-141.685 991.743,-141.814"/>
</g>
<!-- Node31&#45;&gt;Node11 -->
<g id="edge56" class="edge"><title>Node31&#45;&gt;Node11</title>
<path fill="none" stroke="midnightblue" d="M993.926,-112.368C1005.1,-94.2957 1031.14,-52.1764 1045.89,-28.3074"/>
<polygon fill="midnightblue" stroke="midnightblue" points="1049,-29.9378 1051.28,-19.5914 1043.04,-26.257 1049,-29.9378"/>
</g>
<!-- Node31&#45;&gt;Node17 -->
<g id="edge57" class="edge"><title>Node31&#45;&gt;Node17</title>
<path fill="none" stroke="midnightblue" d="M934.803,-112.906C862.744,-101.849 742.99,-82.6379 735.591,-76 722.619,-64.3633 718.299,-44.4123 716.961,-29.6755"/>
<polygon fill="midnightblue" stroke="midnightblue" points="720.453,-29.4453 716.424,-19.6465 713.463,-29.8192 720.453,-29.4453"/>
</g>
<!-- Node32 -->
<g id="node33" class="node"><title>Node32</title>
<g id="a_node33"><a xlink:href="interval_8h.html" target="_top" xlink:title="base/interval.h">
<polygon fill="white" stroke="black" points="820.091,-56.5 820.091,-75.5 907.091,-75.5 907.091,-56.5 820.091,-56.5"/>
<text text-anchor="middle" x="863.591" y="-63.5" font-family="Helvetica,sans-Serif" font-size="10.00">base/interval.h</text>
</a>
</g>
</g>
<!-- Node31&#45;&gt;Node32 -->
<g id="edge48" class="edge"><title>Node31&#45;&gt;Node32</title>
<path fill="none" stroke="midnightblue" d="M968.784,-112.444C948.304,-103.596 916.108,-89.6875 892.726,-79.5865"/>
<polygon fill="midnightblue" stroke="midnightblue" points="893.873,-76.2692 883.305,-75.5164 891.096,-82.6953 893.873,-76.2692"/>
</g>
<!-- Node35 -->
<g id="node36" class="node"><title>Node35</title>
<polygon fill="white" stroke="#bfbfbf" points="962.091,-0.5 962.091,-19.5 1015.09,-19.5 1015.09,-0.5 962.091,-0.5"/>
<text text-anchor="middle" x="988.591" y="-7.5" font-family="Helvetica,sans-Serif" font-size="10.00">istream</text>
</g>
<!-- Node31&#45;&gt;Node35 -->
<g id="edge58" class="edge"><title>Node31&#45;&gt;Node35</title>
<path fill="none" stroke="midnightblue" d="M988.591,-112.368C988.591,-94.617 988.591,-53.6664 988.591,-29.5974"/>
<polygon fill="midnightblue" stroke="midnightblue" points="992.091,-29.5914 988.591,-19.5914 985.091,-29.5915 992.091,-29.5914"/>
</g>
<!-- Node37 -->
<g id="node38" class="node"><title>Node37</title>
<polygon fill="white" stroke="#bfbfbf" points="745.091,-56.5 745.091,-75.5 802.091,-75.5 802.091,-56.5 745.091,-56.5"/>
<text text-anchor="middle" x="773.591" y="-63.5" font-family="Helvetica,sans-Serif" font-size="10.00">ostream</text>
</g>
<!-- Node31&#45;&gt;Node37 -->
<g id="edge59" class="edge"><title>Node31&#45;&gt;Node37</title>
<path fill="none" stroke="midnightblue" d="M954.523,-112.444C915.773,-102.711 852.637,-86.8536 812.123,-76.6778"/>
<polygon fill="midnightblue" stroke="midnightblue" points="812.889,-73.2618 802.338,-74.2203 811.184,-80.0509 812.889,-73.2618"/>
</g>
<!-- Node32&#45;&gt;Node9 -->
<g id="edge54" class="edge"><title>Node32&#45;&gt;Node9</title>
<path fill="none" stroke="midnightblue" d="M819.919,-57.5759C816.762,-57.0418 813.628,-56.5121 810.591,-56 718.226,-40.4248 692.21,-39.5081 596.896,-20.1524"/>
<polygon fill="midnightblue" stroke="midnightblue" points="597.323,-16.6675 586.825,-18.0916 595.92,-23.5254 597.323,-16.6675"/>
</g>
<!-- Node32&#45;&gt;Node10 -->
<g id="edge50" class="edge"><title>Node32&#45;&gt;Node10</title>
<path fill="none" stroke="midnightblue" d="M827.463,-56.4435C786.428,-46.7247 719.607,-30.8987 676.636,-20.7212"/>
<polygon fill="midnightblue" stroke="midnightblue" points="677.324,-17.2874 666.786,-18.3884 675.71,-24.0989 677.324,-17.2874"/>
</g>
<!-- Node32&#45;&gt;Node17 -->
<g id="edge51" class="edge"><title>Node32&#45;&gt;Node17</title>
<path fill="none" stroke="midnightblue" d="M840.298,-56.4435C815.783,-47.4381 776.994,-33.1891 749.391,-23.049"/>
<polygon fill="midnightblue" stroke="midnightblue" points="750.368,-19.6793 739.774,-19.5164 747.954,-26.25 750.368,-19.6793"/>
</g>
<!-- Node33 -->
<g id="node34" class="node"><title>Node33</title>
<g id="a_node34"><a xlink:href="types_8h.html" target="_top" xlink:title="types.h">
<polygon fill="white" stroke="black" points="766.591,-0.5 766.591,-19.5 818.591,-19.5 818.591,-0.5 766.591,-0.5"/>
<text text-anchor="middle" x="792.591" y="-7.5" font-family="Helvetica,sans-Serif" font-size="10.00">types.h</text>
</a>
</g>
</g>
<!-- Node32&#45;&gt;Node33 -->
<g id="edge49" class="edge"><title>Node32&#45;&gt;Node33</title>
<path fill="none" stroke="midnightblue" d="M852.183,-56.324C841.482,-48.1849 825.25,-35.8395 812.428,-26.0874"/>
<polygon fill="midnightblue" stroke="midnightblue" points="814.284,-23.1018 804.205,-19.8339 810.046,-28.6734 814.284,-23.1018"/>
</g>
<!-- Node34 -->
<g id="node35" class="node"><title>Node34</title>
<polygon fill="white" stroke="#bfbfbf" points="836.591,-0.5 836.591,-19.5 878.591,-19.5 878.591,-0.5 836.591,-0.5"/>
<text text-anchor="middle" x="857.591" y="-7.5" font-family="Helvetica,sans-Serif" font-size="10.00">limits</text>
</g>
<!-- Node32&#45;&gt;Node34 -->
<g id="edge52" class="edge"><title>Node32&#45;&gt;Node34</title>
<path fill="none" stroke="midnightblue" d="M862.6,-56.083C861.805,-48.9272 860.661,-38.6353 859.667,-29.6911"/>
<polygon fill="midnightblue" stroke="midnightblue" points="863.146,-29.3034 858.563,-19.7511 856.189,-30.0765 863.146,-29.3034"/>
</g>
<!-- Node32&#45;&gt;Node35 -->
<g id="edge53" class="edge"><title>Node32&#45;&gt;Node35</title>
<path fill="none" stroke="midnightblue" d="M883.397,-56.4435C903.877,-47.5961 936.073,-33.6875 959.455,-23.5865"/>
<polygon fill="midnightblue" stroke="midnightblue" points="961.085,-26.6953 968.877,-19.5164 958.309,-20.2692 961.085,-26.6953"/>
</g>
<!-- Node36 -->
<g id="node37" class="node"><title>Node36</title>
<polygon fill="white" stroke="#bfbfbf" points="897.091,-0.5 897.091,-19.5 944.091,-19.5 944.091,-0.5 897.091,-0.5"/>
<text text-anchor="middle" x="920.591" y="-7.5" font-family="Helvetica,sans-Serif" font-size="10.00">cmath</text>
</g>
<!-- Node32&#45;&gt;Node36 -->
<g id="edge55" class="edge"><title>Node32&#45;&gt;Node36</title>
<path fill="none" stroke="midnightblue" d="M872.749,-56.324C881.092,-48.4196 893.623,-36.5482 903.767,-26.9377"/>
<polygon fill="midnightblue" stroke="midnightblue" points="906.413,-29.2522 911.266,-19.8339 901.599,-24.1705 906.413,-29.2522"/>
</g>
<!-- Node46 -->
<g id="node47" class="node"><title>Node46</title>
<polygon fill="white" stroke="#bfbfbf" points="1750.09,-286 1750.09,-305 1849.09,-305 1849.09,-286 1750.09,-286"/>
<text text-anchor="middle" x="1799.59" y="-293" font-family="Helvetica,sans-Serif" font-size="10.00">easylogging++.h</text>
</g>
<!-- Node45&#45;&gt;Node46 -->
<g id="edge71" class="edge"><title>Node45&#45;&gt;Node46</title>
<path fill="none" stroke="midnightblue" d="M1799.59,-347.475C1799.59,-339.08 1799.59,-325.981 1799.59,-315.163"/>
<polygon fill="midnightblue" stroke="midnightblue" points="1803.09,-315.009 1799.59,-305.009 1796.09,-315.009 1803.09,-315.009"/>
</g>
</g>
</svg>
