<?xml version="1.0" encoding="UTF-8" standalone="no"?>
<!DOCTYPE svg PUBLIC "-//W3C//DTD SVG 1.1//EN"
 "http://www.w3.org/Graphics/SVG/1.1/DTD/svg11.dtd">
<!-- Generated by graphviz version 2.38.0 (20140413.2041)
 -->
<!-- Title: src/calibration/gui/EditorWindow.h Pages: 1 -->
<svg width="1236pt" height="386pt"
 viewBox="0.00 0.00 1236.16 386.00" xmlns="http://www.w3.org/2000/svg" xmlns:xlink="http://www.w3.org/1999/xlink">
<g id="graph0" class="graph" transform="scale(1 1) rotate(0) translate(4 382)">
<title>src/calibration/gui/EditorWindow.h</title>
<polygon fill="white" stroke="none" points="-4,4 -4,-382 1232.16,-382 1232.16,4 -4,4"/>
<!-- Node0 -->
<g id="node1" class="node"><title>Node0</title>
<polygon fill="#bfbfbf" stroke="black" points="874.164,-347.5 874.164,-377.5 975.164,-377.5 975.164,-347.5 874.164,-347.5"/>
<text text-anchor="start" x="882.164" y="-365.5" font-family="Helvetica,sans-Serif" font-size="10.00">src/calibration/gui</text>
<text text-anchor="middle" x="924.664" y="-354.5" font-family="Helvetica,sans-Serif" font-size="10.00">/EditorWindow.h</text>
</g>
<!-- Node1 -->
<g id="node2" class="node"><title>Node1</title>
<g id="a_node2"><a xlink:href="_editor_8h.html" target="_top" xlink:title="calibration/Editor.h">
<polygon fill="white" stroke="black" points="358.164,-291.5 358.164,-310.5 463.164,-310.5 463.164,-291.5 358.164,-291.5"/>
<text text-anchor="middle" x="410.664" y="-298.5" font-family="Helvetica,sans-Serif" font-size="10.00">calibration/Editor.h</text>
</a>
</g>
</g>
<!-- Node0&#45;&gt;Node1 -->
<g id="edge1" class="edge"><title>Node0&#45;&gt;Node1</title>
<path fill="none" stroke="midnightblue" d="M873.973,-355.632C779.361,-344.68 576.175,-321.159 473.213,-309.241"/>
<polygon fill="midnightblue" stroke="midnightblue" points="473.604,-305.763 463.268,-308.089 472.799,-312.716 473.604,-305.763"/>
</g>
<!-- Node7 -->
<g id="node8" class="node"><title>Node7</title>
<polygon fill="white" stroke="#bfbfbf" points="385.664,-0.5 385.664,-19.5 429.664,-19.5 429.664,-0.5 385.664,-0.5"/>
<text text-anchor="middle" x="407.664" y="-7.5" font-family="Helvetica,sans-Serif" font-size="10.00">string</text>
</g>
<!-- Node0&#45;&gt;Node7 -->
<g id="edge30" class="edge"><title>Node0&#45;&gt;Node7</title>
<path fill="none" stroke="midnightblue" d="M884.807,-347.425C867.104,-339.308 847.429,-327.401 834.664,-311 814.732,-285.391 815.664,-272.951 815.664,-240.5 815.664,-240.5 815.664,-240.5 815.664,-121 815.664,-43.3055 536.363,-18.8753 439.938,-12.7562"/>
<polygon fill="midnightblue" stroke="midnightblue" points="440.084,-9.25872 429.889,-12.1434 439.658,-16.2457 440.084,-9.25872"/>
</g>
<!-- Node20 -->
<g id="node21" class="node"><title>Node20</title>
<g id="a_node21"><a xlink:href="_indicator__traits_8h.html" target="_top" xlink:title="calibration/gui/Indicator\l_traits.h">
<polygon fill="white" stroke="black" points="659.664,-224.5 659.664,-254.5 787.664,-254.5 787.664,-224.5 659.664,-224.5"/>
<text text-anchor="start" x="667.664" y="-242.5" font-family="Helvetica,sans-Serif" font-size="10.00">calibration/gui/Indicator</text>
<text text-anchor="middle" x="723.664" y="-231.5" font-family="Helvetica,sans-Serif" font-size="10.00">_traits.h</text>
</a>
</g>
</g>
<!-- Node0&#45;&gt;Node20 -->
<g id="edge24" class="edge"><title>Node0&#45;&gt;Node20</title>
<path fill="none" stroke="midnightblue" d="M880.18,-347.446C855.974,-338.783 826.076,-326.383 801.664,-311 779.833,-297.245 758.329,-277.184 743.447,-261.976"/>
<polygon fill="midnightblue" stroke="midnightblue" points="745.749,-259.32 736.301,-254.524 740.696,-264.165 745.749,-259.32"/>
</g>
<!-- Node21 -->
<g id="node22" class="node"><title>Node21</title>
<polygon fill="white" stroke="#bfbfbf" points="843.664,-291.5 843.664,-310.5 911.664,-310.5 911.664,-291.5 843.664,-291.5"/>
<text text-anchor="middle" x="877.664" y="-298.5" font-family="Helvetica,sans-Serif" font-size="10.00">TGFrame.h</text>
</g>
<!-- Node0&#45;&gt;Node21 -->
<g id="edge26" class="edge"><title>Node0&#45;&gt;Node21</title>
<path fill="none" stroke="midnightblue" d="M913.525,-347.399C906.696,-338.753 897.919,-327.642 890.757,-318.576"/>
<polygon fill="midnightblue" stroke="midnightblue" points="893.448,-316.335 884.503,-310.658 887.955,-320.674 893.448,-316.335"/>
</g>
<!-- Node22 -->
<g id="node23" class="node"><title>Node22</title>
<polygon fill="white" stroke="#bfbfbf" points="930.164,-291.5 930.164,-310.5 1013.16,-310.5 1013.16,-291.5 930.164,-291.5"/>
<text text-anchor="middle" x="971.664" y="-298.5" font-family="Helvetica,sans-Serif" font-size="10.00">KeySymbols.h</text>
</g>
<!-- Node0&#45;&gt;Node22 -->
<g id="edge27" class="edge"><title>Node0&#45;&gt;Node22</title>
<path fill="none" stroke="midnightblue" d="M935.802,-347.399C942.632,-338.753 951.409,-327.642 958.57,-318.576"/>
<polygon fill="midnightblue" stroke="midnightblue" points="961.373,-320.674 964.825,-310.658 955.88,-316.335 961.373,-320.674"/>
</g>
<!-- Node23 -->
<g id="node24" class="node"><title>Node23</title>
<polygon fill="white" stroke="#bfbfbf" points="1031.16,-291.5 1031.16,-310.5 1096.16,-310.5 1096.16,-291.5 1031.16,-291.5"/>
<text text-anchor="middle" x="1063.66" y="-298.5" font-family="Helvetica,sans-Serif" font-size="10.00">TCanvas.h</text>
</g>
<!-- Node0&#45;&gt;Node23 -->
<g id="edge28" class="edge"><title>Node0&#45;&gt;Node23</title>
<path fill="none" stroke="midnightblue" d="M957.605,-347.399C980.822,-337.461 1011.65,-324.265 1034.08,-314.662"/>
<polygon fill="midnightblue" stroke="midnightblue" points="1035.62,-317.811 1043.44,-310.658 1032.87,-311.375 1035.62,-317.811"/>
</g>
<!-- Node24 -->
<g id="node25" class="node"><title>Node24</title>
<polygon fill="white" stroke="#bfbfbf" points="1114.66,-291.5 1114.66,-310.5 1152.66,-310.5 1152.66,-291.5 1114.66,-291.5"/>
<text text-anchor="middle" x="1133.66" y="-298.5" font-family="Helvetica,sans-Serif" font-size="10.00">map</text>
</g>
<!-- Node0&#45;&gt;Node24 -->
<g id="edge29" class="edge"><title>Node0&#45;&gt;Node24</title>
<path fill="none" stroke="midnightblue" d="M975.528,-347.877C1009.61,-338.618 1055.72,-325.846 1104.6,-311.241"/>
<polygon fill="midnightblue" stroke="midnightblue" points="1105.84,-314.523 1114.41,-308.296 1103.83,-307.819 1105.84,-314.523"/>
</g>
<!-- Node25 -->
<g id="node26" class="node"><title>Node25</title>
<polygon fill="white" stroke="#bfbfbf" points="1171.16,-291.5 1171.16,-310.5 1228.16,-310.5 1228.16,-291.5 1171.16,-291.5"/>
<text text-anchor="middle" x="1199.66" y="-298.5" font-family="Helvetica,sans-Serif" font-size="10.00">memory</text>
</g>
<!-- Node0&#45;&gt;Node25 -->
<g id="edge31" class="edge"><title>Node0&#45;&gt;Node25</title>
<path fill="none" stroke="midnightblue" d="M975.591,-350.996C1021.48,-341.453 1091.04,-326.792 1161.15,-311.075"/>
<polygon fill="midnightblue" stroke="midnightblue" points="1162.06,-314.459 1171.05,-308.851 1160.52,-307.63 1162.06,-314.459"/>
</g>
<!-- Node2 -->
<g id="node3" class="node"><title>Node2</title>
<g id="a_node3"><a xlink:href="_t_calibration_data_8h.html" target="_top" xlink:title="tree/TCalibrationData.h">
<polygon fill="white" stroke="black" points="61.1637,-230 61.1637,-249 188.164,-249 188.164,-230 61.1637,-230"/>
<text text-anchor="middle" x="124.664" y="-237" font-family="Helvetica,sans-Serif" font-size="10.00">tree/TCalibrationData.h</text>
</a>
</g>
</g>
<!-- Node1&#45;&gt;Node2 -->
<g id="edge2" class="edge"><title>Node1&#45;&gt;Node2</title>
<path fill="none" stroke="midnightblue" d="M369.687,-291.475C318.504,-280.827 230.936,-262.609 175.521,-251.081"/>
<polygon fill="midnightblue" stroke="midnightblue" points="176.068,-247.619 165.564,-249.009 174.642,-254.473 176.068,-247.619"/>
</g>
<!-- Node3 -->
<g id="node4" class="node"><title>Node3</title>
<g id="a_node4"><a xlink:href="_t_i_d_8h.html" target="_top" xlink:title="TID.h">
<polygon fill="white" stroke="black" points="378.164,-168.5 378.164,-187.5 419.164,-187.5 419.164,-168.5 378.164,-168.5"/>
<text text-anchor="middle" x="398.664" y="-175.5" font-family="Helvetica,sans-Serif" font-size="10.00">TID.h</text>
</a>
</g>
</g>
<!-- Node2&#45;&gt;Node3 -->
<g id="edge3" class="edge"><title>Node2&#45;&gt;Node3</title>
<path fill="none" stroke="midnightblue" d="M163.921,-229.975C219.043,-218.005 318.212,-196.47 368.158,-185.624"/>
<polygon fill="midnightblue" stroke="midnightblue" points="369.006,-189.022 378.036,-183.479 367.521,-182.181 369.006,-189.022"/>
</g>
<!-- Node2&#45;&gt;Node7 -->
<g id="edge22" class="edge"><title>Node2&#45;&gt;Node7</title>
<path fill="none" stroke="midnightblue" d="M75.1358,-229.969C34.6949,-220.427 -13.2253,-201.688 3.66365,-168 73.126,-29.4455 292.34,-12.2135 375.366,-10.7699"/>
<polygon fill="midnightblue" stroke="midnightblue" points="375.512,-14.2686 385.475,-10.6621 375.438,-7.26898 375.512,-14.2686"/>
</g>
<!-- Node12 -->
<g id="node13" class="node"><title>Node12</title>
<polygon fill="white" stroke="#bfbfbf" points="463.664,-56.5 463.664,-75.5 507.664,-75.5 507.664,-56.5 463.664,-56.5"/>
<text text-anchor="middle" x="485.664" y="-63.5" font-family="Helvetica,sans-Serif" font-size="10.00">ctime</text>
</g>
<!-- Node2&#45;&gt;Node12 -->
<g id="edge23" class="edge"><title>Node2&#45;&gt;Node12</title>
<path fill="none" stroke="midnightblue" d="M122.246,-229.989C116.376,-207.312 104.067,-144.924 135.664,-112 178.812,-67.0396 374.401,-65.1188 452.908,-66.2257"/>
<polygon fill="midnightblue" stroke="midnightblue" points="453.123,-69.7297 463.181,-66.3979 453.241,-62.7307 453.123,-69.7297"/>
</g>
<!-- Node19 -->
<g id="node20" class="node"><title>Node19</title>
<g id="a_node20"><a xlink:href="_git_info_8h.html" target="_top" xlink:title="base/GitInfo.h">
<polygon fill="white" stroke="black" points="13.1637,-168.5 13.1637,-187.5 96.1637,-187.5 96.1637,-168.5 13.1637,-168.5"/>
<text text-anchor="middle" x="54.6637" y="-175.5" font-family="Helvetica,sans-Serif" font-size="10.00">base/GitInfo.h</text>
</a>
</g>
</g>
<!-- Node2&#45;&gt;Node19 -->
<g id="edge20" class="edge"><title>Node2&#45;&gt;Node19</title>
<path fill="none" stroke="midnightblue" d="M114.634,-229.975C103.615,-220.608 85.7035,-205.384 72.3202,-194.008"/>
<polygon fill="midnightblue" stroke="midnightblue" points="74.5605,-191.319 64.6743,-187.509 70.027,-196.652 74.5605,-191.319"/>
</g>
<!-- Node4 -->
<g id="node5" class="node"><title>Node4</title>
<polygon fill="white" stroke="#bfbfbf" points="729.664,-112.5 729.664,-131.5 787.664,-131.5 787.664,-112.5 729.664,-112.5"/>
<text text-anchor="middle" x="758.664" y="-119.5" font-family="Helvetica,sans-Serif" font-size="10.00">Rtypes.h</text>
</g>
<!-- Node3&#45;&gt;Node4 -->
<g id="edge4" class="edge"><title>Node3&#45;&gt;Node4</title>
<path fill="none" stroke="midnightblue" d="M419.492,-174.775C469.483,-169.289 600.349,-154.072 719.265,-132.118"/>
<polygon fill="midnightblue" stroke="midnightblue" points="720.076,-135.527 729.263,-130.251 718.791,-128.646 720.076,-135.527"/>
</g>
<!-- Node5 -->
<g id="node6" class="node"><title>Node5</title>
<g id="a_node6"><a xlink:href="base_2std__ext_2_time_8h.html" target="_top" xlink:title="base/std_ext/time.h">
<polygon fill="white" stroke="black" points="599.664,-112.5 599.664,-131.5 711.664,-131.5 711.664,-112.5 599.664,-112.5"/>
<text text-anchor="middle" x="655.664" y="-119.5" font-family="Helvetica,sans-Serif" font-size="10.00">base/std_ext/time.h</text>
</a>
</g>
</g>
<!-- Node3&#45;&gt;Node5 -->
<g id="edge5" class="edge"><title>Node3&#45;&gt;Node5</title>
<path fill="none" stroke="midnightblue" d="M419.261,-172.672C459.263,-164.267 548.498,-145.517 605.17,-133.61"/>
<polygon fill="midnightblue" stroke="midnightblue" points="605.941,-137.024 615.008,-131.542 604.502,-130.174 605.941,-137.024"/>
</g>
<!-- Node3&#45;&gt;Node12 -->
<g id="edge19" class="edge"><title>Node3&#45;&gt;Node12</title>
<path fill="none" stroke="midnightblue" d="M418.079,-168.466C433.112,-160.918 453.381,-148.535 465.664,-132 475.675,-118.524 480.735,-99.9656 483.256,-86.1279"/>
<polygon fill="midnightblue" stroke="midnightblue" points="486.778,-86.2436 484.829,-75.8298 479.859,-85.1866 486.778,-86.2436"/>
</g>
<!-- Node13 -->
<g id="node14" class="node"><title>Node13</title>
<polygon fill="white" stroke="#bfbfbf" points="513.664,-112.5 513.664,-131.5 581.664,-131.5 581.664,-112.5 513.664,-112.5"/>
<text text-anchor="middle" x="547.664" y="-119.5" font-family="Helvetica,sans-Serif" font-size="10.00">type_traits</text>
</g>
<!-- Node3&#45;&gt;Node13 -->
<g id="edge13" class="edge"><title>Node3&#45;&gt;Node13</title>
<path fill="none" stroke="midnightblue" d="M419.381,-169.492C443.988,-160.574 485.354,-145.582 514.447,-135.038"/>
<polygon fill="midnightblue" stroke="midnightblue" points="515.968,-138.21 524.177,-131.512 513.583,-131.629 515.968,-138.21"/>
</g>
<!-- Node14 -->
<g id="node15" class="node"><title>Node14</title>
<polygon fill="white" stroke="#bfbfbf" points="145.164,-112.5 145.164,-131.5 186.164,-131.5 186.164,-112.5 145.164,-112.5"/>
<text text-anchor="middle" x="165.664" y="-119.5" font-family="Helvetica,sans-Serif" font-size="10.00">tuple</text>
</g>
<!-- Node3&#45;&gt;Node14 -->
<g id="edge14" class="edge"><title>Node3&#45;&gt;Node14</title>
<path fill="none" stroke="midnightblue" d="M377.967,-173.032C342.55,-166.114 267.883,-150.979 195.876,-132.162"/>
<polygon fill="midnightblue" stroke="midnightblue" points="196.759,-128.775 186.197,-129.606 194.972,-135.543 196.759,-128.775"/>
</g>
<!-- Node15 -->
<g id="node16" class="node"><title>Node15</title>
<polygon fill="white" stroke="#bfbfbf" points="204.164,-112.5 204.164,-131.5 253.164,-131.5 253.164,-112.5 204.164,-112.5"/>
<text text-anchor="middle" x="228.664" y="-119.5" font-family="Helvetica,sans-Serif" font-size="10.00">cstdint</text>
</g>
<!-- Node3&#45;&gt;Node15 -->
<g id="edge15" class="edge"><title>Node3&#45;&gt;Node15</title>
<path fill="none" stroke="midnightblue" d="M378.158,-170.486C349.624,-161.423 297.569,-144.887 263.042,-133.92"/>
<polygon fill="midnightblue" stroke="midnightblue" points="263.96,-130.539 253.37,-130.848 261.841,-137.211 263.96,-130.539"/>
</g>
<!-- Node16 -->
<g id="node17" class="node"><title>Node16</title>
<polygon fill="white" stroke="#bfbfbf" points="271.664,-112.5 271.664,-131.5 335.664,-131.5 335.664,-112.5 271.664,-112.5"/>
<text text-anchor="middle" x="303.664" y="-119.5" font-family="Helvetica,sans-Serif" font-size="10.00">stdexcept</text>
</g>
<!-- Node3&#45;&gt;Node16 -->
<g id="edge16" class="edge"><title>Node3&#45;&gt;Node16</title>
<path fill="none" stroke="midnightblue" d="M383.4,-168.324C368.442,-159.822 345.409,-146.729 327.937,-136.797"/>
<polygon fill="midnightblue" stroke="midnightblue" points="329.312,-133.553 318.889,-131.655 325.853,-139.639 329.312,-133.553"/>
</g>
<!-- Node17 -->
<g id="node18" class="node"><title>Node17</title>
<polygon fill="white" stroke="#bfbfbf" points="353.664,-112.5 353.664,-131.5 383.664,-131.5 383.664,-112.5 353.664,-112.5"/>
<text text-anchor="middle" x="368.664" y="-119.5" font-family="Helvetica,sans-Serif" font-size="10.00">list</text>
</g>
<!-- Node3&#45;&gt;Node17 -->
<g id="edge17" class="edge"><title>Node3&#45;&gt;Node17</title>
<path fill="none" stroke="midnightblue" d="M393.71,-168.083C389.56,-160.613 383.511,-149.724 378.397,-140.52"/>
<polygon fill="midnightblue" stroke="midnightblue" points="381.441,-138.793 373.525,-131.751 375.322,-142.192 381.441,-138.793"/>
</g>
<!-- Node18 -->
<g id="node19" class="node"><title>Node18</title>
<polygon fill="white" stroke="#bfbfbf" points="402.164,-112.5 402.164,-131.5 457.164,-131.5 457.164,-112.5 402.164,-112.5"/>
<text text-anchor="middle" x="429.664" y="-119.5" font-family="Helvetica,sans-Serif" font-size="10.00">iomanip</text>
</g>
<!-- Node3&#45;&gt;Node18 -->
<g id="edge18" class="edge"><title>Node3&#45;&gt;Node18</title>
<path fill="none" stroke="midnightblue" d="M403.783,-168.083C408.071,-160.613 414.322,-149.724 419.606,-140.52"/>
<polygon fill="midnightblue" stroke="midnightblue" points="422.697,-142.166 424.64,-131.751 416.626,-138.681 422.697,-142.166"/>
</g>
<!-- Node6 -->
<g id="node7" class="node"><title>Node6</title>
<g id="a_node7"><a xlink:href="string_8h.html" target="_top" xlink:title="base/std_ext/string.h">
<polygon fill="white" stroke="black" points="844.164,-56.5 844.164,-75.5 961.164,-75.5 961.164,-56.5 844.164,-56.5"/>
<text text-anchor="middle" x="902.664" y="-63.5" font-family="Helvetica,sans-Serif" font-size="10.00">base/std_ext/string.h</text>
</a>
</g>
</g>
<!-- Node5&#45;&gt;Node6 -->
<g id="edge6" class="edge"><title>Node5&#45;&gt;Node6</title>
<path fill="none" stroke="midnightblue" d="M694.802,-112.444C737.89,-103.023 807.223,-87.8656 853.835,-77.6752"/>
<polygon fill="midnightblue" stroke="midnightblue" points="854.687,-81.0715 863.709,-75.5164 853.192,-74.2331 854.687,-81.0715"/>
</g>
<!-- Node11 -->
<g id="node12" class="node"><title>Node11</title>
<polygon fill="white" stroke="#bfbfbf" points="631.164,-56.5 631.164,-75.5 680.164,-75.5 680.164,-56.5 631.164,-56.5"/>
<text text-anchor="middle" x="655.664" y="-63.5" font-family="Helvetica,sans-Serif" font-size="10.00">cstring</text>
</g>
<!-- Node5&#45;&gt;Node11 -->
<g id="edge11" class="edge"><title>Node5&#45;&gt;Node11</title>
<path fill="none" stroke="midnightblue" d="M655.664,-112.083C655.664,-105.006 655.664,-94.8611 655.664,-85.9865"/>
<polygon fill="midnightblue" stroke="midnightblue" points="659.164,-85.751 655.664,-75.7511 652.164,-85.7511 659.164,-85.751"/>
</g>
<!-- Node5&#45;&gt;Node12 -->
<g id="edge12" class="edge"><title>Node5&#45;&gt;Node12</title>
<path fill="none" stroke="midnightblue" d="M628.727,-112.444C598.567,-102.863 549.726,-87.3492 517.65,-77.1604"/>
<polygon fill="midnightblue" stroke="midnightblue" points="518.46,-73.7454 507.87,-74.0537 516.341,-80.4169 518.46,-73.7454"/>
</g>
<!-- Node6&#45;&gt;Node7 -->
<g id="edge7" class="edge"><title>Node6&#45;&gt;Node7</title>
<path fill="none" stroke="midnightblue" d="M844.103,-57.6943C839.219,-57.1112 834.357,-56.5396 829.664,-56 684.499,-39.3129 510.991,-21.4741 440.172,-14.2826"/>
<polygon fill="midnightblue" stroke="midnightblue" points="440.397,-10.7876 430.095,-13.2608 439.691,-17.7519 440.397,-10.7876"/>
</g>
<!-- Node8 -->
<g id="node9" class="node"><title>Node8</title>
<polygon fill="white" stroke="#bfbfbf" points="874.664,-0.5 874.664,-19.5 930.664,-19.5 930.664,-0.5 874.664,-0.5"/>
<text text-anchor="middle" x="902.664" y="-7.5" font-family="Helvetica,sans-Serif" font-size="10.00">sstream</text>
</g>
<!-- Node6&#45;&gt;Node8 -->
<g id="edge8" class="edge"><title>Node6&#45;&gt;Node8</title>
<path fill="none" stroke="midnightblue" d="M902.664,-56.083C902.664,-49.0059 902.664,-38.8611 902.664,-29.9865"/>
<polygon fill="midnightblue" stroke="midnightblue" points="906.164,-29.751 902.664,-19.7511 899.164,-29.7511 906.164,-29.751"/>
</g>
<!-- Node9 -->
<g id="node10" class="node"><title>Node9</title>
<polygon fill="white" stroke="#bfbfbf" points="948.664,-0.5 948.664,-19.5 1010.66,-19.5 1010.66,-0.5 948.664,-0.5"/>
<text text-anchor="middle" x="979.664" y="-7.5" font-family="Helvetica,sans-Serif" font-size="10.00">algorithm</text>
</g>
<!-- Node6&#45;&gt;Node9 -->
<g id="edge9" class="edge"><title>Node6&#45;&gt;Node9</title>
<path fill="none" stroke="midnightblue" d="M915.035,-56.324C926.822,-48.0577 944.796,-35.4527 958.799,-25.6322"/>
<polygon fill="midnightblue" stroke="midnightblue" points="961.145,-28.2619 967.323,-19.6545 957.126,-22.5307 961.145,-28.2619"/>
</g>
<!-- Node10 -->
<g id="node11" class="node"><title>Node10</title>
<polygon fill="white" stroke="#bfbfbf" points="809.164,-0.5 809.164,-19.5 856.164,-19.5 856.164,-0.5 809.164,-0.5"/>
<text text-anchor="middle" x="832.664" y="-7.5" font-family="Helvetica,sans-Serif" font-size="10.00">vector</text>
</g>
<!-- Node6&#45;&gt;Node10 -->
<g id="edge10" class="edge"><title>Node6&#45;&gt;Node10</title>
<path fill="none" stroke="midnightblue" d="M891.417,-56.324C880.866,-48.1849 864.863,-35.8395 852.221,-26.0874"/>
<polygon fill="midnightblue" stroke="midnightblue" points="854.171,-23.1707 844.115,-19.8339 849.895,-28.7132 854.171,-23.1707"/>
</g>
<!-- Node19&#45;&gt;Node7 -->
<g id="edge21" class="edge"><title>Node19&#45;&gt;Node7</title>
<path fill="none" stroke="midnightblue" d="M58.9593,-168.062C66.1114,-154.101 81.7653,-127.15 102.664,-112 188.969,-49.4359 316.387,-23.9964 375.441,-15.1191"/>
<polygon fill="midnightblue" stroke="midnightblue" points="376.248,-18.5391 385.646,-13.6491 375.25,-11.6106 376.248,-18.5391"/>
</g>
<!-- Node20&#45;&gt;Node4 -->
<g id="edge25" class="edge"><title>Node20&#45;&gt;Node4</title>
<path fill="none" stroke="midnightblue" d="M727.955,-224.337C734.29,-203.433 746.146,-164.31 753.127,-141.27"/>
<polygon fill="midnightblue" stroke="midnightblue" points="756.486,-142.255 756.037,-131.669 749.787,-140.225 756.486,-142.255"/>
</g>
</g>
</svg>
