<?xml version="1.0" encoding="UTF-8" standalone="no"?>
<!DOCTYPE svg PUBLIC "-//W3C//DTD SVG 1.1//EN"
 "http://www.w3.org/Graphics/SVG/1.1/DTD/svg11.dtd">
<!-- Generated by graphviz version 2.38.0 (20140413.2041)
 -->
<!-- Title: src/expconfig/ExpConfig.cc Pages: 1 -->
<svg width="4066pt" height="565pt"
 viewBox="0.00 0.00 4066.23 565.00" xmlns="http://www.w3.org/2000/svg" xmlns:xlink="http://www.w3.org/1999/xlink">
<g id="graph0" class="graph" transform="scale(1 1) rotate(0) translate(4 561)">
<title>src/expconfig/ExpConfig.cc</title>
<polygon fill="white" stroke="none" points="-4,4 -4,-561 4062.23,-561 4062.23,4 -4,4"/>
<!-- Node0 -->
<g id="node1" class="node"><title>Node0</title>
<polygon fill="#bfbfbf" stroke="black" points="1946.6,-537.5 1946.6,-556.5 2089.6,-556.5 2089.6,-537.5 1946.6,-537.5"/>
<text text-anchor="middle" x="2018.1" y="-544.5" font-family="Helvetica,sans-Serif" font-size="10.00">src/expconfig/ExpConfig.cc</text>
</g>
<!-- Node1 -->
<g id="node2" class="node"><title>Node1</title>
<g id="a_node2"><a xlink:href="_exp_config_8h.html" target="_top" xlink:title="ExpConfig.h">
<polygon fill="white" stroke="black" points="2329.6,-369.5 2329.6,-388.5 2402.6,-388.5 2402.6,-369.5 2329.6,-369.5"/>
<text text-anchor="middle" x="2366.1" y="-376.5" font-family="Helvetica,sans-Serif" font-size="10.00">ExpConfig.h</text>
</a>
</g>
</g>
<!-- Node0&#45;&gt;Node1 -->
<g id="edge1" class="edge"><title>Node0&#45;&gt;Node1</title>
<path fill="none" stroke="midnightblue" d="M2020.26,-537.051C2024.08,-523.074 2033.38,-496.102 2051.1,-481 2129.43,-414.27 2252.41,-391.473 2319.17,-383.8"/>
<polygon fill="midnightblue" stroke="midnightblue" points="2319.83,-387.25 2329.39,-382.694 2319.07,-380.291 2319.83,-387.25"/>
</g>
<!-- Node15 -->
<g id="node16" class="node"><title>Node15</title>
<polygon fill="white" stroke="#bfbfbf" points="2188.1,-56.5 2188.1,-75.5 2256.1,-75.5 2256.1,-56.5 2188.1,-56.5"/>
<text text-anchor="middle" x="2222.1" y="-63.5" font-family="Helvetica,sans-Serif" font-size="10.00">type_traits</text>
</g>
<!-- Node0&#45;&gt;Node15 -->
<g id="edge165" class="edge"><title>Node0&#45;&gt;Node15</title>
<path fill="none" stroke="midnightblue" d="M1946.41,-537.628C1846.12,-523.887 1676.1,-492.289 1676.1,-436 1676.1,-436 1676.1,-436 1676.1,-378 1676.1,-252.464 1672.21,-189.326 1771.1,-112 1802.71,-87.286 2070.23,-73.3881 2177.69,-68.7589"/>
<polygon fill="midnightblue" stroke="midnightblue" points="2178.03,-72.2475 2187.87,-68.3272 2177.73,-65.2538 2178.03,-72.2475"/>
</g>
<!-- Node20 -->
<g id="node21" class="node"><title>Node20</title>
<polygon fill="white" stroke="#bfbfbf" points="856.103,-56.5 856.103,-75.5 886.103,-75.5 886.103,-56.5 856.103,-56.5"/>
<text text-anchor="middle" x="871.103" y="-63.5" font-family="Helvetica,sans-Serif" font-size="10.00">list</text>
</g>
<!-- Node0&#45;&gt;Node20 -->
<g id="edge166" class="edge"><title>Node0&#45;&gt;Node20</title>
<path fill="none" stroke="midnightblue" d="M1946.22,-545.695C1669.69,-544.267 674.289,-536.706 360.103,-501 215.039,-484.514 38.1028,-581.998 38.1028,-436 38.1028,-436 38.1028,-436 38.1028,-193.5 38.1028,-123.033 106.829,-132.971 174.103,-112 303.232,-71.7477 736.611,-67.477 845.908,-67.0442"/>
<polygon fill="midnightblue" stroke="midnightblue" points="846.008,-70.544 855.996,-67.0119 845.985,-63.544 846.008,-70.544"/>
</g>
<!-- Node42 -->
<g id="node43" class="node"><title>Node42</title>
<g id="a_node43"><a xlink:href="_t_i_d_8h.html" target="_top" xlink:title="tree/TID.h">
<polygon fill="white" stroke="black" points="545.603,-185 545.603,-204 608.603,-204 608.603,-185 545.603,-185"/>
<text text-anchor="middle" x="577.103" y="-192" font-family="Helvetica,sans-Serif" font-size="10.00">tree/TID.h</text>
</a>
</g>
</g>
<!-- Node0&#45;&gt;Node42 -->
<g id="edge162" class="edge"><title>Node0&#45;&gt;Node42</title>
<path fill="none" stroke="midnightblue" d="M1946.35,-545.457C1610.4,-542.454 209.103,-524.616 209.103,-436 209.103,-436 209.103,-436 209.103,-322 209.103,-274.544 242.039,-267.971 284.103,-246 365.678,-203.391 475.748,-195.638 535.053,-194.857"/>
<polygon fill="midnightblue" stroke="midnightblue" points="535.194,-198.356 545.169,-194.785 535.144,-191.356 535.194,-198.356"/>
</g>
<!-- Node54 -->
<g id="node55" class="node"><title>Node54</title>
<g id="a_node55"><a xlink:href="_setup_8h.html" target="_top" xlink:title="setups/Setup.h">
<polygon fill="white" stroke="black" points="1201.6,-481.5 1201.6,-500.5 1290.6,-500.5 1290.6,-481.5 1201.6,-481.5"/>
<text text-anchor="middle" x="1246.1" y="-488.5" font-family="Helvetica,sans-Serif" font-size="10.00">setups/Setup.h</text>
</a>
</g>
</g>
<!-- Node0&#45;&gt;Node54 -->
<g id="edge112" class="edge"><title>Node0&#45;&gt;Node54</title>
<path fill="none" stroke="midnightblue" d="M1946.51,-540.992C1793.51,-530.29 1437.47,-505.386 1300.84,-495.829"/>
<polygon fill="midnightblue" stroke="midnightblue" points="1300.83,-492.32 1290.61,-495.113 1300.34,-499.303 1300.83,-492.32"/>
</g>
<!-- Node56 -->
<g id="node57" class="node"><title>Node56</title>
<g id="a_node57"><a xlink:href="_unpacker_acqu_8h.html" target="_top" xlink:title="unpacker/UnpackerAcqu.h">
<polygon fill="white" stroke="black" points="2988.6,-425.5 2988.6,-444.5 3131.6,-444.5 3131.6,-425.5 2988.6,-425.5"/>
<text text-anchor="middle" x="3060.1" y="-432.5" font-family="Helvetica,sans-Serif" font-size="10.00">unpacker/UnpackerAcqu.h</text>
</a>
</g>
</g>
<!-- Node0&#45;&gt;Node56 -->
<g id="edge160" class="edge"><title>Node0&#45;&gt;Node56</title>
<path fill="none" stroke="midnightblue" d="M2029.78,-537.471C2053.06,-520.55 2103.81,-484.089 2113.1,-481 2294.83,-420.593 2783.11,-458.973 2974.1,-445 2975.41,-444.904 2976.72,-444.805 2978.05,-444.702"/>
<polygon fill="midnightblue" stroke="midnightblue" points="2978.66,-448.164 2988.34,-443.849 2978.08,-441.187 2978.66,-448.164"/>
</g>
<!-- Node58 -->
<g id="node59" class="node"><title>Node58</title>
<g id="a_node59"><a xlink:href="_unpacker_a2_geant_8h.html" target="_top" xlink:title="unpacker/UnpackerA2Geant.h">
<polygon fill="white" stroke="black" points="2369.6,-425.5 2369.6,-444.5 2530.6,-444.5 2530.6,-425.5 2369.6,-425.5"/>
<text text-anchor="middle" x="2450.1" y="-432.5" font-family="Helvetica,sans-Serif" font-size="10.00">unpacker/UnpackerA2Geant.h</text>
</a>
</g>
</g>
<!-- Node0&#45;&gt;Node58 -->
<g id="edge161" class="edge"><title>Node0&#45;&gt;Node58</title>
<path fill="none" stroke="midnightblue" d="M2023.36,-537.461C2032.74,-523.04 2053.9,-494.148 2080.1,-481 2127.54,-457.201 2266.08,-445.426 2359.51,-440.036"/>
<polygon fill="midnightblue" stroke="midnightblue" points="2359.75,-443.529 2369.53,-439.472 2359.35,-436.54 2359.75,-443.529"/>
</g>
<!-- Node62 -->
<g id="node63" class="node"><title>Node62</title>
<g id="a_node63"><a xlink:href="_logger_8h.html" target="_top" xlink:title="base/Logger.h">
<polygon fill="white" stroke="black" points="2122.1,-481.5 2122.1,-500.5 2206.1,-500.5 2206.1,-481.5 2122.1,-481.5"/>
<text text-anchor="middle" x="2164.1" y="-488.5" font-family="Helvetica,sans-Serif" font-size="10.00">base/Logger.h</text>
</a>
</g>
</g>
<!-- Node0&#45;&gt;Node62 -->
<g id="edge163" class="edge"><title>Node0&#45;&gt;Node62</title>
<path fill="none" stroke="midnightblue" d="M2041.24,-537.444C2065.58,-528.438 2104.11,-514.189 2131.53,-504.049"/>
<polygon fill="midnightblue" stroke="midnightblue" points="2132.91,-507.268 2141.08,-500.516 2130.48,-500.703 2132.91,-507.268"/>
</g>
<!-- Node64 -->
<g id="node65" class="node"><title>Node64</title>
<polygon fill="white" stroke="#bfbfbf" points="2224.6,-481.5 2224.6,-500.5 2283.6,-500.5 2283.6,-481.5 2224.6,-481.5"/>
<text text-anchor="middle" x="2254.1" y="-488.5" font-family="Helvetica,sans-Serif" font-size="10.00">iostream</text>
</g>
<!-- Node0&#45;&gt;Node64 -->
<g id="edge167" class="edge"><title>Node0&#45;&gt;Node64</title>
<path fill="none" stroke="midnightblue" d="M2055.51,-537.482C2093.13,-528.909 2153.06,-515.235 2214.43,-501.15"/>
<polygon fill="midnightblue" stroke="midnightblue" points="2215.33,-504.535 2224.29,-498.886 2213.76,-497.713 2215.33,-504.535"/>
</g>
<!-- Node2 -->
<g id="node3" class="node"><title>Node2</title>
<g id="a_node3"><a xlink:href="_detector__t_8h.html" target="_top" xlink:title="base/Detector_t.h">
<polygon fill="white" stroke="black" points="3042.6,-185 3042.6,-204 3145.6,-204 3145.6,-185 3042.6,-185"/>
<text text-anchor="middle" x="3094.1" y="-192" font-family="Helvetica,sans-Serif" font-size="10.00">base/Detector_t.h</text>
</a>
</g>
</g>
<!-- Node1&#45;&gt;Node2 -->
<g id="edge2" class="edge"><title>Node1&#45;&gt;Node2</title>
<path fill="none" stroke="midnightblue" d="M2402.7,-377.579C2498.6,-375.278 2763.59,-361.167 2963.1,-277 3005.52,-259.104 3050.04,-228.497 3074.71,-210.317"/>
<polygon fill="midnightblue" stroke="midnightblue" points="3076.94,-213.016 3082.86,-204.227 3072.75,-207.408 3076.94,-213.016"/>
</g>
<!-- Node16 -->
<g id="node17" class="node"><title>Node16</title>
<g id="a_node17"><a xlink:href="_reconstruct__traits_8h.html" target="_top" xlink:title="reconstruct/Reconstruct\l_traits.h">
<polygon fill="white" stroke="black" points="2233.6,-246.5 2233.6,-276.5 2364.6,-276.5 2364.6,-246.5 2233.6,-246.5"/>
<text text-anchor="start" x="2241.6" y="-264.5" font-family="Helvetica,sans-Serif" font-size="10.00">reconstruct/Reconstruct</text>
<text text-anchor="middle" x="2299.1" y="-253.5" font-family="Helvetica,sans-Serif" font-size="10.00">_traits.h</text>
</a>
</g>
</g>
<!-- Node1&#45;&gt;Node16 -->
<g id="edge19" class="edge"><title>Node1&#45;&gt;Node16</title>
<path fill="none" stroke="midnightblue" d="M2361.07,-369.319C2350.82,-351.657 2327.26,-311.039 2312.32,-285.289"/>
<polygon fill="midnightblue" stroke="midnightblue" points="2315.3,-283.439 2307.25,-276.545 2309.24,-286.952 2315.3,-283.439"/>
</g>
<!-- Node19 -->
<g id="node20" class="node"><title>Node19</title>
<polygon fill="white" stroke="#bfbfbf" points="2307.6,-56.5 2307.6,-75.5 2364.6,-75.5 2364.6,-56.5 2307.6,-56.5"/>
<text text-anchor="middle" x="2336.1" y="-63.5" font-family="Helvetica,sans-Serif" font-size="10.00">memory</text>
</g>
<!-- Node1&#45;&gt;Node19 -->
<g id="edge109" class="edge"><title>Node1&#45;&gt;Node19</title>
<path fill="none" stroke="midnightblue" d="M2391.86,-369.459C2481.87,-338.349 2771.59,-226.893 2671.1,-112 2632.97,-68.4066 2454.48,-65.2852 2374.75,-66.141"/>
<polygon fill="midnightblue" stroke="midnightblue" points="2374.58,-62.6429 2364.63,-66.2771 2374.67,-69.6423 2374.58,-62.6429"/>
</g>
<!-- Node1&#45;&gt;Node20 -->
<g id="edge110" class="edge"><title>Node1&#45;&gt;Node20</title>
<path fill="none" stroke="midnightblue" d="M2329.47,-373.77C2122.18,-349.781 1103.33,-231.167 1040.1,-210 983.28,-190.977 967.135,-183.644 923.103,-143 904.813,-126.118 889.537,-101.661 880.374,-85.0862"/>
<polygon fill="midnightblue" stroke="midnightblue" points="883.28,-83.0989 875.486,-75.923 877.104,-86.3935 883.28,-83.0989"/>
</g>
<!-- Node24 -->
<g id="node25" class="node"><title>Node24</title>
<polygon fill="white" stroke="#bfbfbf" points="2375.1,-185 2375.1,-204 2413.1,-204 2413.1,-185 2375.1,-185"/>
<text text-anchor="middle" x="2394.1" y="-192" font-family="Helvetica,sans-Serif" font-size="10.00">map</text>
</g>
<!-- Node1&#45;&gt;Node24 -->
<g id="edge111" class="edge"><title>Node1&#45;&gt;Node24</title>
<path fill="none" stroke="midnightblue" d="M2367.45,-369.198C2371.77,-341.073 2385.29,-252.958 2391.24,-214.157"/>
<polygon fill="midnightblue" stroke="midnightblue" points="2394.71,-214.629 2392.77,-204.214 2387.79,-213.568 2394.71,-214.629"/>
</g>
<!-- Node25 -->
<g id="node26" class="node"><title>Node25</title>
<g id="a_node26"><a xlink:href="_calibration_8h.html" target="_top" xlink:title="calibration/Calibration.h">
<polygon fill="white" stroke="black" points="1518.6,-313.5 1518.6,-332.5 1647.6,-332.5 1647.6,-313.5 1518.6,-313.5"/>
<text text-anchor="middle" x="1583.1" y="-320.5" font-family="Helvetica,sans-Serif" font-size="10.00">calibration/Calibration.h</text>
</a>
</g>
</g>
<!-- Node1&#45;&gt;Node25 -->
<g id="edge37" class="edge"><title>Node1&#45;&gt;Node25</title>
<path fill="none" stroke="midnightblue" d="M2329.27,-375.632C2228.53,-369.13 1939.95,-350.327 1700.1,-333 1686.45,-332.014 1671.9,-330.925 1657.87,-329.856"/>
<polygon fill="midnightblue" stroke="midnightblue" points="1658.01,-326.356 1647.77,-329.083 1657.47,-333.336 1658.01,-326.356"/>
</g>
<!-- Node50 -->
<g id="node51" class="node"><title>Node50</title>
<g id="a_node51"><a xlink:href="piecewise__interval_8h.html" target="_top" xlink:title="base/piecewise_interval.h">
<polygon fill="white" stroke="black" points="2816.1,-252 2816.1,-271 2954.1,-271 2954.1,-252 2816.1,-252"/>
<text text-anchor="middle" x="2885.1" y="-259" font-family="Helvetica,sans-Serif" font-size="10.00">base/piecewise_interval.h</text>
</a>
</g>
</g>
<!-- Node1&#45;&gt;Node50 -->
<g id="edge98" class="edge"><title>Node1&#45;&gt;Node50</title>
<path fill="none" stroke="midnightblue" d="M2402.78,-375.333C2463.03,-370.407 2586.43,-358.017 2688.1,-333 2749.3,-317.942 2818.03,-290.913 2855.98,-275.056"/>
<polygon fill="midnightblue" stroke="midnightblue" points="2857.53,-278.199 2865.38,-271.089 2854.81,-271.749 2857.53,-278.199"/>
</g>
<!-- Node3 -->
<g id="node4" class="node"><title>Node3</title>
<g id="a_node4"><a xlink:href="bitflag_8h.html" target="_top" xlink:title="base/bitflag.h">
<polygon fill="white" stroke="black" points="3728.6,-118 3728.6,-137 3809.6,-137 3809.6,-118 3728.6,-118"/>
<text text-anchor="middle" x="3769.1" y="-125" font-family="Helvetica,sans-Serif" font-size="10.00">base/bitflag.h</text>
</a>
</g>
</g>
<!-- Node2&#45;&gt;Node3 -->
<g id="edge3" class="edge"><title>Node2&#45;&gt;Node3</title>
<path fill="none" stroke="midnightblue" d="M3128.18,-184.982C3138.39,-182.711 3149.65,-180.479 3160.1,-179 3404.41,-144.428 3470.57,-182.635 3714.1,-143 3719.65,-142.098 3725.44,-140.881 3731.1,-139.533"/>
<polygon fill="midnightblue" stroke="midnightblue" points="3732.23,-142.858 3741.06,-137.007 3730.51,-136.073 3732.23,-142.858"/>
</g>
<!-- Node5 -->
<g id="node6" class="node"><title>Node5</title>
<g id="a_node6"><a xlink:href="vec3_8h.html" target="_top" xlink:title="base/vec/vec3.h">
<polygon fill="white" stroke="black" points="3368.1,-118 3368.1,-137 3462.1,-137 3462.1,-118 3368.1,-118"/>
<text text-anchor="middle" x="3415.1" y="-125" font-family="Helvetica,sans-Serif" font-size="10.00">base/vec/vec3.h</text>
</a>
</g>
</g>
<!-- Node2&#45;&gt;Node5 -->
<g id="edge5" class="edge"><title>Node2&#45;&gt;Node5</title>
<path fill="none" stroke="midnightblue" d="M3132.1,-184.929C3141.26,-182.925 3151.02,-180.84 3160.1,-179 3246.05,-161.589 3268.31,-161.146 3354.1,-143 3359.49,-141.86 3365.14,-140.603 3370.73,-139.321"/>
<polygon fill="midnightblue" stroke="midnightblue" points="3371.71,-142.686 3380.65,-137.006 3370.12,-135.869 3371.71,-142.686"/>
</g>
<!-- Node9 -->
<g id="node10" class="node"><title>Node9</title>
<g id="a_node10"><a xlink:href="base_2std__ext_2math_8h.html" target="_top" xlink:title="base/std_ext/math.h">
<polygon fill="white" stroke="black" points="3556.1,-118 3556.1,-137 3672.1,-137 3672.1,-118 3556.1,-118"/>
<text text-anchor="middle" x="3614.1" y="-125" font-family="Helvetica,sans-Serif" font-size="10.00">base/std_ext/math.h</text>
</a>
</g>
</g>
<!-- Node2&#45;&gt;Node9 -->
<g id="edge10" class="edge"><title>Node2&#45;&gt;Node9</title>
<path fill="none" stroke="midnightblue" d="M3129.23,-184.947C3139.17,-182.757 3150.02,-180.577 3160.1,-179 3328.59,-152.655 3373.4,-167.868 3542.1,-143 3549.65,-141.888 3557.59,-140.505 3565.35,-139.037"/>
<polygon fill="midnightblue" stroke="midnightblue" points="3566.23,-142.43 3575.37,-137.075 3564.89,-135.56 3566.23,-142.43"/>
</g>
<!-- Node11 -->
<g id="node12" class="node"><title>Node11</title>
<polygon fill="white" stroke="#bfbfbf" points="3538.6,-0.5 3538.6,-19.5 3585.6,-19.5 3585.6,-0.5 3538.6,-0.5"/>
<text text-anchor="middle" x="3562.1" y="-7.5" font-family="Helvetica,sans-Serif" font-size="10.00">vector</text>
</g>
<!-- Node2&#45;&gt;Node11 -->
<g id="edge18" class="edge"><title>Node2&#45;&gt;Node11</title>
<path fill="none" stroke="midnightblue" d="M3127.83,-184.991C3138.13,-182.691 3149.52,-180.442 3160.1,-179 3232.65,-169.112 3767.76,-196.17 3818.1,-143 3835.81,-124.294 3805.49,-60.7579 3800.1,-56 3770.28,-29.6665 3654.51,-17.6764 3596.15,-13.2129"/>
<polygon fill="midnightblue" stroke="midnightblue" points="3596.18,-9.70603 3585.95,-12.4653 3595.67,-16.6873 3596.18,-9.70603"/>
</g>
<!-- Node12 -->
<g id="node13" class="node"><title>Node12</title>
<polygon fill="white" stroke="#bfbfbf" points="3866.6,-118 3866.6,-137 3915.6,-137 3915.6,-118 3866.6,-118"/>
<text text-anchor="middle" x="3891.1" y="-125" font-family="Helvetica,sans-Serif" font-size="10.00">cstdint</text>
</g>
<!-- Node2&#45;&gt;Node12 -->
<g id="edge14" class="edge"><title>Node2&#45;&gt;Node12</title>
<path fill="none" stroke="midnightblue" d="M3127.83,-184.973C3138.13,-182.672 3149.52,-180.428 3160.1,-179 3465.31,-137.819 3550.52,-205.381 3852.1,-143 3855.36,-142.327 3858.7,-141.428 3862,-140.405"/>
<polygon fill="midnightblue" stroke="midnightblue" points="3863.31,-143.656 3871.61,-137.071 3861.01,-137.042 3863.31,-143.656"/>
</g>
<!-- Node13 -->
<g id="node14" class="node"><title>Node13</title>
<polygon fill="white" stroke="#bfbfbf" points="2440.1,-118 2440.1,-137 2504.1,-137 2504.1,-118 2440.1,-118"/>
<text text-anchor="middle" x="2472.1" y="-125" font-family="Helvetica,sans-Serif" font-size="10.00">stdexcept</text>
</g>
<!-- Node2&#45;&gt;Node13 -->
<g id="edge15" class="edge"><title>Node2&#45;&gt;Node13</title>
<path fill="none" stroke="midnightblue" d="M3042.55,-193.37C2940.35,-192.162 2705.32,-184.636 2513.1,-143 2509.68,-142.258 2506.15,-141.309 2502.66,-140.252"/>
<polygon fill="midnightblue" stroke="midnightblue" points="2503.68,-136.901 2493.09,-137.069 2501.47,-143.544 2503.68,-136.901"/>
</g>
<!-- Node14 -->
<g id="node15" class="node"><title>Node14</title>
<polygon fill="white" stroke="#bfbfbf" points="1747.1,-0.5 1747.1,-19.5 1791.1,-19.5 1791.1,-0.5 1747.1,-0.5"/>
<text text-anchor="middle" x="1769.1" y="-7.5" font-family="Helvetica,sans-Serif" font-size="10.00">string</text>
</g>
<!-- Node2&#45;&gt;Node14 -->
<g id="edge16" class="edge"><title>Node2&#45;&gt;Node14</title>
<path fill="none" stroke="midnightblue" d="M3084.89,-184.936C3065.65,-167.648 3019.12,-128.799 2972.1,-112 2747.35,-31.6908 1970.36,-14.3366 1801.61,-11.4844"/>
<polygon fill="midnightblue" stroke="midnightblue" points="1801.44,-7.98133 1791.39,-11.317 1801.33,-14.9804 1801.44,-7.98133"/>
</g>
<!-- Node2&#45;&gt;Node15 -->
<g id="edge17" class="edge"><title>Node2&#45;&gt;Node15</title>
<path fill="none" stroke="midnightblue" d="M3043.48,-184.998C2986.09,-175.264 2889.74,-158.64 2807.1,-143 2738.93,-130.098 2722.7,-122.392 2654.1,-112 2496.87,-88.1808 2456.18,-93.3515 2298.1,-76 2287.8,-74.8692 2276.72,-73.592 2266.29,-72.3626"/>
<polygon fill="midnightblue" stroke="midnightblue" points="2266.48,-68.8602 2256.14,-71.1562 2265.66,-75.8114 2266.48,-68.8602"/>
</g>
<!-- Node4 -->
<g id="node5" class="node"><title>Node4</title>
<polygon fill="white" stroke="#bfbfbf" points="3747.1,-56.5 3747.1,-75.5 3791.1,-75.5 3791.1,-56.5 3747.1,-56.5"/>
<text text-anchor="middle" x="3769.1" y="-63.5" font-family="Helvetica,sans-Serif" font-size="10.00">bitset</text>
</g>
<!-- Node3&#45;&gt;Node4 -->
<g id="edge4" class="edge"><title>Node3&#45;&gt;Node4</title>
<path fill="none" stroke="midnightblue" d="M3769.1,-117.975C3769.1,-109.58 3769.1,-96.4806 3769.1,-85.6631"/>
<polygon fill="midnightblue" stroke="midnightblue" points="3772.6,-85.5091 3769.1,-75.5091 3765.6,-85.5091 3772.6,-85.5091"/>
</g>
<!-- Node6 -->
<g id="node7" class="node"><title>Node6</title>
<g id="a_node7"><a xlink:href="vec2_8h.html" target="_top" xlink:title="vec2.h">
<polygon fill="white" stroke="black" points="3372.1,-56.5 3372.1,-75.5 3420.1,-75.5 3420.1,-56.5 3372.1,-56.5"/>
<text text-anchor="middle" x="3396.1" y="-63.5" font-family="Helvetica,sans-Serif" font-size="10.00">vec2.h</text>
</a>
</g>
</g>
<!-- Node5&#45;&gt;Node6 -->
<g id="edge6" class="edge"><title>Node5&#45;&gt;Node6</title>
<path fill="none" stroke="midnightblue" d="M3412.38,-117.975C3409.67,-109.492 3405.43,-96.2043 3401.95,-85.3222"/>
<polygon fill="midnightblue" stroke="midnightblue" points="3405.2,-83.9705 3398.82,-75.5091 3398.53,-86.0999 3405.2,-83.9705"/>
</g>
<!-- Node7 -->
<g id="node8" class="node"><title>Node7</title>
<polygon fill="white" stroke="#bfbfbf" points="3372.6,-0.5 3372.6,-19.5 3419.6,-19.5 3419.6,-0.5 3372.6,-0.5"/>
<text text-anchor="middle" x="3396.1" y="-7.5" font-family="Helvetica,sans-Serif" font-size="10.00">cmath</text>
</g>
<!-- Node5&#45;&gt;Node7 -->
<g id="edge9" class="edge"><title>Node5&#45;&gt;Node7</title>
<path fill="none" stroke="midnightblue" d="M3419.71,-117.644C3426.11,-104.111 3436.17,-77.5839 3429.1,-56 3425.61,-45.3397 3418.53,-35.1174 3411.82,-27.1175"/>
<polygon fill="midnightblue" stroke="midnightblue" points="3414.41,-24.7633 3405.12,-19.66 3409.2,-29.4395 3414.41,-24.7633"/>
</g>
<!-- Node8 -->
<g id="node9" class="node"><title>Node8</title>
<polygon fill="white" stroke="#bfbfbf" points="3258.6,-56.5 3258.6,-75.5 3315.6,-75.5 3315.6,-56.5 3258.6,-56.5"/>
<text text-anchor="middle" x="3287.1" y="-63.5" font-family="Helvetica,sans-Serif" font-size="10.00">ostream</text>
</g>
<!-- Node5&#45;&gt;Node8 -->
<g id="edge8" class="edge"><title>Node5&#45;&gt;Node8</title>
<path fill="none" stroke="midnightblue" d="M3396.76,-117.975C3375.28,-107.99 3339.48,-91.3476 3314.66,-79.8075"/>
<polygon fill="midnightblue" stroke="midnightblue" points="3315.95,-76.5506 3305.41,-75.5091 3313,-82.8983 3315.95,-76.5506"/>
</g>
<!-- Node6&#45;&gt;Node7 -->
<g id="edge7" class="edge"><title>Node6&#45;&gt;Node7</title>
<path fill="none" stroke="midnightblue" d="M3396.1,-56.083C3396.1,-49.0059 3396.1,-38.8611 3396.1,-29.9865"/>
<polygon fill="midnightblue" stroke="midnightblue" points="3399.6,-29.751 3396.1,-19.7511 3392.6,-29.7511 3399.6,-29.751"/>
</g>
<!-- Node9&#45;&gt;Node7 -->
<g id="edge11" class="edge"><title>Node9&#45;&gt;Node7</title>
<path fill="none" stroke="midnightblue" d="M3597.72,-117.819C3559.91,-97.7864 3466.36,-48.2221 3421.24,-24.3164"/>
<polygon fill="midnightblue" stroke="midnightblue" points="3422.86,-21.2134 3412.38,-19.6245 3419.58,-27.3989 3422.86,-21.2134"/>
</g>
<!-- Node10 -->
<g id="node11" class="node"><title>Node10</title>
<polygon fill="white" stroke="#bfbfbf" points="3679.1,-56.5 3679.1,-75.5 3721.1,-75.5 3721.1,-56.5 3679.1,-56.5"/>
<text text-anchor="middle" x="3700.1" y="-63.5" font-family="Helvetica,sans-Serif" font-size="10.00">limits</text>
</g>
<!-- Node9&#45;&gt;Node10 -->
<g id="edge12" class="edge"><title>Node9&#45;&gt;Node10</title>
<path fill="none" stroke="midnightblue" d="M3626.42,-117.975C3640.22,-108.431 3662.8,-92.8073 3679.34,-81.3683"/>
<polygon fill="midnightblue" stroke="midnightblue" points="3681.57,-84.077 3687.8,-75.5091 3677.59,-78.3205 3681.57,-84.077"/>
</g>
<!-- Node9&#45;&gt;Node11 -->
<g id="edge13" class="edge"><title>Node9&#45;&gt;Node11</title>
<path fill="none" stroke="midnightblue" d="M3610.19,-117.819C3601.72,-99.006 3581.53,-54.1475 3570.19,-28.9553"/>
<polygon fill="midnightblue" stroke="midnightblue" points="3573.35,-27.4636 3566.06,-19.782 3566.97,-30.3374 3573.35,-27.4636"/>
</g>
<!-- Node16&#45;&gt;Node2 -->
<g id="edge20" class="edge"><title>Node16&#45;&gt;Node2</title>
<path fill="none" stroke="midnightblue" d="M2364.84,-255.125C2515.7,-242.791 2885.06,-212.592 3032.17,-200.564"/>
<polygon fill="midnightblue" stroke="midnightblue" points="3032.69,-204.033 3042.37,-199.73 3032.12,-197.056 3032.69,-204.033"/>
</g>
<!-- Node17 -->
<g id="node18" class="node"><title>Node17</title>
<g id="a_node18"><a xlink:href="mapped__vectors_8h.html" target="_top" xlink:title="base/std_ext/mapped\l_vectors.h">
<polygon fill="white" stroke="black" points="2235.6,-179.5 2235.6,-209.5 2356.6,-209.5 2356.6,-179.5 2235.6,-179.5"/>
<text text-anchor="start" x="2243.6" y="-197.5" font-family="Helvetica,sans-Serif" font-size="10.00">base/std_ext/mapped</text>
<text text-anchor="middle" x="2296.1" y="-186.5" font-family="Helvetica,sans-Serif" font-size="10.00">_vectors.h</text>
</a>
</g>
</g>
<!-- Node16&#45;&gt;Node17 -->
<g id="edge21" class="edge"><title>Node16&#45;&gt;Node17</title>
<path fill="none" stroke="midnightblue" d="M2298.45,-246.396C2298.09,-238.645 2297.64,-228.812 2297.23,-219.86"/>
<polygon fill="midnightblue" stroke="midnightblue" points="2300.71,-219.404 2296.75,-209.577 2293.72,-219.727 2300.71,-219.404"/>
</g>
<!-- Node16&#45;&gt;Node19 -->
<g id="edge33" class="edge"><title>Node16&#45;&gt;Node19</title>
<path fill="none" stroke="midnightblue" d="M2364.62,-256.706C2445.27,-250.916 2576.44,-237.514 2616.1,-210 2644.23,-190.489 2645.37,-176.101 2654.1,-143 2657.62,-129.678 2663.14,-122.403 2654.1,-112 2618.36,-70.8375 2451.67,-66.3033 2374.94,-66.457"/>
<polygon fill="midnightblue" stroke="midnightblue" points="2374.72,-62.958 2364.73,-66.5065 2374.75,-69.9579 2374.72,-62.958"/>
</g>
<!-- Node16&#45;&gt;Node20 -->
<g id="edge35" class="edge"><title>Node16&#45;&gt;Node20</title>
<path fill="none" stroke="midnightblue" d="M2233.42,-259.744C2025.79,-257.007 1385.28,-245.808 1181.1,-210 1082.52,-192.71 1054.49,-189.964 966.103,-143 949.74,-134.306 911.183,-101.83 888.539,-82.2545"/>
<polygon fill="midnightblue" stroke="midnightblue" points="890.832,-79.6101 880.987,-75.6941 886.241,-84.8946 890.832,-79.6101"/>
</g>
<!-- Node21 -->
<g id="node22" class="node"><title>Node21</title>
<g id="a_node22"><a xlink:href="shared__ptr__container_8h.html" target="_top" xlink:title="base/std_ext/shared\l_ptr_container.h">
<polygon fill="white" stroke="black" points="2816.1,-112.5 2816.1,-142.5 2930.1,-142.5 2930.1,-112.5 2816.1,-112.5"/>
<text text-anchor="start" x="2824.1" y="-130.5" font-family="Helvetica,sans-Serif" font-size="10.00">base/std_ext/shared</text>
<text text-anchor="middle" x="2873.1" y="-119.5" font-family="Helvetica,sans-Serif" font-size="10.00">_ptr_container.h</text>
</a>
</g>
</g>
<!-- Node16&#45;&gt;Node21 -->
<g id="edge28" class="edge"><title>Node16&#45;&gt;Node21</title>
<path fill="none" stroke="midnightblue" d="M2364.89,-259.378C2437.01,-256.263 2555.11,-245.557 2650.1,-210 2673.89,-201.097 2674.99,-189.522 2698.1,-179 2732.4,-163.387 2772.69,-151.367 2805.96,-142.977"/>
<polygon fill="midnightblue" stroke="midnightblue" points="2807.17,-146.283 2816.04,-140.49 2805.5,-139.486 2807.17,-146.283"/>
</g>
<!-- Node22 -->
<g id="node23" class="node"><title>Node22</title>
<polygon fill="white" stroke="#bfbfbf" points="1079.6,-56.5 1079.6,-75.5 1142.6,-75.5 1142.6,-56.5 1079.6,-56.5"/>
<text text-anchor="middle" x="1111.1" y="-63.5" font-family="Helvetica,sans-Serif" font-size="10.00">functional</text>
</g>
<!-- Node16&#45;&gt;Node22 -->
<g id="edge36" class="edge"><title>Node16&#45;&gt;Node22</title>
<path fill="none" stroke="midnightblue" d="M2233.34,-259.3C2045.99,-255.521 1511.97,-242.158 1340.1,-210 1246.3,-192.448 1203.6,-210.465 1136.1,-143 1120.86,-127.762 1114.91,-103.07 1112.59,-85.9857"/>
<polygon fill="midnightblue" stroke="midnightblue" points="1116.02,-85.1612 1111.49,-75.5834 1109.06,-85.8953 1116.02,-85.1612"/>
</g>
<!-- Node16&#45;&gt;Node24 -->
<g id="edge34" class="edge"><title>Node16&#45;&gt;Node24</title>
<path fill="none" stroke="midnightblue" d="M2319.72,-246.396C2335.5,-235.597 2357.19,-220.756 2373.08,-209.887"/>
<polygon fill="midnightblue" stroke="midnightblue" points="2375.39,-212.542 2381.67,-204.007 2371.44,-206.765 2375.39,-212.542"/>
</g>
<!-- Node17&#45;&gt;Node11 -->
<g id="edge25" class="edge"><title>Node17&#45;&gt;Node11</title>
<path fill="none" stroke="midnightblue" d="M2356.7,-180.283C2359.88,-179.8 2363.02,-179.367 2366.1,-179 2488.09,-164.488 3363.29,-201.883 3471.1,-143 3516.79,-118.046 3544.29,-59.0977 3555.8,-29.1464"/>
<polygon fill="midnightblue" stroke="midnightblue" points="3559.16,-30.134 3559.31,-19.5403 3552.59,-27.7269 3559.16,-30.134"/>
</g>
<!-- Node17&#45;&gt;Node15 -->
<g id="edge27" class="edge"><title>Node17&#45;&gt;Node15</title>
<path fill="none" stroke="midnightblue" d="M2287.9,-179.479C2274.35,-156.309 2247.3,-110.073 2232.45,-84.6912"/>
<polygon fill="midnightblue" stroke="midnightblue" points="2235.31,-82.6529 2227.24,-75.7885 2229.27,-86.1874 2235.31,-82.6529"/>
</g>
<!-- Node18 -->
<g id="node19" class="node"><title>Node18</title>
<g id="a_node19"><a xlink:href="memory_8h.html" target="_top" xlink:title="base/std_ext/memory.h">
<polygon fill="white" stroke="black" points="1780.6,-118 1780.6,-137 1909.6,-137 1909.6,-118 1780.6,-118"/>
<text text-anchor="middle" x="1845.1" y="-125" font-family="Helvetica,sans-Serif" font-size="10.00">base/std_ext/memory.h</text>
</a>
</g>
</g>
<!-- Node17&#45;&gt;Node18 -->
<g id="edge22" class="edge"><title>Node17&#45;&gt;Node18</title>
<path fill="none" stroke="midnightblue" d="M2235.41,-186.142C2161.66,-176.999 2033.52,-160.458 1924.1,-143 1916.17,-141.735 1907.81,-140.305 1899.62,-138.849"/>
<polygon fill="midnightblue" stroke="midnightblue" points="1900.21,-135.398 1889.74,-137.069 1898.96,-142.287 1900.21,-135.398"/>
</g>
<!-- Node17&#45;&gt;Node19 -->
<g id="edge26" class="edge"><title>Node17&#45;&gt;Node19</title>
<path fill="none" stroke="midnightblue" d="M2300.59,-179.352C2303.8,-169.228 2308.22,-155.276 2312.1,-143 2318.28,-123.467 2325.34,-101.106 2330.2,-85.7217"/>
<polygon fill="midnightblue" stroke="midnightblue" points="2333.63,-86.4829 2333.3,-75.8932 2326.95,-84.3765 2333.63,-86.4829"/>
</g>
<!-- Node18&#45;&gt;Node19 -->
<g id="edge23" class="edge"><title>Node18&#45;&gt;Node19</title>
<path fill="none" stroke="midnightblue" d="M1909.64,-118.006C1925.18,-115.999 1941.73,-113.893 1957.1,-112 2093.89,-95.1521 2128.29,-92.666 2265.1,-76 2275.56,-74.7266 2286.87,-73.31 2297.33,-71.9845"/>
<polygon fill="midnightblue" stroke="midnightblue" points="2297.96,-75.4324 2307.44,-70.6981 2297.08,-68.4884 2297.96,-75.4324"/>
</g>
<!-- Node18&#45;&gt;Node20 -->
<g id="edge24" class="edge"><title>Node18&#45;&gt;Node20</title>
<path fill="none" stroke="midnightblue" d="M1782.95,-117.967C1765.26,-115.763 1745.94,-113.572 1728.1,-112 1643.47,-104.543 1029.34,-74.6519 896.427,-68.2223"/>
<polygon fill="midnightblue" stroke="midnightblue" points="896.538,-64.7237 886.381,-67.7367 896.2,-71.7155 896.538,-64.7237"/>
</g>
<!-- Node21&#45;&gt;Node11 -->
<g id="edge29" class="edge"><title>Node21&#45;&gt;Node11</title>
<path fill="none" stroke="midnightblue" d="M2930.2,-114.658C2976.22,-104.906 3042.53,-90.391 3100.1,-76 3132.32,-67.9467 3139.51,-62.3672 3172.1,-56 3302.27,-30.573 3459.89,-17.801 3528.01,-13.1366"/>
<polygon fill="midnightblue" stroke="midnightblue" points="3528.42,-16.6174 3538.16,-12.4569 3527.95,-9.63308 3528.42,-16.6174"/>
</g>
<!-- Node21&#45;&gt;Node19 -->
<g id="edge30" class="edge"><title>Node21&#45;&gt;Node19</title>
<path fill="none" stroke="midnightblue" d="M2815.84,-114.268C2811.21,-113.441 2806.58,-112.672 2802.1,-112 2644.6,-88.3786 2455.19,-74.5533 2374.99,-69.3672"/>
<polygon fill="midnightblue" stroke="midnightblue" points="2375.07,-65.8649 2364.87,-68.7208 2374.62,-72.8507 2375.07,-65.8649"/>
</g>
<!-- Node21&#45;&gt;Node22 -->
<g id="edge31" class="edge"><title>Node21&#45;&gt;Node22</title>
<path fill="none" stroke="midnightblue" d="M2815.96,-122.136C2771.79,-118.904 2709.1,-114.622 2654.1,-112 2058.31,-83.5982 1332.2,-70.5679 1152.7,-67.6488"/>
<polygon fill="midnightblue" stroke="midnightblue" points="1152.68,-64.1482 1142.63,-67.4864 1152.57,-71.1473 1152.68,-64.1482"/>
</g>
<!-- Node23 -->
<g id="node24" class="node"><title>Node23</title>
<polygon fill="white" stroke="#bfbfbf" points="2815.1,-0.5 2815.1,-19.5 2877.1,-19.5 2877.1,-0.5 2815.1,-0.5"/>
<text text-anchor="middle" x="2846.1" y="-7.5" font-family="Helvetica,sans-Serif" font-size="10.00">algorithm</text>
</g>
<!-- Node21&#45;&gt;Node23 -->
<g id="edge32" class="edge"><title>Node21&#45;&gt;Node23</title>
<path fill="none" stroke="midnightblue" d="M2869.79,-112.337C2864.93,-91.5271 2855.84,-52.6632 2850.45,-29.5834"/>
<polygon fill="midnightblue" stroke="midnightblue" points="2853.81,-28.6102 2848.13,-19.6695 2847,-30.2037 2853.81,-28.6102"/>
</g>
<!-- Node25&#45;&gt;Node11 -->
<g id="edge97" class="edge"><title>Node25&#45;&gt;Node11</title>
<path fill="none" stroke="midnightblue" d="M1647.77,-320.298C1782.83,-316.309 2104.57,-304.528 2373.1,-277 2668.11,-246.759 2738.41,-212.123 3033.1,-179 3137.2,-167.3 3412.61,-195.765 3503.1,-143 3543.48,-119.455 3556.33,-60.3226 3560.34,-29.8318"/>
<polygon fill="midnightblue" stroke="midnightblue" points="3563.84,-30.0108 3561.48,-19.6823 3556.89,-29.2284 3563.84,-30.0108"/>
</g>
<!-- Node25&#45;&gt;Node16 -->
<g id="edge38" class="edge"><title>Node25&#45;&gt;Node16</title>
<path fill="none" stroke="midnightblue" d="M1648,-316.83C1751.04,-308.593 1958.37,-291.897 2134.1,-277 2163.2,-274.534 2195.16,-271.743 2223.15,-269.273"/>
<polygon fill="midnightblue" stroke="midnightblue" points="2223.62,-272.746 2233.27,-268.379 2223,-265.773 2223.62,-272.746"/>
</g>
<!-- Node26 -->
<g id="node27" class="node"><title>Node26</title>
<g id="a_node27"><a xlink:href="_manager__traits_8h.html" target="_top" xlink:title="calibration/gui/Manager\l_traits.h">
<polygon fill="white" stroke="black" points="1137.1,-246.5 1137.1,-276.5 1265.1,-276.5 1265.1,-246.5 1137.1,-246.5"/>
<text text-anchor="start" x="1145.1" y="-264.5" font-family="Helvetica,sans-Serif" font-size="10.00">calibration/gui/Manager</text>
<text text-anchor="middle" x="1201.1" y="-253.5" font-family="Helvetica,sans-Serif" font-size="10.00">_traits.h</text>
</a>
</g>
</g>
<!-- Node25&#45;&gt;Node26 -->
<g id="edge39" class="edge"><title>Node25&#45;&gt;Node26</title>
<path fill="none" stroke="midnightblue" d="M1528.37,-313.475C1461.97,-303.133 1349.72,-285.649 1275.51,-274.09"/>
<polygon fill="midnightblue" stroke="midnightblue" points="1275.72,-270.58 1265.3,-272.499 1274.64,-277.497 1275.72,-270.58"/>
</g>
<!-- Node49 -->
<g id="node50" class="node"><title>Node49</title>
<g id="a_node50"><a xlink:href="_options_list_8h.html" target="_top" xlink:title="base/OptionsList.h">
<polygon fill="white" stroke="black" points="943.603,-252 943.603,-271 1048.6,-271 1048.6,-252 943.603,-252"/>
<text text-anchor="middle" x="996.103" y="-259" font-family="Helvetica,sans-Serif" font-size="10.00">base/OptionsList.h</text>
</a>
</g>
</g>
<!-- Node25&#45;&gt;Node49 -->
<g id="edge91" class="edge"><title>Node25&#45;&gt;Node49</title>
<path fill="none" stroke="midnightblue" d="M1518.28,-315.812C1430.01,-307.334 1267.05,-291.503 1128.1,-277 1105.54,-274.645 1080.81,-271.957 1058.93,-269.541"/>
<polygon fill="midnightblue" stroke="midnightblue" points="1059.08,-266.038 1048.76,-268.416 1058.31,-272.995 1059.08,-266.038"/>
</g>
<!-- Node26&#45;&gt;Node14 -->
<g id="edge87" class="edge"><title>Node26&#45;&gt;Node14</title>
<path fill="none" stroke="midnightblue" d="M1136.99,-253.609C1112.06,-251.044 1083.27,-248.221 1057.1,-246 825.827,-226.37 764.709,-250.166 536.103,-210 401.558,-186.36 174.748,-153.819 270.103,-56 297.471,-27.925 1641.98,-22.4963 1681.1,-20 1699.58,-18.8209 1720.18,-16.7557 1736.8,-14.9008"/>
<polygon fill="midnightblue" stroke="midnightblue" points="1737.54,-18.3383 1747.08,-13.7237 1736.75,-11.3837 1737.54,-18.3383"/>
</g>
<!-- Node26&#45;&gt;Node19 -->
<g id="edge89" class="edge"><title>Node26&#45;&gt;Node19</title>
<path fill="none" stroke="midnightblue" d="M1265.29,-256.769C1452.57,-245.238 1995.47,-207.034 2160.1,-143 2183.77,-133.794 2185.3,-123.178 2208.1,-112 2237.05,-97.8133 2271.62,-85.9358 2297.53,-77.9521"/>
<polygon fill="midnightblue" stroke="midnightblue" points="2298.8,-81.2251 2307.36,-74.9824 2296.78,-74.5243 2298.8,-81.2251"/>
</g>
<!-- Node26&#45;&gt;Node20 -->
<g id="edge88" class="edge"><title>Node26&#45;&gt;Node20</title>
<path fill="none" stroke="midnightblue" d="M1136.88,-254.637C1068.27,-247.301 965.074,-232.851 933.103,-210 891.733,-180.431 877.691,-117.217 873.148,-85.6865"/>
<polygon fill="midnightblue" stroke="midnightblue" points="876.602,-85.1044 871.871,-75.6247 869.658,-85.9858 876.602,-85.1044"/>
</g>
<!-- Node26&#45;&gt;Node22 -->
<g id="edge90" class="edge"><title>Node26&#45;&gt;Node22</title>
<path fill="none" stroke="midnightblue" d="M1145,-246.389C1126.5,-238.781 1107.91,-227.268 1097.1,-210 1072.58,-170.832 1090.88,-113.47 1102.87,-84.7547"/>
<polygon fill="midnightblue" stroke="midnightblue" points="1106.09,-86.1218 1106.91,-75.5585 1099.68,-83.3063 1106.09,-86.1218"/>
</g>
<!-- Node27 -->
<g id="node28" class="node"><title>Node27</title>
<g id="a_node28"><a xlink:href="interval_8h.html" target="_top" xlink:title="base/interval.h">
<polygon fill="white" stroke="black" points="2520.6,-185 2520.6,-204 2607.6,-204 2607.6,-185 2520.6,-185"/>
<text text-anchor="middle" x="2564.1" y="-192" font-family="Helvetica,sans-Serif" font-size="10.00">base/interval.h</text>
</a>
</g>
</g>
<!-- Node26&#45;&gt;Node27 -->
<g id="edge40" class="edge"><title>Node26&#45;&gt;Node27</title>
<path fill="none" stroke="midnightblue" d="M1265.26,-259.965C1493.7,-257.76 2266.75,-247.628 2511.1,-210 2516.58,-209.156 2522.31,-207.948 2527.88,-206.584"/>
<polygon fill="midnightblue" stroke="midnightblue" points="2528.89,-209.938 2537.67,-204.007 2527.11,-203.169 2528.89,-209.938"/>
</g>
<!-- Node31 -->
<g id="node32" class="node"><title>Node31</title>
<g id="a_node32"><a xlink:href="_wrap_t_file_8h.html" target="_top" xlink:title="base/WrapTFile.h">
<polygon fill="white" stroke="black" points="1349.6,-185 1349.6,-204 1444.6,-204 1444.6,-185 1349.6,-185"/>
<text text-anchor="middle" x="1397.1" y="-192" font-family="Helvetica,sans-Serif" font-size="10.00">base/WrapTFile.h</text>
</a>
</g>
</g>
<!-- Node26&#45;&gt;Node31 -->
<g id="edge48" class="edge"><title>Node26&#45;&gt;Node31</title>
<path fill="none" stroke="midnightblue" d="M1243.63,-246.396C1278.94,-234.688 1328.56,-218.231 1361.72,-207.234"/>
<polygon fill="midnightblue" stroke="midnightblue" points="1363.06,-210.477 1371.45,-204.007 1360.86,-203.833 1363.06,-210.477"/>
</g>
<!-- Node26&#45;&gt;Node42 -->
<g id="edge74" class="edge"><title>Node26&#45;&gt;Node42</title>
<path fill="none" stroke="midnightblue" d="M1136.97,-253.819C1009.05,-240.494 725.351,-210.943 618.708,-199.834"/>
<polygon fill="midnightblue" stroke="midnightblue" points="618.964,-196.342 608.655,-198.787 618.239,-203.304 618.964,-196.342"/>
</g>
<!-- Node27&#45;&gt;Node7 -->
<g id="edge47" class="edge"><title>Node27&#45;&gt;Node7</title>
<path fill="none" stroke="midnightblue" d="M2607.8,-188.212C2633.97,-185.186 2667.9,-181.505 2698.1,-179 2767.2,-173.268 3263.46,-181.541 3321.1,-143 3356.8,-119.134 3340.98,-92.7994 3363.1,-56 3368.97,-46.2436 3376.4,-35.9633 3382.73,-27.6954"/>
<polygon fill="midnightblue" stroke="midnightblue" points="3385.63,-29.6672 3389.03,-19.6336 3380.11,-25.3554 3385.63,-29.6672"/>
</g>
<!-- Node27&#45;&gt;Node10 -->
<g id="edge44" class="edge"><title>Node27&#45;&gt;Node10</title>
<path fill="none" stroke="midnightblue" d="M2607.66,-192.238C2811.25,-186.253 3659.95,-160.301 3681.1,-143 3697.76,-129.375 3701.09,-103.553 3701.2,-85.8205"/>
<polygon fill="midnightblue" stroke="midnightblue" points="3704.69,-85.6774 3700.92,-75.7754 3697.7,-85.8662 3704.69,-85.6774"/>
</g>
<!-- Node27&#45;&gt;Node13 -->
<g id="edge43" class="edge"><title>Node27&#45;&gt;Node13</title>
<path fill="none" stroke="midnightblue" d="M2551.7,-184.734C2536.52,-174.013 2510.62,-155.716 2492.5,-142.914"/>
<polygon fill="midnightblue" stroke="midnightblue" points="2494.5,-140.039 2484.31,-137.127 2490.46,-145.756 2494.5,-140.039"/>
</g>
<!-- Node27&#45;&gt;Node23 -->
<g id="edge42" class="edge"><title>Node27&#45;&gt;Node23</title>
<path fill="none" stroke="midnightblue" d="M2607.84,-188.369C2705.59,-176.801 2933.67,-149.213 2939.1,-143 2973.95,-103.143 2906.77,-50.253 2869.13,-25.2516"/>
<polygon fill="midnightblue" stroke="midnightblue" points="2871.01,-22.2996 2860.71,-19.7974 2867.2,-28.1736 2871.01,-22.2996"/>
</g>
<!-- Node28 -->
<g id="node29" class="node"><title>Node28</title>
<g id="a_node29"><a xlink:href="types_8h.html" target="_top" xlink:title="types.h">
<polygon fill="white" stroke="black" points="2522.1,-118 2522.1,-137 2574.1,-137 2574.1,-118 2522.1,-118"/>
<text text-anchor="middle" x="2548.1" y="-125" font-family="Helvetica,sans-Serif" font-size="10.00">types.h</text>
</a>
</g>
</g>
<!-- Node27&#45;&gt;Node28 -->
<g id="edge41" class="edge"><title>Node27&#45;&gt;Node28</title>
<path fill="none" stroke="midnightblue" d="M2561.94,-184.734C2559.57,-175.085 2555.68,-159.3 2552.63,-146.906"/>
<polygon fill="midnightblue" stroke="midnightblue" points="2556.02,-146.001 2550.23,-137.127 2549.22,-147.674 2556.02,-146.001"/>
</g>
<!-- Node29 -->
<g id="node30" class="node"><title>Node29</title>
<polygon fill="white" stroke="#bfbfbf" points="2592.6,-118 2592.6,-137 2645.6,-137 2645.6,-118 2592.6,-118"/>
<text text-anchor="middle" x="2619.1" y="-125" font-family="Helvetica,sans-Serif" font-size="10.00">istream</text>
</g>
<!-- Node27&#45;&gt;Node29 -->
<g id="edge45" class="edge"><title>Node27&#45;&gt;Node29</title>
<path fill="none" stroke="midnightblue" d="M2571.52,-184.734C2580.1,-174.598 2594.4,-157.69 2605.09,-145.056"/>
<polygon fill="midnightblue" stroke="midnightblue" points="2608.02,-147.022 2611.8,-137.127 2602.67,-142.5 2608.02,-147.022"/>
</g>
<!-- Node30 -->
<g id="node31" class="node"><title>Node30</title>
<polygon fill="white" stroke="#bfbfbf" points="1616.1,-0.5 1616.1,-19.5 1672.1,-19.5 1672.1,-0.5 1616.1,-0.5"/>
<text text-anchor="middle" x="1644.1" y="-7.5" font-family="Helvetica,sans-Serif" font-size="10.00">sstream</text>
</g>
<!-- Node27&#45;&gt;Node30 -->
<g id="edge46" class="edge"><title>Node27&#45;&gt;Node30</title>
<path fill="none" stroke="midnightblue" d="M2537.1,-184.981C2528.84,-182.681 2519.66,-180.434 2511.1,-179 2389.43,-158.618 2072.2,-187.411 1957.1,-143 1936.45,-135.029 1938.34,-120.988 1918.1,-112 1828.76,-72.3145 1786.54,-123.524 1701.1,-76 1680.9,-64.7616 1664.37,-43.5156 1654.41,-28.3734"/>
<polygon fill="midnightblue" stroke="midnightblue" points="1657.36,-26.4906 1649.09,-19.878 1651.43,-30.2095 1657.36,-26.4906"/>
</g>
<!-- Node31&#45;&gt;Node13 -->
<g id="edge72" class="edge"><title>Node31&#45;&gt;Node13</title>
<path fill="none" stroke="midnightblue" d="M1444.68,-190.623C1624.28,-179.764 2259.47,-141.357 2429.81,-131.057"/>
<polygon fill="midnightblue" stroke="midnightblue" points="2430.12,-134.545 2439.89,-130.448 2429.69,-127.558 2430.12,-134.545"/>
</g>
<!-- Node31&#45;&gt;Node14 -->
<g id="edge69" class="edge"><title>Node31&#45;&gt;Node14</title>
<path fill="none" stroke="midnightblue" d="M1349.32,-189.772C1279.88,-182.561 1163.71,-162.673 1206.1,-112 1240.71,-70.634 1622.01,-26.7419 1736.68,-14.3997"/>
<polygon fill="midnightblue" stroke="midnightblue" points="1737.35,-17.8479 1746.92,-13.3049 1736.6,-10.8875 1737.35,-17.8479"/>
</g>
<!-- Node31&#45;&gt;Node19 -->
<g id="edge68" class="edge"><title>Node31&#45;&gt;Node19</title>
<path fill="none" stroke="midnightblue" d="M1444.71,-191.496C1591.02,-185.131 2027.9,-164.525 2088.1,-143 2110.63,-134.947 2110.22,-121.655 2132.1,-112 2161.36,-99.0933 2247.12,-82.6143 2297.65,-73.6095"/>
<polygon fill="midnightblue" stroke="midnightblue" points="2298.32,-77.0448 2307.56,-71.8584 2297.1,-70.1516 2298.32,-77.0448"/>
</g>
<!-- Node31&#45;&gt;Node20 -->
<g id="edge70" class="edge"><title>Node31&#45;&gt;Node20</title>
<path fill="none" stroke="midnightblue" d="M1349.2,-185.539C1296.65,-176.5 1209.93,-160.693 1136.1,-143 1046.75,-121.586 942.38,-89.5486 895.768,-74.864"/>
<polygon fill="midnightblue" stroke="midnightblue" points="896.804,-71.5211 886.214,-71.8421 894.693,-78.1951 896.804,-71.5211"/>
</g>
<!-- Node31&#45;&gt;Node22 -->
<g id="edge73" class="edge"><title>Node31&#45;&gt;Node22</title>
<path fill="none" stroke="midnightblue" d="M1349.56,-191.716C1301.74,-187.969 1227.51,-176.668 1173.1,-143 1149.65,-128.485 1131.05,-101.906 1120.55,-84.3443"/>
<polygon fill="midnightblue" stroke="midnightblue" points="1123.58,-82.5901 1115.58,-75.6494 1117.51,-86.0671 1123.58,-82.5901"/>
</g>
<!-- Node32 -->
<g id="node33" class="node"><title>Node32</title>
<g id="a_node33"><a xlink:href="string_8h.html" target="_top" xlink:title="base/std_ext/string.h">
<polygon fill="white" stroke="black" points="1710.6,-56.5 1710.6,-75.5 1827.6,-75.5 1827.6,-56.5 1710.6,-56.5"/>
<text text-anchor="middle" x="1769.1" y="-63.5" font-family="Helvetica,sans-Serif" font-size="10.00">base/std_ext/string.h</text>
</a>
</g>
</g>
<!-- Node31&#45;&gt;Node32 -->
<g id="edge49" class="edge"><title>Node31&#45;&gt;Node32</title>
<path fill="none" stroke="midnightblue" d="M1444.78,-190.029C1498.22,-184.838 1586.62,-172.304 1657.1,-143 1693.72,-127.777 1730.73,-99.5999 1751.7,-82.1617"/>
<polygon fill="midnightblue" stroke="midnightblue" points="1754.05,-84.7619 1759.41,-75.6274 1749.52,-79.4209 1754.05,-84.7619"/>
</g>
<!-- Node33 -->
<g id="node34" class="node"><title>Node33</title>
<g id="a_node34"><a xlink:href="misc_8h.html" target="_top" xlink:title="base/std_ext/misc.h">
<polygon fill="white" stroke="black" points="1966.6,-118 1966.6,-137 2079.6,-137 2079.6,-118 1966.6,-118"/>
<text text-anchor="middle" x="2023.1" y="-125" font-family="Helvetica,sans-Serif" font-size="10.00">base/std_ext/misc.h</text>
</a>
</g>
</g>
<!-- Node31&#45;&gt;Node33 -->
<g id="edge54" class="edge"><title>Node31&#45;&gt;Node33</title>
<path fill="none" stroke="midnightblue" d="M1444.94,-189.517C1536.78,-181.726 1744.14,-163.435 1918.1,-143 1930.51,-141.543 1943.71,-139.84 1956.42,-138.123"/>
<polygon fill="midnightblue" stroke="midnightblue" points="1957.05,-141.57 1966.48,-136.748 1956.1,-134.634 1957.05,-141.57"/>
</g>
<!-- Node35 -->
<g id="node36" class="node"><title>Node35</title>
<polygon fill="white" stroke="#bfbfbf" points="1215.1,-118 1215.1,-137 1261.1,-137 1261.1,-118 1215.1,-118"/>
<text text-anchor="middle" x="1238.1" y="-125" font-family="Helvetica,sans-Serif" font-size="10.00">TFile.h</text>
</g>
<!-- Node31&#45;&gt;Node35 -->
<g id="edge62" class="edge"><title>Node31&#45;&gt;Node35</title>
<path fill="none" stroke="midnightblue" d="M1374.49,-184.877C1348.99,-175.069 1306.35,-158.409 1270.1,-143 1268.73,-142.418 1267.34,-141.816 1265.93,-141.202"/>
<polygon fill="midnightblue" stroke="midnightblue" points="1267.21,-137.943 1256.65,-137.083 1264.37,-144.34 1267.21,-137.943"/>
</g>
<!-- Node36 -->
<g id="node37" class="node"><title>Node36</title>
<polygon fill="white" stroke="#bfbfbf" points="1279.6,-118 1279.6,-137 1352.6,-137 1352.6,-118 1279.6,-118"/>
<text text-anchor="middle" x="1316.1" y="-125" font-family="Helvetica,sans-Serif" font-size="10.00">TDirectory.h</text>
</g>
<!-- Node31&#45;&gt;Node36 -->
<g id="edge63" class="edge"><title>Node31&#45;&gt;Node36</title>
<path fill="none" stroke="midnightblue" d="M1386.18,-184.734C1373.06,-174.208 1350.84,-156.379 1334.94,-143.617"/>
<polygon fill="midnightblue" stroke="midnightblue" points="1336.84,-140.656 1326.85,-137.127 1332.46,-146.116 1336.84,-140.656"/>
</g>
<!-- Node37 -->
<g id="node38" class="node"><title>Node37</title>
<polygon fill="white" stroke="#bfbfbf" points="1370.6,-118 1370.6,-137 1423.6,-137 1423.6,-118 1370.6,-118"/>
<text text-anchor="middle" x="1397.1" y="-125" font-family="Helvetica,sans-Serif" font-size="10.00">TError.h</text>
</g>
<!-- Node31&#45;&gt;Node37 -->
<g id="edge64" class="edge"><title>Node31&#45;&gt;Node37</title>
<path fill="none" stroke="midnightblue" d="M1397.1,-184.734C1397.1,-175.183 1397.1,-159.618 1397.1,-147.283"/>
<polygon fill="midnightblue" stroke="midnightblue" points="1400.6,-147.127 1397.1,-137.127 1393.6,-147.127 1400.6,-147.127"/>
</g>
<!-- Node38 -->
<g id="node39" class="node"><title>Node38</title>
<polygon fill="white" stroke="#bfbfbf" points="1441.6,-118 1441.6,-137 1488.6,-137 1488.6,-118 1441.6,-118"/>
<text text-anchor="middle" x="1465.1" y="-125" font-family="Helvetica,sans-Serif" font-size="10.00">TList.h</text>
</g>
<!-- Node31&#45;&gt;Node38 -->
<g id="edge65" class="edge"><title>Node31&#45;&gt;Node38</title>
<path fill="none" stroke="midnightblue" d="M1406.27,-184.734C1417.08,-174.403 1435.25,-157.037 1448.54,-144.332"/>
<polygon fill="midnightblue" stroke="midnightblue" points="1451.27,-146.567 1456.08,-137.127 1446.43,-141.507 1451.27,-146.567"/>
</g>
<!-- Node39 -->
<g id="node40" class="node"><title>Node39</title>
<polygon fill="white" stroke="#bfbfbf" points="1506.6,-118 1506.6,-137 1583.6,-137 1583.6,-118 1506.6,-118"/>
<text text-anchor="middle" x="1545.1" y="-125" font-family="Helvetica,sans-Serif" font-size="10.00">TCollection.h</text>
</g>
<!-- Node31&#45;&gt;Node39 -->
<g id="edge66" class="edge"><title>Node31&#45;&gt;Node39</title>
<path fill="none" stroke="midnightblue" d="M1416.76,-184.869C1442.19,-173.699 1486.71,-154.147 1516.05,-141.26"/>
<polygon fill="midnightblue" stroke="midnightblue" points="1517.62,-144.393 1525.37,-137.167 1514.8,-137.984 1517.62,-144.393"/>
</g>
<!-- Node40 -->
<g id="node41" class="node"><title>Node40</title>
<polygon fill="white" stroke="#bfbfbf" points="1602.1,-118 1602.1,-137 1648.1,-137 1648.1,-118 1602.1,-118"/>
<text text-anchor="middle" x="1625.1" y="-125" font-family="Helvetica,sans-Serif" font-size="10.00">TKey.h</text>
</g>
<!-- Node31&#45;&gt;Node40 -->
<g id="edge67" class="edge"><title>Node31&#45;&gt;Node40</title>
<path fill="none" stroke="midnightblue" d="M1438,-184.921C1477.85,-176.093 1539.9,-161.098 1592.1,-143 1593.97,-142.354 1595.87,-141.648 1597.78,-140.906"/>
<polygon fill="midnightblue" stroke="midnightblue" points="1599.26,-144.078 1607.16,-137.009 1596.58,-137.613 1599.26,-144.078"/>
</g>
<!-- Node41 -->
<g id="node42" class="node"><title>Node41</title>
<polygon fill="white" stroke="#bfbfbf" points="975.103,-118 975.103,-137 1007.1,-137 1007.1,-118 975.103,-118"/>
<text text-anchor="middle" x="991.103" y="-125" font-family="Helvetica,sans-Serif" font-size="10.00">set</text>
</g>
<!-- Node31&#45;&gt;Node41 -->
<g id="edge71" class="edge"><title>Node31&#45;&gt;Node41</title>
<path fill="none" stroke="midnightblue" d="M1349.49,-191.912C1277.13,-188.435 1135.75,-177.445 1021.1,-143 1019.43,-142.496 1017.73,-141.909 1016.04,-141.266"/>
<polygon fill="midnightblue" stroke="midnightblue" points="1017.17,-137.943 1006.61,-137.145 1014.37,-144.357 1017.17,-137.943"/>
</g>
<!-- Node32&#45;&gt;Node11 -->
<g id="edge53" class="edge"><title>Node32&#45;&gt;Node11</title>
<path fill="none" stroke="midnightblue" d="M1827.96,-61.2595C1858.44,-59.437 1896.26,-57.3524 1930.1,-56 2595.54,-29.4116 2762.82,-50.3214 3428.1,-20 3462.24,-18.4443 3501.2,-15.7204 3528.28,-13.6756"/>
<polygon fill="midnightblue" stroke="midnightblue" points="3528.69,-17.1544 3538.4,-12.9016 3528.16,-10.1748 3528.69,-17.1544"/>
</g>
<!-- Node32&#45;&gt;Node14 -->
<g id="edge50" class="edge"><title>Node32&#45;&gt;Node14</title>
<path fill="none" stroke="midnightblue" d="M1769.1,-56.083C1769.1,-49.0059 1769.1,-38.8611 1769.1,-29.9865"/>
<polygon fill="midnightblue" stroke="midnightblue" points="1772.6,-29.751 1769.1,-19.7511 1765.6,-29.7511 1772.6,-29.751"/>
</g>
<!-- Node32&#45;&gt;Node23 -->
<g id="edge52" class="edge"><title>Node32&#45;&gt;Node23</title>
<path fill="none" stroke="midnightblue" d="M1827.98,-61.6132C1858.46,-59.8842 1896.28,-57.7764 1930.1,-56 2267.63,-38.2753 2675.24,-19.0034 2804.62,-12.9381"/>
<polygon fill="midnightblue" stroke="midnightblue" points="2805.03,-16.4224 2814.86,-12.4582 2804.71,-9.43008 2805.03,-16.4224"/>
</g>
<!-- Node32&#45;&gt;Node30 -->
<g id="edge51" class="edge"><title>Node32&#45;&gt;Node30</title>
<path fill="none" stroke="midnightblue" d="M1749.3,-56.4435C1728.82,-47.5961 1696.62,-33.6875 1673.24,-23.5865"/>
<polygon fill="midnightblue" stroke="midnightblue" points="1674.38,-20.2692 1663.82,-19.5164 1671.61,-26.6953 1674.38,-20.2692"/>
</g>
<!-- Node33&#45;&gt;Node7 -->
<g id="edge57" class="edge"><title>Node33&#45;&gt;Node7</title>
<path fill="none" stroke="midnightblue" d="M2079.86,-124.396C2278.5,-116.928 2935.54,-91.327 3029.1,-76 3061.46,-70.7004 3068.06,-62.9214 3100.1,-56 3194.18,-35.6809 3307.01,-21.2139 3362.26,-14.763"/>
<polygon fill="midnightblue" stroke="midnightblue" points="3362.98,-18.2026 3372.52,-13.5803 3362.18,-11.2487 3362.98,-18.2026"/>
</g>
<!-- Node33&#45;&gt;Node14 -->
<g id="edge61" class="edge"><title>Node33&#45;&gt;Node14</title>
<path fill="none" stroke="midnightblue" d="M2023.49,-117.652C2023.63,-102.636 2021.57,-72.216 2004.1,-56 1975.08,-29.0474 1858.88,-17.2786 1801.5,-13.0287"/>
<polygon fill="midnightblue" stroke="midnightblue" points="1801.4,-9.51293 1791.18,-12.2986 1800.91,-16.4955 1801.4,-9.51293"/>
</g>
<!-- Node33&#45;&gt;Node15 -->
<g id="edge59" class="edge"><title>Node33&#45;&gt;Node15</title>
<path fill="none" stroke="midnightblue" d="M2051.61,-117.975C2086.34,-107.592 2145.14,-90.0116 2183.8,-78.4538"/>
<polygon fill="midnightblue" stroke="midnightblue" points="2185.07,-81.7271 2193.64,-75.5091 2183.06,-75.0205 2185.07,-81.7271"/>
</g>
<!-- Node33&#45;&gt;Node19 -->
<g id="edge60" class="edge"><title>Node33&#45;&gt;Node19</title>
<path fill="none" stroke="midnightblue" d="M2064.38,-117.943C2074.12,-115.959 2084.47,-113.879 2094.1,-112 2165.81,-98.0124 2249.66,-82.6386 2297.47,-73.9679"/>
<polygon fill="midnightblue" stroke="midnightblue" points="2298.17,-77.3973 2307.39,-72.1707 2296.92,-70.5094 2298.17,-77.3973"/>
</g>
<!-- Node33&#45;&gt;Node22 -->
<g id="edge56" class="edge"><title>Node33&#45;&gt;Node22</title>
<path fill="none" stroke="midnightblue" d="M1967.62,-117.977C1951.67,-115.761 1934.22,-113.56 1918.1,-112 1625.93,-83.7279 1272.41,-71.6131 1152.88,-68.1278"/>
<polygon fill="midnightblue" stroke="midnightblue" points="1152.8,-64.6242 1142.71,-67.8356 1152.6,-71.6213 1152.8,-64.6242"/>
</g>
<!-- Node33&#45;&gt;Node23 -->
<g id="edge55" class="edge"><title>Node33&#45;&gt;Node23</title>
<path fill="none" stroke="midnightblue" d="M2037.52,-117.846C2064.31,-102.262 2124.04,-69.819 2179.1,-56 2298.59,-26.0111 2678.55,-14.8146 2804.84,-11.8651"/>
<polygon fill="midnightblue" stroke="midnightblue" points="2804.97,-15.3633 2814.88,-11.6357 2804.81,-8.36517 2804.97,-15.3633"/>
</g>
<!-- Node34 -->
<g id="node35" class="node"><title>Node34</title>
<polygon fill="white" stroke="#bfbfbf" points="1939.1,-56.5 1939.1,-75.5 1995.1,-75.5 1995.1,-56.5 1939.1,-56.5"/>
<text text-anchor="middle" x="1967.1" y="-63.5" font-family="Helvetica,sans-Serif" font-size="10.00">cxxabi.h</text>
</g>
<!-- Node33&#45;&gt;Node34 -->
<g id="edge58" class="edge"><title>Node33&#45;&gt;Node34</title>
<path fill="none" stroke="midnightblue" d="M2015.08,-117.975C2006.51,-108.873 1992.74,-94.241 1982.15,-82.983"/>
<polygon fill="midnightblue" stroke="midnightblue" points="1984.51,-80.3923 1975.11,-75.5091 1979.42,-85.1899 1984.51,-80.3923"/>
</g>
<!-- Node42&#45;&gt;Node12 -->
<g id="edge82" class="edge"><title>Node42&#45;&gt;Node12</title>
<path fill="none" stroke="midnightblue" d="M608.718,-192.849C713.105,-190.708 1056.28,-183.758 1340.1,-179 1615.43,-174.384 3544.27,-171.943 3818.1,-143 3830.63,-141.676 3844.19,-139.259 3856.19,-136.773"/>
<polygon fill="midnightblue" stroke="midnightblue" points="3857.24,-140.129 3866.27,-134.596 3855.76,-133.286 3857.24,-140.129"/>
</g>
<!-- Node42&#45;&gt;Node13 -->
<g id="edge83" class="edge"><title>Node42&#45;&gt;Node13</title>
<path fill="none" stroke="midnightblue" d="M608.741,-192.494C767.548,-187.431 1493.65,-164.157 2088.1,-143 2212.24,-138.582 2358.93,-132.92 2429.71,-130.161"/>
<polygon fill="midnightblue" stroke="midnightblue" points="2430.14,-133.647 2439.99,-129.76 2429.86,-126.652 2430.14,-133.647"/>
</g>
<!-- Node42&#45;&gt;Node15 -->
<g id="edge80" class="edge"><title>Node42&#45;&gt;Node15</title>
<path fill="none" stroke="midnightblue" d="M608.562,-184.982C674.344,-167.6 831.501,-128.312 966.103,-112 1424.36,-56.4663 1542.82,-93.5206 2004.1,-76 2064.2,-73.7173 2133.61,-70.8042 2177.66,-68.9207"/>
<polygon fill="midnightblue" stroke="midnightblue" points="2177.91,-72.4134 2187.75,-68.4884 2177.61,-65.4199 2177.91,-72.4134"/>
</g>
<!-- Node42&#45;&gt;Node20 -->
<g id="edge84" class="edge"><title>Node42&#45;&gt;Node20</title>
<path fill="none" stroke="midnightblue" d="M579.402,-184.949C584.426,-168.032 598.069,-130.349 624.103,-112 659.758,-86.8693 790.651,-73.5273 846.06,-68.9022"/>
<polygon fill="midnightblue" stroke="midnightblue" points="846.399,-72.3863 856.085,-68.0925 845.836,-65.4091 846.399,-72.3863"/>
</g>
<!-- Node43 -->
<g id="node44" class="node"><title>Node43</title>
<polygon fill="white" stroke="#bfbfbf" points="633.103,-118 633.103,-137 691.103,-137 691.103,-118 633.103,-118"/>
<text text-anchor="middle" x="662.103" y="-125" font-family="Helvetica,sans-Serif" font-size="10.00">Rtypes.h</text>
</g>
<!-- Node42&#45;&gt;Node43 -->
<g id="edge75" class="edge"><title>Node42&#45;&gt;Node43</title>
<path fill="none" stroke="midnightblue" d="M588.566,-184.734C602.458,-174.111 626.078,-156.049 642.796,-143.264"/>
<polygon fill="midnightblue" stroke="midnightblue" points="645.003,-145.982 650.821,-137.127 640.751,-140.422 645.003,-145.982"/>
</g>
<!-- Node44 -->
<g id="node45" class="node"><title>Node44</title>
<g id="a_node45"><a xlink:href="base_2std__ext_2_time_8h.html" target="_top" xlink:title="base/std_ext/time.h">
<polygon fill="white" stroke="black" points="332.103,-118 332.103,-137 444.103,-137 444.103,-118 332.103,-118"/>
<text text-anchor="middle" x="388.103" y="-125" font-family="Helvetica,sans-Serif" font-size="10.00">base/std_ext/time.h</text>
</a>
</g>
</g>
<!-- Node42&#45;&gt;Node44 -->
<g id="edge76" class="edge"><title>Node42&#45;&gt;Node44</title>
<path fill="none" stroke="midnightblue" d="M552.005,-184.869C518.729,-173.424 459.867,-153.181 422.478,-140.322"/>
<polygon fill="midnightblue" stroke="midnightblue" points="423.598,-137.006 413.003,-137.064 421.321,-143.626 423.598,-137.006"/>
</g>
<!-- Node46 -->
<g id="node47" class="node"><title>Node46</title>
<polygon fill="white" stroke="#bfbfbf" points="279.103,-56.5 279.103,-75.5 323.103,-75.5 323.103,-56.5 279.103,-56.5"/>
<text text-anchor="middle" x="301.103" y="-63.5" font-family="Helvetica,sans-Serif" font-size="10.00">ctime</text>
</g>
<!-- Node42&#45;&gt;Node46 -->
<g id="edge86" class="edge"><title>Node42&#45;&gt;Node46</title>
<path fill="none" stroke="midnightblue" d="M545.278,-191.238C484.532,-186.286 355.231,-172.492 323.103,-143 307.165,-128.37 302.511,-102.975 301.289,-85.5982"/>
<polygon fill="midnightblue" stroke="midnightblue" points="304.783,-85.3874 300.897,-75.531 297.789,-85.6595 304.783,-85.3874"/>
</g>
<!-- Node47 -->
<g id="node48" class="node"><title>Node47</title>
<polygon fill="white" stroke="#bfbfbf" points="462.603,-118 462.603,-137 503.603,-137 503.603,-118 462.603,-118"/>
<text text-anchor="middle" x="483.103" y="-125" font-family="Helvetica,sans-Serif" font-size="10.00">tuple</text>
</g>
<!-- Node42&#45;&gt;Node47 -->
<g id="edge81" class="edge"><title>Node42&#45;&gt;Node47</title>
<path fill="none" stroke="midnightblue" d="M564.426,-184.734C548.922,-174.013 522.462,-155.716 503.947,-142.914"/>
<polygon fill="midnightblue" stroke="midnightblue" points="505.795,-139.936 495.579,-137.127 501.814,-145.694 505.795,-139.936"/>
</g>
<!-- Node48 -->
<g id="node49" class="node"><title>Node48</title>
<polygon fill="white" stroke="#bfbfbf" points="521.603,-118 521.603,-137 576.603,-137 576.603,-118 521.603,-118"/>
<text text-anchor="middle" x="549.103" y="-125" font-family="Helvetica,sans-Serif" font-size="10.00">iomanip</text>
</g>
<!-- Node42&#45;&gt;Node48 -->
<g id="edge85" class="edge"><title>Node42&#45;&gt;Node48</title>
<path fill="none" stroke="midnightblue" d="M573.327,-184.734C569.128,-174.988 562.233,-158.981 556.87,-146.532"/>
<polygon fill="midnightblue" stroke="midnightblue" points="559.99,-144.927 552.819,-137.127 553.561,-147.696 559.99,-144.927"/>
</g>
<!-- Node44&#45;&gt;Node32 -->
<g id="edge77" class="edge"><title>Node44&#45;&gt;Node32</title>
<path fill="none" stroke="midnightblue" d="M420.961,-117.929C431.189,-115.597 442.551,-113.346 453.103,-112 697.918,-80.782 1465.91,-70.2127 1700.42,-67.6682"/>
<polygon fill="midnightblue" stroke="midnightblue" points="1700.56,-71.167 1710.52,-67.56 1700.48,-64.1674 1700.56,-71.167"/>
</g>
<!-- Node45 -->
<g id="node46" class="node"><title>Node45</title>
<polygon fill="white" stroke="#bfbfbf" points="363.603,-56.5 363.603,-75.5 412.603,-75.5 412.603,-56.5 363.603,-56.5"/>
<text text-anchor="middle" x="388.103" y="-63.5" font-family="Helvetica,sans-Serif" font-size="10.00">cstring</text>
</g>
<!-- Node44&#45;&gt;Node45 -->
<g id="edge78" class="edge"><title>Node44&#45;&gt;Node45</title>
<path fill="none" stroke="midnightblue" d="M388.103,-117.975C388.103,-109.58 388.103,-96.4806 388.103,-85.6631"/>
<polygon fill="midnightblue" stroke="midnightblue" points="391.603,-85.5091 388.103,-75.5091 384.603,-85.5091 391.603,-85.5091"/>
</g>
<!-- Node44&#45;&gt;Node46 -->
<g id="edge79" class="edge"><title>Node44&#45;&gt;Node46</title>
<path fill="none" stroke="midnightblue" d="M375.638,-117.975C361.683,-108.431 338.838,-92.8073 322.112,-81.3683"/>
<polygon fill="midnightblue" stroke="midnightblue" points="323.775,-78.2653 313.545,-75.5091 319.823,-84.0433 323.775,-78.2653"/>
</g>
<!-- Node49&#45;&gt;Node14 -->
<g id="edge92" class="edge"><title>Node49&#45;&gt;Node14</title>
<path fill="none" stroke="midnightblue" d="M943.52,-258.811C814.271,-254.242 483.89,-239.918 378.103,-210 314.795,-192.096 280.522,-199.07 246.103,-143 237.27,-128.611 245.523,-62.0636 252.103,-56 281.301,-29.0907 1641.48,-22.5218 1681.1,-20 1699.58,-18.8239 1720.18,-16.7588 1736.8,-14.9033"/>
<polygon fill="midnightblue" stroke="midnightblue" points="1737.54,-18.3408 1747.08,-13.7256 1736.75,-11.3862 1737.54,-18.3408"/>
</g>
<!-- Node49&#45;&gt;Node19 -->
<g id="edge93" class="edge"><title>Node49&#45;&gt;Node19</title>
<path fill="none" stroke="midnightblue" d="M1048.77,-254.637C1072.93,-251.967 1101.97,-248.787 1128.1,-246 1141.93,-244.525 2111.33,-148.505 2124.1,-143 2143.49,-134.642 2141.38,-121.762 2160.1,-112 2204.01,-89.1075 2260.26,-77.3689 2297.2,-71.7135"/>
<polygon fill="midnightblue" stroke="midnightblue" points="2298.15,-75.1122 2307.54,-70.2116 2297.14,-68.1849 2298.15,-75.1122"/>
</g>
<!-- Node49&#45;&gt;Node24 -->
<g id="edge94" class="edge"><title>Node49&#45;&gt;Node24</title>
<path fill="none" stroke="midnightblue" d="M1048.69,-253.744C1072.84,-250.893 1101.88,-247.819 1128.1,-246 1265.28,-236.485 2231.75,-243.535 2365.1,-210 2367.03,-209.516 2368.97,-208.891 2370.89,-208.171"/>
<polygon fill="midnightblue" stroke="midnightblue" points="2372.44,-211.313 2380.13,-204.02 2369.57,-204.929 2372.44,-211.313"/>
</g>
<!-- Node49&#45;&gt;Node30 -->
<g id="edge96" class="edge"><title>Node49&#45;&gt;Node30</title>
<path fill="none" stroke="midnightblue" d="M943.594,-259.293C804.401,-255.673 428.468,-243.037 309.103,-210 197.901,-179.223 19.7127,-138.767 100.103,-56 127.159,-28.1442 1369.92,-13.8504 1605.71,-11.3868"/>
<polygon fill="midnightblue" stroke="midnightblue" points="1605.89,-14.8851 1615.86,-11.2815 1605.82,-7.88548 1605.89,-14.8851"/>
</g>
<!-- Node49&#45;&gt;Node41 -->
<g id="edge95" class="edge"><title>Node49&#45;&gt;Node41</title>
<path fill="none" stroke="midnightblue" d="M995.775,-251.839C994.973,-230.674 992.9,-175.948 991.805,-147.033"/>
<polygon fill="midnightblue" stroke="midnightblue" points="995.302,-146.881 991.426,-137.021 988.307,-147.147 995.302,-146.881"/>
</g>
<!-- Node50&#45;&gt;Node11 -->
<g id="edge108" class="edge"><title>Node50&#45;&gt;Node11</title>
<path fill="none" stroke="midnightblue" d="M2954.21,-257.914C3176.03,-248.913 3859.36,-215.472 3924.1,-143 4019.43,-36.2857 3702.72,-15.7466 3595.98,-11.8773"/>
<polygon fill="midnightblue" stroke="midnightblue" points="3595.86,-8.37152 3585.75,-11.5348 3595.63,-15.3676 3595.86,-8.37152"/>
</g>
<!-- Node50&#45;&gt;Node27 -->
<g id="edge99" class="edge"><title>Node50&#45;&gt;Node27</title>
<path fill="none" stroke="midnightblue" d="M2842.81,-251.936C2784.51,-240.131 2679.52,-218.872 2616.38,-206.085"/>
<polygon fill="midnightblue" stroke="midnightblue" points="2616.73,-202.586 2606.24,-204.032 2615.34,-209.447 2616.73,-202.586"/>
</g>
<!-- Node51 -->
<g id="node52" class="node"><title>Node51</title>
<g id="a_node52"><a xlink:href="printable_8h.html" target="_top" xlink:title="base/std_ext/printable.h">
<polygon fill="white" stroke="black" points="3062.1,-118 3062.1,-137 3194.1,-137 3194.1,-118 3062.1,-118"/>
<text text-anchor="middle" x="3128.1" y="-125" font-family="Helvetica,sans-Serif" font-size="10.00">base/std_ext/printable.h</text>
</a>
</g>
</g>
<!-- Node50&#45;&gt;Node51 -->
<g id="edge100" class="edge"><title>Node50&#45;&gt;Node51</title>
<path fill="none" stroke="midnightblue" d="M2893.37,-251.672C2909.17,-235.26 2945.37,-199.833 2982.1,-179 3013.65,-161.11 3052.6,-148.03 3082.34,-139.67"/>
<polygon fill="midnightblue" stroke="midnightblue" points="3083.32,-143.029 3092.04,-137.015 3081.47,-136.277 3083.32,-143.029"/>
</g>
<!-- Node51&#45;&gt;Node8 -->
<g id="edge107" class="edge"><title>Node51&#45;&gt;Node8</title>
<path fill="none" stroke="midnightblue" d="M3150.88,-117.975C3178.16,-107.769 3224.02,-90.608 3254.9,-79.0492"/>
<polygon fill="midnightblue" stroke="midnightblue" points="3256.23,-82.2919 3264.36,-75.5091 3253.77,-75.7359 3256.23,-82.2919"/>
</g>
<!-- Node51&#45;&gt;Node15 -->
<g id="edge106" class="edge"><title>Node51&#45;&gt;Node15</title>
<path fill="none" stroke="midnightblue" d="M3062.09,-121.103C3025.8,-118.22 2979.98,-114.716 2939.1,-112 2654.39,-93.0856 2582.36,-100.79 2298.1,-76 2287.78,-75.0996 2276.69,-73.9124 2266.26,-72.6967"/>
<polygon fill="midnightblue" stroke="midnightblue" points="2266.45,-69.1945 2256.11,-71.4811 2265.62,-76.1449 2266.45,-69.1945"/>
</g>
<!-- Node52 -->
<g id="node53" class="node"><title>Node52</title>
<g id="a_node53"><a xlink:href="container_8h.html" target="_top" xlink:title="container.h">
<polygon fill="white" stroke="black" points="2950.1,-56.5 2950.1,-75.5 3020.1,-75.5 3020.1,-56.5 2950.1,-56.5"/>
<text text-anchor="middle" x="2985.1" y="-63.5" font-family="Helvetica,sans-Serif" font-size="10.00">container.h</text>
</a>
</g>
</g>
<!-- Node51&#45;&gt;Node52 -->
<g id="edge101" class="edge"><title>Node51&#45;&gt;Node52</title>
<path fill="none" stroke="midnightblue" d="M3107.61,-117.975C3083.3,-107.857 3042.55,-90.9046 3014.79,-79.3507"/>
<polygon fill="midnightblue" stroke="midnightblue" points="3016.13,-76.1193 3005.55,-75.5091 3013.44,-82.5822 3016.13,-76.1193"/>
</g>
<!-- Node52&#45;&gt;Node11 -->
<g id="edge102" class="edge"><title>Node52&#45;&gt;Node11</title>
<path fill="none" stroke="midnightblue" d="M3020.33,-61.7033C3123.95,-52.0054 3426.84,-23.6593 3528.43,-14.1509"/>
<polygon fill="midnightblue" stroke="midnightblue" points="3528.82,-17.6306 3538.45,-13.2139 3528.16,-10.661 3528.82,-17.6306"/>
</g>
<!-- Node52&#45;&gt;Node14 -->
<g id="edge105" class="edge"><title>Node52&#45;&gt;Node14</title>
<path fill="none" stroke="midnightblue" d="M2949.86,-57.9046C2945.25,-57.1589 2940.57,-56.4942 2936.1,-56 2707.34,-30.7116 1966.48,-14.8846 1801.76,-11.6267"/>
<polygon fill="midnightblue" stroke="midnightblue" points="1801.4,-8.11904 1791.33,-11.4221 1801.26,-15.1177 1801.4,-8.11904"/>
</g>
<!-- Node52&#45;&gt;Node23 -->
<g id="edge103" class="edge"><title>Node52&#45;&gt;Node23</title>
<path fill="none" stroke="midnightblue" d="M2963.08,-56.4435C2940,-47.4776 2903.54,-33.314 2877.46,-23.1827"/>
<polygon fill="midnightblue" stroke="midnightblue" points="2878.61,-19.8753 2868.02,-19.5164 2876.08,-26.4002 2878.61,-19.8753"/>
</g>
<!-- Node53 -->
<g id="node54" class="node"><title>Node53</title>
<polygon fill="white" stroke="#bfbfbf" points="2957.1,-0.5 2957.1,-19.5 3013.1,-19.5 3013.1,-0.5 2957.1,-0.5"/>
<text text-anchor="middle" x="2985.1" y="-7.5" font-family="Helvetica,sans-Serif" font-size="10.00">numeric</text>
</g>
<!-- Node52&#45;&gt;Node53 -->
<g id="edge104" class="edge"><title>Node52&#45;&gt;Node53</title>
<path fill="none" stroke="midnightblue" d="M2985.1,-56.083C2985.1,-49.0059 2985.1,-38.8611 2985.1,-29.9865"/>
<polygon fill="midnightblue" stroke="midnightblue" points="2988.6,-29.751 2985.1,-19.7511 2981.6,-29.7511 2988.6,-29.751"/>
</g>
<!-- Node54&#45;&gt;Node1 -->
<g id="edge113" class="edge"><title>Node54&#45;&gt;Node1</title>
<path fill="none" stroke="midnightblue" d="M1290.7,-485.62C1469.9,-468.02 2136.62,-402.538 2319.47,-384.58"/>
<polygon fill="midnightblue" stroke="midnightblue" points="2319.95,-388.05 2329.56,-383.589 2319.27,-381.083 2319.95,-388.05"/>
</g>
<!-- Node54&#45;&gt;Node14 -->
<g id="edge159" class="edge"><title>Node54&#45;&gt;Node14</title>
<path fill="none" stroke="midnightblue" d="M1201.53,-489.213C1017.11,-485.799 319.057,-471.242 224.103,-445 115.039,-414.858 0.102793,-437.152 0.102793,-324 0.102793,-324 0.102793,-324 0.102793,-193.5 0.102793,-155.74 -1.5419,-139.716 24.1028,-112 71.5844,-60.6833 102.5,-69.472 171.103,-56 500.463,8.67821 1346.12,-41.091 1681.1,-20 1699.59,-18.8363 1720.18,-16.772 1736.8,-14.9138"/>
<polygon fill="midnightblue" stroke="midnightblue" points="1737.55,-18.3511 1747.08,-13.7339 1736.75,-11.3967 1737.55,-18.3511"/>
</g>
<!-- Node54&#45;&gt;Node22 -->
<g id="edge158" class="edge"><title>Node54&#45;&gt;Node22</title>
<path fill="none" stroke="midnightblue" d="M1201.52,-490.276C996.253,-490.973 152.103,-487.315 152.103,-380 152.103,-380 152.103,-380 152.103,-193.5 152.103,-118.408 227.923,-132.708 300.103,-112 337.328,-101.32 907.981,-75.8278 1069.06,-68.8134"/>
<polygon fill="midnightblue" stroke="midnightblue" points="1069.66,-72.2905 1079.5,-68.3596 1069.36,-65.2971 1069.66,-72.2905"/>
</g>
<!-- Node54&#45;&gt;Node25 -->
<g id="edge150" class="edge"><title>Node54&#45;&gt;Node25</title>
<path fill="none" stroke="midnightblue" d="M1263.75,-481.309C1319.14,-454.024 1489.83,-369.947 1556.26,-337.224"/>
<polygon fill="midnightblue" stroke="midnightblue" points="1558.21,-340.164 1565.63,-332.605 1555.12,-333.884 1558.21,-340.164"/>
</g>
<!-- Node54&#45;&gt;Node42 -->
<g id="edge149" class="edge"><title>Node54&#45;&gt;Node42</title>
<path fill="none" stroke="midnightblue" d="M1201.56,-489.843C1007.7,-488.585 247.103,-477.439 247.103,-380 247.103,-380 247.103,-380 247.103,-322 247.103,-260.914 446.743,-218.325 535.464,-202.414"/>
<polygon fill="midnightblue" stroke="midnightblue" points="536.221,-205.834 545.461,-200.65 535.005,-198.941 536.221,-205.834"/>
</g>
<!-- Node54&#45;&gt;Node49 -->
<g id="edge157" class="edge"><title>Node54&#45;&gt;Node49</title>
<path fill="none" stroke="midnightblue" d="M1236.61,-481.36C1199.17,-447.294 1061.49,-322.004 1013.08,-277.946"/>
<polygon fill="midnightblue" stroke="midnightblue" points="1015.36,-275.291 1005.61,-271.149 1010.65,-280.468 1015.36,-275.291"/>
</g>
<!-- Node54&#45;&gt;Node50 -->
<g id="edge156" class="edge"><title>Node54&#45;&gt;Node50</title>
<path fill="none" stroke="midnightblue" d="M1290.68,-489.943C1488.85,-489.463 2291.02,-485.033 2539.1,-445 2626.44,-430.907 2651.84,-430.23 2730.1,-389 2787.47,-358.778 2843.6,-305.361 2869.78,-278.652"/>
<polygon fill="midnightblue" stroke="midnightblue" points="2872.48,-280.897 2876.92,-271.275 2867.45,-276.031 2872.48,-280.897"/>
</g>
<!-- Node55 -->
<g id="node56" class="node"><title>Node55</title>
<g id="a_node56"><a xlink:href="_setup_registry_8h.html" target="_top" xlink:title="SetupRegistry.h">
<polygon fill="white" stroke="black" points="859.103,-313.5 859.103,-332.5 949.103,-332.5 949.103,-313.5 859.103,-313.5"/>
<text text-anchor="middle" x="904.103" y="-320.5" font-family="Helvetica,sans-Serif" font-size="10.00">SetupRegistry.h</text>
</a>
</g>
</g>
<!-- Node54&#45;&gt;Node55 -->
<g id="edge114" class="edge"><title>Node54&#45;&gt;Node55</title>
<path fill="none" stroke="midnightblue" d="M1201.24,-489.165C1079.2,-485.846 745.912,-469.445 680.103,-389 674.474,-382.12 674.47,-375.877 680.103,-369 701.012,-343.473 789.355,-332.119 848.649,-327.298"/>
<polygon fill="midnightblue" stroke="midnightblue" points="848.93,-330.787 858.63,-326.526 848.389,-323.808 848.93,-330.787"/>
</g>
<!-- Node54&#45;&gt;Node56 -->
<g id="edge120" class="edge"><title>Node54&#45;&gt;Node56</title>
<path fill="none" stroke="midnightblue" d="M1290.95,-489.308C1527.54,-485.587 2632.53,-467.287 2974.1,-445 2975.41,-444.915 2976.73,-444.825 2978.05,-444.731"/>
<polygon fill="midnightblue" stroke="midnightblue" points="2978.64,-448.196 2988.34,-443.934 2978.1,-441.217 2978.64,-448.196"/>
</g>
<!-- Node54&#45;&gt;Node58 -->
<g id="edge133" class="edge"><title>Node54&#45;&gt;Node58</title>
<path fill="none" stroke="midnightblue" d="M1290.74,-487.998C1467.16,-480.085 2117.92,-450.899 2359.26,-440.074"/>
<polygon fill="midnightblue" stroke="midnightblue" points="2359.57,-443.564 2369.4,-439.619 2359.26,-436.571 2359.57,-443.564"/>
</g>
<!-- Node61 -->
<g id="node62" class="node"><title>Node61</title>
<g id="a_node62"><a xlink:href="_data_manager_8h.html" target="_top" xlink:title="calibration/DataManager.h">
<polygon fill="white" stroke="black" points="689.603,-369.5 689.603,-388.5 832.603,-388.5 832.603,-369.5 689.603,-369.5"/>
<text text-anchor="middle" x="761.103" y="-376.5" font-family="Helvetica,sans-Serif" font-size="10.00">calibration/DataManager.h</text>
</a>
</g>
</g>
<!-- Node54&#45;&gt;Node61 -->
<g id="edge151" class="edge"><title>Node54&#45;&gt;Node61</title>
<path fill="none" stroke="midnightblue" d="M1208.45,-481.46C1121.16,-461.662 905.097,-412.658 808.773,-390.812"/>
<polygon fill="midnightblue" stroke="midnightblue" points="809.259,-387.333 798.732,-388.535 807.711,-394.16 809.259,-387.333"/>
</g>
<!-- Node55&#45;&gt;Node19 -->
<g id="edge118" class="edge"><title>Node55&#45;&gt;Node19</title>
<path fill="none" stroke="midnightblue" d="M949.279,-319.212C1093.03,-309.883 1552.41,-276.524 1927.1,-210 2049.26,-188.312 2084.21,-192.217 2198.1,-143 2221.41,-132.926 2224.05,-124.586 2246.1,-112 2266.46,-100.385 2290.2,-88.5851 2308.18,-79.9843"/>
<polygon fill="midnightblue" stroke="midnightblue" points="2309.98,-83.0025 2317.52,-75.5567 2306.99,-76.677 2309.98,-83.0025"/>
</g>
<!-- Node55&#45;&gt;Node20 -->
<g id="edge117" class="edge"><title>Node55&#45;&gt;Node20</title>
<path fill="none" stroke="midnightblue" d="M894.218,-313.372C875.232,-296.059 834.206,-254.883 819.103,-210 805.212,-168.719 800.996,-151.614 819.103,-112 825.055,-98.9768 836.844,-88.279 847.694,-80.5864"/>
<polygon fill="midnightblue" stroke="midnightblue" points="849.638,-83.4972 856.065,-75.0743 845.788,-77.6509 849.638,-83.4972"/>
</g>
<!-- Node55&#45;&gt;Node22 -->
<g id="edge119" class="edge"><title>Node55&#45;&gt;Node22</title>
<path fill="none" stroke="midnightblue" d="M858.886,-320.728C696.757,-314.746 162.553,-281.98 323.103,-112 329.576,-105.146 907.752,-76.7974 1069.49,-68.9954"/>
<polygon fill="midnightblue" stroke="midnightblue" points="1069.71,-72.4889 1079.53,-68.5117 1069.37,-65.497 1069.71,-72.4889"/>
</g>
<!-- Node55&#45;&gt;Node24 -->
<g id="edge116" class="edge"><title>Node55&#45;&gt;Node24</title>
<path fill="none" stroke="midnightblue" d="M949.264,-320.332C1073.6,-315.566 1431.41,-300.69 1728.1,-277 2011.87,-254.342 2091.85,-289.825 2365.1,-210 2366.77,-209.512 2368.47,-208.93 2370.15,-208.284"/>
<polygon fill="midnightblue" stroke="midnightblue" points="2371.78,-211.385 2379.47,-204.092 2368.91,-205.001 2371.78,-211.385"/>
</g>
<!-- Node55&#45;&gt;Node49 -->
<g id="edge115" class="edge"><title>Node55&#45;&gt;Node49</title>
<path fill="none" stroke="midnightblue" d="M917.284,-313.475C932.177,-303.843 956.647,-288.017 974.376,-276.552"/>
<polygon fill="midnightblue" stroke="midnightblue" points="976.45,-279.379 982.946,-271.009 972.648,-273.501 976.45,-279.379"/>
</g>
<!-- Node56&#45;&gt;Node1 -->
<g id="edge125" class="edge"><title>Node56&#45;&gt;Node1</title>
<path fill="none" stroke="midnightblue" d="M2988.45,-428.424C2846.24,-417.36 2531.86,-392.898 2412.93,-383.643"/>
<polygon fill="midnightblue" stroke="midnightblue" points="2412.94,-380.134 2402.7,-382.848 2412.4,-387.113 2412.94,-380.134"/>
</g>
<!-- Node56&#45;&gt;Node2 -->
<g id="edge126" class="edge"><title>Node56&#45;&gt;Node2</title>
<path fill="none" stroke="midnightblue" d="M3063.9,-425.377C3073.93,-402.049 3101.01,-335.512 3110.1,-277 3112.22,-263.386 3112.21,-259.616 3110.1,-246 3108.41,-235.038 3104.76,-223.196 3101.37,-213.736"/>
<polygon fill="midnightblue" stroke="midnightblue" points="3104.59,-212.356 3097.78,-204.242 3098.05,-214.833 3104.59,-212.356"/>
</g>
<!-- Node56&#45;&gt;Node10 -->
<g id="edge132" class="edge"><title>Node56&#45;&gt;Node10</title>
<path fill="none" stroke="midnightblue" d="M3131.7,-425.559C3342.15,-400.689 3944.1,-329.105 3944.1,-324 3944.1,-324 3944.1,-324 3944.1,-193.5 3944.1,-156.203 3951.12,-137.713 3924.1,-112 3863.11,-53.9515 3820.42,-93.7065 3738.1,-76 3735.89,-75.5251 3733.62,-75.0213 3731.33,-74.5043"/>
<polygon fill="midnightblue" stroke="midnightblue" points="3731.9,-71.0451 3721.37,-72.2011 3730.33,-77.865 3731.9,-71.0451"/>
</g>
<!-- Node56&#45;&gt;Node11 -->
<g id="edge130" class="edge"><title>Node56&#45;&gt;Node11</title>
<path fill="none" stroke="midnightblue" d="M3131.62,-425.882C3134.49,-425.58 3137.32,-425.285 3140.1,-425 3242.18,-414.547 4058.1,-426.615 4058.1,-324 4058.1,-324 4058.1,-324 4058.1,-126.5 4058.1,-93.4008 4060.07,-76.5246 4034.1,-56 3999.84,-28.9163 3697.96,-15.8103 3595.76,-12.121"/>
<polygon fill="midnightblue" stroke="midnightblue" points="3595.8,-8.62028 3585.68,-11.7645 3595.55,-15.6159 3595.8,-8.62028"/>
</g>
<!-- Node56&#45;&gt;Node12 -->
<g id="edge131" class="edge"><title>Node56&#45;&gt;Node12</title>
<path fill="none" stroke="midnightblue" d="M3083.63,-425.349C3200.88,-382.246 3721.76,-190.756 3858.26,-140.573"/>
<polygon fill="midnightblue" stroke="midnightblue" points="3859.6,-143.811 3867.78,-137.075 3857.18,-137.241 3859.6,-143.811"/>
</g>
<!-- Node56&#45;&gt;Node19 -->
<g id="edge127" class="edge"><title>Node56&#45;&gt;Node19</title>
<path fill="none" stroke="midnightblue" d="M3059.97,-425.389C3058.77,-382.755 3047.36,-193.096 2939.1,-112 2894.05,-78.2497 2501.16,-69.4648 2374.96,-67.5035"/>
<polygon fill="midnightblue" stroke="midnightblue" points="2374.67,-63.9989 2364.62,-67.349 2374.56,-70.9981 2374.67,-63.9989"/>
</g>
<!-- Node56&#45;&gt;Node20 -->
<g id="edge128" class="edge"><title>Node56&#45;&gt;Node20</title>
<path fill="none" stroke="midnightblue" d="M2988.4,-429.835C2856.22,-422.116 2565.26,-404.918 2320.1,-389 2011.75,-368.979 1184.41,-458.189 934.103,-277 872.249,-232.226 868.649,-128.67 869.987,-85.9524"/>
<polygon fill="midnightblue" stroke="midnightblue" points="873.49,-85.9751 870.439,-75.8291 866.497,-85.6632 873.49,-85.9751"/>
</g>
<!-- Node56&#45;&gt;Node24 -->
<g id="edge129" class="edge"><title>Node56&#45;&gt;Node24</title>
<path fill="none" stroke="midnightblue" d="M3031.26,-425.46C2940.21,-398.169 2651.38,-309.036 2422.1,-210 2421.07,-209.555 2420.03,-209.088 2418.98,-208.606"/>
<polygon fill="midnightblue" stroke="midnightblue" points="2420.13,-205.276 2409.61,-204.023 2417.06,-211.563 2420.13,-205.276"/>
</g>
<!-- Node57 -->
<g id="node58" class="node"><title>Node57</title>
<g id="a_node58"><a xlink:href="_unpacker_8h.html" target="_top" xlink:title="Unpacker.h">
<polygon fill="white" stroke="black" points="2431.6,-185 2431.6,-204 2502.6,-204 2502.6,-185 2431.6,-185"/>
<text text-anchor="middle" x="2467.1" y="-192" font-family="Helvetica,sans-Serif" font-size="10.00">Unpacker.h</text>
</a>
</g>
</g>
<!-- Node56&#45;&gt;Node57 -->
<g id="edge121" class="edge"><title>Node56&#45;&gt;Node57</title>
<path fill="none" stroke="midnightblue" d="M3046.51,-425.421C2999.08,-395.866 2835.75,-297.284 2688.1,-246 2612.27,-219.661 2588.69,-230.599 2511.1,-210 2507.92,-209.154 2504.62,-208.207 2501.33,-207.213"/>
<polygon fill="midnightblue" stroke="midnightblue" points="2502.21,-203.818 2491.62,-204.145 2500.1,-210.493 2502.21,-203.818"/>
</g>
<!-- Node57&#45;&gt;Node13 -->
<g id="edge124" class="edge"><title>Node57&#45;&gt;Node13</title>
<path fill="none" stroke="midnightblue" d="M2467.78,-184.734C2468.51,-175.183 2469.71,-159.618 2470.66,-147.283"/>
<polygon fill="midnightblue" stroke="midnightblue" points="2474.16,-147.366 2471.44,-137.127 2467.18,-146.829 2474.16,-147.366"/>
</g>
<!-- Node57&#45;&gt;Node14 -->
<g id="edge122" class="edge"><title>Node57&#45;&gt;Node14</title>
<path fill="none" stroke="midnightblue" d="M2460.91,-184.98C2453.67,-174.987 2441.37,-157.892 2431.1,-143 2404.72,-104.742 2413.23,-79.436 2373.1,-56 2323.57,-27.0743 1919.72,-14.7667 1801.5,-11.762"/>
<polygon fill="midnightblue" stroke="midnightblue" points="1801.37,-8.25771 1791.28,-11.5076 1801.19,-15.2555 1801.37,-8.25771"/>
</g>
<!-- Node57&#45;&gt;Node19 -->
<g id="edge123" class="edge"><title>Node57&#45;&gt;Node19</title>
<path fill="none" stroke="midnightblue" d="M2453.35,-184.942C2438.83,-175.574 2415.66,-159.655 2398.1,-143 2378.69,-124.58 2359.75,-100.135 2348.01,-84.003"/>
<polygon fill="midnightblue" stroke="midnightblue" points="2350.65,-81.6741 2341.99,-75.5741 2344.95,-85.7448 2350.65,-81.6741"/>
</g>
<!-- Node58&#45;&gt;Node1 -->
<g id="edge135" class="edge"><title>Node58&#45;&gt;Node1</title>
<path fill="none" stroke="midnightblue" d="M2436.61,-425.324C2423.5,-416.9 2403.39,-403.971 2388,-394.074"/>
<polygon fill="midnightblue" stroke="midnightblue" points="2389.87,-391.118 2379.57,-388.655 2386.08,-397.006 2389.87,-391.118"/>
</g>
<!-- Node58&#45;&gt;Node2 -->
<g id="edge136" class="edge"><title>Node58&#45;&gt;Node2</title>
<path fill="none" stroke="midnightblue" d="M2530.76,-429.506C2629.41,-423.202 2790.18,-410.08 2846.1,-389 2927.67,-358.255 2939.34,-331.829 3007.1,-277 3033.37,-255.744 3061.52,-228.447 3078.47,-211.463"/>
<polygon fill="midnightblue" stroke="midnightblue" points="3081.29,-213.595 3085.83,-204.026 3076.31,-208.671 3081.29,-213.595"/>
</g>
<!-- Node58&#45;&gt;Node11 -->
<g id="edge147" class="edge"><title>Node58&#45;&gt;Node11</title>
<path fill="none" stroke="midnightblue" d="M2530.68,-432.148C2817.48,-423.61 3780.48,-377.616 3947.1,-143 4034.9,-19.3671 3704.94,-10.2544 3595.94,-10.5401"/>
<polygon fill="midnightblue" stroke="midnightblue" points="3595.79,-7.04077 3585.8,-10.596 3595.82,-14.0407 3595.79,-7.04077"/>
</g>
<!-- Node58&#45;&gt;Node12 -->
<g id="edge148" class="edge"><title>Node58&#45;&gt;Node12</title>
<path fill="none" stroke="midnightblue" d="M2530.64,-425.469C2532.14,-425.311 2533.63,-425.155 2535.1,-425 2689.31,-408.837 2731.19,-424.592 2882.1,-389 2975.46,-366.981 2992.26,-340.66 3084.1,-313 3339.51,-236.084 3408.76,-237.045 3669.1,-179 3742.79,-162.572 3761.66,-160.465 3835.1,-143 3842,-141.361 3849.34,-139.524 3856.37,-137.723"/>
<polygon fill="midnightblue" stroke="midnightblue" points="3857.54,-141.034 3866.34,-135.137 3855.79,-134.258 3857.54,-141.034"/>
</g>
<!-- Node58&#45;&gt;Node19 -->
<g id="edge144" class="edge"><title>Node58&#45;&gt;Node19</title>
<path fill="none" stroke="midnightblue" d="M2480.99,-425.477C2564.43,-401.549 2788.1,-331.016 2788.1,-262.5 2788.1,-262.5 2788.1,-262.5 2788.1,-193.5 2788.1,-138.206 2744.6,-134.53 2694.1,-112 2637.64,-86.8095 2455.41,-73.712 2374.93,-69.0351"/>
<polygon fill="midnightblue" stroke="midnightblue" points="2374.91,-65.5283 2364.73,-68.4557 2374.51,-72.517 2374.91,-65.5283"/>
</g>
<!-- Node58&#45;&gt;Node20 -->
<g id="edge145" class="edge"><title>Node58&#45;&gt;Node20</title>
<path fill="none" stroke="midnightblue" d="M2423.54,-425.345C2397.14,-416.618 2355.58,-402.537 2320.1,-389 2282.81,-374.77 1696,-120.963 1657.1,-112 1619.21,-103.268 1027.33,-74.4892 896.55,-68.2149"/>
<polygon fill="midnightblue" stroke="midnightblue" points="896.471,-64.7072 886.315,-67.7247 896.136,-71.6992 896.471,-64.7072"/>
</g>
<!-- Node58&#45;&gt;Node24 -->
<g id="edge146" class="edge"><title>Node58&#45;&gt;Node24</title>
<path fill="none" stroke="midnightblue" d="M2448.04,-425.229C2439.9,-390.529 2409.81,-262.392 2398.47,-214.088"/>
<polygon fill="midnightblue" stroke="midnightblue" points="2401.82,-213.035 2396.12,-204.099 2395,-214.635 2401.82,-213.035"/>
</g>
<!-- Node58&#45;&gt;Node43 -->
<g id="edge143" class="edge"><title>Node58&#45;&gt;Node43</title>
<path fill="none" stroke="midnightblue" d="M2369.42,-432.432C2063.82,-426.017 987.739,-398.91 850.103,-333 762.101,-290.859 695.774,-187.599 671.827,-146.146"/>
<polygon fill="midnightblue" stroke="midnightblue" points="674.749,-144.203 666.78,-137.222 668.656,-147.649 674.749,-144.203"/>
</g>
<!-- Node58&#45;&gt;Node57 -->
<g id="edge134" class="edge"><title>Node58&#45;&gt;Node57</title>
<path fill="none" stroke="midnightblue" d="M2450.73,-425.229C2453.2,-390.529 2462.33,-262.392 2465.78,-214.088"/>
<polygon fill="midnightblue" stroke="midnightblue" points="2469.27,-214.323 2466.49,-204.099 2462.29,-213.825 2469.27,-214.323"/>
</g>
<!-- Node59 -->
<g id="node60" class="node"><title>Node59</title>
<g id="a_node60"><a xlink:href="_wrap_t_tree_8h.html" target="_top" xlink:title="base/WrapTTree.h">
<polygon fill="white" stroke="black" points="3212.1,-118 3212.1,-137 3312.1,-137 3312.1,-118 3212.1,-118"/>
<text text-anchor="middle" x="3262.1" y="-125" font-family="Helvetica,sans-Serif" font-size="10.00">base/WrapTTree.h</text>
</a>
</g>
</g>
<!-- Node58&#45;&gt;Node59 -->
<g id="edge137" class="edge"><title>Node58&#45;&gt;Node59</title>
<path fill="none" stroke="midnightblue" d="M2517.35,-425.462C2587.18,-416.192 2691.52,-401.093 2730.1,-389 2839.74,-354.638 2875.17,-350.959 2963.1,-277 3004.07,-242.546 2988.32,-208.316 3033.1,-179 3097.72,-136.7 3127.82,-160.218 3203.1,-143 3208.05,-141.868 3213.23,-140.649 3218.37,-139.416"/>
<polygon fill="midnightblue" stroke="midnightblue" points="3219.25,-142.804 3228.14,-137.045 3217.6,-136.001 3219.25,-142.804"/>
</g>
<!-- Node59&#45;&gt;Node11 -->
<g id="edge139" class="edge"><title>Node59&#45;&gt;Node11</title>
<path fill="none" stroke="midnightblue" d="M3238.51,-117.972C3207.37,-105.472 3158.93,-80.9424 3181.1,-56 3192.62,-43.0406 3437.53,-21.3863 3528.49,-13.7597"/>
<polygon fill="midnightblue" stroke="midnightblue" points="3528.87,-17.2401 3538.55,-12.9212 3528.29,-10.2644 3528.87,-17.2401"/>
</g>
<!-- Node59&#45;&gt;Node14 -->
<g id="edge140" class="edge"><title>Node59&#45;&gt;Node14</title>
<path fill="none" stroke="midnightblue" d="M3230.08,-117.986C3221.37,-115.846 3211.91,-113.682 3203.1,-112 3087.65,-89.944 3056.54,-98.1186 2941.1,-76 2904.68,-69.022 2896.81,-61.2349 2860.1,-56 2647.96,-25.7484 1959.67,-13.8332 1801.65,-11.4608"/>
<polygon fill="midnightblue" stroke="midnightblue" points="1801.25,-7.95469 1791.2,-11.3064 1801.15,-14.9539 1801.25,-7.95469"/>
</g>
<!-- Node59&#45;&gt;Node19 -->
<g id="edge142" class="edge"><title>Node59&#45;&gt;Node19</title>
<path fill="none" stroke="midnightblue" d="M3232,-117.939C3222.8,-115.637 3212.6,-113.4 3203.1,-112 2886.12,-65.2519 2497.72,-65.1128 2375.1,-66.4102"/>
<polygon fill="midnightblue" stroke="midnightblue" points="2374.7,-62.9146 2364.74,-66.5303 2374.78,-69.9141 2374.7,-62.9146"/>
</g>
<!-- Node59&#45;&gt;Node23 -->
<g id="edge141" class="edge"><title>Node59&#45;&gt;Node23</title>
<path fill="none" stroke="midnightblue" d="M3235.33,-117.896C3192.13,-104.13 3104.3,-76.6078 3029.1,-56 2980.65,-42.7217 2924.48,-29.1814 2887.28,-20.4712"/>
<polygon fill="midnightblue" stroke="midnightblue" points="2887.85,-17.0099 2877.32,-18.1468 2886.26,-23.8269 2887.85,-17.0099"/>
</g>
<!-- Node60 -->
<g id="node61" class="node"><title>Node60</title>
<polygon fill="white" stroke="#bfbfbf" points="3190.1,-56.5 3190.1,-75.5 3240.1,-75.5 3240.1,-56.5 3190.1,-56.5"/>
<text text-anchor="middle" x="3215.1" y="-63.5" font-family="Helvetica,sans-Serif" font-size="10.00">TTree.h</text>
</g>
<!-- Node59&#45;&gt;Node60 -->
<g id="edge138" class="edge"><title>Node59&#45;&gt;Node60</title>
<path fill="none" stroke="midnightblue" d="M3255.37,-117.975C3248.32,-109.05 3237.07,-94.8071 3228.25,-83.6425"/>
<polygon fill="midnightblue" stroke="midnightblue" points="3230.77,-81.1867 3221.82,-75.5091 3225.28,-85.5258 3230.77,-81.1867"/>
</g>
<!-- Node61&#45;&gt;Node14 -->
<g id="edge154" class="edge"><title>Node61&#45;&gt;Node14</title>
<path fill="none" stroke="midnightblue" d="M689.39,-373.004C520.936,-359.306 114.103,-313.96 114.103,-195.5 114.103,-195.5 114.103,-195.5 114.103,-126.5 114.103,-110.14 67.6629,-102.307 242.103,-56 396.688,-14.9637 1521.49,-30.1438 1681.1,-20 1699.58,-18.8255 1720.18,-16.7605 1736.8,-14.9046"/>
<polygon fill="midnightblue" stroke="midnightblue" points="1737.54,-18.3421 1747.08,-13.7267 1736.75,-11.3876 1737.54,-18.3421"/>
</g>
<!-- Node61&#45;&gt;Node19 -->
<g id="edge155" class="edge"><title>Node61&#45;&gt;Node19</title>
<path fill="none" stroke="midnightblue" d="M832.613,-373.422C1026.74,-359.942 1579.02,-314.591 2026.1,-210 2121.5,-187.684 2149.18,-188.184 2236.1,-143 2268.13,-126.355 2300.54,-99.4657 2319.45,-82.5358"/>
<polygon fill="midnightblue" stroke="midnightblue" points="2321.88,-85.0597 2326.92,-75.7396 2317.17,-79.8835 2321.88,-85.0597"/>
</g>
<!-- Node61&#45;&gt;Node20 -->
<g id="edge153" class="edge"><title>Node61&#45;&gt;Node20</title>
<path fill="none" stroke="midnightblue" d="M755.612,-369.406C744.227,-350.736 719.103,-304.747 719.103,-262.5 719.103,-262.5 719.103,-262.5 719.103,-193.5 719.103,-128.025 803.459,-89.8991 846.486,-74.7109"/>
<polygon fill="midnightblue" stroke="midnightblue" points="847.624,-78.0209 855.973,-71.498 845.378,-71.3908 847.624,-78.0209"/>
</g>
<!-- Node61&#45;&gt;Node25 -->
<g id="edge152" class="edge"><title>Node61&#45;&gt;Node25</title>
<path fill="none" stroke="midnightblue" d="M832.661,-374.928C965.256,-368.955 1258.05,-354.452 1504.1,-333 1505.42,-332.885 1506.74,-332.767 1508.08,-332.645"/>
<polygon fill="midnightblue" stroke="midnightblue" points="1508.84,-336.088 1518.46,-331.646 1508.17,-329.12 1508.84,-336.088"/>
</g>
<!-- Node63 -->
<g id="node64" class="node"><title>Node63</title>
<polygon fill="white" stroke="#bfbfbf" points="3149.6,-425.5 3149.6,-444.5 3248.6,-444.5 3248.6,-425.5 3149.6,-425.5"/>
<text text-anchor="middle" x="3199.1" y="-432.5" font-family="Helvetica,sans-Serif" font-size="10.00">easylogging++.h</text>
</g>
<!-- Node62&#45;&gt;Node63 -->
<g id="edge164" class="edge"><title>Node62&#45;&gt;Node63</title>
<path fill="none" stroke="midnightblue" d="M2206.34,-482.091C2209.3,-481.677 2212.24,-481.307 2215.1,-481 2620.89,-437.503 2728.81,-483.332 3139.51,-444.92"/>
<polygon fill="midnightblue" stroke="midnightblue" points="3139.95,-448.394 3149.58,-443.968 3139.29,-441.426 3139.95,-448.394"/>
</g>
</g>
</svg>
