<?xml version="1.0" encoding="UTF-8" standalone="no"?>
<!DOCTYPE svg PUBLIC "-//W3C//DTD SVG 1.1//EN"
 "http://www.w3.org/Graphics/SVG/1.1/DTD/svg11.dtd">
<!-- Generated by graphviz version 2.38.0 (20140413.2041)
 -->
<!-- Title: src/calibration/fitfunctions/FitGausPol1.cc Pages: 1 -->
<svg width="945pt" height="330pt"
 viewBox="0.00 0.00 945.00 330.00" xmlns="http://www.w3.org/2000/svg" xmlns:xlink="http://www.w3.org/1999/xlink">
<g id="graph0" class="graph" transform="scale(1 1) rotate(0) translate(4 326)">
<title>src/calibration/fitfunctions/FitGausPol1.cc</title>
<polygon fill="white" stroke="none" points="-4,4 -4,-326 941,-326 941,4 -4,4"/>
<!-- Node0 -->
<g id="node1" class="node"><title>Node0</title>
<polygon fill="#bfbfbf" stroke="black" points="617.5,-291.5 617.5,-321.5 756.5,-321.5 756.5,-291.5 617.5,-291.5"/>
<text text-anchor="start" x="625.5" y="-309.5" font-family="Helvetica,sans-Serif" font-size="10.00">src/calibration/fitfunctions</text>
<text text-anchor="middle" x="687" y="-298.5" font-family="Helvetica,sans-Serif" font-size="10.00">/FitGausPol1.cc</text>
</g>
<!-- Node1 -->
<g id="node2" class="node"><title>Node1</title>
<g id="a_node2"><a xlink:href="_fit_gaus_pol1_8h.html" target="_top" xlink:title="FitGausPol1.h">
<polygon fill="white" stroke="black" points="381.5,-235.5 381.5,-254.5 462.5,-254.5 462.5,-235.5 381.5,-235.5"/>
<text text-anchor="middle" x="422" y="-242.5" font-family="Helvetica,sans-Serif" font-size="10.00">FitGausPol1.h</text>
</a>
</g>
</g>
<!-- Node0&#45;&gt;Node1 -->
<g id="edge1" class="edge"><title>Node0&#45;&gt;Node1</title>
<path fill="none" stroke="midnightblue" d="M624.534,-291.475C577.219,-280.851 513.184,-266.473 469.881,-256.751"/>
<polygon fill="midnightblue" stroke="midnightblue" points="470.409,-253.282 459.886,-254.506 468.876,-260.112 470.409,-253.282"/>
</g>
<!-- Node19 -->
<g id="node20" class="node"><title>Node19</title>
<g id="a_node20"><a xlink:href="_base_functions_8h.html" target="_top" xlink:title="BaseFunctions.h">
<polygon fill="white" stroke="black" points="480.5,-235.5 480.5,-254.5 575.5,-254.5 575.5,-235.5 480.5,-235.5"/>
<text text-anchor="middle" x="528" y="-242.5" font-family="Helvetica,sans-Serif" font-size="10.00">BaseFunctions.h</text>
</a>
</g>
</g>
<!-- Node0&#45;&gt;Node19 -->
<g id="edge24" class="edge"><title>Node0&#45;&gt;Node19</title>
<path fill="none" stroke="midnightblue" d="M649.319,-291.399C622.404,-281.327 586.548,-267.909 560.807,-258.277"/>
<polygon fill="midnightblue" stroke="midnightblue" points="561.728,-254.885 551.136,-254.658 559.275,-261.441 561.728,-254.885"/>
</g>
<!-- Node20 -->
<g id="node21" class="node"><title>Node20</title>
<g id="a_node21"><a xlink:href="_logger_8h.html" target="_top" xlink:title="base/Logger.h">
<polygon fill="white" stroke="black" points="594,-235.5 594,-254.5 678,-254.5 678,-235.5 594,-235.5"/>
<text text-anchor="middle" x="636" y="-242.5" font-family="Helvetica,sans-Serif" font-size="10.00">base/Logger.h</text>
</a>
</g>
</g>
<!-- Node0&#45;&gt;Node20 -->
<g id="edge25" class="edge"><title>Node0&#45;&gt;Node20</title>
<path fill="none" stroke="midnightblue" d="M674.914,-291.399C667.426,-282.664 657.782,-271.413 649.968,-262.296"/>
<polygon fill="midnightblue" stroke="midnightblue" points="652.586,-259.973 643.421,-254.658 647.271,-264.528 652.586,-259.973"/>
</g>
<!-- Node22 -->
<g id="node23" class="node"><title>Node22</title>
<g id="a_node23"><a xlink:href="_t_f1_ext_8h.html" target="_top" xlink:title="base/TF1Ext.h">
<polygon fill="white" stroke="black" points="696.5,-235.5 696.5,-254.5 779.5,-254.5 779.5,-235.5 696.5,-235.5"/>
<text text-anchor="middle" x="738" y="-242.5" font-family="Helvetica,sans-Serif" font-size="10.00">base/TF1Ext.h</text>
</a>
</g>
</g>
<!-- Node0&#45;&gt;Node22 -->
<g id="edge27" class="edge"><title>Node0&#45;&gt;Node22</title>
<path fill="none" stroke="midnightblue" d="M699.086,-291.399C706.574,-282.664 716.218,-271.413 724.032,-262.296"/>
<polygon fill="midnightblue" stroke="midnightblue" points="726.729,-264.528 730.579,-254.658 721.414,-259.973 726.729,-264.528"/>
</g>
<!-- Node23 -->
<g id="node24" class="node"><title>Node23</title>
<polygon fill="white" stroke="#bfbfbf" points="752,-179.5 752,-198.5 794,-198.5 794,-179.5 752,-179.5"/>
<text text-anchor="middle" x="773" y="-186.5" font-family="Helvetica,sans-Serif" font-size="10.00">TF1.h</text>
</g>
<!-- Node0&#45;&gt;Node23 -->
<g id="edge29" class="edge"><title>Node0&#45;&gt;Node23</title>
<path fill="none" stroke="midnightblue" d="M740.466,-291.464C758.782,-283.818 777.333,-272.26 788,-255 796.917,-240.572 790.722,-221.379 783.788,-207.595"/>
<polygon fill="midnightblue" stroke="midnightblue" points="786.736,-205.694 778.813,-198.659 780.619,-209.099 786.736,-205.694"/>
</g>
<!-- Node24 -->
<g id="node25" class="node"><title>Node24</title>
<polygon fill="white" stroke="#bfbfbf" points="836,-235.5 836,-254.5 880,-254.5 880,-235.5 836,-235.5"/>
<text text-anchor="middle" x="858" y="-242.5" font-family="Helvetica,sans-Serif" font-size="10.00">TH1.h</text>
</g>
<!-- Node0&#45;&gt;Node24 -->
<g id="edge30" class="edge"><title>Node0&#45;&gt;Node24</title>
<path fill="none" stroke="midnightblue" d="M727.525,-291.399C757.607,-280.932 798.075,-266.851 825.924,-257.161"/>
<polygon fill="midnightblue" stroke="midnightblue" points="827.276,-260.396 835.571,-253.804 824.976,-253.785 827.276,-260.396"/>
</g>
<!-- Node2 -->
<g id="node3" class="node"><title>Node2</title>
<g id="a_node3"><a xlink:href="_fit_function_8h.html" target="_top" xlink:title="FitFunction.h">
<polygon fill="white" stroke="black" points="384,-179.5 384,-198.5 460,-198.5 460,-179.5 384,-179.5"/>
<text text-anchor="middle" x="422" y="-186.5" font-family="Helvetica,sans-Serif" font-size="10.00">FitFunction.h</text>
</a>
</g>
</g>
<!-- Node1&#45;&gt;Node2 -->
<g id="edge2" class="edge"><title>Node1&#45;&gt;Node2</title>
<path fill="none" stroke="midnightblue" d="M422,-235.083C422,-228.006 422,-217.861 422,-208.986"/>
<polygon fill="midnightblue" stroke="midnightblue" points="425.5,-208.751 422,-198.751 418.5,-208.751 425.5,-208.751"/>
</g>
<!-- Node3 -->
<g id="node4" class="node"><title>Node3</title>
<g id="a_node4"><a xlink:href="_knobs_t_f1_8h.html" target="_top" xlink:title="KnobsTF1.h">
<polygon fill="white" stroke="black" points="147.5,-123.5 147.5,-142.5 218.5,-142.5 218.5,-123.5 147.5,-123.5"/>
<text text-anchor="middle" x="183" y="-130.5" font-family="Helvetica,sans-Serif" font-size="10.00">KnobsTF1.h</text>
</a>
</g>
</g>
<!-- Node2&#45;&gt;Node3 -->
<g id="edge3" class="edge"><title>Node2&#45;&gt;Node3</title>
<path fill="none" stroke="midnightblue" d="M384.13,-179.444C341.912,-169.905 273.658,-154.483 228.556,-144.293"/>
<polygon fill="midnightblue" stroke="midnightblue" points="229.267,-140.865 218.741,-142.075 227.724,-147.693 229.267,-140.865"/>
</g>
<!-- Node4 -->
<g id="node5" class="node"><title>Node4</title>
<g id="a_node5"><a xlink:href="_indicator__traits_8h.html" target="_top" xlink:title="calibration/gui/Indicator\l_traits.h">
<polygon fill="white" stroke="black" points="0,-56.5 0,-86.5 128,-86.5 128,-56.5 0,-56.5"/>
<text text-anchor="start" x="8" y="-74.5" font-family="Helvetica,sans-Serif" font-size="10.00">calibration/gui/Indicator</text>
<text text-anchor="middle" x="64" y="-63.5" font-family="Helvetica,sans-Serif" font-size="10.00">_traits.h</text>
</a>
</g>
</g>
<!-- Node2&#45;&gt;Node4 -->
<g id="edge8" class="edge"><title>Node2&#45;&gt;Node4</title>
<path fill="none" stroke="midnightblue" d="M383.541,-188.987C326.83,-188.927 218.774,-182.935 138,-143 115.108,-131.682 94.5684,-110.809 80.9704,-94.7012"/>
<polygon fill="midnightblue" stroke="midnightblue" points="83.5492,-92.3253 74.5166,-86.7878 78.1245,-96.7494 83.5492,-92.3253"/>
</g>
<!-- Node5 -->
<g id="node6" class="node"><title>Node5</title>
<polygon fill="white" stroke="#bfbfbf" points="153,-0.5 153,-19.5 211,-19.5 211,-0.5 153,-0.5"/>
<text text-anchor="middle" x="182" y="-7.5" font-family="Helvetica,sans-Serif" font-size="10.00">Rtypes.h</text>
</g>
<!-- Node2&#45;&gt;Node5 -->
<g id="edge20" class="edge"><title>Node2&#45;&gt;Node5</title>
<path fill="none" stroke="midnightblue" d="M413.554,-179.394C387.852,-153.317 310.544,-75.7616 281,-56 260.729,-42.4408 235.708,-31.1078 215.892,-23.2066"/>
<polygon fill="midnightblue" stroke="midnightblue" points="216.932,-19.8556 206.343,-19.5016 214.4,-26.3817 216.932,-19.8556"/>
</g>
<!-- Node6 -->
<g id="node7" class="node"><title>Node6</title>
<polygon fill="white" stroke="#bfbfbf" points="228,-62 228,-81 272,-81 272,-62 228,-62"/>
<text text-anchor="middle" x="250" y="-69" font-family="Helvetica,sans-Serif" font-size="10.00">string</text>
</g>
<!-- Node2&#45;&gt;Node6 -->
<g id="edge23" class="edge"><title>Node2&#45;&gt;Node6</title>
<path fill="none" stroke="midnightblue" d="M383.817,-183.366C354.194,-178.033 313.652,-166.725 286,-143 270.068,-129.331 260.332,-106.874 255.069,-90.9829"/>
<polygon fill="midnightblue" stroke="midnightblue" points="258.362,-89.7798 252.12,-81.2191 251.661,-91.804 258.362,-89.7798"/>
</g>
<!-- Node8 -->
<g id="node9" class="node"><title>Node8</title>
<g id="a_node9"><a xlink:href="interval_8h.html" target="_top" xlink:title="base/interval.h">
<polygon fill="white" stroke="black" points="501.5,-123.5 501.5,-142.5 588.5,-142.5 588.5,-123.5 501.5,-123.5"/>
<text text-anchor="middle" x="545" y="-130.5" font-family="Helvetica,sans-Serif" font-size="10.00">base/interval.h</text>
</a>
</g>
</g>
<!-- Node2&#45;&gt;Node8 -->
<g id="edge9" class="edge"><title>Node2&#45;&gt;Node8</title>
<path fill="none" stroke="midnightblue" d="M441.49,-179.444C461.642,-170.596 493.323,-156.687 516.331,-146.586"/>
<polygon fill="midnightblue" stroke="midnightblue" points="517.852,-149.741 525.601,-142.516 515.038,-143.332 517.852,-149.741"/>
</g>
<!-- Node16 -->
<g id="node17" class="node"><title>Node16</title>
<g id="a_node17"><a xlink:href="memory_8h.html" target="_top" xlink:title="base/std_ext/memory.h">
<polygon fill="white" stroke="black" points="764.5,-123.5 764.5,-142.5 893.5,-142.5 893.5,-123.5 764.5,-123.5"/>
<text text-anchor="middle" x="829" y="-130.5" font-family="Helvetica,sans-Serif" font-size="10.00">base/std_ext/memory.h</text>
</a>
</g>
</g>
<!-- Node2&#45;&gt;Node16 -->
<g id="edge17" class="edge"><title>Node2&#45;&gt;Node16</title>
<path fill="none" stroke="midnightblue" d="M460.29,-182.92C527.482,-174.005 667.72,-155.398 754.564,-143.876"/>
<polygon fill="midnightblue" stroke="midnightblue" points="755.167,-147.327 764.62,-142.542 754.247,-140.388 755.167,-147.327"/>
</g>
<!-- Node17 -->
<g id="node18" class="node"><title>Node17</title>
<polygon fill="white" stroke="#bfbfbf" points="831.5,-62 831.5,-81 888.5,-81 888.5,-62 831.5,-62"/>
<text text-anchor="middle" x="860" y="-69" font-family="Helvetica,sans-Serif" font-size="10.00">memory</text>
</g>
<!-- Node2&#45;&gt;Node17 -->
<g id="edge21" class="edge"><title>Node2&#45;&gt;Node17</title>
<path fill="none" stroke="midnightblue" d="M460.192,-179.924C531.849,-164.427 691.038,-128.364 822,-87 824.416,-86.2371 826.9,-85.4032 829.388,-84.5333"/>
<polygon fill="midnightblue" stroke="midnightblue" points="830.661,-87.7944 838.851,-81.0731 828.257,-81.2201 830.661,-87.7944"/>
</g>
<!-- Node18 -->
<g id="node19" class="node"><title>Node18</title>
<polygon fill="white" stroke="#bfbfbf" points="907,-62 907,-81 937,-81 937,-62 907,-62"/>
<text text-anchor="middle" x="922" y="-69" font-family="Helvetica,sans-Serif" font-size="10.00">list</text>
</g>
<!-- Node2&#45;&gt;Node18 -->
<g id="edge22" class="edge"><title>Node2&#45;&gt;Node18</title>
<path fill="none" stroke="midnightblue" d="M460.1,-185.601C570.699,-178.483 885.05,-157.102 902,-143 917.098,-130.439 921.26,-107.39 922.185,-91.0706"/>
<polygon fill="midnightblue" stroke="midnightblue" points="925.684,-91.1327 922.403,-81.0589 918.686,-90.9804 925.684,-91.1327"/>
</g>
<!-- Node3&#45;&gt;Node4 -->
<g id="edge4" class="edge"><title>Node3&#45;&gt;Node4</title>
<path fill="none" stroke="midnightblue" d="M165.95,-123.475C149.08,-115.04 122.71,-101.855 101.016,-91.008"/>
<polygon fill="midnightblue" stroke="midnightblue" points="102.555,-87.8647 92.0459,-86.523 99.425,-94.1257 102.555,-87.8647"/>
</g>
<!-- Node3&#45;&gt;Node6 -->
<g id="edge6" class="edge"><title>Node3&#45;&gt;Node6</title>
<path fill="none" stroke="midnightblue" d="M192.599,-123.475C203.048,-114.197 219.968,-99.1706 232.736,-87.831"/>
<polygon fill="midnightblue" stroke="midnightblue" points="235.265,-90.2663 240.418,-81.0091 230.617,-85.0323 235.265,-90.2663"/>
</g>
<!-- Node7 -->
<g id="node8" class="node"><title>Node7</title>
<polygon fill="white" stroke="#bfbfbf" points="146.5,-62 146.5,-81 209.5,-81 209.5,-62 146.5,-62"/>
<text text-anchor="middle" x="178" y="-69" font-family="Helvetica,sans-Serif" font-size="10.00">functional</text>
</g>
<!-- Node3&#45;&gt;Node7 -->
<g id="edge7" class="edge"><title>Node3&#45;&gt;Node7</title>
<path fill="none" stroke="midnightblue" d="M182.284,-123.475C181.578,-115.08 180.477,-101.981 179.568,-91.1631"/>
<polygon fill="midnightblue" stroke="midnightblue" points="183.04,-90.6808 178.715,-81.0091 176.065,-91.2671 183.04,-90.6808"/>
</g>
<!-- Node4&#45;&gt;Node5 -->
<g id="edge5" class="edge"><title>Node4&#45;&gt;Node5</title>
<path fill="none" stroke="midnightblue" d="M91.9644,-56.3993C111.321,-46.6391 136.908,-33.7373 155.856,-24.1826"/>
<polygon fill="midnightblue" stroke="midnightblue" points="157.477,-27.2854 164.83,-19.6578 154.325,-21.035 157.477,-27.2854"/>
</g>
<!-- Node9 -->
<g id="node10" class="node"><title>Node9</title>
<g id="a_node10"><a xlink:href="types_8h.html" target="_top" xlink:title="types.h">
<polygon fill="white" stroke="black" points="328,-62 328,-81 380,-81 380,-62 328,-62"/>
<text text-anchor="middle" x="354" y="-69" font-family="Helvetica,sans-Serif" font-size="10.00">types.h</text>
</a>
</g>
</g>
<!-- Node8&#45;&gt;Node9 -->
<g id="edge10" class="edge"><title>Node8&#45;&gt;Node9</title>
<path fill="none" stroke="midnightblue" d="M511.489,-123.497C479.666,-115.15 430.635,-101.578 389,-87 387.091,-86.3316 385.136,-85.6146 383.173,-84.8703"/>
<polygon fill="midnightblue" stroke="midnightblue" points="384.059,-81.4562 373.473,-81.0198 381.476,-87.9624 384.059,-81.4562"/>
</g>
<!-- Node10 -->
<g id="node11" class="node"><title>Node10</title>
<polygon fill="white" stroke="#bfbfbf" points="398,-62 398,-81 460,-81 460,-62 398,-62"/>
<text text-anchor="middle" x="429" y="-69" font-family="Helvetica,sans-Serif" font-size="10.00">algorithm</text>
</g>
<!-- Node8&#45;&gt;Node10 -->
<g id="edge11" class="edge"><title>Node8&#45;&gt;Node10</title>
<path fill="none" stroke="midnightblue" d="M528.38,-123.475C509.085,-113.578 477.041,-97.1416 454.569,-85.6151"/>
<polygon fill="midnightblue" stroke="midnightblue" points="456.084,-82.4589 445.589,-81.0091 452.89,-88.6873 456.084,-82.4589"/>
</g>
<!-- Node11 -->
<g id="node12" class="node"><title>Node11</title>
<polygon fill="white" stroke="#bfbfbf" points="478,-62 478,-81 542,-81 542,-62 478,-62"/>
<text text-anchor="middle" x="510" y="-69" font-family="Helvetica,sans-Serif" font-size="10.00">stdexcept</text>
</g>
<!-- Node8&#45;&gt;Node11 -->
<g id="edge12" class="edge"><title>Node8&#45;&gt;Node11</title>
<path fill="none" stroke="midnightblue" d="M539.985,-123.475C534.839,-114.727 526.688,-100.869 520.182,-89.8093"/>
<polygon fill="midnightblue" stroke="midnightblue" points="523.092,-87.8539 515.005,-81.0091 517.059,-91.403 523.092,-87.8539"/>
</g>
<!-- Node12 -->
<g id="node13" class="node"><title>Node12</title>
<polygon fill="white" stroke="#bfbfbf" points="560,-62 560,-81 602,-81 602,-62 560,-62"/>
<text text-anchor="middle" x="581" y="-69" font-family="Helvetica,sans-Serif" font-size="10.00">limits</text>
</g>
<!-- Node8&#45;&gt;Node12 -->
<g id="edge13" class="edge"><title>Node8&#45;&gt;Node12</title>
<path fill="none" stroke="midnightblue" d="M550.158,-123.475C555.451,-114.727 563.835,-100.869 570.527,-89.8093"/>
<polygon fill="midnightblue" stroke="midnightblue" points="573.67,-91.3768 575.852,-81.0091 567.68,-87.7531 573.67,-91.3768"/>
</g>
<!-- Node13 -->
<g id="node14" class="node"><title>Node13</title>
<polygon fill="white" stroke="#bfbfbf" points="620.5,-62 620.5,-81 673.5,-81 673.5,-62 620.5,-62"/>
<text text-anchor="middle" x="647" y="-69" font-family="Helvetica,sans-Serif" font-size="10.00">istream</text>
</g>
<!-- Node8&#45;&gt;Node13 -->
<g id="edge14" class="edge"><title>Node8&#45;&gt;Node13</title>
<path fill="none" stroke="midnightblue" d="M559.614,-123.475C576.353,-113.711 604.004,-97.5807 623.719,-86.0808"/>
<polygon fill="midnightblue" stroke="midnightblue" points="625.539,-89.0711 632.413,-81.0091 622.012,-83.0246 625.539,-89.0711"/>
</g>
<!-- Node14 -->
<g id="node15" class="node"><title>Node14</title>
<polygon fill="white" stroke="#bfbfbf" points="692,-62 692,-81 748,-81 748,-62 692,-62"/>
<text text-anchor="middle" x="720" y="-69" font-family="Helvetica,sans-Serif" font-size="10.00">sstream</text>
</g>
<!-- Node8&#45;&gt;Node14 -->
<g id="edge15" class="edge"><title>Node8&#45;&gt;Node14</title>
<path fill="none" stroke="midnightblue" d="M572.162,-123.494C599.896,-114.712 644.132,-100.436 682,-87 684.109,-86.2518 686.278,-85.4667 688.459,-84.6653"/>
<polygon fill="midnightblue" stroke="midnightblue" points="689.822,-87.8925 697.962,-81.1109 687.369,-81.3362 689.822,-87.8925"/>
</g>
<!-- Node15 -->
<g id="node16" class="node"><title>Node15</title>
<polygon fill="white" stroke="#bfbfbf" points="766.5,-62 766.5,-81 813.5,-81 813.5,-62 766.5,-62"/>
<text text-anchor="middle" x="790" y="-69" font-family="Helvetica,sans-Serif" font-size="10.00">cmath</text>
</g>
<!-- Node8&#45;&gt;Node15 -->
<g id="edge16" class="edge"><title>Node8&#45;&gt;Node15</title>
<path fill="none" stroke="midnightblue" d="M588.719,-125.413C632.066,-118.257 700.056,-105.34 757,-87 758.921,-86.3813 760.882,-85.6884 762.842,-84.9497"/>
<polygon fill="midnightblue" stroke="midnightblue" points="764.525,-88.0423 772.447,-81.0077 761.867,-81.5664 764.525,-88.0423"/>
</g>
<!-- Node16&#45;&gt;Node17 -->
<g id="edge18" class="edge"><title>Node16&#45;&gt;Node17</title>
<path fill="none" stroke="midnightblue" d="M833.442,-123.475C837.953,-114.815 845.074,-101.149 850.807,-90.1453"/>
<polygon fill="midnightblue" stroke="midnightblue" points="854.05,-91.4948 855.567,-81.0091 847.842,-88.2604 854.05,-91.4948"/>
</g>
<!-- Node16&#45;&gt;Node18 -->
<g id="edge19" class="edge"><title>Node16&#45;&gt;Node18</title>
<path fill="none" stroke="midnightblue" d="M842.325,-123.475C857.38,-113.843 882.116,-98.0175 900.037,-86.5517"/>
<polygon fill="midnightblue" stroke="midnightblue" points="902.163,-89.3466 908.7,-81.0091 898.39,-83.4501 902.163,-89.3466"/>
</g>
<!-- Node21 -->
<g id="node22" class="node"><title>Node21</title>
<polygon fill="white" stroke="#bfbfbf" points="586.5,-179.5 586.5,-198.5 685.5,-198.5 685.5,-179.5 586.5,-179.5"/>
<text text-anchor="middle" x="636" y="-186.5" font-family="Helvetica,sans-Serif" font-size="10.00">easylogging++.h</text>
</g>
<!-- Node20&#45;&gt;Node21 -->
<g id="edge26" class="edge"><title>Node20&#45;&gt;Node21</title>
<path fill="none" stroke="midnightblue" d="M636,-235.083C636,-228.006 636,-217.861 636,-208.986"/>
<polygon fill="midnightblue" stroke="midnightblue" points="639.5,-208.751 636,-198.751 632.5,-208.751 639.5,-208.751"/>
</g>
<!-- Node22&#45;&gt;Node23 -->
<g id="edge28" class="edge"><title>Node22&#45;&gt;Node23</title>
<path fill="none" stroke="midnightblue" d="M743.78,-235.083C748.672,-227.534 755.827,-216.495 761.833,-207.23"/>
<polygon fill="midnightblue" stroke="midnightblue" points="764.826,-209.046 767.328,-198.751 758.952,-205.239 764.826,-209.046"/>
</g>
</g>
</svg>
