<?xml version="1.0" encoding="UTF-8" standalone="no"?>
<!DOCTYPE svg PUBLIC "-//W3C//DTD SVG 1.1//EN"
 "http://www.w3.org/Graphics/SVG/1.1/DTD/svg11.dtd">
<!-- Generated by graphviz version 2.38.0 (20140413.2041)
 -->
<!-- Title: src/analysis/utils/fitter/Fitter.h Pages: 1 -->
<svg width="1935pt" height="554pt"
 viewBox="0.00 0.00 1935.11 554.00" xmlns="http://www.w3.org/2000/svg" xmlns:xlink="http://www.w3.org/1999/xlink">
<g id="graph0" class="graph" transform="scale(1 1) rotate(0) translate(4 550)">
<title>src/analysis/utils/fitter/Fitter.h</title>
<polygon fill="white" stroke="none" points="-4,4 -4,-550 1931.11,-550 1931.11,4 -4,4"/>
<!-- Node0 -->
<g id="node1" class="node"><title>Node0</title>
<polygon fill="#bfbfbf" stroke="black" points="1296.11,-515.5 1296.11,-545.5 1391.11,-545.5 1391.11,-515.5 1296.11,-515.5"/>
<text text-anchor="start" x="1304.11" y="-533.5" font-family="Helvetica,sans-Serif" font-size="10.00">src/analysis/utils</text>
<text text-anchor="middle" x="1343.61" y="-522.5" font-family="Helvetica,sans-Serif" font-size="10.00">/fitter/Fitter.h</text>
</g>
<!-- Node1 -->
<g id="node2" class="node"><title>Node1</title>
<g id="a_node2"><a xlink:href="_uncertainties_8h.html" target="_top" xlink:title="analysis/utils/Uncertainties.h">
<polygon fill="white" stroke="black" points="1051.11,-459.5 1051.11,-478.5 1204.11,-478.5 1204.11,-459.5 1051.11,-459.5"/>
<text text-anchor="middle" x="1127.61" y="-466.5" font-family="Helvetica,sans-Serif" font-size="10.00">analysis/utils/Uncertainties.h</text>
</a>
</g>
</g>
<!-- Node0&#45;&gt;Node1 -->
<g id="edge1" class="edge"><title>Node0&#45;&gt;Node1</title>
<path fill="none" stroke="midnightblue" d="M1295.94,-516.369C1257.67,-505.827 1204.52,-491.186 1168.25,-481.194"/>
<polygon fill="midnightblue" stroke="midnightblue" points="1169.06,-477.787 1158.49,-478.506 1167.2,-484.536 1169.06,-477.787"/>
</g>
<!-- Node2 -->
<g id="node3" class="node"><title>Node2</title>
<g id="a_node3"><a xlink:href="_t_particle_8h.html" target="_top" xlink:title="tree/TParticle.h">
<polygon fill="white" stroke="black" points="1083.61,-403.5 1083.61,-422.5 1171.61,-422.5 1171.61,-403.5 1083.61,-403.5"/>
<text text-anchor="middle" x="1127.61" y="-410.5" font-family="Helvetica,sans-Serif" font-size="10.00">tree/TParticle.h</text>
</a>
</g>
</g>
<!-- Node0&#45;&gt;Node2 -->
<g id="edge79" class="edge"><title>Node0&#45;&gt;Node2</title>
<path fill="none" stroke="midnightblue" d="M1317.54,-515.403C1291.13,-501.133 1249.07,-478.459 1212.61,-459 1192.66,-448.352 1170.03,-436.377 1153.14,-427.459"/>
<polygon fill="midnightblue" stroke="midnightblue" points="1154.4,-424.165 1143.92,-422.594 1151.14,-430.356 1154.4,-424.165"/>
</g>
<!-- Node15 -->
<g id="node16" class="node"><title>Node15</title>
<polygon fill="white" stroke="#bfbfbf" points="936.112,-56.5 936.112,-75.5 983.112,-75.5 983.112,-56.5 936.112,-56.5"/>
<text text-anchor="middle" x="959.612" y="-63.5" font-family="Helvetica,sans-Serif" font-size="10.00">vector</text>
</g>
<!-- Node0&#45;&gt;Node15 -->
<g id="edge82" class="edge"><title>Node0&#45;&gt;Node15</title>
<path fill="none" stroke="midnightblue" d="M1391.19,-528.067C1512.1,-523.139 1821.61,-501.936 1821.61,-414 1821.61,-414 1821.61,-414 1821.61,-177 1821.61,-141.35 1805.9,-129.09 1774.61,-112 1705.3,-74.1407 1138.71,-68.094 993.446,-67.1635"/>
<polygon fill="midnightblue" stroke="midnightblue" points="993.367,-63.6631 983.346,-67.1028 993.325,-70.6629 993.367,-63.6631"/>
</g>
<!-- Node23 -->
<g id="node24" class="node"><title>Node23</title>
<polygon fill="white" stroke="#bfbfbf" points="1188.11,-168.5 1188.11,-187.5 1245.11,-187.5 1245.11,-168.5 1188.11,-168.5"/>
<text text-anchor="middle" x="1216.61" y="-175.5" font-family="Helvetica,sans-Serif" font-size="10.00">memory</text>
</g>
<!-- Node0&#45;&gt;Node23 -->
<g id="edge83" class="edge"><title>Node0&#45;&gt;Node23</title>
<path fill="none" stroke="midnightblue" d="M1338.48,-515.326C1318.47,-460.112 1245.75,-259.425 1223.28,-197.395"/>
<polygon fill="midnightblue" stroke="midnightblue" points="1226.49,-195.993 1219.79,-187.783 1219.91,-198.377 1226.49,-195.993"/>
</g>
<!-- Node40 -->
<g id="node41" class="node"><title>Node40</title>
<g id="a_node41"><a xlink:href="_lorentz_vec_8h.html" target="_top" xlink:title="base/vec/LorentzVec.h">
<polygon fill="white" stroke="black" points="105.112,-347.5 105.112,-366.5 230.112,-366.5 230.112,-347.5 105.112,-347.5"/>
<text text-anchor="middle" x="167.612" y="-354.5" font-family="Helvetica,sans-Serif" font-size="10.00">base/vec/LorentzVec.h</text>
</a>
</g>
</g>
<!-- Node0&#45;&gt;Node40 -->
<g id="edge80" class="edge"><title>Node0&#45;&gt;Node40</title>
<path fill="none" stroke="midnightblue" d="M1296.04,-526.174C1159.77,-516.174 756.516,-483.29 426.612,-423 347.468,-408.537 256.603,-383.812 206.28,-369.385"/>
<polygon fill="midnightblue" stroke="midnightblue" points="207.052,-365.965 196.474,-366.556 205.112,-372.69 207.052,-365.965"/>
</g>
<!-- Node42 -->
<g id="node43" class="node"><title>Node42</title>
<polygon fill="white" stroke="#bfbfbf" points="1850.11,-459.5 1850.11,-478.5 1927.11,-478.5 1927.11,-459.5 1850.11,-459.5"/>
<text text-anchor="middle" x="1888.61" y="-466.5" font-family="Helvetica,sans-Serif" font-size="10.00">APLCON.hpp</text>
</g>
<!-- Node0&#45;&gt;Node42 -->
<g id="edge81" class="edge"><title>Node0&#45;&gt;Node42</title>
<path fill="none" stroke="midnightblue" d="M1391.23,-525.663C1479.22,-518.34 1673.11,-501.113 1835.61,-479 1836.91,-478.823 1838.23,-478.638 1839.56,-478.447"/>
<polygon fill="midnightblue" stroke="midnightblue" points="1840.51,-481.843 1849.87,-476.882 1839.46,-474.923 1840.51,-481.843"/>
</g>
<!-- Node1&#45;&gt;Node2 -->
<g id="edge2" class="edge"><title>Node1&#45;&gt;Node2</title>
<path fill="none" stroke="midnightblue" d="M1127.61,-459.083C1127.61,-452.006 1127.61,-441.861 1127.61,-432.986"/>
<polygon fill="midnightblue" stroke="midnightblue" points="1131.11,-432.751 1127.61,-422.751 1124.11,-432.751 1131.11,-432.751"/>
</g>
<!-- Node6 -->
<g id="node7" class="node"><title>Node6</title>
<g id="a_node7"><a xlink:href="_detector__t_8h.html" target="_top" xlink:title="base/Detector_t.h">
<polygon fill="white" stroke="black" points="452.112,-168.5 452.112,-187.5 555.112,-187.5 555.112,-168.5 452.112,-168.5"/>
<text text-anchor="middle" x="503.612" y="-175.5" font-family="Helvetica,sans-Serif" font-size="10.00">base/Detector_t.h</text>
</a>
</g>
</g>
<!-- Node1&#45;&gt;Node6 -->
<g id="edge78" class="edge"><title>Node1&#45;&gt;Node6</title>
<path fill="none" stroke="midnightblue" d="M1050.8,-463.649C871.534,-452.468 440.612,-419.225 440.612,-358 440.612,-358 440.612,-358 440.612,-300 440.612,-258.602 469.984,-217.325 488.617,-195.304"/>
<polygon fill="midnightblue" stroke="midnightblue" points="491.414,-197.423 495.376,-187.597 486.151,-192.808 491.414,-197.423"/>
</g>
<!-- Node3 -->
<g id="node4" class="node"><title>Node3</title>
<g id="a_node4"><a xlink:href="_t_candidate_8h.html" target="_top" xlink:title="tree/TCandidate.h">
<polygon fill="white" stroke="black" points="1052.11,-347.5 1052.11,-366.5 1153.11,-366.5 1153.11,-347.5 1052.11,-347.5"/>
<text text-anchor="middle" x="1102.61" y="-354.5" font-family="Helvetica,sans-Serif" font-size="10.00">tree/TCandidate.h</text>
</a>
</g>
</g>
<!-- Node2&#45;&gt;Node3 -->
<g id="edge3" class="edge"><title>Node2&#45;&gt;Node3</title>
<path fill="none" stroke="midnightblue" d="M1123.48,-403.083C1120.1,-395.77 1115.2,-385.181 1110.99,-376.103"/>
<polygon fill="midnightblue" stroke="midnightblue" points="1114.04,-374.355 1106.66,-366.751 1107.69,-377.296 1114.04,-374.355"/>
</g>
<!-- Node2&#45;&gt;Node15 -->
<g id="edge74" class="edge"><title>Node2&#45;&gt;Node15</title>
<path fill="none" stroke="midnightblue" d="M1171.67,-409.283C1318.76,-399.633 1783.61,-364.214 1783.61,-302 1783.61,-302 1783.61,-302 1783.61,-177 1783.61,-144.189 1776.29,-129.62 1748.61,-112 1684.32,-71.0678 1137.17,-67.2899 993.859,-67.0057"/>
<polygon fill="midnightblue" stroke="midnightblue" points="993.501,-63.5052 983.496,-66.99 993.49,-70.5052 993.501,-63.5052"/>
</g>
<!-- Node2&#45;&gt;Node23 -->
<g id="edge77" class="edge"><title>Node2&#45;&gt;Node23</title>
<path fill="none" stroke="midnightblue" d="M1135.07,-403.49C1142.47,-394.762 1153.8,-380.579 1161.61,-367 1188.54,-320.211 1195.2,-307.29 1208.61,-255 1213.5,-235.952 1215.41,-213.484 1216.15,-197.942"/>
<polygon fill="midnightblue" stroke="midnightblue" points="1219.66,-197.696 1216.52,-187.578 1212.67,-197.447 1219.66,-197.696"/>
</g>
<!-- Node26 -->
<g id="node27" class="node"><title>Node26</title>
<g id="a_node27"><a xlink:href="types_8h.html" target="_top" xlink:title="base/types.h">
<polygon fill="white" stroke="black" points="143.612,-168.5 143.612,-187.5 221.612,-187.5 221.612,-168.5 143.612,-168.5"/>
<text text-anchor="middle" x="182.612" y="-175.5" font-family="Helvetica,sans-Serif" font-size="10.00">base/types.h</text>
</a>
</g>
</g>
<!-- Node2&#45;&gt;Node26 -->
<g id="edge44" class="edge"><title>Node2&#45;&gt;Node26</title>
<path fill="none" stroke="midnightblue" d="M1083.43,-408.928C958.796,-399.12 595.355,-362.619 315.612,-255 273.389,-238.757 228.554,-210.543 203.221,-193.439"/>
<polygon fill="midnightblue" stroke="midnightblue" points="205.041,-190.443 194.812,-187.683 201.087,-196.22 205.041,-190.443"/>
</g>
<!-- Node27 -->
<g id="node28" class="node"><title>Node27</title>
<g id="a_node28"><a xlink:href="_particle_type_8h.html" target="_top" xlink:title="base/ParticleType.h">
<polygon fill="white" stroke="black" points="102.112,-291.5 102.112,-310.5 209.112,-310.5 209.112,-291.5 102.112,-291.5"/>
<text text-anchor="middle" x="155.612" y="-298.5" font-family="Helvetica,sans-Serif" font-size="10.00">base/ParticleType.h</text>
</a>
</g>
</g>
<!-- Node2&#45;&gt;Node27 -->
<g id="edge45" class="edge"><title>Node2&#45;&gt;Node27</title>
<path fill="none" stroke="midnightblue" d="M1083.39,-412.07C932.055,-411.932 435.813,-408.268 282.612,-367 271.9,-364.115 213.982,-333.433 180.176,-315.274"/>
<polygon fill="midnightblue" stroke="midnightblue" points="181.804,-312.176 171.34,-310.518 178.486,-318.339 181.804,-312.176"/>
</g>
<!-- Node32 -->
<g id="node33" class="node"><title>Node32</title>
<g id="a_node33"><a xlink:href="_tree_8h.html" target="_top" xlink:title="base/Tree.h">
<polygon fill="white" stroke="black" points="1359.11,-230 1359.11,-249 1430.11,-249 1430.11,-230 1359.11,-230"/>
<text text-anchor="middle" x="1394.61" y="-237" font-family="Helvetica,sans-Serif" font-size="10.00">base/Tree.h</text>
</a>
</g>
</g>
<!-- Node2&#45;&gt;Node32 -->
<g id="edge60" class="edge"><title>Node2&#45;&gt;Node32</title>
<path fill="none" stroke="midnightblue" d="M1171.64,-409.543C1210.22,-405.5 1266.28,-394.87 1306.61,-367 1347.01,-339.085 1374.72,-286.168 1387.16,-258.453"/>
<polygon fill="midnightblue" stroke="midnightblue" points="1390.42,-259.737 1391.18,-249.169 1384,-256.957 1390.42,-259.737"/>
</g>
<!-- Node37 -->
<g id="node38" class="node"><title>Node37</title>
<polygon fill="white" stroke="#bfbfbf" points="1263.61,-168.5 1263.61,-187.5 1293.61,-187.5 1293.61,-168.5 1263.61,-168.5"/>
<text text-anchor="middle" x="1278.61" y="-175.5" font-family="Helvetica,sans-Serif" font-size="10.00">list</text>
</g>
<!-- Node2&#45;&gt;Node37 -->
<g id="edge75" class="edge"><title>Node2&#45;&gt;Node37</title>
<path fill="none" stroke="midnightblue" d="M1140.9,-403.242C1152.7,-394.965 1169.85,-381.658 1181.61,-367 1226.19,-311.445 1258.89,-232.168 1272.13,-196.995"/>
<polygon fill="midnightblue" stroke="midnightblue" points="1275.43,-198.164 1275.61,-187.57 1268.86,-195.742 1275.43,-198.164"/>
</g>
<!-- Node2&#45;&gt;Node40 -->
<g id="edge72" class="edge"><title>Node2&#45;&gt;Node40</title>
<path fill="none" stroke="midnightblue" d="M1083.44,-410.772C954.232,-406.958 565.83,-393.928 244.612,-367 243.145,-366.877 241.663,-366.748 240.17,-366.614"/>
<polygon fill="midnightblue" stroke="midnightblue" points="240.48,-363.128 230.193,-365.661 239.815,-370.096 240.48,-363.128"/>
</g>
<!-- Node41 -->
<g id="node42" class="node"><title>Node41</title>
<polygon fill="white" stroke="#bfbfbf" points="975.112,-347.5 975.112,-366.5 1034.11,-366.5 1034.11,-347.5 975.112,-347.5"/>
<text text-anchor="middle" x="1004.61" y="-354.5" font-family="Helvetica,sans-Serif" font-size="10.00">iostream</text>
</g>
<!-- Node2&#45;&gt;Node41 -->
<g id="edge76" class="edge"><title>Node2&#45;&gt;Node41</title>
<path fill="none" stroke="midnightblue" d="M1108.12,-403.444C1087.97,-394.596 1056.29,-380.687 1033.28,-370.586"/>
<polygon fill="midnightblue" stroke="midnightblue" points="1034.57,-367.332 1024.01,-366.516 1031.76,-373.741 1034.57,-367.332"/>
</g>
<!-- Node4 -->
<g id="node5" class="node"><title>Node4</title>
<g id="a_node5"><a xlink:href="_t_cluster_8h.html" target="_top" xlink:title="TCluster.h">
<polygon fill="white" stroke="black" points="787.112,-291.5 787.112,-310.5 850.112,-310.5 850.112,-291.5 787.112,-291.5"/>
<text text-anchor="middle" x="818.612" y="-298.5" font-family="Helvetica,sans-Serif" font-size="10.00">TCluster.h</text>
</a>
</g>
</g>
<!-- Node3&#45;&gt;Node4 -->
<g id="edge4" class="edge"><title>Node3&#45;&gt;Node4</title>
<path fill="none" stroke="midnightblue" d="M1057.61,-347.444C1003.36,-337.128 912.918,-319.931 860.225,-309.912"/>
<polygon fill="midnightblue" stroke="midnightblue" points="860.69,-306.438 850.212,-308.008 859.382,-313.315 860.69,-306.438"/>
</g>
<!-- Node3&#45;&gt;Node6 -->
<g id="edge38" class="edge"><title>Node3&#45;&gt;Node6</title>
<path fill="none" stroke="midnightblue" d="M1051.9,-348.166C1048.76,-347.752 1045.65,-347.359 1042.61,-347 858.756,-325.258 803.816,-367.814 627.612,-311 581.329,-296.077 565.116,-292.045 533.612,-255 519.575,-238.494 511.608,-214.627 507.465,-198.061"/>
<polygon fill="midnightblue" stroke="midnightblue" points="510.797,-196.922 505.181,-187.938 503.968,-198.463 510.797,-196.922"/>
</g>
<!-- Node3&#45;&gt;Node15 -->
<g id="edge39" class="edge"><title>Node3&#45;&gt;Node15</title>
<path fill="none" stroke="midnightblue" d="M1108.26,-347.442C1125.9,-319.536 1176.69,-229.451 1140.61,-168 1108.73,-113.704 1035.88,-86.4463 992.95,-74.6313"/>
<polygon fill="midnightblue" stroke="midnightblue" points="993.801,-71.236 983.24,-72.0814 992.023,-78.0065 993.801,-71.236"/>
</g>
<!-- Node20 -->
<g id="node21" class="node"><title>Node20</title>
<polygon fill="white" stroke="#bfbfbf" points="838.112,-168.5 838.112,-187.5 893.112,-187.5 893.112,-168.5 838.112,-168.5"/>
<text text-anchor="middle" x="865.612" y="-175.5" font-family="Helvetica,sans-Serif" font-size="10.00">iomanip</text>
</g>
<!-- Node3&#45;&gt;Node20 -->
<g id="edge40" class="edge"><title>Node3&#45;&gt;Node20</title>
<path fill="none" stroke="midnightblue" d="M1088.44,-347.412C1061.17,-330.695 999.824,-292.159 951.612,-255 926.386,-235.557 899.133,-210.765 882.22,-194.883"/>
<polygon fill="midnightblue" stroke="midnightblue" points="884.471,-192.195 874.801,-187.865 879.66,-197.28 884.471,-192.195"/>
</g>
<!-- Node21 -->
<g id="node22" class="node"><title>Node21</title>
<polygon fill="white" stroke="#bfbfbf" points="590.612,-168.5 590.612,-187.5 646.612,-187.5 646.612,-168.5 590.612,-168.5"/>
<text text-anchor="middle" x="618.612" y="-175.5" font-family="Helvetica,sans-Serif" font-size="10.00">sstream</text>
</g>
<!-- Node3&#45;&gt;Node21 -->
<g id="edge41" class="edge"><title>Node3&#45;&gt;Node21</title>
<path fill="none" stroke="midnightblue" d="M1051.88,-348.34C1048.74,-347.882 1045.64,-347.432 1042.61,-347 937.472,-331.974 638.01,-339.458 573.612,-255 558.535,-235.226 580.616,-210.008 598.829,-194.177"/>
<polygon fill="midnightblue" stroke="midnightblue" points="601.293,-196.682 606.778,-187.618 596.837,-191.283 601.293,-196.682"/>
</g>
<!-- Node3&#45;&gt;Node23 -->
<g id="edge42" class="edge"><title>Node3&#45;&gt;Node23</title>
<path fill="none" stroke="midnightblue" d="M1115.51,-347.241C1126.95,-338.963 1143.51,-325.656 1154.61,-311 1182.16,-274.637 1201.64,-224.073 1210.77,-197.31"/>
<polygon fill="midnightblue" stroke="midnightblue" points="1214.13,-198.296 1213.94,-187.703 1207.48,-196.099 1214.13,-198.296"/>
</g>
<!-- Node25 -->
<g id="node26" class="node"><title>Node25</title>
<polygon fill="white" stroke="#bfbfbf" points="1069.61,-168.5 1069.61,-187.5 1131.61,-187.5 1131.61,-168.5 1069.61,-168.5"/>
<text text-anchor="middle" x="1100.61" y="-175.5" font-family="Helvetica,sans-Serif" font-size="10.00">algorithm</text>
</g>
<!-- Node3&#45;&gt;Node25 -->
<g id="edge43" class="edge"><title>Node3&#45;&gt;Node25</title>
<path fill="none" stroke="midnightblue" d="M1102.52,-347.463C1102.21,-320.428 1101.26,-236.239 1100.83,-198.109"/>
<polygon fill="midnightblue" stroke="midnightblue" points="1104.33,-197.828 1100.71,-187.868 1097.33,-197.907 1104.33,-197.828"/>
</g>
<!-- Node5 -->
<g id="node6" class="node"><title>Node5</title>
<g id="a_node6"><a xlink:href="_t_detector_read_hit_8h.html" target="_top" xlink:title="tree/TDetectorReadHit.h">
<polygon fill="white" stroke="black" points="582.612,-230 582.612,-249 714.612,-249 714.612,-230 582.612,-230"/>
<text text-anchor="middle" x="648.612" y="-237" font-family="Helvetica,sans-Serif" font-size="10.00">tree/TDetectorReadHit.h</text>
</a>
</g>
</g>
<!-- Node4&#45;&gt;Node5 -->
<g id="edge5" class="edge"><title>Node4&#45;&gt;Node5</title>
<path fill="none" stroke="midnightblue" d="M794.255,-291.475C764.968,-281.225 715.638,-263.959 682.61,-252.399"/>
<polygon fill="midnightblue" stroke="midnightblue" points="683.518,-249.009 672.924,-249.009 681.206,-255.616 683.518,-249.009"/>
</g>
<!-- Node4&#45;&gt;Node6 -->
<g id="edge25" class="edge"><title>Node4&#45;&gt;Node6</title>
<path fill="none" stroke="midnightblue" d="M786.712,-300.428C737.808,-299.758 642.72,-293.119 573.612,-255 548.166,-240.964 526.894,-214.258 514.702,-196.538"/>
<polygon fill="midnightblue" stroke="midnightblue" points="517.33,-194.167 508.895,-187.756 511.491,-198.028 517.33,-194.167"/>
</g>
<!-- Node9 -->
<g id="node10" class="node"><title>Node9</title>
<g id="a_node10"><a xlink:href="vec3_8h.html" target="_top" xlink:title="base/vec/vec3.h">
<polygon fill="white" stroke="black" points="68.612,-112.5 68.612,-131.5 162.612,-131.5 162.612,-112.5 68.612,-112.5"/>
<text text-anchor="middle" x="115.612" y="-119.5" font-family="Helvetica,sans-Serif" font-size="10.00">base/vec/vec3.h</text>
</a>
</g>
</g>
<!-- Node4&#45;&gt;Node9 -->
<g id="edge32" class="edge"><title>Node4&#45;&gt;Node9</title>
<path fill="none" stroke="midnightblue" d="M786.941,-300.176C706.871,-299.977 490.293,-295.416 315.612,-255 278.058,-246.311 270.748,-237.418 234.612,-224 190.329,-207.557 166.976,-222.407 134.612,-188 122.917,-175.566 118.376,-156.329 116.636,-142.004"/>
<polygon fill="midnightblue" stroke="midnightblue" points="120.102,-141.457 115.758,-131.793 113.128,-142.056 120.102,-141.457"/>
</g>
<!-- Node11 -->
<g id="node12" class="node"><title>Node11</title>
<polygon fill="white" stroke="#bfbfbf" points="144.112,-0.5 144.112,-19.5 191.112,-19.5 191.112,-0.5 144.112,-0.5"/>
<text text-anchor="middle" x="167.612" y="-7.5" font-family="Helvetica,sans-Serif" font-size="10.00">cmath</text>
</g>
<!-- Node4&#45;&gt;Node11 -->
<g id="edge34" class="edge"><title>Node4&#45;&gt;Node11</title>
<path fill="none" stroke="midnightblue" d="M786.873,-299.418C680.751,-297.184 339.095,-287.575 234.612,-255 172.614,-235.671 28.464,-135.998 3.61198,-76 -18.3089,-23.0783 79.3377,-12.7902 133.543,-11.0879"/>
<polygon fill="midnightblue" stroke="midnightblue" points="133.84,-14.5821 143.756,-10.8519 133.678,-7.58398 133.84,-14.5821"/>
</g>
<!-- Node13 -->
<g id="node14" class="node"><title>Node13</title>
<g id="a_node14"><a xlink:href="base_2std__ext_2math_8h.html" target="_top" xlink:title="base/std_ext/math.h">
<polygon fill="white" stroke="black" points="615.612,-112.5 615.612,-131.5 731.612,-131.5 731.612,-112.5 615.612,-112.5"/>
<text text-anchor="middle" x="673.612" y="-119.5" font-family="Helvetica,sans-Serif" font-size="10.00">base/std_ext/math.h</text>
</a>
</g>
</g>
<!-- Node4&#45;&gt;Node13 -->
<g id="edge26" class="edge"><title>Node4&#45;&gt;Node13</title>
<path fill="none" stroke="midnightblue" d="M812.187,-291.467C801.478,-277.302 779.214,-248.105 759.612,-224 734.93,-193.649 705.139,-159.108 687.886,-139.3"/>
<polygon fill="midnightblue" stroke="midnightblue" points="690.321,-136.767 681.107,-131.536 685.048,-141.371 690.321,-136.767"/>
</g>
<!-- Node4&#45;&gt;Node15 -->
<g id="edge33" class="edge"><title>Node4&#45;&gt;Node15</title>
<path fill="none" stroke="midnightblue" d="M826.478,-291.272C834.378,-282.373 846.758,-268.06 856.612,-255 878.216,-226.365 883.813,-219.143 901.612,-188 921.851,-152.587 941.536,-109.014 951.958,-85.008"/>
<polygon fill="midnightblue" stroke="midnightblue" points="955.214,-86.2955 955.948,-75.726 948.783,-83.531 955.214,-86.2955"/>
</g>
<!-- Node4&#45;&gt;Node20 -->
<g id="edge35" class="edge"><title>Node4&#45;&gt;Node20</title>
<path fill="none" stroke="midnightblue" d="M821.992,-291.298C829.614,-271.676 848.273,-223.638 858.545,-197.193"/>
<polygon fill="midnightblue" stroke="midnightblue" points="861.904,-198.212 862.262,-187.623 855.379,-195.677 861.904,-198.212"/>
</g>
<!-- Node4&#45;&gt;Node21 -->
<g id="edge36" class="edge"><title>Node4&#45;&gt;Node21</title>
<path fill="none" stroke="midnightblue" d="M809.533,-291.324C793.317,-276.164 757.855,-244.518 723.612,-224 701.288,-210.624 674.263,-199.138 653.221,-191.118"/>
<polygon fill="midnightblue" stroke="midnightblue" points="654.309,-187.788 643.716,-187.575 651.864,-194.347 654.309,-187.788"/>
</g>
<!-- Node22 -->
<g id="node23" class="node"><title>Node22</title>
<g id="a_node23"><a xlink:href="shared__ptr__container_8h.html" target="_top" xlink:title="base/std_ext/shared\l_ptr_container.h">
<polygon fill="white" stroke="black" points="960.612,-224.5 960.612,-254.5 1074.61,-254.5 1074.61,-224.5 960.612,-224.5"/>
<text text-anchor="start" x="968.612" y="-242.5" font-family="Helvetica,sans-Serif" font-size="10.00">base/std_ext/shared</text>
<text text-anchor="middle" x="1017.61" y="-231.5" font-family="Helvetica,sans-Serif" font-size="10.00">_ptr_container.h</text>
</a>
</g>
</g>
<!-- Node4&#45;&gt;Node22 -->
<g id="edge27" class="edge"><title>Node4&#45;&gt;Node22</title>
<path fill="none" stroke="midnightblue" d="M847.124,-291.475C876.72,-282.626 923.802,-268.549 960.997,-257.428"/>
<polygon fill="midnightblue" stroke="midnightblue" points="962.133,-260.741 970.712,-254.523 960.128,-254.034 962.133,-260.741"/>
</g>
<!-- Node4&#45;&gt;Node23 -->
<g id="edge37" class="edge"><title>Node4&#45;&gt;Node23</title>
<path fill="none" stroke="midnightblue" d="M850.522,-298.189C901.238,-294.521 1002.77,-283.932 1083.61,-255 1126.43,-239.677 1171.39,-210.915 1196.52,-193.504"/>
<polygon fill="midnightblue" stroke="midnightblue" points="1198.68,-196.265 1204.84,-187.649 1194.65,-190.54 1198.68,-196.265"/>
</g>
<!-- Node5&#45;&gt;Node6 -->
<g id="edge6" class="edge"><title>Node5&#45;&gt;Node6</title>
<path fill="none" stroke="midnightblue" d="M627.837,-229.975C603.18,-219.857 561.867,-202.905 533.71,-191.351"/>
<polygon fill="midnightblue" stroke="midnightblue" points="534.929,-188.067 524.348,-187.509 532.271,-194.543 534.929,-188.067"/>
</g>
<!-- Node5&#45;&gt;Node20 -->
<g id="edge23" class="edge"><title>Node5&#45;&gt;Node20</title>
<path fill="none" stroke="midnightblue" d="M679.703,-229.975C718.895,-219.229 786.204,-200.773 828.179,-189.264"/>
<polygon fill="midnightblue" stroke="midnightblue" points="829.297,-192.587 838.015,-186.567 827.446,-185.836 829.297,-192.587"/>
</g>
<!-- Node5&#45;&gt;Node21 -->
<g id="edge24" class="edge"><title>Node5&#45;&gt;Node21</title>
<path fill="none" stroke="midnightblue" d="M644.314,-229.975C639.947,-221.315 633.057,-207.649 627.509,-196.645"/>
<polygon fill="midnightblue" stroke="midnightblue" points="630.53,-194.863 622.902,-187.509 624.279,-198.014 630.53,-194.863"/>
</g>
<!-- Node7 -->
<g id="node8" class="node"><title>Node7</title>
<g id="a_node8"><a xlink:href="bitflag_8h.html" target="_top" xlink:title="base/bitflag.h">
<polygon fill="white" stroke="black" points="450.112,-112.5 450.112,-131.5 531.112,-131.5 531.112,-112.5 450.112,-112.5"/>
<text text-anchor="middle" x="490.612" y="-119.5" font-family="Helvetica,sans-Serif" font-size="10.00">base/bitflag.h</text>
</a>
</g>
</g>
<!-- Node6&#45;&gt;Node7 -->
<g id="edge7" class="edge"><title>Node6&#45;&gt;Node7</title>
<path fill="none" stroke="midnightblue" d="M501.465,-168.083C499.743,-160.927 497.265,-150.635 495.112,-141.691"/>
<polygon fill="midnightblue" stroke="midnightblue" points="498.462,-140.654 492.719,-131.751 491.657,-142.293 498.462,-140.654"/>
</g>
<!-- Node6&#45;&gt;Node9 -->
<g id="edge9" class="edge"><title>Node6&#45;&gt;Node9</title>
<path fill="none" stroke="midnightblue" d="M452.089,-169.829C379.735,-159.759 248.455,-141.488 173.043,-130.993"/>
<polygon fill="midnightblue" stroke="midnightblue" points="173.172,-127.477 162.785,-129.565 172.207,-134.41 173.172,-127.477"/>
</g>
<!-- Node6&#45;&gt;Node13 -->
<g id="edge14" class="edge"><title>Node6&#45;&gt;Node13</title>
<path fill="none" stroke="midnightblue" d="M530.549,-168.444C559.272,-159.32 604.941,-144.813 636.933,-134.651"/>
<polygon fill="midnightblue" stroke="midnightblue" points="638.33,-137.88 646.801,-131.516 636.211,-131.208 638.33,-137.88"/>
</g>
<!-- Node6&#45;&gt;Node15 -->
<g id="edge22" class="edge"><title>Node6&#45;&gt;Node15</title>
<path fill="none" stroke="midnightblue" d="M555.381,-170.931C604.019,-164.354 678.422,-152.024 740.612,-132 760.675,-125.54 763.761,-119.085 783.612,-112 832.004,-94.7275 890.083,-81.2142 925.921,-73.6709"/>
<polygon fill="midnightblue" stroke="midnightblue" points="926.771,-77.0693 935.853,-71.6137 925.351,-70.2148 926.771,-77.0693"/>
</g>
<!-- Node16 -->
<g id="node17" class="node"><title>Node16</title>
<polygon fill="white" stroke="#bfbfbf" points="549.112,-112.5 549.112,-131.5 598.112,-131.5 598.112,-112.5 549.112,-112.5"/>
<text text-anchor="middle" x="573.612" y="-119.5" font-family="Helvetica,sans-Serif" font-size="10.00">cstdint</text>
</g>
<!-- Node6&#45;&gt;Node16 -->
<g id="edge18" class="edge"><title>Node6&#45;&gt;Node16</title>
<path fill="none" stroke="midnightblue" d="M514.859,-168.324C525.409,-160.185 541.413,-147.839 554.054,-138.087"/>
<polygon fill="midnightblue" stroke="midnightblue" points="556.381,-140.713 562.161,-131.834 552.105,-135.171 556.381,-140.713"/>
</g>
<!-- Node17 -->
<g id="node18" class="node"><title>Node17</title>
<polygon fill="white" stroke="#bfbfbf" points="367.612,-112.5 367.612,-131.5 431.612,-131.5 431.612,-112.5 367.612,-112.5"/>
<text text-anchor="middle" x="399.612" y="-119.5" font-family="Helvetica,sans-Serif" font-size="10.00">stdexcept</text>
</g>
<!-- Node6&#45;&gt;Node17 -->
<g id="edge19" class="edge"><title>Node6&#45;&gt;Node17</title>
<path fill="none" stroke="midnightblue" d="M486.903,-168.324C470.3,-159.703 444.61,-146.364 425.391,-136.386"/>
<polygon fill="midnightblue" stroke="midnightblue" points="426.768,-133.156 416.28,-131.655 423.542,-139.369 426.768,-133.156"/>
</g>
<!-- Node18 -->
<g id="node19" class="node"><title>Node18</title>
<polygon fill="white" stroke="#bfbfbf" points="305.612,-112.5 305.612,-131.5 349.612,-131.5 349.612,-112.5 305.612,-112.5"/>
<text text-anchor="middle" x="327.612" y="-119.5" font-family="Helvetica,sans-Serif" font-size="10.00">string</text>
</g>
<!-- Node6&#45;&gt;Node18 -->
<g id="edge20" class="edge"><title>Node6&#45;&gt;Node18</title>
<path fill="none" stroke="midnightblue" d="M475.724,-168.444C444.101,-158.741 392.641,-142.952 359.464,-132.773"/>
<polygon fill="midnightblue" stroke="midnightblue" points="360.383,-129.394 349.797,-129.807 358.33,-136.086 360.383,-129.394"/>
</g>
<!-- Node19 -->
<g id="node20" class="node"><title>Node19</title>
<polygon fill="white" stroke="#bfbfbf" points="825.612,-112.5 825.612,-131.5 893.612,-131.5 893.612,-112.5 825.612,-112.5"/>
<text text-anchor="middle" x="859.612" y="-119.5" font-family="Helvetica,sans-Serif" font-size="10.00">type_traits</text>
</g>
<!-- Node6&#45;&gt;Node19 -->
<g id="edge21" class="edge"><title>Node6&#45;&gt;Node19</title>
<path fill="none" stroke="midnightblue" d="M555.377,-169.148C625.486,-158.514 749.422,-139.714 815.397,-129.707"/>
<polygon fill="midnightblue" stroke="midnightblue" points="816.109,-133.139 825.471,-128.179 815.059,-126.218 816.109,-133.139"/>
</g>
<!-- Node8 -->
<g id="node9" class="node"><title>Node8</title>
<polygon fill="white" stroke="#bfbfbf" points="468.612,-56.5 468.612,-75.5 512.612,-75.5 512.612,-56.5 468.612,-56.5"/>
<text text-anchor="middle" x="490.612" y="-63.5" font-family="Helvetica,sans-Serif" font-size="10.00">bitset</text>
</g>
<!-- Node7&#45;&gt;Node8 -->
<g id="edge8" class="edge"><title>Node7&#45;&gt;Node8</title>
<path fill="none" stroke="midnightblue" d="M490.612,-112.083C490.612,-105.006 490.612,-94.8611 490.612,-85.9865"/>
<polygon fill="midnightblue" stroke="midnightblue" points="494.112,-85.751 490.612,-75.7511 487.112,-85.7511 494.112,-85.751"/>
</g>
<!-- Node10 -->
<g id="node11" class="node"><title>Node10</title>
<g id="a_node11"><a xlink:href="vec2_8h.html" target="_top" xlink:title="vec2.h">
<polygon fill="white" stroke="black" points="91.612,-56.5 91.612,-75.5 139.612,-75.5 139.612,-56.5 91.612,-56.5"/>
<text text-anchor="middle" x="115.612" y="-63.5" font-family="Helvetica,sans-Serif" font-size="10.00">vec2.h</text>
</a>
</g>
</g>
<!-- Node9&#45;&gt;Node10 -->
<g id="edge10" class="edge"><title>Node9&#45;&gt;Node10</title>
<path fill="none" stroke="midnightblue" d="M115.612,-112.083C115.612,-105.006 115.612,-94.8611 115.612,-85.9865"/>
<polygon fill="midnightblue" stroke="midnightblue" points="119.112,-85.751 115.612,-75.7511 112.112,-85.7511 119.112,-85.751"/>
</g>
<!-- Node9&#45;&gt;Node11 -->
<g id="edge13" class="edge"><title>Node9&#45;&gt;Node11</title>
<path fill="none" stroke="midnightblue" d="M123.438,-112.3C130.854,-103.65 141.836,-89.7257 148.612,-76 155.931,-61.1749 160.942,-43.0235 163.973,-29.6736"/>
<polygon fill="midnightblue" stroke="midnightblue" points="167.423,-30.2742 166.059,-19.7675 160.573,-28.8311 167.423,-30.2742"/>
</g>
<!-- Node12 -->
<g id="node13" class="node"><title>Node12</title>
<polygon fill="white" stroke="#bfbfbf" points="13.112,-56.5 13.112,-75.5 70.112,-75.5 70.112,-56.5 13.112,-56.5"/>
<text text-anchor="middle" x="41.612" y="-63.5" font-family="Helvetica,sans-Serif" font-size="10.00">ostream</text>
</g>
<!-- Node9&#45;&gt;Node12 -->
<g id="edge12" class="edge"><title>Node9&#45;&gt;Node12</title>
<path fill="none" stroke="midnightblue" d="M103.723,-112.324C92.4618,-104.107 75.3254,-91.6017 61.9029,-81.8069"/>
<polygon fill="midnightblue" stroke="midnightblue" points="63.8588,-78.9014 53.7177,-75.8339 59.7325,-84.5559 63.8588,-78.9014"/>
</g>
<!-- Node10&#45;&gt;Node11 -->
<g id="edge11" class="edge"><title>Node10&#45;&gt;Node11</title>
<path fill="none" stroke="midnightblue" d="M124.199,-56.083C131.771,-48.2195 142.99,-36.5688 152.126,-27.0813"/>
<polygon fill="midnightblue" stroke="midnightblue" points="154.77,-29.3821 159.185,-19.7511 149.727,-24.5266 154.77,-29.3821"/>
</g>
<!-- Node13&#45;&gt;Node11 -->
<g id="edge15" class="edge"><title>Node13&#45;&gt;Node11</title>
<path fill="none" stroke="midnightblue" d="M657.725,-112.446C630.636,-98.2679 573.405,-70.0706 521.612,-56 406.884,-24.8316 265.242,-15.1054 201.503,-12.1887"/>
<polygon fill="midnightblue" stroke="midnightblue" points="201.384,-8.68047 191.243,-11.7481 201.083,-15.674 201.384,-8.68047"/>
</g>
<!-- Node14 -->
<g id="node15" class="node"><title>Node14</title>
<polygon fill="white" stroke="#bfbfbf" points="338.612,-56.5 338.612,-75.5 380.612,-75.5 380.612,-56.5 338.612,-56.5"/>
<text text-anchor="middle" x="359.612" y="-63.5" font-family="Helvetica,sans-Serif" font-size="10.00">limits</text>
</g>
<!-- Node13&#45;&gt;Node14 -->
<g id="edge16" class="edge"><title>Node13&#45;&gt;Node14</title>
<path fill="none" stroke="midnightblue" d="M623.858,-112.444C558.523,-101.208 445.725,-81.8092 391.087,-72.4128"/>
<polygon fill="midnightblue" stroke="midnightblue" points="391.414,-68.9179 380.966,-70.6723 390.228,-75.8166 391.414,-68.9179"/>
</g>
<!-- Node13&#45;&gt;Node15 -->
<g id="edge17" class="edge"><title>Node13&#45;&gt;Node15</title>
<path fill="none" stroke="midnightblue" d="M718.93,-112.444C776.546,-101.565 874.688,-83.0346 926.039,-73.339"/>
<polygon fill="midnightblue" stroke="midnightblue" points="926.78,-76.7609 935.957,-71.4662 925.482,-69.8824 926.78,-76.7609"/>
</g>
<!-- Node22&#45;&gt;Node15 -->
<g id="edge28" class="edge"><title>Node22&#45;&gt;Node15</title>
<path fill="none" stroke="midnightblue" d="M1003.48,-224.313C994.894,-214.83 984.484,-201.633 978.612,-188 963.944,-153.943 960.443,-110.139 959.702,-85.6696"/>
<polygon fill="midnightblue" stroke="midnightblue" points="963.2,-85.5507 959.523,-75.6142 956.201,-85.6746 963.2,-85.5507"/>
</g>
<!-- Node22&#45;&gt;Node23 -->
<g id="edge29" class="edge"><title>Node22&#45;&gt;Node23</title>
<path fill="none" stroke="midnightblue" d="M1064.52,-224.475C1099.3,-214.075 1146.11,-200.078 1178.58,-190.372"/>
<polygon fill="midnightblue" stroke="midnightblue" points="1179.58,-193.724 1188.16,-187.506 1177.58,-187.018 1179.58,-193.724"/>
</g>
<!-- Node24 -->
<g id="node25" class="node"><title>Node24</title>
<polygon fill="white" stroke="#bfbfbf" points="988.112,-168.5 988.112,-187.5 1051.11,-187.5 1051.11,-168.5 988.112,-168.5"/>
<text text-anchor="middle" x="1019.61" y="-175.5" font-family="Helvetica,sans-Serif" font-size="10.00">functional</text>
</g>
<!-- Node22&#45;&gt;Node24 -->
<g id="edge30" class="edge"><title>Node22&#45;&gt;Node24</title>
<path fill="none" stroke="midnightblue" d="M1018.09,-224.399C1018.35,-216.466 1018.69,-206.458 1018.98,-197.858"/>
<polygon fill="midnightblue" stroke="midnightblue" points="1022.48,-197.77 1019.32,-187.658 1015.49,-197.535 1022.48,-197.77"/>
</g>
<!-- Node22&#45;&gt;Node25 -->
<g id="edge31" class="edge"><title>Node22&#45;&gt;Node25</title>
<path fill="none" stroke="midnightblue" d="M1037.28,-224.399C1050.21,-215.129 1067.1,-203.025 1080.18,-193.647"/>
<polygon fill="midnightblue" stroke="midnightblue" points="1082.45,-196.329 1088.53,-187.658 1078.37,-190.639 1082.45,-196.329"/>
</g>
<!-- Node27&#45;&gt;Node12 -->
<g id="edge56" class="edge"><title>Node27&#45;&gt;Node12</title>
<path fill="none" stroke="midnightblue" d="M101.838,-295.209C75.1819,-289.804 45.2153,-278.498 28.612,-255 -8.17421,-202.938 18.5669,-121.22 33.4427,-85.1475"/>
<polygon fill="midnightblue" stroke="midnightblue" points="36.8558,-86.0705 37.5949,-75.5014 30.4262,-83.3027 36.8558,-86.0705"/>
</g>
<!-- Node27&#45;&gt;Node15 -->
<g id="edge59" class="edge"><title>Node27&#45;&gt;Node15</title>
<path fill="none" stroke="midnightblue" d="M209.558,-298.424C342.845,-294.15 680.094,-280.886 723.612,-255 788.77,-216.241 756.236,-157.853 816.612,-112 849.014,-87.3922 895.168,-76.0577 926.196,-70.9619"/>
<polygon fill="midnightblue" stroke="midnightblue" points="926.733,-74.4205 936.096,-69.4627 925.685,-67.4994 926.733,-74.4205"/>
</g>
<!-- Node27&#45;&gt;Node18 -->
<g id="edge55" class="edge"><title>Node27&#45;&gt;Node18</title>
<path fill="none" stroke="midnightblue" d="M101.896,-293.291C78.063,-287.34 52.1648,-276.125 37.612,-255 29.7957,-243.654 30.723,-235.932 37.612,-224 89.6487,-133.872 230.947,-122.468 295.121,-122.134"/>
<polygon fill="midnightblue" stroke="midnightblue" points="295.438,-125.635 305.452,-122.174 295.466,-118.635 295.438,-125.635"/>
</g>
<!-- Node27&#45;&gt;Node26 -->
<g id="edge46" class="edge"><title>Node27&#45;&gt;Node26</title>
<path fill="none" stroke="midnightblue" d="M157.554,-291.298C161.913,-271.763 172.556,-224.065 178.473,-197.547"/>
<polygon fill="midnightblue" stroke="midnightblue" points="181.926,-198.145 180.688,-187.623 175.094,-196.621 181.926,-198.145"/>
</g>
<!-- Node28 -->
<g id="node29" class="node"><title>Node28</title>
<g id="a_node29"><a xlink:href="interval_8h.html" target="_top" xlink:title="base/interval.h">
<polygon fill="white" stroke="black" points="325.112,-230 325.112,-249 412.112,-249 412.112,-230 325.112,-230"/>
<text text-anchor="middle" x="368.612" y="-237" font-family="Helvetica,sans-Serif" font-size="10.00">base/interval.h</text>
</a>
</g>
</g>
<!-- Node27&#45;&gt;Node28 -->
<g id="edge47" class="edge"><title>Node27&#45;&gt;Node28</title>
<path fill="none" stroke="midnightblue" d="M186.13,-291.475C223.537,-281.026 287.039,-263.287 328.399,-251.733"/>
<polygon fill="midnightblue" stroke="midnightblue" points="329.461,-255.071 338.151,-249.009 327.578,-248.329 329.461,-255.071"/>
</g>
<!-- Node30 -->
<g id="node31" class="node"><title>Node30</title>
<polygon fill="white" stroke="#bfbfbf" points="46.612,-230 46.612,-249 84.612,-249 84.612,-230 46.612,-230"/>
<text text-anchor="middle" x="65.612" y="-237" font-family="Helvetica,sans-Serif" font-size="10.00">map</text>
</g>
<!-- Node27&#45;&gt;Node30 -->
<g id="edge57" class="edge"><title>Node27&#45;&gt;Node30</title>
<path fill="none" stroke="midnightblue" d="M142.717,-291.475C128.148,-281.843 104.21,-266.017 86.8666,-254.552"/>
<polygon fill="midnightblue" stroke="midnightblue" points="88.7549,-251.604 78.4829,-249.009 84.8945,-257.444 88.7549,-251.604"/>
</g>
<!-- Node31 -->
<g id="node32" class="node"><title>Node31</title>
<polygon fill="white" stroke="#bfbfbf" points="102.612,-230 102.612,-249 154.612,-249 154.612,-230 102.612,-230"/>
<text text-anchor="middle" x="128.612" y="-237" font-family="Helvetica,sans-Serif" font-size="10.00">iterator</text>
</g>
<!-- Node27&#45;&gt;Node31 -->
<g id="edge58" class="edge"><title>Node27&#45;&gt;Node31</title>
<path fill="none" stroke="midnightblue" d="M151.744,-291.475C147.814,-282.815 141.612,-269.149 136.619,-258.145"/>
<polygon fill="midnightblue" stroke="midnightblue" points="139.793,-256.669 132.473,-249.009 133.418,-259.562 139.793,-256.669"/>
</g>
<!-- Node28&#45;&gt;Node11 -->
<g id="edge54" class="edge"><title>Node28&#45;&gt;Node11</title>
<path fill="none" stroke="midnightblue" d="M341.816,-229.871C320.048,-221.796 289.618,-207.963 268.612,-188 219.089,-140.936 186.811,-64.1647 173.938,-29.281"/>
<polygon fill="midnightblue" stroke="midnightblue" points="177.109,-27.7533 170.444,-19.5177 170.519,-30.1123 177.109,-27.7533"/>
</g>
<!-- Node28&#45;&gt;Node14 -->
<g id="edge51" class="edge"><title>Node28&#45;&gt;Node14</title>
<path fill="none" stroke="midnightblue" d="M366.434,-229.569C362.686,-215.472 353.998,-187.648 339.612,-168 324.887,-147.89 307.158,-154.583 296.612,-132 286.707,-110.79 309.658,-92.2556 330.584,-80.4645"/>
<polygon fill="midnightblue" stroke="midnightblue" points="332.421,-83.4524 339.627,-75.686 329.15,-77.2632 332.421,-83.4524"/>
</g>
<!-- Node28&#45;&gt;Node17 -->
<g id="edge50" class="edge"><title>Node28&#45;&gt;Node17</title>
<path fill="none" stroke="midnightblue" d="M370.942,-229.819C375.946,-211.173 387.818,-166.943 394.611,-141.632"/>
<polygon fill="midnightblue" stroke="midnightblue" points="398.043,-142.347 397.255,-131.782 391.282,-140.533 398.043,-142.347"/>
</g>
<!-- Node28&#45;&gt;Node21 -->
<g id="edge53" class="edge"><title>Node28&#45;&gt;Node21</title>
<path fill="none" stroke="midnightblue" d="M404.431,-229.975C451.223,-218.839 532.803,-199.422 580.636,-188.038"/>
<polygon fill="midnightblue" stroke="midnightblue" points="581.676,-191.389 590.594,-185.668 580.055,-184.579 581.676,-191.389"/>
</g>
<!-- Node28&#45;&gt;Node25 -->
<g id="edge49" class="edge"><title>Node28&#45;&gt;Node25</title>
<path fill="none" stroke="midnightblue" d="M412.254,-235.395C552.213,-225.427 984.576,-194.551 1059.36,-187.437"/>
<polygon fill="midnightblue" stroke="midnightblue" points="1059.8,-190.91 1069.36,-186.344 1059.04,-183.951 1059.8,-190.91"/>
</g>
<!-- Node28&#45;&gt;Node26 -->
<g id="edge48" class="edge"><title>Node28&#45;&gt;Node26</title>
<path fill="none" stroke="midnightblue" d="M341.963,-229.975C309.643,-219.636 255.015,-202.161 218.879,-190.602"/>
<polygon fill="midnightblue" stroke="midnightblue" points="219.803,-187.222 209.212,-187.509 217.67,-193.89 219.803,-187.222"/>
</g>
<!-- Node29 -->
<g id="node30" class="node"><title>Node29</title>
<polygon fill="white" stroke="#bfbfbf" points="278.112,-168.5 278.112,-187.5 331.112,-187.5 331.112,-168.5 278.112,-168.5"/>
<text text-anchor="middle" x="304.612" y="-175.5" font-family="Helvetica,sans-Serif" font-size="10.00">istream</text>
</g>
<!-- Node28&#45;&gt;Node29 -->
<g id="edge52" class="edge"><title>Node28&#45;&gt;Node29</title>
<path fill="none" stroke="midnightblue" d="M359.442,-229.975C349.462,-220.697 333.3,-205.671 321.103,-194.331"/>
<polygon fill="midnightblue" stroke="midnightblue" points="323.472,-191.755 313.765,-187.509 318.705,-196.881 323.472,-191.755"/>
</g>
<!-- Node32&#45;&gt;Node15 -->
<g id="edge67" class="edge"><title>Node32&#45;&gt;Node15</title>
<path fill="none" stroke="midnightblue" d="M1389.44,-229.832C1380.22,-215.088 1359.55,-185.066 1334.61,-168 1225.55,-93.3535 1063.65,-73.8048 993.768,-68.7421"/>
<polygon fill="midnightblue" stroke="midnightblue" points="993.575,-65.2215 983.364,-68.0477 993.109,-72.2059 993.575,-65.2215"/>
</g>
<!-- Node32&#45;&gt;Node19 -->
<g id="edge71" class="edge"><title>Node32&#45;&gt;Node19</title>
<path fill="none" stroke="midnightblue" d="M1386.51,-229.669C1371.61,-214.102 1338.15,-182.094 1302.61,-168 1230.85,-139.542 1001.42,-128.098 904.021,-124.442"/>
<polygon fill="midnightblue" stroke="midnightblue" points="904.035,-120.94 893.914,-124.073 903.78,-127.936 904.035,-120.94"/>
</g>
<!-- Node32&#45;&gt;Node23 -->
<g id="edge65" class="edge"><title>Node32&#45;&gt;Node23</title>
<path fill="none" stroke="midnightblue" d="M1369.11,-229.975C1338.31,-219.68 1286.35,-202.31 1251.76,-190.75"/>
<polygon fill="midnightblue" stroke="midnightblue" points="1252.66,-187.36 1242.07,-187.509 1250.44,-193.999 1252.66,-187.36"/>
</g>
<!-- Node32&#45;&gt;Node25 -->
<g id="edge68" class="edge"><title>Node32&#45;&gt;Node25</title>
<path fill="none" stroke="midnightblue" d="M1358.86,-231.264C1304,-220.161 1199.36,-198.986 1141.55,-187.284"/>
<polygon fill="midnightblue" stroke="midnightblue" points="1142.16,-183.837 1131.66,-185.284 1140.77,-190.698 1142.16,-183.837"/>
</g>
<!-- Node33 -->
<g id="node34" class="node"><title>Node33</title>
<polygon fill="white" stroke="#bfbfbf" points="1388.11,-168.5 1388.11,-187.5 1491.11,-187.5 1491.11,-168.5 1388.11,-168.5"/>
<text text-anchor="middle" x="1439.61" y="-175.5" font-family="Helvetica,sans-Serif" font-size="10.00">cereal/access.hpp</text>
</g>
<!-- Node32&#45;&gt;Node33 -->
<g id="edge61" class="edge"><title>Node32&#45;&gt;Node33</title>
<path fill="none" stroke="midnightblue" d="M1401.06,-229.975C1407.81,-221.05 1418.58,-206.807 1427.03,-195.643"/>
<polygon fill="midnightblue" stroke="midnightblue" points="1429.94,-197.596 1433.18,-187.509 1424.35,-193.374 1429.94,-197.596"/>
</g>
<!-- Node34 -->
<g id="node35" class="node"><title>Node34</title>
<g id="a_node35"><a xlink:href="variadic_8h.html" target="_top" xlink:title="std_ext/variadic.h">
<polygon fill="white" stroke="black" points="1654.11,-168.5 1654.11,-187.5 1755.11,-187.5 1755.11,-168.5 1654.11,-168.5"/>
<text text-anchor="middle" x="1704.61" y="-175.5" font-family="Helvetica,sans-Serif" font-size="10.00">std_ext/variadic.h</text>
</a>
</g>
</g>
<!-- Node32&#45;&gt;Node34 -->
<g id="edge62" class="edge"><title>Node32&#45;&gt;Node34</title>
<path fill="none" stroke="midnightblue" d="M1430.17,-231.675C1484.03,-221.337 1586.7,-201.631 1650.06,-189.471"/>
<polygon fill="midnightblue" stroke="midnightblue" points="1651.09,-192.836 1660.26,-187.514 1649.78,-185.961 1651.09,-192.836"/>
</g>
<!-- Node32&#45;&gt;Node37 -->
<g id="edge66" class="edge"><title>Node32&#45;&gt;Node37</title>
<path fill="none" stroke="midnightblue" d="M1377.99,-229.975C1358.26,-219.853 1325.19,-202.891 1302.66,-191.337"/>
<polygon fill="midnightblue" stroke="midnightblue" points="1304.22,-188.202 1293.72,-186.752 1301.03,-194.43 1304.22,-188.202"/>
</g>
<!-- Node38 -->
<g id="node39" class="node"><title>Node38</title>
<polygon fill="white" stroke="#bfbfbf" points="1509.61,-168.5 1509.61,-187.5 1561.61,-187.5 1561.61,-168.5 1509.61,-168.5"/>
<text text-anchor="middle" x="1535.61" y="-175.5" font-family="Helvetica,sans-Serif" font-size="10.00">cassert</text>
</g>
<!-- Node32&#45;&gt;Node38 -->
<g id="edge69" class="edge"><title>Node32&#45;&gt;Node38</title>
<path fill="none" stroke="midnightblue" d="M1414.81,-229.975C1438.69,-219.901 1478.61,-203.053 1505.98,-191.502"/>
<polygon fill="midnightblue" stroke="midnightblue" points="1507.6,-194.622 1515.45,-187.509 1504.87,-188.172 1507.6,-194.622"/>
</g>
<!-- Node39 -->
<g id="node40" class="node"><title>Node39</title>
<polygon fill="white" stroke="#bfbfbf" points="1579.61,-168.5 1579.61,-187.5 1635.61,-187.5 1635.61,-168.5 1579.61,-168.5"/>
<text text-anchor="middle" x="1607.61" y="-175.5" font-family="Helvetica,sans-Serif" font-size="10.00">numeric</text>
</g>
<!-- Node32&#45;&gt;Node39 -->
<g id="edge70" class="edge"><title>Node32&#45;&gt;Node39</title>
<path fill="none" stroke="midnightblue" d="M1425.13,-229.975C1463.28,-219.318 1528.57,-201.078 1569.84,-189.551"/>
<polygon fill="midnightblue" stroke="midnightblue" points="1570.84,-192.906 1579.53,-186.845 1568.96,-186.165 1570.84,-192.906"/>
</g>
<!-- Node35 -->
<g id="node36" class="node"><title>Node35</title>
<polygon fill="white" stroke="#bfbfbf" points="1628.61,-112.5 1628.61,-131.5 1680.61,-131.5 1680.61,-112.5 1628.61,-112.5"/>
<text text-anchor="middle" x="1654.61" y="-119.5" font-family="Helvetica,sans-Serif" font-size="10.00">cstddef</text>
</g>
<!-- Node34&#45;&gt;Node35 -->
<g id="edge63" class="edge"><title>Node34&#45;&gt;Node35</title>
<path fill="none" stroke="midnightblue" d="M1696.36,-168.083C1689.15,-160.298 1678.5,-148.801 1669.77,-139.367"/>
<polygon fill="midnightblue" stroke="midnightblue" points="1672.08,-136.711 1662.71,-131.751 1666.94,-141.467 1672.08,-136.711"/>
</g>
<!-- Node36 -->
<g id="node37" class="node"><title>Node36</title>
<polygon fill="white" stroke="#bfbfbf" points="1699.11,-112.5 1699.11,-131.5 1740.11,-131.5 1740.11,-112.5 1699.11,-112.5"/>
<text text-anchor="middle" x="1719.61" y="-119.5" font-family="Helvetica,sans-Serif" font-size="10.00">tuple</text>
</g>
<!-- Node34&#45;&gt;Node36 -->
<g id="edge64" class="edge"><title>Node34&#45;&gt;Node36</title>
<path fill="none" stroke="midnightblue" d="M1707.09,-168.083C1709.1,-160.849 1712,-150.409 1714.5,-141.397"/>
<polygon fill="midnightblue" stroke="midnightblue" points="1717.88,-142.323 1717.18,-131.751 1711.13,-140.449 1717.88,-142.323"/>
</g>
<!-- Node40&#45;&gt;Node9 -->
<g id="edge73" class="edge"><title>Node40&#45;&gt;Node9</title>
<path fill="none" stroke="midnightblue" d="M143.72,-347.395C110.174,-333.797 50.7374,-303.759 28.612,-255 7.77494,-209.08 61.6575,-161.083 93.7423,-137.642"/>
<polygon fill="midnightblue" stroke="midnightblue" points="95.9926,-140.338 102.134,-131.704 91.949,-134.624 95.9926,-140.338"/>
</g>
</g>
</svg>
