<?xml version="1.0" encoding="UTF-8" standalone="no"?>
<!DOCTYPE svg PUBLIC "-//W3C//DTD SVG 1.1//EN"
 "http://www.w3.org/Graphics/SVG/1.1/DTD/svg11.dtd">
<!-- Generated by graphviz version 2.38.0 (20140413.2041)
 -->
<!-- Title: src/calibration/fitfunctions/FitGausPol3.h Pages: 1 -->
<svg width="2280pt" height="117pt"
 viewBox="0.00 0.00 2279.50 117.00" xmlns="http://www.w3.org/2000/svg" xmlns:xlink="http://www.w3.org/1999/xlink">
<g id="graph0" class="graph" transform="scale(1 1) rotate(0) translate(4 113)">
<title>src/calibration/fitfunctions/FitGausPol3.h</title>
<polygon fill="white" stroke="none" points="-4,4 -4,-113 2275.5,-113 2275.5,4 -4,4"/>
<!-- Node18 -->
<g id="node1" class="node"><title>Node18</title>
<polygon fill="#bfbfbf" stroke="black" points="1083,-78.5 1083,-108.5 1222,-108.5 1222,-78.5 1083,-78.5"/>
<text text-anchor="start" x="1091" y="-96.5" font-family="Helvetica,sans-Serif" font-size="10.00">src/calibration/fitfunctions</text>
<text text-anchor="middle" x="1152.5" y="-85.5" font-family="Helvetica,sans-Serif" font-size="10.00">/FitGausPol3.h</text>
</g>
<!-- Node19 -->
<g id="node2" class="node"><title>Node19</title>
<g id="a_node2"><a xlink:href="_fit_gaus_pol3_8cc.html" target="_top" xlink:title="src/calibration/fitfunctions\l/FitGausPol3.cc">
<polygon fill="white" stroke="black" points="0,-6 0,-36 139,-36 139,-6 0,-6"/>
<text text-anchor="start" x="8" y="-24" font-family="Helvetica,sans-Serif" font-size="10.00">src/calibration/fitfunctions</text>
<text text-anchor="middle" x="69.5" y="-13" font-family="Helvetica,sans-Serif" font-size="10.00">/FitGausPol3.cc</text>
</a>
</g>
</g>
<!-- Node18&#45;&gt;Node19 -->
<g id="edge1" class="edge"><title>Node18&#45;&gt;Node19</title>
<path fill="none" stroke="midnightblue" d="M1072.6,-90.5214C867.521,-85.1151 326.18,-68.6912 148.5,-42 138.706,-40.5288 128.362,-38.3668 118.5,-36.0018"/>
<polygon fill="midnightblue" stroke="midnightblue" points="1072.61,-94.0227 1082.7,-90.7857 1072.8,-87.0251 1072.61,-94.0227"/>
</g>
<!-- Node20 -->
<g id="node3" class="node"><title>Node20</title>
<g id="a_node3"><a xlink:href="calibration_2modules_2_c_b___energy_8cc.html" target="_top" xlink:title="src/calibration/modules\l/CB_Energy.cc">
<polygon fill="white" stroke="black" points="157.5,-6 157.5,-36 285.5,-36 285.5,-6 157.5,-6"/>
<text text-anchor="start" x="165.5" y="-24" font-family="Helvetica,sans-Serif" font-size="10.00">src/calibration/modules</text>
<text text-anchor="middle" x="221.5" y="-13" font-family="Helvetica,sans-Serif" font-size="10.00">/CB_Energy.cc</text>
</a>
</g>
</g>
<!-- Node18&#45;&gt;Node20 -->
<g id="edge2" class="edge"><title>Node18&#45;&gt;Node20</title>
<path fill="none" stroke="midnightblue" d="M1072.52,-93.3295C920.082,-93.6906 577.86,-88.6303 294.5,-42 285.553,-40.5277 276.126,-38.3961 267.128,-36.0676"/>
<polygon fill="midnightblue" stroke="midnightblue" points="1072.74,-96.8289 1082.73,-93.2965 1072.71,-89.829 1072.74,-96.8289"/>
</g>
<!-- Node21 -->
<g id="node4" class="node"><title>Node21</title>
<g id="a_node4"><a xlink:href="calibration_2modules_2_t_a_p_s___energy_8cc.html" target="_top" xlink:title="src/calibration/modules\l/TAPS_Energy.cc">
<polygon fill="white" stroke="black" points="303.5,-6 303.5,-36 431.5,-36 431.5,-6 303.5,-6"/>
<text text-anchor="start" x="311.5" y="-24" font-family="Helvetica,sans-Serif" font-size="10.00">src/calibration/modules</text>
<text text-anchor="middle" x="367.5" y="-13" font-family="Helvetica,sans-Serif" font-size="10.00">/TAPS_Energy.cc</text>
</a>
</g>
</g>
<!-- Node18&#45;&gt;Node21 -->
<g id="edge3" class="edge"><title>Node18&#45;&gt;Node21</title>
<path fill="none" stroke="midnightblue" d="M1072.93,-91.94C940.697,-89.8765 667.741,-80.7992 440.5,-42 431.692,-40.4961 422.412,-38.38 413.533,-36.0831"/>
<polygon fill="midnightblue" stroke="midnightblue" points="1072.93,-95.4402 1082.98,-92.0874 1073.03,-88.4409 1072.93,-95.4402"/>
</g>
<!-- Node22 -->
<g id="node5" class="node"><title>Node22</title>
<g id="a_node5"><a xlink:href="_setup__2007___base_8cc.html" target="_top" xlink:title="src/expconfig/setups\l/Setup_2007_Base.cc">
<polygon fill="white" stroke="black" points="449.5,-6 449.5,-36 569.5,-36 569.5,-6 449.5,-6"/>
<text text-anchor="start" x="457.5" y="-24" font-family="Helvetica,sans-Serif" font-size="10.00">src/expconfig/setups</text>
<text text-anchor="middle" x="509.5" y="-13" font-family="Helvetica,sans-Serif" font-size="10.00">/Setup_2007_Base.cc</text>
</a>
</g>
</g>
<!-- Node18&#45;&gt;Node22 -->
<g id="edge4" class="edge"><title>Node18&#45;&gt;Node22</title>
<path fill="none" stroke="midnightblue" d="M1072.84,-90.3747C961.396,-86.2974 753,-74.6447 578.5,-42 570.286,-40.4634 561.645,-38.3611 553.364,-36.0946"/>
<polygon fill="midnightblue" stroke="midnightblue" points="1072.87,-93.878 1082.99,-90.7349 1073.12,-86.8824 1072.87,-93.878"/>
</g>
<!-- Node23 -->
<g id="node6" class="node"><title>Node23</title>
<g id="a_node6"><a xlink:href="_setup__2010__03___base_8cc.html" target="_top" xlink:title="src/expconfig/setups\l/Setup_2010_03_Base.cc">
<polygon fill="white" stroke="black" points="588,-6 588,-36 725,-36 725,-6 588,-6"/>
<text text-anchor="start" x="596" y="-24" font-family="Helvetica,sans-Serif" font-size="10.00">src/expconfig/setups</text>
<text text-anchor="middle" x="656.5" y="-13" font-family="Helvetica,sans-Serif" font-size="10.00">/Setup_2010_03_Base.cc</text>
</a>
</g>
</g>
<!-- Node18&#45;&gt;Node23 -->
<g id="edge5" class="edge"><title>Node18&#45;&gt;Node23</title>
<path fill="none" stroke="midnightblue" d="M1072.68,-86.0905C988.016,-78.5445 850.586,-64.1583 733.5,-42 724.815,-40.3563 715.66,-38.2845 706.812,-36.1013"/>
<polygon fill="midnightblue" stroke="midnightblue" points="1072.47,-89.5855 1082.74,-86.9769 1073.09,-82.6125 1072.47,-89.5855"/>
</g>
<!-- Node24 -->
<g id="node7" class="node"><title>Node24</title>
<g id="a_node7"><a xlink:href="_setup__2014___e_p_t_8cc.html" target="_top" xlink:title="src/expconfig/setups\l/Setup_2014_EPT.cc">
<polygon fill="white" stroke="black" points="743,-6 743,-36 858,-36 858,-6 743,-6"/>
<text text-anchor="start" x="751" y="-24" font-family="Helvetica,sans-Serif" font-size="10.00">src/expconfig/setups</text>
<text text-anchor="middle" x="800.5" y="-13" font-family="Helvetica,sans-Serif" font-size="10.00">/Setup_2014_EPT.cc</text>
</a>
</g>
</g>
<!-- Node18&#45;&gt;Node24 -->
<g id="edge6" class="edge"><title>Node18&#45;&gt;Node24</title>
<path fill="none" stroke="midnightblue" d="M1072.83,-80.8921C1015.4,-71.9159 936.227,-58.2901 867.5,-42 860.177,-40.2642 852.471,-38.1961 844.997,-36.0584"/>
<polygon fill="midnightblue" stroke="midnightblue" points="1072.52,-84.3849 1082.94,-82.4582 1073.59,-77.4675 1072.52,-84.3849"/>
</g>
<!-- Node25 -->
<g id="node8" class="node"><title>Node25</title>
<g id="a_node8"><a xlink:href="_setup__2015__01___pion_8cc.html" target="_top" xlink:title="src/expconfig/setups\l/Setup_2015_01_Pion.cc">
<polygon fill="white" stroke="black" points="876.5,-6 876.5,-36 1010.5,-36 1010.5,-6 876.5,-6"/>
<text text-anchor="start" x="884.5" y="-24" font-family="Helvetica,sans-Serif" font-size="10.00">src/expconfig/setups</text>
<text text-anchor="middle" x="943.5" y="-13" font-family="Helvetica,sans-Serif" font-size="10.00">/Setup_2015_01_Pion.cc</text>
</a>
</g>
</g>
<!-- Node18&#45;&gt;Node25 -->
<g id="edge7" class="edge"><title>Node18&#45;&gt;Node25</title>
<path fill="none" stroke="midnightblue" d="M1101.23,-75.2046C1065.59,-63.1843 1018.69,-47.3642 985.32,-36.1069"/>
<polygon fill="midnightblue" stroke="midnightblue" points="1100.36,-78.6073 1110.96,-78.4872 1102.6,-71.9744 1100.36,-78.6073"/>
</g>
<!-- Node26 -->
<g id="node9" class="node"><title>Node26</title>
<g id="a_node9"><a xlink:href="_setup__2017__03_8cc.html" target="_top" xlink:title="src/expconfig/setups\l/Setup_2017_03.cc">
<polygon fill="white" stroke="black" points="1029,-6 1029,-36 1144,-36 1144,-6 1029,-6"/>
<text text-anchor="start" x="1037" y="-24" font-family="Helvetica,sans-Serif" font-size="10.00">src/expconfig/setups</text>
<text text-anchor="middle" x="1086.5" y="-13" font-family="Helvetica,sans-Serif" font-size="10.00">/Setup_2017_03.cc</text>
</a>
</g>
</g>
<!-- Node18&#45;&gt;Node26 -->
<g id="edge8" class="edge"><title>Node18&#45;&gt;Node26</title>
<path fill="none" stroke="midnightblue" d="M1132.25,-70.8641C1121.71,-59.6142 1109.14,-46.1786 1099.84,-36.2455"/>
<polygon fill="midnightblue" stroke="midnightblue" points="1129.75,-73.325 1139.14,-78.2333 1134.86,-68.541 1129.75,-73.325"/>
</g>
<!-- Node27 -->
<g id="node10" class="node"><title>Node27</title>
<g id="a_node10"><a xlink:href="_setup__2017__05_8cc.html" target="_top" xlink:title="src/expconfig/setups\l/Setup_2017_05.cc">
<polygon fill="white" stroke="black" points="1162,-6 1162,-36 1277,-36 1277,-6 1162,-6"/>
<text text-anchor="start" x="1170" y="-24" font-family="Helvetica,sans-Serif" font-size="10.00">src/expconfig/setups</text>
<text text-anchor="middle" x="1219.5" y="-13" font-family="Helvetica,sans-Serif" font-size="10.00">/Setup_2017_05.cc</text>
</a>
</g>
</g>
<!-- Node18&#45;&gt;Node27 -->
<g id="edge9" class="edge"><title>Node18&#45;&gt;Node27</title>
<path fill="none" stroke="midnightblue" d="M1173.06,-70.8641C1183.75,-59.6142 1196.52,-46.1786 1205.96,-36.2455"/>
<polygon fill="midnightblue" stroke="midnightblue" points="1170.41,-68.5734 1166.06,-78.2333 1175.48,-73.3956 1170.41,-68.5734"/>
</g>
<!-- Node28 -->
<g id="node11" class="node"><title>Node28</title>
<g id="a_node11"><a xlink:href="_setup__2017_plus___new_tagger___base_8cc.html" target="_top" xlink:title="src/expconfig/setups\l/Setup_2017Plus_NewTagger\l_Base.cc">
<polygon fill="white" stroke="black" points="1295.5,-0.5 1295.5,-41.5 1449.5,-41.5 1449.5,-0.5 1295.5,-0.5"/>
<text text-anchor="start" x="1303.5" y="-29.5" font-family="Helvetica,sans-Serif" font-size="10.00">src/expconfig/setups</text>
<text text-anchor="start" x="1303.5" y="-18.5" font-family="Helvetica,sans-Serif" font-size="10.00">/Setup_2017Plus_NewTagger</text>
<text text-anchor="middle" x="1372.5" y="-7.5" font-family="Helvetica,sans-Serif" font-size="10.00">_Base.cc</text>
</a>
</g>
</g>
<!-- Node18&#45;&gt;Node28 -->
<g id="edge10" class="edge"><title>Node18&#45;&gt;Node28</title>
<path fill="none" stroke="midnightblue" d="M1205.81,-75.4157C1237.66,-65.2111 1278.22,-52.2117 1311.36,-41.5919"/>
<polygon fill="midnightblue" stroke="midnightblue" points="1204.68,-72.1024 1196.23,-78.4872 1206.82,-78.7685 1204.68,-72.1024"/>
</g>
<!-- Node29 -->
<g id="node12" class="node"><title>Node29</title>
<g id="a_node12"><a xlink:href="_setup__2018__11_8cc.html" target="_top" xlink:title="src/expconfig/setups\l/Setup_2018_11.cc">
<polygon fill="white" stroke="black" points="1468,-6 1468,-36 1583,-36 1583,-6 1468,-6"/>
<text text-anchor="start" x="1476" y="-24" font-family="Helvetica,sans-Serif" font-size="10.00">src/expconfig/setups</text>
<text text-anchor="middle" x="1525.5" y="-13" font-family="Helvetica,sans-Serif" font-size="10.00">/Setup_2018_11.cc</text>
</a>
</g>
</g>
<!-- Node18&#45;&gt;Node29 -->
<g id="edge11" class="edge"><title>Node18&#45;&gt;Node29</title>
<path fill="none" stroke="midnightblue" d="M1232.38,-82.1409C1294.44,-73.4136 1382.46,-59.549 1458.5,-42 1465.95,-40.2802 1473.79,-38.1956 1481.38,-36.0299"/>
<polygon fill="midnightblue" stroke="midnightblue" points="1231.68,-78.7039 1222.26,-83.5504 1232.65,-85.637 1231.68,-78.7039"/>
</g>
<!-- Node30 -->
<g id="node13" class="node"><title>Node30</title>
<g id="a_node13"><a xlink:href="_setup__2019__01_8cc.html" target="_top" xlink:title="src/expconfig/setups\l/Setup_2019_01.cc">
<polygon fill="white" stroke="black" points="1601,-6 1601,-36 1716,-36 1716,-6 1601,-6"/>
<text text-anchor="start" x="1609" y="-24" font-family="Helvetica,sans-Serif" font-size="10.00">src/expconfig/setups</text>
<text text-anchor="middle" x="1658.5" y="-13" font-family="Helvetica,sans-Serif" font-size="10.00">/Setup_2019_01.cc</text>
</a>
</g>
</g>
<!-- Node18&#45;&gt;Node30 -->
<g id="edge12" class="edge"><title>Node18&#45;&gt;Node30</title>
<path fill="none" stroke="midnightblue" d="M1232.07,-87.6918C1320.72,-81.3355 1467.98,-67.7924 1592.5,-42 1600.24,-40.3972 1608.37,-38.2914 1616.19,-36.0487"/>
<polygon fill="midnightblue" stroke="midnightblue" points="1231.81,-84.201 1222.08,-88.395 1232.3,-91.1837 1231.81,-84.201"/>
</g>
<!-- Node31 -->
<g id="node14" class="node"><title>Node31</title>
<g id="a_node14"><a xlink:href="_setup__2019__06_8cc.html" target="_top" xlink:title="src/expconfig/setups\l/Setup_2019_06.cc">
<polygon fill="white" stroke="black" points="1734,-6 1734,-36 1849,-36 1849,-6 1734,-6"/>
<text text-anchor="start" x="1742" y="-24" font-family="Helvetica,sans-Serif" font-size="10.00">src/expconfig/setups</text>
<text text-anchor="middle" x="1791.5" y="-13" font-family="Helvetica,sans-Serif" font-size="10.00">/Setup_2019_06.cc</text>
</a>
</g>
</g>
<!-- Node18&#45;&gt;Node31 -->
<g id="edge13" class="edge"><title>Node18&#45;&gt;Node31</title>
<path fill="none" stroke="midnightblue" d="M1232.53,-90.6448C1343.96,-86.887 1551.74,-75.6098 1725.5,-42 1733.49,-40.4538 1741.9,-38.3179 1749.93,-36.0147"/>
<polygon fill="midnightblue" stroke="midnightblue" points="1232.26,-87.1517 1222.38,-90.9753 1232.49,-94.148 1232.26,-87.1517"/>
</g>
<!-- Node32 -->
<g id="node15" class="node"><title>Node32</title>
<g id="a_node15"><a xlink:href="_setup__2019__07_8cc.html" target="_top" xlink:title="src/expconfig/setups\l/Setup_2019_07.cc">
<polygon fill="white" stroke="black" points="1867,-6 1867,-36 1982,-36 1982,-6 1867,-6"/>
<text text-anchor="start" x="1875" y="-24" font-family="Helvetica,sans-Serif" font-size="10.00">src/expconfig/setups</text>
<text text-anchor="middle" x="1924.5" y="-13" font-family="Helvetica,sans-Serif" font-size="10.00">/Setup_2019_07.cc</text>
</a>
</g>
</g>
<!-- Node18&#45;&gt;Node32 -->
<g id="edge14" class="edge"><title>Node18&#45;&gt;Node32</title>
<path fill="none" stroke="midnightblue" d="M1232.43,-92.5505C1364.06,-91.3493 1634.23,-83.4639 1858.5,-42 1866.62,-40.4981 1875.16,-38.3528 1883.3,-36.0202"/>
<polygon fill="midnightblue" stroke="midnightblue" points="1232.02,-89.0536 1222.04,-92.6339 1232.07,-96.0534 1232.02,-89.0536"/>
</g>
<!-- Node33 -->
<g id="node16" class="node"><title>Node33</title>
<g id="a_node16"><a xlink:href="_setup__2019__09_8cc.html" target="_top" xlink:title="src/expconfig/setups\l/Setup_2019_09.cc">
<polygon fill="white" stroke="black" points="2000,-6 2000,-36 2115,-36 2115,-6 2000,-6"/>
<text text-anchor="start" x="2008" y="-24" font-family="Helvetica,sans-Serif" font-size="10.00">src/expconfig/setups</text>
<text text-anchor="middle" x="2057.5" y="-13" font-family="Helvetica,sans-Serif" font-size="10.00">/Setup_2019_09.cc</text>
</a>
</g>
</g>
<!-- Node18&#45;&gt;Node33 -->
<g id="edge15" class="edge"><title>Node18&#45;&gt;Node33</title>
<path fill="none" stroke="midnightblue" d="M1232.45,-90.0749C1412.9,-84.2139 1847.25,-67.8285 1991.5,-42 1999.63,-40.5439 2008.17,-38.4198 2016.32,-36.0936"/>
<polygon fill="midnightblue" stroke="midnightblue" points="1232.11,-86.5838 1222.23,-90.4043 1232.34,-93.5801 1232.11,-86.5838"/>
</g>
<!-- Node34 -->
<g id="node17" class="node"><title>Node34</title>
<g id="a_node17"><a xlink:href="expconfig__helpers_8cc.html" target="_top" xlink:title="test/expconfig_helpers.cc">
<polygon fill="white" stroke="black" points="2133.5,-11.5 2133.5,-30.5 2271.5,-30.5 2271.5,-11.5 2133.5,-11.5"/>
<text text-anchor="middle" x="2202.5" y="-18.5" font-family="Helvetica,sans-Serif" font-size="10.00">test/expconfig_helpers.cc</text>
</a>
</g>
</g>
<!-- Node18&#45;&gt;Node34 -->
<g id="edge16" class="edge"><title>Node18&#45;&gt;Node34</title>
<path fill="none" stroke="midnightblue" d="M1232.3,-90.4021C1432.68,-84.8049 1953.23,-68.1398 2124.5,-42 2141.36,-39.4268 2159.87,-34.7639 2174.62,-30.5875"/>
<polygon fill="midnightblue" stroke="midnightblue" points="1232.04,-86.9079 1222.14,-90.684 1232.23,-93.9052 1232.04,-86.9079"/>
</g>
</g>
</svg>
