<?xml version="1.0" encoding="UTF-8" standalone="no"?>
<!DOCTYPE svg PUBLIC "-//W3C//DTD SVG 1.1//EN"
 "http://www.w3.org/Graphics/SVG/1.1/DTD/svg11.dtd">
<!-- Generated by graphviz version 2.38.0 (20140413.2041)
 -->
<!-- Title: src/calibration/fitfunctions/FitGausexpo.h Pages: 1 -->
<svg width="294pt" height="106pt"
 viewBox="0.00 0.00 293.50 106.00" xmlns="http://www.w3.org/2000/svg" xmlns:xlink="http://www.w3.org/1999/xlink">
<g id="graph0" class="graph" transform="scale(1 1) rotate(0) translate(4 102)">
<title>src/calibration/fitfunctions/FitGausexpo.h</title>
<polygon fill="white" stroke="none" points="-4,4 -4,-102 289.5,-102 289.5,4 -4,4"/>
<!-- Node19 -->
<g id="node1" class="node"><title>Node19</title>
<polygon fill="#bfbfbf" stroke="black" points="76,-67.5 76,-97.5 215,-97.5 215,-67.5 76,-67.5"/>
<text text-anchor="start" x="84" y="-85.5" font-family="Helvetica,sans-Serif" font-size="10.00">src/calibration/fitfunctions</text>
<text text-anchor="middle" x="145.5" y="-74.5" font-family="Helvetica,sans-Serif" font-size="10.00">/FitGausexpo.h</text>
</g>
<!-- Node20 -->
<g id="node2" class="node"><title>Node20</title>
<g id="a_node2"><a xlink:href="_fit_gausexpo_8cc.html" target="_top" xlink:title="src/calibration/fitfunctions\l/FitGausexpo.cc">
<polygon fill="white" stroke="black" points="0,-0.5 0,-30.5 139,-30.5 139,-0.5 0,-0.5"/>
<text text-anchor="start" x="8" y="-18.5" font-family="Helvetica,sans-Serif" font-size="10.00">src/calibration/fitfunctions</text>
<text text-anchor="middle" x="69.5" y="-7.5" font-family="Helvetica,sans-Serif" font-size="10.00">/FitGausexpo.cc</text>
</a>
</g>
</g>
<!-- Node19&#45;&gt;Node20 -->
<g id="edge1" class="edge"><title>Node19&#45;&gt;Node20</title>
<path fill="none" stroke="midnightblue" d="M121.394,-60.8832C109.845,-51.0054 96.3096,-39.4293 85.9587,-30.5765"/>
<polygon fill="midnightblue" stroke="midnightblue" points="119.135,-63.5561 129.009,-67.396 123.684,-58.2364 119.135,-63.5561"/>
</g>
<!-- Node21 -->
<g id="node3" class="node"><title>Node21</title>
<g id="a_node3"><a xlink:href="calibration_2modules_2_c_b___source_calib_8cc.html" target="_top" xlink:title="src/calibration/modules\l/CB_SourceCalib.cc">
<polygon fill="white" stroke="black" points="157.5,-0.5 157.5,-30.5 285.5,-30.5 285.5,-0.5 157.5,-0.5"/>
<text text-anchor="start" x="165.5" y="-18.5" font-family="Helvetica,sans-Serif" font-size="10.00">src/calibration/modules</text>
<text text-anchor="middle" x="221.5" y="-7.5" font-family="Helvetica,sans-Serif" font-size="10.00">/CB_SourceCalib.cc</text>
</a>
</g>
</g>
<!-- Node19&#45;&gt;Node21 -->
<g id="edge2" class="edge"><title>Node19&#45;&gt;Node21</title>
<path fill="none" stroke="midnightblue" d="M169.606,-60.8832C181.155,-51.0054 194.69,-39.4293 205.041,-30.5765"/>
<polygon fill="midnightblue" stroke="midnightblue" points="167.316,-58.2364 161.991,-67.396 171.865,-63.5561 167.316,-58.2364"/>
</g>
</g>
</svg>
