<?xml version="1.0" encoding="UTF-8" standalone="no"?>
<!DOCTYPE svg PUBLIC "-//W3C//DTD SVG 1.1//EN"
 "http://www.w3.org/Graphics/SVG/1.1/DTD/svg11.dtd">
<!-- Generated by graphviz version 2.38.0 (20140413.2041)
 -->
<!-- Title: src/analysis/utils/uncertainties/FitterSergey.h Pages: 1 -->
<svg width="4289pt" height="195pt"
 viewBox="0.00 0.00 4288.50 195.00" xmlns="http://www.w3.org/2000/svg" xmlns:xlink="http://www.w3.org/1999/xlink">
<g id="graph0" class="graph" transform="scale(1 1) rotate(0) translate(4 191)">
<title>src/analysis/utils/uncertainties/FitterSergey.h</title>
<polygon fill="white" stroke="none" points="-4,4 -4,-191 4284.5,-191 4284.5,4 -4,4"/>
<!-- Node42 -->
<g id="node1" class="node"><title>Node42</title>
<polygon fill="#bfbfbf" stroke="black" points="2118,-156.5 2118,-186.5 2268,-186.5 2268,-156.5 2118,-156.5"/>
<text text-anchor="start" x="2126" y="-174.5" font-family="Helvetica,sans-Serif" font-size="10.00">src/analysis/utils</text>
<text text-anchor="middle" x="2193" y="-163.5" font-family="Helvetica,sans-Serif" font-size="10.00">/uncertainties/FitterSergey.h</text>
</g>
<!-- Node43 -->
<g id="node2" class="node"><title>Node43</title>
<g id="a_node2"><a xlink:href="analysis_2physics_2calibration_2_p_i_d___energy_8h.html" target="_top" xlink:title="src/analysis/physics\l/calibration/PID_Energy.h">
<polygon fill="white" stroke="black" points="2,-84 2,-114 136,-114 136,-84 2,-84"/>
<text text-anchor="start" x="10" y="-102" font-family="Helvetica,sans-Serif" font-size="10.00">src/analysis/physics</text>
<text text-anchor="middle" x="69" y="-91" font-family="Helvetica,sans-Serif" font-size="10.00">/calibration/PID_Energy.h</text>
</a>
</g>
</g>
<!-- Node42&#45;&gt;Node43 -->
<g id="edge1" class="edge"><title>Node42&#45;&gt;Node43</title>
<path fill="none" stroke="midnightblue" d="M2107.57,-169.566C1744.72,-165.441 340.972,-147.814 145,-120 135.274,-118.62 125.007,-116.434 115.273,-114.004"/>
<polygon fill="midnightblue" stroke="midnightblue" points="2107.7,-173.068 2117.74,-169.682 2107.78,-166.068 2107.7,-173.068"/>
</g>
<!-- Node45 -->
<g id="node4" class="node"><title>Node45</title>
<g id="a_node4"><a xlink:href="_p_i_d___t_a_p_s_veto___kinfit_8cc.html" target="_top" xlink:title="src/analysis/physics\l/calibration/PID_TAPSVeto\l_Kinfit.cc">
<polygon fill="white" stroke="black" points="154.5,-78.5 154.5,-119.5 293.5,-119.5 293.5,-78.5 154.5,-78.5"/>
<text text-anchor="start" x="162.5" y="-107.5" font-family="Helvetica,sans-Serif" font-size="10.00">src/analysis/physics</text>
<text text-anchor="start" x="162.5" y="-96.5" font-family="Helvetica,sans-Serif" font-size="10.00">/calibration/PID_TAPSVeto</text>
<text text-anchor="middle" x="224" y="-85.5" font-family="Helvetica,sans-Serif" font-size="10.00">_Kinfit.cc</text>
</a>
</g>
</g>
<!-- Node42&#45;&gt;Node45 -->
<g id="edge3" class="edge"><title>Node42&#45;&gt;Node45</title>
<path fill="none" stroke="midnightblue" d="M2107.73,-170.725C1787.76,-171.179 658.835,-169.178 303,-120 299.917,-119.574 296.78,-119.073 293.622,-118.514"/>
<polygon fill="midnightblue" stroke="midnightblue" points="2107.87,-174.225 2117.86,-170.709 2107.86,-167.225 2107.87,-174.225"/>
</g>
<!-- Node46 -->
<g id="node5" class="node"><title>Node46</title>
<g id="a_node5"><a xlink:href="_i_m_comb_fit_plots_8cc.html" target="_top" xlink:title="src/analysis/physics\l/common/IMCombFitPlots.cc">
<polygon fill="white" stroke="black" points="312,-84 312,-114 464,-114 464,-84 312,-84"/>
<text text-anchor="start" x="320" y="-102" font-family="Helvetica,sans-Serif" font-size="10.00">src/analysis/physics</text>
<text text-anchor="middle" x="388" y="-91" font-family="Helvetica,sans-Serif" font-size="10.00">/common/IMCombFitPlots.cc</text>
</a>
</g>
</g>
<!-- Node42&#45;&gt;Node46 -->
<g id="edge4" class="edge"><title>Node42&#45;&gt;Node46</title>
<path fill="none" stroke="midnightblue" d="M2107.48,-170.27C1806.11,-169.105 794.281,-162.076 473,-120 462.328,-118.602 451.037,-116.442 440.292,-114.048"/>
<polygon fill="midnightblue" stroke="midnightblue" points="2107.89,-173.772 2117.9,-170.309 2107.91,-166.772 2107.89,-173.772"/>
</g>
<!-- Node47 -->
<g id="node6" class="node"><title>Node47</title>
<g id="a_node6"><a xlink:href="_just_particles_8cc.html" target="_top" xlink:title="src/analysis/physics\l/common/JustParticles.cc">
<polygon fill="white" stroke="black" points="482,-84 482,-114 618,-114 618,-84 482,-84"/>
<text text-anchor="start" x="490" y="-102" font-family="Helvetica,sans-Serif" font-size="10.00">src/analysis/physics</text>
<text text-anchor="middle" x="550" y="-91" font-family="Helvetica,sans-Serif" font-size="10.00">/common/JustParticles.cc</text>
</a>
</g>
</g>
<!-- Node42&#45;&gt;Node47 -->
<g id="edge5" class="edge"><title>Node42&#45;&gt;Node47</title>
<path fill="none" stroke="midnightblue" d="M2107.51,-170.239C1824,-168.983 916.383,-161.72 627,-120 617.294,-118.601 607.049,-116.439 597.311,-114.046"/>
<polygon fill="midnightblue" stroke="midnightblue" points="2107.72,-173.74 2117.73,-170.283 2107.75,-166.74 2107.72,-173.74"/>
</g>
<!-- Node48 -->
<g id="node7" class="node"><title>Node48</title>
<g id="a_node7"><a xlink:href="_meson_dalitz_decays_8cc.html" target="_top" xlink:title="Physics class to investigate Dalitz decays for different mesons. ">
<polygon fill="white" stroke="black" points="636.5,-84 636.5,-114 809.5,-114 809.5,-84 636.5,-84"/>
<text text-anchor="start" x="644.5" y="-102" font-family="Helvetica,sans-Serif" font-size="10.00">src/analysis/physics</text>
<text text-anchor="middle" x="723" y="-91" font-family="Helvetica,sans-Serif" font-size="10.00">/common/MesonDalitzDecays.cc</text>
</a>
</g>
</g>
<!-- Node42&#45;&gt;Node48 -->
<g id="edge6" class="edge"><title>Node42&#45;&gt;Node48</title>
<path fill="none" stroke="midnightblue" d="M2107.6,-169.248C1847.93,-165.143 1070.22,-150.564 819,-120 807.086,-118.55 794.453,-116.383 782.401,-114.002"/>
<polygon fill="midnightblue" stroke="midnightblue" points="2107.67,-172.749 2117.73,-169.407 2107.78,-165.75 2107.67,-172.749"/>
</g>
<!-- Node49 -->
<g id="node8" class="node"><title>Node49</title>
<g id="a_node8"><a xlink:href="_etap_omega_g_8cc.html" target="_top" xlink:title="src/analysis/physics\l/etaprime/EtapOmegaG.cc">
<polygon fill="white" stroke="black" points="828,-84 828,-114 972,-114 972,-84 828,-84"/>
<text text-anchor="start" x="836" y="-102" font-family="Helvetica,sans-Serif" font-size="10.00">src/analysis/physics</text>
<text text-anchor="middle" x="900" y="-91" font-family="Helvetica,sans-Serif" font-size="10.00">/etaprime/EtapOmegaG.cc</text>
</a>
</g>
</g>
<!-- Node42&#45;&gt;Node49 -->
<g id="edge7" class="edge"><title>Node42&#45;&gt;Node49</title>
<path fill="none" stroke="midnightblue" d="M2107.53,-169.166C1868.93,-165.087 1198.88,-151.117 981,-120 970.962,-118.566 960.358,-116.422 950.247,-114.061"/>
<polygon fill="midnightblue" stroke="midnightblue" points="2107.83,-172.671 2117.89,-169.341 2107.95,-165.672 2107.83,-172.671"/>
</g>
<!-- Node50 -->
<g id="node9" class="node"><title>Node50</title>
<g id="a_node9"><a xlink:href="_etap_omega_g__simple_8cc.html" target="_top" xlink:title="src/analysis/physics\l/etaprime/EtapOmegaG\l_simple.cc">
<polygon fill="white" stroke="black" points="990.5,-78.5 990.5,-119.5 1121.5,-119.5 1121.5,-78.5 990.5,-78.5"/>
<text text-anchor="start" x="998.5" y="-107.5" font-family="Helvetica,sans-Serif" font-size="10.00">src/analysis/physics</text>
<text text-anchor="start" x="998.5" y="-96.5" font-family="Helvetica,sans-Serif" font-size="10.00">/etaprime/EtapOmegaG</text>
<text text-anchor="middle" x="1056" y="-85.5" font-family="Helvetica,sans-Serif" font-size="10.00">_simple.cc</text>
</a>
</g>
</g>
<!-- Node42&#45;&gt;Node50 -->
<g id="edge8" class="edge"><title>Node42&#45;&gt;Node50</title>
<path fill="none" stroke="midnightblue" d="M2107.86,-168.833C1890.27,-164.191 1317.75,-149.475 1130,-120 1127.24,-119.567 1124.43,-119.07 1121.61,-118.523"/>
<polygon fill="midnightblue" stroke="midnightblue" points="2107.88,-172.334 2117.95,-169.046 2108.03,-165.335 2107.88,-172.334"/>
</g>
<!-- Node51 -->
<g id="node10" class="node"><title>Node51</title>
<g id="a_node10"><a xlink:href="etaprime-3pi0_8h.html" target="_top" xlink:title="src/analysis/physics\l/etaprime/etaprime&#45;3pi0.h">
<polygon fill="white" stroke="black" points="1139.5,-84 1139.5,-114 1282.5,-114 1282.5,-84 1139.5,-84"/>
<text text-anchor="start" x="1147.5" y="-102" font-family="Helvetica,sans-Serif" font-size="10.00">src/analysis/physics</text>
<text text-anchor="middle" x="1211" y="-91" font-family="Helvetica,sans-Serif" font-size="10.00">/etaprime/etaprime&#45;3pi0.h</text>
</a>
</g>
</g>
<!-- Node42&#45;&gt;Node51 -->
<g id="edge9" class="edge"><title>Node42&#45;&gt;Node51</title>
<path fill="none" stroke="midnightblue" d="M2107.46,-170.983C1946.76,-170.725 1589.14,-164.614 1292,-120 1282.12,-118.516 1271.68,-116.379 1261.7,-114.049"/>
<polygon fill="midnightblue" stroke="midnightblue" points="2107.76,-174.483 2117.76,-170.992 2107.77,-167.483 2107.76,-174.483"/>
</g>
<!-- Node53 -->
<g id="node12" class="node"><title>Node53</title>
<g id="a_node12"><a xlink:href="etaprime__dalitz_8cc.html" target="_top" xlink:title="src/analysis/physics\l/etaprime/etaprime_dalitz.cc">
<polygon fill="white" stroke="black" points="1301,-84 1301,-114 1455,-114 1455,-84 1301,-84"/>
<text text-anchor="start" x="1309" y="-102" font-family="Helvetica,sans-Serif" font-size="10.00">src/analysis/physics</text>
<text text-anchor="middle" x="1378" y="-91" font-family="Helvetica,sans-Serif" font-size="10.00">/etaprime/etaprime_dalitz.cc</text>
</a>
</g>
</g>
<!-- Node42&#45;&gt;Node53 -->
<g id="edge11" class="edge"><title>Node42&#45;&gt;Node53</title>
<path fill="none" stroke="midnightblue" d="M2107.4,-168.981C1970.69,-165.568 1694.95,-154.629 1464,-120 1453.69,-118.454 1442.79,-116.319 1432.34,-114.016"/>
<polygon fill="midnightblue" stroke="midnightblue" points="2107.72,-172.49 2117.8,-169.233 2107.89,-165.492 2107.72,-172.49"/>
</g>
<!-- Node54 -->
<g id="node13" class="node"><title>Node54</title>
<g id="a_node13"><a xlink:href="etaprime__proton_8cc.html" target="_top" xlink:title="src/analysis/physics\l/etaprime/etaprime_proton.cc">
<polygon fill="white" stroke="black" points="1473,-84 1473,-114 1633,-114 1633,-84 1473,-84"/>
<text text-anchor="start" x="1481" y="-102" font-family="Helvetica,sans-Serif" font-size="10.00">src/analysis/physics</text>
<text text-anchor="middle" x="1553" y="-91" font-family="Helvetica,sans-Serif" font-size="10.00">/etaprime/etaprime_proton.cc</text>
</a>
</g>
</g>
<!-- Node42&#45;&gt;Node54 -->
<g id="edge12" class="edge"><title>Node42&#45;&gt;Node54</title>
<path fill="none" stroke="midnightblue" d="M2107.51,-166.109C1998.82,-159.738 1805.63,-145.772 1642,-120 1631.68,-118.374 1620.76,-116.257 1610.24,-114.01"/>
<polygon fill="midnightblue" stroke="midnightblue" points="2107.57,-169.618 2117.76,-166.702 2107.97,-162.63 2107.57,-169.618"/>
</g>
<!-- Node55 -->
<g id="node14" class="node"><title>Node55</title>
<g id="a_node14"><a xlink:href="_find_proton_8cc.html" target="_top" xlink:title="src/analysis/physics\l/omega/FindProton.cc">
<polygon fill="white" stroke="black" points="1651,-84 1651,-114 1771,-114 1771,-84 1651,-84"/>
<text text-anchor="start" x="1659" y="-102" font-family="Helvetica,sans-Serif" font-size="10.00">src/analysis/physics</text>
<text text-anchor="middle" x="1711" y="-91" font-family="Helvetica,sans-Serif" font-size="10.00">/omega/FindProton.cc</text>
</a>
</g>
</g>
<!-- Node42&#45;&gt;Node55 -->
<g id="edge13" class="edge"><title>Node42&#45;&gt;Node55</title>
<path fill="none" stroke="midnightblue" d="M2107.81,-164.103C2023.85,-156.856 1892.21,-142.967 1780,-120 1772.06,-118.374 1763.7,-116.285 1755.65,-114.072"/>
<polygon fill="midnightblue" stroke="midnightblue" points="2107.55,-167.593 2117.81,-164.953 2108.14,-160.618 2107.55,-167.593"/>
</g>
<!-- Node56 -->
<g id="node15" class="node"><title>Node56</title>
<g id="a_node15"><a xlink:href="_omega___eta_g_8cc.html" target="_top" xlink:title="src/analysis/physics\l/omega/Omega_EtaG.cc">
<polygon fill="white" stroke="black" points="1789,-84 1789,-114 1923,-114 1923,-84 1789,-84"/>
<text text-anchor="start" x="1797" y="-102" font-family="Helvetica,sans-Serif" font-size="10.00">src/analysis/physics</text>
<text text-anchor="middle" x="1856" y="-91" font-family="Helvetica,sans-Serif" font-size="10.00">/omega/Omega_EtaG.cc</text>
</a>
</g>
</g>
<!-- Node42&#45;&gt;Node56 -->
<g id="edge14" class="edge"><title>Node42&#45;&gt;Node56</title>
<path fill="none" stroke="midnightblue" d="M2107.89,-155.503C2056.73,-146.124 1990.43,-133.325 1932,-120 1924.02,-118.18 1915.6,-116.114 1907.4,-114.018"/>
<polygon fill="midnightblue" stroke="midnightblue" points="2107.44,-158.98 2117.91,-157.333 2108.7,-152.094 2107.44,-158.98"/>
</g>
<!-- Node57 -->
<g id="node16" class="node"><title>Node57</title>
<g id="a_node16"><a xlink:href="_just_pi0_8cc.html" target="_top" xlink:title="src/analysis/physics\l/pi0/JustPi0.cc">
<polygon fill="white" stroke="black" points="1941,-84 1941,-114 2051,-114 2051,-84 1941,-84"/>
<text text-anchor="start" x="1949" y="-102" font-family="Helvetica,sans-Serif" font-size="10.00">src/analysis/physics</text>
<text text-anchor="middle" x="1996" y="-91" font-family="Helvetica,sans-Serif" font-size="10.00">/pi0/JustPi0.cc</text>
</a>
</g>
</g>
<!-- Node42&#45;&gt;Node57 -->
<g id="edge15" class="edge"><title>Node42&#45;&gt;Node57</title>
<path fill="none" stroke="midnightblue" d="M2144,-152.965C2110.46,-140.962 2066.58,-125.258 2035.32,-114.073"/>
<polygon fill="midnightblue" stroke="midnightblue" points="2143.01,-156.329 2153.61,-156.403 2145.37,-149.738 2143.01,-156.329"/>
</g>
<!-- Node58 -->
<g id="node17" class="node"><title>Node58</title>
<g id="a_node17"><a xlink:href="_pi0_dalitz_8cc.html" target="_top" xlink:title="src/analysis/physics\l/pi0/Pi0Dalitz.cc">
<polygon fill="white" stroke="black" points="2069,-84 2069,-114 2179,-114 2179,-84 2069,-84"/>
<text text-anchor="start" x="2077" y="-102" font-family="Helvetica,sans-Serif" font-size="10.00">src/analysis/physics</text>
<text text-anchor="middle" x="2124" y="-91" font-family="Helvetica,sans-Serif" font-size="10.00">/pi0/Pi0Dalitz.cc</text>
</a>
</g>
</g>
<!-- Node42&#45;&gt;Node58 -->
<g id="edge16" class="edge"><title>Node42&#45;&gt;Node58</title>
<path fill="none" stroke="midnightblue" d="M2171.82,-148.864C2160.81,-137.614 2147.66,-124.179 2137.94,-114.246"/>
<polygon fill="midnightblue" stroke="midnightblue" points="2169.54,-151.535 2179.04,-156.233 2174.54,-146.638 2169.54,-151.535"/>
</g>
<!-- Node59 -->
<g id="node18" class="node"><title>Node59</title>
<g id="a_node18"><a xlink:href="sigma_plus_8h.html" target="_top" xlink:title="src/analysis/physics\l/production/sigmaPlus.h">
<polygon fill="white" stroke="black" points="2197.5,-84 2197.5,-114 2328.5,-114 2328.5,-84 2197.5,-84"/>
<text text-anchor="start" x="2205.5" y="-102" font-family="Helvetica,sans-Serif" font-size="10.00">src/analysis/physics</text>
<text text-anchor="middle" x="2263" y="-91" font-family="Helvetica,sans-Serif" font-size="10.00">/production/sigmaPlus.h</text>
</a>
</g>
</g>
<!-- Node42&#45;&gt;Node59 -->
<g id="edge17" class="edge"><title>Node42&#45;&gt;Node59</title>
<path fill="none" stroke="midnightblue" d="M2214.48,-148.864C2225.65,-137.614 2238.99,-124.179 2248.86,-114.246"/>
<polygon fill="midnightblue" stroke="midnightblue" points="2211.73,-146.671 2207.17,-156.233 2216.7,-151.603 2211.73,-146.671"/>
</g>
<!-- Node62 -->
<g id="node21" class="node"><title>Node62</title>
<g id="a_node21"><a xlink:href="single_pi0_8h.html" target="_top" xlink:title="src/analysis/physics\l/production/singlePi0.h">
<polygon fill="white" stroke="black" points="2385.5,-84 2385.5,-114 2510.5,-114 2510.5,-84 2385.5,-84"/>
<text text-anchor="start" x="2393.5" y="-102" font-family="Helvetica,sans-Serif" font-size="10.00">src/analysis/physics</text>
<text text-anchor="middle" x="2448" y="-91" font-family="Helvetica,sans-Serif" font-size="10.00">/production/singlePi0.h</text>
</a>
</g>
</g>
<!-- Node42&#45;&gt;Node62 -->
<g id="edge20" class="edge"><title>Node42&#45;&gt;Node62</title>
<path fill="none" stroke="midnightblue" d="M2253.34,-153.818C2297.07,-141.727 2355.56,-125.557 2396.98,-114.107"/>
<polygon fill="midnightblue" stroke="midnightblue" points="2252.39,-150.449 2243.68,-156.487 2254.26,-157.196 2252.39,-150.449"/>
</g>
<!-- Node63 -->
<g id="node22" class="node"><title>Node63</title>
<g id="a_node22"><a xlink:href="single_pi0_8cc.html" target="_top" xlink:title="src/analysis/physics\l/production/singlePi0.cc">
<polygon fill="white" stroke="black" points="2258.5,-6 2258.5,-36 2387.5,-36 2387.5,-6 2258.5,-6"/>
<text text-anchor="start" x="2266.5" y="-24" font-family="Helvetica,sans-Serif" font-size="10.00">src/analysis/physics</text>
<text text-anchor="middle" x="2323" y="-13" font-family="Helvetica,sans-Serif" font-size="10.00">/production/singlePi0.cc</text>
</a>
</g>
</g>
<!-- Node42&#45;&gt;Node63 -->
<g id="edge23" class="edge"><title>Node42&#45;&gt;Node63</title>
<path fill="none" stroke="midnightblue" d="M2277.97,-159.117C2300.83,-151.733 2323.06,-139.667 2337,-120 2354.89,-94.7637 2340.7,-56.5662 2330.7,-36.1107"/>
<polygon fill="midnightblue" stroke="midnightblue" points="2276.76,-155.823 2268.16,-162.003 2278.74,-162.539 2276.76,-155.823"/>
</g>
<!-- Node65 -->
<g id="node24" class="node"><title>Node65</title>
<g id="a_node24"><a xlink:href="triple_pi0_8h.html" target="_top" xlink:title="src/analysis/physics\l/production/triplePi0.h">
<polygon fill="white" stroke="black" points="2528.5,-84 2528.5,-114 2649.5,-114 2649.5,-84 2528.5,-84"/>
<text text-anchor="start" x="2536.5" y="-102" font-family="Helvetica,sans-Serif" font-size="10.00">src/analysis/physics</text>
<text text-anchor="middle" x="2589" y="-91" font-family="Helvetica,sans-Serif" font-size="10.00">/production/triplePi0.h</text>
</a>
</g>
</g>
<!-- Node42&#45;&gt;Node65 -->
<g id="edge24" class="edge"><title>Node42&#45;&gt;Node65</title>
<path fill="none" stroke="midnightblue" d="M2278.22,-160.256C2344.31,-151.6 2437.99,-137.775 2519,-120 2526.78,-118.293 2534.97,-116.216 2542.89,-114.053"/>
<polygon fill="midnightblue" stroke="midnightblue" points="2277.73,-156.79 2268.27,-161.548 2278.63,-163.732 2277.73,-156.79"/>
</g>
<!-- Node69 -->
<g id="node28" class="node"><title>Node69</title>
<g id="a_node28"><a xlink:href="gp__pi0[2g]p_8cc.html" target="_top" xlink:title="src/analysis/physics\l/scratch/collicott/gp\l_pi0[2g]p.cc">
<polygon fill="white" stroke="black" points="2668,-78.5 2668,-119.5 2778,-119.5 2778,-78.5 2668,-78.5"/>
<text text-anchor="start" x="2676" y="-107.5" font-family="Helvetica,sans-Serif" font-size="10.00">src/analysis/physics</text>
<text text-anchor="start" x="2676" y="-96.5" font-family="Helvetica,sans-Serif" font-size="10.00">/scratch/collicott/gp</text>
<text text-anchor="middle" x="2723" y="-85.5" font-family="Helvetica,sans-Serif" font-size="10.00">_pi0[2g]p.cc</text>
</a>
</g>
</g>
<!-- Node42&#45;&gt;Node69 -->
<g id="edge28" class="edge"><title>Node42&#45;&gt;Node69</title>
<path fill="none" stroke="midnightblue" d="M2278.39,-166.249C2372.44,-160.41 2527.75,-147.346 2659,-120 2661.85,-119.406 2664.75,-118.738 2667.67,-118.015"/>
<polygon fill="midnightblue" stroke="midnightblue" points="2278.13,-162.758 2268.36,-166.858 2278.55,-169.745 2278.13,-162.758"/>
</g>
<!-- Node70 -->
<g id="node29" class="node"><title>Node70</title>
<g id="a_node29"><a xlink:href="checkkinfit_8cc.html" target="_top" xlink:title="src/analysis/physics\l/scratch/lheijken/checkkinfit.cc">
<polygon fill="white" stroke="black" points="2796.5,-84 2796.5,-114 2957.5,-114 2957.5,-84 2796.5,-84"/>
<text text-anchor="start" x="2804.5" y="-102" font-family="Helvetica,sans-Serif" font-size="10.00">src/analysis/physics</text>
<text text-anchor="middle" x="2877" y="-91" font-family="Helvetica,sans-Serif" font-size="10.00">/scratch/lheijken/checkkinfit.cc</text>
</a>
</g>
</g>
<!-- Node42&#45;&gt;Node70 -->
<g id="edge29" class="edge"><title>Node42&#45;&gt;Node70</title>
<path fill="none" stroke="midnightblue" d="M2278.61,-166.824C2394.44,-161.031 2607.25,-147.487 2787,-120 2797.44,-118.403 2808.48,-116.3 2819.12,-114.059"/>
<polygon fill="midnightblue" stroke="midnightblue" points="2278.21,-163.34 2268.4,-167.328 2278.56,-170.331 2278.21,-163.34"/>
</g>
<!-- Node71 -->
<g id="node30" class="node"><title>Node71</title>
<g id="a_node30"><a xlink:href="checktagger_8cc.html" target="_top" xlink:title="src/analysis/physics\l/scratch/lheijken/checktagger.cc">
<polygon fill="white" stroke="black" points="2975.5,-84 2975.5,-114 3144.5,-114 3144.5,-84 2975.5,-84"/>
<text text-anchor="start" x="2983.5" y="-102" font-family="Helvetica,sans-Serif" font-size="10.00">src/analysis/physics</text>
<text text-anchor="middle" x="3060" y="-91" font-family="Helvetica,sans-Serif" font-size="10.00">/scratch/lheijken/checktagger.cc</text>
</a>
</g>
</g>
<!-- Node42&#45;&gt;Node71 -->
<g id="edge30" class="edge"><title>Node42&#45;&gt;Node71</title>
<path fill="none" stroke="midnightblue" d="M2278.11,-169.022C2421.08,-165.629 2718.23,-154.674 2967,-120 2978.12,-118.45 2989.9,-116.312 3001.19,-114.008"/>
<polygon fill="midnightblue" stroke="midnightblue" points="2278.01,-165.523 2268.09,-169.253 2278.17,-172.522 2278.01,-165.523"/>
</g>
<!-- Node72 -->
<g id="node31" class="node"><title>Node72</title>
<g id="a_node31"><a xlink:href="gp__pi0p_8cc.html" target="_top" xlink:title="src/analysis/physics\l/scratch/lheijken/gp\l_pi0p.cc">
<polygon fill="white" stroke="black" points="3163,-78.5 3163,-119.5 3273,-119.5 3273,-78.5 3163,-78.5"/>
<text text-anchor="start" x="3171" y="-107.5" font-family="Helvetica,sans-Serif" font-size="10.00">src/analysis/physics</text>
<text text-anchor="start" x="3171" y="-96.5" font-family="Helvetica,sans-Serif" font-size="10.00">/scratch/lheijken/gp</text>
<text text-anchor="middle" x="3218" y="-85.5" font-family="Helvetica,sans-Serif" font-size="10.00">_pi0p.cc</text>
</a>
</g>
</g>
<!-- Node42&#45;&gt;Node72 -->
<g id="edge31" class="edge"><title>Node42&#45;&gt;Node72</title>
<path fill="none" stroke="midnightblue" d="M2278.21,-168.753C2480.87,-164.158 2987.14,-149.967 3154,-120 3156.86,-119.486 3159.78,-118.881 3162.71,-118.209"/>
<polygon fill="midnightblue" stroke="midnightblue" points="2278.12,-165.254 2268.21,-168.978 2278.28,-172.253 2278.12,-165.254"/>
</g>
<!-- Node73 -->
<g id="node32" class="node"><title>Node73</title>
<g id="a_node32"><a xlink:href="gp__wp__pi0g_8cc.html" target="_top" xlink:title="src/analysis/physics\l/scratch/lheijken/gp\l_wp_pi0g.cc">
<polygon fill="white" stroke="black" points="3291,-78.5 3291,-119.5 3401,-119.5 3401,-78.5 3291,-78.5"/>
<text text-anchor="start" x="3299" y="-107.5" font-family="Helvetica,sans-Serif" font-size="10.00">src/analysis/physics</text>
<text text-anchor="start" x="3299" y="-96.5" font-family="Helvetica,sans-Serif" font-size="10.00">/scratch/lheijken/gp</text>
<text text-anchor="middle" x="3346" y="-85.5" font-family="Helvetica,sans-Serif" font-size="10.00">_wp_pi0g.cc</text>
</a>
</g>
</g>
<!-- Node42&#45;&gt;Node73 -->
<g id="edge32" class="edge"><title>Node42&#45;&gt;Node73</title>
<path fill="none" stroke="midnightblue" d="M2278.3,-169.366C2499.86,-165.97 3089.69,-153.924 3282,-120 3284.87,-119.494 3287.78,-118.897 3290.71,-118.23"/>
<polygon fill="midnightblue" stroke="midnightblue" points="2277.98,-165.871 2268.03,-169.522 2278.08,-172.87 2277.98,-165.871"/>
</g>
<!-- Node74 -->
<g id="node33" class="node"><title>Node74</title>
<g id="a_node33"><a xlink:href="_interpolated_pulls__pi0eeg_8cc.html" target="_top" xlink:title="src/analysis/physics\l/scratch/lheijken/Interpolated\lPulls_pi0eeg.cc">
<polygon fill="white" stroke="black" points="3419.5,-78.5 3419.5,-119.5 3574.5,-119.5 3574.5,-78.5 3419.5,-78.5"/>
<text text-anchor="start" x="3427.5" y="-107.5" font-family="Helvetica,sans-Serif" font-size="10.00">src/analysis/physics</text>
<text text-anchor="start" x="3427.5" y="-96.5" font-family="Helvetica,sans-Serif" font-size="10.00">/scratch/lheijken/Interpolated</text>
<text text-anchor="middle" x="3497" y="-85.5" font-family="Helvetica,sans-Serif" font-size="10.00">Pulls_pi0eeg.cc</text>
</a>
</g>
</g>
<!-- Node42&#45;&gt;Node74 -->
<g id="edge33" class="edge"><title>Node42&#45;&gt;Node74</title>
<path fill="none" stroke="midnightblue" d="M2278.44,-169.005C2517.65,-164.494 3190.86,-149.478 3410,-120 3413.07,-119.587 3416.19,-119.116 3419.34,-118.599"/>
<polygon fill="midnightblue" stroke="midnightblue" points="2278.33,-165.507 2268.4,-169.193 2278.47,-172.505 2278.33,-165.507"/>
</g>
<!-- Node75 -->
<g id="node34" class="node"><title>Node75</title>
<g id="a_node34"><a xlink:href="_etap_dalitz_m_c_8cc.html" target="_top" xlink:title="src/analysis/physics\l/scratch/wagner/EtapDalitzMC.cc">
<polygon fill="white" stroke="black" points="3592.5,-84 3592.5,-114 3765.5,-114 3765.5,-84 3592.5,-84"/>
<text text-anchor="start" x="3600.5" y="-102" font-family="Helvetica,sans-Serif" font-size="10.00">src/analysis/physics</text>
<text text-anchor="middle" x="3679" y="-91" font-family="Helvetica,sans-Serif" font-size="10.00">/scratch/wagner/EtapDalitzMC.cc</text>
</a>
</g>
</g>
<!-- Node42&#45;&gt;Node75 -->
<g id="edge34" class="edge"><title>Node42&#45;&gt;Node75</title>
<path fill="none" stroke="midnightblue" d="M2278.54,-169.314C2540.52,-165.377 3329.4,-151.188 3584,-120 3595.79,-118.555 3608.3,-116.389 3620.22,-114.009"/>
<polygon fill="midnightblue" stroke="midnightblue" points="2278.28,-165.817 2268.33,-169.466 2278.38,-172.816 2278.28,-165.817"/>
</g>
<!-- Node76 -->
<g id="node35" class="node"><title>Node76</title>
<g id="a_node35"><a xlink:href="analysis_2physics_2tunings_2_interpolated_pulls_8cc.html" target="_top" xlink:title="src/analysis/physics\l/tunings/InterpolatedPulls.cc">
<polygon fill="white" stroke="black" points="3783.5,-84 3783.5,-114 3934.5,-114 3934.5,-84 3783.5,-84"/>
<text text-anchor="start" x="3791.5" y="-102" font-family="Helvetica,sans-Serif" font-size="10.00">src/analysis/physics</text>
<text text-anchor="middle" x="3859" y="-91" font-family="Helvetica,sans-Serif" font-size="10.00">/tunings/InterpolatedPulls.cc</text>
</a>
</g>
</g>
<!-- Node42&#45;&gt;Node76 -->
<g id="edge35" class="edge"><title>Node42&#45;&gt;Node76</title>
<path fill="none" stroke="midnightblue" d="M2278.35,-170.045C2563.53,-168.169 3481.91,-159.161 3775,-120 3785.55,-118.59 3796.71,-116.424 3807.33,-114.03"/>
<polygon fill="midnightblue" stroke="midnightblue" points="2278.05,-166.547 2268.07,-170.111 2278.09,-173.547 2278.05,-166.547"/>
</g>
<!-- Node77 -->
<g id="node36" class="node"><title>Node77</title>
<g id="a_node36"><a xlink:href="physics_2tunings_2_trigger_simulation_8cc.html" target="_top" xlink:title="src/analysis/physics\l/tunings/TriggerSimulation.cc">
<polygon fill="white" stroke="black" points="3953,-84 3953,-114 4107,-114 4107,-84 3953,-84"/>
<text text-anchor="start" x="3961" y="-102" font-family="Helvetica,sans-Serif" font-size="10.00">src/analysis/physics</text>
<text text-anchor="middle" x="4030" y="-91" font-family="Helvetica,sans-Serif" font-size="10.00">/tunings/TriggerSimulation.cc</text>
</a>
</g>
</g>
<!-- Node42&#45;&gt;Node77 -->
<g id="edge36" class="edge"><title>Node42&#45;&gt;Node77</title>
<path fill="none" stroke="midnightblue" d="M2278.56,-170.293C2583.48,-169.203 3616.33,-162.393 3944,-120 3954.79,-118.604 3966.22,-116.443 3977.09,-114.05"/>
<polygon fill="midnightblue" stroke="midnightblue" points="2278.44,-166.793 2268.45,-170.328 2278.46,-173.793 2278.44,-166.793"/>
</g>
<!-- Node78 -->
<g id="node37" class="node"><title>Node78</title>
<g id="a_node37"><a xlink:href="_fitter_sergey_8cc.html" target="_top" xlink:title="src/analysis/utils\l/uncertainties/FitterSergey.cc">
<polygon fill="white" stroke="black" points="4125.5,-84 4125.5,-114 4280.5,-114 4280.5,-84 4125.5,-84"/>
<text text-anchor="start" x="4133.5" y="-102" font-family="Helvetica,sans-Serif" font-size="10.00">src/analysis/utils</text>
<text text-anchor="middle" x="4203" y="-91" font-family="Helvetica,sans-Serif" font-size="10.00">/uncertainties/FitterSergey.cc</text>
</a>
</g>
</g>
<!-- Node42&#45;&gt;Node78 -->
<g id="edge37" class="edge"><title>Node42&#45;&gt;Node78</title>
<path fill="none" stroke="midnightblue" d="M2278.35,-170.523C2601.91,-170.26 3752.91,-166.033 4116,-120 4126.92,-118.616 4138.47,-116.461 4149.47,-114.07"/>
<polygon fill="midnightblue" stroke="midnightblue" points="2278.11,-167.023 2268.11,-170.531 2278.11,-174.023 2278.11,-167.023"/>
</g>
<!-- Node44 -->
<g id="node3" class="node"><title>Node44</title>
<g id="a_node3"><a xlink:href="analysis_2physics_2calibration_2_p_i_d___energy_8cc.html" target="_top" xlink:title="src/analysis/physics\l/calibration/PID_Energy.cc">
<polygon fill="white" stroke="black" points="0,-6 0,-36 138,-36 138,-6 0,-6"/>
<text text-anchor="start" x="8" y="-24" font-family="Helvetica,sans-Serif" font-size="10.00">src/analysis/physics</text>
<text text-anchor="middle" x="69" y="-13" font-family="Helvetica,sans-Serif" font-size="10.00">/calibration/PID_Energy.cc</text>
</a>
</g>
</g>
<!-- Node43&#45;&gt;Node44 -->
<g id="edge2" class="edge"><title>Node43&#45;&gt;Node44</title>
<path fill="none" stroke="midnightblue" d="M69,-73.5898C69,-61.2565 69,-46.7237 69,-36.2309"/>
<polygon fill="midnightblue" stroke="midnightblue" points="65.5001,-73.7049 69,-83.705 72.5001,-73.705 65.5001,-73.7049"/>
</g>
<!-- Node52 -->
<g id="node11" class="node"><title>Node52</title>
<g id="a_node11"><a xlink:href="etaprime-3pi0_8cc.html" target="_top" xlink:title="src/analysis/physics\l/etaprime/etaprime&#45;3pi0.cc">
<polygon fill="white" stroke="black" points="1137.5,-6 1137.5,-36 1284.5,-36 1284.5,-6 1137.5,-6"/>
<text text-anchor="start" x="1145.5" y="-24" font-family="Helvetica,sans-Serif" font-size="10.00">src/analysis/physics</text>
<text text-anchor="middle" x="1211" y="-13" font-family="Helvetica,sans-Serif" font-size="10.00">/etaprime/etaprime&#45;3pi0.cc</text>
</a>
</g>
</g>
<!-- Node51&#45;&gt;Node52 -->
<g id="edge10" class="edge"><title>Node51&#45;&gt;Node52</title>
<path fill="none" stroke="midnightblue" d="M1211,-73.5898C1211,-61.2565 1211,-46.7237 1211,-36.2309"/>
<polygon fill="midnightblue" stroke="midnightblue" points="1207.5,-73.7049 1211,-83.705 1214.5,-73.705 1207.5,-73.7049"/>
</g>
<!-- Node60 -->
<g id="node19" class="node"><title>Node60</title>
<g id="a_node19"><a xlink:href="sigma_plus_8cc.html" target="_top" xlink:title="src/analysis/physics\l/production/sigmaPlus.cc">
<polygon fill="white" stroke="black" points="1927,-6 1927,-36 2063,-36 2063,-6 1927,-6"/>
<text text-anchor="start" x="1935" y="-24" font-family="Helvetica,sans-Serif" font-size="10.00">src/analysis/physics</text>
<text text-anchor="middle" x="1995" y="-13" font-family="Helvetica,sans-Serif" font-size="10.00">/production/sigmaPlus.cc</text>
</a>
</g>
</g>
<!-- Node59&#45;&gt;Node60 -->
<g id="edge18" class="edge"><title>Node59&#45;&gt;Node60</title>
<path fill="none" stroke="midnightblue" d="M2203.64,-81.1666C2155.9,-67.6271 2089.59,-48.8231 2044.63,-36.0749"/>
<polygon fill="midnightblue" stroke="midnightblue" points="2202.96,-84.6108 2213.53,-83.9719 2204.87,-77.8763 2202.96,-84.6108"/>
</g>
<!-- Node61 -->
<g id="node20" class="node"><title>Node61</title>
<g id="a_node20"><a xlink:href="sigma_plus_plots_8cc.html" target="_top" xlink:title="src/analysis/physics\l/production/sigmaPlusPlots.cc">
<polygon fill="white" stroke="black" points="2081.5,-6 2081.5,-36 2240.5,-36 2240.5,-6 2081.5,-6"/>
<text text-anchor="start" x="2089.5" y="-24" font-family="Helvetica,sans-Serif" font-size="10.00">src/analysis/physics</text>
<text text-anchor="middle" x="2161" y="-13" font-family="Helvetica,sans-Serif" font-size="10.00">/production/sigmaPlusPlots.cc</text>
</a>
</g>
</g>
<!-- Node59&#45;&gt;Node61 -->
<g id="edge19" class="edge"><title>Node59&#45;&gt;Node61</title>
<path fill="none" stroke="midnightblue" d="M2235.64,-77.6108C2218.09,-64.5359 2195.75,-47.8895 2180.1,-36.2309"/>
<polygon fill="midnightblue" stroke="midnightblue" points="2233.7,-80.5367 2243.81,-83.705 2237.89,-74.9235 2233.7,-80.5367"/>
</g>
<!-- Node62&#45;&gt;Node63 -->
<g id="edge21" class="edge"><title>Node62&#45;&gt;Node63</title>
<path fill="none" stroke="midnightblue" d="M2416.17,-78.6444C2394.3,-65.3533 2365.79,-48.0166 2346.09,-36.0413"/>
<polygon fill="midnightblue" stroke="midnightblue" points="2414.42,-81.6785 2424.78,-83.8831 2418.06,-75.6973 2414.42,-81.6785"/>
</g>
<!-- Node64 -->
<g id="node23" class="node"><title>Node64</title>
<g id="a_node23"><a xlink:href="single_pi0_plots_8cc.html" target="_top" xlink:title="src/analysis/physics\l/production/singlePi0Plots.cc">
<polygon fill="white" stroke="black" points="2406,-6 2406,-36 2558,-36 2558,-6 2406,-6"/>
<text text-anchor="start" x="2414" y="-24" font-family="Helvetica,sans-Serif" font-size="10.00">src/analysis/physics</text>
<text text-anchor="middle" x="2482" y="-13" font-family="Helvetica,sans-Serif" font-size="10.00">/production/singlePi0Plots.cc</text>
</a>
</g>
</g>
<!-- Node62&#45;&gt;Node64 -->
<g id="edge22" class="edge"><title>Node62&#45;&gt;Node64</title>
<path fill="none" stroke="midnightblue" d="M2458.59,-74.3345C2464.17,-61.8454 2470.84,-46.9356 2475.63,-36.2309"/>
<polygon fill="midnightblue" stroke="midnightblue" points="2455.28,-73.1475 2454.4,-83.705 2461.67,-76.0061 2455.28,-73.1475"/>
</g>
<!-- Node66 -->
<g id="node25" class="node"><title>Node66</title>
<g id="a_node25"><a xlink:href="triple_pi0_8cc.html" target="_top" xlink:title="src/analysis/physics\l/production/triplePi0.cc">
<polygon fill="white" stroke="black" points="2576.5,-6 2576.5,-36 2701.5,-36 2701.5,-6 2576.5,-6"/>
<text text-anchor="start" x="2584.5" y="-24" font-family="Helvetica,sans-Serif" font-size="10.00">src/analysis/physics</text>
<text text-anchor="middle" x="2639" y="-13" font-family="Helvetica,sans-Serif" font-size="10.00">/production/triplePi0.cc</text>
</a>
</g>
</g>
<!-- Node65&#45;&gt;Node66 -->
<g id="edge25" class="edge"><title>Node65&#45;&gt;Node66</title>
<path fill="none" stroke="midnightblue" d="M2604.08,-75.0735C2612.4,-62.4375 2622.46,-47.1476 2629.64,-36.2309"/>
<polygon fill="midnightblue" stroke="midnightblue" points="2600.98,-73.4271 2598.4,-83.705 2606.82,-77.2745 2600.98,-73.4271"/>
</g>
<!-- Node67 -->
<g id="node26" class="node"><title>Node67</title>
<g id="a_node26"><a xlink:href="triple_pi0_plots_8cc.html" target="_top" xlink:title="src/analysis/physics\l/production/triplePi0Plots.cc">
<polygon fill="white" stroke="black" points="2719.5,-6 2719.5,-36 2868.5,-36 2868.5,-6 2719.5,-6"/>
<text text-anchor="start" x="2727.5" y="-24" font-family="Helvetica,sans-Serif" font-size="10.00">src/analysis/physics</text>
<text text-anchor="middle" x="2794" y="-13" font-family="Helvetica,sans-Serif" font-size="10.00">/production/triplePi0Plots.cc</text>
</a>
</g>
</g>
<!-- Node65&#45;&gt;Node67 -->
<g id="edge26" class="edge"><title>Node65&#45;&gt;Node67</title>
<path fill="none" stroke="midnightblue" d="M2636.5,-80.3918C2672.87,-66.9049 2722.39,-48.5488 2756.13,-36.0413"/>
<polygon fill="midnightblue" stroke="midnightblue" points="2635.24,-77.1252 2627.08,-83.8831 2637.67,-83.6886 2635.24,-77.1252"/>
</g>
<!-- Node68 -->
<g id="node27" class="node"><title>Node68</title>
<g id="a_node27"><a xlink:href="_proton_vertex_test_8cc.html" target="_top" xlink:title="src/analysis/physics\l/scratch/wolfes/ProtonVertex\lTest.cc">
<polygon fill="white" stroke="black" points="2887,-0.5 2887,-41.5 3039,-41.5 3039,-0.5 2887,-0.5"/>
<text text-anchor="start" x="2895" y="-29.5" font-family="Helvetica,sans-Serif" font-size="10.00">src/analysis/physics</text>
<text text-anchor="start" x="2895" y="-18.5" font-family="Helvetica,sans-Serif" font-size="10.00">/scratch/wolfes/ProtonVertex</text>
<text text-anchor="middle" x="2963" y="-7.5" font-family="Helvetica,sans-Serif" font-size="10.00">Test.cc</text>
</a>
</g>
</g>
<!-- Node65&#45;&gt;Node68 -->
<g id="edge27" class="edge"><title>Node65&#45;&gt;Node68</title>
<path fill="none" stroke="midnightblue" d="M2645.46,-81.266C2650.02,-80.0972 2654.58,-78.9914 2659,-78 2755.25,-56.4149 2781.27,-61.3074 2878,-42 2880.82,-41.4362 2883.7,-40.8459 2886.6,-40.2362"/>
<polygon fill="midnightblue" stroke="midnightblue" points="2644.27,-77.9609 2635.5,-83.9054 2646.06,-84.7274 2644.27,-77.9609"/>
</g>
</g>
</svg>
