<?xml version="1.0" encoding="UTF-8" standalone="no"?>
<!DOCTYPE svg PUBLIC "-//W3C//DTD SVG 1.1//EN"
 "http://www.w3.org/Graphics/SVG/1.1/DTD/svg11.dtd">
<!-- Generated by graphviz version 2.38.0 (20140413.2041)
 -->
<!-- Title: src/calibration/fitfunctions/FitGausPol0.h Pages: 1 -->
<svg width="2433pt" height="117pt"
 viewBox="0.00 0.00 2432.50 117.00" xmlns="http://www.w3.org/2000/svg" xmlns:xlink="http://www.w3.org/1999/xlink">
<g id="graph0" class="graph" transform="scale(1 1) rotate(0) translate(4 113)">
<title>src/calibration/fitfunctions/FitGausPol0.h</title>
<polygon fill="white" stroke="none" points="-4,4 -4,-113 2428.5,-113 2428.5,4 -4,4"/>
<!-- Node18 -->
<g id="node1" class="node"><title>Node18</title>
<polygon fill="#bfbfbf" stroke="black" points="1170,-78.5 1170,-108.5 1309,-108.5 1309,-78.5 1170,-78.5"/>
<text text-anchor="start" x="1178" y="-96.5" font-family="Helvetica,sans-Serif" font-size="10.00">src/calibration/fitfunctions</text>
<text text-anchor="middle" x="1239.5" y="-85.5" font-family="Helvetica,sans-Serif" font-size="10.00">/FitGausPol0.h</text>
</g>
<!-- Node19 -->
<g id="node2" class="node"><title>Node19</title>
<g id="a_node2"><a xlink:href="_ant-make_lin_pol_8cc.html" target="_top" xlink:title="progs/Ant&#45;makeLinPol.cc">
<polygon fill="white" stroke="black" points="0,-11.5 0,-30.5 135,-30.5 135,-11.5 0,-11.5"/>
<text text-anchor="middle" x="67.5" y="-18.5" font-family="Helvetica,sans-Serif" font-size="10.00">progs/Ant&#45;makeLinPol.cc</text>
</a>
</g>
</g>
<!-- Node18&#45;&gt;Node19 -->
<g id="edge1" class="edge"><title>Node18&#45;&gt;Node19</title>
<path fill="none" stroke="midnightblue" d="M1159.62,-91.0091C941.595,-86.5903 339.508,-71.9614 143.5,-42 126.911,-39.4642 108.718,-34.7482 94.2927,-30.5323"/>
<polygon fill="midnightblue" stroke="midnightblue" points="1159.64,-94.5101 1169.71,-91.2118 1159.78,-87.5115 1159.64,-94.5101"/>
</g>
<!-- Node20 -->
<g id="node3" class="node"><title>Node20</title>
<g id="a_node3"><a xlink:href="_fit_gaus_pol0_8cc.html" target="_top" xlink:title="src/calibration/fitfunctions\l/FitGausPol0.cc">
<polygon fill="white" stroke="black" points="153,-6 153,-36 292,-36 292,-6 153,-6"/>
<text text-anchor="start" x="161" y="-24" font-family="Helvetica,sans-Serif" font-size="10.00">src/calibration/fitfunctions</text>
<text text-anchor="middle" x="222.5" y="-13" font-family="Helvetica,sans-Serif" font-size="10.00">/FitGausPol0.cc</text>
</a>
</g>
</g>
<!-- Node18&#45;&gt;Node20 -->
<g id="edge2" class="edge"><title>Node18&#45;&gt;Node20</title>
<path fill="none" stroke="midnightblue" d="M1159.5,-93.4025C996.882,-94.0937 616.442,-89.8792 301.5,-42 291.849,-40.5328 281.661,-38.4035 271.927,-36.0757"/>
<polygon fill="midnightblue" stroke="midnightblue" points="1159.91,-96.9005 1169.9,-93.3503 1159.88,-89.9006 1159.91,-96.9005"/>
</g>
<!-- Node21 -->
<g id="node4" class="node"><title>Node21</title>
<g id="a_node4"><a xlink:href="_t_a_p_s___time_8cc.html" target="_top" xlink:title="src/calibration/modules\l/TAPS_Time.cc">
<polygon fill="white" stroke="black" points="310.5,-6 310.5,-36 438.5,-36 438.5,-6 310.5,-6"/>
<text text-anchor="start" x="318.5" y="-24" font-family="Helvetica,sans-Serif" font-size="10.00">src/calibration/modules</text>
<text text-anchor="middle" x="374.5" y="-13" font-family="Helvetica,sans-Serif" font-size="10.00">/TAPS_Time.cc</text>
</a>
</g>
</g>
<!-- Node18&#45;&gt;Node21 -->
<g id="edge3" class="edge"><title>Node18&#45;&gt;Node21</title>
<path fill="none" stroke="midnightblue" d="M1159.79,-92.7608C1016.31,-92.0476 705.456,-85.0974 447.5,-42 438.557,-40.5059 429.131,-38.3642 420.133,-36.0326"/>
<polygon fill="midnightblue" stroke="midnightblue" points="1159.82,-96.2608 1169.83,-92.8018 1159.85,-89.2609 1159.82,-96.2608"/>
</g>
<!-- Node22 -->
<g id="node5" class="node"><title>Node22</title>
<g id="a_node5"><a xlink:href="_t_a_p_s_veto___time_8cc.html" target="_top" xlink:title="src/calibration/modules\l/TAPSVeto_Time.cc">
<polygon fill="white" stroke="black" points="456.5,-6 456.5,-36 584.5,-36 584.5,-6 456.5,-6"/>
<text text-anchor="start" x="464.5" y="-24" font-family="Helvetica,sans-Serif" font-size="10.00">src/calibration/modules</text>
<text text-anchor="middle" x="520.5" y="-13" font-family="Helvetica,sans-Serif" font-size="10.00">/TAPSVeto_Time.cc</text>
</a>
</g>
</g>
<!-- Node18&#45;&gt;Node22 -->
<g id="edge4" class="edge"><title>Node18&#45;&gt;Node22</title>
<path fill="none" stroke="midnightblue" d="M1159.59,-91.1076C1036.96,-87.8813 795.339,-77.2109 593.5,-42 584.697,-40.4644 575.42,-38.3334 566.542,-36.0317"/>
<polygon fill="midnightblue" stroke="midnightblue" points="1159.57,-94.6079 1169.65,-91.3624 1159.74,-87.6101 1159.57,-94.6079"/>
</g>
<!-- Node23 -->
<g id="node6" class="node"><title>Node23</title>
<g id="a_node6"><a xlink:href="_setup__2007___base_8cc.html" target="_top" xlink:title="src/expconfig/setups\l/Setup_2007_Base.cc">
<polygon fill="white" stroke="black" points="602.5,-6 602.5,-36 722.5,-36 722.5,-6 602.5,-6"/>
<text text-anchor="start" x="610.5" y="-24" font-family="Helvetica,sans-Serif" font-size="10.00">src/expconfig/setups</text>
<text text-anchor="middle" x="662.5" y="-13" font-family="Helvetica,sans-Serif" font-size="10.00">/Setup_2007_Base.cc</text>
</a>
</g>
</g>
<!-- Node18&#45;&gt;Node23 -->
<g id="edge5" class="edge"><title>Node18&#45;&gt;Node23</title>
<path fill="none" stroke="midnightblue" d="M1159.81,-89.0934C1059.23,-83.7627 881.26,-70.8955 731.5,-42 723.295,-40.4169 714.658,-38.2925 706.378,-36.0186"/>
<polygon fill="midnightblue" stroke="midnightblue" points="1159.73,-92.5937 1169.9,-89.6163 1160.09,-85.6031 1159.73,-92.5937"/>
</g>
<!-- Node24 -->
<g id="node7" class="node"><title>Node24</title>
<g id="a_node7"><a xlink:href="_setup__2010__03___base_8cc.html" target="_top" xlink:title="src/expconfig/setups\l/Setup_2010_03_Base.cc">
<polygon fill="white" stroke="black" points="741,-6 741,-36 878,-36 878,-6 741,-6"/>
<text text-anchor="start" x="749" y="-24" font-family="Helvetica,sans-Serif" font-size="10.00">src/expconfig/setups</text>
<text text-anchor="middle" x="809.5" y="-13" font-family="Helvetica,sans-Serif" font-size="10.00">/Setup_2010_03_Base.cc</text>
</a>
</g>
</g>
<!-- Node18&#45;&gt;Node24 -->
<g id="edge6" class="edge"><title>Node18&#45;&gt;Node24</title>
<path fill="none" stroke="midnightblue" d="M1159.45,-83.643C1087.62,-75.0801 979.498,-60.6687 886.5,-42 877.969,-40.2874 868.973,-38.2065 860.259,-36.0423"/>
<polygon fill="midnightblue" stroke="midnightblue" points="1159.44,-87.1658 1169.78,-84.8638 1160.26,-80.2142 1159.44,-87.1658"/>
</g>
<!-- Node25 -->
<g id="node8" class="node"><title>Node25</title>
<g id="a_node8"><a xlink:href="_setup__2014___e_p_t_8cc.html" target="_top" xlink:title="src/expconfig/setups\l/Setup_2014_EPT.cc">
<polygon fill="white" stroke="black" points="896,-6 896,-36 1011,-36 1011,-6 896,-6"/>
<text text-anchor="start" x="904" y="-24" font-family="Helvetica,sans-Serif" font-size="10.00">src/expconfig/setups</text>
<text text-anchor="middle" x="953.5" y="-13" font-family="Helvetica,sans-Serif" font-size="10.00">/Setup_2014_EPT.cc</text>
</a>
</g>
</g>
<!-- Node18&#45;&gt;Node25 -->
<g id="edge7" class="edge"><title>Node18&#45;&gt;Node25</title>
<path fill="none" stroke="midnightblue" d="M1163.64,-76.2511C1121.35,-66.881 1067.82,-54.5055 1020.5,-42 1013.58,-40.1701 1006.28,-38.1214 999.163,-36.0519"/>
<polygon fill="midnightblue" stroke="midnightblue" points="1163.07,-79.7087 1173.59,-78.4453 1164.58,-72.8731 1163.07,-79.7087"/>
</g>
<!-- Node26 -->
<g id="node9" class="node"><title>Node26</title>
<g id="a_node9"><a xlink:href="_setup__2015__01___pion_8cc.html" target="_top" xlink:title="src/expconfig/setups\l/Setup_2015_01_Pion.cc">
<polygon fill="white" stroke="black" points="1029.5,-6 1029.5,-36 1163.5,-36 1163.5,-6 1029.5,-6"/>
<text text-anchor="start" x="1037.5" y="-24" font-family="Helvetica,sans-Serif" font-size="10.00">src/expconfig/setups</text>
<text text-anchor="middle" x="1096.5" y="-13" font-family="Helvetica,sans-Serif" font-size="10.00">/Setup_2015_01_Pion.cc</text>
</a>
</g>
</g>
<!-- Node18&#45;&gt;Node26 -->
<g id="edge8" class="edge"><title>Node18&#45;&gt;Node26</title>
<path fill="none" stroke="midnightblue" d="M1201.72,-73.873C1177.68,-62.0226 1147.05,-46.9215 1125.04,-36.0729"/>
<polygon fill="midnightblue" stroke="midnightblue" points="1200.39,-77.12 1210.91,-78.4027 1203.48,-70.8415 1200.39,-77.12"/>
</g>
<!-- Node27 -->
<g id="node10" class="node"><title>Node27</title>
<g id="a_node10"><a xlink:href="_setup__2017__03_8cc.html" target="_top" xlink:title="src/expconfig/setups\l/Setup_2017_03.cc">
<polygon fill="white" stroke="black" points="1182,-6 1182,-36 1297,-36 1297,-6 1182,-6"/>
<text text-anchor="start" x="1190" y="-24" font-family="Helvetica,sans-Serif" font-size="10.00">src/expconfig/setups</text>
<text text-anchor="middle" x="1239.5" y="-13" font-family="Helvetica,sans-Serif" font-size="10.00">/Setup_2017_03.cc</text>
</a>
</g>
</g>
<!-- Node18&#45;&gt;Node27 -->
<g id="edge9" class="edge"><title>Node18&#45;&gt;Node27</title>
<path fill="none" stroke="midnightblue" d="M1239.5,-68.2317C1239.5,-57.5679 1239.5,-45.4145 1239.5,-36.2455"/>
<polygon fill="midnightblue" stroke="midnightblue" points="1236,-68.2332 1239.5,-78.2333 1243,-68.2333 1236,-68.2332"/>
</g>
<!-- Node28 -->
<g id="node11" class="node"><title>Node28</title>
<g id="a_node11"><a xlink:href="_setup__2017__05_8cc.html" target="_top" xlink:title="src/expconfig/setups\l/Setup_2017_05.cc">
<polygon fill="white" stroke="black" points="1315,-6 1315,-36 1430,-36 1430,-6 1315,-6"/>
<text text-anchor="start" x="1323" y="-24" font-family="Helvetica,sans-Serif" font-size="10.00">src/expconfig/setups</text>
<text text-anchor="middle" x="1372.5" y="-13" font-family="Helvetica,sans-Serif" font-size="10.00">/Setup_2017_05.cc</text>
</a>
</g>
</g>
<!-- Node18&#45;&gt;Node28 -->
<g id="edge10" class="edge"><title>Node18&#45;&gt;Node28</title>
<path fill="none" stroke="midnightblue" d="M1274.94,-73.7155C1297.25,-61.8891 1325.58,-46.8735 1345.95,-36.0729"/>
<polygon fill="midnightblue" stroke="midnightblue" points="1273.29,-70.6268 1266.09,-78.4027 1276.57,-76.8116 1273.29,-70.6268"/>
</g>
<!-- Node29 -->
<g id="node12" class="node"><title>Node29</title>
<g id="a_node12"><a xlink:href="_setup__2017_plus___new_tagger___base_8cc.html" target="_top" xlink:title="src/expconfig/setups\l/Setup_2017Plus_NewTagger\l_Base.cc">
<polygon fill="white" stroke="black" points="1448.5,-0.5 1448.5,-41.5 1602.5,-41.5 1602.5,-0.5 1448.5,-0.5"/>
<text text-anchor="start" x="1456.5" y="-29.5" font-family="Helvetica,sans-Serif" font-size="10.00">src/expconfig/setups</text>
<text text-anchor="start" x="1456.5" y="-18.5" font-family="Helvetica,sans-Serif" font-size="10.00">/Setup_2017Plus_NewTagger</text>
<text text-anchor="middle" x="1525.5" y="-7.5" font-family="Helvetica,sans-Serif" font-size="10.00">_Base.cc</text>
</a>
</g>
</g>
<!-- Node18&#45;&gt;Node29 -->
<g id="edge11" class="edge"><title>Node18&#45;&gt;Node29</title>
<path fill="none" stroke="midnightblue" d="M1306.32,-76.0291C1348.85,-65.5455 1404.07,-51.9319 1448.45,-40.993"/>
<polygon fill="midnightblue" stroke="midnightblue" points="1305.22,-72.6954 1296.35,-78.4872 1306.89,-79.492 1305.22,-72.6954"/>
</g>
<!-- Node30 -->
<g id="node13" class="node"><title>Node30</title>
<g id="a_node13"><a xlink:href="_setup__2018__11_8cc.html" target="_top" xlink:title="src/expconfig/setups\l/Setup_2018_11.cc">
<polygon fill="white" stroke="black" points="1621,-6 1621,-36 1736,-36 1736,-6 1621,-6"/>
<text text-anchor="start" x="1629" y="-24" font-family="Helvetica,sans-Serif" font-size="10.00">src/expconfig/setups</text>
<text text-anchor="middle" x="1678.5" y="-13" font-family="Helvetica,sans-Serif" font-size="10.00">/Setup_2018_11.cc</text>
</a>
</g>
</g>
<!-- Node18&#45;&gt;Node30 -->
<g id="edge12" class="edge"><title>Node18&#45;&gt;Node30</title>
<path fill="none" stroke="midnightblue" d="M1319.72,-85.2424C1395.48,-77.5339 1512.01,-63.4656 1611.5,-42 1619.21,-40.3358 1627.33,-38.2274 1635.15,-36.0075"/>
<polygon fill="midnightblue" stroke="midnightblue" points="1318.91,-81.8064 1309.31,-86.288 1319.61,-88.7714 1318.91,-81.8064"/>
</g>
<!-- Node31 -->
<g id="node14" class="node"><title>Node31</title>
<g id="a_node14"><a xlink:href="_setup__2019__01_8cc.html" target="_top" xlink:title="src/expconfig/setups\l/Setup_2019_01.cc">
<polygon fill="white" stroke="black" points="1754,-6 1754,-36 1869,-36 1869,-6 1754,-6"/>
<text text-anchor="start" x="1762" y="-24" font-family="Helvetica,sans-Serif" font-size="10.00">src/expconfig/setups</text>
<text text-anchor="middle" x="1811.5" y="-13" font-family="Helvetica,sans-Serif" font-size="10.00">/Setup_2019_01.cc</text>
</a>
</g>
</g>
<!-- Node18&#45;&gt;Node31 -->
<g id="edge13" class="edge"><title>Node18&#45;&gt;Node31</title>
<path fill="none" stroke="midnightblue" d="M1319.35,-89.3361C1419.67,-84.2643 1596.72,-71.6729 1745.5,-42 1753.37,-40.4311 1761.64,-38.3134 1769.56,-36.0418"/>
<polygon fill="midnightblue" stroke="midnightblue" points="1319.11,-85.8438 1309.29,-89.8324 1319.45,-92.8353 1319.11,-85.8438"/>
</g>
<!-- Node32 -->
<g id="node15" class="node"><title>Node32</title>
<g id="a_node15"><a xlink:href="_setup__2019__06_8cc.html" target="_top" xlink:title="src/expconfig/setups\l/Setup_2019_06.cc">
<polygon fill="white" stroke="black" points="1887,-6 1887,-36 2002,-36 2002,-6 1887,-6"/>
<text text-anchor="start" x="1895" y="-24" font-family="Helvetica,sans-Serif" font-size="10.00">src/expconfig/setups</text>
<text text-anchor="middle" x="1944.5" y="-13" font-family="Helvetica,sans-Serif" font-size="10.00">/Setup_2019_06.cc</text>
</a>
</g>
</g>
<!-- Node18&#45;&gt;Node32 -->
<g id="edge14" class="edge"><title>Node18&#45;&gt;Node32</title>
<path fill="none" stroke="midnightblue" d="M1319.52,-91.6848C1441.25,-89.2097 1679.8,-79.5033 1878.5,-42 1886.5,-40.49 1894.91,-38.371 1902.94,-36.0732"/>
<polygon fill="midnightblue" stroke="midnightblue" points="1319.1,-88.192 1309.17,-91.8833 1319.24,-95.1907 1319.1,-88.192"/>
</g>
<!-- Node33 -->
<g id="node16" class="node"><title>Node33</title>
<g id="a_node16"><a xlink:href="_setup__2019__07_8cc.html" target="_top" xlink:title="src/expconfig/setups\l/Setup_2019_07.cc">
<polygon fill="white" stroke="black" points="2020,-6 2020,-36 2135,-36 2135,-6 2020,-6"/>
<text text-anchor="start" x="2028" y="-24" font-family="Helvetica,sans-Serif" font-size="10.00">src/expconfig/setups</text>
<text text-anchor="middle" x="2077.5" y="-13" font-family="Helvetica,sans-Serif" font-size="10.00">/Setup_2019_07.cc</text>
</a>
</g>
</g>
<!-- Node18&#45;&gt;Node33 -->
<g id="edge15" class="edge"><title>Node18&#45;&gt;Node33</title>
<path fill="none" stroke="midnightblue" d="M1319.36,-93.261C1460.31,-93.2789 1761.87,-87.3674 2011.5,-42 2019.63,-40.5228 2028.17,-38.3889 2036.31,-36.0598"/>
<polygon fill="midnightblue" stroke="midnightblue" points="1319.09,-89.7608 1309.09,-93.249 1319.08,-96.7608 1319.09,-89.7608"/>
</g>
<!-- Node34 -->
<g id="node17" class="node"><title>Node34</title>
<g id="a_node17"><a xlink:href="_setup__2019__09_8cc.html" target="_top" xlink:title="src/expconfig/setups\l/Setup_2019_09.cc">
<polygon fill="white" stroke="black" points="2153,-6 2153,-36 2268,-36 2268,-6 2153,-6"/>
<text text-anchor="start" x="2161" y="-24" font-family="Helvetica,sans-Serif" font-size="10.00">src/expconfig/setups</text>
<text text-anchor="middle" x="2210.5" y="-13" font-family="Helvetica,sans-Serif" font-size="10.00">/Setup_2019_09.cc</text>
</a>
</g>
</g>
<!-- Node18&#45;&gt;Node34 -->
<g id="edge16" class="edge"><title>Node18&#45;&gt;Node34</title>
<path fill="none" stroke="midnightblue" d="M1319.54,-90.4794C1510.24,-85.2706 1987.2,-69.8093 2144.5,-42 2152.75,-40.5409 2161.43,-38.3844 2169.68,-36.0209"/>
<polygon fill="midnightblue" stroke="midnightblue" points="1319.21,-86.987 1309.31,-90.7565 1319.4,-93.9844 1319.21,-86.987"/>
</g>
<!-- Node35 -->
<g id="node18" class="node"><title>Node35</title>
<g id="a_node18"><a xlink:href="expconfig__helpers_8cc.html" target="_top" xlink:title="test/expconfig_helpers.cc">
<polygon fill="white" stroke="black" points="2286.5,-11.5 2286.5,-30.5 2424.5,-30.5 2424.5,-11.5 2286.5,-11.5"/>
<text text-anchor="middle" x="2355.5" y="-18.5" font-family="Helvetica,sans-Serif" font-size="10.00">test/expconfig_helpers.cc</text>
</a>
</g>
</g>
<!-- Node18&#45;&gt;Node35 -->
<g id="edge17" class="edge"><title>Node18&#45;&gt;Node35</title>
<path fill="none" stroke="midnightblue" d="M1319.15,-90.7109C1528.9,-85.666 2092.98,-69.8515 2277.5,-42 2294.5,-39.4337 2313.17,-34.7164 2327.98,-30.5076"/>
<polygon fill="midnightblue" stroke="midnightblue" points="1319.05,-87.2123 1309.14,-90.9502 1319.22,-94.2103 1319.05,-87.2123"/>
</g>
</g>
</svg>
