<?xml version="1.0" encoding="UTF-8" standalone="no"?>
<!DOCTYPE svg PUBLIC "-//W3C//DTD SVG 1.1//EN"
 "http://www.w3.org/Graphics/SVG/1.1/DTD/svg11.dtd">
<!-- Generated by graphviz version 2.38.0 (20140413.2041)
 -->
<!-- Title: src/base/FloodFillAverages.h Pages: 1 -->
<svg width="610pt" height="95pt"
 viewBox="0.00 0.00 609.50 95.00" xmlns="http://www.w3.org/2000/svg" xmlns:xlink="http://www.w3.org/1999/xlink">
<g id="graph0" class="graph" transform="scale(1 1) rotate(0) translate(4 91)">
<title>src/base/FloodFillAverages.h</title>
<polygon fill="white" stroke="none" points="-4,4 -4,-91 605.5,-91 605.5,4 -4,4"/>
<!-- Node7 -->
<g id="node1" class="node"><title>Node7</title>
<polygon fill="#bfbfbf" stroke="black" points="193.5,-67.5 193.5,-86.5 343.5,-86.5 343.5,-67.5 193.5,-67.5"/>
<text text-anchor="middle" x="268.5" y="-74.5" font-family="Helvetica,sans-Serif" font-size="10.00">src/base/FloodFillAverages.h</text>
</g>
<!-- Node8 -->
<g id="node2" class="node"><title>Node8</title>
<g id="a_node2"><a xlink:href="_array2_d_8cc.html" target="_top" xlink:title="src/base/Array2D.cc">
<polygon fill="white" stroke="black" points="0,-6 0,-25 113,-25 113,-6 0,-6"/>
<text text-anchor="middle" x="56.5" y="-13" font-family="Helvetica,sans-Serif" font-size="10.00">src/base/Array2D.cc</text>
</a>
</g>
</g>
<!-- Node7&#45;&gt;Node8 -->
<g id="edge1" class="edge"><title>Node7&#45;&gt;Node8</title>
<path fill="none" stroke="midnightblue" d="M228.413,-64.7493C187.225,-53.1894 124.023,-35.4511 86.8181,-25.0091"/>
<polygon fill="midnightblue" stroke="midnightblue" points="227.552,-68.1426 238.126,-67.4751 229.443,-61.403 227.552,-68.1426"/>
</g>
<!-- Node9 -->
<g id="node3" class="node"><title>Node9</title>
<g id="a_node3"><a xlink:href="calibration_2modules_2_c_b___energy_8cc.html" target="_top" xlink:title="src/calibration/modules\l/CB_Energy.cc">
<polygon fill="white" stroke="black" points="131.5,-0.5 131.5,-30.5 259.5,-30.5 259.5,-0.5 131.5,-0.5"/>
<text text-anchor="start" x="139.5" y="-18.5" font-family="Helvetica,sans-Serif" font-size="10.00">src/calibration/modules</text>
<text text-anchor="middle" x="195.5" y="-7.5" font-family="Helvetica,sans-Serif" font-size="10.00">/CB_Energy.cc</text>
</a>
</g>
</g>
<!-- Node7&#45;&gt;Node9 -->
<g id="edge2" class="edge"><title>Node7&#45;&gt;Node9</title>
<path fill="none" stroke="midnightblue" d="M250,-60.9215C238.538,-51.579 223.917,-39.6616 212.705,-30.523"/>
<polygon fill="midnightblue" stroke="midnightblue" points="248.078,-63.8701 258.041,-67.4751 252.501,-58.4442 248.078,-63.8701"/>
</g>
<!-- Node10 -->
<g id="node4" class="node"><title>Node10</title>
<g id="a_node4"><a xlink:href="calibration_2modules_2_t_a_p_s___energy_8cc.html" target="_top" xlink:title="src/calibration/modules\l/TAPS_Energy.cc">
<polygon fill="white" stroke="black" points="277.5,-0.5 277.5,-30.5 405.5,-30.5 405.5,-0.5 277.5,-0.5"/>
<text text-anchor="start" x="285.5" y="-18.5" font-family="Helvetica,sans-Serif" font-size="10.00">src/calibration/modules</text>
<text text-anchor="middle" x="341.5" y="-7.5" font-family="Helvetica,sans-Serif" font-size="10.00">/TAPS_Energy.cc</text>
</a>
</g>
</g>
<!-- Node7&#45;&gt;Node10 -->
<g id="edge3" class="edge"><title>Node7&#45;&gt;Node10</title>
<path fill="none" stroke="midnightblue" d="M287,-60.9215C298.462,-51.579 313.083,-39.6616 324.295,-30.523"/>
<polygon fill="midnightblue" stroke="midnightblue" points="284.499,-58.4442 278.959,-67.4751 288.922,-63.8701 284.499,-58.4442"/>
</g>
<!-- Node11 -->
<g id="node5" class="node"><title>Node11</title>
<g id="a_node5"><a xlink:href="_test_flood_fill_averages_8cc.html" target="_top" xlink:title="test/base/TestFloodFillAverages.cc">
<polygon fill="white" stroke="black" points="423.5,-6 423.5,-25 601.5,-25 601.5,-6 423.5,-6"/>
<text text-anchor="middle" x="512.5" y="-13" font-family="Helvetica,sans-Serif" font-size="10.00">test/base/TestFloodFillAverages.cc</text>
</a>
</g>
</g>
<!-- Node7&#45;&gt;Node11 -->
<g id="edge4" class="edge"><title>Node7&#45;&gt;Node11</title>
<path fill="none" stroke="midnightblue" d="M313.44,-65.0412C360.81,-53.49 434.422,-35.5394 477.606,-25.0091"/>
<polygon fill="midnightblue" stroke="midnightblue" points="312.345,-61.7056 303.459,-67.4751 314.004,-68.5063 312.345,-61.7056"/>
</g>
</g>
</svg>
