<?xml version="1.0" encoding="UTF-8" standalone="no"?>
<!DOCTYPE svg PUBLIC "-//W3C//DTD SVG 1.1//EN"
 "http://www.w3.org/Graphics/SVG/1.1/DTD/svg11.dtd">
<!-- Generated by graphviz version 2.38.0 (20140413.2041)
 -->
<!-- Title: src/base/Format.h Pages: 1 -->
<svg width="150pt" height="84pt"
 viewBox="0.00 0.00 150.00 84.00" xmlns="http://www.w3.org/2000/svg" xmlns:xlink="http://www.w3.org/1999/xlink">
<g id="graph0" class="graph" transform="scale(1 1) rotate(0) translate(4 80)">
<title>src/base/Format.h</title>
<polygon fill="white" stroke="none" points="-4,4 -4,-80 146,-80 146,4 -4,4"/>
<!-- Node0 -->
<g id="node1" class="node"><title>Node0</title>
<polygon fill="#bfbfbf" stroke="black" points="26.5,-56.5 26.5,-75.5 130.5,-75.5 130.5,-56.5 26.5,-56.5"/>
<text text-anchor="middle" x="78.5" y="-63.5" font-family="Helvetica,sans-Serif" font-size="10.00">src/base/Format.h</text>
</g>
<!-- Node1 -->
<g id="node2" class="node"><title>Node1</title>
<polygon fill="white" stroke="#bfbfbf" points="0,-0.5 0,-19.5 77,-19.5 77,-0.5 0,-0.5"/>
<text text-anchor="middle" x="38.5" y="-7.5" font-family="Helvetica,sans-Serif" font-size="10.00">fmt/format.h</text>
</g>
<!-- Node0&#45;&gt;Node1 -->
<g id="edge1" class="edge"><title>Node0&#45;&gt;Node1</title>
<path fill="none" stroke="midnightblue" d="M71.8948,-56.083C66.2448,-48.4554 57.9552,-37.2645 51.0488,-27.9408"/>
<polygon fill="midnightblue" stroke="midnightblue" points="53.7471,-25.7034 44.9823,-19.7511 48.1221,-29.87 53.7471,-25.7034"/>
</g>
<!-- Node2 -->
<g id="node3" class="node"><title>Node2</title>
<polygon fill="white" stroke="#bfbfbf" points="95,-0.5 95,-19.5 142,-19.5 142,-0.5 95,-0.5"/>
<text text-anchor="middle" x="118.5" y="-7.5" font-family="Helvetica,sans-Serif" font-size="10.00">vector</text>
</g>
<!-- Node0&#45;&gt;Node2 -->
<g id="edge2" class="edge"><title>Node0&#45;&gt;Node2</title>
<path fill="none" stroke="midnightblue" d="M85.1052,-56.083C90.7552,-48.4554 99.0448,-37.2645 105.951,-27.9408"/>
<polygon fill="midnightblue" stroke="midnightblue" points="108.878,-29.87 112.018,-19.7511 103.253,-25.7034 108.878,-29.87"/>
</g>
</g>
</svg>
