<?xml version="1.0" encoding="UTF-8" standalone="no"?>
<!DOCTYPE svg PUBLIC "-//W3C//DTD SVG 1.1//EN"
 "http://www.w3.org/Graphics/SVG/1.1/DTD/svg11.dtd">
<!-- Generated by graphviz version 2.38.0 (20140413.2041)
 -->
<!-- Title: src/analysis/plot/HistogramFactory.h Pages: 1 -->
<svg width="581pt" height="207pt"
 viewBox="0.00 0.00 581.00 207.00" xmlns="http://www.w3.org/2000/svg" xmlns:xlink="http://www.w3.org/1999/xlink">
<g id="graph0" class="graph" transform="scale(1 1) rotate(0) translate(4 203)">
<title>src/analysis/plot/HistogramFactory.h</title>
<polygon fill="white" stroke="none" points="-4,4 -4,-203 577,-203 577,4 -4,4"/>
<!-- Node0 -->
<g id="node1" class="node"><title>Node0</title>
<polygon fill="#bfbfbf" stroke="black" points="387,-168.5 387,-198.5 533,-198.5 533,-168.5 387,-168.5"/>
<text text-anchor="start" x="395" y="-186.5" font-family="Helvetica,sans-Serif" font-size="10.00">src/analysis/plot/Histogram</text>
<text text-anchor="middle" x="460" y="-175.5" font-family="Helvetica,sans-Serif" font-size="10.00">Factory.h</text>
</g>
<!-- Node1 -->
<g id="node2" class="node"><title>Node1</title>
<g id="a_node2"><a xlink:href="interval_8h.html" target="_top" xlink:title="base/interval.h">
<polygon fill="white" stroke="black" points="264.5,-56.5 264.5,-75.5 351.5,-75.5 351.5,-56.5 264.5,-56.5"/>
<text text-anchor="middle" x="308" y="-63.5" font-family="Helvetica,sans-Serif" font-size="10.00">base/interval.h</text>
</a>
</g>
</g>
<!-- Node0&#45;&gt;Node1 -->
<g id="edge1" class="edge"><title>Node0&#45;&gt;Node1</title>
<path fill="none" stroke="midnightblue" d="M420.078,-168.444C399.536,-159.954 374.91,-147.715 356,-132 339.871,-118.596 326.21,-98.6799 317.635,-84.429"/>
<polygon fill="midnightblue" stroke="midnightblue" points="320.578,-82.5251 312.544,-75.6177 314.517,-86.0273 320.578,-82.5251"/>
</g>
<!-- Node9 -->
<g id="node10" class="node"><title>Node9</title>
<g id="a_node10"><a xlink:href="_bin_settings_8h.html" target="_top" xlink:title="base/BinSettings.h">
<polygon fill="white" stroke="black" points="365.5,-112.5 365.5,-131.5 472.5,-131.5 472.5,-112.5 365.5,-112.5"/>
<text text-anchor="middle" x="419" y="-119.5" font-family="Helvetica,sans-Serif" font-size="10.00">base/BinSettings.h</text>
</a>
</g>
</g>
<!-- Node0&#45;&gt;Node9 -->
<g id="edge9" class="edge"><title>Node0&#45;&gt;Node9</title>
<path fill="none" stroke="midnightblue" d="M450.284,-168.399C444.449,-159.932 436.984,-149.099 430.81,-140.139"/>
<polygon fill="midnightblue" stroke="midnightblue" points="433.522,-137.906 424.966,-131.658 427.758,-141.878 433.522,-137.906"/>
</g>
<!-- Node10 -->
<g id="node11" class="node"><title>Node10</title>
<polygon fill="white" stroke="#bfbfbf" points="522.5,-56.5 522.5,-75.5 569.5,-75.5 569.5,-56.5 522.5,-56.5"/>
<text text-anchor="middle" x="546" y="-63.5" font-family="Helvetica,sans-Serif" font-size="10.00">vector</text>
</g>
<!-- Node0&#45;&gt;Node10 -->
<g id="edge16" class="edge"><title>Node0&#45;&gt;Node10</title>
<path fill="none" stroke="midnightblue" d="M470.545,-168.337C486.463,-146.96 516.566,-106.53 533.542,-83.7309"/>
<polygon fill="midnightblue" stroke="midnightblue" points="536.38,-85.7805 539.545,-75.6695 530.765,-81.6 536.38,-85.7805"/>
</g>
<!-- Node12 -->
<g id="node13" class="node"><title>Node12</title>
<polygon fill="white" stroke="#bfbfbf" points="529,-112.5 529,-131.5 573,-131.5 573,-112.5 529,-112.5"/>
<text text-anchor="middle" x="551" y="-119.5" font-family="Helvetica,sans-Serif" font-size="10.00">string</text>
</g>
<!-- Node0&#45;&gt;Node12 -->
<g id="edge15" class="edge"><title>Node0&#45;&gt;Node12</title>
<path fill="none" stroke="midnightblue" d="M481.566,-168.399C495.88,-159.04 514.612,-146.792 529.011,-137.377"/>
<polygon fill="midnightblue" stroke="midnightblue" points="531.304,-140.06 537.759,-131.658 527.474,-134.201 531.304,-140.06"/>
</g>
<!-- Node2 -->
<g id="node3" class="node"><title>Node2</title>
<g id="a_node3"><a xlink:href="types_8h.html" target="_top" xlink:title="types.h">
<polygon fill="white" stroke="black" points="0,-0.5 0,-19.5 52,-19.5 52,-0.5 0,-0.5"/>
<text text-anchor="middle" x="26" y="-7.5" font-family="Helvetica,sans-Serif" font-size="10.00">types.h</text>
</a>
</g>
</g>
<!-- Node1&#45;&gt;Node2 -->
<g id="edge2" class="edge"><title>Node1&#45;&gt;Node2</title>
<path fill="none" stroke="midnightblue" d="M264.086,-57.9739C216.582,-50.1568 138.417,-36.6682 62.1041,-20.1236"/>
<polygon fill="midnightblue" stroke="midnightblue" points="62.842,-16.7024 52.325,-17.9842 61.3459,-23.5407 62.842,-16.7024"/>
</g>
<!-- Node3 -->
<g id="node4" class="node"><title>Node3</title>
<polygon fill="white" stroke="#bfbfbf" points="70,-0.5 70,-19.5 132,-19.5 132,-0.5 70,-0.5"/>
<text text-anchor="middle" x="101" y="-7.5" font-family="Helvetica,sans-Serif" font-size="10.00">algorithm</text>
</g>
<!-- Node1&#45;&gt;Node3 -->
<g id="edge3" class="edge"><title>Node1&#45;&gt;Node3</title>
<path fill="none" stroke="midnightblue" d="M275.2,-56.4435C239.201,-47.0524 181.343,-31.959 142.283,-21.7695"/>
<polygon fill="midnightblue" stroke="midnightblue" points="142.851,-18.3006 132.291,-19.1629 141.084,-25.0739 142.851,-18.3006"/>
</g>
<!-- Node4 -->
<g id="node5" class="node"><title>Node4</title>
<polygon fill="white" stroke="#bfbfbf" points="350,-0.5 350,-19.5 414,-19.5 414,-0.5 350,-0.5"/>
<text text-anchor="middle" x="382" y="-7.5" font-family="Helvetica,sans-Serif" font-size="10.00">stdexcept</text>
</g>
<!-- Node1&#45;&gt;Node4 -->
<g id="edge4" class="edge"><title>Node1&#45;&gt;Node4</title>
<path fill="none" stroke="midnightblue" d="M319.889,-56.324C331.15,-48.1066 348.287,-35.6017 361.709,-25.8069"/>
<polygon fill="midnightblue" stroke="midnightblue" points="363.88,-28.5559 369.894,-19.8339 359.753,-22.9014 363.88,-28.5559"/>
</g>
<!-- Node5 -->
<g id="node6" class="node"><title>Node5</title>
<polygon fill="white" stroke="#bfbfbf" points="150,-0.5 150,-19.5 192,-19.5 192,-0.5 150,-0.5"/>
<text text-anchor="middle" x="171" y="-7.5" font-family="Helvetica,sans-Serif" font-size="10.00">limits</text>
</g>
<!-- Node1&#45;&gt;Node5 -->
<g id="edge5" class="edge"><title>Node1&#45;&gt;Node5</title>
<path fill="none" stroke="midnightblue" d="M286.292,-56.4435C263.512,-47.4646 227.507,-33.2729 201.796,-23.1386"/>
<polygon fill="midnightblue" stroke="midnightblue" points="202.743,-19.7499 192.156,-19.339 200.176,-26.2623 202.743,-19.7499"/>
</g>
<!-- Node6 -->
<g id="node7" class="node"><title>Node6</title>
<polygon fill="white" stroke="#bfbfbf" points="432.5,-0.5 432.5,-19.5 485.5,-19.5 485.5,-0.5 432.5,-0.5"/>
<text text-anchor="middle" x="459" y="-7.5" font-family="Helvetica,sans-Serif" font-size="10.00">istream</text>
</g>
<!-- Node1&#45;&gt;Node6 -->
<g id="edge6" class="edge"><title>Node1&#45;&gt;Node6</title>
<path fill="none" stroke="midnightblue" d="M331.926,-56.4435C357.219,-47.3986 397.302,-33.064 425.68,-22.9158"/>
<polygon fill="midnightblue" stroke="midnightblue" points="426.948,-26.1794 435.186,-19.5164 424.591,-19.5882 426.948,-26.1794"/>
</g>
<!-- Node7 -->
<g id="node8" class="node"><title>Node7</title>
<polygon fill="white" stroke="#bfbfbf" points="210,-0.5 210,-19.5 266,-19.5 266,-0.5 210,-0.5"/>
<text text-anchor="middle" x="238" y="-7.5" font-family="Helvetica,sans-Serif" font-size="10.00">sstream</text>
</g>
<!-- Node1&#45;&gt;Node7 -->
<g id="edge7" class="edge"><title>Node1&#45;&gt;Node7</title>
<path fill="none" stroke="midnightblue" d="M296.753,-56.324C286.203,-48.1849 270.199,-35.8395 257.558,-26.0874"/>
<polygon fill="midnightblue" stroke="midnightblue" points="259.507,-23.1707 249.451,-19.8339 255.231,-28.7132 259.507,-23.1707"/>
</g>
<!-- Node8 -->
<g id="node9" class="node"><title>Node8</title>
<polygon fill="white" stroke="#bfbfbf" points="284.5,-0.5 284.5,-19.5 331.5,-19.5 331.5,-0.5 284.5,-0.5"/>
<text text-anchor="middle" x="308" y="-7.5" font-family="Helvetica,sans-Serif" font-size="10.00">cmath</text>
</g>
<!-- Node1&#45;&gt;Node8 -->
<g id="edge8" class="edge"><title>Node1&#45;&gt;Node8</title>
<path fill="none" stroke="midnightblue" d="M308,-56.083C308,-49.0059 308,-38.8611 308,-29.9865"/>
<polygon fill="midnightblue" stroke="midnightblue" points="311.5,-29.751 308,-19.7511 304.5,-29.7511 311.5,-29.751"/>
</g>
<!-- Node9&#45;&gt;Node1 -->
<g id="edge10" class="edge"><title>Node9&#45;&gt;Node1</title>
<path fill="none" stroke="midnightblue" d="M401.166,-112.324C383.284,-103.625 355.525,-90.1202 334.954,-80.113"/>
<polygon fill="midnightblue" stroke="midnightblue" points="336.313,-76.8819 325.79,-75.6545 333.251,-83.1765 336.313,-76.8819"/>
</g>
<!-- Node9&#45;&gt;Node4 -->
<g id="edge12" class="edge"><title>Node9&#45;&gt;Node4</title>
<path fill="none" stroke="midnightblue" d="M416.097,-112.368C410.099,-94.5366 396.227,-53.2953 388.146,-29.2717"/>
<polygon fill="midnightblue" stroke="midnightblue" points="391.395,-27.9537 384.89,-19.5914 384.761,-30.1855 391.395,-27.9537"/>
</g>
<!-- Node9&#45;&gt;Node6 -->
<g id="edge13" class="edge"><title>Node9&#45;&gt;Node6</title>
<path fill="none" stroke="midnightblue" d="M421.056,-112.451C424.174,-99.8925 430.535,-75.8021 438,-56 441.421,-46.9245 445.891,-37.1351 449.827,-29.012"/>
<polygon fill="midnightblue" stroke="midnightblue" points="453.093,-30.3058 454.408,-19.793 446.824,-27.1907 453.093,-30.3058"/>
</g>
<!-- Node9&#45;&gt;Node10 -->
<g id="edge11" class="edge"><title>Node9&#45;&gt;Node10</title>
<path fill="none" stroke="midnightblue" d="M439.124,-112.444C460.024,-103.557 492.935,-89.5632 516.716,-79.4514"/>
<polygon fill="midnightblue" stroke="midnightblue" points="518.138,-82.6504 525.971,-75.5164 515.398,-76.2085 518.138,-82.6504"/>
</g>
<!-- Node11 -->
<g id="node12" class="node"><title>Node11</title>
<polygon fill="white" stroke="#bfbfbf" points="447.5,-56.5 447.5,-75.5 504.5,-75.5 504.5,-56.5 447.5,-56.5"/>
<text text-anchor="middle" x="476" y="-63.5" font-family="Helvetica,sans-Serif" font-size="10.00">ostream</text>
</g>
<!-- Node9&#45;&gt;Node11 -->
<g id="edge14" class="edge"><title>Node9&#45;&gt;Node11</title>
<path fill="none" stroke="midnightblue" d="M428.158,-112.324C436.501,-104.42 449.032,-92.5482 459.177,-82.9377"/>
<polygon fill="midnightblue" stroke="midnightblue" points="461.823,-85.2522 466.675,-75.8339 457.009,-80.1705 461.823,-85.2522"/>
</g>
</g>
</svg>
