<?xml version="1.0" encoding="UTF-8" standalone="no"?>
<!DOCTYPE svg PUBLIC "-//W3C//DTD SVG 1.1//EN"
 "http://www.w3.org/Graphics/SVG/1.1/DTD/svg11.dtd">
<!-- Generated by graphviz version 2.38.0 (20140413.2041)
 -->
<!-- Title: src/analysis/plot/HistogramFactory.cc Pages: 1 -->
<svg width="1287pt" height="263pt"
 viewBox="0.00 0.00 1287.00 263.00" xmlns="http://www.w3.org/2000/svg" xmlns:xlink="http://www.w3.org/1999/xlink">
<g id="graph0" class="graph" transform="scale(1 1) rotate(0) translate(4 259)">
<title>src/analysis/plot/HistogramFactory.cc</title>
<polygon fill="white" stroke="none" points="-4,4 -4,-259 1283,-259 1283,4 -4,4"/>
<!-- Node0 -->
<g id="node1" class="node"><title>Node0</title>
<polygon fill="#bfbfbf" stroke="black" points="705,-224.5 705,-254.5 851,-254.5 851,-224.5 705,-224.5"/>
<text text-anchor="start" x="713" y="-242.5" font-family="Helvetica,sans-Serif" font-size="10.00">src/analysis/plot/Histogram</text>
<text text-anchor="middle" x="778" y="-231.5" font-family="Helvetica,sans-Serif" font-size="10.00">Factory.cc</text>
</g>
<!-- Node1 -->
<g id="node2" class="node"><title>Node1</title>
<g id="a_node2"><a xlink:href="_histogram_factory_8h.html" target="_top" xlink:title="HistogramFactory.h">
<polygon fill="white" stroke="black" points="208.5,-168.5 208.5,-187.5 317.5,-187.5 317.5,-168.5 208.5,-168.5"/>
<text text-anchor="middle" x="263" y="-175.5" font-family="Helvetica,sans-Serif" font-size="10.00">HistogramFactory.h</text>
</a>
</g>
</g>
<!-- Node0&#45;&gt;Node1 -->
<g id="edge1" class="edge"><title>Node0&#45;&gt;Node1</title>
<path fill="none" stroke="midnightblue" d="M704.76,-230.038C604.016,-218.399 424.251,-197.63 328.025,-186.513"/>
<polygon fill="midnightblue" stroke="midnightblue" points="328.183,-183.008 317.847,-185.337 327.379,-189.961 328.183,-183.008"/>
</g>
<!-- Node4 -->
<g id="node5" class="node"><title>Node4</title>
<polygon fill="white" stroke="#bfbfbf" points="0,-0.5 0,-19.5 62,-19.5 62,-0.5 0,-0.5"/>
<text text-anchor="middle" x="31" y="-7.5" font-family="Helvetica,sans-Serif" font-size="10.00">algorithm</text>
</g>
<!-- Node0&#45;&gt;Node4 -->
<g id="edge31" class="edge"><title>Node0&#45;&gt;Node4</title>
<path fill="none" stroke="midnightblue" d="M704.822,-235.738C563.305,-229.875 257.077,-214.507 155,-188 96.8623,-172.903 64.7118,-182.377 32,-132 11.6694,-100.69 19.0821,-54.5445 25.5181,-29.246"/>
<polygon fill="midnightblue" stroke="midnightblue" points="28.9211,-30.0716 28.2181,-19.5001 22.1752,-28.2027 28.9211,-30.0716"/>
</g>
<!-- Node9 -->
<g id="node10" class="node"><title>Node9</title>
<polygon fill="white" stroke="#bfbfbf" points="467.5,-0.5 467.5,-19.5 514.5,-19.5 514.5,-0.5 467.5,-0.5"/>
<text text-anchor="middle" x="491" y="-7.5" font-family="Helvetica,sans-Serif" font-size="10.00">cmath</text>
</g>
<!-- Node0&#45;&gt;Node9 -->
<g id="edge32" class="edge"><title>Node0&#45;&gt;Node9</title>
<path fill="none" stroke="midnightblue" d="M704.678,-234.218C634.86,-228.512 536.716,-215.704 511,-188 470.374,-144.233 479.657,-65.7849 486.671,-29.8781"/>
<polygon fill="midnightblue" stroke="midnightblue" points="490.155,-30.3209 488.803,-19.8127 483.307,-28.8707 490.155,-30.3209"/>
</g>
<!-- Node14 -->
<g id="node15" class="node"><title>Node14</title>
<g id="a_node15"><a xlink:href="string_8h.html" target="_top" xlink:title="base/std_ext/string.h">
<polygon fill="white" stroke="black" points="41.5,-112.5 41.5,-131.5 158.5,-131.5 158.5,-112.5 41.5,-112.5"/>
<text text-anchor="middle" x="100" y="-119.5" font-family="Helvetica,sans-Serif" font-size="10.00">base/std_ext/string.h</text>
</a>
</g>
</g>
<!-- Node0&#45;&gt;Node14 -->
<g id="edge18" class="edge"><title>Node0&#45;&gt;Node14</title>
<path fill="none" stroke="midnightblue" d="M704.952,-236.572C570.809,-232.3 290.573,-219.775 199,-188 167.331,-177.011 135.847,-153.657 117.157,-138.143"/>
<polygon fill="midnightblue" stroke="midnightblue" points="119.399,-135.455 109.515,-131.64 114.862,-140.786 119.399,-135.455"/>
</g>
<!-- Node15 -->
<g id="node16" class="node"><title>Node15</title>
<polygon fill="white" stroke="#bfbfbf" points="520.5,-168.5 520.5,-187.5 593.5,-187.5 593.5,-168.5 520.5,-168.5"/>
<text text-anchor="middle" x="557" y="-175.5" font-family="Helvetica,sans-Serif" font-size="10.00">TDirectory.h</text>
</g>
<!-- Node0&#45;&gt;Node15 -->
<g id="edge23" class="edge"><title>Node0&#45;&gt;Node15</title>
<path fill="none" stroke="midnightblue" d="M725.906,-224.475C686.946,-213.986 634.394,-199.837 598.311,-190.122"/>
<polygon fill="midnightblue" stroke="midnightblue" points="599.161,-186.727 588.595,-187.506 597.341,-193.486 599.161,-186.727"/>
</g>
<!-- Node16 -->
<g id="node17" class="node"><title>Node16</title>
<polygon fill="white" stroke="#bfbfbf" points="612,-168.5 612,-187.5 672,-187.5 672,-168.5 612,-168.5"/>
<text text-anchor="middle" x="642" y="-175.5" font-family="Helvetica,sans-Serif" font-size="10.00">TGraph.h</text>
</g>
<!-- Node0&#45;&gt;Node16 -->
<g id="edge24" class="edge"><title>Node0&#45;&gt;Node16</title>
<path fill="none" stroke="midnightblue" d="M745.77,-224.399C723.155,-214.505 693.162,-201.383 671.239,-191.792"/>
<polygon fill="midnightblue" stroke="midnightblue" points="672.354,-188.459 661.789,-187.658 669.548,-194.873 672.354,-188.459"/>
</g>
<!-- Node17 -->
<g id="node18" class="node"><title>Node17</title>
<polygon fill="white" stroke="#bfbfbf" points="689.5,-168.5 689.5,-187.5 778.5,-187.5 778.5,-168.5 689.5,-168.5"/>
<text text-anchor="middle" x="734" y="-175.5" font-family="Helvetica,sans-Serif" font-size="10.00">TGraphErrors.h</text>
</g>
<!-- Node0&#45;&gt;Node17 -->
<g id="edge25" class="edge"><title>Node0&#45;&gt;Node17</title>
<path fill="none" stroke="midnightblue" d="M767.573,-224.399C761.245,-215.842 753.131,-204.871 746.466,-195.857"/>
<polygon fill="midnightblue" stroke="midnightblue" points="749.162,-193.617 740.402,-187.658 743.534,-197.779 749.162,-193.617"/>
</g>
<!-- Node18 -->
<g id="node19" class="node"><title>Node18</title>
<polygon fill="white" stroke="#bfbfbf" points="797,-168.5 797,-187.5 849,-187.5 849,-168.5 797,-168.5"/>
<text text-anchor="middle" x="823" y="-175.5" font-family="Helvetica,sans-Serif" font-size="10.00">TH1D.h</text>
</g>
<!-- Node0&#45;&gt;Node18 -->
<g id="edge26" class="edge"><title>Node0&#45;&gt;Node18</title>
<path fill="none" stroke="midnightblue" d="M788.664,-224.399C795.136,-215.842 803.434,-204.871 810.251,-195.857"/>
<polygon fill="midnightblue" stroke="midnightblue" points="813.211,-197.745 816.452,-187.658 807.628,-193.522 813.211,-197.745"/>
</g>
<!-- Node19 -->
<g id="node20" class="node"><title>Node19</title>
<polygon fill="white" stroke="#bfbfbf" points="867,-168.5 867,-187.5 919,-187.5 919,-168.5 867,-168.5"/>
<text text-anchor="middle" x="893" y="-175.5" font-family="Helvetica,sans-Serif" font-size="10.00">TH2D.h</text>
</g>
<!-- Node0&#45;&gt;Node19 -->
<g id="edge27" class="edge"><title>Node0&#45;&gt;Node19</title>
<path fill="none" stroke="midnightblue" d="M805.253,-224.399C824.032,-214.684 848.826,-201.855 867.268,-192.314"/>
<polygon fill="midnightblue" stroke="midnightblue" points="868.993,-195.362 876.266,-187.658 865.776,-189.145 868.993,-195.362"/>
</g>
<!-- Node20 -->
<g id="node21" class="node"><title>Node20</title>
<polygon fill="white" stroke="#bfbfbf" points="937,-168.5 937,-187.5 989,-187.5 989,-168.5 937,-168.5"/>
<text text-anchor="middle" x="963" y="-175.5" font-family="Helvetica,sans-Serif" font-size="10.00">TH3D.h</text>
</g>
<!-- Node0&#45;&gt;Node20 -->
<g id="edge28" class="edge"><title>Node0&#45;&gt;Node20</title>
<path fill="none" stroke="midnightblue" d="M821.842,-224.399C854.002,-214.056 897.13,-200.185 927.219,-190.508"/>
<polygon fill="midnightblue" stroke="midnightblue" points="928.44,-193.792 936.888,-187.398 926.297,-187.128 928.44,-193.792"/>
</g>
<!-- Node21 -->
<g id="node22" class="node"><title>Node21</title>
<polygon fill="white" stroke="#bfbfbf" points="1007.5,-168.5 1007.5,-187.5 1062.5,-187.5 1062.5,-168.5 1007.5,-168.5"/>
<text text-anchor="middle" x="1035" y="-175.5" font-family="Helvetica,sans-Serif" font-size="10.00">TMath.h</text>
</g>
<!-- Node0&#45;&gt;Node21 -->
<g id="edge29" class="edge"><title>Node0&#45;&gt;Node21</title>
<path fill="none" stroke="midnightblue" d="M840.163,-224.457C881.927,-214.97 938.459,-202.027 997.285,-188.147"/>
<polygon fill="midnightblue" stroke="midnightblue" points="998.202,-191.527 1007.13,-185.82 996.592,-184.714 998.202,-191.527"/>
</g>
<!-- Node22 -->
<g id="node23" class="node"><title>Node22</title>
<polygon fill="white" stroke="#bfbfbf" points="1081,-168.5 1081,-187.5 1131,-187.5 1131,-168.5 1081,-168.5"/>
<text text-anchor="middle" x="1106" y="-175.5" font-family="Helvetica,sans-Serif" font-size="10.00">TTree.h</text>
</g>
<!-- Node0&#45;&gt;Node22 -->
<g id="edge30" class="edge"><title>Node0&#45;&gt;Node22</title>
<path fill="none" stroke="midnightblue" d="M851.142,-227.782C908.507,-218.951 990.525,-205.393 1071,-188.066"/>
<polygon fill="midnightblue" stroke="midnightblue" points="1071.78,-191.479 1080.81,-185.934 1070.29,-184.639 1071.78,-191.479"/>
</g>
<!-- Node23 -->
<g id="node24" class="node"><title>Node23</title>
<polygon fill="white" stroke="#bfbfbf" points="1149.5,-168.5 1149.5,-187.5 1204.5,-187.5 1204.5,-168.5 1149.5,-168.5"/>
<text text-anchor="middle" x="1177" y="-175.5" font-family="Helvetica,sans-Serif" font-size="10.00">iomanip</text>
</g>
<!-- Node0&#45;&gt;Node23 -->
<g id="edge33" class="edge"><title>Node0&#45;&gt;Node23</title>
<path fill="none" stroke="midnightblue" d="M851.155,-230.472C922.304,-222.169 1033.6,-207.875 1139.3,-187.963"/>
<polygon fill="midnightblue" stroke="midnightblue" points="1140.02,-191.39 1149.18,-186.082 1138.71,-184.514 1140.02,-191.39"/>
</g>
<!-- Node24 -->
<g id="node25" class="node"><title>Node24</title>
<polygon fill="white" stroke="#bfbfbf" points="1223,-168.5 1223,-187.5 1279,-187.5 1279,-168.5 1223,-168.5"/>
<text text-anchor="middle" x="1251" y="-175.5" font-family="Helvetica,sans-Serif" font-size="10.00">numeric</text>
</g>
<!-- Node0&#45;&gt;Node24 -->
<g id="edge34" class="edge"><title>Node0&#45;&gt;Node24</title>
<path fill="none" stroke="midnightblue" d="M851.303,-232.789C936.145,-225.554 1080.17,-211.352 1212.86,-188.01"/>
<polygon fill="midnightblue" stroke="midnightblue" points="1213.56,-191.439 1222.79,-186.24 1212.34,-184.548 1213.56,-191.439"/>
</g>
<!-- Node2 -->
<g id="node3" class="node"><title>Node2</title>
<g id="a_node3"><a xlink:href="interval_8h.html" target="_top" xlink:title="base/interval.h">
<polygon fill="white" stroke="black" points="224.5,-56.5 224.5,-75.5 311.5,-75.5 311.5,-56.5 224.5,-56.5"/>
<text text-anchor="middle" x="268" y="-63.5" font-family="Helvetica,sans-Serif" font-size="10.00">base/interval.h</text>
</a>
</g>
</g>
<!-- Node1&#45;&gt;Node2 -->
<g id="edge2" class="edge"><title>Node1&#45;&gt;Node2</title>
<path fill="none" stroke="midnightblue" d="M263.392,-168.368C264.199,-150.617 266.061,-109.666 267.155,-85.5974"/>
<polygon fill="midnightblue" stroke="midnightblue" points="270.652,-85.7401 267.609,-75.5914 263.659,-85.4221 270.652,-85.7401"/>
</g>
<!-- Node10 -->
<g id="node11" class="node"><title>Node10</title>
<g id="a_node11"><a xlink:href="_bin_settings_8h.html" target="_top" xlink:title="base/BinSettings.h">
<polygon fill="white" stroke="black" points="291.5,-112.5 291.5,-131.5 398.5,-131.5 398.5,-112.5 291.5,-112.5"/>
<text text-anchor="middle" x="345" y="-119.5" font-family="Helvetica,sans-Serif" font-size="10.00">base/BinSettings.h</text>
</a>
</g>
</g>
<!-- Node1&#45;&gt;Node10 -->
<g id="edge10" class="edge"><title>Node1&#45;&gt;Node10</title>
<path fill="none" stroke="midnightblue" d="M276.175,-168.324C288.847,-159.979 308.233,-147.212 323.206,-137.352"/>
<polygon fill="midnightblue" stroke="midnightblue" points="325.431,-140.078 331.858,-131.655 321.581,-134.231 325.431,-140.078"/>
</g>
<!-- Node11 -->
<g id="node12" class="node"><title>Node11</title>
<polygon fill="white" stroke="#bfbfbf" points="159.5,-56.5 159.5,-75.5 206.5,-75.5 206.5,-56.5 159.5,-56.5"/>
<text text-anchor="middle" x="183" y="-63.5" font-family="Helvetica,sans-Serif" font-size="10.00">vector</text>
</g>
<!-- Node1&#45;&gt;Node11 -->
<g id="edge17" class="edge"><title>Node1&#45;&gt;Node11</title>
<path fill="none" stroke="midnightblue" d="M256.723,-168.368C243.52,-150.215 212.674,-107.802 195.356,-83.9902"/>
<polygon fill="midnightblue" stroke="midnightblue" points="197.961,-81.6202 189.248,-75.5914 192.299,-85.7374 197.961,-81.6202"/>
</g>
<!-- Node13 -->
<g id="node14" class="node"><title>Node13</title>
<polygon fill="white" stroke="#bfbfbf" points="97,-56.5 97,-75.5 141,-75.5 141,-56.5 97,-56.5"/>
<text text-anchor="middle" x="119" y="-63.5" font-family="Helvetica,sans-Serif" font-size="10.00">string</text>
</g>
<!-- Node1&#45;&gt;Node13 -->
<g id="edge16" class="edge"><title>Node1&#45;&gt;Node13</title>
<path fill="none" stroke="midnightblue" d="M251.701,-168.368C227.2,-149.653 168.943,-105.151 138.417,-81.8324"/>
<polygon fill="midnightblue" stroke="midnightblue" points="140.318,-78.8805 130.247,-75.5914 136.069,-84.4432 140.318,-78.8805"/>
</g>
<!-- Node3 -->
<g id="node4" class="node"><title>Node3</title>
<g id="a_node4"><a xlink:href="types_8h.html" target="_top" xlink:title="types.h">
<polygon fill="white" stroke="black" points="242,-0.5 242,-19.5 294,-19.5 294,-0.5 242,-0.5"/>
<text text-anchor="middle" x="268" y="-7.5" font-family="Helvetica,sans-Serif" font-size="10.00">types.h</text>
</a>
</g>
</g>
<!-- Node2&#45;&gt;Node3 -->
<g id="edge3" class="edge"><title>Node2&#45;&gt;Node3</title>
<path fill="none" stroke="midnightblue" d="M268,-56.083C268,-49.0059 268,-38.8611 268,-29.9865"/>
<polygon fill="midnightblue" stroke="midnightblue" points="271.5,-29.751 268,-19.7511 264.5,-29.7511 271.5,-29.751"/>
</g>
<!-- Node2&#45;&gt;Node4 -->
<g id="edge4" class="edge"><title>Node2&#45;&gt;Node4</title>
<path fill="none" stroke="midnightblue" d="M230.447,-56.4435C187.338,-46.6214 116.854,-30.5616 72.2497,-20.3987"/>
<polygon fill="midnightblue" stroke="midnightblue" points="72.8504,-16.9459 62.3227,-18.1368 71.2953,-23.771 72.8504,-16.9459"/>
</g>
<!-- Node5 -->
<g id="node6" class="node"><title>Node5</title>
<polygon fill="white" stroke="#bfbfbf" points="385,-0.5 385,-19.5 449,-19.5 449,-0.5 385,-0.5"/>
<text text-anchor="middle" x="417" y="-7.5" font-family="Helvetica,sans-Serif" font-size="10.00">stdexcept</text>
</g>
<!-- Node2&#45;&gt;Node5 -->
<g id="edge5" class="edge"><title>Node2&#45;&gt;Node5</title>
<path fill="none" stroke="midnightblue" d="M291.609,-56.4435C316.458,-47.4381 355.774,-33.1891 383.754,-23.049"/>
<polygon fill="midnightblue" stroke="midnightblue" points="385.292,-26.2144 393.501,-19.5164 382.907,-19.6332 385.292,-26.2144"/>
</g>
<!-- Node6 -->
<g id="node7" class="node"><title>Node6</title>
<polygon fill="white" stroke="#bfbfbf" points="182,-0.5 182,-19.5 224,-19.5 224,-0.5 182,-0.5"/>
<text text-anchor="middle" x="203" y="-7.5" font-family="Helvetica,sans-Serif" font-size="10.00">limits</text>
</g>
<!-- Node2&#45;&gt;Node6 -->
<g id="edge6" class="edge"><title>Node2&#45;&gt;Node6</title>
<path fill="none" stroke="midnightblue" d="M257.557,-56.324C247.854,-48.2631 233.185,-36.0765 221.5,-26.3695"/>
<polygon fill="midnightblue" stroke="midnightblue" points="223.562,-23.532 213.633,-19.8339 219.089,-28.9163 223.562,-23.532"/>
</g>
<!-- Node7 -->
<g id="node8" class="node"><title>Node7</title>
<polygon fill="white" stroke="#bfbfbf" points="312.5,-0.5 312.5,-19.5 365.5,-19.5 365.5,-0.5 312.5,-0.5"/>
<text text-anchor="middle" x="339" y="-7.5" font-family="Helvetica,sans-Serif" font-size="10.00">istream</text>
</g>
<!-- Node2&#45;&gt;Node7 -->
<g id="edge7" class="edge"><title>Node2&#45;&gt;Node7</title>
<path fill="none" stroke="midnightblue" d="M279.407,-56.324C290.109,-48.1849 306.341,-35.8395 319.163,-26.0874"/>
<polygon fill="midnightblue" stroke="midnightblue" points="321.544,-28.6734 327.385,-19.8339 317.307,-23.1018 321.544,-28.6734"/>
</g>
<!-- Node8 -->
<g id="node9" class="node"><title>Node8</title>
<polygon fill="white" stroke="#bfbfbf" points="94,-0.5 94,-19.5 150,-19.5 150,-0.5 94,-0.5"/>
<text text-anchor="middle" x="122" y="-7.5" font-family="Helvetica,sans-Serif" font-size="10.00">sstream</text>
</g>
<!-- Node2&#45;&gt;Node8 -->
<g id="edge8" class="edge"><title>Node2&#45;&gt;Node8</title>
<path fill="none" stroke="midnightblue" d="M244.866,-56.4435C220.518,-47.4381 181.993,-33.1891 154.577,-23.049"/>
<polygon fill="midnightblue" stroke="midnightblue" points="155.619,-19.7028 145.026,-19.5164 153.191,-26.2681 155.619,-19.7028"/>
</g>
<!-- Node2&#45;&gt;Node9 -->
<g id="edge9" class="edge"><title>Node2&#45;&gt;Node9</title>
<path fill="none" stroke="midnightblue" d="M305.584,-56.4918C341.955,-48.1708 398.875,-34.9198 457.439,-20.0778"/>
<polygon fill="midnightblue" stroke="midnightblue" points="458.405,-23.4438 467.232,-17.5848 456.678,-16.6601 458.405,-23.4438"/>
</g>
<!-- Node10&#45;&gt;Node2 -->
<g id="edge11" class="edge"><title>Node10&#45;&gt;Node2</title>
<path fill="none" stroke="midnightblue" d="M332.629,-112.324C320.842,-104.058 302.868,-91.4527 288.864,-81.6322"/>
<polygon fill="midnightblue" stroke="midnightblue" points="290.538,-78.5307 280.341,-75.6545 286.518,-84.2619 290.538,-78.5307"/>
</g>
<!-- Node10&#45;&gt;Node5 -->
<g id="edge13" class="edge"><title>Node10&#45;&gt;Node5</title>
<path fill="none" stroke="midnightblue" d="M381.702,-112.349C400.834,-105.775 422.572,-94.5833 434,-76 442.948,-61.4485 436.095,-42.2732 428.59,-28.5269"/>
<polygon fill="midnightblue" stroke="midnightblue" points="431.384,-26.3822 423.228,-19.6207 425.388,-29.9931 431.384,-26.3822"/>
</g>
<!-- Node10&#45;&gt;Node7 -->
<g id="edge14" class="edge"><title>Node10&#45;&gt;Node7</title>
<path fill="none" stroke="midnightblue" d="M344.529,-112.368C343.561,-94.617 341.327,-53.6664 340.014,-29.5974"/>
<polygon fill="midnightblue" stroke="midnightblue" points="343.508,-29.3859 339.469,-19.5914 336.519,-29.7672 343.508,-29.3859"/>
</g>
<!-- Node10&#45;&gt;Node11 -->
<g id="edge12" class="edge"><title>Node10&#45;&gt;Node11</title>
<path fill="none" stroke="midnightblue" d="M319.331,-112.444C291.516,-103.172 247.028,-88.3427 216.484,-78.1614"/>
<polygon fill="midnightblue" stroke="midnightblue" points="217.298,-74.7435 206.705,-74.9015 215.085,-81.3843 217.298,-74.7435"/>
</g>
<!-- Node12 -->
<g id="node13" class="node"><title>Node12</title>
<polygon fill="white" stroke="#bfbfbf" points="368.5,-56.5 368.5,-75.5 425.5,-75.5 425.5,-56.5 368.5,-56.5"/>
<text text-anchor="middle" x="397" y="-63.5" font-family="Helvetica,sans-Serif" font-size="10.00">ostream</text>
</g>
<!-- Node10&#45;&gt;Node12 -->
<g id="edge15" class="edge"><title>Node10&#45;&gt;Node12</title>
<path fill="none" stroke="midnightblue" d="M353.587,-112.083C361.159,-104.22 372.378,-92.5688 381.514,-83.0813"/>
<polygon fill="midnightblue" stroke="midnightblue" points="384.158,-85.3821 388.573,-75.7511 379.115,-80.5266 384.158,-85.3821"/>
</g>
<!-- Node14&#45;&gt;Node4 -->
<g id="edge21" class="edge"><title>Node14&#45;&gt;Node4</title>
<path fill="none" stroke="midnightblue" d="M94.5857,-112.368C83.2491,-94.2957 56.8288,-52.1764 41.8564,-28.3074"/>
<polygon fill="midnightblue" stroke="midnightblue" points="44.668,-26.2029 36.3892,-19.5914 38.7381,-29.9226 44.668,-26.2029"/>
</g>
<!-- Node14&#45;&gt;Node8 -->
<g id="edge20" class="edge"><title>Node14&#45;&gt;Node8</title>
<path fill="none" stroke="midnightblue" d="M95.7189,-112.393C90.0337,-99.7631 81.4333,-75.5842 88,-56 91.6041,-45.2512 98.9028,-35.0204 105.817,-27.0378"/>
<polygon fill="midnightblue" stroke="midnightblue" points="108.477,-29.3168 112.712,-19.6053 103.345,-24.5561 108.477,-29.3168"/>
</g>
<!-- Node14&#45;&gt;Node11 -->
<g id="edge22" class="edge"><title>Node14&#45;&gt;Node11</title>
<path fill="none" stroke="midnightblue" d="M113.335,-112.324C126.162,-103.979 145.785,-91.2122 160.94,-81.3524"/>
<polygon fill="midnightblue" stroke="midnightblue" points="163.224,-84.0417 169.698,-75.6545 159.407,-78.1742 163.224,-84.0417"/>
</g>
<!-- Node14&#45;&gt;Node13 -->
<g id="edge19" class="edge"><title>Node14&#45;&gt;Node13</title>
<path fill="none" stroke="midnightblue" d="M103.137,-112.083C105.683,-104.849 109.356,-94.4087 112.527,-85.3968"/>
<polygon fill="midnightblue" stroke="midnightblue" points="115.903,-86.3459 115.921,-75.7511 109.3,-84.0225 115.903,-86.3459"/>
</g>
</g>
</svg>
