<?xml version="1.0" encoding="UTF-8" standalone="no"?>
<!DOCTYPE svg PUBLIC "-//W3C//DTD SVG 1.1//EN"
 "http://www.w3.org/Graphics/SVG/1.1/DTD/svg11.dtd">
<!-- Generated by graphviz version 2.38.0 (20140413.2041)
 -->
<!-- Title: src/analysis/plot/HistStyle.h Pages: 1 -->
<svg width="2893pt" height="240pt"
 viewBox="0.00 0.00 2893.00 240.00" xmlns="http://www.w3.org/2000/svg" xmlns:xlink="http://www.w3.org/1999/xlink">
<g id="graph0" class="graph" transform="scale(1 1) rotate(0) translate(4 236)">
<title>src/analysis/plot/HistStyle.h</title>
<polygon fill="white" stroke="none" points="-4,4 -4,-236 2889,-236 2889,4 -4,4"/>
<!-- Node4 -->
<g id="node1" class="node"><title>Node4</title>
<polygon fill="#bfbfbf" stroke="black" points="2112,-212.5 2112,-231.5 2260,-231.5 2260,-212.5 2112,-212.5"/>
<text text-anchor="middle" x="2186" y="-219.5" font-family="Helvetica,sans-Serif" font-size="10.00">src/analysis/plot/HistStyle.h</text>
</g>
<!-- Node5 -->
<g id="node2" class="node"><title>Node5</title>
<g id="a_node2"><a xlink:href="_m_c_clustering_check_8cc.html" target="_top" xlink:title="src/analysis/physics\l/check/MCClusteringCheck.cc">
<polygon fill="white" stroke="black" points="2338,-6 2338,-36 2494,-36 2494,-6 2338,-6"/>
<text text-anchor="start" x="2346" y="-24" font-family="Helvetica,sans-Serif" font-size="10.00">src/analysis/physics</text>
<text text-anchor="middle" x="2416" y="-13" font-family="Helvetica,sans-Serif" font-size="10.00">/check/MCClusteringCheck.cc</text>
</a>
</g>
</g>
<!-- Node4&#45;&gt;Node5 -->
<g id="edge1" class="edge"><title>Node4&#45;&gt;Node5</title>
<path fill="none" stroke="midnightblue" d="M2185.22,-202.292C2185.59,-184.835 2189.13,-159.383 2205,-145 2286.23,-71.3978 2377.37,-191.976 2449,-109 2467.47,-87.601 2445.27,-54.8033 2429.37,-36.1908"/>
<polygon fill="midnightblue" stroke="midnightblue" points="2181.73,-202.454 2185.34,-212.412 2188.72,-202.373 2181.73,-202.454"/>
</g>
<!-- Node6 -->
<g id="node3" class="node"><title>Node6</title>
<g id="a_node3"><a xlink:href="_m_c_gun_check_8cc.html" target="_top" xlink:title="src/analysis/physics\l/check/MCGunCheck.cc">
<polygon fill="white" stroke="black" points="2214,-145.5 2214,-175.5 2342,-175.5 2342,-145.5 2214,-145.5"/>
<text text-anchor="start" x="2222" y="-163.5" font-family="Helvetica,sans-Serif" font-size="10.00">src/analysis/physics</text>
<text text-anchor="middle" x="2278" y="-152.5" font-family="Helvetica,sans-Serif" font-size="10.00">/check/MCGunCheck.cc</text>
</a>
</g>
</g>
<!-- Node4&#45;&gt;Node6 -->
<g id="edge2" class="edge"><title>Node4&#45;&gt;Node6</title>
<path fill="none" stroke="midnightblue" d="M2207.63,-207.008C2222.31,-197.518 2241.63,-185.02 2256.32,-175.523"/>
<polygon fill="midnightblue" stroke="midnightblue" points="2205.68,-204.106 2199.18,-212.475 2209.48,-209.983 2205.68,-204.106"/>
</g>
<!-- Node7 -->
<g id="node4" class="node"><title>Node7</title>
<g id="a_node4"><a xlink:href="_m_c_photon_pair_check_8cc.html" target="_top" xlink:title="src/analysis/physics\l/check/MCPhotonPairCheck.cc">
<polygon fill="white" stroke="black" points="2360.5,-145.5 2360.5,-175.5 2519.5,-175.5 2519.5,-145.5 2360.5,-145.5"/>
<text text-anchor="start" x="2368.5" y="-163.5" font-family="Helvetica,sans-Serif" font-size="10.00">src/analysis/physics</text>
<text text-anchor="middle" x="2440" y="-152.5" font-family="Helvetica,sans-Serif" font-size="10.00">/check/MCPhotonPairCheck.cc</text>
</a>
</g>
</g>
<!-- Node4&#45;&gt;Node7 -->
<g id="edge3" class="edge"><title>Node4&#45;&gt;Node7</title>
<path fill="none" stroke="midnightblue" d="M2232.24,-210.169C2273.74,-200.447 2334.91,-186.118 2380.14,-175.523"/>
<polygon fill="midnightblue" stroke="midnightblue" points="2231.33,-206.786 2222.39,-212.475 2232.93,-213.602 2231.33,-206.786"/>
</g>
<!-- Node8 -->
<g id="node5" class="node"><title>Node8</title>
<g id="a_node5"><a xlink:href="_m_c_reconstruct_check_8cc.html" target="_top" xlink:title="src/analysis/physics\l/check/MCReconstructCheck.cc">
<polygon fill="white" stroke="black" points="1028,-78.5 1028,-108.5 1192,-108.5 1192,-78.5 1028,-78.5"/>
<text text-anchor="start" x="1036" y="-96.5" font-family="Helvetica,sans-Serif" font-size="10.00">src/analysis/physics</text>
<text text-anchor="middle" x="1110" y="-85.5" font-family="Helvetica,sans-Serif" font-size="10.00">/check/MCReconstructCheck.cc</text>
</a>
</g>
</g>
<!-- Node4&#45;&gt;Node8 -->
<g id="edge4" class="edge"><title>Node4&#45;&gt;Node8</title>
<path fill="none" stroke="midnightblue" d="M2101.77,-214.648C2002.29,-206.861 1831.88,-192.632 1686,-176 1469.8,-151.351 1416.24,-141.011 1201,-109 1198.15,-108.576 1195.25,-108.141 1192.33,-107.697"/>
<polygon fill="midnightblue" stroke="midnightblue" points="2101.52,-218.139 2111.76,-215.427 2102.07,-211.16 2101.52,-218.139"/>
</g>
<!-- Node9 -->
<g id="node6" class="node"><title>Node9</title>
<g id="a_node6"><a xlink:href="_m_c_gun_checks_8cc.html" target="_top" xlink:title="src/analysis/physics\l/scratch/wagner/MCGunChecks.cc">
<polygon fill="white" stroke="black" points="2537,-145.5 2537,-175.5 2715,-175.5 2715,-145.5 2537,-145.5"/>
<text text-anchor="start" x="2545" y="-163.5" font-family="Helvetica,sans-Serif" font-size="10.00">src/analysis/physics</text>
<text text-anchor="middle" x="2626" y="-152.5" font-family="Helvetica,sans-Serif" font-size="10.00">/scratch/wagner/MCGunChecks.cc</text>
</a>
</g>
</g>
<!-- Node4&#45;&gt;Node9 -->
<g id="edge5" class="edge"><title>Node4&#45;&gt;Node9</title>
<path fill="none" stroke="midnightblue" d="M2263.18,-211.205C2332.53,-202.317 2437.13,-188.7 2528,-176 2530.9,-175.595 2533.84,-175.18 2536.81,-174.758"/>
<polygon fill="midnightblue" stroke="midnightblue" points="2262.68,-207.739 2253.21,-212.481 2263.57,-214.683 2262.68,-207.739"/>
</g>
<!-- Node10 -->
<g id="node7" class="node"><title>Node10</title>
<g id="a_node7"><a xlink:href="physics_2tunings_2_trigger_simulation_8cc.html" target="_top" xlink:title="src/analysis/physics\l/tunings/TriggerSimulation.cc">
<polygon fill="white" stroke="black" points="0,-6 0,-36 154,-36 154,-6 0,-6"/>
<text text-anchor="start" x="8" y="-24" font-family="Helvetica,sans-Serif" font-size="10.00">src/analysis/physics</text>
<text text-anchor="middle" x="77" y="-13" font-family="Helvetica,sans-Serif" font-size="10.00">/tunings/TriggerSimulation.cc</text>
</a>
</g>
</g>
<!-- Node4&#45;&gt;Node10 -->
<g id="edge6" class="edge"><title>Node4&#45;&gt;Node10</title>
<path fill="none" stroke="midnightblue" d="M2101.76,-219.347C1933.51,-215.545 1544.04,-204.239 1218,-176 747.107,-135.215 628.237,-125.418 163,-42 153.494,-40.2956 143.459,-38.2189 133.73,-36.0562"/>
<polygon fill="midnightblue" stroke="midnightblue" points="2101.71,-222.847 2111.79,-219.57 2101.87,-215.848 2101.71,-222.847"/>
</g>
<!-- Node11 -->
<g id="node8" class="node"><title>Node11</title>
<g id="a_node8"><a xlink:href="_cut_tree_8h.html" target="_top" xlink:title="src/analysis/plot/CutTree.h">
<polygon fill="white" stroke="black" points="868.5,-84 868.5,-103 1009.5,-103 1009.5,-84 868.5,-84"/>
<text text-anchor="middle" x="939" y="-91" font-family="Helvetica,sans-Serif" font-size="10.00">src/analysis/plot/CutTree.h</text>
</a>
</g>
</g>
<!-- Node4&#45;&gt;Node11 -->
<g id="edge7" class="edge"><title>Node4&#45;&gt;Node11</title>
<path fill="none" stroke="midnightblue" d="M2101.83,-218.599C1963.42,-214.051 1679.23,-202.189 1440,-176 1251.66,-155.382 1205.78,-140.786 1019,-109 1008.01,-107.129 996.18,-105.032 985.081,-103.027"/>
<polygon fill="midnightblue" stroke="midnightblue" points="2101.84,-222.101 2111.94,-218.927 2102.06,-215.105 2101.84,-222.101"/>
</g>
<!-- Node23 -->
<g id="node20" class="node"><title>Node23</title>
<g id="a_node20"><a xlink:href="_hist_style_8cc.html" target="_top" xlink:title="src/analysis/plot/HistStyle.cc">
<polygon fill="white" stroke="black" points="2733,-151 2733,-170 2885,-170 2885,-151 2733,-151"/>
<text text-anchor="middle" x="2809" y="-158" font-family="Helvetica,sans-Serif" font-size="10.00">src/analysis/plot/HistStyle.cc</text>
</a>
</g>
</g>
<!-- Node4&#45;&gt;Node23 -->
<g id="edge20" class="edge"><title>Node4&#45;&gt;Node23</title>
<path fill="none" stroke="midnightblue" d="M2270.19,-216.194C2376.29,-209.623 2564.11,-196.287 2724,-176 2736.77,-174.38 2750.56,-172.211 2763.23,-170.046"/>
<polygon fill="midnightblue" stroke="midnightblue" points="2269.95,-212.702 2260.18,-216.808 2270.38,-219.689 2269.95,-212.702"/>
</g>
<!-- Node24 -->
<g id="node21" class="node"><title>Node24</title>
<g id="a_node21"><a xlink:href="hstack_8h.html" target="_top" xlink:title="src/root&#45;addons/analysis\l_codes/hstack.h">
<polygon fill="white" stroke="black" points="1695,-145.5 1695,-175.5 1829,-175.5 1829,-145.5 1695,-145.5"/>
<text text-anchor="start" x="1703" y="-163.5" font-family="Helvetica,sans-Serif" font-size="10.00">src/root&#45;addons/analysis</text>
<text text-anchor="middle" x="1762" y="-152.5" font-family="Helvetica,sans-Serif" font-size="10.00">_codes/hstack.h</text>
</a>
</g>
</g>
<!-- Node4&#45;&gt;Node24 -->
<g id="edge21" class="edge"><title>Node4&#45;&gt;Node24</title>
<path fill="none" stroke="midnightblue" d="M2115.32,-211.081C2035.76,-199.916 1907.43,-181.908 1829.29,-170.943"/>
<polygon fill="midnightblue" stroke="midnightblue" points="2114.86,-214.551 2125.25,-212.475 2115.83,-207.619 2114.86,-214.551"/>
</g>
<!-- Node11&#45;&gt;Node10 -->
<g id="edge19" class="edge"><title>Node11&#45;&gt;Node10</title>
<path fill="none" stroke="midnightblue" d="M857.906,-91.5759C716.204,-88.9932 414.633,-79.1923 163,-42 152.688,-40.4759 141.787,-38.3503 131.336,-36.0504"/>
<polygon fill="midnightblue" stroke="midnightblue" points="858.181,-95.0811 868.241,-91.7565 858.303,-88.0822 858.181,-95.0811"/>
</g>
<!-- Node12 -->
<g id="node9" class="node"><title>Node12</title>
<g id="a_node9"><a xlink:href="_p_i_d_efficiency_check_8cc.html" target="_top" xlink:title="src/analysis/physics\l/check/PIDEfficiencyCheck.cc">
<polygon fill="white" stroke="black" points="482.5,-6 482.5,-36 635.5,-36 635.5,-6 482.5,-6"/>
<text text-anchor="start" x="490.5" y="-24" font-family="Helvetica,sans-Serif" font-size="10.00">src/analysis/physics</text>
<text text-anchor="middle" x="559" y="-13" font-family="Helvetica,sans-Serif" font-size="10.00">/check/PIDEfficiencyCheck.cc</text>
</a>
</g>
</g>
<!-- Node11&#45;&gt;Node12 -->
<g id="edge8" class="edge"><title>Node11&#45;&gt;Node12</title>
<path fill="none" stroke="midnightblue" d="M872.995,-82.3929C813.066,-72.9334 722.342,-57.9066 644,-42 635.086,-40.1901 625.681,-38.1299 616.505,-36.0363"/>
<polygon fill="midnightblue" stroke="midnightblue" points="872.656,-85.8825 883.078,-83.9778 873.743,-78.9674 872.656,-85.8825"/>
</g>
<!-- Node13 -->
<g id="node10" class="node"><title>Node13</title>
<g id="a_node10"><a xlink:href="_meson_dalitz_decays__plot_8cc.html" target="_top" xlink:title="src/analysis/physics\l/common/MesonDalitzDecays\l_plot.cc">
<polygon fill="white" stroke="black" points="653.5,-0.5 653.5,-41.5 812.5,-41.5 812.5,-0.5 653.5,-0.5"/>
<text text-anchor="start" x="661.5" y="-29.5" font-family="Helvetica,sans-Serif" font-size="10.00">src/analysis/physics</text>
<text text-anchor="start" x="661.5" y="-18.5" font-family="Helvetica,sans-Serif" font-size="10.00">/common/MesonDalitzDecays</text>
<text text-anchor="middle" x="733" y="-7.5" font-family="Helvetica,sans-Serif" font-size="10.00">_plot.cc</text>
</a>
</g>
</g>
<!-- Node11&#45;&gt;Node13 -->
<g id="edge9" class="edge"><title>Node11&#45;&gt;Node13</title>
<path fill="none" stroke="midnightblue" d="M904.614,-80.7319C873.479,-70.0767 827.003,-54.1709 790.266,-41.5983"/>
<polygon fill="midnightblue" stroke="midnightblue" points="903.557,-84.0695 914.152,-83.9961 905.824,-77.4466 903.557,-84.0695"/>
</g>
<!-- Node14 -->
<g id="node11" class="node"><title>Node14</title>
<g id="a_node11"><a xlink:href="_etap_dalitz__plot_8cc.html" target="_top" xlink:title="src/analysis/physics\l/etaprime/EtapDalitz\l_plot.cc">
<polygon fill="white" stroke="black" points="830.5,-0.5 830.5,-41.5 945.5,-41.5 945.5,-0.5 830.5,-0.5"/>
<text text-anchor="start" x="838.5" y="-29.5" font-family="Helvetica,sans-Serif" font-size="10.00">src/analysis/physics</text>
<text text-anchor="start" x="838.5" y="-18.5" font-family="Helvetica,sans-Serif" font-size="10.00">/etaprime/EtapDalitz</text>
<text text-anchor="middle" x="888" y="-7.5" font-family="Helvetica,sans-Serif" font-size="10.00">_plot.cc</text>
</a>
</g>
</g>
<!-- Node11&#45;&gt;Node14 -->
<g id="edge10" class="edge"><title>Node11&#45;&gt;Node14</title>
<path fill="none" stroke="midnightblue" d="M926.879,-75.7445C919.478,-65.5136 909.979,-52.383 902.223,-41.6616"/>
<polygon fill="midnightblue" stroke="midnightblue" points="924.049,-77.8045 932.746,-83.8553 929.721,-73.7016 924.049,-77.8045"/>
</g>
<!-- Node15 -->
<g id="node12" class="node"><title>Node15</title>
<g id="a_node12"><a xlink:href="_etap_omega_g__plot_8cc.html" target="_top" xlink:title="src/analysis/physics\l/etaprime/EtapOmegaG\l_plot.cc">
<polygon fill="white" stroke="black" points="963.5,-0.5 963.5,-41.5 1094.5,-41.5 1094.5,-0.5 963.5,-0.5"/>
<text text-anchor="start" x="971.5" y="-29.5" font-family="Helvetica,sans-Serif" font-size="10.00">src/analysis/physics</text>
<text text-anchor="start" x="971.5" y="-18.5" font-family="Helvetica,sans-Serif" font-size="10.00">/etaprime/EtapOmegaG</text>
<text text-anchor="middle" x="1029" y="-7.5" font-family="Helvetica,sans-Serif" font-size="10.00">_plot.cc</text>
</a>
</g>
</g>
<!-- Node11&#45;&gt;Node15 -->
<g id="edge11" class="edge"><title>Node11&#45;&gt;Node15</title>
<path fill="none" stroke="midnightblue" d="M958.058,-77.5715C971.408,-67.1141 989.384,-53.0328 1003.9,-41.6616"/>
<polygon fill="midnightblue" stroke="midnightblue" points="955.75,-74.9334 950.036,-83.8553 960.066,-80.444 955.75,-74.9334"/>
</g>
<!-- Node16 -->
<g id="node13" class="node"><title>Node16</title>
<g id="a_node13"><a xlink:href="_omega___ep_em__plot_8cc.html" target="_top" xlink:title="src/analysis/physics\l/omega/Omega_EpEm_plot.cc">
<polygon fill="white" stroke="black" points="1112.5,-6 1112.5,-36 1273.5,-36 1273.5,-6 1112.5,-6"/>
<text text-anchor="start" x="1120.5" y="-24" font-family="Helvetica,sans-Serif" font-size="10.00">src/analysis/physics</text>
<text text-anchor="middle" x="1193" y="-13" font-family="Helvetica,sans-Serif" font-size="10.00">/omega/Omega_EpEm_plot.cc</text>
</a>
</g>
</g>
<!-- Node11&#45;&gt;Node16 -->
<g id="edge12" class="edge"><title>Node11&#45;&gt;Node16</title>
<path fill="none" stroke="midnightblue" d="M979.469,-81.2676C1023.72,-68.9859 1094.69,-49.2873 1142.54,-36.0059"/>
<polygon fill="midnightblue" stroke="midnightblue" points="978.338,-77.949 969.638,-83.9961 980.21,-84.694 978.338,-77.949"/>
</g>
<!-- Node17 -->
<g id="node14" class="node"><title>Node17</title>
<g id="a_node14"><a xlink:href="_omega___eta_g_8cc.html" target="_top" xlink:title="src/analysis/physics\l/omega/Omega_EtaG.cc">
<polygon fill="white" stroke="black" points="1794,-6 1794,-36 1928,-36 1928,-6 1794,-6"/>
<text text-anchor="start" x="1802" y="-24" font-family="Helvetica,sans-Serif" font-size="10.00">src/analysis/physics</text>
<text text-anchor="middle" x="1861" y="-13" font-family="Helvetica,sans-Serif" font-size="10.00">/omega/Omega_EtaG.cc</text>
</a>
</g>
</g>
<!-- Node11&#45;&gt;Node17 -->
<g id="edge13" class="edge"><title>Node11&#45;&gt;Node17</title>
<path fill="none" stroke="midnightblue" d="M990.453,-82.1392C999.915,-80.5291 1009.73,-79.0532 1019,-78 1357.64,-39.5241 1448.12,-93.6537 1785,-42 1794.44,-40.5525 1804.4,-38.4013 1813.89,-36.0394"/>
<polygon fill="midnightblue" stroke="midnightblue" points="989.603,-78.7351 980.367,-83.9254 990.824,-85.6278 989.603,-78.7351"/>
</g>
<!-- Node18 -->
<g id="node15" class="node"><title>Node18</title>
<g id="a_node15"><a xlink:href="sigma_plus_8cc.html" target="_top" xlink:title="src/analysis/physics\l/production/sigmaPlus.cc">
<polygon fill="white" stroke="black" points="1292,-6 1292,-36 1428,-36 1428,-6 1292,-6"/>
<text text-anchor="start" x="1300" y="-24" font-family="Helvetica,sans-Serif" font-size="10.00">src/analysis/physics</text>
<text text-anchor="middle" x="1360" y="-13" font-family="Helvetica,sans-Serif" font-size="10.00">/production/sigmaPlus.cc</text>
</a>
</g>
</g>
<!-- Node11&#45;&gt;Node18 -->
<g id="edge14" class="edge"><title>Node11&#45;&gt;Node18</title>
<path fill="none" stroke="midnightblue" d="M994.21,-82.1711C1002.51,-80.7121 1010.97,-79.2763 1019,-78 1135.52,-59.4752 1166.22,-64.689 1282,-42 1290.64,-40.3062 1299.76,-38.2349 1308.58,-36.0744"/>
<polygon fill="midnightblue" stroke="midnightblue" points="993.442,-78.7527 984.212,-83.953 994.671,-85.6441 993.442,-78.7527"/>
</g>
<!-- Node19 -->
<g id="node16" class="node"><title>Node19</title>
<g id="a_node16"><a xlink:href="sigma_plus_plots_8cc.html" target="_top" xlink:title="src/analysis/physics\l/production/sigmaPlusPlots.cc">
<polygon fill="white" stroke="black" points="1446.5,-6 1446.5,-36 1605.5,-36 1605.5,-6 1446.5,-6"/>
<text text-anchor="start" x="1454.5" y="-24" font-family="Helvetica,sans-Serif" font-size="10.00">src/analysis/physics</text>
<text text-anchor="middle" x="1526" y="-13" font-family="Helvetica,sans-Serif" font-size="10.00">/production/sigmaPlusPlots.cc</text>
</a>
</g>
</g>
<!-- Node11&#45;&gt;Node19 -->
<g id="edge15" class="edge"><title>Node11&#45;&gt;Node19</title>
<path fill="none" stroke="midnightblue" d="M992.042,-82.1689C1001.02,-80.6269 1010.26,-79.1661 1019,-78 1203.83,-53.3456 1252.73,-70.5065 1437,-42 1447.33,-40.4021 1458.25,-38.2987 1468.77,-36.0568"/>
<polygon fill="midnightblue" stroke="midnightblue" points="991.301,-78.7456 982.063,-83.933 992.519,-85.6387 991.301,-78.7456"/>
</g>
<!-- Node20 -->
<g id="node17" class="node"><title>Node20</title>
<g id="a_node17"><a xlink:href="single_pi0_plots_8cc.html" target="_top" xlink:title="src/analysis/physics\l/production/singlePi0Plots.cc">
<polygon fill="white" stroke="black" points="1624,-6 1624,-36 1776,-36 1776,-6 1624,-6"/>
<text text-anchor="start" x="1632" y="-24" font-family="Helvetica,sans-Serif" font-size="10.00">src/analysis/physics</text>
<text text-anchor="middle" x="1700" y="-13" font-family="Helvetica,sans-Serif" font-size="10.00">/production/singlePi0Plots.cc</text>
</a>
</g>
</g>
<!-- Node11&#45;&gt;Node20 -->
<g id="edge16" class="edge"><title>Node11&#45;&gt;Node20</title>
<path fill="none" stroke="midnightblue" d="M990.78,-82.1882C1000.14,-80.5882 1009.84,-79.1032 1019,-78 1282.03,-46.3199 1351.83,-80.1395 1614,-42 1624.32,-40.4994 1635.22,-38.3848 1645.67,-36.0884"/>
<polygon fill="midnightblue" stroke="midnightblue" points="990.029,-78.7667 980.793,-83.9569 991.25,-85.6595 990.029,-78.7667"/>
</g>
<!-- Node21 -->
<g id="node18" class="node"><title>Node21</title>
<g id="a_node18"><a xlink:href="triple_pi0_8cc.html" target="_top" xlink:title="src/analysis/physics\l/production/triplePi0.cc">
<polygon fill="white" stroke="black" points="172.5,-6 172.5,-36 297.5,-36 297.5,-6 172.5,-6"/>
<text text-anchor="start" x="180.5" y="-24" font-family="Helvetica,sans-Serif" font-size="10.00">src/analysis/physics</text>
<text text-anchor="middle" x="235" y="-13" font-family="Helvetica,sans-Serif" font-size="10.00">/production/triplePi0.cc</text>
</a>
</g>
</g>
<!-- Node11&#45;&gt;Node21 -->
<g id="edge17" class="edge"><title>Node11&#45;&gt;Node21</title>
<path fill="none" stroke="midnightblue" d="M857.882,-91.0736C736.829,-87.8106 502.132,-77.1013 306,-42 297.428,-40.4659 288.4,-38.3357 279.764,-36.0342"/>
<polygon fill="midnightblue" stroke="midnightblue" points="858.086,-94.58 868.174,-91.3404 858.268,-87.5823 858.086,-94.58"/>
</g>
<!-- Node22 -->
<g id="node19" class="node"><title>Node22</title>
<g id="a_node19"><a xlink:href="triple_pi0_plots_8cc.html" target="_top" xlink:title="src/analysis/physics\l/production/triplePi0Plots.cc">
<polygon fill="white" stroke="black" points="315.5,-6 315.5,-36 464.5,-36 464.5,-6 315.5,-6"/>
<text text-anchor="start" x="323.5" y="-24" font-family="Helvetica,sans-Serif" font-size="10.00">src/analysis/physics</text>
<text text-anchor="middle" x="390" y="-13" font-family="Helvetica,sans-Serif" font-size="10.00">/production/triplePi0Plots.cc</text>
</a>
</g>
</g>
<!-- Node11&#45;&gt;Node22 -->
<g id="edge18" class="edge"><title>Node11&#45;&gt;Node22</title>
<path fill="none" stroke="midnightblue" d="M858.127,-86.9063C764.838,-79.7216 607.074,-65.3187 473,-42 463.508,-40.3491 453.485,-38.2472 443.813,-36.0297"/>
<polygon fill="midnightblue" stroke="midnightblue" points="858.105,-90.4147 868.342,-87.684 858.637,-83.4349 858.105,-90.4147"/>
</g>
<!-- Node24&#45;&gt;Node8 -->
<g id="edge26" class="edge"><title>Node24&#45;&gt;Node8</title>
<path fill="none" stroke="midnightblue" d="M1684.73,-154.221C1576.39,-146.437 1373.27,-130.453 1201,-109 1198.14,-108.644 1195.24,-108.267 1192.3,-107.872"/>
<polygon fill="midnightblue" stroke="midnightblue" points="1684.69,-157.727 1694.92,-154.948 1685.19,-150.744 1684.69,-157.727"/>
</g>
<!-- Node24&#45;&gt;Node11 -->
<g id="edge29" class="edge"><title>Node24&#45;&gt;Node11</title>
<path fill="none" stroke="midnightblue" d="M1684.64,-157.082C1549.27,-152.218 1260.81,-139.037 1019,-109 1006.67,-107.469 993.368,-105.277 981.214,-103.06"/>
<polygon fill="midnightblue" stroke="midnightblue" points="1684.79,-160.589 1694.91,-157.445 1685.04,-153.594 1684.79,-160.589"/>
</g>
<!-- Node24&#45;&gt;Node17 -->
<g id="edge27" class="edge"><title>Node24&#45;&gt;Node17</title>
<path fill="none" stroke="midnightblue" d="M1778.09,-137.155C1798.59,-108.682 1833.43,-60.2917 1850.69,-36.3258"/>
<polygon fill="midnightblue" stroke="midnightblue" points="1775.22,-135.143 1772.22,-145.303 1780.91,-139.233 1775.22,-135.143"/>
</g>
<!-- Node25 -->
<g id="node22" class="node"><title>Node25</title>
<g id="a_node22"><a xlink:href="_ant-mcdatabase-viewer_8cc.html" target="_top" xlink:title="progs/Ant&#45;mcdatabase\l&#45;viewer.cc">
<polygon fill="white" stroke="black" points="2142.5,-78.5 2142.5,-108.5 2269.5,-108.5 2269.5,-78.5 2142.5,-78.5"/>
<text text-anchor="start" x="2150.5" y="-96.5" font-family="Helvetica,sans-Serif" font-size="10.00">progs/Ant&#45;mcdatabase</text>
<text text-anchor="middle" x="2206" y="-85.5" font-family="Helvetica,sans-Serif" font-size="10.00">&#45;viewer.cc</text>
</a>
</g>
</g>
<!-- Node24&#45;&gt;Node25 -->
<g id="edge22" class="edge"><title>Node24&#45;&gt;Node25</title>
<path fill="none" stroke="midnightblue" d="M1839.53,-150.339C1914.73,-141.126 2031.96,-125.895 2133,-109 2136.06,-108.489 2139.19,-107.946 2142.34,-107.381"/>
<polygon fill="midnightblue" stroke="midnightblue" points="1838.71,-146.914 1829.21,-151.599 1839.56,-153.862 1838.71,-146.914"/>
</g>
<!-- Node26 -->
<g id="node23" class="node"><title>Node26</title>
<g id="a_node23"><a xlink:href="process_etap_tree_8cc.html" target="_top" xlink:title="progs/processEtapTree.cc">
<polygon fill="white" stroke="black" points="1210.5,-84 1210.5,-103 1349.5,-103 1349.5,-84 1210.5,-84"/>
<text text-anchor="middle" x="1280" y="-91" font-family="Helvetica,sans-Serif" font-size="10.00">progs/processEtapTree.cc</text>
</a>
</g>
</g>
<!-- Node24&#45;&gt;Node26 -->
<g id="edge23" class="edge"><title>Node24&#45;&gt;Node26</title>
<path fill="none" stroke="midnightblue" d="M1684.66,-151.131C1603.4,-142.028 1471.94,-126.427 1359,-109 1347.7,-107.256 1335.53,-105.142 1324.21,-103.073"/>
<polygon fill="midnightblue" stroke="midnightblue" points="1684.48,-154.633 1694.81,-152.263 1685.26,-147.676 1684.48,-154.633"/>
</g>
<!-- Node27 -->
<g id="node24" class="node"><title>Node27</title>
<g id="a_node24"><a xlink:href="_m_c_clustering_check_8h.html" target="_top" xlink:title="src/analysis/physics\l/check/MCClusteringCheck.h">
<polygon fill="white" stroke="black" points="2288,-78.5 2288,-108.5 2440,-108.5 2440,-78.5 2288,-78.5"/>
<text text-anchor="start" x="2296" y="-96.5" font-family="Helvetica,sans-Serif" font-size="10.00">src/analysis/physics</text>
<text text-anchor="middle" x="2364" y="-85.5" font-family="Helvetica,sans-Serif" font-size="10.00">/check/MCClusteringCheck.h</text>
</a>
</g>
</g>
<!-- Node24&#45;&gt;Node27 -->
<g id="edge24" class="edge"><title>Node24&#45;&gt;Node27</title>
<path fill="none" stroke="midnightblue" d="M1839.5,-153.604C1940.62,-145.525 2122.94,-129.634 2278,-109 2281.15,-108.581 2284.37,-108.132 2287.61,-107.663"/>
<polygon fill="midnightblue" stroke="midnightblue" points="1839.07,-150.127 1829.38,-154.409 1839.62,-157.105 1839.07,-150.127"/>
</g>
<!-- Node28 -->
<g id="node25" class="node"><title>Node28</title>
<g id="a_node25"><a xlink:href="pi0eta_8cc.html" target="_top" xlink:title="src/analysis/physics\l/omega/pi0eta.cc">
<polygon fill="white" stroke="black" points="1368,-78.5 1368,-108.5 1478,-108.5 1478,-78.5 1368,-78.5"/>
<text text-anchor="start" x="1376" y="-96.5" font-family="Helvetica,sans-Serif" font-size="10.00">src/analysis/physics</text>
<text text-anchor="middle" x="1423" y="-85.5" font-family="Helvetica,sans-Serif" font-size="10.00">/omega/pi0eta.cc</text>
</a>
</g>
</g>
<!-- Node24&#45;&gt;Node28 -->
<g id="edge28" class="edge"><title>Node24&#45;&gt;Node28</title>
<path fill="none" stroke="midnightblue" d="M1684.83,-146.204C1629.61,-136.479 1553.59,-122.651 1487,-109 1484.1,-108.405 1481.13,-107.781 1478.13,-107.141"/>
<polygon fill="midnightblue" stroke="midnightblue" points="1684.43,-149.689 1694.89,-147.972 1685.64,-142.794 1684.43,-149.689"/>
</g>
<!-- Node29 -->
<g id="node26" class="node"><title>Node29</title>
<g id="a_node26"><a xlink:href="hadd_8cc.html" target="_top" xlink:title="src/root&#45;addons/analysis\l_codes/hadd.cc">
<polygon fill="white" stroke="black" points="1496,-78.5 1496,-108.5 1630,-108.5 1630,-78.5 1496,-78.5"/>
<text text-anchor="start" x="1504" y="-96.5" font-family="Helvetica,sans-Serif" font-size="10.00">src/root&#45;addons/analysis</text>
<text text-anchor="middle" x="1563" y="-85.5" font-family="Helvetica,sans-Serif" font-size="10.00">_codes/hadd.cc</text>
</a>
</g>
</g>
<!-- Node24&#45;&gt;Node29 -->
<g id="edge30" class="edge"><title>Node24&#45;&gt;Node29</title>
<path fill="none" stroke="midnightblue" d="M1709.12,-142.228C1676.93,-131.713 1636.33,-118.451 1606.1,-108.577"/>
<polygon fill="midnightblue" stroke="midnightblue" points="1708.23,-145.618 1718.82,-145.396 1710.4,-138.964 1708.23,-145.618"/>
</g>
<!-- Node30 -->
<g id="node27" class="node"><title>Node30</title>
<g id="a_node27"><a xlink:href="hstack_8cc.html" target="_top" xlink:title="src/root&#45;addons/analysis\l_codes/hstack.cc">
<polygon fill="white" stroke="black" points="1648,-78.5 1648,-108.5 1782,-108.5 1782,-78.5 1648,-78.5"/>
<text text-anchor="start" x="1656" y="-96.5" font-family="Helvetica,sans-Serif" font-size="10.00">src/root&#45;addons/analysis</text>
<text text-anchor="middle" x="1715" y="-85.5" font-family="Helvetica,sans-Serif" font-size="10.00">_codes/hstack.cc</text>
</a>
</g>
</g>
<!-- Node24&#45;&gt;Node30 -->
<g id="edge31" class="edge"><title>Node24&#45;&gt;Node30</title>
<path fill="none" stroke="midnightblue" d="M1745.84,-137.157C1738.99,-127.679 1731.21,-116.919 1725.18,-108.577"/>
<polygon fill="midnightblue" stroke="midnightblue" points="1743.11,-139.343 1751.8,-145.396 1748.78,-135.242 1743.11,-139.343"/>
</g>
<!-- Node31 -->
<g id="node28" class="node"><title>Node31</title>
<g id="a_node28"><a xlink:href="_omega_8cc.html" target="_top" xlink:title="src/root&#45;addons/analysis\l_codes/Omega.cc">
<polygon fill="white" stroke="black" points="1838,-78.5 1838,-108.5 1972,-108.5 1972,-78.5 1838,-78.5"/>
<text text-anchor="start" x="1846" y="-96.5" font-family="Helvetica,sans-Serif" font-size="10.00">src/root&#45;addons/analysis</text>
<text text-anchor="middle" x="1905" y="-85.5" font-family="Helvetica,sans-Serif" font-size="10.00">_codes/Omega.cc</text>
</a>
</g>
</g>
<!-- Node24&#45;&gt;Node31 -->
<g id="edge32" class="edge"><title>Node24&#45;&gt;Node31</title>
<path fill="none" stroke="midnightblue" d="M1802.41,-141.131C1825.13,-130.802 1853.06,-118.11 1874.03,-108.577"/>
<polygon fill="midnightblue" stroke="midnightblue" points="1800.68,-138.072 1793.03,-145.396 1803.58,-144.444 1800.68,-138.072"/>
</g>
<!-- Node32 -->
<g id="node29" class="node"><title>Node32</title>
<g id="a_node29"><a xlink:href="pi0_8cc.html" target="_top" xlink:title="src/root&#45;addons/analysis\l_codes/pi0.cc">
<polygon fill="white" stroke="black" points="1990,-78.5 1990,-108.5 2124,-108.5 2124,-78.5 1990,-78.5"/>
<text text-anchor="start" x="1998" y="-96.5" font-family="Helvetica,sans-Serif" font-size="10.00">src/root&#45;addons/analysis</text>
<text text-anchor="middle" x="2057" y="-85.5" font-family="Helvetica,sans-Serif" font-size="10.00">_codes/pi0.cc</text>
</a>
</g>
</g>
<!-- Node24&#45;&gt;Node32 -->
<g id="edge33" class="edge"><title>Node24&#45;&gt;Node32</title>
<path fill="none" stroke="midnightblue" d="M1835.45,-143.316C1883.94,-132.633 1946.83,-118.775 1993.21,-108.555"/>
<polygon fill="midnightblue" stroke="midnightblue" points="1834.66,-139.906 1825.65,-145.476 1836.17,-146.742 1834.66,-139.906"/>
</g>
<!-- Node27&#45;&gt;Node5 -->
<g id="edge25" class="edge"><title>Node27&#45;&gt;Node5</title>
<path fill="none" stroke="midnightblue" d="M2380.68,-69.8852C2388.83,-58.842 2398.38,-45.892 2405.49,-36.2455"/>
<polygon fill="midnightblue" stroke="midnightblue" points="2377.64,-68.108 2374.52,-78.2333 2383.28,-72.2631 2377.64,-68.108"/>
</g>
</g>
</svg>
