<?xml version="1.0" encoding="UTF-8" standalone="no"?>
<!DOCTYPE svg PUBLIC "-//W3C//DTD SVG 1.1//EN"
 "http://www.w3.org/Graphics/SVG/1.1/DTD/svg11.dtd">
<!-- Generated by graphviz version 2.38.0 (20140413.2041)
 -->
<!-- Title: src/calibration/gui/Indicator.cc Pages: 1 -->
<svg width="292pt" height="218pt"
 viewBox="0.00 0.00 291.50 218.00" xmlns="http://www.w3.org/2000/svg" xmlns:xlink="http://www.w3.org/1999/xlink">
<g id="graph0" class="graph" transform="scale(1 1) rotate(0) translate(4 214)">
<title>src/calibration/gui/Indicator.cc</title>
<polygon fill="white" stroke="none" points="-4,4 -4,-214 287.5,-214 287.5,4 -4,4"/>
<!-- Node0 -->
<g id="node1" class="node"><title>Node0</title>
<polygon fill="#bfbfbf" stroke="black" points="164.5,-179.5 164.5,-209.5 265.5,-209.5 265.5,-179.5 164.5,-179.5"/>
<text text-anchor="start" x="172.5" y="-197.5" font-family="Helvetica,sans-Serif" font-size="10.00">src/calibration/gui</text>
<text text-anchor="middle" x="215" y="-186.5" font-family="Helvetica,sans-Serif" font-size="10.00">/Indicator.cc</text>
</g>
<!-- Node1 -->
<g id="node2" class="node"><title>Node1</title>
<g id="a_node2"><a xlink:href="_indicator_8h.html" target="_top" xlink:title="Indicator.h">
<polygon fill="white" stroke="black" points="142,-123.5 142,-142.5 208,-142.5 208,-123.5 142,-123.5"/>
<text text-anchor="middle" x="175" y="-130.5" font-family="Helvetica,sans-Serif" font-size="10.00">Indicator.h</text>
</a>
</g>
</g>
<!-- Node0&#45;&gt;Node1 -->
<g id="edge1" class="edge"><title>Node0&#45;&gt;Node1</title>
<path fill="none" stroke="midnightblue" d="M205.521,-179.399C199.828,-170.932 192.546,-160.099 186.522,-151.139"/>
<polygon fill="midnightblue" stroke="midnightblue" points="189.304,-149.004 180.82,-142.658 183.495,-152.909 189.304,-149.004"/>
</g>
<!-- Node6 -->
<g id="node7" class="node"><title>Node6</title>
<polygon fill="white" stroke="#bfbfbf" points="226.5,-123.5 226.5,-142.5 283.5,-142.5 283.5,-123.5 226.5,-123.5"/>
<text text-anchor="middle" x="255" y="-130.5" font-family="Helvetica,sans-Serif" font-size="10.00">TLatex.h</text>
</g>
<!-- Node0&#45;&gt;Node6 -->
<g id="edge6" class="edge"><title>Node0&#45;&gt;Node6</title>
<path fill="none" stroke="midnightblue" d="M224.479,-179.399C230.172,-170.932 237.454,-160.099 243.478,-151.139"/>
<polygon fill="midnightblue" stroke="midnightblue" points="246.505,-152.909 249.18,-142.658 240.696,-149.004 246.505,-152.909"/>
</g>
<!-- Node2 -->
<g id="node3" class="node"><title>Node2</title>
<g id="a_node3"><a xlink:href="_indicator__traits_8h.html" target="_top" xlink:title="calibration/gui/Indicator\l_traits.h">
<polygon fill="white" stroke="black" points="0,-56.5 0,-86.5 128,-86.5 128,-56.5 0,-56.5"/>
<text text-anchor="start" x="8" y="-74.5" font-family="Helvetica,sans-Serif" font-size="10.00">calibration/gui/Indicator</text>
<text text-anchor="middle" x="64" y="-63.5" font-family="Helvetica,sans-Serif" font-size="10.00">_traits.h</text>
</a>
</g>
</g>
<!-- Node1&#45;&gt;Node2 -->
<g id="edge2" class="edge"><title>Node1&#45;&gt;Node2</title>
<path fill="none" stroke="midnightblue" d="M159.096,-123.475C143.501,-115.115 119.202,-102.09 99.0705,-91.2991"/>
<polygon fill="midnightblue" stroke="midnightblue" points="100.628,-88.1627 90.1605,-86.523 97.3206,-94.3322 100.628,-88.1627"/>
</g>
<!-- Node4 -->
<g id="node5" class="node"><title>Node4</title>
<polygon fill="white" stroke="#bfbfbf" points="146.5,-62 146.5,-81 203.5,-81 203.5,-62 146.5,-62"/>
<text text-anchor="middle" x="175" y="-69" font-family="Helvetica,sans-Serif" font-size="10.00">memory</text>
</g>
<!-- Node1&#45;&gt;Node4 -->
<g id="edge4" class="edge"><title>Node1&#45;&gt;Node4</title>
<path fill="none" stroke="midnightblue" d="M175,-123.475C175,-115.08 175,-101.981 175,-91.1631"/>
<polygon fill="midnightblue" stroke="midnightblue" points="178.5,-91.0091 175,-81.0091 171.5,-91.0091 178.5,-91.0091"/>
</g>
<!-- Node5 -->
<g id="node6" class="node"><title>Node5</title>
<polygon fill="white" stroke="#bfbfbf" points="222,-62 222,-81 272,-81 272,-62 222,-62"/>
<text text-anchor="middle" x="247" y="-69" font-family="Helvetica,sans-Serif" font-size="10.00">TLine.h</text>
</g>
<!-- Node1&#45;&gt;Node5 -->
<g id="edge5" class="edge"><title>Node1&#45;&gt;Node5</title>
<path fill="none" stroke="midnightblue" d="M185.316,-123.475C196.651,-114.108 215.073,-98.8839 228.839,-87.5081"/>
<polygon fill="midnightblue" stroke="midnightblue" points="231.224,-90.0773 236.703,-81.0091 226.765,-84.6813 231.224,-90.0773"/>
</g>
<!-- Node3 -->
<g id="node4" class="node"><title>Node3</title>
<polygon fill="white" stroke="#bfbfbf" points="35,-0.5 35,-19.5 93,-19.5 93,-0.5 35,-0.5"/>
<text text-anchor="middle" x="64" y="-7.5" font-family="Helvetica,sans-Serif" font-size="10.00">Rtypes.h</text>
</g>
<!-- Node2&#45;&gt;Node3 -->
<g id="edge3" class="edge"><title>Node2&#45;&gt;Node3</title>
<path fill="none" stroke="midnightblue" d="M64,-56.3993C64,-48.4664 64,-38.458 64,-29.8583"/>
<polygon fill="midnightblue" stroke="midnightblue" points="67.5001,-29.6577 64,-19.6578 60.5001,-29.6578 67.5001,-29.6577"/>
</g>
</g>
</svg>
