<?xml version="1.0" encoding="UTF-8" standalone="no"?>
<!DOCTYPE svg PUBLIC "-//W3C//DTD SVG 1.1//EN"
 "http://www.w3.org/Graphics/SVG/1.1/DTD/svg11.dtd">
<!-- Generated by graphviz version 2.38.0 (20140413.2041)
 -->
<!-- Title: src/calibration/gui/Indicator.h Pages: 1 -->
<svg width="280pt" height="162pt"
 viewBox="0.00 0.00 280.00 162.00" xmlns="http://www.w3.org/2000/svg" xmlns:xlink="http://www.w3.org/1999/xlink">
<g id="graph0" class="graph" transform="scale(1 1) rotate(0) translate(4 158)">
<title>src/calibration/gui/Indicator.h</title>
<polygon fill="white" stroke="none" points="-4,4 -4,-158 276,-158 276,4 -4,4"/>
<!-- Node0 -->
<g id="node1" class="node"><title>Node0</title>
<polygon fill="#bfbfbf" stroke="black" points="124.5,-123.5 124.5,-153.5 225.5,-153.5 225.5,-123.5 124.5,-123.5"/>
<text text-anchor="start" x="132.5" y="-141.5" font-family="Helvetica,sans-Serif" font-size="10.00">src/calibration/gui</text>
<text text-anchor="middle" x="175" y="-130.5" font-family="Helvetica,sans-Serif" font-size="10.00">/Indicator.h</text>
</g>
<!-- Node1 -->
<g id="node2" class="node"><title>Node1</title>
<g id="a_node2"><a xlink:href="_indicator__traits_8h.html" target="_top" xlink:title="calibration/gui/Indicator\l_traits.h">
<polygon fill="white" stroke="black" points="0,-56.5 0,-86.5 128,-86.5 128,-56.5 0,-56.5"/>
<text text-anchor="start" x="8" y="-74.5" font-family="Helvetica,sans-Serif" font-size="10.00">calibration/gui/Indicator</text>
<text text-anchor="middle" x="64" y="-63.5" font-family="Helvetica,sans-Serif" font-size="10.00">_traits.h</text>
</a>
</g>
</g>
<!-- Node0&#45;&gt;Node1 -->
<g id="edge1" class="edge"><title>Node0&#45;&gt;Node1</title>
<path fill="none" stroke="midnightblue" d="M150.915,-123.396C135.06,-114.112 114.105,-101.841 96.7437,-91.6742"/>
<polygon fill="midnightblue" stroke="midnightblue" points="98.4363,-88.6095 88.0383,-86.5765 94.899,-94.65 98.4363,-88.6095"/>
</g>
<!-- Node3 -->
<g id="node4" class="node"><title>Node3</title>
<polygon fill="white" stroke="#bfbfbf" points="146.5,-62 146.5,-81 203.5,-81 203.5,-62 146.5,-62"/>
<text text-anchor="middle" x="175" y="-69" font-family="Helvetica,sans-Serif" font-size="10.00">memory</text>
</g>
<!-- Node0&#45;&gt;Node3 -->
<g id="edge3" class="edge"><title>Node0&#45;&gt;Node3</title>
<path fill="none" stroke="midnightblue" d="M175,-123.396C175,-114.064 175,-101.714 175,-91.5173"/>
<polygon fill="midnightblue" stroke="midnightblue" points="178.5,-91.1945 175,-81.1945 171.5,-91.1946 178.5,-91.1945"/>
</g>
<!-- Node4 -->
<g id="node5" class="node"><title>Node4</title>
<polygon fill="white" stroke="#bfbfbf" points="222,-62 222,-81 272,-81 272,-62 222,-62"/>
<text text-anchor="middle" x="247" y="-69" font-family="Helvetica,sans-Serif" font-size="10.00">TLine.h</text>
</g>
<!-- Node0&#45;&gt;Node4 -->
<g id="edge4" class="edge"><title>Node0&#45;&gt;Node4</title>
<path fill="none" stroke="midnightblue" d="M190.623,-123.396C202.183,-112.96 217.922,-98.7507 229.833,-87.9978"/>
<polygon fill="midnightblue" stroke="midnightblue" points="232.292,-90.4935 237.369,-81.1945 227.601,-85.2977 232.292,-90.4935"/>
</g>
<!-- Node2 -->
<g id="node3" class="node"><title>Node2</title>
<polygon fill="white" stroke="#bfbfbf" points="35,-0.5 35,-19.5 93,-19.5 93,-0.5 35,-0.5"/>
<text text-anchor="middle" x="64" y="-7.5" font-family="Helvetica,sans-Serif" font-size="10.00">Rtypes.h</text>
</g>
<!-- Node1&#45;&gt;Node2 -->
<g id="edge2" class="edge"><title>Node1&#45;&gt;Node2</title>
<path fill="none" stroke="midnightblue" d="M64,-56.3993C64,-48.4664 64,-38.458 64,-29.8583"/>
<polygon fill="midnightblue" stroke="midnightblue" points="67.5001,-29.6577 64,-19.6578 60.5001,-29.6578 67.5001,-29.6577"/>
</g>
</g>
</svg>
