<?xml version="1.0" encoding="UTF-8" standalone="no"?>
<!DOCTYPE svg PUBLIC "-//W3C//DTD SVG 1.1//EN"
 "http://www.w3.org/Graphics/SVG/1.1/DTD/svg11.dtd">
<!-- Generated by graphviz version 2.38.0 (20140413.2041)
 -->
<!-- Title: src/analysis/utils/uncertainties/Interpolated.h Pages: 1 -->
<svg width="2060pt" height="565pt"
 viewBox="0.00 0.00 2060.00 565.00" xmlns="http://www.w3.org/2000/svg" xmlns:xlink="http://www.w3.org/1999/xlink">
<g id="graph0" class="graph" transform="scale(1 1) rotate(0) translate(4 561)">
<title>src/analysis/utils/uncertainties/Interpolated.h</title>
<polygon fill="white" stroke="none" points="-4,4 -4,-561 2056,-561 2056,4 -4,4"/>
<!-- Node0 -->
<g id="node1" class="node"><title>Node0</title>
<polygon fill="#bfbfbf" stroke="black" points="403,-526.5 403,-556.5 555,-556.5 555,-526.5 403,-526.5"/>
<text text-anchor="start" x="411" y="-544.5" font-family="Helvetica,sans-Serif" font-size="10.00">src/analysis/utils</text>
<text text-anchor="middle" x="479" y="-533.5" font-family="Helvetica,sans-Serif" font-size="10.00">/uncertainties/Interpolated.h</text>
</g>
<!-- Node1 -->
<g id="node2" class="node"><title>Node1</title>
<g id="a_node2"><a xlink:href="_uncertainties_8h.html" target="_top" xlink:title="analysis/utils/Uncertainties.h">
<polygon fill="white" stroke="black" points="919.5,-470.5 919.5,-489.5 1072.5,-489.5 1072.5,-470.5 919.5,-470.5"/>
<text text-anchor="middle" x="996" y="-477.5" font-family="Helvetica,sans-Serif" font-size="10.00">analysis/utils/Uncertainties.h</text>
</a>
</g>
</g>
<!-- Node0&#45;&gt;Node1 -->
<g id="edge1" class="edge"><title>Node0&#45;&gt;Node1</title>
<path fill="none" stroke="midnightblue" d="M555.007,-531.753C650.254,-520.791 812.966,-502.065 911.872,-490.682"/>
<polygon fill="midnightblue" stroke="midnightblue" points="912.297,-494.156 921.831,-489.536 911.497,-487.202 912.297,-494.156"/>
</g>
<!-- Node42 -->
<g id="node43" class="node"><title>Node42</title>
<g id="a_node43"><a xlink:href="_clipped_interpolator_wrapper_8h.html" target="_top" xlink:title="base/ClippedInterpolator\lWrapper.h">
<polygon fill="white" stroke="black" points="557,-291.5 557,-321.5 691,-321.5 691,-291.5 557,-291.5"/>
<text text-anchor="start" x="565" y="-309.5" font-family="Helvetica,sans-Serif" font-size="10.00">base/ClippedInterpolator</text>
<text text-anchor="middle" x="624" y="-298.5" font-family="Helvetica,sans-Serif" font-size="10.00">Wrapper.h</text>
</a>
</g>
</g>
<!-- Node0&#45;&gt;Node42 -->
<g id="edge79" class="edge"><title>Node0&#45;&gt;Node42</title>
<path fill="none" stroke="midnightblue" d="M487.852,-526.276C512.178,-487.186 580.201,-377.881 609.866,-330.211"/>
<polygon fill="midnightblue" stroke="midnightblue" points="612.952,-331.878 615.264,-321.538 607.009,-328.179 612.952,-331.878"/>
</g>
<!-- Node2 -->
<g id="node3" class="node"><title>Node2</title>
<g id="a_node3"><a xlink:href="_t_particle_8h.html" target="_top" xlink:title="tree/TParticle.h">
<polygon fill="white" stroke="black" points="952,-414.5 952,-433.5 1040,-433.5 1040,-414.5 952,-414.5"/>
<text text-anchor="middle" x="996" y="-421.5" font-family="Helvetica,sans-Serif" font-size="10.00">tree/TParticle.h</text>
</a>
</g>
</g>
<!-- Node1&#45;&gt;Node2 -->
<g id="edge2" class="edge"><title>Node1&#45;&gt;Node2</title>
<path fill="none" stroke="midnightblue" d="M996,-470.083C996,-463.006 996,-452.861 996,-443.986"/>
<polygon fill="midnightblue" stroke="midnightblue" points="999.5,-443.751 996,-433.751 992.5,-443.751 999.5,-443.751"/>
</g>
<!-- Node6 -->
<g id="node7" class="node"><title>Node6</title>
<g id="a_node7"><a xlink:href="_detector__t_8h.html" target="_top" xlink:title="base/Detector_t.h">
<polygon fill="white" stroke="black" points="1368.5,-168.5 1368.5,-187.5 1471.5,-187.5 1471.5,-168.5 1368.5,-168.5"/>
<text text-anchor="middle" x="1420" y="-175.5" font-family="Helvetica,sans-Serif" font-size="10.00">base/Detector_t.h</text>
</a>
</g>
</g>
<!-- Node1&#45;&gt;Node6 -->
<g id="edge78" class="edge"><title>Node1&#45;&gt;Node6</title>
<path fill="none" stroke="midnightblue" d="M1072.81,-474.587C1245.28,-462.911 1654.73,-424.737 1738,-322 1811.56,-231.252 1593.52,-196.061 1481.71,-184.233"/>
<polygon fill="midnightblue" stroke="midnightblue" points="1481.86,-180.731 1471.56,-183.193 1481.15,-187.694 1481.86,-180.731"/>
</g>
<!-- Node3 -->
<g id="node4" class="node"><title>Node3</title>
<g id="a_node4"><a xlink:href="_t_candidate_8h.html" target="_top" xlink:title="tree/TCandidate.h">
<polygon fill="white" stroke="black" points="945.5,-358.5 945.5,-377.5 1046.5,-377.5 1046.5,-358.5 945.5,-358.5"/>
<text text-anchor="middle" x="996" y="-365.5" font-family="Helvetica,sans-Serif" font-size="10.00">tree/TCandidate.h</text>
</a>
</g>
</g>
<!-- Node2&#45;&gt;Node3 -->
<g id="edge3" class="edge"><title>Node2&#45;&gt;Node3</title>
<path fill="none" stroke="midnightblue" d="M996,-414.083C996,-407.006 996,-396.861 996,-387.986"/>
<polygon fill="midnightblue" stroke="midnightblue" points="999.5,-387.751 996,-377.751 992.5,-387.751 999.5,-387.751"/>
</g>
<!-- Node15 -->
<g id="node16" class="node"><title>Node15</title>
<polygon fill="white" stroke="#bfbfbf" points="814.5,-56.5 814.5,-75.5 861.5,-75.5 861.5,-56.5 814.5,-56.5"/>
<text text-anchor="middle" x="838" y="-63.5" font-family="Helvetica,sans-Serif" font-size="10.00">vector</text>
</g>
<!-- Node2&#45;&gt;Node15 -->
<g id="edge74" class="edge"><title>Node2&#45;&gt;Node15</title>
<path fill="none" stroke="midnightblue" d="M951.918,-422.591C759.162,-420.231 0,-404.765 0,-307.5 0,-307.5 0,-307.5 0,-177 0,-126.207 45.9921,-128.589 94,-112 227.847,-65.7498 676.662,-65.6908 804.035,-66.6465"/>
<polygon fill="midnightblue" stroke="midnightblue" points="804.309,-70.1488 814.338,-66.7316 804.367,-63.149 804.309,-70.1488"/>
</g>
<!-- Node23 -->
<g id="node24" class="node"><title>Node23</title>
<polygon fill="white" stroke="#bfbfbf" points="689.5,-168.5 689.5,-187.5 746.5,-187.5 746.5,-168.5 689.5,-168.5"/>
<text text-anchor="middle" x="718" y="-175.5" font-family="Helvetica,sans-Serif" font-size="10.00">memory</text>
</g>
<!-- Node2&#45;&gt;Node23 -->
<g id="edge77" class="edge"><title>Node2&#45;&gt;Node23</title>
<path fill="none" stroke="midnightblue" d="M958.66,-414.459C905.889,-401.107 808.119,-371.553 738,-322 721.918,-310.635 686.878,-273.453 680,-255 675.188,-242.09 675.267,-236.939 680,-224 684.057,-212.908 692.188,-202.665 699.891,-194.763"/>
<polygon fill="midnightblue" stroke="midnightblue" points="702.475,-197.135 707.286,-187.695 697.638,-192.075 702.475,-197.135"/>
</g>
<!-- Node26 -->
<g id="node27" class="node"><title>Node26</title>
<g id="a_node27"><a xlink:href="types_8h.html" target="_top" xlink:title="base/types.h">
<polygon fill="white" stroke="black" points="1846,-112.5 1846,-131.5 1924,-131.5 1924,-112.5 1846,-112.5"/>
<text text-anchor="middle" x="1885" y="-119.5" font-family="Helvetica,sans-Serif" font-size="10.00">base/types.h</text>
</a>
</g>
</g>
<!-- Node2&#45;&gt;Node26 -->
<g id="edge44" class="edge"><title>Node2&#45;&gt;Node26</title>
<path fill="none" stroke="midnightblue" d="M1040.09,-422.07C1181.8,-418.316 1623.12,-400.439 1738,-322 1779.25,-293.837 1767.26,-266.804 1793,-224 1808.25,-198.643 1809.21,-189.997 1829,-168 1839.27,-156.586 1852.61,-145.745 1863.69,-137.564"/>
<polygon fill="midnightblue" stroke="midnightblue" points="1865.91,-140.283 1872,-131.614 1861.83,-134.593 1865.91,-140.283"/>
</g>
<!-- Node27 -->
<g id="node28" class="node"><title>Node27</title>
<g id="a_node28"><a xlink:href="_particle_type_8h.html" target="_top" xlink:title="base/ParticleType.h">
<polygon fill="white" stroke="black" points="1802.5,-230 1802.5,-249 1909.5,-249 1909.5,-230 1802.5,-230"/>
<text text-anchor="middle" x="1856" y="-237" font-family="Helvetica,sans-Serif" font-size="10.00">base/ParticleType.h</text>
</a>
</g>
</g>
<!-- Node2&#45;&gt;Node27 -->
<g id="edge45" class="edge"><title>Node2&#45;&gt;Node27</title>
<path fill="none" stroke="midnightblue" d="M1040.17,-422.806C1195.3,-421.805 1709.21,-415.65 1772,-378 1816.87,-351.094 1841.01,-290.11 1850.76,-259.204"/>
<polygon fill="midnightblue" stroke="midnightblue" points="1854.22,-259.88 1853.72,-249.297 1847.51,-257.88 1854.22,-259.88"/>
</g>
<!-- Node32 -->
<g id="node33" class="node"><title>Node32</title>
<g id="a_node33"><a xlink:href="_tree_8h.html" target="_top" xlink:title="base/Tree.h">
<polygon fill="white" stroke="black" points="391.5,-230 391.5,-249 462.5,-249 462.5,-230 391.5,-230"/>
<text text-anchor="middle" x="427" y="-237" font-family="Helvetica,sans-Serif" font-size="10.00">base/Tree.h</text>
</a>
</g>
</g>
<!-- Node2&#45;&gt;Node32 -->
<g id="edge60" class="edge"><title>Node2&#45;&gt;Node32</title>
<path fill="none" stroke="midnightblue" d="M951.612,-421.853C832.848,-418.411 514.273,-406.587 477,-378 439.468,-349.215 430.082,-289.556 427.754,-259.167"/>
<polygon fill="midnightblue" stroke="midnightblue" points="431.242,-258.857 427.163,-249.079 424.254,-259.266 431.242,-258.857"/>
</g>
<!-- Node37 -->
<g id="node38" class="node"><title>Node37</title>
<polygon fill="white" stroke="#bfbfbf" points="603,-168.5 603,-187.5 633,-187.5 633,-168.5 603,-168.5"/>
<text text-anchor="middle" x="618" y="-175.5" font-family="Helvetica,sans-Serif" font-size="10.00">list</text>
</g>
<!-- Node2&#45;&gt;Node37 -->
<g id="edge75" class="edge"><title>Node2&#45;&gt;Node37</title>
<path fill="none" stroke="midnightblue" d="M951.797,-420.105C847.104,-412.235 588.888,-386.547 537,-322 520.591,-301.588 545.853,-237.185 555,-224 564.802,-209.87 580.543,-198.623 593.838,-190.908"/>
<polygon fill="midnightblue" stroke="midnightblue" points="595.867,-193.788 602.966,-185.923 592.512,-187.644 595.867,-193.788"/>
</g>
<!-- Node40 -->
<g id="node41" class="node"><title>Node40</title>
<g id="a_node41"><a xlink:href="_lorentz_vec_8h.html" target="_top" xlink:title="base/vec/LorentzVec.h">
<polygon fill="white" stroke="black" points="1604.5,-297 1604.5,-316 1729.5,-316 1729.5,-297 1604.5,-297"/>
<text text-anchor="middle" x="1667" y="-304" font-family="Helvetica,sans-Serif" font-size="10.00">base/vec/LorentzVec.h</text>
</a>
</g>
</g>
<!-- Node2&#45;&gt;Node40 -->
<g id="edge72" class="edge"><title>Node2&#45;&gt;Node40</title>
<path fill="none" stroke="midnightblue" d="M1040.01,-415.79C1138.59,-399.582 1384.58,-358.802 1590,-322 1597.18,-320.714 1604.73,-319.33 1612.18,-317.946"/>
<polygon fill="midnightblue" stroke="midnightblue" points="1613.05,-321.345 1622.24,-316.068 1611.76,-314.464 1613.05,-321.345"/>
</g>
<!-- Node41 -->
<g id="node42" class="node"><title>Node41</title>
<polygon fill="white" stroke="#bfbfbf" points="1064.5,-358.5 1064.5,-377.5 1123.5,-377.5 1123.5,-358.5 1064.5,-358.5"/>
<text text-anchor="middle" x="1094" y="-365.5" font-family="Helvetica,sans-Serif" font-size="10.00">iostream</text>
</g>
<!-- Node2&#45;&gt;Node41 -->
<g id="edge76" class="edge"><title>Node2&#45;&gt;Node41</title>
<path fill="none" stroke="midnightblue" d="M1011.75,-414.324C1027.32,-405.743 1051.38,-392.486 1069.46,-382.522"/>
<polygon fill="midnightblue" stroke="midnightblue" points="1071.22,-385.546 1078.29,-377.655 1067.85,-379.415 1071.22,-385.546"/>
</g>
<!-- Node4 -->
<g id="node5" class="node"><title>Node4</title>
<g id="a_node5"><a xlink:href="_t_cluster_8h.html" target="_top" xlink:title="TCluster.h">
<polygon fill="white" stroke="black" points="1097.5,-297 1097.5,-316 1160.5,-316 1160.5,-297 1097.5,-297"/>
<text text-anchor="middle" x="1129" y="-304" font-family="Helvetica,sans-Serif" font-size="10.00">TCluster.h</text>
</a>
</g>
</g>
<!-- Node3&#45;&gt;Node4 -->
<g id="edge4" class="edge"><title>Node3&#45;&gt;Node4</title>
<path fill="none" stroke="midnightblue" d="M1015.06,-358.475C1037.47,-348.445 1074.91,-331.7 1100.71,-320.155"/>
<polygon fill="midnightblue" stroke="midnightblue" points="1102.28,-323.288 1109.98,-316.009 1099.42,-316.898 1102.28,-323.288"/>
</g>
<!-- Node3&#45;&gt;Node6 -->
<g id="edge38" class="edge"><title>Node3&#45;&gt;Node6</title>
<path fill="none" stroke="midnightblue" d="M1046.51,-359.168C1049.38,-358.763 1052.23,-358.37 1055,-358 1124.62,-348.703 1314,-365.68 1369,-322 1407.6,-291.341 1417.02,-229.152 1419.3,-197.869"/>
<polygon fill="midnightblue" stroke="midnightblue" points="1422.79,-198.036 1419.85,-187.858 1415.8,-197.649 1422.79,-198.036"/>
</g>
<!-- Node3&#45;&gt;Node15 -->
<g id="edge39" class="edge"><title>Node3&#45;&gt;Node15</title>
<path fill="none" stroke="midnightblue" d="M994.797,-358.209C991.398,-335.174 980.411,-271.561 957,-224 942.164,-193.86 880.024,-117.527 851.915,-83.6434"/>
<polygon fill="midnightblue" stroke="midnightblue" points="854.341,-81.0863 845.253,-75.6397 848.961,-85.5647 854.341,-81.0863"/>
</g>
<!-- Node20 -->
<g id="node21" class="node"><title>Node20</title>
<polygon fill="white" stroke="#bfbfbf" points="1037.5,-168.5 1037.5,-187.5 1092.5,-187.5 1092.5,-168.5 1037.5,-168.5"/>
<text text-anchor="middle" x="1065" y="-175.5" font-family="Helvetica,sans-Serif" font-size="10.00">iomanip</text>
</g>
<!-- Node3&#45;&gt;Node20 -->
<g id="edge40" class="edge"><title>Node3&#45;&gt;Node20</title>
<path fill="none" stroke="midnightblue" d="M999.144,-358.434C1009.67,-329.745 1043.85,-236.633 1058.37,-197.06"/>
<polygon fill="midnightblue" stroke="midnightblue" points="1061.68,-198.21 1061.84,-187.617 1055.11,-195.799 1061.68,-198.21"/>
</g>
<!-- Node21 -->
<g id="node22" class="node"><title>Node21</title>
<polygon fill="white" stroke="#bfbfbf" points="929,-112.5 929,-131.5 985,-131.5 985,-112.5 929,-112.5"/>
<text text-anchor="middle" x="957" y="-119.5" font-family="Helvetica,sans-Serif" font-size="10.00">sstream</text>
</g>
<!-- Node3&#45;&gt;Node21 -->
<g id="edge41" class="edge"><title>Node3&#45;&gt;Node21</title>
<path fill="none" stroke="midnightblue" d="M1036.48,-358.435C1112.15,-341.462 1269.95,-301.18 1298,-255 1305.15,-243.225 1305.66,-235.454 1298,-224 1274.75,-189.21 1249.52,-204.343 1211,-188 1190.48,-179.293 1186.25,-174.727 1165,-168 1092.4,-145.023 1069.13,-149.981 994.87,-133.074"/>
<polygon fill="midnightblue" stroke="midnightblue" points="995.588,-129.648 985.054,-130.781 993.995,-136.464 995.588,-129.648"/>
</g>
<!-- Node3&#45;&gt;Node23 -->
<g id="edge42" class="edge"><title>Node3&#45;&gt;Node23</title>
<path fill="none" stroke="midnightblue" d="M956.545,-358.475C880.998,-341.267 720.589,-300.15 689,-255 676.158,-236.645 690.365,-211.857 703.03,-195.656"/>
<polygon fill="midnightblue" stroke="midnightblue" points="706.006,-197.553 709.727,-187.633 700.632,-193.067 706.006,-197.553"/>
</g>
<!-- Node25 -->
<g id="node26" class="node"><title>Node25</title>
<polygon fill="white" stroke="#bfbfbf" points="676,-112.5 676,-131.5 738,-131.5 738,-112.5 676,-112.5"/>
<text text-anchor="middle" x="707" y="-119.5" font-family="Helvetica,sans-Serif" font-size="10.00">algorithm</text>
</g>
<!-- Node3&#45;&gt;Node25 -->
<g id="edge43" class="edge"><title>Node3&#45;&gt;Node25</title>
<path fill="none" stroke="midnightblue" d="M945.249,-365.656C833.556,-362.175 574.252,-351.021 548,-322 522.466,-293.772 571.682,-235.076 582,-224 603.198,-201.245 617.488,-207.138 642,-188 660.959,-173.197 680.124,-153.294 692.681,-139.427"/>
<polygon fill="midnightblue" stroke="midnightblue" points="695.55,-141.469 699.585,-131.673 690.321,-136.815 695.55,-141.469"/>
</g>
<!-- Node5 -->
<g id="node6" class="node"><title>Node5</title>
<g id="a_node6"><a xlink:href="_t_detector_read_hit_8h.html" target="_top" xlink:title="tree/TDetectorReadHit.h">
<polygon fill="white" stroke="black" points="1157,-230 1157,-249 1289,-249 1289,-230 1157,-230"/>
<text text-anchor="middle" x="1223" y="-237" font-family="Helvetica,sans-Serif" font-size="10.00">tree/TDetectorReadHit.h</text>
</a>
</g>
</g>
<!-- Node4&#45;&gt;Node5 -->
<g id="edge5" class="edge"><title>Node4&#45;&gt;Node5</title>
<path fill="none" stroke="midnightblue" d="M1141.68,-296.734C1157.18,-286.013 1183.64,-267.716 1202.16,-254.914"/>
<polygon fill="midnightblue" stroke="midnightblue" points="1204.29,-257.694 1210.52,-249.127 1200.31,-251.936 1204.29,-257.694"/>
</g>
<!-- Node4&#45;&gt;Node6 -->
<g id="edge25" class="edge"><title>Node4&#45;&gt;Node6</title>
<path fill="none" stroke="midnightblue" d="M1160.74,-298.696C1195.39,-290.658 1252.08,-275.713 1298,-255 1336.15,-237.789 1376.69,-210.505 1400.1,-193.736"/>
<polygon fill="midnightblue" stroke="midnightblue" points="1402.43,-196.367 1408.47,-187.662 1398.32,-190.701 1402.43,-196.367"/>
</g>
<!-- Node9 -->
<g id="node10" class="node"><title>Node9</title>
<g id="a_node10"><a xlink:href="vec3_8h.html" target="_top" xlink:title="base/vec/vec3.h">
<polygon fill="white" stroke="black" points="1696,-112.5 1696,-131.5 1790,-131.5 1790,-112.5 1696,-112.5"/>
<text text-anchor="middle" x="1743" y="-119.5" font-family="Helvetica,sans-Serif" font-size="10.00">base/vec/vec3.h</text>
</a>
</g>
</g>
<!-- Node4&#45;&gt;Node9 -->
<g id="edge32" class="edge"><title>Node4&#45;&gt;Node9</title>
<path fill="none" stroke="midnightblue" d="M1160.69,-302.051C1213.82,-295.789 1323.89,-280.761 1414,-255 1529.83,-221.885 1660.88,-162.236 1716.15,-135.991"/>
<polygon fill="midnightblue" stroke="midnightblue" points="1717.75,-139.106 1725.27,-131.638 1714.74,-132.789 1717.75,-139.106"/>
</g>
<!-- Node11 -->
<g id="node12" class="node"><title>Node11</title>
<polygon fill="white" stroke="#bfbfbf" points="1667.5,-0.5 1667.5,-19.5 1714.5,-19.5 1714.5,-0.5 1667.5,-0.5"/>
<text text-anchor="middle" x="1691" y="-7.5" font-family="Helvetica,sans-Serif" font-size="10.00">cmath</text>
</g>
<!-- Node4&#45;&gt;Node11 -->
<g id="edge34" class="edge"><title>Node4&#45;&gt;Node11</title>
<path fill="none" stroke="midnightblue" d="M1160.83,-304.307C1299.18,-299.009 1844.59,-276.9 1918,-255 1983.61,-235.427 2052,-247.468 2052,-179 2052,-179 2052,-179 2052,-121 2052,-53.004 1814.69,-22.9571 1724.88,-14.021"/>
<polygon fill="midnightblue" stroke="midnightblue" points="1724.98,-10.5141 1714.69,-13.0348 1724.3,-17.4815 1724.98,-10.5141"/>
</g>
<!-- Node13 -->
<g id="node14" class="node"><title>Node13</title>
<g id="a_node14"><a xlink:href="base_2std__ext_2math_8h.html" target="_top" xlink:title="base/std_ext/math.h">
<polygon fill="white" stroke="black" points="1462,-112.5 1462,-131.5 1578,-131.5 1578,-112.5 1462,-112.5"/>
<text text-anchor="middle" x="1520" y="-119.5" font-family="Helvetica,sans-Serif" font-size="10.00">base/std_ext/math.h</text>
</a>
</g>
</g>
<!-- Node4&#45;&gt;Node13 -->
<g id="edge26" class="edge"><title>Node4&#45;&gt;Node13</title>
<path fill="none" stroke="midnightblue" d="M1160.58,-303.221C1227.57,-296.795 1385.54,-273.004 1480,-188 1494.58,-174.877 1505.68,-155.19 1512.44,-140.923"/>
<polygon fill="midnightblue" stroke="midnightblue" points="1515.7,-142.22 1516.59,-131.663 1509.31,-139.359 1515.7,-142.22"/>
</g>
<!-- Node4&#45;&gt;Node15 -->
<g id="edge33" class="edge"><title>Node4&#45;&gt;Node15</title>
<path fill="none" stroke="midnightblue" d="M1118.3,-296.729C1074.89,-261.15 911.627,-127.344 856.395,-82.0759"/>
<polygon fill="midnightblue" stroke="midnightblue" points="858.445,-79.2314 848.492,-75.5994 854.008,-84.6453 858.445,-79.2314"/>
</g>
<!-- Node4&#45;&gt;Node20 -->
<g id="edge35" class="edge"><title>Node4&#45;&gt;Node20</title>
<path fill="none" stroke="midnightblue" d="M1124.6,-296.805C1114.23,-276.313 1088.09,-224.645 1074.13,-197.042"/>
<polygon fill="midnightblue" stroke="midnightblue" points="1077.07,-195.099 1069.43,-187.756 1070.82,-198.259 1077.07,-195.099"/>
</g>
<!-- Node4&#45;&gt;Node21 -->
<g id="edge36" class="edge"><title>Node4&#45;&gt;Node21</title>
<path fill="none" stroke="midnightblue" d="M1130,-296.777C1132.22,-272.875 1134.96,-205.61 1101,-168 1093.7,-159.913 1035.05,-143.327 994.89,-132.707"/>
<polygon fill="midnightblue" stroke="midnightblue" points="995.681,-129.296 985.12,-130.144 993.905,-136.067 995.681,-129.296"/>
</g>
<!-- Node22 -->
<g id="node23" class="node"><title>Node22</title>
<g id="a_node23"><a xlink:href="shared__ptr__container_8h.html" target="_top" xlink:title="base/std_ext/shared\l_ptr_container.h">
<polygon fill="white" stroke="black" points="709,-224.5 709,-254.5 823,-254.5 823,-224.5 709,-224.5"/>
<text text-anchor="start" x="717" y="-242.5" font-family="Helvetica,sans-Serif" font-size="10.00">base/std_ext/shared</text>
<text text-anchor="middle" x="766" y="-231.5" font-family="Helvetica,sans-Serif" font-size="10.00">_ptr_container.h</text>
</a>
</g>
</g>
<!-- Node4&#45;&gt;Node22 -->
<g id="edge27" class="edge"><title>Node4&#45;&gt;Node22</title>
<path fill="none" stroke="midnightblue" d="M1097.26,-300.614C1044.54,-292.388 935.361,-274.885 833.077,-255.158"/>
<polygon fill="midnightblue" stroke="midnightblue" points="833.686,-251.711 823.203,-253.243 832.353,-258.583 833.686,-251.711"/>
</g>
<!-- Node4&#45;&gt;Node23 -->
<g id="edge37" class="edge"><title>Node4&#45;&gt;Node23</title>
<path fill="none" stroke="midnightblue" d="M1097.34,-304.154C1002.63,-299.807 726.38,-284.667 700,-255 685.689,-238.906 696.065,-213.528 706.003,-196.581"/>
<polygon fill="midnightblue" stroke="midnightblue" points="709.226,-198.033 711.614,-187.711 703.31,-194.291 709.226,-198.033"/>
</g>
<!-- Node5&#45;&gt;Node6 -->
<g id="edge6" class="edge"><title>Node5&#45;&gt;Node6</title>
<path fill="none" stroke="midnightblue" d="M1251.23,-229.975C1285.6,-219.592 1343.81,-202.012 1382.08,-190.454"/>
<polygon fill="midnightblue" stroke="midnightblue" points="1383.27,-193.751 1391.83,-187.509 1381.24,-187.05 1383.27,-193.751"/>
</g>
<!-- Node5&#45;&gt;Node20 -->
<g id="edge23" class="edge"><title>Node5&#45;&gt;Node20</title>
<path fill="none" stroke="midnightblue" d="M1200.36,-229.975C1173.26,-219.769 1127.69,-202.608 1097,-191.049"/>
<polygon fill="midnightblue" stroke="midnightblue" points="1098.19,-187.758 1087.6,-187.509 1095.72,-194.309 1098.19,-187.758"/>
</g>
<!-- Node5&#45;&gt;Node21 -->
<g id="edge24" class="edge"><title>Node5&#45;&gt;Node21</title>
<path fill="none" stroke="midnightblue" d="M1214.65,-229.689C1199.96,-214.728 1167.95,-184.389 1135,-168 1122.48,-161.772 1043.46,-142.931 995.006,-131.7"/>
<polygon fill="midnightblue" stroke="midnightblue" points="995.697,-128.268 985.166,-129.426 994.121,-135.088 995.697,-128.268"/>
</g>
<!-- Node7 -->
<g id="node8" class="node"><title>Node7</title>
<g id="a_node8"><a xlink:href="bitflag_8h.html" target="_top" xlink:title="base/bitflag.h">
<polygon fill="white" stroke="black" points="1596.5,-112.5 1596.5,-131.5 1677.5,-131.5 1677.5,-112.5 1596.5,-112.5"/>
<text text-anchor="middle" x="1637" y="-119.5" font-family="Helvetica,sans-Serif" font-size="10.00">base/bitflag.h</text>
</a>
</g>
</g>
<!-- Node6&#45;&gt;Node7 -->
<g id="edge7" class="edge"><title>Node6&#45;&gt;Node7</title>
<path fill="none" stroke="midnightblue" d="M1454.38,-168.444C1491.92,-159.102 1552.13,-144.119 1593.07,-133.933"/>
<polygon fill="midnightblue" stroke="midnightblue" points="1593.92,-137.328 1602.78,-131.516 1592.23,-130.535 1593.92,-137.328"/>
</g>
<!-- Node6&#45;&gt;Node9 -->
<g id="edge9" class="edge"><title>Node6&#45;&gt;Node9</title>
<path fill="none" stroke="midnightblue" d="M1471.18,-168.444C1529.61,-158.674 1624.96,-142.734 1685.8,-132.563"/>
<polygon fill="midnightblue" stroke="midnightblue" points="1686.71,-135.959 1696,-130.858 1685.56,-129.055 1686.71,-135.959"/>
</g>
<!-- Node6&#45;&gt;Node13 -->
<g id="edge14" class="edge"><title>Node6&#45;&gt;Node13</title>
<path fill="none" stroke="midnightblue" d="M1436.07,-168.324C1451.96,-159.743 1476.51,-146.486 1494.96,-136.522"/>
<polygon fill="midnightblue" stroke="midnightblue" points="1496.84,-139.486 1503.97,-131.655 1493.51,-133.326 1496.84,-139.486"/>
</g>
<!-- Node6&#45;&gt;Node15 -->
<g id="edge22" class="edge"><title>Node6&#45;&gt;Node15</title>
<path fill="none" stroke="midnightblue" d="M1404.6,-168.304C1378.32,-153.917 1322.73,-125.419 1272,-112 1126.47,-73.5074 945.351,-67.6594 871.596,-66.9693"/>
<polygon fill="midnightblue" stroke="midnightblue" points="871.533,-63.4689 861.51,-66.9017 871.486,-70.4688 871.533,-63.4689"/>
</g>
<!-- Node16 -->
<g id="node17" class="node"><title>Node16</title>
<polygon fill="white" stroke="#bfbfbf" points="1395.5,-112.5 1395.5,-131.5 1444.5,-131.5 1444.5,-112.5 1395.5,-112.5"/>
<text text-anchor="middle" x="1420" y="-119.5" font-family="Helvetica,sans-Serif" font-size="10.00">cstdint</text>
</g>
<!-- Node6&#45;&gt;Node16 -->
<g id="edge18" class="edge"><title>Node6&#45;&gt;Node16</title>
<path fill="none" stroke="midnightblue" d="M1420,-168.083C1420,-161.006 1420,-150.861 1420,-141.986"/>
<polygon fill="midnightblue" stroke="midnightblue" points="1423.5,-141.751 1420,-131.751 1416.5,-141.751 1423.5,-141.751"/>
</g>
<!-- Node17 -->
<g id="node18" class="node"><title>Node17</title>
<polygon fill="white" stroke="#bfbfbf" points="1199,-112.5 1199,-131.5 1263,-131.5 1263,-112.5 1199,-112.5"/>
<text text-anchor="middle" x="1231" y="-119.5" font-family="Helvetica,sans-Serif" font-size="10.00">stdexcept</text>
</g>
<!-- Node6&#45;&gt;Node17 -->
<g id="edge19" class="edge"><title>Node6&#45;&gt;Node17</title>
<path fill="none" stroke="midnightblue" d="M1390.05,-168.444C1357.84,-159.241 1306.47,-144.562 1270.86,-134.388"/>
<polygon fill="midnightblue" stroke="midnightblue" points="1271.38,-130.898 1260.81,-131.516 1269.46,-137.629 1271.38,-130.898"/>
</g>
<!-- Node18 -->
<g id="node19" class="node"><title>Node18</title>
<polygon fill="white" stroke="#bfbfbf" points="1942,-112.5 1942,-131.5 1986,-131.5 1986,-112.5 1942,-112.5"/>
<text text-anchor="middle" x="1964" y="-119.5" font-family="Helvetica,sans-Serif" font-size="10.00">string</text>
</g>
<!-- Node6&#45;&gt;Node18 -->
<g id="edge20" class="edge"><title>Node6&#45;&gt;Node18</title>
<path fill="none" stroke="midnightblue" d="M1471.78,-175.789C1563.08,-172.932 1758.62,-163.576 1931.72,-131.886"/>
<polygon fill="midnightblue" stroke="midnightblue" points="1932.58,-135.286 1941.77,-130.016 1931.3,-128.404 1932.58,-135.286"/>
</g>
<!-- Node19 -->
<g id="node20" class="node"><title>Node19</title>
<polygon fill="white" stroke="#bfbfbf" points="1041,-112.5 1041,-131.5 1109,-131.5 1109,-112.5 1041,-112.5"/>
<text text-anchor="middle" x="1075" y="-119.5" font-family="Helvetica,sans-Serif" font-size="10.00">type_traits</text>
</g>
<!-- Node6&#45;&gt;Node19 -->
<g id="edge21" class="edge"><title>Node6&#45;&gt;Node19</title>
<path fill="none" stroke="midnightblue" d="M1368.33,-169.382C1293.57,-158.347 1160.37,-138.646 1119.28,-132.036"/>
<polygon fill="midnightblue" stroke="midnightblue" points="1119.67,-128.553 1109.23,-130.353 1118.52,-135.457 1119.67,-128.553"/>
</g>
<!-- Node8 -->
<g id="node9" class="node"><title>Node8</title>
<polygon fill="white" stroke="#bfbfbf" points="1615,-56.5 1615,-75.5 1659,-75.5 1659,-56.5 1615,-56.5"/>
<text text-anchor="middle" x="1637" y="-63.5" font-family="Helvetica,sans-Serif" font-size="10.00">bitset</text>
</g>
<!-- Node7&#45;&gt;Node8 -->
<g id="edge8" class="edge"><title>Node7&#45;&gt;Node8</title>
<path fill="none" stroke="midnightblue" d="M1637,-112.083C1637,-105.006 1637,-94.8611 1637,-85.9865"/>
<polygon fill="midnightblue" stroke="midnightblue" points="1640.5,-85.751 1637,-75.7511 1633.5,-85.7511 1640.5,-85.751"/>
</g>
<!-- Node10 -->
<g id="node11" class="node"><title>Node10</title>
<g id="a_node11"><a xlink:href="vec2_8h.html" target="_top" xlink:title="vec2.h">
<polygon fill="white" stroke="black" points="1719,-56.5 1719,-75.5 1767,-75.5 1767,-56.5 1719,-56.5"/>
<text text-anchor="middle" x="1743" y="-63.5" font-family="Helvetica,sans-Serif" font-size="10.00">vec2.h</text>
</a>
</g>
</g>
<!-- Node9&#45;&gt;Node10 -->
<g id="edge10" class="edge"><title>Node9&#45;&gt;Node10</title>
<path fill="none" stroke="midnightblue" d="M1743,-112.083C1743,-105.006 1743,-94.8611 1743,-85.9865"/>
<polygon fill="midnightblue" stroke="midnightblue" points="1746.5,-85.751 1743,-75.7511 1739.5,-85.7511 1746.5,-85.751"/>
</g>
<!-- Node9&#45;&gt;Node11 -->
<g id="edge13" class="edge"><title>Node9&#45;&gt;Node11</title>
<path fill="none" stroke="midnightblue" d="M1735.17,-112.3C1727.76,-103.65 1716.78,-89.7257 1710,-76 1702.68,-61.1749 1697.67,-43.0235 1694.64,-29.6736"/>
<polygon fill="midnightblue" stroke="midnightblue" points="1698.04,-28.8311 1692.55,-19.7675 1691.19,-30.2742 1698.04,-28.8311"/>
</g>
<!-- Node12 -->
<g id="node13" class="node"><title>Node12</title>
<polygon fill="white" stroke="#bfbfbf" points="1789.5,-56.5 1789.5,-75.5 1846.5,-75.5 1846.5,-56.5 1789.5,-56.5"/>
<text text-anchor="middle" x="1818" y="-63.5" font-family="Helvetica,sans-Serif" font-size="10.00">ostream</text>
</g>
<!-- Node9&#45;&gt;Node12 -->
<g id="edge12" class="edge"><title>Node9&#45;&gt;Node12</title>
<path fill="none" stroke="midnightblue" d="M1755.05,-112.324C1766.46,-104.107 1783.83,-91.6017 1797.43,-81.8069"/>
<polygon fill="midnightblue" stroke="midnightblue" points="1799.66,-84.5174 1805.73,-75.8339 1795.57,-78.8366 1799.66,-84.5174"/>
</g>
<!-- Node10&#45;&gt;Node11 -->
<g id="edge11" class="edge"><title>Node10&#45;&gt;Node11</title>
<path fill="none" stroke="midnightblue" d="M1734.41,-56.083C1726.84,-48.2195 1715.62,-36.5688 1706.49,-27.0813"/>
<polygon fill="midnightblue" stroke="midnightblue" points="1708.88,-24.5266 1699.43,-19.7511 1703.84,-29.3821 1708.88,-24.5266"/>
</g>
<!-- Node13&#45;&gt;Node11 -->
<g id="edge15" class="edge"><title>Node13&#45;&gt;Node11</title>
<path fill="none" stroke="midnightblue" d="M1530.2,-112.433C1545.92,-99.4307 1577.27,-74.2964 1606,-56 1624.6,-44.1539 1646.63,-32.553 1663.61,-24.0976"/>
<polygon fill="midnightblue" stroke="midnightblue" points="1665.52,-27.0571 1672.95,-19.5046 1662.43,-20.775 1665.52,-27.0571"/>
</g>
<!-- Node14 -->
<g id="node15" class="node"><title>Node14</title>
<polygon fill="white" stroke="#bfbfbf" points="1415,-56.5 1415,-75.5 1457,-75.5 1457,-56.5 1415,-56.5"/>
<text text-anchor="middle" x="1436" y="-63.5" font-family="Helvetica,sans-Serif" font-size="10.00">limits</text>
</g>
<!-- Node13&#45;&gt;Node14 -->
<g id="edge16" class="edge"><title>Node13&#45;&gt;Node14</title>
<path fill="none" stroke="midnightblue" d="M1506.5,-112.324C1493.4,-103.9 1473.29,-90.9709 1457.89,-81.0741"/>
<polygon fill="midnightblue" stroke="midnightblue" points="1459.77,-78.118 1449.46,-75.6545 1455.98,-84.0063 1459.77,-78.118"/>
</g>
<!-- Node13&#45;&gt;Node15 -->
<g id="edge17" class="edge"><title>Node13&#45;&gt;Node15</title>
<path fill="none" stroke="midnightblue" d="M1461.92,-112.98C1458.91,-112.632 1455.92,-112.303 1453,-112 1231.75,-89.0667 964.528,-73.7171 871.698,-68.7477"/>
<polygon fill="midnightblue" stroke="midnightblue" points="871.677,-65.2417 861.505,-68.2064 871.306,-72.2319 871.677,-65.2417"/>
</g>
<!-- Node22&#45;&gt;Node15 -->
<g id="edge28" class="edge"><title>Node22&#45;&gt;Node15</title>
<path fill="none" stroke="midnightblue" d="M771.892,-224.465C784.919,-193.436 816.148,-119.049 830.525,-84.8058"/>
<polygon fill="midnightblue" stroke="midnightblue" points="833.763,-86.135 834.406,-75.5597 827.308,-83.4253 833.763,-86.135"/>
</g>
<!-- Node22&#45;&gt;Node23 -->
<g id="edge29" class="edge"><title>Node22&#45;&gt;Node23</title>
<path fill="none" stroke="midnightblue" d="M754.625,-224.399C747.65,-215.753 738.686,-204.642 731.372,-195.576"/>
<polygon fill="midnightblue" stroke="midnightblue" points="733.987,-193.243 724.984,-187.658 728.539,-197.638 733.987,-193.243"/>
</g>
<!-- Node24 -->
<g id="node25" class="node"><title>Node24</title>
<polygon fill="white" stroke="#bfbfbf" points="841.5,-168.5 841.5,-187.5 904.5,-187.5 904.5,-168.5 841.5,-168.5"/>
<text text-anchor="middle" x="873" y="-175.5" font-family="Helvetica,sans-Serif" font-size="10.00">functional</text>
</g>
<!-- Node22&#45;&gt;Node24 -->
<g id="edge30" class="edge"><title>Node22&#45;&gt;Node24</title>
<path fill="none" stroke="midnightblue" d="M791.358,-224.399C808.669,-214.773 831.476,-202.09 848.584,-192.577"/>
<polygon fill="midnightblue" stroke="midnightblue" points="850.392,-195.577 857.431,-187.658 846.99,-189.459 850.392,-195.577"/>
</g>
<!-- Node22&#45;&gt;Node25 -->
<g id="edge31" class="edge"><title>Node22&#45;&gt;Node25</title>
<path fill="none" stroke="midnightblue" d="M766.435,-224.416C766.315,-209.552 764.435,-185.852 755,-168 748.725,-156.127 738.09,-145.669 728.424,-137.83"/>
<polygon fill="midnightblue" stroke="midnightblue" points="730.387,-134.925 720.312,-131.646 726.143,-140.492 730.387,-134.925"/>
</g>
<!-- Node27&#45;&gt;Node12 -->
<g id="edge56" class="edge"><title>Node27&#45;&gt;Node12</title>
<path fill="none" stroke="midnightblue" d="M1909.6,-233.774C1940.03,-228.028 1975.77,-215.441 1995,-188 2014.38,-160.337 2015.73,-138.665 1995,-112 1978.22,-90.4168 1903.72,-77.4913 1856.89,-71.3536"/>
<polygon fill="midnightblue" stroke="midnightblue" points="1857.13,-67.8568 1846.77,-70.0767 1856.25,-74.8017 1857.13,-67.8568"/>
</g>
<!-- Node27&#45;&gt;Node15 -->
<g id="edge59" class="edge"><title>Node27&#45;&gt;Node15</title>
<path fill="none" stroke="midnightblue" d="M1802.03,-236.396C1674.36,-231.027 1356.76,-215.285 1254,-188 1233.63,-182.591 1231.03,-174.568 1211,-168 1133.89,-142.711 1108.46,-159.175 1032,-132 1014.02,-125.609 1011.7,-119.126 994,-112 952.944,-95.4751 903.569,-82.2932 871.522,-74.5696"/>
<polygon fill="midnightblue" stroke="midnightblue" points="872.296,-71.1562 861.759,-72.2564 870.682,-77.9676 872.296,-71.1562"/>
</g>
<!-- Node27&#45;&gt;Node18 -->
<g id="edge55" class="edge"><title>Node27&#45;&gt;Node18</title>
<path fill="none" stroke="midnightblue" d="M1855.22,-229.686C1854.42,-215.253 1854.89,-186.353 1869,-168 1877.26,-157.254 1907.92,-143.829 1932.2,-134.451"/>
<polygon fill="midnightblue" stroke="midnightblue" points="1933.68,-137.633 1941.8,-130.823 1931.21,-131.085 1933.68,-137.633"/>
</g>
<!-- Node27&#45;&gt;Node26 -->
<g id="edge46" class="edge"><title>Node27&#45;&gt;Node26</title>
<path fill="none" stroke="midnightblue" d="M1849.91,-229.993C1841.04,-216.476 1826.58,-189.432 1836,-168 1841.39,-155.732 1851.96,-145.341 1861.9,-137.646"/>
<polygon fill="midnightblue" stroke="midnightblue" points="1864.25,-140.27 1870.34,-131.598 1860.17,-134.581 1864.25,-140.27"/>
</g>
<!-- Node28 -->
<g id="node29" class="node"><title>Node28</title>
<g id="a_node29"><a xlink:href="interval_8h.html" target="_top" xlink:title="base/interval.h">
<polygon fill="white" stroke="black" points="1263.5,-168.5 1263.5,-187.5 1350.5,-187.5 1350.5,-168.5 1263.5,-168.5"/>
<text text-anchor="middle" x="1307" y="-175.5" font-family="Helvetica,sans-Serif" font-size="10.00">base/interval.h</text>
</a>
</g>
</g>
<!-- Node27&#45;&gt;Node28 -->
<g id="edge47" class="edge"><title>Node27&#45;&gt;Node28</title>
<path fill="none" stroke="midnightblue" d="M1802.16,-234.275C1712.59,-226.973 1527.11,-210.693 1360.59,-188.14"/>
<polygon fill="midnightblue" stroke="midnightblue" points="1361.04,-184.67 1350.66,-186.785 1360.09,-191.605 1361.04,-184.67"/>
</g>
<!-- Node30 -->
<g id="node31" class="node"><title>Node30</title>
<polygon fill="white" stroke="#bfbfbf" points="1878,-168.5 1878,-187.5 1916,-187.5 1916,-168.5 1878,-168.5"/>
<text text-anchor="middle" x="1897" y="-175.5" font-family="Helvetica,sans-Serif" font-size="10.00">map</text>
</g>
<!-- Node27&#45;&gt;Node30 -->
<g id="edge57" class="edge"><title>Node27&#45;&gt;Node30</title>
<path fill="none" stroke="midnightblue" d="M1861.87,-229.975C1867.96,-221.138 1877.64,-207.089 1885.3,-195.975"/>
<polygon fill="midnightblue" stroke="midnightblue" points="1888.34,-197.729 1891.14,-187.509 1882.58,-193.758 1888.34,-197.729"/>
</g>
<!-- Node31 -->
<g id="node32" class="node"><title>Node31</title>
<polygon fill="white" stroke="#bfbfbf" points="1934,-168.5 1934,-187.5 1986,-187.5 1986,-168.5 1934,-168.5"/>
<text text-anchor="middle" x="1960" y="-175.5" font-family="Helvetica,sans-Serif" font-size="10.00">iterator</text>
</g>
<!-- Node27&#45;&gt;Node31 -->
<g id="edge58" class="edge"><title>Node27&#45;&gt;Node31</title>
<path fill="none" stroke="midnightblue" d="M1870.9,-229.975C1887.97,-220.211 1916.16,-204.081 1936.26,-192.581"/>
<polygon fill="midnightblue" stroke="midnightblue" points="1938.19,-195.513 1945.13,-187.509 1934.71,-189.437 1938.19,-195.513"/>
</g>
<!-- Node28&#45;&gt;Node11 -->
<g id="edge54" class="edge"><title>Node28&#45;&gt;Node11</title>
<path fill="none" stroke="midnightblue" d="M1311.07,-168.355C1322.39,-145.41 1356.67,-82.9004 1406,-56 1448.8,-32.6566 1591.3,-18.7944 1657.13,-13.4918"/>
<polygon fill="midnightblue" stroke="midnightblue" points="1657.68,-16.959 1667.38,-12.6856 1657.14,-9.98054 1657.68,-16.959"/>
</g>
<!-- Node28&#45;&gt;Node14 -->
<g id="edge51" class="edge"><title>Node28&#45;&gt;Node14</title>
<path fill="none" stroke="midnightblue" d="M1317.12,-168.368C1338.98,-149.733 1390.81,-105.532 1418.25,-82.1338"/>
<polygon fill="midnightblue" stroke="midnightblue" points="1420.59,-84.7431 1425.92,-75.5914 1416.04,-79.4167 1420.59,-84.7431"/>
</g>
<!-- Node28&#45;&gt;Node17 -->
<g id="edge50" class="edge"><title>Node28&#45;&gt;Node17</title>
<path fill="none" stroke="midnightblue" d="M1294.79,-168.324C1283.22,-160.107 1265.62,-147.602 1251.84,-137.807"/>
<polygon fill="midnightblue" stroke="midnightblue" points="1253.61,-134.773 1243.43,-131.834 1249.56,-140.479 1253.61,-134.773"/>
</g>
<!-- Node28&#45;&gt;Node21 -->
<g id="edge53" class="edge"><title>Node28&#45;&gt;Node21</title>
<path fill="none" stroke="midnightblue" d="M1263.38,-170.27C1194.32,-159.616 1060.95,-139.038 995.343,-128.916"/>
<polygon fill="midnightblue" stroke="midnightblue" points="995.833,-125.45 985.416,-127.384 994.765,-132.368 995.833,-125.45"/>
</g>
<!-- Node28&#45;&gt;Node25 -->
<g id="edge49" class="edge"><title>Node28&#45;&gt;Node25</title>
<path fill="none" stroke="midnightblue" d="M1263.37,-173.073C1151.8,-163.032 857.257,-136.523 748.295,-126.717"/>
<polygon fill="midnightblue" stroke="midnightblue" points="748.314,-123.204 738.04,-125.794 747.686,-130.176 748.314,-123.204"/>
</g>
<!-- Node28&#45;&gt;Node26 -->
<g id="edge48" class="edge"><title>Node28&#45;&gt;Node26</title>
<path fill="none" stroke="midnightblue" d="M1350.65,-169.153C1353.47,-168.736 1356.27,-168.347 1359,-168 1553.64,-143.244 1603.64,-150.212 1799,-132 1810.79,-130.901 1823.48,-129.624 1835.4,-128.384"/>
<polygon fill="midnightblue" stroke="midnightblue" points="1836.05,-131.835 1845.63,-127.309 1835.32,-124.873 1836.05,-131.835"/>
</g>
<!-- Node29 -->
<g id="node30" class="node"><title>Node29</title>
<polygon fill="white" stroke="#bfbfbf" points="1127.5,-112.5 1127.5,-131.5 1180.5,-131.5 1180.5,-112.5 1127.5,-112.5"/>
<text text-anchor="middle" x="1154" y="-119.5" font-family="Helvetica,sans-Serif" font-size="10.00">istream</text>
</g>
<!-- Node28&#45;&gt;Node29 -->
<g id="edge52" class="edge"><title>Node28&#45;&gt;Node29</title>
<path fill="none" stroke="midnightblue" d="M1282.76,-168.444C1257.13,-159.399 1216.51,-145.064 1187.76,-134.916"/>
<polygon fill="midnightblue" stroke="midnightblue" points="1188.72,-131.544 1178.13,-131.516 1186.39,-138.145 1188.72,-131.544"/>
</g>
<!-- Node32&#45;&gt;Node15 -->
<g id="edge67" class="edge"><title>Node32&#45;&gt;Node15</title>
<path fill="none" stroke="midnightblue" d="M391.477,-238.139C318.436,-236.566 155.357,-228.492 121,-188 108.544,-173.319 105.692,-133.547 129,-112 178.987,-65.7908 670.05,-65.815 804.256,-66.6968"/>
<polygon fill="midnightblue" stroke="midnightblue" points="804.333,-70.1973 814.358,-66.7694 804.384,-63.1975 804.333,-70.1973"/>
</g>
<!-- Node32&#45;&gt;Node19 -->
<g id="edge71" class="edge"><title>Node32&#45;&gt;Node19</title>
<path fill="none" stroke="midnightblue" d="M451.108,-229.976C477.275,-220.513 520.128,-204.4 556,-188 573.357,-180.065 575.696,-173.405 594,-168 765.189,-117.452 816.399,-149.857 994,-132 1005.87,-130.807 1018.7,-129.423 1030.58,-128.104"/>
<polygon fill="midnightblue" stroke="midnightblue" points="1031.18,-131.56 1040.73,-126.968 1030.4,-124.603 1031.18,-131.56"/>
</g>
<!-- Node32&#45;&gt;Node23 -->
<g id="edge65" class="edge"><title>Node32&#45;&gt;Node23</title>
<path fill="none" stroke="midnightblue" d="M462.682,-231.204C517.689,-219.957 622.761,-198.473 679.452,-186.882"/>
<polygon fill="midnightblue" stroke="midnightblue" points="680.355,-190.27 689.451,-184.837 678.953,-183.412 680.355,-190.27"/>
</g>
<!-- Node32&#45;&gt;Node25 -->
<g id="edge68" class="edge"><title>Node32&#45;&gt;Node25</title>
<path fill="none" stroke="midnightblue" d="M421.142,-229.997C411.946,-215.501 396.67,-185.845 412,-168 444.216,-130.497 592.373,-123.902 665.681,-122.973"/>
<polygon fill="midnightblue" stroke="midnightblue" points="665.965,-126.471 675.931,-122.875 665.898,-119.471 665.965,-126.471"/>
</g>
<!-- Node33 -->
<g id="node34" class="node"><title>Node33</title>
<polygon fill="white" stroke="#bfbfbf" points="261.5,-168.5 261.5,-187.5 364.5,-187.5 364.5,-168.5 261.5,-168.5"/>
<text text-anchor="middle" x="313" y="-175.5" font-family="Helvetica,sans-Serif" font-size="10.00">cereal/access.hpp</text>
</g>
<!-- Node32&#45;&gt;Node33 -->
<g id="edge61" class="edge"><title>Node32&#45;&gt;Node33</title>
<path fill="none" stroke="midnightblue" d="M410.667,-229.975C391.789,-220.122 360.493,-203.788 338.424,-192.27"/>
<polygon fill="midnightblue" stroke="midnightblue" points="339.788,-189.033 329.303,-187.509 336.549,-195.239 339.788,-189.033"/>
</g>
<!-- Node34 -->
<g id="node35" class="node"><title>Node34</title>
<g id="a_node35"><a xlink:href="variadic_8h.html" target="_top" xlink:title="std_ext/variadic.h">
<polygon fill="white" stroke="black" points="142.5,-168.5 142.5,-187.5 243.5,-187.5 243.5,-168.5 142.5,-168.5"/>
<text text-anchor="middle" x="193" y="-175.5" font-family="Helvetica,sans-Serif" font-size="10.00">std_ext/variadic.h</text>
</a>
</g>
</g>
<!-- Node32&#45;&gt;Node34 -->
<g id="edge62" class="edge"><title>Node32&#45;&gt;Node34</title>
<path fill="none" stroke="midnightblue" d="M393.474,-229.975C352.118,-219.459 281.729,-201.562 236.316,-190.014"/>
<polygon fill="midnightblue" stroke="midnightblue" points="237.018,-186.581 226.464,-187.509 235.293,-193.366 237.018,-186.581"/>
</g>
<!-- Node32&#45;&gt;Node37 -->
<g id="edge66" class="edge"><title>Node32&#45;&gt;Node37</title>
<path fill="none" stroke="midnightblue" d="M454.366,-229.975C491.543,-218.394 557.467,-197.857 593.242,-186.713"/>
<polygon fill="midnightblue" stroke="midnightblue" points="594.391,-190.02 602.898,-183.705 592.309,-183.337 594.391,-190.02"/>
</g>
<!-- Node38 -->
<g id="node39" class="node"><title>Node38</title>
<polygon fill="white" stroke="#bfbfbf" points="421,-168.5 421,-187.5 473,-187.5 473,-168.5 421,-168.5"/>
<text text-anchor="middle" x="447" y="-175.5" font-family="Helvetica,sans-Serif" font-size="10.00">cassert</text>
</g>
<!-- Node32&#45;&gt;Node38 -->
<g id="edge69" class="edge"><title>Node32&#45;&gt;Node38</title>
<path fill="none" stroke="midnightblue" d="M429.866,-229.975C432.717,-221.492 437.183,-208.204 440.841,-197.322"/>
<polygon fill="midnightblue" stroke="midnightblue" points="444.271,-198.103 444.14,-187.509 437.636,-195.873 444.271,-198.103"/>
</g>
<!-- Node39 -->
<g id="node40" class="node"><title>Node39</title>
<polygon fill="white" stroke="#bfbfbf" points="491,-168.5 491,-187.5 547,-187.5 547,-168.5 491,-168.5"/>
<text text-anchor="middle" x="519" y="-175.5" font-family="Helvetica,sans-Serif" font-size="10.00">numeric</text>
</g>
<!-- Node32&#45;&gt;Node39 -->
<g id="edge70" class="edge"><title>Node32&#45;&gt;Node39</title>
<path fill="none" stroke="midnightblue" d="M440.181,-229.975C455.074,-220.343 479.544,-204.517 497.273,-193.052"/>
<polygon fill="midnightblue" stroke="midnightblue" points="499.347,-195.879 505.843,-187.509 495.545,-190.001 499.347,-195.879"/>
</g>
<!-- Node35 -->
<g id="node36" class="node"><title>Node35</title>
<polygon fill="white" stroke="#bfbfbf" points="217,-112.5 217,-131.5 269,-131.5 269,-112.5 217,-112.5"/>
<text text-anchor="middle" x="243" y="-119.5" font-family="Helvetica,sans-Serif" font-size="10.00">cstddef</text>
</g>
<!-- Node34&#45;&gt;Node35 -->
<g id="edge63" class="edge"><title>Node34&#45;&gt;Node35</title>
<path fill="none" stroke="midnightblue" d="M201.256,-168.083C208.465,-160.298 219.11,-148.801 227.846,-139.367"/>
<polygon fill="midnightblue" stroke="midnightblue" points="230.671,-141.467 234.897,-131.751 225.535,-136.711 230.671,-141.467"/>
</g>
<!-- Node36 -->
<g id="node37" class="node"><title>Node36</title>
<polygon fill="white" stroke="#bfbfbf" points="157.5,-112.5 157.5,-131.5 198.5,-131.5 198.5,-112.5 157.5,-112.5"/>
<text text-anchor="middle" x="178" y="-119.5" font-family="Helvetica,sans-Serif" font-size="10.00">tuple</text>
</g>
<!-- Node34&#45;&gt;Node36 -->
<g id="edge64" class="edge"><title>Node34&#45;&gt;Node36</title>
<path fill="none" stroke="midnightblue" d="M190.523,-168.083C188.514,-160.849 185.614,-150.409 183.11,-141.397"/>
<polygon fill="midnightblue" stroke="midnightblue" points="186.48,-140.449 180.431,-131.751 179.735,-142.323 186.48,-140.449"/>
</g>
<!-- Node40&#45;&gt;Node9 -->
<g id="edge73" class="edge"><title>Node40&#45;&gt;Node9</title>
<path fill="none" stroke="midnightblue" d="M1670.67,-296.698C1682.43,-268.452 1719.39,-179.7 1735.44,-141.161"/>
<polygon fill="midnightblue" stroke="midnightblue" points="1738.76,-142.291 1739.37,-131.714 1732.3,-139.6 1738.76,-142.291"/>
</g>
<!-- Node42&#45;&gt;Node12 -->
<g id="edge88" class="edge"><title>Node42&#45;&gt;Node12</title>
<path fill="none" stroke="midnightblue" d="M691.393,-304.146C813.202,-300.879 1077.82,-290.028 1298,-255 1524.43,-218.977 1633.38,-290.549 1799,-132 1811.46,-120.068 1815.88,-100.453 1817.38,-85.8867"/>
<polygon fill="midnightblue" stroke="midnightblue" points="1820.9,-85.7368 1818.06,-75.5301 1813.91,-85.2809 1820.9,-85.7368"/>
</g>
<!-- Node42&#45;&gt;Node15 -->
<g id="edge80" class="edge"><title>Node42&#45;&gt;Node15</title>
<path fill="none" stroke="midnightblue" d="M556.956,-302.127C389.185,-291.542 -25.7523,-250.912 112,-112 136.672,-87.1204 664.361,-71.5543 804.227,-67.8553"/>
<polygon fill="midnightblue" stroke="midnightblue" points="804.448,-71.3508 814.353,-67.5904 804.265,-64.3532 804.448,-71.3508"/>
</g>
<!-- Node42&#45;&gt;Node23 -->
<g id="edge81" class="edge"><title>Node42&#45;&gt;Node23</title>
<path fill="none" stroke="midnightblue" d="M610.26,-291.262C595.491,-274.179 576.025,-245.194 591,-224 601.49,-209.154 646.054,-195.748 679.451,-187.506"/>
<polygon fill="midnightblue" stroke="midnightblue" points="680.5,-190.853 689.407,-185.117 678.867,-184.046 680.5,-190.853"/>
</g>
<!-- Node43 -->
<g id="node44" class="node"><title>Node43</title>
<g id="a_node44"><a xlink:href="_interpolator_8h.html" target="_top" xlink:title="base/Interpolator.h">
<polygon fill="white" stroke="black" points="841.5,-230 841.5,-249 948.5,-249 948.5,-230 841.5,-230"/>
<text text-anchor="middle" x="895" y="-237" font-family="Helvetica,sans-Serif" font-size="10.00">base/Interpolator.h</text>
</a>
</g>
</g>
<!-- Node42&#45;&gt;Node43 -->
<g id="edge82" class="edge"><title>Node42&#45;&gt;Node43</title>
<path fill="none" stroke="midnightblue" d="M682.469,-291.476C732.521,-279.471 803.571,-262.43 849.478,-251.419"/>
<polygon fill="midnightblue" stroke="midnightblue" points="850.534,-254.765 859.442,-249.029 848.901,-247.958 850.534,-254.765"/>
</g>
<!-- Node43&#45;&gt;Node15 -->
<g id="edge83" class="edge"><title>Node43&#45;&gt;Node15</title>
<path fill="none" stroke="midnightblue" d="M862.828,-229.956C853,-227.654 842.115,-225.413 832,-224 754.979,-213.237 186.559,-244.388 133,-188 116.973,-171.126 123.841,-131.822 148,-112 199.058,-70.108 672.211,-66.9858 804.045,-66.9348"/>
<polygon fill="midnightblue" stroke="midnightblue" points="804.336,-70.4347 814.337,-66.937 804.338,-63.4347 804.336,-70.4347"/>
</g>
<!-- Node43&#45;&gt;Node17 -->
<g id="edge84" class="edge"><title>Node43&#45;&gt;Node17</title>
<path fill="none" stroke="midnightblue" d="M908.408,-229.813C931.779,-215.039 981.894,-184.975 1028,-168 1035.57,-165.213 1131.56,-144.375 1188.79,-132.055"/>
<polygon fill="midnightblue" stroke="midnightblue" points="1189.61,-135.459 1198.65,-129.934 1188.13,-128.615 1189.61,-135.459"/>
</g>
<!-- Node43&#45;&gt;Node23 -->
<g id="edge85" class="edge"><title>Node43&#45;&gt;Node23</title>
<path fill="none" stroke="midnightblue" d="M869.64,-229.975C839.016,-219.68 787.343,-202.31 752.954,-190.75"/>
<polygon fill="midnightblue" stroke="midnightblue" points="753.907,-187.378 743.313,-187.509 751.676,-194.013 753.907,-187.378"/>
</g>
<!-- Node43&#45;&gt;Node24 -->
<g id="edge86" class="edge"><title>Node43&#45;&gt;Node24</title>
<path fill="none" stroke="midnightblue" d="M891.848,-229.975C888.679,-221.404 883.696,-207.927 879.649,-196.983"/>
<polygon fill="midnightblue" stroke="midnightblue" points="882.897,-195.675 876.146,-187.509 876.332,-198.102 882.897,-195.675"/>
</g>
<!-- Node43&#45;&gt;Node28 -->
<g id="edge87" class="edge"><title>Node43&#45;&gt;Node28</title>
<path fill="none" stroke="midnightblue" d="M948.862,-230.721C1027.87,-219.311 1174.35,-198.157 1253.28,-186.758"/>
<polygon fill="midnightblue" stroke="midnightblue" points="1254.09,-190.177 1263.49,-185.284 1253.09,-183.249 1254.09,-190.177"/>
</g>
</g>
</svg>
