<?xml version="1.0" encoding="UTF-8" standalone="no"?>
<!DOCTYPE svg PUBLIC "-//W3C//DTD SVG 1.1//EN"
 "http://www.w3.org/Graphics/SVG/1.1/DTD/svg11.dtd">
<!-- Generated by graphviz version 2.38.0 (20140413.2041)
 -->
<!-- Title: src/calibration/fitfunctions/KnobsTF1.cc Pages: 1 -->
<svg width="283pt" height="218pt"
 viewBox="0.00 0.00 282.50 218.00" xmlns="http://www.w3.org/2000/svg" xmlns:xlink="http://www.w3.org/1999/xlink">
<g id="graph0" class="graph" transform="scale(1 1) rotate(0) translate(4 214)">
<title>src/calibration/fitfunctions/KnobsTF1.cc</title>
<polygon fill="white" stroke="none" points="-4,4 -4,-214 278.5,-214 278.5,4 -4,4"/>
<!-- Node0 -->
<g id="node1" class="node"><title>Node0</title>
<polygon fill="#bfbfbf" stroke="black" points="135.5,-179.5 135.5,-209.5 274.5,-209.5 274.5,-179.5 135.5,-179.5"/>
<text text-anchor="start" x="143.5" y="-197.5" font-family="Helvetica,sans-Serif" font-size="10.00">src/calibration/fitfunctions</text>
<text text-anchor="middle" x="205" y="-186.5" font-family="Helvetica,sans-Serif" font-size="10.00">/KnobsTF1.cc</text>
</g>
<!-- Node1 -->
<g id="node2" class="node"><title>Node1</title>
<g id="a_node2"><a xlink:href="_knobs_t_f1_8h.html" target="_top" xlink:title="KnobsTF1.h">
<polygon fill="white" stroke="black" points="132.5,-123.5 132.5,-142.5 203.5,-142.5 203.5,-123.5 132.5,-123.5"/>
<text text-anchor="middle" x="168" y="-130.5" font-family="Helvetica,sans-Serif" font-size="10.00">KnobsTF1.h</text>
</a>
</g>
</g>
<!-- Node0&#45;&gt;Node1 -->
<g id="edge1" class="edge"><title>Node0&#45;&gt;Node1</title>
<path fill="none" stroke="midnightblue" d="M196.232,-179.399C191.021,-171.021 184.371,-160.327 178.834,-151.423"/>
<polygon fill="midnightblue" stroke="midnightblue" points="181.637,-149.302 173.384,-142.658 175.692,-152.998 181.637,-149.302"/>
</g>
<!-- Node6 -->
<g id="node7" class="node"><title>Node6</title>
<polygon fill="white" stroke="#bfbfbf" points="222,-123.5 222,-142.5 264,-142.5 264,-123.5 222,-123.5"/>
<text text-anchor="middle" x="243" y="-130.5" font-family="Helvetica,sans-Serif" font-size="10.00">TF1.h</text>
</g>
<!-- Node0&#45;&gt;Node6 -->
<g id="edge6" class="edge"><title>Node0&#45;&gt;Node6</title>
<path fill="none" stroke="midnightblue" d="M214.005,-179.399C219.413,-170.932 226.332,-160.099 232.054,-151.139"/>
<polygon fill="midnightblue" stroke="midnightblue" points="235.038,-152.97 237.471,-142.658 229.138,-149.202 235.038,-152.97"/>
</g>
<!-- Node2 -->
<g id="node3" class="node"><title>Node2</title>
<g id="a_node3"><a xlink:href="_indicator__traits_8h.html" target="_top" xlink:title="calibration/gui/Indicator\l_traits.h">
<polygon fill="white" stroke="black" points="0,-56.5 0,-86.5 128,-86.5 128,-56.5 0,-56.5"/>
<text text-anchor="start" x="8" y="-74.5" font-family="Helvetica,sans-Serif" font-size="10.00">calibration/gui/Indicator</text>
<text text-anchor="middle" x="64" y="-63.5" font-family="Helvetica,sans-Serif" font-size="10.00">_traits.h</text>
</a>
</g>
</g>
<!-- Node1&#45;&gt;Node2 -->
<g id="edge2" class="edge"><title>Node1&#45;&gt;Node2</title>
<path fill="none" stroke="midnightblue" d="M153.099,-123.475C138.619,-115.191 116.13,-102.325 97.3696,-91.5913"/>
<polygon fill="midnightblue" stroke="midnightblue" points="98.9287,-88.4509 88.5107,-86.523 95.4525,-94.5269 98.9287,-88.4509"/>
</g>
<!-- Node4 -->
<g id="node5" class="node"><title>Node4</title>
<polygon fill="white" stroke="#bfbfbf" points="146,-62 146,-81 190,-81 190,-62 146,-62"/>
<text text-anchor="middle" x="168" y="-69" font-family="Helvetica,sans-Serif" font-size="10.00">string</text>
</g>
<!-- Node1&#45;&gt;Node4 -->
<g id="edge4" class="edge"><title>Node1&#45;&gt;Node4</title>
<path fill="none" stroke="midnightblue" d="M168,-123.475C168,-115.08 168,-101.981 168,-91.1631"/>
<polygon fill="midnightblue" stroke="midnightblue" points="171.5,-91.0091 168,-81.0091 164.5,-91.0091 171.5,-91.0091"/>
</g>
<!-- Node5 -->
<g id="node6" class="node"><title>Node5</title>
<polygon fill="white" stroke="#bfbfbf" points="208.5,-62 208.5,-81 271.5,-81 271.5,-62 208.5,-62"/>
<text text-anchor="middle" x="240" y="-69" font-family="Helvetica,sans-Serif" font-size="10.00">functional</text>
</g>
<!-- Node1&#45;&gt;Node5 -->
<g id="edge5" class="edge"><title>Node1&#45;&gt;Node5</title>
<path fill="none" stroke="midnightblue" d="M178.316,-123.475C189.651,-114.108 208.073,-98.8839 221.839,-87.5081"/>
<polygon fill="midnightblue" stroke="midnightblue" points="224.224,-90.0773 229.703,-81.0091 219.765,-84.6813 224.224,-90.0773"/>
</g>
<!-- Node3 -->
<g id="node4" class="node"><title>Node3</title>
<polygon fill="white" stroke="#bfbfbf" points="35,-0.5 35,-19.5 93,-19.5 93,-0.5 35,-0.5"/>
<text text-anchor="middle" x="64" y="-7.5" font-family="Helvetica,sans-Serif" font-size="10.00">Rtypes.h</text>
</g>
<!-- Node2&#45;&gt;Node3 -->
<g id="edge3" class="edge"><title>Node2&#45;&gt;Node3</title>
<path fill="none" stroke="midnightblue" d="M64,-56.3993C64,-48.4664 64,-38.458 64,-29.8583"/>
<polygon fill="midnightblue" stroke="midnightblue" points="67.5001,-29.6577 64,-19.6578 60.5001,-29.6578 67.5001,-29.6577"/>
</g>
</g>
</svg>
