<?xml version="1.0" encoding="UTF-8" standalone="no"?>
<!DOCTYPE svg PUBLIC "-//W3C//DTD SVG 1.1//EN"
 "http://www.w3.org/Graphics/SVG/1.1/DTD/svg11.dtd">
<!-- Generated by graphviz version 2.38.0 (20140413.2041)
 -->
<!-- Title: src/analysis/utils/MCSmear.h Pages: 1 -->
<svg width="1796pt" height="554pt"
 viewBox="0.00 0.00 1795.50 554.00" xmlns="http://www.w3.org/2000/svg" xmlns:xlink="http://www.w3.org/1999/xlink">
<g id="graph0" class="graph" transform="scale(1 1) rotate(0) translate(4 550)">
<title>src/analysis/utils/MCSmear.h</title>
<polygon fill="white" stroke="none" points="-4,4 -4,-550 1791.5,-550 1791.5,4 -4,4"/>
<!-- Node0 -->
<g id="node1" class="node"><title>Node0</title>
<polygon fill="#bfbfbf" stroke="black" points="873,-515.5 873,-545.5 968,-545.5 968,-515.5 873,-515.5"/>
<text text-anchor="start" x="881" y="-533.5" font-family="Helvetica,sans-Serif" font-size="10.00">src/analysis/utils</text>
<text text-anchor="middle" x="920.5" y="-522.5" font-family="Helvetica,sans-Serif" font-size="10.00">/MCSmear.h</text>
</g>
<!-- Node1 -->
<g id="node2" class="node"><title>Node1</title>
<polygon fill="white" stroke="#bfbfbf" points="1139,-168.5 1139,-187.5 1196,-187.5 1196,-168.5 1139,-168.5"/>
<text text-anchor="middle" x="1167.5" y="-175.5" font-family="Helvetica,sans-Serif" font-size="10.00">memory</text>
</g>
<!-- Node0&#45;&gt;Node1 -->
<g id="edge1" class="edge"><title>Node0&#45;&gt;Node1</title>
<path fill="none" stroke="midnightblue" d="M932,-515.157C947.588,-494.226 973.5,-453.492 973.5,-414 973.5,-414 973.5,-414 973.5,-356 973.5,-309.967 1094.21,-226.426 1145.19,-193.191"/>
<polygon fill="midnightblue" stroke="midnightblue" points="1147.36,-195.959 1153.86,-187.591 1143.56,-190.08 1147.36,-195.959"/>
</g>
<!-- Node2 -->
<g id="node3" class="node"><title>Node2</title>
<g id="a_node3"><a xlink:href="_uncertainties_8h.html" target="_top" xlink:title="analysis/utils/Uncertainties.h">
<polygon fill="white" stroke="black" points="792,-459.5 792,-478.5 945,-478.5 945,-459.5 792,-459.5"/>
<text text-anchor="middle" x="868.5" y="-466.5" font-family="Helvetica,sans-Serif" font-size="10.00">analysis/utils/Uncertainties.h</text>
</a>
</g>
</g>
<!-- Node0&#45;&gt;Node2 -->
<g id="edge2" class="edge"><title>Node0&#45;&gt;Node2</title>
<path fill="none" stroke="midnightblue" d="M908.177,-515.399C900.543,-506.664 890.709,-495.413 882.742,-486.296"/>
<polygon fill="midnightblue" stroke="midnightblue" points="885.282,-483.884 876.066,-478.658 880.012,-488.491 885.282,-483.884"/>
</g>
<!-- Node3 -->
<g id="node4" class="node"><title>Node3</title>
<g id="a_node4"><a xlink:href="_t_particle_8h.html" target="_top" xlink:title="tree/TParticle.h">
<polygon fill="white" stroke="black" points="747.5,-403.5 747.5,-422.5 835.5,-422.5 835.5,-403.5 747.5,-403.5"/>
<text text-anchor="middle" x="791.5" y="-410.5" font-family="Helvetica,sans-Serif" font-size="10.00">tree/TParticle.h</text>
</a>
</g>
</g>
<!-- Node0&#45;&gt;Node3 -->
<g id="edge80" class="edge"><title>Node0&#45;&gt;Node3</title>
<path fill="none" stroke="midnightblue" d="M872.764,-525.654C841.474,-520.367 802.742,-507.962 782.5,-479 773.035,-465.457 777.183,-446.397 782.557,-432.418"/>
<polygon fill="midnightblue" stroke="midnightblue" points="785.921,-433.46 786.701,-422.894 779.502,-430.667 785.921,-433.46"/>
</g>
<!-- Node4 -->
<g id="node5" class="node"><title>Node4</title>
<g id="a_node5"><a xlink:href="_t_candidate_8h.html" target="_top" xlink:title="tree/TCandidate.h">
<polygon fill="white" stroke="black" points="1321,-347.5 1321,-366.5 1422,-366.5 1422,-347.5 1321,-347.5"/>
<text text-anchor="middle" x="1371.5" y="-354.5" font-family="Helvetica,sans-Serif" font-size="10.00">tree/TCandidate.h</text>
</a>
</g>
</g>
<!-- Node0&#45;&gt;Node4 -->
<g id="edge81" class="edge"><title>Node0&#45;&gt;Node4</title>
<path fill="none" stroke="midnightblue" d="M957.407,-515.465C1043.75,-482.63 1257.78,-401.246 1339.28,-370.252"/>
<polygon fill="midnightblue" stroke="midnightblue" points="1340.89,-373.386 1348.99,-366.56 1338.4,-366.843 1340.89,-373.386"/>
</g>
<!-- Node2&#45;&gt;Node3 -->
<g id="edge3" class="edge"><title>Node2&#45;&gt;Node3</title>
<path fill="none" stroke="midnightblue" d="M856.129,-459.324C844.342,-451.058 826.368,-438.453 812.364,-428.632"/>
<polygon fill="midnightblue" stroke="midnightblue" points="814.038,-425.531 803.841,-422.655 810.018,-431.262 814.038,-425.531"/>
</g>
<!-- Node7 -->
<g id="node8" class="node"><title>Node7</title>
<g id="a_node8"><a xlink:href="_detector__t_8h.html" target="_top" xlink:title="base/Detector_t.h">
<polygon fill="white" stroke="black" points="1334,-168.5 1334,-187.5 1437,-187.5 1437,-168.5 1334,-168.5"/>
<text text-anchor="middle" x="1385.5" y="-175.5" font-family="Helvetica,sans-Serif" font-size="10.00">base/Detector_t.h</text>
</a>
</g>
</g>
<!-- Node2&#45;&gt;Node7 -->
<g id="edge79" class="edge"><title>Node2&#45;&gt;Node7</title>
<path fill="none" stroke="midnightblue" d="M894.476,-459.471C966.087,-435.178 1170.54,-360.507 1314.5,-255 1337.85,-237.888 1359.8,-212.405 1372.94,-195.744"/>
<polygon fill="midnightblue" stroke="midnightblue" points="1375.96,-197.563 1379.29,-187.506 1370.42,-193.289 1375.96,-197.563"/>
</g>
<!-- Node3&#45;&gt;Node1 -->
<g id="edge78" class="edge"><title>Node3&#45;&gt;Node1</title>
<path fill="none" stroke="midnightblue" d="M816.14,-403.402C836.391,-395.666 865.264,-383.055 887.5,-367 925.223,-339.762 923.084,-319.962 959.5,-291 1005.5,-254.419 1021.62,-251.602 1073.5,-224 1095.26,-212.422 1120.49,-200.421 1139.32,-191.727"/>
<polygon fill="midnightblue" stroke="midnightblue" points="1140.91,-194.852 1148.54,-187.502 1137.99,-188.488 1140.91,-194.852"/>
</g>
<!-- Node3&#45;&gt;Node4 -->
<g id="edge4" class="edge"><title>Node3&#45;&gt;Node4</title>
<path fill="none" stroke="midnightblue" d="M835.57,-407.897C938.216,-398.34 1193.4,-374.582 1310.73,-363.658"/>
<polygon fill="midnightblue" stroke="midnightblue" points="1311.33,-367.117 1320.96,-362.705 1310.68,-360.147 1311.33,-367.117"/>
</g>
<!-- Node16 -->
<g id="node17" class="node"><title>Node16</title>
<polygon fill="white" stroke="#bfbfbf" points="1122,-56.5 1122,-75.5 1169,-75.5 1169,-56.5 1122,-56.5"/>
<text text-anchor="middle" x="1145.5" y="-63.5" font-family="Helvetica,sans-Serif" font-size="10.00">vector</text>
</g>
<!-- Node3&#45;&gt;Node16 -->
<g id="edge75" class="edge"><title>Node3&#45;&gt;Node16</title>
<path fill="none" stroke="midnightblue" d="M835.761,-404.877C861.302,-398.718 892.434,-387.433 913.5,-367 1001.24,-281.899 928.011,-196.32 1016.5,-112 1042.65,-87.0801 1083.34,-75.8841 1112.02,-70.9026"/>
<polygon fill="midnightblue" stroke="midnightblue" points="1112.66,-74.3455 1121.99,-69.3346 1111.57,-67.4305 1112.66,-74.3455"/>
</g>
<!-- Node26 -->
<g id="node27" class="node"><title>Node26</title>
<g id="a_node27"><a xlink:href="types_8h.html" target="_top" xlink:title="base/types.h">
<polygon fill="white" stroke="black" points="114.5,-168.5 114.5,-187.5 192.5,-187.5 192.5,-168.5 114.5,-168.5"/>
<text text-anchor="middle" x="153.5" y="-175.5" font-family="Helvetica,sans-Serif" font-size="10.00">base/types.h</text>
</a>
</g>
</g>
<!-- Node3&#45;&gt;Node26 -->
<g id="edge45" class="edge"><title>Node3&#45;&gt;Node26</title>
<path fill="none" stroke="midnightblue" d="M747.341,-406.422C660.854,-394.715 463.774,-364.179 305.5,-311 246.638,-291.223 219.008,-301.183 177.5,-255 163.221,-239.113 157.436,-214.75 155.093,-197.91"/>
<polygon fill="midnightblue" stroke="midnightblue" points="158.537,-197.206 153.959,-187.651 151.579,-197.975 158.537,-197.206"/>
</g>
<!-- Node27 -->
<g id="node28" class="node"><title>Node27</title>
<g id="a_node28"><a xlink:href="_particle_type_8h.html" target="_top" xlink:title="base/ParticleType.h">
<polygon fill="white" stroke="black" points="315,-291.5 315,-310.5 422,-310.5 422,-291.5 315,-291.5"/>
<text text-anchor="middle" x="368.5" y="-298.5" font-family="Helvetica,sans-Serif" font-size="10.00">base/ParticleType.h</text>
</a>
</g>
</g>
<!-- Node3&#45;&gt;Node27 -->
<g id="edge46" class="edge"><title>Node3&#45;&gt;Node27</title>
<path fill="none" stroke="midnightblue" d="M758.66,-403.46C682.835,-383.742 495.61,-335.055 411.102,-313.078"/>
<polygon fill="midnightblue" stroke="midnightblue" points="411.878,-309.664 401.319,-310.535 410.116,-316.439 411.878,-309.664"/>
</g>
<!-- Node32 -->
<g id="node33" class="node"><title>Node32</title>
<g id="a_node33"><a xlink:href="_tree_8h.html" target="_top" xlink:title="base/Tree.h">
<polygon fill="white" stroke="black" points="795,-230 795,-249 866,-249 866,-230 795,-230"/>
<text text-anchor="middle" x="830.5" y="-237" font-family="Helvetica,sans-Serif" font-size="10.00">base/Tree.h</text>
</a>
</g>
</g>
<!-- Node3&#45;&gt;Node32 -->
<g id="edge61" class="edge"><title>Node3&#45;&gt;Node32</title>
<path fill="none" stroke="midnightblue" d="M793.488,-403.26C799.565,-376.536 817.989,-295.517 826.324,-258.862"/>
<polygon fill="midnightblue" stroke="midnightblue" points="829.758,-259.547 828.563,-249.019 822.932,-257.994 829.758,-259.547"/>
</g>
<!-- Node37 -->
<g id="node38" class="node"><title>Node37</title>
<polygon fill="white" stroke="#bfbfbf" points="630.5,-168.5 630.5,-187.5 660.5,-187.5 660.5,-168.5 630.5,-168.5"/>
<text text-anchor="middle" x="645.5" y="-175.5" font-family="Helvetica,sans-Serif" font-size="10.00">list</text>
</g>
<!-- Node3&#45;&gt;Node37 -->
<g id="edge76" class="edge"><title>Node3&#45;&gt;Node37</title>
<path fill="none" stroke="midnightblue" d="M786.131,-403.431C764.805,-369.398 685.833,-243.367 656.534,-196.609"/>
<polygon fill="midnightblue" stroke="midnightblue" points="659.35,-194.511 651.074,-187.896 653.418,-198.228 659.35,-194.511"/>
</g>
<!-- Node40 -->
<g id="node41" class="node"><title>Node40</title>
<g id="a_node41"><a xlink:href="_lorentz_vec_8h.html" target="_top" xlink:title="base/vec/LorentzVec.h">
<polygon fill="white" stroke="black" points="0,-291.5 0,-310.5 125,-310.5 125,-291.5 0,-291.5"/>
<text text-anchor="middle" x="62.5" y="-298.5" font-family="Helvetica,sans-Serif" font-size="10.00">base/vec/LorentzVec.h</text>
</a>
</g>
</g>
<!-- Node3&#45;&gt;Node40 -->
<g id="edge73" class="edge"><title>Node3&#45;&gt;Node40</title>
<path fill="none" stroke="midnightblue" d="M747.065,-412.494C618.796,-413.364 250.047,-411.796 139.5,-367 113.781,-356.578 90.3711,-334.116 76.2833,-318.535"/>
<polygon fill="midnightblue" stroke="midnightblue" points="78.6695,-315.946 69.4603,-310.708 73.3928,-320.546 78.6695,-315.946"/>
</g>
<!-- Node41 -->
<g id="node42" class="node"><title>Node41</title>
<polygon fill="white" stroke="#bfbfbf" points="820,-347.5 820,-366.5 879,-366.5 879,-347.5 820,-347.5"/>
<text text-anchor="middle" x="849.5" y="-354.5" font-family="Helvetica,sans-Serif" font-size="10.00">iostream</text>
</g>
<!-- Node3&#45;&gt;Node41 -->
<g id="edge77" class="edge"><title>Node3&#45;&gt;Node41</title>
<path fill="none" stroke="midnightblue" d="M800.819,-403.324C809.393,-395.341 822.312,-383.313 832.688,-373.653"/>
<polygon fill="midnightblue" stroke="midnightblue" points="835.078,-376.21 840.012,-366.834 830.308,-371.086 835.078,-376.21"/>
</g>
<!-- Node4&#45;&gt;Node1 -->
<g id="edge43" class="edge"><title>Node4&#45;&gt;Node1</title>
<path fill="none" stroke="midnightblue" d="M1322.61,-347.476C1273.06,-335.95 1198.93,-310.108 1164.5,-255 1153.81,-237.894 1156.95,-214.143 1161.21,-197.768"/>
<polygon fill="midnightblue" stroke="midnightblue" points="1164.69,-198.365 1164.19,-187.782 1157.98,-196.364 1164.69,-198.365"/>
</g>
<!-- Node5 -->
<g id="node6" class="node"><title>Node5</title>
<g id="a_node6"><a xlink:href="_t_cluster_8h.html" target="_top" xlink:title="TCluster.h">
<polygon fill="white" stroke="black" points="1416,-291.5 1416,-310.5 1479,-310.5 1479,-291.5 1416,-291.5"/>
<text text-anchor="middle" x="1447.5" y="-298.5" font-family="Helvetica,sans-Serif" font-size="10.00">TCluster.h</text>
</a>
</g>
</g>
<!-- Node4&#45;&gt;Node5 -->
<g id="edge5" class="edge"><title>Node4&#45;&gt;Node5</title>
<path fill="none" stroke="midnightblue" d="M1383.71,-347.324C1395.28,-339.107 1412.88,-326.602 1426.66,-316.807"/>
<polygon fill="midnightblue" stroke="midnightblue" points="1428.94,-319.479 1435.07,-310.834 1424.89,-313.773 1428.94,-319.479"/>
</g>
<!-- Node4&#45;&gt;Node7 -->
<g id="edge39" class="edge"><title>Node4&#45;&gt;Node7</title>
<path fill="none" stroke="midnightblue" d="M1372.18,-347.463C1374.31,-320.428 1380.97,-236.239 1383.99,-198.109"/>
<polygon fill="midnightblue" stroke="midnightblue" points="1387.5,-198.113 1384.8,-187.868 1380.52,-197.561 1387.5,-198.113"/>
</g>
<!-- Node4&#45;&gt;Node16 -->
<g id="edge40" class="edge"><title>Node4&#45;&gt;Node16</title>
<path fill="none" stroke="midnightblue" d="M1422.26,-356.626C1482.53,-355.51 1584.8,-347.652 1663.5,-311 1730.32,-279.88 1793.42,-225.656 1747.5,-168 1676.11,-78.3713 1295.77,-68.0962 1179.37,-67.0663"/>
<polygon fill="midnightblue" stroke="midnightblue" points="1179.29,-63.5656 1169.26,-66.9947 1179.24,-70.5655 1179.29,-63.5656"/>
</g>
<!-- Node21 -->
<g id="node22" class="node"><title>Node21</title>
<polygon fill="white" stroke="#bfbfbf" points="1684,-168.5 1684,-187.5 1739,-187.5 1739,-168.5 1684,-168.5"/>
<text text-anchor="middle" x="1711.5" y="-175.5" font-family="Helvetica,sans-Serif" font-size="10.00">iomanip</text>
</g>
<!-- Node4&#45;&gt;Node21 -->
<g id="edge41" class="edge"><title>Node4&#45;&gt;Node21</title>
<path fill="none" stroke="midnightblue" d="M1422.37,-352.889C1474.45,-348.346 1556.97,-337.337 1623.5,-311 1665.91,-294.211 1687.24,-294.808 1709.5,-255 1719.34,-237.404 1718.15,-213.748 1715.59,-197.529"/>
<polygon fill="midnightblue" stroke="midnightblue" points="1719.02,-196.826 1713.72,-187.654 1712.14,-198.131 1719.02,-196.826"/>
</g>
<!-- Node22 -->
<g id="node23" class="node"><title>Node22</title>
<polygon fill="white" stroke="#bfbfbf" points="1560.5,-168.5 1560.5,-187.5 1616.5,-187.5 1616.5,-168.5 1560.5,-168.5"/>
<text text-anchor="middle" x="1588.5" y="-175.5" font-family="Helvetica,sans-Serif" font-size="10.00">sstream</text>
</g>
<!-- Node4&#45;&gt;Node22 -->
<g id="edge42" class="edge"><title>Node4&#45;&gt;Node22</title>
<path fill="none" stroke="midnightblue" d="M1422.18,-347.482C1504.22,-332.544 1660.23,-298.984 1692.5,-255 1700.65,-243.891 1700.06,-235.515 1692.5,-224 1678.01,-201.942 1650.15,-190.645 1626.91,-184.888"/>
<polygon fill="midnightblue" stroke="midnightblue" points="1627.47,-181.428 1616.95,-182.679 1625.96,-188.262 1627.47,-181.428"/>
</g>
<!-- Node25 -->
<g id="node26" class="node"><title>Node25</title>
<polygon fill="white" stroke="#bfbfbf" points="1058.5,-168.5 1058.5,-187.5 1120.5,-187.5 1120.5,-168.5 1058.5,-168.5"/>
<text text-anchor="middle" x="1089.5" y="-175.5" font-family="Helvetica,sans-Serif" font-size="10.00">algorithm</text>
</g>
<!-- Node4&#45;&gt;Node25 -->
<g id="edge44" class="edge"><title>Node4&#45;&gt;Node25</title>
<path fill="none" stroke="midnightblue" d="M1320.99,-351.547C1284.08,-346.355 1234.12,-335.148 1196.5,-311 1150.31,-281.35 1114.74,-225.071 1098.75,-196.534"/>
<polygon fill="midnightblue" stroke="midnightblue" points="1101.79,-194.791 1093.93,-187.686 1095.64,-198.141 1101.79,-194.791"/>
</g>
<!-- Node5&#45;&gt;Node1 -->
<g id="edge38" class="edge"><title>Node5&#45;&gt;Node1</title>
<path fill="none" stroke="midnightblue" d="M1415.57,-298.98C1352.49,-296.285 1215.18,-286.822 1182.5,-255 1167.4,-240.3 1165.17,-215.125 1165.7,-197.804"/>
<polygon fill="midnightblue" stroke="midnightblue" points="1169.2,-197.949 1166.35,-187.745 1162.22,-197.5 1169.2,-197.949"/>
</g>
<!-- Node6 -->
<g id="node7" class="node"><title>Node6</title>
<g id="a_node7"><a xlink:href="_t_detector_read_hit_8h.html" target="_top" xlink:title="tree/TDetectorReadHit.h">
<polygon fill="white" stroke="black" points="1551.5,-230 1551.5,-249 1683.5,-249 1683.5,-230 1551.5,-230"/>
<text text-anchor="middle" x="1617.5" y="-237" font-family="Helvetica,sans-Serif" font-size="10.00">tree/TDetectorReadHit.h</text>
</a>
</g>
</g>
<!-- Node5&#45;&gt;Node6 -->
<g id="edge6" class="edge"><title>Node5&#45;&gt;Node6</title>
<path fill="none" stroke="midnightblue" d="M1471.86,-291.475C1501.14,-281.225 1550.47,-263.959 1583.5,-252.399"/>
<polygon fill="midnightblue" stroke="midnightblue" points="1584.91,-255.616 1593.19,-249.009 1582.59,-249.009 1584.91,-255.616"/>
</g>
<!-- Node5&#45;&gt;Node7 -->
<g id="edge26" class="edge"><title>Node5&#45;&gt;Node7</title>
<path fill="none" stroke="midnightblue" d="M1443.04,-291.298C1432.94,-271.589 1408.15,-223.211 1394.64,-196.842"/>
<polygon fill="midnightblue" stroke="midnightblue" points="1397.59,-194.927 1389.92,-187.623 1391.36,-198.119 1397.59,-194.927"/>
</g>
<!-- Node10 -->
<g id="node11" class="node"><title>Node10</title>
<g id="a_node11"><a xlink:href="vec3_8h.html" target="_top" xlink:title="base/vec/vec3.h">
<polygon fill="white" stroke="black" points="129.5,-112.5 129.5,-131.5 223.5,-131.5 223.5,-112.5 129.5,-112.5"/>
<text text-anchor="middle" x="176.5" y="-119.5" font-family="Helvetica,sans-Serif" font-size="10.00">base/vec/vec3.h</text>
</a>
</g>
</g>
<!-- Node5&#45;&gt;Node10 -->
<g id="edge33" class="edge"><title>Node5&#45;&gt;Node10</title>
<path fill="none" stroke="midnightblue" d="M1415.92,-299.86C1249.05,-298.965 473.955,-292.788 374.5,-255 354.125,-247.259 355.321,-234.993 336.5,-224 298.586,-201.855 281.515,-211.617 244.5,-188 223.323,-174.489 203.046,-153.749 190.232,-139.344"/>
<polygon fill="midnightblue" stroke="midnightblue" points="192.796,-136.958 183.6,-131.697 187.508,-141.545 192.796,-136.958"/>
</g>
<!-- Node12 -->
<g id="node13" class="node"><title>Node12</title>
<polygon fill="white" stroke="#bfbfbf" points="235,-0.5 235,-19.5 282,-19.5 282,-0.5 235,-0.5"/>
<text text-anchor="middle" x="258.5" y="-7.5" font-family="Helvetica,sans-Serif" font-size="10.00">cmath</text>
</g>
<!-- Node5&#45;&gt;Node12 -->
<g id="edge35" class="edge"><title>Node5&#45;&gt;Node12</title>
<path fill="none" stroke="midnightblue" d="M1479.46,-297.191C1541.34,-291.339 1675,-276.568 1715.5,-255 1756.57,-233.127 1787.5,-225.529 1787.5,-179 1787.5,-179 1787.5,-179 1787.5,-121 1787.5,24.9978 1610.48,-73.2205 1465.5,-56 1229.28,-27.9417 463.708,-14.2716 292.621,-11.525"/>
<polygon fill="midnightblue" stroke="midnightblue" points="292.499,-8.02275 282.444,-11.3634 292.388,-15.0219 292.499,-8.02275"/>
</g>
<!-- Node14 -->
<g id="node15" class="node"><title>Node14</title>
<g id="a_node15"><a xlink:href="base_2std__ext_2math_8h.html" target="_top" xlink:title="base/std_ext/math.h">
<polygon fill="white" stroke="black" points="1259.5,-112.5 1259.5,-131.5 1375.5,-131.5 1375.5,-112.5 1259.5,-112.5"/>
<text text-anchor="middle" x="1317.5" y="-119.5" font-family="Helvetica,sans-Serif" font-size="10.00">base/std_ext/math.h</text>
</a>
</g>
</g>
<!-- Node5&#45;&gt;Node14 -->
<g id="edge27" class="edge"><title>Node5&#45;&gt;Node14</title>
<path fill="none" stroke="midnightblue" d="M1450.46,-291.246C1457.57,-268.441 1473.08,-206.318 1445.5,-168 1435.83,-154.573 1398.24,-142.333 1366.27,-134.019"/>
<polygon fill="midnightblue" stroke="midnightblue" points="1367.12,-130.624 1356.57,-131.568 1365.41,-137.411 1367.12,-130.624"/>
</g>
<!-- Node5&#45;&gt;Node16 -->
<g id="edge34" class="edge"><title>Node5&#45;&gt;Node16</title>
<path fill="none" stroke="midnightblue" d="M1453.6,-291.214C1473.19,-261.821 1530.57,-165.752 1483.5,-112 1463.62,-89.3035 1261.09,-74.2198 1179.39,-69.016"/>
<polygon fill="midnightblue" stroke="midnightblue" points="1179.35,-65.5063 1169.15,-68.375 1178.91,-72.4927 1179.35,-65.5063"/>
</g>
<!-- Node5&#45;&gt;Node21 -->
<g id="edge36" class="edge"><title>Node5&#45;&gt;Node21</title>
<path fill="none" stroke="midnightblue" d="M1479.18,-298.355C1538.27,-294.634 1662.07,-283.56 1692.5,-255 1708.12,-240.34 1711.71,-214.952 1712.16,-197.585"/>
<polygon fill="midnightblue" stroke="midnightblue" points="1715.66,-197.503 1712.1,-187.524 1708.66,-197.545 1715.66,-197.503"/>
</g>
<!-- Node5&#45;&gt;Node22 -->
<g id="edge37" class="edge"><title>Node5&#45;&gt;Node22</title>
<path fill="none" stroke="midnightblue" d="M1457.64,-291.298C1481.32,-270.978 1540.51,-220.186 1570.49,-194.457"/>
<polygon fill="midnightblue" stroke="midnightblue" points="1573.14,-196.792 1578.45,-187.623 1568.58,-191.479 1573.14,-196.792"/>
</g>
<!-- Node23 -->
<g id="node24" class="node"><title>Node23</title>
<g id="a_node24"><a xlink:href="shared__ptr__container_8h.html" target="_top" xlink:title="base/std_ext/shared\l_ptr_container.h">
<polygon fill="white" stroke="black" points="1191.5,-224.5 1191.5,-254.5 1305.5,-254.5 1305.5,-224.5 1191.5,-224.5"/>
<text text-anchor="start" x="1199.5" y="-242.5" font-family="Helvetica,sans-Serif" font-size="10.00">base/std_ext/shared</text>
<text text-anchor="middle" x="1248.5" y="-231.5" font-family="Helvetica,sans-Serif" font-size="10.00">_ptr_container.h</text>
</a>
</g>
</g>
<!-- Node5&#45;&gt;Node23 -->
<g id="edge28" class="edge"><title>Node5&#45;&gt;Node23</title>
<path fill="none" stroke="midnightblue" d="M1418.99,-291.475C1389.39,-282.626 1342.31,-268.549 1305.12,-257.428"/>
<polygon fill="midnightblue" stroke="midnightblue" points="1305.98,-254.034 1295.4,-254.523 1303.98,-260.741 1305.98,-254.034"/>
</g>
<!-- Node6&#45;&gt;Node7 -->
<g id="edge7" class="edge"><title>Node6&#45;&gt;Node7</title>
<path fill="none" stroke="midnightblue" d="M1584.26,-229.975C1543.26,-219.459 1473.47,-201.562 1428.45,-190.014"/>
<polygon fill="midnightblue" stroke="midnightblue" points="1429.23,-186.603 1418.68,-187.509 1427.5,-193.384 1429.23,-186.603"/>
</g>
<!-- Node6&#45;&gt;Node21 -->
<g id="edge24" class="edge"><title>Node6&#45;&gt;Node21</title>
<path fill="none" stroke="midnightblue" d="M1630.97,-229.975C1646.18,-220.343 1671.19,-204.517 1689.3,-193.052"/>
<polygon fill="midnightblue" stroke="midnightblue" points="1691.48,-195.815 1698.06,-187.509 1687.74,-189.9 1691.48,-195.815"/>
</g>
<!-- Node6&#45;&gt;Node22 -->
<g id="edge25" class="edge"><title>Node6&#45;&gt;Node22</title>
<path fill="none" stroke="midnightblue" d="M1613.35,-229.975C1609.12,-221.315 1602.46,-207.649 1597.1,-196.645"/>
<polygon fill="midnightblue" stroke="midnightblue" points="1600.17,-194.965 1592.65,-187.509 1593.88,-198.032 1600.17,-194.965"/>
</g>
<!-- Node8 -->
<g id="node9" class="node"><title>Node8</title>
<g id="a_node9"><a xlink:href="bitflag_8h.html" target="_top" xlink:title="base/bitflag.h">
<polygon fill="white" stroke="black" points="1394,-112.5 1394,-131.5 1475,-131.5 1475,-112.5 1394,-112.5"/>
<text text-anchor="middle" x="1434.5" y="-119.5" font-family="Helvetica,sans-Serif" font-size="10.00">base/bitflag.h</text>
</a>
</g>
</g>
<!-- Node7&#45;&gt;Node8 -->
<g id="edge8" class="edge"><title>Node7&#45;&gt;Node8</title>
<path fill="none" stroke="midnightblue" d="M1393.59,-168.083C1400.66,-160.298 1411.09,-148.801 1419.65,-139.367"/>
<polygon fill="midnightblue" stroke="midnightblue" points="1422.43,-141.509 1426.56,-131.751 1417.25,-136.805 1422.43,-141.509"/>
</g>
<!-- Node7&#45;&gt;Node10 -->
<g id="edge10" class="edge"><title>Node7&#45;&gt;Node10</title>
<path fill="none" stroke="midnightblue" d="M1333.89,-171.862C1318.35,-170.448 1301.24,-169.023 1285.5,-168 886.91,-142.09 786.59,-148.511 387.5,-132 335.55,-129.851 276.41,-127.321 233.986,-125.492"/>
<polygon fill="midnightblue" stroke="midnightblue" points="233.988,-121.989 223.846,-125.054 233.686,-128.982 233.988,-121.989"/>
</g>
<!-- Node7&#45;&gt;Node14 -->
<g id="edge15" class="edge"><title>Node7&#45;&gt;Node14</title>
<path fill="none" stroke="midnightblue" d="M1374.57,-168.324C1364.33,-160.185 1348.78,-147.839 1336.5,-138.087"/>
<polygon fill="midnightblue" stroke="midnightblue" points="1338.63,-135.312 1328.62,-131.834 1334.28,-140.794 1338.63,-135.312"/>
</g>
<!-- Node7&#45;&gt;Node16 -->
<g id="edge23" class="edge"><title>Node7&#45;&gt;Node16</title>
<path fill="none" stroke="midnightblue" d="M1338.07,-168.497C1282.37,-158.191 1195.94,-141.082 1183.5,-132 1167.7,-120.466 1157.38,-100.2 1151.54,-85.3557"/>
<polygon fill="midnightblue" stroke="midnightblue" points="1154.75,-83.928 1148.06,-75.7069 1148.16,-86.3013 1154.75,-83.928"/>
</g>
<!-- Node17 -->
<g id="node18" class="node"><title>Node17</title>
<polygon fill="white" stroke="#bfbfbf" points="1193,-112.5 1193,-131.5 1242,-131.5 1242,-112.5 1193,-112.5"/>
<text text-anchor="middle" x="1217.5" y="-119.5" font-family="Helvetica,sans-Serif" font-size="10.00">cstdint</text>
</g>
<!-- Node7&#45;&gt;Node17 -->
<g id="edge19" class="edge"><title>Node7&#45;&gt;Node17</title>
<path fill="none" stroke="midnightblue" d="M1358.88,-168.444C1329.91,-159.132 1283.5,-144.214 1251.81,-134.029"/>
<polygon fill="midnightblue" stroke="midnightblue" points="1252.67,-130.63 1242.08,-130.902 1250.53,-137.294 1252.67,-130.63"/>
</g>
<!-- Node18 -->
<g id="node19" class="node"><title>Node18</title>
<polygon fill="white" stroke="#bfbfbf" points="526.5,-112.5 526.5,-131.5 590.5,-131.5 590.5,-112.5 526.5,-112.5"/>
<text text-anchor="middle" x="558.5" y="-119.5" font-family="Helvetica,sans-Serif" font-size="10.00">stdexcept</text>
</g>
<!-- Node7&#45;&gt;Node18 -->
<g id="edge20" class="edge"><title>Node7&#45;&gt;Node18</title>
<path fill="none" stroke="midnightblue" d="M1333.88,-172.077C1318.34,-170.669 1301.23,-169.194 1285.5,-168 1025.62,-148.266 712.977,-131.14 600.973,-125.213"/>
<polygon fill="midnightblue" stroke="midnightblue" points="600.94,-121.707 590.769,-124.675 600.571,-128.697 600.94,-121.707"/>
</g>
<!-- Node19 -->
<g id="node20" class="node"><title>Node19</title>
<polygon fill="white" stroke="#bfbfbf" points="764.5,-112.5 764.5,-131.5 808.5,-131.5 808.5,-112.5 764.5,-112.5"/>
<text text-anchor="middle" x="786.5" y="-119.5" font-family="Helvetica,sans-Serif" font-size="10.00">string</text>
</g>
<!-- Node7&#45;&gt;Node19 -->
<g id="edge21" class="edge"><title>Node7&#45;&gt;Node19</title>
<path fill="none" stroke="midnightblue" d="M1333.91,-172.349C1213.56,-161.5 916.998,-134.764 818.72,-125.905"/>
<polygon fill="midnightblue" stroke="midnightblue" points="818.797,-122.398 808.524,-124.985 818.169,-129.369 818.797,-122.398"/>
</g>
<!-- Node20 -->
<g id="node21" class="node"><title>Node20</title>
<polygon fill="white" stroke="#bfbfbf" points="1025.5,-112.5 1025.5,-131.5 1093.5,-131.5 1093.5,-112.5 1025.5,-112.5"/>
<text text-anchor="middle" x="1059.5" y="-119.5" font-family="Helvetica,sans-Serif" font-size="10.00">type_traits</text>
</g>
<!-- Node7&#45;&gt;Node20 -->
<g id="edge22" class="edge"><title>Node7&#45;&gt;Node20</title>
<path fill="none" stroke="midnightblue" d="M1333.84,-168.444C1270.37,-157.929 1163.74,-140.267 1103.83,-130.342"/>
<polygon fill="midnightblue" stroke="midnightblue" points="1104.35,-126.882 1093.91,-128.7 1103.21,-133.788 1104.35,-126.882"/>
</g>
<!-- Node9 -->
<g id="node10" class="node"><title>Node9</title>
<polygon fill="white" stroke="#bfbfbf" points="1412.5,-56.5 1412.5,-75.5 1456.5,-75.5 1456.5,-56.5 1412.5,-56.5"/>
<text text-anchor="middle" x="1434.5" y="-63.5" font-family="Helvetica,sans-Serif" font-size="10.00">bitset</text>
</g>
<!-- Node8&#45;&gt;Node9 -->
<g id="edge9" class="edge"><title>Node8&#45;&gt;Node9</title>
<path fill="none" stroke="midnightblue" d="M1434.5,-112.083C1434.5,-105.006 1434.5,-94.8611 1434.5,-85.9865"/>
<polygon fill="midnightblue" stroke="midnightblue" points="1438,-85.751 1434.5,-75.7511 1431,-85.7511 1438,-85.751"/>
</g>
<!-- Node11 -->
<g id="node12" class="node"><title>Node11</title>
<g id="a_node12"><a xlink:href="vec2_8h.html" target="_top" xlink:title="vec2.h">
<polygon fill="white" stroke="black" points="144.5,-56.5 144.5,-75.5 192.5,-75.5 192.5,-56.5 144.5,-56.5"/>
<text text-anchor="middle" x="168.5" y="-63.5" font-family="Helvetica,sans-Serif" font-size="10.00">vec2.h</text>
</a>
</g>
</g>
<!-- Node10&#45;&gt;Node11 -->
<g id="edge11" class="edge"><title>Node10&#45;&gt;Node11</title>
<path fill="none" stroke="midnightblue" d="M175.179,-112.083C174.119,-104.927 172.594,-94.6353 171.269,-85.6911"/>
<polygon fill="midnightblue" stroke="midnightblue" points="174.724,-85.1302 169.796,-75.7511 167.8,-86.1561 174.724,-85.1302"/>
</g>
<!-- Node10&#45;&gt;Node12 -->
<g id="edge14" class="edge"><title>Node10&#45;&gt;Node12</title>
<path fill="none" stroke="midnightblue" d="M182.934,-112.368C196.527,-94.135 228.364,-51.4257 246.069,-27.6752"/>
<polygon fill="midnightblue" stroke="midnightblue" points="248.925,-29.7007 252.095,-19.5914 243.313,-25.5171 248.925,-29.7007"/>
</g>
<!-- Node13 -->
<g id="node14" class="node"><title>Node13</title>
<polygon fill="white" stroke="#bfbfbf" points="45,-56.5 45,-75.5 102,-75.5 102,-56.5 45,-56.5"/>
<text text-anchor="middle" x="73.5" y="-63.5" font-family="Helvetica,sans-Serif" font-size="10.00">ostream</text>
</g>
<!-- Node10&#45;&gt;Node13 -->
<g id="edge13" class="edge"><title>Node10&#45;&gt;Node13</title>
<path fill="none" stroke="midnightblue" d="M159.951,-112.324C143.508,-103.703 118.065,-90.3643 99.0316,-80.3855"/>
<polygon fill="midnightblue" stroke="midnightblue" points="100.489,-77.198 90.0077,-75.6545 97.2391,-83.3977 100.489,-77.198"/>
</g>
<!-- Node11&#45;&gt;Node12 -->
<g id="edge12" class="edge"><title>Node11&#45;&gt;Node12</title>
<path fill="none" stroke="midnightblue" d="M182.96,-56.324C197,-47.9002 218.548,-34.9709 235.043,-25.0741"/>
<polygon fill="midnightblue" stroke="midnightblue" points="237.302,-27.8007 244.076,-19.6545 233.7,-21.7983 237.302,-27.8007"/>
</g>
<!-- Node14&#45;&gt;Node12 -->
<g id="edge16" class="edge"><title>Node14&#45;&gt;Node12</title>
<path fill="none" stroke="midnightblue" d="M1303.86,-112.466C1279.55,-97.7768 1226.67,-68.1275 1177.5,-56 1004.82,-13.4134 437.221,-10.8658 292.382,-10.9242"/>
<polygon fill="midnightblue" stroke="midnightblue" points="292.312,-7.42414 282.315,-10.9329 292.318,-14.4241 292.312,-7.42414"/>
</g>
<!-- Node15 -->
<g id="node16" class="node"><title>Node15</title>
<polygon fill="white" stroke="#bfbfbf" points="714.5,-56.5 714.5,-75.5 756.5,-75.5 756.5,-56.5 714.5,-56.5"/>
<text text-anchor="middle" x="735.5" y="-63.5" font-family="Helvetica,sans-Serif" font-size="10.00">limits</text>
</g>
<!-- Node14&#45;&gt;Node15 -->
<g id="edge17" class="edge"><title>Node14&#45;&gt;Node15</title>
<path fill="none" stroke="midnightblue" d="M1259.42,-113.03C1256.4,-112.669 1253.42,-112.323 1250.5,-112 1067.75,-91.7527 847.686,-75.0932 767.061,-69.2456"/>
<polygon fill="midnightblue" stroke="midnightblue" points="766.855,-65.7217 756.629,-68.493 766.351,-72.7035 766.855,-65.7217"/>
</g>
<!-- Node14&#45;&gt;Node16 -->
<g id="edge18" class="edge"><title>Node14&#45;&gt;Node16</title>
<path fill="none" stroke="midnightblue" d="M1290.25,-112.444C1260.07,-102.971 1211.42,-87.6961 1178.96,-77.5048"/>
<polygon fill="midnightblue" stroke="midnightblue" points="1179.62,-74.0446 1169.03,-74.3884 1177.53,-80.7232 1179.62,-74.0446"/>
</g>
<!-- Node23&#45;&gt;Node1 -->
<g id="edge30" class="edge"><title>Node23&#45;&gt;Node1</title>
<path fill="none" stroke="midnightblue" d="M1229.3,-224.399C1216.68,-215.129 1200.21,-203.025 1187.44,-193.647"/>
<polygon fill="midnightblue" stroke="midnightblue" points="1189.42,-190.757 1179.29,-187.658 1185.27,-196.399 1189.42,-190.757"/>
</g>
<!-- Node23&#45;&gt;Node16 -->
<g id="edge29" class="edge"><title>Node23&#45;&gt;Node16</title>
<path fill="none" stroke="midnightblue" d="M1264.95,-224.487C1280.32,-209.682 1299.01,-186.031 1285.5,-168 1251.35,-122.416 1202.19,-172.855 1162.5,-132 1150.7,-119.853 1146.82,-100.577 1145.67,-86.1655"/>
<polygon fill="midnightblue" stroke="midnightblue" points="1149.15,-85.7223 1145.23,-75.8796 1142.16,-86.0189 1149.15,-85.7223"/>
</g>
<!-- Node24 -->
<g id="node25" class="node"><title>Node24</title>
<polygon fill="white" stroke="#bfbfbf" points="1214,-168.5 1214,-187.5 1277,-187.5 1277,-168.5 1214,-168.5"/>
<text text-anchor="middle" x="1245.5" y="-175.5" font-family="Helvetica,sans-Serif" font-size="10.00">functional</text>
</g>
<!-- Node23&#45;&gt;Node24 -->
<g id="edge31" class="edge"><title>Node23&#45;&gt;Node24</title>
<path fill="none" stroke="midnightblue" d="M1247.79,-224.399C1247.39,-216.466 1246.88,-206.458 1246.45,-197.858"/>
<polygon fill="midnightblue" stroke="midnightblue" points="1249.94,-197.469 1245.94,-187.658 1242.94,-197.821 1249.94,-197.469"/>
</g>
<!-- Node23&#45;&gt;Node25 -->
<g id="edge32" class="edge"><title>Node23&#45;&gt;Node25</title>
<path fill="none" stroke="midnightblue" d="M1210.82,-224.399C1183.9,-214.327 1148.05,-200.909 1122.31,-191.277"/>
<polygon fill="midnightblue" stroke="midnightblue" points="1123.23,-187.885 1112.64,-187.658 1120.77,-194.441 1123.23,-187.885"/>
</g>
<!-- Node27&#45;&gt;Node13 -->
<g id="edge57" class="edge"><title>Node27&#45;&gt;Node13</title>
<path fill="none" stroke="midnightblue" d="M314.83,-294.849C275.036,-289.297 220.475,-277.945 177.5,-255 138.94,-234.412 127.972,-225.493 105.5,-188 85.9236,-155.338 78.1538,-110.691 75.1998,-85.7743"/>
<polygon fill="midnightblue" stroke="midnightblue" points="78.6515,-85.1284 74.1309,-75.5464 71.6894,-85.8561 78.6515,-85.1284"/>
</g>
<!-- Node27&#45;&gt;Node16 -->
<g id="edge60" class="edge"><title>Node27&#45;&gt;Node16</title>
<path fill="none" stroke="midnightblue" d="M394.391,-291.421C417.389,-283.356 451.585,-270.264 479.5,-255 538.25,-222.875 543.208,-199.113 602.5,-168 777.717,-76.0564 1023.29,-66.7147 1111.93,-66.5489"/>
<polygon fill="midnightblue" stroke="midnightblue" points="1111.94,-70.0488 1121.95,-66.5692 1111.96,-63.0488 1111.94,-70.0488"/>
</g>
<!-- Node27&#45;&gt;Node19 -->
<g id="edge56" class="edge"><title>Node27&#45;&gt;Node19</title>
<path fill="none" stroke="midnightblue" d="M422.013,-293.889C475.941,-286.805 554.52,-273.666 578.5,-255 612.536,-228.507 588.208,-195.422 621.5,-168 659.777,-136.472 718.338,-126.929 754.425,-124.103"/>
<polygon fill="midnightblue" stroke="midnightblue" points="754.664,-127.595 764.414,-123.449 754.206,-120.61 754.664,-127.595"/>
</g>
<!-- Node27&#45;&gt;Node26 -->
<g id="edge47" class="edge"><title>Node27&#45;&gt;Node26</title>
<path fill="none" stroke="midnightblue" d="M314.667,-293.501C282.249,-287.543 241.404,-276.251 210.5,-255 188.688,-240.001 171.821,-213.936 162.272,-196.576"/>
<polygon fill="midnightblue" stroke="midnightblue" points="165.261,-194.738 157.514,-187.511 159.062,-197.992 165.261,-194.738"/>
</g>
<!-- Node28 -->
<g id="node29" class="node"><title>Node28</title>
<g id="a_node29"><a xlink:href="interval_8h.html" target="_top" xlink:title="base/interval.h">
<polygon fill="white" stroke="black" points="384,-230 384,-249 471,-249 471,-230 384,-230"/>
<text text-anchor="middle" x="427.5" y="-237" font-family="Helvetica,sans-Serif" font-size="10.00">base/interval.h</text>
</a>
</g>
</g>
<!-- Node27&#45;&gt;Node28 -->
<g id="edge48" class="edge"><title>Node27&#45;&gt;Node28</title>
<path fill="none" stroke="midnightblue" d="M376.953,-291.475C386.066,-282.285 400.77,-267.456 411.976,-256.156"/>
<polygon fill="midnightblue" stroke="midnightblue" points="414.507,-258.574 419.062,-249.009 409.536,-253.646 414.507,-258.574"/>
</g>
<!-- Node30 -->
<g id="node31" class="node"><title>Node30</title>
<polygon fill="white" stroke="#bfbfbf" points="289.5,-230 289.5,-249 327.5,-249 327.5,-230 289.5,-230"/>
<text text-anchor="middle" x="308.5" y="-237" font-family="Helvetica,sans-Serif" font-size="10.00">map</text>
</g>
<!-- Node27&#45;&gt;Node30 -->
<g id="edge58" class="edge"><title>Node27&#45;&gt;Node30</title>
<path fill="none" stroke="midnightblue" d="M359.903,-291.475C350.636,-282.285 335.683,-267.456 324.288,-256.156"/>
<polygon fill="midnightblue" stroke="midnightblue" points="326.646,-253.565 317.081,-249.009 321.717,-258.536 326.646,-253.565"/>
</g>
<!-- Node31 -->
<g id="node32" class="node"><title>Node31</title>
<polygon fill="white" stroke="#bfbfbf" points="219.5,-230 219.5,-249 271.5,-249 271.5,-230 219.5,-230"/>
<text text-anchor="middle" x="245.5" y="-237" font-family="Helvetica,sans-Serif" font-size="10.00">iterator</text>
</g>
<!-- Node27&#45;&gt;Node31 -->
<g id="edge59" class="edge"><title>Node27&#45;&gt;Node31</title>
<path fill="none" stroke="midnightblue" d="M350.877,-291.475C330.326,-281.534 296.136,-264.995 272.293,-253.461"/>
<polygon fill="midnightblue" stroke="midnightblue" points="273.616,-250.213 263.09,-249.009 270.568,-256.515 273.616,-250.213"/>
</g>
<!-- Node28&#45;&gt;Node12 -->
<g id="edge55" class="edge"><title>Node28&#45;&gt;Node12</title>
<path fill="none" stroke="midnightblue" d="M396.342,-229.948C354.684,-218.225 285.155,-197.535 277.5,-188 240.299,-141.665 248.259,-65.0905 254.529,-29.8341"/>
<polygon fill="midnightblue" stroke="midnightblue" points="258.053,-30.0487 256.523,-19.5649 251.181,-28.7145 258.053,-30.0487"/>
</g>
<!-- Node28&#45;&gt;Node15 -->
<g id="edge52" class="edge"><title>Node28&#45;&gt;Node15</title>
<path fill="none" stroke="midnightblue" d="M417.69,-229.995C407.892,-220.789 393.456,-205.112 387.5,-188 376.397,-156.099 365.2,-137.37 387.5,-112 408.285,-88.3537 622.415,-73.5538 704.087,-68.7319"/>
<polygon fill="midnightblue" stroke="midnightblue" points="704.477,-72.2153 714.257,-68.1429 704.072,-65.2271 704.477,-72.2153"/>
</g>
<!-- Node28&#45;&gt;Node18 -->
<g id="edge51" class="edge"><title>Node28&#45;&gt;Node18</title>
<path fill="none" stroke="midnightblue" d="M444.326,-229.869C461.116,-220.788 487.134,-205.415 506.5,-188 522.39,-173.71 537.273,-154.241 547.011,-140.344"/>
<polygon fill="midnightblue" stroke="midnightblue" points="550.133,-141.978 552.879,-131.745 544.351,-138.032 550.133,-141.978"/>
</g>
<!-- Node28&#45;&gt;Node22 -->
<g id="edge54" class="edge"><title>Node28&#45;&gt;Node22</title>
<path fill="none" stroke="midnightblue" d="M471.168,-236.542C612.209,-230.172 1068.3,-209.225 1445.5,-188 1481,-186.002 1521.44,-183.429 1550.24,-181.547"/>
<polygon fill="midnightblue" stroke="midnightblue" points="1550.54,-185.034 1560.29,-180.887 1550.08,-178.049 1550.54,-185.034"/>
</g>
<!-- Node28&#45;&gt;Node25 -->
<g id="edge50" class="edge"><title>Node28&#45;&gt;Node25</title>
<path fill="none" stroke="midnightblue" d="M471.192,-234.573C592.193,-223.698 930.486,-193.292 1048.36,-182.697"/>
<polygon fill="midnightblue" stroke="midnightblue" points="1048.78,-186.174 1058.42,-181.793 1048.15,-179.202 1048.78,-186.174"/>
</g>
<!-- Node28&#45;&gt;Node26 -->
<g id="edge49" class="edge"><title>Node28&#45;&gt;Node26</title>
<path fill="none" stroke="midnightblue" d="M388.242,-229.975C339.309,-219.349 255.662,-201.185 202.555,-189.652"/>
<polygon fill="midnightblue" stroke="midnightblue" points="203.2,-186.211 192.685,-187.509 201.714,-193.052 203.2,-186.211"/>
</g>
<!-- Node29 -->
<g id="node30" class="node"><title>Node29</title>
<polygon fill="white" stroke="#bfbfbf" points="287,-168.5 287,-187.5 340,-187.5 340,-168.5 287,-168.5"/>
<text text-anchor="middle" x="313.5" y="-175.5" font-family="Helvetica,sans-Serif" font-size="10.00">istream</text>
</g>
<!-- Node28&#45;&gt;Node29 -->
<g id="edge53" class="edge"><title>Node28&#45;&gt;Node29</title>
<path fill="none" stroke="midnightblue" d="M411.167,-229.975C392.289,-220.122 360.993,-203.788 338.924,-192.27"/>
<polygon fill="midnightblue" stroke="midnightblue" points="340.288,-189.033 329.803,-187.509 337.049,-195.239 340.288,-189.033"/>
</g>
<!-- Node32&#45;&gt;Node1 -->
<g id="edge66" class="edge"><title>Node32&#45;&gt;Node1</title>
<path fill="none" stroke="midnightblue" d="M866.118,-231.598C879.127,-229.128 893.967,-226.371 907.5,-224 1002.88,-207.289 1029.81,-207.5 1129.08,-187.957"/>
<polygon fill="midnightblue" stroke="midnightblue" points="1129.79,-191.384 1138.91,-186.003 1128.42,-184.518 1129.79,-191.384"/>
</g>
<!-- Node32&#45;&gt;Node16 -->
<g id="edge68" class="edge"><title>Node32&#45;&gt;Node16</title>
<path fill="none" stroke="midnightblue" d="M858.796,-229.92C881.384,-221.945 912.745,-208.227 934.5,-188 963.084,-161.423 947.538,-135.763 978.5,-112 1017.74,-81.8827 1075.63,-71.8922 1111.92,-68.5967"/>
<polygon fill="midnightblue" stroke="midnightblue" points="1112.3,-72.0775 1122,-67.8035 1111.76,-65.0991 1112.3,-72.0775"/>
</g>
<!-- Node32&#45;&gt;Node20 -->
<g id="edge72" class="edge"><title>Node32&#45;&gt;Node20</title>
<path fill="none" stroke="midnightblue" d="M860.833,-229.988C889.477,-221.357 933.188,-206.633 968.5,-188 995.652,-173.673 1023.98,-152.246 1041.67,-137.956"/>
<polygon fill="midnightblue" stroke="midnightblue" points="1043.94,-140.624 1049.45,-131.576 1039.5,-135.211 1043.94,-140.624"/>
</g>
<!-- Node32&#45;&gt;Node25 -->
<g id="edge69" class="edge"><title>Node32&#45;&gt;Node25</title>
<path fill="none" stroke="midnightblue" d="M866.241,-230.289C913.887,-219.343 998.03,-200.013 1048.29,-188.466"/>
<polygon fill="midnightblue" stroke="midnightblue" points="1049.22,-191.846 1058.18,-186.196 1047.65,-185.024 1049.22,-191.846"/>
</g>
<!-- Node33 -->
<g id="node34" class="node"><title>Node33</title>
<polygon fill="white" stroke="#bfbfbf" points="823,-168.5 823,-187.5 926,-187.5 926,-168.5 823,-168.5"/>
<text text-anchor="middle" x="874.5" y="-175.5" font-family="Helvetica,sans-Serif" font-size="10.00">cereal/access.hpp</text>
</g>
<!-- Node32&#45;&gt;Node33 -->
<g id="edge62" class="edge"><title>Node32&#45;&gt;Node33</title>
<path fill="none" stroke="midnightblue" d="M836.804,-229.975C843.404,-221.05 853.937,-206.807 862.193,-195.643"/>
<polygon fill="midnightblue" stroke="midnightblue" points="865.076,-197.631 868.208,-187.509 859.448,-193.468 865.076,-197.631"/>
</g>
<!-- Node34 -->
<g id="node35" class="node"><title>Node34</title>
<g id="a_node35"><a xlink:href="variadic_8h.html" target="_top" xlink:title="std_ext/variadic.h">
<polygon fill="white" stroke="black" points="397,-168.5 397,-187.5 498,-187.5 498,-168.5 397,-168.5"/>
<text text-anchor="middle" x="447.5" y="-175.5" font-family="Helvetica,sans-Serif" font-size="10.00">std_ext/variadic.h</text>
</a>
</g>
</g>
<!-- Node32&#45;&gt;Node34 -->
<g id="edge63" class="edge"><title>Node32&#45;&gt;Node34</title>
<path fill="none" stroke="midnightblue" d="M794.812,-232.956C729.277,-222.775 589.079,-200.995 508.279,-188.442"/>
<polygon fill="midnightblue" stroke="midnightblue" points="508.667,-184.961 498.248,-186.884 507.592,-191.878 508.667,-184.961"/>
</g>
<!-- Node32&#45;&gt;Node37 -->
<g id="edge67" class="edge"><title>Node32&#45;&gt;Node37</title>
<path fill="none" stroke="midnightblue" d="M801.552,-229.942C771.098,-220.825 721.582,-205.681 670.285,-188.142"/>
<polygon fill="midnightblue" stroke="midnightblue" points="671.285,-184.784 660.69,-184.84 669.007,-191.403 671.285,-184.784"/>
</g>
<!-- Node38 -->
<g id="node39" class="node"><title>Node38</title>
<polygon fill="white" stroke="#bfbfbf" points="678.5,-168.5 678.5,-187.5 730.5,-187.5 730.5,-168.5 678.5,-168.5"/>
<text text-anchor="middle" x="704.5" y="-175.5" font-family="Helvetica,sans-Serif" font-size="10.00">cassert</text>
</g>
<!-- Node32&#45;&gt;Node38 -->
<g id="edge70" class="edge"><title>Node32&#45;&gt;Node38</title>
<path fill="none" stroke="midnightblue" d="M812.447,-229.975C791.302,-219.99 756.06,-203.348 731.622,-191.807"/>
<polygon fill="midnightblue" stroke="midnightblue" points="733.056,-188.614 722.519,-187.509 730.067,-194.944 733.056,-188.614"/>
</g>
<!-- Node39 -->
<g id="node40" class="node"><title>Node39</title>
<polygon fill="white" stroke="#bfbfbf" points="748.5,-168.5 748.5,-187.5 804.5,-187.5 804.5,-168.5 748.5,-168.5"/>
<text text-anchor="middle" x="776.5" y="-175.5" font-family="Helvetica,sans-Serif" font-size="10.00">numeric</text>
</g>
<!-- Node32&#45;&gt;Node39 -->
<g id="edge71" class="edge"><title>Node32&#45;&gt;Node39</title>
<path fill="none" stroke="midnightblue" d="M822.763,-229.975C814.503,-220.873 801.223,-206.241 791.006,-194.983"/>
<polygon fill="midnightblue" stroke="midnightblue" points="793.535,-192.562 784.223,-187.509 788.351,-197.266 793.535,-192.562"/>
</g>
<!-- Node35 -->
<g id="node36" class="node"><title>Node35</title>
<polygon fill="white" stroke="#bfbfbf" points="456.5,-112.5 456.5,-131.5 508.5,-131.5 508.5,-112.5 456.5,-112.5"/>
<text text-anchor="middle" x="482.5" y="-119.5" font-family="Helvetica,sans-Serif" font-size="10.00">cstddef</text>
</g>
<!-- Node34&#45;&gt;Node35 -->
<g id="edge64" class="edge"><title>Node34&#45;&gt;Node35</title>
<path fill="none" stroke="midnightblue" d="M453.28,-168.083C458.172,-160.534 465.327,-149.495 471.333,-140.23"/>
<polygon fill="midnightblue" stroke="midnightblue" points="474.326,-142.046 476.828,-131.751 468.452,-138.239 474.326,-142.046"/>
</g>
<!-- Node36 -->
<g id="node37" class="node"><title>Node36</title>
<polygon fill="white" stroke="#bfbfbf" points="397,-112.5 397,-131.5 438,-131.5 438,-112.5 397,-112.5"/>
<text text-anchor="middle" x="417.5" y="-119.5" font-family="Helvetica,sans-Serif" font-size="10.00">tuple</text>
</g>
<!-- Node34&#45;&gt;Node36 -->
<g id="edge65" class="edge"><title>Node34&#45;&gt;Node36</title>
<path fill="none" stroke="midnightblue" d="M442.546,-168.083C438.396,-160.613 432.347,-149.724 427.233,-140.52"/>
<polygon fill="midnightblue" stroke="midnightblue" points="430.278,-138.793 422.362,-131.751 424.159,-142.192 430.278,-138.793"/>
</g>
<!-- Node40&#45;&gt;Node10 -->
<g id="edge74" class="edge"><title>Node40&#45;&gt;Node10</title>
<path fill="none" stroke="midnightblue" d="M63.2947,-291.348C65.7592,-268.79 75.0429,-207.211 105.5,-168 116.148,-154.291 132.229,-143.607 146.395,-136.096"/>
<polygon fill="midnightblue" stroke="midnightblue" points="147.972,-139.221 155.352,-131.618 144.842,-132.959 147.972,-139.221"/>
</g>
</g>
</svg>
