<?xml version="1.0" encoding="UTF-8" standalone="no"?>
<!DOCTYPE svg PUBLIC "-//W3C//DTD SVG 1.1//EN"
 "http://www.w3.org/Graphics/SVG/1.1/DTD/svg11.dtd">
<!-- Generated by graphviz version 2.38.0 (20140413.2041)
 -->
<!-- Title: src/analysis/physics/tunings/MCEnergyThresholds.h Pages: 1 -->
<svg width="179pt" height="106pt"
 viewBox="0.00 0.00 179.00 106.00" xmlns="http://www.w3.org/2000/svg" xmlns:xlink="http://www.w3.org/1999/xlink">
<g id="graph0" class="graph" transform="scale(1 1) rotate(0) translate(4 102)">
<title>src/analysis/physics/tunings/MCEnergyThresholds.h</title>
<polygon fill="white" stroke="none" points="-4,4 -4,-102 175,-102 175,4 -4,4"/>
<!-- Node87 -->
<g id="node1" class="node"><title>Node87</title>
<polygon fill="#bfbfbf" stroke="black" points="2,-67.5 2,-97.5 169,-97.5 169,-67.5 2,-67.5"/>
<text text-anchor="start" x="10" y="-85.5" font-family="Helvetica,sans-Serif" font-size="10.00">src/analysis/physics</text>
<text text-anchor="middle" x="85.5" y="-74.5" font-family="Helvetica,sans-Serif" font-size="10.00">/tunings/MCEnergyThresholds.h</text>
</g>
<!-- Node88 -->
<g id="node2" class="node"><title>Node88</title>
<g id="a_node2"><a xlink:href="_m_c_energy_thresholds_8cc.html" target="_top" xlink:title="src/analysis/physics\l/tunings/MCEnergyThresholds.cc">
<polygon fill="white" stroke="black" points="0,-0.5 0,-30.5 171,-30.5 171,-0.5 0,-0.5"/>
<text text-anchor="start" x="8" y="-18.5" font-family="Helvetica,sans-Serif" font-size="10.00">src/analysis/physics</text>
<text text-anchor="middle" x="85.5" y="-7.5" font-family="Helvetica,sans-Serif" font-size="10.00">/tunings/MCEnergyThresholds.cc</text>
</a>
</g>
</g>
<!-- Node87&#45;&gt;Node88 -->
<g id="edge1" class="edge"><title>Node87&#45;&gt;Node88</title>
<path fill="none" stroke="midnightblue" d="M85.5,-57.1081C85.5,-48.1539 85.5,-38.3227 85.5,-30.5765"/>
<polygon fill="midnightblue" stroke="midnightblue" points="82.0001,-57.3959 85.5,-67.396 89.0001,-57.396 82.0001,-57.3959"/>
</g>
</g>
</svg>
