<?xml version="1.0" encoding="UTF-8" standalone="no"?>
<!DOCTYPE svg PUBLIC "-//W3C//DTD SVG 1.1//EN"
 "http://www.w3.org/Graphics/SVG/1.1/DTD/svg11.dtd">
<!-- Generated by graphviz version 2.38.0 (20140413.2041)
 -->
<!-- Title: src/analysis/utils/uncertainties/MCSmearingAdlarson.cc Pages: 1 -->
<svg width="2189pt" height="610pt"
 viewBox="0.00 0.00 2188.50 610.00" xmlns="http://www.w3.org/2000/svg" xmlns:xlink="http://www.w3.org/1999/xlink">
<g id="graph0" class="graph" transform="scale(1 1) rotate(0) translate(4 606)">
<title>src/analysis/utils/uncertainties/MCSmearingAdlarson.cc</title>
<polygon fill="white" stroke="none" points="-4,4 -4,-606 2184.5,-606 2184.5,4 -4,4"/>
<!-- Node0 -->
<g id="node1" class="node"><title>Node0</title>
<polygon fill="#bfbfbf" stroke="black" points="1934,-571.5 1934,-601.5 2136,-601.5 2136,-571.5 1934,-571.5"/>
<text text-anchor="start" x="1942" y="-589.5" font-family="Helvetica,sans-Serif" font-size="10.00">src/analysis/utils</text>
<text text-anchor="middle" x="2035" y="-578.5" font-family="Helvetica,sans-Serif" font-size="10.00">/uncertainties/MCSmearingAdlarson.cc</text>
</g>
<!-- Node1 -->
<g id="node2" class="node"><title>Node1</title>
<g id="a_node2"><a xlink:href="_m_c_smearing_adlarson_8h.html" target="_top" xlink:title="MCSmearingAdlarson.h">
<polygon fill="white" stroke="black" points="1502.5,-515.5 1502.5,-534.5 1631.5,-534.5 1631.5,-515.5 1502.5,-515.5"/>
<text text-anchor="middle" x="1567" y="-522.5" font-family="Helvetica,sans-Serif" font-size="10.00">MCSmearingAdlarson.h</text>
</a>
</g>
</g>
<!-- Node0&#45;&gt;Node1 -->
<g id="edge1" class="edge"><title>Node0&#45;&gt;Node1</title>
<path fill="none" stroke="midnightblue" d="M1933.74,-572.626C1846.03,-561.474 1721.13,-545.596 1642.09,-535.547"/>
<polygon fill="midnightblue" stroke="midnightblue" points="1642.09,-532.019 1631.73,-534.229 1641.21,-538.963 1642.09,-532.019"/>
</g>
<!-- Node43 -->
<g id="node44" class="node"><title>Node43</title>
<g id="a_node44"><a xlink:href="memory_8h.html" target="_top" xlink:title="base/std_ext/memory.h">
<polygon fill="white" stroke="black" points="1806.5,-230 1806.5,-249 1935.5,-249 1935.5,-230 1806.5,-230"/>
<text text-anchor="middle" x="1871" y="-237" font-family="Helvetica,sans-Serif" font-size="10.00">base/std_ext/memory.h</text>
</a>
</g>
</g>
<!-- Node0&#45;&gt;Node43 -->
<g id="edge80" class="edge"><title>Node0&#45;&gt;Node43</title>
<path fill="none" stroke="midnightblue" d="M2028.16,-571.288C2018.5,-549.855 2002,-507.747 2002,-470 2002,-470 2002,-470 2002,-356 2002,-304.01 1943.23,-269.849 1904.42,-252.957"/>
<polygon fill="midnightblue" stroke="midnightblue" points="1905.6,-249.66 1895.03,-249.035 1902.91,-256.119 1905.6,-249.66"/>
</g>
<!-- Node44 -->
<g id="node45" class="node"><title>Node44</title>
<polygon fill="white" stroke="#bfbfbf" points="2030.5,-515.5 2030.5,-534.5 2107.5,-534.5 2107.5,-515.5 2030.5,-515.5"/>
<text text-anchor="middle" x="2069" y="-522.5" font-family="Helvetica,sans-Serif" font-size="10.00">TRandom2.h</text>
</g>
<!-- Node0&#45;&gt;Node44 -->
<g id="edge83" class="edge"><title>Node0&#45;&gt;Node44</title>
<path fill="none" stroke="midnightblue" d="M2043.06,-571.399C2047.85,-563.021 2053.96,-552.327 2059.04,-543.423"/>
<polygon fill="midnightblue" stroke="midnightblue" points="2062.13,-545.077 2064.05,-534.658 2056.05,-541.604 2062.13,-545.077"/>
</g>
<!-- Node45 -->
<g id="node46" class="node"><title>Node45</title>
<polygon fill="white" stroke="#bfbfbf" points="2125.5,-515.5 2125.5,-534.5 2180.5,-534.5 2180.5,-515.5 2125.5,-515.5"/>
<text text-anchor="middle" x="2153" y="-522.5" font-family="Helvetica,sans-Serif" font-size="10.00">TMath.h</text>
</g>
<!-- Node0&#45;&gt;Node45 -->
<g id="edge84" class="edge"><title>Node0&#45;&gt;Node45</title>
<path fill="none" stroke="midnightblue" d="M2062.96,-571.399C2082.32,-561.639 2107.91,-548.737 2126.86,-539.183"/>
<polygon fill="midnightblue" stroke="midnightblue" points="2128.48,-542.285 2135.83,-534.658 2125.33,-536.035 2128.48,-542.285"/>
</g>
<!-- Node2 -->
<g id="node3" class="node"><title>Node2</title>
<g id="a_node3"><a xlink:href="_uncertainties_8h.html" target="_top" xlink:title="analysis/utils/Uncertainties.h">
<polygon fill="white" stroke="black" points="1147.5,-459.5 1147.5,-478.5 1300.5,-478.5 1300.5,-459.5 1147.5,-459.5"/>
<text text-anchor="middle" x="1224" y="-466.5" font-family="Helvetica,sans-Serif" font-size="10.00">analysis/utils/Uncertainties.h</text>
</a>
</g>
</g>
<!-- Node1&#45;&gt;Node2 -->
<g id="edge2" class="edge"><title>Node1&#45;&gt;Node2</title>
<path fill="none" stroke="midnightblue" d="M1512.65,-515.444C1451.69,-505.846 1352.89,-490.292 1288.18,-480.104"/>
<polygon fill="midnightblue" stroke="midnightblue" points="1288.52,-476.614 1278.1,-478.516 1287.43,-483.529 1288.52,-476.614"/>
</g>
<!-- Node3 -->
<g id="node4" class="node"><title>Node3</title>
<g id="a_node4"><a xlink:href="_t_particle_8h.html" target="_top" xlink:title="tree/TParticle.h">
<polygon fill="white" stroke="black" points="1180,-403.5 1180,-422.5 1268,-422.5 1268,-403.5 1180,-403.5"/>
<text text-anchor="middle" x="1224" y="-410.5" font-family="Helvetica,sans-Serif" font-size="10.00">tree/TParticle.h</text>
</a>
</g>
</g>
<!-- Node2&#45;&gt;Node3 -->
<g id="edge3" class="edge"><title>Node2&#45;&gt;Node3</title>
<path fill="none" stroke="midnightblue" d="M1224,-459.083C1224,-452.006 1224,-441.861 1224,-432.986"/>
<polygon fill="midnightblue" stroke="midnightblue" points="1227.5,-432.751 1224,-422.751 1220.5,-432.751 1227.5,-432.751"/>
</g>
<!-- Node7 -->
<g id="node8" class="node"><title>Node7</title>
<g id="a_node8"><a xlink:href="_detector__t_8h.html" target="_top" xlink:title="base/Detector_t.h">
<polygon fill="white" stroke="black" points="398.5,-168.5 398.5,-187.5 501.5,-187.5 501.5,-168.5 398.5,-168.5"/>
<text text-anchor="middle" x="450" y="-175.5" font-family="Helvetica,sans-Serif" font-size="10.00">base/Detector_t.h</text>
</a>
</g>
</g>
<!-- Node2&#45;&gt;Node7 -->
<g id="edge79" class="edge"><title>Node2&#45;&gt;Node7</title>
<path fill="none" stroke="midnightblue" d="M1147.4,-463.999C956.497,-453.248 471.477,-420.848 424,-367 381.176,-318.429 419.424,-233.64 439.507,-196.863"/>
<polygon fill="midnightblue" stroke="midnightblue" points="442.737,-198.261 444.608,-187.833 436.642,-194.819 442.737,-198.261"/>
</g>
<!-- Node4 -->
<g id="node5" class="node"><title>Node4</title>
<g id="a_node5"><a xlink:href="_t_candidate_8h.html" target="_top" xlink:title="tree/TCandidate.h">
<polygon fill="white" stroke="black" points="433.5,-347.5 433.5,-366.5 534.5,-366.5 534.5,-347.5 433.5,-347.5"/>
<text text-anchor="middle" x="484" y="-354.5" font-family="Helvetica,sans-Serif" font-size="10.00">tree/TCandidate.h</text>
</a>
</g>
</g>
<!-- Node3&#45;&gt;Node4 -->
<g id="edge4" class="edge"><title>Node3&#45;&gt;Node4</title>
<path fill="none" stroke="midnightblue" d="M1179.93,-408.784C1053.52,-399.56 689.573,-373.001 544.624,-362.424"/>
<polygon fill="midnightblue" stroke="midnightblue" points="544.8,-358.928 534.572,-361.69 544.291,-365.909 544.8,-358.928"/>
</g>
<!-- Node16 -->
<g id="node17" class="node"><title>Node16</title>
<polygon fill="white" stroke="#bfbfbf" points="450.5,-56.5 450.5,-75.5 497.5,-75.5 497.5,-56.5 450.5,-56.5"/>
<text text-anchor="middle" x="474" y="-63.5" font-family="Helvetica,sans-Serif" font-size="10.00">vector</text>
</g>
<!-- Node3&#45;&gt;Node16 -->
<g id="edge75" class="edge"><title>Node3&#45;&gt;Node16</title>
<path fill="none" stroke="midnightblue" d="M1179.78,-412.103C994.521,-411.927 281.267,-405.042 81,-311 37.7999,-290.714 0,-288.226 0,-240.5 0,-240.5 0,-240.5 0,-177 0,-143.537 9.86881,-130.123 38,-112 104.39,-69.2299 349.742,-66.2328 440.21,-66.6299"/>
<polygon fill="midnightblue" stroke="midnightblue" points="440.432,-70.1312 450.453,-66.6927 440.475,-63.1313 440.432,-70.1312"/>
</g>
<!-- Node24 -->
<g id="node25" class="node"><title>Node24</title>
<polygon fill="white" stroke="#bfbfbf" points="754.5,-168.5 754.5,-187.5 811.5,-187.5 811.5,-168.5 754.5,-168.5"/>
<text text-anchor="middle" x="783" y="-175.5" font-family="Helvetica,sans-Serif" font-size="10.00">memory</text>
</g>
<!-- Node3&#45;&gt;Node24 -->
<g id="edge78" class="edge"><title>Node3&#45;&gt;Node24</title>
<path fill="none" stroke="midnightblue" d="M1204.5,-403.406C1184.78,-394.613 1153.52,-380.379 1127,-367 1004.65,-305.272 861.956,-224.344 806.609,-192.605"/>
<polygon fill="midnightblue" stroke="midnightblue" points="808.316,-189.549 797.901,-187.604 804.83,-195.619 808.316,-189.549"/>
</g>
<!-- Node27 -->
<g id="node28" class="node"><title>Node27</title>
<g id="a_node28"><a xlink:href="types_8h.html" target="_top" xlink:title="base/types.h">
<polygon fill="white" stroke="black" points="1634,-168.5 1634,-187.5 1712,-187.5 1712,-168.5 1634,-168.5"/>
<text text-anchor="middle" x="1673" y="-175.5" font-family="Helvetica,sans-Serif" font-size="10.00">base/types.h</text>
</a>
</g>
</g>
<!-- Node3&#45;&gt;Node27 -->
<g id="edge45" class="edge"><title>Node3&#45;&gt;Node27</title>
<path fill="none" stroke="midnightblue" d="M1264.1,-403.472C1329.52,-388.857 1462.58,-356.173 1569,-311 1615.53,-291.248 1641.11,-297.807 1668,-255 1678.74,-237.896 1678.45,-214.145 1676.46,-197.769"/>
<polygon fill="midnightblue" stroke="midnightblue" points="1679.9,-197.137 1674.93,-187.782 1672.98,-198.197 1679.9,-197.137"/>
</g>
<!-- Node28 -->
<g id="node29" class="node"><title>Node28</title>
<g id="a_node29"><a xlink:href="_particle_type_8h.html" target="_top" xlink:title="base/ParticleType.h">
<polygon fill="white" stroke="black" points="1453.5,-291.5 1453.5,-310.5 1560.5,-310.5 1560.5,-291.5 1453.5,-291.5"/>
<text text-anchor="middle" x="1507" y="-298.5" font-family="Helvetica,sans-Serif" font-size="10.00">base/ParticleType.h</text>
</a>
</g>
</g>
<!-- Node3&#45;&gt;Node28 -->
<g id="edge46" class="edge"><title>Node3&#45;&gt;Node28</title>
<path fill="none" stroke="midnightblue" d="M1246.21,-403.368C1296.22,-383.93 1417.79,-336.674 1475.54,-314.228"/>
<polygon fill="midnightblue" stroke="midnightblue" points="1476.84,-317.477 1484.9,-310.591 1474.31,-310.952 1476.84,-317.477"/>
</g>
<!-- Node33 -->
<g id="node34" class="node"><title>Node33</title>
<g id="a_node34"><a xlink:href="_tree_8h.html" target="_top" xlink:title="base/Tree.h">
<polygon fill="white" stroke="black" points="1027.5,-230 1027.5,-249 1098.5,-249 1098.5,-230 1027.5,-230"/>
<text text-anchor="middle" x="1063" y="-237" font-family="Helvetica,sans-Serif" font-size="10.00">base/Tree.h</text>
</a>
</g>
</g>
<!-- Node3&#45;&gt;Node33 -->
<g id="edge61" class="edge"><title>Node3&#45;&gt;Node33</title>
<path fill="none" stroke="midnightblue" d="M1223.04,-403.258C1221.24,-390.027 1216.33,-364.598 1204,-347 1174.01,-304.196 1121.48,-271.195 1089.7,-253.907"/>
<polygon fill="midnightblue" stroke="midnightblue" points="1091.03,-250.648 1080.55,-249.053 1087.75,-256.832 1091.03,-250.648"/>
</g>
<!-- Node38 -->
<g id="node39" class="node"><title>Node38</title>
<polygon fill="white" stroke="#bfbfbf" points="1856,-168.5 1856,-187.5 1886,-187.5 1886,-168.5 1856,-168.5"/>
<text text-anchor="middle" x="1871" y="-175.5" font-family="Helvetica,sans-Serif" font-size="10.00">list</text>
</g>
<!-- Node3&#45;&gt;Node38 -->
<g id="edge76" class="edge"><title>Node3&#45;&gt;Node38</title>
<path fill="none" stroke="midnightblue" d="M1268.37,-410.187C1377.45,-405.407 1656.3,-391.143 1746,-367 1844,-340.623 1898.13,-345.02 1945,-255 1951.36,-242.779 1951.75,-236.01 1945,-224 1934.53,-205.375 1912.88,-193.561 1895.69,-186.736"/>
<polygon fill="midnightblue" stroke="midnightblue" points="1896.8,-183.414 1886.2,-183.28 1894.4,-189.991 1896.8,-183.414"/>
</g>
<!-- Node41 -->
<g id="node42" class="node"><title>Node41</title>
<g id="a_node42"><a xlink:href="_lorentz_vec_8h.html" target="_top" xlink:title="base/vec/LorentzVec.h">
<polygon fill="white" stroke="black" points="1730.5,-291.5 1730.5,-310.5 1855.5,-310.5 1855.5,-291.5 1730.5,-291.5"/>
<text text-anchor="middle" x="1793" y="-298.5" font-family="Helvetica,sans-Serif" font-size="10.00">base/vec/LorentzVec.h</text>
</a>
</g>
</g>
<!-- Node3&#45;&gt;Node41 -->
<g id="edge73" class="edge"><title>Node3&#45;&gt;Node41</title>
<path fill="none" stroke="midnightblue" d="M1268.2,-411.332C1373.37,-409.206 1635.68,-400.594 1716,-367 1741.6,-356.292 1765.04,-333.898 1779.17,-318.411"/>
<polygon fill="midnightblue" stroke="midnightblue" points="1782.03,-320.455 1786.01,-310.636 1776.78,-315.829 1782.03,-320.455"/>
</g>
<!-- Node42 -->
<g id="node43" class="node"><title>Node42</title>
<polygon fill="white" stroke="#bfbfbf" points="1136.5,-347.5 1136.5,-366.5 1195.5,-366.5 1195.5,-347.5 1136.5,-347.5"/>
<text text-anchor="middle" x="1166" y="-354.5" font-family="Helvetica,sans-Serif" font-size="10.00">iostream</text>
</g>
<!-- Node3&#45;&gt;Node42 -->
<g id="edge77" class="edge"><title>Node3&#45;&gt;Node42</title>
<path fill="none" stroke="midnightblue" d="M1214.68,-403.324C1206.11,-395.341 1193.19,-383.313 1182.81,-373.653"/>
<polygon fill="midnightblue" stroke="midnightblue" points="1185.19,-371.086 1175.49,-366.834 1180.42,-376.21 1185.19,-371.086"/>
</g>
<!-- Node5 -->
<g id="node6" class="node"><title>Node5</title>
<g id="a_node6"><a xlink:href="_t_cluster_8h.html" target="_top" xlink:title="TCluster.h">
<polygon fill="white" stroke="black" points="482.5,-291.5 482.5,-310.5 545.5,-310.5 545.5,-291.5 482.5,-291.5"/>
<text text-anchor="middle" x="514" y="-298.5" font-family="Helvetica,sans-Serif" font-size="10.00">TCluster.h</text>
</a>
</g>
</g>
<!-- Node4&#45;&gt;Node5 -->
<g id="edge5" class="edge"><title>Node4&#45;&gt;Node5</title>
<path fill="none" stroke="midnightblue" d="M488.954,-347.083C493.104,-339.613 499.153,-328.724 504.267,-319.52"/>
<polygon fill="midnightblue" stroke="midnightblue" points="507.341,-321.192 509.138,-310.751 501.222,-317.793 507.341,-321.192"/>
</g>
<!-- Node4&#45;&gt;Node7 -->
<g id="edge39" class="edge"><title>Node4&#45;&gt;Node7</title>
<path fill="none" stroke="midnightblue" d="M481.718,-347.412C479.363,-338.386 475.667,-323.753 473,-311 464.619,-270.917 456.888,-223.542 452.877,-197.858"/>
<polygon fill="midnightblue" stroke="midnightblue" points="456.292,-197.036 451.307,-187.687 449.374,-198.104 456.292,-197.036"/>
</g>
<!-- Node4&#45;&gt;Node16 -->
<g id="edge40" class="edge"><title>Node4&#45;&gt;Node16</title>
<path fill="none" stroke="midnightblue" d="M433.272,-353.56C316.376,-346.556 38,-321.385 38,-240.5 38,-240.5 38,-240.5 38,-177 38,-146.902 33.921,-131.319 57,-112 86.2003,-87.5566 346.118,-73.0132 440.198,-68.5118"/>
<polygon fill="midnightblue" stroke="midnightblue" points="440.489,-72.0021 450.314,-68.0361 440.161,-65.0098 440.489,-72.0021"/>
</g>
<!-- Node21 -->
<g id="node22" class="node"><title>Node21</title>
<polygon fill="white" stroke="#bfbfbf" points="142.5,-168.5 142.5,-187.5 197.5,-187.5 197.5,-168.5 142.5,-168.5"/>
<text text-anchor="middle" x="170" y="-175.5" font-family="Helvetica,sans-Serif" font-size="10.00">iomanip</text>
</g>
<!-- Node4&#45;&gt;Node21 -->
<g id="edge41" class="edge"><title>Node4&#45;&gt;Node21</title>
<path fill="none" stroke="midnightblue" d="M433.224,-352.091C388.265,-347.095 321.776,-335.88 269,-311 232.962,-294.011 222.482,-287.186 199,-255 186.286,-237.573 178.42,-213.885 174.142,-197.611"/>
<polygon fill="midnightblue" stroke="midnightblue" points="177.497,-196.592 171.739,-187.698 170.694,-198.241 177.497,-196.592"/>
</g>
<!-- Node22 -->
<g id="node23" class="node"><title>Node22</title>
<polygon fill="white" stroke="#bfbfbf" points="255,-168.5 255,-187.5 311,-187.5 311,-168.5 255,-168.5"/>
<text text-anchor="middle" x="283" y="-175.5" font-family="Helvetica,sans-Serif" font-size="10.00">sstream</text>
</g>
<!-- Node4&#45;&gt;Node22 -->
<g id="edge42" class="edge"><title>Node4&#45;&gt;Node22</title>
<path fill="none" stroke="midnightblue" d="M433.39,-351.425C375.016,-343.133 281.513,-319.903 238,-255 230.328,-243.556 232.727,-236.729 238,-224 242.92,-212.121 252.667,-201.743 261.834,-193.956"/>
<polygon fill="midnightblue" stroke="midnightblue" points="264.253,-196.506 269.936,-187.564 259.917,-191.01 264.253,-196.506"/>
</g>
<!-- Node4&#45;&gt;Node24 -->
<g id="edge43" class="edge"><title>Node4&#45;&gt;Node24</title>
<path fill="none" stroke="midnightblue" d="M534.775,-355.276C603.407,-351.245 723.765,-332.737 781,-255 793.081,-238.592 791.319,-214.336 788.016,-197.664"/>
<polygon fill="midnightblue" stroke="midnightblue" points="791.328,-196.458 785.635,-187.523 784.514,-198.058 791.328,-196.458"/>
</g>
<!-- Node26 -->
<g id="node27" class="node"><title>Node26</title>
<polygon fill="white" stroke="#bfbfbf" points="830,-168.5 830,-187.5 892,-187.5 892,-168.5 830,-168.5"/>
<text text-anchor="middle" x="861" y="-175.5" font-family="Helvetica,sans-Serif" font-size="10.00">algorithm</text>
</g>
<!-- Node4&#45;&gt;Node26 -->
<g id="edge44" class="edge"><title>Node4&#45;&gt;Node26</title>
<path fill="none" stroke="midnightblue" d="M534.515,-356.316C589.336,-354.672 677.999,-346.101 745,-311 795.744,-284.416 834.457,-225.813 851.487,-196.465"/>
<polygon fill="midnightblue" stroke="midnightblue" points="854.554,-198.152 856.417,-187.722 848.456,-194.713 854.554,-198.152"/>
</g>
<!-- Node6 -->
<g id="node7" class="node"><title>Node6</title>
<g id="a_node7"><a xlink:href="_t_detector_read_hit_8h.html" target="_top" xlink:title="tree/TDetectorReadHit.h">
<polygon fill="white" stroke="black" points="256,-230 256,-249 388,-249 388,-230 256,-230"/>
<text text-anchor="middle" x="322" y="-237" font-family="Helvetica,sans-Serif" font-size="10.00">tree/TDetectorReadHit.h</text>
</a>
</g>
</g>
<!-- Node5&#45;&gt;Node6 -->
<g id="edge6" class="edge"><title>Node5&#45;&gt;Node6</title>
<path fill="none" stroke="midnightblue" d="M486.491,-291.475C453.129,-281.136 396.738,-263.661 359.437,-252.102"/>
<polygon fill="midnightblue" stroke="midnightblue" points="360.046,-248.626 349.458,-249.009 357.974,-255.312 360.046,-248.626"/>
</g>
<!-- Node5&#45;&gt;Node7 -->
<g id="edge26" class="edge"><title>Node5&#45;&gt;Node7</title>
<path fill="none" stroke="midnightblue" d="M509.397,-291.298C498.926,-271.502 473.157,-222.782 459.253,-196.493"/>
<polygon fill="midnightblue" stroke="midnightblue" points="462.33,-194.826 454.561,-187.623 456.143,-198.099 462.33,-194.826"/>
</g>
<!-- Node10 -->
<g id="node11" class="node"><title>Node10</title>
<g id="a_node11"><a xlink:href="vec3_8h.html" target="_top" xlink:title="base/vec/vec3.h">
<polygon fill="white" stroke="black" points="936,-112.5 936,-131.5 1030,-131.5 1030,-112.5 936,-112.5"/>
<text text-anchor="middle" x="983" y="-119.5" font-family="Helvetica,sans-Serif" font-size="10.00">base/vec/vec3.h</text>
</a>
</g>
</g>
<!-- Node5&#45;&gt;Node10 -->
<g id="edge33" class="edge"><title>Node5&#45;&gt;Node10</title>
<path fill="none" stroke="midnightblue" d="M519.202,-291.389C524.659,-282.343 533.471,-267.695 541,-255 563.864,-216.449 554.358,-192.33 592,-168 652.486,-128.904 837.911,-140.913 925.983,-131.913"/>
<polygon fill="midnightblue" stroke="midnightblue" points="926.449,-135.383 935.973,-130.741 925.633,-128.43 926.449,-135.383"/>
</g>
<!-- Node12 -->
<g id="node13" class="node"><title>Node12</title>
<polygon fill="white" stroke="#bfbfbf" points="920.5,-0.5 920.5,-19.5 967.5,-19.5 967.5,-0.5 920.5,-0.5"/>
<text text-anchor="middle" x="944" y="-7.5" font-family="Helvetica,sans-Serif" font-size="10.00">cmath</text>
</g>
<!-- Node5&#45;&gt;Node12 -->
<g id="edge35" class="edge"><title>Node5&#45;&gt;Node12</title>
<path fill="none" stroke="midnightblue" d="M524.472,-291.219C534.582,-282.51 550.07,-268.542 562,-255 593.558,-219.178 583.462,-191.53 625,-168 705.351,-122.484 976.593,-200.069 1039,-132 1047.52,-122.707 1060.37,-90.812 1038,-56 1024.58,-35.1061 998.523,-23.6809 977.244,-17.5774"/>
<polygon fill="midnightblue" stroke="midnightblue" points="978.121,-14.1892 967.562,-15.0615 976.36,-20.9642 978.121,-14.1892"/>
</g>
<!-- Node14 -->
<g id="node15" class="node"><title>Node14</title>
<g id="a_node15"><a xlink:href="base_2std__ext_2math_8h.html" target="_top" xlink:title="base/std_ext/math.h">
<polygon fill="white" stroke="black" points="493,-112.5 493,-131.5 609,-131.5 609,-112.5 493,-112.5"/>
<text text-anchor="middle" x="551" y="-119.5" font-family="Helvetica,sans-Serif" font-size="10.00">base/std_ext/math.h</text>
</a>
</g>
</g>
<!-- Node5&#45;&gt;Node14 -->
<g id="edge27" class="edge"><title>Node5&#45;&gt;Node14</title>
<path fill="none" stroke="midnightblue" d="M515.785,-291.463C521.436,-264.428 539.035,-180.239 547.005,-142.109"/>
<polygon fill="midnightblue" stroke="midnightblue" points="550.526,-142.373 549.146,-131.868 543.674,-140.941 550.526,-142.373"/>
</g>
<!-- Node5&#45;&gt;Node16 -->
<g id="edge34" class="edge"><title>Node5&#45;&gt;Node16</title>
<path fill="none" stroke="midnightblue" d="M482.455,-298.055C412.837,-293.356 248.317,-279.891 199,-255 161.684,-236.166 148.851,-226.677 133,-188 129.629,-179.775 127.681,-175.122 133,-168 170.357,-117.975 361.504,-83.9558 440.141,-71.8735"/>
<polygon fill="midnightblue" stroke="midnightblue" points="441.098,-75.2689 450.463,-70.3149 440.053,-68.3474 441.098,-75.2689"/>
</g>
<!-- Node5&#45;&gt;Node21 -->
<g id="edge36" class="edge"><title>Node5&#45;&gt;Node21</title>
<path fill="none" stroke="midnightblue" d="M482.499,-297.511C419.345,-292.095 279.725,-277.863 238,-255 212.847,-241.217 192.297,-214.444 180.598,-196.641"/>
<polygon fill="midnightblue" stroke="midnightblue" points="183.327,-194.407 175.035,-187.812 177.405,-198.139 183.327,-194.407"/>
</g>
<!-- Node5&#45;&gt;Node22 -->
<g id="edge37" class="edge"><title>Node5&#45;&gt;Node22</title>
<path fill="none" stroke="midnightblue" d="M482.267,-299.553C418.172,-297.907 276.821,-290.267 247,-255 231.689,-236.892 250.298,-211.169 265.948,-194.782"/>
<polygon fill="midnightblue" stroke="midnightblue" points="268.594,-197.088 273.232,-187.563 263.666,-192.117 268.594,-197.088"/>
</g>
<!-- Node23 -->
<g id="node24" class="node"><title>Node23</title>
<g id="a_node24"><a xlink:href="shared__ptr__container_8h.html" target="_top" xlink:title="base/std_ext/shared\l_ptr_container.h">
<polygon fill="white" stroke="black" points="634,-224.5 634,-254.5 748,-254.5 748,-224.5 634,-224.5"/>
<text text-anchor="start" x="642" y="-242.5" font-family="Helvetica,sans-Serif" font-size="10.00">base/std_ext/shared</text>
<text text-anchor="middle" x="691" y="-231.5" font-family="Helvetica,sans-Serif" font-size="10.00">_ptr_container.h</text>
</a>
</g>
</g>
<!-- Node5&#45;&gt;Node23 -->
<g id="edge28" class="edge"><title>Node5&#45;&gt;Node23</title>
<path fill="none" stroke="midnightblue" d="M539.36,-291.475C565.46,-282.701 606.849,-268.788 639.797,-257.712"/>
<polygon fill="midnightblue" stroke="midnightblue" points="640.921,-261.027 649.285,-254.523 638.691,-254.392 640.921,-261.027"/>
</g>
<!-- Node5&#45;&gt;Node24 -->
<g id="edge38" class="edge"><title>Node5&#45;&gt;Node24</title>
<path fill="none" stroke="midnightblue" d="M545.666,-298.048C604.092,-293.832 725.741,-281.985 757,-255 773.626,-240.648 779.635,-215.188 781.799,-197.722"/>
<polygon fill="midnightblue" stroke="midnightblue" points="785.299,-197.875 782.738,-187.594 778.329,-197.229 785.299,-197.875"/>
</g>
<!-- Node6&#45;&gt;Node7 -->
<g id="edge7" class="edge"><title>Node6&#45;&gt;Node7</title>
<path fill="none" stroke="midnightblue" d="M340.339,-229.975C361.821,-219.99 397.622,-203.348 422.448,-191.807"/>
<polygon fill="midnightblue" stroke="midnightblue" points="424.102,-194.898 431.695,-187.509 421.151,-188.551 424.102,-194.898"/>
</g>
<!-- Node6&#45;&gt;Node21 -->
<g id="edge24" class="edge"><title>Node6&#45;&gt;Node21</title>
<path fill="none" stroke="midnightblue" d="M300.222,-229.975C274.262,-219.813 230.689,-202.756 201.165,-191.2"/>
<polygon fill="midnightblue" stroke="midnightblue" points="202.325,-187.895 191.737,-187.509 199.774,-194.413 202.325,-187.895"/>
</g>
<!-- Node6&#45;&gt;Node22 -->
<g id="edge25" class="edge"><title>Node6&#45;&gt;Node22</title>
<path fill="none" stroke="midnightblue" d="M316.412,-229.975C310.62,-221.138 301.411,-207.089 294.126,-195.975"/>
<polygon fill="midnightblue" stroke="midnightblue" points="296.987,-193.954 288.577,-187.509 291.132,-197.791 296.987,-193.954"/>
</g>
<!-- Node8 -->
<g id="node9" class="node"><title>Node8</title>
<g id="a_node9"><a xlink:href="bitflag_8h.html" target="_top" xlink:title="base/bitflag.h">
<polygon fill="white" stroke="black" points="66.5,-112.5 66.5,-131.5 147.5,-131.5 147.5,-112.5 66.5,-112.5"/>
<text text-anchor="middle" x="107" y="-119.5" font-family="Helvetica,sans-Serif" font-size="10.00">base/bitflag.h</text>
</a>
</g>
</g>
<!-- Node7&#45;&gt;Node8 -->
<g id="edge8" class="edge"><title>Node7&#45;&gt;Node8</title>
<path fill="none" stroke="midnightblue" d="M398.278,-168.857C333.171,-158.607 222.063,-141.115 157.526,-130.955"/>
<polygon fill="midnightblue" stroke="midnightblue" points="158.005,-127.487 147.582,-129.389 156.916,-134.402 158.005,-127.487"/>
</g>
<!-- Node7&#45;&gt;Node10 -->
<g id="edge10" class="edge"><title>Node7&#45;&gt;Node10</title>
<path fill="none" stroke="midnightblue" d="M501.782,-172.546C603.951,-163.69 829.246,-143.804 925.934,-132.038"/>
<polygon fill="midnightblue" stroke="midnightblue" points="926.489,-135.496 935.978,-130.785 925.622,-128.55 926.489,-135.496"/>
</g>
<!-- Node7&#45;&gt;Node14 -->
<g id="edge15" class="edge"><title>Node7&#45;&gt;Node14</title>
<path fill="none" stroke="midnightblue" d="M466.227,-168.324C482.351,-159.703 507.3,-146.364 525.964,-136.386"/>
<polygon fill="midnightblue" stroke="midnightblue" points="527.644,-139.456 534.813,-131.655 524.344,-133.283 527.644,-139.456"/>
</g>
<!-- Node7&#45;&gt;Node16 -->
<g id="edge23" class="edge"><title>Node7&#45;&gt;Node16</title>
<path fill="none" stroke="midnightblue" d="M439.94,-168.22C426.968,-155.778 407.176,-132.272 417,-112 423.397,-98.7996 435.752,-88.3032 447.329,-80.7794"/>
<polygon fill="midnightblue" stroke="midnightblue" points="449.155,-83.7653 455.918,-75.6099 445.546,-77.7678 449.155,-83.7653"/>
</g>
<!-- Node17 -->
<g id="node18" class="node"><title>Node17</title>
<polygon fill="white" stroke="#bfbfbf" points="426.5,-112.5 426.5,-131.5 475.5,-131.5 475.5,-112.5 426.5,-112.5"/>
<text text-anchor="middle" x="451" y="-119.5" font-family="Helvetica,sans-Serif" font-size="10.00">cstdint</text>
</g>
<!-- Node7&#45;&gt;Node17 -->
<g id="edge19" class="edge"><title>Node7&#45;&gt;Node17</title>
<path fill="none" stroke="midnightblue" d="M450.165,-168.083C450.296,-161.006 450.484,-150.861 450.648,-141.986"/>
<polygon fill="midnightblue" stroke="midnightblue" points="454.152,-141.814 450.838,-131.751 447.153,-141.685 454.152,-141.814"/>
</g>
<!-- Node18 -->
<g id="node19" class="node"><title>Node18</title>
<polygon fill="white" stroke="#bfbfbf" points="854,-112.5 854,-131.5 918,-131.5 918,-112.5 854,-112.5"/>
<text text-anchor="middle" x="886" y="-119.5" font-family="Helvetica,sans-Serif" font-size="10.00">stdexcept</text>
</g>
<!-- Node7&#45;&gt;Node18 -->
<g id="edge20" class="edge"><title>Node7&#45;&gt;Node18</title>
<path fill="none" stroke="midnightblue" d="M501.606,-171.787C589.154,-162.838 764.249,-144.453 843.722,-132.025"/>
<polygon fill="midnightblue" stroke="midnightblue" points="844.519,-135.441 853.832,-130.388 843.401,-128.531 844.519,-135.441"/>
</g>
<!-- Node19 -->
<g id="node20" class="node"><title>Node19</title>
<polygon fill="white" stroke="#bfbfbf" points="792,-112.5 792,-131.5 836,-131.5 836,-112.5 792,-112.5"/>
<text text-anchor="middle" x="814" y="-119.5" font-family="Helvetica,sans-Serif" font-size="10.00">string</text>
</g>
<!-- Node7&#45;&gt;Node19 -->
<g id="edge21" class="edge"><title>Node7&#45;&gt;Node19</title>
<path fill="none" stroke="midnightblue" d="M501.766,-169.32C578.024,-158.007 718.341,-137.191 781.585,-127.809"/>
<polygon fill="midnightblue" stroke="midnightblue" points="782.382,-131.229 791.761,-126.299 781.355,-124.305 782.382,-131.229"/>
</g>
<!-- Node20 -->
<g id="node21" class="node"><title>Node20</title>
<polygon fill="white" stroke="#bfbfbf" points="628,-112.5 628,-131.5 696,-131.5 696,-112.5 628,-112.5"/>
<text text-anchor="middle" x="662" y="-119.5" font-family="Helvetica,sans-Serif" font-size="10.00">type_traits</text>
</g>
<!-- Node7&#45;&gt;Node20 -->
<g id="edge22" class="edge"><title>Node7&#45;&gt;Node20</title>
<path fill="none" stroke="midnightblue" d="M483.592,-168.444C520.187,-159.122 578.838,-144.183 618.826,-133.997"/>
<polygon fill="midnightblue" stroke="midnightblue" points="619.739,-137.377 628.565,-131.516 618.011,-130.593 619.739,-137.377"/>
</g>
<!-- Node9 -->
<g id="node10" class="node"><title>Node9</title>
<polygon fill="white" stroke="#bfbfbf" points="85,-56.5 85,-75.5 129,-75.5 129,-56.5 85,-56.5"/>
<text text-anchor="middle" x="107" y="-63.5" font-family="Helvetica,sans-Serif" font-size="10.00">bitset</text>
</g>
<!-- Node8&#45;&gt;Node9 -->
<g id="edge9" class="edge"><title>Node8&#45;&gt;Node9</title>
<path fill="none" stroke="midnightblue" d="M107,-112.083C107,-105.006 107,-94.8611 107,-85.9865"/>
<polygon fill="midnightblue" stroke="midnightblue" points="110.5,-85.751 107,-75.7511 103.5,-85.7511 110.5,-85.751"/>
</g>
<!-- Node11 -->
<g id="node12" class="node"><title>Node11</title>
<g id="a_node12"><a xlink:href="vec2_8h.html" target="_top" xlink:title="vec2.h">
<polygon fill="white" stroke="black" points="808,-56.5 808,-75.5 856,-75.5 856,-56.5 808,-56.5"/>
<text text-anchor="middle" x="832" y="-63.5" font-family="Helvetica,sans-Serif" font-size="10.00">vec2.h</text>
</a>
</g>
</g>
<!-- Node10&#45;&gt;Node11 -->
<g id="edge11" class="edge"><title>Node10&#45;&gt;Node11</title>
<path fill="none" stroke="midnightblue" d="M959.074,-112.444C933.781,-103.399 893.698,-89.064 865.32,-78.9158"/>
<polygon fill="midnightblue" stroke="midnightblue" points="866.409,-75.5882 855.814,-75.5164 864.052,-82.1794 866.409,-75.5882"/>
</g>
<!-- Node10&#45;&gt;Node12 -->
<g id="edge14" class="edge"><title>Node10&#45;&gt;Node12</title>
<path fill="none" stroke="midnightblue" d="M978.658,-112.18C974.343,-103.211 967.707,-88.8435 963,-76 957.311,-60.4766 952.138,-42.394 948.632,-29.2481"/>
<polygon fill="midnightblue" stroke="midnightblue" points="952.009,-28.3275 946.104,-19.5311 945.235,-30.0902 952.009,-28.3275"/>
</g>
<!-- Node13 -->
<g id="node14" class="node"><title>Node13</title>
<polygon fill="white" stroke="#bfbfbf" points="972.5,-56.5 972.5,-75.5 1029.5,-75.5 1029.5,-56.5 972.5,-56.5"/>
<text text-anchor="middle" x="1001" y="-63.5" font-family="Helvetica,sans-Serif" font-size="10.00">ostream</text>
</g>
<!-- Node10&#45;&gt;Node13 -->
<g id="edge13" class="edge"><title>Node10&#45;&gt;Node13</title>
<path fill="none" stroke="midnightblue" d="M985.972,-112.083C988.384,-104.849 991.864,-94.4087 994.868,-85.3968"/>
<polygon fill="midnightblue" stroke="midnightblue" points="998.241,-86.3447 998.083,-75.7511 991.6,-84.1311 998.241,-86.3447"/>
</g>
<!-- Node11&#45;&gt;Node12 -->
<g id="edge12" class="edge"><title>Node11&#45;&gt;Node12</title>
<path fill="none" stroke="midnightblue" d="M849.995,-56.324C868.038,-47.6247 896.047,-34.1202 916.803,-24.113"/>
<polygon fill="midnightblue" stroke="midnightblue" points="918.562,-27.1502 926.05,-19.6545 915.522,-20.8449 918.562,-27.1502"/>
</g>
<!-- Node14&#45;&gt;Node12 -->
<g id="edge16" class="edge"><title>Node14&#45;&gt;Node12</title>
<path fill="none" stroke="midnightblue" d="M581.511,-112.46C653.854,-92.2114 835.341,-41.4133 910.547,-20.3634"/>
<polygon fill="midnightblue" stroke="midnightblue" points="911.745,-23.6628 920.431,-17.5968 909.858,-16.9218 911.745,-23.6628"/>
</g>
<!-- Node15 -->
<g id="node16" class="node"><title>Node15</title>
<polygon fill="white" stroke="#bfbfbf" points="874,-56.5 874,-75.5 916,-75.5 916,-56.5 874,-56.5"/>
<text text-anchor="middle" x="895" y="-63.5" font-family="Helvetica,sans-Serif" font-size="10.00">limits</text>
</g>
<!-- Node14&#45;&gt;Node15 -->
<g id="edge17" class="edge"><title>Node14&#45;&gt;Node15</title>
<path fill="none" stroke="midnightblue" d="M609.1,-113.151C686.246,-102.663 817.361,-84.5828 863.712,-75.8454"/>
<polygon fill="midnightblue" stroke="midnightblue" points="864.699,-79.2161 873.798,-73.7873 863.3,-72.3575 864.699,-79.2161"/>
</g>
<!-- Node14&#45;&gt;Node16 -->
<g id="edge18" class="edge"><title>Node14&#45;&gt;Node16</title>
<path fill="none" stroke="midnightblue" d="M538.629,-112.324C526.842,-104.058 508.868,-91.4527 494.864,-81.6322"/>
<polygon fill="midnightblue" stroke="midnightblue" points="496.538,-78.5307 486.341,-75.6545 492.518,-84.2619 496.538,-78.5307"/>
</g>
<!-- Node23&#45;&gt;Node16 -->
<g id="edge29" class="edge"><title>Node23&#45;&gt;Node16</title>
<path fill="none" stroke="midnightblue" d="M698.496,-224.428C710.983,-198.834 732.128,-144.33 705,-112 680.152,-82.3874 565.831,-71.9657 507.881,-68.5436"/>
<polygon fill="midnightblue" stroke="midnightblue" points="507.929,-65.041 497.751,-67.983 507.542,-72.0303 507.929,-65.041"/>
</g>
<!-- Node23&#45;&gt;Node24 -->
<g id="edge30" class="edge"><title>Node23&#45;&gt;Node24</title>
<path fill="none" stroke="midnightblue" d="M712.803,-224.399C727.412,-214.951 746.573,-202.559 761.185,-193.109"/>
<polygon fill="midnightblue" stroke="midnightblue" points="763.117,-196.027 769.613,-187.658 759.316,-190.15 763.117,-196.027"/>
</g>
<!-- Node25 -->
<g id="node26" class="node"><title>Node25</title>
<polygon fill="white" stroke="#bfbfbf" points="634.5,-168.5 634.5,-187.5 697.5,-187.5 697.5,-168.5 634.5,-168.5"/>
<text text-anchor="middle" x="666" y="-175.5" font-family="Helvetica,sans-Serif" font-size="10.00">functional</text>
</g>
<!-- Node23&#45;&gt;Node25 -->
<g id="edge31" class="edge"><title>Node23&#45;&gt;Node25</title>
<path fill="none" stroke="midnightblue" d="M685.075,-224.399C681.63,-216.199 677.252,-205.781 673.56,-196.994"/>
<polygon fill="midnightblue" stroke="midnightblue" points="676.738,-195.521 669.638,-187.658 670.285,-198.233 676.738,-195.521"/>
</g>
<!-- Node23&#45;&gt;Node26 -->
<g id="edge32" class="edge"><title>Node23&#45;&gt;Node26</title>
<path fill="none" stroke="midnightblue" d="M731.288,-224.399C760.32,-214.238 799.081,-200.672 826.651,-191.022"/>
<polygon fill="midnightblue" stroke="midnightblue" points="827.981,-194.265 836.263,-187.658 825.669,-187.658 827.981,-194.265"/>
</g>
<!-- Node28&#45;&gt;Node13 -->
<g id="edge57" class="edge"><title>Node28&#45;&gt;Node13</title>
<path fill="none" stroke="midnightblue" d="M1551.34,-291.476C1628.02,-274.783 1772.48,-233.585 1721,-168 1678.42,-113.755 1183.87,-78.5227 1040.02,-69.3714"/>
<polygon fill="midnightblue" stroke="midnightblue" points="1040.09,-65.8691 1029.89,-68.7335 1039.65,-72.8552 1040.09,-65.8691"/>
</g>
<!-- Node28&#45;&gt;Node16 -->
<g id="edge60" class="edge"><title>Node28&#45;&gt;Node16</title>
<path fill="none" stroke="midnightblue" d="M1466.85,-291.429C1447.03,-284.953 1424.86,-273.83 1413,-255 1405.66,-243.343 1408.88,-237.148 1413,-224 1418.82,-205.411 1432.18,-206.589 1438,-188 1448.29,-155.144 1449.81,-133.602 1423,-112 1404.82,-97.3483 675.753,-73.3916 508.118,-68.0695"/>
<polygon fill="midnightblue" stroke="midnightblue" points="508.007,-64.5643 497.902,-67.7462 507.786,-71.5608 508.007,-64.5643"/>
</g>
<!-- Node28&#45;&gt;Node19 -->
<g id="edge56" class="edge"><title>Node28&#45;&gt;Node19</title>
<path fill="none" stroke="midnightblue" d="M1476.98,-291.461C1450.75,-283.512 1411.97,-270.566 1380,-255 1371.89,-251.053 1251.54,-170.905 1243,-168 1077.98,-111.845 1021.63,-162.942 846.3,-131.86"/>
<polygon fill="midnightblue" stroke="midnightblue" points="846.695,-128.374 836.227,-130.008 845.429,-135.259 846.695,-128.374"/>
</g>
<!-- Node28&#45;&gt;Node27 -->
<g id="edge47" class="edge"><title>Node28&#45;&gt;Node27</title>
<path fill="none" stroke="midnightblue" d="M1560.6,-293.873C1588.88,-288.09 1622.31,-276.849 1645,-255 1660.87,-239.718 1667.8,-214.674 1670.79,-197.542"/>
<polygon fill="midnightblue" stroke="midnightblue" points="1674.26,-198.009 1672.24,-187.608 1667.34,-196.997 1674.26,-198.009"/>
</g>
<!-- Node29 -->
<g id="node30" class="node"><title>Node29</title>
<g id="a_node30"><a xlink:href="interval_8h.html" target="_top" xlink:title="base/interval.h">
<polygon fill="white" stroke="black" points="1422.5,-230 1422.5,-249 1509.5,-249 1509.5,-230 1422.5,-230"/>
<text text-anchor="middle" x="1466" y="-237" font-family="Helvetica,sans-Serif" font-size="10.00">base/interval.h</text>
</a>
</g>
</g>
<!-- Node28&#45;&gt;Node29 -->
<g id="edge48" class="edge"><title>Node28&#45;&gt;Node29</title>
<path fill="none" stroke="midnightblue" d="M1501.13,-291.475C1495.04,-282.638 1485.36,-268.589 1477.7,-257.475"/>
<polygon fill="midnightblue" stroke="midnightblue" points="1480.42,-255.258 1471.86,-249.009 1474.66,-259.229 1480.42,-255.258"/>
</g>
<!-- Node31 -->
<g id="node32" class="node"><title>Node31</title>
<polygon fill="white" stroke="#bfbfbf" points="1528,-230 1528,-249 1566,-249 1566,-230 1528,-230"/>
<text text-anchor="middle" x="1547" y="-237" font-family="Helvetica,sans-Serif" font-size="10.00">map</text>
</g>
<!-- Node28&#45;&gt;Node31 -->
<g id="edge58" class="edge"><title>Node28&#45;&gt;Node31</title>
<path fill="none" stroke="midnightblue" d="M1512.73,-291.475C1518.67,-282.638 1528.12,-268.589 1535.59,-257.475"/>
<polygon fill="midnightblue" stroke="midnightblue" points="1538.61,-259.261 1541.28,-249.009 1532.8,-255.355 1538.61,-259.261"/>
</g>
<!-- Node32 -->
<g id="node33" class="node"><title>Node32</title>
<polygon fill="white" stroke="#bfbfbf" points="1584,-230 1584,-249 1636,-249 1636,-230 1584,-230"/>
<text text-anchor="middle" x="1610" y="-237" font-family="Helvetica,sans-Serif" font-size="10.00">iterator</text>
</g>
<!-- Node28&#45;&gt;Node32 -->
<g id="edge59" class="edge"><title>Node28&#45;&gt;Node32</title>
<path fill="none" stroke="midnightblue" d="M1521.76,-291.475C1538.66,-281.711 1566.58,-265.581 1586.49,-254.081"/>
<polygon fill="midnightblue" stroke="midnightblue" points="1588.36,-257.042 1595.27,-249.009 1584.86,-250.981 1588.36,-257.042"/>
</g>
<!-- Node29&#45;&gt;Node12 -->
<g id="edge55" class="edge"><title>Node29&#45;&gt;Node12</title>
<path fill="none" stroke="midnightblue" d="M1474.36,-229.698C1482.71,-220.249 1495,-204.376 1500,-188 1506.18,-167.749 1497.56,-117.791 1492,-112 1420.34,-37.3855 1085.92,-16.9485 977.806,-12.2432"/>
<polygon fill="midnightblue" stroke="midnightblue" points="977.914,-8.74475 967.776,-11.824 977.622,-15.7386 977.914,-8.74475"/>
</g>
<!-- Node29&#45;&gt;Node15 -->
<g id="edge52" class="edge"><title>Node29&#45;&gt;Node15</title>
<path fill="none" stroke="midnightblue" d="M1470.13,-229.7C1480.18,-206.856 1502.88,-145.137 1472,-112 1433.35,-70.5192 1019.41,-81.7222 963,-76 950.936,-74.7761 937.71,-73.1019 926.156,-71.5293"/>
<polygon fill="midnightblue" stroke="midnightblue" points="926.483,-68.0412 916.096,-70.1294 925.518,-74.9744 926.483,-68.0412"/>
</g>
<!-- Node29&#45;&gt;Node18 -->
<g id="edge51" class="edge"><title>Node29&#45;&gt;Node18</title>
<path fill="none" stroke="midnightblue" d="M1438.32,-229.945C1408.53,-220.518 1359.92,-204.493 1319,-188 1299.45,-180.121 1296.32,-173.603 1276,-168 1128.91,-127.438 1082.93,-155.491 928.494,-132.041"/>
<polygon fill="midnightblue" stroke="midnightblue" points="928.585,-128.513 918.163,-130.421 927.5,-135.428 928.585,-128.513"/>
</g>
<!-- Node29&#45;&gt;Node22 -->
<g id="edge54" class="edge"><title>Node29&#45;&gt;Node22</title>
<path fill="none" stroke="midnightblue" d="M1422.39,-236.676C1247.34,-229.322 595.275,-201.588 389,-188 366.558,-186.522 341.482,-184.413 321.356,-182.609"/>
<polygon fill="midnightblue" stroke="midnightblue" points="321.598,-179.117 311.322,-181.698 320.965,-186.088 321.598,-179.117"/>
</g>
<!-- Node29&#45;&gt;Node26 -->
<g id="edge50" class="edge"><title>Node29&#45;&gt;Node26</title>
<path fill="none" stroke="midnightblue" d="M1422.49,-234.221C1310.15,-223.173 1011.53,-193.805 902.013,-183.034"/>
<polygon fill="midnightblue" stroke="midnightblue" points="902.312,-179.546 892.017,-182.05 901.626,-186.512 902.312,-179.546"/>
</g>
<!-- Node29&#45;&gt;Node27 -->
<g id="edge49" class="edge"><title>Node29&#45;&gt;Node27</title>
<path fill="none" stroke="midnightblue" d="M1495.66,-229.975C1531.93,-219.548 1593.46,-201.862 1633.66,-190.307"/>
<polygon fill="midnightblue" stroke="midnightblue" points="1634.75,-193.635 1643.4,-187.509 1632.82,-186.908 1634.75,-193.635"/>
</g>
<!-- Node30 -->
<g id="node31" class="node"><title>Node30</title>
<polygon fill="white" stroke="#bfbfbf" points="1562.5,-168.5 1562.5,-187.5 1615.5,-187.5 1615.5,-168.5 1562.5,-168.5"/>
<text text-anchor="middle" x="1589" y="-175.5" font-family="Helvetica,sans-Serif" font-size="10.00">istream</text>
</g>
<!-- Node29&#45;&gt;Node30 -->
<g id="edge53" class="edge"><title>Node29&#45;&gt;Node30</title>
<path fill="none" stroke="midnightblue" d="M1483.62,-229.975C1504.17,-220.034 1538.36,-203.495 1562.21,-191.961"/>
<polygon fill="midnightblue" stroke="midnightblue" points="1563.93,-195.015 1571.41,-187.509 1560.88,-188.713 1563.93,-195.015"/>
</g>
<!-- Node33&#45;&gt;Node16 -->
<g id="edge68" class="edge"><title>Node33&#45;&gt;Node16</title>
<path fill="none" stroke="midnightblue" d="M1048.83,-229.904C1020.97,-213.116 959.787,-176.835 937,-168 871.464,-142.59 850.536,-151.482 783,-132 756.801,-124.442 751.387,-118.871 725,-112 648.365,-92.0454 556.28,-78.0065 507.751,-71.3586"/>
<polygon fill="midnightblue" stroke="midnightblue" points="508.174,-67.884 497.795,-70.0152 507.238,-74.8212 508.174,-67.884"/>
</g>
<!-- Node33&#45;&gt;Node20 -->
<g id="edge72" class="edge"><title>Node33&#45;&gt;Node20</title>
<path fill="none" stroke="midnightblue" d="M1042.27,-229.954C1018.45,-220.077 978.248,-203.226 944,-188 924.74,-179.437 921.068,-174.444 901,-168 834.897,-146.772 755.107,-134.249 706.485,-128.005"/>
<polygon fill="midnightblue" stroke="midnightblue" points="706.661,-124.5 696.303,-126.732 705.792,-131.446 706.661,-124.5"/>
</g>
<!-- Node33&#45;&gt;Node24 -->
<g id="edge66" class="edge"><title>Node33&#45;&gt;Node24</title>
<path fill="none" stroke="midnightblue" d="M1027.26,-231.354C981.926,-222.221 901.083,-205.707 821.779,-188.125"/>
<polygon fill="midnightblue" stroke="midnightblue" points="822.136,-184.619 811.615,-185.864 820.616,-191.452 822.136,-184.619"/>
</g>
<!-- Node33&#45;&gt;Node26 -->
<g id="edge69" class="edge"><title>Node33&#45;&gt;Node26</title>
<path fill="none" stroke="midnightblue" d="M1034.06,-229.975C998.733,-219.57 938.869,-201.937 899.635,-190.38"/>
<polygon fill="midnightblue" stroke="midnightblue" points="900.469,-186.977 889.888,-187.509 898.492,-193.692 900.469,-186.977"/>
</g>
<!-- Node34 -->
<g id="node35" class="node"><title>Node34</title>
<polygon fill="white" stroke="#bfbfbf" points="1060.5,-168.5 1060.5,-187.5 1163.5,-187.5 1163.5,-168.5 1060.5,-168.5"/>
<text text-anchor="middle" x="1112" y="-175.5" font-family="Helvetica,sans-Serif" font-size="10.00">cereal/access.hpp</text>
</g>
<!-- Node33&#45;&gt;Node34 -->
<g id="edge62" class="edge"><title>Node33&#45;&gt;Node34</title>
<path fill="none" stroke="midnightblue" d="M1070.02,-229.975C1077.44,-220.962 1089.33,-206.525 1098.57,-195.312"/>
<polygon fill="midnightblue" stroke="midnightblue" points="1101.34,-197.453 1104.99,-187.509 1095.93,-193.003 1101.34,-197.453"/>
</g>
<!-- Node35 -->
<g id="node36" class="node"><title>Node35</title>
<g id="a_node36"><a xlink:href="variadic_8h.html" target="_top" xlink:title="std_ext/variadic.h">
<polygon fill="white" stroke="black" points="1328.5,-168.5 1328.5,-187.5 1429.5,-187.5 1429.5,-168.5 1328.5,-168.5"/>
<text text-anchor="middle" x="1379" y="-175.5" font-family="Helvetica,sans-Serif" font-size="10.00">std_ext/variadic.h</text>
</a>
</g>
</g>
<!-- Node33&#45;&gt;Node35 -->
<g id="edge63" class="edge"><title>Node33&#45;&gt;Node35</title>
<path fill="none" stroke="midnightblue" d="M1098.63,-231.79C1153.49,-221.462 1259.03,-201.589 1323.81,-189.391"/>
<polygon fill="midnightblue" stroke="midnightblue" points="1324.67,-192.792 1333.85,-187.502 1323.37,-185.913 1324.67,-192.792"/>
</g>
<!-- Node33&#45;&gt;Node38 -->
<g id="edge67" class="edge"><title>Node33&#45;&gt;Node38</title>
<path fill="none" stroke="midnightblue" d="M1098.76,-235.867C1236.19,-225.746 1728.55,-189.49 1845.8,-180.855"/>
<polygon fill="midnightblue" stroke="midnightblue" points="1846.24,-184.333 1855.96,-180.108 1845.73,-177.352 1846.24,-184.333"/>
</g>
<!-- Node39 -->
<g id="node40" class="node"><title>Node39</title>
<polygon fill="white" stroke="#bfbfbf" points="1182,-168.5 1182,-187.5 1234,-187.5 1234,-168.5 1182,-168.5"/>
<text text-anchor="middle" x="1208" y="-175.5" font-family="Helvetica,sans-Serif" font-size="10.00">cassert</text>
</g>
<!-- Node33&#45;&gt;Node39 -->
<g id="edge70" class="edge"><title>Node33&#45;&gt;Node39</title>
<path fill="none" stroke="midnightblue" d="M1083.77,-229.975C1108.43,-219.857 1149.75,-202.905 1177.9,-191.351"/>
<polygon fill="midnightblue" stroke="midnightblue" points="1179.34,-194.543 1187.26,-187.509 1176.68,-188.067 1179.34,-194.543"/>
</g>
<!-- Node40 -->
<g id="node41" class="node"><title>Node40</title>
<polygon fill="white" stroke="#bfbfbf" points="986,-168.5 986,-187.5 1042,-187.5 1042,-168.5 986,-168.5"/>
<text text-anchor="middle" x="1014" y="-175.5" font-family="Helvetica,sans-Serif" font-size="10.00">numeric</text>
</g>
<!-- Node33&#45;&gt;Node40 -->
<g id="edge71" class="edge"><title>Node33&#45;&gt;Node40</title>
<path fill="none" stroke="midnightblue" d="M1055.98,-229.975C1048.56,-220.962 1036.67,-206.525 1027.43,-195.312"/>
<polygon fill="midnightblue" stroke="midnightblue" points="1030.07,-193.003 1021.01,-187.509 1024.66,-197.453 1030.07,-193.003"/>
</g>
<!-- Node36 -->
<g id="node37" class="node"><title>Node36</title>
<polygon fill="white" stroke="#bfbfbf" points="1303,-112.5 1303,-131.5 1355,-131.5 1355,-112.5 1303,-112.5"/>
<text text-anchor="middle" x="1329" y="-119.5" font-family="Helvetica,sans-Serif" font-size="10.00">cstddef</text>
</g>
<!-- Node35&#45;&gt;Node36 -->
<g id="edge64" class="edge"><title>Node35&#45;&gt;Node36</title>
<path fill="none" stroke="midnightblue" d="M1370.74,-168.083C1363.54,-160.298 1352.89,-148.801 1344.15,-139.367"/>
<polygon fill="midnightblue" stroke="midnightblue" points="1346.47,-136.711 1337.1,-131.751 1341.33,-141.467 1346.47,-136.711"/>
</g>
<!-- Node37 -->
<g id="node38" class="node"><title>Node37</title>
<polygon fill="white" stroke="#bfbfbf" points="1373.5,-112.5 1373.5,-131.5 1414.5,-131.5 1414.5,-112.5 1373.5,-112.5"/>
<text text-anchor="middle" x="1394" y="-119.5" font-family="Helvetica,sans-Serif" font-size="10.00">tuple</text>
</g>
<!-- Node35&#45;&gt;Node37 -->
<g id="edge65" class="edge"><title>Node35&#45;&gt;Node37</title>
<path fill="none" stroke="midnightblue" d="M1381.48,-168.083C1383.49,-160.849 1386.39,-150.409 1388.89,-141.397"/>
<polygon fill="midnightblue" stroke="midnightblue" points="1392.26,-142.323 1391.57,-131.751 1385.52,-140.449 1392.26,-142.323"/>
</g>
<!-- Node41&#45;&gt;Node10 -->
<g id="edge74" class="edge"><title>Node41&#45;&gt;Node10</title>
<path fill="none" stroke="midnightblue" d="M1791.27,-291.245C1785.9,-266.726 1767.04,-197.265 1721,-168 1692.4,-149.822 1208.68,-131.009 1040.26,-124.982"/>
<polygon fill="midnightblue" stroke="midnightblue" points="1040.22,-121.478 1030.1,-124.62 1039.97,-128.474 1040.22,-121.478"/>
</g>
<!-- Node43&#45;&gt;Node24 -->
<g id="edge81" class="edge"><title>Node43&#45;&gt;Node24</title>
<path fill="none" stroke="midnightblue" d="M1806.24,-233.993C1761.06,-230.935 1699.37,-226.932 1645,-224 1282.27,-204.442 1185.82,-237.853 821.553,-187.757"/>
<polygon fill="midnightblue" stroke="midnightblue" points="821.91,-184.273 811.524,-186.366 820.949,-191.207 821.91,-184.273"/>
</g>
<!-- Node43&#45;&gt;Node38 -->
<g id="edge82" class="edge"><title>Node43&#45;&gt;Node38</title>
<path fill="none" stroke="midnightblue" d="M1871,-229.975C1871,-221.58 1871,-208.481 1871,-197.663"/>
<polygon fill="midnightblue" stroke="midnightblue" points="1874.5,-197.509 1871,-187.509 1867.5,-197.509 1874.5,-197.509"/>
</g>
</g>
</svg>
