<?xml version="1.0" encoding="UTF-8" standalone="no"?>
<!DOCTYPE svg PUBLIC "-//W3C//DTD SVG 1.1//EN"
 "http://www.w3.org/Graphics/SVG/1.1/DTD/svg11.dtd">
<!-- Generated by graphviz version 2.38.0 (20140413.2041)
 -->
<!-- Title: src/calibration/gui/Manager.h Pages: 1 -->
<svg width="1062pt" height="319pt"
 viewBox="0.00 0.00 1062.00 319.00" xmlns="http://www.w3.org/2000/svg" xmlns:xlink="http://www.w3.org/1999/xlink">
<g id="graph0" class="graph" transform="scale(1 1) rotate(0) translate(4 315)">
<title>src/calibration/gui/Manager.h</title>
<polygon fill="white" stroke="none" points="-4,4 -4,-315 1058,-315 1058,4 -4,4"/>
<!-- Node0 -->
<g id="node1" class="node"><title>Node0</title>
<polygon fill="#bfbfbf" stroke="black" points="920,-280.5 920,-310.5 1021,-310.5 1021,-280.5 920,-280.5"/>
<text text-anchor="start" x="928" y="-298.5" font-family="Helvetica,sans-Serif" font-size="10.00">src/calibration/gui</text>
<text text-anchor="middle" x="970.5" y="-287.5" font-family="Helvetica,sans-Serif" font-size="10.00">/Manager.h</text>
</g>
<!-- Node1 -->
<g id="node2" class="node"><title>Node1</title>
<g id="a_node2"><a xlink:href="_avg_buffer__traits_8h.html" target="_top" xlink:title="AvgBuffer_traits.h">
<polygon fill="white" stroke="black" points="689,-224.5 689,-243.5 790,-243.5 790,-224.5 689,-224.5"/>
<text text-anchor="middle" x="739.5" y="-231.5" font-family="Helvetica,sans-Serif" font-size="10.00">AvgBuffer_traits.h</text>
</a>
</g>
</g>
<!-- Node0&#45;&gt;Node1 -->
<g id="edge1" class="edge"><title>Node0&#45;&gt;Node1</title>
<path fill="none" stroke="midnightblue" d="M919.806,-281.442C878.721,-270.86 821.459,-256.111 782.569,-246.093"/>
<polygon fill="midnightblue" stroke="midnightblue" points="783.164,-242.633 772.607,-243.528 781.418,-249.411 783.164,-242.633"/>
</g>
<!-- Node14 -->
<g id="node15" class="node"><title>Node14</title>
<polygon fill="white" stroke="#bfbfbf" points="902.5,-0.5 902.5,-19.5 946.5,-19.5 946.5,-0.5 902.5,-0.5"/>
<text text-anchor="middle" x="924.5" y="-7.5" font-family="Helvetica,sans-Serif" font-size="10.00">string</text>
</g>
<!-- Node0&#45;&gt;Node14 -->
<g id="edge31" class="edge"><title>Node0&#45;&gt;Node14</title>
<path fill="none" stroke="midnightblue" d="M979.619,-280.189C992.241,-258.969 1013.5,-217.514 1013.5,-179 1013.5,-179 1013.5,-179 1013.5,-121 1013.5,-78.8457 973.51,-43.7791 947.142,-25.2392"/>
<polygon fill="midnightblue" stroke="midnightblue" points="949.044,-22.3003 938.799,-19.5989 945.123,-28.0994 949.044,-22.3003"/>
</g>
<!-- Node15 -->
<g id="node16" class="node"><title>Node15</title>
<polygon fill="white" stroke="#bfbfbf" points="1007,-0.5 1007,-19.5 1054,-19.5 1054,-0.5 1007,-0.5"/>
<text text-anchor="middle" x="1030.5" y="-7.5" font-family="Helvetica,sans-Serif" font-size="10.00">vector</text>
</g>
<!-- Node0&#45;&gt;Node15 -->
<g id="edge30" class="edge"><title>Node0&#45;&gt;Node15</title>
<path fill="none" stroke="midnightblue" d="M989.287,-280.34C1013.21,-260.533 1051.5,-222.105 1051.5,-179 1051.5,-179 1051.5,-179 1051.5,-121 1051.5,-88.3843 1042.48,-51.2785 1036.27,-29.5732"/>
<polygon fill="midnightblue" stroke="midnightblue" points="1039.54,-28.3156 1033.33,-19.7319 1032.83,-30.3151 1039.54,-28.3156"/>
</g>
<!-- Node21 -->
<g id="node22" class="node"><title>Node21</title>
<polygon fill="white" stroke="#bfbfbf" points="955.5,-112.5 955.5,-131.5 985.5,-131.5 985.5,-112.5 955.5,-112.5"/>
<text text-anchor="middle" x="970.5" y="-119.5" font-family="Helvetica,sans-Serif" font-size="10.00">list</text>
</g>
<!-- Node0&#45;&gt;Node21 -->
<g id="edge29" class="edge"><title>Node0&#45;&gt;Node21</title>
<path fill="none" stroke="midnightblue" d="M970.5,-280.465C970.5,-249.704 970.5,-176.329 970.5,-141.7"/>
<polygon fill="midnightblue" stroke="midnightblue" points="974,-141.56 970.5,-131.56 967,-141.56 974,-141.56"/>
</g>
<!-- Node23 -->
<g id="node24" class="node"><title>Node23</title>
<polygon fill="white" stroke="#bfbfbf" points="798,-168.5 798,-187.5 855,-187.5 855,-168.5 798,-168.5"/>
<text text-anchor="middle" x="826.5" y="-175.5" font-family="Helvetica,sans-Serif" font-size="10.00">memory</text>
</g>
<!-- Node0&#45;&gt;Node23 -->
<g id="edge28" class="edge"><title>Node0&#45;&gt;Node23</title>
<path fill="none" stroke="midnightblue" d="M952.843,-280.337C925.482,-258.392 873.091,-216.37 845.143,-193.953"/>
<polygon fill="midnightblue" stroke="midnightblue" points="847.299,-191.196 837.309,-187.669 842.92,-196.657 847.299,-191.196"/>
</g>
<!-- Node2 -->
<g id="node3" class="node"><title>Node2</title>
<g id="a_node3"><a xlink:href="interval_8h.html" target="_top" xlink:title="base/interval.h">
<polygon fill="white" stroke="black" points="185,-168.5 185,-187.5 272,-187.5 272,-168.5 185,-168.5"/>
<text text-anchor="middle" x="228.5" y="-175.5" font-family="Helvetica,sans-Serif" font-size="10.00">base/interval.h</text>
</a>
</g>
</g>
<!-- Node1&#45;&gt;Node2 -->
<g id="edge2" class="edge"><title>Node1&#45;&gt;Node2</title>
<path fill="none" stroke="midnightblue" d="M688.635,-227.625C591.718,-217.383 381.435,-195.161 282.287,-184.684"/>
<polygon fill="midnightblue" stroke="midnightblue" points="282.501,-181.187 272.188,-183.617 281.765,-188.148 282.501,-181.187"/>
</g>
<!-- Node10 -->
<g id="node11" class="node"><title>Node10</title>
<g id="a_node11"><a xlink:href="_t_i_d_8h.html" target="_top" xlink:title="tree/TID.h">
<polygon fill="white" stroke="black" points="637,-168.5 637,-187.5 700,-187.5 700,-168.5 637,-168.5"/>
<text text-anchor="middle" x="668.5" y="-175.5" font-family="Helvetica,sans-Serif" font-size="10.00">tree/TID.h</text>
</a>
</g>
</g>
<!-- Node1&#45;&gt;Node10 -->
<g id="edge10" class="edge"><title>Node1&#45;&gt;Node10</title>
<path fill="none" stroke="midnightblue" d="M728.093,-224.324C717.391,-216.185 701.159,-203.839 688.337,-194.087"/>
<polygon fill="midnightblue" stroke="midnightblue" points="690.193,-191.102 680.115,-187.834 685.956,-196.673 690.193,-191.102"/>
</g>
<!-- Node1&#45;&gt;Node23 -->
<g id="edge27" class="edge"><title>Node1&#45;&gt;Node23</title>
<path fill="none" stroke="midnightblue" d="M753.478,-224.324C767.05,-215.9 787.88,-202.971 803.825,-193.074"/>
<polygon fill="midnightblue" stroke="midnightblue" points="805.906,-195.902 812.557,-187.655 802.214,-189.954 805.906,-195.902"/>
</g>
<!-- Node3 -->
<g id="node4" class="node"><title>Node3</title>
<g id="a_node4"><a xlink:href="types_8h.html" target="_top" xlink:title="types.h">
<polygon fill="white" stroke="black" points="175.5,-112.5 175.5,-131.5 227.5,-131.5 227.5,-112.5 175.5,-112.5"/>
<text text-anchor="middle" x="201.5" y="-119.5" font-family="Helvetica,sans-Serif" font-size="10.00">types.h</text>
</a>
</g>
</g>
<!-- Node2&#45;&gt;Node3 -->
<g id="edge3" class="edge"><title>Node2&#45;&gt;Node3</title>
<path fill="none" stroke="midnightblue" d="M224.041,-168.083C220.346,-160.691 214.977,-149.953 210.406,-140.811"/>
<polygon fill="midnightblue" stroke="midnightblue" points="213.478,-139.13 205.876,-131.751 207.217,-142.261 213.478,-139.13"/>
</g>
<!-- Node4 -->
<g id="node5" class="node"><title>Node4</title>
<polygon fill="white" stroke="#bfbfbf" points="654.5,-0.5 654.5,-19.5 716.5,-19.5 716.5,-0.5 654.5,-0.5"/>
<text text-anchor="middle" x="685.5" y="-7.5" font-family="Helvetica,sans-Serif" font-size="10.00">algorithm</text>
</g>
<!-- Node2&#45;&gt;Node4 -->
<g id="edge4" class="edge"><title>Node2&#45;&gt;Node4</title>
<path fill="none" stroke="midnightblue" d="M232.17,-168.325C238.594,-154.229 253.248,-126.476 274.5,-112 391.516,-32.2975 565.225,-15.3568 643.99,-11.8523"/>
<polygon fill="midnightblue" stroke="midnightblue" points="644.603,-15.3311 654.458,-11.4419 644.328,-8.33644 644.603,-15.3311"/>
</g>
<!-- Node5 -->
<g id="node6" class="node"><title>Node5</title>
<polygon fill="white" stroke="#bfbfbf" points="343.5,-112.5 343.5,-131.5 407.5,-131.5 407.5,-112.5 343.5,-112.5"/>
<text text-anchor="middle" x="375.5" y="-119.5" font-family="Helvetica,sans-Serif" font-size="10.00">stdexcept</text>
</g>
<!-- Node2&#45;&gt;Node5 -->
<g id="edge5" class="edge"><title>Node2&#45;&gt;Node5</title>
<path fill="none" stroke="midnightblue" d="M251.793,-168.444C276.307,-159.438 315.096,-145.189 342.7,-135.049"/>
<polygon fill="midnightblue" stroke="midnightblue" points="344.137,-138.25 352.316,-131.516 341.723,-131.679 344.137,-138.25"/>
</g>
<!-- Node6 -->
<g id="node7" class="node"><title>Node6</title>
<polygon fill="white" stroke="#bfbfbf" points="283.5,-112.5 283.5,-131.5 325.5,-131.5 325.5,-112.5 283.5,-112.5"/>
<text text-anchor="middle" x="304.5" y="-119.5" font-family="Helvetica,sans-Serif" font-size="10.00">limits</text>
</g>
<!-- Node2&#45;&gt;Node6 -->
<g id="edge6" class="edge"><title>Node2&#45;&gt;Node6</title>
<path fill="none" stroke="midnightblue" d="M240.711,-168.324C252.276,-160.107 269.875,-147.602 283.661,-137.807"/>
<polygon fill="midnightblue" stroke="midnightblue" points="285.943,-140.479 292.067,-131.834 281.888,-134.773 285.943,-140.479"/>
</g>
<!-- Node7 -->
<g id="node8" class="node"><title>Node7</title>
<polygon fill="white" stroke="#bfbfbf" points="0,-112.5 0,-131.5 53,-131.5 53,-112.5 0,-112.5"/>
<text text-anchor="middle" x="26.5" y="-119.5" font-family="Helvetica,sans-Serif" font-size="10.00">istream</text>
</g>
<!-- Node2&#45;&gt;Node7 -->
<g id="edge7" class="edge"><title>Node2&#45;&gt;Node7</title>
<path fill="none" stroke="midnightblue" d="M196.492,-168.444C160.137,-158.725 100.937,-142.899 62.8658,-132.722"/>
<polygon fill="midnightblue" stroke="midnightblue" points="63.7617,-129.338 53.197,-130.137 61.9538,-136.101 63.7617,-129.338"/>
</g>
<!-- Node8 -->
<g id="node9" class="node"><title>Node8</title>
<polygon fill="white" stroke="#bfbfbf" points="243.5,-0.5 243.5,-19.5 299.5,-19.5 299.5,-0.5 243.5,-0.5"/>
<text text-anchor="middle" x="271.5" y="-7.5" font-family="Helvetica,sans-Serif" font-size="10.00">sstream</text>
</g>
<!-- Node2&#45;&gt;Node8 -->
<g id="edge8" class="edge"><title>Node2&#45;&gt;Node8</title>
<path fill="none" stroke="midnightblue" d="M184.962,-171.936C140.262,-164.695 79.9297,-148.04 100.5,-112 128.921,-62.2049 192.571,-34.4846 233.69,-21.1715"/>
<polygon fill="midnightblue" stroke="midnightblue" points="234.856,-24.4744 243.37,-18.1679 232.782,-17.7889 234.856,-24.4744"/>
</g>
<!-- Node9 -->
<g id="node10" class="node"><title>Node9</title>
<polygon fill="white" stroke="#bfbfbf" points="110,-112.5 110,-131.5 157,-131.5 157,-112.5 110,-112.5"/>
<text text-anchor="middle" x="133.5" y="-119.5" font-family="Helvetica,sans-Serif" font-size="10.00">cmath</text>
</g>
<!-- Node2&#45;&gt;Node9 -->
<g id="edge9" class="edge"><title>Node2&#45;&gt;Node9</title>
<path fill="none" stroke="midnightblue" d="M213.237,-168.324C198.279,-159.822 175.245,-146.729 157.773,-136.797"/>
<polygon fill="midnightblue" stroke="midnightblue" points="159.149,-133.553 148.726,-131.655 155.69,-139.639 159.149,-133.553"/>
</g>
<!-- Node10&#45;&gt;Node5 -->
<g id="edge23" class="edge"><title>Node10&#45;&gt;Node5</title>
<path fill="none" stroke="midnightblue" d="M636.893,-171.377C589.892,-162.985 498.809,-146.604 421.5,-132 420.241,-131.762 418.962,-131.519 417.672,-131.273"/>
<polygon fill="midnightblue" stroke="midnightblue" points="418.142,-127.8 407.66,-129.348 416.819,-134.674 418.142,-127.8"/>
</g>
<!-- Node11 -->
<g id="node12" class="node"><title>Node11</title>
<polygon fill="white" stroke="#bfbfbf" points="749.5,-112.5 749.5,-131.5 807.5,-131.5 807.5,-112.5 749.5,-112.5"/>
<text text-anchor="middle" x="778.5" y="-119.5" font-family="Helvetica,sans-Serif" font-size="10.00">Rtypes.h</text>
</g>
<!-- Node10&#45;&gt;Node11 -->
<g id="edge11" class="edge"><title>Node10&#45;&gt;Node11</title>
<path fill="none" stroke="midnightblue" d="M686.173,-168.324C703.894,-159.625 731.403,-146.12 751.788,-136.113"/>
<polygon fill="midnightblue" stroke="midnightblue" points="753.436,-139.203 760.87,-131.655 750.351,-132.919 753.436,-139.203"/>
</g>
<!-- Node12 -->
<g id="node13" class="node"><title>Node12</title>
<g id="a_node13"><a xlink:href="base_2std__ext_2_time_8h.html" target="_top" xlink:title="base/std_ext/time.h">
<polygon fill="white" stroke="black" points="825.5,-112.5 825.5,-131.5 937.5,-131.5 937.5,-112.5 825.5,-112.5"/>
<text text-anchor="middle" x="881.5" y="-119.5" font-family="Helvetica,sans-Serif" font-size="10.00">base/std_ext/time.h</text>
</a>
</g>
</g>
<!-- Node10&#45;&gt;Node12 -->
<g id="edge12" class="edge"><title>Node10&#45;&gt;Node12</title>
<path fill="none" stroke="midnightblue" d="M700.388,-168.916C736.871,-159.666 796.829,-144.466 837.682,-134.109"/>
<polygon fill="midnightblue" stroke="midnightblue" points="838.798,-137.437 847.631,-131.587 837.077,-130.651 838.798,-137.437"/>
</g>
<!-- Node17 -->
<g id="node18" class="node"><title>Node17</title>
<polygon fill="white" stroke="#bfbfbf" points="564.5,-56.5 564.5,-75.5 608.5,-75.5 608.5,-56.5 564.5,-56.5"/>
<text text-anchor="middle" x="586.5" y="-63.5" font-family="Helvetica,sans-Serif" font-size="10.00">ctime</text>
</g>
<!-- Node10&#45;&gt;Node17 -->
<g id="edge26" class="edge"><title>Node10&#45;&gt;Node17</title>
<path fill="none" stroke="midnightblue" d="M636.844,-175.091C582.977,-171.109 477.109,-159.857 454.5,-132 424.806,-95.4128 506.441,-77.8036 554.383,-70.8192"/>
<polygon fill="midnightblue" stroke="midnightblue" points="554.906,-74.2804 564.335,-69.4501 553.951,-67.3458 554.906,-74.2804"/>
</g>
<!-- Node18 -->
<g id="node19" class="node"><title>Node18</title>
<polygon fill="white" stroke="#bfbfbf" points="463.5,-112.5 463.5,-131.5 531.5,-131.5 531.5,-112.5 463.5,-112.5"/>
<text text-anchor="middle" x="497.5" y="-119.5" font-family="Helvetica,sans-Serif" font-size="10.00">type_traits</text>
</g>
<!-- Node10&#45;&gt;Node18 -->
<g id="edge20" class="edge"><title>Node10&#45;&gt;Node18</title>
<path fill="none" stroke="midnightblue" d="M641.405,-168.444C612.512,-159.32 566.575,-144.813 534.395,-134.651"/>
<polygon fill="midnightblue" stroke="midnightblue" points="535.059,-131.19 524.469,-131.516 532.951,-137.865 535.059,-131.19"/>
</g>
<!-- Node19 -->
<g id="node20" class="node"><title>Node19</title>
<polygon fill="white" stroke="#bfbfbf" points="550,-112.5 550,-131.5 591,-131.5 591,-112.5 550,-112.5"/>
<text text-anchor="middle" x="570.5" y="-119.5" font-family="Helvetica,sans-Serif" font-size="10.00">tuple</text>
</g>
<!-- Node10&#45;&gt;Node19 -->
<g id="edge21" class="edge"><title>Node10&#45;&gt;Node19</title>
<path fill="none" stroke="midnightblue" d="M652.755,-168.324C637.181,-159.743 613.123,-146.486 595.041,-136.522"/>
<polygon fill="midnightblue" stroke="midnightblue" points="596.654,-133.415 586.206,-131.655 593.276,-139.546 596.654,-133.415"/>
</g>
<!-- Node20 -->
<g id="node21" class="node"><title>Node20</title>
<polygon fill="white" stroke="#bfbfbf" points="609,-112.5 609,-131.5 658,-131.5 658,-112.5 609,-112.5"/>
<text text-anchor="middle" x="633.5" y="-119.5" font-family="Helvetica,sans-Serif" font-size="10.00">cstdint</text>
</g>
<!-- Node10&#45;&gt;Node20 -->
<g id="edge22" class="edge"><title>Node10&#45;&gt;Node20</title>
<path fill="none" stroke="midnightblue" d="M662.72,-168.083C657.828,-160.534 650.673,-149.495 644.667,-140.23"/>
<polygon fill="midnightblue" stroke="midnightblue" points="647.548,-138.239 639.172,-131.751 641.674,-142.046 647.548,-138.239"/>
</g>
<!-- Node10&#45;&gt;Node21 -->
<g id="edge24" class="edge"><title>Node10&#45;&gt;Node21</title>
<path fill="none" stroke="midnightblue" d="M700.195,-173.939C750.475,-168.639 851.622,-156.174 945.478,-131.807"/>
<polygon fill="midnightblue" stroke="midnightblue" points="946.642,-135.12 955.412,-129.175 944.849,-128.353 946.642,-135.12"/>
</g>
<!-- Node22 -->
<g id="node23" class="node"><title>Node22</title>
<polygon fill="white" stroke="#bfbfbf" points="676,-112.5 676,-131.5 731,-131.5 731,-112.5 676,-112.5"/>
<text text-anchor="middle" x="703.5" y="-119.5" font-family="Helvetica,sans-Serif" font-size="10.00">iomanip</text>
</g>
<!-- Node10&#45;&gt;Node22 -->
<g id="edge25" class="edge"><title>Node10&#45;&gt;Node22</title>
<path fill="none" stroke="midnightblue" d="M674.28,-168.083C679.172,-160.534 686.327,-149.495 692.333,-140.23"/>
<polygon fill="midnightblue" stroke="midnightblue" points="695.326,-142.046 697.828,-131.751 689.452,-138.239 695.326,-142.046"/>
</g>
<!-- Node13 -->
<g id="node14" class="node"><title>Node13</title>
<g id="a_node14"><a xlink:href="string_8h.html" target="_top" xlink:title="base/std_ext/string.h">
<polygon fill="white" stroke="black" points="845,-56.5 845,-75.5 962,-75.5 962,-56.5 845,-56.5"/>
<text text-anchor="middle" x="903.5" y="-63.5" font-family="Helvetica,sans-Serif" font-size="10.00">base/std_ext/string.h</text>
</a>
</g>
</g>
<!-- Node12&#45;&gt;Node13 -->
<g id="edge13" class="edge"><title>Node12&#45;&gt;Node13</title>
<path fill="none" stroke="midnightblue" d="M885.133,-112.083C888.112,-104.77 892.426,-94.1814 896.125,-85.1034"/>
<polygon fill="midnightblue" stroke="midnightblue" points="899.403,-86.3326 899.935,-75.7511 892.92,-83.6914 899.403,-86.3326"/>
</g>
<!-- Node16 -->
<g id="node17" class="node"><title>Node16</title>
<polygon fill="white" stroke="#bfbfbf" points="778,-56.5 778,-75.5 827,-75.5 827,-56.5 778,-56.5"/>
<text text-anchor="middle" x="802.5" y="-63.5" font-family="Helvetica,sans-Serif" font-size="10.00">cstring</text>
</g>
<!-- Node12&#45;&gt;Node16 -->
<g id="edge18" class="edge"><title>Node12&#45;&gt;Node16</title>
<path fill="none" stroke="midnightblue" d="M868.807,-112.324C856.599,-103.979 837.922,-91.2122 823.497,-81.3524"/>
<polygon fill="midnightblue" stroke="midnightblue" points="825.392,-78.4082 815.161,-75.6545 821.442,-84.1871 825.392,-78.4082"/>
</g>
<!-- Node12&#45;&gt;Node17 -->
<g id="edge19" class="edge"><title>Node12&#45;&gt;Node17</title>
<path fill="none" stroke="midnightblue" d="M834.756,-112.444C774.415,-101.398 670.98,-82.4641 618.726,-72.8989"/>
<polygon fill="midnightblue" stroke="midnightblue" points="619.152,-69.4189 608.685,-71.061 617.892,-76.3045 619.152,-69.4189"/>
</g>
<!-- Node13&#45;&gt;Node4 -->
<g id="edge16" class="edge"><title>Node13&#45;&gt;Node4</title>
<path fill="none" stroke="midnightblue" d="M868.957,-56.4435C830.248,-46.8551 767.542,-31.3223 726.411,-21.1339"/>
<polygon fill="midnightblue" stroke="midnightblue" points="727.251,-17.7362 716.702,-18.729 725.567,-24.5308 727.251,-17.7362"/>
</g>
<!-- Node13&#45;&gt;Node8 -->
<g id="edge15" class="edge"><title>Node13&#45;&gt;Node8</title>
<path fill="none" stroke="midnightblue" d="M844.918,-57.05C841.734,-56.6793 838.579,-56.3264 835.5,-56 638.183,-35.0849 401.096,-19.1583 309.857,-13.3701"/>
<polygon fill="midnightblue" stroke="midnightblue" points="309.917,-9.86705 299.717,-12.7306 309.477,-16.8532 309.917,-9.86705"/>
</g>
<!-- Node13&#45;&gt;Node14 -->
<g id="edge14" class="edge"><title>Node13&#45;&gt;Node14</title>
<path fill="none" stroke="midnightblue" d="M906.968,-56.083C909.812,-48.77 913.929,-38.1814 917.46,-29.1034"/>
<polygon fill="midnightblue" stroke="midnightblue" points="920.734,-30.3397 921.097,-19.7511 914.21,-27.8025 920.734,-30.3397"/>
</g>
<!-- Node13&#45;&gt;Node15 -->
<g id="edge17" class="edge"><title>Node13&#45;&gt;Node15</title>
<path fill="none" stroke="midnightblue" d="M923.624,-56.4435C944.524,-47.5566 977.435,-33.5632 1001.22,-23.4514"/>
<polygon fill="midnightblue" stroke="midnightblue" points="1002.64,-26.6504 1010.47,-19.5164 999.898,-20.2085 1002.64,-26.6504"/>
</g>
</g>
</svg>
