<?xml version="1.0" encoding="UTF-8" standalone="no"?>
<!DOCTYPE svg PUBLIC "-//W3C//DTD SVG 1.1//EN"
 "http://www.w3.org/Graphics/SVG/1.1/DTD/svg11.dtd">
<!-- Generated by graphviz version 2.38.0 (20140413.2041)
 -->
<!-- Title: src/calibration/gui/Manager_traits.h Pages: 1 -->
<svg width="1761pt" height="263pt"
 viewBox="0.00 0.00 1760.86 263.00" xmlns="http://www.w3.org/2000/svg" xmlns:xlink="http://www.w3.org/1999/xlink">
<g id="graph0" class="graph" transform="scale(1 1) rotate(0) translate(4 259)">
<title>src/calibration/gui/Manager_traits.h</title>
<polygon fill="white" stroke="none" points="-4,4 -4,-259 1756.86,-259 1756.86,4 -4,4"/>
<!-- Node0 -->
<g id="node1" class="node"><title>Node0</title>
<polygon fill="#bfbfbf" stroke="black" points="1199.5,-224.5 1199.5,-254.5 1300.5,-254.5 1300.5,-224.5 1199.5,-224.5"/>
<text text-anchor="start" x="1207.5" y="-242.5" font-family="Helvetica,sans-Serif" font-size="10.00">src/calibration/gui</text>
<text text-anchor="middle" x="1250" y="-231.5" font-family="Helvetica,sans-Serif" font-size="10.00">/Manager_traits.h</text>
</g>
<!-- Node1 -->
<g id="node2" class="node"><title>Node1</title>
<g id="a_node2"><a xlink:href="interval_8h.html" target="_top" xlink:title="base/interval.h">
<polygon fill="white" stroke="black" points="187.5,-168.5 187.5,-187.5 274.5,-187.5 274.5,-168.5 187.5,-168.5"/>
<text text-anchor="middle" x="231" y="-175.5" font-family="Helvetica,sans-Serif" font-size="10.00">base/interval.h</text>
</a>
</g>
</g>
<!-- Node0&#45;&gt;Node1 -->
<g id="edge1" class="edge"><title>Node0&#45;&gt;Node1</title>
<path fill="none" stroke="midnightblue" d="M1199.47,-235.549C1026.91,-225.474 461.873,-192.481 284.661,-182.133"/>
<polygon fill="midnightblue" stroke="midnightblue" points="284.726,-178.631 274.539,-181.542 284.318,-185.619 284.726,-178.631"/>
</g>
<!-- Node9 -->
<g id="node10" class="node"><title>Node9</title>
<g id="a_node10"><a xlink:href="_wrap_t_file_8h.html" target="_top" xlink:title="base/WrapTFile.h">
<polygon fill="white" stroke="black" points="1202.5,-168.5 1202.5,-187.5 1297.5,-187.5 1297.5,-168.5 1202.5,-168.5"/>
<text text-anchor="middle" x="1250" y="-175.5" font-family="Helvetica,sans-Serif" font-size="10.00">base/WrapTFile.h</text>
</a>
</g>
</g>
<!-- Node0&#45;&gt;Node9 -->
<g id="edge9" class="edge"><title>Node0&#45;&gt;Node9</title>
<path fill="none" stroke="midnightblue" d="M1250,-224.399C1250,-216.466 1250,-206.458 1250,-197.858"/>
<polygon fill="midnightblue" stroke="midnightblue" points="1253.5,-197.658 1250,-187.658 1246.5,-197.658 1253.5,-197.658"/>
</g>
<!-- Node11 -->
<g id="node12" class="node"><title>Node11</title>
<polygon fill="white" stroke="#bfbfbf" points="1343,-0.5 1343,-19.5 1387,-19.5 1387,-0.5 1343,-0.5"/>
<text text-anchor="middle" x="1365" y="-7.5" font-family="Helvetica,sans-Serif" font-size="10.00">string</text>
</g>
<!-- Node0&#45;&gt;Node11 -->
<g id="edge48" class="edge"><title>Node0&#45;&gt;Node11</title>
<path fill="none" stroke="midnightblue" d="M1300.55,-239.473C1372.7,-239.117 1508.08,-231.903 1613,-188 1685.23,-157.774 1716.92,-147.431 1749,-76 1752.64,-67.8912 1754.91,-62.6411 1749,-56 1725.74,-29.8533 1485.53,-16.4429 1397.29,-12.37"/>
<polygon fill="midnightblue" stroke="midnightblue" points="1397.21,-8.86314 1387.07,-11.9088 1396.9,-15.856 1397.21,-8.86314"/>
</g>
<!-- Node14 -->
<g id="node15" class="node"><title>Node14</title>
<polygon fill="white" stroke="#bfbfbf" points="1676.5,-56.5 1676.5,-75.5 1739.5,-75.5 1739.5,-56.5 1676.5,-56.5"/>
<text text-anchor="middle" x="1708" y="-63.5" font-family="Helvetica,sans-Serif" font-size="10.00">functional</text>
</g>
<!-- Node0&#45;&gt;Node14 -->
<g id="edge51" class="edge"><title>Node0&#45;&gt;Node14</title>
<path fill="none" stroke="midnightblue" d="M1300.57,-237.289C1366.48,-234.253 1484.35,-223.782 1578,-188 1620.61,-171.72 1631.46,-163.963 1664,-132 1678.24,-118.015 1690.59,-98.7578 1698.55,-84.838"/>
<polygon fill="midnightblue" stroke="midnightblue" points="1701.77,-86.2441 1703.53,-75.7971 1695.64,-82.8639 1701.77,-86.2441"/>
</g>
<!-- Node17 -->
<g id="node18" class="node"><title>Node17</title>
<polygon fill="white" stroke="#bfbfbf" points="1601.5,-56.5 1601.5,-75.5 1658.5,-75.5 1658.5,-56.5 1601.5,-56.5"/>
<text text-anchor="middle" x="1630" y="-63.5" font-family="Helvetica,sans-Serif" font-size="10.00">memory</text>
</g>
<!-- Node0&#45;&gt;Node17 -->
<g id="edge50" class="edge"><title>Node0&#45;&gt;Node17</title>
<path fill="none" stroke="midnightblue" d="M1300.54,-232.568C1397.91,-219.988 1605.64,-187.179 1648,-132 1658.54,-118.265 1650.9,-98.7092 1642.56,-84.6405"/>
<polygon fill="midnightblue" stroke="midnightblue" points="1645.28,-82.3952 1636.9,-75.9161 1639.41,-86.2087 1645.28,-82.3952"/>
</g>
<!-- Node24 -->
<g id="node25" class="node"><title>Node24</title>
<polygon fill="white" stroke="#bfbfbf" points="882,-112.5 882,-131.5 912,-131.5 912,-112.5 882,-112.5"/>
<text text-anchor="middle" x="897" y="-119.5" font-family="Helvetica,sans-Serif" font-size="10.00">list</text>
</g>
<!-- Node0&#45;&gt;Node24 -->
<g id="edge49" class="edge"><title>Node0&#45;&gt;Node24</title>
<path fill="none" stroke="midnightblue" d="M1207.07,-224.453C1132.53,-200.066 981.474,-150.639 921.931,-131.157"/>
<polygon fill="midnightblue" stroke="midnightblue" points="922.825,-127.767 912.233,-127.984 920.648,-134.42 922.825,-127.767"/>
</g>
<!-- Node26 -->
<g id="node27" class="node"><title>Node26</title>
<g id="a_node27"><a xlink:href="_t_i_d_8h.html" target="_top" xlink:title="tree/TID.h">
<polygon fill="white" stroke="black" points="624.5,-168.5 624.5,-187.5 687.5,-187.5 687.5,-168.5 624.5,-168.5"/>
<text text-anchor="middle" x="656" y="-175.5" font-family="Helvetica,sans-Serif" font-size="10.00">tree/TID.h</text>
</a>
</g>
</g>
<!-- Node0&#45;&gt;Node26 -->
<g id="edge35" class="edge"><title>Node0&#45;&gt;Node26</title>
<path fill="none" stroke="midnightblue" d="M1199.36,-233.427C1084.1,-221.882 803.979,-193.823 697.768,-183.184"/>
<polygon fill="midnightblue" stroke="midnightblue" points="698.048,-179.694 687.749,-182.18 697.35,-186.66 698.048,-179.694"/>
</g>
<!-- Node2 -->
<g id="node3" class="node"><title>Node2</title>
<g id="a_node3"><a xlink:href="types_8h.html" target="_top" xlink:title="types.h">
<polygon fill="white" stroke="black" points="0,-112.5 0,-131.5 52,-131.5 52,-112.5 0,-112.5"/>
<text text-anchor="middle" x="26" y="-119.5" font-family="Helvetica,sans-Serif" font-size="10.00">types.h</text>
</a>
</g>
</g>
<!-- Node1&#45;&gt;Node2 -->
<g id="edge2" class="edge"><title>Node1&#45;&gt;Node2</title>
<path fill="none" stroke="midnightblue" d="M198.517,-168.444C161.311,-158.643 100.528,-142.632 61.9337,-132.465"/>
<polygon fill="midnightblue" stroke="midnightblue" points="62.713,-129.051 52.1513,-129.889 60.9298,-135.82 62.713,-129.051"/>
</g>
<!-- Node3 -->
<g id="node4" class="node"><title>Node3</title>
<polygon fill="white" stroke="#bfbfbf" points="651,-0.5 651,-19.5 713,-19.5 713,-0.5 651,-0.5"/>
<text text-anchor="middle" x="682" y="-7.5" font-family="Helvetica,sans-Serif" font-size="10.00">algorithm</text>
</g>
<!-- Node1&#45;&gt;Node3 -->
<g id="edge3" class="edge"><title>Node1&#45;&gt;Node3</title>
<path fill="none" stroke="midnightblue" d="M233.029,-168.436C238.909,-145.693 258.264,-83.6377 300,-56 327.978,-37.4729 547.521,-20.2975 640.558,-13.773"/>
<polygon fill="midnightblue" stroke="midnightblue" points="641,-17.2509 650.733,-13.0666 640.515,-10.2677 641,-17.2509"/>
</g>
<!-- Node4 -->
<g id="node5" class="node"><title>Node4</title>
<polygon fill="white" stroke="#bfbfbf" points="800,-112.5 800,-131.5 864,-131.5 864,-112.5 800,-112.5"/>
<text text-anchor="middle" x="832" y="-119.5" font-family="Helvetica,sans-Serif" font-size="10.00">stdexcept</text>
</g>
<!-- Node1&#45;&gt;Node4 -->
<g id="edge4" class="edge"><title>Node1&#45;&gt;Node4</title>
<path fill="none" stroke="midnightblue" d="M274.708,-175.427C369.176,-171.602 599.265,-159.99 790,-132 790.101,-131.985 790.203,-131.97 790.305,-131.955"/>
<polygon fill="midnightblue" stroke="midnightblue" points="790.701,-135.438 799.975,-130.314 789.53,-128.537 790.701,-135.438"/>
</g>
<!-- Node5 -->
<g id="node6" class="node"><title>Node5</title>
<polygon fill="white" stroke="#bfbfbf" points="70,-112.5 70,-131.5 112,-131.5 112,-112.5 70,-112.5"/>
<text text-anchor="middle" x="91" y="-119.5" font-family="Helvetica,sans-Serif" font-size="10.00">limits</text>
</g>
<!-- Node1&#45;&gt;Node5 -->
<g id="edge5" class="edge"><title>Node1&#45;&gt;Node5</title>
<path fill="none" stroke="midnightblue" d="M208.817,-168.444C185.298,-159.372 147.985,-144.98 121.662,-134.827"/>
<polygon fill="midnightblue" stroke="midnightblue" points="122.753,-131.496 112.163,-131.163 120.234,-138.027 122.753,-131.496"/>
</g>
<!-- Node6 -->
<g id="node7" class="node"><title>Node6</title>
<polygon fill="white" stroke="#bfbfbf" points="130.5,-112.5 130.5,-131.5 183.5,-131.5 183.5,-112.5 130.5,-112.5"/>
<text text-anchor="middle" x="157" y="-119.5" font-family="Helvetica,sans-Serif" font-size="10.00">istream</text>
</g>
<!-- Node1&#45;&gt;Node6 -->
<g id="edge6" class="edge"><title>Node1&#45;&gt;Node6</title>
<path fill="none" stroke="midnightblue" d="M219.111,-168.324C207.85,-160.107 190.713,-147.602 177.291,-137.807"/>
<polygon fill="midnightblue" stroke="midnightblue" points="179.247,-134.901 169.106,-131.834 175.12,-140.556 179.247,-134.901"/>
</g>
<!-- Node7 -->
<g id="node8" class="node"><title>Node7</title>
<polygon fill="white" stroke="#bfbfbf" points="399,-0.5 399,-19.5 455,-19.5 455,-0.5 399,-0.5"/>
<text text-anchor="middle" x="427" y="-7.5" font-family="Helvetica,sans-Serif" font-size="10.00">sstream</text>
</g>
<!-- Node1&#45;&gt;Node7 -->
<g id="edge7" class="edge"><title>Node1&#45;&gt;Node7</title>
<path fill="none" stroke="midnightblue" d="M228.248,-168.463C221.858,-146.832 208.553,-89.2317 236,-56 255.14,-32.8262 338.634,-20.2195 388.677,-14.6222"/>
<polygon fill="midnightblue" stroke="midnightblue" points="389.244,-18.0815 398.812,-13.5329 388.496,-11.1216 389.244,-18.0815"/>
</g>
<!-- Node8 -->
<g id="node9" class="node"><title>Node8</title>
<polygon fill="white" stroke="#bfbfbf" points="1023.5,-56.5 1023.5,-75.5 1070.5,-75.5 1070.5,-56.5 1023.5,-56.5"/>
<text text-anchor="middle" x="1047" y="-63.5" font-family="Helvetica,sans-Serif" font-size="10.00">cmath</text>
</g>
<!-- Node1&#45;&gt;Node8 -->
<g id="edge8" class="edge"><title>Node1&#45;&gt;Node8</title>
<path fill="none" stroke="midnightblue" d="M273.254,-168.428C307.738,-160.784 357.386,-148.289 399,-132 416.772,-125.043 418.653,-117.257 437,-112 492.491,-96.0998 893.785,-74.7458 1013.42,-68.6733"/>
<polygon fill="midnightblue" stroke="midnightblue" points="1013.66,-72.166 1023.47,-68.1658 1013.3,-65.1749 1013.66,-72.166"/>
</g>
<!-- Node9&#45;&gt;Node4 -->
<g id="edge33" class="edge"><title>Node9&#45;&gt;Node4</title>
<path fill="none" stroke="midnightblue" d="M1202.47,-172.823C1132.67,-166.36 998.136,-152.659 874.214,-132.061"/>
<polygon fill="midnightblue" stroke="midnightblue" points="874.613,-128.579 864.171,-130.372 873.452,-135.482 874.613,-128.579"/>
</g>
<!-- Node10 -->
<g id="node11" class="node"><title>Node10</title>
<g id="a_node11"><a xlink:href="string_8h.html" target="_top" xlink:title="base/std_ext/string.h">
<polygon fill="white" stroke="black" points="660.5,-56.5 660.5,-75.5 777.5,-75.5 777.5,-56.5 660.5,-56.5"/>
<text text-anchor="middle" x="719" y="-63.5" font-family="Helvetica,sans-Serif" font-size="10.00">base/std_ext/string.h</text>
</a>
</g>
</g>
<!-- Node9&#45;&gt;Node10 -->
<g id="edge10" class="edge"><title>Node9&#45;&gt;Node10</title>
<path fill="none" stroke="midnightblue" d="M1202.47,-174.289C1144.12,-169.91 1042.75,-158.862 960,-132 941.472,-125.985 939.322,-118.616 921,-112 876.762,-96.0261 824.947,-84.6221 784.872,-77.2913"/>
<polygon fill="midnightblue" stroke="midnightblue" points="785.408,-73.8317 774.948,-75.5149 784.175,-80.7222 785.408,-73.8317"/>
</g>
<!-- Node9&#45;&gt;Node11 -->
<g id="edge30" class="edge"><title>Node9&#45;&gt;Node11</title>
<path fill="none" stroke="midnightblue" d="M1297.65,-171.098C1322.12,-165.383 1349.89,-154.135 1365,-132 1386.04,-101.167 1377.87,-54.8361 1370.91,-29.3798"/>
<polygon fill="midnightblue" stroke="midnightblue" points="1374.19,-28.1569 1367.99,-19.5679 1367.48,-30.1506 1374.19,-28.1569"/>
</g>
<!-- Node13 -->
<g id="node14" class="node"><title>Node13</title>
<g id="a_node14"><a xlink:href="misc_8h.html" target="_top" xlink:title="base/std_ext/misc.h">
<polygon fill="white" stroke="black" points="1242.5,-112.5 1242.5,-131.5 1355.5,-131.5 1355.5,-112.5 1242.5,-112.5"/>
<text text-anchor="middle" x="1299" y="-119.5" font-family="Helvetica,sans-Serif" font-size="10.00">base/std_ext/misc.h</text>
</a>
</g>
</g>
<!-- Node9&#45;&gt;Node13 -->
<g id="edge15" class="edge"><title>Node9&#45;&gt;Node13</title>
<path fill="none" stroke="midnightblue" d="M1258.09,-168.083C1265.16,-160.298 1275.59,-148.801 1284.15,-139.367"/>
<polygon fill="midnightblue" stroke="midnightblue" points="1286.93,-141.509 1291.06,-131.751 1281.75,-136.805 1286.93,-141.509"/>
</g>
<!-- Node9&#45;&gt;Node14 -->
<g id="edge34" class="edge"><title>Node9&#45;&gt;Node14</title>
<path fill="none" stroke="midnightblue" d="M1297.78,-175.737C1389.78,-172.636 1587.75,-162.526 1648,-132 1669.33,-121.193 1686.91,-99.4906 1697.41,-84.1416"/>
<polygon fill="midnightblue" stroke="midnightblue" points="1700.47,-85.8486 1703,-75.5599 1694.61,-82.0261 1700.47,-85.8486"/>
</g>
<!-- Node9&#45;&gt;Node17 -->
<g id="edge29" class="edge"><title>Node9&#45;&gt;Node17</title>
<path fill="none" stroke="midnightblue" d="M1297.54,-174.857C1394.79,-169.983 1609.18,-156.549 1631,-132 1641.99,-119.631 1640.07,-100.108 1636.41,-85.6833"/>
<polygon fill="midnightblue" stroke="midnightblue" points="1639.69,-84.4247 1633.47,-75.8494 1632.98,-86.4332 1639.69,-84.4247"/>
</g>
<!-- Node18 -->
<g id="node19" class="node"><title>Node18</title>
<polygon fill="white" stroke="#bfbfbf" points="1178,-112.5 1178,-131.5 1224,-131.5 1224,-112.5 1178,-112.5"/>
<text text-anchor="middle" x="1201" y="-119.5" font-family="Helvetica,sans-Serif" font-size="10.00">TFile.h</text>
</g>
<!-- Node9&#45;&gt;Node18 -->
<g id="edge23" class="edge"><title>Node9&#45;&gt;Node18</title>
<path fill="none" stroke="midnightblue" d="M1241.91,-168.083C1234.84,-160.298 1224.41,-148.801 1215.85,-139.367"/>
<polygon fill="midnightblue" stroke="midnightblue" points="1218.25,-136.805 1208.94,-131.751 1213.07,-141.509 1218.25,-136.805"/>
</g>
<!-- Node19 -->
<g id="node20" class="node"><title>Node19</title>
<polygon fill="white" stroke="#bfbfbf" points="1412.5,-112.5 1412.5,-131.5 1485.5,-131.5 1485.5,-112.5 1412.5,-112.5"/>
<text text-anchor="middle" x="1449" y="-119.5" font-family="Helvetica,sans-Serif" font-size="10.00">TDirectory.h</text>
</g>
<!-- Node9&#45;&gt;Node19 -->
<g id="edge24" class="edge"><title>Node9&#45;&gt;Node19</title>
<path fill="none" stroke="midnightblue" d="M1281.53,-168.444C1315.59,-159.201 1370.01,-144.436 1407.52,-134.257"/>
<polygon fill="midnightblue" stroke="midnightblue" points="1408.88,-137.513 1417.62,-131.516 1407.05,-130.758 1408.88,-137.513"/>
</g>
<!-- Node20 -->
<g id="node21" class="node"><title>Node20</title>
<polygon fill="white" stroke="#bfbfbf" points="1503.5,-112.5 1503.5,-131.5 1556.5,-131.5 1556.5,-112.5 1503.5,-112.5"/>
<text text-anchor="middle" x="1530" y="-119.5" font-family="Helvetica,sans-Serif" font-size="10.00">TError.h</text>
</g>
<!-- Node9&#45;&gt;Node20 -->
<g id="edge25" class="edge"><title>Node9&#45;&gt;Node20</title>
<path fill="none" stroke="midnightblue" d="M1297.62,-169.269C1345.01,-161.35 1420,-148.205 1493.42,-132.24"/>
<polygon fill="midnightblue" stroke="midnightblue" points="1494.28,-135.635 1503.29,-130.073 1492.78,-128.798 1494.28,-135.635"/>
</g>
<!-- Node21 -->
<g id="node22" class="node"><title>Node21</title>
<polygon fill="white" stroke="#bfbfbf" points="1574.5,-112.5 1574.5,-131.5 1621.5,-131.5 1621.5,-112.5 1574.5,-112.5"/>
<text text-anchor="middle" x="1598" y="-119.5" font-family="Helvetica,sans-Serif" font-size="10.00">TList.h</text>
</g>
<!-- Node9&#45;&gt;Node21 -->
<g id="edge26" class="edge"><title>Node9&#45;&gt;Node21</title>
<path fill="none" stroke="midnightblue" d="M1297.72,-172.201C1357.89,-165.71 1464.63,-152.736 1564.38,-132.122"/>
<polygon fill="midnightblue" stroke="midnightblue" points="1565.25,-135.516 1574.32,-130.038 1563.82,-128.665 1565.25,-135.516"/>
</g>
<!-- Node22 -->
<g id="node23" class="node"><title>Node22</title>
<polygon fill="white" stroke="#bfbfbf" points="968.5,-112.5 968.5,-131.5 1045.5,-131.5 1045.5,-112.5 968.5,-112.5"/>
<text text-anchor="middle" x="1007" y="-119.5" font-family="Helvetica,sans-Serif" font-size="10.00">TCollection.h</text>
</g>
<!-- Node9&#45;&gt;Node22 -->
<g id="edge27" class="edge"><title>Node9&#45;&gt;Node22</title>
<path fill="none" stroke="midnightblue" d="M1211.5,-168.444C1169.19,-159.043 1101.18,-143.929 1055.33,-133.739"/>
<polygon fill="midnightblue" stroke="midnightblue" points="1055.85,-130.269 1045.32,-131.516 1054.33,-137.102 1055.85,-130.269"/>
</g>
<!-- Node23 -->
<g id="node24" class="node"><title>Node23</title>
<polygon fill="white" stroke="#bfbfbf" points="1064,-112.5 1064,-131.5 1110,-131.5 1110,-112.5 1064,-112.5"/>
<text text-anchor="middle" x="1087" y="-119.5" font-family="Helvetica,sans-Serif" font-size="10.00">TKey.h</text>
</g>
<!-- Node9&#45;&gt;Node23 -->
<g id="edge28" class="edge"><title>Node9&#45;&gt;Node23</title>
<path fill="none" stroke="midnightblue" d="M1224.17,-168.444C1195.94,-159.092 1150.65,-144.086 1119.9,-133.898"/>
<polygon fill="midnightblue" stroke="midnightblue" points="1120.66,-130.466 1110.07,-130.643 1118.46,-137.111 1120.66,-130.466"/>
</g>
<!-- Node9&#45;&gt;Node24 -->
<g id="edge31" class="edge"><title>Node9&#45;&gt;Node24</title>
<path fill="none" stroke="midnightblue" d="M1202.35,-172.834C1138.79,-166.72 1023,-153.636 926,-132 924.727,-131.716 923.428,-131.403 922.122,-131.069"/>
<polygon fill="midnightblue" stroke="midnightblue" points="922.803,-127.623 912.226,-128.236 920.877,-134.353 922.803,-127.623"/>
</g>
<!-- Node25 -->
<g id="node26" class="node"><title>Node25</title>
<polygon fill="white" stroke="#bfbfbf" points="1128,-112.5 1128,-131.5 1160,-131.5 1160,-112.5 1128,-112.5"/>
<text text-anchor="middle" x="1144" y="-119.5" font-family="Helvetica,sans-Serif" font-size="10.00">set</text>
</g>
<!-- Node9&#45;&gt;Node25 -->
<g id="edge32" class="edge"><title>Node9&#45;&gt;Node25</title>
<path fill="none" stroke="midnightblue" d="M1232.97,-168.324C1215.77,-159.562 1189,-145.924 1169.31,-135.896"/>
<polygon fill="midnightblue" stroke="midnightblue" points="1170.79,-132.72 1160.29,-131.3 1167.61,-138.958 1170.79,-132.72"/>
</g>
<!-- Node10&#45;&gt;Node3 -->
<g id="edge13" class="edge"><title>Node10&#45;&gt;Node3</title>
<path fill="none" stroke="midnightblue" d="M712.89,-56.083C707.718,-48.5341 700.154,-37.4948 693.806,-28.2298"/>
<polygon fill="midnightblue" stroke="midnightblue" points="696.536,-26.0221 687.996,-19.7511 690.761,-29.9787 696.536,-26.0221"/>
</g>
<!-- Node10&#45;&gt;Node7 -->
<g id="edge12" class="edge"><title>Node10&#45;&gt;Node7</title>
<path fill="none" stroke="midnightblue" d="M672.732,-56.4435C615.442,-45.8489 518.909,-27.9968 465.479,-18.116"/>
<polygon fill="midnightblue" stroke="midnightblue" points="465.862,-14.6276 455.392,-16.2506 464.589,-21.5109 465.862,-14.6276"/>
</g>
<!-- Node10&#45;&gt;Node11 -->
<g id="edge11" class="edge"><title>Node10&#45;&gt;Node11</title>
<path fill="none" stroke="midnightblue" d="M777.754,-60.0887C910.529,-48.9898 1230.14,-22.2734 1332.72,-13.6982"/>
<polygon fill="midnightblue" stroke="midnightblue" points="1333.11,-17.1783 1342.78,-12.8574 1332.52,-10.2027 1333.11,-17.1783"/>
</g>
<!-- Node12 -->
<g id="node13" class="node"><title>Node12</title>
<polygon fill="white" stroke="#bfbfbf" points="731.5,-0.5 731.5,-19.5 778.5,-19.5 778.5,-0.5 731.5,-0.5"/>
<text text-anchor="middle" x="755" y="-7.5" font-family="Helvetica,sans-Serif" font-size="10.00">vector</text>
</g>
<!-- Node10&#45;&gt;Node12 -->
<g id="edge14" class="edge"><title>Node10&#45;&gt;Node12</title>
<path fill="none" stroke="midnightblue" d="M724.945,-56.083C729.977,-48.5341 737.337,-37.4948 743.513,-28.2298"/>
<polygon fill="midnightblue" stroke="midnightblue" points="746.531,-30.0131 749.166,-19.7511 740.707,-26.1301 746.531,-30.0131"/>
</g>
<!-- Node13&#45;&gt;Node3 -->
<g id="edge16" class="edge"><title>Node13&#45;&gt;Node3</title>
<path fill="none" stroke="midnightblue" d="M1288.82,-112.323C1270.98,-97.6933 1232.32,-68.4957 1194,-56 997.104,8.20538 932.095,-49.3166 723.409,-19.9723"/>
<polygon fill="midnightblue" stroke="midnightblue" points="723.762,-16.4869 713.362,-18.5085 722.753,-23.4137 723.762,-16.4869"/>
</g>
<!-- Node13&#45;&gt;Node8 -->
<g id="edge18" class="edge"><title>Node13&#45;&gt;Node8</title>
<path fill="none" stroke="midnightblue" d="M1259.07,-112.444C1209.78,-101.882 1126.84,-84.1079 1080.64,-74.2085"/>
<polygon fill="midnightblue" stroke="midnightblue" points="1081.33,-70.7772 1070.82,-72.1041 1079.86,-77.6218 1081.33,-70.7772"/>
</g>
<!-- Node13&#45;&gt;Node11 -->
<g id="edge22" class="edge"><title>Node13&#45;&gt;Node11</title>
<path fill="none" stroke="midnightblue" d="M1304.44,-112.417C1310.13,-103.394 1319.3,-88.7636 1327,-76 1336.58,-60.1238 1347.21,-41.8858 1354.78,-28.7772"/>
<polygon fill="midnightblue" stroke="midnightblue" points="1357.95,-30.2887 1359.91,-19.877 1351.89,-26.793 1357.95,-30.2887"/>
</g>
<!-- Node13&#45;&gt;Node14 -->
<g id="edge17" class="edge"><title>Node13&#45;&gt;Node14</title>
<path fill="none" stroke="midnightblue" d="M1355.52,-115.879C1426.09,-109.092 1550.68,-95.8152 1666.11,-76.1926"/>
<polygon fill="midnightblue" stroke="midnightblue" points="1666.92,-79.6054 1676.18,-74.4607 1665.73,-72.7067 1666.92,-79.6054"/>
</g>
<!-- Node15 -->
<g id="node16" class="node"><title>Node15</title>
<polygon fill="white" stroke="#bfbfbf" points="1262,-56.5 1262,-75.5 1318,-75.5 1318,-56.5 1262,-56.5"/>
<text text-anchor="middle" x="1290" y="-63.5" font-family="Helvetica,sans-Serif" font-size="10.00">cxxabi.h</text>
</g>
<!-- Node13&#45;&gt;Node15 -->
<g id="edge19" class="edge"><title>Node13&#45;&gt;Node15</title>
<path fill="none" stroke="midnightblue" d="M1297.51,-112.083C1296.32,-104.927 1294.61,-94.6353 1293.12,-85.6911"/>
<polygon fill="midnightblue" stroke="midnightblue" points="1296.55,-85.0396 1291.46,-75.7511 1289.65,-86.1904 1296.55,-85.0396"/>
</g>
<!-- Node16 -->
<g id="node17" class="node"><title>Node16</title>
<polygon fill="white" stroke="#bfbfbf" points="1117,-56.5 1117,-75.5 1185,-75.5 1185,-56.5 1117,-56.5"/>
<text text-anchor="middle" x="1151" y="-63.5" font-family="Helvetica,sans-Serif" font-size="10.00">type_traits</text>
</g>
<!-- Node13&#45;&gt;Node16 -->
<g id="edge20" class="edge"><title>Node13&#45;&gt;Node16</title>
<path fill="none" stroke="midnightblue" d="M1275.55,-112.444C1250.87,-103.438 1211.81,-89.1891 1184.02,-79.049"/>
<polygon fill="midnightblue" stroke="midnightblue" points="1184.94,-75.6561 1174.34,-75.5164 1182.54,-82.2321 1184.94,-75.6561"/>
</g>
<!-- Node13&#45;&gt;Node17 -->
<g id="edge21" class="edge"><title>Node13&#45;&gt;Node17</title>
<path fill="none" stroke="midnightblue" d="M1351.45,-112.444C1418.17,-101.558 1531.85,-83.0118 1591.25,-73.3211"/>
<polygon fill="midnightblue" stroke="midnightblue" points="1592.04,-76.7395 1601.34,-71.6749 1590.91,-69.8308 1592.04,-76.7395"/>
</g>
<!-- Node26&#45;&gt;Node4 -->
<g id="edge44" class="edge"><title>Node26&#45;&gt;Node4</title>
<path fill="none" stroke="midnightblue" d="M683.888,-168.444C713.754,-159.28 761.315,-144.688 794.456,-134.519"/>
<polygon fill="midnightblue" stroke="midnightblue" points="795.709,-137.796 804.243,-131.516 793.656,-131.104 795.709,-137.796"/>
</g>
<!-- Node26&#45;&gt;Node16 -->
<g id="edge41" class="edge"><title>Node26&#45;&gt;Node16</title>
<path fill="none" stroke="midnightblue" d="M632.553,-168.429C603.538,-156.599 560.343,-134.201 581,-112 618.866,-71.3033 1024.68,-81.4973 1080,-76 1088.62,-75.1433 1097.81,-74.0858 1106.62,-73.0003"/>
<polygon fill="midnightblue" stroke="midnightblue" points="1107.25,-76.4486 1116.74,-71.7235 1106.38,-69.5037 1107.25,-76.4486"/>
</g>
<!-- Node26&#45;&gt;Node24 -->
<g id="edge45" class="edge"><title>Node26&#45;&gt;Node24</title>
<path fill="none" stroke="midnightblue" d="M687.636,-172.016C728.309,-165.268 801.207,-152.026 871.923,-131.95"/>
<polygon fill="midnightblue" stroke="midnightblue" points="873.248,-135.21 881.883,-129.072 871.305,-128.485 873.248,-135.21"/>
</g>
<!-- Node27 -->
<g id="node28" class="node"><title>Node27</title>
<polygon fill="white" stroke="#bfbfbf" points="664,-112.5 664,-131.5 722,-131.5 722,-112.5 664,-112.5"/>
<text text-anchor="middle" x="693" y="-119.5" font-family="Helvetica,sans-Serif" font-size="10.00">Rtypes.h</text>
</g>
<!-- Node26&#45;&gt;Node27 -->
<g id="edge36" class="edge"><title>Node26&#45;&gt;Node27</title>
<path fill="none" stroke="midnightblue" d="M662.11,-168.083C667.282,-160.534 674.846,-149.495 681.194,-140.23"/>
<polygon fill="midnightblue" stroke="midnightblue" points="684.239,-141.979 687.004,-131.751 678.464,-138.022 684.239,-141.979"/>
</g>
<!-- Node28 -->
<g id="node29" class="node"><title>Node28</title>
<g id="a_node29"><a xlink:href="base_2std__ext_2_time_8h.html" target="_top" xlink:title="base/std_ext/time.h">
<polygon fill="white" stroke="black" points="278,-112.5 278,-131.5 390,-131.5 390,-112.5 278,-112.5"/>
<text text-anchor="middle" x="334" y="-119.5" font-family="Helvetica,sans-Serif" font-size="10.00">base/std_ext/time.h</text>
</a>
</g>
</g>
<!-- Node26&#45;&gt;Node28 -->
<g id="edge37" class="edge"><title>Node26&#45;&gt;Node28</title>
<path fill="none" stroke="midnightblue" d="M624.244,-171.674C571.122,-162.766 463.36,-144.694 395.137,-133.253"/>
<polygon fill="midnightblue" stroke="midnightblue" points="395.396,-129.747 384.955,-131.545 394.239,-136.651 395.396,-129.747"/>
</g>
<!-- Node30 -->
<g id="node31" class="node"><title>Node30</title>
<polygon fill="white" stroke="#bfbfbf" points="439,-56.5 439,-75.5 483,-75.5 483,-56.5 439,-56.5"/>
<text text-anchor="middle" x="461" y="-63.5" font-family="Helvetica,sans-Serif" font-size="10.00">ctime</text>
</g>
<!-- Node26&#45;&gt;Node30 -->
<g id="edge47" class="edge"><title>Node26&#45;&gt;Node30</title>
<path fill="none" stroke="midnightblue" d="M630.73,-168.484C608.301,-160.461 574.998,-147.394 548,-132 522.476,-117.446 495.788,-96.5249 478.812,-82.3814"/>
<polygon fill="midnightblue" stroke="midnightblue" points="480.773,-79.4564 470.877,-75.6727 476.253,-84.8019 480.773,-79.4564"/>
</g>
<!-- Node31 -->
<g id="node32" class="node"><title>Node31</title>
<polygon fill="white" stroke="#bfbfbf" points="740.5,-112.5 740.5,-131.5 781.5,-131.5 781.5,-112.5 740.5,-112.5"/>
<text text-anchor="middle" x="761" y="-119.5" font-family="Helvetica,sans-Serif" font-size="10.00">tuple</text>
</g>
<!-- Node26&#45;&gt;Node31 -->
<g id="edge42" class="edge"><title>Node26&#45;&gt;Node31</title>
<path fill="none" stroke="midnightblue" d="M672.87,-168.324C689.709,-159.664 715.807,-146.242 735.238,-136.249"/>
<polygon fill="midnightblue" stroke="midnightblue" points="736.88,-139.341 744.172,-131.655 733.678,-133.116 736.88,-139.341"/>
</g>
<!-- Node32 -->
<g id="node33" class="node"><title>Node32</title>
<polygon fill="white" stroke="#bfbfbf" points="446.5,-112.5 446.5,-131.5 495.5,-131.5 495.5,-112.5 446.5,-112.5"/>
<text text-anchor="middle" x="471" y="-119.5" font-family="Helvetica,sans-Serif" font-size="10.00">cstdint</text>
</g>
<!-- Node26&#45;&gt;Node32 -->
<g id="edge43" class="edge"><title>Node26&#45;&gt;Node32</title>
<path fill="none" stroke="midnightblue" d="M626.686,-168.444C593.767,-158.835 540.395,-143.256 505.494,-133.069"/>
<polygon fill="midnightblue" stroke="midnightblue" points="506.316,-129.663 495.736,-130.22 504.355,-136.382 506.316,-129.663"/>
</g>
<!-- Node33 -->
<g id="node34" class="node"><title>Node33</title>
<polygon fill="white" stroke="#bfbfbf" points="590.5,-112.5 590.5,-131.5 645.5,-131.5 645.5,-112.5 590.5,-112.5"/>
<text text-anchor="middle" x="618" y="-119.5" font-family="Helvetica,sans-Serif" font-size="10.00">iomanip</text>
</g>
<!-- Node26&#45;&gt;Node33 -->
<g id="edge46" class="edge"><title>Node26&#45;&gt;Node33</title>
<path fill="none" stroke="midnightblue" d="M649.725,-168.083C644.358,-160.455 636.482,-149.264 629.921,-139.941"/>
<polygon fill="midnightblue" stroke="midnightblue" points="632.775,-137.915 624.158,-131.751 627.051,-141.943 632.775,-137.915"/>
</g>
<!-- Node28&#45;&gt;Node10 -->
<g id="edge38" class="edge"><title>Node28&#45;&gt;Node10</title>
<path fill="none" stroke="midnightblue" d="M390.395,-113.09C459.315,-103.423 575.891,-87.0725 650.067,-76.6685"/>
<polygon fill="midnightblue" stroke="midnightblue" points="650.826,-80.0964 660.243,-75.2412 649.854,-73.1642 650.826,-80.0964"/>
</g>
<!-- Node29 -->
<g id="node30" class="node"><title>Node29</title>
<polygon fill="white" stroke="#bfbfbf" points="309.5,-56.5 309.5,-75.5 358.5,-75.5 358.5,-56.5 309.5,-56.5"/>
<text text-anchor="middle" x="334" y="-63.5" font-family="Helvetica,sans-Serif" font-size="10.00">cstring</text>
</g>
<!-- Node28&#45;&gt;Node29 -->
<g id="edge39" class="edge"><title>Node28&#45;&gt;Node29</title>
<path fill="none" stroke="midnightblue" d="M334,-112.083C334,-105.006 334,-94.8611 334,-85.9865"/>
<polygon fill="midnightblue" stroke="midnightblue" points="337.5,-85.751 334,-75.7511 330.5,-85.7511 337.5,-85.751"/>
</g>
<!-- Node28&#45;&gt;Node30 -->
<g id="edge40" class="edge"><title>Node28&#45;&gt;Node30</title>
<path fill="none" stroke="midnightblue" d="M354.124,-112.444C375.024,-103.557 407.935,-89.5632 431.716,-79.4514"/>
<polygon fill="midnightblue" stroke="midnightblue" points="433.138,-82.6504 440.971,-75.5164 430.398,-76.2085 433.138,-82.6504"/>
</g>
</g>
</svg>
