<?xml version="1.0" encoding="UTF-8" standalone="no"?>
<!DOCTYPE svg PUBLIC "-//W3C//DTD SVG 1.1//EN"
 "http://www.w3.org/Graphics/SVG/1.1/DTD/svg11.dtd">
<!-- Generated by graphviz version 2.38.0 (20140413.2041)
 -->
<!-- Title: src/analysis/utils/Matcher.h Pages: 1 -->
<svg width="560pt" height="151pt"
 viewBox="0.00 0.00 559.50 151.00" xmlns="http://www.w3.org/2000/svg" xmlns:xlink="http://www.w3.org/1999/xlink">
<g id="graph0" class="graph" transform="scale(1 1) rotate(0) translate(4 147)">
<title>src/analysis/utils/Matcher.h</title>
<polygon fill="white" stroke="none" points="-4,4 -4,-147 555.5,-147 555.5,4 -4,4"/>
<!-- Node0 -->
<g id="node1" class="node"><title>Node0</title>
<polygon fill="#bfbfbf" stroke="black" points="294.5,-112.5 294.5,-142.5 389.5,-142.5 389.5,-112.5 294.5,-112.5"/>
<text text-anchor="start" x="302.5" y="-130.5" font-family="Helvetica,sans-Serif" font-size="10.00">src/analysis/utils</text>
<text text-anchor="middle" x="342" y="-119.5" font-family="Helvetica,sans-Serif" font-size="10.00">/Matcher.h</text>
</g>
<!-- Node1 -->
<g id="node2" class="node"><title>Node1</title>
<polygon fill="white" stroke="#bfbfbf" points="152,-56.5 152,-75.5 182,-75.5 182,-56.5 152,-56.5"/>
<text text-anchor="middle" x="167" y="-63.5" font-family="Helvetica,sans-Serif" font-size="10.00">list</text>
</g>
<!-- Node0&#45;&gt;Node1 -->
<g id="edge1" class="edge"><title>Node0&#45;&gt;Node1</title>
<path fill="none" stroke="midnightblue" d="M300.527,-112.399C266.68,-100.891 219.988,-85.0158 191.732,-75.409"/>
<polygon fill="midnightblue" stroke="midnightblue" points="192.809,-72.0783 182.214,-72.1729 190.555,-78.7057 192.809,-72.0783"/>
</g>
<!-- Node2 -->
<g id="node3" class="node"><title>Node2</title>
<polygon fill="white" stroke="#bfbfbf" points="504.5,-0.5 504.5,-19.5 551.5,-19.5 551.5,-0.5 504.5,-0.5"/>
<text text-anchor="middle" x="528" y="-7.5" font-family="Helvetica,sans-Serif" font-size="10.00">vector</text>
</g>
<!-- Node0&#45;&gt;Node2 -->
<g id="edge2" class="edge"><title>Node0&#45;&gt;Node2</title>
<path fill="none" stroke="midnightblue" d="M389.605,-118.072C419.681,-110.87 458.009,-98.0495 486,-76 501.627,-63.6903 513.227,-43.8765 520.231,-29.3566"/>
<polygon fill="midnightblue" stroke="midnightblue" points="523.575,-30.456 524.51,-19.9025 517.198,-27.5693 523.575,-30.456"/>
</g>
<!-- Node3 -->
<g id="node4" class="node"><title>Node3</title>
<polygon fill="white" stroke="#bfbfbf" points="0,-0.5 0,-19.5 62,-19.5 62,-0.5 0,-0.5"/>
<text text-anchor="middle" x="31" y="-7.5" font-family="Helvetica,sans-Serif" font-size="10.00">algorithm</text>
</g>
<!-- Node0&#45;&gt;Node3 -->
<g id="edge3" class="edge"><title>Node0&#45;&gt;Node3</title>
<path fill="none" stroke="midnightblue" d="M309.107,-112.465C286.423,-102.624 255.671,-88.9617 229,-76 211.835,-67.6578 208.729,-63.0671 191,-56 169.44,-47.4057 111.797,-31.8433 71.9323,-21.4638"/>
<polygon fill="midnightblue" stroke="midnightblue" points="72.7714,-18.0657 62.213,-18.944 71.0146,-24.8417 72.7714,-18.0657"/>
</g>
<!-- Node4 -->
<g id="node5" class="node"><title>Node4</title>
<g id="a_node5"><a xlink:href="interval_8h.html" target="_top" xlink:title="base/interval.h">
<polygon fill="white" stroke="black" points="238.5,-56.5 238.5,-75.5 325.5,-75.5 325.5,-56.5 238.5,-56.5"/>
<text text-anchor="middle" x="282" y="-63.5" font-family="Helvetica,sans-Serif" font-size="10.00">base/interval.h</text>
</a>
</g>
</g>
<!-- Node0&#45;&gt;Node4 -->
<g id="edge4" class="edge"><title>Node0&#45;&gt;Node4</title>
<path fill="none" stroke="midnightblue" d="M327.781,-112.399C318.792,-103.486 307.162,-91.9523 297.873,-82.7408"/>
<polygon fill="midnightblue" stroke="midnightblue" points="300.296,-80.214 290.731,-75.6578 295.367,-85.1844 300.296,-80.214"/>
</g>
<!-- Node7 -->
<g id="node8" class="node"><title>Node7</title>
<polygon fill="white" stroke="#bfbfbf" points="444,-0.5 444,-19.5 486,-19.5 486,-0.5 444,-0.5"/>
<text text-anchor="middle" x="465" y="-7.5" font-family="Helvetica,sans-Serif" font-size="10.00">limits</text>
</g>
<!-- Node0&#45;&gt;Node7 -->
<g id="edge16" class="edge"><title>Node0&#45;&gt;Node7</title>
<path fill="none" stroke="midnightblue" d="M389.51,-120.814C417.694,-114.725 451.281,-102.114 469,-76 478.207,-62.4313 475.698,-43.3747 471.793,-29.4032"/>
<polygon fill="midnightblue" stroke="midnightblue" points="475.12,-28.3176 468.706,-19.8854 468.462,-30.4775 475.12,-28.3176"/>
</g>
<!-- Node11 -->
<g id="node12" class="node"><title>Node11</title>
<g id="a_node12"><a xlink:href="base_2std__ext_2math_8h.html" target="_top" xlink:title="base/std_ext/math.h">
<polygon fill="white" stroke="black" points="344,-56.5 344,-75.5 460,-75.5 460,-56.5 344,-56.5"/>
<text text-anchor="middle" x="402" y="-63.5" font-family="Helvetica,sans-Serif" font-size="10.00">base/std_ext/math.h</text>
</a>
</g>
</g>
<!-- Node0&#45;&gt;Node11 -->
<g id="edge12" class="edge"><title>Node0&#45;&gt;Node11</title>
<path fill="none" stroke="midnightblue" d="M356.219,-112.399C365.208,-103.486 376.838,-91.9523 386.127,-82.7408"/>
<polygon fill="midnightblue" stroke="midnightblue" points="388.633,-85.1844 393.269,-75.6578 383.704,-80.214 388.633,-85.1844"/>
</g>
<!-- Node4&#45;&gt;Node3 -->
<g id="edge6" class="edge"><title>Node4&#45;&gt;Node3</title>
<path fill="none" stroke="midnightblue" d="M241.127,-56.4244C200.675,-47.9059 136.718,-34.3528 71.975,-20.1957"/>
<polygon fill="midnightblue" stroke="midnightblue" points="72.5186,-16.7318 62.0013,-18.0112 71.0209,-23.5697 72.5186,-16.7318"/>
</g>
<!-- Node5 -->
<g id="node6" class="node"><title>Node5</title>
<g id="a_node6"><a xlink:href="types_8h.html" target="_top" xlink:title="types.h">
<polygon fill="white" stroke="black" points="226,-0.5 226,-19.5 278,-19.5 278,-0.5 226,-0.5"/>
<text text-anchor="middle" x="252" y="-7.5" font-family="Helvetica,sans-Serif" font-size="10.00">types.h</text>
</a>
</g>
</g>
<!-- Node4&#45;&gt;Node5 -->
<g id="edge5" class="edge"><title>Node4&#45;&gt;Node5</title>
<path fill="none" stroke="midnightblue" d="M277.046,-56.083C272.896,-48.6127 266.847,-37.7244 261.733,-28.5199"/>
<polygon fill="midnightblue" stroke="midnightblue" points="264.778,-26.7929 256.862,-19.7511 258.659,-30.1924 264.778,-26.7929"/>
</g>
<!-- Node6 -->
<g id="node7" class="node"><title>Node6</title>
<polygon fill="white" stroke="#bfbfbf" points="296,-0.5 296,-19.5 360,-19.5 360,-0.5 296,-0.5"/>
<text text-anchor="middle" x="328" y="-7.5" font-family="Helvetica,sans-Serif" font-size="10.00">stdexcept</text>
</g>
<!-- Node4&#45;&gt;Node6 -->
<g id="edge7" class="edge"><title>Node4&#45;&gt;Node6</title>
<path fill="none" stroke="midnightblue" d="M289.596,-56.083C296.227,-48.2982 306.021,-36.8015 314.058,-27.3665"/>
<polygon fill="midnightblue" stroke="midnightblue" points="316.725,-29.6332 320.545,-19.7511 311.396,-25.0939 316.725,-29.6332"/>
</g>
<!-- Node4&#45;&gt;Node7 -->
<g id="edge8" class="edge"><title>Node4&#45;&gt;Node7</title>
<path fill="none" stroke="midnightblue" d="M311.345,-56.4202C340.229,-47.9639 385.846,-34.5791 434.032,-20.2772"/>
<polygon fill="midnightblue" stroke="midnightblue" points="435.109,-23.6083 443.699,-17.4058 433.116,-16.8981 435.109,-23.6083"/>
</g>
<!-- Node8 -->
<g id="node9" class="node"><title>Node8</title>
<polygon fill="white" stroke="#bfbfbf" points="80.5,-0.5 80.5,-19.5 133.5,-19.5 133.5,-0.5 80.5,-0.5"/>
<text text-anchor="middle" x="107" y="-7.5" font-family="Helvetica,sans-Serif" font-size="10.00">istream</text>
</g>
<!-- Node4&#45;&gt;Node8 -->
<g id="edge9" class="edge"><title>Node4&#45;&gt;Node8</title>
<path fill="none" stroke="midnightblue" d="M254.271,-56.4435C224.312,-47.1993 176.448,-32.4296 143.462,-22.2511"/>
<polygon fill="midnightblue" stroke="midnightblue" points="144.326,-18.855 133.739,-19.2508 142.262,-25.5438 144.326,-18.855"/>
</g>
<!-- Node9 -->
<g id="node10" class="node"><title>Node9</title>
<polygon fill="white" stroke="#bfbfbf" points="152,-0.5 152,-19.5 208,-19.5 208,-0.5 152,-0.5"/>
<text text-anchor="middle" x="180" y="-7.5" font-family="Helvetica,sans-Serif" font-size="10.00">sstream</text>
</g>
<!-- Node4&#45;&gt;Node9 -->
<g id="edge10" class="edge"><title>Node4&#45;&gt;Node9</title>
<path fill="none" stroke="midnightblue" d="M265.612,-56.324C249.329,-47.7034 224.133,-34.3643 205.284,-24.3855"/>
<polygon fill="midnightblue" stroke="midnightblue" points="206.823,-21.2402 196.347,-19.6545 203.548,-27.4267 206.823,-21.2402"/>
</g>
<!-- Node10 -->
<g id="node11" class="node"><title>Node10</title>
<polygon fill="white" stroke="#bfbfbf" points="378.5,-0.5 378.5,-19.5 425.5,-19.5 425.5,-0.5 378.5,-0.5"/>
<text text-anchor="middle" x="402" y="-7.5" font-family="Helvetica,sans-Serif" font-size="10.00">cmath</text>
</g>
<!-- Node4&#45;&gt;Node10 -->
<g id="edge11" class="edge"><title>Node4&#45;&gt;Node10</title>
<path fill="none" stroke="midnightblue" d="M301.014,-56.4435C320.588,-47.6356 351.308,-33.8116 373.729,-23.722"/>
<polygon fill="midnightblue" stroke="midnightblue" points="375.392,-26.8119 383.075,-19.5164 372.519,-20.4284 375.392,-26.8119"/>
</g>
<!-- Node11&#45;&gt;Node2 -->
<g id="edge15" class="edge"><title>Node11&#45;&gt;Node2</title>
<path fill="none" stroke="midnightblue" d="M421.965,-56.4435C442.609,-47.5961 475.063,-33.6875 498.632,-23.5865"/>
<polygon fill="midnightblue" stroke="midnightblue" points="500.316,-26.6727 508.128,-19.5164 497.558,-20.2387 500.316,-26.6727"/>
</g>
<!-- Node11&#45;&gt;Node7 -->
<g id="edge14" class="edge"><title>Node11&#45;&gt;Node7</title>
<path fill="none" stroke="midnightblue" d="M412.122,-56.324C421.526,-48.2631 435.744,-36.0765 447.069,-26.3695"/>
<polygon fill="midnightblue" stroke="midnightblue" points="449.379,-28.9993 454.694,-19.8339 444.823,-23.6844 449.379,-28.9993"/>
</g>
<!-- Node11&#45;&gt;Node10 -->
<g id="edge13" class="edge"><title>Node11&#45;&gt;Node10</title>
<path fill="none" stroke="midnightblue" d="M402,-56.083C402,-49.0059 402,-38.8611 402,-29.9865"/>
<polygon fill="midnightblue" stroke="midnightblue" points="405.5,-29.751 402,-19.7511 398.5,-29.7511 405.5,-29.751"/>
</g>
</g>
</svg>
