<?xml version="1.0" encoding="UTF-8" standalone="no"?>
<!DOCTYPE svg PUBLIC "-//W3C//DTD SVG 1.1//EN"
 "http://www.w3.org/Graphics/SVG/1.1/DTD/svg11.dtd">
<!-- Generated by graphviz version 2.38.0 (20140413.2041)
 -->
<!-- Title: progs/detail/McAction.h Pages: 1 -->
<svg width="523pt" height="95pt"
 viewBox="0.00 0.00 523.00 95.00" xmlns="http://www.w3.org/2000/svg" xmlns:xlink="http://www.w3.org/1999/xlink">
<g id="graph0" class="graph" transform="scale(1 1) rotate(0) translate(4 91)">
<title>progs/detail/McAction.h</title>
<polygon fill="white" stroke="none" points="-4,4 -4,-91 519,-91 519,4 -4,4"/>
<!-- Node29 -->
<g id="node1" class="node"><title>Node29</title>
<polygon fill="#bfbfbf" stroke="black" points="203,-67.5 203,-86.5 331,-86.5 331,-67.5 203,-67.5"/>
<text text-anchor="middle" x="267" y="-74.5" font-family="Helvetica,sans-Serif" font-size="10.00">progs/detail/McAction.h</text>
</g>
<!-- Node30 -->
<g id="node2" class="node"><title>Node30</title>
<g id="a_node2"><a xlink:href="_ant-cocktail_8cc.html" target="_top" xlink:title="progs/Ant&#45;cocktail.cc">
<polygon fill="white" stroke="black" points="0,-6 0,-25 116,-25 116,-6 0,-6"/>
<text text-anchor="middle" x="58" y="-13" font-family="Helvetica,sans-Serif" font-size="10.00">progs/Ant&#45;cocktail.cc</text>
</a>
</g>
</g>
<!-- Node29&#45;&gt;Node30 -->
<g id="edge1" class="edge"><title>Node29&#45;&gt;Node30</title>
<path fill="none" stroke="midnightblue" d="M227.223,-64.6759C186.612,-53.1144 124.49,-35.429 87.8891,-25.0091"/>
<polygon fill="midnightblue" stroke="midnightblue" points="226.479,-68.1032 237.055,-67.4751 228.396,-61.3707 226.479,-68.1032"/>
</g>
<!-- Node31 -->
<g id="node3" class="node"><title>Node31</title>
<g id="a_node3"><a xlink:href="_ant-mcdatabase-viewer_8cc.html" target="_top" xlink:title="progs/Ant&#45;mcdatabase\l&#45;viewer.cc">
<polygon fill="white" stroke="black" points="134.5,-0.5 134.5,-30.5 261.5,-30.5 261.5,-0.5 134.5,-0.5"/>
<text text-anchor="start" x="142.5" y="-18.5" font-family="Helvetica,sans-Serif" font-size="10.00">progs/Ant&#45;mcdatabase</text>
<text text-anchor="middle" x="198" y="-7.5" font-family="Helvetica,sans-Serif" font-size="10.00">&#45;viewer.cc</text>
</a>
</g>
</g>
<!-- Node29&#45;&gt;Node31 -->
<g id="edge2" class="edge"><title>Node29&#45;&gt;Node31</title>
<path fill="none" stroke="midnightblue" d="M249.514,-60.9215C238.68,-51.579 224.86,-39.6616 214.262,-30.523"/>
<polygon fill="midnightblue" stroke="midnightblue" points="247.255,-63.5952 257.114,-67.4751 251.826,-58.294 247.255,-63.5952"/>
</g>
<!-- Node32 -->
<g id="node4" class="node"><title>Node32</title>
<g id="a_node4"><a xlink:href="_ant-mcgun_8cc.html" target="_top" xlink:title="progs/Ant&#45;mcgun.cc">
<polygon fill="white" stroke="black" points="279.5,-6 279.5,-25 392.5,-25 392.5,-6 279.5,-6"/>
<text text-anchor="middle" x="336" y="-13" font-family="Helvetica,sans-Serif" font-size="10.00">progs/Ant&#45;mcgun.cc</text>
</a>
</g>
</g>
<!-- Node29&#45;&gt;Node32 -->
<g id="edge3" class="edge"><title>Node29&#45;&gt;Node32</title>
<path fill="none" stroke="midnightblue" d="M284.801,-60.6496C297.956,-49.3058 315.38,-34.2811 326.132,-25.0091"/>
<polygon fill="midnightblue" stroke="midnightblue" points="282.174,-58.294 276.886,-67.4751 286.745,-63.5952 282.174,-58.294"/>
</g>
<!-- Node33 -->
<g id="node5" class="node"><title>Node33</title>
<g id="a_node5"><a xlink:href="_ant-pluto_8cc.html" target="_top" xlink:title="Pluto generator forntend. ">
<polygon fill="white" stroke="black" points="411,-6 411,-25 515,-25 515,-6 411,-6"/>
<text text-anchor="middle" x="463" y="-13" font-family="Helvetica,sans-Serif" font-size="10.00">progs/Ant&#45;pluto.cc</text>
</a>
</g>
</g>
<!-- Node29&#45;&gt;Node33 -->
<g id="edge4" class="edge"><title>Node29&#45;&gt;Node33</title>
<path fill="none" stroke="midnightblue" d="M304.788,-64.5286C342.881,-52.9647 400.791,-35.3849 434.97,-25.0091"/>
<polygon fill="midnightblue" stroke="midnightblue" points="303.634,-61.2211 295.082,-67.4751 305.668,-67.9193 303.634,-61.2211"/>
</g>
</g>
</svg>
