<?xml version="1.0" encoding="UTF-8" standalone="no"?>
<!DOCTYPE svg PUBLIC "-//W3C//DTD SVG 1.1//EN"
 "http://www.w3.org/Graphics/SVG/1.1/DTD/svg11.dtd">
<!-- Generated by graphviz version 2.38.0 (20140413.2041)
 -->
<!-- Title: progs/detail/McAction.h Pages: 1 -->
<svg width="1095pt" height="364pt"
 viewBox="0.00 0.00 1095.00 364.00" xmlns="http://www.w3.org/2000/svg" xmlns:xlink="http://www.w3.org/1999/xlink">
<g id="graph0" class="graph" transform="scale(1 1) rotate(0) translate(4 360)">
<title>progs/detail/McAction.h</title>
<polygon fill="white" stroke="none" points="-4,4 -4,-360 1091,-360 1091,4 -4,4"/>
<!-- Node0 -->
<g id="node1" class="node"><title>Node0</title>
<polygon fill="#bfbfbf" stroke="black" points="93,-336.5 93,-355.5 221,-355.5 221,-336.5 93,-336.5"/>
<text text-anchor="middle" x="157" y="-343.5" font-family="Helvetica,sans-Serif" font-size="10.00">progs/detail/McAction.h</text>
</g>
<!-- Node1 -->
<g id="node2" class="node"><title>Node1</title>
<polygon fill="white" stroke="#bfbfbf" points="0,-56.5 0,-75.5 44,-75.5 44,-56.5 0,-56.5"/>
<text text-anchor="middle" x="22" y="-63.5" font-family="Helvetica,sans-Serif" font-size="10.00">string</text>
</g>
<!-- Node0&#45;&gt;Node1 -->
<g id="edge1" class="edge"><title>Node0&#45;&gt;Node1</title>
<path fill="none" stroke="midnightblue" d="M134.053,-336.485C98.7123,-321.711 35,-287.76 35,-235 35,-235 35,-235 35,-177 35,-144.576 29.3607,-107.146 25.5105,-85.3688"/>
<polygon fill="midnightblue" stroke="midnightblue" points="28.9499,-84.7196 23.6995,-75.5172 22.0652,-85.9853 28.9499,-84.7196"/>
</g>
<!-- Node2 -->
<g id="node3" class="node"><title>Node2</title>
<polygon fill="white" stroke="#bfbfbf" points="417,-56.5 417,-75.5 455,-75.5 455,-56.5 417,-56.5"/>
<text text-anchor="middle" x="436" y="-63.5" font-family="Helvetica,sans-Serif" font-size="10.00">map</text>
</g>
<!-- Node0&#45;&gt;Node2 -->
<g id="edge2" class="edge"><title>Node0&#45;&gt;Node2</title>
<path fill="none" stroke="midnightblue" d="M203.845,-336.482C283.072,-320.728 435,-284.115 435,-235 435,-235 435,-235 435,-177 435,-144.947 435.43,-107.642 435.726,-85.7484"/>
<polygon fill="midnightblue" stroke="midnightblue" points="439.228,-85.6058 435.869,-75.5575 432.229,-85.5073 439.228,-85.6058"/>
</g>
<!-- Node3 -->
<g id="node4" class="node"><title>Node3</title>
<g id="a_node4"><a xlink:href="_query_8h.html" target="_top" xlink:title="mc/database/Query.h">
<polygon fill="white" stroke="black" points="97.5,-280.5 97.5,-299.5 216.5,-299.5 216.5,-280.5 97.5,-280.5"/>
<text text-anchor="middle" x="157" y="-287.5" font-family="Helvetica,sans-Serif" font-size="10.00">mc/database/Query.h</text>
</a>
</g>
</g>
<!-- Node0&#45;&gt;Node3 -->
<g id="edge3" class="edge"><title>Node0&#45;&gt;Node3</title>
<path fill="none" stroke="midnightblue" d="M157,-336.083C157,-329.006 157,-318.861 157,-309.986"/>
<polygon fill="midnightblue" stroke="midnightblue" points="160.5,-309.751 157,-299.751 153.5,-309.751 160.5,-309.751"/>
</g>
<!-- Node4 -->
<g id="node5" class="node"><title>Node4</title>
<polygon fill="white" stroke="#bfbfbf" points="62.5,-56.5 62.5,-75.5 109.5,-75.5 109.5,-56.5 62.5,-56.5"/>
<text text-anchor="middle" x="86" y="-63.5" font-family="Helvetica,sans-Serif" font-size="10.00">vector</text>
</g>
<!-- Node3&#45;&gt;Node4 -->
<g id="edge4" class="edge"><title>Node3&#45;&gt;Node4</title>
<path fill="none" stroke="midnightblue" d="M147.543,-280.303C138.978,-271.868 126.706,-258.282 120,-244 94.7803,-190.285 88.2674,-119.022 86.5855,-85.686"/>
<polygon fill="midnightblue" stroke="midnightblue" points="90.0774,-85.415 86.1694,-75.5673 83.0834,-85.7027 90.0774,-85.415"/>
</g>
<!-- Node5 -->
<g id="node6" class="node"><title>Node5</title>
<g id="a_node6"><a xlink:href="_production_data_base_8h.html" target="_top" xlink:title="ProductionDataBase.h">
<polygon fill="white" stroke="black" points="129,-224.5 129,-243.5 253,-243.5 253,-224.5 129,-224.5"/>
<text text-anchor="middle" x="191" y="-231.5" font-family="Helvetica,sans-Serif" font-size="10.00">ProductionDataBase.h</text>
</a>
</g>
</g>
<!-- Node3&#45;&gt;Node5 -->
<g id="edge5" class="edge"><title>Node3&#45;&gt;Node5</title>
<path fill="none" stroke="midnightblue" d="M162.614,-280.083C167.367,-272.534 174.318,-261.495 180.152,-252.23"/>
<polygon fill="midnightblue" stroke="midnightblue" points="183.124,-254.078 185.49,-243.751 177.2,-250.349 183.124,-254.078"/>
</g>
<!-- Node5&#45;&gt;Node4 -->
<g id="edge6" class="edge"><title>Node5&#45;&gt;Node4</title>
<path fill="none" stroke="midnightblue" d="M179.548,-224.361C169.014,-215.968 153.483,-202.41 143,-188 118.843,-154.795 100.862,-109.729 92.0514,-85.0317"/>
<polygon fill="midnightblue" stroke="midnightblue" points="95.3333,-83.8127 88.7519,-75.5099 88.7191,-86.1047 95.3333,-83.8127"/>
</g>
<!-- Node6 -->
<g id="node7" class="node"><title>Node6</title>
<g id="a_node7"><a xlink:href="_particle_type_tree_8h.html" target="_top" xlink:title="base/ParticleTypeTree.h">
<polygon fill="white" stroke="black" points="278.5,-168.5 278.5,-187.5 405.5,-187.5 405.5,-168.5 278.5,-168.5"/>
<text text-anchor="middle" x="342" y="-175.5" font-family="Helvetica,sans-Serif" font-size="10.00">base/ParticleTypeTree.h</text>
</a>
</g>
</g>
<!-- Node5&#45;&gt;Node6 -->
<g id="edge7" class="edge"><title>Node5&#45;&gt;Node6</title>
<path fill="none" stroke="midnightblue" d="M214.926,-224.444C240.219,-215.399 280.302,-201.064 308.68,-190.916"/>
<polygon fill="midnightblue" stroke="midnightblue" points="309.948,-194.179 318.186,-187.516 307.591,-187.588 309.948,-194.179"/>
</g>
<!-- Node28 -->
<g id="node29" class="node"><title>Node28</title>
<polygon fill="white" stroke="#bfbfbf" points="152.5,-168.5 152.5,-187.5 259.5,-187.5 259.5,-168.5 152.5,-168.5"/>
<text text-anchor="middle" x="206" y="-175.5" font-family="Helvetica,sans-Serif" font-size="10.00">Math/Interpolator.h</text>
</g>
<!-- Node5&#45;&gt;Node28 -->
<g id="edge36" class="edge"><title>Node5&#45;&gt;Node28</title>
<path fill="none" stroke="midnightblue" d="M193.477,-224.083C195.486,-216.849 198.386,-206.409 200.89,-197.397"/>
<polygon fill="midnightblue" stroke="midnightblue" points="204.265,-198.323 203.569,-187.751 197.52,-196.449 204.265,-198.323"/>
</g>
<!-- Node6&#45;&gt;Node2 -->
<g id="edge35" class="edge"><title>Node6&#45;&gt;Node2</title>
<path fill="none" stroke="midnightblue" d="M349.376,-168.368C365.026,-150.055 401.776,-107.049 422.018,-83.3624"/>
<polygon fill="midnightblue" stroke="midnightblue" points="424.823,-85.4676 428.658,-75.5914 419.501,-80.92 424.823,-85.4676"/>
</g>
<!-- Node7 -->
<g id="node8" class="node"><title>Node7</title>
<g id="a_node8"><a xlink:href="_particle_type_8h.html" target="_top" xlink:title="ParticleType.h">
<polygon fill="white" stroke="black" points="203.5,-112.5 203.5,-131.5 284.5,-131.5 284.5,-112.5 203.5,-112.5"/>
<text text-anchor="middle" x="244" y="-119.5" font-family="Helvetica,sans-Serif" font-size="10.00">ParticleType.h</text>
</a>
</g>
</g>
<!-- Node6&#45;&gt;Node7 -->
<g id="edge8" class="edge"><title>Node6&#45;&gt;Node7</title>
<path fill="none" stroke="midnightblue" d="M326.255,-168.324C310.681,-159.743 286.623,-146.486 268.541,-136.522"/>
<polygon fill="midnightblue" stroke="midnightblue" points="270.154,-133.415 259.706,-131.655 266.776,-139.546 270.154,-133.415"/>
</g>
<!-- Node18 -->
<g id="node19" class="node"><title>Node18</title>
<g id="a_node19"><a xlink:href="_tree_8h.html" target="_top" xlink:title="Tree.h">
<polygon fill="white" stroke="black" points="659.5,-112.5 659.5,-131.5 704.5,-131.5 704.5,-112.5 659.5,-112.5"/>
<text text-anchor="middle" x="682" y="-119.5" font-family="Helvetica,sans-Serif" font-size="10.00">Tree.h</text>
</a>
</g>
</g>
<!-- Node6&#45;&gt;Node18 -->
<g id="edge23" class="edge"><title>Node6&#45;&gt;Node18</title>
<path fill="none" stroke="midnightblue" d="M395.874,-168.444C467.09,-157.133 590.386,-137.55 649.092,-128.226"/>
<polygon fill="midnightblue" stroke="midnightblue" points="649.948,-131.635 659.276,-126.609 648.85,-124.721 649.948,-131.635"/>
</g>
<!-- Node7&#45;&gt;Node1 -->
<g id="edge18" class="edge"><title>Node7&#45;&gt;Node1</title>
<path fill="none" stroke="midnightblue" d="M205.079,-112.443C168.497,-104.265 111.993,-91.2846 54.329,-76.2545"/>
<polygon fill="midnightblue" stroke="midnightblue" points="54.8741,-72.7791 44.3132,-73.6259 53.0971,-79.5498 54.8741,-72.7791"/>
</g>
<!-- Node7&#45;&gt;Node2 -->
<g id="edge20" class="edge"><title>Node7&#45;&gt;Node2</title>
<path fill="none" stroke="midnightblue" d="M276.25,-112.419C309.194,-103.577 361.784,-89.2541 407,-76 407.101,-75.9703 407.203,-75.9406 407.304,-75.9108"/>
<polygon fill="midnightblue" stroke="midnightblue" points="408.429,-79.2274 416.995,-72.9922 406.41,-72.5248 408.429,-79.2274"/>
</g>
<!-- Node7&#45;&gt;Node4 -->
<g id="edge22" class="edge"><title>Node7&#45;&gt;Node4</title>
<path fill="none" stroke="midnightblue" d="M218.964,-112.444C191.993,-103.226 148.947,-88.5135 119.174,-78.3379"/>
<polygon fill="midnightblue" stroke="midnightblue" points="120.223,-74.9977 109.628,-75.0755 117.959,-81.6215 120.223,-74.9977"/>
</g>
<!-- Node8 -->
<g id="node9" class="node"><title>Node8</title>
<g id="a_node9"><a xlink:href="types_8h.html" target="_top" xlink:title="base/types.h">
<polygon fill="white" stroke="black" points="97,-0.5 97,-19.5 175,-19.5 175,-0.5 97,-0.5"/>
<text text-anchor="middle" x="136" y="-7.5" font-family="Helvetica,sans-Serif" font-size="10.00">base/types.h</text>
</a>
</g>
</g>
<!-- Node7&#45;&gt;Node8 -->
<g id="edge9" class="edge"><title>Node7&#45;&gt;Node8</title>
<path fill="none" stroke="midnightblue" d="M237.306,-112.194C227.353,-99.3158 207.799,-74.8309 189,-56 178.473,-45.4554 165.776,-34.6173 155.448,-26.2202"/>
<polygon fill="midnightblue" stroke="midnightblue" points="157.424,-23.3186 147.43,-19.8009 153.049,-28.7831 157.424,-23.3186"/>
</g>
<!-- Node9 -->
<g id="node10" class="node"><title>Node9</title>
<g id="a_node10"><a xlink:href="interval_8h.html" target="_top" xlink:title="base/interval.h">
<polygon fill="white" stroke="black" points="236.5,-56.5 236.5,-75.5 323.5,-75.5 323.5,-56.5 236.5,-56.5"/>
<text text-anchor="middle" x="280" y="-63.5" font-family="Helvetica,sans-Serif" font-size="10.00">base/interval.h</text>
</a>
</g>
</g>
<!-- Node7&#45;&gt;Node9 -->
<g id="edge10" class="edge"><title>Node7&#45;&gt;Node9</title>
<path fill="none" stroke="midnightblue" d="M249.945,-112.083C254.977,-104.534 262.337,-93.4948 268.513,-84.2298"/>
<polygon fill="midnightblue" stroke="midnightblue" points="271.531,-86.0131 274.166,-75.7511 265.707,-82.1301 271.531,-86.0131"/>
</g>
<!-- Node16 -->
<g id="node17" class="node"><title>Node16</title>
<polygon fill="white" stroke="#bfbfbf" points="341.5,-56.5 341.5,-75.5 398.5,-75.5 398.5,-56.5 341.5,-56.5"/>
<text text-anchor="middle" x="370" y="-63.5" font-family="Helvetica,sans-Serif" font-size="10.00">ostream</text>
</g>
<!-- Node7&#45;&gt;Node16 -->
<g id="edge19" class="edge"><title>Node7&#45;&gt;Node16</title>
<path fill="none" stroke="midnightblue" d="M263.965,-112.444C284.609,-103.596 317.063,-89.6875 340.632,-79.5865"/>
<polygon fill="midnightblue" stroke="midnightblue" points="342.316,-82.6727 350.128,-75.5164 339.558,-76.2387 342.316,-82.6727"/>
</g>
<!-- Node17 -->
<g id="node18" class="node"><title>Node17</title>
<polygon fill="white" stroke="#bfbfbf" points="128,-56.5 128,-75.5 180,-75.5 180,-56.5 128,-56.5"/>
<text text-anchor="middle" x="154" y="-63.5" font-family="Helvetica,sans-Serif" font-size="10.00">iterator</text>
</g>
<!-- Node7&#45;&gt;Node17 -->
<g id="edge21" class="edge"><title>Node7&#45;&gt;Node17</title>
<path fill="none" stroke="midnightblue" d="M229.54,-112.324C215.5,-103.9 193.952,-90.9709 177.457,-81.0741"/>
<polygon fill="midnightblue" stroke="midnightblue" points="178.8,-77.7983 168.424,-75.6545 175.198,-83.8007 178.8,-77.7983"/>
</g>
<!-- Node9&#45;&gt;Node8 -->
<g id="edge11" class="edge"><title>Node9&#45;&gt;Node8</title>
<path fill="none" stroke="midnightblue" d="M257.183,-56.4435C233.168,-47.4381 195.171,-33.1891 168.131,-23.049"/>
<polygon fill="midnightblue" stroke="midnightblue" points="169.303,-19.7506 158.71,-19.5164 166.845,-26.3049 169.303,-19.7506"/>
</g>
<!-- Node10 -->
<g id="node11" class="node"><title>Node10</title>
<polygon fill="white" stroke="#bfbfbf" points="614,-0.5 614,-19.5 676,-19.5 676,-0.5 614,-0.5"/>
<text text-anchor="middle" x="645" y="-7.5" font-family="Helvetica,sans-Serif" font-size="10.00">algorithm</text>
</g>
<!-- Node9&#45;&gt;Node10 -->
<g id="edge12" class="edge"><title>Node9&#45;&gt;Node10</title>
<path fill="none" stroke="midnightblue" d="M323.678,-57.3472C326.493,-56.8828 329.285,-56.43 332,-56 429.188,-40.6063 543.72,-24.709 603.666,-16.5594"/>
<polygon fill="midnightblue" stroke="midnightblue" points="604.419,-19.9894 613.858,-15.177 603.478,-13.0529 604.419,-19.9894"/>
</g>
<!-- Node11 -->
<g id="node12" class="node"><title>Node11</title>
<polygon fill="white" stroke="#bfbfbf" points="465,-0.5 465,-19.5 529,-19.5 529,-0.5 465,-0.5"/>
<text text-anchor="middle" x="497" y="-7.5" font-family="Helvetica,sans-Serif" font-size="10.00">stdexcept</text>
</g>
<!-- Node9&#45;&gt;Node11 -->
<g id="edge13" class="edge"><title>Node9&#45;&gt;Node11</title>
<path fill="none" stroke="midnightblue" d="M314.384,-56.4435C352.504,-46.9576 414.003,-31.6537 454.956,-21.4625"/>
<polygon fill="midnightblue" stroke="midnightblue" points="456.04,-24.7996 464.899,-18.9883 454.35,-18.0068 456.04,-24.7996"/>
</g>
<!-- Node12 -->
<g id="node13" class="node"><title>Node12</title>
<polygon fill="white" stroke="#bfbfbf" points="193,-0.5 193,-19.5 235,-19.5 235,-0.5 193,-0.5"/>
<text text-anchor="middle" x="214" y="-7.5" font-family="Helvetica,sans-Serif" font-size="10.00">limits</text>
</g>
<!-- Node9&#45;&gt;Node12 -->
<g id="edge14" class="edge"><title>Node9&#45;&gt;Node12</title>
<path fill="none" stroke="midnightblue" d="M269.396,-56.324C259.544,-48.2631 244.649,-36.0765 232.785,-26.3695"/>
<polygon fill="midnightblue" stroke="midnightblue" points="234.753,-23.4575 224.797,-19.8339 230.32,-28.8752 234.753,-23.4575"/>
</g>
<!-- Node13 -->
<g id="node14" class="node"><title>Node13</title>
<polygon fill="white" stroke="#bfbfbf" points="253.5,-0.5 253.5,-19.5 306.5,-19.5 306.5,-0.5 253.5,-0.5"/>
<text text-anchor="middle" x="280" y="-7.5" font-family="Helvetica,sans-Serif" font-size="10.00">istream</text>
</g>
<!-- Node9&#45;&gt;Node13 -->
<g id="edge15" class="edge"><title>Node9&#45;&gt;Node13</title>
<path fill="none" stroke="midnightblue" d="M280,-56.083C280,-49.0059 280,-38.8611 280,-29.9865"/>
<polygon fill="midnightblue" stroke="midnightblue" points="283.5,-29.751 280,-19.7511 276.5,-29.7511 283.5,-29.751"/>
</g>
<!-- Node14 -->
<g id="node15" class="node"><title>Node14</title>
<polygon fill="white" stroke="#bfbfbf" points="325,-0.5 325,-19.5 381,-19.5 381,-0.5 325,-0.5"/>
<text text-anchor="middle" x="353" y="-7.5" font-family="Helvetica,sans-Serif" font-size="10.00">sstream</text>
</g>
<!-- Node9&#45;&gt;Node14 -->
<g id="edge16" class="edge"><title>Node9&#45;&gt;Node14</title>
<path fill="none" stroke="midnightblue" d="M291.729,-56.324C302.837,-48.1066 319.742,-35.6017 332.983,-25.8069"/>
<polygon fill="midnightblue" stroke="midnightblue" points="335.1,-28.5948 341.058,-19.8339 330.937,-22.9671 335.1,-28.5948"/>
</g>
<!-- Node15 -->
<g id="node16" class="node"><title>Node15</title>
<polygon fill="white" stroke="#bfbfbf" points="399.5,-0.5 399.5,-19.5 446.5,-19.5 446.5,-0.5 399.5,-0.5"/>
<text text-anchor="middle" x="423" y="-7.5" font-family="Helvetica,sans-Serif" font-size="10.00">cmath</text>
</g>
<!-- Node9&#45;&gt;Node15 -->
<g id="edge17" class="edge"><title>Node9&#45;&gt;Node15</title>
<path fill="none" stroke="midnightblue" d="M302.659,-56.4435C326.402,-47.4776 363.909,-33.314 390.738,-23.1827"/>
<polygon fill="midnightblue" stroke="midnightblue" points="392.329,-26.3235 400.447,-19.5164 389.856,-19.7749 392.329,-26.3235"/>
</g>
<!-- Node18&#45;&gt;Node4 -->
<g id="edge30" class="edge"><title>Node18&#45;&gt;Node4</title>
<path fill="none" stroke="midnightblue" d="M659.283,-120.7C583.785,-119.385 334.378,-112.504 119.553,-75.7405"/>
<polygon fill="midnightblue" stroke="midnightblue" points="120.125,-72.2875 109.674,-74.0242 118.927,-79.1842 120.125,-72.2875"/>
</g>
<!-- Node18&#45;&gt;Node10 -->
<g id="edge31" class="edge"><title>Node18&#45;&gt;Node10</title>
<path fill="none" stroke="midnightblue" d="M686.742,-112.215C693.001,-99.3634 702.309,-74.911 694,-56 688.61,-43.732 678.042,-33.3414 668.096,-25.6461"/>
<polygon fill="midnightblue" stroke="midnightblue" points="669.828,-22.5811 659.661,-19.598 665.748,-28.2697 669.828,-22.5811"/>
</g>
<!-- Node19 -->
<g id="node20" class="node"><title>Node19</title>
<polygon fill="white" stroke="#bfbfbf" points="741.5,-56.5 741.5,-75.5 844.5,-75.5 844.5,-56.5 741.5,-56.5"/>
<text text-anchor="middle" x="793" y="-63.5" font-family="Helvetica,sans-Serif" font-size="10.00">cereal/access.hpp</text>
</g>
<!-- Node18&#45;&gt;Node19 -->
<g id="edge24" class="edge"><title>Node18&#45;&gt;Node19</title>
<path fill="none" stroke="midnightblue" d="M699.834,-112.324C717.716,-103.625 745.475,-90.1202 766.046,-80.113"/>
<polygon fill="midnightblue" stroke="midnightblue" points="767.749,-83.1765 775.21,-75.6545 764.687,-76.8819 767.749,-83.1765"/>
</g>
<!-- Node20 -->
<g id="node21" class="node"><title>Node20</title>
<g id="a_node21"><a xlink:href="variadic_8h.html" target="_top" xlink:title="std_ext/variadic.h">
<polygon fill="white" stroke="black" points="862.5,-56.5 862.5,-75.5 963.5,-75.5 963.5,-56.5 862.5,-56.5"/>
<text text-anchor="middle" x="913" y="-63.5" font-family="Helvetica,sans-Serif" font-size="10.00">std_ext/variadic.h</text>
</a>
</g>
</g>
<!-- Node18&#45;&gt;Node20 -->
<g id="edge25" class="edge"><title>Node18&#45;&gt;Node20</title>
<path fill="none" stroke="midnightblue" d="M704.57,-115.724C741.956,-106.984 817.475,-89.3305 866.608,-77.845"/>
<polygon fill="midnightblue" stroke="midnightblue" points="867.425,-81.2484 876.365,-75.5639 865.831,-74.4322 867.425,-81.2484"/>
</g>
<!-- Node23 -->
<g id="node24" class="node"><title>Node23</title>
<polygon fill="white" stroke="#bfbfbf" points="981.5,-56.5 981.5,-75.5 1038.5,-75.5 1038.5,-56.5 981.5,-56.5"/>
<text text-anchor="middle" x="1010" y="-63.5" font-family="Helvetica,sans-Serif" font-size="10.00">memory</text>
</g>
<!-- Node18&#45;&gt;Node23 -->
<g id="edge28" class="edge"><title>Node18&#45;&gt;Node23</title>
<path fill="none" stroke="midnightblue" d="M704.755,-118.153C752.398,-112.049 866.301,-96.7131 971.245,-76.2184"/>
<polygon fill="midnightblue" stroke="midnightblue" points="972.238,-79.59 981.37,-74.2191 970.882,-72.7226 972.238,-79.59"/>
</g>
<!-- Node24 -->
<g id="node25" class="node"><title>Node24</title>
<polygon fill="white" stroke="#bfbfbf" points="1057,-56.5 1057,-75.5 1087,-75.5 1087,-56.5 1057,-56.5"/>
<text text-anchor="middle" x="1072" y="-63.5" font-family="Helvetica,sans-Serif" font-size="10.00">list</text>
</g>
<!-- Node18&#45;&gt;Node24 -->
<g id="edge29" class="edge"><title>Node18&#45;&gt;Node24</title>
<path fill="none" stroke="midnightblue" d="M704.614,-120.076C761.103,-117.382 912.881,-107.753 1046.91,-75.7137"/>
<polygon fill="midnightblue" stroke="midnightblue" points="1048.05,-79.0377 1056.94,-73.2659 1046.39,-72.2374 1048.05,-79.0377"/>
</g>
<!-- Node25 -->
<g id="node26" class="node"><title>Node25</title>
<polygon fill="white" stroke="#bfbfbf" points="473,-56.5 473,-75.5 525,-75.5 525,-56.5 473,-56.5"/>
<text text-anchor="middle" x="499" y="-63.5" font-family="Helvetica,sans-Serif" font-size="10.00">cassert</text>
</g>
<!-- Node18&#45;&gt;Node25 -->
<g id="edge32" class="edge"><title>Node18&#45;&gt;Node25</title>
<path fill="none" stroke="midnightblue" d="M659.193,-114.27C628.015,-105.07 571.76,-88.4702 534.898,-77.5929"/>
<polygon fill="midnightblue" stroke="midnightblue" points="535.634,-74.1609 525.052,-74.6876 533.653,-80.8747 535.634,-74.1609"/>
</g>
<!-- Node26 -->
<g id="node27" class="node"><title>Node26</title>
<polygon fill="white" stroke="#bfbfbf" points="543,-56.5 543,-75.5 599,-75.5 599,-56.5 543,-56.5"/>
<text text-anchor="middle" x="571" y="-63.5" font-family="Helvetica,sans-Serif" font-size="10.00">numeric</text>
</g>
<!-- Node18&#45;&gt;Node26 -->
<g id="edge33" class="edge"><title>Node18&#45;&gt;Node26</title>
<path fill="none" stroke="midnightblue" d="M664.166,-112.324C646.284,-103.625 618.525,-90.1202 597.954,-80.113"/>
<polygon fill="midnightblue" stroke="midnightblue" points="599.313,-76.8819 588.79,-75.6545 596.251,-83.1765 599.313,-76.8819"/>
</g>
<!-- Node27 -->
<g id="node28" class="node"><title>Node27</title>
<polygon fill="white" stroke="#bfbfbf" points="617,-56.5 617,-75.5 685,-75.5 685,-56.5 617,-56.5"/>
<text text-anchor="middle" x="651" y="-63.5" font-family="Helvetica,sans-Serif" font-size="10.00">type_traits</text>
</g>
<!-- Node18&#45;&gt;Node27 -->
<g id="edge34" class="edge"><title>Node18&#45;&gt;Node27</title>
<path fill="none" stroke="midnightblue" d="M676.881,-112.083C672.592,-104.613 666.342,-93.7244 661.058,-84.5199"/>
<polygon fill="midnightblue" stroke="midnightblue" points="664.038,-82.6811 656.024,-75.7511 657.967,-86.1662 664.038,-82.6811"/>
</g>
<!-- Node21 -->
<g id="node22" class="node"><title>Node21</title>
<polygon fill="white" stroke="#bfbfbf" points="919,-0.5 919,-19.5 971,-19.5 971,-0.5 919,-0.5"/>
<text text-anchor="middle" x="945" y="-7.5" font-family="Helvetica,sans-Serif" font-size="10.00">cstddef</text>
</g>
<!-- Node20&#45;&gt;Node21 -->
<g id="edge26" class="edge"><title>Node20&#45;&gt;Node21</title>
<path fill="none" stroke="midnightblue" d="M918.284,-56.083C922.711,-48.6127 929.163,-37.7244 934.618,-28.5199"/>
<polygon fill="midnightblue" stroke="midnightblue" points="937.727,-30.1383 939.814,-19.7511 931.705,-26.5697 937.727,-30.1383"/>
</g>
<!-- Node22 -->
<g id="node23" class="node"><title>Node22</title>
<polygon fill="white" stroke="#bfbfbf" points="859.5,-0.5 859.5,-19.5 900.5,-19.5 900.5,-0.5 859.5,-0.5"/>
<text text-anchor="middle" x="880" y="-7.5" font-family="Helvetica,sans-Serif" font-size="10.00">tuple</text>
</g>
<!-- Node20&#45;&gt;Node22 -->
<g id="edge27" class="edge"><title>Node20&#45;&gt;Node22</title>
<path fill="none" stroke="midnightblue" d="M907.551,-56.083C902.986,-48.6127 896.332,-37.7244 890.707,-28.5199"/>
<polygon fill="midnightblue" stroke="midnightblue" points="893.549,-26.4588 885.348,-19.7511 887.576,-30.109 893.549,-26.4588"/>
</g>
</g>
</svg>
