<?xml version="1.0" encoding="UTF-8" standalone="no"?>
<!DOCTYPE svg PUBLIC "-//W3C//DTD SVG 1.1//EN"
 "http://www.w3.org/Graphics/SVG/1.1/DTD/svg11.dtd">
<!-- Generated by graphviz version 2.38.0 (20140413.2041)
 -->
<!-- Title: src/calibration/converters/MultiHitReference.h Pages: 1 -->
<svg width="2663pt" height="251pt"
 viewBox="0.00 0.00 2663.00 251.00" xmlns="http://www.w3.org/2000/svg" xmlns:xlink="http://www.w3.org/1999/xlink">
<g id="graph0" class="graph" transform="scale(1 1) rotate(0) translate(4 247)">
<title>src/calibration/converters/MultiHitReference.h</title>
<polygon fill="white" stroke="none" points="-4,4 -4,-247 2659,-247 2659,4 -4,4"/>
<!-- Node51 -->
<g id="node1" class="node"><title>Node51</title>
<polygon fill="#bfbfbf" stroke="black" points="1730.5,-212.5 1730.5,-242.5 1867.5,-242.5 1867.5,-212.5 1730.5,-212.5"/>
<text text-anchor="start" x="1738.5" y="-230.5" font-family="Helvetica,sans-Serif" font-size="10.00">src/calibration/converters</text>
<text text-anchor="middle" x="1799" y="-219.5" font-family="Helvetica,sans-Serif" font-size="10.00">/MultiHitReference.h</text>
</g>
<!-- Node52 -->
<g id="node2" class="node"><title>Node52</title>
<g id="a_node2"><a xlink:href="analysis_2physics_2calibration_2_time_8cc.html" target="_top" xlink:title="src/analysis/physics\l/calibration/Time.cc">
<polygon fill="white" stroke="black" points="1134,-145.5 1134,-175.5 1244,-175.5 1244,-145.5 1134,-145.5"/>
<text text-anchor="start" x="1142" y="-163.5" font-family="Helvetica,sans-Serif" font-size="10.00">src/analysis/physics</text>
<text text-anchor="middle" x="1189" y="-152.5" font-family="Helvetica,sans-Serif" font-size="10.00">/calibration/Time.cc</text>
</a>
</g>
</g>
<!-- Node51&#45;&gt;Node52 -->
<g id="edge1" class="edge"><title>Node51&#45;&gt;Node52</title>
<path fill="none" stroke="midnightblue" d="M1720.12,-221.966C1614.47,-215.248 1421.38,-200.71 1258,-176 1253.52,-175.323 1248.9,-174.538 1244.26,-173.692"/>
<polygon fill="midnightblue" stroke="midnightblue" points="1720.17,-225.476 1730.37,-222.611 1720.61,-218.49 1720.17,-225.476"/>
</g>
<!-- Node53 -->
<g id="node3" class="node"><title>Node53</title>
<g id="a_node3"><a xlink:href="_c_a_t_c_h___t_d_c_8h.html" target="_top" xlink:title="src/calibration/converters\l/CATCH_TDC.h">
<polygon fill="white" stroke="black" points="1452.5,-145.5 1452.5,-175.5 1589.5,-175.5 1589.5,-145.5 1452.5,-145.5"/>
<text text-anchor="start" x="1460.5" y="-163.5" font-family="Helvetica,sans-Serif" font-size="10.00">src/calibration/converters</text>
<text text-anchor="middle" x="1521" y="-152.5" font-family="Helvetica,sans-Serif" font-size="10.00">/CATCH_TDC.h</text>
</a>
</g>
</g>
<!-- Node51&#45;&gt;Node53 -->
<g id="edge2" class="edge"><title>Node51&#45;&gt;Node53</title>
<path fill="none" stroke="midnightblue" d="M1729.22,-210.186C1683.7,-199.54 1624.86,-185.784 1581.35,-175.611"/>
<polygon fill="midnightblue" stroke="midnightblue" points="1728.49,-213.607 1739.02,-212.476 1730.08,-206.791 1728.49,-213.607"/>
</g>
<!-- Node61 -->
<g id="node11" class="node"><title>Node61</title>
<g id="a_node11"><a xlink:href="_setup__2007___base_8cc.html" target="_top" xlink:title="src/expconfig/setups\l/Setup_2007_Base.cc">
<polygon fill="white" stroke="black" points="0,-73 0,-103 120,-103 120,-73 0,-73"/>
<text text-anchor="start" x="8" y="-91" font-family="Helvetica,sans-Serif" font-size="10.00">src/expconfig/setups</text>
<text text-anchor="middle" x="60" y="-80" font-family="Helvetica,sans-Serif" font-size="10.00">/Setup_2007_Base.cc</text>
</a>
</g>
</g>
<!-- Node51&#45;&gt;Node61 -->
<g id="edge25" class="edge"><title>Node51&#45;&gt;Node61</title>
<path fill="none" stroke="midnightblue" d="M1720,-224.9C1595.84,-221.359 1361.4,-210.227 1286,-176 1267.68,-167.682 1271.59,-152.708 1253,-145 1137.58,-97.1377 252.415,-128.546 129,-109 120.254,-107.615 111.051,-105.46 102.319,-103.068"/>
<polygon fill="midnightblue" stroke="midnightblue" points="1720.11,-228.405 1730.2,-225.181 1720.3,-221.407 1720.11,-228.405"/>
</g>
<!-- Node62 -->
<g id="node12" class="node"><title>Node62</title>
<g id="a_node12"><a xlink:href="_setup__2010__03___base_8cc.html" target="_top" xlink:title="src/expconfig/setups\l/Setup_2010_03_Base.cc">
<polygon fill="white" stroke="black" points="138.5,-73 138.5,-103 275.5,-103 275.5,-73 138.5,-73"/>
<text text-anchor="start" x="146.5" y="-91" font-family="Helvetica,sans-Serif" font-size="10.00">src/expconfig/setups</text>
<text text-anchor="middle" x="207" y="-80" font-family="Helvetica,sans-Serif" font-size="10.00">/Setup_2010_03_Base.cc</text>
</a>
</g>
</g>
<!-- Node51&#45;&gt;Node62 -->
<g id="edge26" class="edge"><title>Node51&#45;&gt;Node62</title>
<path fill="none" stroke="midnightblue" d="M1719.89,-223.542C1603.8,-218.283 1393.56,-205.01 1324,-176 1303.88,-167.611 1306.4,-152.68 1286,-145 1181.74,-105.744 394.236,-125.099 284,-109 274.297,-107.583 264.053,-105.413 254.315,-103.018"/>
<polygon fill="midnightblue" stroke="midnightblue" points="1719.99,-227.049 1730.13,-223.996 1720.3,-220.056 1719.99,-227.049"/>
</g>
<!-- Node63 -->
<g id="node13" class="node"><title>Node63</title>
<g id="a_node13"><a xlink:href="_setup__2014___e_p_t_8cc.html" target="_top" xlink:title="src/expconfig/setups\l/Setup_2014_EPT.cc">
<polygon fill="white" stroke="black" points="293.5,-73 293.5,-103 408.5,-103 408.5,-73 293.5,-73"/>
<text text-anchor="start" x="301.5" y="-91" font-family="Helvetica,sans-Serif" font-size="10.00">src/expconfig/setups</text>
<text text-anchor="middle" x="351" y="-80" font-family="Helvetica,sans-Serif" font-size="10.00">/Setup_2014_EPT.cc</text>
</a>
</g>
</g>
<!-- Node51&#45;&gt;Node63 -->
<g id="edge27" class="edge"><title>Node51&#45;&gt;Node63</title>
<path fill="none" stroke="midnightblue" d="M1719.91,-222.684C1611.95,-216.572 1424.7,-202.486 1362,-176 1341.92,-167.519 1344.38,-152.719 1324,-145 1135.57,-73.6416 616.759,-142.076 418,-109 409.498,-107.585 400.559,-105.417 392.078,-103.022"/>
<polygon fill="midnightblue" stroke="midnightblue" points="1719.92,-226.19 1730.1,-223.251 1720.31,-219.201 1719.92,-226.19"/>
</g>
<!-- Node64 -->
<g id="node14" class="node"><title>Node64</title>
<g id="a_node14"><a xlink:href="_setup__2015__01___pion_8cc.html" target="_top" xlink:title="src/expconfig/setups\l/Setup_2015_01_Pion.cc">
<polygon fill="white" stroke="black" points="427,-73 427,-103 561,-103 561,-73 427,-73"/>
<text text-anchor="start" x="435" y="-91" font-family="Helvetica,sans-Serif" font-size="10.00">src/expconfig/setups</text>
<text text-anchor="middle" x="494" y="-80" font-family="Helvetica,sans-Serif" font-size="10.00">/Setup_2015_01_Pion.cc</text>
</a>
</g>
</g>
<!-- Node51&#45;&gt;Node64 -->
<g id="edge28" class="edge"><title>Node51&#45;&gt;Node64</title>
<path fill="none" stroke="midnightblue" d="M1720.47,-221.705C1621.05,-214.752 1455.99,-200.01 1400,-176 1379.97,-167.41 1382.36,-152.777 1362,-145 1197.42,-82.1353 744.167,-135.568 570,-109 560.559,-107.56 550.598,-105.412 541.108,-103.051"/>
<polygon fill="midnightblue" stroke="midnightblue" points="1720.25,-225.199 1730.47,-222.394 1720.73,-218.215 1720.25,-225.199"/>
</g>
<!-- Node65 -->
<g id="node15" class="node"><title>Node65</title>
<g id="a_node15"><a xlink:href="_setup__2017__03_8cc.html" target="_top" xlink:title="src/expconfig/setups\l/Setup_2017_03.cc">
<polygon fill="white" stroke="black" points="579.5,-73 579.5,-103 694.5,-103 694.5,-73 579.5,-73"/>
<text text-anchor="start" x="587.5" y="-91" font-family="Helvetica,sans-Serif" font-size="10.00">src/expconfig/setups</text>
<text text-anchor="middle" x="637" y="-80" font-family="Helvetica,sans-Serif" font-size="10.00">/Setup_2017_03.cc</text>
</a>
</g>
</g>
<!-- Node51&#45;&gt;Node65 -->
<g id="edge29" class="edge"><title>Node51&#45;&gt;Node65</title>
<path fill="none" stroke="midnightblue" d="M1720.05,-226.061C1645.99,-223.189 1533.42,-212.408 1443,-176 1421.15,-167.201 1422.23,-152.815 1400,-145 1253.69,-93.5527 855.782,-135.686 703,-109 694.744,-107.558 686.068,-105.409 677.82,-103.048"/>
<polygon fill="midnightblue" stroke="midnightblue" points="1720.12,-229.566 1730.23,-226.416 1720.36,-222.57 1720.12,-229.566"/>
</g>
<!-- Node66 -->
<g id="node16" class="node"><title>Node66</title>
<g id="a_node16"><a xlink:href="_setup__2017__05_8cc.html" target="_top" xlink:title="src/expconfig/setups\l/Setup_2017_05.cc">
<polygon fill="white" stroke="black" points="1718.5,-73 1718.5,-103 1833.5,-103 1833.5,-73 1718.5,-73"/>
<text text-anchor="start" x="1726.5" y="-91" font-family="Helvetica,sans-Serif" font-size="10.00">src/expconfig/setups</text>
<text text-anchor="middle" x="1776" y="-80" font-family="Helvetica,sans-Serif" font-size="10.00">/Setup_2017_05.cc</text>
</a>
</g>
</g>
<!-- Node51&#45;&gt;Node66 -->
<g id="edge30" class="edge"><title>Node51&#45;&gt;Node66</title>
<path fill="none" stroke="midnightblue" d="M1769.79,-205.764C1760.73,-197.627 1751.85,-187.475 1747,-176 1736.4,-150.924 1752.9,-120.53 1765.03,-103.111"/>
<polygon fill="midnightblue" stroke="midnightblue" points="1767.79,-208.651 1777.7,-212.377 1772.28,-203.279 1767.79,-208.651"/>
</g>
<!-- Node68 -->
<g id="node18" class="node"><title>Node68</title>
<g id="a_node18"><a xlink:href="_setup__2018__11_8cc.html" target="_top" xlink:title="src/expconfig/setups\l/Setup_2018_11.cc">
<polygon fill="white" stroke="black" points="1851.5,-73 1851.5,-103 1966.5,-103 1966.5,-73 1851.5,-73"/>
<text text-anchor="start" x="1859.5" y="-91" font-family="Helvetica,sans-Serif" font-size="10.00">src/expconfig/setups</text>
<text text-anchor="middle" x="1909" y="-80" font-family="Helvetica,sans-Serif" font-size="10.00">/Setup_2018_11.cc</text>
</a>
</g>
</g>
<!-- Node51&#45;&gt;Node68 -->
<g id="edge35" class="edge"><title>Node51&#45;&gt;Node68</title>
<path fill="none" stroke="midnightblue" d="M1786.71,-202.942C1779.53,-185.639 1773.87,-162.241 1785,-145 1794.35,-130.513 1833.37,-114.336 1865.17,-103.109"/>
<polygon fill="midnightblue" stroke="midnightblue" points="1783.66,-204.687 1790.99,-212.333 1790.03,-201.782 1783.66,-204.687"/>
</g>
<!-- Node69 -->
<g id="node19" class="node"><title>Node69</title>
<g id="a_node19"><a xlink:href="_setup__2019__01_8cc.html" target="_top" xlink:title="src/expconfig/setups\l/Setup_2019_01.cc">
<polygon fill="white" stroke="black" points="1984.5,-73 1984.5,-103 2099.5,-103 2099.5,-73 1984.5,-73"/>
<text text-anchor="start" x="1992.5" y="-91" font-family="Helvetica,sans-Serif" font-size="10.00">src/expconfig/setups</text>
<text text-anchor="middle" x="2042" y="-80" font-family="Helvetica,sans-Serif" font-size="10.00">/Setup_2019_01.cc</text>
</a>
</g>
</g>
<!-- Node51&#45;&gt;Node69 -->
<g id="edge36" class="edge"><title>Node51&#45;&gt;Node69</title>
<path fill="none" stroke="midnightblue" d="M1799.88,-202.032C1801.86,-183.828 1807.5,-159.688 1823,-145 1873.39,-97.2483 1907.93,-126.936 1975,-109 1981.92,-107.15 1989.21,-105.09 1996.33,-103.015"/>
<polygon fill="midnightblue" stroke="midnightblue" points="1796.37,-201.961 1799.08,-212.205 1803.35,-202.51 1796.37,-201.961"/>
</g>
<!-- Node70 -->
<g id="node20" class="node"><title>Node70</title>
<g id="a_node20"><a xlink:href="_setup__2019__06_8cc.html" target="_top" xlink:title="src/expconfig/setups\l/Setup_2019_06.cc">
<polygon fill="white" stroke="black" points="2117.5,-73 2117.5,-103 2232.5,-103 2232.5,-73 2117.5,-73"/>
<text text-anchor="start" x="2125.5" y="-91" font-family="Helvetica,sans-Serif" font-size="10.00">src/expconfig/setups</text>
<text text-anchor="middle" x="2175" y="-80" font-family="Helvetica,sans-Serif" font-size="10.00">/Setup_2019_06.cc</text>
</a>
</g>
</g>
<!-- Node51&#45;&gt;Node70 -->
<g id="edge37" class="edge"><title>Node51&#45;&gt;Node70</title>
<path fill="none" stroke="midnightblue" d="M1810.15,-203.33C1820.56,-184.387 1837.94,-158.592 1861,-145 1956.57,-88.6692 1999.67,-132.929 2108,-109 2115.59,-107.324 2123.57,-105.236 2131.27,-103.047"/>
<polygon fill="midnightblue" stroke="midnightblue" points="1807.02,-201.769 1805.48,-212.252 1813.22,-205.016 1807.02,-201.769"/>
</g>
<!-- Node71 -->
<g id="node21" class="node"><title>Node71</title>
<g id="a_node21"><a xlink:href="_setup__2019__07_8cc.html" target="_top" xlink:title="src/expconfig/setups\l/Setup_2019_07.cc">
<polygon fill="white" stroke="black" points="2250.5,-73 2250.5,-103 2365.5,-103 2365.5,-73 2250.5,-73"/>
<text text-anchor="start" x="2258.5" y="-91" font-family="Helvetica,sans-Serif" font-size="10.00">src/expconfig/setups</text>
<text text-anchor="middle" x="2308" y="-80" font-family="Helvetica,sans-Serif" font-size="10.00">/Setup_2019_07.cc</text>
</a>
</g>
</g>
<!-- Node51&#45;&gt;Node71 -->
<g id="edge38" class="edge"><title>Node51&#45;&gt;Node71</title>
<path fill="none" stroke="midnightblue" d="M1823.69,-205.789C1851.85,-182.251 1894.6,-146.831 1899,-145 2040.11,-86.2779 2091.13,-138.987 2241,-109 2248.86,-107.428 2257.11,-105.337 2265.05,-103.1"/>
<polygon fill="midnightblue" stroke="midnightblue" points="1821.25,-203.266 1815.82,-212.368 1825.74,-208.635 1821.25,-203.266"/>
</g>
<!-- Node72 -->
<g id="node22" class="node"><title>Node72</title>
<g id="a_node22"><a xlink:href="_setup__2019__09_8cc.html" target="_top" xlink:title="src/expconfig/setups\l/Setup_2019_09.cc">
<polygon fill="white" stroke="black" points="2383.5,-73 2383.5,-103 2498.5,-103 2498.5,-73 2383.5,-73"/>
<text text-anchor="start" x="2391.5" y="-91" font-family="Helvetica,sans-Serif" font-size="10.00">src/expconfig/setups</text>
<text text-anchor="middle" x="2441" y="-80" font-family="Helvetica,sans-Serif" font-size="10.00">/Setup_2019_09.cc</text>
</a>
</g>
</g>
<!-- Node51&#45;&gt;Node72 -->
<g id="edge39" class="edge"><title>Node51&#45;&gt;Node72</title>
<path fill="none" stroke="midnightblue" d="M1837.23,-207.685C1854.83,-198.642 1875.8,-187.324 1894,-176 1914,-163.553 1914.9,-153.154 1937,-145 2119.84,-77.5513 2182.49,-145.066 2374,-109 2382.11,-107.472 2390.64,-105.345 2398.8,-103.045"/>
<polygon fill="midnightblue" stroke="midnightblue" points="1835.16,-204.809 1827.84,-212.461 1838.34,-211.049 1835.16,-204.809"/>
</g>
<!-- Node74 -->
<g id="node24" class="node"><title>Node74</title>
<g id="a_node24"><a xlink:href="expconfig__helpers_8cc.html" target="_top" xlink:title="test/expconfig_helpers.cc">
<polygon fill="white" stroke="black" points="2517,-78.5 2517,-97.5 2655,-97.5 2655,-78.5 2517,-78.5"/>
<text text-anchor="middle" x="2586" y="-85.5" font-family="Helvetica,sans-Serif" font-size="10.00">test/expconfig_helpers.cc</text>
</a>
</g>
</g>
<!-- Node51&#45;&gt;Node74 -->
<g id="edge40" class="edge"><title>Node51&#45;&gt;Node74</title>
<path fill="none" stroke="midnightblue" d="M1854.68,-209.085C1878.59,-200.59 1906.4,-189.315 1930,-176 1949.59,-164.949 1948.97,-152.989 1970,-145 2081.8,-102.518 2388.88,-127.753 2507,-109 2523.91,-106.316 2542.48,-101.701 2557.37,-97.5801"/>
<polygon fill="midnightblue" stroke="midnightblue" points="1853.33,-205.847 1845.04,-212.436 1855.63,-212.459 1853.33,-205.847"/>
</g>
<!-- Node75 -->
<g id="node25" class="node"><title>Node75</title>
<g id="a_node25"><a xlink:href="_multi_hit_reference_8cc.html" target="_top" xlink:title="src/calibration/converters\l/MultiHitReference.cc">
<polygon fill="white" stroke="black" points="1979.5,-145.5 1979.5,-175.5 2116.5,-175.5 2116.5,-145.5 1979.5,-145.5"/>
<text text-anchor="start" x="1987.5" y="-163.5" font-family="Helvetica,sans-Serif" font-size="10.00">src/calibration/converters</text>
<text text-anchor="middle" x="2048" y="-152.5" font-family="Helvetica,sans-Serif" font-size="10.00">/MultiHitReference.cc</text>
</a>
</g>
</g>
<!-- Node51&#45;&gt;Node75 -->
<g id="edge24" class="edge"><title>Node51&#45;&gt;Node75</title>
<path fill="none" stroke="midnightblue" d="M1862.53,-209.917C1903.16,-199.31 1955.3,-185.699 1993.94,-175.611"/>
<polygon fill="midnightblue" stroke="midnightblue" points="1861.51,-206.564 1852.72,-212.476 1863.28,-213.337 1861.51,-206.564"/>
</g>
<!-- Node76 -->
<g id="node26" class="node"><title>Node76</title>
<g id="a_node26"><a xlink:href="_setup__2017__12_8cc.html" target="_top" xlink:title="src/expconfig/setups\l/Setup_2017_12.cc">
<polygon fill="white" stroke="black" points="2134.5,-145.5 2134.5,-175.5 2249.5,-175.5 2249.5,-145.5 2134.5,-145.5"/>
<text text-anchor="start" x="2142.5" y="-163.5" font-family="Helvetica,sans-Serif" font-size="10.00">src/expconfig/setups</text>
<text text-anchor="middle" x="2192" y="-152.5" font-family="Helvetica,sans-Serif" font-size="10.00">/Setup_2017_12.cc</text>
</a>
</g>
</g>
<!-- Node51&#45;&gt;Node76 -->
<g id="edge31" class="edge"><title>Node51&#45;&gt;Node76</title>
<path fill="none" stroke="midnightblue" d="M1877.51,-215.673C1943.68,-206.229 2040.77,-191.623 2125,-176 2128.04,-175.436 2131.16,-174.836 2134.3,-174.215"/>
<polygon fill="midnightblue" stroke="midnightblue" points="1876.98,-212.214 1867.57,-217.087 1877.97,-219.144 1876.98,-212.214"/>
</g>
<!-- Node77 -->
<g id="node27" class="node"><title>Node77</title>
<g id="a_node27"><a xlink:href="_setup__2018__03_8cc.html" target="_top" xlink:title="src/expconfig/setups\l/Setup_2018_03.cc">
<polygon fill="white" stroke="black" points="2267.5,-145.5 2267.5,-175.5 2382.5,-175.5 2382.5,-145.5 2267.5,-145.5"/>
<text text-anchor="start" x="2275.5" y="-163.5" font-family="Helvetica,sans-Serif" font-size="10.00">src/expconfig/setups</text>
<text text-anchor="middle" x="2325" y="-152.5" font-family="Helvetica,sans-Serif" font-size="10.00">/Setup_2018_03.cc</text>
</a>
</g>
</g>
<!-- Node51&#45;&gt;Node77 -->
<g id="edge32" class="edge"><title>Node51&#45;&gt;Node77</title>
<path fill="none" stroke="midnightblue" d="M1877.77,-220.331C1969.47,-212.573 2125.29,-197.601 2258,-176 2261.05,-175.503 2264.18,-174.957 2267.33,-174.378"/>
<polygon fill="midnightblue" stroke="midnightblue" points="1877.41,-216.85 1867.73,-221.173 1877.99,-223.825 1877.41,-216.85"/>
</g>
<!-- Node78 -->
<g id="node28" class="node"><title>Node78</title>
<g id="a_node28"><a xlink:href="_setup__2018__05_8cc.html" target="_top" xlink:title="src/expconfig/setups\l/Setup_2018_05.cc">
<polygon fill="white" stroke="black" points="2400.5,-145.5 2400.5,-175.5 2515.5,-175.5 2515.5,-145.5 2400.5,-145.5"/>
<text text-anchor="start" x="2408.5" y="-163.5" font-family="Helvetica,sans-Serif" font-size="10.00">src/expconfig/setups</text>
<text text-anchor="middle" x="2458" y="-152.5" font-family="Helvetica,sans-Serif" font-size="10.00">/Setup_2018_05.cc</text>
</a>
</g>
</g>
<!-- Node51&#45;&gt;Node78 -->
<g id="edge33" class="edge"><title>Node51&#45;&gt;Node78</title>
<path fill="none" stroke="midnightblue" d="M1877.72,-222.996C1991.5,-217.206 2208.31,-203.445 2391,-176 2394.06,-175.54 2397.19,-175.024 2400.34,-174.468"/>
<polygon fill="midnightblue" stroke="midnightblue" points="1877.51,-219.502 1867.7,-223.499 1877.86,-226.493 1877.51,-219.502"/>
</g>
<!-- Node79 -->
<g id="node29" class="node"><title>Node79</title>
<g id="a_node29"><a xlink:href="_setup__2018__09_8cc.html" target="_top" xlink:title="src/expconfig/setups\l/Setup_2018_09.cc">
<polygon fill="white" stroke="black" points="2533.5,-145.5 2533.5,-175.5 2648.5,-175.5 2648.5,-145.5 2533.5,-145.5"/>
<text text-anchor="start" x="2541.5" y="-163.5" font-family="Helvetica,sans-Serif" font-size="10.00">src/expconfig/setups</text>
<text text-anchor="middle" x="2591" y="-152.5" font-family="Helvetica,sans-Serif" font-size="10.00">/Setup_2018_09.cc</text>
</a>
</g>
</g>
<!-- Node51&#45;&gt;Node79 -->
<g id="edge34" class="edge"><title>Node51&#45;&gt;Node79</title>
<path fill="none" stroke="midnightblue" d="M1877.82,-224.803C2011.54,-221.079 2291.14,-209.638 2525,-176 2527.79,-175.599 2530.63,-175.146 2533.5,-174.654"/>
<polygon fill="midnightblue" stroke="midnightblue" points="1877.57,-221.308 1867.67,-225.078 1877.76,-228.306 1877.57,-221.308"/>
</g>
<!-- Node54 -->
<g id="node4" class="node"><title>Node54</title>
<g id="a_node4"><a xlink:href="analysis_2physics_2calibration_2_c_b___source_calib_8h.html" target="_top" xlink:title="src/analysis/physics\l/calibration/CB_SourceCalib.h">
<polygon fill="white" stroke="black" points="712.5,-73 712.5,-103 869.5,-103 869.5,-73 712.5,-73"/>
<text text-anchor="start" x="720.5" y="-91" font-family="Helvetica,sans-Serif" font-size="10.00">src/analysis/physics</text>
<text text-anchor="middle" x="791" y="-80" font-family="Helvetica,sans-Serif" font-size="10.00">/calibration/CB_SourceCalib.h</text>
</a>
</g>
</g>
<!-- Node53&#45;&gt;Node54 -->
<g id="edge3" class="edge"><title>Node53&#45;&gt;Node54</title>
<path fill="none" stroke="midnightblue" d="M1441.95,-145.487C1440.63,-145.318 1439.31,-145.156 1438,-145 1190.35,-115.496 1124.78,-145.056 878,-109 867.572,-107.476 856.545,-105.351 845.974,-103.051"/>
<polygon fill="midnightblue" stroke="midnightblue" points="1441.86,-149.008 1452.24,-146.895 1442.81,-142.072 1441.86,-149.008"/>
</g>
<!-- Node56 -->
<g id="node6" class="node"><title>Node56</title>
<g id="a_node6"><a xlink:href="analysis_2physics_2calibration_2_c_b___time_walk_8cc.html" target="_top" xlink:title="src/analysis/physics\l/calibration/CB_TimeWalk.cc">
<polygon fill="white" stroke="black" points="887.5,-73 887.5,-103 1036.5,-103 1036.5,-73 887.5,-73"/>
<text text-anchor="start" x="895.5" y="-91" font-family="Helvetica,sans-Serif" font-size="10.00">src/analysis/physics</text>
<text text-anchor="middle" x="962" y="-80" font-family="Helvetica,sans-Serif" font-size="10.00">/calibration/CB_TimeWalk.cc</text>
</a>
</g>
</g>
<!-- Node53&#45;&gt;Node56 -->
<g id="edge5" class="edge"><title>Node53&#45;&gt;Node56</title>
<path fill="none" stroke="midnightblue" d="M1441.95,-145.537C1440.62,-145.353 1439.31,-145.173 1438,-145 1264.13,-121.888 1218.05,-137.62 1045,-109 1035.35,-107.404 1025.16,-105.301 1015.34,-103.06"/>
<polygon fill="midnightblue" stroke="midnightblue" points="1441.82,-149.056 1452.22,-147.04 1442.84,-142.13 1441.82,-149.056"/>
</g>
<!-- Node57 -->
<g id="node7" class="node"><title>Node57</title>
<g id="a_node7"><a xlink:href="checkcb_8h.html" target="_top" xlink:title="src/analysis/physics\l/scratch/lheijken/checkcb.h">
<polygon fill="white" stroke="black" points="1054.5,-73 1054.5,-103 1199.5,-103 1199.5,-73 1054.5,-73"/>
<text text-anchor="start" x="1062.5" y="-91" font-family="Helvetica,sans-Serif" font-size="10.00">src/analysis/physics</text>
<text text-anchor="middle" x="1127" y="-80" font-family="Helvetica,sans-Serif" font-size="10.00">/scratch/lheijken/checkcb.h</text>
</a>
</g>
</g>
<!-- Node53&#45;&gt;Node57 -->
<g id="edge6" class="edge"><title>Node53&#45;&gt;Node57</title>
<path fill="none" stroke="midnightblue" d="M1441.93,-145.653C1440.61,-145.433 1439.3,-145.215 1438,-145 1335.92,-128.096 1309.43,-129.42 1208,-109 1199.34,-107.256 1190.21,-105.208 1181.32,-103.099"/>
<polygon fill="midnightblue" stroke="midnightblue" points="1441.73,-149.169 1452.17,-147.38 1442.89,-142.267 1441.73,-149.169"/>
</g>
<!-- Node59 -->
<g id="node9" class="node"><title>Node59</title>
<g id="a_node9"><a xlink:href="checktaps_8h.html" target="_top" xlink:title="src/analysis/physics\l/scratch/lheijken/checktaps.h">
<polygon fill="white" stroke="black" points="1217.5,-73 1217.5,-103 1372.5,-103 1372.5,-73 1217.5,-73"/>
<text text-anchor="start" x="1225.5" y="-91" font-family="Helvetica,sans-Serif" font-size="10.00">src/analysis/physics</text>
<text text-anchor="middle" x="1295" y="-80" font-family="Helvetica,sans-Serif" font-size="10.00">/scratch/lheijken/checktaps.h</text>
</a>
</g>
</g>
<!-- Node53&#45;&gt;Node59 -->
<g id="edge8" class="edge"><title>Node53&#45;&gt;Node59</title>
<path fill="none" stroke="midnightblue" d="M1466.05,-142.358C1427.46,-130.32 1376.46,-114.412 1340.22,-103.107"/>
<polygon fill="midnightblue" stroke="midnightblue" points="1465.49,-145.85 1476.08,-145.487 1467.58,-139.168 1465.49,-145.85"/>
</g>
<!-- Node53&#45;&gt;Node61 -->
<g id="edge10" class="edge"><title>Node53&#45;&gt;Node61</title>
<path fill="none" stroke="midnightblue" d="M1442.27,-154.04C1396.65,-151.027 1338.1,-147.417 1286,-145 1029.04,-133.078 383.087,-149.122 129,-109 120.253,-107.619 111.051,-105.465 102.318,-103.074"/>
<polygon fill="midnightblue" stroke="midnightblue" points="1442.18,-157.542 1452.39,-154.713 1442.65,-150.558 1442.18,-157.542"/>
</g>
<!-- Node53&#45;&gt;Node62 -->
<g id="edge11" class="edge"><title>Node53&#45;&gt;Node62</title>
<path fill="none" stroke="midnightblue" d="M1441.79,-152.964C1405.85,-150.181 1362.8,-147.099 1324,-145 862.176,-120.02 741.688,-175.536 284,-109 274.296,-107.589 264.052,-105.423 254.313,-103.028"/>
<polygon fill="midnightblue" stroke="midnightblue" points="1441.97,-156.488 1452.21,-153.778 1442.51,-149.51 1441.97,-156.488"/>
</g>
<!-- Node53&#45;&gt;Node63 -->
<g id="edge12" class="edge"><title>Node53&#45;&gt;Node63</title>
<path fill="none" stroke="midnightblue" d="M1442.18,-151.483C1416.62,-149.105 1388.13,-146.688 1362,-145 943.013,-117.925 832.22,-177.591 418,-109 409.497,-107.592 400.557,-105.427 392.076,-103.032"/>
<polygon fill="midnightblue" stroke="midnightblue" points="1441.91,-154.972 1452.19,-152.426 1442.56,-148.003 1441.91,-154.972"/>
</g>
<!-- Node53&#45;&gt;Node64 -->
<g id="edge13" class="edge"><title>Node53&#45;&gt;Node64</title>
<path fill="none" stroke="midnightblue" d="M1442.19,-149.179C1428.15,-147.591 1413.66,-146.113 1400,-145 1031.98,-115.012 935.071,-164.3 570,-109 560.557,-107.57 550.596,-105.426 541.106,-103.066"/>
<polygon fill="midnightblue" stroke="midnightblue" points="1441.97,-152.676 1452.3,-150.35 1442.77,-145.723 1441.97,-152.676"/>
</g>
<!-- Node53&#45;&gt;Node65 -->
<g id="edge14" class="edge"><title>Node53&#45;&gt;Node65</title>
<path fill="none" stroke="midnightblue" d="M1441.95,-145.46C1440.63,-145.299 1439.31,-145.146 1438,-145 1112.95,-108.788 1025.26,-164.844 703,-109 694.742,-107.569 686.065,-105.425 677.817,-103.065"/>
<polygon fill="midnightblue" stroke="midnightblue" points="1441.88,-148.98 1452.25,-146.813 1442.79,-142.04 1441.88,-148.98"/>
</g>
<!-- Node53&#45;&gt;Node66 -->
<g id="edge15" class="edge"><title>Node53&#45;&gt;Node66</title>
<path fill="none" stroke="midnightblue" d="M1584.99,-142.78C1621.41,-133.147 1667.84,-120.67 1709,-109 1715.66,-107.113 1722.67,-105.074 1729.55,-103.046"/>
<polygon fill="midnightblue" stroke="midnightblue" points="1583.77,-139.482 1575,-145.419 1585.56,-146.25 1583.77,-139.482"/>
</g>
<!-- Node67 -->
<g id="node17" class="node"><title>Node67</title>
<g id="a_node17"><a xlink:href="_setup__2017_plus___new_tagger___base_8cc.html" target="_top" xlink:title="src/expconfig/setups\l/Setup_2017Plus_NewTagger\l_Base.cc">
<polygon fill="white" stroke="black" points="1391,-67.5 1391,-108.5 1545,-108.5 1545,-67.5 1391,-67.5"/>
<text text-anchor="start" x="1399" y="-96.5" font-family="Helvetica,sans-Serif" font-size="10.00">src/expconfig/setups</text>
<text text-anchor="start" x="1399" y="-85.5" font-family="Helvetica,sans-Serif" font-size="10.00">/Setup_2017Plus_NewTagger</text>
<text text-anchor="middle" x="1468" y="-74.5" font-family="Helvetica,sans-Serif" font-size="10.00">_Base.cc</text>
</a>
</g>
</g>
<!-- Node53&#45;&gt;Node67 -->
<g id="edge16" class="edge"><title>Node53&#45;&gt;Node67</title>
<path fill="none" stroke="midnightblue" d="M1504.07,-136.978C1497.2,-127.846 1489.35,-117.398 1482.73,-108.588"/>
<polygon fill="midnightblue" stroke="midnightblue" points="1501.47,-139.343 1510.27,-145.233 1507.06,-135.137 1501.47,-139.343"/>
</g>
<!-- Node53&#45;&gt;Node68 -->
<g id="edge17" class="edge"><title>Node53&#45;&gt;Node68</title>
<path fill="none" stroke="midnightblue" d="M1599.98,-150.077C1665.3,-141.567 1760.27,-127.539 1842,-109 1849.46,-107.308 1857.3,-105.238 1864.89,-103.078"/>
<polygon fill="midnightblue" stroke="midnightblue" points="1599.23,-146.645 1589.76,-151.395 1600.13,-153.587 1599.23,-146.645"/>
</g>
<!-- Node53&#45;&gt;Node69 -->
<g id="edge18" class="edge"><title>Node53&#45;&gt;Node69</title>
<path fill="none" stroke="midnightblue" d="M1599.91,-155.027C1691,-148.873 1844.98,-135.416 1975,-109 1982.85,-107.405 1991.11,-105.303 1999.04,-103.061"/>
<polygon fill="midnightblue" stroke="midnightblue" points="1599.41,-151.553 1589.66,-155.707 1599.87,-158.537 1599.41,-151.553"/>
</g>
<!-- Node53&#45;&gt;Node70 -->
<g id="edge19" class="edge"><title>Node53&#45;&gt;Node70</title>
<path fill="none" stroke="midnightblue" d="M1599.7,-154.731C1736.51,-146.105 2012.73,-127.121 2108,-109 2116.11,-107.458 2124.64,-105.324 2132.79,-103.021"/>
<polygon fill="midnightblue" stroke="midnightblue" points="1599.45,-151.239 1589.69,-155.359 1599.89,-158.225 1599.45,-151.239"/>
</g>
<!-- Node53&#45;&gt;Node71 -->
<g id="edge20" class="edge"><title>Node53&#45;&gt;Node71</title>
<path fill="none" stroke="midnightblue" d="M1599.83,-156.164C1760.27,-149.013 2119.84,-131.054 2241,-109 2249.24,-107.5 2257.91,-105.356 2266.17,-103.023"/>
<polygon fill="midnightblue" stroke="midnightblue" points="1599.39,-152.68 1589.55,-156.619 1599.7,-159.673 1599.39,-152.68"/>
</g>
<!-- Node53&#45;&gt;Node72 -->
<g id="edge21" class="edge"><title>Node53&#45;&gt;Node72</title>
<path fill="none" stroke="midnightblue" d="M1599.93,-155.869C1796.79,-146.665 2299.1,-122.213 2374,-109 2382.25,-107.545 2390.92,-105.421 2399.18,-103.095"/>
<polygon fill="midnightblue" stroke="midnightblue" points="1599.48,-152.386 1589.66,-156.349 1599.81,-159.378 1599.48,-152.386"/>
</g>
<!-- Node73 -->
<g id="node23" class="node"><title>Node73</title>
<g id="a_node23"><a xlink:href="_setup___c_b_source_calib_8cc.html" target="_top" xlink:title="src/expconfig/setups\l/Setup_CBSourceCalib.cc">
<polygon fill="white" stroke="black" points="1563.5,-73 1563.5,-103 1700.5,-103 1700.5,-73 1563.5,-73"/>
<text text-anchor="start" x="1571.5" y="-91" font-family="Helvetica,sans-Serif" font-size="10.00">src/expconfig/setups</text>
<text text-anchor="middle" x="1632" y="-80" font-family="Helvetica,sans-Serif" font-size="10.00">/Setup_CBSourceCalib.cc</text>
</a>
</g>
</g>
<!-- Node53&#45;&gt;Node73 -->
<g id="edge22" class="edge"><title>Node53&#45;&gt;Node73</title>
<path fill="none" stroke="midnightblue" d="M1551.82,-139.922C1570.24,-128.224 1593.22,-113.634 1609.84,-103.073"/>
<polygon fill="midnightblue" stroke="midnightblue" points="1549.76,-137.087 1543.2,-145.403 1553.51,-142.996 1549.76,-137.087"/>
</g>
<!-- Node53&#45;&gt;Node74 -->
<g id="edge23" class="edge"><title>Node53&#45;&gt;Node74</title>
<path fill="none" stroke="midnightblue" d="M1599.75,-156.359C1817.68,-147.543 2418.47,-122.341 2507,-109 2524.07,-106.428 2542.81,-101.765 2557.75,-97.5886"/>
<polygon fill="midnightblue" stroke="midnightblue" points="1599.52,-152.866 1589.67,-156.767 1599.8,-159.86 1599.52,-152.866"/>
</g>
<!-- Node55 -->
<g id="node5" class="node"><title>Node55</title>
<g id="a_node5"><a xlink:href="analysis_2physics_2calibration_2_c_b___source_calib_8cc.html" target="_top" xlink:title="src/analysis/physics\l/calibration/CB_SourceCalib.cc">
<polygon fill="white" stroke="black" points="710.5,-0.5 710.5,-30.5 871.5,-30.5 871.5,-0.5 710.5,-0.5"/>
<text text-anchor="start" x="718.5" y="-18.5" font-family="Helvetica,sans-Serif" font-size="10.00">src/analysis/physics</text>
<text text-anchor="middle" x="791" y="-7.5" font-family="Helvetica,sans-Serif" font-size="10.00">/calibration/CB_SourceCalib.cc</text>
</a>
</g>
</g>
<!-- Node54&#45;&gt;Node55 -->
<g id="edge4" class="edge"><title>Node54&#45;&gt;Node55</title>
<path fill="none" stroke="midnightblue" d="M791,-62.7317C791,-52.0679 791,-39.9145 791,-30.7455"/>
<polygon fill="midnightblue" stroke="midnightblue" points="787.5,-62.7332 791,-72.7333 794.5,-62.7333 787.5,-62.7332"/>
</g>
<!-- Node58 -->
<g id="node8" class="node"><title>Node58</title>
<g id="a_node8"><a xlink:href="checkcb_8cc.html" target="_top" xlink:title="src/analysis/physics\l/scratch/lheijken/checkcb.cc">
<polygon fill="white" stroke="black" points="1050.5,-0.5 1050.5,-30.5 1199.5,-30.5 1199.5,-0.5 1050.5,-0.5"/>
<text text-anchor="start" x="1058.5" y="-18.5" font-family="Helvetica,sans-Serif" font-size="10.00">src/analysis/physics</text>
<text text-anchor="middle" x="1125" y="-7.5" font-family="Helvetica,sans-Serif" font-size="10.00">/scratch/lheijken/checkcb.cc</text>
</a>
</g>
</g>
<!-- Node57&#45;&gt;Node58 -->
<g id="edge7" class="edge"><title>Node57&#45;&gt;Node58</title>
<path fill="none" stroke="midnightblue" d="M1126.31,-62.7317C1126.01,-52.0679 1125.66,-39.9145 1125.4,-30.7455"/>
<polygon fill="midnightblue" stroke="midnightblue" points="1122.81,-62.8366 1126.6,-72.7333 1129.81,-62.638 1122.81,-62.8366"/>
</g>
<!-- Node60 -->
<g id="node10" class="node"><title>Node60</title>
<g id="a_node10"><a xlink:href="checktaps_8cc.html" target="_top" xlink:title="src/analysis/physics\l/scratch/lheijken/checktaps.cc">
<polygon fill="white" stroke="black" points="1217.5,-0.5 1217.5,-30.5 1376.5,-30.5 1376.5,-0.5 1217.5,-0.5"/>
<text text-anchor="start" x="1225.5" y="-18.5" font-family="Helvetica,sans-Serif" font-size="10.00">src/analysis/physics</text>
<text text-anchor="middle" x="1297" y="-7.5" font-family="Helvetica,sans-Serif" font-size="10.00">/scratch/lheijken/checktaps.cc</text>
</a>
</g>
</g>
<!-- Node59&#45;&gt;Node60 -->
<g id="edge9" class="edge"><title>Node59&#45;&gt;Node60</title>
<path fill="none" stroke="midnightblue" d="M1295.69,-62.7317C1295.99,-52.0679 1296.34,-39.9145 1296.6,-30.7455"/>
<polygon fill="midnightblue" stroke="midnightblue" points="1292.19,-62.638 1295.4,-72.7333 1299.19,-62.8366 1292.19,-62.638"/>
</g>
</g>
</svg>
