<?xml version="1.0" encoding="UTF-8" standalone="no"?>
<!DOCTYPE svg PUBLIC "-//W3C//DTD SVG 1.1//EN"
 "http://www.w3.org/Graphics/SVG/1.1/DTD/svg11.dtd">
<!-- Generated by graphviz version 2.38.0 (20140413.2041)
 -->
<!-- Title: src/calibration/converters/MultiHit.h Pages: 1 -->
<svg width="2663pt" height="318pt"
 viewBox="0.00 0.00 2663.00 318.00" xmlns="http://www.w3.org/2000/svg" xmlns:xlink="http://www.w3.org/1999/xlink">
<g id="graph0" class="graph" transform="scale(1 1) rotate(0) translate(4 314)">
<title>src/calibration/converters/MultiHit.h</title>
<polygon fill="white" stroke="none" points="-4,4 -4,-314 2659,-314 2659,4 -4,4"/>
<!-- Node49 -->
<g id="node1" class="node"><title>Node49</title>
<polygon fill="#bfbfbf" stroke="black" points="1670,-279.5 1670,-309.5 1807,-309.5 1807,-279.5 1670,-279.5"/>
<text text-anchor="start" x="1678" y="-297.5" font-family="Helvetica,sans-Serif" font-size="10.00">src/calibration/converters</text>
<text text-anchor="middle" x="1738.5" y="-286.5" font-family="Helvetica,sans-Serif" font-size="10.00">/MultiHit.h</text>
</g>
<!-- Node50 -->
<g id="node2" class="node"><title>Node50</title>
<g id="a_node2"><a xlink:href="_multi_hit_reference_8h.html" target="_top" xlink:title="src/calibration/converters\l/MultiHitReference.h">
<polygon fill="white" stroke="black" points="1212,-212.5 1212,-242.5 1349,-242.5 1349,-212.5 1212,-212.5"/>
<text text-anchor="start" x="1220" y="-230.5" font-family="Helvetica,sans-Serif" font-size="10.00">src/calibration/converters</text>
<text text-anchor="middle" x="1280.5" y="-219.5" font-family="Helvetica,sans-Serif" font-size="10.00">/MultiHitReference.h</text>
</a>
</g>
</g>
<!-- Node49&#45;&gt;Node50 -->
<g id="edge1" class="edge"><title>Node49&#45;&gt;Node50</title>
<path fill="none" stroke="midnightblue" d="M1659.79,-282.33C1572.3,-269.912 1432.38,-250.055 1349.16,-238.244"/>
<polygon fill="midnightblue" stroke="midnightblue" points="1659.54,-285.829 1669.93,-283.769 1660.52,-278.898 1659.54,-285.829"/>
</g>
<!-- Node60 -->
<g id="node12" class="node"><title>Node60</title>
<g id="a_node12"><a xlink:href="_setup__2007___base_8cc.html" target="_top" xlink:title="src/expconfig/setups\l/Setup_2007_Base.cc">
<polygon fill="white" stroke="black" points="2051.5,-73 2051.5,-103 2171.5,-103 2171.5,-73 2051.5,-73"/>
<text text-anchor="start" x="2059.5" y="-91" font-family="Helvetica,sans-Serif" font-size="10.00">src/expconfig/setups</text>
<text text-anchor="middle" x="2111.5" y="-80" font-family="Helvetica,sans-Serif" font-size="10.00">/Setup_2007_Base.cc</text>
</a>
</g>
</g>
<!-- Node49&#45;&gt;Node60 -->
<g id="edge42" class="edge"><title>Node49&#45;&gt;Node60</title>
<path fill="none" stroke="midnightblue" d="M1817.29,-288.615C1894.79,-282.373 2006.34,-269.093 2040.5,-243 2087.06,-207.439 2104.14,-134.108 2109.43,-103.215"/>
<polygon fill="midnightblue" stroke="midnightblue" points="1816.76,-285.145 1807.06,-289.414 1817.3,-292.124 1816.76,-285.145"/>
</g>
<!-- Node61 -->
<g id="node13" class="node"><title>Node61</title>
<g id="a_node13"><a xlink:href="_setup__2010__03___base_8cc.html" target="_top" xlink:title="src/expconfig/setups\l/Setup_2010_03_Base.cc">
<polygon fill="white" stroke="black" points="2190,-73 2190,-103 2327,-103 2327,-73 2190,-73"/>
<text text-anchor="start" x="2198" y="-91" font-family="Helvetica,sans-Serif" font-size="10.00">src/expconfig/setups</text>
<text text-anchor="middle" x="2258.5" y="-80" font-family="Helvetica,sans-Serif" font-size="10.00">/Setup_2010_03_Base.cc</text>
</a>
</g>
</g>
<!-- Node49&#45;&gt;Node61 -->
<g id="edge43" class="edge"><title>Node49&#45;&gt;Node61</title>
<path fill="none" stroke="midnightblue" d="M1817.43,-293.035C1886.62,-289.978 1988.51,-278.932 2069.5,-243 2146.49,-208.843 2217.99,-134.733 2246.01,-103.424"/>
<polygon fill="midnightblue" stroke="midnightblue" points="1816.89,-289.553 1807.04,-293.445 1817.17,-296.548 1816.89,-289.553"/>
</g>
<!-- Node62 -->
<g id="node14" class="node"><title>Node62</title>
<g id="a_node14"><a xlink:href="_setup__2014___e_p_t_8cc.html" target="_top" xlink:title="src/expconfig/setups\l/Setup_2014_EPT.cc">
<polygon fill="white" stroke="black" points="0,-73 0,-103 115,-103 115,-73 0,-73"/>
<text text-anchor="start" x="8" y="-91" font-family="Helvetica,sans-Serif" font-size="10.00">src/expconfig/setups</text>
<text text-anchor="middle" x="57.5" y="-80" font-family="Helvetica,sans-Serif" font-size="10.00">/Setup_2014_EPT.cc</text>
</a>
</g>
</g>
<!-- Node49&#45;&gt;Node62 -->
<g id="edge44" class="edge"><title>Node49&#45;&gt;Node62</title>
<path fill="none" stroke="midnightblue" d="M1659.5,-292.656C1384.45,-289.435 478.61,-276.382 352.5,-243 240.241,-213.285 122.405,-135.295 76.9539,-103.156"/>
<polygon fill="midnightblue" stroke="midnightblue" points="1659.76,-296.159 1669.8,-292.775 1659.84,-289.159 1659.76,-296.159"/>
</g>
<!-- Node63 -->
<g id="node15" class="node"><title>Node63</title>
<g id="a_node15"><a xlink:href="_setup__2015__01___pion_8cc.html" target="_top" xlink:title="src/expconfig/setups\l/Setup_2015_01_Pion.cc">
<polygon fill="white" stroke="black" points="133.5,-73 133.5,-103 267.5,-103 267.5,-73 133.5,-73"/>
<text text-anchor="start" x="141.5" y="-91" font-family="Helvetica,sans-Serif" font-size="10.00">src/expconfig/setups</text>
<text text-anchor="middle" x="200.5" y="-80" font-family="Helvetica,sans-Serif" font-size="10.00">/Setup_2015_01_Pion.cc</text>
</a>
</g>
</g>
<!-- Node49&#45;&gt;Node63 -->
<g id="edge45" class="edge"><title>Node49&#45;&gt;Node63</title>
<path fill="none" stroke="midnightblue" d="M1659.39,-293.031C1393.23,-291.098 540.349,-281.902 423.5,-243 333.772,-213.127 247.472,-135.228 214.532,-103.134"/>
<polygon fill="midnightblue" stroke="midnightblue" points="1659.71,-296.533 1669.74,-293.104 1659.76,-289.533 1659.71,-296.533"/>
</g>
<!-- Node64 -->
<g id="node16" class="node"><title>Node64</title>
<g id="a_node16"><a xlink:href="_setup__2017__03_8cc.html" target="_top" xlink:title="src/expconfig/setups\l/Setup_2017_03.cc">
<polygon fill="white" stroke="black" points="286,-73 286,-103 401,-103 401,-73 286,-73"/>
<text text-anchor="start" x="294" y="-91" font-family="Helvetica,sans-Serif" font-size="10.00">src/expconfig/setups</text>
<text text-anchor="middle" x="343.5" y="-80" font-family="Helvetica,sans-Serif" font-size="10.00">/Setup_2017_03.cc</text>
</a>
</g>
</g>
<!-- Node49&#45;&gt;Node64 -->
<g id="edge46" class="edge"><title>Node49&#45;&gt;Node64</title>
<path fill="none" stroke="midnightblue" d="M1659.83,-292.165C1390.75,-287.364 520.814,-269.834 467.5,-243 406.178,-212.135 364.988,-135.502 349.902,-103.453"/>
<polygon fill="midnightblue" stroke="midnightblue" points="1659.85,-295.665 1669.91,-292.343 1659.97,-288.666 1659.85,-295.665"/>
</g>
<!-- Node65 -->
<g id="node17" class="node"><title>Node65</title>
<g id="a_node17"><a xlink:href="_setup__2017__05_8cc.html" target="_top" xlink:title="src/expconfig/setups\l/Setup_2017_05.cc">
<polygon fill="white" stroke="black" points="419,-73 419,-103 534,-103 534,-73 419,-73"/>
<text text-anchor="start" x="427" y="-91" font-family="Helvetica,sans-Serif" font-size="10.00">src/expconfig/setups</text>
<text text-anchor="middle" x="476.5" y="-80" font-family="Helvetica,sans-Serif" font-size="10.00">/Setup_2017_05.cc</text>
</a>
</g>
</g>
<!-- Node49&#45;&gt;Node65 -->
<g id="edge47" class="edge"><title>Node49&#45;&gt;Node65</title>
<path fill="none" stroke="midnightblue" d="M1659.45,-292.466C1394.14,-288.71 549.28,-274.334 500.5,-243 461.711,-218.084 462.432,-190.923 466.5,-145 467.772,-130.637 470.846,-114.443 473.252,-103.177"/>
<polygon fill="midnightblue" stroke="midnightblue" points="1659.72,-295.97 1669.77,-292.611 1659.82,-288.971 1659.72,-295.97"/>
</g>
<!-- Node66 -->
<g id="node18" class="node"><title>Node66</title>
<g id="a_node18"><a xlink:href="_setup__2017_plus___new_tagger___base_8cc.html" target="_top" xlink:title="src/expconfig/setups\l/Setup_2017Plus_NewTagger\l_Base.cc">
<polygon fill="white" stroke="black" points="2345.5,-67.5 2345.5,-108.5 2499.5,-108.5 2499.5,-67.5 2345.5,-67.5"/>
<text text-anchor="start" x="2353.5" y="-96.5" font-family="Helvetica,sans-Serif" font-size="10.00">src/expconfig/setups</text>
<text text-anchor="start" x="2353.5" y="-85.5" font-family="Helvetica,sans-Serif" font-size="10.00">/Setup_2017Plus_NewTagger</text>
<text text-anchor="middle" x="2422.5" y="-74.5" font-family="Helvetica,sans-Serif" font-size="10.00">_Base.cc</text>
</a>
</g>
</g>
<!-- Node49&#45;&gt;Node66 -->
<g id="edge49" class="edge"><title>Node49&#45;&gt;Node66</title>
<path fill="none" stroke="midnightblue" d="M1817.14,-290.193C1893.54,-285.275 2012.08,-273.092 2110.5,-243 2219.39,-209.708 2337.08,-141.948 2391.58,-108.53"/>
<polygon fill="midnightblue" stroke="midnightblue" points="1816.88,-286.702 1807.11,-290.812 1817.31,-293.689 1816.88,-286.702"/>
</g>
<!-- Node67 -->
<g id="node19" class="node"><title>Node67</title>
<g id="a_node19"><a xlink:href="_setup__2018__11_8cc.html" target="_top" xlink:title="src/expconfig/setups\l/Setup_2018_11.cc">
<polygon fill="white" stroke="black" points="552,-73 552,-103 667,-103 667,-73 552,-73"/>
<text text-anchor="start" x="560" y="-91" font-family="Helvetica,sans-Serif" font-size="10.00">src/expconfig/setups</text>
<text text-anchor="middle" x="609.5" y="-80" font-family="Helvetica,sans-Serif" font-size="10.00">/Setup_2018_11.cc</text>
</a>
</g>
</g>
<!-- Node49&#45;&gt;Node67 -->
<g id="edge53" class="edge"><title>Node49&#45;&gt;Node67</title>
<path fill="none" stroke="midnightblue" d="M1659.49,-292.35C1416.13,-288.487 688.21,-274.411 586.5,-243 524.57,-223.874 442.795,-199.094 478.5,-145 488.378,-130.034 529.093,-114.056 562.544,-103.014"/>
<polygon fill="midnightblue" stroke="midnightblue" points="1659.62,-295.853 1669.67,-292.51 1659.73,-288.853 1659.62,-295.853"/>
</g>
<!-- Node68 -->
<g id="node20" class="node"><title>Node68</title>
<g id="a_node20"><a xlink:href="_setup__2019__01_8cc.html" target="_top" xlink:title="src/expconfig/setups\l/Setup_2019_01.cc">
<polygon fill="white" stroke="black" points="685,-73 685,-103 800,-103 800,-73 685,-73"/>
<text text-anchor="start" x="693" y="-91" font-family="Helvetica,sans-Serif" font-size="10.00">src/expconfig/setups</text>
<text text-anchor="middle" x="742.5" y="-80" font-family="Helvetica,sans-Serif" font-size="10.00">/Setup_2019_01.cc</text>
</a>
</g>
</g>
<!-- Node49&#45;&gt;Node68 -->
<g id="edge54" class="edge"><title>Node49&#45;&gt;Node68</title>
<path fill="none" stroke="midnightblue" d="M1659.7,-292.191C1399.97,-287.048 583.064,-263.948 508.5,-176 425.624,-78.2482 454.92,-165.606 675.5,-109 682.555,-107.19 689.983,-105.129 697.222,-103.035"/>
<polygon fill="midnightblue" stroke="midnightblue" points="1659.75,-295.693 1669.81,-292.388 1659.88,-288.694 1659.75,-295.693"/>
</g>
<!-- Node69 -->
<g id="node21" class="node"><title>Node69</title>
<g id="a_node21"><a xlink:href="_setup__2019__06_8cc.html" target="_top" xlink:title="src/expconfig/setups\l/Setup_2019_06.cc">
<polygon fill="white" stroke="black" points="1496,-73 1496,-103 1611,-103 1611,-73 1496,-73"/>
<text text-anchor="start" x="1504" y="-91" font-family="Helvetica,sans-Serif" font-size="10.00">src/expconfig/setups</text>
<text text-anchor="middle" x="1553.5" y="-80" font-family="Helvetica,sans-Serif" font-size="10.00">/Setup_2019_06.cc</text>
</a>
</g>
</g>
<!-- Node49&#45;&gt;Node69 -->
<g id="edge55" class="edge"><title>Node49&#45;&gt;Node69</title>
<path fill="none" stroke="midnightblue" d="M1797.5,-276.284C1873.05,-251.406 1988.48,-202.077 1937.5,-145 1890.12,-91.9589 1689.15,-123.372 1619.5,-109 1611.76,-107.403 1603.63,-105.3 1595.81,-103.059"/>
<polygon fill="midnightblue" stroke="midnightblue" points="1796.02,-273.082 1787.58,-279.485 1798.18,-279.744 1796.02,-273.082"/>
</g>
<!-- Node70 -->
<g id="node22" class="node"><title>Node70</title>
<g id="a_node22"><a xlink:href="_setup__2019__07_8cc.html" target="_top" xlink:title="src/expconfig/setups\l/Setup_2019_07.cc">
<polygon fill="white" stroke="black" points="1629,-73 1629,-103 1744,-103 1744,-73 1629,-73"/>
<text text-anchor="start" x="1637" y="-91" font-family="Helvetica,sans-Serif" font-size="10.00">src/expconfig/setups</text>
<text text-anchor="middle" x="1686.5" y="-80" font-family="Helvetica,sans-Serif" font-size="10.00">/Setup_2019_07.cc</text>
</a>
</g>
</g>
<!-- Node49&#45;&gt;Node70 -->
<g id="edge56" class="edge"><title>Node49&#45;&gt;Node70</title>
<path fill="none" stroke="midnightblue" d="M1817.44,-286.874C1877.22,-280.027 1952.25,-266.87 1971.5,-243 1998.84,-209.096 1999.69,-178.202 1971.5,-145 1939.58,-107.403 1800.54,-120.176 1752.5,-109 1745.15,-107.291 1737.43,-105.212 1729.95,-103.048"/>
<polygon fill="midnightblue" stroke="midnightblue" points="1816.78,-283.425 1807.23,-288 1817.55,-290.383 1816.78,-283.425"/>
</g>
<!-- Node71 -->
<g id="node23" class="node"><title>Node71</title>
<g id="a_node23"><a xlink:href="_setup__2019__09_8cc.html" target="_top" xlink:title="src/expconfig/setups\l/Setup_2019_09.cc">
<polygon fill="white" stroke="black" points="1762,-73 1762,-103 1877,-103 1877,-73 1762,-73"/>
<text text-anchor="start" x="1770" y="-91" font-family="Helvetica,sans-Serif" font-size="10.00">src/expconfig/setups</text>
<text text-anchor="middle" x="1819.5" y="-80" font-family="Helvetica,sans-Serif" font-size="10.00">/Setup_2019_09.cc</text>
</a>
</g>
</g>
<!-- Node49&#45;&gt;Node71 -->
<g id="edge57" class="edge"><title>Node49&#45;&gt;Node71</title>
<path fill="none" stroke="midnightblue" d="M1817.28,-288.602C1883.95,-282.63 1972.14,-269.796 1994.5,-243 2022.41,-209.559 2021.21,-180.161 1995.5,-145 1993.5,-142.266 1917.44,-118.737 1865.97,-103.06"/>
<polygon fill="midnightblue" stroke="midnightblue" points="1816.85,-285.126 1807.19,-289.469 1817.45,-292.1 1816.85,-285.126"/>
</g>
<!-- Node72 -->
<g id="node24" class="node"><title>Node72</title>
<g id="a_node24"><a xlink:href="_setup___c_b_source_calib_8cc.html" target="_top" xlink:title="src/expconfig/setups\l/Setup_CBSourceCalib.cc">
<polygon fill="white" stroke="black" points="2518,-73 2518,-103 2655,-103 2655,-73 2518,-73"/>
<text text-anchor="start" x="2526" y="-91" font-family="Helvetica,sans-Serif" font-size="10.00">src/expconfig/setups</text>
<text text-anchor="middle" x="2586.5" y="-80" font-family="Helvetica,sans-Serif" font-size="10.00">/Setup_CBSourceCalib.cc</text>
</a>
</g>
</g>
<!-- Node49&#45;&gt;Node72 -->
<g id="edge58" class="edge"><title>Node49&#45;&gt;Node72</title>
<path fill="none" stroke="midnightblue" d="M1817.21,-289.738C1903.8,-284.326 2046.62,-271.632 2166.5,-243 2317.01,-207.052 2487.66,-133.772 2555.92,-103.049"/>
<polygon fill="midnightblue" stroke="midnightblue" points="1816.96,-286.247 1807.19,-290.347 1817.38,-293.234 1816.96,-286.247"/>
</g>
<!-- Node73 -->
<g id="node25" class="node"><title>Node73</title>
<g id="a_node25"><a xlink:href="expconfig__helpers_8cc.html" target="_top" xlink:title="test/expconfig_helpers.cc">
<polygon fill="white" stroke="black" points="1895.5,-78.5 1895.5,-97.5 2033.5,-97.5 2033.5,-78.5 1895.5,-78.5"/>
<text text-anchor="middle" x="1964.5" y="-85.5" font-family="Helvetica,sans-Serif" font-size="10.00">test/expconfig_helpers.cc</text>
</a>
</g>
</g>
<!-- Node49&#45;&gt;Node73 -->
<g id="edge59" class="edge"><title>Node49&#45;&gt;Node73</title>
<path fill="none" stroke="midnightblue" d="M1817.38,-290.101C1890.67,-285.102 1992.19,-272.851 2017.5,-243 2045.67,-209.779 2034.8,-185.392 2018.5,-145 2010.21,-124.46 1990.38,-107.254 1977.2,-97.5407"/>
<polygon fill="midnightblue" stroke="midnightblue" points="1816.99,-286.619 1807.24,-290.759 1817.45,-293.604 1816.99,-286.619"/>
</g>
<!-- Node75 -->
<g id="node27" class="node"><title>Node75</title>
<g id="a_node27"><a xlink:href="_setup__2017__12_8cc.html" target="_top" xlink:title="src/expconfig/setups\l/Setup_2017_12.cc">
<polygon fill="white" stroke="black" points="518,-145.5 518,-175.5 633,-175.5 633,-145.5 518,-145.5"/>
<text text-anchor="start" x="526" y="-163.5" font-family="Helvetica,sans-Serif" font-size="10.00">src/expconfig/setups</text>
<text text-anchor="middle" x="575.5" y="-152.5" font-family="Helvetica,sans-Serif" font-size="10.00">/Setup_2017_12.cc</text>
</a>
</g>
</g>
<!-- Node49&#45;&gt;Node75 -->
<g id="edge48" class="edge"><title>Node49&#45;&gt;Node75</title>
<path fill="none" stroke="midnightblue" d="M1659.7,-287.849C1479.61,-274.316 1024.36,-236.598 647.5,-176 642.842,-175.251 638.026,-174.416 633.196,-173.534"/>
<polygon fill="midnightblue" stroke="midnightblue" points="1659.64,-291.354 1669.87,-288.61 1660.16,-284.374 1659.64,-291.354"/>
</g>
<!-- Node76 -->
<g id="node28" class="node"><title>Node76</title>
<g id="a_node28"><a xlink:href="_setup__2018__03_8cc.html" target="_top" xlink:title="src/expconfig/setups\l/Setup_2018_03.cc">
<polygon fill="white" stroke="black" points="1548,-145.5 1548,-175.5 1663,-175.5 1663,-145.5 1548,-145.5"/>
<text text-anchor="start" x="1556" y="-163.5" font-family="Helvetica,sans-Serif" font-size="10.00">src/expconfig/setups</text>
<text text-anchor="middle" x="1605.5" y="-152.5" font-family="Helvetica,sans-Serif" font-size="10.00">/Setup_2018_03.cc</text>
</a>
</g>
</g>
<!-- Node49&#45;&gt;Node76 -->
<g id="edge50" class="edge"><title>Node49&#45;&gt;Node76</title>
<path fill="none" stroke="midnightblue" d="M1717.08,-272.245C1689.68,-245.044 1642.96,-198.68 1619.63,-175.525"/>
<polygon fill="midnightblue" stroke="midnightblue" points="1714.7,-274.814 1724.27,-279.374 1719.63,-269.845 1714.7,-274.814"/>
</g>
<!-- Node77 -->
<g id="node29" class="node"><title>Node77</title>
<g id="a_node29"><a xlink:href="_setup__2018__05_8cc.html" target="_top" xlink:title="src/expconfig/setups\l/Setup_2018_05.cc">
<polygon fill="white" stroke="black" points="1681,-145.5 1681,-175.5 1796,-175.5 1796,-145.5 1681,-145.5"/>
<text text-anchor="start" x="1689" y="-163.5" font-family="Helvetica,sans-Serif" font-size="10.00">src/expconfig/setups</text>
<text text-anchor="middle" x="1738.5" y="-152.5" font-family="Helvetica,sans-Serif" font-size="10.00">/Setup_2018_05.cc</text>
</a>
</g>
</g>
<!-- Node49&#45;&gt;Node77 -->
<g id="edge51" class="edge"><title>Node49&#45;&gt;Node77</title>
<path fill="none" stroke="midnightblue" d="M1738.5,-269.024C1738.5,-241.512 1738.5,-197.789 1738.5,-175.525"/>
<polygon fill="midnightblue" stroke="midnightblue" points="1735,-269.374 1738.5,-279.374 1742,-269.374 1735,-269.374"/>
</g>
<!-- Node78 -->
<g id="node30" class="node"><title>Node78</title>
<g id="a_node30"><a xlink:href="_setup__2018__09_8cc.html" target="_top" xlink:title="src/expconfig/setups\l/Setup_2018_09.cc">
<polygon fill="white" stroke="black" points="1814,-145.5 1814,-175.5 1929,-175.5 1929,-145.5 1814,-145.5"/>
<text text-anchor="start" x="1822" y="-163.5" font-family="Helvetica,sans-Serif" font-size="10.00">src/expconfig/setups</text>
<text text-anchor="middle" x="1871.5" y="-152.5" font-family="Helvetica,sans-Serif" font-size="10.00">/Setup_2018_09.cc</text>
</a>
</g>
</g>
<!-- Node49&#45;&gt;Node78 -->
<g id="edge52" class="edge"><title>Node49&#45;&gt;Node78</title>
<path fill="none" stroke="midnightblue" d="M1759.92,-272.245C1787.32,-245.044 1834.04,-198.68 1857.37,-175.525"/>
<polygon fill="midnightblue" stroke="midnightblue" points="1757.37,-269.845 1752.73,-279.374 1762.3,-274.814 1757.37,-269.845"/>
</g>
<!-- Node51 -->
<g id="node3" class="node"><title>Node51</title>
<g id="a_node3"><a xlink:href="analysis_2physics_2calibration_2_time_8cc.html" target="_top" xlink:title="src/analysis/physics\l/calibration/Time.cc">
<polygon fill="white" stroke="black" points="1035.5,-145.5 1035.5,-175.5 1145.5,-175.5 1145.5,-145.5 1035.5,-145.5"/>
<text text-anchor="start" x="1043.5" y="-163.5" font-family="Helvetica,sans-Serif" font-size="10.00">src/analysis/physics</text>
<text text-anchor="middle" x="1090.5" y="-152.5" font-family="Helvetica,sans-Serif" font-size="10.00">/calibration/Time.cc</text>
</a>
</g>
</g>
<!-- Node50&#45;&gt;Node51 -->
<g id="edge2" class="edge"><title>Node50&#45;&gt;Node51</title>
<path fill="none" stroke="midnightblue" d="M1229.61,-209.092C1198.94,-198.599 1160.39,-185.408 1131.65,-175.577"/>
<polygon fill="midnightblue" stroke="midnightblue" points="1228.68,-212.471 1239.27,-212.396 1230.94,-205.847 1228.68,-212.471"/>
</g>
<!-- Node52 -->
<g id="node4" class="node"><title>Node52</title>
<g id="a_node4"><a xlink:href="_c_a_t_c_h___t_d_c_8h.html" target="_top" xlink:title="src/calibration/converters\l/CATCH_TDC.h">
<polygon fill="white" stroke="black" points="1164,-145.5 1164,-175.5 1301,-175.5 1301,-145.5 1164,-145.5"/>
<text text-anchor="start" x="1172" y="-163.5" font-family="Helvetica,sans-Serif" font-size="10.00">src/calibration/converters</text>
<text text-anchor="middle" x="1232.5" y="-152.5" font-family="Helvetica,sans-Serif" font-size="10.00">/CATCH_TDC.h</text>
</a>
</g>
</g>
<!-- Node50&#45;&gt;Node52 -->
<g id="edge3" class="edge"><title>Node50&#45;&gt;Node52</title>
<path fill="none" stroke="midnightblue" d="M1264,-204.157C1257,-194.679 1249.06,-183.919 1242.89,-175.577"/>
<polygon fill="midnightblue" stroke="midnightblue" points="1261.33,-206.431 1270.08,-212.396 1266.96,-202.272 1261.33,-206.431"/>
</g>
<!-- Node50&#45;&gt;Node60 -->
<g id="edge26" class="edge"><title>Node50&#45;&gt;Node60</title>
<path fill="none" stroke="midnightblue" d="M1357.91,-210.043C1389.85,-201.857 1426.74,-190.555 1458.5,-176 1481.25,-165.574 1481.79,-152.99 1505.5,-145 1732.18,-68.6188 1806.93,-150.537 2042.5,-109 2050.98,-107.506 2059.89,-105.364 2068.4,-103.032"/>
<polygon fill="midnightblue" stroke="midnightblue" points="1357.01,-206.659 1348.16,-212.484 1358.71,-213.449 1357.01,-206.659"/>
</g>
<!-- Node50&#45;&gt;Node61 -->
<g id="edge27" class="edge"><title>Node50&#45;&gt;Node61</title>
<path fill="none" stroke="midnightblue" d="M1359.4,-215.966C1401.46,-208.419 1453.29,-195.961 1496.5,-176 1517.56,-166.27 1516.67,-152.867 1538.5,-145 1672.93,-96.5501 2039.29,-130.849 2180.5,-109 2190.03,-107.525 2200.09,-105.392 2209.7,-103.063"/>
<polygon fill="midnightblue" stroke="midnightblue" points="1358.74,-212.528 1349.48,-217.687 1359.93,-219.425 1358.74,-212.528"/>
</g>
<!-- Node50&#45;&gt;Node62 -->
<g id="edge28" class="edge"><title>Node50&#45;&gt;Node62</title>
<path fill="none" stroke="midnightblue" d="M1201.64,-221.271C1043.19,-210.579 699.237,-186.353 675.5,-176 656.756,-167.825 660.3,-153.046 641.5,-145 535.622,-99.6857 237.81,-129.596 124.5,-109 116.259,-107.502 107.593,-105.359 99.33,-103.027"/>
<polygon fill="midnightblue" stroke="midnightblue" points="1201.59,-224.776 1211.8,-221.955 1202.06,-217.791 1201.59,-224.776"/>
</g>
<!-- Node50&#45;&gt;Node63 -->
<g id="edge29" class="edge"><title>Node50&#45;&gt;Node63</title>
<path fill="none" stroke="midnightblue" d="M1201.73,-225.16C1067.35,-221.936 799.923,-211.178 713.5,-176 693.312,-167.783 695.683,-153.229 675.5,-145 510.624,-77.7776 451.876,-139.764 276.5,-109 267.496,-107.421 258,-105.298 248.885,-103.025"/>
<polygon fill="midnightblue" stroke="midnightblue" points="1201.88,-228.664 1211.96,-225.397 1202.04,-221.666 1201.88,-228.664"/>
</g>
<!-- Node50&#45;&gt;Node64 -->
<g id="edge30" class="edge"><title>Node50&#45;&gt;Node64</title>
<path fill="none" stroke="midnightblue" d="M1201.7,-224.563C1074.7,-220.513 830.954,-208.635 751.5,-176 731.339,-167.719 733.566,-153.509 713.5,-145 588.242,-91.8819 542.677,-136.837 409.5,-109 401.765,-107.383 393.632,-105.271 385.819,-103.026"/>
<polygon fill="midnightblue" stroke="midnightblue" points="1201.65,-228.063 1211.76,-224.875 1201.87,-221.067 1201.65,-228.063"/>
</g>
<!-- Node50&#45;&gt;Node65 -->
<g id="edge31" class="edge"><title>Node50&#45;&gt;Node65</title>
<path fill="none" stroke="midnightblue" d="M1201.48,-223.868C1082.09,-218.97 861.983,-206.083 789.5,-176 769.369,-167.645 771.335,-154.035 751.5,-145 665.723,-105.927 634.223,-130.709 542.5,-109 535.16,-107.263 527.435,-105.169 519.96,-103"/>
<polygon fill="midnightblue" stroke="midnightblue" points="1201.52,-227.372 1211.65,-224.276 1201.8,-220.378 1201.52,-227.372"/>
</g>
<!-- Node50&#45;&gt;Node67 -->
<g id="edge36" class="edge"><title>Node50&#45;&gt;Node67</title>
<path fill="none" stroke="midnightblue" d="M1201.58,-223.072C1090.19,-217.325 893.12,-203.563 827.5,-176 807.405,-167.559 808.701,-155.315 789.5,-145 786.428,-143.35 707.604,-119.057 655.295,-103.015"/>
<polygon fill="midnightblue" stroke="midnightblue" points="1201.59,-226.577 1211.75,-223.587 1201.94,-219.585 1201.59,-226.577"/>
</g>
<!-- Node50&#45;&gt;Node68 -->
<g id="edge37" class="edge"><title>Node50&#45;&gt;Node68</title>
<path fill="none" stroke="midnightblue" d="M1201.71,-221.47C1099.99,-214.174 929.083,-198.965 870.5,-176 848.565,-167.402 846.897,-158.373 827.5,-145 806.258,-130.355 781.599,-114.2 764.329,-103.021"/>
<polygon fill="midnightblue" stroke="midnightblue" points="1201.71,-224.979 1211.94,-222.194 1202.21,-217.997 1201.71,-224.979"/>
</g>
<!-- Node50&#45;&gt;Node69 -->
<g id="edge38" class="edge"><title>Node50&#45;&gt;Node69</title>
<path fill="none" stroke="midnightblue" d="M1295.1,-203.986C1308.24,-185.494 1329.18,-159.989 1353.5,-145 1405.63,-112.869 1427.6,-125.76 1486.5,-109 1493.16,-107.106 1500.17,-105.064 1507.05,-103.034"/>
<polygon fill="midnightblue" stroke="midnightblue" points="1292.08,-202.201 1289.3,-212.424 1297.85,-206.168 1292.08,-202.201"/>
</g>
<!-- Node50&#45;&gt;Node70 -->
<g id="edge39" class="edge"><title>Node50&#45;&gt;Node70</title>
<path fill="none" stroke="midnightblue" d="M1308.62,-206.432C1321.44,-197.225 1336.79,-186.127 1350.5,-176 1368.88,-162.427 1370.48,-153.938 1391.5,-145 1485.91,-104.861 1519.46,-131.723 1619.5,-109 1626.96,-107.306 1634.8,-105.235 1642.39,-103.074"/>
<polygon fill="midnightblue" stroke="midnightblue" points="1306.29,-203.798 1300.2,-212.468 1310.36,-209.487 1306.29,-203.798"/>
</g>
<!-- Node50&#45;&gt;Node71 -->
<g id="edge40" class="edge"><title>Node50&#45;&gt;Node71</title>
<path fill="none" stroke="midnightblue" d="M1322.64,-208.174C1342.15,-199.199 1365.41,-187.796 1385.5,-176 1406.13,-163.885 1407.13,-153.48 1429.5,-145 1564.56,-93.7939 1610.95,-137.773 1752.5,-109 1760.35,-107.404 1768.61,-105.302 1776.54,-103.06"/>
<polygon fill="midnightblue" stroke="midnightblue" points="1321.04,-205.054 1313.39,-212.377 1323.94,-211.427 1321.04,-205.054"/>
</g>
<!-- Node50&#45;&gt;Node73 -->
<g id="edge41" class="edge"><title>Node50&#45;&gt;Node73</title>
<path fill="none" stroke="midnightblue" d="M1338.76,-209.263C1364.71,-200.672 1395.27,-189.273 1421.5,-176 1443.5,-164.869 1444.25,-153.209 1467.5,-145 1643.32,-82.9115 1701.63,-139.983 1885.5,-109 1902.24,-106.179 1920.65,-101.608 1935.48,-97.5478"/>
<polygon fill="midnightblue" stroke="midnightblue" points="1337.48,-205.997 1329.05,-212.417 1339.65,-212.654 1337.48,-205.997"/>
</g>
<!-- Node74 -->
<g id="node26" class="node"><title>Node74</title>
<g id="a_node26"><a xlink:href="_multi_hit_reference_8cc.html" target="_top" xlink:title="src/calibration/converters\l/MultiHitReference.cc">
<polygon fill="white" stroke="black" points="880,-145.5 880,-175.5 1017,-175.5 1017,-145.5 880,-145.5"/>
<text text-anchor="start" x="888" y="-163.5" font-family="Helvetica,sans-Serif" font-size="10.00">src/calibration/converters</text>
<text text-anchor="middle" x="948.5" y="-152.5" font-family="Helvetica,sans-Serif" font-size="10.00">/MultiHitReference.cc</text>
</a>
</g>
</g>
<!-- Node50&#45;&gt;Node74 -->
<g id="edge25" class="edge"><title>Node50&#45;&gt;Node74</title>
<path fill="none" stroke="midnightblue" d="M1201.81,-211.094C1145.68,-200.104 1070.93,-185.47 1017.2,-174.951"/>
<polygon fill="midnightblue" stroke="midnightblue" points="1201.22,-214.545 1211.71,-213.032 1202.57,-207.676 1201.22,-214.545"/>
</g>
<!-- Node50&#45;&gt;Node75 -->
<g id="edge32" class="edge"><title>Node50&#45;&gt;Node75</title>
<path fill="none" stroke="midnightblue" d="M1201.63,-223.23C1081.55,-217.571 845.883,-203.789 647.5,-176 642.828,-175.346 638.002,-174.577 633.165,-173.742"/>
<polygon fill="midnightblue" stroke="midnightblue" points="1201.68,-226.736 1211.83,-223.704 1202,-219.744 1201.68,-226.736"/>
</g>
<!-- Node50&#45;&gt;Node76 -->
<g id="edge33" class="edge"><title>Node50&#45;&gt;Node76</title>
<path fill="none" stroke="midnightblue" d="M1359.31,-210.805C1409.24,-200.854 1475.16,-187.697 1533.5,-176 1538.13,-175.073 1542.92,-174.11 1547.73,-173.143"/>
<polygon fill="midnightblue" stroke="midnightblue" points="1358.35,-207.427 1349.23,-212.814 1359.72,-214.292 1358.35,-207.427"/>
</g>
<!-- Node50&#45;&gt;Node77 -->
<g id="edge34" class="edge"><title>Node50&#45;&gt;Node77</title>
<path fill="none" stroke="midnightblue" d="M1359.66,-218.267C1438.85,-209.563 1564.02,-194.537 1671.5,-176 1674.55,-175.474 1677.67,-174.905 1680.82,-174.308"/>
<polygon fill="midnightblue" stroke="midnightblue" points="1358.84,-214.836 1349.28,-219.401 1359.6,-221.794 1358.84,-214.836"/>
</g>
<!-- Node50&#45;&gt;Node78 -->
<g id="edge35" class="edge"><title>Node50&#45;&gt;Node78</title>
<path fill="none" stroke="midnightblue" d="M1359.06,-221.808C1461.86,-215.01 1647.41,-200.482 1804.5,-176 1807.56,-175.524 1810.68,-174.994 1813.84,-174.428"/>
<polygon fill="midnightblue" stroke="midnightblue" points="1358.82,-218.316 1349.07,-222.461 1359.27,-225.301 1358.82,-218.316"/>
</g>
<!-- Node53 -->
<g id="node5" class="node"><title>Node53</title>
<g id="a_node5"><a xlink:href="analysis_2physics_2calibration_2_c_b___source_calib_8h.html" target="_top" xlink:title="src/analysis/physics\l/calibration/CB_SourceCalib.h">
<polygon fill="white" stroke="black" points="818,-73 818,-103 975,-103 975,-73 818,-73"/>
<text text-anchor="start" x="826" y="-91" font-family="Helvetica,sans-Serif" font-size="10.00">src/analysis/physics</text>
<text text-anchor="middle" x="896.5" y="-80" font-family="Helvetica,sans-Serif" font-size="10.00">/calibration/CB_SourceCalib.h</text>
</a>
</g>
</g>
<!-- Node52&#45;&gt;Node53 -->
<g id="edge4" class="edge"><title>Node52&#45;&gt;Node53</title>
<path fill="none" stroke="midnightblue" d="M1154.05,-144.13C1104.97,-134.38 1040.47,-121.323 983.5,-109 974.866,-107.132 965.763,-105.105 956.829,-103.081"/>
<polygon fill="midnightblue" stroke="midnightblue" points="1153.48,-147.584 1163.97,-146.097 1154.84,-140.718 1153.48,-147.584"/>
</g>
<!-- Node55 -->
<g id="node7" class="node"><title>Node55</title>
<g id="a_node7"><a xlink:href="analysis_2physics_2calibration_2_c_b___time_walk_8cc.html" target="_top" xlink:title="src/analysis/physics\l/calibration/CB_TimeWalk.cc">
<polygon fill="white" stroke="black" points="993,-73 993,-103 1142,-103 1142,-73 993,-73"/>
<text text-anchor="start" x="1001" y="-91" font-family="Helvetica,sans-Serif" font-size="10.00">src/analysis/physics</text>
<text text-anchor="middle" x="1067.5" y="-80" font-family="Helvetica,sans-Serif" font-size="10.00">/calibration/CB_TimeWalk.cc</text>
</a>
</g>
</g>
<!-- Node52&#45;&gt;Node55 -->
<g id="edge6" class="edge"><title>Node52&#45;&gt;Node55</title>
<path fill="none" stroke="midnightblue" d="M1190.01,-141.343C1162.11,-129.424 1126.16,-114.066 1100.44,-103.073"/>
<polygon fill="midnightblue" stroke="midnightblue" points="1188.94,-144.692 1199.51,-145.403 1191.69,-138.255 1188.94,-144.692"/>
</g>
<!-- Node56 -->
<g id="node8" class="node"><title>Node56</title>
<g id="a_node8"><a xlink:href="checkcb_8h.html" target="_top" xlink:title="src/analysis/physics\l/scratch/lheijken/checkcb.h">
<polygon fill="white" stroke="black" points="1160,-73 1160,-103 1305,-103 1305,-73 1160,-73"/>
<text text-anchor="start" x="1168" y="-91" font-family="Helvetica,sans-Serif" font-size="10.00">src/analysis/physics</text>
<text text-anchor="middle" x="1232.5" y="-80" font-family="Helvetica,sans-Serif" font-size="10.00">/scratch/lheijken/checkcb.h</text>
</a>
</g>
</g>
<!-- Node52&#45;&gt;Node56 -->
<g id="edge7" class="edge"><title>Node52&#45;&gt;Node56</title>
<path fill="none" stroke="midnightblue" d="M1232.5,-135.232C1232.5,-124.568 1232.5,-112.414 1232.5,-103.246"/>
<polygon fill="midnightblue" stroke="midnightblue" points="1229,-135.233 1232.5,-145.233 1236,-135.233 1229,-135.233"/>
</g>
<!-- Node58 -->
<g id="node10" class="node"><title>Node58</title>
<g id="a_node10"><a xlink:href="checktaps_8h.html" target="_top" xlink:title="src/analysis/physics\l/scratch/lheijken/checktaps.h">
<polygon fill="white" stroke="black" points="1323,-73 1323,-103 1478,-103 1478,-73 1323,-73"/>
<text text-anchor="start" x="1331" y="-91" font-family="Helvetica,sans-Serif" font-size="10.00">src/analysis/physics</text>
<text text-anchor="middle" x="1400.5" y="-80" font-family="Helvetica,sans-Serif" font-size="10.00">/scratch/lheijken/checktaps.h</text>
</a>
</g>
</g>
<!-- Node52&#45;&gt;Node58 -->
<g id="edge9" class="edge"><title>Node52&#45;&gt;Node58</title>
<path fill="none" stroke="midnightblue" d="M1275.4,-141.499C1303.85,-129.559 1340.65,-114.114 1366.96,-103.073"/>
<polygon fill="midnightblue" stroke="midnightblue" points="1273.96,-138.306 1266.09,-145.403 1276.67,-144.76 1273.96,-138.306"/>
</g>
<!-- Node52&#45;&gt;Node60 -->
<g id="edge11" class="edge"><title>Node52&#45;&gt;Node60</title>
<path fill="none" stroke="midnightblue" d="M1311.4,-154.637C1514.18,-142.132 2038.02,-109.779 2042.5,-109 2050.98,-107.525 2059.9,-105.393 2068.41,-103.064"/>
<polygon fill="midnightblue" stroke="midnightblue" points="1310.88,-151.162 1301.12,-155.271 1311.32,-158.149 1310.88,-151.162"/>
</g>
<!-- Node52&#45;&gt;Node61 -->
<g id="edge12" class="edge"><title>Node52&#45;&gt;Node61</title>
<path fill="none" stroke="midnightblue" d="M1311.52,-155.303C1538.97,-143.222 2179.16,-109.205 2180.5,-109 2190.03,-107.538 2200.1,-105.412 2209.71,-103.085"/>
<polygon fill="midnightblue" stroke="midnightblue" points="1311.13,-151.819 1301.33,-155.845 1311.5,-158.809 1311.13,-151.819"/>
</g>
<!-- Node52&#45;&gt;Node62 -->
<g id="edge13" class="edge"><title>Node52&#45;&gt;Node62</title>
<path fill="none" stroke="midnightblue" d="M1153.53,-145.031C697.365,-96.2848 573.211,-182.57 124.5,-109 115.995,-107.606 107.054,-105.446 98.5727,-103.053"/>
<polygon fill="midnightblue" stroke="midnightblue" points="1153.36,-148.533 1163.68,-146.132 1154.11,-141.574 1153.36,-148.533"/>
</g>
<!-- Node52&#45;&gt;Node63 -->
<g id="edge14" class="edge"><title>Node52&#45;&gt;Node63</title>
<path fill="none" stroke="midnightblue" d="M1153.56,-145.026C764.621,-102.315 659.414,-166.539 276.5,-109 267.055,-107.581 257.094,-105.442 247.603,-103.084"/>
<polygon fill="midnightblue" stroke="midnightblue" points="1153.35,-148.525 1163.68,-146.155 1154.13,-141.568 1153.35,-148.525"/>
</g>
<!-- Node52&#45;&gt;Node64 -->
<g id="edge15" class="edge"><title>Node52&#45;&gt;Node64</title>
<path fill="none" stroke="midnightblue" d="M1153.34,-144.996C823.38,-107.814 732.799,-164.916 409.5,-109 401.242,-107.572 392.565,-105.429 384.316,-103.07"/>
<polygon fill="midnightblue" stroke="midnightblue" points="1153.34,-148.519 1163.67,-146.182 1154.14,-141.564 1153.34,-148.519"/>
</g>
<!-- Node52&#45;&gt;Node65 -->
<g id="edge16" class="edge"><title>Node52&#45;&gt;Node65</title>
<path fill="none" stroke="midnightblue" d="M1153.52,-145.005C882.213,-113.116 807.463,-156.256 542.5,-109 534.249,-107.528 525.576,-105.366 517.328,-103.001"/>
<polygon fill="midnightblue" stroke="midnightblue" points="1153.32,-148.506 1163.67,-146.222 1154.16,-141.556 1153.32,-148.506"/>
</g>
<!-- Node52&#45;&gt;Node66 -->
<g id="edge17" class="edge"><title>Node52&#45;&gt;Node66</title>
<path fill="none" stroke="midnightblue" d="M1311.23,-155.721C1373.03,-152.767 1461.25,-148.575 1538.5,-145 1892.7,-128.608 1984.17,-156.916 2335.5,-109 2338.72,-108.56 2342.01,-108.058 2345.31,-107.506"/>
<polygon fill="midnightblue" stroke="midnightblue" points="1310.98,-152.229 1301.16,-156.203 1311.32,-159.221 1310.98,-152.229"/>
</g>
<!-- Node52&#45;&gt;Node67 -->
<g id="edge18" class="edge"><title>Node52&#45;&gt;Node67</title>
<path fill="none" stroke="midnightblue" d="M1153.43,-144.975C940.964,-118.394 882.082,-147.58 675.5,-109 667.497,-107.505 659.089,-105.394 651.055,-103.098"/>
<polygon fill="midnightblue" stroke="midnightblue" points="1153.3,-148.487 1163.66,-146.283 1154.19,-141.543 1153.3,-148.487"/>
</g>
<!-- Node52&#45;&gt;Node68 -->
<g id="edge19" class="edge"><title>Node52&#45;&gt;Node68</title>
<path fill="none" stroke="midnightblue" d="M1153.36,-144.929C999.655,-123.55 956.802,-138.901 808.5,-109 800.636,-107.415 792.368,-105.289 784.446,-103.015"/>
<polygon fill="midnightblue" stroke="midnightblue" points="1153.25,-148.449 1163.65,-146.391 1154.24,-141.518 1153.25,-148.449"/>
</g>
<!-- Node52&#45;&gt;Node69 -->
<g id="edge20" class="edge"><title>Node52&#45;&gt;Node69</title>
<path fill="none" stroke="midnightblue" d="M1311.25,-144.681C1373.07,-132.891 1453.95,-117.076 1486.5,-109 1493.69,-107.217 1501.25,-105.148 1508.61,-103.031"/>
<polygon fill="midnightblue" stroke="midnightblue" points="1310.28,-141.302 1301.11,-146.611 1311.59,-148.179 1310.28,-141.302"/>
</g>
<!-- Node52&#45;&gt;Node70 -->
<g id="edge21" class="edge"><title>Node52&#45;&gt;Node70</title>
<path fill="none" stroke="midnightblue" d="M1311.33,-149.901C1415.72,-137.082 1590.12,-115.26 1619.5,-109 1627.22,-107.356 1635.33,-105.257 1643.15,-103.041"/>
<polygon fill="midnightblue" stroke="midnightblue" points="1310.64,-146.459 1301.14,-151.15 1311.49,-153.407 1310.64,-146.459"/>
</g>
<!-- Node52&#45;&gt;Node71 -->
<g id="edge22" class="edge"><title>Node52&#45;&gt;Node71</title>
<path fill="none" stroke="midnightblue" d="M1311.46,-152.235C1451.62,-139.284 1731.22,-113.168 1752.5,-109 1760.48,-107.436 1768.87,-105.321 1776.92,-103.051"/>
<polygon fill="midnightblue" stroke="midnightblue" points="1310.85,-148.777 1301.21,-153.182 1311.49,-155.748 1310.85,-148.777"/>
</g>
<!-- Node52&#45;&gt;Node72 -->
<g id="edge23" class="edge"><title>Node52&#45;&gt;Node72</title>
<path fill="none" stroke="midnightblue" d="M1311.22,-155.547C1373.02,-152.498 1461.24,-148.264 1538.5,-145 1969.52,-126.79 2081.56,-170.929 2508.5,-109 2518.32,-107.575 2528.7,-105.402 2538.56,-103.006"/>
<polygon fill="midnightblue" stroke="midnightblue" points="1310.97,-152.056 1301.16,-156.045 1311.32,-159.047 1310.97,-152.056"/>
</g>
<!-- Node52&#45;&gt;Node73 -->
<g id="edge24" class="edge"><title>Node52&#45;&gt;Node73</title>
<path fill="none" stroke="midnightblue" d="M1311.4,-153.575C1482.09,-140.732 1871.5,-111.297 1885.5,-109 1902.39,-106.229 1920.97,-101.61 1935.86,-97.5079"/>
<polygon fill="midnightblue" stroke="midnightblue" points="1310.93,-150.1 1301.22,-154.341 1311.45,-157.08 1310.93,-150.1"/>
</g>
<!-- Node54 -->
<g id="node6" class="node"><title>Node54</title>
<g id="a_node6"><a xlink:href="analysis_2physics_2calibration_2_c_b___source_calib_8cc.html" target="_top" xlink:title="src/analysis/physics\l/calibration/CB_SourceCalib.cc">
<polygon fill="white" stroke="black" points="816,-0.5 816,-30.5 977,-30.5 977,-0.5 816,-0.5"/>
<text text-anchor="start" x="824" y="-18.5" font-family="Helvetica,sans-Serif" font-size="10.00">src/analysis/physics</text>
<text text-anchor="middle" x="896.5" y="-7.5" font-family="Helvetica,sans-Serif" font-size="10.00">/calibration/CB_SourceCalib.cc</text>
</a>
</g>
</g>
<!-- Node53&#45;&gt;Node54 -->
<g id="edge5" class="edge"><title>Node53&#45;&gt;Node54</title>
<path fill="none" stroke="midnightblue" d="M896.5,-62.7317C896.5,-52.0679 896.5,-39.9145 896.5,-30.7455"/>
<polygon fill="midnightblue" stroke="midnightblue" points="893,-62.7332 896.5,-72.7333 900,-62.7333 893,-62.7332"/>
</g>
<!-- Node57 -->
<g id="node9" class="node"><title>Node57</title>
<g id="a_node9"><a xlink:href="checkcb_8cc.html" target="_top" xlink:title="src/analysis/physics\l/scratch/lheijken/checkcb.cc">
<polygon fill="white" stroke="black" points="1156,-0.5 1156,-30.5 1305,-30.5 1305,-0.5 1156,-0.5"/>
<text text-anchor="start" x="1164" y="-18.5" font-family="Helvetica,sans-Serif" font-size="10.00">src/analysis/physics</text>
<text text-anchor="middle" x="1230.5" y="-7.5" font-family="Helvetica,sans-Serif" font-size="10.00">/scratch/lheijken/checkcb.cc</text>
</a>
</g>
</g>
<!-- Node56&#45;&gt;Node57 -->
<g id="edge8" class="edge"><title>Node56&#45;&gt;Node57</title>
<path fill="none" stroke="midnightblue" d="M1231.81,-62.7317C1231.51,-52.0679 1231.16,-39.9145 1230.9,-30.7455"/>
<polygon fill="midnightblue" stroke="midnightblue" points="1228.31,-62.8366 1232.1,-72.7333 1235.31,-62.638 1228.31,-62.8366"/>
</g>
<!-- Node59 -->
<g id="node11" class="node"><title>Node59</title>
<g id="a_node11"><a xlink:href="checktaps_8cc.html" target="_top" xlink:title="src/analysis/physics\l/scratch/lheijken/checktaps.cc">
<polygon fill="white" stroke="black" points="1323,-0.5 1323,-30.5 1482,-30.5 1482,-0.5 1323,-0.5"/>
<text text-anchor="start" x="1331" y="-18.5" font-family="Helvetica,sans-Serif" font-size="10.00">src/analysis/physics</text>
<text text-anchor="middle" x="1402.5" y="-7.5" font-family="Helvetica,sans-Serif" font-size="10.00">/scratch/lheijken/checktaps.cc</text>
</a>
</g>
</g>
<!-- Node58&#45;&gt;Node59 -->
<g id="edge10" class="edge"><title>Node58&#45;&gt;Node59</title>
<path fill="none" stroke="midnightblue" d="M1401.19,-62.7317C1401.49,-52.0679 1401.84,-39.9145 1402.1,-30.7455"/>
<polygon fill="midnightblue" stroke="midnightblue" points="1397.69,-62.638 1400.9,-72.7333 1404.69,-62.8366 1397.69,-62.638"/>
</g>
</g>
</svg>
