<?xml version="1.0" encoding="UTF-8" standalone="no"?>
<!DOCTYPE svg PUBLIC "-//W3C//DTD SVG 1.1//EN"
 "http://www.w3.org/Graphics/SVG/1.1/DTD/svg11.dtd">
<!-- Generated by graphviz version 2.38.0 (20140413.2041)
 -->
<!-- Title: src/analysis/physics/omega/OmegaMCAngles.h Pages: 1 -->
<svg width="3247pt" height="610pt"
 viewBox="0.00 0.00 3247.04 610.00" xmlns="http://www.w3.org/2000/svg" xmlns:xlink="http://www.w3.org/1999/xlink">
<g id="graph0" class="graph" transform="scale(1 1) rotate(0) translate(4 606)">
<title>src/analysis/physics/omega/OmegaMCAngles.h</title>
<polygon fill="white" stroke="none" points="-4,4 -4,-606 3243.04,-606 3243.04,4 -4,4"/>
<!-- Node0 -->
<g id="node1" class="node"><title>Node0</title>
<polygon fill="#bfbfbf" stroke="black" points="2512.17,-571.5 2512.17,-601.5 2660.17,-601.5 2660.17,-571.5 2512.17,-571.5"/>
<text text-anchor="start" x="2520.17" y="-589.5" font-family="Helvetica,sans-Serif" font-size="10.00">src/analysis/physics</text>
<text text-anchor="middle" x="2586.17" y="-578.5" font-family="Helvetica,sans-Serif" font-size="10.00">/omega/OmegaMCAngles.h</text>
</g>
<!-- Node1 -->
<g id="node2" class="node"><title>Node1</title>
<g id="a_node2"><a xlink:href="_physics_8h.html" target="_top" xlink:title="analysis/physics/Physics.h">
<polygon fill="white" stroke="black" points="2108.17,-515.5 2108.17,-534.5 2248.17,-534.5 2248.17,-515.5 2108.17,-515.5"/>
<text text-anchor="middle" x="2178.17" y="-522.5" font-family="Helvetica,sans-Serif" font-size="10.00">analysis/physics/Physics.h</text>
</a>
</g>
</g>
<!-- Node0&#45;&gt;Node1 -->
<g id="edge1" class="edge"><title>Node0&#45;&gt;Node1</title>
<path fill="none" stroke="midnightblue" d="M2511.81,-574.656C2436.18,-563.627 2319.97,-546.68 2246.57,-535.975"/>
<polygon fill="midnightblue" stroke="midnightblue" points="2246.9,-532.487 2236.5,-534.508 2245.89,-539.414 2246.9,-532.487"/>
</g>
<!-- Node67 -->
<g id="node68" class="node"><title>Node67</title>
<g id="a_node68"><a xlink:href="_particle_type_tree_8h.html" target="_top" xlink:title="base/ParticleTypeTree.h">
<polygon fill="white" stroke="black" points="2593.67,-291.5 2593.67,-310.5 2720.67,-310.5 2720.67,-291.5 2593.67,-291.5"/>
<text text-anchor="middle" x="2657.17" y="-298.5" font-family="Helvetica,sans-Serif" font-size="10.00">base/ParticleTypeTree.h</text>
</a>
</g>
</g>
<!-- Node0&#45;&gt;Node67 -->
<g id="edge166" class="edge"><title>Node0&#45;&gt;Node67</title>
<path fill="none" stroke="midnightblue" d="M2660.44,-578.748C2773.59,-566.38 2976.17,-535.143 2976.17,-470 2976.17,-470 2976.17,-470 2976.17,-412 2976.17,-360.141 2823.59,-327.399 2729.47,-312.136"/>
<polygon fill="midnightblue" stroke="midnightblue" points="2729.86,-308.653 2719.43,-310.538 2728.75,-315.566 2729.86,-308.653"/>
</g>
<!-- Node2 -->
<g id="node3" class="node"><title>Node2</title>
<g id="a_node3"><a xlink:href="manager__t_8h.html" target="_top" xlink:title="analysis/physics/manager_t.h">
<polygon fill="white" stroke="black" points="2263.17,-459.5 2263.17,-478.5 2421.17,-478.5 2421.17,-459.5 2263.17,-459.5"/>
<text text-anchor="middle" x="2342.17" y="-466.5" font-family="Helvetica,sans-Serif" font-size="10.00">analysis/physics/manager_t.h</text>
</a>
</g>
</g>
<!-- Node1&#45;&gt;Node2 -->
<g id="edge2" class="edge"><title>Node1&#45;&gt;Node2</title>
<path fill="none" stroke="midnightblue" d="M2204.15,-515.444C2231.86,-506.32 2275.92,-491.813 2306.78,-481.651"/>
<polygon fill="midnightblue" stroke="midnightblue" points="2307.9,-484.968 2316.3,-478.516 2305.71,-478.32 2307.9,-484.968"/>
</g>
<!-- Node3 -->
<g id="node4" class="node"><title>Node3</title>
<g id="a_node4"><a xlink:href="_histogram_factory_8h.html" target="_top" xlink:title="analysis/plot/HistogramFactory.h">
<polygon fill="white" stroke="black" points="2738.67,-291.5 2738.67,-310.5 2909.67,-310.5 2909.67,-291.5 2738.67,-291.5"/>
<text text-anchor="middle" x="2824.17" y="-298.5" font-family="Helvetica,sans-Serif" font-size="10.00">analysis/plot/HistogramFactory.h</text>
</a>
</g>
</g>
<!-- Node1&#45;&gt;Node3 -->
<g id="edge3" class="edge"><title>Node1&#45;&gt;Node3</title>
<path fill="none" stroke="midnightblue" d="M2248.22,-522.954C2319.07,-520.037 2430.86,-510.286 2522.17,-479 2638.32,-439.202 2759.23,-351.982 2805.05,-316.976"/>
<polygon fill="midnightblue" stroke="midnightblue" points="2807.4,-319.579 2813.18,-310.701 2803.13,-314.035 2807.4,-319.579"/>
</g>
<!-- Node15 -->
<g id="node16" class="node"><title>Node15</title>
<polygon fill="white" stroke="#bfbfbf" points="2408.17,-112.5 2408.17,-131.5 2452.17,-131.5 2452.17,-112.5 2408.17,-112.5"/>
<text text-anchor="middle" x="2430.17" y="-119.5" font-family="Helvetica,sans-Serif" font-size="10.00">string</text>
</g>
<!-- Node1&#45;&gt;Node15 -->
<g id="edge162" class="edge"><title>Node1&#45;&gt;Node15</title>
<path fill="none" stroke="midnightblue" d="M2248.27,-519.654C2313.32,-514.209 2403.92,-502.565 2430.17,-479 2452.56,-458.894 2449.17,-444.098 2449.17,-414 2449.17,-414 2449.17,-414 2449.17,-238.5 2449.17,-203.905 2440.76,-164.245 2435.13,-141.555"/>
<polygon fill="midnightblue" stroke="midnightblue" points="2438.46,-140.424 2432.57,-131.614 2431.68,-142.171 2438.46,-140.424"/>
</g>
<!-- Node16 -->
<g id="node17" class="node"><title>Node16</title>
<g id="a_node17"><a xlink:href="_root_draw_8h.html" target="_top" xlink:title="analysis/plot/RootDraw.h">
<polygon fill="white" stroke="black" points="2009.17,-291.5 2009.17,-310.5 2141.17,-310.5 2141.17,-291.5 2009.17,-291.5"/>
<text text-anchor="middle" x="2075.17" y="-298.5" font-family="Helvetica,sans-Serif" font-size="10.00">analysis/plot/RootDraw.h</text>
</a>
</g>
</g>
<!-- Node1&#45;&gt;Node16 -->
<g id="edge20" class="edge"><title>Node1&#45;&gt;Node16</title>
<path fill="none" stroke="midnightblue" d="M2180.85,-515.319C2188.76,-487.881 2209.28,-401.617 2173.17,-347 2162.58,-330.991 2144.76,-320.588 2127.19,-313.867"/>
<polygon fill="midnightblue" stroke="midnightblue" points="2128.1,-310.478 2117.5,-310.5 2125.8,-317.09 2128.1,-310.478"/>
</g>
<!-- Node17 -->
<g id="node18" class="node"><title>Node17</title>
<polygon fill="white" stroke="#bfbfbf" points="1701.17,-168.5 1701.17,-187.5 1731.17,-187.5 1731.17,-168.5 1701.17,-168.5"/>
<text text-anchor="middle" x="1716.17" y="-175.5" font-family="Helvetica,sans-Serif" font-size="10.00">list</text>
</g>
<!-- Node1&#45;&gt;Node17 -->
<g id="edge161" class="edge"><title>Node1&#45;&gt;Node17</title>
<path fill="none" stroke="midnightblue" d="M2185.21,-515.333C2191.75,-506.709 2201.08,-492.802 2205.17,-479 2212.24,-455.121 2206.72,-447.901 2207.17,-423 2208.81,-331.014 2222.58,-280.746 2150.17,-224 2080.49,-169.405 1845.21,-205.723 1741.16,-187.37"/>
<polygon fill="midnightblue" stroke="midnightblue" points="1741.71,-183.91 1731.21,-185.349 1740.31,-190.77 1741.71,-183.91"/>
</g>
<!-- Node18 -->
<g id="node19" class="node"><title>Node18</title>
<polygon fill="white" stroke="#bfbfbf" points="1429.67,-168.5 1429.67,-187.5 1486.67,-187.5 1486.67,-168.5 1429.67,-168.5"/>
<text text-anchor="middle" x="1458.17" y="-175.5" font-family="Helvetica,sans-Serif" font-size="10.00">memory</text>
</g>
<!-- Node1&#45;&gt;Node18 -->
<g id="edge164" class="edge"><title>Node1&#45;&gt;Node18</title>
<path fill="none" stroke="midnightblue" d="M2108.05,-516.79C2049.67,-509.88 1964.69,-497.704 1892.17,-479 1821.64,-460.811 1797.26,-465.568 1738.17,-423 1646.53,-356.992 1671.65,-290.219 1580.17,-224 1555.25,-205.967 1522.31,-194.383 1496.93,-187.491"/>
<polygon fill="midnightblue" stroke="midnightblue" points="1497.47,-184.016 1486.91,-184.905 1495.72,-190.794 1497.47,-184.016"/>
</g>
<!-- Node19 -->
<g id="node20" class="node"><title>Node19</title>
<polygon fill="white" stroke="#bfbfbf" points="1581.67,-168.5 1581.67,-187.5 1644.67,-187.5 1644.67,-168.5 1581.67,-168.5"/>
<text text-anchor="middle" x="1613.17" y="-175.5" font-family="Helvetica,sans-Serif" font-size="10.00">functional</text>
</g>
<!-- Node1&#45;&gt;Node19 -->
<g id="edge165" class="edge"><title>Node1&#45;&gt;Node19</title>
<path fill="none" stroke="midnightblue" d="M2171.85,-515.465C2162.5,-502.925 2144.37,-478.856 2128.17,-459 2073.19,-391.618 2031.45,-392.143 2000.17,-311 1986.25,-274.913 2024.38,-252.433 1998.17,-224 1947.85,-169.435 1745.09,-198.145 1654.89,-187.879"/>
<polygon fill="midnightblue" stroke="midnightblue" points="1655.36,-184.411 1644.98,-186.511 1654.4,-191.345 1655.36,-184.411"/>
</g>
<!-- Node21 -->
<g id="node22" class="node"><title>Node21</title>
<polygon fill="white" stroke="#bfbfbf" points="1901.17,-459.5 1901.17,-478.5 1953.17,-478.5 1953.17,-459.5 1901.17,-459.5"/>
<text text-anchor="middle" x="1927.17" y="-466.5" font-family="Helvetica,sans-Serif" font-size="10.00">TH1D.h</text>
</g>
<!-- Node1&#45;&gt;Node21 -->
<g id="edge28" class="edge"><title>Node1&#45;&gt;Node21</title>
<path fill="none" stroke="midnightblue" d="M2134.18,-515.457C2092.58,-507.238 2028.16,-494.155 1963.47,-479.226"/>
<polygon fill="midnightblue" stroke="midnightblue" points="1964.04,-475.765 1953.51,-476.913 1962.46,-482.584 1964.04,-475.765"/>
</g>
<!-- Node22 -->
<g id="node23" class="node"><title>Node22</title>
<polygon fill="white" stroke="#bfbfbf" points="1971.17,-459.5 1971.17,-478.5 2023.17,-478.5 2023.17,-459.5 1971.17,-459.5"/>
<text text-anchor="middle" x="1997.17" y="-466.5" font-family="Helvetica,sans-Serif" font-size="10.00">TH2D.h</text>
</g>
<!-- Node1&#45;&gt;Node22 -->
<g id="edge29" class="edge"><title>Node1&#45;&gt;Node22</title>
<path fill="none" stroke="midnightblue" d="M2149.49,-515.444C2117.91,-506.024 2067.11,-490.868 2032.95,-480.677"/>
<polygon fill="midnightblue" stroke="midnightblue" points="2033.94,-477.32 2023.36,-477.815 2031.94,-484.028 2033.94,-477.32"/>
</g>
<!-- Node23 -->
<g id="node24" class="node"><title>Node23</title>
<polygon fill="white" stroke="#bfbfbf" points="2041.17,-459.5 2041.17,-478.5 2093.17,-478.5 2093.17,-459.5 2041.17,-459.5"/>
<text text-anchor="middle" x="2067.17" y="-466.5" font-family="Helvetica,sans-Serif" font-size="10.00">TH3D.h</text>
</g>
<!-- Node1&#45;&gt;Node23 -->
<g id="edge30" class="edge"><title>Node1&#45;&gt;Node23</title>
<path fill="none" stroke="midnightblue" d="M2160.33,-515.324C2142.45,-506.625 2114.69,-493.12 2094.12,-483.113"/>
<polygon fill="midnightblue" stroke="midnightblue" points="2095.48,-479.882 2084.96,-478.655 2092.42,-486.177 2095.48,-479.882"/>
</g>
<!-- Node24 -->
<g id="node25" class="node"><title>Node24</title>
<g id="a_node25"><a xlink:href="_t_event_8h.html" target="_top" xlink:title="tree/TEvent.h">
<polygon fill="white" stroke="black" points="1352.17,-291.5 1352.17,-310.5 1432.17,-310.5 1432.17,-291.5 1352.17,-291.5"/>
<text text-anchor="middle" x="1392.17" y="-298.5" font-family="Helvetica,sans-Serif" font-size="10.00">tree/TEvent.h</text>
</a>
</g>
</g>
<!-- Node1&#45;&gt;Node24 -->
<g id="edge31" class="edge"><title>Node1&#45;&gt;Node24</title>
<path fill="none" stroke="midnightblue" d="M2107.96,-522.14C1986.35,-518.213 1741.8,-507.017 1661.17,-479 1554.68,-442 1449.04,-353.463 1408.99,-317.54"/>
<polygon fill="midnightblue" stroke="midnightblue" points="1411.22,-314.838 1401.46,-310.711 1406.52,-320.022 1411.22,-314.838"/>
</g>
<!-- Node25 -->
<g id="node26" class="node"><title>Node25</title>
<g id="a_node26"><a xlink:href="_t_event_data_8h.html" target="_top" xlink:title="tree/TEventData.h">
<polygon fill="white" stroke="black" points="1014.17,-459.5 1014.17,-478.5 1118.17,-478.5 1118.17,-459.5 1014.17,-459.5"/>
<text text-anchor="middle" x="1066.17" y="-466.5" font-family="Helvetica,sans-Serif" font-size="10.00">tree/TEventData.h</text>
</a>
</g>
</g>
<!-- Node1&#45;&gt;Node25 -->
<g id="edge35" class="edge"><title>Node1&#45;&gt;Node25</title>
<path fill="none" stroke="midnightblue" d="M2107.76,-520.581C1904.89,-510.729 1321.3,-482.39 1128.69,-473.036"/>
<polygon fill="midnightblue" stroke="midnightblue" points="1128.61,-469.529 1118.46,-472.539 1128.27,-476.52 1128.61,-469.529"/>
</g>
<!-- Node55 -->
<g id="node56" class="node"><title>Node55</title>
<polygon fill="white" stroke="#bfbfbf" points="2931.17,-168.5 2931.17,-187.5 2969.17,-187.5 2969.17,-168.5 2931.17,-168.5"/>
<text text-anchor="middle" x="2950.17" y="-175.5" font-family="Helvetica,sans-Serif" font-size="10.00">map</text>
</g>
<!-- Node1&#45;&gt;Node55 -->
<g id="edge163" class="edge"><title>Node1&#45;&gt;Node55</title>
<path fill="none" stroke="midnightblue" d="M2248.3,-521.16C2436.45,-512.614 2938.17,-483.326 2938.17,-414 2938.17,-414 2938.17,-414 2938.17,-300 2938.17,-263.717 2943.57,-221.612 2947.13,-197.857"/>
<polygon fill="midnightblue" stroke="midnightblue" points="2950.62,-198.195 2948.69,-187.776 2943.7,-197.121 2950.62,-198.195"/>
</g>
<!-- Node64 -->
<g id="node65" class="node"><title>Node64</title>
<g id="a_node65"><a xlink:href="_options_list_8h.html" target="_top" xlink:title="base/OptionsList.h">
<polygon fill="white" stroke="black" points="2477.67,-230 2477.67,-249 2582.67,-249 2582.67,-230 2477.67,-230"/>
<text text-anchor="middle" x="2530.17" y="-237" font-family="Helvetica,sans-Serif" font-size="10.00">base/OptionsList.h</text>
</a>
</g>
</g>
<!-- Node1&#45;&gt;Node64 -->
<g id="edge152" class="edge"><title>Node1&#45;&gt;Node64</title>
<path fill="none" stroke="midnightblue" d="M2248.33,-519.236C2320.88,-513.211 2428.33,-500.884 2463.17,-479 2492.92,-460.308 2508.17,-449.136 2508.17,-414 2508.17,-414 2508.17,-414 2508.17,-356 2508.17,-321.091 2517.98,-281.279 2524.5,-258.693"/>
<polygon fill="midnightblue" stroke="midnightblue" points="2527.86,-259.67 2527.38,-249.087 2521.16,-257.662 2527.86,-259.67"/>
</g>
<!-- Node66 -->
<g id="node67" class="node"><title>Node66</title>
<g id="a_node67"><a xlink:href="memory_8h.html" target="_top" xlink:title="base/std_ext/memory.h">
<polygon fill="white" stroke="black" points="1779.67,-230 1779.67,-249 1908.67,-249 1908.67,-230 1779.67,-230"/>
<text text-anchor="middle" x="1844.17" y="-237" font-family="Helvetica,sans-Serif" font-size="10.00">base/std_ext/memory.h</text>
</a>
</g>
</g>
<!-- Node1&#45;&gt;Node66 -->
<g id="edge158" class="edge"><title>Node1&#45;&gt;Node66</title>
<path fill="none" stroke="midnightblue" d="M2167.85,-515.153C2153.25,-502.631 2125.7,-479.03 2102.17,-459 2012.26,-382.48 1904.36,-291.316 1862.24,-255.759"/>
<polygon fill="midnightblue" stroke="midnightblue" points="1864.4,-253.001 1854.5,-249.225 1859.89,-258.35 1864.4,-253.001"/>
</g>
<!-- Node4 -->
<g id="node5" class="node"><title>Node4</title>
<g id="a_node5"><a xlink:href="interval_8h.html" target="_top" xlink:title="base/interval.h">
<polygon fill="white" stroke="black" points="2565.67,-168.5 2565.67,-187.5 2652.67,-187.5 2652.67,-168.5 2565.67,-168.5"/>
<text text-anchor="middle" x="2609.17" y="-175.5" font-family="Helvetica,sans-Serif" font-size="10.00">base/interval.h</text>
</a>
</g>
</g>
<!-- Node3&#45;&gt;Node4 -->
<g id="edge4" class="edge"><title>Node3&#45;&gt;Node4</title>
<path fill="none" stroke="midnightblue" d="M2754.82,-291.478C2706.65,-284.19 2648.04,-272.142 2630.17,-255 2614.69,-240.153 2610.29,-215.012 2609.21,-197.738"/>
<polygon fill="midnightblue" stroke="midnightblue" points="2612.7,-197.595 2608.89,-187.71 2605.71,-197.816 2612.7,-197.595"/>
</g>
<!-- Node12 -->
<g id="node13" class="node"><title>Node12</title>
<g id="a_node13"><a xlink:href="_bin_settings_8h.html" target="_top" xlink:title="base/BinSettings.h">
<polygon fill="white" stroke="black" points="2639.67,-230 2639.67,-249 2746.67,-249 2746.67,-230 2639.67,-230"/>
<text text-anchor="middle" x="2693.17" y="-237" font-family="Helvetica,sans-Serif" font-size="10.00">base/BinSettings.h</text>
</a>
</g>
</g>
<!-- Node3&#45;&gt;Node12 -->
<g id="edge12" class="edge"><title>Node3&#45;&gt;Node12</title>
<path fill="none" stroke="midnightblue" d="M2805.4,-291.475C2783.31,-281.445 2746.45,-264.7 2721.03,-253.155"/>
<polygon fill="midnightblue" stroke="midnightblue" points="2722.45,-249.958 2711.9,-249.009 2719.56,-256.331 2722.45,-249.958"/>
</g>
<!-- Node13 -->
<g id="node14" class="node"><title>Node13</title>
<polygon fill="white" stroke="#bfbfbf" points="1491.67,-56.5 1491.67,-75.5 1538.67,-75.5 1538.67,-56.5 1491.67,-56.5"/>
<text text-anchor="middle" x="1515.17" y="-63.5" font-family="Helvetica,sans-Serif" font-size="10.00">vector</text>
</g>
<!-- Node3&#45;&gt;Node13 -->
<g id="edge19" class="edge"><title>Node3&#45;&gt;Node13</title>
<path fill="none" stroke="midnightblue" d="M2887.31,-291.435C2914.14,-285.1 2944.22,-274.097 2966.17,-255 2997.25,-227.956 3026.04,-198.342 2998.17,-168 2934.35,-98.5208 2666.1,-157.106 2575.17,-132 2555.62,-126.604 2553.82,-116.996 2534.17,-112 2341.64,-63.0467 1703.86,-65.3358 1549.18,-66.6491"/>
<polygon fill="midnightblue" stroke="midnightblue" points="1548.86,-63.1517 1538.89,-66.7412 1548.92,-70.1514 1548.86,-63.1517"/>
</g>
<!-- Node3&#45;&gt;Node15 -->
<g id="edge18" class="edge"><title>Node3&#45;&gt;Node15</title>
<path fill="none" stroke="midnightblue" d="M2849.49,-291.4C2904.44,-271.485 3026,-219.927 2978.17,-168 2977.61,-167.402 2579.93,-135.135 2462.46,-125.616"/>
<polygon fill="midnightblue" stroke="midnightblue" points="2462.55,-122.112 2452.3,-124.793 2461.99,-129.089 2462.55,-122.112"/>
</g>
<!-- Node5 -->
<g id="node6" class="node"><title>Node5</title>
<g id="a_node6"><a xlink:href="types_8h.html" target="_top" xlink:title="types.h">
<polygon fill="white" stroke="black" points="2309.17,-112.5 2309.17,-131.5 2361.17,-131.5 2361.17,-112.5 2309.17,-112.5"/>
<text text-anchor="middle" x="2335.17" y="-119.5" font-family="Helvetica,sans-Serif" font-size="10.00">types.h</text>
</a>
</g>
</g>
<!-- Node4&#45;&gt;Node5 -->
<g id="edge5" class="edge"><title>Node4&#45;&gt;Node5</title>
<path fill="none" stroke="midnightblue" d="M2565.75,-168.444C2512.07,-157.865 2421.69,-140.052 2371.51,-130.162"/>
<polygon fill="midnightblue" stroke="midnightblue" points="2371.92,-126.677 2361.44,-128.177 2370.57,-133.545 2371.92,-126.677"/>
</g>
<!-- Node6 -->
<g id="node7" class="node"><title>Node6</title>
<polygon fill="white" stroke="#bfbfbf" points="1397.17,-112.5 1397.17,-131.5 1459.17,-131.5 1459.17,-112.5 1397.17,-112.5"/>
<text text-anchor="middle" x="1428.17" y="-119.5" font-family="Helvetica,sans-Serif" font-size="10.00">algorithm</text>
</g>
<!-- Node4&#45;&gt;Node6 -->
<g id="edge6" class="edge"><title>Node4&#45;&gt;Node6</title>
<path fill="none" stroke="midnightblue" d="M2565.55,-169.138C2562.38,-168.707 2559.23,-168.32 2556.17,-168 2446.64,-156.564 1660,-130.523 1469.59,-124.337"/>
<polygon fill="midnightblue" stroke="midnightblue" points="1469.55,-120.833 1459.44,-124.007 1469.32,-127.83 1469.55,-120.833"/>
</g>
<!-- Node7 -->
<g id="node8" class="node"><title>Node7</title>
<polygon fill="white" stroke="#bfbfbf" points="1277.17,-112.5 1277.17,-131.5 1341.17,-131.5 1341.17,-112.5 1277.17,-112.5"/>
<text text-anchor="middle" x="1309.17" y="-119.5" font-family="Helvetica,sans-Serif" font-size="10.00">stdexcept</text>
</g>
<!-- Node4&#45;&gt;Node7 -->
<g id="edge7" class="edge"><title>Node4&#45;&gt;Node7</title>
<path fill="none" stroke="midnightblue" d="M2565.56,-169.107C2562.39,-168.683 2559.23,-168.306 2556.17,-168 2039.38,-116.404 1906.17,-169.425 1388.17,-132 1376.24,-131.138 1363.34,-129.829 1351.49,-128.474"/>
<polygon fill="midnightblue" stroke="midnightblue" points="1351.74,-124.98 1341.4,-127.282 1350.92,-131.931 1351.74,-124.98"/>
</g>
<!-- Node8 -->
<g id="node9" class="node"><title>Node8</title>
<polygon fill="white" stroke="#bfbfbf" points="2681.17,-56.5 2681.17,-75.5 2723.17,-75.5 2723.17,-56.5 2681.17,-56.5"/>
<text text-anchor="middle" x="2702.17" y="-63.5" font-family="Helvetica,sans-Serif" font-size="10.00">limits</text>
</g>
<!-- Node4&#45;&gt;Node8 -->
<g id="edge8" class="edge"><title>Node4&#45;&gt;Node8</title>
<path fill="none" stroke="midnightblue" d="M2652.78,-169.521C2674.53,-163.348 2698.97,-152.166 2712.17,-132 2721.23,-118.144 2716.82,-99.1257 2711.28,-85.2413"/>
<polygon fill="midnightblue" stroke="midnightblue" points="2714.33,-83.4829 2707.04,-75.7951 2707.95,-86.3512 2714.33,-83.4829"/>
</g>
<!-- Node9 -->
<g id="node10" class="node"><title>Node9</title>
<polygon fill="white" stroke="#bfbfbf" points="2802.67,-112.5 2802.67,-131.5 2855.67,-131.5 2855.67,-112.5 2802.67,-112.5"/>
<text text-anchor="middle" x="2829.17" y="-119.5" font-family="Helvetica,sans-Serif" font-size="10.00">istream</text>
</g>
<!-- Node4&#45;&gt;Node9 -->
<g id="edge9" class="edge"><title>Node4&#45;&gt;Node9</title>
<path fill="none" stroke="midnightblue" d="M2644.03,-168.444C2684.57,-158.492 2751.2,-142.136 2792.5,-131.999"/>
<polygon fill="midnightblue" stroke="midnightblue" points="2793.55,-135.346 2802.43,-129.563 2791.88,-128.548 2793.55,-135.346"/>
</g>
<!-- Node10 -->
<g id="node11" class="node"><title>Node10</title>
<polygon fill="white" stroke="#bfbfbf" points="578.166,-112.5 578.166,-131.5 634.166,-131.5 634.166,-112.5 578.166,-112.5"/>
<text text-anchor="middle" x="606.166" y="-119.5" font-family="Helvetica,sans-Serif" font-size="10.00">sstream</text>
</g>
<!-- Node4&#45;&gt;Node10 -->
<g id="edge10" class="edge"><title>Node4&#45;&gt;Node10</title>
<path fill="none" stroke="midnightblue" d="M2565.56,-169.065C2562.39,-168.651 2559.23,-168.288 2556.17,-168 2136.14,-128.608 1081.48,-185.671 644.533,-131.818"/>
<polygon fill="midnightblue" stroke="midnightblue" points="644.688,-128.31 634.327,-130.526 643.808,-135.255 644.688,-128.31"/>
</g>
<!-- Node11 -->
<g id="node12" class="node"><title>Node11</title>
<polygon fill="white" stroke="#bfbfbf" points="722.666,-0.5 722.666,-19.5 769.666,-19.5 769.666,-0.5 722.666,-0.5"/>
<text text-anchor="middle" x="746.166" y="-7.5" font-family="Helvetica,sans-Serif" font-size="10.00">cmath</text>
</g>
<!-- Node4&#45;&gt;Node11 -->
<g id="edge11" class="edge"><title>Node4&#45;&gt;Node11</title>
<path fill="none" stroke="midnightblue" d="M2652.94,-172.462C2679.48,-167.245 2711.53,-156.043 2729.17,-132 2749.16,-104.741 2755.8,-80.1723 2732.17,-56 2696.61,-19.6267 1039.01,-12.0738 780.033,-11.1152"/>
<polygon fill="midnightblue" stroke="midnightblue" points="779.761,-7.61427 769.749,-11.0779 779.736,-14.6142 779.761,-7.61427"/>
</g>
<!-- Node12&#45;&gt;Node4 -->
<g id="edge13" class="edge"><title>Node12&#45;&gt;Node4</title>
<path fill="none" stroke="midnightblue" d="M2681.13,-229.975C2667.66,-220.431 2645.6,-204.807 2629.45,-193.368"/>
<polygon fill="midnightblue" stroke="midnightblue" points="2631.36,-190.433 2621.18,-187.509 2627.32,-196.145 2631.36,-190.433"/>
</g>
<!-- Node12&#45;&gt;Node7 -->
<g id="edge15" class="edge"><title>Node12&#45;&gt;Node7</title>
<path fill="none" stroke="midnightblue" d="M2653.24,-229.987C2579.4,-214.632 2416.32,-182.549 2277.17,-168 1883.87,-126.88 1782.43,-162.4 1388.17,-132 1376.24,-131.081 1363.34,-129.753 1351.49,-128.399"/>
<polygon fill="midnightblue" stroke="midnightblue" points="1351.74,-124.904 1341.4,-127.211 1350.92,-131.856 1351.74,-124.904"/>
</g>
<!-- Node12&#45;&gt;Node9 -->
<g id="edge16" class="edge"><title>Node12&#45;&gt;Node9</title>
<path fill="none" stroke="midnightblue" d="M2703.39,-229.819C2726.33,-210.337 2782.15,-162.925 2811.1,-138.345"/>
<polygon fill="midnightblue" stroke="midnightblue" points="2813.47,-140.923 2818.82,-131.782 2808.94,-135.588 2813.47,-140.923"/>
</g>
<!-- Node12&#45;&gt;Node13 -->
<g id="edge14" class="edge"><title>Node12&#45;&gt;Node13</title>
<path fill="none" stroke="midnightblue" d="M2691.73,-229.604C2688.82,-214.515 2680.73,-183.989 2661.17,-168 2605.73,-122.705 2571.88,-155.223 2504.17,-132 2484.23,-125.163 2481.63,-117.04 2461.17,-112 2283.02,-68.1325 1696.57,-66.5502 1549.07,-66.866"/>
<polygon fill="midnightblue" stroke="midnightblue" points="1548.82,-63.3665 1538.83,-66.8926 1548.84,-70.3665 1548.82,-63.3665"/>
</g>
<!-- Node14 -->
<g id="node15" class="node"><title>Node14</title>
<polygon fill="white" stroke="#bfbfbf" points="3150.67,-56.5 3150.67,-75.5 3207.67,-75.5 3207.67,-56.5 3150.67,-56.5"/>
<text text-anchor="middle" x="3179.17" y="-63.5" font-family="Helvetica,sans-Serif" font-size="10.00">ostream</text>
</g>
<!-- Node12&#45;&gt;Node14 -->
<g id="edge17" class="edge"><title>Node12&#45;&gt;Node14</title>
<path fill="none" stroke="midnightblue" d="M2725.49,-229.991C2734.99,-227.748 2745.45,-225.529 2755.17,-224 2803.18,-216.445 3158.24,-223.758 3191.17,-188 3217.04,-159.896 3200.34,-111.056 3188.32,-84.844"/>
<polygon fill="midnightblue" stroke="midnightblue" points="3191.4,-83.178 3183.89,-75.703 3185.1,-86.2288 3191.4,-83.178"/>
</g>
<!-- Node16&#45;&gt;Node12 -->
<g id="edge26" class="edge"><title>Node16&#45;&gt;Node12</title>
<path fill="none" stroke="midnightblue" d="M2141.26,-295.389C2239.53,-288.271 2429.91,-273.48 2591.17,-255 2603.57,-253.578 2616.8,-251.853 2629.48,-250.096"/>
<polygon fill="midnightblue" stroke="midnightblue" points="2630.09,-253.545 2639.51,-248.685 2629.12,-246.613 2630.09,-253.545"/>
</g>
<!-- Node16&#45;&gt;Node13 -->
<g id="edge23" class="edge"><title>Node16&#45;&gt;Node13</title>
<path fill="none" stroke="midnightblue" d="M2076.28,-291.364C2077.81,-275.387 2078.45,-241.275 2059.17,-224 1998.13,-169.319 1769.18,-216 1692.17,-188 1658,-175.578 1572.92,-111.662 1534.51,-82.0693"/>
<polygon fill="midnightblue" stroke="midnightblue" points="1536.28,-79.0097 1526.23,-75.6581 1532,-84.5459 1536.28,-79.0097"/>
</g>
<!-- Node16&#45;&gt;Node15 -->
<g id="edge21" class="edge"><title>Node16&#45;&gt;Node15</title>
<path fill="none" stroke="midnightblue" d="M2141.31,-299.175C2191.9,-295.911 2261.81,-285.529 2315.17,-255 2364.49,-226.779 2403.1,-169.377 2420.35,-140.467"/>
<polygon fill="midnightblue" stroke="midnightblue" points="2423.54,-141.93 2425.54,-131.524 2417.49,-138.416 2423.54,-141.93"/>
</g>
<!-- Node16&#45;&gt;Node17 -->
<g id="edge22" class="edge"><title>Node16&#45;&gt;Node17</title>
<path fill="none" stroke="midnightblue" d="M2084.09,-291.468C2098.96,-276.254 2125.44,-244.151 2107.17,-224 2054.06,-165.426 1836.09,-203.632 1741.1,-187.331"/>
<polygon fill="midnightblue" stroke="midnightblue" points="1741.71,-183.885 1731.22,-185.324 1740.32,-190.745 1741.71,-183.885"/>
</g>
<!-- Node16&#45;&gt;Node18 -->
<g id="edge24" class="edge"><title>Node16&#45;&gt;Node18</title>
<path fill="none" stroke="midnightblue" d="M2008.88,-294.444C1946.53,-288.228 1850.94,-276.143 1770.17,-255 1732.88,-245.24 1726.22,-234.614 1689.17,-224 1622.71,-204.964 1543.19,-191.433 1496.9,-184.446"/>
<polygon fill="midnightblue" stroke="midnightblue" points="1497.4,-180.982 1486.99,-182.974 1496.37,-187.905 1497.4,-180.982"/>
</g>
<!-- Node16&#45;&gt;Node19 -->
<g id="edge25" class="edge"><title>Node16&#45;&gt;Node19</title>
<path fill="none" stroke="midnightblue" d="M2072.91,-291.093C2068.23,-274.663 2055.79,-239.827 2031.17,-224 1961.3,-179.096 1741.35,-199.988 1659.17,-188 1657.71,-187.787 1656.22,-187.559 1654.73,-187.32"/>
<polygon fill="midnightblue" stroke="midnightblue" points="1655.22,-183.853 1644.77,-185.601 1654.03,-190.751 1655.22,-183.853"/>
</g>
<!-- Node20 -->
<g id="node21" class="node"><title>Node20</title>
<polygon fill="white" stroke="#bfbfbf" points="1397.17,-230 1397.17,-249 1455.17,-249 1455.17,-230 1397.17,-230"/>
<text text-anchor="middle" x="1426.17" y="-237" font-family="Helvetica,sans-Serif" font-size="10.00">Rtypes.h</text>
</g>
<!-- Node16&#45;&gt;Node20 -->
<g id="edge27" class="edge"><title>Node16&#45;&gt;Node20</title>
<path fill="none" stroke="midnightblue" d="M2008.74,-297.162C1901.71,-292.057 1684.63,-279.496 1502.17,-255 1490.12,-253.383 1477.09,-251.097 1465.28,-248.817"/>
<polygon fill="midnightblue" stroke="midnightblue" points="1465.77,-245.345 1455.28,-246.833 1464.4,-252.211 1465.77,-245.345"/>
</g>
<!-- Node24&#45;&gt;Node7 -->
<g id="edge34" class="edge"><title>Node24&#45;&gt;Node7</title>
<path fill="none" stroke="midnightblue" d="M1351.96,-298.793C1288.2,-295.937 1168.44,-286.423 1142.17,-255 1081.83,-182.839 1192.01,-239.017 1263.17,-188 1280.14,-175.826 1293.11,-155.373 1300.88,-140.659"/>
<polygon fill="midnightblue" stroke="midnightblue" points="1304.09,-142.072 1305.42,-131.561 1297.82,-138.948 1304.09,-142.072"/>
</g>
<!-- Node24&#45;&gt;Node18 -->
<g id="edge33" class="edge"><title>Node24&#45;&gt;Node18</title>
<path fill="none" stroke="midnightblue" d="M1388.95,-291.377C1384,-276.57 1376.26,-245.802 1388.17,-224 1395.98,-209.679 1410.53,-199.236 1424.34,-192.036"/>
<polygon fill="midnightblue" stroke="midnightblue" points="1426.19,-195.034 1433.7,-187.562 1423.16,-188.719 1426.19,-195.034"/>
</g>
<!-- Node24&#45;&gt;Node20 -->
<g id="edge32" class="edge"><title>Node24&#45;&gt;Node20</title>
<path fill="none" stroke="midnightblue" d="M1397.04,-291.475C1402.04,-282.727 1409.95,-268.869 1416.27,-257.809"/>
<polygon fill="midnightblue" stroke="midnightblue" points="1419.38,-259.428 1421.3,-249.009 1413.3,-255.955 1419.38,-259.428"/>
</g>
<!-- Node26 -->
<g id="node27" class="node"><title>Node26</title>
<g id="a_node27"><a xlink:href="_t_i_d_8h.html" target="_top" xlink:title="TID.h">
<polygon fill="white" stroke="black" points="402.666,-291.5 402.666,-310.5 443.666,-310.5 443.666,-291.5 402.666,-291.5"/>
<text text-anchor="middle" x="423.166" y="-298.5" font-family="Helvetica,sans-Serif" font-size="10.00">TID.h</text>
</a>
</g>
</g>
<!-- Node25&#45;&gt;Node26 -->
<g id="edge36" class="edge"><title>Node25&#45;&gt;Node26</title>
<path fill="none" stroke="midnightblue" d="M1014.15,-467.479C894.95,-465.688 605.392,-457.781 515.166,-423 477.011,-408.292 465.268,-400.74 442.166,-367 432.721,-353.207 427.907,-334.684 425.492,-320.94"/>
<polygon fill="midnightblue" stroke="midnightblue" points="428.907,-320.107 423.98,-310.728 421.983,-321.133 428.907,-320.107"/>
</g>
<!-- Node35 -->
<g id="node36" class="node"><title>Node35</title>
<g id="a_node36"><a xlink:href="_t_detector_read_hit_8h.html" target="_top" xlink:title="TDetectorReadHit.h">
<polygon fill="white" stroke="black" points="603.166,-230 603.166,-249 713.166,-249 713.166,-230 603.166,-230"/>
<text text-anchor="middle" x="658.166" y="-237" font-family="Helvetica,sans-Serif" font-size="10.00">TDetectorReadHit.h</text>
</a>
</g>
</g>
<!-- Node25&#45;&gt;Node35 -->
<g id="edge53" class="edge"><title>Node25&#45;&gt;Node35</title>
<path fill="none" stroke="midnightblue" d="M1013.8,-459.522C896.629,-439.373 619.33,-384.736 565.166,-311 546.279,-285.289 585.808,-264.536 619.039,-252.368"/>
<polygon fill="midnightblue" stroke="midnightblue" points="620.345,-255.619 628.633,-249.019 618.038,-249.01 620.345,-255.619"/>
</g>
<!-- Node42 -->
<g id="node43" class="node"><title>Node42</title>
<g id="a_node43"><a xlink:href="_t_slow_control_8h.html" target="_top" xlink:title="TSlowControl.h">
<polygon fill="white" stroke="black" points="21.6657,-347.5 21.6657,-366.5 108.666,-366.5 108.666,-347.5 21.6657,-347.5"/>
<text text-anchor="middle" x="65.1657" y="-354.5" font-family="Helvetica,sans-Serif" font-size="10.00">TSlowControl.h</text>
</a>
</g>
</g>
<!-- Node25&#45;&gt;Node42 -->
<g id="edge73" class="edge"><title>Node25&#45;&gt;Node42</title>
<path fill="none" stroke="midnightblue" d="M1014.01,-466.525C902.564,-462.913 633.132,-451.727 409.166,-423 302.3,-409.293 178.49,-383.402 112.442,-368.773"/>
<polygon fill="midnightblue" stroke="midnightblue" points="112.87,-365.283 102.349,-366.526 111.349,-372.116 112.87,-365.283"/>
</g>
<!-- Node43 -->
<g id="node44" class="node"><title>Node43</title>
<g id="a_node44"><a xlink:href="_t_unpacker_message_8h.html" target="_top" xlink:title="TUnpackerMessage.h">
<polygon fill="white" stroke="black" points="3063.67,-168.5 3063.67,-187.5 3182.67,-187.5 3182.67,-168.5 3063.67,-168.5"/>
<text text-anchor="middle" x="3123.17" y="-175.5" font-family="Helvetica,sans-Serif" font-size="10.00">TUnpackerMessage.h</text>
</a>
</g>
</g>
<!-- Node25&#45;&gt;Node43 -->
<g id="edge78" class="edge"><title>Node25&#45;&gt;Node43</title>
<path fill="none" stroke="midnightblue" d="M1118.34,-467.082C1382.37,-461.907 2572.32,-432.137 2918.17,-311 2994.81,-284.153 3071.71,-223.408 3105.44,-194.652"/>
<polygon fill="midnightblue" stroke="midnightblue" points="3108.14,-196.945 3113.42,-187.757 3103.56,-191.649 3108.14,-196.945"/>
</g>
<!-- Node46 -->
<g id="node47" class="node"><title>Node46</title>
<g id="a_node47"><a xlink:href="_t_tagger_hit_8h.html" target="_top" xlink:title="TTaggerHit.h">
<polygon fill="white" stroke="black" points="451.166,-347.5 451.166,-366.5 527.166,-366.5 527.166,-347.5 451.166,-347.5"/>
<text text-anchor="middle" x="489.166" y="-354.5" font-family="Helvetica,sans-Serif" font-size="10.00">TTaggerHit.h</text>
</a>
</g>
</g>
<!-- Node25&#45;&gt;Node46 -->
<g id="edge83" class="edge"><title>Node25&#45;&gt;Node46</title>
<path fill="none" stroke="midnightblue" d="M1013.81,-468.669C897.587,-469.337 621.949,-466.17 541.166,-423 521.509,-412.496 506.665,-391.059 497.968,-375.673"/>
<polygon fill="midnightblue" stroke="midnightblue" points="500.935,-373.799 493.151,-366.612 494.754,-377.085 500.935,-373.799"/>
</g>
<!-- Node48 -->
<g id="node49" class="node"><title>Node48</title>
<g id="a_node49"><a xlink:href="_t_trigger_8h.html" target="_top" xlink:title="TTrigger.h">
<polygon fill="white" stroke="black" points="1927.17,-230 1927.17,-249 1989.17,-249 1989.17,-230 1927.17,-230"/>
<text text-anchor="middle" x="1958.17" y="-237" font-family="Helvetica,sans-Serif" font-size="10.00">TTrigger.h</text>
</a>
</g>
</g>
<!-- Node25&#45;&gt;Node48 -->
<g id="edge90" class="edge"><title>Node25&#45;&gt;Node48</title>
<path fill="none" stroke="midnightblue" d="M1104.14,-459.456C1143.3,-450.584 1206.08,-436.185 1260.17,-423 1552.98,-351.611 1628.8,-342.667 1917.17,-255 1919.78,-254.204 1922.48,-253.343 1925.19,-252.45"/>
<polygon fill="midnightblue" stroke="midnightblue" points="1926.54,-255.688 1934.87,-249.146 1924.27,-249.064 1926.54,-255.688"/>
</g>
<!-- Node49 -->
<g id="node50" class="node"><title>Node49</title>
<g id="a_node50"><a xlink:href="_t_target_8h.html" target="_top" xlink:title="TTarget.h">
<polygon fill="white" stroke="black" points="1511.17,-230 1511.17,-249 1571.17,-249 1571.17,-230 1511.17,-230"/>
<text text-anchor="middle" x="1541.17" y="-237" font-family="Helvetica,sans-Serif" font-size="10.00">TTarget.h</text>
</a>
</g>
</g>
<!-- Node25&#45;&gt;Node49 -->
<g id="edge95" class="edge"><title>Node25&#45;&gt;Node49</title>
<path fill="none" stroke="midnightblue" d="M1098.6,-459.471C1168.76,-440.132 1338.34,-388.523 1463.17,-311 1487.73,-295.746 1511.75,-272.38 1526.51,-256.779"/>
<polygon fill="midnightblue" stroke="midnightblue" points="1529.1,-259.128 1533.33,-249.413 1523.97,-254.371 1529.1,-259.128"/>
</g>
<!-- Node50 -->
<g id="node51" class="node"><title>Node50</title>
<g id="a_node51"><a xlink:href="_t_cluster_8h.html" target="_top" xlink:title="TCluster.h">
<polygon fill="white" stroke="black" points="882.666,-291.5 882.666,-310.5 945.666,-310.5 945.666,-291.5 882.666,-291.5"/>
<text text-anchor="middle" x="914.166" y="-298.5" font-family="Helvetica,sans-Serif" font-size="10.00">TCluster.h</text>
</a>
</g>
</g>
<!-- Node25&#45;&gt;Node50 -->
<g id="edge101" class="edge"><title>Node25&#45;&gt;Node50</title>
<path fill="none" stroke="midnightblue" d="M1057.99,-459.075C1033.55,-432.38 960.741,-352.865 929.111,-318.322"/>
<polygon fill="midnightblue" stroke="midnightblue" points="931.346,-315.58 922.011,-310.568 926.183,-320.307 931.346,-315.58"/>
</g>
<!-- Node52 -->
<g id="node53" class="node"><title>Node52</title>
<g id="a_node53"><a xlink:href="_t_candidate_8h.html" target="_top" xlink:title="TCandidate.h">
<polygon fill="white" stroke="black" points="1026.67,-347.5 1026.67,-366.5 1105.67,-366.5 1105.67,-347.5 1026.67,-347.5"/>
<text text-anchor="middle" x="1066.17" y="-354.5" font-family="Helvetica,sans-Serif" font-size="10.00">TCandidate.h</text>
</a>
</g>
</g>
<!-- Node25&#45;&gt;Node52 -->
<g id="edge116" class="edge"><title>Node25&#45;&gt;Node52</title>
<path fill="none" stroke="midnightblue" d="M1066.17,-459.368C1066.17,-441.617 1066.17,-400.666 1066.17,-376.597"/>
<polygon fill="midnightblue" stroke="midnightblue" points="1069.67,-376.591 1066.17,-366.591 1062.67,-376.591 1069.67,-376.591"/>
</g>
<!-- Node53 -->
<g id="node54" class="node"><title>Node53</title>
<g id="a_node54"><a xlink:href="_t_particle_8h.html" target="_top" xlink:title="TParticle.h">
<polygon fill="white" stroke="black" points="1747.67,-403.5 1747.67,-422.5 1812.67,-422.5 1812.67,-403.5 1747.67,-403.5"/>
<text text-anchor="middle" x="1780.17" y="-410.5" font-family="Helvetica,sans-Serif" font-size="10.00">TParticle.h</text>
</a>
</g>
</g>
<!-- Node25&#45;&gt;Node53 -->
<g id="edge124" class="edge"><title>Node25&#45;&gt;Node53</title>
<path fill="none" stroke="midnightblue" d="M1118.38,-464.051C1253.48,-453.833 1612.66,-426.669 1737.04,-417.261"/>
<polygon fill="midnightblue" stroke="midnightblue" points="1737.6,-420.729 1747.31,-416.485 1737.08,-413.749 1737.6,-420.729"/>
</g>
<!-- Node26&#45;&gt;Node7 -->
<g id="edge49" class="edge"><title>Node26&#45;&gt;Node7</title>
<path fill="none" stroke="midnightblue" d="M443.897,-297.308C492.604,-290.891 618.077,-273.816 722.166,-255 863.87,-229.384 898.707,-219.744 1039.17,-188 1120.02,-169.728 1214.04,-146.683 1267.09,-133.516"/>
<polygon fill="midnightblue" stroke="midnightblue" points="1267.96,-136.906 1276.82,-131.097 1266.27,-130.113 1267.96,-136.906"/>
</g>
<!-- Node26&#45;&gt;Node17 -->
<g id="edge50" class="edge"><title>Node26&#45;&gt;Node17</title>
<path fill="none" stroke="midnightblue" d="M443.85,-298.508C471.487,-296.556 521.989,-293.134 565.166,-291 677.877,-285.43 1471.48,-285.375 1580.17,-255 1625.17,-242.421 1671.38,-212.202 1696.66,-193.884"/>
<polygon fill="midnightblue" stroke="midnightblue" points="1699.03,-196.488 1704.99,-187.729 1694.87,-190.858 1699.03,-196.488"/>
</g>
<!-- Node26&#45;&gt;Node20 -->
<g id="edge37" class="edge"><title>Node26&#45;&gt;Node20</title>
<path fill="none" stroke="midnightblue" d="M443.855,-298.607C471.498,-296.765 522.007,-293.463 565.166,-291 880.17,-273.021 959.487,-277.987 1274.17,-255 1312.48,-252.201 1356.12,-247.925 1386.78,-244.74"/>
<polygon fill="midnightblue" stroke="midnightblue" points="1387.48,-248.187 1397.06,-243.664 1386.75,-241.225 1387.48,-248.187"/>
</g>
<!-- Node27 -->
<g id="node28" class="node"><title>Node27</title>
<g id="a_node28"><a xlink:href="base_2std__ext_2_time_8h.html" target="_top" xlink:title="base/std_ext/time.h">
<polygon fill="white" stroke="black" points="207.166,-230 207.166,-249 319.166,-249 319.166,-230 207.166,-230"/>
<text text-anchor="middle" x="263.166" y="-237" font-family="Helvetica,sans-Serif" font-size="10.00">base/std_ext/time.h</text>
</a>
</g>
</g>
<!-- Node26&#45;&gt;Node27 -->
<g id="edge38" class="edge"><title>Node26&#45;&gt;Node27</title>
<path fill="none" stroke="midnightblue" d="M402.576,-292.343C375.499,-282.274 327.62,-264.469 295.639,-252.576"/>
<polygon fill="midnightblue" stroke="midnightblue" points="296.857,-249.295 286.264,-249.09 294.417,-255.856 296.857,-249.295"/>
</g>
<!-- Node30 -->
<g id="node31" class="node"><title>Node30</title>
<polygon fill="white" stroke="#bfbfbf" points="310.166,-168.5 310.166,-187.5 354.166,-187.5 354.166,-168.5 310.166,-168.5"/>
<text text-anchor="middle" x="332.166" y="-175.5" font-family="Helvetica,sans-Serif" font-size="10.00">ctime</text>
</g>
<!-- Node26&#45;&gt;Node30 -->
<g id="edge52" class="edge"><title>Node26&#45;&gt;Node30</title>
<path fill="none" stroke="midnightblue" d="M410.827,-291.47C399.463,-283.153 382.67,-269.647 371.166,-255 357.039,-237.013 345.779,-213.117 339.059,-196.958"/>
<polygon fill="midnightblue" stroke="midnightblue" points="342.278,-195.581 335.314,-187.597 335.779,-198.182 342.278,-195.581"/>
</g>
<!-- Node31 -->
<g id="node32" class="node"><title>Node31</title>
<polygon fill="white" stroke="#bfbfbf" points="864.166,-112.5 864.166,-131.5 932.166,-131.5 932.166,-112.5 864.166,-112.5"/>
<text text-anchor="middle" x="898.166" y="-119.5" font-family="Helvetica,sans-Serif" font-size="10.00">type_traits</text>
</g>
<!-- Node26&#45;&gt;Node31 -->
<g id="edge46" class="edge"><title>Node26&#45;&gt;Node31</title>
<path fill="none" stroke="midnightblue" d="M421.229,-291.308C416.502,-267.549 407.176,-201.09 442.166,-168 475.553,-136.426 808.692,-138.615 854.166,-132 854.267,-131.985 854.368,-131.97 854.47,-131.956"/>
<polygon fill="midnightblue" stroke="midnightblue" points="854.826,-135.444 864.124,-130.364 853.688,-128.537 854.826,-135.444"/>
</g>
<!-- Node32 -->
<g id="node33" class="node"><title>Node32</title>
<polygon fill="white" stroke="#bfbfbf" points="6.66567,-112.5 6.66567,-131.5 47.6657,-131.5 47.6657,-112.5 6.66567,-112.5"/>
<text text-anchor="middle" x="27.1657" y="-119.5" font-family="Helvetica,sans-Serif" font-size="10.00">tuple</text>
</g>
<!-- Node26&#45;&gt;Node32 -->
<g id="edge47" class="edge"><title>Node26&#45;&gt;Node32</title>
<path fill="none" stroke="midnightblue" d="M402.639,-298.574C345.448,-294.316 185.532,-280.39 140.166,-255 90.9503,-227.455 53.3516,-169.742 36.6508,-140.615"/>
<polygon fill="midnightblue" stroke="midnightblue" points="39.5539,-138.634 31.6302,-131.6 33.4384,-142.04 39.5539,-138.634"/>
</g>
<!-- Node33 -->
<g id="node34" class="node"><title>Node33</title>
<polygon fill="white" stroke="#bfbfbf" points="101.666,-112.5 101.666,-131.5 150.666,-131.5 150.666,-112.5 101.666,-112.5"/>
<text text-anchor="middle" x="126.166" y="-119.5" font-family="Helvetica,sans-Serif" font-size="10.00">cstdint</text>
</g>
<!-- Node26&#45;&gt;Node33 -->
<g id="edge48" class="edge"><title>Node26&#45;&gt;Node33</title>
<path fill="none" stroke="midnightblue" d="M402.288,-299.127C347.299,-296.41 200.293,-286.316 165.166,-255 132.558,-225.93 126.633,-171.064 125.91,-142.069"/>
<polygon fill="midnightblue" stroke="midnightblue" points="129.408,-141.673 125.852,-131.693 122.408,-141.713 129.408,-141.673"/>
</g>
<!-- Node34 -->
<g id="node35" class="node"><title>Node34</title>
<polygon fill="white" stroke="#bfbfbf" points="451.666,-168.5 451.666,-187.5 506.666,-187.5 506.666,-168.5 451.666,-168.5"/>
<text text-anchor="middle" x="479.166" y="-175.5" font-family="Helvetica,sans-Serif" font-size="10.00">iomanip</text>
</g>
<!-- Node26&#45;&gt;Node34 -->
<g id="edge51" class="edge"><title>Node26&#45;&gt;Node34</title>
<path fill="none" stroke="midnightblue" d="M427.193,-291.298C436.315,-271.589 458.705,-223.211 470.908,-196.842"/>
<polygon fill="midnightblue" stroke="midnightblue" points="474.151,-198.168 475.175,-187.623 467.798,-195.228 474.151,-198.168"/>
</g>
<!-- Node28 -->
<g id="node29" class="node"><title>Node28</title>
<g id="a_node29"><a xlink:href="string_8h.html" target="_top" xlink:title="base/std_ext/string.h">
<polygon fill="white" stroke="black" points="913.666,-168.5 913.666,-187.5 1030.67,-187.5 1030.67,-168.5 913.666,-168.5"/>
<text text-anchor="middle" x="972.166" y="-175.5" font-family="Helvetica,sans-Serif" font-size="10.00">base/std_ext/string.h</text>
</a>
</g>
</g>
<!-- Node27&#45;&gt;Node28 -->
<g id="edge39" class="edge"><title>Node27&#45;&gt;Node28</title>
<path fill="none" stroke="midnightblue" d="M319.188,-233.805C425.588,-224.886 664.24,-204.878 865.166,-188 877.552,-186.96 890.744,-185.851 903.483,-184.779"/>
<polygon fill="midnightblue" stroke="midnightblue" points="903.906,-188.256 913.578,-183.93 903.319,-181.281 903.906,-188.256"/>
</g>
<!-- Node29 -->
<g id="node30" class="node"><title>Node29</title>
<polygon fill="white" stroke="#bfbfbf" points="238.666,-168.5 238.666,-187.5 287.666,-187.5 287.666,-168.5 238.666,-168.5"/>
<text text-anchor="middle" x="263.166" y="-175.5" font-family="Helvetica,sans-Serif" font-size="10.00">cstring</text>
</g>
<!-- Node27&#45;&gt;Node29 -->
<g id="edge44" class="edge"><title>Node27&#45;&gt;Node29</title>
<path fill="none" stroke="midnightblue" d="M263.166,-229.975C263.166,-221.58 263.166,-208.481 263.166,-197.663"/>
<polygon fill="midnightblue" stroke="midnightblue" points="266.666,-197.509 263.166,-187.509 259.666,-197.509 266.666,-197.509"/>
</g>
<!-- Node27&#45;&gt;Node30 -->
<g id="edge45" class="edge"><title>Node27&#45;&gt;Node30</title>
<path fill="none" stroke="midnightblue" d="M273.052,-229.975C283.812,-220.697 301.237,-205.671 314.387,-194.331"/>
<polygon fill="midnightblue" stroke="midnightblue" points="317.01,-196.69 322.298,-187.509 312.439,-191.389 317.01,-196.69"/>
</g>
<!-- Node28&#45;&gt;Node6 -->
<g id="edge42" class="edge"><title>Node28&#45;&gt;Node6</title>
<path fill="none" stroke="midnightblue" d="M1030.85,-170.051C1124.43,-158.969 1305.19,-137.563 1386.61,-127.921"/>
<polygon fill="midnightblue" stroke="midnightblue" points="1387.44,-131.347 1396.96,-126.695 1386.62,-124.395 1387.44,-131.347"/>
</g>
<!-- Node28&#45;&gt;Node10 -->
<g id="edge41" class="edge"><title>Node28&#45;&gt;Node10</title>
<path fill="none" stroke="midnightblue" d="M913.631,-170.832C849.74,-163.687 744.262,-150.689 644.344,-132.059"/>
<polygon fill="midnightblue" stroke="midnightblue" points="644.858,-128.595 634.382,-130.18 643.56,-135.473 644.858,-128.595"/>
</g>
<!-- Node28&#45;&gt;Node13 -->
<g id="edge43" class="edge"><title>Node28&#45;&gt;Node13</title>
<path fill="none" stroke="midnightblue" d="M976.283,-168.4C983.745,-153.888 1001,-124.863 1025.17,-112 1104.39,-69.827 1383.68,-66.5681 1481.23,-66.7544"/>
<polygon fill="midnightblue" stroke="midnightblue" points="1481.4,-70.2549 1491.41,-66.788 1481.43,-63.2549 1481.4,-70.2549"/>
</g>
<!-- Node28&#45;&gt;Node15 -->
<g id="edge40" class="edge"><title>Node28&#45;&gt;Node15</title>
<path fill="none" stroke="midnightblue" d="M1030.81,-175.517C1278.9,-169.189 2235.64,-144.212 2370.17,-132 2379.21,-131.179 2388.98,-129.889 2397.94,-128.54"/>
<polygon fill="midnightblue" stroke="midnightblue" points="2398.68,-131.967 2408.01,-126.954 2397.59,-125.052 2398.68,-131.967"/>
</g>
<!-- Node35&#45;&gt;Node10 -->
<g id="edge72" class="edge"><title>Node35&#45;&gt;Node10</title>
<path fill="none" stroke="midnightblue" d="M620.847,-229.884C598.767,-222.659 572.569,-209.883 559.166,-188 548.141,-170 566.649,-150.527 583.582,-137.637"/>
<polygon fill="midnightblue" stroke="midnightblue" points="586.022,-140.196 592.129,-131.539 581.956,-134.498 586.022,-140.196"/>
</g>
<!-- Node35&#45;&gt;Node34 -->
<g id="edge71" class="edge"><title>Node35&#45;&gt;Node34</title>
<path fill="none" stroke="midnightblue" d="M632.519,-229.975C601.549,-219.68 549.292,-202.31 514.515,-190.75"/>
<polygon fill="midnightblue" stroke="midnightblue" points="515.358,-187.342 504.764,-187.509 513.15,-193.985 515.358,-187.342"/>
</g>
<!-- Node36 -->
<g id="node37" class="node"><title>Node36</title>
<g id="a_node37"><a xlink:href="_detector__t_8h.html" target="_top" xlink:title="base/Detector_t.h">
<polygon fill="white" stroke="black" points="753.666,-168.5 753.666,-187.5 856.666,-187.5 856.666,-168.5 753.666,-168.5"/>
<text text-anchor="middle" x="805.166" y="-175.5" font-family="Helvetica,sans-Serif" font-size="10.00">base/Detector_t.h</text>
</a>
</g>
</g>
<!-- Node35&#45;&gt;Node36 -->
<g id="edge54" class="edge"><title>Node35&#45;&gt;Node36</title>
<path fill="none" stroke="midnightblue" d="M679.227,-229.975C704.225,-219.857 746.107,-202.905 774.652,-191.351"/>
<polygon fill="midnightblue" stroke="midnightblue" points="776.187,-194.505 784.143,-187.509 773.561,-188.017 776.187,-194.505"/>
</g>
<!-- Node36&#45;&gt;Node7 -->
<g id="edge67" class="edge"><title>Node36&#45;&gt;Node7</title>
<path fill="none" stroke="midnightblue" d="M856.734,-171.475C956.625,-160.772 1174.76,-137.401 1266.82,-127.537"/>
<polygon fill="midnightblue" stroke="midnightblue" points="1267.32,-131.003 1276.89,-126.458 1266.58,-124.043 1267.32,-131.003"/>
</g>
<!-- Node36&#45;&gt;Node13 -->
<g id="edge70" class="edge"><title>Node36&#45;&gt;Node13</title>
<path fill="none" stroke="midnightblue" d="M831.27,-168.47C858.673,-159.49 902.996,-144.895 941.166,-132 966.999,-123.273 972.495,-117.671 999.166,-112 1178.01,-73.9687 1398.29,-67.9628 1481.35,-67.1012"/>
<polygon fill="midnightblue" stroke="midnightblue" points="1481.49,-70.6002 1491.46,-67.0153 1481.43,-63.6005 1481.49,-70.6002"/>
</g>
<!-- Node36&#45;&gt;Node15 -->
<g id="edge68" class="edge"><title>Node36&#45;&gt;Node15</title>
<path fill="none" stroke="midnightblue" d="M856.756,-171.659C872.006,-170.257 888.745,-168.889 904.166,-168 1554.84,-130.476 1720.86,-188.45 2370.17,-132 2379.22,-131.213 2388.98,-129.935 2397.95,-128.586"/>
<polygon fill="midnightblue" stroke="midnightblue" points="2398.69,-132.012 2408.02,-126.994 2397.59,-125.098 2398.69,-132.012"/>
</g>
<!-- Node36&#45;&gt;Node31 -->
<g id="edge69" class="edge"><title>Node36&#45;&gt;Node31</title>
<path fill="none" stroke="midnightblue" d="M820.108,-168.324C834.751,-159.822 857.299,-146.729 874.403,-136.797"/>
<polygon fill="midnightblue" stroke="midnightblue" points="876.37,-139.703 883.261,-131.655 872.855,-133.649 876.37,-139.703"/>
</g>
<!-- Node36&#45;&gt;Node33 -->
<g id="edge66" class="edge"><title>Node36&#45;&gt;Node33</title>
<path fill="none" stroke="midnightblue" d="M753.573,-172.897C621.207,-162.37 272.168,-134.611 160.823,-125.756"/>
<polygon fill="midnightblue" stroke="midnightblue" points="161.051,-122.263 150.805,-124.96 160.496,-129.241 161.051,-122.263"/>
</g>
<!-- Node37 -->
<g id="node38" class="node"><title>Node37</title>
<g id="a_node38"><a xlink:href="bitflag_8h.html" target="_top" xlink:title="base/bitflag.h">
<polygon fill="white" stroke="black" points="764.666,-112.5 764.666,-131.5 845.666,-131.5 845.666,-112.5 764.666,-112.5"/>
<text text-anchor="middle" x="805.166" y="-119.5" font-family="Helvetica,sans-Serif" font-size="10.00">base/bitflag.h</text>
</a>
</g>
</g>
<!-- Node36&#45;&gt;Node37 -->
<g id="edge55" class="edge"><title>Node36&#45;&gt;Node37</title>
<path fill="none" stroke="midnightblue" d="M805.166,-168.083C805.166,-161.006 805.166,-150.861 805.166,-141.986"/>
<polygon fill="midnightblue" stroke="midnightblue" points="808.666,-141.751 805.166,-131.751 801.666,-141.751 808.666,-141.751"/>
</g>
<!-- Node39 -->
<g id="node40" class="node"><title>Node39</title>
<g id="a_node40"><a xlink:href="vec3_8h.html" target="_top" xlink:title="base/vec/vec3.h">
<polygon fill="white" stroke="black" points="652.166,-112.5 652.166,-131.5 746.166,-131.5 746.166,-112.5 652.166,-112.5"/>
<text text-anchor="middle" x="699.166" y="-119.5" font-family="Helvetica,sans-Serif" font-size="10.00">base/vec/vec3.h</text>
</a>
</g>
</g>
<!-- Node36&#45;&gt;Node39 -->
<g id="edge57" class="edge"><title>Node36&#45;&gt;Node39</title>
<path fill="none" stroke="midnightblue" d="M788.135,-168.324C771.136,-159.664 744.79,-146.242 725.173,-136.249"/>
<polygon fill="midnightblue" stroke="midnightblue" points="726.653,-133.075 716.154,-131.655 723.476,-139.312 726.653,-133.075"/>
</g>
<!-- Node41 -->
<g id="node42" class="node"><title>Node41</title>
<g id="a_node42"><a xlink:href="base_2std__ext_2math_8h.html" target="_top" xlink:title="base/std_ext/math.h">
<polygon fill="white" stroke="black" points="1067.17,-112.5 1067.17,-131.5 1183.17,-131.5 1183.17,-112.5 1067.17,-112.5"/>
<text text-anchor="middle" x="1125.17" y="-119.5" font-family="Helvetica,sans-Serif" font-size="10.00">base/std_ext/math.h</text>
</a>
</g>
</g>
<!-- Node36&#45;&gt;Node41 -->
<g id="edge62" class="edge"><title>Node36&#45;&gt;Node41</title>
<path fill="none" stroke="midnightblue" d="M855.871,-168.444C912.513,-158.885 1004.16,-143.419 1064.54,-133.23"/>
<polygon fill="midnightblue" stroke="midnightblue" points="1065.42,-136.632 1074.7,-131.516 1064.25,-129.729 1065.42,-136.632"/>
</g>
<!-- Node38 -->
<g id="node39" class="node"><title>Node38</title>
<polygon fill="white" stroke="#bfbfbf" points="788.166,-56.5 788.166,-75.5 832.166,-75.5 832.166,-56.5 788.166,-56.5"/>
<text text-anchor="middle" x="810.166" y="-63.5" font-family="Helvetica,sans-Serif" font-size="10.00">bitset</text>
</g>
<!-- Node37&#45;&gt;Node38 -->
<g id="edge56" class="edge"><title>Node37&#45;&gt;Node38</title>
<path fill="none" stroke="midnightblue" d="M805.991,-112.083C806.647,-105.006 807.586,-94.8611 808.408,-85.9865"/>
<polygon fill="midnightblue" stroke="midnightblue" points="811.918,-86.0312 809.355,-75.7511 804.948,-85.3858 811.918,-86.0312"/>
</g>
<!-- Node39&#45;&gt;Node11 -->
<g id="edge61" class="edge"><title>Node39&#45;&gt;Node11</title>
<path fill="none" stroke="midnightblue" d="M699.882,-112.226C701.186,-99.3876 704.647,-74.9517 713.166,-56 717.774,-45.747 724.985,-35.5439 731.491,-27.4516"/>
<polygon fill="midnightblue" stroke="midnightblue" points="734.345,-29.4966 738.119,-19.5967 728.995,-24.9824 734.345,-29.4966"/>
</g>
<!-- Node39&#45;&gt;Node14 -->
<g id="edge60" class="edge"><title>Node39&#45;&gt;Node14</title>
<path fill="none" stroke="midnightblue" d="M746.463,-112.918C749.403,-112.565 752.321,-112.253 755.166,-112 1192.84,-73.041 2292.84,-84.4227 2732.17,-76 2883.18,-73.1047 3062.9,-69.4107 3140.42,-67.8052"/>
<polygon fill="midnightblue" stroke="midnightblue" points="3140.74,-71.2994 3150.66,-67.5929 3140.59,-64.3009 3140.74,-71.2994"/>
</g>
<!-- Node40 -->
<g id="node41" class="node"><title>Node40</title>
<g id="a_node41"><a xlink:href="vec2_8h.html" target="_top" xlink:title="vec2.h">
<polygon fill="white" stroke="black" points="722.166,-56.5 722.166,-75.5 770.166,-75.5 770.166,-56.5 722.166,-56.5"/>
<text text-anchor="middle" x="746.166" y="-63.5" font-family="Helvetica,sans-Serif" font-size="10.00">vec2.h</text>
</a>
</g>
</g>
<!-- Node39&#45;&gt;Node40 -->
<g id="edge58" class="edge"><title>Node39&#45;&gt;Node40</title>
<path fill="none" stroke="midnightblue" d="M706.927,-112.083C713.702,-104.298 723.709,-92.8015 731.921,-83.3665"/>
<polygon fill="midnightblue" stroke="midnightblue" points="734.624,-85.592 738.549,-75.7511 729.344,-80.9963 734.624,-85.592"/>
</g>
<!-- Node40&#45;&gt;Node11 -->
<g id="edge59" class="edge"><title>Node40&#45;&gt;Node11</title>
<path fill="none" stroke="midnightblue" d="M746.166,-56.083C746.166,-49.0059 746.166,-38.8611 746.166,-29.9865"/>
<polygon fill="midnightblue" stroke="midnightblue" points="749.666,-29.751 746.166,-19.7511 742.666,-29.7511 749.666,-29.751"/>
</g>
<!-- Node41&#45;&gt;Node8 -->
<g id="edge64" class="edge"><title>Node41&#45;&gt;Node8</title>
<path fill="none" stroke="midnightblue" d="M1183.24,-116.854C1209.21,-115.126 1240.21,-113.238 1268.17,-112 1579.74,-98.2026 2362.98,-123.872 2671.17,-76 2671.27,-75.9844 2671.37,-75.9686 2671.47,-75.9525"/>
<polygon fill="midnightblue" stroke="midnightblue" points="2671.93,-79.4325 2680.98,-73.928 2670.47,-72.5858 2671.93,-79.4325"/>
</g>
<!-- Node41&#45;&gt;Node11 -->
<g id="edge63" class="edge"><title>Node41&#45;&gt;Node11</title>
<path fill="none" stroke="midnightblue" d="M1095.74,-112.46C1026.31,-92.3079 852.618,-41.8964 779.47,-20.6661"/>
<polygon fill="midnightblue" stroke="midnightblue" points="780.416,-17.2964 769.837,-17.8703 778.465,-24.019 780.416,-17.2964"/>
</g>
<!-- Node41&#45;&gt;Node13 -->
<g id="edge65" class="edge"><title>Node41&#45;&gt;Node13</title>
<path fill="none" stroke="midnightblue" d="M1183.55,-112.916C1266.25,-101.465 1414.83,-80.893 1481.35,-71.6822"/>
<polygon fill="midnightblue" stroke="midnightblue" points="1481.87,-75.1431 1491.3,-70.3046 1480.91,-68.2092 1481.87,-75.1431"/>
</g>
<!-- Node42&#45;&gt;Node26 -->
<g id="edge74" class="edge"><title>Node42&#45;&gt;Node26</title>
<path fill="none" stroke="midnightblue" d="M108.706,-349.433C181.985,-338.379 328.206,-316.324 392.091,-306.687"/>
<polygon fill="midnightblue" stroke="midnightblue" points="392.955,-310.097 402.321,-305.144 391.911,-303.175 392.955,-310.097"/>
</g>
<!-- Node42&#45;&gt;Node27 -->
<g id="edge75" class="edge"><title>Node42&#45;&gt;Node27</title>
<path fill="none" stroke="midnightblue" d="M80.0479,-347.319C114.173,-327.412 198.292,-278.343 239.561,-254.269"/>
<polygon fill="midnightblue" stroke="midnightblue" points="241.507,-257.186 248.381,-249.124 237.98,-251.14 241.507,-257.186"/>
</g>
<!-- Node42&#45;&gt;Node32 -->
<g id="edge77" class="edge"><title>Node42&#45;&gt;Node32</title>
<path fill="none" stroke="midnightblue" d="M49.3823,-347.467C36.9629,-339.769 20.5606,-327.179 13.1657,-311 -12.9845,-253.788 8.02264,-176.513 20.1177,-141.55"/>
<polygon fill="midnightblue" stroke="midnightblue" points="23.5474,-142.358 23.6605,-131.764 16.9654,-139.975 23.5474,-142.358"/>
</g>
<!-- Node42&#45;&gt;Node33 -->
<g id="edge76" class="edge"><title>Node42&#45;&gt;Node33</title>
<path fill="none" stroke="midnightblue" d="M64.6183,-347.316C63.2189,-319.764 61.3861,-232.344 89.1657,-168 93.8562,-157.136 101.988,-146.802 109.435,-138.784"/>
<polygon fill="midnightblue" stroke="midnightblue" points="111.982,-141.186 116.502,-131.604 106.993,-136.276 111.982,-141.186"/>
</g>
<!-- Node43&#45;&gt;Node14 -->
<g id="edge82" class="edge"><title>Node43&#45;&gt;Node14</title>
<path fill="none" stroke="midnightblue" d="M3127.56,-168.368C3136.72,-150.376 3158.01,-108.55 3170.19,-84.6267"/>
<polygon fill="midnightblue" stroke="midnightblue" points="3173.37,-86.091 3174.79,-75.5914 3167.14,-82.9152 3173.37,-86.091"/>
</g>
<!-- Node44 -->
<g id="node45" class="node"><title>Node44</title>
<g id="a_node45"><a xlink:href="_format_8h.html" target="_top" xlink:title="base/Format.h">
<polygon fill="white" stroke="black" points="2584.17,-112.5 2584.17,-131.5 2670.17,-131.5 2670.17,-112.5 2584.17,-112.5"/>
<text text-anchor="middle" x="2627.17" y="-119.5" font-family="Helvetica,sans-Serif" font-size="10.00">base/Format.h</text>
</a>
</g>
</g>
<!-- Node43&#45;&gt;Node44 -->
<g id="edge79" class="edge"><title>Node43&#45;&gt;Node44</title>
<path fill="none" stroke="midnightblue" d="M3063.4,-169.654C3058.59,-169.086 3053.79,-168.528 3049.17,-168 2916.75,-152.889 2760.78,-136.667 2680.65,-128.447"/>
<polygon fill="midnightblue" stroke="midnightblue" points="2680.63,-124.927 2670.32,-127.389 2679.91,-131.89 2680.63,-124.927"/>
</g>
<!-- Node44&#45;&gt;Node13 -->
<g id="edge81" class="edge"><title>Node44&#45;&gt;Node13</title>
<path fill="none" stroke="midnightblue" d="M2583.97,-113.65C2579.32,-113.017 2574.65,-112.448 2570.17,-112 2170.06,-72.0113 1681.12,-67.5124 1549.27,-67.044"/>
<polygon fill="midnightblue" stroke="midnightblue" points="1549.02,-63.5433 1539.01,-67.0133 1549,-70.5433 1549.02,-63.5433"/>
</g>
<!-- Node45 -->
<g id="node46" class="node"><title>Node45</title>
<polygon fill="white" stroke="#bfbfbf" points="2585.67,-56.5 2585.67,-75.5 2662.67,-75.5 2662.67,-56.5 2585.67,-56.5"/>
<text text-anchor="middle" x="2624.17" y="-63.5" font-family="Helvetica,sans-Serif" font-size="10.00">fmt/format.h</text>
</g>
<!-- Node44&#45;&gt;Node45 -->
<g id="edge80" class="edge"><title>Node44&#45;&gt;Node45</title>
<path fill="none" stroke="midnightblue" d="M2626.67,-112.083C2626.28,-105.006 2625.71,-94.8611 2625.22,-85.9865"/>
<polygon fill="midnightblue" stroke="midnightblue" points="2628.7,-85.5415 2624.65,-75.7511 2621.71,-85.9299 2628.7,-85.5415"/>
</g>
<!-- Node46&#45;&gt;Node10 -->
<g id="edge89" class="edge"><title>Node46&#45;&gt;Node10</title>
<path fill="none" stroke="midnightblue" d="M451.097,-355.302C366.061,-351.813 170.243,-332.096 198.166,-224 205.281,-196.456 205.559,-183.875 229.166,-168 283.85,-131.226 483.096,-124.445 567.725,-123.238"/>
<polygon fill="midnightblue" stroke="midnightblue" points="567.978,-126.736 577.934,-123.112 567.892,-119.736 567.978,-126.736"/>
</g>
<!-- Node46&#45;&gt;Node13 -->
<g id="edge87" class="edge"><title>Node46&#45;&gt;Node13</title>
<path fill="none" stroke="midnightblue" d="M527.179,-354.791C623.664,-351.33 875.936,-339.724 954.166,-311 1044.09,-277.982 1053.03,-243.42 1131.17,-188 1178.15,-154.672 1182.95,-134.073 1236.17,-112 1319.65,-77.368 1427.46,-69.2763 1481.35,-67.4614"/>
<polygon fill="midnightblue" stroke="midnightblue" points="1481.49,-70.9589 1491.39,-67.1761 1481.29,-63.9617 1481.49,-70.9589"/>
</g>
<!-- Node46&#45;&gt;Node26 -->
<g id="edge84" class="edge"><title>Node46&#45;&gt;Node26</title>
<path fill="none" stroke="midnightblue" d="M478.562,-347.324C468.709,-339.263 453.815,-327.077 441.951,-317.369"/>
<polygon fill="midnightblue" stroke="midnightblue" points="443.919,-314.457 433.963,-310.834 439.486,-319.875 443.919,-314.457"/>
</g>
<!-- Node46&#45;&gt;Node34 -->
<g id="edge88" class="edge"><title>Node46&#45;&gt;Node34</title>
<path fill="none" stroke="midnightblue" d="M488.683,-347.463C487.156,-320.428 482.4,-236.239 480.245,-198.109"/>
<polygon fill="midnightblue" stroke="midnightblue" points="483.725,-197.655 479.667,-187.868 476.736,-198.05 483.725,-197.655"/>
</g>
<!-- Node47 -->
<g id="node48" class="node"><title>Node47</title>
<g id="a_node48"><a xlink:href="_lorentz_vec_8h.html" target="_top" xlink:title="base/vec/LorentzVec.h">
<polygon fill="white" stroke="black" points="574.666,-291.5 574.666,-310.5 699.666,-310.5 699.666,-291.5 574.666,-291.5"/>
<text text-anchor="middle" x="637.166" y="-298.5" font-family="Helvetica,sans-Serif" font-size="10.00">base/vec/LorentzVec.h</text>
</a>
</g>
</g>
<!-- Node46&#45;&gt;Node47 -->
<g id="edge85" class="edge"><title>Node46&#45;&gt;Node47</title>
<path fill="none" stroke="midnightblue" d="M512.617,-347.444C537.298,-338.438 576.351,-324.189 604.142,-314.049"/>
<polygon fill="midnightblue" stroke="midnightblue" points="605.63,-317.232 613.824,-310.516 603.23,-310.656 605.63,-317.232"/>
</g>
<!-- Node47&#45;&gt;Node39 -->
<g id="edge86" class="edge"><title>Node47&#45;&gt;Node39</title>
<path fill="none" stroke="midnightblue" d="M670.965,-291.388C689.559,-284.735 711.055,-273.453 722.166,-255 729.272,-243.197 728.388,-236.293 722.166,-224 709.961,-199.889 685.37,-212.111 673.166,-188 665.061,-171.988 674.955,-152.823 684.782,-139.469"/>
<polygon fill="midnightblue" stroke="midnightblue" points="687.54,-141.624 691.039,-131.624 682.067,-137.259 687.54,-141.624"/>
</g>
<!-- Node48&#45;&gt;Node5 -->
<g id="edge91" class="edge"><title>Node48&#45;&gt;Node5</title>
<path fill="none" stroke="midnightblue" d="M1962.04,-229.8C1969.37,-214.441 1986.86,-182.753 2012.17,-168 2060.18,-140.007 2224.55,-128.483 2298.54,-124.632"/>
<polygon fill="midnightblue" stroke="midnightblue" points="2298.97,-128.115 2308.78,-124.118 2298.62,-121.124 2298.97,-128.115"/>
</g>
<!-- Node48&#45;&gt;Node8 -->
<g id="edge93" class="edge"><title>Node48&#45;&gt;Node8</title>
<path fill="none" stroke="midnightblue" d="M1989.21,-234.819C2123.86,-218.735 2651.9,-154.44 2679.17,-132 2692.86,-120.724 2698.41,-100.716 2700.65,-85.8675"/>
<polygon fill="midnightblue" stroke="midnightblue" points="2704.15,-86.0796 2701.8,-75.7482 2697.2,-85.2887 2704.15,-86.0796"/>
</g>
<!-- Node48&#45;&gt;Node13 -->
<g id="edge92" class="edge"><title>Node48&#45;&gt;Node13</title>
<path fill="none" stroke="midnightblue" d="M1936.74,-229.852C1930.52,-227.633 1923.65,-225.463 1917.17,-224 1841.97,-207.031 1635.02,-232.616 1572.17,-188 1554.37,-175.371 1531.99,-116.081 1521.34,-85.4405"/>
<polygon fill="midnightblue" stroke="midnightblue" points="1524.52,-83.9217 1517.98,-75.5875 1517.89,-86.182 1524.52,-83.9217"/>
</g>
<!-- Node48&#45;&gt;Node18 -->
<g id="edge94" class="edge"><title>Node48&#45;&gt;Node18</title>
<path fill="none" stroke="midnightblue" d="M1937.17,-229.965C1930.84,-227.693 1923.8,-225.466 1917.17,-224 1752.38,-187.593 1707.03,-205.319 1539.17,-188 1525.51,-186.591 1510.56,-184.956 1497.27,-183.47"/>
<polygon fill="midnightblue" stroke="midnightblue" points="1497.35,-179.957 1487.02,-182.317 1496.57,-186.913 1497.35,-179.957"/>
</g>
<!-- Node49&#45;&gt;Node5 -->
<g id="edge96" class="edge"><title>Node49&#45;&gt;Node5</title>
<path fill="none" stroke="midnightblue" d="M1571.29,-233.715C1669.67,-218.092 1975.77,-169.493 1986.17,-168 2099.92,-151.659 2234.95,-135.035 2298.56,-127.367"/>
<polygon fill="midnightblue" stroke="midnightblue" points="2299.35,-130.797 2308.86,-126.128 2298.52,-123.847 2299.35,-130.797"/>
</g>
<!-- Node49&#45;&gt;Node17 -->
<g id="edge99" class="edge"><title>Node49&#45;&gt;Node17</title>
<path fill="none" stroke="midnightblue" d="M1566.24,-229.975C1599.5,-218.667 1657.87,-198.822 1691.11,-187.517"/>
<polygon fill="midnightblue" stroke="midnightblue" points="1692.62,-190.702 1700.96,-184.169 1690.37,-184.074 1692.62,-190.702"/>
</g>
<!-- Node49&#45;&gt;Node18 -->
<g id="edge100" class="edge"><title>Node49&#45;&gt;Node18</title>
<path fill="none" stroke="midnightblue" d="M1529.27,-229.975C1515.96,-220.431 1494.17,-204.807 1478.21,-193.368"/>
<polygon fill="midnightblue" stroke="midnightblue" points="1480.2,-190.491 1470.04,-187.509 1476.12,-196.18 1480.2,-190.491"/>
</g>
<!-- Node49&#45;&gt;Node39 -->
<g id="edge98" class="edge"><title>Node49&#45;&gt;Node39</title>
<path fill="none" stroke="midnightblue" d="M1510.96,-231.826C1496.82,-228.956 1479.7,-225.842 1464.17,-224 1384.62,-214.567 814.166,-226.935 744.166,-188 725.844,-177.809 713.365,-156.638 706.28,-141.218"/>
<polygon fill="midnightblue" stroke="midnightblue" points="709.357,-139.508 702.231,-131.667 702.912,-142.24 709.357,-139.508"/>
</g>
<!-- Node49&#45;&gt;Node41 -->
<g id="edge97" class="edge"><title>Node49&#45;&gt;Node41</title>
<path fill="none" stroke="midnightblue" d="M1510.91,-230.1C1437.32,-209.669 1248.92,-157.361 1165.71,-134.258"/>
<polygon fill="midnightblue" stroke="midnightblue" points="1166.44,-130.827 1155.87,-131.524 1164.57,-137.572 1166.44,-130.827"/>
</g>
<!-- Node50&#45;&gt;Node10 -->
<g id="edge114" class="edge"><title>Node50&#45;&gt;Node10</title>
<path fill="none" stroke="midnightblue" d="M886.607,-291.495C861.651,-283.388 824.16,-270.189 793.166,-255 742.442,-230.143 731.077,-220.907 685.166,-188 663.241,-172.286 639.526,-152.339 623.861,-138.713"/>
<polygon fill="midnightblue" stroke="midnightblue" points="625.875,-135.824 616.049,-131.86 621.258,-141.086 625.875,-135.824"/>
</g>
<!-- Node50&#45;&gt;Node11 -->
<g id="edge112" class="edge"><title>Node50&#45;&gt;Node11</title>
<path fill="none" stroke="midnightblue" d="M882.665,-298.525C746.106,-292.068 211.521,-266.12 198.166,-255 171.408,-232.722 179.166,-213.817 179.166,-179 179.166,-179 179.166,-179 179.166,-121 179.166,-11.7413 590.04,-8.78695 712.266,-10.3253"/>
<polygon fill="midnightblue" stroke="midnightblue" points="712.475,-13.8286 722.524,-10.474 712.576,-6.82931 712.475,-13.8286"/>
</g>
<!-- Node50&#45;&gt;Node13 -->
<g id="edge111" class="edge"><title>Node50&#45;&gt;Node13</title>
<path fill="none" stroke="midnightblue" d="M916.35,-291.259C920.657,-275.712 931.653,-243.1 952.166,-224 982.791,-195.484 1011.83,-219.688 1039.17,-188 1061.91,-161.635 1031.81,-134.747 1058.17,-112 1090.09,-84.4537 1381.31,-71.705 1481.49,-68.1078"/>
<polygon fill="midnightblue" stroke="midnightblue" points="1481.79,-71.5996 1491.66,-67.7507 1481.54,-64.6039 1481.79,-71.5996"/>
</g>
<!-- Node50&#45;&gt;Node18 -->
<g id="edge115" class="edge"><title>Node50&#45;&gt;Node18</title>
<path fill="none" stroke="midnightblue" d="M946.004,-298.869C1009.44,-295.996 1155.71,-286.261 1274.17,-255 1332.81,-239.522 1397.53,-209.548 1432.42,-192.227"/>
<polygon fill="midnightblue" stroke="midnightblue" points="1434.08,-195.313 1441.45,-187.7 1430.94,-189.056 1434.08,-195.313"/>
</g>
<!-- Node50&#45;&gt;Node34 -->
<g id="edge113" class="edge"><title>Node50&#45;&gt;Node34</title>
<path fill="none" stroke="midnightblue" d="M882.663,-297.508C812.667,-291.659 646.286,-275.949 594.166,-255 572.306,-246.214 570.721,-237.139 551.166,-224 535.006,-213.143 516.357,-201.511 502.088,-192.794"/>
<polygon fill="midnightblue" stroke="midnightblue" points="503.778,-189.725 493.414,-187.524 500.143,-195.707 503.778,-189.725"/>
</g>
<!-- Node50&#45;&gt;Node35 -->
<g id="edge102" class="edge"><title>Node50&#45;&gt;Node35</title>
<path fill="none" stroke="midnightblue" d="M882.518,-292.644C837.996,-282.297 756.559,-263.369 705.01,-251.388"/>
<polygon fill="midnightblue" stroke="midnightblue" points="705.651,-247.943 695.118,-249.089 704.066,-254.762 705.651,-247.943"/>
</g>
<!-- Node50&#45;&gt;Node36 -->
<g id="edge103" class="edge"><title>Node50&#45;&gt;Node36</title>
<path fill="none" stroke="midnightblue" d="M906.327,-291.298C888.179,-271.153 843.051,-221.056 819.691,-195.125"/>
<polygon fill="midnightblue" stroke="midnightblue" points="822.227,-192.711 812.934,-187.623 817.026,-197.396 822.227,-192.711"/>
</g>
<!-- Node50&#45;&gt;Node39 -->
<g id="edge110" class="edge"><title>Node50&#45;&gt;Node39</title>
<path fill="none" stroke="midnightblue" d="M900.565,-291.402C870.1,-272.152 798.615,-227.025 793.166,-224 761.189,-206.247 742.958,-215.778 719.166,-188 708.015,-174.981 703.079,-155.822 700.896,-141.675"/>
<polygon fill="midnightblue" stroke="midnightblue" points="704.354,-141.12 699.668,-131.617 697.405,-141.968 704.354,-141.12"/>
</g>
<!-- Node50&#45;&gt;Node41 -->
<g id="edge104" class="edge"><title>Node50&#45;&gt;Node41</title>
<path fill="none" stroke="midnightblue" d="M921.024,-291.373C933.913,-275.716 963.336,-242.532 995.166,-224 1041.82,-196.839 1074.73,-227.827 1111.17,-188 1122.48,-175.635 1125.46,-156.388 1125.93,-142.043"/>
<polygon fill="midnightblue" stroke="midnightblue" points="1129.43,-141.794 1125.87,-131.814 1122.43,-141.834 1129.43,-141.794"/>
</g>
<!-- Node51 -->
<g id="node52" class="node"><title>Node51</title>
<g id="a_node52"><a xlink:href="shared__ptr__container_8h.html" target="_top" xlink:title="base/std_ext/shared\l_ptr_container.h">
<polygon fill="white" stroke="black" points="1151.17,-224.5 1151.17,-254.5 1265.17,-254.5 1265.17,-224.5 1151.17,-224.5"/>
<text text-anchor="start" x="1159.17" y="-242.5" font-family="Helvetica,sans-Serif" font-size="10.00">base/std_ext/shared</text>
<text text-anchor="middle" x="1208.17" y="-231.5" font-family="Helvetica,sans-Serif" font-size="10.00">_ptr_container.h</text>
</a>
</g>
</g>
<!-- Node50&#45;&gt;Node51 -->
<g id="edge105" class="edge"><title>Node50&#45;&gt;Node51</title>
<path fill="none" stroke="midnightblue" d="M945.908,-293.576C992.393,-284.168 1080.09,-266.421 1141.21,-254.05"/>
<polygon fill="midnightblue" stroke="midnightblue" points="1142.05,-257.451 1151.16,-252.036 1140.67,-250.59 1142.05,-257.451"/>
</g>
<!-- Node51&#45;&gt;Node6 -->
<g id="edge109" class="edge"><title>Node51&#45;&gt;Node6</title>
<path fill="none" stroke="midnightblue" d="M1253.12,-224.455C1279.03,-215.565 1311.78,-202.94 1339.17,-188 1365.48,-173.644 1392.93,-152.511 1410.26,-138.275"/>
<polygon fill="midnightblue" stroke="midnightblue" points="1412.9,-140.626 1418.34,-131.532 1408.42,-135.251 1412.9,-140.626"/>
</g>
<!-- Node51&#45;&gt;Node13 -->
<g id="edge106" class="edge"><title>Node51&#45;&gt;Node13</title>
<path fill="none" stroke="midnightblue" d="M1231.29,-224.369C1247.2,-214.486 1268.71,-200.812 1287.17,-188 1333.31,-155.959 1338.67,-138.578 1388.17,-112 1418.18,-95.8799 1455.16,-83.5352 1481.46,-75.8886"/>
<polygon fill="midnightblue" stroke="midnightblue" points="1482.65,-79.1869 1491.32,-73.094 1480.75,-72.4518 1482.65,-79.1869"/>
</g>
<!-- Node51&#45;&gt;Node18 -->
<g id="edge107" class="edge"><title>Node51&#45;&gt;Node18</title>
<path fill="none" stroke="midnightblue" d="M1265.21,-224.924C1312.5,-213.668 1378.45,-197.973 1419.7,-188.155"/>
<polygon fill="midnightblue" stroke="midnightblue" points="1420.71,-191.512 1429.63,-185.791 1419.09,-184.702 1420.71,-191.512"/>
</g>
<!-- Node51&#45;&gt;Node19 -->
<g id="edge108" class="edge"><title>Node51&#45;&gt;Node19</title>
<path fill="none" stroke="midnightblue" d="M1265.33,-230.101C1347.84,-217.98 1498.38,-195.864 1571.32,-185.147"/>
<polygon fill="midnightblue" stroke="midnightblue" points="1572.12,-188.568 1581.51,-183.651 1571.1,-181.642 1572.12,-188.568"/>
</g>
<!-- Node52&#45;&gt;Node6 -->
<g id="edge123" class="edge"><title>Node52&#45;&gt;Node6</title>
<path fill="none" stroke="midnightblue" d="M1088.77,-347.471C1142.11,-326.553 1278.14,-268.48 1369.17,-188 1386.21,-172.929 1403.44,-153.329 1414.84,-139.609"/>
<polygon fill="midnightblue" stroke="midnightblue" points="1417.81,-141.505 1421.44,-131.548 1412.4,-137.074 1417.81,-141.505"/>
</g>
<!-- Node52&#45;&gt;Node10 -->
<g id="edge121" class="edge"><title>Node52&#45;&gt;Node10</title>
<path fill="none" stroke="midnightblue" d="M1026.65,-352.465C952.203,-345.484 793.991,-329.034 742.166,-311 725.608,-305.238 724.599,-297.107 708.166,-291 624.325,-259.844 589.545,-296.217 510.166,-255 466.611,-232.384 412.407,-207.024 442.166,-168 457.373,-148.058 524.616,-134.767 568.137,-128.081"/>
<polygon fill="midnightblue" stroke="midnightblue" points="568.73,-131.531 578.108,-126.6 567.702,-124.607 568.73,-131.531"/>
</g>
<!-- Node52&#45;&gt;Node13 -->
<g id="edge119" class="edge"><title>Node52&#45;&gt;Node13</title>
<path fill="none" stroke="midnightblue" d="M1067.72,-347.21C1072.18,-324.318 1086.94,-262.003 1121.17,-224 1143.53,-199.171 1160.1,-207.589 1187.17,-188 1227.16,-159.058 1224.08,-134.22 1268.17,-112 1338.33,-76.632 1432.16,-68.7608 1481.53,-67.1989"/>
<polygon fill="midnightblue" stroke="midnightblue" points="1481.74,-70.6948 1491.65,-66.9486 1481.57,-63.697 1481.74,-70.6948"/>
</g>
<!-- Node52&#45;&gt;Node18 -->
<g id="edge122" class="edge"><title>Node52&#45;&gt;Node18</title>
<path fill="none" stroke="midnightblue" d="M1105.94,-356.175C1191.44,-355.781 1389.24,-350.498 1441.17,-311 1475.25,-285.077 1468.89,-227.51 1462.79,-197.7"/>
<polygon fill="midnightblue" stroke="midnightblue" points="1466.16,-196.742 1460.54,-187.758 1459.33,-198.283 1466.16,-196.742"/>
</g>
<!-- Node52&#45;&gt;Node34 -->
<g id="edge120" class="edge"><title>Node52&#45;&gt;Node34</title>
<path fill="none" stroke="midnightblue" d="M1026.29,-347.844C965.18,-335.381 844.659,-310.939 742.166,-291 657.372,-274.504 627.001,-296.366 551.166,-255 525.078,-240.77 502.944,-213.716 490.355,-196.023"/>
<polygon fill="midnightblue" stroke="midnightblue" points="493.216,-194.006 484.672,-187.742 487.444,-197.967 493.216,-194.006"/>
</g>
<!-- Node52&#45;&gt;Node36 -->
<g id="edge118" class="edge"><title>Node52&#45;&gt;Node36</title>
<path fill="none" stroke="midnightblue" d="M1053.66,-347.245C1023.15,-325.921 942.395,-269.692 874.166,-224 858.525,-213.525 840.727,-201.926 827.125,-193.127"/>
<polygon fill="midnightblue" stroke="midnightblue" points="828.756,-190.014 818.456,-187.531 824.96,-195.896 828.756,-190.014"/>
</g>
<!-- Node52&#45;&gt;Node50 -->
<g id="edge117" class="edge"><title>Node52&#45;&gt;Node50</title>
<path fill="none" stroke="midnightblue" d="M1042.08,-347.444C1016.62,-338.399 976.272,-324.064 947.707,-313.916"/>
<polygon fill="midnightblue" stroke="midnightblue" points="948.733,-310.566 938.138,-310.516 946.389,-317.162 948.733,-310.566"/>
</g>
<!-- Node53&#45;&gt;Node5 -->
<g id="edge126" class="edge"><title>Node53&#45;&gt;Node5</title>
<path fill="none" stroke="midnightblue" d="M1812.78,-410.168C1865.71,-406.443 1973.07,-395.742 2059.17,-367 2077.27,-360.957 2079.54,-354.325 2097.17,-347 2146.62,-326.444 2162.85,-331.89 2212.17,-311 2260.14,-290.676 2285.25,-297.661 2315.17,-255 2339.15,-220.794 2339.28,-169.317 2337.25,-141.848"/>
<polygon fill="midnightblue" stroke="midnightblue" points="2340.71,-141.303 2336.31,-131.665 2333.74,-141.944 2340.71,-141.303"/>
</g>
<!-- Node53&#45;&gt;Node13 -->
<g id="edge148" class="edge"><title>Node53&#45;&gt;Node13</title>
<path fill="none" stroke="midnightblue" d="M1778.24,-403.29C1771.16,-373.306 1743.61,-273.491 1681.17,-224 1634.85,-187.293 1597.59,-226.969 1553.17,-188 1523.33,-161.829 1516.67,-112.525 1515.34,-85.6389"/>
<polygon fill="midnightblue" stroke="midnightblue" points="1518.84,-85.514 1515.05,-75.6214 1511.84,-85.7202 1518.84,-85.514"/>
</g>
<!-- Node53&#45;&gt;Node17 -->
<g id="edge149" class="edge"><title>Node53&#45;&gt;Node17</title>
<path fill="none" stroke="midnightblue" d="M1811.9,-403.471C1901.3,-379.429 2148.84,-312.734 2150.17,-311 2155.56,-303.935 2151.74,-299.748 2150.17,-291 2144.52,-259.722 2150.4,-243.322 2125.17,-224 2059.27,-173.547 1839.65,-204.931 1741.2,-187.387"/>
<polygon fill="midnightblue" stroke="midnightblue" points="1741.71,-183.92 1731.21,-185.335 1740.3,-190.777 1741.71,-183.92"/>
</g>
<!-- Node53&#45;&gt;Node18 -->
<g id="edge151" class="edge"><title>Node53&#45;&gt;Node18</title>
<path fill="none" stroke="midnightblue" d="M1770.64,-403.231C1761.48,-394.531 1747.53,-380.57 1737.17,-367 1692.16,-308.052 1711.13,-267.646 1651.17,-224 1644.89,-219.435 1551.65,-198.963 1497.1,-187.266"/>
<polygon fill="midnightblue" stroke="midnightblue" points="1497.58,-183.789 1487.07,-185.12 1496.12,-190.635 1497.58,-183.789"/>
</g>
<!-- Node53&#45;&gt;Node47 -->
<g id="edge147" class="edge"><title>Node53&#45;&gt;Node47</title>
<path fill="none" stroke="midnightblue" d="M1747.33,-411.359C1641.31,-409.014 1298.63,-399.272 1017.17,-367 898.649,-353.411 760.963,-327.236 688.249,-312.588"/>
<polygon fill="midnightblue" stroke="midnightblue" points="688.498,-309.068 678.002,-310.513 687.109,-315.928 688.498,-309.068"/>
</g>
<!-- Node53&#45;&gt;Node52 -->
<g id="edge125" class="edge"><title>Node53&#45;&gt;Node52</title>
<path fill="none" stroke="midnightblue" d="M1747.63,-409.539C1633.83,-400.933 1253.13,-372.14 1115.96,-361.766"/>
<polygon fill="midnightblue" stroke="midnightblue" points="1115.98,-358.258 1105.75,-360.994 1115.45,-365.238 1115.98,-358.258"/>
</g>
<!-- Node54 -->
<g id="node55" class="node"><title>Node54</title>
<g id="a_node55"><a xlink:href="_particle_type_8h.html" target="_top" xlink:title="base/ParticleType.h">
<polygon fill="white" stroke="black" points="2764.67,-230 2764.67,-249 2871.67,-249 2871.67,-230 2764.67,-230"/>
<text text-anchor="middle" x="2818.17" y="-237" font-family="Helvetica,sans-Serif" font-size="10.00">base/ParticleType.h</text>
</a>
</g>
</g>
<!-- Node53&#45;&gt;Node54 -->
<g id="edge127" class="edge"><title>Node53&#45;&gt;Node54</title>
<path fill="none" stroke="midnightblue" d="M1813.07,-407.634C1870.7,-399.918 1993.64,-383.156 2097.17,-367 2390.27,-321.26 2464.28,-313.182 2755.17,-255 2760.88,-253.858 2766.86,-252.583 2772.77,-251.276"/>
<polygon fill="midnightblue" stroke="midnightblue" points="2773.61,-254.676 2782.59,-249.064 2772.07,-247.847 2773.61,-254.676"/>
</g>
<!-- Node57 -->
<g id="node58" class="node"><title>Node57</title>
<g id="a_node58"><a xlink:href="_tree_8h.html" target="_top" xlink:title="base/Tree.h">
<polygon fill="white" stroke="black" points="2235.67,-230 2235.67,-249 2306.67,-249 2306.67,-230 2235.67,-230"/>
<text text-anchor="middle" x="2271.17" y="-237" font-family="Helvetica,sans-Serif" font-size="10.00">base/Tree.h</text>
</a>
</g>
</g>
<!-- Node53&#45;&gt;Node57 -->
<g id="edge135" class="edge"><title>Node53&#45;&gt;Node57</title>
<path fill="none" stroke="midnightblue" d="M1813.04,-408.092C1859.91,-402.019 1948.36,-388.703 2021.17,-367 2043.31,-360.398 2047.46,-354.932 2069.17,-347 2119.07,-328.764 2136.3,-336.037 2183.17,-311 2211.06,-296.097 2238.8,-271.925 2255.46,-256.119"/>
<polygon fill="midnightblue" stroke="midnightblue" points="2257.96,-258.578 2262.71,-249.109 2253.09,-253.548 2257.96,-258.578"/>
</g>
<!-- Node63 -->
<g id="node64" class="node"><title>Node63</title>
<polygon fill="white" stroke="#bfbfbf" points="1779.67,-347.5 1779.67,-366.5 1838.67,-366.5 1838.67,-347.5 1779.67,-347.5"/>
<text text-anchor="middle" x="1809.17" y="-354.5" font-family="Helvetica,sans-Serif" font-size="10.00">iostream</text>
</g>
<!-- Node53&#45;&gt;Node63 -->
<g id="edge150" class="edge"><title>Node53&#45;&gt;Node63</title>
<path fill="none" stroke="midnightblue" d="M1784.95,-403.083C1788.92,-395.691 1794.69,-384.953 1799.6,-375.811"/>
<polygon fill="midnightblue" stroke="midnightblue" points="1802.82,-377.217 1804.47,-366.751 1796.65,-373.905 1802.82,-377.217"/>
</g>
<!-- Node54&#45;&gt;Node4 -->
<g id="edge129" class="edge"><title>Node54&#45;&gt;Node4</title>
<path fill="none" stroke="midnightblue" d="M2788.22,-229.975C2751.59,-219.548 2689.47,-201.862 2648.88,-190.307"/>
<polygon fill="midnightblue" stroke="midnightblue" points="2649.63,-186.881 2639.05,-187.509 2647.71,-193.613 2649.63,-186.881"/>
</g>
<!-- Node54&#45;&gt;Node5 -->
<g id="edge128" class="edge"><title>Node54&#45;&gt;Node5</title>
<path fill="none" stroke="midnightblue" d="M2803.12,-229.979C2775.79,-214.904 2715.74,-183.651 2661.17,-168 2548.18,-135.596 2515.58,-148.184 2399.17,-132 2390.12,-130.743 2380.36,-129.375 2371.25,-128.095"/>
<polygon fill="midnightblue" stroke="midnightblue" points="2371.71,-124.625 2361.32,-126.697 2370.73,-131.557 2371.71,-124.625"/>
</g>
<!-- Node54&#45;&gt;Node13 -->
<g id="edge134" class="edge"><title>Node54&#45;&gt;Node13</title>
<path fill="none" stroke="midnightblue" d="M2806.97,-229.967C2787.01,-215.155 2743.47,-184.674 2702.17,-168 2634.58,-140.713 2611.36,-154.912 2542.17,-132 2521.39,-125.12 2518.47,-117.032 2497.17,-112 2311.24,-68.0737 1699.49,-66.5609 1548.89,-66.8729"/>
<polygon fill="midnightblue" stroke="midnightblue" points="1548.85,-63.3729 1538.86,-66.898 1548.86,-70.3729 1548.85,-63.3729"/>
</g>
<!-- Node54&#45;&gt;Node14 -->
<g id="edge131" class="edge"><title>Node54&#45;&gt;Node14</title>
<path fill="none" stroke="midnightblue" d="M2871.75,-235.741C2976.91,-229.777 3202.12,-214.078 3225.17,-188 3247.53,-162.688 3238.26,-143.135 3225.17,-112 3220.14,-100.053 3210.22,-89.6922 3200.88,-81.9339"/>
<polygon fill="midnightblue" stroke="midnightblue" points="3203.01,-79.1547 3192.95,-75.8113 3198.73,-84.6944 3203.01,-79.1547"/>
</g>
<!-- Node54&#45;&gt;Node15 -->
<g id="edge130" class="edge"><title>Node54&#45;&gt;Node15</title>
<path fill="none" stroke="midnightblue" d="M2836.66,-229.902C2862.65,-216.708 2904.65,-190.616 2884.17,-168 2877.06,-160.151 2564.79,-133.995 2462.34,-125.611"/>
<polygon fill="midnightblue" stroke="midnightblue" points="2462.53,-122.114 2452.28,-124.789 2461.96,-129.091 2462.53,-122.114"/>
</g>
<!-- Node54&#45;&gt;Node55 -->
<g id="edge132" class="edge"><title>Node54&#45;&gt;Node55</title>
<path fill="none" stroke="midnightblue" d="M2837.08,-229.975C2859.33,-219.945 2896.48,-203.2 2922.09,-191.655"/>
<polygon fill="midnightblue" stroke="midnightblue" points="2923.61,-194.809 2931.29,-187.509 2920.73,-188.428 2923.61,-194.809"/>
</g>
<!-- Node56 -->
<g id="node57" class="node"><title>Node56</title>
<polygon fill="white" stroke="#bfbfbf" points="2823.17,-168.5 2823.17,-187.5 2875.17,-187.5 2875.17,-168.5 2823.17,-168.5"/>
<text text-anchor="middle" x="2849.17" y="-175.5" font-family="Helvetica,sans-Serif" font-size="10.00">iterator</text>
</g>
<!-- Node54&#45;&gt;Node56 -->
<g id="edge133" class="edge"><title>Node54&#45;&gt;Node56</title>
<path fill="none" stroke="midnightblue" d="M2822.61,-229.975C2827.12,-221.315 2834.24,-207.649 2839.97,-196.645"/>
<polygon fill="midnightblue" stroke="midnightblue" points="2843.22,-197.995 2844.73,-187.509 2837.01,-194.76 2843.22,-197.995"/>
</g>
<!-- Node57&#45;&gt;Node6 -->
<g id="edge143" class="edge"><title>Node57&#45;&gt;Node6</title>
<path fill="none" stroke="midnightblue" d="M2244.63,-229.979C2237.1,-227.789 2228.86,-225.601 2221.17,-224 2098.33,-198.451 2064.53,-210.901 1941.17,-188 1904.28,-181.153 1896.13,-174.407 1859.17,-168 1717.22,-143.395 1546.47,-130.421 1469.43,-125.445"/>
<polygon fill="midnightblue" stroke="midnightblue" points="1469.4,-121.936 1459.2,-124.795 1468.96,-128.922 1469.4,-121.936"/>
</g>
<!-- Node57&#45;&gt;Node13 -->
<g id="edge142" class="edge"><title>Node57&#45;&gt;Node13</title>
<path fill="none" stroke="midnightblue" d="M2243.8,-229.967C2236.49,-227.851 2228.56,-225.704 2221.17,-224 2129.31,-202.841 2102.54,-214.779 2012.17,-188 1930.08,-163.677 1917.62,-135.053 1835.17,-112 1733.44,-83.5564 1608.25,-72.6104 1549.14,-68.8097"/>
<polygon fill="midnightblue" stroke="midnightblue" points="1549.09,-65.3 1538.89,-68.1805 1548.66,-72.2868 1549.09,-65.3"/>
</g>
<!-- Node57&#45;&gt;Node17 -->
<g id="edge141" class="edge"><title>Node57&#45;&gt;Node17</title>
<path fill="none" stroke="midnightblue" d="M2245.46,-229.938C2237.73,-227.665 2229.17,-225.444 2221.17,-224 2013.39,-186.517 1951.4,-232.662 1741.01,-187.526"/>
<polygon fill="midnightblue" stroke="midnightblue" points="1741.72,-184.099 1731.2,-185.379 1740.22,-190.937 1741.72,-184.099"/>
</g>
<!-- Node57&#45;&gt;Node18 -->
<g id="edge140" class="edge"><title>Node57&#45;&gt;Node18</title>
<path fill="none" stroke="midnightblue" d="M2235.51,-236.009C2132.63,-228.801 1826.34,-207.215 1572.17,-188 1547.04,-186.101 1518.81,-183.873 1496.73,-182.109"/>
<polygon fill="midnightblue" stroke="midnightblue" points="1496.99,-178.618 1486.74,-181.309 1496.43,-185.596 1496.99,-178.618"/>
</g>
<!-- Node57&#45;&gt;Node31 -->
<g id="edge146" class="edge"><title>Node57&#45;&gt;Node31</title>
<path fill="none" stroke="midnightblue" d="M2235.4,-236.37C2183.25,-233.317 2083.28,-227.661 1998.17,-224 1937.41,-221.387 948.418,-229.709 904.166,-188 891.942,-176.479 891.862,-156.51 893.961,-141.737"/>
<polygon fill="midnightblue" stroke="midnightblue" points="897.444,-142.15 895.826,-131.679 890.561,-140.873 897.444,-142.15"/>
</g>
<!-- Node58 -->
<g id="node59" class="node"><title>Node58</title>
<polygon fill="white" stroke="#bfbfbf" points="2165.67,-168.5 2165.67,-187.5 2268.67,-187.5 2268.67,-168.5 2165.67,-168.5"/>
<text text-anchor="middle" x="2217.17" y="-175.5" font-family="Helvetica,sans-Serif" font-size="10.00">cereal/access.hpp</text>
</g>
<!-- Node57&#45;&gt;Node58 -->
<g id="edge136" class="edge"><title>Node57&#45;&gt;Node58</title>
<path fill="none" stroke="midnightblue" d="M2263.43,-229.975C2255.17,-220.873 2241.89,-206.241 2231.67,-194.983"/>
<polygon fill="midnightblue" stroke="midnightblue" points="2234.2,-192.562 2224.89,-187.509 2229.02,-197.266 2234.2,-192.562"/>
</g>
<!-- Node59 -->
<g id="node60" class="node"><title>Node59</title>
<g id="a_node60"><a xlink:href="variadic_8h.html" target="_top" xlink:title="std_ext/variadic.h">
<polygon fill="white" stroke="black" points="1749.67,-168.5 1749.67,-187.5 1850.67,-187.5 1850.67,-168.5 1749.67,-168.5"/>
<text text-anchor="middle" x="1800.17" y="-175.5" font-family="Helvetica,sans-Serif" font-size="10.00">std_ext/variadic.h</text>
</a>
</g>
</g>
<!-- Node57&#45;&gt;Node59 -->
<g id="edge137" class="edge"><title>Node57&#45;&gt;Node59</title>
<path fill="none" stroke="midnightblue" d="M2245.18,-229.994C2237.51,-227.75 2229.06,-225.531 2221.17,-224 2065.04,-193.729 2023.07,-206.909 1865.17,-188 1863.86,-187.844 1862.54,-187.683 1861.21,-187.52"/>
<polygon fill="midnightblue" stroke="midnightblue" points="1861.25,-183.996 1850.88,-186.206 1860.36,-190.94 1861.25,-183.996"/>
</g>
<!-- Node61 -->
<g id="node62" class="node"><title>Node61</title>
<polygon fill="white" stroke="#bfbfbf" points="2021.17,-168.5 2021.17,-187.5 2073.17,-187.5 2073.17,-168.5 2021.17,-168.5"/>
<text text-anchor="middle" x="2047.17" y="-175.5" font-family="Helvetica,sans-Serif" font-size="10.00">cassert</text>
</g>
<!-- Node57&#45;&gt;Node61 -->
<g id="edge144" class="edge"><title>Node57&#45;&gt;Node61</title>
<path fill="none" stroke="midnightblue" d="M2242.39,-229.999C2235.45,-227.992 2228.05,-225.888 2221.17,-224 2207.88,-220.358 2130.17,-200.337 2083.21,-188.261"/>
<polygon fill="midnightblue" stroke="midnightblue" points="2083.96,-184.841 2073.4,-185.741 2082.22,-191.62 2083.96,-184.841"/>
</g>
<!-- Node62 -->
<g id="node63" class="node"><title>Node62</title>
<polygon fill="white" stroke="#bfbfbf" points="2091.17,-168.5 2091.17,-187.5 2147.17,-187.5 2147.17,-168.5 2091.17,-168.5"/>
<text text-anchor="middle" x="2119.17" y="-175.5" font-family="Helvetica,sans-Serif" font-size="10.00">numeric</text>
</g>
<!-- Node57&#45;&gt;Node62 -->
<g id="edge145" class="edge"><title>Node57&#45;&gt;Node62</title>
<path fill="none" stroke="midnightblue" d="M2249.39,-229.975C2223.43,-219.813 2179.85,-202.756 2150.33,-191.2"/>
<polygon fill="midnightblue" stroke="midnightblue" points="2151.49,-187.895 2140.9,-187.509 2148.94,-194.413 2151.49,-187.895"/>
</g>
<!-- Node59&#45;&gt;Node32 -->
<g id="edge139" class="edge"><title>Node59&#45;&gt;Node32</title>
<path fill="none" stroke="midnightblue" d="M1749.48,-168.935C1746.33,-168.577 1743.21,-168.26 1740.17,-168 1010.21,-105.535 822.458,-190.338 92.1657,-132 81.0082,-131.109 68.8408,-129.576 58.0822,-128.025"/>
<polygon fill="midnightblue" stroke="midnightblue" points="58.292,-124.518 47.8827,-126.492 57.2512,-131.44 58.292,-124.518"/>
</g>
<!-- Node60 -->
<g id="node61" class="node"><title>Node60</title>
<polygon fill="white" stroke="#bfbfbf" points="1774.17,-112.5 1774.17,-131.5 1826.17,-131.5 1826.17,-112.5 1774.17,-112.5"/>
<text text-anchor="middle" x="1800.17" y="-119.5" font-family="Helvetica,sans-Serif" font-size="10.00">cstddef</text>
</g>
<!-- Node59&#45;&gt;Node60 -->
<g id="edge138" class="edge"><title>Node59&#45;&gt;Node60</title>
<path fill="none" stroke="midnightblue" d="M1800.17,-168.083C1800.17,-161.006 1800.17,-150.861 1800.17,-141.986"/>
<polygon fill="midnightblue" stroke="midnightblue" points="1803.67,-141.751 1800.17,-131.751 1796.67,-141.751 1803.67,-141.751"/>
</g>
<!-- Node64&#45;&gt;Node10 -->
<g id="edge157" class="edge"><title>Node64&#45;&gt;Node10</title>
<path fill="none" stroke="midnightblue" d="M2477.63,-234.303C2434.12,-230.984 2370.66,-226.506 2315.17,-224 2140.74,-216.124 914.107,-228.069 744.166,-188 700.777,-177.77 654.783,-152.89 628.369,-137.049"/>
<polygon fill="midnightblue" stroke="midnightblue" points="629.922,-133.896 619.565,-131.666 626.27,-139.869 629.922,-133.896"/>
</g>
<!-- Node64&#45;&gt;Node15 -->
<g id="edge153" class="edge"><title>Node64&#45;&gt;Node15</title>
<path fill="none" stroke="midnightblue" d="M2522.65,-229.819C2506.07,-210.672 2466.13,-164.544 2444.56,-139.631"/>
<polygon fill="midnightblue" stroke="midnightblue" points="2446.96,-137.051 2437.77,-131.782 2441.67,-141.633 2446.96,-137.051"/>
</g>
<!-- Node64&#45;&gt;Node18 -->
<g id="edge154" class="edge"><title>Node64&#45;&gt;Node18</title>
<path fill="none" stroke="midnightblue" d="M2477.61,-234.677C2434.09,-231.578 2370.63,-227.214 2315.17,-224 1985.11,-204.876 1902.11,-209.012 1572.17,-188 1547.02,-186.399 1518.79,-184.173 1496.72,-182.336"/>
<polygon fill="midnightblue" stroke="midnightblue" points="1496.99,-178.847 1486.73,-181.497 1496.4,-185.822 1496.99,-178.847"/>
</g>
<!-- Node64&#45;&gt;Node55 -->
<g id="edge155" class="edge"><title>Node64&#45;&gt;Node55</title>
<path fill="none" stroke="midnightblue" d="M2582.84,-230.82C2598.1,-228.605 2614.8,-226.195 2630.17,-224 2737.39,-208.687 2864.88,-190.878 2921.09,-183.046"/>
<polygon fill="midnightblue" stroke="midnightblue" points="2921.62,-186.506 2931.05,-181.66 2920.66,-179.573 2921.62,-186.506"/>
</g>
<!-- Node65 -->
<g id="node66" class="node"><title>Node65</title>
<polygon fill="white" stroke="#bfbfbf" points="2515.17,-168.5 2515.17,-187.5 2547.17,-187.5 2547.17,-168.5 2515.17,-168.5"/>
<text text-anchor="middle" x="2531.17" y="-175.5" font-family="Helvetica,sans-Serif" font-size="10.00">set</text>
</g>
<!-- Node64&#45;&gt;Node65 -->
<g id="edge156" class="edge"><title>Node64&#45;&gt;Node65</title>
<path fill="none" stroke="midnightblue" d="M2530.31,-229.975C2530.45,-221.58 2530.67,-208.481 2530.85,-197.663"/>
<polygon fill="midnightblue" stroke="midnightblue" points="2534.35,-197.567 2531.02,-187.509 2527.36,-197.449 2534.35,-197.567"/>
</g>
<!-- Node66&#45;&gt;Node17 -->
<g id="edge160" class="edge"><title>Node66&#45;&gt;Node17</title>
<path fill="none" stroke="midnightblue" d="M1825.83,-229.975C1803.37,-219.536 1765.26,-201.821 1740.4,-190.267"/>
<polygon fill="midnightblue" stroke="midnightblue" points="1741.82,-187.064 1731.27,-186.022 1738.87,-193.412 1741.82,-187.064"/>
</g>
<!-- Node66&#45;&gt;Node18 -->
<g id="edge159" class="edge"><title>Node66&#45;&gt;Node18</title>
<path fill="none" stroke="midnightblue" d="M1788.86,-229.975C1709.55,-217.749 1565.5,-195.545 1496.72,-184.943"/>
<polygon fill="midnightblue" stroke="midnightblue" points="1497.16,-181.47 1486.75,-183.405 1496.1,-188.388 1497.16,-181.47"/>
</g>
<!-- Node67&#45;&gt;Node54 -->
<g id="edge167" class="edge"><title>Node67&#45;&gt;Node54</title>
<path fill="none" stroke="midnightblue" d="M2680.23,-291.475C2707.85,-281.269 2754.29,-264.108 2785.56,-252.549"/>
<polygon fill="midnightblue" stroke="midnightblue" points="2786.97,-255.759 2795.14,-249.009 2784.55,-249.193 2786.97,-255.759"/>
</g>
<!-- Node67&#45;&gt;Node55 -->
<g id="edge169" class="edge"><title>Node67&#45;&gt;Node55</title>
<path fill="none" stroke="midnightblue" d="M2720.91,-291.605C2776.88,-283.432 2853.41,-270.066 2880.17,-255 2905.49,-240.743 2926.79,-214.095 2939.03,-196.449"/>
<polygon fill="midnightblue" stroke="midnightblue" points="2942.22,-197.968 2944.86,-187.707 2936.4,-194.084 2942.22,-197.968"/>
</g>
<!-- Node67&#45;&gt;Node57 -->
<g id="edge168" class="edge"><title>Node67&#45;&gt;Node57</title>
<path fill="none" stroke="midnightblue" d="M2601.86,-291.475C2525.17,-279.653 2387.94,-258.5 2316.78,-247.531"/>
<polygon fill="midnightblue" stroke="midnightblue" points="2317.19,-244.053 2306.77,-245.988 2316.12,-250.971 2317.19,-244.053"/>
</g>
</g>
</svg>
