<?xml version="1.0" encoding="UTF-8" standalone="no"?>
<!DOCTYPE svg PUBLIC "-//W3C//DTD SVG 1.1//EN"
 "http://www.w3.org/Graphics/SVG/1.1/DTD/svg11.dtd">
<!-- Generated by graphviz version 2.38.0 (20140413.2041)
 -->
<!-- Title: src/analysis/utils/uncertainties/Optimized.h Pages: 1 -->
<svg width="1097pt" height="184pt"
 viewBox="0.00 0.00 1097.00 184.00" xmlns="http://www.w3.org/2000/svg" xmlns:xlink="http://www.w3.org/1999/xlink">
<g id="graph0" class="graph" transform="scale(1 1) rotate(0) translate(4 180)">
<title>src/analysis/utils/uncertainties/Optimized.h</title>
<polygon fill="white" stroke="none" points="-4,4 -4,-180 1093,-180 1093,4 -4,4"/>
<!-- Node42 -->
<g id="node1" class="node"><title>Node42</title>
<polygon fill="#bfbfbf" stroke="black" points="480.5,-145.5 480.5,-175.5 623.5,-175.5 623.5,-145.5 480.5,-145.5"/>
<text text-anchor="start" x="488.5" y="-163.5" font-family="Helvetica,sans-Serif" font-size="10.00">src/analysis/utils</text>
<text text-anchor="middle" x="552" y="-152.5" font-family="Helvetica,sans-Serif" font-size="10.00">/uncertainties/Optimized.h</text>
</g>
<!-- Node43 -->
<g id="node2" class="node"><title>Node43</title>
<g id="a_node2"><a xlink:href="analysis_2physics_2calibration_2_p_i_d___energy_8h.html" target="_top" xlink:title="src/analysis/physics\l/calibration/PID_Energy.h">
<polygon fill="white" stroke="black" points="4,-78.5 4,-108.5 138,-108.5 138,-78.5 4,-78.5"/>
<text text-anchor="start" x="12" y="-96.5" font-family="Helvetica,sans-Serif" font-size="10.00">src/analysis/physics</text>
<text text-anchor="middle" x="71" y="-85.5" font-family="Helvetica,sans-Serif" font-size="10.00">/calibration/PID_Energy.h</text>
</a>
</g>
</g>
<!-- Node42&#45;&gt;Node43 -->
<g id="edge1" class="edge"><title>Node42&#45;&gt;Node43</title>
<path fill="none" stroke="midnightblue" d="M470.124,-150.588C388.758,-141.409 260.497,-126.067 150,-109 146.141,-108.404 142.182,-107.765 138.189,-107.099"/>
<polygon fill="midnightblue" stroke="midnightblue" points="469.973,-154.093 480.302,-151.732 470.755,-147.137 469.973,-154.093"/>
</g>
<!-- Node45 -->
<g id="node4" class="node"><title>Node45</title>
<g id="a_node4"><a xlink:href="_meson_dalitz_decays_8h.html" target="_top" xlink:title="src/analysis/physics\l/common/MesonDalitzDecays.h">
<polygon fill="white" stroke="black" points="159,-78.5 159,-108.5 327,-108.5 327,-78.5 159,-78.5"/>
<text text-anchor="start" x="167" y="-96.5" font-family="Helvetica,sans-Serif" font-size="10.00">src/analysis/physics</text>
<text text-anchor="middle" x="243" y="-85.5" font-family="Helvetica,sans-Serif" font-size="10.00">/common/MesonDalitzDecays.h</text>
</a>
</g>
</g>
<!-- Node42&#45;&gt;Node45 -->
<g id="edge3" class="edge"><title>Node42&#45;&gt;Node45</title>
<path fill="none" stroke="midnightblue" d="M475.379,-143.382C424.553,-132.691 358.501,-118.796 309.815,-108.555"/>
<polygon fill="midnightblue" stroke="midnightblue" points="474.826,-146.842 485.332,-145.476 476.267,-139.992 474.826,-146.842"/>
</g>
<!-- Node48 -->
<g id="node7" class="node"><title>Node48</title>
<g id="a_node7"><a xlink:href="_omega___eta_g_8cc.html" target="_top" xlink:title="src/analysis/physics\l/omega/Omega_EtaG.cc">
<polygon fill="white" stroke="black" points="345,-78.5 345,-108.5 479,-108.5 479,-78.5 345,-78.5"/>
<text text-anchor="start" x="353" y="-96.5" font-family="Helvetica,sans-Serif" font-size="10.00">src/analysis/physics</text>
<text text-anchor="middle" x="412" y="-85.5" font-family="Helvetica,sans-Serif" font-size="10.00">/omega/Omega_EtaG.cc</text>
</a>
</g>
</g>
<!-- Node42&#45;&gt;Node48 -->
<g id="edge6" class="edge"><title>Node42&#45;&gt;Node48</title>
<path fill="none" stroke="midnightblue" d="M512.435,-141.131C490.19,-130.802 462.853,-118.11 442.319,-108.577"/>
<polygon fill="midnightblue" stroke="midnightblue" points="511.078,-144.359 521.622,-145.396 514.026,-138.01 511.078,-144.359"/>
</g>
<!-- Node49 -->
<g id="node8" class="node"><title>Node49</title>
<g id="a_node8"><a xlink:href="pi0eta_8cc.html" target="_top" xlink:title="src/analysis/physics\l/omega/pi0eta.cc">
<polygon fill="white" stroke="black" points="497,-78.5 497,-108.5 607,-108.5 607,-78.5 497,-78.5"/>
<text text-anchor="start" x="505" y="-96.5" font-family="Helvetica,sans-Serif" font-size="10.00">src/analysis/physics</text>
<text text-anchor="middle" x="552" y="-85.5" font-family="Helvetica,sans-Serif" font-size="10.00">/omega/pi0eta.cc</text>
</a>
</g>
</g>
<!-- Node42&#45;&gt;Node49 -->
<g id="edge7" class="edge"><title>Node42&#45;&gt;Node49</title>
<path fill="none" stroke="midnightblue" d="M552,-135.108C552,-126.154 552,-116.323 552,-108.577"/>
<polygon fill="midnightblue" stroke="midnightblue" points="548.5,-135.396 552,-145.396 555.5,-135.396 548.5,-135.396"/>
</g>
<!-- Node50 -->
<g id="node9" class="node"><title>Node50</title>
<g id="a_node9"><a xlink:href="_optimized_8cc.html" target="_top" xlink:title="src/analysis/utils\l/uncertainties/Optimized.cc">
<polygon fill="white" stroke="black" points="625.5,-78.5 625.5,-108.5 772.5,-108.5 772.5,-78.5 625.5,-78.5"/>
<text text-anchor="start" x="633.5" y="-96.5" font-family="Helvetica,sans-Serif" font-size="10.00">src/analysis/utils</text>
<text text-anchor="middle" x="699" y="-85.5" font-family="Helvetica,sans-Serif" font-size="10.00">/uncertainties/Optimized.cc</text>
</a>
</g>
</g>
<!-- Node42&#45;&gt;Node50 -->
<g id="edge8" class="edge"><title>Node42&#45;&gt;Node50</title>
<path fill="none" stroke="midnightblue" d="M593.231,-141.269C616.644,-130.916 645.508,-118.153 667.165,-108.577"/>
<polygon fill="midnightblue" stroke="midnightblue" points="591.627,-138.151 583.897,-145.396 594.458,-144.553 591.627,-138.151"/>
</g>
<!-- Node51 -->
<g id="node10" class="node"><title>Node51</title>
<g id="a_node10"><a xlink:href="root-addons_2analysis__codes_2_interpolated_pulls_8cc.html" target="_top" xlink:title="src/root&#45;addons/analysis\l_codes/InterpolatedPulls.cc">
<polygon fill="white" stroke="black" points="791,-78.5 791,-108.5 937,-108.5 937,-78.5 791,-78.5"/>
<text text-anchor="start" x="799" y="-96.5" font-family="Helvetica,sans-Serif" font-size="10.00">src/root&#45;addons/analysis</text>
<text text-anchor="middle" x="864" y="-85.5" font-family="Helvetica,sans-Serif" font-size="10.00">_codes/InterpolatedPulls.cc</text>
</a>
</g>
</g>
<!-- Node42&#45;&gt;Node51 -->
<g id="edge9" class="edge"><title>Node42&#45;&gt;Node51</title>
<path fill="none" stroke="midnightblue" d="M629.364,-143.382C680.684,-132.691 747.378,-118.796 796.537,-108.555"/>
<polygon fill="midnightblue" stroke="midnightblue" points="628.391,-140.01 619.315,-145.476 629.819,-146.863 628.391,-140.01"/>
</g>
<!-- Node52 -->
<g id="node11" class="node"><title>Node52</title>
<g id="a_node11"><a xlink:href="_kinfit_extract_8cc.html" target="_top" xlink:title="src/root&#45;addons/analysis\l_codes/KinfitExtract.cc">
<polygon fill="white" stroke="black" points="955,-78.5 955,-108.5 1089,-108.5 1089,-78.5 955,-78.5"/>
<text text-anchor="start" x="963" y="-96.5" font-family="Helvetica,sans-Serif" font-size="10.00">src/root&#45;addons/analysis</text>
<text text-anchor="middle" x="1022" y="-85.5" font-family="Helvetica,sans-Serif" font-size="10.00">_codes/KinfitExtract.cc</text>
</a>
</g>
</g>
<!-- Node42&#45;&gt;Node52 -->
<g id="edge10" class="edge"><title>Node42&#45;&gt;Node52</title>
<path fill="none" stroke="midnightblue" d="M633.715,-150.5C713.545,-141.361 838.402,-126.144 946,-109 948.918,-108.535 951.896,-108.043 954.902,-107.532"/>
<polygon fill="midnightblue" stroke="midnightblue" points="633.263,-147.029 623.724,-151.639 634.056,-153.984 633.263,-147.029"/>
</g>
<!-- Node44 -->
<g id="node3" class="node"><title>Node44</title>
<g id="a_node3"><a xlink:href="analysis_2physics_2calibration_2_p_i_d___energy_8cc.html" target="_top" xlink:title="src/analysis/physics\l/calibration/PID_Energy.cc">
<polygon fill="white" stroke="black" points="0,-6 0,-36 138,-36 138,-6 0,-6"/>
<text text-anchor="start" x="8" y="-24" font-family="Helvetica,sans-Serif" font-size="10.00">src/analysis/physics</text>
<text text-anchor="middle" x="69" y="-13" font-family="Helvetica,sans-Serif" font-size="10.00">/calibration/PID_Energy.cc</text>
</a>
</g>
</g>
<!-- Node43&#45;&gt;Node44 -->
<g id="edge2" class="edge"><title>Node43&#45;&gt;Node44</title>
<path fill="none" stroke="midnightblue" d="M70.3115,-68.2317C70.009,-57.5679 69.6642,-45.4145 69.4041,-36.2455"/>
<polygon fill="midnightblue" stroke="midnightblue" points="66.813,-68.3366 70.5953,-78.2333 73.8102,-68.138 66.813,-68.3366"/>
</g>
<!-- Node46 -->
<g id="node5" class="node"><title>Node46</title>
<g id="a_node5"><a xlink:href="_meson_dalitz_decays_8cc.html" target="_top" xlink:title="Physics class to investigate Dalitz decays for different mesons. ">
<polygon fill="white" stroke="black" points="156.5,-6 156.5,-36 329.5,-36 329.5,-6 156.5,-6"/>
<text text-anchor="start" x="164.5" y="-24" font-family="Helvetica,sans-Serif" font-size="10.00">src/analysis/physics</text>
<text text-anchor="middle" x="243" y="-13" font-family="Helvetica,sans-Serif" font-size="10.00">/common/MesonDalitzDecays.cc</text>
</a>
</g>
</g>
<!-- Node45&#45;&gt;Node46 -->
<g id="edge4" class="edge"><title>Node45&#45;&gt;Node46</title>
<path fill="none" stroke="midnightblue" d="M243,-68.2317C243,-57.5679 243,-45.4145 243,-36.2455"/>
<polygon fill="midnightblue" stroke="midnightblue" points="239.5,-68.2332 243,-78.2333 246.5,-68.2333 239.5,-68.2332"/>
</g>
<!-- Node47 -->
<g id="node6" class="node"><title>Node47</title>
<g id="a_node6"><a xlink:href="_meson_dalitz_decays__plot_8cc.html" target="_top" xlink:title="src/analysis/physics\l/common/MesonDalitzDecays\l_plot.cc">
<polygon fill="white" stroke="black" points="347.5,-0.5 347.5,-41.5 506.5,-41.5 506.5,-0.5 347.5,-0.5"/>
<text text-anchor="start" x="355.5" y="-29.5" font-family="Helvetica,sans-Serif" font-size="10.00">src/analysis/physics</text>
<text text-anchor="start" x="355.5" y="-18.5" font-family="Helvetica,sans-Serif" font-size="10.00">/common/MesonDalitzDecays</text>
<text text-anchor="middle" x="427" y="-7.5" font-family="Helvetica,sans-Serif" font-size="10.00">_plot.cc</text>
</a>
</g>
</g>
<!-- Node45&#45;&gt;Node47 -->
<g id="edge5" class="edge"><title>Node45&#45;&gt;Node47</title>
<path fill="none" stroke="midnightblue" d="M289.197,-74.7996C315.616,-64.677 348.801,-51.9621 375.985,-41.5464"/>
<polygon fill="midnightblue" stroke="midnightblue" points="287.879,-71.5565 279.793,-78.4027 290.383,-78.0931 287.879,-71.5565"/>
</g>
</g>
</svg>
