<?xml version="1.0" encoding="UTF-8" standalone="no"?>
<!DOCTYPE svg PUBLIC "-//W3C//DTD SVG 1.1//EN"
 "http://www.w3.org/Graphics/SVG/1.1/DTD/svg11.dtd">
<!-- Generated by graphviz version 2.38.0 (20140413.2041)
 -->
<!-- Title: src/base/OptionsList.h Pages: 1 -->
<svg width="308pt" height="84pt"
 viewBox="0.00 0.00 308.00 84.00" xmlns="http://www.w3.org/2000/svg" xmlns:xlink="http://www.w3.org/1999/xlink">
<g id="graph0" class="graph" transform="scale(1 1) rotate(0) translate(4 80)">
<title>src/base/OptionsList.h</title>
<polygon fill="white" stroke="none" points="-4,4 -4,-80 304,-80 304,4 -4,4"/>
<!-- Node0 -->
<g id="node1" class="node"><title>Node0</title>
<polygon fill="#bfbfbf" stroke="black" points="96,-56.5 96,-75.5 218,-75.5 218,-56.5 96,-56.5"/>
<text text-anchor="middle" x="157" y="-63.5" font-family="Helvetica,sans-Serif" font-size="10.00">src/base/OptionsList.h</text>
</g>
<!-- Node1 -->
<g id="node2" class="node"><title>Node1</title>
<polygon fill="white" stroke="#bfbfbf" points="0,-0.5 0,-19.5 44,-19.5 44,-0.5 0,-0.5"/>
<text text-anchor="middle" x="22" y="-7.5" font-family="Helvetica,sans-Serif" font-size="10.00">string</text>
</g>
<!-- Node0&#45;&gt;Node1 -->
<g id="edge1" class="edge"><title>Node0&#45;&gt;Node1</title>
<path fill="none" stroke="midnightblue" d="M135.609,-56.4435C113.293,-47.5171 78.0968,-33.4387 52.792,-23.3168"/>
<polygon fill="midnightblue" stroke="midnightblue" points="53.8757,-19.9807 43.2911,-19.5164 51.276,-26.4801 53.8757,-19.9807"/>
</g>
<!-- Node2 -->
<g id="node3" class="node"><title>Node2</title>
<polygon fill="white" stroke="#bfbfbf" points="62.5,-0.5 62.5,-19.5 119.5,-19.5 119.5,-0.5 62.5,-0.5"/>
<text text-anchor="middle" x="91" y="-7.5" font-family="Helvetica,sans-Serif" font-size="10.00">memory</text>
</g>
<!-- Node0&#45;&gt;Node2 -->
<g id="edge2" class="edge"><title>Node0&#45;&gt;Node2</title>
<path fill="none" stroke="midnightblue" d="M146.396,-56.324C136.544,-48.2631 121.649,-36.0765 109.785,-26.3695"/>
<polygon fill="midnightblue" stroke="midnightblue" points="111.753,-23.4575 101.797,-19.8339 107.32,-28.8752 111.753,-23.4575"/>
</g>
<!-- Node3 -->
<g id="node4" class="node"><title>Node3</title>
<polygon fill="white" stroke="#bfbfbf" points="138,-0.5 138,-19.5 176,-19.5 176,-0.5 138,-0.5"/>
<text text-anchor="middle" x="157" y="-7.5" font-family="Helvetica,sans-Serif" font-size="10.00">map</text>
</g>
<!-- Node0&#45;&gt;Node3 -->
<g id="edge3" class="edge"><title>Node0&#45;&gt;Node3</title>
<path fill="none" stroke="midnightblue" d="M157,-56.083C157,-49.0059 157,-38.8611 157,-29.9865"/>
<polygon fill="midnightblue" stroke="midnightblue" points="160.5,-29.751 157,-19.7511 153.5,-29.7511 160.5,-29.751"/>
</g>
<!-- Node4 -->
<g id="node5" class="node"><title>Node4</title>
<polygon fill="white" stroke="#bfbfbf" points="194,-0.5 194,-19.5 226,-19.5 226,-0.5 194,-0.5"/>
<text text-anchor="middle" x="210" y="-7.5" font-family="Helvetica,sans-Serif" font-size="10.00">set</text>
</g>
<!-- Node0&#45;&gt;Node4 -->
<g id="edge4" class="edge"><title>Node0&#45;&gt;Node4</title>
<path fill="none" stroke="midnightblue" d="M165.752,-56.083C173.47,-48.2195 184.905,-36.5688 194.217,-27.0813"/>
<polygon fill="midnightblue" stroke="midnightblue" points="196.904,-29.3396 201.411,-19.7511 191.908,-24.4363 196.904,-29.3396"/>
</g>
<!-- Node5 -->
<g id="node6" class="node"><title>Node5</title>
<polygon fill="white" stroke="#bfbfbf" points="244,-0.5 244,-19.5 300,-19.5 300,-0.5 244,-0.5"/>
<text text-anchor="middle" x="272" y="-7.5" font-family="Helvetica,sans-Serif" font-size="10.00">sstream</text>
</g>
<!-- Node0&#45;&gt;Node5 -->
<g id="edge5" class="edge"><title>Node0&#45;&gt;Node5</title>
<path fill="none" stroke="midnightblue" d="M175.222,-56.4435C193.896,-47.6751 223.156,-33.9355 244.617,-23.8579"/>
<polygon fill="midnightblue" stroke="midnightblue" points="246.299,-26.935 253.863,-19.5164 243.324,-20.5988 246.299,-26.935"/>
</g>
</g>
</svg>
