<?xml version="1.0" encoding="UTF-8" standalone="no"?>
<!DOCTYPE svg PUBLIC "-//W3C//DTD SVG 1.1//EN"
 "http://www.w3.org/Graphics/SVG/1.1/DTD/svg11.dtd">
<!-- Generated by graphviz version 2.38.0 (20140413.2041)
 -->
<!-- Title: src/analysis/utils/ParticleID.h Pages: 1 -->
<svg width="1092pt" height="106pt"
 viewBox="0.00 0.00 1091.50 106.00" xmlns="http://www.w3.org/2000/svg" xmlns:xlink="http://www.w3.org/1999/xlink">
<g id="graph0" class="graph" transform="scale(1 1) rotate(0) translate(4 102)">
<title>src/analysis/utils/ParticleID.h</title>
<polygon fill="white" stroke="none" points="-4,4 -4,-102 1087.5,-102 1087.5,4 -4,4"/>
<!-- Node41 -->
<g id="node1" class="node"><title>Node41</title>
<polygon fill="#bfbfbf" stroke="black" points="511,-67.5 511,-97.5 606,-97.5 606,-67.5 511,-67.5"/>
<text text-anchor="start" x="519" y="-85.5" font-family="Helvetica,sans-Serif" font-size="10.00">src/analysis/utils</text>
<text text-anchor="middle" x="558.5" y="-74.5" font-family="Helvetica,sans-Serif" font-size="10.00">/ParticleID.h</text>
</g>
<!-- Node42 -->
<g id="node2" class="node"><title>Node42</title>
<g id="a_node2"><a xlink:href="_ant_8cc.html" target="_top" xlink:title="Main Ant executable. ">
<polygon fill="white" stroke="black" points="0,-6 0,-25 77,-25 77,-6 0,-6"/>
<text text-anchor="middle" x="38.5" y="-13" font-family="Helvetica,sans-Serif" font-size="10.00">progs/Ant.cc</text>
</a>
</g>
</g>
<!-- Node41&#45;&gt;Node42 -->
<g id="edge1" class="edge"><title>Node41&#45;&gt;Node42</title>
<path fill="none" stroke="midnightblue" d="M500.46,-78.9109C410.701,-74.0996 233.147,-61.3609 85.5,-31 78.1395,-29.4865 70.2856,-27.3001 63.1473,-25.0823"/>
<polygon fill="midnightblue" stroke="midnightblue" points="500.533,-82.4194 510.702,-79.4457 500.898,-75.4289 500.533,-82.4194"/>
</g>
<!-- Node43 -->
<g id="node3" class="node"><title>Node43</title>
<g id="a_node3"><a xlink:href="etaprime-3pi0_8cc.html" target="_top" xlink:title="src/analysis/physics\l/etaprime/etaprime&#45;3pi0.cc">
<polygon fill="white" stroke="black" points="95,-0.5 95,-30.5 242,-30.5 242,-0.5 95,-0.5"/>
<text text-anchor="start" x="103" y="-18.5" font-family="Helvetica,sans-Serif" font-size="10.00">src/analysis/physics</text>
<text text-anchor="middle" x="168.5" y="-7.5" font-family="Helvetica,sans-Serif" font-size="10.00">/etaprime/etaprime&#45;3pi0.cc</text>
</a>
</g>
</g>
<!-- Node41&#45;&gt;Node43 -->
<g id="edge2" class="edge"><title>Node41&#45;&gt;Node43</title>
<path fill="none" stroke="midnightblue" d="M501.021,-72.2959C439.128,-62.3334 337.784,-45.8722 250.5,-31 247.792,-30.5386 245.035,-30.0659 242.25,-29.5859"/>
<polygon fill="midnightblue" stroke="midnightblue" points="500.553,-75.7655 510.982,-73.8979 501.665,-68.8543 500.553,-75.7655"/>
</g>
<!-- Node44 -->
<g id="node4" class="node"><title>Node44</title>
<g id="a_node4"><a xlink:href="mctrue__acceptance_8cc.html" target="_top" xlink:title="src/analysis/physics\l/omega/mctrue_acceptance.cc">
<polygon fill="white" stroke="black" points="260,-0.5 260,-30.5 425,-30.5 425,-0.5 260,-0.5"/>
<text text-anchor="start" x="268" y="-18.5" font-family="Helvetica,sans-Serif" font-size="10.00">src/analysis/physics</text>
<text text-anchor="middle" x="342.5" y="-7.5" font-family="Helvetica,sans-Serif" font-size="10.00">/omega/mctrue_acceptance.cc</text>
</a>
</g>
</g>
<!-- Node41&#45;&gt;Node44 -->
<g id="edge3" class="edge"><title>Node41&#45;&gt;Node44</title>
<path fill="none" stroke="midnightblue" d="M502.273,-64.5797C467.19,-54.0225 422.56,-40.5921 389.392,-30.6109"/>
<polygon fill="midnightblue" stroke="midnightblue" points="501.313,-67.9458 511.897,-67.476 503.33,-61.2428 501.313,-67.9458"/>
</g>
<!-- Node45 -->
<g id="node5" class="node"><title>Node45</title>
<g id="a_node5"><a xlink:href="_physics_manager_8cc.html" target="_top" xlink:title="src/analysis/physics\l/PhysicsManager.cc">
<polygon fill="white" stroke="black" points="443.5,-0.5 443.5,-30.5 553.5,-30.5 553.5,-0.5 443.5,-0.5"/>
<text text-anchor="start" x="451.5" y="-18.5" font-family="Helvetica,sans-Serif" font-size="10.00">src/analysis/physics</text>
<text text-anchor="middle" x="498.5" y="-7.5" font-family="Helvetica,sans-Serif" font-size="10.00">/PhysicsManager.cc</text>
</a>
</g>
</g>
<!-- Node41&#45;&gt;Node45 -->
<g id="edge4" class="edge"><title>Node41&#45;&gt;Node45</title>
<path fill="none" stroke="midnightblue" d="M538.676,-60.0243C529.737,-50.3398 519.43,-39.1739 511.494,-30.5765"/>
<polygon fill="midnightblue" stroke="midnightblue" points="536.126,-62.4219 545.481,-67.396 541.27,-57.6739 536.126,-62.4219"/>
</g>
<!-- Node46 -->
<g id="node6" class="node"><title>Node46</title>
<g id="a_node6"><a xlink:href="_particle_i_d_8cc.html" target="_top" xlink:title="src/analysis/utils\l/ParticleID.cc">
<polygon fill="white" stroke="black" points="572,-0.5 572,-30.5 667,-30.5 667,-0.5 572,-0.5"/>
<text text-anchor="start" x="580" y="-18.5" font-family="Helvetica,sans-Serif" font-size="10.00">src/analysis/utils</text>
<text text-anchor="middle" x="619.5" y="-7.5" font-family="Helvetica,sans-Serif" font-size="10.00">/ParticleID.cc</text>
</a>
</g>
</g>
<!-- Node41&#45;&gt;Node46 -->
<g id="edge5" class="edge"><title>Node41&#45;&gt;Node46</title>
<path fill="none" stroke="midnightblue" d="M578.654,-60.0243C587.743,-50.3398 598.221,-39.1739 606.29,-30.5765"/>
<polygon fill="midnightblue" stroke="midnightblue" points="576.027,-57.709 571.736,-67.396 581.131,-62.4992 576.027,-57.709"/>
</g>
<!-- Node47 -->
<g id="node7" class="node"><title>Node47</title>
<g id="a_node7"><a xlink:href="_particle_tools_8cc.html" target="_top" xlink:title="src/analysis/utils\l/ParticleTools.cc">
<polygon fill="white" stroke="black" points="685,-0.5 685,-30.5 780,-30.5 780,-0.5 685,-0.5"/>
<text text-anchor="start" x="693" y="-18.5" font-family="Helvetica,sans-Serif" font-size="10.00">src/analysis/utils</text>
<text text-anchor="middle" x="732.5" y="-7.5" font-family="Helvetica,sans-Serif" font-size="10.00">/ParticleTools.cc</text>
</a>
</g>
</g>
<!-- Node41&#45;&gt;Node47 -->
<g id="edge6" class="edge"><title>Node41&#45;&gt;Node47</title>
<path fill="none" stroke="midnightblue" d="M605.832,-63.8185C633.8,-53.3707 668.727,-40.3231 694.818,-30.5765"/>
<polygon fill="midnightblue" stroke="midnightblue" points="604.398,-60.6178 596.255,-67.396 606.848,-67.1752 604.398,-60.6178"/>
</g>
<!-- Node48 -->
<g id="node8" class="node"><title>Node48</title>
<g id="a_node8"><a xlink:href="_test_particle_i_d_8cc.html" target="_top" xlink:title="test/analysis/TestParticle\lID.cc">
<polygon fill="white" stroke="black" points="798,-0.5 798,-30.5 931,-30.5 931,-0.5 798,-0.5"/>
<text text-anchor="start" x="806" y="-18.5" font-family="Helvetica,sans-Serif" font-size="10.00">test/analysis/TestParticle</text>
<text text-anchor="middle" x="864.5" y="-7.5" font-family="Helvetica,sans-Serif" font-size="10.00">ID.cc</text>
</a>
</g>
</g>
<!-- Node41&#45;&gt;Node48 -->
<g id="edge7" class="edge"><title>Node41&#45;&gt;Node48</title>
<path fill="none" stroke="midnightblue" d="M616.354,-69.2107C668.245,-58.1882 744.347,-42.0228 798.573,-30.504"/>
<polygon fill="midnightblue" stroke="midnightblue" points="615.367,-65.8422 606.312,-71.3438 616.822,-72.6895 615.367,-65.8422"/>
</g>
<!-- Node49 -->
<g id="node9" class="node"><title>Node49</title>
<g id="a_node9"><a xlink:href="_test_physics_manager_8cc.html" target="_top" xlink:title="test/analysis/TestPhysics\lManager.cc">
<polygon fill="white" stroke="black" points="949.5,-0.5 949.5,-30.5 1083.5,-30.5 1083.5,-0.5 949.5,-0.5"/>
<text text-anchor="start" x="957.5" y="-18.5" font-family="Helvetica,sans-Serif" font-size="10.00">test/analysis/TestPhysics</text>
<text text-anchor="middle" x="1016.5" y="-7.5" font-family="Helvetica,sans-Serif" font-size="10.00">Manager.cc</text>
</a>
</g>
</g>
<!-- Node41&#45;&gt;Node49 -->
<g id="edge8" class="edge"><title>Node41&#45;&gt;Node49</title>
<path fill="none" stroke="midnightblue" d="M616.446,-74.8835C691.424,-66.0833 826.018,-49.4727 940.5,-31 943.417,-30.5293 946.395,-30.0323 949.4,-29.5172"/>
<polygon fill="midnightblue" stroke="midnightblue" points="615.797,-71.4355 606.271,-76.0728 616.609,-78.3882 615.797,-71.4355"/>
</g>
</g>
</svg>
