<?xml version="1.0" encoding="UTF-8" standalone="no"?>
<!DOCTYPE svg PUBLIC "-//W3C//DTD SVG 1.1//EN"
 "http://www.w3.org/Graphics/SVG/1.1/DTD/svg11.dtd">
<!-- Generated by graphviz version 2.38.0 (20140413.2041)
 -->
<!-- Title: src/base/ParticleTypeTree.cc Pages: 1 -->
<svg width="1161pt" height="252pt"
 viewBox="0.00 0.00 1161.00 252.00" xmlns="http://www.w3.org/2000/svg" xmlns:xlink="http://www.w3.org/1999/xlink">
<g id="graph0" class="graph" transform="scale(1 1) rotate(0) translate(4 248)">
<title>src/base/ParticleTypeTree.cc</title>
<polygon fill="white" stroke="none" points="-4,4 -4,-248 1157,-248 1157,4 -4,4"/>
<!-- Node0 -->
<g id="node1" class="node"><title>Node0</title>
<polygon fill="#bfbfbf" stroke="black" points="18.5,-224.5 18.5,-243.5 167.5,-243.5 167.5,-224.5 18.5,-224.5"/>
<text text-anchor="middle" x="93" y="-231.5" font-family="Helvetica,sans-Serif" font-size="10.00">src/base/ParticleTypeTree.cc</text>
</g>
<!-- Node1 -->
<g id="node2" class="node"><title>Node1</title>
<g id="a_node2"><a xlink:href="_particle_type_tree_8h.html" target="_top" xlink:title="ParticleTypeTree.h">
<polygon fill="white" stroke="black" points="101.5,-168.5 101.5,-187.5 202.5,-187.5 202.5,-168.5 101.5,-168.5"/>
<text text-anchor="middle" x="152" y="-175.5" font-family="Helvetica,sans-Serif" font-size="10.00">ParticleTypeTree.h</text>
</a>
</g>
</g>
<!-- Node0&#45;&gt;Node1 -->
<g id="edge1" class="edge"><title>Node0&#45;&gt;Node1</title>
<path fill="none" stroke="midnightblue" d="M102.479,-224.324C111.201,-216.341 124.343,-204.313 134.898,-194.653"/>
<polygon fill="midnightblue" stroke="midnightblue" points="137.334,-197.167 142.348,-187.834 132.608,-192.004 137.334,-197.167"/>
</g>
<!-- Node6 -->
<g id="node7" class="node"><title>Node6</title>
<polygon fill="white" stroke="#bfbfbf" points="0,-0.5 0,-19.5 64,-19.5 64,-0.5 0,-0.5"/>
<text text-anchor="middle" x="32" y="-7.5" font-family="Helvetica,sans-Serif" font-size="10.00">stdexcept</text>
</g>
<!-- Node0&#45;&gt;Node6 -->
<g id="edge30" class="edge"><title>Node0&#45;&gt;Node6</title>
<path fill="none" stroke="midnightblue" d="M90.6087,-224.297C81.6142,-191.563 49.6887,-75.3752 37.1291,-29.6664"/>
<polygon fill="midnightblue" stroke="midnightblue" points="40.4656,-28.599 34.441,-19.8837 33.7157,-30.4537 40.4656,-28.599"/>
</g>
<!-- Node2 -->
<g id="node3" class="node"><title>Node2</title>
<g id="a_node3"><a xlink:href="_particle_type_8h.html" target="_top" xlink:title="ParticleType.h">
<polygon fill="white" stroke="black" points="204.5,-112.5 204.5,-131.5 285.5,-131.5 285.5,-112.5 204.5,-112.5"/>
<text text-anchor="middle" x="245" y="-119.5" font-family="Helvetica,sans-Serif" font-size="10.00">ParticleType.h</text>
</a>
</g>
</g>
<!-- Node1&#45;&gt;Node2 -->
<g id="edge2" class="edge"><title>Node1&#45;&gt;Node2</title>
<path fill="none" stroke="midnightblue" d="M166.942,-168.324C181.585,-159.822 204.134,-146.729 221.238,-136.797"/>
<polygon fill="midnightblue" stroke="midnightblue" points="223.205,-139.703 230.095,-131.655 219.69,-133.649 223.205,-139.703"/>
</g>
<!-- Node13 -->
<g id="node14" class="node"><title>Node13</title>
<polygon fill="white" stroke="#bfbfbf" points="65,-56.5 65,-75.5 103,-75.5 103,-56.5 65,-56.5"/>
<text text-anchor="middle" x="84" y="-63.5" font-family="Helvetica,sans-Serif" font-size="10.00">map</text>
</g>
<!-- Node1&#45;&gt;Node13 -->
<g id="edge29" class="edge"><title>Node1&#45;&gt;Node13</title>
<path fill="none" stroke="midnightblue" d="M146.664,-168.368C135.492,-150.296 109.455,-108.176 94.6991,-84.3074"/>
<polygon fill="midnightblue" stroke="midnightblue" points="97.5464,-82.257 89.3111,-75.5914 91.5922,-85.9378 97.5464,-82.257"/>
</g>
<!-- Node16 -->
<g id="node17" class="node"><title>Node16</title>
<g id="a_node17"><a xlink:href="_tree_8h.html" target="_top" xlink:title="Tree.h">
<polygon fill="white" stroke="black" points="774.5,-112.5 774.5,-131.5 819.5,-131.5 819.5,-112.5 774.5,-112.5"/>
<text text-anchor="middle" x="797" y="-119.5" font-family="Helvetica,sans-Serif" font-size="10.00">Tree.h</text>
</a>
</g>
</g>
<!-- Node1&#45;&gt;Node16 -->
<g id="edge17" class="edge"><title>Node1&#45;&gt;Node16</title>
<path fill="none" stroke="midnightblue" d="M202.612,-172.763C329.662,-162.126 659.376,-134.522 764.375,-125.731"/>
<polygon fill="midnightblue" stroke="midnightblue" points="764.708,-129.216 774.381,-124.894 764.124,-122.24 764.708,-129.216"/>
</g>
<!-- Node3 -->
<g id="node4" class="node"><title>Node3</title>
<g id="a_node4"><a xlink:href="types_8h.html" target="_top" xlink:title="base/types.h">
<polygon fill="white" stroke="black" points="82,-0.5 82,-19.5 160,-19.5 160,-0.5 82,-0.5"/>
<text text-anchor="middle" x="121" y="-7.5" font-family="Helvetica,sans-Serif" font-size="10.00">base/types.h</text>
</a>
</g>
</g>
<!-- Node2&#45;&gt;Node3 -->
<g id="edge3" class="edge"><title>Node2&#45;&gt;Node3</title>
<path fill="none" stroke="midnightblue" d="M213.831,-112.459C193.456,-105.51 167.477,-93.879 150,-76 137.335,-63.0437 129.664,-43.6059 125.422,-29.3614"/>
<polygon fill="midnightblue" stroke="midnightblue" points="128.794,-28.4241 122.82,-19.6743 122.034,-30.24 128.794,-28.4241"/>
</g>
<!-- Node4 -->
<g id="node5" class="node"><title>Node4</title>
<g id="a_node5"><a xlink:href="interval_8h.html" target="_top" xlink:title="base/interval.h">
<polygon fill="white" stroke="black" points="159.5,-56.5 159.5,-75.5 246.5,-75.5 246.5,-56.5 159.5,-56.5"/>
<text text-anchor="middle" x="203" y="-63.5" font-family="Helvetica,sans-Serif" font-size="10.00">base/interval.h</text>
</a>
</g>
</g>
<!-- Node2&#45;&gt;Node4 -->
<g id="edge4" class="edge"><title>Node2&#45;&gt;Node4</title>
<path fill="none" stroke="midnightblue" d="M238.065,-112.083C232.071,-104.377 223.248,-93.0333 215.952,-83.6531"/>
<polygon fill="midnightblue" stroke="midnightblue" points="218.709,-81.4958 209.806,-75.7511 213.183,-85.7934 218.709,-81.4958"/>
</g>
<!-- Node11 -->
<g id="node12" class="node"><title>Node11</title>
<polygon fill="white" stroke="#bfbfbf" points="265,-56.5 265,-75.5 309,-75.5 309,-56.5 265,-56.5"/>
<text text-anchor="middle" x="287" y="-63.5" font-family="Helvetica,sans-Serif" font-size="10.00">string</text>
</g>
<!-- Node2&#45;&gt;Node11 -->
<g id="edge12" class="edge"><title>Node2&#45;&gt;Node11</title>
<path fill="none" stroke="midnightblue" d="M251.935,-112.083C257.929,-104.377 266.752,-93.0333 274.048,-83.6531"/>
<polygon fill="midnightblue" stroke="midnightblue" points="276.817,-85.7934 280.194,-75.7511 271.291,-81.4958 276.817,-85.7934"/>
</g>
<!-- Node12 -->
<g id="node13" class="node"><title>Node12</title>
<polygon fill="white" stroke="#bfbfbf" points="327.5,-56.5 327.5,-75.5 384.5,-75.5 384.5,-56.5 327.5,-56.5"/>
<text text-anchor="middle" x="356" y="-63.5" font-family="Helvetica,sans-Serif" font-size="10.00">ostream</text>
</g>
<!-- Node2&#45;&gt;Node12 -->
<g id="edge13" class="edge"><title>Node2&#45;&gt;Node12</title>
<path fill="none" stroke="midnightblue" d="M262.834,-112.324C280.716,-103.625 308.475,-90.1202 329.046,-80.113"/>
<polygon fill="midnightblue" stroke="midnightblue" points="330.749,-83.1765 338.21,-75.6545 327.687,-76.8819 330.749,-83.1765"/>
</g>
<!-- Node2&#45;&gt;Node13 -->
<g id="edge14" class="edge"><title>Node2&#45;&gt;Node13</title>
<path fill="none" stroke="midnightblue" d="M219.489,-112.444C190.492,-102.718 143.261,-86.8764 112.919,-76.6997"/>
<polygon fill="midnightblue" stroke="midnightblue" points="113.922,-73.3443 103.328,-73.4826 111.696,-79.981 113.922,-73.3443"/>
</g>
<!-- Node14 -->
<g id="node15" class="node"><title>Node14</title>
<polygon fill="white" stroke="#bfbfbf" points="403,-56.5 403,-75.5 455,-75.5 455,-56.5 403,-56.5"/>
<text text-anchor="middle" x="429" y="-63.5" font-family="Helvetica,sans-Serif" font-size="10.00">iterator</text>
</g>
<!-- Node2&#45;&gt;Node14 -->
<g id="edge15" class="edge"><title>Node2&#45;&gt;Node14</title>
<path fill="none" stroke="midnightblue" d="M274.155,-112.444C306.436,-102.97 358.489,-87.6935 393.215,-77.5022"/>
<polygon fill="midnightblue" stroke="midnightblue" points="394.346,-80.8178 402.956,-74.6433 392.375,-74.1011 394.346,-80.8178"/>
</g>
<!-- Node15 -->
<g id="node16" class="node"><title>Node15</title>
<polygon fill="white" stroke="#bfbfbf" points="473.5,-56.5 473.5,-75.5 520.5,-75.5 520.5,-56.5 473.5,-56.5"/>
<text text-anchor="middle" x="497" y="-63.5" font-family="Helvetica,sans-Serif" font-size="10.00">vector</text>
</g>
<!-- Node2&#45;&gt;Node15 -->
<g id="edge16" class="edge"><title>Node2&#45;&gt;Node15</title>
<path fill="none" stroke="midnightblue" d="M285.534,-113.472C327.554,-105.49 395.354,-92.1168 463.24,-76.0586"/>
<polygon fill="midnightblue" stroke="midnightblue" points="464.338,-79.3949 473.253,-73.6702 462.714,-72.5859 464.338,-79.3949"/>
</g>
<!-- Node4&#45;&gt;Node3 -->
<g id="edge5" class="edge"><title>Node4&#45;&gt;Node3</title>
<path fill="none" stroke="midnightblue" d="M189.825,-56.324C177.153,-47.979 157.767,-35.2122 142.794,-25.3524"/>
<polygon fill="midnightblue" stroke="midnightblue" points="144.419,-22.2313 134.142,-19.6545 140.569,-28.0776 144.419,-22.2313"/>
</g>
<!-- Node5 -->
<g id="node6" class="node"><title>Node5</title>
<polygon fill="white" stroke="#bfbfbf" points="484,-0.5 484,-19.5 546,-19.5 546,-0.5 484,-0.5"/>
<text text-anchor="middle" x="515" y="-7.5" font-family="Helvetica,sans-Serif" font-size="10.00">algorithm</text>
</g>
<!-- Node4&#45;&gt;Node5 -->
<g id="edge6" class="edge"><title>Node4&#45;&gt;Node5</title>
<path fill="none" stroke="midnightblue" d="M246.711,-57.4347C306.989,-47.002 414.848,-28.3339 473.781,-18.134"/>
<polygon fill="midnightblue" stroke="midnightblue" points="474.59,-21.5462 483.846,-16.392 473.396,-14.6487 474.59,-21.5462"/>
</g>
<!-- Node4&#45;&gt;Node6 -->
<g id="edge7" class="edge"><title>Node4&#45;&gt;Node6</title>
<path fill="none" stroke="midnightblue" d="M175.905,-56.4435C147.012,-47.3196 101.075,-32.8133 68.8946,-22.6509"/>
<polygon fill="midnightblue" stroke="midnightblue" points="69.5585,-19.1903 58.9687,-19.5164 67.4505,-25.8654 69.5585,-19.1903"/>
</g>
<!-- Node7 -->
<g id="node8" class="node"><title>Node7</title>
<polygon fill="white" stroke="#bfbfbf" points="390,-0.5 390,-19.5 432,-19.5 432,-0.5 390,-0.5"/>
<text text-anchor="middle" x="411" y="-7.5" font-family="Helvetica,sans-Serif" font-size="10.00">limits</text>
</g>
<!-- Node4&#45;&gt;Node7 -->
<g id="edge8" class="edge"><title>Node4&#45;&gt;Node7</title>
<path fill="none" stroke="midnightblue" d="M238.018,-56.4652C273.791,-47.6602 330.897,-33.3656 380,-20 380.098,-19.9733 380.196,-19.9466 380.295,-19.9197"/>
<polygon fill="midnightblue" stroke="midnightblue" points="380.995,-23.3582 389.681,-17.2914 379.108,-16.6175 380.995,-23.3582"/>
</g>
<!-- Node8 -->
<g id="node9" class="node"><title>Node8</title>
<polygon fill="white" stroke="#bfbfbf" points="178.5,-0.5 178.5,-19.5 231.5,-19.5 231.5,-0.5 178.5,-0.5"/>
<text text-anchor="middle" x="205" y="-7.5" font-family="Helvetica,sans-Serif" font-size="10.00">istream</text>
</g>
<!-- Node4&#45;&gt;Node8 -->
<g id="edge9" class="edge"><title>Node4&#45;&gt;Node8</title>
<path fill="none" stroke="midnightblue" d="M203.33,-56.083C203.592,-49.0059 203.968,-38.8611 204.297,-29.9865"/>
<polygon fill="midnightblue" stroke="midnightblue" points="207.803,-29.8738 204.676,-19.7511 200.808,-29.6147 207.803,-29.8738"/>
</g>
<!-- Node9 -->
<g id="node10" class="node"><title>Node9</title>
<polygon fill="white" stroke="#bfbfbf" points="250,-0.5 250,-19.5 306,-19.5 306,-0.5 250,-0.5"/>
<text text-anchor="middle" x="278" y="-7.5" font-family="Helvetica,sans-Serif" font-size="10.00">sstream</text>
</g>
<!-- Node4&#45;&gt;Node9 -->
<g id="edge10" class="edge"><title>Node4&#45;&gt;Node9</title>
<path fill="none" stroke="midnightblue" d="M215.05,-56.324C226.463,-48.1066 243.831,-35.6017 257.435,-25.8069"/>
<polygon fill="midnightblue" stroke="midnightblue" points="259.66,-28.5174 265.731,-19.8339 255.57,-22.8366 259.66,-28.5174"/>
</g>
<!-- Node10 -->
<g id="node11" class="node"><title>Node10</title>
<polygon fill="white" stroke="#bfbfbf" points="324.5,-0.5 324.5,-19.5 371.5,-19.5 371.5,-0.5 324.5,-0.5"/>
<text text-anchor="middle" x="348" y="-7.5" font-family="Helvetica,sans-Serif" font-size="10.00">cmath</text>
</g>
<!-- Node4&#45;&gt;Node10 -->
<g id="edge11" class="edge"><title>Node4&#45;&gt;Node10</title>
<path fill="none" stroke="midnightblue" d="M225.976,-56.4435C250.157,-47.4381 288.418,-33.1891 315.646,-23.049"/>
<polygon fill="midnightblue" stroke="midnightblue" points="316.982,-26.2864 325.132,-19.5164 314.539,-19.7265 316.982,-26.2864"/>
</g>
<!-- Node16&#45;&gt;Node5 -->
<g id="edge25" class="edge"><title>Node16&#45;&gt;Node5</title>
<path fill="none" stroke="midnightblue" d="M774.403,-121.475C731.162,-121.378 635.056,-116.231 568,-76 548.949,-64.5704 533.78,-43.6754 524.633,-28.658"/>
<polygon fill="midnightblue" stroke="midnightblue" points="527.546,-26.7032 519.512,-19.7967 521.486,-30.2061 527.546,-26.7032"/>
</g>
<!-- Node16&#45;&gt;Node15 -->
<g id="edge24" class="edge"><title>Node16&#45;&gt;Node15</title>
<path fill="none" stroke="midnightblue" d="M774.482,-117.618C729.039,-110.686 623.179,-93.9966 535,-76 533.547,-75.7034 532.065,-75.3918 530.569,-75.0699"/>
<polygon fill="midnightblue" stroke="midnightblue" points="531.19,-71.6223 520.666,-72.8463 529.656,-78.4523 531.19,-71.6223"/>
</g>
<!-- Node17 -->
<g id="node18" class="node"><title>Node17</title>
<polygon fill="white" stroke="#bfbfbf" points="577.5,-56.5 577.5,-75.5 680.5,-75.5 680.5,-56.5 577.5,-56.5"/>
<text text-anchor="middle" x="629" y="-63.5" font-family="Helvetica,sans-Serif" font-size="10.00">cereal/access.hpp</text>
</g>
<!-- Node16&#45;&gt;Node17 -->
<g id="edge18" class="edge"><title>Node16&#45;&gt;Node17</title>
<path fill="none" stroke="midnightblue" d="M774.343,-113.717C746.421,-104.743 698.617,-89.3769 665.494,-78.7303"/>
<polygon fill="midnightblue" stroke="midnightblue" points="666.316,-75.3181 655.725,-75.59 664.174,-81.9823 666.316,-75.3181"/>
</g>
<!-- Node18 -->
<g id="node19" class="node"><title>Node18</title>
<g id="a_node19"><a xlink:href="variadic_8h.html" target="_top" xlink:title="std_ext/variadic.h">
<polygon fill="white" stroke="black" points="698.5,-56.5 698.5,-75.5 799.5,-75.5 799.5,-56.5 698.5,-56.5"/>
<text text-anchor="middle" x="749" y="-63.5" font-family="Helvetica,sans-Serif" font-size="10.00">std_ext/variadic.h</text>
</a>
</g>
</g>
<!-- Node16&#45;&gt;Node18 -->
<g id="edge19" class="edge"><title>Node16&#45;&gt;Node18</title>
<path fill="none" stroke="midnightblue" d="M789.074,-112.083C782.154,-104.298 771.935,-92.8015 763.548,-83.3665"/>
<polygon fill="midnightblue" stroke="midnightblue" points="766.038,-80.8999 756.779,-75.7511 760.806,-85.5505 766.038,-80.8999"/>
</g>
<!-- Node21 -->
<g id="node22" class="node"><title>Node21</title>
<polygon fill="white" stroke="#bfbfbf" points="817.5,-56.5 817.5,-75.5 874.5,-75.5 874.5,-56.5 817.5,-56.5"/>
<text text-anchor="middle" x="846" y="-63.5" font-family="Helvetica,sans-Serif" font-size="10.00">memory</text>
</g>
<!-- Node16&#45;&gt;Node21 -->
<g id="edge22" class="edge"><title>Node16&#45;&gt;Node21</title>
<path fill="none" stroke="midnightblue" d="M805.091,-112.083C812.155,-104.298 822.588,-92.8015 831.149,-83.3665"/>
<polygon fill="midnightblue" stroke="midnightblue" points="833.931,-85.5087 838.059,-75.7511 828.747,-80.8047 833.931,-85.5087"/>
</g>
<!-- Node22 -->
<g id="node23" class="node"><title>Node22</title>
<polygon fill="white" stroke="#bfbfbf" points="893,-56.5 893,-75.5 923,-75.5 923,-56.5 893,-56.5"/>
<text text-anchor="middle" x="908" y="-63.5" font-family="Helvetica,sans-Serif" font-size="10.00">list</text>
</g>
<!-- Node16&#45;&gt;Node22 -->
<g id="edge23" class="edge"><title>Node16&#45;&gt;Node22</title>
<path fill="none" stroke="midnightblue" d="M814.834,-112.324C833.457,-103.264 862.792,-88.9933 883.563,-78.8881"/>
<polygon fill="midnightblue" stroke="midnightblue" points="885.25,-81.9597 892.712,-74.4376 882.188,-75.665 885.25,-81.9597"/>
</g>
<!-- Node23 -->
<g id="node24" class="node"><title>Node23</title>
<polygon fill="white" stroke="#bfbfbf" points="941,-56.5 941,-75.5 993,-75.5 993,-56.5 941,-56.5"/>
<text text-anchor="middle" x="967" y="-63.5" font-family="Helvetica,sans-Serif" font-size="10.00">cassert</text>
</g>
<!-- Node16&#45;&gt;Node23 -->
<g id="edge26" class="edge"><title>Node16&#45;&gt;Node23</title>
<path fill="none" stroke="midnightblue" d="M819.575,-113.829C848.059,-104.781 897.388,-89.1121 931.075,-78.4115"/>
<polygon fill="midnightblue" stroke="midnightblue" points="932.516,-81.6262 940.987,-75.263 930.397,-74.9547 932.516,-81.6262"/>
</g>
<!-- Node24 -->
<g id="node25" class="node"><title>Node24</title>
<polygon fill="white" stroke="#bfbfbf" points="1011,-56.5 1011,-75.5 1067,-75.5 1067,-56.5 1011,-56.5"/>
<text text-anchor="middle" x="1039" y="-63.5" font-family="Helvetica,sans-Serif" font-size="10.00">numeric</text>
</g>
<!-- Node16&#45;&gt;Node24 -->
<g id="edge27" class="edge"><title>Node16&#45;&gt;Node24</title>
<path fill="none" stroke="midnightblue" d="M819.789,-116.173C855.97,-108.471 929.017,-92.7705 1000.64,-76.2768"/>
<polygon fill="midnightblue" stroke="midnightblue" points="1001.78,-79.6062 1010.73,-73.9449 1000.2,-72.7859 1001.78,-79.6062"/>
</g>
<!-- Node25 -->
<g id="node26" class="node"><title>Node25</title>
<polygon fill="white" stroke="#bfbfbf" points="1085,-56.5 1085,-75.5 1153,-75.5 1153,-56.5 1085,-56.5"/>
<text text-anchor="middle" x="1119" y="-63.5" font-family="Helvetica,sans-Serif" font-size="10.00">type_traits</text>
</g>
<!-- Node16&#45;&gt;Node25 -->
<g id="edge28" class="edge"><title>Node16&#45;&gt;Node25</title>
<path fill="none" stroke="midnightblue" d="M819.846,-117.682C866.016,-110.9 973.946,-94.6487 1074.72,-76.1691"/>
<polygon fill="midnightblue" stroke="midnightblue" points="1075.56,-79.5728 1084.76,-74.3158 1074.29,-72.6891 1075.56,-79.5728"/>
</g>
<!-- Node19 -->
<g id="node20" class="node"><title>Node19</title>
<polygon fill="white" stroke="#bfbfbf" points="690,-0.5 690,-19.5 742,-19.5 742,-0.5 690,-0.5"/>
<text text-anchor="middle" x="716" y="-7.5" font-family="Helvetica,sans-Serif" font-size="10.00">cstddef</text>
</g>
<!-- Node18&#45;&gt;Node19 -->
<g id="edge20" class="edge"><title>Node18&#45;&gt;Node19</title>
<path fill="none" stroke="midnightblue" d="M743.551,-56.083C738.986,-48.6127 732.332,-37.7244 726.707,-28.5199"/>
<polygon fill="midnightblue" stroke="midnightblue" points="729.549,-26.4588 721.348,-19.7511 723.576,-30.109 729.549,-26.4588"/>
</g>
<!-- Node20 -->
<g id="node21" class="node"><title>Node20</title>
<polygon fill="white" stroke="#bfbfbf" points="760.5,-0.5 760.5,-19.5 801.5,-19.5 801.5,-0.5 760.5,-0.5"/>
<text text-anchor="middle" x="781" y="-7.5" font-family="Helvetica,sans-Serif" font-size="10.00">tuple</text>
</g>
<!-- Node18&#45;&gt;Node20 -->
<g id="edge21" class="edge"><title>Node18&#45;&gt;Node20</title>
<path fill="none" stroke="midnightblue" d="M754.284,-56.083C758.711,-48.6127 765.163,-37.7244 770.618,-28.5199"/>
<polygon fill="midnightblue" stroke="midnightblue" points="773.727,-30.1383 775.814,-19.7511 767.705,-26.5697 773.727,-30.1383"/>
</g>
</g>
</svg>
