<?xml version="1.0" encoding="UTF-8" standalone="no"?>
<!DOCTYPE svg PUBLIC "-//W3C//DTD SVG 1.1//EN"
 "http://www.w3.org/Graphics/SVG/1.1/DTD/svg11.dtd">
<!-- Generated by graphviz version 2.38.0 (20140413.2041)
 -->
<!-- Title: src/base/PhysicsMath.h Pages: 1 -->
<svg width="446pt" height="95pt"
 viewBox="0.00 0.00 445.50 95.00" xmlns="http://www.w3.org/2000/svg" xmlns:xlink="http://www.w3.org/1999/xlink">
<g id="graph0" class="graph" transform="scale(1 1) rotate(0) translate(4 91)">
<title>src/base/PhysicsMath.h</title>
<polygon fill="white" stroke="none" points="-4,4 -4,-91 441.5,-91 441.5,4 -4,4"/>
<!-- Node16 -->
<g id="node1" class="node"><title>Node16</title>
<polygon fill="#bfbfbf" stroke="black" points="154.5,-67.5 154.5,-86.5 282.5,-86.5 282.5,-67.5 154.5,-67.5"/>
<text text-anchor="middle" x="218.5" y="-74.5" font-family="Helvetica,sans-Serif" font-size="10.00">src/base/PhysicsMath.h</text>
</g>
<!-- Node17 -->
<g id="node2" class="node"><title>Node17</title>
<g id="a_node2"><a xlink:href="_omega_eta_g__fit_8cc.html" target="_top" xlink:title="progs/OmegaEtaG_fit.cc">
<polygon fill="white" stroke="black" points="0,-6 0,-25 133,-25 133,-6 0,-6"/>
<text text-anchor="middle" x="66.5" y="-13" font-family="Helvetica,sans-Serif" font-size="10.00">progs/OmegaEtaG_fit.cc</text>
</a>
</g>
</g>
<!-- Node16&#45;&gt;Node17 -->
<g id="edge1" class="edge"><title>Node16&#45;&gt;Node17</title>
<path fill="none" stroke="midnightblue" d="M187.289,-63.7824C157.751,-52.2199 114.18,-35.1641 88.2375,-25.0091"/>
<polygon fill="midnightblue" stroke="midnightblue" points="186.134,-67.0891 196.722,-67.4751 188.686,-60.5707 186.134,-67.0891"/>
</g>
<!-- Node18 -->
<g id="node3" class="node"><title>Node18</title>
<g id="a_node3"><a xlink:href="_omega_8cc.html" target="_top" xlink:title="src/root&#45;addons/analysis\l_codes/Omega.cc">
<polygon fill="white" stroke="black" points="151.5,-0.5 151.5,-30.5 285.5,-30.5 285.5,-0.5 151.5,-0.5"/>
<text text-anchor="start" x="159.5" y="-18.5" font-family="Helvetica,sans-Serif" font-size="10.00">src/root&#45;addons/analysis</text>
<text text-anchor="middle" x="218.5" y="-7.5" font-family="Helvetica,sans-Serif" font-size="10.00">_codes/Omega.cc</text>
</a>
</g>
</g>
<!-- Node16&#45;&gt;Node18 -->
<g id="edge2" class="edge"><title>Node16&#45;&gt;Node18</title>
<path fill="none" stroke="midnightblue" d="M218.5,-57.2349C218.5,-48.5864 218.5,-38.4969 218.5,-30.523"/>
<polygon fill="midnightblue" stroke="midnightblue" points="215,-57.4751 218.5,-67.4751 222,-57.4751 215,-57.4751"/>
</g>
<!-- Node19 -->
<g id="node4" class="node"><title>Node19</title>
<g id="a_node4"><a xlink:href="pi0_8cc.html" target="_top" xlink:title="src/root&#45;addons/analysis\l_codes/pi0.cc">
<polygon fill="white" stroke="black" points="303.5,-0.5 303.5,-30.5 437.5,-30.5 437.5,-0.5 303.5,-0.5"/>
<text text-anchor="start" x="311.5" y="-18.5" font-family="Helvetica,sans-Serif" font-size="10.00">src/root&#45;addons/analysis</text>
<text text-anchor="middle" x="370.5" y="-7.5" font-family="Helvetica,sans-Serif" font-size="10.00">_codes/pi0.cc</text>
</a>
</g>
</g>
<!-- Node16&#45;&gt;Node19 -->
<g id="edge3" class="edge"><title>Node16&#45;&gt;Node19</title>
<path fill="none" stroke="midnightblue" d="M249.873,-63.7189C274.543,-54.062 308.928,-40.6023 334.677,-30.523"/>
<polygon fill="midnightblue" stroke="midnightblue" points="248.314,-60.5707 240.278,-67.4751 250.866,-67.0891 248.314,-60.5707"/>
</g>
</g>
</svg>
