<?xml version="1.0" encoding="UTF-8" standalone="no"?>
<!DOCTYPE svg PUBLIC "-//W3C//DTD SVG 1.1//EN"
 "http://www.w3.org/Graphics/SVG/1.1/DTD/svg11.dtd">
<!-- Generated by graphviz version 2.38.0 (20140413.2041)
 -->
<!-- Title: src/analysis/physics/scratch/sobotzik/Pi0Calib.h Pages: 1 -->
<svg width="160pt" height="106pt"
 viewBox="0.00 0.00 160.00 106.00" xmlns="http://www.w3.org/2000/svg" xmlns:xlink="http://www.w3.org/1999/xlink">
<g id="graph0" class="graph" transform="scale(1 1) rotate(0) translate(4 102)">
<title>src/analysis/physics/scratch/sobotzik/Pi0Calib.h</title>
<polygon fill="white" stroke="none" points="-4,4 -4,-102 156,-102 156,4 -4,4"/>
<!-- Node93 -->
<g id="node1" class="node"><title>Node93</title>
<polygon fill="#bfbfbf" stroke="black" points="2.5,-67.5 2.5,-97.5 149.5,-97.5 149.5,-67.5 2.5,-67.5"/>
<text text-anchor="start" x="10.5" y="-85.5" font-family="Helvetica,sans-Serif" font-size="10.00">src/analysis/physics</text>
<text text-anchor="middle" x="76" y="-74.5" font-family="Helvetica,sans-Serif" font-size="10.00">/scratch/sobotzik/Pi0Calib.h</text>
</g>
<!-- Node94 -->
<g id="node2" class="node"><title>Node94</title>
<g id="a_node2"><a xlink:href="_pi0_calib_8cc.html" target="_top" xlink:title="src/analysis/physics\l/scratch/sobotzik/Pi0Calib.cc">
<polygon fill="white" stroke="black" points="0,-0.5 0,-30.5 152,-30.5 152,-0.5 0,-0.5"/>
<text text-anchor="start" x="8" y="-18.5" font-family="Helvetica,sans-Serif" font-size="10.00">src/analysis/physics</text>
<text text-anchor="middle" x="76" y="-7.5" font-family="Helvetica,sans-Serif" font-size="10.00">/scratch/sobotzik/Pi0Calib.cc</text>
</a>
</g>
</g>
<!-- Node93&#45;&gt;Node94 -->
<g id="edge1" class="edge"><title>Node93&#45;&gt;Node94</title>
<path fill="none" stroke="midnightblue" d="M76,-57.1081C76,-48.1539 76,-38.3227 76,-30.5765"/>
<polygon fill="midnightblue" stroke="midnightblue" points="72.5001,-57.3959 76,-67.396 79.5001,-57.396 72.5001,-57.3959"/>
</g>
</g>
</svg>
