<?xml version="1.0" encoding="UTF-8" standalone="no"?>
<!DOCTYPE svg PUBLIC "-//W3C//DTD SVG 1.1//EN"
 "http://www.w3.org/Graphics/SVG/1.1/DTD/svg11.dtd">
<!-- Generated by graphviz version 2.38.0 (20140413.2041)
 -->
<!-- Title: src/base/PlotExt.cc Pages: 1 -->
<svg width="642pt" height="196pt"
 viewBox="0.00 0.00 641.50 196.00" xmlns="http://www.w3.org/2000/svg" xmlns:xlink="http://www.w3.org/1999/xlink">
<g id="graph0" class="graph" transform="scale(1 1) rotate(0) translate(4 192)">
<title>src/base/PlotExt.cc</title>
<polygon fill="white" stroke="none" points="-4,4 -4,-192 637.5,-192 637.5,4 -4,4"/>
<!-- Node0 -->
<g id="node1" class="node"><title>Node0</title>
<polygon fill="#bfbfbf" stroke="black" points="373.5,-168.5 373.5,-187.5 480.5,-187.5 480.5,-168.5 373.5,-168.5"/>
<text text-anchor="middle" x="427" y="-175.5" font-family="Helvetica,sans-Serif" font-size="10.00">src/base/PlotExt.cc</text>
</g>
<!-- Node1 -->
<g id="node2" class="node"><title>Node1</title>
<g id="a_node2"><a xlink:href="_plot_ext_8h.html" target="_top" xlink:title="PlotExt.h">
<polygon fill="white" stroke="black" points="265.5,-112.5 265.5,-131.5 324.5,-131.5 324.5,-112.5 265.5,-112.5"/>
<text text-anchor="middle" x="295" y="-119.5" font-family="Helvetica,sans-Serif" font-size="10.00">PlotExt.h</text>
</a>
</g>
</g>
<!-- Node0&#45;&gt;Node1 -->
<g id="edge1" class="edge"><title>Node0&#45;&gt;Node1</title>
<path fill="none" stroke="midnightblue" d="M406.084,-168.444C384.264,-159.517 349.85,-145.439 325.108,-135.317"/>
<polygon fill="midnightblue" stroke="midnightblue" points="326.399,-132.063 315.818,-131.516 323.748,-138.542 326.399,-132.063"/>
</g>
<!-- Node11 -->
<g id="node12" class="node"><title>Node11</title>
<polygon fill="white" stroke="#bfbfbf" points="343,-112.5 343,-131.5 387,-131.5 387,-112.5 343,-112.5"/>
<text text-anchor="middle" x="365" y="-119.5" font-family="Helvetica,sans-Serif" font-size="10.00">TH1.h</text>
</g>
<!-- Node0&#45;&gt;Node11 -->
<g id="edge11" class="edge"><title>Node0&#45;&gt;Node11</title>
<path fill="none" stroke="midnightblue" d="M417.039,-168.324C407.873,-160.341 394.063,-148.313 382.972,-138.653"/>
<polygon fill="midnightblue" stroke="midnightblue" points="384.982,-135.762 375.143,-131.834 380.385,-141.041 384.982,-135.762"/>
</g>
<!-- Node12 -->
<g id="node13" class="node"><title>Node12</title>
<polygon fill="white" stroke="#bfbfbf" points="405,-112.5 405,-131.5 449,-131.5 449,-112.5 405,-112.5"/>
<text text-anchor="middle" x="427" y="-119.5" font-family="Helvetica,sans-Serif" font-size="10.00">TH2.h</text>
</g>
<!-- Node0&#45;&gt;Node12 -->
<g id="edge12" class="edge"><title>Node0&#45;&gt;Node12</title>
<path fill="none" stroke="midnightblue" d="M427,-168.083C427,-161.006 427,-150.861 427,-141.986"/>
<polygon fill="midnightblue" stroke="midnightblue" points="430.5,-141.751 427,-131.751 423.5,-141.751 430.5,-141.751"/>
</g>
<!-- Node13 -->
<g id="node14" class="node"><title>Node13</title>
<polygon fill="white" stroke="#bfbfbf" points="467,-112.5 467,-131.5 527,-131.5 527,-112.5 467,-112.5"/>
<text text-anchor="middle" x="497" y="-119.5" font-family="Helvetica,sans-Serif" font-size="10.00">TGraph.h</text>
</g>
<!-- Node0&#45;&gt;Node13 -->
<g id="edge13" class="edge"><title>Node0&#45;&gt;Node13</title>
<path fill="none" stroke="midnightblue" d="M438.247,-168.324C448.797,-160.185 464.801,-147.839 477.442,-138.087"/>
<polygon fill="midnightblue" stroke="midnightblue" points="479.769,-140.713 485.549,-131.834 475.493,-135.171 479.769,-140.713"/>
</g>
<!-- Node14 -->
<g id="node15" class="node"><title>Node14</title>
<polygon fill="white" stroke="#bfbfbf" points="544.5,-112.5 544.5,-131.5 633.5,-131.5 633.5,-112.5 544.5,-112.5"/>
<text text-anchor="middle" x="589" y="-119.5" font-family="Helvetica,sans-Serif" font-size="10.00">TGraphErrors.h</text>
</g>
<!-- Node0&#45;&gt;Node14 -->
<g id="edge14" class="edge"><title>Node0&#45;&gt;Node14</title>
<path fill="none" stroke="midnightblue" d="M452.669,-168.444C479.923,-159.359 523.184,-144.939 553.651,-134.783"/>
<polygon fill="midnightblue" stroke="midnightblue" points="555.071,-137.999 563.451,-131.516 552.857,-131.358 555.071,-137.999"/>
</g>
<!-- Node2 -->
<g id="node3" class="node"><title>Node2</title>
<g id="a_node3"><a xlink:href="interval_8h.html" target="_top" xlink:title="base/interval.h">
<polygon fill="white" stroke="black" points="209.5,-56.5 209.5,-75.5 296.5,-75.5 296.5,-56.5 209.5,-56.5"/>
<text text-anchor="middle" x="253" y="-63.5" font-family="Helvetica,sans-Serif" font-size="10.00">base/interval.h</text>
</a>
</g>
</g>
<!-- Node1&#45;&gt;Node2 -->
<g id="edge2" class="edge"><title>Node1&#45;&gt;Node2</title>
<path fill="none" stroke="midnightblue" d="M288.065,-112.083C282.071,-104.377 273.248,-93.0333 265.952,-83.6531"/>
<polygon fill="midnightblue" stroke="midnightblue" points="268.709,-81.4958 259.806,-75.7511 263.183,-85.7934 268.709,-81.4958"/>
</g>
<!-- Node10 -->
<g id="node11" class="node"><title>Node10</title>
<polygon fill="white" stroke="#bfbfbf" points="314.5,-56.5 314.5,-75.5 361.5,-75.5 361.5,-56.5 314.5,-56.5"/>
<text text-anchor="middle" x="338" y="-63.5" font-family="Helvetica,sans-Serif" font-size="10.00">vector</text>
</g>
<!-- Node1&#45;&gt;Node10 -->
<g id="edge10" class="edge"><title>Node1&#45;&gt;Node10</title>
<path fill="none" stroke="midnightblue" d="M302.101,-112.083C308.237,-104.377 317.27,-93.0333 324.739,-83.6531"/>
<polygon fill="midnightblue" stroke="midnightblue" points="327.54,-85.7542 331.032,-75.7511 322.064,-81.3936 327.54,-85.7542"/>
</g>
<!-- Node3 -->
<g id="node4" class="node"><title>Node3</title>
<g id="a_node4"><a xlink:href="types_8h.html" target="_top" xlink:title="types.h">
<polygon fill="white" stroke="black" points="0,-0.5 0,-19.5 52,-19.5 52,-0.5 0,-0.5"/>
<text text-anchor="middle" x="26" y="-7.5" font-family="Helvetica,sans-Serif" font-size="10.00">types.h</text>
</a>
</g>
</g>
<!-- Node2&#45;&gt;Node3 -->
<g id="edge3" class="edge"><title>Node2&#45;&gt;Node3</title>
<path fill="none" stroke="midnightblue" d="M215.417,-56.4425C178.712,-48.0293 121.017,-34.6577 62.1899,-20.2564"/>
<polygon fill="midnightblue" stroke="midnightblue" points="62.9042,-16.8279 52.358,-17.8424 61.235,-23.626 62.9042,-16.8279"/>
</g>
<!-- Node4 -->
<g id="node5" class="node"><title>Node4</title>
<polygon fill="white" stroke="#bfbfbf" points="70,-0.5 70,-19.5 132,-19.5 132,-0.5 70,-0.5"/>
<text text-anchor="middle" x="101" y="-7.5" font-family="Helvetica,sans-Serif" font-size="10.00">algorithm</text>
</g>
<!-- Node2&#45;&gt;Node4 -->
<g id="edge4" class="edge"><title>Node2&#45;&gt;Node4</title>
<path fill="none" stroke="midnightblue" d="M228.915,-56.4435C203.455,-47.3986 163.106,-33.064 134.541,-22.9158"/>
<polygon fill="midnightblue" stroke="midnightblue" points="135.567,-19.5661 124.972,-19.5164 133.223,-26.1622 135.567,-19.5661"/>
</g>
<!-- Node5 -->
<g id="node6" class="node"><title>Node5</title>
<polygon fill="white" stroke="#bfbfbf" points="150,-0.5 150,-19.5 214,-19.5 214,-0.5 150,-0.5"/>
<text text-anchor="middle" x="182" y="-7.5" font-family="Helvetica,sans-Serif" font-size="10.00">stdexcept</text>
</g>
<!-- Node2&#45;&gt;Node5 -->
<g id="edge5" class="edge"><title>Node2&#45;&gt;Node5</title>
<path fill="none" stroke="midnightblue" d="M241.593,-56.324C230.891,-48.1849 214.659,-35.8395 201.837,-26.0874"/>
<polygon fill="midnightblue" stroke="midnightblue" points="203.693,-23.1018 193.615,-19.8339 199.456,-28.6734 203.693,-23.1018"/>
</g>
<!-- Node6 -->
<g id="node7" class="node"><title>Node6</title>
<polygon fill="white" stroke="#bfbfbf" points="232,-0.5 232,-19.5 274,-19.5 274,-0.5 232,-0.5"/>
<text text-anchor="middle" x="253" y="-7.5" font-family="Helvetica,sans-Serif" font-size="10.00">limits</text>
</g>
<!-- Node2&#45;&gt;Node6 -->
<g id="edge6" class="edge"><title>Node2&#45;&gt;Node6</title>
<path fill="none" stroke="midnightblue" d="M253,-56.083C253,-49.0059 253,-38.8611 253,-29.9865"/>
<polygon fill="midnightblue" stroke="midnightblue" points="256.5,-29.751 253,-19.7511 249.5,-29.7511 256.5,-29.751"/>
</g>
<!-- Node7 -->
<g id="node8" class="node"><title>Node7</title>
<polygon fill="white" stroke="#bfbfbf" points="292.5,-0.5 292.5,-19.5 345.5,-19.5 345.5,-0.5 292.5,-0.5"/>
<text text-anchor="middle" x="319" y="-7.5" font-family="Helvetica,sans-Serif" font-size="10.00">istream</text>
</g>
<!-- Node2&#45;&gt;Node7 -->
<g id="edge7" class="edge"><title>Node2&#45;&gt;Node7</title>
<path fill="none" stroke="midnightblue" d="M263.604,-56.324C273.456,-48.2631 288.351,-36.0765 300.215,-26.3695"/>
<polygon fill="midnightblue" stroke="midnightblue" points="302.68,-28.8752 308.203,-19.8339 298.247,-23.4575 302.68,-28.8752"/>
</g>
<!-- Node8 -->
<g id="node9" class="node"><title>Node8</title>
<polygon fill="white" stroke="#bfbfbf" points="364,-0.5 364,-19.5 420,-19.5 420,-0.5 364,-0.5"/>
<text text-anchor="middle" x="392" y="-7.5" font-family="Helvetica,sans-Serif" font-size="10.00">sstream</text>
</g>
<!-- Node2&#45;&gt;Node8 -->
<g id="edge8" class="edge"><title>Node2&#45;&gt;Node8</title>
<path fill="none" stroke="midnightblue" d="M275.025,-56.4435C298.104,-47.4776 334.562,-33.314 360.641,-23.1827"/>
<polygon fill="midnightblue" stroke="midnightblue" points="362.024,-26.4002 370.078,-19.5164 359.489,-19.8753 362.024,-26.4002"/>
</g>
<!-- Node9 -->
<g id="node10" class="node"><title>Node9</title>
<polygon fill="white" stroke="#bfbfbf" points="438.5,-0.5 438.5,-19.5 485.5,-19.5 485.5,-0.5 438.5,-0.5"/>
<text text-anchor="middle" x="462" y="-7.5" font-family="Helvetica,sans-Serif" font-size="10.00">cmath</text>
</g>
<!-- Node2&#45;&gt;Node9 -->
<g id="edge9" class="edge"><title>Node2&#45;&gt;Node9</title>
<path fill="none" stroke="midnightblue" d="M287.111,-56.4497C320.588,-48.0203 373.35,-34.6351 428.301,-20.1537"/>
<polygon fill="midnightblue" stroke="midnightblue" points="429.444,-23.4719 438.219,-17.5343 427.657,-16.7039 429.444,-23.4719"/>
</g>
</g>
</svg>
