<?xml version="1.0" encoding="UTF-8" standalone="no"?>
<!DOCTYPE svg PUBLIC "-//W3C//DTD SVG 1.1//EN"
 "http://www.w3.org/Graphics/SVG/1.1/DTD/svg11.dtd">
<!-- Generated by graphviz version 2.38.0 (20140413.2041)
 -->
<!-- Title: src/root&#45;addons/analysis_codes/PlotTimings.cc Pages: 1 -->
<svg width="886pt" height="263pt"
 viewBox="0.00 0.00 885.50 263.00" xmlns="http://www.w3.org/2000/svg" xmlns:xlink="http://www.w3.org/1999/xlink">
<g id="graph0" class="graph" transform="scale(1 1) rotate(0) translate(4 259)">
<title>src/root&#45;addons/analysis_codes/PlotTimings.cc</title>
<polygon fill="white" stroke="none" points="-4,4 -4,-259 881.5,-259 881.5,4 -4,4"/>
<!-- Node0 -->
<g id="node1" class="node"><title>Node0</title>
<polygon fill="#bfbfbf" stroke="black" points="585,-224.5 585,-254.5 719,-254.5 719,-224.5 585,-224.5"/>
<text text-anchor="start" x="593" y="-242.5" font-family="Helvetica,sans-Serif" font-size="10.00">src/root&#45;addons/analysis</text>
<text text-anchor="middle" x="652" y="-231.5" font-family="Helvetica,sans-Serif" font-size="10.00">_codes/PlotTimings.cc</text>
</g>
<!-- Node1 -->
<g id="node2" class="node"><title>Node1</title>
<g id="a_node2"><a xlink:href="_plot_timings_8h.html" target="_top" xlink:title="PlotTimings.h">
<polygon fill="white" stroke="black" points="0,-168.5 0,-187.5 80,-187.5 80,-168.5 0,-168.5"/>
<text text-anchor="middle" x="40" y="-175.5" font-family="Helvetica,sans-Serif" font-size="10.00">PlotTimings.h</text>
</a>
</g>
</g>
<!-- Node0&#45;&gt;Node1 -->
<g id="edge1" class="edge"><title>Node0&#45;&gt;Node1</title>
<path fill="none" stroke="midnightblue" d="M584.827,-234.053C479.831,-226.735 270.556,-210.67 94,-188 92.7274,-187.837 91.4388,-187.665 90.1395,-187.488"/>
<polygon fill="midnightblue" stroke="midnightblue" points="90.4552,-183.997 80.0551,-186.019 89.4462,-190.924 90.4552,-183.997"/>
</g>
<!-- Node2 -->
<g id="node3" class="node"><title>Node2</title>
<g id="a_node3"><a xlink:href="_root_draw_8h.html" target="_top" xlink:title="analysis/plot/RootDraw.h">
<polygon fill="white" stroke="black" points="380,-168.5 380,-187.5 512,-187.5 512,-168.5 380,-168.5"/>
<text text-anchor="middle" x="446" y="-175.5" font-family="Helvetica,sans-Serif" font-size="10.00">analysis/plot/RootDraw.h</text>
</a>
</g>
</g>
<!-- Node0&#45;&gt;Node2 -->
<g id="edge2" class="edge"><title>Node0&#45;&gt;Node2</title>
<path fill="none" stroke="midnightblue" d="M603.442,-224.475C567.437,-214.075 518.977,-200.078 485.372,-190.372"/>
<polygon fill="midnightblue" stroke="midnightblue" points="486.029,-186.919 475.451,-187.506 484.087,-193.644 486.029,-186.919"/>
</g>
<!-- Node5 -->
<g id="node6" class="node"><title>Node5</title>
<polygon fill="white" stroke="#bfbfbf" points="118.5,-56.5 118.5,-75.5 165.5,-75.5 165.5,-56.5 118.5,-56.5"/>
<text text-anchor="middle" x="142" y="-63.5" font-family="Helvetica,sans-Serif" font-size="10.00">vector</text>
</g>
<!-- Node0&#45;&gt;Node5 -->
<g id="edge24" class="edge"><title>Node0&#45;&gt;Node5</title>
<path fill="none" stroke="midnightblue" d="M584.692,-234.159C460.762,-224.647 204.005,-197.368 148,-132 137.295,-119.505 136.802,-100.276 138.382,-85.9698"/>
<polygon fill="midnightblue" stroke="midnightblue" points="141.889,-86.1884 139.937,-75.7749 134.969,-85.1326 141.889,-86.1884"/>
</g>
<!-- Node13 -->
<g id="node14" class="node"><title>Node13</title>
<polygon fill="white" stroke="#bfbfbf" points="616,-0.5 616,-19.5 658,-19.5 658,-0.5 616,-0.5"/>
<text text-anchor="middle" x="637" y="-7.5" font-family="Helvetica,sans-Serif" font-size="10.00">limits</text>
</g>
<!-- Node0&#45;&gt;Node13 -->
<g id="edge26" class="edge"><title>Node0&#45;&gt;Node13</title>
<path fill="none" stroke="midnightblue" d="M651.062,-224.269C648.466,-184.895 641.186,-74.4866 638.25,-29.9655"/>
<polygon fill="midnightblue" stroke="midnightblue" points="641.739,-29.675 637.589,-19.927 634.754,-30.1357 641.739,-29.675"/>
</g>
<!-- Node19 -->
<g id="node20" class="node"><title>Node19</title>
<polygon fill="white" stroke="#bfbfbf" points="680,-168.5 680,-187.5 730,-187.5 730,-168.5 680,-168.5"/>
<text text-anchor="middle" x="705" y="-175.5" font-family="Helvetica,sans-Serif" font-size="10.00">TTree.h</text>
</g>
<!-- Node0&#45;&gt;Node19 -->
<g id="edge22" class="edge"><title>Node0&#45;&gt;Node19</title>
<path fill="none" stroke="midnightblue" d="M664.56,-224.399C672.341,-215.664 682.364,-204.413 690.484,-195.296"/>
<polygon fill="midnightblue" stroke="midnightblue" points="693.25,-197.453 697.288,-187.658 688.023,-192.797 693.25,-197.453"/>
</g>
<!-- Node20 -->
<g id="node21" class="node"><title>Node20</title>
<polygon fill="white" stroke="#bfbfbf" points="748,-168.5 748,-187.5 800,-187.5 800,-168.5 748,-168.5"/>
<text text-anchor="middle" x="774" y="-175.5" font-family="Helvetica,sans-Serif" font-size="10.00">TH1D.h</text>
</g>
<!-- Node0&#45;&gt;Node20 -->
<g id="edge23" class="edge"><title>Node0&#45;&gt;Node20</title>
<path fill="none" stroke="midnightblue" d="M680.912,-224.399C701.016,-214.595 727.621,-201.619 747.238,-192.052"/>
<polygon fill="midnightblue" stroke="midnightblue" points="748.794,-195.187 756.248,-187.658 745.726,-188.896 748.794,-195.187"/>
</g>
<!-- Node21 -->
<g id="node22" class="node"><title>Node21</title>
<polygon fill="white" stroke="#bfbfbf" points="818.5,-168.5 818.5,-187.5 877.5,-187.5 877.5,-168.5 818.5,-168.5"/>
<text text-anchor="middle" x="848" y="-175.5" font-family="Helvetica,sans-Serif" font-size="10.00">iostream</text>
</g>
<!-- Node0&#45;&gt;Node21 -->
<g id="edge25" class="edge"><title>Node0&#45;&gt;Node21</title>
<path fill="none" stroke="midnightblue" d="M698.449,-224.399C732.465,-214.073 778.063,-200.231 809.933,-190.556"/>
<polygon fill="midnightblue" stroke="midnightblue" points="811.214,-193.825 819.766,-187.571 809.181,-187.127 811.214,-193.825"/>
</g>
<!-- Node3 -->
<g id="node4" class="node"><title>Node3</title>
<polygon fill="white" stroke="#bfbfbf" points="532,-112.5 532,-131.5 576,-131.5 576,-112.5 532,-112.5"/>
<text text-anchor="middle" x="554" y="-119.5" font-family="Helvetica,sans-Serif" font-size="10.00">string</text>
</g>
<!-- Node2&#45;&gt;Node3 -->
<g id="edge3" class="edge"><title>Node2&#45;&gt;Node3</title>
<path fill="none" stroke="midnightblue" d="M463.352,-168.324C480.672,-159.664 507.515,-146.242 527.502,-136.249"/>
<polygon fill="midnightblue" stroke="midnightblue" points="529.312,-139.257 536.691,-131.655 526.181,-132.996 529.312,-139.257"/>
</g>
<!-- Node4 -->
<g id="node5" class="node"><title>Node4</title>
<polygon fill="white" stroke="#bfbfbf" points="594,-112.5 594,-131.5 624,-131.5 624,-112.5 594,-112.5"/>
<text text-anchor="middle" x="609" y="-119.5" font-family="Helvetica,sans-Serif" font-size="10.00">list</text>
</g>
<!-- Node2&#45;&gt;Node4 -->
<g id="edge4" class="edge"><title>Node2&#45;&gt;Node4</title>
<path fill="none" stroke="midnightblue" d="M473.553,-168.488C499.764,-160.302 540.507,-147.347 584.153,-132.19"/>
<polygon fill="midnightblue" stroke="midnightblue" points="585.516,-135.421 593.803,-128.818 583.208,-128.812 585.516,-135.421"/>
</g>
<!-- Node2&#45;&gt;Node5 -->
<g id="edge5" class="edge"><title>Node2&#45;&gt;Node5</title>
<path fill="none" stroke="midnightblue" d="M379.868,-174.082C307.275,-169.58 196.787,-158.49 165,-132 151.37,-120.642 145.813,-100.647 143.55,-85.8234"/>
<polygon fill="midnightblue" stroke="midnightblue" points="147.008,-85.2565 142.382,-75.7248 140.054,-86.0607 147.008,-85.2565"/>
</g>
<!-- Node6 -->
<g id="node7" class="node"><title>Node6</title>
<polygon fill="white" stroke="#bfbfbf" points="299.5,-112.5 299.5,-131.5 356.5,-131.5 356.5,-112.5 299.5,-112.5"/>
<text text-anchor="middle" x="328" y="-119.5" font-family="Helvetica,sans-Serif" font-size="10.00">memory</text>
</g>
<!-- Node2&#45;&gt;Node6 -->
<g id="edge6" class="edge"><title>Node2&#45;&gt;Node6</title>
<path fill="none" stroke="midnightblue" d="M427.303,-168.444C408.056,-159.636 377.848,-145.812 355.8,-135.722"/>
<polygon fill="midnightblue" stroke="midnightblue" points="357.16,-132.495 346.61,-131.516 354.247,-138.86 357.16,-132.495"/>
</g>
<!-- Node7 -->
<g id="node8" class="node"><title>Node7</title>
<polygon fill="white" stroke="#bfbfbf" points="374.5,-112.5 374.5,-131.5 437.5,-131.5 437.5,-112.5 374.5,-112.5"/>
<text text-anchor="middle" x="406" y="-119.5" font-family="Helvetica,sans-Serif" font-size="10.00">functional</text>
</g>
<!-- Node2&#45;&gt;Node7 -->
<g id="edge7" class="edge"><title>Node2&#45;&gt;Node7</title>
<path fill="none" stroke="midnightblue" d="M439.395,-168.083C433.745,-160.455 425.455,-149.264 418.549,-139.941"/>
<polygon fill="midnightblue" stroke="midnightblue" points="421.247,-137.703 412.482,-131.751 415.622,-141.87 421.247,-137.703"/>
</g>
<!-- Node8 -->
<g id="node9" class="node"><title>Node8</title>
<g id="a_node9"><a xlink:href="_bin_settings_8h.html" target="_top" xlink:title="base/BinSettings.h">
<polygon fill="white" stroke="black" points="174.5,-112.5 174.5,-131.5 281.5,-131.5 281.5,-112.5 174.5,-112.5"/>
<text text-anchor="middle" x="228" y="-119.5" font-family="Helvetica,sans-Serif" font-size="10.00">base/BinSettings.h</text>
</a>
</g>
</g>
<!-- Node2&#45;&gt;Node8 -->
<g id="edge8" class="edge"><title>Node2&#45;&gt;Node8</title>
<path fill="none" stroke="midnightblue" d="M411.457,-168.444C373.747,-159.102 313.26,-144.119 272.135,-133.933"/>
<polygon fill="midnightblue" stroke="midnightblue" points="272.929,-130.524 262.381,-131.516 271.246,-137.318 272.929,-130.524"/>
</g>
<!-- Node18 -->
<g id="node19" class="node"><title>Node18</title>
<polygon fill="white" stroke="#bfbfbf" points="456,-112.5 456,-131.5 514,-131.5 514,-112.5 456,-112.5"/>
<text text-anchor="middle" x="485" y="-119.5" font-family="Helvetica,sans-Serif" font-size="10.00">Rtypes.h</text>
</g>
<!-- Node2&#45;&gt;Node18 -->
<g id="edge21" class="edge"><title>Node2&#45;&gt;Node18</title>
<path fill="none" stroke="midnightblue" d="M452.44,-168.083C457.949,-160.455 466.031,-149.264 472.765,-139.941"/>
<polygon fill="midnightblue" stroke="midnightblue" points="475.662,-141.907 478.68,-131.751 469.987,-137.809 475.662,-141.907"/>
</g>
<!-- Node8&#45;&gt;Node5 -->
<g id="edge17" class="edge"><title>Node8&#45;&gt;Node5</title>
<path fill="none" stroke="midnightblue" d="M214.183,-112.324C200.767,-103.9 180.176,-90.9709 164.414,-81.0741"/>
<polygon fill="midnightblue" stroke="midnightblue" points="166.113,-78.0081 155.783,-75.6545 162.391,-83.9364 166.113,-78.0081"/>
</g>
<!-- Node9 -->
<g id="node10" class="node"><title>Node9</title>
<g id="a_node10"><a xlink:href="interval_8h.html" target="_top" xlink:title="base/interval.h">
<polygon fill="white" stroke="black" points="342.5,-56.5 342.5,-75.5 429.5,-75.5 429.5,-56.5 342.5,-56.5"/>
<text text-anchor="middle" x="386" y="-63.5" font-family="Helvetica,sans-Serif" font-size="10.00">base/interval.h</text>
</a>
</g>
</g>
<!-- Node8&#45;&gt;Node9 -->
<g id="edge9" class="edge"><title>Node8&#45;&gt;Node9</title>
<path fill="none" stroke="midnightblue" d="M253.036,-112.444C279.616,-103.359 321.809,-88.9388 351.523,-78.7831"/>
<polygon fill="midnightblue" stroke="midnightblue" points="352.751,-82.0625 361.082,-75.5164 350.487,-75.4386 352.751,-82.0625"/>
</g>
<!-- Node12 -->
<g id="node13" class="node"><title>Node12</title>
<polygon fill="white" stroke="#bfbfbf" points="155,-0.5 155,-19.5 219,-19.5 219,-0.5 155,-0.5"/>
<text text-anchor="middle" x="187" y="-7.5" font-family="Helvetica,sans-Serif" font-size="10.00">stdexcept</text>
</g>
<!-- Node8&#45;&gt;Node12 -->
<g id="edge18" class="edge"><title>Node8&#45;&gt;Node12</title>
<path fill="none" stroke="midnightblue" d="M224.783,-112.368C218.136,-94.5366 202.765,-53.2953 193.81,-29.2717"/>
<polygon fill="midnightblue" stroke="midnightblue" points="196.974,-27.7393 190.202,-19.5914 190.415,-30.1841 196.974,-27.7393"/>
</g>
<!-- Node14 -->
<g id="node15" class="node"><title>Node14</title>
<polygon fill="white" stroke="#bfbfbf" points="237.5,-0.5 237.5,-19.5 290.5,-19.5 290.5,-0.5 237.5,-0.5"/>
<text text-anchor="middle" x="264" y="-7.5" font-family="Helvetica,sans-Serif" font-size="10.00">istream</text>
</g>
<!-- Node8&#45;&gt;Node14 -->
<g id="edge19" class="edge"><title>Node8&#45;&gt;Node14</title>
<path fill="none" stroke="midnightblue" d="M230.825,-112.368C236.661,-94.5366 250.158,-53.2953 258.02,-29.2717"/>
<polygon fill="midnightblue" stroke="midnightblue" points="261.404,-30.1841 261.188,-19.5914 254.751,-28.0067 261.404,-30.1841"/>
</g>
<!-- Node17 -->
<g id="node18" class="node"><title>Node17</title>
<polygon fill="white" stroke="#bfbfbf" points="260.5,-56.5 260.5,-75.5 317.5,-75.5 317.5,-56.5 260.5,-56.5"/>
<text text-anchor="middle" x="289" y="-63.5" font-family="Helvetica,sans-Serif" font-size="10.00">ostream</text>
</g>
<!-- Node8&#45;&gt;Node17 -->
<g id="edge20" class="edge"><title>Node8&#45;&gt;Node17</title>
<path fill="none" stroke="midnightblue" d="M237.801,-112.324C246.818,-104.341 260.406,-92.3128 271.318,-82.6529"/>
<polygon fill="midnightblue" stroke="midnightblue" points="273.853,-85.083 279.021,-75.8339 269.213,-79.8416 273.853,-85.083"/>
</g>
<!-- Node10 -->
<g id="node11" class="node"><title>Node10</title>
<g id="a_node11"><a xlink:href="types_8h.html" target="_top" xlink:title="types.h">
<polygon fill="white" stroke="black" points="374,-0.5 374,-19.5 426,-19.5 426,-0.5 374,-0.5"/>
<text text-anchor="middle" x="400" y="-7.5" font-family="Helvetica,sans-Serif" font-size="10.00">types.h</text>
</a>
</g>
</g>
<!-- Node9&#45;&gt;Node10 -->
<g id="edge10" class="edge"><title>Node9&#45;&gt;Node10</title>
<path fill="none" stroke="midnightblue" d="M388.312,-56.083C390.167,-48.9272 392.835,-38.6353 395.154,-29.6911"/>
<polygon fill="midnightblue" stroke="midnightblue" points="398.609,-30.3094 397.731,-19.7511 391.834,-28.5527 398.609,-30.3094"/>
</g>
<!-- Node11 -->
<g id="node12" class="node"><title>Node11</title>
<polygon fill="white" stroke="#bfbfbf" points="444,-0.5 444,-19.5 506,-19.5 506,-0.5 444,-0.5"/>
<text text-anchor="middle" x="475" y="-7.5" font-family="Helvetica,sans-Serif" font-size="10.00">algorithm</text>
</g>
<!-- Node9&#45;&gt;Node11 -->
<g id="edge11" class="edge"><title>Node9&#45;&gt;Node11</title>
<path fill="none" stroke="midnightblue" d="M400.299,-56.324C414.183,-47.9002 435.492,-34.9709 451.804,-25.0741"/>
<polygon fill="midnightblue" stroke="midnightblue" points="454.002,-27.8341 460.736,-19.6545 450.371,-21.8495 454.002,-27.8341"/>
</g>
<!-- Node9&#45;&gt;Node12 -->
<g id="edge12" class="edge"><title>Node9&#45;&gt;Node12</title>
<path fill="none" stroke="midnightblue" d="M354.468,-56.4435C320.408,-47.2011 265.994,-32.4356 228.485,-22.2572"/>
<polygon fill="midnightblue" stroke="midnightblue" points="228.952,-18.7575 218.385,-19.5164 227.119,-25.5132 228.952,-18.7575"/>
</g>
<!-- Node9&#45;&gt;Node13 -->
<g id="edge13" class="edge"><title>Node9&#45;&gt;Node13</title>
<path fill="none" stroke="midnightblue" d="M425.772,-56.4435C475.787,-45.6834 560.598,-27.4372 606.049,-17.6587"/>
<polygon fill="midnightblue" stroke="midnightblue" points="606.879,-21.0604 615.919,-15.5354 605.406,-14.217 606.879,-21.0604"/>
</g>
<!-- Node9&#45;&gt;Node14 -->
<g id="edge14" class="edge"><title>Node9&#45;&gt;Node14</title>
<path fill="none" stroke="midnightblue" d="M366.669,-56.4435C346.68,-47.5961 315.257,-33.6875 292.436,-23.5865"/>
<polygon fill="midnightblue" stroke="midnightblue" points="293.802,-20.3635 283.241,-19.5164 290.968,-26.7645 293.802,-20.3635"/>
</g>
<!-- Node15 -->
<g id="node16" class="node"><title>Node15</title>
<polygon fill="white" stroke="#bfbfbf" points="524,-0.5 524,-19.5 580,-19.5 580,-0.5 524,-0.5"/>
<text text-anchor="middle" x="552" y="-7.5" font-family="Helvetica,sans-Serif" font-size="10.00">sstream</text>
</g>
<!-- Node9&#45;&gt;Node15 -->
<g id="edge15" class="edge"><title>Node9&#45;&gt;Node15</title>
<path fill="none" stroke="midnightblue" d="M412.303,-56.4435C440.351,-47.3196 484.944,-32.8133 516.184,-22.6509"/>
<polygon fill="midnightblue" stroke="midnightblue" points="517.393,-25.9383 525.82,-19.5164 515.228,-19.2816 517.393,-25.9383"/>
</g>
<!-- Node16 -->
<g id="node17" class="node"><title>Node16</title>
<polygon fill="white" stroke="#bfbfbf" points="308.5,-0.5 308.5,-19.5 355.5,-19.5 355.5,-0.5 308.5,-0.5"/>
<text text-anchor="middle" x="332" y="-7.5" font-family="Helvetica,sans-Serif" font-size="10.00">cmath</text>
</g>
<!-- Node9&#45;&gt;Node16 -->
<g id="edge16" class="edge"><title>Node9&#45;&gt;Node16</title>
<path fill="none" stroke="midnightblue" d="M377.083,-56.083C369.22,-48.2195 357.569,-36.5688 348.081,-27.0813"/>
<polygon fill="midnightblue" stroke="midnightblue" points="350.297,-24.3473 340.751,-19.7511 345.347,-29.2971 350.297,-24.3473"/>
</g>
</g>
</svg>
