<?xml version="1.0" encoding="UTF-8" standalone="no"?>
<!DOCTYPE svg PUBLIC "-//W3C//DTD SVG 1.1//EN"
 "http://www.w3.org/Graphics/SVG/1.1/DTD/svg11.dtd">
<!-- Generated by graphviz version 2.38.0 (20140413.2041)
 -->
<!-- Title: src/base/PlotExt.h Pages: 1 -->
<svg width="1517pt" height="95pt"
 viewBox="0.00 0.00 1516.50 95.00" xmlns="http://www.w3.org/2000/svg" xmlns:xlink="http://www.w3.org/1999/xlink">
<g id="graph0" class="graph" transform="scale(1 1) rotate(0) translate(4 91)">
<title>src/base/PlotExt.h</title>
<polygon fill="white" stroke="none" points="-4,4 -4,-91 1512.5,-91 1512.5,4 -4,4"/>
<!-- Node10 -->
<g id="node1" class="node"><title>Node10</title>
<polygon fill="#bfbfbf" stroke="black" points="735.5,-67.5 735.5,-86.5 837.5,-86.5 837.5,-67.5 735.5,-67.5"/>
<text text-anchor="middle" x="786.5" y="-74.5" font-family="Helvetica,sans-Serif" font-size="10.00">src/base/PlotExt.h</text>
</g>
<!-- Node11 -->
<g id="node2" class="node"><title>Node11</title>
<g id="a_node2"><a xlink:href="_ant-make_lin_pol_8cc.html" target="_top" xlink:title="progs/Ant&#45;makeLinPol.cc">
<polygon fill="white" stroke="black" points="0,-6 0,-25 135,-25 135,-6 0,-6"/>
<text text-anchor="middle" x="67.5" y="-13" font-family="Helvetica,sans-Serif" font-size="10.00">progs/Ant&#45;makeLinPol.cc</text>
</a>
</g>
</g>
<!-- Node10&#45;&gt;Node11 -->
<g id="edge1" class="edge"><title>Node10&#45;&gt;Node11</title>
<path fill="none" stroke="midnightblue" d="M725.123,-74.129C610.448,-70.0961 356.035,-58.6128 143.5,-31 131.778,-29.4771 119.134,-27.2878 107.588,-25.0702"/>
<polygon fill="midnightblue" stroke="midnightblue" points="725.335,-77.6382 735.449,-74.4852 725.576,-70.6424 725.335,-77.6382"/>
</g>
<!-- Node12 -->
<g id="node3" class="node"><title>Node12</title>
<g id="a_node3"><a xlink:href="_ant-make_tagg_eff_8cc.html" target="_top" xlink:title="progs/Ant&#45;makeTaggEff.cc">
<polygon fill="white" stroke="black" points="153,-6 153,-25 294,-25 294,-6 153,-6"/>
<text text-anchor="middle" x="223.5" y="-13" font-family="Helvetica,sans-Serif" font-size="10.00">progs/Ant&#45;makeTaggEff.cc</text>
</a>
</g>
</g>
<!-- Node10&#45;&gt;Node12 -->
<g id="edge2" class="edge"><title>Node10&#45;&gt;Node12</title>
<path fill="none" stroke="midnightblue" d="M725.212,-72.0545C633.154,-65.7322 453.832,-51.8811 302.5,-31 290.62,-29.3608 277.807,-27.1866 266.028,-25.0218"/>
<polygon fill="midnightblue" stroke="midnightblue" points="725.246,-75.5647 735.461,-72.7518 725.721,-68.5809 725.246,-75.5647"/>
</g>
<!-- Node13 -->
<g id="node4" class="node"><title>Node13</title>
<g id="a_node4"><a xlink:href="_ant-smooth_tagg_eff_8cc.html" target="_top" xlink:title="progs/Ant&#45;smoothTaggEff.cc">
<polygon fill="white" stroke="black" points="312,-6 312,-25 463,-25 463,-6 312,-6"/>
<text text-anchor="middle" x="387.5" y="-13" font-family="Helvetica,sans-Serif" font-size="10.00">progs/Ant&#45;smoothTaggEff.cc</text>
</a>
</g>
</g>
<!-- Node10&#45;&gt;Node13 -->
<g id="edge3" class="edge"><title>Node10&#45;&gt;Node13</title>
<path fill="none" stroke="midnightblue" d="M725.098,-67.6926C661.748,-59.0062 560.111,-44.7481 472.5,-31 460.669,-29.1434 447.931,-27.0312 436.009,-25.0044"/>
<polygon fill="midnightblue" stroke="midnightblue" points="724.931,-71.2023 735.313,-69.0905 725.88,-64.2669 724.931,-71.2023"/>
</g>
<!-- Node14 -->
<g id="node5" class="node"><title>Node14</title>
<g id="a_node5"><a xlink:href="tagg_eff_classes_8cc.html" target="_top" xlink:title="progs/detail/taggEffClasses.cc">
<polygon fill="white" stroke="black" points="481.5,-6 481.5,-25 641.5,-25 641.5,-6 481.5,-6"/>
<text text-anchor="middle" x="561.5" y="-13" font-family="Helvetica,sans-Serif" font-size="10.00">progs/detail/taggEffClasses.cc</text>
</a>
</g>
</g>
<!-- Node10&#45;&gt;Node14 -->
<g id="edge4" class="edge"><title>Node10&#45;&gt;Node14</title>
<path fill="none" stroke="midnightblue" d="M744.508,-64.8956C700.809,-53.3396 633.331,-35.4952 593.677,-25.0091"/>
<polygon fill="midnightblue" stroke="midnightblue" points="743.7,-68.3022 754.263,-67.4751 745.49,-61.5348 743.7,-68.3022"/>
</g>
<!-- Node15 -->
<g id="node6" class="node"><title>Node15</title>
<g id="a_node6"><a xlink:href="_t_p_c_sim__tools_8cc.html" target="_top" xlink:title="progs/detail/TPCSim\l_tools.cc">
<polygon fill="white" stroke="black" points="660,-0.5 660,-30.5 773,-30.5 773,-0.5 660,-0.5"/>
<text text-anchor="start" x="668" y="-18.5" font-family="Helvetica,sans-Serif" font-size="10.00">progs/detail/TPCSim</text>
<text text-anchor="middle" x="716.5" y="-7.5" font-family="Helvetica,sans-Serif" font-size="10.00">_tools.cc</text>
</a>
</g>
</g>
<!-- Node10&#45;&gt;Node15 -->
<g id="edge5" class="edge"><title>Node10&#45;&gt;Node15</title>
<path fill="none" stroke="midnightblue" d="M768.761,-60.9215C757.769,-51.579 743.749,-39.6616 732.998,-30.523"/>
<polygon fill="midnightblue" stroke="midnightblue" points="766.585,-63.6654 776.471,-67.4751 771.118,-58.3318 766.585,-63.6654"/>
</g>
<!-- Node16 -->
<g id="node7" class="node"><title>Node16</title>
<g id="a_node7"><a xlink:href="tagger_energies_8cc.html" target="_top" xlink:title="progs/taggerEnergies.cc">
<polygon fill="white" stroke="black" points="791,-6 791,-25 924,-25 924,-6 791,-6"/>
<text text-anchor="middle" x="857.5" y="-13" font-family="Helvetica,sans-Serif" font-size="10.00">progs/taggerEnergies.cc</text>
</a>
</g>
</g>
<!-- Node10&#45;&gt;Node16 -->
<g id="edge6" class="edge"><title>Node10&#45;&gt;Node16</title>
<path fill="none" stroke="midnightblue" d="M804.432,-60.9727C818.011,-49.5925 836.177,-34.3694 847.346,-25.0091"/>
<polygon fill="midnightblue" stroke="midnightblue" points="802.089,-58.3694 796.673,-67.4751 806.585,-63.7346 802.089,-58.3694"/>
</g>
<!-- Node17 -->
<g id="node8" class="node"><title>Node17</title>
<g id="a_node8"><a xlink:href="_photon_flux_8cc.html" target="_top" xlink:title="src/analysis/physics\l/common/PhotonFlux.cc">
<polygon fill="white" stroke="black" points="942,-0.5 942,-30.5 1073,-30.5 1073,-0.5 942,-0.5"/>
<text text-anchor="start" x="950" y="-18.5" font-family="Helvetica,sans-Serif" font-size="10.00">src/analysis/physics</text>
<text text-anchor="middle" x="1007.5" y="-7.5" font-family="Helvetica,sans-Serif" font-size="10.00">/common/PhotonFlux.cc</text>
</a>
</g>
</g>
<!-- Node10&#45;&gt;Node17 -->
<g id="edge7" class="edge"><title>Node10&#45;&gt;Node17</title>
<path fill="none" stroke="midnightblue" d="M827.881,-64.859C863.964,-55.1442 916.48,-41.0055 955.415,-30.523"/>
<polygon fill="midnightblue" stroke="midnightblue" points="826.91,-61.4956 818.164,-67.4751 828.73,-68.2549 826.91,-61.4956"/>
</g>
<!-- Node18 -->
<g id="node9" class="node"><title>Node18</title>
<g id="a_node9"><a xlink:href="_plot_ext_8cc.html" target="_top" xlink:title="src/base/PlotExt.cc">
<polygon fill="white" stroke="black" points="1091,-6 1091,-25 1198,-25 1198,-6 1091,-6"/>
<text text-anchor="middle" x="1144.5" y="-13" font-family="Helvetica,sans-Serif" font-size="10.00">src/base/PlotExt.cc</text>
</a>
</g>
</g>
<!-- Node10&#45;&gt;Node18 -->
<g id="edge8" class="edge"><title>Node10&#45;&gt;Node18</title>
<path fill="none" stroke="midnightblue" d="M847.58,-68.1471C907.6,-60.0936 1001.68,-46.5686 1082.5,-31 1091.51,-29.2644 1101.19,-27.1301 1110.17,-25.0379"/>
<polygon fill="midnightblue" stroke="midnightblue" points="846.964,-64.6981 837.515,-69.4892 847.89,-71.6367 846.964,-64.6981"/>
</g>
<!-- Node19 -->
<g id="node10" class="node"><title>Node19</title>
<g id="a_node10"><a xlink:href="calibration_2modules_2_time_8cc.html" target="_top" xlink:title="src/calibration/modules\l/Time.cc">
<polygon fill="white" stroke="black" points="1216.5,-0.5 1216.5,-30.5 1344.5,-30.5 1344.5,-0.5 1216.5,-0.5"/>
<text text-anchor="start" x="1224.5" y="-18.5" font-family="Helvetica,sans-Serif" font-size="10.00">src/calibration/modules</text>
<text text-anchor="middle" x="1280.5" y="-7.5" font-family="Helvetica,sans-Serif" font-size="10.00">/Time.cc</text>
</a>
</g>
</g>
<!-- Node10&#45;&gt;Node19 -->
<g id="edge9" class="edge"><title>Node10&#45;&gt;Node19</title>
<path fill="none" stroke="midnightblue" d="M847.72,-71.1879C929.857,-64.3367 1080.15,-50.4143 1207.5,-31 1210.44,-30.5521 1213.44,-30.0677 1216.46,-29.5569"/>
<polygon fill="midnightblue" stroke="midnightblue" points="847.239,-67.7156 837.562,-72.0281 847.816,-74.6918 847.239,-67.7156"/>
</g>
<!-- Node20 -->
<g id="node11" class="node"><title>Node20</title>
<g id="a_node11"><a xlink:href="root-addons_2analysis__codes_2_interpolated_pulls_8cc.html" target="_top" xlink:title="src/root&#45;addons/analysis\l_codes/InterpolatedPulls.cc">
<polygon fill="white" stroke="black" points="1362.5,-0.5 1362.5,-30.5 1508.5,-30.5 1508.5,-0.5 1362.5,-0.5"/>
<text text-anchor="start" x="1370.5" y="-18.5" font-family="Helvetica,sans-Serif" font-size="10.00">src/root&#45;addons/analysis</text>
<text text-anchor="middle" x="1435.5" y="-7.5" font-family="Helvetica,sans-Serif" font-size="10.00">_codes/InterpolatedPulls.cc</text>
</a>
</g>
</g>
<!-- Node10&#45;&gt;Node20 -->
<g id="edge10" class="edge"><title>Node10&#45;&gt;Node20</title>
<path fill="none" stroke="midnightblue" d="M847.911,-73.0585C952.167,-67.6331 1170.31,-54.4113 1353.5,-31 1356.37,-30.6335 1359.29,-30.2357 1362.24,-29.8138"/>
<polygon fill="midnightblue" stroke="midnightblue" points="847.688,-69.5653 837.881,-73.5747 848.047,-76.5561 847.688,-69.5653"/>
</g>
</g>
</svg>
