<?xml version="1.0" encoding="UTF-8" standalone="no"?>
<!DOCTYPE svg PUBLIC "-//W3C//DTD SVG 1.1//EN"
 "http://www.w3.org/Graphics/SVG/1.1/DTD/svg11.dtd">
<!-- Generated by graphviz version 2.38.0 (20140413.2041)
 -->
<!-- Title: src/mc/pluto/PlutoFactory.cc Pages: 1 -->
<svg width="1213pt" height="364pt"
 viewBox="0.00 0.00 1213.00 364.00" xmlns="http://www.w3.org/2000/svg" xmlns:xlink="http://www.w3.org/1999/xlink">
<g id="graph0" class="graph" transform="scale(1 1) rotate(0) translate(4 360)">
<title>src/mc/pluto/PlutoFactory.cc</title>
<polygon fill="white" stroke="none" points="-4,4 -4,-360 1209,-360 1209,4 -4,4"/>
<!-- Node0 -->
<g id="node1" class="node"><title>Node0</title>
<polygon fill="#bfbfbf" stroke="black" points="633.5,-336.5 633.5,-355.5 782.5,-355.5 782.5,-336.5 633.5,-336.5"/>
<text text-anchor="middle" x="708" y="-343.5" font-family="Helvetica,sans-Serif" font-size="10.00">src/mc/pluto/PlutoFactory.cc</text>
</g>
<!-- Node1 -->
<g id="node2" class="node"><title>Node1</title>
<g id="a_node2"><a xlink:href="_pluto_factory_8h.html" target="_top" xlink:title="PlutoFactory.h">
<polygon fill="white" stroke="black" points="433.5,-280.5 433.5,-299.5 516.5,-299.5 516.5,-280.5 433.5,-280.5"/>
<text text-anchor="middle" x="475" y="-287.5" font-family="Helvetica,sans-Serif" font-size="10.00">PlutoFactory.h</text>
</a>
</g>
</g>
<!-- Node0&#45;&gt;Node1 -->
<g id="edge1" class="edge"><title>Node0&#45;&gt;Node1</title>
<path fill="none" stroke="midnightblue" d="M671.08,-336.444C630.605,-327.063 565.579,-311.993 521.616,-301.804"/>
<polygon fill="midnightblue" stroke="midnightblue" points="522.279,-298.365 511.747,-299.516 520.698,-305.184 522.279,-298.365"/>
</g>
<!-- Node28 -->
<g id="node29" class="node"><title>Node28</title>
<g id="a_node29"><a xlink:href="_query_8h.html" target="_top" xlink:title="mc/database/Query.h">
<polygon fill="white" stroke="black" points="534.5,-280.5 534.5,-299.5 653.5,-299.5 653.5,-280.5 534.5,-280.5"/>
<text text-anchor="middle" x="594" y="-287.5" font-family="Helvetica,sans-Serif" font-size="10.00">mc/database/Query.h</text>
</a>
</g>
</g>
<!-- Node0&#45;&gt;Node28 -->
<g id="edge32" class="edge"><title>Node0&#45;&gt;Node28</title>
<path fill="none" stroke="midnightblue" d="M689.936,-336.444C671.425,-327.675 642.419,-313.935 621.145,-303.858"/>
<polygon fill="midnightblue" stroke="midnightblue" points="622.515,-300.634 611.979,-299.516 619.518,-306.96 622.515,-300.634"/>
</g>
<!-- Node31 -->
<g id="node32" class="node"><title>Node31</title>
<polygon fill="white" stroke="#bfbfbf" points="672,-280.5 672,-299.5 744,-299.5 744,-280.5 672,-280.5"/>
<text text-anchor="middle" x="708" y="-287.5" font-family="Helvetica,sans-Serif" font-size="10.00">PReaction.h</text>
</g>
<!-- Node0&#45;&gt;Node31 -->
<g id="edge38" class="edge"><title>Node0&#45;&gt;Node31</title>
<path fill="none" stroke="midnightblue" d="M708,-336.083C708,-329.006 708,-318.861 708,-309.986"/>
<polygon fill="midnightblue" stroke="midnightblue" points="711.5,-309.751 708,-299.751 704.5,-309.751 711.5,-309.751"/>
</g>
<!-- Node32 -->
<g id="node33" class="node"><title>Node32</title>
<g id="a_node33"><a xlink:href="_logger_8h.html" target="_top" xlink:title="base/Logger.h">
<polygon fill="white" stroke="black" points="762,-280.5 762,-299.5 846,-299.5 846,-280.5 762,-280.5"/>
<text text-anchor="middle" x="804" y="-287.5" font-family="Helvetica,sans-Serif" font-size="10.00">base/Logger.h</text>
</a>
</g>
</g>
<!-- Node0&#45;&gt;Node32 -->
<g id="edge39" class="edge"><title>Node0&#45;&gt;Node32</title>
<path fill="none" stroke="midnightblue" d="M723.424,-336.324C738.54,-327.822 761.815,-314.729 779.471,-304.797"/>
<polygon fill="midnightblue" stroke="midnightblue" points="781.614,-307.608 788.614,-299.655 778.183,-301.507 781.614,-307.608"/>
</g>
<!-- Node34 -->
<g id="node35" class="node"><title>Node34</title>
<polygon fill="white" stroke="#bfbfbf" points="864,-280.5 864,-299.5 914,-299.5 914,-280.5 864,-280.5"/>
<text text-anchor="middle" x="889" y="-287.5" font-family="Helvetica,sans-Serif" font-size="10.00">TTree.h</text>
</g>
<!-- Node0&#45;&gt;Node34 -->
<g id="edge41" class="edge"><title>Node0&#45;&gt;Node34</title>
<path fill="none" stroke="midnightblue" d="M736.68,-336.444C768.478,-326.957 819.782,-311.651 853.941,-301.46"/>
<polygon fill="midnightblue" stroke="midnightblue" points="855.37,-304.686 863.952,-298.473 853.368,-297.978 855.37,-304.686"/>
</g>
<!-- Node2 -->
<g id="node3" class="node"><title>Node2</title>
<g id="a_node3"><a xlink:href="_particle_type_tree_8h.html" target="_top" xlink:title="base/ParticleTypeTree.h">
<polygon fill="white" stroke="black" points="393.5,-168.5 393.5,-187.5 520.5,-187.5 520.5,-168.5 393.5,-168.5"/>
<text text-anchor="middle" x="457" y="-175.5" font-family="Helvetica,sans-Serif" font-size="10.00">base/ParticleTypeTree.h</text>
</a>
</g>
</g>
<!-- Node1&#45;&gt;Node2 -->
<g id="edge2" class="edge"><title>Node1&#45;&gt;Node2</title>
<path fill="none" stroke="midnightblue" d="M473.588,-280.368C470.683,-262.617 463.982,-221.666 460.043,-197.597"/>
<polygon fill="midnightblue" stroke="midnightblue" points="463.475,-196.895 458.406,-187.591 456.567,-198.025 463.475,-196.895"/>
</g>
<!-- Node27 -->
<g id="node28" class="node"><title>Node27</title>
<polygon fill="white" stroke="#bfbfbf" points="479,-224.5 479,-243.5 521,-243.5 521,-224.5 479,-224.5"/>
<text text-anchor="middle" x="500" y="-231.5" font-family="Helvetica,sans-Serif" font-size="10.00">TF1.h</text>
</g>
<!-- Node1&#45;&gt;Node27 -->
<g id="edge31" class="edge"><title>Node1&#45;&gt;Node27</title>
<path fill="none" stroke="midnightblue" d="M479.128,-280.083C482.514,-272.77 487.416,-262.181 491.619,-253.103"/>
<polygon fill="midnightblue" stroke="midnightblue" points="494.923,-254.296 495.949,-243.751 488.571,-251.355 494.923,-254.296"/>
</g>
<!-- Node3 -->
<g id="node4" class="node"><title>Node3</title>
<g id="a_node4"><a xlink:href="_particle_type_8h.html" target="_top" xlink:title="ParticleType.h">
<polygon fill="white" stroke="black" points="330.5,-112.5 330.5,-131.5 411.5,-131.5 411.5,-112.5 330.5,-112.5"/>
<text text-anchor="middle" x="371" y="-119.5" font-family="Helvetica,sans-Serif" font-size="10.00">ParticleType.h</text>
</a>
</g>
</g>
<!-- Node2&#45;&gt;Node3 -->
<g id="edge3" class="edge"><title>Node2&#45;&gt;Node3</title>
<path fill="none" stroke="midnightblue" d="M443.183,-168.324C429.767,-159.9 409.176,-146.971 393.414,-137.074"/>
<polygon fill="midnightblue" stroke="midnightblue" points="395.113,-134.008 384.783,-131.655 391.391,-139.936 395.113,-134.008"/>
</g>
<!-- Node14 -->
<g id="node15" class="node"><title>Node14</title>
<polygon fill="white" stroke="#bfbfbf" points="469,-56.5 469,-75.5 507,-75.5 507,-56.5 469,-56.5"/>
<text text-anchor="middle" x="488" y="-63.5" font-family="Helvetica,sans-Serif" font-size="10.00">map</text>
</g>
<!-- Node2&#45;&gt;Node14 -->
<g id="edge30" class="edge"><title>Node2&#45;&gt;Node14</title>
<path fill="none" stroke="midnightblue" d="M459.433,-168.368C464.458,-150.537 476.08,-109.295 482.851,-85.2717"/>
<polygon fill="midnightblue" stroke="midnightblue" points="486.235,-86.1659 485.579,-75.5914 479.497,-84.2671 486.235,-86.1659"/>
</g>
<!-- Node17 -->
<g id="node18" class="node"><title>Node17</title>
<g id="a_node18"><a xlink:href="_tree_8h.html" target="_top" xlink:title="Tree.h">
<polygon fill="white" stroke="black" points="826.5,-112.5 826.5,-131.5 871.5,-131.5 871.5,-112.5 826.5,-112.5"/>
<text text-anchor="middle" x="849" y="-119.5" font-family="Helvetica,sans-Serif" font-size="10.00">Tree.h</text>
</a>
</g>
</g>
<!-- Node2&#45;&gt;Node17 -->
<g id="edge18" class="edge"><title>Node2&#45;&gt;Node17</title>
<path fill="none" stroke="midnightblue" d="M519.114,-168.444C603.368,-156.837 750.85,-136.521 816.214,-127.516"/>
<polygon fill="midnightblue" stroke="midnightblue" points="816.913,-130.953 826.342,-126.121 815.958,-124.019 816.913,-130.953"/>
</g>
<!-- Node4 -->
<g id="node5" class="node"><title>Node4</title>
<g id="a_node5"><a xlink:href="types_8h.html" target="_top" xlink:title="base/types.h">
<polygon fill="white" stroke="black" points="0,-0.5 0,-19.5 78,-19.5 78,-0.5 0,-0.5"/>
<text text-anchor="middle" x="39" y="-7.5" font-family="Helvetica,sans-Serif" font-size="10.00">base/types.h</text>
</a>
</g>
</g>
<!-- Node3&#45;&gt;Node4 -->
<g id="edge4" class="edge"><title>Node3&#45;&gt;Node4</title>
<path fill="none" stroke="midnightblue" d="M330.387,-117.177C284.388,-111.877 207.799,-100.087 146,-76 113.188,-63.2111 79.0488,-40.5736 58.406,-25.6768"/>
<polygon fill="midnightblue" stroke="midnightblue" points="60.3071,-22.7304 50.1764,-19.6289 56.1618,-28.3711 60.3071,-22.7304"/>
</g>
<!-- Node5 -->
<g id="node6" class="node"><title>Node5</title>
<g id="a_node6"><a xlink:href="interval_8h.html" target="_top" xlink:title="base/interval.h">
<polygon fill="white" stroke="black" points="155.5,-56.5 155.5,-75.5 242.5,-75.5 242.5,-56.5 155.5,-56.5"/>
<text text-anchor="middle" x="199" y="-63.5" font-family="Helvetica,sans-Serif" font-size="10.00">base/interval.h</text>
</a>
</g>
</g>
<!-- Node3&#45;&gt;Node5 -->
<g id="edge5" class="edge"><title>Node3&#45;&gt;Node5</title>
<path fill="none" stroke="midnightblue" d="M343.746,-112.444C314.559,-103.28 268.079,-88.6876 235.691,-78.5192"/>
<polygon fill="midnightblue" stroke="midnightblue" points="236.716,-75.1726 226.126,-75.5164 234.619,-81.8512 236.716,-75.1726"/>
</g>
<!-- Node12 -->
<g id="node13" class="node"><title>Node12</title>
<polygon fill="white" stroke="#bfbfbf" points="261,-56.5 261,-75.5 305,-75.5 305,-56.5 261,-56.5"/>
<text text-anchor="middle" x="283" y="-63.5" font-family="Helvetica,sans-Serif" font-size="10.00">string</text>
</g>
<!-- Node3&#45;&gt;Node12 -->
<g id="edge13" class="edge"><title>Node3&#45;&gt;Node12</title>
<path fill="none" stroke="midnightblue" d="M356.861,-112.324C343.134,-103.9 322.064,-90.9709 305.936,-81.0741"/>
<polygon fill="midnightblue" stroke="midnightblue" points="307.457,-77.9016 297.104,-75.6545 303.796,-83.8678 307.457,-77.9016"/>
</g>
<!-- Node13 -->
<g id="node14" class="node"><title>Node13</title>
<polygon fill="white" stroke="#bfbfbf" points="323.5,-56.5 323.5,-75.5 380.5,-75.5 380.5,-56.5 323.5,-56.5"/>
<text text-anchor="middle" x="352" y="-63.5" font-family="Helvetica,sans-Serif" font-size="10.00">ostream</text>
</g>
<!-- Node3&#45;&gt;Node13 -->
<g id="edge14" class="edge"><title>Node3&#45;&gt;Node13</title>
<path fill="none" stroke="midnightblue" d="M367.863,-112.083C365.317,-104.849 361.644,-94.4087 358.473,-85.3968"/>
<polygon fill="midnightblue" stroke="midnightblue" points="361.7,-84.0225 355.079,-75.7511 355.097,-86.3459 361.7,-84.0225"/>
</g>
<!-- Node3&#45;&gt;Node14 -->
<g id="edge15" class="edge"><title>Node3&#45;&gt;Node14</title>
<path fill="none" stroke="midnightblue" d="M389.539,-112.444C408.623,-103.636 438.575,-89.8116 460.436,-79.722"/>
<polygon fill="midnightblue" stroke="midnightblue" points="461.935,-82.8849 469.548,-75.5164 459.001,-76.5292 461.935,-82.8849"/>
</g>
<!-- Node15 -->
<g id="node16" class="node"><title>Node15</title>
<polygon fill="white" stroke="#bfbfbf" points="399,-56.5 399,-75.5 451,-75.5 451,-56.5 399,-56.5"/>
<text text-anchor="middle" x="425" y="-63.5" font-family="Helvetica,sans-Serif" font-size="10.00">iterator</text>
</g>
<!-- Node3&#45;&gt;Node15 -->
<g id="edge16" class="edge"><title>Node3&#45;&gt;Node15</title>
<path fill="none" stroke="midnightblue" d="M379.917,-112.083C387.78,-104.22 399.431,-92.5688 408.919,-83.0813"/>
<polygon fill="midnightblue" stroke="midnightblue" points="411.653,-85.2971 416.249,-75.7511 406.703,-80.3473 411.653,-85.2971"/>
</g>
<!-- Node16 -->
<g id="node17" class="node"><title>Node16</title>
<polygon fill="white" stroke="#bfbfbf" points="525.5,-56.5 525.5,-75.5 572.5,-75.5 572.5,-56.5 525.5,-56.5"/>
<text text-anchor="middle" x="549" y="-63.5" font-family="Helvetica,sans-Serif" font-size="10.00">vector</text>
</g>
<!-- Node3&#45;&gt;Node16 -->
<g id="edge17" class="edge"><title>Node3&#45;&gt;Node16</title>
<path fill="none" stroke="midnightblue" d="M399.205,-112.444C430.831,-102.849 482.078,-87.3021 515.661,-77.1141"/>
<polygon fill="midnightblue" stroke="midnightblue" points="516.922,-80.3892 525.475,-74.1368 514.889,-73.6907 516.922,-80.3892"/>
</g>
<!-- Node5&#45;&gt;Node4 -->
<g id="edge6" class="edge"><title>Node5&#45;&gt;Node4</title>
<path fill="none" stroke="midnightblue" d="M173.648,-56.4435C146.731,-47.3591 104.004,-32.9388 73.913,-22.7831"/>
<polygon fill="midnightblue" stroke="midnightblue" points="74.828,-19.3981 64.2339,-19.5164 72.5895,-26.0305 74.828,-19.3981"/>
</g>
<!-- Node6 -->
<g id="node7" class="node"><title>Node6</title>
<polygon fill="white" stroke="#bfbfbf" points="510,-0.5 510,-19.5 572,-19.5 572,-0.5 510,-0.5"/>
<text text-anchor="middle" x="541" y="-7.5" font-family="Helvetica,sans-Serif" font-size="10.00">algorithm</text>
</g>
<!-- Node5&#45;&gt;Node6 -->
<g id="edge7" class="edge"><title>Node5&#45;&gt;Node6</title>
<path fill="none" stroke="midnightblue" d="M242.665,-57.5364C245.823,-57.0115 248.96,-56.4948 252,-56 340.231,-41.6403 443.779,-25.7501 499.855,-17.2248"/>
<polygon fill="midnightblue" stroke="midnightblue" points="500.397,-20.6826 509.759,-15.7207 499.346,-13.762 500.397,-20.6826"/>
</g>
<!-- Node7 -->
<g id="node8" class="node"><title>Node7</title>
<polygon fill="white" stroke="#bfbfbf" points="96,-0.5 96,-19.5 160,-19.5 160,-0.5 96,-0.5"/>
<text text-anchor="middle" x="128" y="-7.5" font-family="Helvetica,sans-Serif" font-size="10.00">stdexcept</text>
</g>
<!-- Node5&#45;&gt;Node7 -->
<g id="edge8" class="edge"><title>Node5&#45;&gt;Node7</title>
<path fill="none" stroke="midnightblue" d="M187.593,-56.324C176.891,-48.1849 160.659,-35.8395 147.837,-26.0874"/>
<polygon fill="midnightblue" stroke="midnightblue" points="149.693,-23.1018 139.615,-19.8339 145.456,-28.6734 149.693,-23.1018"/>
</g>
<!-- Node8 -->
<g id="node9" class="node"><title>Node8</title>
<polygon fill="white" stroke="#bfbfbf" points="178,-0.5 178,-19.5 220,-19.5 220,-0.5 178,-0.5"/>
<text text-anchor="middle" x="199" y="-7.5" font-family="Helvetica,sans-Serif" font-size="10.00">limits</text>
</g>
<!-- Node5&#45;&gt;Node8 -->
<g id="edge9" class="edge"><title>Node5&#45;&gt;Node8</title>
<path fill="none" stroke="midnightblue" d="M199,-56.083C199,-49.0059 199,-38.8611 199,-29.9865"/>
<polygon fill="midnightblue" stroke="midnightblue" points="202.5,-29.751 199,-19.7511 195.5,-29.7511 202.5,-29.751"/>
</g>
<!-- Node9 -->
<g id="node10" class="node"><title>Node9</title>
<polygon fill="white" stroke="#bfbfbf" points="238.5,-0.5 238.5,-19.5 291.5,-19.5 291.5,-0.5 238.5,-0.5"/>
<text text-anchor="middle" x="265" y="-7.5" font-family="Helvetica,sans-Serif" font-size="10.00">istream</text>
</g>
<!-- Node5&#45;&gt;Node9 -->
<g id="edge10" class="edge"><title>Node5&#45;&gt;Node9</title>
<path fill="none" stroke="midnightblue" d="M209.604,-56.324C219.456,-48.2631 234.351,-36.0765 246.215,-26.3695"/>
<polygon fill="midnightblue" stroke="midnightblue" points="248.68,-28.8752 254.203,-19.8339 244.247,-23.4575 248.68,-28.8752"/>
</g>
<!-- Node10 -->
<g id="node11" class="node"><title>Node10</title>
<polygon fill="white" stroke="#bfbfbf" points="310,-0.5 310,-19.5 366,-19.5 366,-0.5 310,-0.5"/>
<text text-anchor="middle" x="338" y="-7.5" font-family="Helvetica,sans-Serif" font-size="10.00">sstream</text>
</g>
<!-- Node5&#45;&gt;Node10 -->
<g id="edge11" class="edge"><title>Node5&#45;&gt;Node10</title>
<path fill="none" stroke="midnightblue" d="M221.025,-56.4435C244.104,-47.4776 280.562,-33.314 306.641,-23.1827"/>
<polygon fill="midnightblue" stroke="midnightblue" points="308.024,-26.4002 316.078,-19.5164 305.489,-19.8753 308.024,-26.4002"/>
</g>
<!-- Node11 -->
<g id="node12" class="node"><title>Node11</title>
<polygon fill="white" stroke="#bfbfbf" points="384.5,-0.5 384.5,-19.5 431.5,-19.5 431.5,-0.5 384.5,-0.5"/>
<text text-anchor="middle" x="408" y="-7.5" font-family="Helvetica,sans-Serif" font-size="10.00">cmath</text>
</g>
<!-- Node5&#45;&gt;Node11 -->
<g id="edge12" class="edge"><title>Node5&#45;&gt;Node11</title>
<path fill="none" stroke="midnightblue" d="M233.111,-56.4497C266.588,-48.0203 319.35,-34.6351 374.301,-20.1537"/>
<polygon fill="midnightblue" stroke="midnightblue" points="375.444,-23.4719 384.219,-17.5343 373.657,-16.7039 375.444,-23.4719"/>
</g>
<!-- Node17&#45;&gt;Node6 -->
<g id="edge26" class="edge"><title>Node17&#45;&gt;Node6</title>
<path fill="none" stroke="midnightblue" d="M826.408,-120.198C783.983,-117.924 690.342,-109.224 620,-76 594.796,-64.0958 570.805,-42.3591 556.011,-27.319"/>
<polygon fill="midnightblue" stroke="midnightblue" points="558.227,-24.5719 548.79,-19.7574 553.165,-29.4065 558.227,-24.5719"/>
</g>
<!-- Node17&#45;&gt;Node16 -->
<g id="edge25" class="edge"><title>Node17&#45;&gt;Node16</title>
<path fill="none" stroke="midnightblue" d="M826.482,-117.618C781.039,-110.686 675.179,-93.9966 587,-76 585.547,-75.7034 584.065,-75.3918 582.569,-75.0699"/>
<polygon fill="midnightblue" stroke="midnightblue" points="583.19,-71.6223 572.666,-72.8463 581.656,-78.4523 583.19,-71.6223"/>
</g>
<!-- Node18 -->
<g id="node19" class="node"><title>Node18</title>
<polygon fill="white" stroke="#bfbfbf" points="629.5,-56.5 629.5,-75.5 732.5,-75.5 732.5,-56.5 629.5,-56.5"/>
<text text-anchor="middle" x="681" y="-63.5" font-family="Helvetica,sans-Serif" font-size="10.00">cereal/access.hpp</text>
</g>
<!-- Node17&#45;&gt;Node18 -->
<g id="edge19" class="edge"><title>Node17&#45;&gt;Node18</title>
<path fill="none" stroke="midnightblue" d="M826.343,-113.717C798.421,-104.743 750.617,-89.3769 717.494,-78.7303"/>
<polygon fill="midnightblue" stroke="midnightblue" points="718.316,-75.3181 707.725,-75.59 716.174,-81.9823 718.316,-75.3181"/>
</g>
<!-- Node19 -->
<g id="node20" class="node"><title>Node19</title>
<g id="a_node20"><a xlink:href="variadic_8h.html" target="_top" xlink:title="std_ext/variadic.h">
<polygon fill="white" stroke="black" points="750.5,-56.5 750.5,-75.5 851.5,-75.5 851.5,-56.5 750.5,-56.5"/>
<text text-anchor="middle" x="801" y="-63.5" font-family="Helvetica,sans-Serif" font-size="10.00">std_ext/variadic.h</text>
</a>
</g>
</g>
<!-- Node17&#45;&gt;Node19 -->
<g id="edge20" class="edge"><title>Node17&#45;&gt;Node19</title>
<path fill="none" stroke="midnightblue" d="M841.074,-112.083C834.154,-104.298 823.935,-92.8015 815.548,-83.3665"/>
<polygon fill="midnightblue" stroke="midnightblue" points="818.038,-80.8999 808.779,-75.7511 812.806,-85.5505 818.038,-80.8999"/>
</g>
<!-- Node22 -->
<g id="node23" class="node"><title>Node22</title>
<polygon fill="white" stroke="#bfbfbf" points="869.5,-56.5 869.5,-75.5 926.5,-75.5 926.5,-56.5 869.5,-56.5"/>
<text text-anchor="middle" x="898" y="-63.5" font-family="Helvetica,sans-Serif" font-size="10.00">memory</text>
</g>
<!-- Node17&#45;&gt;Node22 -->
<g id="edge23" class="edge"><title>Node17&#45;&gt;Node22</title>
<path fill="none" stroke="midnightblue" d="M857.091,-112.083C864.155,-104.298 874.588,-92.8015 883.149,-83.3665"/>
<polygon fill="midnightblue" stroke="midnightblue" points="885.931,-85.5087 890.059,-75.7511 880.747,-80.8047 885.931,-85.5087"/>
</g>
<!-- Node23 -->
<g id="node24" class="node"><title>Node23</title>
<polygon fill="white" stroke="#bfbfbf" points="945,-56.5 945,-75.5 975,-75.5 975,-56.5 945,-56.5"/>
<text text-anchor="middle" x="960" y="-63.5" font-family="Helvetica,sans-Serif" font-size="10.00">list</text>
</g>
<!-- Node17&#45;&gt;Node23 -->
<g id="edge24" class="edge"><title>Node17&#45;&gt;Node23</title>
<path fill="none" stroke="midnightblue" d="M866.834,-112.324C885.457,-103.264 914.792,-88.9933 935.563,-78.8881"/>
<polygon fill="midnightblue" stroke="midnightblue" points="937.25,-81.9597 944.712,-74.4376 934.188,-75.665 937.25,-81.9597"/>
</g>
<!-- Node24 -->
<g id="node25" class="node"><title>Node24</title>
<polygon fill="white" stroke="#bfbfbf" points="993,-56.5 993,-75.5 1045,-75.5 1045,-56.5 993,-56.5"/>
<text text-anchor="middle" x="1019" y="-63.5" font-family="Helvetica,sans-Serif" font-size="10.00">cassert</text>
</g>
<!-- Node17&#45;&gt;Node24 -->
<g id="edge27" class="edge"><title>Node17&#45;&gt;Node24</title>
<path fill="none" stroke="midnightblue" d="M871.575,-113.829C900.059,-104.781 949.388,-89.1121 983.075,-78.4115"/>
<polygon fill="midnightblue" stroke="midnightblue" points="984.516,-81.6262 992.987,-75.263 982.397,-74.9547 984.516,-81.6262"/>
</g>
<!-- Node25 -->
<g id="node26" class="node"><title>Node25</title>
<polygon fill="white" stroke="#bfbfbf" points="1063,-56.5 1063,-75.5 1119,-75.5 1119,-56.5 1063,-56.5"/>
<text text-anchor="middle" x="1091" y="-63.5" font-family="Helvetica,sans-Serif" font-size="10.00">numeric</text>
</g>
<!-- Node17&#45;&gt;Node25 -->
<g id="edge28" class="edge"><title>Node17&#45;&gt;Node25</title>
<path fill="none" stroke="midnightblue" d="M871.789,-116.173C907.97,-108.471 981.017,-92.7705 1052.64,-76.2768"/>
<polygon fill="midnightblue" stroke="midnightblue" points="1053.78,-79.6062 1062.73,-73.9449 1052.2,-72.7859 1053.78,-79.6062"/>
</g>
<!-- Node26 -->
<g id="node27" class="node"><title>Node26</title>
<polygon fill="white" stroke="#bfbfbf" points="1137,-56.5 1137,-75.5 1205,-75.5 1205,-56.5 1137,-56.5"/>
<text text-anchor="middle" x="1171" y="-63.5" font-family="Helvetica,sans-Serif" font-size="10.00">type_traits</text>
</g>
<!-- Node17&#45;&gt;Node26 -->
<g id="edge29" class="edge"><title>Node17&#45;&gt;Node26</title>
<path fill="none" stroke="midnightblue" d="M871.846,-117.682C918.016,-110.9 1025.95,-94.6487 1126.72,-76.1691"/>
<polygon fill="midnightblue" stroke="midnightblue" points="1127.56,-79.5728 1136.76,-74.3158 1126.29,-72.6891 1127.56,-79.5728"/>
</g>
<!-- Node20 -->
<g id="node21" class="node"><title>Node20</title>
<polygon fill="white" stroke="#bfbfbf" points="742,-0.5 742,-19.5 794,-19.5 794,-0.5 742,-0.5"/>
<text text-anchor="middle" x="768" y="-7.5" font-family="Helvetica,sans-Serif" font-size="10.00">cstddef</text>
</g>
<!-- Node19&#45;&gt;Node20 -->
<g id="edge21" class="edge"><title>Node19&#45;&gt;Node20</title>
<path fill="none" stroke="midnightblue" d="M795.551,-56.083C790.986,-48.6127 784.332,-37.7244 778.707,-28.5199"/>
<polygon fill="midnightblue" stroke="midnightblue" points="781.549,-26.4588 773.348,-19.7511 775.576,-30.109 781.549,-26.4588"/>
</g>
<!-- Node21 -->
<g id="node22" class="node"><title>Node21</title>
<polygon fill="white" stroke="#bfbfbf" points="812.5,-0.5 812.5,-19.5 853.5,-19.5 853.5,-0.5 812.5,-0.5"/>
<text text-anchor="middle" x="833" y="-7.5" font-family="Helvetica,sans-Serif" font-size="10.00">tuple</text>
</g>
<!-- Node19&#45;&gt;Node21 -->
<g id="edge22" class="edge"><title>Node19&#45;&gt;Node21</title>
<path fill="none" stroke="midnightblue" d="M806.284,-56.083C810.711,-48.6127 817.163,-37.7244 822.618,-28.5199"/>
<polygon fill="midnightblue" stroke="midnightblue" points="825.727,-30.1383 827.814,-19.7511 819.705,-26.5697 825.727,-30.1383"/>
</g>
<!-- Node28&#45;&gt;Node16 -->
<g id="edge33" class="edge"><title>Node28&#45;&gt;Node16</title>
<path fill="none" stroke="midnightblue" d="M587.431,-280.224C581.29,-271.518 572.423,-257.553 568,-244 549.904,-188.545 548.163,-118.646 548.498,-85.7473"/>
<polygon fill="midnightblue" stroke="midnightblue" points="551.998,-85.7998 548.68,-75.738 544.999,-85.6729 551.998,-85.7998"/>
</g>
<!-- Node29 -->
<g id="node30" class="node"><title>Node29</title>
<g id="a_node30"><a xlink:href="_production_data_base_8h.html" target="_top" xlink:title="ProductionDataBase.h">
<polygon fill="white" stroke="black" points="577,-224.5 577,-243.5 701,-243.5 701,-224.5 577,-224.5"/>
<text text-anchor="middle" x="639" y="-231.5" font-family="Helvetica,sans-Serif" font-size="10.00">ProductionDataBase.h</text>
</a>
</g>
</g>
<!-- Node28&#45;&gt;Node29 -->
<g id="edge34" class="edge"><title>Node28&#45;&gt;Node29</title>
<path fill="none" stroke="midnightblue" d="M601.431,-280.083C607.853,-272.377 617.306,-261.033 625.122,-251.653"/>
<polygon fill="midnightblue" stroke="midnightblue" points="627.994,-253.674 631.707,-243.751 622.617,-249.193 627.994,-253.674"/>
</g>
<!-- Node29&#45;&gt;Node2 -->
<g id="edge36" class="edge"><title>Node29&#45;&gt;Node2</title>
<path fill="none" stroke="midnightblue" d="M610.162,-224.444C579.144,-215.241 529.671,-200.562 495.382,-190.388"/>
<polygon fill="midnightblue" stroke="midnightblue" points="496.286,-187.006 485.704,-187.516 494.295,-193.716 496.286,-187.006"/>
</g>
<!-- Node29&#45;&gt;Node16 -->
<g id="edge35" class="edge"><title>Node29&#45;&gt;Node16</title>
<path fill="none" stroke="midnightblue" d="M631.901,-224.382C624.833,-215.57 613.923,-201.323 606,-188 585.219,-153.054 566.2,-109.309 556.255,-85.148"/>
<polygon fill="midnightblue" stroke="midnightblue" points="559.464,-83.7488 552.459,-75.8003 552.978,-86.3824 559.464,-83.7488"/>
</g>
<!-- Node30 -->
<g id="node31" class="node"><title>Node30</title>
<polygon fill="white" stroke="#bfbfbf" points="615.5,-168.5 615.5,-187.5 722.5,-187.5 722.5,-168.5 615.5,-168.5"/>
<text text-anchor="middle" x="669" y="-175.5" font-family="Helvetica,sans-Serif" font-size="10.00">Math/Interpolator.h</text>
</g>
<!-- Node29&#45;&gt;Node30 -->
<g id="edge37" class="edge"><title>Node29&#45;&gt;Node30</title>
<path fill="none" stroke="midnightblue" d="M643.954,-224.083C648.104,-216.613 654.153,-205.724 659.267,-196.52"/>
<polygon fill="midnightblue" stroke="midnightblue" points="662.341,-198.192 664.138,-187.751 656.222,-194.793 662.341,-198.192"/>
</g>
<!-- Node33 -->
<g id="node34" class="node"><title>Node33</title>
<polygon fill="white" stroke="#bfbfbf" points="754.5,-224.5 754.5,-243.5 853.5,-243.5 853.5,-224.5 754.5,-224.5"/>
<text text-anchor="middle" x="804" y="-231.5" font-family="Helvetica,sans-Serif" font-size="10.00">easylogging++.h</text>
</g>
<!-- Node32&#45;&gt;Node33 -->
<g id="edge40" class="edge"><title>Node32&#45;&gt;Node33</title>
<path fill="none" stroke="midnightblue" d="M804,-280.083C804,-273.006 804,-262.861 804,-253.986"/>
<polygon fill="midnightblue" stroke="midnightblue" points="807.5,-253.751 804,-243.751 800.5,-253.751 807.5,-253.751"/>
</g>
</g>
</svg>
