<?xml version="1.0" encoding="UTF-8" standalone="no"?>
<!DOCTYPE svg PUBLIC "-//W3C//DTD SVG 1.1//EN"
 "http://www.w3.org/Graphics/SVG/1.1/DTD/svg11.dtd">
<!-- Generated by graphviz version 2.38.0 (20140413.2041)
 -->
<!-- Title: src/analysis/input/pluto/detail/PlutoWrapper.h Pages: 1 -->
<svg width="294pt" height="106pt"
 viewBox="0.00 0.00 294.00 106.00" xmlns="http://www.w3.org/2000/svg" xmlns:xlink="http://www.w3.org/1999/xlink">
<g id="graph0" class="graph" transform="scale(1 1) rotate(0) translate(4 102)">
<title>src/analysis/input/pluto/detail/PlutoWrapper.h</title>
<polygon fill="white" stroke="none" points="-4,4 -4,-102 290,-102 290,4 -4,4"/>
<!-- Node4 -->
<g id="node1" class="node"><title>Node4</title>
<polygon fill="#bfbfbf" stroke="black" points="78.5,-67.5 78.5,-97.5 225.5,-97.5 225.5,-67.5 78.5,-67.5"/>
<text text-anchor="start" x="86.5" y="-85.5" font-family="Helvetica,sans-Serif" font-size="10.00">src/analysis/input</text>
<text text-anchor="middle" x="152" y="-74.5" font-family="Helvetica,sans-Serif" font-size="10.00">/pluto/detail/PlutoWrapper.h</text>
</g>
<!-- Node5 -->
<g id="node2" class="node"><title>Node5</title>
<g id="a_node2"><a xlink:href="_pluto_wrapper_8cc.html" target="_top" xlink:title="src/analysis/input\l/pluto/detail/PlutoWrapper.cc">
<polygon fill="white" stroke="black" points="0,-0.5 0,-30.5 152,-30.5 152,-0.5 0,-0.5"/>
<text text-anchor="start" x="8" y="-18.5" font-family="Helvetica,sans-Serif" font-size="10.00">src/analysis/input</text>
<text text-anchor="middle" x="76" y="-7.5" font-family="Helvetica,sans-Serif" font-size="10.00">/pluto/detail/PlutoWrapper.cc</text>
</a>
</g>
</g>
<!-- Node4&#45;&gt;Node5 -->
<g id="edge1" class="edge"><title>Node4&#45;&gt;Node5</title>
<path fill="none" stroke="midnightblue" d="M127.894,-60.8832C116.345,-51.0054 102.81,-39.4293 92.4587,-30.5765"/>
<polygon fill="midnightblue" stroke="midnightblue" points="125.635,-63.5561 135.509,-67.396 130.184,-58.2364 125.635,-63.5561"/>
</g>
<!-- Node6 -->
<g id="node3" class="node"><title>Node6</title>
<g id="a_node3"><a xlink:href="_pluto_reader_8cc.html" target="_top" xlink:title="src/analysis/input\l/pluto/PlutoReader.cc">
<polygon fill="white" stroke="black" points="170,-0.5 170,-30.5 286,-30.5 286,-0.5 170,-0.5"/>
<text text-anchor="start" x="178" y="-18.5" font-family="Helvetica,sans-Serif" font-size="10.00">src/analysis/input</text>
<text text-anchor="middle" x="228" y="-7.5" font-family="Helvetica,sans-Serif" font-size="10.00">/pluto/PlutoReader.cc</text>
</a>
</g>
</g>
<!-- Node4&#45;&gt;Node6 -->
<g id="edge2" class="edge"><title>Node4&#45;&gt;Node6</title>
<path fill="none" stroke="midnightblue" d="M176.106,-60.8832C187.655,-51.0054 201.19,-39.4293 211.541,-30.5765"/>
<polygon fill="midnightblue" stroke="midnightblue" points="173.816,-58.2364 168.491,-67.396 178.365,-63.5561 173.816,-58.2364"/>
</g>
</g>
</svg>
