<?xml version="1.0" encoding="UTF-8" standalone="no"?>
<!DOCTYPE svg PUBLIC "-//W3C//DTD SVG 1.1//EN"
 "http://www.w3.org/Graphics/SVG/1.1/DTD/svg11.dtd">
<!-- Generated by graphviz version 2.38.0 (20140413.2041)
 -->
<!-- Title: src/base/ProgressCounter.h Pages: 1 -->
<svg width="2212pt" height="162pt"
 viewBox="0.00 0.00 2212.00 162.00" xmlns="http://www.w3.org/2000/svg" xmlns:xlink="http://www.w3.org/1999/xlink">
<g id="graph0" class="graph" transform="scale(1 1) rotate(0) translate(4 158)">
<title>src/base/ProgressCounter.h</title>
<polygon fill="white" stroke="none" points="-4,4 -4,-158 2208,-158 2208,4 -4,4"/>
<!-- Node7 -->
<g id="node1" class="node"><title>Node7</title>
<polygon fill="#bfbfbf" stroke="black" points="683.5,-134.5 683.5,-153.5 832.5,-153.5 832.5,-134.5 683.5,-134.5"/>
<text text-anchor="middle" x="758" y="-141.5" font-family="Helvetica,sans-Serif" font-size="10.00">src/base/ProgressCounter.h</text>
</g>
<!-- Node8 -->
<g id="node2" class="node"><title>Node8</title>
<g id="a_node2"><a xlink:href="_ant-hadd_8cc.html" target="_top" xlink:title="progs/Ant&#45;hadd.cc">
<polygon fill="white" stroke="black" points="0,-73 0,-92 104,-92 104,-73 0,-73"/>
<text text-anchor="middle" x="52" y="-80" font-family="Helvetica,sans-Serif" font-size="10.00">progs/Ant&#45;hadd.cc</text>
</a>
</g>
</g>
<!-- Node7&#45;&gt;Node8 -->
<g id="edge1" class="edge"><title>Node7&#45;&gt;Node8</title>
<path fill="none" stroke="midnightblue" d="M673.045,-141.385C549.39,-138.057 312.879,-128.007 114,-98 104.162,-96.5157 93.579,-94.2829 83.9899,-92.0113"/>
<polygon fill="midnightblue" stroke="midnightblue" points="673.115,-144.888 683.203,-141.65 673.297,-137.89 673.115,-144.888"/>
</g>
<!-- Node9 -->
<g id="node3" class="node"><title>Node9</title>
<g id="a_node3"><a xlink:href="_ant-make_sigmas_8cc.html" target="_top" xlink:title="progs/Ant&#45;makeSigmas.cc">
<polygon fill="white" stroke="black" points="122.5,-73 122.5,-92 265.5,-92 265.5,-73 122.5,-73"/>
<text text-anchor="middle" x="194" y="-80" font-family="Helvetica,sans-Serif" font-size="10.00">progs/Ant&#45;makeSigmas.cc</text>
</a>
</g>
</g>
<!-- Node7&#45;&gt;Node9 -->
<g id="edge2" class="edge"><title>Node7&#45;&gt;Node9</title>
<path fill="none" stroke="midnightblue" d="M673.302,-137.279C576.669,-130.25 414.032,-116.887 275,-98 262.826,-96.3462 249.69,-94.1672 237.613,-92.0024"/>
<polygon fill="midnightblue" stroke="midnightblue" points="673.083,-140.773 683.309,-138.002 673.587,-133.791 673.083,-140.773"/>
</g>
<!-- Node10 -->
<g id="node4" class="node"><title>Node10</title>
<g id="a_node4"><a xlink:href="_ant-mc-omegagun_8cc.html" target="_top" xlink:title="progs/Ant&#45;mc&#45;omegagun.cc">
<polygon fill="white" stroke="black" points="283.5,-73 283.5,-92 434.5,-92 434.5,-73 283.5,-73"/>
<text text-anchor="middle" x="359" y="-80" font-family="Helvetica,sans-Serif" font-size="10.00">progs/Ant&#45;mc&#45;omegagun.cc</text>
</a>
</g>
</g>
<!-- Node7&#45;&gt;Node10 -->
<g id="edge3" class="edge"><title>Node7&#45;&gt;Node10</title>
<path fill="none" stroke="midnightblue" d="M685.127,-133.116C621.434,-124.344 526.499,-110.946 444,-98 432.169,-96.1434 419.431,-94.0312 407.509,-92.0044"/>
<polygon fill="midnightblue" stroke="midnightblue" points="684.691,-136.589 695.074,-134.484 685.644,-129.654 684.691,-136.589"/>
</g>
<!-- Node11 -->
<g id="node5" class="node"><title>Node11</title>
<g id="a_node5"><a xlink:href="_ant-mc-pi0gun_8cc.html" target="_top" xlink:title="progs/Ant&#45;mc&#45;pi0gun.cc">
<polygon fill="white" stroke="black" points="452.5,-73 452.5,-92 583.5,-92 583.5,-73 452.5,-73"/>
<text text-anchor="middle" x="518" y="-80" font-family="Helvetica,sans-Serif" font-size="10.00">progs/Ant&#45;mc&#45;pi0gun.cc</text>
</a>
</g>
</g>
<!-- Node7&#45;&gt;Node11 -->
<g id="edge4" class="edge"><title>Node7&#45;&gt;Node11</title>
<path fill="none" stroke="midnightblue" d="M713.796,-132.041C667.203,-120.49 594.798,-102.539 552.322,-92.0091"/>
<polygon fill="midnightblue" stroke="midnightblue" points="713.065,-135.466 723.614,-134.475 714.75,-128.672 713.065,-135.466"/>
</g>
<!-- Node12 -->
<g id="node6" class="node"><title>Node12</title>
<g id="a_node6"><a xlink:href="_ant-plot_8cc.html" target="_top" xlink:title="progs/Ant&#45;plot.cc">
<polygon fill="white" stroke="black" points="602,-73 602,-92 700,-92 700,-73 602,-73"/>
<text text-anchor="middle" x="651" y="-80" font-family="Helvetica,sans-Serif" font-size="10.00">progs/Ant&#45;plot.cc</text>
</a>
</g>
</g>
<!-- Node7&#45;&gt;Node12 -->
<g id="edge5" class="edge"><title>Node7&#45;&gt;Node12</title>
<path fill="none" stroke="midnightblue" d="M733.824,-129.556C713.117,-118.042 683.929,-101.811 666.302,-92.0091"/>
<polygon fill="midnightblue" stroke="midnightblue" points="732.229,-132.674 742.67,-134.475 735.631,-126.556 732.229,-132.674"/>
</g>
<!-- Node13 -->
<g id="node7" class="node"><title>Node13</title>
<g id="a_node7"><a xlink:href="_p_c_a_8cc.html" target="_top" xlink:title="Tool to perform a Principal Component Analysis, based on ROOTs TPrincipal class, to create principal ...">
<polygon fill="white" stroke="black" points="718,-73 718,-92 798,-92 798,-73 718,-73"/>
<text text-anchor="middle" x="758" y="-80" font-family="Helvetica,sans-Serif" font-size="10.00">progs/PCA.cc</text>
</a>
</g>
</g>
<!-- Node7&#45;&gt;Node13 -->
<g id="edge6" class="edge"><title>Node7&#45;&gt;Node13</title>
<path fill="none" stroke="midnightblue" d="M758,-124.317C758,-113.496 758,-100.398 758,-92.0091"/>
<polygon fill="midnightblue" stroke="midnightblue" points="754.5,-124.475 758,-134.475 761.5,-124.475 754.5,-124.475"/>
</g>
<!-- Node14 -->
<g id="node8" class="node"><title>Node14</title>
<g id="a_node8"><a xlink:href="_physics_manager_8cc.html" target="_top" xlink:title="src/analysis/physics\l/PhysicsManager.cc">
<polygon fill="white" stroke="black" points="816,-67.5 816,-97.5 926,-97.5 926,-67.5 816,-67.5"/>
<text text-anchor="start" x="824" y="-85.5" font-family="Helvetica,sans-Serif" font-size="10.00">src/analysis/physics</text>
<text text-anchor="middle" x="871" y="-74.5" font-family="Helvetica,sans-Serif" font-size="10.00">/PhysicsManager.cc</text>
</a>
</g>
</g>
<!-- Node7&#45;&gt;Node14 -->
<g id="edge7" class="edge"><title>Node7&#45;&gt;Node14</title>
<path fill="none" stroke="midnightblue" d="M783.056,-129.807C801.248,-120.228 825.821,-107.289 844.368,-97.523"/>
<polygon fill="midnightblue" stroke="midnightblue" points="781.408,-126.719 774.19,-134.475 784.669,-132.913 781.408,-126.719"/>
</g>
<!-- Node15 -->
<g id="node9" class="node"><title>Node15</title>
<g id="a_node9"><a xlink:href="_progress_counter_8cc.html" target="_top" xlink:title="src/base/ProgressCounter.cc">
<polygon fill="white" stroke="black" points="944.5,-73 944.5,-92 1097.5,-92 1097.5,-73 944.5,-73"/>
<text text-anchor="middle" x="1021" y="-80" font-family="Helvetica,sans-Serif" font-size="10.00">src/base/ProgressCounter.cc</text>
</a>
</g>
</g>
<!-- Node7&#45;&gt;Node15 -->
<g id="edge8" class="edge"><title>Node7&#45;&gt;Node15</title>
<path fill="none" stroke="midnightblue" d="M805.48,-132.258C856.499,-120.716 936.55,-102.606 983.388,-92.0091"/>
<polygon fill="midnightblue" stroke="midnightblue" points="804.663,-128.855 795.681,-134.475 806.207,-135.682 804.663,-128.855"/>
</g>
<!-- Node16 -->
<g id="node10" class="node"><title>Node16</title>
<g id="a_node10"><a xlink:href="hadd_8cc.html" target="_top" xlink:title="src/root&#45;addons/analysis\l_codes/hadd.cc">
<polygon fill="white" stroke="black" points="1116,-67.5 1116,-97.5 1250,-97.5 1250,-67.5 1116,-67.5"/>
<text text-anchor="start" x="1124" y="-85.5" font-family="Helvetica,sans-Serif" font-size="10.00">src/root&#45;addons/analysis</text>
<text text-anchor="middle" x="1183" y="-74.5" font-family="Helvetica,sans-Serif" font-size="10.00">_codes/hadd.cc</text>
</a>
</g>
</g>
<!-- Node7&#45;&gt;Node16 -->
<g id="edge9" class="edge"><title>Node7&#45;&gt;Node16</title>
<path fill="none" stroke="midnightblue" d="M842.938,-133.499C913.735,-125.232 1017.16,-112.349 1107,-98 1109.92,-97.5339 1112.9,-97.0409 1115.9,-96.5289"/>
<polygon fill="midnightblue" stroke="midnightblue" points="842.264,-130.054 832.735,-134.685 843.072,-137.007 842.264,-130.054"/>
</g>
<!-- Node17 -->
<g id="node11" class="node"><title>Node17</title>
<g id="a_node11"><a xlink:href="pi0__true__calib_8cc.html" target="_top" xlink:title="src/root&#45;addons/analysis\l_codes/pi0_true_calib.cc">
<polygon fill="white" stroke="black" points="1268,-67.5 1268,-97.5 1402,-97.5 1402,-67.5 1268,-67.5"/>
<text text-anchor="start" x="1276" y="-85.5" font-family="Helvetica,sans-Serif" font-size="10.00">src/root&#45;addons/analysis</text>
<text text-anchor="middle" x="1335" y="-74.5" font-family="Helvetica,sans-Serif" font-size="10.00">_codes/pi0_true_calib.cc</text>
</a>
</g>
</g>
<!-- Node7&#45;&gt;Node17 -->
<g id="edge10" class="edge"><title>Node7&#45;&gt;Node17</title>
<path fill="none" stroke="midnightblue" d="M842.567,-137.966C942.404,-131.432 1113.3,-118.391 1259,-98 1261.93,-97.5904 1264.91,-97.1441 1267.92,-96.6705"/>
<polygon fill="midnightblue" stroke="midnightblue" points="842.288,-134.477 832.536,-138.617 842.741,-141.462 842.288,-134.477"/>
</g>
<!-- Node18 -->
<g id="node12" class="node"><title>Node18</title>
<g id="a_node12"><a xlink:href="_raw_file_reader_8h.html" target="_top" xlink:title="src/unpacker/RawFileReader.h">
<polygon fill="white" stroke="black" points="1420,-73 1420,-92 1576,-92 1576,-73 1420,-73"/>
<text text-anchor="middle" x="1498" y="-80" font-family="Helvetica,sans-Serif" font-size="10.00">src/unpacker/RawFileReader.h</text>
</a>
</g>
</g>
<!-- Node7&#45;&gt;Node18 -->
<g id="edge11" class="edge"><title>Node7&#45;&gt;Node18</title>
<path fill="none" stroke="midnightblue" d="M842.893,-139.763C967.704,-134.413 1207.92,-121.865 1411,-98 1424.38,-96.4273 1438.85,-94.2225 1452.06,-92.0059"/>
<polygon fill="midnightblue" stroke="midnightblue" points="842.487,-136.277 832.644,-140.198 842.783,-143.271 842.487,-136.277"/>
</g>
<!-- Node19 -->
<g id="node13" class="node"><title>Node19</title>
<g id="a_node13"><a xlink:href="_ant-fake_raw_8cc.html" target="_top" xlink:title="progs/Ant&#45;fakeRaw.cc">
<polygon fill="white" stroke="black" points="968.5,-6 968.5,-25 1087.5,-25 1087.5,-6 968.5,-6"/>
<text text-anchor="middle" x="1028" y="-13" font-family="Helvetica,sans-Serif" font-size="10.00">progs/Ant&#45;fakeRaw.cc</text>
</a>
</g>
</g>
<!-- Node18&#45;&gt;Node19 -->
<g id="edge12" class="edge"><title>Node18&#45;&gt;Node19</title>
<path fill="none" stroke="midnightblue" d="M1439.2,-71.2816C1429.78,-69.7655 1420.13,-68.2835 1411,-67 1271.9,-47.4471 1235.66,-53.4683 1097,-31 1086.73,-29.3358 1075.67,-27.1781 1065.48,-25.0382"/>
<polygon fill="midnightblue" stroke="midnightblue" points="1438.86,-74.7725 1449.29,-72.9323 1439.99,-67.8642 1438.86,-74.7725"/>
</g>
<!-- Node20 -->
<g id="node14" class="node"><title>Node20</title>
<g id="a_node14"><a xlink:href="_ant-rawdump_8cc.html" target="_top" xlink:title="progs/Ant&#45;rawdump.cc">
<polygon fill="white" stroke="black" points="1105.5,-6 1105.5,-25 1230.5,-25 1230.5,-6 1105.5,-6"/>
<text text-anchor="middle" x="1168" y="-13" font-family="Helvetica,sans-Serif" font-size="10.00">progs/Ant&#45;rawdump.cc</text>
</a>
</g>
</g>
<!-- Node18&#45;&gt;Node20 -->
<g id="edge13" class="edge"><title>Node18&#45;&gt;Node20</title>
<path fill="none" stroke="midnightblue" d="M1444.12,-71.0425C1391.92,-60.8886 1310.51,-45.0004 1240,-31 1230.37,-29.0878 1220.02,-27.0141 1210.25,-25.0491"/>
<polygon fill="midnightblue" stroke="midnightblue" points="1443.68,-74.5216 1454.16,-72.9945 1445.01,-67.6503 1443.68,-74.5216"/>
</g>
<!-- Node21 -->
<g id="node15" class="node"><title>Node21</title>
<g id="a_node15"><a xlink:href="_ant_8cc.html" target="_top" xlink:title="Main Ant executable. ">
<polygon fill="white" stroke="black" points="1248.5,-6 1248.5,-25 1325.5,-25 1325.5,-6 1248.5,-6"/>
<text text-anchor="middle" x="1287" y="-13" font-family="Helvetica,sans-Serif" font-size="10.00">progs/Ant.cc</text>
</a>
</g>
</g>
<!-- Node18&#45;&gt;Node21 -->
<g id="edge14" class="edge"><title>Node18&#45;&gt;Node21</title>
<path fill="none" stroke="midnightblue" d="M1460.17,-69.8471C1418.38,-56.9725 1352.07,-36.5456 1314.8,-25.0637"/>
<polygon fill="midnightblue" stroke="midnightblue" points="1459.39,-73.2693 1469.98,-72.8685 1461.45,-66.5795 1459.39,-73.2693"/>
</g>
<!-- Node22 -->
<g id="node16" class="node"><title>Node22</title>
<g id="a_node16"><a xlink:href="_unpacker_acqu__detail_8cc.html" target="_top" xlink:title="src/unpacker/detail\l/UnpackerAcqu_detail.cc">
<polygon fill="white" stroke="black" points="1344,-0.5 1344,-30.5 1478,-30.5 1478,-0.5 1344,-0.5"/>
<text text-anchor="start" x="1352" y="-18.5" font-family="Helvetica,sans-Serif" font-size="10.00">src/unpacker/detail</text>
<text text-anchor="middle" x="1411" y="-7.5" font-family="Helvetica,sans-Serif" font-size="10.00">/UnpackerAcqu_detail.cc</text>
</a>
</g>
</g>
<!-- Node18&#45;&gt;Node22 -->
<g id="edge15" class="edge"><title>Node18&#45;&gt;Node22</title>
<path fill="none" stroke="midnightblue" d="M1477.98,-66.5443C1463.5,-55.7254 1444.06,-41.2026 1429.86,-30.589"/>
<polygon fill="midnightblue" stroke="midnightblue" points="1476.16,-69.5524 1486.27,-72.7338 1480.35,-63.9446 1476.16,-69.5524"/>
</g>
<!-- Node23 -->
<g id="node17" class="node"><title>Node23</title>
<g id="a_node17"><a xlink:href="_unpacker_acqu___file_format_mk1_8cc.html" target="_top" xlink:title="src/unpacker/detail\l/UnpackerAcqu_FileFormatMk1.cc">
<polygon fill="white" stroke="black" points="1496.5,-0.5 1496.5,-30.5 1673.5,-30.5 1673.5,-0.5 1496.5,-0.5"/>
<text text-anchor="start" x="1504.5" y="-18.5" font-family="Helvetica,sans-Serif" font-size="10.00">src/unpacker/detail</text>
<text text-anchor="middle" x="1585" y="-7.5" font-family="Helvetica,sans-Serif" font-size="10.00">/UnpackerAcqu_FileFormatMk1.cc</text>
</a>
</g>
</g>
<!-- Node18&#45;&gt;Node23 -->
<g id="edge16" class="edge"><title>Node18&#45;&gt;Node23</title>
<path fill="none" stroke="midnightblue" d="M1518.02,-66.5443C1532.5,-55.7254 1551.94,-41.2026 1566.14,-30.589"/>
<polygon fill="midnightblue" stroke="midnightblue" points="1515.65,-63.9446 1509.73,-72.7338 1519.84,-69.5524 1515.65,-63.9446"/>
</g>
<!-- Node24 -->
<g id="node18" class="node"><title>Node24</title>
<g id="a_node18"><a xlink:href="_unpacker_acqu___file_format_mk2_8cc.html" target="_top" xlink:title="src/unpacker/detail\l/UnpackerAcqu_FileFormatMk2.cc">
<polygon fill="white" stroke="black" points="1691.5,-0.5 1691.5,-30.5 1868.5,-30.5 1868.5,-0.5 1691.5,-0.5"/>
<text text-anchor="start" x="1699.5" y="-18.5" font-family="Helvetica,sans-Serif" font-size="10.00">src/unpacker/detail</text>
<text text-anchor="middle" x="1780" y="-7.5" font-family="Helvetica,sans-Serif" font-size="10.00">/UnpackerAcqu_FileFormatMk2.cc</text>
</a>
</g>
</g>
<!-- Node18&#45;&gt;Node24 -->
<g id="edge17" class="edge"><title>Node18&#45;&gt;Node24</title>
<path fill="none" stroke="midnightblue" d="M1544.92,-70.6855C1592.63,-59.6889 1666.77,-42.6002 1719,-30.5592"/>
<polygon fill="midnightblue" stroke="midnightblue" points="1544.11,-67.2788 1535.16,-72.9355 1545.69,-74.1 1544.11,-67.2788"/>
</g>
<!-- Node25 -->
<g id="node19" class="node"><title>Node25</title>
<g id="a_node19"><a xlink:href="_raw_file_reader_8cc.html" target="_top" xlink:title="src/unpacker/RawFileReader.cc">
<polygon fill="white" stroke="black" points="1886.5,-6 1886.5,-25 2047.5,-25 2047.5,-6 1886.5,-6"/>
<text text-anchor="middle" x="1967" y="-13" font-family="Helvetica,sans-Serif" font-size="10.00">src/unpacker/RawFileReader.cc</text>
</a>
</g>
</g>
<!-- Node18&#45;&gt;Node25 -->
<g id="edge18" class="edge"><title>Node18&#45;&gt;Node25</title>
<path fill="none" stroke="midnightblue" d="M1576.83,-71.7104C1653.75,-61.9957 1774.04,-46.3735 1878,-31 1890.39,-29.1679 1903.73,-27.0649 1916.21,-25.0391"/>
<polygon fill="midnightblue" stroke="midnightblue" points="1576.22,-68.2594 1566.73,-72.9826 1577.09,-75.2045 1576.22,-68.2594"/>
</g>
<!-- Node26 -->
<g id="node20" class="node"><title>Node26</title>
<g id="a_node20"><a xlink:href="_test_raw_file_reader_8cc.html" target="_top" xlink:title="test/unpacker/TestRawFile\lReader.cc">
<polygon fill="white" stroke="black" points="2066,-0.5 2066,-30.5 2204,-30.5 2204,-0.5 2066,-0.5"/>
<text text-anchor="start" x="2074" y="-18.5" font-family="Helvetica,sans-Serif" font-size="10.00">test/unpacker/TestRawFile</text>
<text text-anchor="middle" x="2135" y="-7.5" font-family="Helvetica,sans-Serif" font-size="10.00">Reader.cc</text>
</a>
</g>
</g>
<!-- Node18&#45;&gt;Node26 -->
<g id="edge19" class="edge"><title>Node18&#45;&gt;Node26</title>
<path fill="none" stroke="midnightblue" d="M1586.12,-76.1013C1696.51,-68.75 1891.31,-53.8335 2057,-31 2059.87,-30.6051 2062.79,-30.1775 2065.73,-29.725"/>
<polygon fill="midnightblue" stroke="midnightblue" points="1585.78,-72.6161 1576.03,-76.7677 1586.24,-79.6009 1585.78,-72.6161"/>
</g>
</g>
</svg>
