<?xml version="1.0" encoding="UTF-8" standalone="no"?>
<!DOCTYPE svg PUBLIC "-//W3C//DTD SVG 1.1//EN"
 "http://www.w3.org/Graphics/SVG/1.1/DTD/svg11.dtd">
<!-- Generated by graphviz version 2.38.0 (20140413.2041)
 -->
<!-- Title: src/mc/database/Query.h Pages: 1 -->
<svg width="768pt" height="151pt"
 viewBox="0.00 0.00 767.50 151.00" xmlns="http://www.w3.org/2000/svg" xmlns:xlink="http://www.w3.org/1999/xlink">
<g id="graph0" class="graph" transform="scale(1 1) rotate(0) translate(4 147)">
<title>src/mc/database/Query.h</title>
<polygon fill="white" stroke="none" points="-4,4 -4,-147 763.5,-147 763.5,4 -4,4"/>
<!-- Node28 -->
<g id="node1" class="node"><title>Node28</title>
<polygon fill="#bfbfbf" stroke="black" points="273.5,-123.5 273.5,-142.5 409.5,-142.5 409.5,-123.5 273.5,-123.5"/>
<text text-anchor="middle" x="341.5" y="-130.5" font-family="Helvetica,sans-Serif" font-size="10.00">src/mc/database/Query.h</text>
</g>
<!-- Node29 -->
<g id="node2" class="node"><title>Node29</title>
<g id="a_node2"><a xlink:href="_mc_action_8h.html" target="_top" xlink:title="progs/detail/McAction.h">
<polygon fill="white" stroke="black" points="125.5,-67.5 125.5,-86.5 253.5,-86.5 253.5,-67.5 125.5,-67.5"/>
<text text-anchor="middle" x="189.5" y="-74.5" font-family="Helvetica,sans-Serif" font-size="10.00">progs/detail/McAction.h</text>
</a>
</g>
</g>
<!-- Node28&#45;&gt;Node29 -->
<g id="edge1" class="edge"><title>Node28&#45;&gt;Node29</title>
<path fill="none" stroke="midnightblue" d="M307.832,-120.039C279.232,-109.879 238.888,-95.5457 213.472,-86.5164"/>
<polygon fill="midnightblue" stroke="midnightblue" points="306.82,-123.394 317.415,-123.444 309.164,-116.798 306.82,-123.394"/>
</g>
<!-- Node31 -->
<g id="node4" class="node"><title>Node31</title>
<g id="a_node4"><a xlink:href="_ant-mcdatabase-viewer_8cc.html" target="_top" xlink:title="progs/Ant&#45;mcdatabase\l&#45;viewer.cc">
<polygon fill="white" stroke="black" points="0,-0.5 0,-30.5 127,-30.5 127,-0.5 0,-0.5"/>
<text text-anchor="start" x="8" y="-18.5" font-family="Helvetica,sans-Serif" font-size="10.00">progs/Ant&#45;mcdatabase</text>
<text text-anchor="middle" x="63.5" y="-7.5" font-family="Helvetica,sans-Serif" font-size="10.00">&#45;viewer.cc</text>
</a>
</g>
</g>
<!-- Node28&#45;&gt;Node31 -->
<g id="edge6" class="edge"><title>Node28&#45;&gt;Node31</title>
<path fill="none" stroke="midnightblue" d="M263.162,-130.045C217.392,-125.707 160.224,-114.521 116.5,-87 94.5991,-73.2149 78.5165,-46.9061 70.1148,-30.6164"/>
<polygon fill="midnightblue" stroke="midnightblue" points="263.078,-133.55 273.34,-130.916 263.675,-126.576 263.078,-133.55"/>
</g>
<!-- Node34 -->
<g id="node7" class="node"><title>Node34</title>
<g id="a_node7"><a xlink:href="_query_8cc.html" target="_top" xlink:title="src/mc/database/Query.cc">
<polygon fill="white" stroke="black" points="271.5,-67.5 271.5,-86.5 411.5,-86.5 411.5,-67.5 271.5,-67.5"/>
<text text-anchor="middle" x="341.5" y="-74.5" font-family="Helvetica,sans-Serif" font-size="10.00">src/mc/database/Query.cc</text>
</a>
</g>
</g>
<!-- Node28&#45;&gt;Node34 -->
<g id="edge7" class="edge"><title>Node28&#45;&gt;Node34</title>
<path fill="none" stroke="midnightblue" d="M341.5,-112.805C341.5,-103.91 341.5,-93.7798 341.5,-86.7511"/>
<polygon fill="midnightblue" stroke="midnightblue" points="338,-113.083 341.5,-123.083 345,-113.083 338,-113.083"/>
</g>
<!-- Node35 -->
<g id="node8" class="node"><title>Node35</title>
<g id="a_node8"><a xlink:href="_pluto_factory_8cc.html" target="_top" xlink:title="src/mc/pluto/PlutoFactory.cc">
<polygon fill="white" stroke="black" points="430,-67.5 430,-86.5 579,-86.5 579,-67.5 430,-67.5"/>
<text text-anchor="middle" x="504.5" y="-74.5" font-family="Helvetica,sans-Serif" font-size="10.00">src/mc/pluto/PlutoFactory.cc</text>
</a>
</g>
</g>
<!-- Node28&#45;&gt;Node35 -->
<g id="edge8" class="edge"><title>Node28&#45;&gt;Node35</title>
<path fill="none" stroke="midnightblue" d="M377.203,-120.172C407.896,-110.004 451.419,-95.5852 478.793,-86.5164"/>
<polygon fill="midnightblue" stroke="midnightblue" points="375.72,-116.976 367.328,-123.444 377.921,-123.621 375.72,-116.976"/>
</g>
<!-- Node36 -->
<g id="node9" class="node"><title>Node36</title>
<g id="a_node9"><a xlink:href="_pluto_generator_8h.html" target="_top" xlink:title="src/mc/pluto/PlutoGenerator.h">
<polygon fill="white" stroke="black" points="597.5,-67.5 597.5,-86.5 757.5,-86.5 757.5,-67.5 597.5,-67.5"/>
<text text-anchor="middle" x="677.5" y="-74.5" font-family="Helvetica,sans-Serif" font-size="10.00">src/mc/pluto/PlutoGenerator.h</text>
</a>
</g>
</g>
<!-- Node28&#45;&gt;Node36 -->
<g id="edge9" class="edge"><title>Node28&#45;&gt;Node36</title>
<path fill="none" stroke="midnightblue" d="M404.632,-121.854C468.116,-111.651 564.892,-96.0977 624.509,-86.5164"/>
<polygon fill="midnightblue" stroke="midnightblue" points="404.058,-118.401 394.74,-123.444 405.169,-125.312 404.058,-118.401"/>
</g>
<!-- Node30 -->
<g id="node3" class="node"><title>Node30</title>
<g id="a_node3"><a xlink:href="_ant-cocktail_8cc.html" target="_top" xlink:title="progs/Ant&#45;cocktail.cc">
<polygon fill="white" stroke="black" points="430.5,-6 430.5,-25 546.5,-25 546.5,-6 430.5,-6"/>
<text text-anchor="middle" x="488.5" y="-13" font-family="Helvetica,sans-Serif" font-size="10.00">progs/Ant&#45;cocktail.cc</text>
</a>
</g>
</g>
<!-- Node29&#45;&gt;Node30 -->
<g id="edge2" class="edge"><title>Node29&#45;&gt;Node30</title>
<path fill="none" stroke="midnightblue" d="M242.395,-65.474C300.342,-53.9427 392.157,-35.6719 445.74,-25.0091"/>
<polygon fill="midnightblue" stroke="midnightblue" points="241.464,-62.0906 232.339,-67.4751 242.83,-68.956 241.464,-62.0906"/>
</g>
<!-- Node29&#45;&gt;Node31 -->
<g id="edge3" class="edge"><title>Node29&#45;&gt;Node31</title>
<path fill="none" stroke="midnightblue" d="M162.395,-63.2003C142.032,-53.5845 114.161,-40.4232 93.1957,-30.523"/>
<polygon fill="midnightblue" stroke="midnightblue" points="160.91,-66.3699 171.447,-67.4751 163.899,-60.0401 160.91,-66.3699"/>
</g>
<!-- Node32 -->
<g id="node5" class="node"><title>Node32</title>
<g id="a_node5"><a xlink:href="_ant-mcgun_8cc.html" target="_top" xlink:title="progs/Ant&#45;mcgun.cc">
<polygon fill="white" stroke="black" points="145,-6 145,-25 258,-25 258,-6 145,-6"/>
<text text-anchor="middle" x="201.5" y="-13" font-family="Helvetica,sans-Serif" font-size="10.00">progs/Ant&#45;mcgun.cc</text>
</a>
</g>
</g>
<!-- Node29&#45;&gt;Node32 -->
<g id="edge4" class="edge"><title>Node29&#45;&gt;Node32</title>
<path fill="none" stroke="midnightblue" d="M193.199,-57.6575C195.395,-46.7724 198.074,-33.4863 199.784,-25.0091"/>
<polygon fill="midnightblue" stroke="midnightblue" points="189.765,-56.9805 191.219,-67.4751 196.627,-58.3645 189.765,-56.9805"/>
</g>
<!-- Node33 -->
<g id="node6" class="node"><title>Node33</title>
<g id="a_node6"><a xlink:href="_ant-pluto_8cc.html" target="_top" xlink:title="Pluto generator forntend. ">
<polygon fill="white" stroke="black" points="276.5,-6 276.5,-25 380.5,-25 380.5,-6 276.5,-6"/>
<text text-anchor="middle" x="328.5" y="-13" font-family="Helvetica,sans-Serif" font-size="10.00">progs/Ant&#45;pluto.cc</text>
</a>
</g>
</g>
<!-- Node29&#45;&gt;Node33 -->
<g id="edge5" class="edge"><title>Node29&#45;&gt;Node33</title>
<path fill="none" stroke="midnightblue" d="M218.75,-63.4795C245.745,-51.9238 285.104,-35.0758 308.622,-25.0091"/>
<polygon fill="midnightblue" stroke="midnightblue" points="217.231,-60.3222 209.415,-67.4751 219.986,-66.7574 217.231,-60.3222"/>
</g>
<!-- Node36&#45;&gt;Node30 -->
<g id="edge10" class="edge"><title>Node36&#45;&gt;Node30</title>
<path fill="none" stroke="midnightblue" d="M640.591,-64.3806C603.854,-52.8152 548.347,-35.3407 515.529,-25.0091"/>
<polygon fill="midnightblue" stroke="midnightblue" points="639.831,-67.8106 650.421,-67.4751 641.933,-61.1337 639.831,-67.8106"/>
</g>
<!-- Node37 -->
<g id="node10" class="node"><title>Node37</title>
<g id="a_node10"><a xlink:href="_pluto_generator_8cc.html" target="_top" xlink:title="src/mc/pluto/PlutoGenerator.cc">
<polygon fill="white" stroke="black" points="595.5,-6 595.5,-25 759.5,-25 759.5,-6 595.5,-6"/>
<text text-anchor="middle" x="677.5" y="-13" font-family="Helvetica,sans-Serif" font-size="10.00">src/mc/pluto/PlutoGenerator.cc</text>
</a>
</g>
</g>
<!-- Node36&#45;&gt;Node37 -->
<g id="edge11" class="edge"><title>Node36&#45;&gt;Node37</title>
<path fill="none" stroke="midnightblue" d="M677.5,-57.3165C677.5,-46.4962 677.5,-33.398 677.5,-25.0091"/>
<polygon fill="midnightblue" stroke="midnightblue" points="674,-57.4751 677.5,-67.4751 681,-57.4751 674,-57.4751"/>
</g>
</g>
</svg>
