<?xml version="1.0" encoding="UTF-8" standalone="no"?>
<!DOCTYPE svg PUBLIC "-//W3C//DTD SVG 1.1//EN"
 "http://www.w3.org/Graphics/SVG/1.1/DTD/svg11.dtd">
<!-- Generated by graphviz version 2.38.0 (20140413.2041)
 -->
<!-- Title: src/mc/database/Query.h Pages: 1 -->
<svg width="1096pt" height="308pt"
 viewBox="0.00 0.00 1095.50 308.00" xmlns="http://www.w3.org/2000/svg" xmlns:xlink="http://www.w3.org/1999/xlink">
<g id="graph0" class="graph" transform="scale(1 1) rotate(0) translate(4 304)">
<title>src/mc/database/Query.h</title>
<polygon fill="white" stroke="none" points="-4,4 -4,-304 1091.5,-304 1091.5,4 -4,4"/>
<!-- Node0 -->
<g id="node1" class="node"><title>Node0</title>
<polygon fill="#bfbfbf" stroke="black" points="363,-280.5 363,-299.5 499,-299.5 499,-280.5 363,-280.5"/>
<text text-anchor="middle" x="431" y="-287.5" font-family="Helvetica,sans-Serif" font-size="10.00">src/mc/database/Query.h</text>
</g>
<!-- Node1 -->
<g id="node2" class="node"><title>Node1</title>
<polygon fill="white" stroke="#bfbfbf" points="407.5,-56.5 407.5,-75.5 454.5,-75.5 454.5,-56.5 407.5,-56.5"/>
<text text-anchor="middle" x="431" y="-63.5" font-family="Helvetica,sans-Serif" font-size="10.00">vector</text>
</g>
<!-- Node0&#45;&gt;Node1 -->
<g id="edge1" class="edge"><title>Node0&#45;&gt;Node1</title>
<path fill="none" stroke="midnightblue" d="M434.811,-280.276C443.013,-260.484 461.192,-210.586 456,-168 452.403,-138.498 443.103,-105.198 436.916,-85.1688"/>
<polygon fill="midnightblue" stroke="midnightblue" points="440.214,-83.9896 433.856,-75.515 433.542,-86.1052 440.214,-83.9896"/>
</g>
<!-- Node2 -->
<g id="node3" class="node"><title>Node2</title>
<g id="a_node3"><a xlink:href="_production_data_base_8h.html" target="_top" xlink:title="ProductionDataBase.h">
<polygon fill="white" stroke="black" points="287,-224.5 287,-243.5 411,-243.5 411,-224.5 287,-224.5"/>
<text text-anchor="middle" x="349" y="-231.5" font-family="Helvetica,sans-Serif" font-size="10.00">ProductionDataBase.h</text>
</a>
</g>
</g>
<!-- Node0&#45;&gt;Node2 -->
<g id="edge2" class="edge"><title>Node0&#45;&gt;Node2</title>
<path fill="none" stroke="midnightblue" d="M417.825,-280.324C405.153,-271.979 385.767,-259.212 370.794,-249.352"/>
<polygon fill="midnightblue" stroke="midnightblue" points="372.419,-246.231 362.142,-243.655 368.569,-252.078 372.419,-246.231"/>
</g>
<!-- Node2&#45;&gt;Node1 -->
<g id="edge3" class="edge"><title>Node2&#45;&gt;Node1</title>
<path fill="none" stroke="midnightblue" d="M343.063,-224.369C335.139,-211.709 322.983,-187.493 331,-168 346.716,-129.79 384.652,-98.3564 409.019,-81.1806"/>
<polygon fill="midnightblue" stroke="midnightblue" points="411.034,-84.043 417.316,-75.5117 407.085,-78.2632 411.034,-84.043"/>
</g>
<!-- Node3 -->
<g id="node4" class="node"><title>Node3</title>
<g id="a_node4"><a xlink:href="_particle_type_tree_8h.html" target="_top" xlink:title="base/ParticleTypeTree.h">
<polygon fill="white" stroke="black" points="156.5,-168.5 156.5,-187.5 283.5,-187.5 283.5,-168.5 156.5,-168.5"/>
<text text-anchor="middle" x="220" y="-175.5" font-family="Helvetica,sans-Serif" font-size="10.00">base/ParticleTypeTree.h</text>
</a>
</g>
</g>
<!-- Node2&#45;&gt;Node3 -->
<g id="edge4" class="edge"><title>Node2&#45;&gt;Node3</title>
<path fill="none" stroke="midnightblue" d="M328.56,-224.444C307.33,-215.557 273.901,-201.563 249.745,-191.451"/>
<polygon fill="midnightblue" stroke="midnightblue" points="250.921,-188.149 240.345,-187.516 248.218,-194.606 250.921,-188.149"/>
</g>
<!-- Node27 -->
<g id="node28" class="node"><title>Node27</title>
<polygon fill="white" stroke="#bfbfbf" points="340.5,-168.5 340.5,-187.5 447.5,-187.5 447.5,-168.5 340.5,-168.5"/>
<text text-anchor="middle" x="394" y="-175.5" font-family="Helvetica,sans-Serif" font-size="10.00">Math/Interpolator.h</text>
</g>
<!-- Node2&#45;&gt;Node27 -->
<g id="edge33" class="edge"><title>Node2&#45;&gt;Node27</title>
<path fill="none" stroke="midnightblue" d="M356.431,-224.083C362.853,-216.377 372.306,-205.033 380.122,-195.653"/>
<polygon fill="midnightblue" stroke="midnightblue" points="382.994,-197.674 386.707,-187.751 377.617,-193.193 382.994,-197.674"/>
</g>
<!-- Node4 -->
<g id="node5" class="node"><title>Node4</title>
<g id="a_node5"><a xlink:href="_particle_type_8h.html" target="_top" xlink:title="ParticleType.h">
<polygon fill="white" stroke="black" points="179.5,-112.5 179.5,-131.5 260.5,-131.5 260.5,-112.5 179.5,-112.5"/>
<text text-anchor="middle" x="220" y="-119.5" font-family="Helvetica,sans-Serif" font-size="10.00">ParticleType.h</text>
</a>
</g>
</g>
<!-- Node3&#45;&gt;Node4 -->
<g id="edge5" class="edge"><title>Node3&#45;&gt;Node4</title>
<path fill="none" stroke="midnightblue" d="M220,-168.083C220,-161.006 220,-150.861 220,-141.986"/>
<polygon fill="midnightblue" stroke="midnightblue" points="223.5,-141.751 220,-131.751 216.5,-141.751 223.5,-141.751"/>
</g>
<!-- Node15 -->
<g id="node16" class="node"><title>Node15</title>
<polygon fill="white" stroke="#bfbfbf" points="0,-56.5 0,-75.5 38,-75.5 38,-56.5 0,-56.5"/>
<text text-anchor="middle" x="19" y="-63.5" font-family="Helvetica,sans-Serif" font-size="10.00">map</text>
</g>
<!-- Node3&#45;&gt;Node15 -->
<g id="edge32" class="edge"><title>Node3&#45;&gt;Node15</title>
<path fill="none" stroke="midnightblue" d="M204.228,-168.368C169.369,-149.292 85.5534,-103.422 43.6781,-80.5054"/>
<polygon fill="midnightblue" stroke="midnightblue" points="45.1514,-77.3219 34.6989,-75.5914 41.7909,-83.4625 45.1514,-77.3219"/>
</g>
<!-- Node17 -->
<g id="node18" class="node"><title>Node17</title>
<g id="a_node18"><a xlink:href="_tree_8h.html" target="_top" xlink:title="Tree.h">
<polygon fill="white" stroke="black" points="608.5,-112.5 608.5,-131.5 653.5,-131.5 653.5,-112.5 608.5,-112.5"/>
<text text-anchor="middle" x="631" y="-119.5" font-family="Helvetica,sans-Serif" font-size="10.00">Tree.h</text>
</a>
</g>
</g>
<!-- Node3&#45;&gt;Node17 -->
<g id="edge20" class="edge"><title>Node3&#45;&gt;Node17</title>
<path fill="none" stroke="midnightblue" d="M283.768,-168.622C372.587,-156.952 530.28,-136.233 598.288,-127.298"/>
<polygon fill="midnightblue" stroke="midnightblue" points="598.95,-130.741 608.409,-125.968 598.038,-123.801 598.95,-130.741"/>
</g>
<!-- Node4&#45;&gt;Node1 -->
<g id="edge19" class="edge"><title>Node4&#45;&gt;Node1</title>
<path fill="none" stroke="midnightblue" d="M254.505,-112.479C288.368,-104.072 341.733,-90.7046 397.209,-76.1715"/>
<polygon fill="midnightblue" stroke="midnightblue" points="398.438,-79.4675 407.221,-73.5419 396.66,-72.6972 398.438,-79.4675"/>
</g>
<!-- Node5 -->
<g id="node6" class="node"><title>Node5</title>
<g id="a_node6"><a xlink:href="types_8h.html" target="_top" xlink:title="base/types.h">
<polygon fill="white" stroke="black" points="78,-0.5 78,-19.5 156,-19.5 156,-0.5 78,-0.5"/>
<text text-anchor="middle" x="117" y="-7.5" font-family="Helvetica,sans-Serif" font-size="10.00">base/types.h</text>
</a>
</g>
</g>
<!-- Node4&#45;&gt;Node5 -->
<g id="edge6" class="edge"><title>Node4&#45;&gt;Node5</title>
<path fill="none" stroke="midnightblue" d="M231.005,-112.152C245.742,-99.221 268.55,-74.6712 255,-56 244.256,-41.1963 201.321,-28.7115 166.159,-20.676"/>
<polygon fill="midnightblue" stroke="midnightblue" points="166.532,-17.1739 156.012,-18.4285 165.018,-24.0083 166.532,-17.1739"/>
</g>
<!-- Node6 -->
<g id="node7" class="node"><title>Node6</title>
<g id="a_node7"><a xlink:href="interval_8h.html" target="_top" xlink:title="base/interval.h">
<polygon fill="white" stroke="black" points="302.5,-56.5 302.5,-75.5 389.5,-75.5 389.5,-56.5 302.5,-56.5"/>
<text text-anchor="middle" x="346" y="-63.5" font-family="Helvetica,sans-Serif" font-size="10.00">base/interval.h</text>
</a>
</g>
</g>
<!-- Node4&#45;&gt;Node6 -->
<g id="edge7" class="edge"><title>Node4&#45;&gt;Node6</title>
<path fill="none" stroke="midnightblue" d="M239.965,-112.444C260.609,-103.596 293.063,-89.6875 316.632,-79.5865"/>
<polygon fill="midnightblue" stroke="midnightblue" points="318.316,-82.6727 326.128,-75.5164 315.558,-76.2387 318.316,-82.6727"/>
</g>
<!-- Node13 -->
<g id="node14" class="node"><title>Node13</title>
<polygon fill="white" stroke="#bfbfbf" points="56,-56.5 56,-75.5 100,-75.5 100,-56.5 56,-56.5"/>
<text text-anchor="middle" x="78" y="-63.5" font-family="Helvetica,sans-Serif" font-size="10.00">string</text>
</g>
<!-- Node4&#45;&gt;Node13 -->
<g id="edge15" class="edge"><title>Node4&#45;&gt;Node13</title>
<path fill="none" stroke="midnightblue" d="M197.5,-112.444C173.923,-103.478 136.678,-89.314 110.036,-79.1827"/>
<polygon fill="midnightblue" stroke="midnightblue" points="110.986,-75.7995 100.395,-75.5164 108.498,-82.3424 110.986,-75.7995"/>
</g>
<!-- Node14 -->
<g id="node15" class="node"><title>Node14</title>
<polygon fill="white" stroke="#bfbfbf" points="118.5,-56.5 118.5,-75.5 175.5,-75.5 175.5,-56.5 118.5,-56.5"/>
<text text-anchor="middle" x="147" y="-63.5" font-family="Helvetica,sans-Serif" font-size="10.00">ostream</text>
</g>
<!-- Node4&#45;&gt;Node14 -->
<g id="edge16" class="edge"><title>Node4&#45;&gt;Node14</title>
<path fill="none" stroke="midnightblue" d="M208.271,-112.324C197.163,-104.107 180.258,-91.6017 167.017,-81.8069"/>
<polygon fill="midnightblue" stroke="midnightblue" points="169.063,-78.9671 158.942,-75.8339 164.9,-84.5948 169.063,-78.9671"/>
</g>
<!-- Node4&#45;&gt;Node15 -->
<g id="edge17" class="edge"><title>Node4&#45;&gt;Node15</title>
<path fill="none" stroke="midnightblue" d="M184.719,-112.443C151.7,-104.298 100.792,-91.3915 48.0927,-76.2027"/>
<polygon fill="midnightblue" stroke="midnightblue" points="48.8151,-72.7679 38.2357,-73.3407 46.8632,-79.4903 48.8151,-72.7679"/>
</g>
<!-- Node16 -->
<g id="node17" class="node"><title>Node16</title>
<polygon fill="white" stroke="#bfbfbf" points="194,-56.5 194,-75.5 246,-75.5 246,-56.5 194,-56.5"/>
<text text-anchor="middle" x="220" y="-63.5" font-family="Helvetica,sans-Serif" font-size="10.00">iterator</text>
</g>
<!-- Node4&#45;&gt;Node16 -->
<g id="edge18" class="edge"><title>Node4&#45;&gt;Node16</title>
<path fill="none" stroke="midnightblue" d="M220,-112.083C220,-105.006 220,-94.8611 220,-85.9865"/>
<polygon fill="midnightblue" stroke="midnightblue" points="223.5,-85.751 220,-75.7511 216.5,-85.7511 223.5,-85.751"/>
</g>
<!-- Node6&#45;&gt;Node5 -->
<g id="edge8" class="edge"><title>Node6&#45;&gt;Node5</title>
<path fill="none" stroke="midnightblue" d="M309.714,-56.4435C270.017,-47.0826 206.293,-32.0561 163.088,-21.868"/>
<polygon fill="midnightblue" stroke="midnightblue" points="163.652,-18.4051 153.116,-19.5164 162.046,-25.2182 163.652,-18.4051"/>
</g>
<!-- Node7 -->
<g id="node8" class="node"><title>Node7</title>
<polygon fill="white" stroke="#bfbfbf" points="528,-0.5 528,-19.5 590,-19.5 590,-0.5 528,-0.5"/>
<text text-anchor="middle" x="559" y="-7.5" font-family="Helvetica,sans-Serif" font-size="10.00">algorithm</text>
</g>
<!-- Node6&#45;&gt;Node7 -->
<g id="edge9" class="edge"><title>Node6&#45;&gt;Node7</title>
<path fill="none" stroke="midnightblue" d="M379.75,-56.4435C417.275,-46.9302 477.882,-31.5652 518.079,-21.3743"/>
<polygon fill="midnightblue" stroke="midnightblue" points="519,-24.7517 527.833,-18.9015 517.279,-17.9664 519,-24.7517"/>
</g>
<!-- Node8 -->
<g id="node9" class="node"><title>Node8</title>
<polygon fill="white" stroke="#bfbfbf" points="314,-0.5 314,-19.5 378,-19.5 378,-0.5 314,-0.5"/>
<text text-anchor="middle" x="346" y="-7.5" font-family="Helvetica,sans-Serif" font-size="10.00">stdexcept</text>
</g>
<!-- Node6&#45;&gt;Node8 -->
<g id="edge10" class="edge"><title>Node6&#45;&gt;Node8</title>
<path fill="none" stroke="midnightblue" d="M346,-56.083C346,-49.0059 346,-38.8611 346,-29.9865"/>
<polygon fill="midnightblue" stroke="midnightblue" points="349.5,-29.751 346,-19.7511 342.5,-29.7511 349.5,-29.751"/>
</g>
<!-- Node9 -->
<g id="node10" class="node"><title>Node9</title>
<polygon fill="white" stroke="#bfbfbf" points="396,-0.5 396,-19.5 438,-19.5 438,-0.5 396,-0.5"/>
<text text-anchor="middle" x="417" y="-7.5" font-family="Helvetica,sans-Serif" font-size="10.00">limits</text>
</g>
<!-- Node6&#45;&gt;Node9 -->
<g id="edge11" class="edge"><title>Node6&#45;&gt;Node9</title>
<path fill="none" stroke="midnightblue" d="M357.407,-56.324C368.109,-48.1849 384.341,-35.8395 397.163,-26.0874"/>
<polygon fill="midnightblue" stroke="midnightblue" points="399.544,-28.6734 405.385,-19.8339 395.307,-23.1018 399.544,-28.6734"/>
</g>
<!-- Node10 -->
<g id="node11" class="node"><title>Node10</title>
<polygon fill="white" stroke="#bfbfbf" points="456.5,-0.5 456.5,-19.5 509.5,-19.5 509.5,-0.5 456.5,-0.5"/>
<text text-anchor="middle" x="483" y="-7.5" font-family="Helvetica,sans-Serif" font-size="10.00">istream</text>
</g>
<!-- Node6&#45;&gt;Node10 -->
<g id="edge12" class="edge"><title>Node6&#45;&gt;Node10</title>
<path fill="none" stroke="midnightblue" d="M367.708,-56.4435C390.355,-47.5171 426.072,-33.4387 451.752,-23.3168"/>
<polygon fill="midnightblue" stroke="midnightblue" points="453.374,-26.4397 461.394,-19.5164 450.807,-19.9273 453.374,-26.4397"/>
</g>
<!-- Node11 -->
<g id="node12" class="node"><title>Node11</title>
<polygon fill="white" stroke="#bfbfbf" points="174,-0.5 174,-19.5 230,-19.5 230,-0.5 174,-0.5"/>
<text text-anchor="middle" x="202" y="-7.5" font-family="Helvetica,sans-Serif" font-size="10.00">sstream</text>
</g>
<!-- Node6&#45;&gt;Node11 -->
<g id="edge13" class="edge"><title>Node6&#45;&gt;Node11</title>
<path fill="none" stroke="midnightblue" d="M323.183,-56.4435C299.168,-47.4381 261.171,-33.1891 234.131,-23.049"/>
<polygon fill="midnightblue" stroke="midnightblue" points="235.303,-19.7506 224.71,-19.5164 232.845,-26.3049 235.303,-19.7506"/>
</g>
<!-- Node12 -->
<g id="node13" class="node"><title>Node12</title>
<polygon fill="white" stroke="#bfbfbf" points="248.5,-0.5 248.5,-19.5 295.5,-19.5 295.5,-0.5 248.5,-0.5"/>
<text text-anchor="middle" x="272" y="-7.5" font-family="Helvetica,sans-Serif" font-size="10.00">cmath</text>
</g>
<!-- Node6&#45;&gt;Node12 -->
<g id="edge14" class="edge"><title>Node6&#45;&gt;Node12</title>
<path fill="none" stroke="midnightblue" d="M334.111,-56.324C322.85,-48.1066 305.713,-35.6017 292.291,-25.8069"/>
<polygon fill="midnightblue" stroke="midnightblue" points="294.247,-22.9014 284.106,-19.8339 290.12,-28.5559 294.247,-22.9014"/>
</g>
<!-- Node17&#45;&gt;Node1 -->
<g id="edge27" class="edge"><title>Node17&#45;&gt;Node1</title>
<path fill="none" stroke="midnightblue" d="M608.446,-114.91C573.318,-105.426 505.338,-87.0711 464.476,-76.0386"/>
<polygon fill="midnightblue" stroke="midnightblue" points="465.275,-72.6291 454.709,-73.4014 463.451,-79.3871 465.275,-72.6291"/>
</g>
<!-- Node17&#45;&gt;Node7 -->
<g id="edge28" class="edge"><title>Node17&#45;&gt;Node7</title>
<path fill="none" stroke="midnightblue" d="M608.419,-120.551C578.376,-118.589 526.242,-110.132 502,-76 488.6,-57.1331 512.017,-37.4143 532.764,-24.7136"/>
<polygon fill="midnightblue" stroke="midnightblue" points="534.767,-27.5984 541.671,-19.5618 531.262,-21.5389 534.767,-27.5984"/>
</g>
<!-- Node18 -->
<g id="node19" class="node"><title>Node18</title>
<polygon fill="white" stroke="#bfbfbf" points="984.5,-56.5 984.5,-75.5 1087.5,-75.5 1087.5,-56.5 984.5,-56.5"/>
<text text-anchor="middle" x="1036" y="-63.5" font-family="Helvetica,sans-Serif" font-size="10.00">cereal/access.hpp</text>
</g>
<!-- Node17&#45;&gt;Node18 -->
<g id="edge21" class="edge"><title>Node17&#45;&gt;Node18</title>
<path fill="none" stroke="midnightblue" d="M653.625,-118.201C707.384,-111.52 847.224,-93.948 974.387,-76.2063"/>
<polygon fill="midnightblue" stroke="midnightblue" points="974.88,-79.6716 984.299,-74.8196 973.91,-72.7391 974.88,-79.6716"/>
</g>
<!-- Node19 -->
<g id="node20" class="node"><title>Node19</title>
<g id="a_node20"><a xlink:href="variadic_8h.html" target="_top" xlink:title="std_ext/variadic.h">
<polygon fill="white" stroke="black" points="865.5,-56.5 865.5,-75.5 966.5,-75.5 966.5,-56.5 865.5,-56.5"/>
<text text-anchor="middle" x="916" y="-63.5" font-family="Helvetica,sans-Serif" font-size="10.00">std_ext/variadic.h</text>
</a>
</g>
</g>
<!-- Node17&#45;&gt;Node19 -->
<g id="edge22" class="edge"><title>Node17&#45;&gt;Node19</title>
<path fill="none" stroke="midnightblue" d="M653.841,-116.672C698.385,-108.232 797.98,-89.3617 860.784,-77.462"/>
<polygon fill="midnightblue" stroke="midnightblue" points="861.741,-80.843 870.915,-75.5425 860.438,-73.9654 861.741,-80.843"/>
</g>
<!-- Node22 -->
<g id="node23" class="node"><title>Node22</title>
<polygon fill="white" stroke="#bfbfbf" points="511.5,-56.5 511.5,-75.5 568.5,-75.5 568.5,-56.5 511.5,-56.5"/>
<text text-anchor="middle" x="540" y="-63.5" font-family="Helvetica,sans-Serif" font-size="10.00">memory</text>
</g>
<!-- Node17&#45;&gt;Node22 -->
<g id="edge25" class="edge"><title>Node17&#45;&gt;Node22</title>
<path fill="none" stroke="midnightblue" d="M616.379,-112.324C602.051,-103.822 579.987,-90.7288 563.251,-80.7975"/>
<polygon fill="midnightblue" stroke="midnightblue" points="564.97,-77.7478 554.584,-75.6545 561.398,-83.7677 564.97,-77.7478"/>
</g>
<!-- Node23 -->
<g id="node24" class="node"><title>Node23</title>
<polygon fill="white" stroke="#bfbfbf" points="587,-56.5 587,-75.5 617,-75.5 617,-56.5 587,-56.5"/>
<text text-anchor="middle" x="602" y="-63.5" font-family="Helvetica,sans-Serif" font-size="10.00">list</text>
</g>
<!-- Node17&#45;&gt;Node23 -->
<g id="edge26" class="edge"><title>Node17&#45;&gt;Node23</title>
<path fill="none" stroke="midnightblue" d="M626.211,-112.083C622.242,-104.691 616.475,-93.9533 611.565,-84.8111"/>
<polygon fill="midnightblue" stroke="midnightblue" points="614.514,-82.9051 606.7,-75.7511 608.347,-86.217 614.514,-82.9051"/>
</g>
<!-- Node24 -->
<g id="node25" class="node"><title>Node24</title>
<polygon fill="white" stroke="#bfbfbf" points="635,-56.5 635,-75.5 687,-75.5 687,-56.5 635,-56.5"/>
<text text-anchor="middle" x="661" y="-63.5" font-family="Helvetica,sans-Serif" font-size="10.00">cassert</text>
</g>
<!-- Node17&#45;&gt;Node24 -->
<g id="edge29" class="edge"><title>Node17&#45;&gt;Node24</title>
<path fill="none" stroke="midnightblue" d="M635.954,-112.083C640.104,-104.613 646.153,-93.7244 651.267,-84.5199"/>
<polygon fill="midnightblue" stroke="midnightblue" points="654.341,-86.1924 656.138,-75.7511 648.222,-82.7929 654.341,-86.1924"/>
</g>
<!-- Node25 -->
<g id="node26" class="node"><title>Node25</title>
<polygon fill="white" stroke="#bfbfbf" points="705,-56.5 705,-75.5 761,-75.5 761,-56.5 705,-56.5"/>
<text text-anchor="middle" x="733" y="-63.5" font-family="Helvetica,sans-Serif" font-size="10.00">numeric</text>
</g>
<!-- Node17&#45;&gt;Node25 -->
<g id="edge30" class="edge"><title>Node17&#45;&gt;Node25</title>
<path fill="none" stroke="midnightblue" d="M647.388,-112.324C663.671,-103.703 688.867,-90.3643 707.716,-80.3855"/>
<polygon fill="midnightblue" stroke="midnightblue" points="709.452,-83.4267 716.653,-75.6545 706.177,-77.2402 709.452,-83.4267"/>
</g>
<!-- Node26 -->
<g id="node27" class="node"><title>Node26</title>
<polygon fill="white" stroke="#bfbfbf" points="779,-56.5 779,-75.5 847,-75.5 847,-56.5 779,-56.5"/>
<text text-anchor="middle" x="813" y="-63.5" font-family="Helvetica,sans-Serif" font-size="10.00">type_traits</text>
</g>
<!-- Node17&#45;&gt;Node26 -->
<g id="edge31" class="edge"><title>Node17&#45;&gt;Node26</title>
<path fill="none" stroke="midnightblue" d="M653.682,-114.27C683.906,-105.303 737.825,-89.3048 774.481,-78.4286"/>
<polygon fill="midnightblue" stroke="midnightblue" points="775.737,-81.7069 784.329,-75.5069 773.746,-74.996 775.737,-81.7069"/>
</g>
<!-- Node20 -->
<g id="node21" class="node"><title>Node20</title>
<polygon fill="white" stroke="#bfbfbf" points="857,-0.5 857,-19.5 909,-19.5 909,-0.5 857,-0.5"/>
<text text-anchor="middle" x="883" y="-7.5" font-family="Helvetica,sans-Serif" font-size="10.00">cstddef</text>
</g>
<!-- Node19&#45;&gt;Node20 -->
<g id="edge23" class="edge"><title>Node19&#45;&gt;Node20</title>
<path fill="none" stroke="midnightblue" d="M910.551,-56.083C905.986,-48.6127 899.332,-37.7244 893.707,-28.5199"/>
<polygon fill="midnightblue" stroke="midnightblue" points="896.549,-26.4588 888.348,-19.7511 890.576,-30.109 896.549,-26.4588"/>
</g>
<!-- Node21 -->
<g id="node22" class="node"><title>Node21</title>
<polygon fill="white" stroke="#bfbfbf" points="927.5,-0.5 927.5,-19.5 968.5,-19.5 968.5,-0.5 927.5,-0.5"/>
<text text-anchor="middle" x="948" y="-7.5" font-family="Helvetica,sans-Serif" font-size="10.00">tuple</text>
</g>
<!-- Node19&#45;&gt;Node21 -->
<g id="edge24" class="edge"><title>Node19&#45;&gt;Node21</title>
<path fill="none" stroke="midnightblue" d="M921.284,-56.083C925.711,-48.6127 932.163,-37.7244 937.618,-28.5199"/>
<polygon fill="midnightblue" stroke="midnightblue" points="940.727,-30.1383 942.814,-19.7511 934.705,-26.5697 940.727,-30.1383"/>
</g>
</g>
</svg>
