<?xml version="1.0" encoding="UTF-8" standalone="no"?>
<!DOCTYPE svg PUBLIC "-//W3C//DTD SVG 1.1//EN"
 "http://www.w3.org/Graphics/SVG/1.1/DTD/svg11.dtd">
<!-- Generated by graphviz version 2.38.0 (20140413.2041)
 -->
<!-- Title: src/unpacker/RawFileReader.h Pages: 1 -->
<svg width="1244pt" height="95pt"
 viewBox="0.00 0.00 1243.50 95.00" xmlns="http://www.w3.org/2000/svg" xmlns:xlink="http://www.w3.org/1999/xlink">
<g id="graph0" class="graph" transform="scale(1 1) rotate(0) translate(4 91)">
<title>src/unpacker/RawFileReader.h</title>
<polygon fill="white" stroke="none" points="-4,4 -4,-91 1239.5,-91 1239.5,4 -4,4"/>
<!-- Node11 -->
<g id="node1" class="node"><title>Node11</title>
<polygon fill="#bfbfbf" stroke="black" points="451.5,-67.5 451.5,-86.5 607.5,-86.5 607.5,-67.5 451.5,-67.5"/>
<text text-anchor="middle" x="529.5" y="-74.5" font-family="Helvetica,sans-Serif" font-size="10.00">src/unpacker/RawFileReader.h</text>
</g>
<!-- Node12 -->
<g id="node2" class="node"><title>Node12</title>
<g id="a_node2"><a xlink:href="_ant-fake_raw_8cc.html" target="_top" xlink:title="progs/Ant&#45;fakeRaw.cc">
<polygon fill="white" stroke="black" points="0,-6 0,-25 119,-25 119,-6 0,-6"/>
<text text-anchor="middle" x="59.5" y="-13" font-family="Helvetica,sans-Serif" font-size="10.00">progs/Ant&#45;fakeRaw.cc</text>
</a>
</g>
</g>
<!-- Node11&#45;&gt;Node12 -->
<g id="edge1" class="edge"><title>Node11&#45;&gt;Node12</title>
<path fill="none" stroke="midnightblue" d="M441.133,-68.6332C359.454,-61.2266 234.863,-48.4124 127.5,-31 117.372,-29.3574 106.473,-27.2071 96.4315,-25.0672"/>
<polygon fill="midnightblue" stroke="midnightblue" points="441.1,-72.1443 451.373,-69.5538 441.727,-65.1724 441.1,-72.1443"/>
</g>
<!-- Node13 -->
<g id="node3" class="node"><title>Node13</title>
<g id="a_node3"><a xlink:href="_ant-rawdump_8cc.html" target="_top" xlink:title="progs/Ant&#45;rawdump.cc">
<polygon fill="white" stroke="black" points="137,-6 137,-25 262,-25 262,-6 137,-6"/>
<text text-anchor="middle" x="199.5" y="-13" font-family="Helvetica,sans-Serif" font-size="10.00">progs/Ant&#45;rawdump.cc</text>
</a>
</g>
</g>
<!-- Node11&#45;&gt;Node13 -->
<g id="edge2" class="edge"><title>Node11&#45;&gt;Node13</title>
<path fill="none" stroke="midnightblue" d="M467.657,-65.7809C415.127,-56.9749 337.768,-43.7098 270.5,-31 260.734,-29.1548 250.234,-27.0676 240.383,-25.0634"/>
<polygon fill="midnightblue" stroke="midnightblue" points="467.381,-69.2833 477.821,-67.4812 468.536,-62.3792 467.381,-69.2833"/>
</g>
<!-- Node14 -->
<g id="node4" class="node"><title>Node14</title>
<g id="a_node4"><a xlink:href="_ant_8cc.html" target="_top" xlink:title="Main Ant executable. ">
<polygon fill="white" stroke="black" points="280,-6 280,-25 357,-25 357,-6 280,-6"/>
<text text-anchor="middle" x="318.5" y="-13" font-family="Helvetica,sans-Serif" font-size="10.00">progs/Ant.cc</text>
</a>
</g>
</g>
<!-- Node11&#45;&gt;Node14 -->
<g id="edge3" class="edge"><title>Node11&#45;&gt;Node14</title>
<path fill="none" stroke="midnightblue" d="M487.822,-64.7896C454.842,-55.8475 407.65,-42.8936 366.5,-31 359.977,-29.1146 352.973,-27.032 346.386,-25.0474"/>
<polygon fill="midnightblue" stroke="midnightblue" points="487.011,-68.1961 497.578,-67.4303 488.84,-61.4392 487.011,-68.1961"/>
</g>
<!-- Node15 -->
<g id="node5" class="node"><title>Node15</title>
<g id="a_node5"><a xlink:href="_unpacker_acqu__detail_8cc.html" target="_top" xlink:title="src/unpacker/detail\l/UnpackerAcqu_detail.cc">
<polygon fill="white" stroke="black" points="375.5,-0.5 375.5,-30.5 509.5,-30.5 509.5,-0.5 375.5,-0.5"/>
<text text-anchor="start" x="383.5" y="-18.5" font-family="Helvetica,sans-Serif" font-size="10.00">src/unpacker/detail</text>
<text text-anchor="middle" x="442.5" y="-7.5" font-family="Helvetica,sans-Serif" font-size="10.00">/UnpackerAcqu_detail.cc</text>
</a>
</g>
</g>
<!-- Node11&#45;&gt;Node15 -->
<g id="edge4" class="edge"><title>Node11&#45;&gt;Node15</title>
<path fill="none" stroke="midnightblue" d="M508.648,-61.739C494.821,-52.2824 476.76,-39.9304 463.004,-30.523"/>
<polygon fill="midnightblue" stroke="midnightblue" points="506.805,-64.7189 517.035,-67.4751 510.757,-58.9409 506.805,-64.7189"/>
</g>
<!-- Node16 -->
<g id="node6" class="node"><title>Node16</title>
<g id="a_node6"><a xlink:href="_unpacker_acqu___file_format_mk1_8cc.html" target="_top" xlink:title="src/unpacker/detail\l/UnpackerAcqu_FileFormatMk1.cc">
<polygon fill="white" stroke="black" points="528,-0.5 528,-30.5 705,-30.5 705,-0.5 528,-0.5"/>
<text text-anchor="start" x="536" y="-18.5" font-family="Helvetica,sans-Serif" font-size="10.00">src/unpacker/detail</text>
<text text-anchor="middle" x="616.5" y="-7.5" font-family="Helvetica,sans-Serif" font-size="10.00">/UnpackerAcqu_FileFormatMk1.cc</text>
</a>
</g>
</g>
<!-- Node11&#45;&gt;Node16 -->
<g id="edge5" class="edge"><title>Node11&#45;&gt;Node16</title>
<path fill="none" stroke="midnightblue" d="M550.352,-61.739C564.179,-52.2824 582.24,-39.9304 595.996,-30.523"/>
<polygon fill="midnightblue" stroke="midnightblue" points="548.243,-58.9409 541.965,-67.4751 552.195,-64.7189 548.243,-58.9409"/>
</g>
<!-- Node17 -->
<g id="node7" class="node"><title>Node17</title>
<g id="a_node7"><a xlink:href="_unpacker_acqu___file_format_mk2_8cc.html" target="_top" xlink:title="src/unpacker/detail\l/UnpackerAcqu_FileFormatMk2.cc">
<polygon fill="white" stroke="black" points="723,-0.5 723,-30.5 900,-30.5 900,-0.5 723,-0.5"/>
<text text-anchor="start" x="731" y="-18.5" font-family="Helvetica,sans-Serif" font-size="10.00">src/unpacker/detail</text>
<text text-anchor="middle" x="811.5" y="-7.5" font-family="Helvetica,sans-Serif" font-size="10.00">/UnpackerAcqu_FileFormatMk2.cc</text>
</a>
</g>
</g>
<!-- Node11&#45;&gt;Node17 -->
<g id="edge6" class="edge"><title>Node11&#45;&gt;Node17</title>
<path fill="none" stroke="midnightblue" d="M579.96,-65.3533C626.05,-55.6287 694.507,-41.1847 745.038,-30.523"/>
<polygon fill="midnightblue" stroke="midnightblue" points="578.966,-61.9859 569.904,-67.4751 580.411,-68.8351 578.966,-61.9859"/>
</g>
<!-- Node18 -->
<g id="node8" class="node"><title>Node18</title>
<g id="a_node8"><a xlink:href="_raw_file_reader_8cc.html" target="_top" xlink:title="src/unpacker/RawFileReader.cc">
<polygon fill="white" stroke="black" points="918,-6 918,-25 1079,-25 1079,-6 918,-6"/>
<text text-anchor="middle" x="998.5" y="-13" font-family="Helvetica,sans-Serif" font-size="10.00">src/unpacker/RawFileReader.cc</text>
</a>
</g>
</g>
<!-- Node11&#45;&gt;Node18 -->
<g id="edge7" class="edge"><title>Node11&#45;&gt;Node18</title>
<path fill="none" stroke="midnightblue" d="M617.653,-66.6634C694.76,-58.2336 809.709,-45.0309 909.5,-31 922.212,-29.2126 935.912,-27.0826 948.663,-25.0128"/>
<polygon fill="midnightblue" stroke="midnightblue" points="617.062,-63.2069 607.5,-67.7696 617.821,-70.1657 617.062,-63.2069"/>
</g>
<!-- Node19 -->
<g id="node9" class="node"><title>Node19</title>
<g id="a_node9"><a xlink:href="_test_raw_file_reader_8cc.html" target="_top" xlink:title="test/unpacker/TestRawFile\lReader.cc">
<polygon fill="white" stroke="black" points="1097.5,-0.5 1097.5,-30.5 1235.5,-30.5 1235.5,-0.5 1097.5,-0.5"/>
<text text-anchor="start" x="1105.5" y="-18.5" font-family="Helvetica,sans-Serif" font-size="10.00">test/unpacker/TestRawFile</text>
<text text-anchor="middle" x="1166.5" y="-7.5" font-family="Helvetica,sans-Serif" font-size="10.00">Reader.cc</text>
</a>
</g>
</g>
<!-- Node11&#45;&gt;Node19 -->
<g id="edge8" class="edge"><title>Node11&#45;&gt;Node19</title>
<path fill="none" stroke="midnightblue" d="M617.63,-71.7297C728.031,-65.732 922.841,-53.0057 1088.5,-31 1091.37,-30.6191 1094.29,-30.2032 1097.24,-29.7604"/>
<polygon fill="midnightblue" stroke="midnightblue" points="617.339,-68.2403 607.541,-72.2719 617.714,-75.2302 617.339,-68.2403"/>
</g>
</g>
</svg>
