<?xml version="1.0" encoding="UTF-8" standalone="no"?>
<!DOCTYPE svg PUBLIC "-//W3C//DTD SVG 1.1//EN"
 "http://www.w3.org/Graphics/SVG/1.1/DTD/svg11.dtd">
<!-- Generated by graphviz version 2.38.0 (20140413.2041)
 -->
<!-- Title: src/reconstruct/Reconstruct.h Pages: 1 -->
<svg width="1306pt" height="319pt"
 viewBox="0.00 0.00 1305.52 319.00" xmlns="http://www.w3.org/2000/svg" xmlns:xlink="http://www.w3.org/1999/xlink">
<g id="graph0" class="graph" transform="scale(1 1) rotate(0) translate(4 315)">
<title>src/reconstruct/Reconstruct.h</title>
<polygon fill="white" stroke="none" points="-4,4 -4,-315 1301.52,-315 1301.52,4 -4,4"/>
<!-- Node0 -->
<g id="node1" class="node"><title>Node0</title>
<polygon fill="#bfbfbf" stroke="black" points="960,-291.5 960,-310.5 1117,-310.5 1117,-291.5 960,-291.5"/>
<text text-anchor="middle" x="1038.5" y="-298.5" font-family="Helvetica,sans-Serif" font-size="10.00">src/reconstruct/Reconstruct.h</text>
</g>
<!-- Node1 -->
<g id="node2" class="node"><title>Node1</title>
<polygon fill="white" stroke="#bfbfbf" points="1010,-56.5 1010,-75.5 1067,-75.5 1067,-56.5 1010,-56.5"/>
<text text-anchor="middle" x="1038.5" y="-63.5" font-family="Helvetica,sans-Serif" font-size="10.00">memory</text>
</g>
<!-- Node0&#45;&gt;Node1 -->
<g id="edge1" class="edge"><title>Node0&#45;&gt;Node1</title>
<path fill="none" stroke="midnightblue" d="M1069.1,-291.496C1149.09,-267.828 1353.49,-197.283 1282.5,-112 1256.84,-81.1738 1139.39,-71.3834 1077.28,-68.3365"/>
<polygon fill="midnightblue" stroke="midnightblue" points="1077.23,-64.8308 1067.08,-67.8727 1076.91,-71.8236 1077.23,-64.8308"/>
</g>
<!-- Node2 -->
<g id="node3" class="node"><title>Node2</title>
<polygon fill="white" stroke="#bfbfbf" points="854.5,-56.5 854.5,-75.5 884.5,-75.5 884.5,-56.5 854.5,-56.5"/>
<text text-anchor="middle" x="869.5" y="-63.5" font-family="Helvetica,sans-Serif" font-size="10.00">list</text>
</g>
<!-- Node0&#45;&gt;Node2 -->
<g id="edge2" class="edge"><title>Node0&#45;&gt;Node2</title>
<path fill="none" stroke="midnightblue" d="M973.158,-291.493C917.134,-280.447 839.346,-255.372 799.5,-199 777.158,-167.391 776.529,-145.74 795.5,-112 805.973,-93.3746 827.621,-81.5608 844.811,-74.7356"/>
<polygon fill="midnightblue" stroke="midnightblue" points="846.101,-77.991 854.299,-71.2798 843.705,-71.4137 846.101,-77.991"/>
</g>
<!-- Node3 -->
<g id="node4" class="node"><title>Node3</title>
<g id="a_node4"><a xlink:href="_reconstruct__traits_8h.html" target="_top" xlink:title="Reconstruct_traits.h">
<polygon fill="white" stroke="black" points="982.5,-235.5 982.5,-254.5 1094.5,-254.5 1094.5,-235.5 982.5,-235.5"/>
<text text-anchor="middle" x="1038.5" y="-242.5" font-family="Helvetica,sans-Serif" font-size="10.00">Reconstruct_traits.h</text>
</a>
</g>
</g>
<!-- Node0&#45;&gt;Node3 -->
<g id="edge3" class="edge"><title>Node0&#45;&gt;Node3</title>
<path fill="none" stroke="midnightblue" d="M1038.5,-291.083C1038.5,-284.006 1038.5,-273.861 1038.5,-264.986"/>
<polygon fill="midnightblue" stroke="midnightblue" points="1042,-264.751 1038.5,-254.751 1035,-264.751 1042,-264.751"/>
</g>
<!-- Node3&#45;&gt;Node1 -->
<g id="edge33" class="edge"><title>Node3&#45;&gt;Node1</title>
<path fill="none" stroke="midnightblue" d="M1038.5,-235.463C1038.5,-208.428 1038.5,-124.239 1038.5,-86.109"/>
<polygon fill="midnightblue" stroke="midnightblue" points="1042,-85.8683 1038.5,-75.8684 1035,-85.8684 1042,-85.8683"/>
</g>
<!-- Node3&#45;&gt;Node2 -->
<g id="edge35" class="edge"><title>Node3&#45;&gt;Node2</title>
<path fill="none" stroke="midnightblue" d="M1033.84,-235.401C1021.39,-212.969 985.322,-151.67 942.5,-112 927.986,-98.5543 908.869,-86.9419 893.84,-78.8827"/>
<polygon fill="midnightblue" stroke="midnightblue" points="895.131,-75.6102 884.643,-74.1162 891.91,-81.8251 895.131,-75.6102"/>
</g>
<!-- Node4 -->
<g id="node5" class="node"><title>Node4</title>
<g id="a_node5"><a xlink:href="_detector__t_8h.html" target="_top" xlink:title="base/Detector_t.h">
<polygon fill="white" stroke="black" points="366,-174 366,-193 469,-193 469,-174 366,-174"/>
<text text-anchor="middle" x="417.5" y="-181" font-family="Helvetica,sans-Serif" font-size="10.00">base/Detector_t.h</text>
</a>
</g>
</g>
<!-- Node3&#45;&gt;Node4 -->
<g id="edge4" class="edge"><title>Node3&#45;&gt;Node4</title>
<path fill="none" stroke="midnightblue" d="M982.295,-238.615C866.107,-227.482 600.253,-202.01 479.371,-190.428"/>
<polygon fill="midnightblue" stroke="midnightblue" points="479.466,-186.921 469.178,-189.451 478.798,-193.889 479.466,-186.921"/>
</g>
<!-- Node18 -->
<g id="node19" class="node"><title>Node18</title>
<g id="a_node19"><a xlink:href="mapped__vectors_8h.html" target="_top" xlink:title="base/std_ext/mapped\l_vectors.h">
<polygon fill="white" stroke="black" points="809,-168.5 809,-198.5 930,-198.5 930,-168.5 809,-168.5"/>
<text text-anchor="start" x="817" y="-186.5" font-family="Helvetica,sans-Serif" font-size="10.00">base/std_ext/mapped</text>
<text text-anchor="middle" x="869.5" y="-175.5" font-family="Helvetica,sans-Serif" font-size="10.00">_vectors.h</text>
</a>
</g>
</g>
<!-- Node3&#45;&gt;Node18 -->
<g id="edge21" class="edge"><title>Node3&#45;&gt;Node18</title>
<path fill="none" stroke="midnightblue" d="M1014.29,-235.475C989.473,-226.739 950.186,-212.907 918.794,-201.855"/>
<polygon fill="midnightblue" stroke="midnightblue" points="919.925,-198.543 909.33,-198.523 917.6,-205.145 919.925,-198.543"/>
</g>
<!-- Node20 -->
<g id="node21" class="node"><title>Node20</title>
<g id="a_node21"><a xlink:href="shared__ptr__container_8h.html" target="_top" xlink:title="base/std_ext/shared\l_ptr_container.h">
<polygon fill="white" stroke="black" points="1122.5,-168.5 1122.5,-198.5 1236.5,-198.5 1236.5,-168.5 1122.5,-168.5"/>
<text text-anchor="start" x="1130.5" y="-186.5" font-family="Helvetica,sans-Serif" font-size="10.00">base/std_ext/shared</text>
<text text-anchor="middle" x="1179.5" y="-175.5" font-family="Helvetica,sans-Serif" font-size="10.00">_ptr_container.h</text>
</a>
</g>
</g>
<!-- Node3&#45;&gt;Node20 -->
<g id="edge28" class="edge"><title>Node3&#45;&gt;Node20</title>
<path fill="none" stroke="midnightblue" d="M1058.7,-235.475C1079.05,-226.889 1111.06,-213.383 1137.01,-202.429"/>
<polygon fill="midnightblue" stroke="midnightblue" points="1138.42,-205.636 1146.27,-198.523 1135.7,-199.186 1138.42,-205.636"/>
</g>
<!-- Node21 -->
<g id="node22" class="node"><title>Node21</title>
<polygon fill="white" stroke="#bfbfbf" points="1210,-112.5 1210,-131.5 1273,-131.5 1273,-112.5 1210,-112.5"/>
<text text-anchor="middle" x="1241.5" y="-119.5" font-family="Helvetica,sans-Serif" font-size="10.00">functional</text>
</g>
<!-- Node3&#45;&gt;Node21 -->
<g id="edge36" class="edge"><title>Node3&#45;&gt;Node21</title>
<path fill="none" stroke="midnightblue" d="M1094.68,-239.584C1149.36,-233.98 1226.86,-222.122 1245.5,-199 1258.42,-182.966 1254.13,-158.285 1248.79,-141.429"/>
<polygon fill="midnightblue" stroke="midnightblue" points="1251.96,-139.895 1245.3,-131.652 1245.37,-142.247 1251.96,-139.895"/>
</g>
<!-- Node23 -->
<g id="node24" class="node"><title>Node23</title>
<polygon fill="white" stroke="#bfbfbf" points="1066.5,-174 1066.5,-193 1104.5,-193 1104.5,-174 1066.5,-174"/>
<text text-anchor="middle" x="1085.5" y="-181" font-family="Helvetica,sans-Serif" font-size="10.00">map</text>
</g>
<!-- Node3&#45;&gt;Node23 -->
<g id="edge34" class="edge"><title>Node3&#45;&gt;Node23</title>
<path fill="none" stroke="midnightblue" d="M1045.23,-235.475C1052.28,-226.55 1063.53,-212.307 1072.35,-201.143"/>
<polygon fill="midnightblue" stroke="midnightblue" points="1075.33,-203.026 1078.78,-193.009 1069.83,-198.687 1075.33,-203.026"/>
</g>
<!-- Node5 -->
<g id="node6" class="node"><title>Node5</title>
<g id="a_node6"><a xlink:href="bitflag_8h.html" target="_top" xlink:title="base/bitflag.h">
<polygon fill="white" stroke="black" points="0,-112.5 0,-131.5 81,-131.5 81,-112.5 0,-112.5"/>
<text text-anchor="middle" x="40.5" y="-119.5" font-family="Helvetica,sans-Serif" font-size="10.00">base/bitflag.h</text>
</a>
</g>
</g>
<!-- Node4&#45;&gt;Node5 -->
<g id="edge5" class="edge"><title>Node4&#45;&gt;Node5</title>
<path fill="none" stroke="midnightblue" d="M365.87,-174.352C293.6,-162.945 163.092,-142.348 91.2806,-131.014"/>
<polygon fill="midnightblue" stroke="midnightblue" points="91.5487,-127.514 81.1253,-129.412 90.4574,-134.428 91.5487,-127.514"/>
</g>
<!-- Node7 -->
<g id="node8" class="node"><title>Node7</title>
<g id="a_node8"><a xlink:href="vec3_8h.html" target="_top" xlink:title="base/vec/vec3.h">
<polygon fill="white" stroke="black" points="108.5,-112.5 108.5,-131.5 202.5,-131.5 202.5,-112.5 108.5,-112.5"/>
<text text-anchor="middle" x="155.5" y="-119.5" font-family="Helvetica,sans-Serif" font-size="10.00">base/vec/vec3.h</text>
</a>
</g>
</g>
<!-- Node4&#45;&gt;Node7 -->
<g id="edge7" class="edge"><title>Node4&#45;&gt;Node7</title>
<path fill="none" stroke="midnightblue" d="M379.962,-173.975C333.269,-163.371 253.52,-145.26 202.723,-133.724"/>
<polygon fill="midnightblue" stroke="midnightblue" points="203.495,-130.311 192.969,-131.509 201.945,-137.137 203.495,-130.311"/>
</g>
<!-- Node11 -->
<g id="node12" class="node"><title>Node11</title>
<g id="a_node12"><a xlink:href="base_2std__ext_2math_8h.html" target="_top" xlink:title="base/std_ext/math.h">
<polygon fill="white" stroke="black" points="220.5,-112.5 220.5,-131.5 336.5,-131.5 336.5,-112.5 220.5,-112.5"/>
<text text-anchor="middle" x="278.5" y="-119.5" font-family="Helvetica,sans-Serif" font-size="10.00">base/std_ext/math.h</text>
</a>
</g>
</g>
<!-- Node4&#45;&gt;Node11 -->
<g id="edge12" class="edge"><title>Node4&#45;&gt;Node11</title>
<path fill="none" stroke="midnightblue" d="M397.585,-173.975C374.051,-163.901 334.69,-147.053 307.707,-135.502"/>
<polygon fill="midnightblue" stroke="midnightblue" points="308.949,-132.227 298.378,-131.509 306.194,-138.662 308.949,-132.227"/>
</g>
<!-- Node13 -->
<g id="node14" class="node"><title>Node13</title>
<polygon fill="white" stroke="#bfbfbf" points="533,-56.5 533,-75.5 580,-75.5 580,-56.5 533,-56.5"/>
<text text-anchor="middle" x="556.5" y="-63.5" font-family="Helvetica,sans-Serif" font-size="10.00">vector</text>
</g>
<!-- Node4&#45;&gt;Node13 -->
<g id="edge20" class="edge"><title>Node4&#45;&gt;Node13</title>
<path fill="none" stroke="midnightblue" d="M407.315,-173.601C392.462,-159.547 368.207,-131.78 383.5,-112 400.406,-90.1336 477.542,-76.9103 522.906,-70.8887"/>
<polygon fill="midnightblue" stroke="midnightblue" points="523.411,-74.3528 532.886,-69.6119 522.522,-67.4094 523.411,-74.3528"/>
</g>
<!-- Node14 -->
<g id="node15" class="node"><title>Node14</title>
<polygon fill="white" stroke="#bfbfbf" points="393,-112.5 393,-131.5 442,-131.5 442,-112.5 393,-112.5"/>
<text text-anchor="middle" x="417.5" y="-119.5" font-family="Helvetica,sans-Serif" font-size="10.00">cstdint</text>
</g>
<!-- Node4&#45;&gt;Node14 -->
<g id="edge16" class="edge"><title>Node4&#45;&gt;Node14</title>
<path fill="none" stroke="midnightblue" d="M417.5,-173.975C417.5,-165.58 417.5,-152.481 417.5,-141.663"/>
<polygon fill="midnightblue" stroke="midnightblue" points="421,-141.509 417.5,-131.509 414,-141.509 421,-141.509"/>
</g>
<!-- Node15 -->
<g id="node16" class="node"><title>Node15</title>
<polygon fill="white" stroke="#bfbfbf" points="460.5,-112.5 460.5,-131.5 524.5,-131.5 524.5,-112.5 460.5,-112.5"/>
<text text-anchor="middle" x="492.5" y="-119.5" font-family="Helvetica,sans-Serif" font-size="10.00">stdexcept</text>
</g>
<!-- Node4&#45;&gt;Node15 -->
<g id="edge17" class="edge"><title>Node4&#45;&gt;Node15</title>
<path fill="none" stroke="midnightblue" d="M428.246,-173.975C440.053,-164.608 459.243,-149.384 473.582,-138.008"/>
<polygon fill="midnightblue" stroke="midnightblue" points="476.115,-140.466 481.774,-131.509 471.765,-134.982 476.115,-140.466"/>
</g>
<!-- Node16 -->
<g id="node17" class="node"><title>Node16</title>
<polygon fill="white" stroke="#bfbfbf" points="542.5,-112.5 542.5,-131.5 586.5,-131.5 586.5,-112.5 542.5,-112.5"/>
<text text-anchor="middle" x="564.5" y="-119.5" font-family="Helvetica,sans-Serif" font-size="10.00">string</text>
</g>
<!-- Node4&#45;&gt;Node16 -->
<g id="edge18" class="edge"><title>Node4&#45;&gt;Node16</title>
<path fill="none" stroke="midnightblue" d="M438.562,-173.975C463.559,-163.857 505.442,-146.905 533.987,-135.351"/>
<polygon fill="midnightblue" stroke="midnightblue" points="535.521,-138.505 543.478,-131.509 532.895,-132.017 535.521,-138.505"/>
</g>
<!-- Node17 -->
<g id="node18" class="node"><title>Node17</title>
<polygon fill="white" stroke="#bfbfbf" points="604.5,-112.5 604.5,-131.5 672.5,-131.5 672.5,-112.5 604.5,-112.5"/>
<text text-anchor="middle" x="638.5" y="-119.5" font-family="Helvetica,sans-Serif" font-size="10.00">type_traits</text>
</g>
<!-- Node4&#45;&gt;Node17 -->
<g id="edge19" class="edge"><title>Node4&#45;&gt;Node17</title>
<path fill="none" stroke="midnightblue" d="M449.164,-173.975C488.058,-163.504 554.142,-145.712 597.048,-134.16"/>
<polygon fill="midnightblue" stroke="midnightblue" points="598.149,-137.489 606.895,-131.509 596.329,-130.729 598.149,-137.489"/>
</g>
<!-- Node6 -->
<g id="node7" class="node"><title>Node6</title>
<polygon fill="white" stroke="#bfbfbf" points="10.5,-56.5 10.5,-75.5 54.5,-75.5 54.5,-56.5 10.5,-56.5"/>
<text text-anchor="middle" x="32.5" y="-63.5" font-family="Helvetica,sans-Serif" font-size="10.00">bitset</text>
</g>
<!-- Node5&#45;&gt;Node6 -->
<g id="edge6" class="edge"><title>Node5&#45;&gt;Node6</title>
<path fill="none" stroke="midnightblue" d="M39.179,-112.083C38.1189,-104.927 36.5941,-94.6353 35.2691,-85.6911"/>
<polygon fill="midnightblue" stroke="midnightblue" points="38.7242,-85.1302 33.7965,-75.7511 31.7998,-86.1561 38.7242,-85.1302"/>
</g>
<!-- Node8 -->
<g id="node9" class="node"><title>Node8</title>
<g id="a_node9"><a xlink:href="vec2_8h.html" target="_top" xlink:title="vec2.h">
<polygon fill="white" stroke="black" points="148.5,-56.5 148.5,-75.5 196.5,-75.5 196.5,-56.5 148.5,-56.5"/>
<text text-anchor="middle" x="172.5" y="-63.5" font-family="Helvetica,sans-Serif" font-size="10.00">vec2.h</text>
</a>
</g>
</g>
<!-- Node7&#45;&gt;Node8 -->
<g id="edge8" class="edge"><title>Node7&#45;&gt;Node8</title>
<path fill="none" stroke="midnightblue" d="M158.307,-112.083C160.585,-104.849 163.871,-94.4087 166.708,-85.3968"/>
<polygon fill="midnightblue" stroke="midnightblue" points="170.081,-86.3406 169.745,-75.7511 163.404,-84.2385 170.081,-86.3406"/>
</g>
<!-- Node9 -->
<g id="node10" class="node"><title>Node9</title>
<polygon fill="white" stroke="#bfbfbf" points="201,-0.5 201,-19.5 248,-19.5 248,-0.5 201,-0.5"/>
<text text-anchor="middle" x="224.5" y="-7.5" font-family="Helvetica,sans-Serif" font-size="10.00">cmath</text>
</g>
<!-- Node7&#45;&gt;Node9 -->
<g id="edge11" class="edge"><title>Node7&#45;&gt;Node9</title>
<path fill="none" stroke="midnightblue" d="M168.874,-112.195C180.197,-104.075 196.053,-91.0287 205.5,-76 214.397,-61.847 219.272,-43.3638 221.848,-29.7266"/>
<polygon fill="midnightblue" stroke="midnightblue" points="225.342,-30.0477 223.51,-19.6126 218.435,-28.913 225.342,-30.0477"/>
</g>
<!-- Node10 -->
<g id="node11" class="node"><title>Node10</title>
<polygon fill="white" stroke="#bfbfbf" points="73,-56.5 73,-75.5 130,-75.5 130,-56.5 73,-56.5"/>
<text text-anchor="middle" x="101.5" y="-63.5" font-family="Helvetica,sans-Serif" font-size="10.00">ostream</text>
</g>
<!-- Node7&#45;&gt;Node10 -->
<g id="edge10" class="edge"><title>Node7&#45;&gt;Node10</title>
<path fill="none" stroke="midnightblue" d="M146.583,-112.083C138.72,-104.22 127.069,-92.5688 117.581,-83.0813"/>
<polygon fill="midnightblue" stroke="midnightblue" points="119.797,-80.3473 110.251,-75.7511 114.847,-85.2971 119.797,-80.3473"/>
</g>
<!-- Node8&#45;&gt;Node9 -->
<g id="edge9" class="edge"><title>Node8&#45;&gt;Node9</title>
<path fill="none" stroke="midnightblue" d="M181.087,-56.083C188.659,-48.2195 199.878,-36.5688 209.014,-27.0813"/>
<polygon fill="midnightblue" stroke="midnightblue" points="211.658,-29.3821 216.073,-19.7511 206.615,-24.5266 211.658,-29.3821"/>
</g>
<!-- Node11&#45;&gt;Node9 -->
<g id="edge13" class="edge"><title>Node11&#45;&gt;Node9</title>
<path fill="none" stroke="midnightblue" d="M274.263,-112.368C265.43,-94.376 244.897,-52.5503 233.153,-28.6267"/>
<polygon fill="midnightblue" stroke="midnightblue" points="236.266,-27.0257 228.718,-19.5914 229.983,-30.1105 236.266,-27.0257"/>
</g>
<!-- Node12 -->
<g id="node13" class="node"><title>Node12</title>
<polygon fill="white" stroke="#bfbfbf" points="290.5,-56.5 290.5,-75.5 332.5,-75.5 332.5,-56.5 290.5,-56.5"/>
<text text-anchor="middle" x="311.5" y="-63.5" font-family="Helvetica,sans-Serif" font-size="10.00">limits</text>
</g>
<!-- Node11&#45;&gt;Node12 -->
<g id="edge14" class="edge"><title>Node11&#45;&gt;Node12</title>
<path fill="none" stroke="midnightblue" d="M283.949,-112.083C288.514,-104.613 295.168,-93.7244 300.793,-84.5199"/>
<polygon fill="midnightblue" stroke="midnightblue" points="303.924,-86.109 306.152,-75.7511 297.951,-82.4588 303.924,-86.109"/>
</g>
<!-- Node11&#45;&gt;Node13 -->
<g id="edge15" class="edge"><title>Node11&#45;&gt;Node13</title>
<path fill="none" stroke="midnightblue" d="M322.55,-112.444C378.152,-101.643 472.581,-83.3007 522.782,-73.5495"/>
<polygon fill="midnightblue" stroke="midnightblue" points="523.644,-76.9476 532.793,-71.6049 522.309,-70.076 523.644,-76.9476"/>
</g>
<!-- Node18&#45;&gt;Node1 -->
<g id="edge26" class="edge"><title>Node18&#45;&gt;Node1</title>
<path fill="none" stroke="midnightblue" d="M890.223,-168.337C922.61,-146.203 984.883,-103.644 1017.46,-81.3777"/>
<polygon fill="midnightblue" stroke="midnightblue" points="1019.53,-84.2016 1025.81,-75.6695 1015.58,-78.4223 1019.53,-84.2016"/>
</g>
<!-- Node18&#45;&gt;Node13 -->
<g id="edge25" class="edge"><title>Node18&#45;&gt;Node13</title>
<path fill="none" stroke="midnightblue" d="M832.456,-168.444C794.578,-154.11 734.014,-131.298 681.5,-112 650.347,-100.552 614.721,-87.7556 589.494,-78.7439"/>
<polygon fill="midnightblue" stroke="midnightblue" points="590.627,-75.4321 580.033,-75.3673 588.275,-82.0248 590.627,-75.4321"/>
</g>
<!-- Node18&#45;&gt;Node17 -->
<g id="edge27" class="edge"><title>Node18&#45;&gt;Node17</title>
<path fill="none" stroke="midnightblue" d="M815.049,-168.475C774.326,-157.986 719.396,-143.837 681.68,-134.122"/>
<polygon fill="midnightblue" stroke="midnightblue" points="682.082,-130.611 671.525,-131.506 680.336,-137.39 682.082,-130.611"/>
</g>
<!-- Node19 -->
<g id="node20" class="node"><title>Node19</title>
<g id="a_node20"><a xlink:href="memory_8h.html" target="_top" xlink:title="base/std_ext/memory.h">
<polygon fill="white" stroke="black" points="805,-112.5 805,-131.5 934,-131.5 934,-112.5 805,-112.5"/>
<text text-anchor="middle" x="869.5" y="-119.5" font-family="Helvetica,sans-Serif" font-size="10.00">base/std_ext/memory.h</text>
</a>
</g>
</g>
<!-- Node18&#45;&gt;Node19 -->
<g id="edge22" class="edge"><title>Node18&#45;&gt;Node19</title>
<path fill="none" stroke="midnightblue" d="M869.5,-168.399C869.5,-160.466 869.5,-150.458 869.5,-141.858"/>
<polygon fill="midnightblue" stroke="midnightblue" points="873,-141.658 869.5,-131.658 866,-141.658 873,-141.658"/>
</g>
<!-- Node19&#45;&gt;Node1 -->
<g id="edge23" class="edge"><title>Node19&#45;&gt;Node1</title>
<path fill="none" stroke="midnightblue" d="M896.279,-112.444C924.833,-103.32 970.233,-88.8133 1002.04,-78.6509"/>
<polygon fill="midnightblue" stroke="midnightblue" points="1003.39,-81.8941 1011.85,-75.5164 1001.26,-75.2262 1003.39,-81.8941"/>
</g>
<!-- Node19&#45;&gt;Node2 -->
<g id="edge24" class="edge"><title>Node19&#45;&gt;Node2</title>
<path fill="none" stroke="midnightblue" d="M869.5,-112.083C869.5,-105.006 869.5,-94.8611 869.5,-85.9865"/>
<polygon fill="midnightblue" stroke="midnightblue" points="873,-85.751 869.5,-75.7511 866,-85.7511 873,-85.751"/>
</g>
<!-- Node20&#45;&gt;Node1 -->
<g id="edge30" class="edge"><title>Node20&#45;&gt;Node1</title>
<path fill="none" stroke="midnightblue" d="M1179.37,-168.246C1178.47,-152.566 1174.69,-127.535 1160.5,-112 1138.96,-88.4288 1103.99,-77.1674 1076.99,-71.8086"/>
<polygon fill="midnightblue" stroke="midnightblue" points="1077.54,-68.3517 1067.08,-70.0304 1076.31,-75.2416 1077.54,-68.3517"/>
</g>
<!-- Node20&#45;&gt;Node13 -->
<g id="edge29" class="edge"><title>Node20&#45;&gt;Node13</title>
<path fill="none" stroke="midnightblue" d="M1122.33,-169.561C1119.35,-169.005 1116.39,-168.48 1113.5,-168 973.184,-144.708 935.2,-158.742 795.5,-132 792.926,-131.507 655.511,-94.0265 590.24,-76.2113"/>
<polygon fill="midnightblue" stroke="midnightblue" points="590.984,-72.7865 580.415,-73.5296 589.141,-79.5394 590.984,-72.7865"/>
</g>
<!-- Node20&#45;&gt;Node21 -->
<g id="edge31" class="edge"><title>Node20&#45;&gt;Node21</title>
<path fill="none" stroke="midnightblue" d="M1194.19,-168.399C1203.48,-159.486 1215.5,-147.952 1225.1,-138.741"/>
<polygon fill="midnightblue" stroke="midnightblue" points="1227.69,-141.107 1232.48,-131.658 1222.84,-136.057 1227.69,-141.107"/>
</g>
<!-- Node22 -->
<g id="node23" class="node"><title>Node22</title>
<polygon fill="white" stroke="#bfbfbf" points="1089.5,-112.5 1089.5,-131.5 1151.5,-131.5 1151.5,-112.5 1089.5,-112.5"/>
<text text-anchor="middle" x="1120.5" y="-119.5" font-family="Helvetica,sans-Serif" font-size="10.00">algorithm</text>
</g>
<!-- Node20&#45;&gt;Node22 -->
<g id="edge32" class="edge"><title>Node20&#45;&gt;Node22</title>
<path fill="none" stroke="midnightblue" d="M1165.52,-168.399C1156.77,-159.575 1145.47,-148.183 1136.38,-139.018"/>
<polygon fill="midnightblue" stroke="midnightblue" points="1138.61,-136.294 1129.09,-131.658 1133.64,-141.223 1138.61,-136.294"/>
</g>
</g>
</svg>
