<?xml version="1.0" encoding="UTF-8" standalone="no"?>
<!DOCTYPE svg PUBLIC "-//W3C//DTD SVG 1.1//EN"
 "http://www.w3.org/Graphics/SVG/1.1/DTD/svg11.dtd">
<!-- Generated by graphviz version 2.38.0 (20140413.2041)
 -->
<!-- Title: src/analysis/plot/RootDraw.h Pages: 1 -->
<svg width="562pt" height="196pt"
 viewBox="0.00 0.00 561.50 196.00" xmlns="http://www.w3.org/2000/svg" xmlns:xlink="http://www.w3.org/1999/xlink">
<g id="graph0" class="graph" transform="scale(1 1) rotate(0) translate(4 192)">
<title>src/analysis/plot/RootDraw.h</title>
<polygon fill="white" stroke="none" points="-4,4 -4,-192 557.5,-192 557.5,4 -4,4"/>
<!-- Node0 -->
<g id="node1" class="node"><title>Node0</title>
<polygon fill="#bfbfbf" stroke="black" points="102.5,-168.5 102.5,-187.5 251.5,-187.5 251.5,-168.5 102.5,-168.5"/>
<text text-anchor="middle" x="177" y="-175.5" font-family="Helvetica,sans-Serif" font-size="10.00">src/analysis/plot/RootDraw.h</text>
</g>
<!-- Node1 -->
<g id="node2" class="node"><title>Node1</title>
<polygon fill="white" stroke="#bfbfbf" points="0,-112.5 0,-131.5 44,-131.5 44,-112.5 0,-112.5"/>
<text text-anchor="middle" x="22" y="-119.5" font-family="Helvetica,sans-Serif" font-size="10.00">string</text>
</g>
<!-- Node0&#45;&gt;Node1 -->
<g id="edge1" class="edge"><title>Node0&#45;&gt;Node1</title>
<path fill="none" stroke="midnightblue" d="M152.44,-168.444C125.867,-159.186 83.3873,-144.387 54.167,-134.207"/>
<polygon fill="midnightblue" stroke="midnightblue" points="55.0271,-130.8 44.4322,-130.815 52.7241,-137.41 55.0271,-130.8"/>
</g>
<!-- Node2 -->
<g id="node3" class="node"><title>Node2</title>
<polygon fill="white" stroke="#bfbfbf" points="62,-112.5 62,-131.5 92,-131.5 92,-112.5 62,-112.5"/>
<text text-anchor="middle" x="77" y="-119.5" font-family="Helvetica,sans-Serif" font-size="10.00">list</text>
</g>
<!-- Node0&#45;&gt;Node2 -->
<g id="edge2" class="edge"><title>Node0&#45;&gt;Node2</title>
<path fill="none" stroke="midnightblue" d="M160.933,-168.324C144.76,-159.59 119.618,-146.014 101.065,-135.995"/>
<polygon fill="midnightblue" stroke="midnightblue" points="102.508,-132.796 92.0454,-131.125 99.1814,-138.956 102.508,-132.796"/>
</g>
<!-- Node3 -->
<g id="node4" class="node"><title>Node3</title>
<polygon fill="white" stroke="#bfbfbf" points="106.5,-56.5 106.5,-75.5 153.5,-75.5 153.5,-56.5 106.5,-56.5"/>
<text text-anchor="middle" x="130" y="-63.5" font-family="Helvetica,sans-Serif" font-size="10.00">vector</text>
</g>
<!-- Node0&#45;&gt;Node3 -->
<g id="edge3" class="edge"><title>Node0&#45;&gt;Node3</title>
<path fill="none" stroke="midnightblue" d="M167.421,-168.359C158.77,-159.964 146.439,-146.404 140,-132 133.513,-117.489 131.124,-99.5373 130.294,-86.1789"/>
<polygon fill="midnightblue" stroke="midnightblue" points="133.778,-85.6847 129.903,-75.8241 126.783,-85.9492 133.778,-85.6847"/>
</g>
<!-- Node4 -->
<g id="node5" class="node"><title>Node4</title>
<polygon fill="white" stroke="#bfbfbf" points="148.5,-112.5 148.5,-131.5 205.5,-131.5 205.5,-112.5 148.5,-112.5"/>
<text text-anchor="middle" x="177" y="-119.5" font-family="Helvetica,sans-Serif" font-size="10.00">memory</text>
</g>
<!-- Node0&#45;&gt;Node4 -->
<g id="edge4" class="edge"><title>Node0&#45;&gt;Node4</title>
<path fill="none" stroke="midnightblue" d="M177,-168.083C177,-161.006 177,-150.861 177,-141.986"/>
<polygon fill="midnightblue" stroke="midnightblue" points="180.5,-141.751 177,-131.751 173.5,-141.751 180.5,-141.751"/>
</g>
<!-- Node5 -->
<g id="node6" class="node"><title>Node5</title>
<polygon fill="white" stroke="#bfbfbf" points="223.5,-112.5 223.5,-131.5 286.5,-131.5 286.5,-112.5 223.5,-112.5"/>
<text text-anchor="middle" x="255" y="-119.5" font-family="Helvetica,sans-Serif" font-size="10.00">functional</text>
</g>
<!-- Node0&#45;&gt;Node5 -->
<g id="edge5" class="edge"><title>Node0&#45;&gt;Node5</title>
<path fill="none" stroke="midnightblue" d="M189.532,-168.324C201.586,-159.979 220.027,-147.212 234.269,-137.352"/>
<polygon fill="midnightblue" stroke="midnightblue" points="236.269,-140.224 242.499,-131.655 232.285,-134.469 236.269,-140.224"/>
</g>
<!-- Node6 -->
<g id="node7" class="node"><title>Node6</title>
<g id="a_node7"><a xlink:href="_bin_settings_8h.html" target="_top" xlink:title="base/BinSettings.h">
<polygon fill="white" stroke="black" points="304.5,-112.5 304.5,-131.5 411.5,-131.5 411.5,-112.5 304.5,-112.5"/>
<text text-anchor="middle" x="358" y="-119.5" font-family="Helvetica,sans-Serif" font-size="10.00">base/BinSettings.h</text>
</a>
</g>
</g>
<!-- Node0&#45;&gt;Node6 -->
<g id="edge6" class="edge"><title>Node0&#45;&gt;Node6</title>
<path fill="none" stroke="midnightblue" d="M205.68,-168.444C236.527,-159.241 285.728,-144.562 319.829,-134.388"/>
<polygon fill="midnightblue" stroke="midnightblue" points="320.872,-137.729 329.454,-131.516 318.871,-131.021 320.872,-137.729"/>
</g>
<!-- Node16 -->
<g id="node17" class="node"><title>Node16</title>
<polygon fill="white" stroke="#bfbfbf" points="429,-112.5 429,-131.5 487,-131.5 487,-112.5 429,-112.5"/>
<text text-anchor="middle" x="458" y="-119.5" font-family="Helvetica,sans-Serif" font-size="10.00">Rtypes.h</text>
</g>
<!-- Node0&#45;&gt;Node16 -->
<g id="edge19" class="edge"><title>Node0&#45;&gt;Node16</title>
<path fill="none" stroke="midnightblue" d="M228.104,-168.436C275.364,-160.323 347.785,-147.402 418.924,-132.365"/>
<polygon fill="midnightblue" stroke="midnightblue" points="419.899,-135.736 428.951,-130.229 418.441,-128.889 419.899,-135.736"/>
</g>
<!-- Node6&#45;&gt;Node3 -->
<g id="edge15" class="edge"><title>Node6&#45;&gt;Node3</title>
<path fill="none" stroke="midnightblue" d="M321.873,-112.444C278.372,-102.141 205.894,-84.9749 163.569,-74.9505"/>
<polygon fill="midnightblue" stroke="midnightblue" points="164.285,-71.5233 153.747,-72.6243 162.671,-78.3349 164.285,-71.5233"/>
</g>
<!-- Node7 -->
<g id="node8" class="node"><title>Node7</title>
<g id="a_node8"><a xlink:href="interval_8h.html" target="_top" xlink:title="base/interval.h">
<polygon fill="white" stroke="black" points="278.5,-56.5 278.5,-75.5 365.5,-75.5 365.5,-56.5 278.5,-56.5"/>
<text text-anchor="middle" x="322" y="-63.5" font-family="Helvetica,sans-Serif" font-size="10.00">base/interval.h</text>
</a>
</g>
</g>
<!-- Node6&#45;&gt;Node7 -->
<g id="edge7" class="edge"><title>Node6&#45;&gt;Node7</title>
<path fill="none" stroke="midnightblue" d="M352.055,-112.083C347.023,-104.534 339.663,-93.4948 333.487,-84.2298"/>
<polygon fill="midnightblue" stroke="midnightblue" points="336.293,-82.1301 327.834,-75.7511 330.469,-86.0131 336.293,-82.1301"/>
</g>
<!-- Node10 -->
<g id="node11" class="node"><title>Node10</title>
<polygon fill="white" stroke="#bfbfbf" points="69,-0.5 69,-19.5 133,-19.5 133,-0.5 69,-0.5"/>
<text text-anchor="middle" x="101" y="-7.5" font-family="Helvetica,sans-Serif" font-size="10.00">stdexcept</text>
</g>
<!-- Node6&#45;&gt;Node10 -->
<g id="edge16" class="edge"><title>Node6&#45;&gt;Node10</title>
<path fill="none" stroke="midnightblue" d="M337.834,-112.368C292.7,-93.0507 183.378,-46.2592 130.55,-23.6481"/>
<polygon fill="midnightblue" stroke="midnightblue" points="131.643,-20.3087 121.073,-19.5914 128.889,-26.744 131.643,-20.3087"/>
</g>
<!-- Node12 -->
<g id="node13" class="node"><title>Node12</title>
<polygon fill="white" stroke="#bfbfbf" points="500.5,-0.5 500.5,-19.5 553.5,-19.5 553.5,-0.5 500.5,-0.5"/>
<text text-anchor="middle" x="527" y="-7.5" font-family="Helvetica,sans-Serif" font-size="10.00">istream</text>
</g>
<!-- Node6&#45;&gt;Node12 -->
<g id="edge17" class="edge"><title>Node6&#45;&gt;Node12</title>
<path fill="none" stroke="midnightblue" d="M363.501,-112.243C372.517,-98.528 391.683,-71.9091 414,-56 437.066,-39.5567 466.988,-27.9898 490.246,-20.7039"/>
<polygon fill="midnightblue" stroke="midnightblue" points="491.518,-23.9763 500.089,-17.7487 489.505,-17.2719 491.518,-23.9763"/>
</g>
<!-- Node15 -->
<g id="node16" class="node"><title>Node15</title>
<polygon fill="white" stroke="#bfbfbf" points="422.5,-56.5 422.5,-75.5 479.5,-75.5 479.5,-56.5 422.5,-56.5"/>
<text text-anchor="middle" x="451" y="-63.5" font-family="Helvetica,sans-Serif" font-size="10.00">ostream</text>
</g>
<!-- Node6&#45;&gt;Node15 -->
<g id="edge18" class="edge"><title>Node6&#45;&gt;Node15</title>
<path fill="none" stroke="midnightblue" d="M372.942,-112.324C387.585,-103.822 410.134,-90.7288 427.238,-80.7975"/>
<polygon fill="midnightblue" stroke="midnightblue" points="429.205,-83.7027 436.095,-75.6545 425.69,-77.6491 429.205,-83.7027"/>
</g>
<!-- Node8 -->
<g id="node9" class="node"><title>Node8</title>
<g id="a_node9"><a xlink:href="types_8h.html" target="_top" xlink:title="types.h">
<polygon fill="white" stroke="black" points="151,-0.5 151,-19.5 203,-19.5 203,-0.5 151,-0.5"/>
<text text-anchor="middle" x="177" y="-7.5" font-family="Helvetica,sans-Serif" font-size="10.00">types.h</text>
</a>
</g>
</g>
<!-- Node7&#45;&gt;Node8 -->
<g id="edge8" class="edge"><title>Node7&#45;&gt;Node8</title>
<path fill="none" stroke="midnightblue" d="M299.024,-56.4435C274.843,-47.4381 236.582,-33.1891 209.354,-23.049"/>
<polygon fill="midnightblue" stroke="midnightblue" points="210.461,-19.7265 199.868,-19.5164 208.018,-26.2864 210.461,-19.7265"/>
</g>
<!-- Node9 -->
<g id="node10" class="node"><title>Node9</title>
<polygon fill="white" stroke="#bfbfbf" points="221,-0.5 221,-19.5 283,-19.5 283,-0.5 221,-0.5"/>
<text text-anchor="middle" x="252" y="-7.5" font-family="Helvetica,sans-Serif" font-size="10.00">algorithm</text>
</g>
<!-- Node7&#45;&gt;Node9 -->
<g id="edge9" class="edge"><title>Node7&#45;&gt;Node9</title>
<path fill="none" stroke="midnightblue" d="M310.753,-56.324C300.203,-48.1849 284.199,-35.8395 271.558,-26.0874"/>
<polygon fill="midnightblue" stroke="midnightblue" points="273.507,-23.1707 263.451,-19.8339 269.231,-28.7132 273.507,-23.1707"/>
</g>
<!-- Node7&#45;&gt;Node10 -->
<g id="edge10" class="edge"><title>Node7&#45;&gt;Node10</title>
<path fill="none" stroke="midnightblue" d="M286.982,-56.4435C247.965,-46.9101 184.899,-31.5001 143.193,-21.3096"/>
<polygon fill="midnightblue" stroke="midnightblue" points="143.883,-17.8752 133.338,-18.9015 142.221,-24.6752 143.883,-17.8752"/>
</g>
<!-- Node11 -->
<g id="node12" class="node"><title>Node11</title>
<polygon fill="white" stroke="#bfbfbf" points="301,-0.5 301,-19.5 343,-19.5 343,-0.5 301,-0.5"/>
<text text-anchor="middle" x="322" y="-7.5" font-family="Helvetica,sans-Serif" font-size="10.00">limits</text>
</g>
<!-- Node7&#45;&gt;Node11 -->
<g id="edge11" class="edge"><title>Node7&#45;&gt;Node11</title>
<path fill="none" stroke="midnightblue" d="M322,-56.083C322,-49.0059 322,-38.8611 322,-29.9865"/>
<polygon fill="midnightblue" stroke="midnightblue" points="325.5,-29.751 322,-19.7511 318.5,-29.7511 325.5,-29.751"/>
</g>
<!-- Node7&#45;&gt;Node12 -->
<g id="edge12" class="edge"><title>Node7&#45;&gt;Node12</title>
<path fill="none" stroke="midnightblue" d="M354.483,-56.4435C391.482,-46.6975 451.795,-30.8101 490.419,-20.6359"/>
<polygon fill="midnightblue" stroke="midnightblue" points="491.443,-23.9856 500.222,-18.0537 489.66,-17.2165 491.443,-23.9856"/>
</g>
<!-- Node13 -->
<g id="node14" class="node"><title>Node13</title>
<polygon fill="white" stroke="#bfbfbf" points="361,-0.5 361,-19.5 417,-19.5 417,-0.5 361,-0.5"/>
<text text-anchor="middle" x="389" y="-7.5" font-family="Helvetica,sans-Serif" font-size="10.00">sstream</text>
</g>
<!-- Node7&#45;&gt;Node13 -->
<g id="edge13" class="edge"><title>Node7&#45;&gt;Node13</title>
<path fill="none" stroke="midnightblue" d="M332.765,-56.324C342.766,-48.2631 357.887,-36.0765 369.93,-26.3695"/>
<polygon fill="midnightblue" stroke="midnightblue" points="372.45,-28.8343 378.039,-19.8339 368.057,-23.3841 372.45,-28.8343"/>
</g>
<!-- Node14 -->
<g id="node15" class="node"><title>Node14</title>
<polygon fill="white" stroke="#bfbfbf" points="435.5,-0.5 435.5,-19.5 482.5,-19.5 482.5,-0.5 435.5,-0.5"/>
<text text-anchor="middle" x="459" y="-7.5" font-family="Helvetica,sans-Serif" font-size="10.00">cmath</text>
</g>
<!-- Node7&#45;&gt;Node14 -->
<g id="edge14" class="edge"><title>Node7&#45;&gt;Node14</title>
<path fill="none" stroke="midnightblue" d="M343.708,-56.4435C366.355,-47.5171 402.072,-33.4387 427.752,-23.3168"/>
<polygon fill="midnightblue" stroke="midnightblue" points="429.374,-26.4397 437.394,-19.5164 426.807,-19.9273 429.374,-26.4397"/>
</g>
</g>
</svg>
