<?xml version="1.0" encoding="UTF-8" standalone="no"?>
<!DOCTYPE svg PUBLIC "-//W3C//DTD SVG 1.1//EN"
 "http://www.w3.org/Graphics/SVG/1.1/DTD/svg11.dtd">
<!-- Generated by graphviz version 2.38.0 (20140413.2041)
 -->
<!-- Title: src/analysis/utils/RootAddons.h Pages: 1 -->
<svg width="405pt" height="106pt"
 viewBox="0.00 0.00 405.00 106.00" xmlns="http://www.w3.org/2000/svg" xmlns:xlink="http://www.w3.org/1999/xlink">
<g id="graph0" class="graph" transform="scale(1 1) rotate(0) translate(4 102)">
<title>src/analysis/utils/RootAddons.h</title>
<polygon fill="white" stroke="none" points="-4,4 -4,-102 401,-102 401,4 -4,4"/>
<!-- Node3 -->
<g id="node1" class="node"><title>Node3</title>
<polygon fill="#bfbfbf" stroke="black" points="132,-67.5 132,-97.5 227,-97.5 227,-67.5 132,-67.5"/>
<text text-anchor="start" x="140" y="-85.5" font-family="Helvetica,sans-Serif" font-size="10.00">src/analysis/utils</text>
<text text-anchor="middle" x="179.5" y="-74.5" font-family="Helvetica,sans-Serif" font-size="10.00">/RootAddons.h</text>
</g>
<!-- Node4 -->
<g id="node2" class="node"><title>Node4</title>
<g id="a_node2"><a xlink:href="_root_addons_8cc.html" target="_top" xlink:title="src/analysis/utils\l/RootAddons.cc">
<polygon fill="white" stroke="black" points="0,-0.5 0,-30.5 95,-30.5 95,-0.5 0,-0.5"/>
<text text-anchor="start" x="8" y="-18.5" font-family="Helvetica,sans-Serif" font-size="10.00">src/analysis/utils</text>
<text text-anchor="middle" x="47.5" y="-7.5" font-family="Helvetica,sans-Serif" font-size="10.00">/RootAddons.cc</text>
</a>
</g>
</g>
<!-- Node3&#45;&gt;Node4 -->
<g id="edge1" class="edge"><title>Node3&#45;&gt;Node4</title>
<path fill="none" stroke="midnightblue" d="M141.633,-62.8533C120.762,-52.5761 95.2742,-40.0252 76.0861,-30.5765"/>
<polygon fill="midnightblue" stroke="midnightblue" points="140.34,-66.1182 150.858,-67.396 143.433,-59.8383 140.34,-66.1182"/>
</g>
<!-- Node5 -->
<g id="node3" class="node"><title>Node5</title>
<g id="a_node3"><a xlink:href="_test_particle_i_d_8cc.html" target="_top" xlink:title="test/analysis/TestParticle\lID.cc">
<polygon fill="white" stroke="black" points="113,-0.5 113,-30.5 246,-30.5 246,-0.5 113,-0.5"/>
<text text-anchor="start" x="121" y="-18.5" font-family="Helvetica,sans-Serif" font-size="10.00">test/analysis/TestParticle</text>
<text text-anchor="middle" x="179.5" y="-7.5" font-family="Helvetica,sans-Serif" font-size="10.00">ID.cc</text>
</a>
</g>
</g>
<!-- Node3&#45;&gt;Node5 -->
<g id="edge2" class="edge"><title>Node3&#45;&gt;Node5</title>
<path fill="none" stroke="midnightblue" d="M179.5,-57.1081C179.5,-48.1539 179.5,-38.3227 179.5,-30.5765"/>
<polygon fill="midnightblue" stroke="midnightblue" points="176,-57.3959 179.5,-67.396 183,-57.396 176,-57.3959"/>
</g>
<!-- Node6 -->
<g id="node4" class="node"><title>Node6</title>
<g id="a_node4"><a xlink:href="_test_particle_tools_8cc.html" target="_top" xlink:title="test/analysis/TestParticle\lTools.cc">
<polygon fill="white" stroke="black" points="264,-0.5 264,-30.5 397,-30.5 397,-0.5 264,-0.5"/>
<text text-anchor="start" x="272" y="-18.5" font-family="Helvetica,sans-Serif" font-size="10.00">test/analysis/TestParticle</text>
<text text-anchor="middle" x="330.5" y="-7.5" font-family="Helvetica,sans-Serif" font-size="10.00">Tools.cc</text>
</a>
</g>
</g>
<!-- Node3&#45;&gt;Node6 -->
<g id="edge3" class="edge"><title>Node3&#45;&gt;Node6</title>
<path fill="none" stroke="midnightblue" d="M221.532,-63.4066C245.639,-53.0294 275.454,-40.1954 297.799,-30.5765"/>
<polygon fill="midnightblue" stroke="midnightblue" points="220.066,-60.2272 212.265,-67.396 222.834,-66.6568 220.066,-60.2272"/>
</g>
</g>
</svg>
