<?xml version="1.0" encoding="UTF-8" standalone="no"?>
<!DOCTYPE svg PUBLIC "-//W3C//DTD SVG 1.1//EN"
 "http://www.w3.org/Graphics/SVG/1.1/DTD/svg11.dtd">
<!-- Generated by graphviz version 2.38.0 (20140413.2041)
 -->
<!-- Title: src/analysis/plot/RootDraw.cc Pages: 1 -->
<svg width="1282pt" height="252pt"
 viewBox="0.00 0.00 1281.89 252.00" xmlns="http://www.w3.org/2000/svg" xmlns:xlink="http://www.w3.org/1999/xlink">
<g id="graph0" class="graph" transform="scale(1 1) rotate(0) translate(4 248)">
<title>src/analysis/plot/RootDraw.cc</title>
<polygon fill="white" stroke="none" points="-4,4 -4,-248 1277.89,-248 1277.89,4 -4,4"/>
<!-- Node0 -->
<g id="node1" class="node"><title>Node0</title>
<polygon fill="#bfbfbf" stroke="black" points="606.385,-224.5 606.385,-243.5 760.385,-243.5 760.385,-224.5 606.385,-224.5"/>
<text text-anchor="middle" x="683.385" y="-231.5" font-family="Helvetica,sans-Serif" font-size="10.00">src/analysis/plot/RootDraw.cc</text>
</g>
<!-- Node1 -->
<g id="node2" class="node"><title>Node1</title>
<g id="a_node2"><a xlink:href="_root_draw_8h.html" target="_top" xlink:title="plot/RootDraw.h">
<polygon fill="white" stroke="black" points="296.885,-168.5 296.885,-187.5 387.885,-187.5 387.885,-168.5 296.885,-168.5"/>
<text text-anchor="middle" x="342.385" y="-175.5" font-family="Helvetica,sans-Serif" font-size="10.00">plot/RootDraw.h</text>
</a>
</g>
</g>
<!-- Node0&#45;&gt;Node1 -->
<g id="edge1" class="edge"><title>Node0&#45;&gt;Node1</title>
<path fill="none" stroke="midnightblue" d="M628.541,-224.473C573.094,-215.829 484.65,-201.978 398.008,-188.092"/>
<polygon fill="midnightblue" stroke="midnightblue" points="398.428,-184.615 388,-186.486 397.32,-191.526 398.428,-184.615"/>
</g>
<!-- Node10 -->
<g id="node11" class="node"><title>Node10</title>
<polygon fill="white" stroke="#bfbfbf" points="10.3853,-0.5 10.3853,-19.5 72.3853,-19.5 72.3853,-0.5 10.3853,-0.5"/>
<text text-anchor="middle" x="41.3853" y="-7.5" font-family="Helvetica,sans-Serif" font-size="10.00">algorithm</text>
</g>
<!-- Node0&#45;&gt;Node10 -->
<g id="edge39" class="edge"><title>Node0&#45;&gt;Node10</title>
<path fill="none" stroke="midnightblue" d="M606.218,-230.845C448.086,-225.949 97.9852,-212.474 49.3853,-188 13.7038,-170.031 -4.1559,-151.564 1.3853,-112 4.97556,-86.3654 7.68492,-79.9985 17.3853,-56 21.1596,-46.6624 26.3183,-36.7383 30.8858,-28.5925"/>
<polygon fill="midnightblue" stroke="midnightblue" points="34.0537,-30.1059 36.0313,-19.6973 27.9944,-26.6009 34.0537,-30.1059"/>
</g>
<!-- Node14 -->
<g id="node15" class="node"><title>Node14</title>
<polygon fill="white" stroke="#bfbfbf" points="90.3853,-0.5 90.3853,-19.5 146.385,-19.5 146.385,-0.5 90.3853,-0.5"/>
<text text-anchor="middle" x="118.385" y="-7.5" font-family="Helvetica,sans-Serif" font-size="10.00">sstream</text>
</g>
<!-- Node0&#45;&gt;Node14 -->
<g id="edge37" class="edge"><title>Node0&#45;&gt;Node14</title>
<path fill="none" stroke="midnightblue" d="M606.021,-229.987C511.681,-225.319 347.695,-213.999 209.385,-188 119.928,-171.184 67.2485,-204.632 12.3853,-132 -18.7695,-90.7548 50.5306,-45.9017 91.3164,-24.2166"/>
<polygon fill="midnightblue" stroke="midnightblue" points="92.9954,-27.2886 100.267,-19.5834 89.7776,-21.072 92.9954,-27.2886"/>
</g>
<!-- Node18 -->
<g id="node19" class="node"><title>Node18</title>
<g id="a_node19"><a xlink:href="string_8h.html" target="_top" xlink:title="base/std_ext/string.h">
<polygon fill="white" stroke="black" points="21.8853,-112.5 21.8853,-131.5 138.885,-131.5 138.885,-112.5 21.8853,-112.5"/>
<text text-anchor="middle" x="80.3853" y="-119.5" font-family="Helvetica,sans-Serif" font-size="10.00">base/std_ext/string.h</text>
</a>
</g>
</g>
<!-- Node0&#45;&gt;Node18 -->
<g id="edge21" class="edge"><title>Node0&#45;&gt;Node18</title>
<path fill="none" stroke="midnightblue" d="M606.031,-228.596C525.696,-223.003 396.706,-211.153 287.385,-188 224.029,-174.582 152.406,-149.869 112.197,-135.085"/>
<polygon fill="midnightblue" stroke="midnightblue" points="113.268,-131.749 102.675,-131.553 110.834,-138.312 113.268,-131.749"/>
</g>
<!-- Node19 -->
<g id="node20" class="node"><title>Node19</title>
<g id="a_node20"><a xlink:href="_logger_8h.html" target="_top" xlink:title="base/Logger.h">
<polygon fill="white" stroke="black" points="406.385,-168.5 406.385,-187.5 490.385,-187.5 490.385,-168.5 406.385,-168.5"/>
<text text-anchor="middle" x="448.385" y="-175.5" font-family="Helvetica,sans-Serif" font-size="10.00">base/Logger.h</text>
</a>
</g>
</g>
<!-- Node0&#45;&gt;Node19 -->
<g id="edge26" class="edge"><title>Node0&#45;&gt;Node19</title>
<path fill="none" stroke="midnightblue" d="M646.149,-224.444C605.326,-215.063 539.742,-199.993 495.401,-189.804"/>
<polygon fill="midnightblue" stroke="midnightblue" points="495.977,-186.345 485.448,-187.516 494.41,-193.167 495.977,-186.345"/>
</g>
<!-- Node21 -->
<g id="node22" class="node"><title>Node21</title>
<polygon fill="white" stroke="#bfbfbf" points="508.385,-168.5 508.385,-187.5 552.385,-187.5 552.385,-168.5 508.385,-168.5"/>
<text text-anchor="middle" x="530.385" y="-175.5" font-family="Helvetica,sans-Serif" font-size="10.00">TH1.h</text>
</g>
<!-- Node0&#45;&gt;Node21 -->
<g id="edge28" class="edge"><title>Node0&#45;&gt;Node21</title>
<path fill="none" stroke="midnightblue" d="M659.142,-224.444C632.912,-215.186 590.981,-200.387 562.137,-190.207"/>
<polygon fill="midnightblue" stroke="midnightblue" points="563.123,-186.843 552.528,-186.815 560.793,-193.444 563.123,-186.843"/>
</g>
<!-- Node22 -->
<g id="node23" class="node"><title>Node22</title>
<polygon fill="white" stroke="#bfbfbf" points="570.385,-168.5 570.385,-187.5 632.385,-187.5 632.385,-168.5 570.385,-168.5"/>
<text text-anchor="middle" x="601.385" y="-175.5" font-family="Helvetica,sans-Serif" font-size="10.00">TObject.h</text>
</g>
<!-- Node0&#45;&gt;Node22 -->
<g id="edge29" class="edge"><title>Node0&#45;&gt;Node22</title>
<path fill="none" stroke="midnightblue" d="M670.211,-224.324C657.539,-215.979 638.152,-203.212 623.18,-193.352"/>
<polygon fill="midnightblue" stroke="midnightblue" points="624.804,-190.231 614.527,-187.655 620.954,-196.078 624.804,-190.231"/>
</g>
<!-- Node23 -->
<g id="node24" class="node"><title>Node23</title>
<polygon fill="white" stroke="#bfbfbf" points="650.385,-168.5 650.385,-187.5 716.385,-187.5 716.385,-168.5 650.385,-168.5"/>
<text text-anchor="middle" x="683.385" y="-175.5" font-family="Helvetica,sans-Serif" font-size="10.00">TNamed.h</text>
</g>
<!-- Node0&#45;&gt;Node23 -->
<g id="edge30" class="edge"><title>Node0&#45;&gt;Node23</title>
<path fill="none" stroke="midnightblue" d="M683.385,-224.083C683.385,-217.006 683.385,-206.861 683.385,-197.986"/>
<polygon fill="midnightblue" stroke="midnightblue" points="686.885,-197.751 683.385,-187.751 679.885,-197.751 686.885,-197.751"/>
</g>
<!-- Node24 -->
<g id="node25" class="node"><title>Node24</title>
<polygon fill="white" stroke="#bfbfbf" points="734.885,-168.5 734.885,-187.5 799.885,-187.5 799.885,-168.5 734.885,-168.5"/>
<text text-anchor="middle" x="767.385" y="-175.5" font-family="Helvetica,sans-Serif" font-size="10.00">TCanvas.h</text>
</g>
<!-- Node0&#45;&gt;Node24 -->
<g id="edge31" class="edge"><title>Node0&#45;&gt;Node24</title>
<path fill="none" stroke="midnightblue" d="M696.881,-224.324C709.985,-215.9 730.097,-202.971 745.492,-193.074"/>
<polygon fill="midnightblue" stroke="midnightblue" points="747.404,-196.006 753.923,-187.655 743.618,-190.118 747.404,-196.006"/>
</g>
<!-- Node25 -->
<g id="node26" class="node"><title>Node25</title>
<polygon fill="white" stroke="#bfbfbf" points="818.385,-168.5 818.385,-187.5 874.385,-187.5 874.385,-168.5 818.385,-168.5"/>
<text text-anchor="middle" x="846.385" y="-175.5" font-family="Helvetica,sans-Serif" font-size="10.00">TROOT.h</text>
</g>
<!-- Node0&#45;&gt;Node25 -->
<g id="edge32" class="edge"><title>Node0&#45;&gt;Node25</title>
<path fill="none" stroke="midnightblue" d="M709.213,-224.444C736.635,-215.359 780.163,-200.939 810.818,-190.783"/>
<polygon fill="midnightblue" stroke="midnightblue" points="812.286,-193.984 820.678,-187.516 810.085,-187.339 812.286,-193.984"/>
</g>
<!-- Node26 -->
<g id="node27" class="node"><title>Node26</title>
<polygon fill="white" stroke="#bfbfbf" points="892.885,-168.5 892.885,-187.5 957.885,-187.5 957.885,-168.5 892.885,-168.5"/>
<text text-anchor="middle" x="925.385" y="-175.5" font-family="Helvetica,sans-Serif" font-size="10.00">THStack.h</text>
</g>
<!-- Node0&#45;&gt;Node26 -->
<g id="edge33" class="edge"><title>Node0&#45;&gt;Node26</title>
<path fill="none" stroke="midnightblue" d="M721.731,-224.444C765.593,-214.656 837.213,-198.675 882.783,-188.506"/>
<polygon fill="midnightblue" stroke="midnightblue" points="883.654,-191.898 892.652,-186.304 882.13,-185.066 883.654,-191.898"/>
</g>
<!-- Node27 -->
<g id="node28" class="node"><title>Node27</title>
<polygon fill="white" stroke="#bfbfbf" points="975.885,-168.5 975.885,-187.5 1054.89,-187.5 1054.89,-168.5 975.885,-168.5"/>
<text text-anchor="middle" x="1015.39" y="-175.5" font-family="Helvetica,sans-Serif" font-size="10.00">TVirtualPad.h</text>
</g>
<!-- Node0&#45;&gt;Node27 -->
<g id="edge34" class="edge"><title>Node0&#45;&gt;Node27</title>
<path fill="none" stroke="midnightblue" d="M740.31,-224.463C795.518,-216.074 881.913,-202.66 965.887,-188.224"/>
<polygon fill="midnightblue" stroke="midnightblue" points="966.59,-191.654 975.849,-186.505 965.399,-184.756 966.59,-191.654"/>
</g>
<!-- Node28 -->
<g id="node29" class="node"><title>Node28</title>
<polygon fill="white" stroke="#bfbfbf" points="1073.39,-168.5 1073.39,-187.5 1123.39,-187.5 1123.39,-168.5 1073.39,-168.5"/>
<text text-anchor="middle" x="1098.39" y="-175.5" font-family="Helvetica,sans-Serif" font-size="10.00">TTree.h</text>
</g>
<!-- Node0&#45;&gt;Node28 -->
<g id="edge35" class="edge"><title>Node0&#45;&gt;Node28</title>
<path fill="none" stroke="midnightblue" d="M760.497,-227.109C835.543,-220.645 952.902,-208.604 1063.25,-187.975"/>
<polygon fill="midnightblue" stroke="midnightblue" points="1064.05,-191.386 1073.23,-186.084 1062.75,-184.509 1064.05,-191.386"/>
</g>
<!-- Node29 -->
<g id="node30" class="node"><title>Node29</title>
<polygon fill="white" stroke="#bfbfbf" points="1141.89,-168.5 1141.89,-187.5 1200.89,-187.5 1200.89,-168.5 1141.89,-168.5"/>
<text text-anchor="middle" x="1171.39" y="-175.5" font-family="Helvetica,sans-Serif" font-size="10.00">iostream</text>
</g>
<!-- Node0&#45;&gt;Node29 -->
<g id="edge36" class="edge"><title>Node0&#45;&gt;Node29</title>
<path fill="none" stroke="midnightblue" d="M760.442,-228.263C848,-222.208 995.306,-209.987 1131.45,-187.944"/>
<polygon fill="midnightblue" stroke="midnightblue" points="1132.35,-191.344 1141.65,-186.271 1131.22,-184.436 1132.35,-191.344"/>
</g>
<!-- Node30 -->
<g id="node31" class="node"><title>Node30</title>
<polygon fill="white" stroke="#bfbfbf" points="1218.89,-168.5 1218.89,-187.5 1273.89,-187.5 1273.89,-168.5 1218.89,-168.5"/>
<text text-anchor="middle" x="1246.39" y="-175.5" font-family="Helvetica,sans-Serif" font-size="10.00">iomanip</text>
</g>
<!-- Node0&#45;&gt;Node30 -->
<g id="edge38" class="edge"><title>Node0&#45;&gt;Node30</title>
<path fill="none" stroke="midnightblue" d="M760.67,-230.267C861.695,-225.832 1044.2,-214.869 1208.29,-188.122"/>
<polygon fill="midnightblue" stroke="midnightblue" points="1209.27,-191.506 1218.57,-186.421 1208.13,-184.6 1209.27,-191.506"/>
</g>
<!-- Node2 -->
<g id="node3" class="node"><title>Node2</title>
<polygon fill="white" stroke="#bfbfbf" points="171.385,-56.5 171.385,-75.5 215.385,-75.5 215.385,-56.5 171.385,-56.5"/>
<text text-anchor="middle" x="193.385" y="-63.5" font-family="Helvetica,sans-Serif" font-size="10.00">string</text>
</g>
<!-- Node1&#45;&gt;Node2 -->
<g id="edge2" class="edge"><title>Node1&#45;&gt;Node2</title>
<path fill="none" stroke="midnightblue" d="M354.029,-168.317C369.969,-155.382 395.028,-130.584 380.385,-112 361.469,-87.9918 273.979,-75.3084 225.664,-70.0303"/>
<polygon fill="midnightblue" stroke="midnightblue" points="226.015,-66.5479 215.704,-68.9864 225.285,-73.5098 226.015,-66.5479"/>
</g>
<!-- Node3 -->
<g id="node4" class="node"><title>Node3</title>
<polygon fill="white" stroke="#bfbfbf" points="590.385,-112.5 590.385,-131.5 620.385,-131.5 620.385,-112.5 590.385,-112.5"/>
<text text-anchor="middle" x="605.385" y="-119.5" font-family="Helvetica,sans-Serif" font-size="10.00">list</text>
</g>
<!-- Node1&#45;&gt;Node3 -->
<g id="edge3" class="edge"><title>Node1&#45;&gt;Node3</title>
<path fill="none" stroke="midnightblue" d="M388.086,-169.364C442.881,-160.052 532.425,-144.301 580.418,-131.808"/>
<polygon fill="midnightblue" stroke="midnightblue" points="581.556,-135.126 590.281,-129.115 579.712,-128.373 581.556,-135.126"/>
</g>
<!-- Node4 -->
<g id="node5" class="node"><title>Node4</title>
<polygon fill="white" stroke="#bfbfbf" points="296.885,-56.5 296.885,-75.5 343.885,-75.5 343.885,-56.5 296.885,-56.5"/>
<text text-anchor="middle" x="320.385" y="-63.5" font-family="Helvetica,sans-Serif" font-size="10.00">vector</text>
</g>
<!-- Node1&#45;&gt;Node4 -->
<g id="edge4" class="edge"><title>Node1&#45;&gt;Node4</title>
<path fill="none" stroke="midnightblue" d="M365.234,-168.464C391.356,-157.324 428.656,-136.353 413.385,-112 406.476,-100.981 377.551,-88.0057 353.77,-78.8264"/>
<polygon fill="midnightblue" stroke="midnightblue" points="354.897,-75.5107 344.305,-75.2634 352.431,-82.062 354.897,-75.5107"/>
</g>
<!-- Node5 -->
<g id="node6" class="node"><title>Node5</title>
<polygon fill="white" stroke="#bfbfbf" points="156.885,-112.5 156.885,-131.5 213.885,-131.5 213.885,-112.5 156.885,-112.5"/>
<text text-anchor="middle" x="185.385" y="-119.5" font-family="Helvetica,sans-Serif" font-size="10.00">memory</text>
</g>
<!-- Node1&#45;&gt;Node5 -->
<g id="edge5" class="edge"><title>Node1&#45;&gt;Node5</title>
<path fill="none" stroke="midnightblue" d="M317.508,-168.444C291.096,-159.359 249.17,-144.939 219.644,-134.783"/>
<polygon fill="midnightblue" stroke="midnightblue" points="220.741,-131.459 210.146,-131.516 218.464,-138.079 220.741,-131.459"/>
</g>
<!-- Node6 -->
<g id="node7" class="node"><title>Node6</title>
<polygon fill="white" stroke="#bfbfbf" points="231.885,-112.5 231.885,-131.5 294.885,-131.5 294.885,-112.5 231.885,-112.5"/>
<text text-anchor="middle" x="263.385" y="-119.5" font-family="Helvetica,sans-Serif" font-size="10.00">functional</text>
</g>
<!-- Node1&#45;&gt;Node6 -->
<g id="edge6" class="edge"><title>Node1&#45;&gt;Node6</title>
<path fill="none" stroke="midnightblue" d="M329.693,-168.324C317.484,-159.979 298.807,-147.212 284.382,-137.352"/>
<polygon fill="midnightblue" stroke="midnightblue" points="286.277,-134.408 276.047,-131.655 282.327,-140.187 286.277,-134.408"/>
</g>
<!-- Node7 -->
<g id="node8" class="node"><title>Node7</title>
<g id="a_node8"><a xlink:href="_bin_settings_8h.html" target="_top" xlink:title="base/BinSettings.h">
<polygon fill="white" stroke="black" points="465.885,-112.5 465.885,-131.5 572.885,-131.5 572.885,-112.5 465.885,-112.5"/>
<text text-anchor="middle" x="519.385" y="-119.5" font-family="Helvetica,sans-Serif" font-size="10.00">base/BinSettings.h</text>
</a>
</g>
</g>
<!-- Node1&#45;&gt;Node7 -->
<g id="edge7" class="edge"><title>Node1&#45;&gt;Node7</title>
<path fill="none" stroke="midnightblue" d="M370.431,-168.444C400.467,-159.28 448.298,-144.688 481.628,-134.519"/>
<polygon fill="midnightblue" stroke="midnightblue" points="482.927,-137.782 491.47,-131.516 480.884,-131.087 482.927,-137.782"/>
</g>
<!-- Node17 -->
<g id="node18" class="node"><title>Node17</title>
<polygon fill="white" stroke="#bfbfbf" points="313.385,-112.5 313.385,-131.5 371.385,-131.5 371.385,-112.5 313.385,-112.5"/>
<text text-anchor="middle" x="342.385" y="-119.5" font-family="Helvetica,sans-Serif" font-size="10.00">Rtypes.h</text>
</g>
<!-- Node1&#45;&gt;Node17 -->
<g id="edge20" class="edge"><title>Node1&#45;&gt;Node17</title>
<path fill="none" stroke="midnightblue" d="M342.385,-168.083C342.385,-161.006 342.385,-150.861 342.385,-141.986"/>
<polygon fill="midnightblue" stroke="midnightblue" points="345.885,-141.751 342.385,-131.751 338.885,-141.751 345.885,-141.751"/>
</g>
<!-- Node7&#45;&gt;Node4 -->
<g id="edge16" class="edge"><title>Node7&#45;&gt;Node4</title>
<path fill="none" stroke="midnightblue" d="M487.853,-112.444C451.289,-102.522 391.267,-86.2343 353.885,-76.0904"/>
<polygon fill="midnightblue" stroke="midnightblue" points="354.548,-72.6437 343.98,-73.4026 352.714,-79.3994 354.548,-72.6437"/>
</g>
<!-- Node8 -->
<g id="node9" class="node"><title>Node8</title>
<g id="a_node9"><a xlink:href="interval_8h.html" target="_top" xlink:title="base/interval.h">
<polygon fill="white" stroke="black" points="475.885,-56.5 475.885,-75.5 562.885,-75.5 562.885,-56.5 475.885,-56.5"/>
<text text-anchor="middle" x="519.385" y="-63.5" font-family="Helvetica,sans-Serif" font-size="10.00">base/interval.h</text>
</a>
</g>
</g>
<!-- Node7&#45;&gt;Node8 -->
<g id="edge8" class="edge"><title>Node7&#45;&gt;Node8</title>
<path fill="none" stroke="midnightblue" d="M519.385,-112.083C519.385,-105.006 519.385,-94.8611 519.385,-85.9865"/>
<polygon fill="midnightblue" stroke="midnightblue" points="522.885,-85.751 519.385,-75.7511 515.885,-85.7511 522.885,-85.751"/>
</g>
<!-- Node11 -->
<g id="node12" class="node"><title>Node11</title>
<polygon fill="white" stroke="#bfbfbf" points="613.385,-0.5 613.385,-19.5 677.385,-19.5 677.385,-0.5 613.385,-0.5"/>
<text text-anchor="middle" x="645.385" y="-7.5" font-family="Helvetica,sans-Serif" font-size="10.00">stdexcept</text>
</g>
<!-- Node7&#45;&gt;Node11 -->
<g id="edge17" class="edge"><title>Node7&#45;&gt;Node11</title>
<path fill="none" stroke="midnightblue" d="M529.373,-112.395C539.856,-103.354 556.807,-88.7101 571.385,-76 590.743,-59.1231 612.857,-39.6767 627.83,-26.4845"/>
<polygon fill="midnightblue" stroke="midnightblue" points="630.164,-29.0929 635.352,-19.8549 625.536,-23.8417 630.164,-29.0929"/>
</g>
<!-- Node13 -->
<g id="node14" class="node"><title>Node13</title>
<polygon fill="white" stroke="#bfbfbf" points="345.885,-0.5 345.885,-19.5 398.885,-19.5 398.885,-0.5 345.885,-0.5"/>
<text text-anchor="middle" x="372.385" y="-7.5" font-family="Helvetica,sans-Serif" font-size="10.00">istream</text>
</g>
<!-- Node7&#45;&gt;Node13 -->
<g id="edge18" class="edge"><title>Node7&#45;&gt;Node13</title>
<path fill="none" stroke="midnightblue" d="M465.856,-113.764C440.169,-107.687 410.829,-96.5167 391.385,-76 379.644,-63.6104 375.109,-44.367 373.383,-30.029"/>
<polygon fill="midnightblue" stroke="midnightblue" points="376.849,-29.4755 372.517,-19.8066 369.874,-30.0663 376.849,-29.4755"/>
</g>
<!-- Node16 -->
<g id="node17" class="node"><title>Node16</title>
<polygon fill="white" stroke="#bfbfbf" points="400.885,-56.5 400.885,-75.5 457.885,-75.5 457.885,-56.5 400.885,-56.5"/>
<text text-anchor="middle" x="429.385" y="-63.5" font-family="Helvetica,sans-Serif" font-size="10.00">ostream</text>
</g>
<!-- Node7&#45;&gt;Node16 -->
<g id="edge19" class="edge"><title>Node7&#45;&gt;Node16</title>
<path fill="none" stroke="midnightblue" d="M504.925,-112.324C490.886,-103.9 469.337,-90.9709 452.842,-81.0741"/>
<polygon fill="midnightblue" stroke="midnightblue" points="454.185,-77.7983 443.809,-75.6545 450.584,-83.8007 454.185,-77.7983"/>
</g>
<!-- Node9 -->
<g id="node10" class="node"><title>Node9</title>
<g id="a_node10"><a xlink:href="types_8h.html" target="_top" xlink:title="types.h">
<polygon fill="white" stroke="black" points="543.385,-0.5 543.385,-19.5 595.385,-19.5 595.385,-0.5 543.385,-0.5"/>
<text text-anchor="middle" x="569.385" y="-7.5" font-family="Helvetica,sans-Serif" font-size="10.00">types.h</text>
</a>
</g>
</g>
<!-- Node8&#45;&gt;Node9 -->
<g id="edge9" class="edge"><title>Node8&#45;&gt;Node9</title>
<path fill="none" stroke="midnightblue" d="M527.642,-56.083C534.85,-48.2982 545.495,-36.8015 554.231,-27.3665"/>
<polygon fill="midnightblue" stroke="midnightblue" points="557.057,-29.4666 561.282,-19.7511 551.92,-24.7108 557.057,-29.4666"/>
</g>
<!-- Node8&#45;&gt;Node10 -->
<g id="edge10" class="edge"><title>Node8&#45;&gt;Node10</title>
<path fill="none" stroke="midnightblue" d="M475.752,-57.324C472.586,-56.849 469.439,-56.4015 466.385,-56 299.239,-34.0251 252.876,-46.4233 82.8014,-20.038"/>
<polygon fill="midnightblue" stroke="midnightblue" points="83.1775,-16.5542 72.7549,-18.457 82.0892,-23.4691 83.1775,-16.5542"/>
</g>
<!-- Node8&#45;&gt;Node11 -->
<g id="edge11" class="edge"><title>Node8&#45;&gt;Node11</title>
<path fill="none" stroke="midnightblue" d="M539.35,-56.4435C559.994,-47.5961 592.448,-33.6875 616.017,-23.5865"/>
<polygon fill="midnightblue" stroke="midnightblue" points="617.701,-26.6727 625.514,-19.5164 614.943,-20.2387 617.701,-26.6727"/>
</g>
<!-- Node12 -->
<g id="node13" class="node"><title>Node12</title>
<polygon fill="white" stroke="#bfbfbf" points="417.385,-0.5 417.385,-19.5 459.385,-19.5 459.385,-0.5 417.385,-0.5"/>
<text text-anchor="middle" x="438.385" y="-7.5" font-family="Helvetica,sans-Serif" font-size="10.00">limits</text>
</g>
<!-- Node8&#45;&gt;Node12 -->
<g id="edge12" class="edge"><title>Node8&#45;&gt;Node12</title>
<path fill="none" stroke="midnightblue" d="M506.371,-56.324C493.854,-47.979 474.704,-35.2122 459.914,-25.3524"/>
<polygon fill="midnightblue" stroke="midnightblue" points="461.629,-22.2894 451.367,-19.6545 457.746,-28.1137 461.629,-22.2894"/>
</g>
<!-- Node8&#45;&gt;Node13 -->
<g id="edge13" class="edge"><title>Node8&#45;&gt;Node13</title>
<path fill="none" stroke="midnightblue" d="M496.093,-56.4435C471.578,-47.4381 432.789,-33.1891 405.185,-23.049"/>
<polygon fill="midnightblue" stroke="midnightblue" points="406.162,-19.6793 395.569,-19.5164 403.749,-26.25 406.162,-19.6793"/>
</g>
<!-- Node8&#45;&gt;Node14 -->
<g id="edge14" class="edge"><title>Node8&#45;&gt;Node14</title>
<path fill="none" stroke="midnightblue" d="M475.734,-57.4468C472.573,-56.9429 469.431,-56.4554 466.385,-56 353.952,-39.1911 220.519,-22.9763 156.445,-15.4212"/>
<polygon fill="midnightblue" stroke="midnightblue" points="156.745,-11.9324 146.405,-14.2413 155.928,-18.8846 156.745,-11.9324"/>
</g>
<!-- Node15 -->
<g id="node16" class="node"><title>Node15</title>
<polygon fill="white" stroke="#bfbfbf" points="477.885,-0.5 477.885,-19.5 524.885,-19.5 524.885,-0.5 477.885,-0.5"/>
<text text-anchor="middle" x="501.385" y="-7.5" font-family="Helvetica,sans-Serif" font-size="10.00">cmath</text>
</g>
<!-- Node8&#45;&gt;Node15 -->
<g id="edge15" class="edge"><title>Node8&#45;&gt;Node15</title>
<path fill="none" stroke="midnightblue" d="M516.413,-56.083C514.002,-48.8486 510.522,-38.4087 507.518,-29.3968"/>
<polygon fill="midnightblue" stroke="midnightblue" points="510.785,-28.1311 504.302,-19.7511 504.144,-30.3447 510.785,-28.1311"/>
</g>
<!-- Node18&#45;&gt;Node2 -->
<g id="edge22" class="edge"><title>Node18&#45;&gt;Node2</title>
<path fill="none" stroke="midnightblue" d="M98.2905,-112.444C116.639,-103.675 145.391,-89.9355 166.479,-79.8579"/>
<polygon fill="midnightblue" stroke="midnightblue" points="168.05,-82.9862 175.564,-75.5164 165.032,-76.6703 168.05,-82.9862"/>
</g>
<!-- Node18&#45;&gt;Node4 -->
<g id="edge25" class="edge"><title>Node18&#45;&gt;Node4</title>
<path fill="none" stroke="midnightblue" d="M118.414,-112.444C164.79,-102.009 242.455,-84.5342 286.745,-74.569"/>
<polygon fill="midnightblue" stroke="midnightblue" points="287.733,-77.9344 296.721,-72.3245 286.196,-71.1051 287.733,-77.9344"/>
</g>
<!-- Node18&#45;&gt;Node10 -->
<g id="edge24" class="edge"><title>Node18&#45;&gt;Node10</title>
<path fill="none" stroke="midnightblue" d="M77.325,-112.368C71.0028,-94.5366 56.3809,-53.2953 47.8635,-29.2717"/>
<polygon fill="midnightblue" stroke="midnightblue" points="51.0719,-27.847 44.4313,-19.5914 44.4743,-30.1862 51.0719,-27.847"/>
</g>
<!-- Node18&#45;&gt;Node14 -->
<g id="edge23" class="edge"><title>Node18&#45;&gt;Node14</title>
<path fill="none" stroke="midnightblue" d="M83.3671,-112.368C89.5272,-94.5366 103.774,-53.2953 112.073,-29.2717"/>
<polygon fill="midnightblue" stroke="midnightblue" points="115.46,-30.1862 115.417,-19.5914 108.844,-27.9005 115.46,-30.1862"/>
</g>
<!-- Node20 -->
<g id="node21" class="node"><title>Node20</title>
<polygon fill="white" stroke="#bfbfbf" points="638.885,-112.5 638.885,-131.5 737.885,-131.5 737.885,-112.5 638.885,-112.5"/>
<text text-anchor="middle" x="688.385" y="-119.5" font-family="Helvetica,sans-Serif" font-size="10.00">easylogging++.h</text>
</g>
<!-- Node19&#45;&gt;Node20 -->
<g id="edge27" class="edge"><title>Node19&#45;&gt;Node20</title>
<path fill="none" stroke="midnightblue" d="M486.414,-168.444C528.194,-159.043 595.367,-143.929 640.655,-133.739"/>
<polygon fill="midnightblue" stroke="midnightblue" points="641.547,-137.126 650.535,-131.516 640.01,-130.297 641.547,-137.126"/>
</g>
</g>
</svg>
