<?xml version="1.0" encoding="UTF-8" standalone="no"?>
<!DOCTYPE svg PUBLIC "-//W3C//DTD SVG 1.1//EN"
 "http://www.w3.org/Graphics/SVG/1.1/DTD/svg11.dtd">
<!-- Generated by graphviz version 2.38.0 (20140413.2041)
 -->
<!-- Title: src/base/SavitzkyGolay.h Pages: 1 -->
<svg width="906pt" height="162pt"
 viewBox="0.00 0.00 905.50 162.00" xmlns="http://www.w3.org/2000/svg" xmlns:xlink="http://www.w3.org/1999/xlink">
<g id="graph0" class="graph" transform="scale(1 1) rotate(0) translate(4 158)">
<title>src/base/SavitzkyGolay.h</title>
<polygon fill="white" stroke="none" points="-4,4 -4,-158 901.5,-158 901.5,4 -4,4"/>
<!-- Node12 -->
<g id="node1" class="node"><title>Node12</title>
<polygon fill="#bfbfbf" stroke="black" points="362.5,-134.5 362.5,-153.5 496.5,-153.5 496.5,-134.5 362.5,-134.5"/>
<text text-anchor="middle" x="429.5" y="-141.5" font-family="Helvetica,sans-Serif" font-size="10.00">src/base/SavitzkyGolay.h</text>
</g>
<!-- Node13 -->
<g id="node2" class="node"><title>Node13</title>
<g id="a_node2"><a xlink:href="_savitzky_golay_8cc.html" target="_top" xlink:title="src/base/SavitzkyGolay.cc">
<polygon fill="white" stroke="black" points="222,-73 222,-92 361,-92 361,-73 222,-73"/>
<text text-anchor="middle" x="291.5" y="-80" font-family="Helvetica,sans-Serif" font-size="10.00">src/base/SavitzkyGolay.cc</text>
</a>
</g>
</g>
<!-- Node12&#45;&gt;Node13 -->
<g id="edge1" class="edge"><title>Node12&#45;&gt;Node13</title>
<path fill="none" stroke="midnightblue" d="M400.461,-130.48C373.659,-118.924 334.583,-102.076 311.235,-92.0091"/>
<polygon fill="midnightblue" stroke="midnightblue" points="399.159,-133.73 409.728,-134.475 401.931,-127.302 399.159,-133.73"/>
</g>
<!-- Node14 -->
<g id="node3" class="node"><title>Node14</title>
<g id="a_node3"><a xlink:href="_avg_buffer_8h.html" target="_top" xlink:title="src/calibration/gui\l/AvgBuffer.h">
<polygon fill="white" stroke="black" points="379,-67.5 379,-97.5 480,-97.5 480,-67.5 379,-67.5"/>
<text text-anchor="start" x="387" y="-85.5" font-family="Helvetica,sans-Serif" font-size="10.00">src/calibration/gui</text>
<text text-anchor="middle" x="429.5" y="-74.5" font-family="Helvetica,sans-Serif" font-size="10.00">/AvgBuffer.h</text>
</a>
</g>
</g>
<!-- Node12&#45;&gt;Node14 -->
<g id="edge2" class="edge"><title>Node12&#45;&gt;Node14</title>
<path fill="none" stroke="midnightblue" d="M429.5,-124.235C429.5,-115.586 429.5,-105.497 429.5,-97.523"/>
<polygon fill="midnightblue" stroke="midnightblue" points="426,-124.475 429.5,-134.475 433,-124.475 426,-124.475"/>
</g>
<!-- Node21 -->
<g id="node10" class="node"><title>Node21</title>
<g id="a_node10"><a xlink:href="_test_savitzky_golay_8cc.html" target="_top" xlink:title="test/base/TestSavitzkyGolay.cc">
<polygon fill="white" stroke="black" points="498.5,-73 498.5,-92 660.5,-92 660.5,-73 498.5,-73"/>
<text text-anchor="middle" x="579.5" y="-80" font-family="Helvetica,sans-Serif" font-size="10.00">test/base/TestSavitzkyGolay.cc</text>
</a>
</g>
</g>
<!-- Node12&#45;&gt;Node21 -->
<g id="edge9" class="edge"><title>Node12&#45;&gt;Node21</title>
<path fill="none" stroke="midnightblue" d="M460.301,-130.782C489.45,-119.22 532.448,-102.164 558.049,-92.0091"/>
<polygon fill="midnightblue" stroke="midnightblue" points="458.996,-127.534 450.991,-134.475 461.577,-134.041 458.996,-127.534"/>
</g>
<!-- Node15 -->
<g id="node4" class="node"><title>Node15</title>
<g id="a_node4"><a xlink:href="_ant-calib-smooth_8cc.html" target="_top" xlink:title="progs/Ant&#45;calib&#45;smooth.cc">
<polygon fill="white" stroke="black" points="0,-6 0,-25 143,-25 143,-6 0,-6"/>
<text text-anchor="middle" x="71.5" y="-13" font-family="Helvetica,sans-Serif" font-size="10.00">progs/Ant&#45;calib&#45;smooth.cc</text>
</a>
</g>
</g>
<!-- Node14&#45;&gt;Node15 -->
<g id="edge3" class="edge"><title>Node14&#45;&gt;Node15</title>
<path fill="none" stroke="midnightblue" d="M368.901,-66.9678C272.024,-47.4943 245.736,-47.0784 152.5,-31 141.519,-29.1063 129.71,-27.0205 118.597,-25.0355"/>
<polygon fill="midnightblue" stroke="midnightblue" points="368.323,-70.4218 378.819,-68.9779 369.713,-63.5612 368.323,-70.4218"/>
</g>
<!-- Node16 -->
<g id="node5" class="node"><title>Node16</title>
<g id="a_node5"><a xlink:href="_ant-calib_8cc.html" target="_top" xlink:title="progs/Ant&#45;calib.cc">
<polygon fill="white" stroke="black" points="161.5,-6 161.5,-25 263.5,-25 263.5,-6 161.5,-6"/>
<text text-anchor="middle" x="212.5" y="-13" font-family="Helvetica,sans-Serif" font-size="10.00">progs/Ant&#45;calib.cc</text>
</a>
</g>
</g>
<!-- Node14&#45;&gt;Node16 -->
<g id="edge4" class="edge"><title>Node14&#45;&gt;Node16</title>
<path fill="none" stroke="midnightblue" d="M373.048,-64.5904C330.668,-51.896 274.405,-35.0429 240.973,-25.0287"/>
<polygon fill="midnightblue" stroke="midnightblue" points="372.098,-67.9593 382.681,-67.476 374.106,-61.2537 372.098,-67.9593"/>
</g>
<!-- Node17 -->
<g id="node6" class="node"><title>Node17</title>
<g id="a_node6"><a xlink:href="_ant-smooth_tagg_eff_8cc.html" target="_top" xlink:title="progs/Ant&#45;smoothTaggEff.cc">
<polygon fill="white" stroke="black" points="282,-6 282,-25 433,-25 433,-6 282,-6"/>
<text text-anchor="middle" x="357.5" y="-13" font-family="Helvetica,sans-Serif" font-size="10.00">progs/Ant&#45;smoothTaggEff.cc</text>
</a>
</g>
</g>
<!-- Node14&#45;&gt;Node17 -->
<g id="edge5" class="edge"><title>Node14&#45;&gt;Node17</title>
<path fill="none" stroke="midnightblue" d="M406.429,-60.6722C393.135,-48.6707 377.129,-34.2203 367.131,-25.1945"/>
<polygon fill="midnightblue" stroke="midnightblue" points="404.109,-63.2929 413.877,-67.396 408.8,-58.097 404.109,-63.2929"/>
</g>
<!-- Node18 -->
<g id="node7" class="node"><title>Node18</title>
<g id="a_node7"><a xlink:href="_manager_8cc.html" target="_top" xlink:title="src/calibration/gui\l/Manager.cc">
<polygon fill="white" stroke="black" points="451,-0.5 451,-30.5 552,-30.5 552,-0.5 451,-0.5"/>
<text text-anchor="start" x="459" y="-18.5" font-family="Helvetica,sans-Serif" font-size="10.00">src/calibration/gui</text>
<text text-anchor="middle" x="501.5" y="-7.5" font-family="Helvetica,sans-Serif" font-size="10.00">/Manager.cc</text>
</a>
</g>
</g>
<!-- Node14&#45;&gt;Node18 -->
<g id="edge6" class="edge"><title>Node14&#45;&gt;Node18</title>
<path fill="none" stroke="midnightblue" d="M452.653,-60.5978C463.525,-50.7831 476.196,-39.3442 485.908,-30.5765"/>
<polygon fill="midnightblue" stroke="midnightblue" points="450.2,-58.097 445.123,-67.396 454.891,-63.2929 450.2,-58.097"/>
</g>
<!-- Node19 -->
<g id="node8" class="node"><title>Node19</title>
<g id="a_node8"><a xlink:href="_test_avg_buffer_8cc.html" target="_top" xlink:title="test/calibration/TestAvg\lBuffer.cc">
<polygon fill="white" stroke="black" points="570,-0.5 570,-30.5 697,-30.5 697,-0.5 570,-0.5"/>
<text text-anchor="start" x="578" y="-18.5" font-family="Helvetica,sans-Serif" font-size="10.00">test/calibration/TestAvg</text>
<text text-anchor="middle" x="633.5" y="-7.5" font-family="Helvetica,sans-Serif" font-size="10.00">Buffer.cc</text>
</a>
</g>
</g>
<!-- Node14&#45;&gt;Node19 -->
<g id="edge7" class="edge"><title>Node14&#45;&gt;Node19</title>
<path fill="none" stroke="midnightblue" d="M483.455,-64.3084C516.457,-53.7932 558.155,-40.5068 589.213,-30.6109"/>
<polygon fill="midnightblue" stroke="midnightblue" points="481.979,-61.1052 473.514,-67.476 484.104,-67.7748 481.979,-61.1052"/>
</g>
<!-- Node20 -->
<g id="node9" class="node"><title>Node20</title>
<g id="a_node9"><a xlink:href="_test_g_u_i_manager_8cc.html" target="_top" xlink:title="test/calibration/TestGUIManager.cc">
<polygon fill="white" stroke="black" points="715.5,-6 715.5,-25 897.5,-25 897.5,-6 715.5,-6"/>
<text text-anchor="middle" x="806.5" y="-13" font-family="Helvetica,sans-Serif" font-size="10.00">test/calibration/TestGUIManager.cc</text>
</a>
</g>
</g>
<!-- Node14&#45;&gt;Node20 -->
<g id="edge8" class="edge"><title>Node14&#45;&gt;Node20</title>
<path fill="none" stroke="midnightblue" d="M490.335,-66.9624C552.547,-55.0561 676.246,-36.0732 749.366,-25.0456"/>
<polygon fill="midnightblue" stroke="midnightblue" points="489.316,-63.5955 480.176,-68.9548 490.663,-70.4646 489.316,-63.5955"/>
</g>
</g>
</svg>
