<?xml version="1.0" encoding="UTF-8" standalone="no"?>
<!DOCTYPE svg PUBLIC "-//W3C//DTD SVG 1.1//EN"
 "http://www.w3.org/Graphics/SVG/1.1/DTD/svg11.dtd">
<!-- Generated by graphviz version 2.38.0 (20140413.2041)
 -->
<!-- Title: src/expconfig/setups/Setup_2019_07.h Pages: 1 -->
<svg width="123pt" height="106pt"
 viewBox="0.00 0.00 123.00 106.00" xmlns="http://www.w3.org/2000/svg" xmlns:xlink="http://www.w3.org/1999/xlink">
<g id="graph0" class="graph" transform="scale(1 1) rotate(0) translate(4 102)">
<title>src/expconfig/setups/Setup_2019_07.h</title>
<polygon fill="white" stroke="none" points="-4,4 -4,-102 119,-102 119,4 -4,4"/>
<!-- Node71 -->
<g id="node1" class="node"><title>Node71</title>
<polygon fill="#bfbfbf" stroke="black" points="-7.10543e-15,-67.5 -7.10543e-15,-97.5 115,-97.5 115,-67.5 -7.10543e-15,-67.5"/>
<text text-anchor="start" x="8" y="-85.5" font-family="Helvetica,sans-Serif" font-size="10.00">src/expconfig/setups</text>
<text text-anchor="middle" x="57.5" y="-74.5" font-family="Helvetica,sans-Serif" font-size="10.00">/Setup_2019_07.h</text>
</g>
<!-- Node72 -->
<g id="node2" class="node"><title>Node72</title>
<g id="a_node2"><a xlink:href="_setup__2019__07_8cc.html" target="_top" xlink:title="src/expconfig/setups\l/Setup_2019_07.cc">
<polygon fill="white" stroke="black" points="-7.10543e-15,-0.5 -7.10543e-15,-30.5 115,-30.5 115,-0.5 -7.10543e-15,-0.5"/>
<text text-anchor="start" x="8" y="-18.5" font-family="Helvetica,sans-Serif" font-size="10.00">src/expconfig/setups</text>
<text text-anchor="middle" x="57.5" y="-7.5" font-family="Helvetica,sans-Serif" font-size="10.00">/Setup_2019_07.cc</text>
</a>
</g>
</g>
<!-- Node71&#45;&gt;Node72 -->
<g id="edge1" class="edge"><title>Node71&#45;&gt;Node72</title>
<path fill="none" stroke="midnightblue" d="M57.5,-57.1081C57.5,-48.1539 57.5,-38.3227 57.5,-30.5765"/>
<polygon fill="midnightblue" stroke="midnightblue" points="54.0001,-57.3959 57.5,-67.396 61.0001,-57.396 54.0001,-57.3959"/>
</g>
</g>
</svg>
