<?xml version="1.0" encoding="UTF-8" standalone="no"?>
<!DOCTYPE svg PUBLIC "-//W3C//DTD SVG 1.1//EN"
 "http://www.w3.org/Graphics/SVG/1.1/DTD/svg11.dtd">
<!-- Generated by graphviz version 2.38.0 (20140413.2041)
 -->
<!-- Title: src/expconfig/setups/Setup.h Pages: 1 -->
<svg width="3990pt" height="520pt"
 viewBox="0.00 0.00 3990.12 520.00" xmlns="http://www.w3.org/2000/svg" xmlns:xlink="http://www.w3.org/1999/xlink">
<g id="graph0" class="graph" transform="scale(1 1) rotate(0) translate(4 516)">
<title>src/expconfig/setups/Setup.h</title>
<polygon fill="white" stroke="none" points="-4,4 -4,-516 3986.12,-516 3986.12,4 -4,4"/>
<!-- Node0 -->
<g id="node1" class="node"><title>Node0</title>
<polygon fill="#bfbfbf" stroke="black" points="2504.62,-481.5 2504.62,-511.5 2619.62,-511.5 2619.62,-481.5 2504.62,-481.5"/>
<text text-anchor="start" x="2512.62" y="-499.5" font-family="Helvetica,sans-Serif" font-size="10.00">src/expconfig/setups</text>
<text text-anchor="middle" x="2562.12" y="-488.5" font-family="Helvetica,sans-Serif" font-size="10.00">/Setup.h</text>
</g>
<!-- Node1 -->
<g id="node2" class="node"><title>Node1</title>
<g id="a_node2"><a xlink:href="_exp_config_8h.html" target="_top" xlink:title="expconfig/ExpConfig.h">
<polygon fill="white" stroke="black" points="1906.12,-369.5 1906.12,-388.5 2028.12,-388.5 2028.12,-369.5 1906.12,-369.5"/>
<text text-anchor="middle" x="1967.12" y="-376.5" font-family="Helvetica,sans-Serif" font-size="10.00">expconfig/ExpConfig.h</text>
</a>
</g>
</g>
<!-- Node0&#45;&gt;Node1 -->
<g id="edge1" class="edge"><title>Node0&#45;&gt;Node1</title>
<path fill="none" stroke="midnightblue" d="M2504.53,-484.32C2389.57,-462.004 2133.07,-412.214 2021.13,-390.483"/>
<polygon fill="midnightblue" stroke="midnightblue" points="2021.56,-387.001 2011.07,-388.531 2020.22,-393.873 2021.56,-387.001"/>
</g>
<!-- Node14 -->
<g id="node15" class="node"><title>Node14</title>
<polygon fill="white" stroke="#bfbfbf" points="3003.12,-0.5 3003.12,-19.5 3047.12,-19.5 3047.12,-0.5 3003.12,-0.5"/>
<text text-anchor="middle" x="3025.12" y="-7.5" font-family="Helvetica,sans-Serif" font-size="10.00">string</text>
</g>
<!-- Node0&#45;&gt;Node14 -->
<g id="edge157" class="edge"><title>Node0&#45;&gt;Node14</title>
<path fill="none" stroke="midnightblue" d="M2619.73,-495.68C2781.5,-495.569 3253.47,-491.001 3642.12,-445 3794.91,-426.917 3982.12,-533.848 3982.12,-380 3982.12,-380 3982.12,-380 3982.12,-126.5 3982.12,-66.1696 3923.76,-73.8162 3866.12,-56 3711.07,-8.07372 3192.55,-9.42813 3057.5,-10.634"/>
<polygon fill="midnightblue" stroke="midnightblue" points="3057.36,-7.13513 3047.39,-10.7306 3057.42,-14.1348 3057.36,-7.13513"/>
</g>
<!-- Node22 -->
<g id="node23" class="node"><title>Node22</title>
<polygon fill="white" stroke="#bfbfbf" points="3624.62,-56.5 3624.62,-75.5 3687.62,-75.5 3687.62,-56.5 3624.62,-56.5"/>
<text text-anchor="middle" x="3656.12" y="-63.5" font-family="Helvetica,sans-Serif" font-size="10.00">functional</text>
</g>
<!-- Node0&#45;&gt;Node22 -->
<g id="edge156" class="edge"><title>Node0&#45;&gt;Node22</title>
<path fill="none" stroke="midnightblue" d="M2619.87,-493.611C2877.12,-484.823 3906.12,-445.574 3906.12,-380 3906.12,-380 3906.12,-380 3906.12,-260.5 3906.12,-156.399 3768.89,-100.336 3697.77,-78.2729"/>
<polygon fill="midnightblue" stroke="midnightblue" points="3698.37,-74.7972 3687.79,-75.2628 3696.35,-81.4995 3698.37,-74.7972"/>
</g>
<!-- Node25 -->
<g id="node26" class="node"><title>Node25</title>
<g id="a_node26"><a xlink:href="_calibration_8h.html" target="_top" xlink:title="calibration/Calibration.h">
<polygon fill="white" stroke="black" points="2525.62,-313.5 2525.62,-332.5 2654.62,-332.5 2654.62,-313.5 2525.62,-313.5"/>
<text text-anchor="middle" x="2590.12" y="-320.5" font-family="Helvetica,sans-Serif" font-size="10.00">calibration/Calibration.h</text>
</a>
</g>
</g>
<!-- Node0&#45;&gt;Node25 -->
<g id="edge148" class="edge"><title>Node0&#45;&gt;Node25</title>
<path fill="none" stroke="midnightblue" d="M2564.01,-481.425C2567.2,-458.03 2574,-409.689 2581.12,-369 2582.65,-360.259 2584.56,-350.607 2586.22,-342.49"/>
<polygon fill="midnightblue" stroke="midnightblue" points="2589.66,-343.107 2588.27,-332.604 2582.81,-341.68 2589.66,-343.107"/>
</g>
<!-- Node42 -->
<g id="node43" class="node"><title>Node42</title>
<g id="a_node43"><a xlink:href="_t_i_d_8h.html" target="_top" xlink:title="tree/TID.h">
<polygon fill="white" stroke="black" points="718.624,-185 718.624,-204 781.624,-204 781.624,-185 718.624,-185"/>
<text text-anchor="middle" x="750.124" y="-192" font-family="Helvetica,sans-Serif" font-size="10.00">tree/TID.h</text>
</a>
</g>
</g>
<!-- Node0&#45;&gt;Node42 -->
<g id="edge147" class="edge"><title>Node0&#45;&gt;Node42</title>
<path fill="none" stroke="midnightblue" d="M2504.52,-494.953C2193.67,-491.631 730.124,-471.149 730.124,-380 730.124,-380 730.124,-380 730.124,-322 730.124,-283.051 739.488,-238.175 745.401,-213.72"/>
<polygon fill="midnightblue" stroke="midnightblue" points="748.798,-214.566 747.829,-204.016 742.007,-212.867 748.798,-214.566"/>
</g>
<!-- Node49 -->
<g id="node50" class="node"><title>Node49</title>
<g id="a_node50"><a xlink:href="_options_list_8h.html" target="_top" xlink:title="base/OptionsList.h">
<polygon fill="white" stroke="black" points="3567.62,-252 3567.62,-271 3672.62,-271 3672.62,-252 3567.62,-252"/>
<text text-anchor="middle" x="3620.12" y="-259" font-family="Helvetica,sans-Serif" font-size="10.00">base/OptionsList.h</text>
</a>
</g>
</g>
<!-- Node0&#45;&gt;Node49 -->
<g id="edge155" class="edge"><title>Node0&#45;&gt;Node49</title>
<path fill="none" stroke="midnightblue" d="M2619.76,-482.807C2807.27,-441.513 3397.84,-311.453 3571.59,-273.189"/>
<polygon fill="midnightblue" stroke="midnightblue" points="3572.45,-276.582 3581.47,-271.013 3570.95,-269.746 3572.45,-276.582"/>
</g>
<!-- Node50 -->
<g id="node51" class="node"><title>Node50</title>
<g id="a_node51"><a xlink:href="piecewise__interval_8h.html" target="_top" xlink:title="base/piecewise_interval.h">
<polygon fill="white" stroke="black" points="547.124,-252 547.124,-271 685.124,-271 685.124,-252 547.124,-252"/>
<text text-anchor="middle" x="616.124" y="-259" font-family="Helvetica,sans-Serif" font-size="10.00">base/piecewise_interval.h</text>
</a>
</g>
</g>
<!-- Node0&#45;&gt;Node50 -->
<g id="edge154" class="edge"><title>Node0&#45;&gt;Node50</title>
<path fill="none" stroke="midnightblue" d="M2504.51,-495.53C2200.53,-495.484 794.181,-492.69 716.124,-445 655.233,-407.798 628.776,-319.373 619.864,-280.904"/>
<polygon fill="midnightblue" stroke="midnightblue" points="623.27,-280.096 617.721,-271.07 616.43,-281.586 623.27,-280.096"/>
</g>
<!-- Node54 -->
<g id="node55" class="node"><title>Node54</title>
<g id="a_node55"><a xlink:href="_setup_registry_8h.html" target="_top" xlink:title="SetupRegistry.h">
<polygon fill="white" stroke="black" points="2769.12,-313.5 2769.12,-332.5 2859.12,-332.5 2859.12,-313.5 2769.12,-313.5"/>
<text text-anchor="middle" x="2814.12" y="-320.5" font-family="Helvetica,sans-Serif" font-size="10.00">SetupRegistry.h</text>
</a>
</g>
</g>
<!-- Node0&#45;&gt;Node54 -->
<g id="edge112" class="edge"><title>Node0&#45;&gt;Node54</title>
<path fill="none" stroke="midnightblue" d="M2589.72,-481.408C2625.99,-462.392 2691.09,-426.549 2742.12,-389 2762.76,-373.817 2784.3,-353.723 2798.38,-339.918"/>
<polygon fill="midnightblue" stroke="midnightblue" points="2801.11,-342.132 2805.74,-332.601 2796.18,-337.166 2801.11,-342.132"/>
</g>
<!-- Node55 -->
<g id="node56" class="node"><title>Node55</title>
<g id="a_node56"><a xlink:href="_unpacker_acqu_8h.html" target="_top" xlink:title="unpacker/UnpackerAcqu.h">
<polygon fill="white" stroke="black" points="1819.62,-425.5 1819.62,-444.5 1962.62,-444.5 1962.62,-425.5 1819.62,-425.5"/>
<text text-anchor="middle" x="1891.12" y="-432.5" font-family="Helvetica,sans-Serif" font-size="10.00">unpacker/UnpackerAcqu.h</text>
</a>
</g>
</g>
<!-- Node0&#45;&gt;Node55 -->
<g id="edge118" class="edge"><title>Node0&#45;&gt;Node55</title>
<path fill="none" stroke="midnightblue" d="M2504.33,-490.376C2384.86,-479.781 2110.35,-455.44 1972.81,-443.243"/>
<polygon fill="midnightblue" stroke="midnightblue" points="1973.01,-439.748 1962.74,-442.351 1972.39,-446.72 1973.01,-439.748"/>
</g>
<!-- Node57 -->
<g id="node58" class="node"><title>Node57</title>
<g id="a_node58"><a xlink:href="_unpacker_a2_geant_8h.html" target="_top" xlink:title="unpacker/UnpackerA2Geant.h">
<polygon fill="white" stroke="black" points="1356.62,-425.5 1356.62,-444.5 1517.62,-444.5 1517.62,-425.5 1356.62,-425.5"/>
<text text-anchor="middle" x="1437.12" y="-432.5" font-family="Helvetica,sans-Serif" font-size="10.00">unpacker/UnpackerA2Geant.h</text>
</a>
</g>
</g>
<!-- Node0&#45;&gt;Node57 -->
<g id="edge131" class="edge"><title>Node0&#45;&gt;Node57</title>
<path fill="none" stroke="midnightblue" d="M2504.4,-492.447C2321.06,-482.75 1750.95,-452.598 1527.9,-440.801"/>
<polygon fill="midnightblue" stroke="midnightblue" points="1528.03,-437.303 1517.86,-440.27 1527.66,-444.294 1528.03,-437.303"/>
</g>
<!-- Node60 -->
<g id="node61" class="node"><title>Node60</title>
<g id="a_node61"><a xlink:href="_data_manager_8h.html" target="_top" xlink:title="calibration/DataManager.h">
<polygon fill="white" stroke="black" points="2590.62,-369.5 2590.62,-388.5 2733.62,-388.5 2733.62,-369.5 2590.62,-369.5"/>
<text text-anchor="middle" x="2662.12" y="-376.5" font-family="Helvetica,sans-Serif" font-size="10.00">calibration/DataManager.h</text>
</a>
</g>
</g>
<!-- Node0&#45;&gt;Node60 -->
<g id="edge149" class="edge"><title>Node0&#45;&gt;Node60</title>
<path fill="none" stroke="midnightblue" d="M2574.39,-481.337C2592.98,-459.865 2628.21,-419.172 2647.9,-396.429"/>
<polygon fill="midnightblue" stroke="midnightblue" points="2650.72,-398.521 2654.62,-388.669 2645.43,-393.939 2650.72,-398.521"/>
</g>
<!-- Node2 -->
<g id="node3" class="node"><title>Node2</title>
<g id="a_node3"><a xlink:href="_detector__t_8h.html" target="_top" xlink:title="base/Detector_t.h">
<polygon fill="white" stroke="black" points="1194.62,-185 1194.62,-204 1297.62,-204 1297.62,-185 1194.62,-185"/>
<text text-anchor="middle" x="1246.12" y="-192" font-family="Helvetica,sans-Serif" font-size="10.00">base/Detector_t.h</text>
</a>
</g>
</g>
<!-- Node1&#45;&gt;Node2 -->
<g id="edge2" class="edge"><title>Node1&#45;&gt;Node2</title>
<path fill="none" stroke="midnightblue" d="M1933.32,-369.442C1815.28,-339.566 1421.55,-239.904 1289.63,-206.512"/>
<polygon fill="midnightblue" stroke="midnightblue" points="1290.41,-203.1 1279.86,-204.039 1288.69,-209.886 1290.41,-203.1"/>
</g>
<!-- Node16 -->
<g id="node17" class="node"><title>Node16</title>
<g id="a_node17"><a xlink:href="_reconstruct__traits_8h.html" target="_top" xlink:title="reconstruct/Reconstruct\l_traits.h">
<polygon fill="white" stroke="black" points="2147.62,-246.5 2147.62,-276.5 2278.62,-276.5 2278.62,-246.5 2147.62,-246.5"/>
<text text-anchor="start" x="2155.62" y="-264.5" font-family="Helvetica,sans-Serif" font-size="10.00">reconstruct/Reconstruct</text>
<text text-anchor="middle" x="2213.12" y="-253.5" font-family="Helvetica,sans-Serif" font-size="10.00">_traits.h</text>
</a>
</g>
</g>
<!-- Node1&#45;&gt;Node16 -->
<g id="edge19" class="edge"><title>Node1&#45;&gt;Node16</title>
<path fill="none" stroke="midnightblue" d="M1985.61,-369.319C2025.46,-350.611 2120.16,-306.148 2173.98,-280.879"/>
<polygon fill="midnightblue" stroke="midnightblue" points="2175.64,-283.964 2183.21,-276.545 2172.67,-277.627 2175.64,-283.964"/>
</g>
<!-- Node19 -->
<g id="node20" class="node"><title>Node19</title>
<polygon fill="white" stroke="#bfbfbf" points="2598.62,-56.5 2598.62,-75.5 2655.62,-75.5 2655.62,-56.5 2598.62,-56.5"/>
<text text-anchor="middle" x="2627.12" y="-63.5" font-family="Helvetica,sans-Serif" font-size="10.00">memory</text>
</g>
<!-- Node1&#45;&gt;Node19 -->
<g id="edge109" class="edge"><title>Node1&#45;&gt;Node19</title>
<path fill="none" stroke="midnightblue" d="M2028.18,-372.097C2097.61,-362.593 2211.17,-338.259 2287.12,-277 2326.17,-245.508 2302.51,-208.444 2343.12,-179 2407.41,-132.394 2445.17,-174.352 2518.12,-143 2553.73,-127.698 2589.55,-99.7493 2609.96,-82.3428"/>
<polygon fill="midnightblue" stroke="midnightblue" points="2612.47,-84.7982 2617.72,-75.596 2607.88,-79.5153 2612.47,-84.7982"/>
</g>
<!-- Node20 -->
<g id="node21" class="node"><title>Node20</title>
<polygon fill="white" stroke="#bfbfbf" points="1895.12,-56.5 1895.12,-75.5 1925.12,-75.5 1925.12,-56.5 1895.12,-56.5"/>
<text text-anchor="middle" x="1910.12" y="-63.5" font-family="Helvetica,sans-Serif" font-size="10.00">list</text>
</g>
<!-- Node1&#45;&gt;Node20 -->
<g id="edge110" class="edge"><title>Node1&#45;&gt;Node20</title>
<path fill="none" stroke="midnightblue" d="M1962.16,-369.337C1951.86,-350.532 1929.12,-304.297 1929.12,-262.5 1929.12,-262.5 1929.12,-262.5 1929.12,-193.5 1929.12,-154.773 1920.31,-110.109 1914.69,-85.5661"/>
<polygon fill="midnightblue" stroke="midnightblue" points="1918.02,-84.4449 1912.3,-75.523 1911.21,-86.0609 1918.02,-84.4449"/>
</g>
<!-- Node24 -->
<g id="node25" class="node"><title>Node24</title>
<polygon fill="white" stroke="#bfbfbf" points="1995.12,-185 1995.12,-204 2033.12,-204 2033.12,-185 1995.12,-185"/>
<text text-anchor="middle" x="2014.12" y="-192" font-family="Helvetica,sans-Serif" font-size="10.00">map</text>
</g>
<!-- Node1&#45;&gt;Node24 -->
<g id="edge111" class="edge"><title>Node1&#45;&gt;Node24</title>
<path fill="none" stroke="midnightblue" d="M1969.39,-369.198C1976.63,-341.073 1999.33,-252.958 2009.32,-214.157"/>
<polygon fill="midnightblue" stroke="midnightblue" points="2012.77,-214.771 2011.88,-204.214 2006,-213.025 2012.77,-214.771"/>
</g>
<!-- Node1&#45;&gt;Node25 -->
<g id="edge37" class="edge"><title>Node1&#45;&gt;Node25</title>
<path fill="none" stroke="midnightblue" d="M2028.28,-372.699C2143.08,-362.748 2390.5,-341.302 2515.14,-330.499"/>
<polygon fill="midnightblue" stroke="midnightblue" points="2515.69,-333.965 2525.35,-329.614 2515.09,-326.991 2515.69,-333.965"/>
</g>
<!-- Node1&#45;&gt;Node50 -->
<g id="edge98" class="edge"><title>Node1&#45;&gt;Node50</title>
<path fill="none" stroke="midnightblue" d="M1906.01,-372.775C1687.01,-354.052 941.515,-290.318 695.567,-269.292"/>
<polygon fill="midnightblue" stroke="midnightblue" points="695.543,-265.777 685.281,-268.412 694.947,-272.752 695.543,-265.777"/>
</g>
<!-- Node3 -->
<g id="node4" class="node"><title>Node3</title>
<g id="a_node4"><a xlink:href="bitflag_8h.html" target="_top" xlink:title="base/bitflag.h">
<polygon fill="white" stroke="black" points="1023.62,-118 1023.62,-137 1104.62,-137 1104.62,-118 1023.62,-118"/>
<text text-anchor="middle" x="1064.12" y="-125" font-family="Helvetica,sans-Serif" font-size="10.00">base/bitflag.h</text>
</a>
</g>
</g>
<!-- Node2&#45;&gt;Node3 -->
<g id="edge3" class="edge"><title>Node2&#45;&gt;Node3</title>
<path fill="none" stroke="midnightblue" d="M1221.96,-184.869C1190.05,-173.473 1133.71,-153.353 1097.69,-140.487"/>
<polygon fill="midnightblue" stroke="midnightblue" points="1098.7,-137.131 1088.1,-137.064 1096.34,-143.723 1098.7,-137.131"/>
</g>
<!-- Node5 -->
<g id="node6" class="node"><title>Node5</title>
<g id="a_node6"><a xlink:href="vec3_8h.html" target="_top" xlink:title="base/vec/vec3.h">
<polygon fill="white" stroke="black" points="1199.12,-118 1199.12,-137 1293.12,-137 1293.12,-118 1199.12,-118"/>
<text text-anchor="middle" x="1246.12" y="-125" font-family="Helvetica,sans-Serif" font-size="10.00">base/vec/vec3.h</text>
</a>
</g>
</g>
<!-- Node2&#45;&gt;Node5 -->
<g id="edge5" class="edge"><title>Node2&#45;&gt;Node5</title>
<path fill="none" stroke="midnightblue" d="M1246.12,-184.734C1246.12,-175.183 1246.12,-159.618 1246.12,-147.283"/>
<polygon fill="midnightblue" stroke="midnightblue" points="1249.62,-147.127 1246.12,-137.127 1242.62,-147.127 1249.62,-147.127"/>
</g>
<!-- Node9 -->
<g id="node10" class="node"><title>Node9</title>
<g id="a_node10"><a xlink:href="base_2std__ext_2math_8h.html" target="_top" xlink:title="base/std_ext/math.h">
<polygon fill="white" stroke="black" points="851.124,-118 851.124,-137 967.124,-137 967.124,-118 851.124,-118"/>
<text text-anchor="middle" x="909.124" y="-125" font-family="Helvetica,sans-Serif" font-size="10.00">base/std_ext/math.h</text>
</a>
</g>
</g>
<!-- Node2&#45;&gt;Node9 -->
<g id="edge10" class="edge"><title>Node2&#45;&gt;Node9</title>
<path fill="none" stroke="midnightblue" d="M1200.61,-184.976C1147.8,-175.05 1058.11,-158.087 981.124,-143 974.566,-141.715 967.676,-140.348 960.865,-138.987"/>
<polygon fill="midnightblue" stroke="midnightblue" points="961.482,-135.542 950.989,-137.008 960.106,-142.405 961.482,-135.542"/>
</g>
<!-- Node11 -->
<g id="node12" class="node"><title>Node11</title>
<polygon fill="white" stroke="#bfbfbf" points="478.624,-0.5 478.624,-19.5 525.624,-19.5 525.624,-0.5 478.624,-0.5"/>
<text text-anchor="middle" x="502.124" y="-7.5" font-family="Helvetica,sans-Serif" font-size="10.00">vector</text>
</g>
<!-- Node2&#45;&gt;Node11 -->
<g id="edge18" class="edge"><title>Node2&#45;&gt;Node11</title>
<path fill="none" stroke="midnightblue" d="M1194.44,-191.976C1027.52,-186.805 512.269,-168.808 488.124,-143 459.097,-111.975 479.139,-57.1777 492.629,-28.9375"/>
<polygon fill="midnightblue" stroke="midnightblue" points="495.843,-30.3357 497.199,-19.8281 489.586,-27.1965 495.843,-30.3357"/>
</g>
<!-- Node12 -->
<g id="node13" class="node"><title>Node12</title>
<polygon fill="white" stroke="#bfbfbf" points="218.624,-118 218.624,-137 267.624,-137 267.624,-118 218.624,-118"/>
<text text-anchor="middle" x="243.124" y="-125" font-family="Helvetica,sans-Serif" font-size="10.00">cstdint</text>
</g>
<!-- Node2&#45;&gt;Node12 -->
<g id="edge14" class="edge"><title>Node2&#45;&gt;Node12</title>
<path fill="none" stroke="midnightblue" d="M1194.53,-191.686C1025.21,-185.577 487.443,-164.908 315.124,-143 302.797,-141.433 289.421,-138.957 277.582,-136.493"/>
<polygon fill="midnightblue" stroke="midnightblue" points="278.15,-133.035 267.637,-134.352 276.677,-139.878 278.15,-133.035"/>
</g>
<!-- Node13 -->
<g id="node14" class="node"><title>Node13</title>
<polygon fill="white" stroke="#bfbfbf" points="1505.12,-118 1505.12,-137 1569.12,-137 1569.12,-118 1505.12,-118"/>
<text text-anchor="middle" x="1537.12" y="-125" font-family="Helvetica,sans-Serif" font-size="10.00">stdexcept</text>
</g>
<!-- Node2&#45;&gt;Node13 -->
<g id="edge15" class="edge"><title>Node2&#45;&gt;Node13</title>
<path fill="none" stroke="midnightblue" d="M1284.47,-184.936C1338.95,-172.766 1438.42,-150.548 1494.93,-137.924"/>
<polygon fill="midnightblue" stroke="midnightblue" points="1495.97,-141.279 1504.97,-135.683 1494.44,-134.447 1495.97,-141.279"/>
</g>
<!-- Node2&#45;&gt;Node14 -->
<g id="edge16" class="edge"><title>Node2&#45;&gt;Node14</title>
<path fill="none" stroke="midnightblue" d="M1297.79,-190.62C1357.2,-187.393 1457.68,-182.196 1544.12,-179 1623.15,-176.078 2901.46,-187.066 2967.12,-143 3005.64,-117.151 3018.79,-59.5507 3023.11,-29.7168"/>
<polygon fill="midnightblue" stroke="midnightblue" points="3026.59,-30.1266 3024.37,-19.7663 3019.64,-29.2478 3026.59,-30.1266"/>
</g>
<!-- Node15 -->
<g id="node16" class="node"><title>Node15</title>
<polygon fill="white" stroke="#bfbfbf" points="1137.12,-56.5 1137.12,-75.5 1205.12,-75.5 1205.12,-56.5 1137.12,-56.5"/>
<text text-anchor="middle" x="1171.12" y="-63.5" font-family="Helvetica,sans-Serif" font-size="10.00">type_traits</text>
</g>
<!-- Node2&#45;&gt;Node15 -->
<g id="edge17" class="edge"><title>Node2&#45;&gt;Node15</title>
<path fill="none" stroke="midnightblue" d="M1232.47,-184.76C1219.61,-175.812 1200.78,-160.731 1190.12,-143 1179.53,-125.363 1174.82,-102.031 1172.74,-85.8934"/>
<polygon fill="midnightblue" stroke="midnightblue" points="1176.18,-85.1724 1171.65,-75.5989 1169.22,-85.9131 1176.18,-85.1724"/>
</g>
<!-- Node4 -->
<g id="node5" class="node"><title>Node4</title>
<polygon fill="white" stroke="#bfbfbf" points="1042.12,-56.5 1042.12,-75.5 1086.12,-75.5 1086.12,-56.5 1042.12,-56.5"/>
<text text-anchor="middle" x="1064.12" y="-63.5" font-family="Helvetica,sans-Serif" font-size="10.00">bitset</text>
</g>
<!-- Node3&#45;&gt;Node4 -->
<g id="edge4" class="edge"><title>Node3&#45;&gt;Node4</title>
<path fill="none" stroke="midnightblue" d="M1064.12,-117.975C1064.12,-109.58 1064.12,-96.4806 1064.12,-85.6631"/>
<polygon fill="midnightblue" stroke="midnightblue" points="1067.62,-85.5091 1064.12,-75.5091 1060.62,-85.5091 1067.62,-85.5091"/>
</g>
<!-- Node6 -->
<g id="node7" class="node"><title>Node6</title>
<g id="a_node7"><a xlink:href="vec2_8h.html" target="_top" xlink:title="vec2.h">
<polygon fill="white" stroke="black" points="1274.12,-56.5 1274.12,-75.5 1322.12,-75.5 1322.12,-56.5 1274.12,-56.5"/>
<text text-anchor="middle" x="1298.12" y="-63.5" font-family="Helvetica,sans-Serif" font-size="10.00">vec2.h</text>
</a>
</g>
</g>
<!-- Node5&#45;&gt;Node6 -->
<g id="edge6" class="edge"><title>Node5&#45;&gt;Node6</title>
<path fill="none" stroke="midnightblue" d="M1253.57,-117.975C1261.45,-108.962 1274.07,-94.5246 1283.87,-83.3118"/>
<polygon fill="midnightblue" stroke="midnightblue" points="1286.74,-85.342 1290.69,-75.5091 1281.47,-80.7356 1286.74,-85.342"/>
</g>
<!-- Node7 -->
<g id="node8" class="node"><title>Node7</title>
<polygon fill="white" stroke="#bfbfbf" points="1274.62,-0.5 1274.62,-19.5 1321.62,-19.5 1321.62,-0.5 1274.62,-0.5"/>
<text text-anchor="middle" x="1298.12" y="-7.5" font-family="Helvetica,sans-Serif" font-size="10.00">cmath</text>
</g>
<!-- Node5&#45;&gt;Node7 -->
<g id="edge9" class="edge"><title>Node5&#45;&gt;Node7</title>
<path fill="none" stroke="midnightblue" d="M1247.39,-117.896C1249.63,-104.246 1255.02,-77.0226 1265.12,-56 1269.99,-45.8682 1277.23,-35.6763 1283.68,-27.5602"/>
<polygon fill="midnightblue" stroke="midnightblue" points="1286.54,-29.5992 1290.23,-19.6692 1281.15,-25.1282 1286.54,-29.5992"/>
</g>
<!-- Node8 -->
<g id="node9" class="node"><title>Node8</title>
<polygon fill="white" stroke="#bfbfbf" points="613.624,-56.5 613.624,-75.5 670.624,-75.5 670.624,-56.5 613.624,-56.5"/>
<text text-anchor="middle" x="642.124" y="-63.5" font-family="Helvetica,sans-Serif" font-size="10.00">ostream</text>
</g>
<!-- Node5&#45;&gt;Node8 -->
<g id="edge8" class="edge"><title>Node5&#45;&gt;Node8</title>
<path fill="none" stroke="midnightblue" d="M1199.06,-121.153C1173.62,-118.318 1141.67,-114.843 1113.12,-112 935.947,-94.3505 891.156,-95.0452 714.124,-76 703.303,-74.8359 691.586,-73.4326 680.81,-72.084"/>
<polygon fill="midnightblue" stroke="midnightblue" points="681.188,-68.604 670.827,-70.8175 680.307,-75.5483 681.188,-68.604"/>
</g>
<!-- Node6&#45;&gt;Node7 -->
<g id="edge7" class="edge"><title>Node6&#45;&gt;Node7</title>
<path fill="none" stroke="midnightblue" d="M1298.12,-56.083C1298.12,-49.0059 1298.12,-38.8611 1298.12,-29.9865"/>
<polygon fill="midnightblue" stroke="midnightblue" points="1301.62,-29.751 1298.12,-19.7511 1294.62,-29.7511 1301.62,-29.751"/>
</g>
<!-- Node9&#45;&gt;Node7 -->
<g id="edge11" class="edge"><title>Node9&#45;&gt;Node7</title>
<path fill="none" stroke="midnightblue" d="M910.933,-117.847C914.622,-102.562 924.557,-70.9877 946.124,-56 997.1,-20.5745 1185.95,-13.0371 1264.01,-11.4334"/>
<polygon fill="midnightblue" stroke="midnightblue" points="1264.33,-14.9282 1274.27,-11.2442 1264.2,-7.9294 1264.33,-14.9282"/>
</g>
<!-- Node10 -->
<g id="node11" class="node"><title>Node10</title>
<polygon fill="white" stroke="#bfbfbf" points="955.124,-56.5 955.124,-75.5 997.124,-75.5 997.124,-56.5 955.124,-56.5"/>
<text text-anchor="middle" x="976.124" y="-63.5" font-family="Helvetica,sans-Serif" font-size="10.00">limits</text>
</g>
<!-- Node9&#45;&gt;Node10 -->
<g id="edge12" class="edge"><title>Node9&#45;&gt;Node10</title>
<path fill="none" stroke="midnightblue" d="M918.723,-117.975C929.171,-108.697 946.091,-93.6706 958.86,-82.331"/>
<polygon fill="midnightblue" stroke="midnightblue" points="961.389,-84.7663 966.542,-75.5091 956.741,-79.5323 961.389,-84.7663"/>
</g>
<!-- Node9&#45;&gt;Node11 -->
<g id="edge13" class="edge"><title>Node9&#45;&gt;Node11</title>
<path fill="none" stroke="midnightblue" d="M871.08,-117.972C861.337,-115.902 850.861,-113.776 841.124,-112 736.311,-92.8821 703.871,-113.438 604.124,-76 572.243,-64.0346 539.824,-41.1461 520.34,-25.9744"/>
<polygon fill="midnightblue" stroke="midnightblue" points="522.351,-23.1018 512.347,-19.6135 517.992,-28.5791 522.351,-23.1018"/>
</g>
<!-- Node16&#45;&gt;Node2 -->
<g id="edge20" class="edge"><title>Node16&#45;&gt;Node2</title>
<path fill="none" stroke="midnightblue" d="M2147.42,-256.083C1969.64,-244.134 1480.96,-211.285 1307.88,-199.651"/>
<polygon fill="midnightblue" stroke="midnightblue" points="1307.89,-196.144 1297.68,-198.965 1307.42,-203.128 1307.89,-196.144"/>
</g>
<!-- Node17 -->
<g id="node18" class="node"><title>Node17</title>
<g id="a_node18"><a xlink:href="mapped__vectors_8h.html" target="_top" xlink:title="base/std_ext/mapped\l_vectors.h">
<polygon fill="white" stroke="black" points="2051.62,-179.5 2051.62,-209.5 2172.62,-209.5 2172.62,-179.5 2051.62,-179.5"/>
<text text-anchor="start" x="2059.62" y="-197.5" font-family="Helvetica,sans-Serif" font-size="10.00">base/std_ext/mapped</text>
<text text-anchor="middle" x="2112.12" y="-186.5" font-family="Helvetica,sans-Serif" font-size="10.00">_vectors.h</text>
</a>
</g>
</g>
<!-- Node16&#45;&gt;Node17 -->
<g id="edge21" class="edge"><title>Node16&#45;&gt;Node17</title>
<path fill="none" stroke="midnightblue" d="M2191.21,-246.396C2177.05,-237.282 2158.41,-225.29 2142.79,-215.236"/>
<polygon fill="midnightblue" stroke="midnightblue" points="2144.3,-212.045 2134,-209.577 2140.51,-217.932 2144.3,-212.045"/>
</g>
<!-- Node16&#45;&gt;Node19 -->
<g id="edge33" class="edge"><title>Node16&#45;&gt;Node19</title>
<path fill="none" stroke="midnightblue" d="M2228.4,-246.198C2252.19,-224.031 2296.32,-183.452 2305.12,-179 2373.27,-144.551 2401,-168.089 2473.12,-143 2479.7,-140.711 2558.79,-101.239 2600.98,-80.1091"/>
<polygon fill="midnightblue" stroke="midnightblue" points="2602.75,-83.1402 2610.12,-75.5314 2599.61,-76.8818 2602.75,-83.1402"/>
</g>
<!-- Node16&#45;&gt;Node20 -->
<g id="edge35" class="edge"><title>Node16&#45;&gt;Node20</title>
<path fill="none" stroke="midnightblue" d="M2210.32,-246.313C2203.42,-215.569 2182.43,-143.07 2133.12,-112 2058.4,-64.9122 2020.48,-100.242 1935.07,-77.1309"/>
<polygon fill="midnightblue" stroke="midnightblue" points="1935.84,-73.7099 1925.26,-74.2779 1933.89,-80.4314 1935.84,-73.7099"/>
</g>
<!-- Node21 -->
<g id="node22" class="node"><title>Node21</title>
<g id="a_node22"><a xlink:href="shared__ptr__container_8h.html" target="_top" xlink:title="base/std_ext/shared\l_ptr_container.h">
<polygon fill="white" stroke="black" points="2295.12,-112.5 2295.12,-142.5 2409.12,-142.5 2409.12,-112.5 2295.12,-112.5"/>
<text text-anchor="start" x="2303.12" y="-130.5" font-family="Helvetica,sans-Serif" font-size="10.00">base/std_ext/shared</text>
<text text-anchor="middle" x="2352.12" y="-119.5" font-family="Helvetica,sans-Serif" font-size="10.00">_ptr_container.h</text>
</a>
</g>
</g>
<!-- Node16&#45;&gt;Node21 -->
<g id="edge28" class="edge"><title>Node16&#45;&gt;Node21</title>
<path fill="none" stroke="midnightblue" d="M2219.92,-246.436C2228.87,-229.001 2245.98,-199.131 2267.12,-179 2280.2,-166.552 2296.88,-155.809 2311.99,-147.47"/>
<polygon fill="midnightblue" stroke="midnightblue" points="2313.97,-150.382 2321.15,-142.595 2310.68,-144.203 2313.97,-150.382"/>
</g>
<!-- Node16&#45;&gt;Node22 -->
<g id="edge36" class="edge"><title>Node16&#45;&gt;Node22</title>
<path fill="none" stroke="midnightblue" d="M2278.83,-257.597C2486.14,-248.377 3118.14,-219.797 3210.12,-210 3394.16,-190.4 3473.83,-255.067 3621.12,-143 3639.42,-129.08 3648.47,-103.328 3652.71,-85.6917"/>
<polygon fill="midnightblue" stroke="midnightblue" points="3656.18,-86.2152 3654.82,-75.7085 3649.33,-84.7723 3656.18,-86.2152"/>
</g>
<!-- Node16&#45;&gt;Node24 -->
<g id="edge34" class="edge"><title>Node16&#45;&gt;Node24</title>
<path fill="none" stroke="midnightblue" d="M2155.59,-246.446C2121.97,-237.512 2079.03,-224.846 2042.12,-210 2040.92,-209.517 2039.71,-209 2038.49,-208.459"/>
<polygon fill="midnightblue" stroke="midnightblue" points="2039.81,-205.211 2029.28,-204.017 2036.77,-211.515 2039.81,-205.211"/>
</g>
<!-- Node17&#45;&gt;Node11 -->
<g id="edge25" class="edge"><title>Node17&#45;&gt;Node11</title>
<path fill="none" stroke="midnightblue" d="M2051.53,-180.25C2048.35,-179.775 2045.21,-179.353 2042.12,-179 1958.15,-169.389 584.347,-199.098 521.124,-143 489.323,-114.783 493.367,-59.1317 498.196,-29.9199"/>
<polygon fill="midnightblue" stroke="midnightblue" points="501.688,-30.2824 500.078,-19.8106 494.806,-29.001 501.688,-30.2824"/>
</g>
<!-- Node17&#45;&gt;Node15 -->
<g id="edge27" class="edge"><title>Node17&#45;&gt;Node15</title>
<path fill="none" stroke="midnightblue" d="M2062.03,-179.449C1993.7,-160.872 1867.18,-128.56 1757.12,-112 1540.31,-79.3756 1483.6,-94.4494 1265.12,-76 1248.91,-74.6307 1231.14,-72.9703 1215.45,-71.4503"/>
<polygon fill="midnightblue" stroke="midnightblue" points="1215.78,-67.9655 1205.48,-70.4762 1215.1,-74.9323 1215.78,-67.9655"/>
</g>
<!-- Node18 -->
<g id="node19" class="node"><title>Node18</title>
<g id="a_node19"><a xlink:href="memory_8h.html" target="_top" xlink:title="base/std_ext/memory.h">
<polygon fill="white" stroke="black" points="1995.62,-118 1995.62,-137 2124.62,-137 2124.62,-118 1995.62,-118"/>
<text text-anchor="middle" x="2060.12" y="-125" font-family="Helvetica,sans-Serif" font-size="10.00">base/std_ext/memory.h</text>
</a>
</g>
</g>
<!-- Node17&#45;&gt;Node18 -->
<g id="edge22" class="edge"><title>Node17&#45;&gt;Node18</title>
<path fill="none" stroke="midnightblue" d="M2100.84,-179.396C2092.81,-169.361 2081.99,-155.838 2073.53,-145.253"/>
<polygon fill="midnightblue" stroke="midnightblue" points="2076.06,-142.817 2067.08,-137.195 2070.59,-147.19 2076.06,-142.817"/>
</g>
<!-- Node17&#45;&gt;Node19 -->
<g id="edge26" class="edge"><title>Node17&#45;&gt;Node19</title>
<path fill="none" stroke="midnightblue" d="M2172.7,-187.162C2234.99,-179.796 2334.45,-165.666 2418.12,-143 2455.33,-132.922 2462.94,-125.282 2499.12,-112 2530.55,-100.463 2566.54,-87.8658 2592.33,-78.9415"/>
<polygon fill="midnightblue" stroke="midnightblue" points="2593.72,-82.1648 2602.03,-75.5928 2591.44,-75.548 2593.72,-82.1648"/>
</g>
<!-- Node18&#45;&gt;Node19 -->
<g id="edge23" class="edge"><title>Node18&#45;&gt;Node19</title>
<path fill="none" stroke="midnightblue" d="M2124.89,-119.704C2243.5,-107.257 2492.22,-81.157 2588.19,-71.0857"/>
<polygon fill="midnightblue" stroke="midnightblue" points="2588.74,-74.5468 2598.32,-70.0222 2588.01,-67.585 2588.74,-74.5468"/>
</g>
<!-- Node18&#45;&gt;Node20 -->
<g id="edge24" class="edge"><title>Node18&#45;&gt;Node20</title>
<path fill="none" stroke="midnightblue" d="M2038.63,-117.975C2011.1,-107.052 1963.48,-88.1644 1934.58,-76.7021"/>
<polygon fill="midnightblue" stroke="midnightblue" points="1935.79,-73.4165 1925.21,-72.9827 1933.21,-79.9233 1935.79,-73.4165"/>
</g>
<!-- Node21&#45;&gt;Node11 -->
<g id="edge29" class="edge"><title>Node21&#45;&gt;Node11</title>
<path fill="none" stroke="midnightblue" d="M2294.82,-114.661C2289.52,-113.705 2284.23,-112.8 2279.12,-112 2141.22,-90.3848 2099.18,-121.215 1967.12,-76 1950.9,-70.4448 1950.57,-60.8735 1934.12,-56 1916.8,-50.8656 750.276,-17.9536 535.807,-11.942"/>
<polygon fill="midnightblue" stroke="midnightblue" points="535.864,-8.44227 525.77,-11.6608 535.668,-15.4395 535.864,-8.44227"/>
</g>
<!-- Node21&#45;&gt;Node19 -->
<g id="edge30" class="edge"><title>Node21&#45;&gt;Node19</title>
<path fill="none" stroke="midnightblue" d="M2409.44,-114.099C2463.15,-102.479 2541.94,-85.43 2588.54,-75.3481"/>
<polygon fill="midnightblue" stroke="midnightblue" points="2589.5,-78.7212 2598.54,-73.1855 2588.02,-71.8795 2589.5,-78.7212"/>
</g>
<!-- Node21&#45;&gt;Node22 -->
<g id="edge31" class="edge"><title>Node21&#45;&gt;Node22</title>
<path fill="none" stroke="midnightblue" d="M2409.41,-123.886C2630.13,-113.815 3422.55,-77.6579 3614.18,-68.9138"/>
<polygon fill="midnightblue" stroke="midnightblue" points="3614.57,-72.3999 3624.4,-68.4476 3614.25,-65.4072 3614.57,-72.3999"/>
</g>
<!-- Node23 -->
<g id="node24" class="node"><title>Node23</title>
<polygon fill="white" stroke="#bfbfbf" points="1772.12,-0.5 1772.12,-19.5 1834.12,-19.5 1834.12,-0.5 1772.12,-0.5"/>
<text text-anchor="middle" x="1803.12" y="-7.5" font-family="Helvetica,sans-Serif" font-size="10.00">algorithm</text>
</g>
<!-- Node21&#45;&gt;Node23 -->
<g id="edge32" class="edge"><title>Node21&#45;&gt;Node23</title>
<path fill="none" stroke="midnightblue" d="M2294.84,-114.445C2290.2,-113.579 2285.59,-112.752 2281.12,-112 2161.31,-91.8318 2126.77,-110.011 2010.12,-76 1989.89,-70.1001 1986.91,-63.2585 1967.12,-56 1926.05,-40.9344 1877.58,-28.2334 1844.04,-20.2068"/>
<polygon fill="midnightblue" stroke="midnightblue" points="1844.67,-16.7595 1834.13,-17.8684 1843.06,-23.5723 1844.67,-16.7595"/>
</g>
<!-- Node25&#45;&gt;Node11 -->
<g id="edge97" class="edge"><title>Node25&#45;&gt;Node11</title>
<path fill="none" stroke="midnightblue" d="M2525.47,-319.472C2285.05,-309.791 1419.96,-272.455 709.124,-210 677.032,-207.18 154.547,-167.06 133.124,-143 36.1345,-34.0751 360.3,-15.0143 468.316,-11.6954"/>
<polygon fill="midnightblue" stroke="midnightblue" points="468.467,-15.1926 478.364,-11.4135 468.27,-8.1954 468.467,-15.1926"/>
</g>
<!-- Node25&#45;&gt;Node16 -->
<g id="edge38" class="edge"><title>Node25&#45;&gt;Node16</title>
<path fill="none" stroke="midnightblue" d="M2536.11,-313.475C2471.26,-303.24 2362.09,-286.011 2288.85,-274.452"/>
<polygon fill="midnightblue" stroke="midnightblue" points="2289.19,-270.961 2278.76,-272.86 2288.1,-277.876 2289.19,-270.961"/>
</g>
<!-- Node26 -->
<g id="node27" class="node"><title>Node26</title>
<g id="a_node27"><a xlink:href="_manager__traits_8h.html" target="_top" xlink:title="calibration/gui/Manager\l_traits.h">
<polygon fill="white" stroke="black" points="2574.12,-246.5 2574.12,-276.5 2702.12,-276.5 2702.12,-246.5 2574.12,-246.5"/>
<text text-anchor="start" x="2582.12" y="-264.5" font-family="Helvetica,sans-Serif" font-size="10.00">calibration/gui/Manager</text>
<text text-anchor="middle" x="2638.12" y="-253.5" font-family="Helvetica,sans-Serif" font-size="10.00">_traits.h</text>
</a>
</g>
</g>
<!-- Node25&#45;&gt;Node26 -->
<g id="edge39" class="edge"><title>Node25&#45;&gt;Node26</title>
<path fill="none" stroke="midnightblue" d="M2597,-313.475C2603.08,-305.944 2612.21,-294.626 2620.32,-284.566"/>
<polygon fill="midnightblue" stroke="midnightblue" points="2623.26,-286.504 2626.81,-276.523 2617.81,-282.108 2623.26,-286.504"/>
</g>
<!-- Node25&#45;&gt;Node49 -->
<g id="edge91" class="edge"><title>Node25&#45;&gt;Node49</title>
<path fill="none" stroke="midnightblue" d="M2654.95,-318.255C2840.87,-307.515 3374.29,-276.701 3557.47,-266.119"/>
<polygon fill="midnightblue" stroke="midnightblue" points="3557.7,-269.612 3567.48,-265.541 3557.3,-262.624 3557.7,-269.612"/>
</g>
<!-- Node26&#45;&gt;Node14 -->
<g id="edge87" class="edge"><title>Node26&#45;&gt;Node14</title>
<path fill="none" stroke="midnightblue" d="M2702.21,-259.905C2928.6,-257.492 3679.07,-246.743 3714.12,-210 3761.66,-160.18 3749.95,-100.168 3697.12,-56 3647.71,-14.6888 3185.58,-11.1543 3057.75,-10.9714"/>
<polygon fill="midnightblue" stroke="midnightblue" points="3057.45,-7.47122 3047.45,-10.9631 3057.44,-14.4712 3057.45,-7.47122"/>
</g>
<!-- Node26&#45;&gt;Node19 -->
<g id="edge89" class="edge"><title>Node26&#45;&gt;Node19</title>
<path fill="none" stroke="midnightblue" d="M2648.25,-246.476C2666.38,-219.511 2700.58,-158.948 2679.12,-112 2673.35,-99.3602 2662.07,-88.911 2651.49,-81.2737"/>
<polygon fill="midnightblue" stroke="midnightblue" points="2653.17,-78.1817 2642.91,-75.5333 2649.27,-84.0009 2653.17,-78.1817"/>
</g>
<!-- Node26&#45;&gt;Node20 -->
<g id="edge88" class="edge"><title>Node26&#45;&gt;Node20</title>
<path fill="none" stroke="midnightblue" d="M2619.51,-246.34C2593.88,-227.638 2545.62,-195.187 2499.12,-179 2390.61,-141.224 2348.41,-189.01 2243.12,-143 2223.15,-134.272 2225.14,-120.633 2205.12,-112 2095.03,-64.5135 2051.12,-107.181 1935.19,-77.0686"/>
<polygon fill="midnightblue" stroke="midnightblue" points="1935.81,-73.6092 1925.24,-74.3528 1933.96,-80.3622 1935.81,-73.6092"/>
</g>
<!-- Node26&#45;&gt;Node22 -->
<g id="edge90" class="edge"><title>Node26&#45;&gt;Node22</title>
<path fill="none" stroke="midnightblue" d="M2702.44,-259.836C2926.04,-257.218 3657.88,-245.927 3692.12,-210 3722.18,-178.473 3706.54,-153.1 3692.12,-112 3688.34,-101.209 3680.76,-91.084 3673.52,-83.1808"/>
<polygon fill="midnightblue" stroke="midnightblue" points="3675.79,-80.4943 3666.29,-75.8145 3670.8,-85.4005 3675.79,-80.4943"/>
</g>
<!-- Node27 -->
<g id="node28" class="node"><title>Node27</title>
<g id="a_node28"><a xlink:href="interval_8h.html" target="_top" xlink:title="base/interval.h">
<polygon fill="white" stroke="black" points="1553.62,-185 1553.62,-204 1640.62,-204 1640.62,-185 1553.62,-185"/>
<text text-anchor="middle" x="1597.12" y="-192" font-family="Helvetica,sans-Serif" font-size="10.00">base/interval.h</text>
</a>
</g>
</g>
<!-- Node26&#45;&gt;Node27 -->
<g id="edge40" class="edge"><title>Node26&#45;&gt;Node27</title>
<path fill="none" stroke="midnightblue" d="M2573.79,-256.483C2383.64,-244.61 1826.57,-209.827 1650.86,-198.856"/>
<polygon fill="midnightblue" stroke="midnightblue" points="1651.02,-195.359 1640.82,-198.229 1650.59,-202.345 1651.02,-195.359"/>
</g>
<!-- Node31 -->
<g id="node32" class="node"><title>Node31</title>
<g id="a_node32"><a xlink:href="_wrap_t_file_8h.html" target="_top" xlink:title="base/WrapTFile.h">
<polygon fill="white" stroke="black" points="3106.62,-185 3106.62,-204 3201.62,-204 3201.62,-185 3106.62,-185"/>
<text text-anchor="middle" x="3154.12" y="-192" font-family="Helvetica,sans-Serif" font-size="10.00">base/WrapTFile.h</text>
</a>
</g>
</g>
<!-- Node26&#45;&gt;Node31 -->
<g id="edge48" class="edge"><title>Node26&#45;&gt;Node31</title>
<path fill="none" stroke="midnightblue" d="M2702.17,-252.432C2803.58,-239.658 2999.52,-214.976 3096.65,-202.74"/>
<polygon fill="midnightblue" stroke="midnightblue" points="3097.1,-206.211 3106.58,-201.489 3096.23,-199.266 3097.1,-206.211"/>
</g>
<!-- Node26&#45;&gt;Node42 -->
<g id="edge74" class="edge"><title>Node26&#45;&gt;Node42</title>
<path fill="none" stroke="midnightblue" d="M2574.08,-257.688C2503.72,-254.638 2387.38,-249.708 2287.12,-246 1797.42,-227.887 1674.9,-226.163 1185.12,-210 1040.87,-205.239 869.7,-199.51 792.097,-196.908"/>
<polygon fill="midnightblue" stroke="midnightblue" points="791.892,-193.4 781.78,-196.562 791.657,-200.396 791.892,-193.4"/>
</g>
<!-- Node27&#45;&gt;Node7 -->
<g id="edge47" class="edge"><title>Node27&#45;&gt;Node7</title>
<path fill="none" stroke="midnightblue" d="M1576.67,-184.878C1555.74,-175.693 1522.63,-160.138 1496.12,-143 1477.82,-131.165 1475.82,-124.73 1458.12,-112 1411.49,-78.4442 1353.89,-43.5941 1322.08,-24.8822"/>
<polygon fill="midnightblue" stroke="midnightblue" points="1323.47,-21.6431 1313.07,-19.6124 1319.94,-27.6844 1323.47,-21.6431"/>
</g>
<!-- Node27&#45;&gt;Node10 -->
<g id="edge44" class="edge"><title>Node27&#45;&gt;Node10</title>
<path fill="none" stroke="midnightblue" d="M1553.35,-190.878C1421.59,-182.833 1036.39,-158.13 1014.12,-143 994.723,-129.819 984.762,-103.693 980,-85.7878"/>
<polygon fill="midnightblue" stroke="midnightblue" points="983.368,-84.8215 977.668,-75.8905 976.555,-86.4267 983.368,-84.8215"/>
</g>
<!-- Node27&#45;&gt;Node13 -->
<g id="edge43" class="edge"><title>Node27&#45;&gt;Node13</title>
<path fill="none" stroke="midnightblue" d="M1589.03,-184.734C1579.59,-174.5 1563.77,-157.364 1552.07,-144.692"/>
<polygon fill="midnightblue" stroke="midnightblue" points="1554.44,-142.101 1545.09,-137.127 1549.3,-146.849 1554.44,-142.101"/>
</g>
<!-- Node27&#45;&gt;Node23 -->
<g id="edge42" class="edge"><title>Node27&#45;&gt;Node23</title>
<path fill="none" stroke="midnightblue" d="M1596.92,-184.922C1596.97,-168.928 1599.19,-134.168 1616.12,-112 1652.9,-63.8502 1719.44,-35.9148 1762.43,-22.0722"/>
<polygon fill="midnightblue" stroke="midnightblue" points="1763.51,-25.4015 1772.02,-19.091 1761.43,-18.717 1763.51,-25.4015"/>
</g>
<!-- Node28 -->
<g id="node29" class="node"><title>Node28</title>
<g id="a_node29"><a xlink:href="types_8h.html" target="_top" xlink:title="types.h">
<polygon fill="white" stroke="black" points="1625.12,-118 1625.12,-137 1677.12,-137 1677.12,-118 1625.12,-118"/>
<text text-anchor="middle" x="1651.12" y="-125" font-family="Helvetica,sans-Serif" font-size="10.00">types.h</text>
</a>
</g>
</g>
<!-- Node27&#45;&gt;Node28 -->
<g id="edge41" class="edge"><title>Node27&#45;&gt;Node28</title>
<path fill="none" stroke="midnightblue" d="M1604.41,-184.734C1612.83,-174.598 1626.87,-157.69 1637.37,-145.056"/>
<polygon fill="midnightblue" stroke="midnightblue" points="1640.26,-147.056 1643.96,-137.127 1634.87,-142.583 1640.26,-147.056"/>
</g>
<!-- Node29 -->
<g id="node30" class="node"><title>Node29</title>
<polygon fill="white" stroke="#bfbfbf" points="1695.62,-118 1695.62,-137 1748.62,-137 1748.62,-118 1695.62,-118"/>
<text text-anchor="middle" x="1722.12" y="-125" font-family="Helvetica,sans-Serif" font-size="10.00">istream</text>
</g>
<!-- Node27&#45;&gt;Node29 -->
<g id="edge45" class="edge"><title>Node27&#45;&gt;Node29</title>
<path fill="none" stroke="midnightblue" d="M1613.72,-184.869C1634.83,-173.893 1671.5,-154.824 1696.28,-141.938"/>
<polygon fill="midnightblue" stroke="midnightblue" points="1698.2,-144.886 1705.46,-137.167 1694.97,-138.676 1698.2,-144.886"/>
</g>
<!-- Node30 -->
<g id="node31" class="node"><title>Node30</title>
<polygon fill="white" stroke="#bfbfbf" points="2137.12,-0.5 2137.12,-19.5 2193.12,-19.5 2193.12,-0.5 2137.12,-0.5"/>
<text text-anchor="middle" x="2165.12" y="-7.5" font-family="Helvetica,sans-Serif" font-size="10.00">sstream</text>
</g>
<!-- Node27&#45;&gt;Node30 -->
<g id="edge46" class="edge"><title>Node27&#45;&gt;Node30</title>
<path fill="none" stroke="midnightblue" d="M1638.35,-184.946C1765.03,-158.628 2140.35,-80.3704 2145.12,-76 2158.03,-64.1773 2162.69,-44.2557 2164.33,-29.5765"/>
<polygon fill="midnightblue" stroke="midnightblue" points="2167.83,-29.829 2165.09,-19.5942 2160.85,-29.3027 2167.83,-29.829"/>
</g>
<!-- Node31&#45;&gt;Node13 -->
<g id="edge72" class="edge"><title>Node31&#45;&gt;Node13</title>
<path fill="none" stroke="midnightblue" d="M3106.4,-192.356C2863.17,-186.471 1767.11,-159.244 1616.12,-143 1604.11,-141.708 1591.19,-139.63 1579.34,-137.446"/>
<polygon fill="midnightblue" stroke="midnightblue" points="1579.73,-133.958 1569.25,-135.517 1578.42,-140.833 1579.73,-133.958"/>
</g>
<!-- Node31&#45;&gt;Node14 -->
<g id="edge69" class="edge"><title>Node31&#45;&gt;Node14</title>
<path fill="none" stroke="midnightblue" d="M3201.69,-193.756C3286.34,-193.086 3457.79,-186.273 3495.12,-143 3504.12,-132.568 3503.78,-122.717 3495.12,-112 3439.58,-43.2473 3154.2,-19.1234 3057.34,-12.8436"/>
<polygon fill="midnightblue" stroke="midnightblue" points="3057.46,-9.34453 3047.26,-12.2112 3057.02,-16.3308 3057.46,-9.34453"/>
</g>
<!-- Node31&#45;&gt;Node19 -->
<g id="edge68" class="edge"><title>Node31&#45;&gt;Node19</title>
<path fill="none" stroke="midnightblue" d="M3106.47,-192.753C3042.62,-190.251 2926.82,-180.395 2836.12,-143 2814.34,-134.02 2814.39,-122.135 2793.12,-112 2751.84,-92.3276 2700.54,-80.0874 2665.98,-73.4276"/>
<polygon fill="midnightblue" stroke="midnightblue" points="2666.3,-69.9262 2655.82,-71.5379 2665.02,-76.8081 2666.3,-69.9262"/>
</g>
<!-- Node31&#45;&gt;Node20 -->
<g id="edge70" class="edge"><title>Node31&#45;&gt;Node20</title>
<path fill="none" stroke="midnightblue" d="M3106.38,-192.281C2935.94,-187.718 2363.47,-170.479 2286.12,-143 2263.92,-135.113 2265.08,-120.547 2243.12,-112 2116.34,-62.6413 2072.21,-104.282 1939.12,-76 1937.85,-75.7288 1936.55,-75.4259 1935.24,-75.1"/>
<polygon fill="midnightblue" stroke="midnightblue" points="1935.91,-71.653 1925.34,-72.2948 1934,-78.388 1935.91,-71.653"/>
</g>
<!-- Node31&#45;&gt;Node22 -->
<g id="edge73" class="edge"><title>Node31&#45;&gt;Node22</title>
<path fill="none" stroke="midnightblue" d="M3201.74,-194.353C3274.67,-194.077 3417.21,-187.228 3528.12,-143 3550.01,-134.274 3551.11,-124.43 3571.12,-112 3589.86,-100.365 3611.89,-88.7571 3628.82,-80.2458"/>
<polygon fill="midnightblue" stroke="midnightblue" points="3630.75,-83.1991 3638.14,-75.6154 3627.63,-76.9301 3630.75,-83.1991"/>
</g>
<!-- Node32 -->
<g id="node33" class="node"><title>Node32</title>
<g id="a_node33"><a xlink:href="string_8h.html" target="_top" xlink:title="base/std_ext/string.h">
<polygon fill="white" stroke="black" points="2019.62,-56.5 2019.62,-75.5 2136.62,-75.5 2136.62,-56.5 2019.62,-56.5"/>
<text text-anchor="middle" x="2078.12" y="-63.5" font-family="Helvetica,sans-Serif" font-size="10.00">base/std_ext/string.h</text>
</a>
</g>
</g>
<!-- Node31&#45;&gt;Node32 -->
<g id="edge49" class="edge"><title>Node31&#45;&gt;Node32</title>
<path fill="none" stroke="midnightblue" d="M3106.5,-187.901C2935,-167.739 2348.47,-98.7832 2146.85,-75.0792"/>
<polygon fill="midnightblue" stroke="midnightblue" points="2147.02,-71.576 2136.68,-73.8843 2146.2,-78.5281 2147.02,-71.576"/>
</g>
<!-- Node33 -->
<g id="node34" class="node"><title>Node33</title>
<g id="a_node34"><a xlink:href="misc_8h.html" target="_top" xlink:title="base/std_ext/misc.h">
<polygon fill="white" stroke="black" points="2845.62,-118 2845.62,-137 2958.62,-137 2958.62,-118 2845.62,-118"/>
<text text-anchor="middle" x="2902.12" y="-125" font-family="Helvetica,sans-Serif" font-size="10.00">base/std_ext/misc.h</text>
</a>
</g>
</g>
<!-- Node31&#45;&gt;Node33 -->
<g id="edge54" class="edge"><title>Node31&#45;&gt;Node33</title>
<path fill="none" stroke="midnightblue" d="M3120.92,-184.936C3075.78,-173.293 2994.99,-152.454 2945.22,-139.617"/>
<polygon fill="midnightblue" stroke="midnightblue" points="2945.96,-136.192 2935.4,-137.083 2944.21,-142.97 2945.96,-136.192"/>
</g>
<!-- Node35 -->
<g id="node36" class="node"><title>Node35</title>
<polygon fill="white" stroke="#bfbfbf" points="3053.12,-118 3053.12,-137 3099.12,-137 3099.12,-118 3053.12,-118"/>
<text text-anchor="middle" x="3076.12" y="-125" font-family="Helvetica,sans-Serif" font-size="10.00">TFile.h</text>
</g>
<!-- Node31&#45;&gt;Node35 -->
<g id="edge62" class="edge"><title>Node31&#45;&gt;Node35</title>
<path fill="none" stroke="midnightblue" d="M3143.6,-184.734C3130.97,-174.208 3109.58,-156.379 3094.26,-143.617"/>
<polygon fill="midnightblue" stroke="midnightblue" points="3096.4,-140.84 3086.48,-137.127 3091.92,-146.218 3096.4,-140.84"/>
</g>
<!-- Node36 -->
<g id="node37" class="node"><title>Node36</title>
<polygon fill="white" stroke="#bfbfbf" points="3117.62,-118 3117.62,-137 3190.62,-137 3190.62,-118 3117.62,-118"/>
<text text-anchor="middle" x="3154.12" y="-125" font-family="Helvetica,sans-Serif" font-size="10.00">TDirectory.h</text>
</g>
<!-- Node31&#45;&gt;Node36 -->
<g id="edge63" class="edge"><title>Node31&#45;&gt;Node36</title>
<path fill="none" stroke="midnightblue" d="M3154.12,-184.734C3154.12,-175.183 3154.12,-159.618 3154.12,-147.283"/>
<polygon fill="midnightblue" stroke="midnightblue" points="3157.62,-147.127 3154.12,-137.127 3150.62,-147.127 3157.62,-147.127"/>
</g>
<!-- Node37 -->
<g id="node38" class="node"><title>Node37</title>
<polygon fill="white" stroke="#bfbfbf" points="3208.62,-118 3208.62,-137 3261.62,-137 3261.62,-118 3208.62,-118"/>
<text text-anchor="middle" x="3235.12" y="-125" font-family="Helvetica,sans-Serif" font-size="10.00">TError.h</text>
</g>
<!-- Node31&#45;&gt;Node37 -->
<g id="edge64" class="edge"><title>Node31&#45;&gt;Node37</title>
<path fill="none" stroke="midnightblue" d="M3165.05,-184.734C3178.16,-174.208 3200.38,-156.379 3216.29,-143.617"/>
<polygon fill="midnightblue" stroke="midnightblue" points="3218.76,-146.116 3224.37,-137.127 3214.38,-140.656 3218.76,-146.116"/>
</g>
<!-- Node38 -->
<g id="node39" class="node"><title>Node38</title>
<polygon fill="white" stroke="#bfbfbf" points="3279.62,-118 3279.62,-137 3326.62,-137 3326.62,-118 3279.62,-118"/>
<text text-anchor="middle" x="3303.12" y="-125" font-family="Helvetica,sans-Serif" font-size="10.00">TList.h</text>
</g>
<!-- Node31&#45;&gt;Node38 -->
<g id="edge65" class="edge"><title>Node31&#45;&gt;Node38</title>
<path fill="none" stroke="midnightblue" d="M3174.46,-184.852C3197.84,-174.882 3237.33,-157.946 3271.12,-143 3272.32,-142.473 3273.53,-141.932 3274.76,-141.385"/>
<polygon fill="midnightblue" stroke="midnightblue" points="3276.51,-144.435 3284.2,-137.144 3273.64,-138.05 3276.51,-144.435"/>
</g>
<!-- Node39 -->
<g id="node40" class="node"><title>Node39</title>
<polygon fill="white" stroke="#bfbfbf" points="3344.62,-118 3344.62,-137 3421.62,-137 3421.62,-118 3344.62,-118"/>
<text text-anchor="middle" x="3383.12" y="-125" font-family="Helvetica,sans-Serif" font-size="10.00">TCollection.h</text>
</g>
<!-- Node31&#45;&gt;Node39 -->
<g id="edge66" class="edge"><title>Node31&#45;&gt;Node39</title>
<path fill="none" stroke="midnightblue" d="M3186.09,-184.926C3222.5,-175.094 3283.73,-158.348 3336.12,-143 3339.32,-142.064 3342.63,-141.076 3345.95,-140.075"/>
<polygon fill="midnightblue" stroke="midnightblue" points="3347.28,-143.33 3355.83,-137.066 3345.24,-136.634 3347.28,-143.33"/>
</g>
<!-- Node40 -->
<g id="node41" class="node"><title>Node40</title>
<polygon fill="white" stroke="#bfbfbf" points="3440.12,-118 3440.12,-137 3486.12,-137 3486.12,-118 3440.12,-118"/>
<text text-anchor="middle" x="3463.12" y="-125" font-family="Helvetica,sans-Serif" font-size="10.00">TKey.h</text>
</g>
<!-- Node31&#45;&gt;Node40 -->
<g id="edge67" class="edge"><title>Node31&#45;&gt;Node40</title>
<path fill="none" stroke="midnightblue" d="M3202.03,-188.384C3257.94,-181.589 3352.74,-167.496 3431.12,-143 3433,-142.413 3434.91,-141.744 3436.82,-141.023"/>
<polygon fill="midnightblue" stroke="midnightblue" points="3438.28,-144.207 3446.15,-137.12 3435.58,-137.749 3438.28,-144.207"/>
</g>
<!-- Node41 -->
<g id="node42" class="node"><title>Node41</title>
<polygon fill="white" stroke="#bfbfbf" points="3580.12,-118 3580.12,-137 3612.12,-137 3612.12,-118 3580.12,-118"/>
<text text-anchor="middle" x="3596.12" y="-125" font-family="Helvetica,sans-Serif" font-size="10.00">set</text>
</g>
<!-- Node31&#45;&gt;Node41 -->
<g id="edge71" class="edge"><title>Node31&#45;&gt;Node41</title>
<path fill="none" stroke="midnightblue" d="M3201.79,-192.693C3279.59,-190.268 3438.05,-180.674 3566.12,-143 3568,-142.449 3569.9,-141.791 3571.79,-141.065"/>
<polygon fill="midnightblue" stroke="midnightblue" points="3573.2,-144.266 3580.94,-137.03 3570.38,-137.86 3573.2,-144.266"/>
</g>
<!-- Node32&#45;&gt;Node11 -->
<g id="edge53" class="edge"><title>Node32&#45;&gt;Node11</title>
<path fill="none" stroke="midnightblue" d="M2019.4,-59.6854C2002.54,-58.309 1984.11,-56.949 1967.12,-56 1820.09,-47.7864 741.129,-17.6333 535.814,-11.9331"/>
<polygon fill="midnightblue" stroke="midnightblue" points="535.736,-8.42971 525.643,-11.6509 535.542,-15.427 535.736,-8.42971"/>
</g>
<!-- Node32&#45;&gt;Node14 -->
<g id="edge50" class="edge"><title>Node32&#45;&gt;Node14</title>
<path fill="none" stroke="midnightblue" d="M2136.65,-61.6628C2316.08,-51.4314 2854.65,-20.7207 2992.63,-12.8526"/>
<polygon fill="midnightblue" stroke="midnightblue" points="2993.16,-16.3282 3002.95,-12.2645 2992.77,-9.33954 2993.16,-16.3282"/>
</g>
<!-- Node32&#45;&gt;Node23 -->
<g id="edge52" class="edge"><title>Node32&#45;&gt;Node23</title>
<path fill="none" stroke="midnightblue" d="M2034.55,-56.4435C1982.41,-46.2048 1895.75,-29.1881 1844.57,-19.1383"/>
<polygon fill="midnightblue" stroke="midnightblue" points="1845.01,-15.6574 1834.52,-17.1649 1843.66,-22.5262 1845.01,-15.6574"/>
</g>
<!-- Node32&#45;&gt;Node30 -->
<g id="edge51" class="edge"><title>Node32&#45;&gt;Node30</title>
<path fill="none" stroke="midnightblue" d="M2092.1,-56.324C2105.67,-47.9002 2126.5,-34.9709 2142.45,-25.0741"/>
<polygon fill="midnightblue" stroke="midnightblue" points="2144.53,-27.9019 2151.18,-19.6545 2140.84,-21.9544 2144.53,-27.9019"/>
</g>
<!-- Node33&#45;&gt;Node7 -->
<g id="edge57" class="edge"><title>Node33&#45;&gt;Node7</title>
<path fill="none" stroke="midnightblue" d="M2871.7,-117.985C2836.74,-108.137 2777.66,-91.3114 2727.12,-76 2699.01,-67.4823 2693.08,-60.9748 2664.12,-56 2529.29,-32.8318 1528.71,-14.8849 1331.73,-11.5556"/>
<polygon fill="midnightblue" stroke="midnightblue" points="1331.75,-8.05537 1321.69,-11.3867 1331.63,-15.0544 1331.75,-8.05537"/>
</g>
<!-- Node33&#45;&gt;Node14 -->
<g id="edge61" class="edge"><title>Node33&#45;&gt;Node14</title>
<path fill="none" stroke="midnightblue" d="M2910.68,-117.621C2923.83,-104.06 2949.94,-77.4947 2973.12,-56 2984.07,-45.8536 2996.72,-34.887 3006.81,-26.3202"/>
<polygon fill="midnightblue" stroke="midnightblue" points="3009.2,-28.8839 3014.58,-19.7592 3004.68,-23.5346 3009.2,-28.8839"/>
</g>
<!-- Node33&#45;&gt;Node15 -->
<g id="edge59" class="edge"><title>Node33&#45;&gt;Node15</title>
<path fill="none" stroke="midnightblue" d="M2845.41,-124.801C2561.37,-116.283 1305.38,-78.5457 1265.12,-76 1248.88,-74.9731 1231.11,-73.3896 1215.42,-71.8354"/>
<polygon fill="midnightblue" stroke="midnightblue" points="1215.76,-68.3517 1205.46,-70.8244 1215.05,-75.3159 1215.76,-68.3517"/>
</g>
<!-- Node33&#45;&gt;Node19 -->
<g id="edge60" class="edge"><title>Node33&#45;&gt;Node19</title>
<path fill="none" stroke="midnightblue" d="M2862.72,-117.975C2810.23,-106.618 2717.94,-86.6498 2665.81,-75.371"/>
<polygon fill="midnightblue" stroke="midnightblue" points="2666.46,-71.9302 2655.95,-73.2363 2664.98,-78.7719 2666.46,-71.9302"/>
</g>
<!-- Node33&#45;&gt;Node22 -->
<g id="edge56" class="edge"><title>Node33&#45;&gt;Node22</title>
<path fill="none" stroke="midnightblue" d="M2958.75,-120.346C2984.74,-117.617 3015.98,-114.471 3044.12,-112 3258.39,-93.1867 3515.34,-76.0591 3614.38,-69.6596"/>
<polygon fill="midnightblue" stroke="midnightblue" points="3614.81,-73.139 3624.57,-69.0032 3614.36,-66.1535 3614.81,-73.139"/>
</g>
<!-- Node33&#45;&gt;Node23 -->
<g id="edge55" class="edge"><title>Node33&#45;&gt;Node23</title>
<path fill="none" stroke="midnightblue" d="M2885.83,-117.764C2855.57,-102.047 2788.23,-69.3971 2727.12,-56 2640.35,-36.976 2013.36,-17.2222 1844.77,-12.2105"/>
<polygon fill="midnightblue" stroke="midnightblue" points="1844.66,-8.70592 1834.57,-11.9085 1844.46,-15.7029 1844.66,-8.70592"/>
</g>
<!-- Node34 -->
<g id="node35" class="node"><title>Node34</title>
<polygon fill="white" stroke="#bfbfbf" points="2865.12,-56.5 2865.12,-75.5 2921.12,-75.5 2921.12,-56.5 2865.12,-56.5"/>
<text text-anchor="middle" x="2893.12" y="-63.5" font-family="Helvetica,sans-Serif" font-size="10.00">cxxabi.h</text>
</g>
<!-- Node33&#45;&gt;Node34 -->
<g id="edge58" class="edge"><title>Node33&#45;&gt;Node34</title>
<path fill="none" stroke="midnightblue" d="M2900.83,-117.975C2899.56,-109.58 2897.58,-96.4806 2895.95,-85.6631"/>
<polygon fill="midnightblue" stroke="midnightblue" points="2899.37,-84.8731 2894.41,-75.5091 2892.45,-85.9201 2899.37,-84.8731"/>
</g>
<!-- Node42&#45;&gt;Node12 -->
<g id="edge82" class="edge"><title>Node42&#45;&gt;Node12</title>
<path fill="none" stroke="midnightblue" d="M718.451,-192.785C642.273,-190.483 443.187,-181.005 282.124,-143 279.059,-142.277 275.907,-141.379 272.786,-140.388"/>
<polygon fill="midnightblue" stroke="midnightblue" points="273.665,-136.988 263.071,-137 271.361,-143.598 273.665,-136.988"/>
</g>
<!-- Node42&#45;&gt;Node13 -->
<g id="edge83" class="edge"><title>Node42&#45;&gt;Node13</title>
<path fill="none" stroke="midnightblue" d="M781.65,-192.492C881.264,-189.042 1198.04,-176.041 1458.12,-143 1470.11,-141.478 1483.03,-139.325 1494.88,-137.144"/>
<polygon fill="midnightblue" stroke="midnightblue" points="1495.79,-140.533 1504.96,-135.234 1494.49,-133.655 1495.79,-140.533"/>
</g>
<!-- Node42&#45;&gt;Node15 -->
<g id="edge80" class="edge"><title>Node42&#45;&gt;Node15</title>
<path fill="none" stroke="midnightblue" d="M781.749,-192.161C859.364,-188.395 1057.01,-175.77 1113.12,-143 1136.24,-129.503 1153.24,-102.856 1162.67,-84.9796"/>
<polygon fill="midnightblue" stroke="midnightblue" points="1165.88,-86.3718 1167.22,-75.8617 1159.62,-83.2441 1165.88,-86.3718"/>
</g>
<!-- Node42&#45;&gt;Node20 -->
<g id="edge84" class="edge"><title>Node42&#45;&gt;Node20</title>
<path fill="none" stroke="midnightblue" d="M781.765,-193.019C884.36,-191.086 1206.69,-181.98 1302.12,-143 1322.3,-134.759 1319.9,-120.116 1340.12,-112 1441.25,-71.4273 1788.13,-67.3483 1884.88,-67.0094"/>
<polygon fill="midnightblue" stroke="midnightblue" points="1884.94,-70.5094 1894.93,-66.985 1884.92,-63.5094 1884.94,-70.5094"/>
</g>
<!-- Node43 -->
<g id="node44" class="node"><title>Node43</title>
<polygon fill="white" stroke="#bfbfbf" points="142.124,-118 142.124,-137 200.124,-137 200.124,-118 142.124,-118"/>
<text text-anchor="middle" x="171.124" y="-125" font-family="Helvetica,sans-Serif" font-size="10.00">Rtypes.h</text>
</g>
<!-- Node42&#45;&gt;Node43 -->
<g id="edge75" class="edge"><title>Node42&#45;&gt;Node43</title>
<path fill="none" stroke="midnightblue" d="M718.452,-191.675C617.969,-185.708 307.199,-165.84 209.124,-143 206.126,-142.302 203.047,-141.421 200.002,-140.44"/>
<polygon fill="midnightblue" stroke="midnightblue" points="201.123,-137.124 190.529,-137.065 198.774,-143.718 201.123,-137.124"/>
</g>
<!-- Node44 -->
<g id="node45" class="node"><title>Node44</title>
<g id="a_node45"><a xlink:href="base_2std__ext_2_time_8h.html" target="_top" xlink:title="base/std_ext/time.h">
<polygon fill="white" stroke="black" points="324.124,-118 324.124,-137 436.124,-137 436.124,-118 324.124,-118"/>
<text text-anchor="middle" x="380.124" y="-125" font-family="Helvetica,sans-Serif" font-size="10.00">base/std_ext/time.h</text>
</a>
</g>
</g>
<!-- Node42&#45;&gt;Node44 -->
<g id="edge76" class="edge"><title>Node42&#45;&gt;Node44</title>
<path fill="none" stroke="midnightblue" d="M718.525,-188.58C663.761,-179.965 547.714,-161.315 450.124,-143 443.567,-141.77 436.678,-140.417 429.885,-139.047"/>
<polygon fill="midnightblue" stroke="midnightblue" points="430.549,-135.61 420.051,-137.04 429.15,-142.469 430.549,-135.61"/>
</g>
<!-- Node46 -->
<g id="node47" class="node"><title>Node46</title>
<polygon fill="white" stroke="#bfbfbf" points="283.124,-56.5 283.124,-75.5 327.124,-75.5 327.124,-56.5 283.124,-56.5"/>
<text text-anchor="middle" x="305.124" y="-63.5" font-family="Helvetica,sans-Serif" font-size="10.00">ctime</text>
</g>
<!-- Node42&#45;&gt;Node46 -->
<g id="edge86" class="edge"><title>Node42&#45;&gt;Node46</title>
<path fill="none" stroke="midnightblue" d="M718.534,-192.043C623.312,-187.352 343.833,-171.275 315.124,-143 300.19,-128.292 299.847,-102.915 301.793,-85.5637"/>
<polygon fill="midnightblue" stroke="midnightblue" points="305.279,-85.9164 303.273,-75.5132 298.354,-84.8968 305.279,-85.9164"/>
</g>
<!-- Node47 -->
<g id="node48" class="node"><title>Node47</title>
<polygon fill="white" stroke="#bfbfbf" points="718.624,-118 718.624,-137 759.624,-137 759.624,-118 718.624,-118"/>
<text text-anchor="middle" x="739.124" y="-125" font-family="Helvetica,sans-Serif" font-size="10.00">tuple</text>
</g>
<!-- Node42&#45;&gt;Node47 -->
<g id="edge81" class="edge"><title>Node42&#45;&gt;Node47</title>
<path fill="none" stroke="midnightblue" d="M748.64,-184.734C747.024,-175.183 744.39,-159.618 742.302,-147.283"/>
<polygon fill="midnightblue" stroke="midnightblue" points="745.703,-146.403 740.584,-137.127 738.801,-147.571 745.703,-146.403"/>
</g>
<!-- Node48 -->
<g id="node49" class="node"><title>Node48</title>
<polygon fill="white" stroke="#bfbfbf" points="777.624,-118 777.624,-137 832.624,-137 832.624,-118 777.624,-118"/>
<text text-anchor="middle" x="805.124" y="-125" font-family="Helvetica,sans-Serif" font-size="10.00">iomanip</text>
</g>
<!-- Node42&#45;&gt;Node48 -->
<g id="edge85" class="edge"><title>Node42&#45;&gt;Node48</title>
<path fill="none" stroke="midnightblue" d="M757.541,-184.734C766.118,-174.598 780.425,-157.69 791.115,-145.056"/>
<polygon fill="midnightblue" stroke="midnightblue" points="794.036,-147.022 797.824,-137.127 788.692,-142.5 794.036,-147.022"/>
</g>
<!-- Node44&#45;&gt;Node32 -->
<g id="edge77" class="edge"><title>Node44&#45;&gt;Node32</title>
<path fill="none" stroke="midnightblue" d="M436.303,-119.721C462.105,-116.865 493.128,-113.793 521.124,-112 1148.04,-71.8384 1306.53,-103.598 1934.12,-76 1958.65,-74.9216 1985.5,-73.3499 2009.3,-71.8207"/>
<polygon fill="midnightblue" stroke="midnightblue" points="2009.55,-75.3121 2019.3,-71.1695 2009.09,-68.3269 2009.55,-75.3121"/>
</g>
<!-- Node45 -->
<g id="node46" class="node"><title>Node45</title>
<polygon fill="white" stroke="#bfbfbf" points="355.624,-56.5 355.624,-75.5 404.624,-75.5 404.624,-56.5 355.624,-56.5"/>
<text text-anchor="middle" x="380.124" y="-63.5" font-family="Helvetica,sans-Serif" font-size="10.00">cstring</text>
</g>
<!-- Node44&#45;&gt;Node45 -->
<g id="edge78" class="edge"><title>Node44&#45;&gt;Node45</title>
<path fill="none" stroke="midnightblue" d="M380.124,-117.975C380.124,-109.58 380.124,-96.4806 380.124,-85.6631"/>
<polygon fill="midnightblue" stroke="midnightblue" points="383.624,-85.5091 380.124,-75.5091 376.624,-85.5091 383.624,-85.5091"/>
</g>
<!-- Node44&#45;&gt;Node46 -->
<g id="edge79" class="edge"><title>Node44&#45;&gt;Node46</title>
<path fill="none" stroke="midnightblue" d="M369.378,-117.975C357.571,-108.608 338.381,-93.3839 324.041,-82.0081"/>
<polygon fill="midnightblue" stroke="midnightblue" points="325.859,-78.9822 315.849,-75.5091 321.508,-84.4661 325.859,-78.9822"/>
</g>
<!-- Node49&#45;&gt;Node14 -->
<g id="edge92" class="edge"><title>Node49&#45;&gt;Node14</title>
<path fill="none" stroke="midnightblue" d="M3672.7,-252.5C3764.79,-236.189 3940.22,-193.548 3882.12,-112 3837.92,-49.9536 3794.8,-71.0406 3720.12,-56 3590.81,-29.9569 3177.07,-15.6182 3057.67,-11.9507"/>
<polygon fill="midnightblue" stroke="midnightblue" points="3057.46,-8.44301 3047.36,-11.6384 3057.25,-15.4398 3057.46,-8.44301"/>
</g>
<!-- Node49&#45;&gt;Node19 -->
<g id="edge93" class="edge"><title>Node49&#45;&gt;Node19</title>
<path fill="none" stroke="midnightblue" d="M3623.72,-251.967C3633.76,-226.608 3659,-151.045 3621.12,-112 3616.89,-107.631 2848.8,-76.0408 2665.89,-68.5772"/>
<polygon fill="midnightblue" stroke="midnightblue" points="2665.8,-65.0708 2655.67,-68.1603 2665.52,-72.065 2665.8,-65.0708"/>
</g>
<!-- Node49&#45;&gt;Node24 -->
<g id="edge94" class="edge"><title>Node49&#45;&gt;Node24</title>
<path fill="none" stroke="midnightblue" d="M3567.3,-259.466C3301.21,-254.177 2117.43,-229.623 2042.12,-210 2040.41,-209.554 2038.69,-208.99 2036.98,-208.344"/>
<polygon fill="midnightblue" stroke="midnightblue" points="2038.13,-205.023 2027.59,-204.012 2035.2,-211.379 2038.13,-205.023"/>
</g>
<!-- Node49&#45;&gt;Node30 -->
<g id="edge96" class="edge"><title>Node49&#45;&gt;Node30</title>
<path fill="none" stroke="midnightblue" d="M3654.2,-251.868C3675.47,-244.525 3701.19,-231.624 3714.12,-210 3749.46,-150.899 3750.77,-99.1697 3697.12,-56 3667.12,-31.8571 2437.88,-14.5715 2203.51,-11.4918"/>
<polygon fill="midnightblue" stroke="midnightblue" points="2203.46,-7.99092 2193.41,-11.3599 2203.37,-14.9903 2203.46,-7.99092"/>
</g>
<!-- Node49&#45;&gt;Node41 -->
<g id="edge95" class="edge"><title>Node49&#45;&gt;Node41</title>
<path fill="none" stroke="midnightblue" d="M3618.55,-251.839C3614.7,-230.674 3604.75,-175.948 3599.49,-147.033"/>
<polygon fill="midnightblue" stroke="midnightblue" points="3602.91,-146.234 3597.67,-137.021 3596.02,-147.486 3602.91,-146.234"/>
</g>
<!-- Node50&#45;&gt;Node11 -->
<g id="edge108" class="edge"><title>Node50&#45;&gt;Node11</title>
<path fill="none" stroke="midnightblue" d="M575.456,-251.944C454.958,-226.501 107.698,-152.493 100.124,-143 76.0078,-112.775 74.3479,-84.8222 100.124,-56 124.525,-28.7144 375.827,-16.0248 468.253,-12.2549"/>
<polygon fill="midnightblue" stroke="midnightblue" points="468.608,-15.7436 478.461,-11.8487 468.33,-8.74919 468.608,-15.7436"/>
</g>
<!-- Node50&#45;&gt;Node27 -->
<g id="edge99" class="edge"><title>Node50&#45;&gt;Node27</title>
<path fill="none" stroke="midnightblue" d="M685.497,-255.903C871.157,-243.602 1376.55,-210.115 1543.09,-199.08"/>
<polygon fill="midnightblue" stroke="midnightblue" points="1543.82,-202.54 1553.57,-198.386 1543.36,-195.555 1543.82,-202.54"/>
</g>
<!-- Node51 -->
<g id="node52" class="node"><title>Node51</title>
<g id="a_node52"><a xlink:href="printable_8h.html" target="_top" xlink:title="base/std_ext/printable.h">
<polygon fill="white" stroke="black" points="530.124,-118 530.124,-137 662.124,-137 662.124,-118 530.124,-118"/>
<text text-anchor="middle" x="596.124" y="-125" font-family="Helvetica,sans-Serif" font-size="10.00">base/std_ext/printable.h</text>
</a>
</g>
</g>
<!-- Node50&#45;&gt;Node51 -->
<g id="edge100" class="edge"><title>Node50&#45;&gt;Node51</title>
<path fill="none" stroke="midnightblue" d="M614.811,-251.839C611.605,-230.674 603.313,-175.948 598.932,-147.033"/>
<polygon fill="midnightblue" stroke="midnightblue" points="602.373,-146.384 597.415,-137.021 595.452,-147.433 602.373,-146.384"/>
</g>
<!-- Node51&#45;&gt;Node8 -->
<g id="edge107" class="edge"><title>Node51&#45;&gt;Node8</title>
<path fill="none" stroke="midnightblue" d="M602.714,-117.975C609.614,-109.05 620.626,-94.8071 629.257,-83.6425"/>
<polygon fill="midnightblue" stroke="midnightblue" points="632.198,-85.5612 635.545,-75.5091 626.66,-81.2798 632.198,-85.5612"/>
</g>
<!-- Node51&#45;&gt;Node15 -->
<g id="edge106" class="edge"><title>Node51&#45;&gt;Node15</title>
<path fill="none" stroke="midnightblue" d="M659.428,-117.985C675.617,-115.915 693.004,-113.785 709.124,-112 880.377,-93.0324 923.78,-94.1326 1095.12,-76 1105.43,-74.9094 1116.51,-73.6478 1126.94,-72.4208"/>
<polygon fill="midnightblue" stroke="midnightblue" points="1127.58,-75.8694 1137.09,-71.2128 1126.75,-68.9184 1127.58,-75.8694"/>
</g>
<!-- Node52 -->
<g id="node53" class="node"><title>Node52</title>
<g id="a_node53"><a xlink:href="container_8h.html" target="_top" xlink:title="container.h">
<polygon fill="white" stroke="black" points="829.124,-56.5 829.124,-75.5 899.124,-75.5 899.124,-56.5 829.124,-56.5"/>
<text text-anchor="middle" x="864.124" y="-63.5" font-family="Helvetica,sans-Serif" font-size="10.00">container.h</text>
</a>
</g>
</g>
<!-- Node51&#45;&gt;Node52 -->
<g id="edge101" class="edge"><title>Node51&#45;&gt;Node52</title>
<path fill="none" stroke="midnightblue" d="M634.522,-117.975C683.234,-107.16 767.117,-88.5369 818.883,-77.0441"/>
<polygon fill="midnightblue" stroke="midnightblue" points="819.784,-80.4293 828.788,-74.845 818.267,-73.5957 819.784,-80.4293"/>
</g>
<!-- Node52&#45;&gt;Node11 -->
<g id="edge102" class="edge"><title>Node52&#45;&gt;Node11</title>
<path fill="none" stroke="midnightblue" d="M829.089,-58.3942C824.399,-57.5599 819.648,-56.7404 815.124,-56 713.626,-39.3891 593.06,-22.9911 535.689,-15.39"/>
<polygon fill="midnightblue" stroke="midnightblue" points="536.103,-11.9144 525.73,-14.075 535.186,-18.8541 536.103,-11.9144"/>
</g>
<!-- Node52&#45;&gt;Node14 -->
<g id="edge105" class="edge"><title>Node52&#45;&gt;Node14</title>
<path fill="none" stroke="midnightblue" d="M899.179,-60.4687C913.684,-58.772 930.69,-57.0121 946.124,-56 1368.79,-28.2844 2763.32,-13.57 2992.98,-11.3084"/>
<polygon fill="midnightblue" stroke="midnightblue" points="2993.06,-14.8079 3003.02,-11.2102 2992.99,-7.80824 2993.06,-14.8079"/>
</g>
<!-- Node52&#45;&gt;Node23 -->
<g id="edge103" class="edge"><title>Node52&#45;&gt;Node23</title>
<path fill="none" stroke="midnightblue" d="M899.197,-60.707C913.704,-59.0469 930.707,-57.2498 946.124,-56 1259.25,-30.6161 1637.95,-16.5191 1761.78,-12.3365"/>
<polygon fill="midnightblue" stroke="midnightblue" points="1762.07,-15.8288 1771.95,-11.9961 1761.84,-8.83273 1762.07,-15.8288"/>
</g>
<!-- Node53 -->
<g id="node54" class="node"><title>Node53</title>
<polygon fill="white" stroke="#bfbfbf" points="836.124,-0.5 836.124,-19.5 892.124,-19.5 892.124,-0.5 836.124,-0.5"/>
<text text-anchor="middle" x="864.124" y="-7.5" font-family="Helvetica,sans-Serif" font-size="10.00">numeric</text>
</g>
<!-- Node52&#45;&gt;Node53 -->
<g id="edge104" class="edge"><title>Node52&#45;&gt;Node53</title>
<path fill="none" stroke="midnightblue" d="M864.124,-56.083C864.124,-49.0059 864.124,-38.8611 864.124,-29.9865"/>
<polygon fill="midnightblue" stroke="midnightblue" points="867.624,-29.751 864.124,-19.7511 860.624,-29.7511 867.624,-29.751"/>
</g>
<!-- Node54&#45;&gt;Node19 -->
<g id="edge116" class="edge"><title>Node54&#45;&gt;Node19</title>
<path fill="none" stroke="midnightblue" d="M2814.34,-313.473C2814.67,-282.161 2811.6,-172.219 2755.12,-112 2748.7,-105.148 2700.59,-89.3655 2665.23,-78.4406"/>
<polygon fill="midnightblue" stroke="midnightblue" points="2666.23,-75.0859 2655.65,-75.4995 2664.18,-81.7782 2666.23,-75.0859"/>
</g>
<!-- Node54&#45;&gt;Node20 -->
<g id="edge115" class="edge"><title>Node54&#45;&gt;Node20</title>
<path fill="none" stroke="midnightblue" d="M2768.86,-321.698C2716.92,-319.624 2630.49,-310.786 2565.12,-277 2551.3,-269.857 2479.09,-185.857 2465.12,-179 2360.41,-127.582 2312.91,-187.62 2205.12,-143 2184.02,-134.262 2185.16,-120.897 2164.12,-112 2070.24,-72.3026 2033.34,-103.759 1934.97,-77.0829"/>
<polygon fill="midnightblue" stroke="midnightblue" points="1935.83,-73.6888 1925.25,-74.3156 1933.91,-80.421 1935.83,-73.6888"/>
</g>
<!-- Node54&#45;&gt;Node22 -->
<g id="edge117" class="edge"><title>Node54&#45;&gt;Node22</title>
<path fill="none" stroke="midnightblue" d="M2859.26,-322.327C3027.7,-323.189 3613.45,-322.836 3682.12,-277 3744.06,-235.667 3744.51,-178.555 3711.12,-112 3704.66,-99.1214 3692.65,-88.6283 3681.5,-81.0242"/>
<polygon fill="midnightblue" stroke="midnightblue" points="3683.18,-77.9469 3672.86,-75.5549 3679.44,-83.8613 3683.18,-77.9469"/>
</g>
<!-- Node54&#45;&gt;Node24 -->
<g id="edge114" class="edge"><title>Node54&#45;&gt;Node24</title>
<path fill="none" stroke="midnightblue" d="M2769.06,-319.334C2620.24,-310.488 2153,-282.357 2138.12,-277 2115.96,-269.02 2114.69,-259.129 2095.12,-246 2076.03,-233.186 2053.84,-219.426 2037.51,-209.51"/>
<polygon fill="midnightblue" stroke="midnightblue" points="2039.02,-206.33 2028.65,-204.152 2035.4,-212.32 2039.02,-206.33"/>
</g>
<!-- Node54&#45;&gt;Node49 -->
<g id="edge113" class="edge"><title>Node54&#45;&gt;Node49</title>
<path fill="none" stroke="midnightblue" d="M2859.18,-318.674C2994.89,-308.655 3400,-278.75 3556.99,-267.161"/>
<polygon fill="midnightblue" stroke="midnightblue" points="3557.69,-270.618 3567.41,-266.391 3557.18,-263.637 3557.69,-270.618"/>
</g>
<!-- Node55&#45;&gt;Node1 -->
<g id="edge123" class="edge"><title>Node55&#45;&gt;Node1</title>
<path fill="none" stroke="midnightblue" d="M1903.33,-425.324C1914.9,-417.107 1932.5,-404.602 1946.28,-394.807"/>
<polygon fill="midnightblue" stroke="midnightblue" points="1948.57,-397.479 1954.69,-388.834 1944.51,-391.773 1948.57,-397.479"/>
</g>
<!-- Node55&#45;&gt;Node2 -->
<g id="edge124" class="edge"><title>Node55&#45;&gt;Node2</title>
<path fill="none" stroke="midnightblue" d="M1866.33,-425.414C1799.41,-402.178 1609.64,-335.847 1453.12,-277 1390.13,-253.317 1317,-224.119 1276.71,-207.884"/>
<polygon fill="midnightblue" stroke="midnightblue" points="1277.78,-204.542 1267.2,-204.046 1275.16,-211.034 1277.78,-204.542"/>
</g>
<!-- Node55&#45;&gt;Node10 -->
<g id="edge130" class="edge"><title>Node55&#45;&gt;Node10</title>
<path fill="none" stroke="midnightblue" d="M1819.26,-425.715C1574.01,-396.728 781.11,-296.909 709.124,-210 681.34,-176.457 681.001,-145.259 709.124,-112 716.723,-103.013 875.86,-80.5441 944.768,-71.1896"/>
<polygon fill="midnightblue" stroke="midnightblue" points="945.575,-74.6125 955.016,-69.8049 944.637,-67.6756 945.575,-74.6125"/>
</g>
<!-- Node55&#45;&gt;Node11 -->
<g id="edge128" class="edge"><title>Node55&#45;&gt;Node11</title>
<path fill="none" stroke="midnightblue" d="M1819.43,-431.385C1685.14,-426.12 1386.63,-412.673 1136.12,-389 656.361,-343.662 357.521,-537.053 80.1237,-143 71.9875,-131.442 73.142,-66.5302 83.1237,-56 109.476,-28.1998 373.13,-15.7687 468.185,-12.1658"/>
<polygon fill="midnightblue" stroke="midnightblue" points="468.537,-15.6553 478.401,-11.7882 468.279,-8.66007 468.537,-15.6553"/>
</g>
<!-- Node55&#45;&gt;Node12 -->
<g id="edge129" class="edge"><title>Node55&#45;&gt;Node12</title>
<path fill="none" stroke="midnightblue" d="M1819.42,-429.008C1575.95,-411.541 782.479,-350.235 538.124,-277 428.961,-244.283 311.489,-172.859 264.407,-142.55"/>
<polygon fill="midnightblue" stroke="midnightblue" points="266.246,-139.571 255.953,-137.06 262.433,-145.441 266.246,-139.571"/>
</g>
<!-- Node55&#45;&gt;Node19 -->
<g id="edge125" class="edge"><title>Node55&#45;&gt;Node19</title>
<path fill="none" stroke="midnightblue" d="M1962.96,-434.397C2047.9,-433.034 2192.7,-424.914 2311.12,-389 2396.12,-363.224 2589.76,-224.03 2626.12,-143 2634.21,-124.982 2633.18,-102.054 2630.93,-86.1163"/>
<polygon fill="midnightblue" stroke="midnightblue" points="2634.33,-85.1858 2629.19,-75.917 2627.43,-86.3632 2634.33,-85.1858"/>
</g>
<!-- Node55&#45;&gt;Node20 -->
<g id="edge126" class="edge"><title>Node55&#45;&gt;Node20</title>
<path fill="none" stroke="midnightblue" d="M1891.57,-425.29C1894.01,-378.186 1905.64,-153.554 1909.13,-86.1581"/>
<polygon fill="midnightblue" stroke="midnightblue" points="1912.65,-85.959 1909.67,-75.7914 1905.66,-85.597 1912.65,-85.959"/>
</g>
<!-- Node55&#45;&gt;Node24 -->
<g id="edge127" class="edge"><title>Node55&#45;&gt;Node24</title>
<path fill="none" stroke="midnightblue" d="M1962.89,-429.613C1990.67,-423.977 2019.87,-412.367 2037.12,-389 2076.61,-335.511 2041.92,-250.113 2023.67,-213.319"/>
<polygon fill="midnightblue" stroke="midnightblue" points="2026.71,-211.591 2019.03,-204.297 2020.49,-214.791 2026.71,-211.591"/>
</g>
<!-- Node56 -->
<g id="node57" class="node"><title>Node56</title>
<g id="a_node57"><a xlink:href="_unpacker_8h.html" target="_top" xlink:title="Unpacker.h">
<polygon fill="white" stroke="black" points="2385.62,-185 2385.62,-204 2456.62,-204 2456.62,-185 2385.62,-185"/>
<text text-anchor="middle" x="2421.12" y="-192" font-family="Helvetica,sans-Serif" font-size="10.00">Unpacker.h</text>
</a>
</g>
</g>
<!-- Node55&#45;&gt;Node56 -->
<g id="edge119" class="edge"><title>Node55&#45;&gt;Node56</title>
<path fill="none" stroke="midnightblue" d="M1962.83,-429.465C2087.75,-420.036 2337.68,-393.9 2397.12,-333 2428.35,-301.004 2427.03,-243.704 2423.86,-214.195"/>
<polygon fill="midnightblue" stroke="midnightblue" points="2427.3,-213.517 2422.57,-204.037 2420.36,-214.399 2427.3,-213.517"/>
</g>
<!-- Node56&#45;&gt;Node13 -->
<g id="edge122" class="edge"><title>Node56&#45;&gt;Node13</title>
<path fill="none" stroke="midnightblue" d="M2385.41,-191.317C2231.96,-181.932 1635.5,-145.377 1616.12,-143 1604.13,-141.529 1591.21,-139.393 1579.36,-137.211"/>
<polygon fill="midnightblue" stroke="midnightblue" points="1579.75,-133.723 1569.28,-135.297 1578.45,-140.6 1579.75,-133.723"/>
</g>
<!-- Node56&#45;&gt;Node14 -->
<g id="edge120" class="edge"><title>Node56&#45;&gt;Node14</title>
<path fill="none" stroke="midnightblue" d="M2456.64,-192.87C2576.5,-190.414 2960.82,-179.716 3001.12,-143 3032.74,-114.195 3031.35,-58.7992 3028.03,-29.7789"/>
<polygon fill="midnightblue" stroke="midnightblue" points="3031.49,-29.1853 3026.69,-19.7404 3024.55,-30.1174 3031.49,-29.1853"/>
</g>
<!-- Node56&#45;&gt;Node19 -->
<g id="edge121" class="edge"><title>Node56&#45;&gt;Node19</title>
<path fill="none" stroke="midnightblue" d="M2456.81,-193.264C2497.49,-191.054 2563.49,-181.262 2603.12,-143 2618.72,-127.943 2624.22,-102.848 2626.13,-85.643"/>
<polygon fill="midnightblue" stroke="midnightblue" points="2629.62,-85.9117 2626.95,-75.6607 2622.65,-85.3437 2629.62,-85.9117"/>
</g>
<!-- Node57&#45;&gt;Node1 -->
<g id="edge133" class="edge"><title>Node57&#45;&gt;Node1</title>
<path fill="none" stroke="midnightblue" d="M1517.91,-425.769C1620.9,-415.275 1797.38,-397.295 1895.68,-387.279"/>
<polygon fill="midnightblue" stroke="midnightblue" points="1896.22,-390.742 1905.82,-386.246 1895.51,-383.778 1896.22,-390.742"/>
</g>
<!-- Node57&#45;&gt;Node2 -->
<g id="edge134" class="edge"><title>Node57&#45;&gt;Node2</title>
<path fill="none" stroke="midnightblue" d="M1425.69,-425.388C1414.67,-416.805 1397.85,-402.928 1385.12,-389 1330.56,-329.261 1278.22,-247.84 1256.57,-212.751"/>
<polygon fill="midnightblue" stroke="midnightblue" points="1259.5,-210.841 1251.3,-204.139 1253.53,-214.495 1259.5,-210.841"/>
</g>
<!-- Node57&#45;&gt;Node11 -->
<g id="edge145" class="edge"><title>Node57&#45;&gt;Node11</title>
<path fill="none" stroke="midnightblue" d="M1356.4,-434.15C1117.37,-434.111 415.848,-430.371 191.124,-389 102.936,-372.765 0.123709,-413.67 0.123709,-324 0.123709,-324 0.123709,-324 0.123709,-126.5 0.123709,-93.4008 -1.85564,-76.5092 24.1237,-56 58.8767,-28.5645 365.235,-15.6714 468.392,-12.0807"/>
<polygon fill="midnightblue" stroke="midnightblue" points="468.684,-15.5728 478.559,-11.7342 468.446,-8.57688 468.684,-15.5728"/>
</g>
<!-- Node57&#45;&gt;Node12 -->
<g id="edge146" class="edge"><title>Node57&#45;&gt;Node12</title>
<path fill="none" stroke="midnightblue" d="M1356.47,-434.449C1101.27,-434.815 328.124,-427.391 328.124,-324 328.124,-324 328.124,-324 328.124,-260.5 328.124,-211.768 286.665,-166.72 261.656,-143.98"/>
<polygon fill="midnightblue" stroke="midnightblue" points="263.71,-141.126 253.889,-137.151 259.087,-146.383 263.71,-141.126"/>
</g>
<!-- Node57&#45;&gt;Node19 -->
<g id="edge142" class="edge"><title>Node57&#45;&gt;Node19</title>
<path fill="none" stroke="midnightblue" d="M1517.91,-433.495C1633.8,-431.519 1853.54,-423.099 2037.12,-389 2122,-373.234 2144.54,-368.756 2223.12,-333 2265.66,-313.644 2278.8,-309.766 2312.12,-277 2349.22,-240.528 2332.99,-208.083 2376.12,-179 2444.85,-132.658 2487.09,-184.012 2559.12,-143 2584.05,-128.809 2604.66,-102.144 2616.43,-84.4755"/>
<polygon fill="midnightblue" stroke="midnightblue" points="2619.59,-86.0306 2622.04,-75.7215 2613.7,-82.2566 2619.59,-86.0306"/>
</g>
<!-- Node57&#45;&gt;Node20 -->
<g id="edge143" class="edge"><title>Node57&#45;&gt;Node20</title>
<path fill="none" stroke="midnightblue" d="M1448.35,-425.29C1510.31,-377.211 1810.66,-144.176 1890.56,-82.1772"/>
<polygon fill="midnightblue" stroke="midnightblue" points="1893.04,-84.6868 1898.79,-75.7914 1888.75,-79.1563 1893.04,-84.6868"/>
</g>
<!-- Node57&#45;&gt;Node24 -->
<g id="edge144" class="edge"><title>Node57&#45;&gt;Node24</title>
<path fill="none" stroke="midnightblue" d="M1458,-425.371C1545.79,-389.082 1885.13,-248.818 1985.81,-207.203"/>
<polygon fill="midnightblue" stroke="midnightblue" points="1987.15,-210.436 1995.06,-203.381 1984.48,-203.967 1987.15,-210.436"/>
</g>
<!-- Node57&#45;&gt;Node43 -->
<g id="edge141" class="edge"><title>Node57&#45;&gt;Node43</title>
<path fill="none" stroke="midnightblue" d="M1356.47,-432.997C1146.14,-429.982 584.526,-419.259 401.124,-389 299.265,-372.195 178.124,-427.236 178.124,-324 178.124,-324 178.124,-324 178.124,-260.5 178.124,-220.101 174.814,-172.845 172.746,-147.265"/>
<polygon fill="midnightblue" stroke="midnightblue" points="176.22,-146.814 171.9,-137.14 169.245,-147.397 176.22,-146.814"/>
</g>
<!-- Node57&#45;&gt;Node56 -->
<g id="edge132" class="edge"><title>Node57&#45;&gt;Node56</title>
<path fill="none" stroke="midnightblue" d="M1517.83,-432.062C1729.67,-426.685 2287.68,-410.548 2321.12,-389 2384.33,-348.277 2409.68,-254.078 2417.85,-214.042"/>
<polygon fill="midnightblue" stroke="midnightblue" points="2421.31,-214.552 2419.75,-204.074 2414.44,-213.241 2421.31,-214.552"/>
</g>
<!-- Node58 -->
<g id="node59" class="node"><title>Node58</title>
<g id="a_node59"><a xlink:href="_wrap_t_tree_8h.html" target="_top" xlink:title="base/WrapTTree.h">
<polygon fill="white" stroke="black" points="1349.12,-118 1349.12,-137 1449.12,-137 1449.12,-118 1349.12,-118"/>
<text text-anchor="middle" x="1399.12" y="-125" font-family="Helvetica,sans-Serif" font-size="10.00">base/WrapTTree.h</text>
</a>
</g>
</g>
<!-- Node57&#45;&gt;Node58 -->
<g id="edge135" class="edge"><title>Node57&#45;&gt;Node58</title>
<path fill="none" stroke="midnightblue" d="M1431.84,-425.231C1421.4,-407.043 1399.12,-363.601 1399.12,-324 1399.12,-324 1399.12,-324 1399.12,-260.5 1399.12,-220.158 1399.12,-172.88 1399.12,-147.282"/>
<polygon fill="midnightblue" stroke="midnightblue" points="1402.62,-147.149 1399.12,-137.149 1395.62,-147.149 1402.62,-147.149"/>
</g>
<!-- Node58&#45;&gt;Node11 -->
<g id="edge137" class="edge"><title>Node58&#45;&gt;Node11</title>
<path fill="none" stroke="midnightblue" d="M1348.87,-118.267C1333.86,-116.003 1317.35,-113.705 1302.12,-112 1088.64,-88.1041 1026.61,-135.266 820.124,-76 801.779,-70.7346 800.229,-62.0383 782.124,-56 696.481,-27.4367 589.871,-16.7045 536.27,-12.9138"/>
<polygon fill="midnightblue" stroke="midnightblue" points="536.182,-9.40024 525.971,-12.2257 535.715,-16.3847 536.182,-9.40024"/>
</g>
<!-- Node58&#45;&gt;Node14 -->
<g id="edge138" class="edge"><title>Node58&#45;&gt;Node14</title>
<path fill="none" stroke="midnightblue" d="M1449.36,-118.083C1464.36,-115.814 1480.88,-113.559 1496.12,-112 1783.51,-82.6134 1856.84,-94.6409 2145.12,-76 2476.49,-54.5733 2877.6,-22.8313 2992.79,-13.6034"/>
<polygon fill="midnightblue" stroke="midnightblue" points="2993.34,-17.0702 3003.03,-12.7817 2992.78,-10.0926 2993.34,-17.0702"/>
</g>
<!-- Node58&#45;&gt;Node19 -->
<g id="edge140" class="edge"><title>Node58&#45;&gt;Node19</title>
<path fill="none" stroke="midnightblue" d="M1449.34,-117.928C1464.35,-115.655 1480.87,-113.437 1496.12,-112 1900.87,-73.8918 2003.92,-92.4233 2410.12,-76 2472.43,-73.4811 2544.78,-70.461 2588.21,-68.6383"/>
<polygon fill="midnightblue" stroke="midnightblue" points="2588.5,-72.1295 2598.34,-68.2128 2588.2,-65.1357 2588.5,-72.1295"/>
</g>
<!-- Node58&#45;&gt;Node23 -->
<g id="edge139" class="edge"><title>Node58&#45;&gt;Node23</title>
<path fill="none" stroke="midnightblue" d="M1418.37,-117.916C1451.47,-103.432 1521.55,-73.962 1583.12,-56 1644.41,-38.1236 1717.3,-24.7051 1761.88,-17.3553"/>
<polygon fill="midnightblue" stroke="midnightblue" points="1762.45,-20.808 1771.76,-15.7491 1761.33,-13.8987 1762.45,-20.808"/>
</g>
<!-- Node59 -->
<g id="node60" class="node"><title>Node59</title>
<polygon fill="white" stroke="#bfbfbf" points="723.124,-56.5 723.124,-75.5 773.124,-75.5 773.124,-56.5 723.124,-56.5"/>
<text text-anchor="middle" x="748.124" y="-63.5" font-family="Helvetica,sans-Serif" font-size="10.00">TTree.h</text>
</g>
<!-- Node58&#45;&gt;Node59 -->
<g id="edge136" class="edge"><title>Node58&#45;&gt;Node59</title>
<path fill="none" stroke="midnightblue" d="M1348.88,-118.221C1333.87,-115.956 1317.36,-113.668 1302.12,-112 1074.04,-87.0197 1014.05,-109.901 787.124,-76 785.848,-75.8094 784.552,-75.5992 783.246,-75.3731"/>
<polygon fill="midnightblue" stroke="midnightblue" points="783.676,-71.8906 773.188,-73.3941 782.324,-78.7589 783.676,-71.8906"/>
</g>
<!-- Node60&#45;&gt;Node14 -->
<g id="edge152" class="edge"><title>Node60&#45;&gt;Node14</title>
<path fill="none" stroke="midnightblue" d="M2733.8,-375.415C3003.78,-364.743 3944.12,-318.726 3944.12,-195.5 3944.12,-195.5 3944.12,-195.5 3944.12,-126.5 3944.12,-52.8371 3865.52,-74.1464 3794.12,-56 3651.34,-19.7066 3184.71,-12.5527 3057.44,-11.2637"/>
<polygon fill="midnightblue" stroke="midnightblue" points="3057.23,-7.76154 3047.19,-11.1653 3057.16,-14.7612 3057.23,-7.76154"/>
</g>
<!-- Node60&#45;&gt;Node19 -->
<g id="edge153" class="edge"><title>Node60&#45;&gt;Node19</title>
<path fill="none" stroke="midnightblue" d="M2673.78,-369.251C2695.76,-351.658 2741.12,-309.63 2741.12,-262.5 2741.12,-262.5 2741.12,-262.5 2741.12,-193.5 2741.12,-152.336 2725.1,-142.196 2697.12,-112 2685.16,-99.0837 2668.72,-88.2665 2654.78,-80.4772"/>
<polygon fill="midnightblue" stroke="midnightblue" points="2656.08,-77.2055 2645.61,-75.5798 2652.78,-83.3795 2656.08,-77.2055"/>
</g>
<!-- Node60&#45;&gt;Node20 -->
<g id="edge151" class="edge"><title>Node60&#45;&gt;Node20</title>
<path fill="none" stroke="midnightblue" d="M2590.28,-374.298C2479.61,-366.628 2262.31,-343.697 2091.12,-277 2039.54,-256.904 2023.17,-251.131 1986.12,-210 1953.53,-173.818 1960.56,-154.688 1937.12,-112 1932.02,-102.701 1925.97,-92.5512 1920.9,-84.2489"/>
<polygon fill="midnightblue" stroke="midnightblue" points="1923.73,-82.1801 1915.5,-75.5127 1917.78,-85.8596 1923.73,-82.1801"/>
</g>
<!-- Node60&#45;&gt;Node25 -->
<g id="edge150" class="edge"><title>Node60&#45;&gt;Node25</title>
<path fill="none" stroke="midnightblue" d="M2650.56,-369.324C2639.7,-361.185 2623.24,-348.839 2610.24,-339.087"/>
<polygon fill="midnightblue" stroke="midnightblue" points="2612,-336.034 2601.9,-332.834 2607.8,-341.634 2612,-336.034"/>
</g>
</g>
</svg>
