<?xml version="1.0" encoding="UTF-8" standalone="no"?>
<!DOCTYPE svg PUBLIC "-//W3C//DTD SVG 1.1//EN"
 "http://www.w3.org/Graphics/SVG/1.1/DTD/svg11.dtd">
<!-- Generated by graphviz version 2.38.0 (20140413.2041)
 -->
<!-- Title: src/expconfig/setups/Setup.cc Pages: 1 -->
<svg width="4002pt" height="587pt"
 viewBox="0.00 0.00 4001.66 587.00" xmlns="http://www.w3.org/2000/svg" xmlns:xlink="http://www.w3.org/1999/xlink">
<g id="graph0" class="graph" transform="scale(1 1) rotate(0) translate(4 583)">
<title>src/expconfig/setups/Setup.cc</title>
<polygon fill="white" stroke="none" points="-4,4 -4,-583 3997.66,-583 3997.66,4 -4,4"/>
<!-- Node0 -->
<g id="node1" class="node"><title>Node0</title>
<polygon fill="#bfbfbf" stroke="black" points="1618.05,-548.5 1618.05,-578.5 1733.05,-578.5 1733.05,-548.5 1618.05,-548.5"/>
<text text-anchor="start" x="1626.05" y="-566.5" font-family="Helvetica,sans-Serif" font-size="10.00">src/expconfig/setups</text>
<text text-anchor="middle" x="1675.55" y="-555.5" font-family="Helvetica,sans-Serif" font-size="10.00">/Setup.cc</text>
</g>
<!-- Node1 -->
<g id="node2" class="node"><title>Node1</title>
<g id="a_node2"><a xlink:href="_setup_8h.html" target="_top" xlink:title="Setup.h">
<polygon fill="white" stroke="black" points="1470.55,-492.5 1470.55,-511.5 1524.55,-511.5 1524.55,-492.5 1470.55,-492.5"/>
<text text-anchor="middle" x="1497.55" y="-499.5" font-family="Helvetica,sans-Serif" font-size="10.00">Setup.h</text>
</a>
</g>
</g>
<!-- Node0&#45;&gt;Node1 -->
<g id="edge1" class="edge"><title>Node0&#45;&gt;Node1</title>
<path fill="none" stroke="midnightblue" d="M1633.37,-548.399C1602.75,-538.163 1561.78,-524.47 1532.88,-514.808"/>
<polygon fill="midnightblue" stroke="midnightblue" points="1533.79,-511.422 1523.19,-511.571 1531.57,-518.061 1533.79,-511.422"/>
</g>
<!-- Node62 -->
<g id="node63" class="node"><title>Node62</title>
<polygon fill="white" stroke="#bfbfbf" points="1670.55,-492.5 1670.55,-511.5 1748.55,-511.5 1748.55,-492.5 1670.55,-492.5"/>
<text text-anchor="middle" x="1709.55" y="-499.5" font-family="Helvetica,sans-Serif" font-size="10.00">base/Paths.h</text>
</g>
<!-- Node0&#45;&gt;Node62 -->
<g id="edge159" class="edge"><title>Node0&#45;&gt;Node62</title>
<path fill="none" stroke="midnightblue" d="M1683.61,-548.399C1688.4,-540.021 1694.51,-529.327 1699.6,-520.423"/>
<polygon fill="midnightblue" stroke="midnightblue" points="1702.68,-522.077 1704.61,-511.658 1696.61,-518.604 1702.68,-522.077"/>
</g>
<!-- Node63 -->
<g id="node64" class="node"><title>Node63</title>
<g id="a_node64"><a xlink:href="_logger_8h.html" target="_top" xlink:title="base/Logger.h">
<polygon fill="white" stroke="black" points="2755.55,-492.5 2755.55,-511.5 2839.55,-511.5 2839.55,-492.5 2755.55,-492.5"/>
<text text-anchor="middle" x="2797.55" y="-499.5" font-family="Helvetica,sans-Serif" font-size="10.00">base/Logger.h</text>
</a>
</g>
</g>
<!-- Node0&#45;&gt;Node63 -->
<g id="edge160" class="edge"><title>Node0&#45;&gt;Node63</title>
<path fill="none" stroke="midnightblue" d="M1733.12,-559.447C1927.65,-549.131 2558.69,-515.667 2745.19,-505.777"/>
<polygon fill="midnightblue" stroke="midnightblue" points="2745.48,-509.266 2755.28,-505.242 2745.11,-502.276 2745.48,-509.266"/>
</g>
<!-- Node65 -->
<g id="node66" class="node"><title>Node65</title>
<g id="a_node66"><a xlink:href="_cluster_correction_8h.html" target="_top" xlink:title="calibration/modules\l/ClusterCorrection.h">
<polygon fill="white" stroke="black" points="1586.55,-369.5 1586.55,-399.5 1698.55,-399.5 1698.55,-369.5 1586.55,-369.5"/>
<text text-anchor="start" x="1594.55" y="-387.5" font-family="Helvetica,sans-Serif" font-size="10.00">calibration/modules</text>
<text text-anchor="middle" x="1642.55" y="-376.5" font-family="Helvetica,sans-Serif" font-size="10.00">/ClusterCorrection.h</text>
</a>
</g>
</g>
<!-- Node0&#45;&gt;Node65 -->
<g id="edge162" class="edge"><title>Node0&#45;&gt;Node65</title>
<path fill="none" stroke="midnightblue" d="M1671.17,-548.464C1668.14,-538.393 1664.21,-524.458 1661.55,-512 1654.06,-476.806 1648.44,-435.489 1645.33,-409.897"/>
<polygon fill="midnightblue" stroke="midnightblue" points="1648.76,-409.158 1644.11,-399.64 1641.81,-409.982 1648.76,-409.158"/>
</g>
<!-- Node2 -->
<g id="node3" class="node"><title>Node2</title>
<g id="a_node3"><a xlink:href="_exp_config_8h.html" target="_top" xlink:title="expconfig/ExpConfig.h">
<polygon fill="white" stroke="black" points="2185.55,-375 2185.55,-394 2307.55,-394 2307.55,-375 2185.55,-375"/>
<text text-anchor="middle" x="2246.55" y="-382" font-family="Helvetica,sans-Serif" font-size="10.00">expconfig/ExpConfig.h</text>
</a>
</g>
</g>
<!-- Node1&#45;&gt;Node2 -->
<g id="edge2" class="edge"><title>Node1&#45;&gt;Node2</title>
<path fill="none" stroke="midnightblue" d="M1524.65,-496.821C1631.35,-480.368 2024.25,-419.78 2181.18,-395.581"/>
<polygon fill="midnightblue" stroke="midnightblue" points="2181.82,-399.024 2191.17,-394.04 2180.75,-392.105 2181.82,-399.024"/>
</g>
<!-- Node15 -->
<g id="node16" class="node"><title>Node15</title>
<polygon fill="white" stroke="#bfbfbf" points="1616.55,-0.5 1616.55,-19.5 1660.55,-19.5 1660.55,-0.5 1616.55,-0.5"/>
<text text-anchor="middle" x="1638.55" y="-7.5" font-family="Helvetica,sans-Serif" font-size="10.00">string</text>
</g>
<!-- Node1&#45;&gt;Node15 -->
<g id="edge158" class="edge"><title>Node1&#45;&gt;Node15</title>
<path fill="none" stroke="midnightblue" d="M1470.38,-498.743C1352.66,-488.609 892.553,-445.181 892.553,-385.5 892.553,-385.5 892.553,-385.5 892.553,-126.5 892.553,-74.9861 936.281,-73.9875 984.553,-56 1110.55,-9.04943 1455.04,-35.938 1588.55,-20 1594.25,-19.3204 1600.27,-18.4058 1606.09,-17.4192"/>
<polygon fill="midnightblue" stroke="midnightblue" points="1607.01,-20.8104 1616.24,-15.6009 1605.78,-13.9202 1607.01,-20.8104"/>
</g>
<!-- Node23 -->
<g id="node24" class="node"><title>Node23</title>
<polygon fill="white" stroke="#bfbfbf" points="208.053,-56.5 208.053,-75.5 271.053,-75.5 271.053,-56.5 208.053,-56.5"/>
<text text-anchor="middle" x="239.553" y="-63.5" font-family="Helvetica,sans-Serif" font-size="10.00">functional</text>
</g>
<!-- Node1&#45;&gt;Node23 -->
<g id="edge157" class="edge"><title>Node1&#45;&gt;Node23</title>
<path fill="none" stroke="midnightblue" d="M1470.28,-500.272C1272.72,-494.823 68.5528,-458.614 68.5528,-385.5 68.5528,-385.5 68.5528,-385.5 68.5528,-322 68.5528,-214.31 175.054,-117.778 219.958,-81.8625"/>
<polygon fill="midnightblue" stroke="midnightblue" points="222.359,-84.4276 228.068,-75.5023 218.039,-78.9195 222.359,-84.4276"/>
</g>
<!-- Node26 -->
<g id="node27" class="node"><title>Node26</title>
<g id="a_node27"><a xlink:href="_calibration_8h.html" target="_top" xlink:title="calibration/Calibration.h">
<polygon fill="white" stroke="black" points="1531.05,-313.5 1531.05,-332.5 1660.05,-332.5 1660.05,-313.5 1531.05,-313.5"/>
<text text-anchor="middle" x="1595.55" y="-320.5" font-family="Helvetica,sans-Serif" font-size="10.00">calibration/Calibration.h</text>
</a>
</g>
</g>
<!-- Node1&#45;&gt;Node26 -->
<g id="edge149" class="edge"><title>Node1&#45;&gt;Node26</title>
<path fill="none" stroke="midnightblue" d="M1502.28,-492.463C1517.44,-465.078 1565.07,-379.052 1585.78,-341.653"/>
<polygon fill="midnightblue" stroke="midnightblue" points="1588.86,-343.312 1590.64,-332.868 1582.74,-339.922 1588.86,-343.312"/>
</g>
<!-- Node43 -->
<g id="node44" class="node"><title>Node43</title>
<g id="a_node44"><a xlink:href="_t_i_d_8h.html" target="_top" xlink:title="tree/TID.h">
<polygon fill="white" stroke="black" points="1406.05,-185 1406.05,-204 1469.05,-204 1469.05,-185 1406.05,-185"/>
<text text-anchor="middle" x="1437.55" y="-192" font-family="Helvetica,sans-Serif" font-size="10.00">tree/TID.h</text>
</a>
</g>
</g>
<!-- Node1&#45;&gt;Node43 -->
<g id="edge148" class="edge"><title>Node1&#45;&gt;Node43</title>
<path fill="none" stroke="midnightblue" d="M1493.24,-492.259C1484.29,-473.303 1464.55,-426.792 1464.55,-385.5 1464.55,-385.5 1464.55,-385.5 1464.55,-322 1464.55,-282.857 1452.04,-238.373 1444.05,-213.967"/>
<polygon fill="midnightblue" stroke="midnightblue" points="1447.28,-212.605 1440.76,-204.258 1440.65,-214.852 1447.28,-212.605"/>
</g>
<!-- Node50 -->
<g id="node51" class="node"><title>Node50</title>
<g id="a_node51"><a xlink:href="_options_list_8h.html" target="_top" xlink:title="base/OptionsList.h">
<polygon fill="white" stroke="black" points="925.053,-252 925.053,-271 1030.05,-271 1030.05,-252 925.053,-252"/>
<text text-anchor="middle" x="977.553" y="-259" font-family="Helvetica,sans-Serif" font-size="10.00">base/OptionsList.h</text>
</a>
</g>
</g>
<!-- Node1&#45;&gt;Node50 -->
<g id="edge156" class="edge"><title>Node1&#45;&gt;Node50</title>
<path fill="none" stroke="midnightblue" d="M1470.31,-493.684C1438.73,-485.099 1385.16,-470.224 1339.55,-456 1180.55,-406.408 1089.19,-463.392 985.553,-333 974.081,-318.567 973.289,-296.912 974.61,-281.413"/>
<polygon fill="midnightblue" stroke="midnightblue" points="978.094,-281.756 975.823,-271.408 971.145,-280.914 978.094,-281.756"/>
</g>
<!-- Node51 -->
<g id="node52" class="node"><title>Node51</title>
<g id="a_node52"><a xlink:href="piecewise__interval_8h.html" target="_top" xlink:title="base/piecewise_interval.h">
<polygon fill="white" stroke="black" points="3388.55,-252 3388.55,-271 3526.55,-271 3526.55,-252 3388.55,-252"/>
<text text-anchor="middle" x="3457.55" y="-259" font-family="Helvetica,sans-Serif" font-size="10.00">base/piecewise_interval.h</text>
</a>
</g>
</g>
<!-- Node1&#45;&gt;Node51 -->
<g id="edge155" class="edge"><title>Node1&#45;&gt;Node51</title>
<path fill="none" stroke="midnightblue" d="M1524.82,-499.312C1557.36,-497.343 1613.41,-494.09 1661.55,-492 1851.98,-483.734 3213.21,-501.489 3374.55,-400 3418.7,-372.232 3442.64,-311.646 3452.34,-281.016"/>
<polygon fill="midnightblue" stroke="midnightblue" points="3455.76,-281.787 3455.28,-271.203 3449.06,-279.778 3455.76,-281.787"/>
</g>
<!-- Node55 -->
<g id="node56" class="node"><title>Node55</title>
<g id="a_node56"><a xlink:href="_setup_registry_8h.html" target="_top" xlink:title="SetupRegistry.h">
<polygon fill="white" stroke="black" points="1013.55,-313.5 1013.55,-332.5 1103.55,-332.5 1103.55,-313.5 1013.55,-313.5"/>
<text text-anchor="middle" x="1058.55" y="-320.5" font-family="Helvetica,sans-Serif" font-size="10.00">SetupRegistry.h</text>
</a>
</g>
</g>
<!-- Node1&#45;&gt;Node55 -->
<g id="edge113" class="edge"><title>Node1&#45;&gt;Node55</title>
<path fill="none" stroke="midnightblue" d="M1476.38,-492.463C1405.03,-463.697 1173.2,-370.224 1089.25,-336.378"/>
<polygon fill="midnightblue" stroke="midnightblue" points="1090.35,-333.048 1079.77,-332.555 1087.74,-339.54 1090.35,-333.048"/>
</g>
<!-- Node56 -->
<g id="node57" class="node"><title>Node56</title>
<g id="a_node57"><a xlink:href="_unpacker_acqu_8h.html" target="_top" xlink:title="unpacker/UnpackerAcqu.h">
<polygon fill="white" stroke="black" points="2637.05,-436.5 2637.05,-455.5 2780.05,-455.5 2780.05,-436.5 2637.05,-436.5"/>
<text text-anchor="middle" x="2708.55" y="-443.5" font-family="Helvetica,sans-Serif" font-size="10.00">unpacker/UnpackerAcqu.h</text>
</a>
</g>
</g>
<!-- Node1&#45;&gt;Node56 -->
<g id="edge119" class="edge"><title>Node1&#45;&gt;Node56</title>
<path fill="none" stroke="midnightblue" d="M1524.82,-499.404C1557.37,-497.523 1613.42,-494.355 1661.55,-492 2021.01,-474.413 2450.09,-457.137 2626.57,-450.192"/>
<polygon fill="midnightblue" stroke="midnightblue" points="2626.96,-453.68 2636.82,-449.789 2626.69,-446.685 2626.96,-453.68"/>
</g>
<!-- Node58 -->
<g id="node59" class="node"><title>Node58</title>
<g id="a_node59"><a xlink:href="_unpacker_a2_geant_8h.html" target="_top" xlink:title="unpacker/UnpackerA2Geant.h">
<polygon fill="white" stroke="black" points="2305.05,-436.5 2305.05,-455.5 2466.05,-455.5 2466.05,-436.5 2305.05,-436.5"/>
<text text-anchor="middle" x="2385.55" y="-443.5" font-family="Helvetica,sans-Serif" font-size="10.00">unpacker/UnpackerA2Geant.h</text>
</a>
</g>
</g>
<!-- Node1&#45;&gt;Node58 -->
<g id="edge132" class="edge"><title>Node1&#45;&gt;Node58</title>
<path fill="none" stroke="midnightblue" d="M1524.61,-499.354C1640.54,-492.305 2098.23,-464.472 2294.93,-452.511"/>
<polygon fill="midnightblue" stroke="midnightblue" points="2295.18,-456.002 2304.95,-451.902 2294.76,-449.015 2295.18,-456.002"/>
</g>
<!-- Node61 -->
<g id="node62" class="node"><title>Node61</title>
<g id="a_node62"><a xlink:href="_data_manager_8h.html" target="_top" xlink:title="calibration/DataManager.h">
<polygon fill="white" stroke="black" points="1293.05,-375 1293.05,-394 1436.05,-394 1436.05,-375 1293.05,-375"/>
<text text-anchor="middle" x="1364.55" y="-382" font-family="Helvetica,sans-Serif" font-size="10.00">calibration/DataManager.h</text>
</a>
</g>
</g>
<!-- Node1&#45;&gt;Node61 -->
<g id="edge150" class="edge"><title>Node1&#45;&gt;Node61</title>
<path fill="none" stroke="midnightblue" d="M1487.56,-492.319C1465.12,-472.837 1410.53,-425.425 1382.22,-400.845"/>
<polygon fill="midnightblue" stroke="midnightblue" points="1384.51,-398.196 1374.67,-394.282 1379.92,-403.482 1384.51,-398.196"/>
</g>
<!-- Node3 -->
<g id="node4" class="node"><title>Node3</title>
<g id="a_node4"><a xlink:href="_detector__t_8h.html" target="_top" xlink:title="base/Detector_t.h">
<polygon fill="white" stroke="black" points="2825.05,-185 2825.05,-204 2928.05,-204 2928.05,-185 2825.05,-185"/>
<text text-anchor="middle" x="2876.55" y="-192" font-family="Helvetica,sans-Serif" font-size="10.00">base/Detector_t.h</text>
</a>
</g>
</g>
<!-- Node2&#45;&gt;Node3 -->
<g id="edge3" class="edge"><title>Node2&#45;&gt;Node3</title>
<path fill="none" stroke="midnightblue" d="M2267.86,-374.902C2326.19,-351.6 2493.78,-286.285 2637.55,-246 2697.98,-229.068 2768.4,-214.838 2817.08,-205.843"/>
<polygon fill="midnightblue" stroke="midnightblue" points="2817.92,-209.247 2827.12,-204.004 2816.66,-202.362 2817.92,-209.247"/>
</g>
<!-- Node17 -->
<g id="node18" class="node"><title>Node17</title>
<g id="a_node18"><a xlink:href="_reconstruct__traits_8h.html" target="_top" xlink:title="reconstruct/Reconstruct\l_traits.h">
<polygon fill="white" stroke="black" points="2150.05,-246.5 2150.05,-276.5 2281.05,-276.5 2281.05,-246.5 2150.05,-246.5"/>
<text text-anchor="start" x="2158.05" y="-264.5" font-family="Helvetica,sans-Serif" font-size="10.00">reconstruct/Reconstruct</text>
<text text-anchor="middle" x="2215.55" y="-253.5" font-family="Helvetica,sans-Serif" font-size="10.00">_traits.h</text>
</a>
</g>
</g>
<!-- Node2&#45;&gt;Node17 -->
<g id="edge20" class="edge"><title>Node2&#45;&gt;Node17</title>
<path fill="none" stroke="midnightblue" d="M2244.32,-374.798C2239.64,-356.524 2228.65,-313.604 2221.68,-286.433"/>
<polygon fill="midnightblue" stroke="midnightblue" points="2225.02,-285.358 2219.15,-276.539 2218.24,-287.095 2225.02,-285.358"/>
</g>
<!-- Node20 -->
<g id="node21" class="node"><title>Node20</title>
<polygon fill="white" stroke="#bfbfbf" points="2224.05,-56.5 2224.05,-75.5 2281.05,-75.5 2281.05,-56.5 2224.05,-56.5"/>
<text text-anchor="middle" x="2252.55" y="-63.5" font-family="Helvetica,sans-Serif" font-size="10.00">memory</text>
</g>
<!-- Node2&#45;&gt;Node20 -->
<g id="edge110" class="edge"><title>Node2&#45;&gt;Node20</title>
<path fill="none" stroke="midnightblue" d="M2251.45,-374.743C2261.07,-356.983 2282.14,-315.169 2289.55,-277 2303.3,-206.218 2274.71,-121.581 2260.25,-85.1443"/>
<polygon fill="midnightblue" stroke="midnightblue" points="2263.46,-83.7517 2256.43,-75.8229 2256.98,-86.4035 2263.46,-83.7517"/>
</g>
<!-- Node21 -->
<g id="node22" class="node"><title>Node21</title>
<polygon fill="white" stroke="#bfbfbf" points="1339.55,-56.5 1339.55,-75.5 1369.55,-75.5 1369.55,-56.5 1339.55,-56.5"/>
<text text-anchor="middle" x="1354.55" y="-63.5" font-family="Helvetica,sans-Serif" font-size="10.00">list</text>
</g>
<!-- Node2&#45;&gt;Node21 -->
<g id="edge111" class="edge"><title>Node2&#45;&gt;Node21</title>
<path fill="none" stroke="midnightblue" d="M2236.36,-374.828C2216.43,-357.546 2171.53,-317.02 2140.55,-277 2109.57,-236.977 2125.58,-205.648 2082.55,-179 1988.79,-120.93 1688.55,-187.304 1587.55,-143 1569.12,-134.916 1572.33,-121.43 1554.55,-112 1496.93,-81.4332 1419.31,-71.5689 1379.86,-68.4311"/>
<polygon fill="midnightblue" stroke="midnightblue" points="1380.01,-64.9334 1369.79,-67.7128 1379.51,-71.9157 1380.01,-64.9334"/>
</g>
<!-- Node25 -->
<g id="node26" class="node"><title>Node25</title>
<polygon fill="white" stroke="#bfbfbf" points="2035.55,-185 2035.55,-204 2073.55,-204 2073.55,-185 2035.55,-185"/>
<text text-anchor="middle" x="2054.55" y="-192" font-family="Helvetica,sans-Serif" font-size="10.00">map</text>
</g>
<!-- Node2&#45;&gt;Node25 -->
<g id="edge112" class="edge"><title>Node2&#45;&gt;Node25</title>
<path fill="none" stroke="midnightblue" d="M2215.12,-374.917C2173.38,-361.652 2101.26,-331.786 2069.55,-277 2058.32,-257.592 2055.21,-231.607 2054.49,-214.247"/>
<polygon fill="midnightblue" stroke="midnightblue" points="2057.99,-214.173 2054.3,-204.24 2050.99,-214.304 2057.99,-214.173"/>
</g>
<!-- Node2&#45;&gt;Node26 -->
<g id="edge38" class="edge"><title>Node2&#45;&gt;Node26</title>
<path fill="none" stroke="midnightblue" d="M2185.31,-377.902C2065.58,-366.96 1800.87,-342.766 1670.75,-330.873"/>
<polygon fill="midnightblue" stroke="midnightblue" points="1670.75,-327.359 1660.48,-329.934 1670.12,-334.33 1670.75,-327.359"/>
</g>
<!-- Node2&#45;&gt;Node51 -->
<g id="edge99" class="edge"><title>Node2&#45;&gt;Node51</title>
<path fill="none" stroke="midnightblue" d="M2307.85,-377.375C2509.58,-357.219 3152.7,-292.96 3378.37,-270.412"/>
<polygon fill="midnightblue" stroke="midnightblue" points="3378.87,-273.879 3388.48,-269.402 3378.18,-266.914 3378.87,-273.879"/>
</g>
<!-- Node4 -->
<g id="node5" class="node"><title>Node4</title>
<g id="a_node5"><a xlink:href="bitflag_8h.html" target="_top" xlink:title="base/bitflag.h">
<polygon fill="white" stroke="black" points="3694.05,-118 3694.05,-137 3775.05,-137 3775.05,-118 3694.05,-118"/>
<text text-anchor="middle" x="3734.55" y="-125" font-family="Helvetica,sans-Serif" font-size="10.00">base/bitflag.h</text>
</a>
</g>
</g>
<!-- Node3&#45;&gt;Node4 -->
<g id="edge4" class="edge"><title>Node3&#45;&gt;Node4</title>
<path fill="none" stroke="midnightblue" d="M2910.27,-184.952C2920.57,-182.651 2931.97,-180.411 2942.55,-179 3267.62,-135.663 3355.45,-193.074 3679.55,-143 3685.16,-142.133 3691.03,-140.924 3696.75,-139.57"/>
<polygon fill="midnightblue" stroke="midnightblue" points="3697.98,-142.87 3706.81,-137.02 3696.26,-136.085 3697.98,-142.87"/>
</g>
<!-- Node6 -->
<g id="node7" class="node"><title>Node6</title>
<g id="a_node7"><a xlink:href="vec3_8h.html" target="_top" xlink:title="base/vec/vec3.h">
<polygon fill="white" stroke="black" points="3153.55,-118 3153.55,-137 3247.55,-137 3247.55,-118 3153.55,-118"/>
<text text-anchor="middle" x="3200.55" y="-125" font-family="Helvetica,sans-Serif" font-size="10.00">base/vec/vec3.h</text>
</a>
</g>
</g>
<!-- Node3&#45;&gt;Node6 -->
<g id="edge6" class="edge"><title>Node3&#45;&gt;Node6</title>
<path fill="none" stroke="midnightblue" d="M2914.19,-184.959C2923.45,-182.933 2933.35,-180.831 2942.55,-179 3031.99,-161.212 3055.46,-162.444 3144.55,-143 3149.33,-141.957 3154.32,-140.787 3159.26,-139.575"/>
<polygon fill="midnightblue" stroke="midnightblue" points="3160.42,-142.892 3169.26,-137.056 3158.71,-136.104 3160.42,-142.892"/>
</g>
<!-- Node10 -->
<g id="node11" class="node"><title>Node10</title>
<g id="a_node11"><a xlink:href="base_2std__ext_2math_8h.html" target="_top" xlink:title="base/std_ext/math.h">
<polygon fill="white" stroke="black" points="3521.55,-118 3521.55,-137 3637.55,-137 3637.55,-118 3521.55,-118"/>
<text text-anchor="middle" x="3579.55" y="-125" font-family="Helvetica,sans-Serif" font-size="10.00">base/std_ext/math.h</text>
</a>
</g>
</g>
<!-- Node3&#45;&gt;Node10 -->
<g id="edge11" class="edge"><title>Node3&#45;&gt;Node10</title>
<path fill="none" stroke="midnightblue" d="M2910.63,-184.974C2920.84,-182.702 2932.1,-180.473 2942.55,-179 3191.71,-143.902 3258.09,-175.913 3507.55,-143 3515.46,-141.956 3523.81,-140.556 3531.9,-139.037"/>
<polygon fill="midnightblue" stroke="midnightblue" points="3532.83,-142.422 3541.97,-137.066 3531.49,-135.552 3532.83,-142.422"/>
</g>
<!-- Node12 -->
<g id="node13" class="node"><title>Node12</title>
<polygon fill="white" stroke="#bfbfbf" points="3556.05,-0.5 3556.05,-19.5 3603.05,-19.5 3603.05,-0.5 3556.05,-0.5"/>
<text text-anchor="middle" x="3579.55" y="-7.5" font-family="Helvetica,sans-Serif" font-size="10.00">vector</text>
</g>
<!-- Node3&#45;&gt;Node12 -->
<g id="edge19" class="edge"><title>Node3&#45;&gt;Node12</title>
<path fill="none" stroke="midnightblue" d="M2909.93,-184.988C2920.32,-182.659 2931.85,-180.394 2942.55,-179 2988.93,-172.96 3751.2,-176.768 3783.55,-143 3801.31,-124.468 3771.03,-61.0865 3765.55,-56 3743.66,-35.6612 3660.69,-21.6858 3613.29,-15.174"/>
<polygon fill="midnightblue" stroke="midnightblue" points="3613.56,-11.6795 3603.19,-13.825 3612.64,-18.6179 3613.56,-11.6795"/>
</g>
<!-- Node13 -->
<g id="node14" class="node"><title>Node13</title>
<polygon fill="white" stroke="#bfbfbf" points="3266.05,-118 3266.05,-137 3315.05,-137 3315.05,-118 3266.05,-118"/>
<text text-anchor="middle" x="3290.55" y="-125" font-family="Helvetica,sans-Serif" font-size="10.00">cstdint</text>
</g>
<!-- Node3&#45;&gt;Node13 -->
<g id="edge15" class="edge"><title>Node3&#45;&gt;Node13</title>
<path fill="none" stroke="midnightblue" d="M2912.39,-184.929C2922.14,-182.789 2932.72,-180.64 2942.55,-179 3081.11,-155.899 3120.76,-178.926 3256.55,-143 3258.91,-142.377 3261.31,-141.62 3263.7,-140.782"/>
<polygon fill="midnightblue" stroke="midnightblue" points="3265.23,-143.942 3273.25,-137.02 3262.66,-137.429 3265.23,-143.942"/>
</g>
<!-- Node14 -->
<g id="node15" class="node"><title>Node14</title>
<polygon fill="white" stroke="#bfbfbf" points="2451.55,-118 2451.55,-137 2515.55,-137 2515.55,-118 2451.55,-118"/>
<text text-anchor="middle" x="2483.55" y="-125" font-family="Helvetica,sans-Serif" font-size="10.00">stdexcept</text>
</g>
<!-- Node3&#45;&gt;Node14 -->
<g id="edge16" class="edge"><title>Node3&#45;&gt;Node14</title>
<path fill="none" stroke="midnightblue" d="M2824.77,-184.936C2746.2,-171.94 2598.36,-147.489 2525.84,-135.495"/>
<polygon fill="midnightblue" stroke="midnightblue" points="2526.15,-131.997 2515.71,-133.818 2525,-138.903 2526.15,-131.997"/>
</g>
<!-- Node3&#45;&gt;Node15 -->
<g id="edge17" class="edge"><title>Node3&#45;&gt;Node15</title>
<path fill="none" stroke="midnightblue" d="M2824.85,-187.349C2798.97,-184.454 2767.14,-181.168 2738.55,-179 2567.75,-166.044 2129.64,-201.264 1968.55,-143 1947.07,-135.23 1947.69,-122.788 1927.55,-112 1839.75,-64.9612 1725.61,-32.6629 1670.76,-18.734"/>
<polygon fill="midnightblue" stroke="midnightblue" points="1671.46,-15.303 1660.91,-16.2707 1669.76,-22.0936 1671.46,-15.303"/>
</g>
<!-- Node16 -->
<g id="node17" class="node"><title>Node16</title>
<polygon fill="white" stroke="#bfbfbf" points="2585.55,-56.5 2585.55,-75.5 2653.55,-75.5 2653.55,-56.5 2585.55,-56.5"/>
<text text-anchor="middle" x="2619.55" y="-63.5" font-family="Helvetica,sans-Serif" font-size="10.00">type_traits</text>
</g>
<!-- Node3&#45;&gt;Node16 -->
<g id="edge18" class="edge"><title>Node3&#45;&gt;Node16</title>
<path fill="none" stroke="midnightblue" d="M2885.8,-184.991C2901.97,-169.113 2931.89,-134.538 2912.55,-112 2881.09,-75.3336 2738.16,-68.2455 2664.2,-67.0719"/>
<polygon fill="midnightblue" stroke="midnightblue" points="2663.85,-63.5673 2653.81,-66.9389 2663.76,-70.5667 2663.85,-63.5673"/>
</g>
<!-- Node5 -->
<g id="node6" class="node"><title>Node5</title>
<polygon fill="white" stroke="#bfbfbf" points="3712.55,-56.5 3712.55,-75.5 3756.55,-75.5 3756.55,-56.5 3712.55,-56.5"/>
<text text-anchor="middle" x="3734.55" y="-63.5" font-family="Helvetica,sans-Serif" font-size="10.00">bitset</text>
</g>
<!-- Node4&#45;&gt;Node5 -->
<g id="edge5" class="edge"><title>Node4&#45;&gt;Node5</title>
<path fill="none" stroke="midnightblue" d="M3734.55,-117.975C3734.55,-109.58 3734.55,-96.4806 3734.55,-85.6631"/>
<polygon fill="midnightblue" stroke="midnightblue" points="3738.05,-85.5091 3734.55,-75.5091 3731.05,-85.5091 3738.05,-85.5091"/>
</g>
<!-- Node7 -->
<g id="node8" class="node"><title>Node7</title>
<g id="a_node8"><a xlink:href="vec2_8h.html" target="_top" xlink:title="vec2.h">
<polygon fill="white" stroke="black" points="3073.55,-56.5 3073.55,-75.5 3121.55,-75.5 3121.55,-56.5 3073.55,-56.5"/>
<text text-anchor="middle" x="3097.55" y="-63.5" font-family="Helvetica,sans-Serif" font-size="10.00">vec2.h</text>
</a>
</g>
</g>
<!-- Node6&#45;&gt;Node7 -->
<g id="edge7" class="edge"><title>Node6&#45;&gt;Node7</title>
<path fill="none" stroke="midnightblue" d="M3185.8,-117.975C3168.89,-108.211 3140.97,-92.0807 3121.06,-80.5808"/>
<polygon fill="midnightblue" stroke="midnightblue" points="3122.69,-77.4805 3112.28,-75.5091 3119.19,-83.5419 3122.69,-77.4805"/>
</g>
<!-- Node8 -->
<g id="node9" class="node"><title>Node8</title>
<polygon fill="white" stroke="#bfbfbf" points="3022.05,-0.5 3022.05,-19.5 3069.05,-19.5 3069.05,-0.5 3022.05,-0.5"/>
<text text-anchor="middle" x="3045.55" y="-7.5" font-family="Helvetica,sans-Serif" font-size="10.00">cmath</text>
</g>
<!-- Node6&#45;&gt;Node8 -->
<g id="edge10" class="edge"><title>Node6&#45;&gt;Node8</title>
<path fill="none" stroke="midnightblue" d="M3167.55,-117.925C3132.07,-108.091 3078.84,-91.3444 3064.55,-76 3052.92,-63.5082 3048.37,-44.2786 3046.61,-29.9716"/>
<polygon fill="midnightblue" stroke="midnightblue" points="3050.08,-29.4318 3045.72,-19.7759 3043.1,-30.0434 3050.08,-29.4318"/>
</g>
<!-- Node9 -->
<g id="node10" class="node"><title>Node9</title>
<polygon fill="white" stroke="#bfbfbf" points="3140.05,-56.5 3140.05,-75.5 3197.05,-75.5 3197.05,-56.5 3140.05,-56.5"/>
<text text-anchor="middle" x="3168.55" y="-63.5" font-family="Helvetica,sans-Serif" font-size="10.00">ostream</text>
</g>
<!-- Node6&#45;&gt;Node9 -->
<g id="edge9" class="edge"><title>Node6&#45;&gt;Node9</title>
<path fill="none" stroke="midnightblue" d="M3195.97,-117.975C3191.31,-109.315 3183.96,-95.6486 3178.04,-84.6453"/>
<polygon fill="midnightblue" stroke="midnightblue" points="3180.95,-82.6584 3173.13,-75.5091 3174.78,-85.974 3180.95,-82.6584"/>
</g>
<!-- Node7&#45;&gt;Node8 -->
<g id="edge8" class="edge"><title>Node7&#45;&gt;Node8</title>
<path fill="none" stroke="midnightblue" d="M3088.97,-56.083C3081.39,-48.2195 3070.17,-36.5688 3061.04,-27.0813"/>
<polygon fill="midnightblue" stroke="midnightblue" points="3063.44,-24.5266 3053.98,-19.7511 3058.4,-29.3821 3063.44,-24.5266"/>
</g>
<!-- Node10&#45;&gt;Node8 -->
<g id="edge12" class="edge"><title>Node10&#45;&gt;Node8</title>
<path fill="none" stroke="midnightblue" d="M3562.25,-117.997C3530.85,-102.95 3462.03,-71.7397 3400.55,-56 3285.06,-26.431 3143.24,-15.9063 3079.46,-12.4895"/>
<polygon fill="midnightblue" stroke="midnightblue" points="3079.36,-8.97995 3069.19,-11.9656 3079,-15.9708 3079.36,-8.97995"/>
</g>
<!-- Node11 -->
<g id="node12" class="node"><title>Node11</title>
<polygon fill="white" stroke="#bfbfbf" points="3644.55,-56.5 3644.55,-75.5 3686.55,-75.5 3686.55,-56.5 3644.55,-56.5"/>
<text text-anchor="middle" x="3665.55" y="-63.5" font-family="Helvetica,sans-Serif" font-size="10.00">limits</text>
</g>
<!-- Node10&#45;&gt;Node11 -->
<g id="edge13" class="edge"><title>Node10&#45;&gt;Node11</title>
<path fill="none" stroke="midnightblue" d="M3591.87,-117.975C3605.67,-108.431 3628.25,-92.8073 3644.79,-81.3683"/>
<polygon fill="midnightblue" stroke="midnightblue" points="3647.02,-84.077 3653.25,-75.5091 3643.04,-78.3205 3647.02,-84.077"/>
</g>
<!-- Node10&#45;&gt;Node12 -->
<g id="edge14" class="edge"><title>Node10&#45;&gt;Node12</title>
<path fill="none" stroke="midnightblue" d="M3579.55,-117.819C3579.55,-99.2568 3579.55,-55.3391 3579.55,-29.9734"/>
<polygon fill="midnightblue" stroke="midnightblue" points="3583.05,-29.782 3579.55,-19.782 3576.05,-29.782 3583.05,-29.782"/>
</g>
<!-- Node17&#45;&gt;Node3 -->
<g id="edge21" class="edge"><title>Node17&#45;&gt;Node3</title>
<path fill="none" stroke="midnightblue" d="M2281.25,-255.573C2385.54,-247.521 2595.3,-230.38 2772.55,-210 2786.32,-208.417 2801.09,-206.494 2815.05,-204.574"/>
<polygon fill="midnightblue" stroke="midnightblue" points="2815.62,-208.029 2825.04,-203.182 2814.65,-201.096 2815.62,-208.029"/>
</g>
<!-- Node18 -->
<g id="node19" class="node"><title>Node18</title>
<g id="a_node19"><a xlink:href="mapped__vectors_8h.html" target="_top" xlink:title="base/std_ext/mapped\l_vectors.h">
<polygon fill="white" stroke="black" points="2465.05,-179.5 2465.05,-209.5 2586.05,-209.5 2586.05,-179.5 2465.05,-179.5"/>
<text text-anchor="start" x="2473.05" y="-197.5" font-family="Helvetica,sans-Serif" font-size="10.00">base/std_ext/mapped</text>
<text text-anchor="middle" x="2525.55" y="-186.5" font-family="Helvetica,sans-Serif" font-size="10.00">_vectors.h</text>
</a>
</g>
</g>
<!-- Node17&#45;&gt;Node18 -->
<g id="edge22" class="edge"><title>Node17&#45;&gt;Node18</title>
<path fill="none" stroke="midnightblue" d="M2281.3,-246.715C2332.3,-236.02 2402.88,-221.222 2455.05,-210.282"/>
<polygon fill="midnightblue" stroke="midnightblue" points="2455.83,-213.695 2464.9,-208.217 2454.4,-206.844 2455.83,-213.695"/>
</g>
<!-- Node17&#45;&gt;Node20 -->
<g id="edge34" class="edge"><title>Node17&#45;&gt;Node20</title>
<path fill="none" stroke="midnightblue" d="M2220.44,-246.235C2227.71,-224.329 2241.2,-180.951 2247.55,-143 2250.75,-123.878 2251.93,-101.729 2252.35,-86.2929"/>
<polygon fill="midnightblue" stroke="midnightblue" points="2255.85,-86.0233 2252.54,-75.959 2248.85,-85.8913 2255.85,-86.0233"/>
</g>
<!-- Node17&#45;&gt;Node21 -->
<g id="edge36" class="edge"><title>Node17&#45;&gt;Node21</title>
<path fill="none" stroke="midnightblue" d="M2203.37,-246.234C2186.06,-227.093 2152.33,-193.798 2115.55,-179 1932.7,-105.428 1866.17,-184.784 1673.55,-143 1633.85,-134.387 1626.73,-122.774 1587.55,-112 1513.19,-91.5488 1422.99,-76.9444 1379.88,-70.5719"/>
<polygon fill="midnightblue" stroke="midnightblue" points="1380.13,-67.0721 1369.73,-69.0965 1379.12,-73.9992 1380.13,-67.0721"/>
</g>
<!-- Node22 -->
<g id="node23" class="node"><title>Node22</title>
<g id="a_node23"><a xlink:href="shared__ptr__container_8h.html" target="_top" xlink:title="base/std_ext/shared\l_ptr_container.h">
<polygon fill="white" stroke="black" points="2789.55,-112.5 2789.55,-142.5 2903.55,-142.5 2903.55,-112.5 2789.55,-112.5"/>
<text text-anchor="start" x="2797.55" y="-130.5" font-family="Helvetica,sans-Serif" font-size="10.00">base/std_ext/shared</text>
<text text-anchor="middle" x="2846.55" y="-119.5" font-family="Helvetica,sans-Serif" font-size="10.00">_ptr_container.h</text>
</a>
</g>
</g>
<!-- Node17&#45;&gt;Node22 -->
<g id="edge29" class="edge"><title>Node17&#45;&gt;Node22</title>
<path fill="none" stroke="midnightblue" d="M2281.41,-256.151C2412.46,-247.205 2696.9,-226.22 2738.55,-210 2747.82,-206.392 2792.06,-171.916 2820.96,-148.975"/>
<polygon fill="midnightblue" stroke="midnightblue" points="2823.38,-151.524 2829.03,-142.559 2819.02,-146.047 2823.38,-151.524"/>
</g>
<!-- Node17&#45;&gt;Node23 -->
<g id="edge37" class="edge"><title>Node17&#45;&gt;Node23</title>
<path fill="none" stroke="midnightblue" d="M2149.94,-259.583C1892.16,-255.792 948.401,-240.116 650.553,-210 474.701,-192.219 388.173,-263.162 258.553,-143 242.844,-128.437 239.272,-103.026 238.85,-85.628"/>
<polygon fill="midnightblue" stroke="midnightblue" points="242.35,-85.5742 238.931,-75.5464 235.351,-85.5179 242.35,-85.5742"/>
</g>
<!-- Node17&#45;&gt;Node25 -->
<g id="edge35" class="edge"><title>Node17&#45;&gt;Node25</title>
<path fill="none" stroke="midnightblue" d="M2180.62,-246.396C2151.46,-234.624 2110.41,-218.051 2083.17,-207.053"/>
<polygon fill="midnightblue" stroke="midnightblue" points="2084.39,-203.771 2073.81,-203.273 2081.77,-210.262 2084.39,-203.771"/>
</g>
<!-- Node18&#45;&gt;Node12 -->
<g id="edge26" class="edge"><title>Node18&#45;&gt;Node12</title>
<path fill="none" stroke="midnightblue" d="M2586.28,-184.365C2601.67,-182.319 2618.19,-180.357 2633.55,-179 2726.72,-170.769 3391.2,-185.426 3474.55,-143 3499.85,-130.125 3547.05,-61.0517 3568.47,-28.2792"/>
<polygon fill="midnightblue" stroke="midnightblue" points="3571.51,-30.0194 3574.01,-19.7241 3565.64,-26.2124 3571.51,-30.0194"/>
</g>
<!-- Node18&#45;&gt;Node16 -->
<g id="edge28" class="edge"><title>Node18&#45;&gt;Node16</title>
<path fill="none" stroke="midnightblue" d="M2535.97,-179.479C2553.34,-156.104 2588.16,-109.253 2606.9,-84.0222"/>
<polygon fill="midnightblue" stroke="midnightblue" points="2609.87,-85.9027 2613.02,-75.7885 2604.25,-81.7276 2609.87,-85.9027"/>
</g>
<!-- Node19 -->
<g id="node20" class="node"><title>Node19</title>
<g id="a_node20"><a xlink:href="memory_8h.html" target="_top" xlink:title="base/std_ext/memory.h">
<polygon fill="white" stroke="black" points="1754.05,-118 1754.05,-137 1883.05,-137 1883.05,-118 1754.05,-118"/>
<text text-anchor="middle" x="1818.55" y="-125" font-family="Helvetica,sans-Serif" font-size="10.00">base/std_ext/memory.h</text>
</a>
</g>
</g>
<!-- Node18&#45;&gt;Node19 -->
<g id="edge23" class="edge"><title>Node18&#45;&gt;Node19</title>
<path fill="none" stroke="midnightblue" d="M2464.94,-180.403C2461.77,-179.888 2458.63,-179.416 2455.55,-179 2209.28,-145.715 2144.19,-173.484 1897.55,-143 1888.51,-141.882 1878.93,-140.39 1869.69,-138.787"/>
<polygon fill="midnightblue" stroke="midnightblue" points="1870.28,-135.339 1859.82,-137.017 1869.05,-142.229 1870.28,-135.339"/>
</g>
<!-- Node18&#45;&gt;Node20 -->
<g id="edge27" class="edge"><title>Node18&#45;&gt;Node20</title>
<path fill="none" stroke="midnightblue" d="M2530.34,-179.211C2535.35,-161.262 2540.5,-130.572 2524.55,-112 2494.95,-77.5318 2359.67,-69.4381 2291.73,-67.5568"/>
<polygon fill="midnightblue" stroke="midnightblue" points="2291.51,-64.0505 2281.43,-67.3051 2291.34,-71.0484 2291.51,-64.0505"/>
</g>
<!-- Node19&#45;&gt;Node20 -->
<g id="edge24" class="edge"><title>Node19&#45;&gt;Node20</title>
<path fill="none" stroke="midnightblue" d="M1880.73,-117.975C1971.73,-105.5 2138.52,-82.6339 2213.83,-72.3086"/>
<polygon fill="midnightblue" stroke="midnightblue" points="2214.4,-75.7632 2223.83,-70.9372 2213.45,-68.828 2214.4,-75.7632"/>
</g>
<!-- Node19&#45;&gt;Node21 -->
<g id="edge25" class="edge"><title>Node19&#45;&gt;Node21</title>
<path fill="none" stroke="midnightblue" d="M1754.04,-118.227C1650.27,-104.921 1450.79,-79.341 1380.13,-70.2802"/>
<polygon fill="midnightblue" stroke="midnightblue" points="1380.3,-66.7727 1369.93,-68.9722 1379.41,-73.7158 1380.3,-66.7727"/>
</g>
<!-- Node22&#45;&gt;Node12 -->
<g id="edge30" class="edge"><title>Node22&#45;&gt;Node12</title>
<path fill="none" stroke="midnightblue" d="M2903.66,-121.256C3016,-110.766 3257.99,-87.2452 3294.55,-76 3312.79,-70.3898 3314.51,-62.2267 3332.55,-56 3406.1,-30.6156 3497.17,-18.7525 3545.57,-13.8962"/>
<polygon fill="midnightblue" stroke="midnightblue" points="3546.17,-17.3542 3555.79,-12.9117 3545.5,-10.3864 3546.17,-17.3542"/>
</g>
<!-- Node22&#45;&gt;Node20 -->
<g id="edge31" class="edge"><title>Node22&#45;&gt;Node20</title>
<path fill="none" stroke="midnightblue" d="M2789.4,-113.463C2786.42,-112.933 2783.45,-112.44 2780.55,-112 2598.75,-84.4042 2378.97,-72.4684 2291.35,-68.5612"/>
<polygon fill="midnightblue" stroke="midnightblue" points="2291.47,-65.0634 2281.33,-68.124 2291.16,-72.0567 2291.47,-65.0634"/>
</g>
<!-- Node22&#45;&gt;Node23 -->
<g id="edge32" class="edge"><title>Node22&#45;&gt;Node23</title>
<path fill="none" stroke="midnightblue" d="M2789.43,-113.224C2786.44,-112.756 2783.47,-112.342 2780.55,-112 2651.31,-96.8117 601.83,-71.3947 281.513,-67.5056"/>
<polygon fill="midnightblue" stroke="midnightblue" points="281.315,-64.003 271.273,-67.3815 281.23,-71.0025 281.315,-64.003"/>
</g>
<!-- Node24 -->
<g id="node25" class="node"><title>Node24</title>
<polygon fill="white" stroke="#bfbfbf" points="2859.55,-0.5 2859.55,-19.5 2921.55,-19.5 2921.55,-0.5 2859.55,-0.5"/>
<text text-anchor="middle" x="2890.55" y="-7.5" font-family="Helvetica,sans-Serif" font-size="10.00">algorithm</text>
</g>
<!-- Node22&#45;&gt;Node24 -->
<g id="edge33" class="edge"><title>Node22&#45;&gt;Node24</title>
<path fill="none" stroke="midnightblue" d="M2851.95,-112.337C2859.91,-91.4325 2874.82,-52.3096 2883.59,-29.2696"/>
<polygon fill="midnightblue" stroke="midnightblue" points="2886.96,-30.2603 2887.25,-19.6695 2880.42,-27.7683 2886.96,-30.2603"/>
</g>
<!-- Node26&#45;&gt;Node12 -->
<g id="edge98" class="edge"><title>Node26&#45;&gt;Node12</title>
<path fill="none" stroke="midnightblue" d="M1660.17,-318.323C1782.89,-311.225 2058.11,-294.763 2289.55,-277 2457.61,-264.102 3686.76,-267.334 3800.55,-143 3816.23,-125.875 3791.3,-61.4844 3785.55,-56 3761.15,-32.7092 3665.11,-19.6304 3613.23,-14.1313"/>
<polygon fill="midnightblue" stroke="midnightblue" points="3613.48,-10.6386 3603.18,-13.1019 3612.77,-17.6022 3613.48,-10.6386"/>
</g>
<!-- Node26&#45;&gt;Node17 -->
<g id="edge39" class="edge"><title>Node26&#45;&gt;Node17</title>
<path fill="none" stroke="midnightblue" d="M1660.15,-315.801C1775.54,-304.727 2016.49,-281.603 2139.6,-269.789"/>
<polygon fill="midnightblue" stroke="midnightblue" points="2140.08,-273.259 2149.7,-268.82 2139.41,-266.291 2140.08,-273.259"/>
</g>
<!-- Node27 -->
<g id="node28" class="node"><title>Node27</title>
<g id="a_node28"><a xlink:href="_manager__traits_8h.html" target="_top" xlink:title="calibration/gui/Manager\l_traits.h">
<polygon fill="white" stroke="black" points="1244.55,-246.5 1244.55,-276.5 1372.55,-276.5 1372.55,-246.5 1244.55,-246.5"/>
<text text-anchor="start" x="1252.55" y="-264.5" font-family="Helvetica,sans-Serif" font-size="10.00">calibration/gui/Manager</text>
<text text-anchor="middle" x="1308.55" y="-253.5" font-family="Helvetica,sans-Serif" font-size="10.00">_traits.h</text>
</a>
</g>
</g>
<!-- Node26&#45;&gt;Node27 -->
<g id="edge40" class="edge"><title>Node26&#45;&gt;Node27</title>
<path fill="none" stroke="midnightblue" d="M1554.43,-313.475C1509.71,-304.203 1437.3,-289.192 1382.62,-277.856"/>
<polygon fill="midnightblue" stroke="midnightblue" points="1383.13,-274.387 1372.63,-275.784 1381.71,-281.241 1383.13,-274.387"/>
</g>
<!-- Node26&#45;&gt;Node50 -->
<g id="edge92" class="edge"><title>Node26&#45;&gt;Node50</title>
<path fill="none" stroke="midnightblue" d="M1530.87,-315.773C1411.59,-304.289 1158.4,-279.912 1040.46,-268.557"/>
<polygon fill="midnightblue" stroke="midnightblue" points="1040.45,-265.039 1030.16,-267.565 1039.78,-272.007 1040.45,-265.039"/>
</g>
<!-- Node27&#45;&gt;Node15 -->
<g id="edge88" class="edge"><title>Node27&#45;&gt;Node15</title>
<path fill="none" stroke="midnightblue" d="M1244.46,-256.902C1189.76,-253.869 1109,-249.479 1038.55,-246 994.173,-243.809 274.763,-237.104 239.553,-210 183.427,-166.795 149.122,-106.728 198.553,-56 252.464,-0.674744 1511.71,-27.8651 1588.55,-20 1594.26,-19.4163 1600.29,-18.5488 1606.11,-17.5792"/>
<polygon fill="midnightblue" stroke="midnightblue" points="1607.03,-20.9706 1616.25,-15.763 1605.79,-14.0802 1607.03,-20.9706"/>
</g>
<!-- Node27&#45;&gt;Node20 -->
<g id="edge90" class="edge"><title>Node27&#45;&gt;Node20</title>
<path fill="none" stroke="midnightblue" d="M1372.72,-251.793C1555.12,-226.933 2065.72,-156.539 2099.55,-143 2121.76,-134.113 2122.59,-123.524 2143.55,-112 2167.51,-98.8286 2196.14,-87.1532 2218.04,-78.9974"/>
<polygon fill="midnightblue" stroke="midnightblue" points="2219.4,-82.2269 2227.59,-75.5051 2216.99,-75.6527 2219.4,-82.2269"/>
</g>
<!-- Node27&#45;&gt;Node21 -->
<g id="edge89" class="edge"><title>Node27&#45;&gt;Node21</title>
<path fill="none" stroke="midnightblue" d="M1303.31,-246.13C1294.16,-218.575 1278.21,-157.047 1299.55,-112 1306.08,-98.2293 1319.11,-87.2714 1330.85,-79.6176"/>
<polygon fill="midnightblue" stroke="midnightblue" points="1332.7,-82.5875 1339.45,-74.4169 1329.08,-76.598 1332.7,-82.5875"/>
</g>
<!-- Node27&#45;&gt;Node23 -->
<g id="edge91" class="edge"><title>Node27&#45;&gt;Node23</title>
<path fill="none" stroke="midnightblue" d="M1244.46,-256.948C1189.76,-253.943 1108.99,-249.569 1038.55,-246 954.565,-241.745 358.028,-247.087 282.553,-210 247.464,-192.758 239.049,-179.693 225.553,-143 218.553,-123.971 224.697,-100.923 230.905,-85.2333"/>
<polygon fill="midnightblue" stroke="midnightblue" points="234.278,-86.2527 235.053,-75.6863 227.858,-83.4635 234.278,-86.2527"/>
</g>
<!-- Node28 -->
<g id="node29" class="node"><title>Node28</title>
<g id="a_node29"><a xlink:href="interval_8h.html" target="_top" xlink:title="base/interval.h">
<polygon fill="white" stroke="black" points="2643.05,-185 2643.05,-204 2730.05,-204 2730.05,-185 2643.05,-185"/>
<text text-anchor="middle" x="2686.55" y="-192" font-family="Helvetica,sans-Serif" font-size="10.00">base/interval.h</text>
</a>
</g>
</g>
<!-- Node27&#45;&gt;Node28 -->
<g id="edge41" class="edge"><title>Node27&#45;&gt;Node28</title>
<path fill="none" stroke="midnightblue" d="M1372.63,-260.632C1560.69,-260.45 2127.3,-255.837 2594.55,-210 2606.87,-208.791 2620.05,-207.009 2632.48,-205.104"/>
<polygon fill="midnightblue" stroke="midnightblue" points="2633.37,-208.506 2642.7,-203.484 2632.27,-201.592 2633.37,-208.506"/>
</g>
<!-- Node32 -->
<g id="node33" class="node"><title>Node32</title>
<g id="a_node33"><a xlink:href="_wrap_t_file_8h.html" target="_top" xlink:title="base/WrapTFile.h">
<polygon fill="white" stroke="black" points="660.053,-185 660.053,-204 755.053,-204 755.053,-185 660.053,-185"/>
<text text-anchor="middle" x="707.553" y="-192" font-family="Helvetica,sans-Serif" font-size="10.00">base/WrapTFile.h</text>
</a>
</g>
</g>
<!-- Node27&#45;&gt;Node32 -->
<g id="edge49" class="edge"><title>Node27&#45;&gt;Node32</title>
<path fill="none" stroke="midnightblue" d="M1244.52,-253.575C1126.91,-240.854 878.208,-213.957 765.383,-201.755"/>
<polygon fill="midnightblue" stroke="midnightblue" points="765.54,-198.251 755.222,-200.656 764.788,-205.211 765.54,-198.251"/>
</g>
<!-- Node27&#45;&gt;Node43 -->
<g id="edge75" class="edge"><title>Node27&#45;&gt;Node43</title>
<path fill="none" stroke="midnightblue" d="M1336.54,-246.396C1358.88,-235.142 1389.92,-219.501 1411.68,-208.538"/>
<polygon fill="midnightblue" stroke="midnightblue" points="1413.31,-211.633 1420.67,-204.007 1410.16,-205.381 1413.31,-211.633"/>
</g>
<!-- Node28&#45;&gt;Node8 -->
<g id="edge48" class="edge"><title>Node28&#45;&gt;Node8</title>
<path fill="none" stroke="midnightblue" d="M2730.15,-186.133C2796.07,-174.758 2915.3,-153.17 2932.55,-143 2980.91,-114.497 3018.66,-57.6978 3035.69,-28.7906"/>
<polygon fill="midnightblue" stroke="midnightblue" points="3038.89,-30.2378 3040.83,-19.8211 3032.82,-26.7577 3038.89,-30.2378"/>
</g>
<!-- Node28&#45;&gt;Node11 -->
<g id="edge45" class="edge"><title>Node28&#45;&gt;Node11</title>
<path fill="none" stroke="midnightblue" d="M2730.07,-187.856C2755.05,-184.805 2787.02,-181.219 2815.55,-179 2861.62,-175.417 3610.75,-172.22 3646.55,-143 3663.23,-129.39 3666.55,-103.565 3666.65,-85.8273"/>
<polygon fill="midnightblue" stroke="midnightblue" points="3670.15,-85.68 3666.38,-75.779 3663.15,-85.8706 3670.15,-85.68"/>
</g>
<!-- Node28&#45;&gt;Node14 -->
<g id="edge44" class="edge"><title>Node28&#45;&gt;Node14</title>
<path fill="none" stroke="midnightblue" d="M2659.6,-184.869C2623.7,-173.376 2560.09,-153.008 2519.96,-140.159"/>
<polygon fill="midnightblue" stroke="midnightblue" points="2520.89,-136.78 2510.3,-137.064 2518.75,-143.446 2520.89,-136.78"/>
</g>
<!-- Node28&#45;&gt;Node24 -->
<g id="edge43" class="edge"><title>Node28&#45;&gt;Node24</title>
<path fill="none" stroke="midnightblue" d="M2730.19,-186.734C2792.61,-176.617 2901.16,-157.217 2912.55,-143 2939.33,-109.574 2916.13,-55.8335 2901.05,-28.3733"/>
<polygon fill="midnightblue" stroke="midnightblue" points="2903.99,-26.4574 2895.97,-19.5317 2897.92,-29.9457 2903.99,-26.4574"/>
</g>
<!-- Node29 -->
<g id="node30" class="node"><title>Node29</title>
<g id="a_node30"><a xlink:href="types_8h.html" target="_top" xlink:title="types.h">
<polygon fill="white" stroke="black" points="2719.55,-118 2719.55,-137 2771.55,-137 2771.55,-118 2719.55,-118"/>
<text text-anchor="middle" x="2745.55" y="-125" font-family="Helvetica,sans-Serif" font-size="10.00">types.h</text>
</a>
</g>
</g>
<!-- Node28&#45;&gt;Node29 -->
<g id="edge42" class="edge"><title>Node28&#45;&gt;Node29</title>
<path fill="none" stroke="midnightblue" d="M2694.51,-184.734C2703.8,-174.5 2719.35,-157.364 2730.86,-144.692"/>
<polygon fill="midnightblue" stroke="midnightblue" points="2733.59,-146.884 2737.72,-137.127 2728.41,-142.179 2733.59,-146.884"/>
</g>
<!-- Node30 -->
<g id="node31" class="node"><title>Node30</title>
<polygon fill="white" stroke="#bfbfbf" points="2648.05,-118 2648.05,-137 2701.05,-137 2701.05,-118 2648.05,-118"/>
<text text-anchor="middle" x="2674.55" y="-125" font-family="Helvetica,sans-Serif" font-size="10.00">istream</text>
</g>
<!-- Node28&#45;&gt;Node30 -->
<g id="edge46" class="edge"><title>Node28&#45;&gt;Node30</title>
<path fill="none" stroke="midnightblue" d="M2684.93,-184.734C2683.17,-175.183 2680.3,-159.618 2678.02,-147.283"/>
<polygon fill="midnightblue" stroke="midnightblue" points="2681.4,-146.326 2676.15,-137.127 2674.52,-147.597 2681.4,-146.326"/>
</g>
<!-- Node31 -->
<g id="node32" class="node"><title>Node31</title>
<polygon fill="white" stroke="#bfbfbf" points="1523.55,-0.5 1523.55,-19.5 1579.55,-19.5 1579.55,-0.5 1523.55,-0.5"/>
<text text-anchor="middle" x="1551.55" y="-7.5" font-family="Helvetica,sans-Serif" font-size="10.00">sstream</text>
</g>
<!-- Node28&#45;&gt;Node31 -->
<g id="edge47" class="edge"><title>Node28&#45;&gt;Node31</title>
<path fill="none" stroke="midnightblue" d="M2642.68,-185.654C2627.49,-183.184 2610.31,-180.668 2594.55,-179 2448.7,-163.563 2074.1,-191.104 1935.55,-143 1912.95,-135.154 1913.92,-120.488 1891.55,-112 1824.44,-86.5305 1625.5,-122.19 1570.55,-76 1557.21,-64.7866 1552.95,-44.7687 1551.73,-29.9005"/>
<polygon fill="midnightblue" stroke="midnightblue" points="1555.22,-29.6027 1551.28,-19.7656 1548.22,-29.9094 1555.22,-29.6027"/>
</g>
<!-- Node32&#45;&gt;Node14 -->
<g id="edge73" class="edge"><title>Node32&#45;&gt;Node14</title>
<path fill="none" stroke="midnightblue" d="M755.331,-191.792C933,-185.437 1572.43,-162.514 2099.55,-143 2223.68,-138.405 2370.38,-132.824 2441.15,-130.121"/>
<polygon fill="midnightblue" stroke="midnightblue" points="2441.58,-133.608 2451.44,-129.729 2441.31,-126.613 2441.58,-133.608"/>
</g>
<!-- Node32&#45;&gt;Node15 -->
<g id="edge70" class="edge"><title>Node32&#45;&gt;Node15</title>
<path fill="none" stroke="midnightblue" d="M659.927,-193.307C578.861,-191.856 419.427,-183.75 384.553,-143 375.594,-132.532 375.376,-122.276 384.553,-112 435.218,-55.2668 1437.57,-37.345 1588.55,-20 1594.25,-19.3457 1600.28,-18.4434 1606.1,-17.4613"/>
<polygon fill="midnightblue" stroke="midnightblue" points="1607.02,-20.8526 1616.24,-15.6436 1605.78,-13.9623 1607.02,-20.8526"/>
</g>
<!-- Node32&#45;&gt;Node20 -->
<g id="edge69" class="edge"><title>Node32&#45;&gt;Node20</title>
<path fill="none" stroke="midnightblue" d="M755.293,-190.365C837.546,-184.464 1011.07,-169.821 1155.55,-143 1209.29,-133.025 1220.52,-120.19 1274.55,-112 1298.17,-108.42 2035.07,-76.4011 2213.79,-68.673"/>
<polygon fill="midnightblue" stroke="midnightblue" points="2213.96,-72.1692 2223.8,-68.2405 2213.66,-65.1757 2213.96,-72.1692"/>
</g>
<!-- Node32&#45;&gt;Node21 -->
<g id="edge71" class="edge"><title>Node32&#45;&gt;Node21</title>
<path fill="none" stroke="midnightblue" d="M729.102,-184.917C780.536,-164.454 906.923,-114.327 916.553,-112 1069.99,-74.9225 1260.89,-68.3814 1328.97,-67.238"/>
<polygon fill="midnightblue" stroke="midnightblue" points="1329.22,-70.7349 1339.17,-67.0929 1329.12,-63.7356 1329.22,-70.7349"/>
</g>
<!-- Node32&#45;&gt;Node23 -->
<g id="edge74" class="edge"><title>Node32&#45;&gt;Node23</title>
<path fill="none" stroke="midnightblue" d="M659.906,-193.891C589.813,-192.906 455.93,-185.026 351.553,-143 329.698,-134.201 327.981,-125.327 308.553,-112 293.126,-101.417 275.448,-89.8997 261.848,-81.1662"/>
<polygon fill="midnightblue" stroke="midnightblue" points="263.472,-78.0503 253.162,-75.6104 259.701,-83.9472 263.472,-78.0503"/>
</g>
<!-- Node33 -->
<g id="node34" class="node"><title>Node33</title>
<g id="a_node34"><a xlink:href="string_8h.html" target="_top" xlink:title="base/std_ext/string.h">
<polygon fill="white" stroke="black" points="1580.05,-56.5 1580.05,-75.5 1697.05,-75.5 1697.05,-56.5 1580.05,-56.5"/>
<text text-anchor="middle" x="1638.55" y="-63.5" font-family="Helvetica,sans-Serif" font-size="10.00">base/std_ext/string.h</text>
</a>
</g>
</g>
<!-- Node32&#45;&gt;Node33 -->
<g id="edge50" class="edge"><title>Node32&#45;&gt;Node33</title>
<path fill="none" stroke="midnightblue" d="M755.116,-192.501C922.872,-188.728 1480.83,-173.954 1554.55,-143 1584.78,-130.308 1611.27,-101.914 1626.06,-83.6526"/>
<polygon fill="midnightblue" stroke="midnightblue" points="1628.94,-85.6477 1632.35,-75.6152 1623.43,-81.334 1628.94,-85.6477"/>
</g>
<!-- Node34 -->
<g id="node35" class="node"><title>Node34</title>
<g id="a_node35"><a xlink:href="misc_8h.html" target="_top" xlink:title="base/std_ext/misc.h">
<polygon fill="white" stroke="black" points="1978.05,-118 1978.05,-137 2091.05,-137 2091.05,-118 1978.05,-118"/>
<text text-anchor="middle" x="2034.55" y="-125" font-family="Helvetica,sans-Serif" font-size="10.00">base/std_ext/misc.h</text>
</a>
</g>
</g>
<!-- Node32&#45;&gt;Node34 -->
<g id="edge55" class="edge"><title>Node32&#45;&gt;Node34</title>
<path fill="none" stroke="midnightblue" d="M755.263,-192.466C915.732,-188.773 1450.6,-174.732 1891.55,-143 1916.49,-141.206 1943.81,-138.595 1967.83,-136.082"/>
<polygon fill="midnightblue" stroke="midnightblue" points="1968.33,-139.548 1977.9,-135.013 1967.59,-132.587 1968.33,-139.548"/>
</g>
<!-- Node36 -->
<g id="node37" class="node"><title>Node36</title>
<polygon fill="white" stroke="#bfbfbf" points="457.553,-118 457.553,-137 503.553,-137 503.553,-118 457.553,-118"/>
<text text-anchor="middle" x="480.553" y="-125" font-family="Helvetica,sans-Serif" font-size="10.00">TFile.h</text>
</g>
<!-- Node32&#45;&gt;Node36 -->
<g id="edge63" class="edge"><title>Node32&#45;&gt;Node36</title>
<path fill="none" stroke="midnightblue" d="M666.229,-184.969C626.33,-176.227 564.49,-161.339 512.553,-143 510.892,-142.414 509.199,-141.775 507.502,-141.104"/>
<polygon fill="midnightblue" stroke="midnightblue" points="508.507,-137.728 497.935,-137.031 505.765,-144.168 508.507,-137.728"/>
</g>
<!-- Node37 -->
<g id="node38" class="node"><title>Node37</title>
<polygon fill="white" stroke="#bfbfbf" points="522.053,-118 522.053,-137 595.053,-137 595.053,-118 522.053,-118"/>
<text text-anchor="middle" x="558.553" y="-125" font-family="Helvetica,sans-Serif" font-size="10.00">TDirectory.h</text>
</g>
<!-- Node32&#45;&gt;Node37 -->
<g id="edge64" class="edge"><title>Node32&#45;&gt;Node37</title>
<path fill="none" stroke="midnightblue" d="M687.767,-184.869C662.163,-173.699 617.343,-154.147 587.803,-141.26"/>
<polygon fill="midnightblue" stroke="midnightblue" points="588.986,-137.958 578.421,-137.167 586.187,-144.374 588.986,-137.958"/>
</g>
<!-- Node38 -->
<g id="node39" class="node"><title>Node38</title>
<polygon fill="white" stroke="#bfbfbf" points="613.053,-118 613.053,-137 666.053,-137 666.053,-118 613.053,-118"/>
<text text-anchor="middle" x="639.553" y="-125" font-family="Helvetica,sans-Serif" font-size="10.00">TError.h</text>
</g>
<!-- Node32&#45;&gt;Node38 -->
<g id="edge65" class="edge"><title>Node32&#45;&gt;Node38</title>
<path fill="none" stroke="midnightblue" d="M698.382,-184.734C687.574,-174.403 669.407,-157.037 656.115,-144.332"/>
<polygon fill="midnightblue" stroke="midnightblue" points="658.226,-141.507 648.578,-137.127 653.389,-146.567 658.226,-141.507"/>
</g>
<!-- Node39 -->
<g id="node40" class="node"><title>Node39</title>
<polygon fill="white" stroke="#bfbfbf" points="684.053,-118 684.053,-137 731.053,-137 731.053,-118 684.053,-118"/>
<text text-anchor="middle" x="707.553" y="-125" font-family="Helvetica,sans-Serif" font-size="10.00">TList.h</text>
</g>
<!-- Node32&#45;&gt;Node39 -->
<g id="edge66" class="edge"><title>Node32&#45;&gt;Node39</title>
<path fill="none" stroke="midnightblue" d="M707.553,-184.734C707.553,-175.183 707.553,-159.618 707.553,-147.283"/>
<polygon fill="midnightblue" stroke="midnightblue" points="711.053,-147.127 707.553,-137.127 704.053,-147.127 711.053,-147.127"/>
</g>
<!-- Node40 -->
<g id="node41" class="node"><title>Node40</title>
<polygon fill="white" stroke="#bfbfbf" points="749.053,-118 749.053,-137 826.053,-137 826.053,-118 749.053,-118"/>
<text text-anchor="middle" x="787.553" y="-125" font-family="Helvetica,sans-Serif" font-size="10.00">TCollection.h</text>
</g>
<!-- Node32&#45;&gt;Node40 -->
<g id="edge67" class="edge"><title>Node32&#45;&gt;Node40</title>
<path fill="none" stroke="midnightblue" d="M718.342,-184.734C731.297,-174.208 753.24,-156.379 768.947,-143.617"/>
<polygon fill="midnightblue" stroke="midnightblue" points="771.381,-146.15 776.935,-137.127 766.966,-140.717 771.381,-146.15"/>
</g>
<!-- Node41 -->
<g id="node42" class="node"><title>Node41</title>
<polygon fill="white" stroke="#bfbfbf" points="393.553,-118 393.553,-137 439.553,-137 439.553,-118 393.553,-118"/>
<text text-anchor="middle" x="416.553" y="-125" font-family="Helvetica,sans-Serif" font-size="10.00">TKey.h</text>
</g>
<!-- Node32&#45;&gt;Node41 -->
<g id="edge68" class="edge"><title>Node32&#45;&gt;Node41</title>
<path fill="none" stroke="midnightblue" d="M659.936,-187.607C607.341,-180.322 520.562,-165.988 448.553,-143 446.679,-142.402 444.769,-141.724 442.863,-140.997"/>
<polygon fill="midnightblue" stroke="midnightblue" points="444.11,-137.724 433.535,-137.08 441.4,-144.178 444.11,-137.724"/>
</g>
<!-- Node42 -->
<g id="node43" class="node"><title>Node42</title>
<polygon fill="white" stroke="#bfbfbf" points="267.553,-118 267.553,-137 299.553,-137 299.553,-118 267.553,-118"/>
<text text-anchor="middle" x="283.553" y="-125" font-family="Helvetica,sans-Serif" font-size="10.00">set</text>
</g>
<!-- Node32&#45;&gt;Node42 -->
<g id="edge72" class="edge"><title>Node32&#45;&gt;Node42</title>
<path fill="none" stroke="midnightblue" d="M659.837,-192.317C584.696,-189.364 434.856,-179.047 313.553,-143 311.681,-142.444 309.782,-141.782 307.894,-141.053"/>
<polygon fill="midnightblue" stroke="midnightblue" points="309.303,-137.849 298.741,-137.013 306.476,-144.253 309.303,-137.849"/>
</g>
<!-- Node33&#45;&gt;Node12 -->
<g id="edge54" class="edge"><title>Node33&#45;&gt;Node12</title>
<path fill="none" stroke="midnightblue" d="M1697.33,-63.3966C1990.11,-55.4103 3277.4,-20.2949 3287.55,-20 3380.95,-17.2864 3491.13,-13.8178 3545.58,-12.0859"/>
<polygon fill="midnightblue" stroke="midnightblue" points="3545.82,-15.5801 3555.71,-11.7635 3545.6,-8.58365 3545.82,-15.5801"/>
</g>
<!-- Node33&#45;&gt;Node15 -->
<g id="edge51" class="edge"><title>Node33&#45;&gt;Node15</title>
<path fill="none" stroke="midnightblue" d="M1638.55,-56.083C1638.55,-49.0059 1638.55,-38.8611 1638.55,-29.9865"/>
<polygon fill="midnightblue" stroke="midnightblue" points="1642.05,-29.751 1638.55,-19.7511 1635.05,-29.7511 1642.05,-29.751"/>
</g>
<!-- Node33&#45;&gt;Node24 -->
<g id="edge53" class="edge"><title>Node33&#45;&gt;Node24</title>
<path fill="none" stroke="midnightblue" d="M1697.26,-62.4679C1913.75,-53.1304 2664.37,-20.7553 2849.19,-12.7839"/>
<polygon fill="midnightblue" stroke="midnightblue" points="2849.47,-16.2754 2859.31,-12.3476 2849.17,-9.28188 2849.47,-16.2754"/>
</g>
<!-- Node33&#45;&gt;Node31 -->
<g id="edge52" class="edge"><title>Node33&#45;&gt;Node31</title>
<path fill="none" stroke="midnightblue" d="M1624.57,-56.324C1611,-47.9002 1590.17,-34.9709 1574.23,-25.0741"/>
<polygon fill="midnightblue" stroke="midnightblue" points="1575.84,-21.9544 1565.5,-19.6545 1572.15,-27.9019 1575.84,-21.9544"/>
</g>
<!-- Node34&#45;&gt;Node8 -->
<g id="edge58" class="edge"><title>Node34&#45;&gt;Node8</title>
<path fill="none" stroke="midnightblue" d="M2051.35,-117.779C2082.53,-102.086 2151.88,-69.4737 2214.55,-56 2526.06,10.9717 2612.58,-40.4319 2930.55,-20 2957.81,-18.2484 2988.67,-15.8084 3011.55,-13.9108"/>
<polygon fill="midnightblue" stroke="midnightblue" points="3012.11,-17.3768 3021.78,-13.0549 3011.52,-10.4012 3012.11,-17.3768"/>
</g>
<!-- Node34&#45;&gt;Node15 -->
<g id="edge62" class="edge"><title>Node34&#45;&gt;Node15</title>
<path fill="none" stroke="midnightblue" d="M2039.22,-117.873C2046.44,-103.189 2058,-73.2578 2042.55,-56 2017.85,-28.3974 1761.97,-15.8038 1670.69,-12.1654"/>
<polygon fill="midnightblue" stroke="midnightblue" points="1670.77,-8.66618 1660.64,-11.775 1670.5,-15.6609 1670.77,-8.66618"/>
</g>
<!-- Node34&#45;&gt;Node16 -->
<g id="edge60" class="edge"><title>Node34&#45;&gt;Node16</title>
<path fill="none" stroke="midnightblue" d="M2091.18,-120.741C2207.33,-108.927 2470.44,-82.1664 2575.25,-71.5058"/>
<polygon fill="midnightblue" stroke="midnightblue" points="2575.88,-74.9596 2585.48,-70.4656 2575.18,-67.9955 2575.88,-74.9596"/>
</g>
<!-- Node34&#45;&gt;Node20 -->
<g id="edge61" class="edge"><title>Node34&#45;&gt;Node20</title>
<path fill="none" stroke="midnightblue" d="M2065.79,-117.975C2104.92,-107.295 2171.94,-89.0013 2214.16,-77.4784"/>
<polygon fill="midnightblue" stroke="midnightblue" points="2215.08,-80.8547 2223.81,-74.845 2213.24,-74.1017 2215.08,-80.8547"/>
</g>
<!-- Node34&#45;&gt;Node23 -->
<g id="edge57" class="edge"><title>Node34&#45;&gt;Node23</title>
<path fill="none" stroke="midnightblue" d="M1977.92,-119.786C1951.68,-116.925 1920.07,-113.831 1891.55,-112 1564.43,-90.9887 505.149,-71.6348 281.328,-67.719"/>
<polygon fill="midnightblue" stroke="midnightblue" points="281.367,-64.2192 271.308,-67.5442 281.245,-71.2182 281.367,-64.2192"/>
</g>
<!-- Node34&#45;&gt;Node24 -->
<g id="edge56" class="edge"><title>Node34&#45;&gt;Node24</title>
<path fill="none" stroke="midnightblue" d="M2045.09,-117.776C2064.75,-102.078 2109,-69.4578 2152.55,-56 2284.05,-15.3631 2713.09,-11.2307 2848.92,-10.9599"/>
<polygon fill="midnightblue" stroke="midnightblue" points="2849.3,-14.4595 2859.3,-10.9458 2849.29,-7.45951 2849.3,-14.4595"/>
</g>
<!-- Node35 -->
<g id="node36" class="node"><title>Node35</title>
<polygon fill="white" stroke="#bfbfbf" points="1977.55,-56.5 1977.55,-75.5 2033.55,-75.5 2033.55,-56.5 1977.55,-56.5"/>
<text text-anchor="middle" x="2005.55" y="-63.5" font-family="Helvetica,sans-Serif" font-size="10.00">cxxabi.h</text>
</g>
<!-- Node34&#45;&gt;Node35 -->
<g id="edge59" class="edge"><title>Node34&#45;&gt;Node35</title>
<path fill="none" stroke="midnightblue" d="M2030.4,-117.975C2026.18,-109.315 2019.52,-95.6486 2014.15,-84.6453"/>
<polygon fill="midnightblue" stroke="midnightblue" points="2017.23,-82.9648 2009.7,-75.5091 2010.94,-86.0317 2017.23,-82.9648"/>
</g>
<!-- Node43&#45;&gt;Node13 -->
<g id="edge83" class="edge"><title>Node43&#45;&gt;Node13</title>
<path fill="none" stroke="midnightblue" d="M1469.09,-192.705C1708.73,-186.655 3233.8,-147.978 3256.55,-143 3259.22,-142.416 3261.95,-141.624 3264.63,-140.711"/>
<polygon fill="midnightblue" stroke="midnightblue" points="3265.99,-143.937 3274.02,-137.022 3263.43,-137.422 3265.99,-143.937"/>
</g>
<!-- Node43&#45;&gt;Node14 -->
<g id="edge84" class="edge"><title>Node43&#45;&gt;Node14</title>
<path fill="none" stroke="midnightblue" d="M1469.53,-192.98C1618.46,-190.392 2245.08,-177.609 2437.55,-143 2441.82,-142.233 2446.24,-141.184 2450.58,-139.997"/>
<polygon fill="midnightblue" stroke="midnightblue" points="2451.86,-143.267 2460.44,-137.049 2449.86,-136.56 2451.86,-143.267"/>
</g>
<!-- Node43&#45;&gt;Node16 -->
<g id="edge81" class="edge"><title>Node43&#45;&gt;Node16</title>
<path fill="none" stroke="midnightblue" d="M1469.32,-191.856C1564.85,-186.747 1857.83,-169.852 2099.55,-143 2276.4,-123.355 2485.59,-89.533 2575.21,-74.5367"/>
<polygon fill="midnightblue" stroke="midnightblue" points="2576,-77.9531 2585.28,-72.846 2574.84,-71.0497 2576,-77.9531"/>
</g>
<!-- Node43&#45;&gt;Node21 -->
<g id="edge85" class="edge"><title>Node43&#45;&gt;Node21</title>
<path fill="none" stroke="midnightblue" d="M1405.94,-191.049C1375.03,-186.778 1329.5,-175.07 1307.55,-143 1299.77,-131.63 1302.14,-124.671 1307.55,-112 1312.7,-99.9469 1322.83,-89.5764 1332.38,-81.8389"/>
<polygon fill="midnightblue" stroke="midnightblue" points="1334.59,-84.5532 1340.47,-75.7409 1330.38,-78.9619 1334.59,-84.5532"/>
</g>
<!-- Node44 -->
<g id="node45" class="node"><title>Node44</title>
<polygon fill="white" stroke="#bfbfbf" points="1487.55,-118 1487.55,-137 1545.55,-137 1545.55,-118 1487.55,-118"/>
<text text-anchor="middle" x="1516.55" y="-125" font-family="Helvetica,sans-Serif" font-size="10.00">Rtypes.h</text>
</g>
<!-- Node43&#45;&gt;Node44 -->
<g id="edge76" class="edge"><title>Node43&#45;&gt;Node44</title>
<path fill="none" stroke="midnightblue" d="M1448.21,-184.734C1461,-174.208 1482.67,-156.379 1498.18,-143.617"/>
<polygon fill="midnightblue" stroke="midnightblue" points="1500.57,-146.184 1506.07,-137.127 1496.12,-140.778 1500.57,-146.184"/>
</g>
<!-- Node45 -->
<g id="node46" class="node"><title>Node45</title>
<g id="a_node46"><a xlink:href="base_2std__ext_2_time_8h.html" target="_top" xlink:title="base/std_ext/time.h">
<polygon fill="white" stroke="black" points="1034.55,-118 1034.55,-137 1146.55,-137 1146.55,-118 1034.55,-118"/>
<text text-anchor="middle" x="1090.55" y="-125" font-family="Helvetica,sans-Serif" font-size="10.00">base/std_ext/time.h</text>
</a>
</g>
</g>
<!-- Node43&#45;&gt;Node45 -->
<g id="edge77" class="edge"><title>Node43&#45;&gt;Node45</title>
<path fill="none" stroke="midnightblue" d="M1405.84,-187.559C1346.88,-176.514 1219.7,-152.693 1146.16,-138.916"/>
<polygon fill="midnightblue" stroke="midnightblue" points="1146.62,-135.442 1136.15,-137.041 1145.33,-142.323 1146.62,-135.442"/>
</g>
<!-- Node47 -->
<g id="node48" class="node"><title>Node47</title>
<polygon fill="white" stroke="#bfbfbf" points="993.553,-56.5 993.553,-75.5 1037.55,-75.5 1037.55,-56.5 993.553,-56.5"/>
<text text-anchor="middle" x="1015.55" y="-63.5" font-family="Helvetica,sans-Serif" font-size="10.00">ctime</text>
</g>
<!-- Node43&#45;&gt;Node47 -->
<g id="edge87" class="edge"><title>Node43&#45;&gt;Node47</title>
<path fill="none" stroke="midnightblue" d="M1406.01,-191.83C1314.31,-186.674 1052.52,-169.728 1025.55,-143 1010.67,-128.245 1010.31,-102.878 1012.24,-85.5425"/>
<polygon fill="midnightblue" stroke="midnightblue" points="1015.73,-85.9038 1013.71,-75.5023 1008.8,-84.8901 1015.73,-85.9038"/>
</g>
<!-- Node48 -->
<g id="node49" class="node"><title>Node48</title>
<polygon fill="white" stroke="#bfbfbf" points="1390.05,-118 1390.05,-137 1431.05,-137 1431.05,-118 1390.05,-118"/>
<text text-anchor="middle" x="1410.55" y="-125" font-family="Helvetica,sans-Serif" font-size="10.00">tuple</text>
</g>
<!-- Node43&#45;&gt;Node48 -->
<g id="edge82" class="edge"><title>Node43&#45;&gt;Node48</title>
<path fill="none" stroke="midnightblue" d="M1433.91,-184.734C1429.86,-174.988 1423.21,-158.981 1418.04,-146.532"/>
<polygon fill="midnightblue" stroke="midnightblue" points="1421.2,-145.02 1414.14,-137.127 1414.74,-147.705 1421.2,-145.02"/>
</g>
<!-- Node49 -->
<g id="node50" class="node"><title>Node49</title>
<polygon fill="white" stroke="#bfbfbf" points="1317.05,-118 1317.05,-137 1372.05,-137 1372.05,-118 1317.05,-118"/>
<text text-anchor="middle" x="1344.55" y="-125" font-family="Helvetica,sans-Serif" font-size="10.00">iomanip</text>
</g>
<!-- Node43&#45;&gt;Node49 -->
<g id="edge86" class="edge"><title>Node43&#45;&gt;Node49</title>
<path fill="none" stroke="midnightblue" d="M1425.01,-184.734C1409.67,-174.013 1383.49,-155.716 1365.18,-142.914"/>
<polygon fill="midnightblue" stroke="midnightblue" points="1367.1,-139.987 1356.9,-137.127 1363.09,-145.725 1367.1,-139.987"/>
</g>
<!-- Node45&#45;&gt;Node33 -->
<g id="edge78" class="edge"><title>Node45&#45;&gt;Node33</title>
<path fill="none" stroke="midnightblue" d="M1146.56,-118.638C1163.28,-116.385 1181.64,-113.999 1198.55,-112 1329.67,-96.4973 1483.15,-81.5193 1569.8,-73.3546"/>
<polygon fill="midnightblue" stroke="midnightblue" points="1570.14,-76.8378 1579.77,-72.4172 1569.49,-69.8685 1570.14,-76.8378"/>
</g>
<!-- Node46 -->
<g id="node47" class="node"><title>Node46</title>
<polygon fill="white" stroke="#bfbfbf" points="1066.05,-56.5 1066.05,-75.5 1115.05,-75.5 1115.05,-56.5 1066.05,-56.5"/>
<text text-anchor="middle" x="1090.55" y="-63.5" font-family="Helvetica,sans-Serif" font-size="10.00">cstring</text>
</g>
<!-- Node45&#45;&gt;Node46 -->
<g id="edge79" class="edge"><title>Node45&#45;&gt;Node46</title>
<path fill="none" stroke="midnightblue" d="M1090.55,-117.975C1090.55,-109.58 1090.55,-96.4806 1090.55,-85.6631"/>
<polygon fill="midnightblue" stroke="midnightblue" points="1094.05,-85.5091 1090.55,-75.5091 1087.05,-85.5091 1094.05,-85.5091"/>
</g>
<!-- Node45&#45;&gt;Node47 -->
<g id="edge80" class="edge"><title>Node45&#45;&gt;Node47</title>
<path fill="none" stroke="midnightblue" d="M1079.81,-117.975C1068,-108.608 1048.81,-93.3839 1034.47,-82.0081"/>
<polygon fill="midnightblue" stroke="midnightblue" points="1036.29,-78.9822 1026.28,-75.5091 1031.94,-84.4661 1036.29,-78.9822"/>
</g>
<!-- Node50&#45;&gt;Node15 -->
<g id="edge93" class="edge"><title>Node50&#45;&gt;Node15</title>
<path fill="none" stroke="midnightblue" d="M924.983,-260.113C760.487,-258.485 262.999,-250.251 203.553,-210 146.249,-171.2 128.457,-101.554 180.553,-56 239.457,-4.49269 1510.71,-27.954 1588.55,-20 1594.26,-19.4172 1600.29,-18.5502 1606.11,-17.5808"/>
<polygon fill="midnightblue" stroke="midnightblue" points="1607.03,-20.9722 1616.26,-15.7646 1605.79,-14.0817 1607.03,-20.9722"/>
</g>
<!-- Node50&#45;&gt;Node20 -->
<g id="edge94" class="edge"><title>Node50&#45;&gt;Node20</title>
<path fill="none" stroke="midnightblue" d="M995.445,-251.974C1059.35,-221.587 1274.33,-119.961 1307.55,-112 1329.96,-106.631 2039.28,-76.0941 2213.97,-68.6407"/>
<polygon fill="midnightblue" stroke="midnightblue" points="2214.16,-72.1362 2224,-68.2133 2213.86,-65.1425 2214.16,-72.1362"/>
</g>
<!-- Node50&#45;&gt;Node25 -->
<g id="edge95" class="edge"><title>Node50&#45;&gt;Node25</title>
<path fill="none" stroke="midnightblue" d="M1030.23,-257.321C1221.81,-245.758 1878.04,-206.153 2025.14,-197.275"/>
<polygon fill="midnightblue" stroke="midnightblue" points="2025.44,-200.764 2035.21,-196.668 2025.01,-193.776 2025.44,-200.764"/>
</g>
<!-- Node50&#45;&gt;Node31 -->
<g id="edge97" class="edge"><title>Node50&#45;&gt;Node31</title>
<path fill="none" stroke="midnightblue" d="M924.816,-259.657C730.805,-256.3 66.3245,-242.465 35.5528,-210 -11.5314,-160.324 -12.1213,-105.11 35.5528,-56 62.0969,-28.6563 1281.04,-13.9605 1513.48,-11.4043"/>
<polygon fill="midnightblue" stroke="midnightblue" points="1513.53,-14.9041 1523.49,-11.295 1513.46,-7.90447 1513.53,-14.9041"/>
</g>
<!-- Node50&#45;&gt;Node42 -->
<g id="edge96" class="edge"><title>Node50&#45;&gt;Node42</title>
<path fill="none" stroke="midnightblue" d="M924.68,-259.217C808.122,-254.717 522.153,-234.433 304.553,-143 303.991,-142.764 303.429,-142.512 302.869,-142.245"/>
<polygon fill="midnightblue" stroke="midnightblue" points="304.557,-139.177 294.171,-137.086 300.986,-145.198 304.557,-139.177"/>
</g>
<!-- Node51&#45;&gt;Node12 -->
<g id="edge109" class="edge"><title>Node51&#45;&gt;Node12</title>
<path fill="none" stroke="midnightblue" d="M3526.68,-252.052C3638.01,-236.869 3849.09,-201.029 3893.55,-143 3917.07,-112.307 3918.88,-85.2165 3893.55,-56 3857.54,-14.4551 3686.67,-10.3422 3613.23,-10.5434"/>
<polygon fill="midnightblue" stroke="midnightblue" points="3613.11,-7.04388 3603.13,-10.6004 3613.15,-14.0438 3613.11,-7.04388"/>
</g>
<!-- Node51&#45;&gt;Node28 -->
<g id="edge100" class="edge"><title>Node51&#45;&gt;Node28</title>
<path fill="none" stroke="midnightblue" d="M3388.13,-255.804C3270.31,-247.661 3023.68,-229.877 2815.55,-210 2790.73,-207.63 2763.27,-204.6 2740.09,-201.924"/>
<polygon fill="midnightblue" stroke="midnightblue" points="2740.44,-198.441 2730.1,-200.762 2739.63,-205.394 2740.44,-198.441"/>
</g>
<!-- Node52 -->
<g id="node53" class="node"><title>Node52</title>
<g id="a_node53"><a xlink:href="printable_8h.html" target="_top" xlink:title="base/std_ext/printable.h">
<polygon fill="white" stroke="black" points="3333.55,-118 3333.55,-137 3465.55,-137 3465.55,-118 3333.55,-118"/>
<text text-anchor="middle" x="3399.55" y="-125" font-family="Helvetica,sans-Serif" font-size="10.00">base/std_ext/printable.h</text>
</a>
</g>
</g>
<!-- Node51&#45;&gt;Node52 -->
<g id="edge101" class="edge"><title>Node51&#45;&gt;Node52</title>
<path fill="none" stroke="midnightblue" d="M3453.75,-251.839C3444.37,-230.486 3419.97,-174.977 3407.36,-146.271"/>
<polygon fill="midnightblue" stroke="midnightblue" points="3410.52,-144.768 3403.3,-137.021 3404.12,-147.584 3410.52,-144.768"/>
</g>
<!-- Node52&#45;&gt;Node9 -->
<g id="edge108" class="edge"><title>Node52&#45;&gt;Node9</title>
<path fill="none" stroke="midnightblue" d="M3366.46,-117.975C3324.33,-107.124 3251.68,-88.4115 3207.1,-76.9283"/>
<polygon fill="midnightblue" stroke="midnightblue" points="3207.78,-73.4886 3197.22,-74.3836 3206.03,-80.2674 3207.78,-73.4886"/>
</g>
<!-- Node52&#45;&gt;Node16 -->
<g id="edge107" class="edge"><title>Node52&#45;&gt;Node16</title>
<path fill="none" stroke="midnightblue" d="M3359.86,-117.96C3348.21,-115.715 3335.41,-113.504 3323.55,-112 3075.5,-80.5335 2775.33,-70.6357 2663.94,-67.9175"/>
<polygon fill="midnightblue" stroke="midnightblue" points="2663.84,-64.4142 2653.76,-67.6763 2663.68,-71.4122 2663.84,-64.4142"/>
</g>
<!-- Node53 -->
<g id="node54" class="node"><title>Node53</title>
<g id="a_node54"><a xlink:href="container_8h.html" target="_top" xlink:title="container.h">
<polygon fill="white" stroke="black" points="3215.55,-56.5 3215.55,-75.5 3285.55,-75.5 3285.55,-56.5 3215.55,-56.5"/>
<text text-anchor="middle" x="3250.55" y="-63.5" font-family="Helvetica,sans-Serif" font-size="10.00">container.h</text>
</a>
</g>
</g>
<!-- Node52&#45;&gt;Node53 -->
<g id="edge102" class="edge"><title>Node52&#45;&gt;Node53</title>
<path fill="none" stroke="midnightblue" d="M3378.2,-117.975C3352.87,-107.857 3310.41,-90.9046 3281.48,-79.3507"/>
<polygon fill="midnightblue" stroke="midnightblue" points="3282.45,-75.9673 3271.86,-75.5091 3279.85,-82.4681 3282.45,-75.9673"/>
</g>
<!-- Node53&#45;&gt;Node12 -->
<g id="edge103" class="edge"><title>Node53&#45;&gt;Node12</title>
<path fill="none" stroke="midnightblue" d="M3285.6,-58.4648C3290.29,-57.6193 3295.04,-56.7778 3299.55,-56 3388.3,-40.7207 3493.16,-24.3042 3545.81,-16.1746"/>
<polygon fill="midnightblue" stroke="midnightblue" points="3546.57,-19.598 3555.92,-14.6155 3545.51,-12.6797 3546.57,-19.598"/>
</g>
<!-- Node53&#45;&gt;Node15 -->
<g id="edge106" class="edge"><title>Node53&#45;&gt;Node15</title>
<path fill="none" stroke="midnightblue" d="M3215.27,-57.3584C3212,-56.8264 3208.72,-56.3595 3205.55,-56 2892.87,-20.4992 1866.41,-12.416 1670.89,-11.185"/>
<polygon fill="midnightblue" stroke="midnightblue" points="1670.72,-7.68401 1660.7,-11.1224 1670.68,-14.6839 1670.72,-7.68401"/>
</g>
<!-- Node53&#45;&gt;Node24 -->
<g id="edge104" class="edge"><title>Node53&#45;&gt;Node24</title>
<path fill="none" stroke="midnightblue" d="M3215.21,-57.7397C3211.95,-57.1277 3208.69,-56.5381 3205.55,-56 3107.96,-39.2827 2992.61,-23.9152 2932.21,-16.2024"/>
<polygon fill="midnightblue" stroke="midnightblue" points="2932.3,-12.686 2921.94,-14.8972 2931.42,-19.6301 2932.3,-12.686"/>
</g>
<!-- Node54 -->
<g id="node55" class="node"><title>Node54</title>
<polygon fill="white" stroke="#bfbfbf" points="3222.55,-0.5 3222.55,-19.5 3278.55,-19.5 3278.55,-0.5 3222.55,-0.5"/>
<text text-anchor="middle" x="3250.55" y="-7.5" font-family="Helvetica,sans-Serif" font-size="10.00">numeric</text>
</g>
<!-- Node53&#45;&gt;Node54 -->
<g id="edge105" class="edge"><title>Node53&#45;&gt;Node54</title>
<path fill="none" stroke="midnightblue" d="M3250.55,-56.083C3250.55,-49.0059 3250.55,-38.8611 3250.55,-29.9865"/>
<polygon fill="midnightblue" stroke="midnightblue" points="3254.05,-29.751 3250.55,-19.7511 3247.05,-29.7511 3254.05,-29.751"/>
</g>
<!-- Node55&#45;&gt;Node20 -->
<g id="edge117" class="edge"><title>Node55&#45;&gt;Node20</title>
<path fill="none" stroke="midnightblue" d="M1103.8,-315.994C1166.31,-307.629 1282.58,-291.824 1381.55,-277 1567.63,-249.129 1614.37,-243.292 1799.55,-210 1800.72,-209.79 2134.45,-143.458 2135.55,-143 2158.31,-133.515 2160.92,-125.489 2181.55,-112 2197.79,-101.389 2216.3,-89.6681 2230.35,-80.8493"/>
<polygon fill="midnightblue" stroke="midnightblue" points="2232.25,-83.7876 2238.87,-75.5138 2228.54,-77.8548 2232.25,-83.7876"/>
</g>
<!-- Node55&#45;&gt;Node21 -->
<g id="edge116" class="edge"><title>Node55&#45;&gt;Node21</title>
<path fill="none" stroke="midnightblue" d="M1057.47,-313.134C1055.41,-298.489 1050.06,-268.617 1038.55,-246 1006.67,-183.355 907.711,-164.407 954.553,-112 979.623,-83.9512 1245.53,-71.2501 1329.37,-67.9225"/>
<polygon fill="midnightblue" stroke="midnightblue" points="1329.67,-71.4138 1339.53,-67.5305 1329.4,-64.419 1329.67,-71.4138"/>
</g>
<!-- Node55&#45;&gt;Node23 -->
<g id="edge118" class="edge"><title>Node55&#45;&gt;Node23</title>
<path fill="none" stroke="midnightblue" d="M1013.49,-321.977C859.609,-320.992 357.949,-310.024 239.553,-210 205.526,-181.253 208.905,-155.487 218.553,-112 220.677,-102.426 225.059,-92.4756 229.274,-84.3735"/>
<polygon fill="midnightblue" stroke="midnightblue" points="232.375,-85.9989 234.169,-75.557 226.255,-82.6012 232.375,-85.9989"/>
</g>
<!-- Node55&#45;&gt;Node25 -->
<g id="edge115" class="edge"><title>Node55&#45;&gt;Node25</title>
<path fill="none" stroke="midnightblue" d="M1103.77,-321.098C1247.25,-317.964 1691.03,-306.11 1831.55,-277 1904.79,-261.828 1986.24,-227.218 2027.47,-208.348"/>
<polygon fill="midnightblue" stroke="midnightblue" points="2028.98,-211.507 2036.58,-204.131 2026.04,-205.154 2028.98,-211.507"/>
</g>
<!-- Node55&#45;&gt;Node50 -->
<g id="edge114" class="edge"><title>Node55&#45;&gt;Node50</title>
<path fill="none" stroke="midnightblue" d="M1046.95,-313.475C1034.08,-304.02 1013.08,-288.596 997.547,-277.187"/>
<polygon fill="midnightblue" stroke="midnightblue" points="999.268,-274.108 989.137,-271.009 995.124,-279.75 999.268,-274.108"/>
</g>
<!-- Node56&#45;&gt;Node2 -->
<g id="edge124" class="edge"><title>Node56&#45;&gt;Node2</title>
<path fill="none" stroke="midnightblue" d="M2636.88,-437.385C2561.32,-429.126 2438.87,-415.087 2333.55,-400 2324.43,-398.692 2314.78,-397.198 2305.36,-395.676"/>
<polygon fill="midnightblue" stroke="midnightblue" points="2305.7,-392.185 2295.27,-394.022 2304.57,-399.093 2305.7,-392.185"/>
</g>
<!-- Node56&#45;&gt;Node3 -->
<g id="edge125" class="edge"><title>Node56&#45;&gt;Node3</title>
<path fill="none" stroke="midnightblue" d="M2715.01,-436.464C2721.75,-427.48 2732.59,-412.881 2741.55,-400 2789.1,-331.702 2842.8,-248.38 2865.5,-212.869"/>
<polygon fill="midnightblue" stroke="midnightblue" points="2868.62,-214.487 2871.04,-204.174 2862.71,-210.722 2868.62,-214.487"/>
</g>
<!-- Node56&#45;&gt;Node11 -->
<g id="edge131" class="edge"><title>Node56&#45;&gt;Node11</title>
<path fill="none" stroke="midnightblue" d="M2780.47,-444.748C2879.14,-443.012 3061.46,-434.812 3212.55,-400 3483.75,-337.517 3641.02,-382.026 3783.55,-143 3790.61,-131.166 3791.37,-123.346 3783.55,-112 3773.38,-97.2382 3728.06,-82.975 3696.65,-74.596"/>
<polygon fill="midnightblue" stroke="midnightblue" points="3697.15,-71.1118 3686.59,-71.9877 3695.39,-77.8874 3697.15,-71.1118"/>
</g>
<!-- Node56&#45;&gt;Node12 -->
<g id="edge129" class="edge"><title>Node56&#45;&gt;Node12</title>
<path fill="none" stroke="midnightblue" d="M2780.39,-442.032C3051.01,-430.385 3993.55,-385.411 3993.55,-324 3993.55,-324 3993.55,-324 3993.55,-126.5 3993.55,-93.4008 3995.32,-76.781 3969.55,-56 3915.18,-12.1417 3697.84,-9.6679 3613.37,-10.4237"/>
<polygon fill="midnightblue" stroke="midnightblue" points="3613.24,-6.92479 3603.28,-10.5354 3613.32,-13.9244 3613.24,-6.92479"/>
</g>
<!-- Node56&#45;&gt;Node13 -->
<g id="edge130" class="edge"><title>Node56&#45;&gt;Node13</title>
<path fill="none" stroke="midnightblue" d="M2780.19,-439.156C2949.57,-424.38 3360.55,-382.499 3360.55,-324 3360.55,-324 3360.55,-324 3360.55,-260.5 3360.55,-214.295 3326.66,-168.483 3306.04,-144.886"/>
<polygon fill="midnightblue" stroke="midnightblue" points="3308.44,-142.313 3299.14,-137.238 3303.24,-147.005 3308.44,-142.313"/>
</g>
<!-- Node56&#45;&gt;Node20 -->
<g id="edge126" class="edge"><title>Node56&#45;&gt;Node20</title>
<path fill="none" stroke="midnightblue" d="M2705.68,-436.259C2689.48,-387.515 2607.93,-150.102 2544.55,-112 2502.53,-86.7362 2360.41,-74.1091 2291.15,-69.3347"/>
<polygon fill="midnightblue" stroke="midnightblue" points="2291.29,-65.8365 2281.08,-68.6608 2290.82,-72.8209 2291.29,-65.8365"/>
</g>
<!-- Node56&#45;&gt;Node21 -->
<g id="edge127" class="edge"><title>Node56&#45;&gt;Node21</title>
<path fill="none" stroke="midnightblue" d="M2691.66,-436.435C2605.11,-392.612 2213.11,-194.905 2154.55,-179 1967.77,-128.27 1908.78,-188.072 1720.55,-143 1685.08,-134.505 1679.7,-121.752 1644.55,-112 1548.73,-85.4161 1430.45,-73.2106 1379.66,-68.9116"/>
<polygon fill="midnightblue" stroke="midnightblue" points="1379.85,-65.416 1369.6,-68.0904 1379.28,-72.3928 1379.85,-65.416"/>
</g>
<!-- Node56&#45;&gt;Node25 -->
<g id="edge128" class="edge"><title>Node56&#45;&gt;Node25</title>
<path fill="none" stroke="midnightblue" d="M2646.8,-436.452C2538.28,-419.389 2308.92,-374.087 2140.55,-277 2110.84,-259.869 2083.36,-230.485 2067.8,-212.073"/>
<polygon fill="midnightblue" stroke="midnightblue" points="2070.22,-209.51 2061.16,-204.018 2064.82,-213.961 2070.22,-209.51"/>
</g>
<!-- Node57 -->
<g id="node58" class="node"><title>Node57</title>
<g id="a_node58"><a xlink:href="_unpacker_8h.html" target="_top" xlink:title="Unpacker.h">
<polygon fill="white" stroke="black" points="2376.05,-185 2376.05,-204 2447.05,-204 2447.05,-185 2376.05,-185"/>
<text text-anchor="middle" x="2411.55" y="-192" font-family="Helvetica,sans-Serif" font-size="10.00">Unpacker.h</text>
</a>
</g>
</g>
<!-- Node56&#45;&gt;Node57 -->
<g id="edge120" class="edge"><title>Node56&#45;&gt;Node57</title>
<path fill="none" stroke="midnightblue" d="M2698.33,-436.412C2654.95,-399.973 2485.8,-257.873 2429.73,-210.766"/>
<polygon fill="midnightblue" stroke="midnightblue" points="2431.64,-207.805 2421.73,-204.052 2427.14,-213.164 2431.64,-207.805"/>
</g>
<!-- Node57&#45;&gt;Node14 -->
<g id="edge123" class="edge"><title>Node57&#45;&gt;Node14</title>
<path fill="none" stroke="midnightblue" d="M2421.26,-184.734C2432.81,-174.305 2452.31,-156.709 2466.41,-143.973"/>
<polygon fill="midnightblue" stroke="midnightblue" points="2468.92,-146.426 2474,-137.127 2464.23,-141.23 2468.92,-146.426"/>
</g>
<!-- Node57&#45;&gt;Node15 -->
<g id="edge121" class="edge"><title>Node57&#45;&gt;Node15</title>
<path fill="none" stroke="midnightblue" d="M2376.03,-188.949C2350.81,-185.833 2316.14,-181.776 2285.55,-179 2225.56,-173.555 1794,-177.409 1744.55,-143 1709.77,-118.798 1732.86,-88.3988 1705.55,-56 1694.62,-43.03 1679.04,-32.2634 1665.66,-24.5169"/>
<polygon fill="midnightblue" stroke="midnightblue" points="1667.28,-21.4113 1656.83,-19.6464 1663.9,-27.5408 1667.28,-21.4113"/>
</g>
<!-- Node57&#45;&gt;Node20 -->
<g id="edge122" class="edge"><title>Node57&#45;&gt;Node20</title>
<path fill="none" stroke="midnightblue" d="M2408.29,-184.643C2401.8,-168.183 2385.81,-132.679 2361.55,-112 2341.29,-94.7217 2313.48,-83.384 2291.02,-76.4107"/>
<polygon fill="midnightblue" stroke="midnightblue" points="2291.7,-72.9643 2281.12,-73.5083 2289.73,-79.6814 2291.7,-72.9643"/>
</g>
<!-- Node58&#45;&gt;Node2 -->
<g id="edge134" class="edge"><title>Node58&#45;&gt;Node2</title>
<path fill="none" stroke="midnightblue" d="M2365.64,-436.475C2342.1,-426.401 2302.74,-409.553 2275.76,-398.002"/>
<polygon fill="midnightblue" stroke="midnightblue" points="2277,-394.727 2266.43,-394.009 2274.25,-401.162 2277,-394.727"/>
</g>
<!-- Node58&#45;&gt;Node3 -->
<g id="edge135" class="edge"><title>Node58&#45;&gt;Node3</title>
<path fill="none" stroke="midnightblue" d="M2434.33,-436.43C2468.26,-429.366 2513.97,-417.613 2551.55,-400 2612.51,-371.43 2618.89,-349.352 2675.55,-313 2737.81,-273.06 2813.77,-230.182 2852.02,-208.973"/>
<polygon fill="midnightblue" stroke="midnightblue" points="2853.85,-211.964 2860.91,-204.063 2850.46,-205.838 2853.85,-211.964"/>
</g>
<!-- Node58&#45;&gt;Node12 -->
<g id="edge146" class="edge"><title>Node58&#45;&gt;Node12</title>
<path fill="none" stroke="midnightblue" d="M2460.63,-436.488C2644.74,-415.083 3132.96,-355.097 3535.55,-277 3711.77,-242.817 3830.27,-300.405 3916.55,-143 3923.13,-131.009 3923.28,-65.6209 3914.55,-56 3874.84,-12.1955 3690.06,-9.47092 3613.21,-10.2951"/>
<polygon fill="midnightblue" stroke="midnightblue" points="3613.06,-6.79665 3603.11,-10.431 3613.16,-13.796 3613.06,-6.79665"/>
</g>
<!-- Node58&#45;&gt;Node13 -->
<g id="edge147" class="edge"><title>Node58&#45;&gt;Node13</title>
<path fill="none" stroke="midnightblue" d="M2434.79,-436.45C2476.87,-428.621 2538.79,-415.856 2591.55,-400 2858.91,-319.656 3168.82,-183.414 3262.4,-141.293"/>
<polygon fill="midnightblue" stroke="midnightblue" points="3264.08,-144.374 3271.76,-137.07 3261.2,-137.994 3264.08,-144.374"/>
</g>
<!-- Node58&#45;&gt;Node20 -->
<g id="edge143" class="edge"><title>Node58&#45;&gt;Node20</title>
<path fill="none" stroke="midnightblue" d="M2384.37,-436.282C2378.74,-396.77 2352.32,-231.268 2289.55,-112 2283.97,-101.394 2275.63,-90.9643 2268.28,-82.8208"/>
<polygon fill="midnightblue" stroke="midnightblue" points="2270.8,-80.3952 2261.4,-75.5174 2265.71,-85.1957 2270.8,-80.3952"/>
</g>
<!-- Node58&#45;&gt;Node21 -->
<g id="edge144" class="edge"><title>Node58&#45;&gt;Node21</title>
<path fill="none" stroke="midnightblue" d="M2304.87,-441.472C2232.63,-436.724 2124.41,-425.659 2033.55,-400 1771.95,-326.125 1708.6,-287.805 1478.55,-143 1459.81,-131.205 1458.08,-124.121 1439.55,-112 1420.05,-99.2402 1396.54,-87.015 1379.19,-78.5357"/>
<polygon fill="midnightblue" stroke="midnightblue" points="1380.3,-75.1834 1369.77,-74.0004 1377.26,-81.4909 1380.3,-75.1834"/>
</g>
<!-- Node58&#45;&gt;Node25 -->
<g id="edge145" class="edge"><title>Node58&#45;&gt;Node25</title>
<path fill="none" stroke="midnightblue" d="M2304.9,-436.914C2264.79,-430.623 2216.48,-419.518 2176.55,-400 2107.38,-366.188 2078.9,-350.045 2054.55,-277 2047.72,-256.496 2049.04,-231.445 2051.22,-214.572"/>
<polygon fill="midnightblue" stroke="midnightblue" points="2054.73,-214.767 2052.77,-204.355 2047.81,-213.714 2054.73,-214.767"/>
</g>
<!-- Node58&#45;&gt;Node44 -->
<g id="edge142" class="edge"><title>Node58&#45;&gt;Node44</title>
<path fill="none" stroke="midnightblue" d="M2304.85,-437.036C2250.76,-430.357 2178.39,-418.813 2116.55,-400 1996.8,-363.566 1642.97,-190.841 1543.08,-141.619"/>
<polygon fill="midnightblue" stroke="midnightblue" points="1544.48,-138.407 1533.97,-137.122 1541.38,-144.685 1544.48,-138.407"/>
</g>
<!-- Node58&#45;&gt;Node57 -->
<g id="edge133" class="edge"><title>Node58&#45;&gt;Node57</title>
<path fill="none" stroke="midnightblue" d="M2388.99,-436.195C2392.33,-427.238 2397.21,-412.879 2399.55,-400 2411.86,-332.435 2412.43,-250.444 2411.96,-214.233"/>
<polygon fill="midnightblue" stroke="midnightblue" points="2415.46,-214.099 2411.79,-204.161 2408.46,-214.219 2415.46,-214.099"/>
</g>
<!-- Node59 -->
<g id="node60" class="node"><title>Node59</title>
<g id="a_node60"><a xlink:href="_wrap_t_tree_8h.html" target="_top" xlink:title="base/WrapTTree.h">
<polygon fill="white" stroke="black" points="3035.55,-118 3035.55,-137 3135.55,-137 3135.55,-118 3035.55,-118"/>
<text text-anchor="middle" x="3085.55" y="-125" font-family="Helvetica,sans-Serif" font-size="10.00">base/WrapTTree.h</text>
</a>
</g>
</g>
<!-- Node58&#45;&gt;Node59 -->
<g id="edge136" class="edge"><title>Node58&#45;&gt;Node59</title>
<path fill="none" stroke="midnightblue" d="M2401.03,-436.308C2453.99,-406.411 2632.55,-304.451 2773.55,-210 2792.83,-197.088 2794.28,-188.256 2815.55,-179 2852.36,-162.985 2957.53,-146.193 3025.23,-136.573"/>
<polygon fill="midnightblue" stroke="midnightblue" points="3025.93,-140.009 3035.34,-135.149 3024.95,-133.077 3025.93,-140.009"/>
</g>
<!-- Node59&#45;&gt;Node12 -->
<g id="edge138" class="edge"><title>Node59&#45;&gt;Node12</title>
<path fill="none" stroke="midnightblue" d="M3117.88,-117.929C3126.51,-115.814 3135.85,-113.676 3144.55,-112 3257.37,-90.2614 3289.06,-103.759 3400.55,-76 3454.86,-62.4776 3515.62,-38.4151 3550.55,-23.6659"/>
<polygon fill="midnightblue" stroke="midnightblue" points="3552.28,-26.7322 3560.11,-19.5895 3549.54,-20.2935 3552.28,-26.7322"/>
</g>
<!-- Node59&#45;&gt;Node15 -->
<g id="edge139" class="edge"><title>Node59&#45;&gt;Node15</title>
<path fill="none" stroke="midnightblue" d="M3044.65,-117.983C2969.4,-102.695 2803.79,-70.8181 2662.55,-56 2273.48,-15.1803 1797.48,-11.2832 1670.78,-10.9966"/>
<polygon fill="midnightblue" stroke="midnightblue" points="1670.61,-7.49641 1660.6,-10.9799 1670.6,-14.4964 1670.61,-7.49641"/>
</g>
<!-- Node59&#45;&gt;Node20 -->
<g id="edge141" class="edge"><title>Node59&#45;&gt;Node20</title>
<path fill="none" stroke="midnightblue" d="M3035.23,-122.074C3000.72,-119.09 2953.88,-115.14 2912.55,-112 2676.69,-94.0757 2393.14,-75.8654 2291.31,-69.4313"/>
<polygon fill="midnightblue" stroke="midnightblue" points="2291.39,-65.9296 2281.19,-68.793 2290.95,-72.9157 2291.39,-65.9296"/>
</g>
<!-- Node59&#45;&gt;Node24 -->
<g id="edge140" class="edge"><title>Node59&#45;&gt;Node24</title>
<path fill="none" stroke="midnightblue" d="M3070.9,-117.819C3037.29,-97.9121 2954.44,-48.8431 2913.8,-24.7695"/>
<polygon fill="midnightblue" stroke="midnightblue" points="2915.5,-21.7093 2905.11,-19.6245 2911.93,-27.7321 2915.5,-21.7093"/>
</g>
<!-- Node60 -->
<g id="node61" class="node"><title>Node60</title>
<polygon fill="white" stroke="#bfbfbf" points="3341.55,-56.5 3341.55,-75.5 3391.55,-75.5 3391.55,-56.5 3341.55,-56.5"/>
<text text-anchor="middle" x="3366.55" y="-63.5" font-family="Helvetica,sans-Serif" font-size="10.00">TTree.h</text>
</g>
<!-- Node59&#45;&gt;Node60 -->
<g id="edge137" class="edge"><title>Node59&#45;&gt;Node60</title>
<path fill="none" stroke="midnightblue" d="M3119.19,-117.946C3127.46,-115.921 3136.31,-113.822 3144.55,-112 3225.49,-94.1036 3246.49,-93.3218 3327.55,-76 3328.81,-75.7305 3330.1,-75.4527 3331.39,-75.1693"/>
<polygon fill="midnightblue" stroke="midnightblue" points="3332.41,-78.5286 3341.4,-72.9301 3330.88,-71.6974 3332.41,-78.5286"/>
</g>
<!-- Node61&#45;&gt;Node15 -->
<g id="edge153" class="edge"><title>Node61&#45;&gt;Node15</title>
<path fill="none" stroke="midnightblue" d="M1293.01,-379.449C1087.11,-367.289 495.918,-328.725 309.553,-277 242.311,-258.337 213.401,-262.609 167.553,-210 138.287,-176.419 141.484,-156.255 146.553,-112 149.461,-86.6153 139.749,-72.1443 159.553,-56 221.106,-5.82205 1509.55,-28.0578 1588.55,-20 1594.26,-19.4183 1600.29,-18.5518 1606.11,-17.5826"/>
<polygon fill="midnightblue" stroke="midnightblue" points="1607.03,-20.974 1616.26,-15.7664 1605.79,-14.0835 1607.03,-20.974"/>
</g>
<!-- Node61&#45;&gt;Node20 -->
<g id="edge154" class="edge"><title>Node61&#45;&gt;Node20</title>
<path fill="none" stroke="midnightblue" d="M1381.63,-374.814C1410.1,-360.566 1469.3,-331.925 1521.55,-313 1681.24,-255.164 1726.51,-257.586 1889.55,-210 1935.04,-196.725 1945.59,-190.524 1991.55,-179 2071.11,-159.05 2099.73,-180.733 2172.55,-143 2187.35,-135.332 2219,-102.969 2237.75,-83.0294"/>
<polygon fill="midnightblue" stroke="midnightblue" points="2240.43,-85.2919 2244.69,-75.5921 2235.31,-80.517 2240.43,-85.2919"/>
</g>
<!-- Node61&#45;&gt;Node21 -->
<g id="edge152" class="edge"><title>Node61&#45;&gt;Node21</title>
<path fill="none" stroke="midnightblue" d="M1347.38,-374.817C1271.22,-335.776 970.03,-175.634 1025.55,-112 1065.13,-66.6436 1259.06,-65.3407 1329.19,-66.4006"/>
<polygon fill="midnightblue" stroke="midnightblue" points="1329.28,-69.9027 1339.34,-66.5846 1329.4,-62.9038 1329.28,-69.9027"/>
</g>
<!-- Node61&#45;&gt;Node26 -->
<g id="edge151" class="edge"><title>Node61&#45;&gt;Node26</title>
<path fill="none" stroke="midnightblue" d="M1397.65,-374.975C1438.47,-364.459 1507.96,-346.562 1552.79,-335.014"/>
<polygon fill="midnightblue" stroke="midnightblue" points="1553.71,-338.393 1562.52,-332.509 1551.96,-331.614 1553.71,-338.393"/>
</g>
<!-- Node64 -->
<g id="node65" class="node"><title>Node64</title>
<polygon fill="white" stroke="#bfbfbf" points="3591.05,-436.5 3591.05,-455.5 3690.05,-455.5 3690.05,-436.5 3591.05,-436.5"/>
<text text-anchor="middle" x="3640.55" y="-443.5" font-family="Helvetica,sans-Serif" font-size="10.00">easylogging++.h</text>
</g>
<!-- Node63&#45;&gt;Node64 -->
<g id="edge161" class="edge"><title>Node63&#45;&gt;Node64</title>
<path fill="none" stroke="midnightblue" d="M2839.87,-499.776C2957.14,-496.12 3296.15,-483.768 3576.55,-456 3578.02,-455.855 3579.5,-455.701 3581,-455.54"/>
<polygon fill="midnightblue" stroke="midnightblue" points="3581.46,-459.01 3590.99,-454.379 3580.65,-452.057 3581.46,-459.01"/>
</g>
<!-- Node65&#45;&gt;Node3 -->
<g id="edge164" class="edge"><title>Node65&#45;&gt;Node3</title>
<path fill="none" stroke="midnightblue" d="M1698.57,-374.718C1839.03,-352.725 2217.63,-293.633 2533.55,-246 2631.77,-231.191 2745.9,-214.489 2814.61,-204.489"/>
<polygon fill="midnightblue" stroke="midnightblue" points="2815.43,-207.906 2824.82,-203.003 2814.42,-200.979 2815.43,-207.906"/>
</g>
<!-- Node65&#45;&gt;Node20 -->
<g id="edge167" class="edge"><title>Node65&#45;&gt;Node20</title>
<path fill="none" stroke="midnightblue" d="M1698.69,-373.273C1762.87,-359.535 1868.95,-330.43 1945.55,-277 1991.9,-244.673 1978,-207.915 2026.55,-179 2097.77,-136.584 2142.33,-191.505 2209.55,-143 2229.1,-128.895 2240.95,-102.994 2247.13,-85.3901"/>
<polygon fill="midnightblue" stroke="midnightblue" points="2250.52,-86.273 2250.26,-75.6814 2243.86,-84.125 2250.52,-86.273"/>
</g>
<!-- Node65&#45;&gt;Node26 -->
<g id="edge163" class="edge"><title>Node65&#45;&gt;Node26</title>
<path fill="none" stroke="midnightblue" d="M1631.41,-369.399C1624.58,-360.753 1615.81,-349.642 1608.65,-340.576"/>
<polygon fill="midnightblue" stroke="midnightblue" points="1611.34,-338.335 1602.39,-332.658 1605.84,-342.674 1611.34,-338.335"/>
</g>
<!-- Node65&#45;&gt;Node43 -->
<g id="edge166" class="edge"><title>Node65&#45;&gt;Node43</title>
<path fill="none" stroke="midnightblue" d="M1654.96,-369.252C1666.25,-354.462 1679.6,-331.016 1668.55,-313 1627.23,-245.618 1533.84,-215.382 1479.3,-203.043"/>
<polygon fill="midnightblue" stroke="midnightblue" points="1479.78,-199.565 1469.26,-200.875 1478.3,-206.407 1479.78,-199.565"/>
</g>
<!-- Node65&#45;&gt;Node50 -->
<g id="edge165" class="edge"><title>Node65&#45;&gt;Node50</title>
<path fill="none" stroke="midnightblue" d="M1586.51,-379.259C1431.37,-367.496 1007.46,-335.174 1004.55,-333 988.348,-320.884 981.869,-297.744 979.278,-281.281"/>
<polygon fill="midnightblue" stroke="midnightblue" points="982.729,-280.666 978.034,-271.168 975.782,-281.521 982.729,-280.666"/>
</g>
</g>
</svg>
