<?xml version="1.0" encoding="UTF-8" standalone="no"?>
<!DOCTYPE svg PUBLIC "-//W3C//DTD SVG 1.1//EN"
 "http://www.w3.org/Graphics/SVG/1.1/DTD/svg11.dtd">
<!-- Generated by graphviz version 2.38.0 (20140413.2041)
 -->
<!-- Title: src/analysis/slowcontrol/SlowControlProcessors.h Pages: 1 -->
<svg width="1409pt" height="173pt"
 viewBox="0.00 0.00 1409.00 173.00" xmlns="http://www.w3.org/2000/svg" xmlns:xlink="http://www.w3.org/1999/xlink">
<g id="graph0" class="graph" transform="scale(1 1) rotate(0) translate(4 169)">
<title>src/analysis/slowcontrol/SlowControlProcessors.h</title>
<polygon fill="white" stroke="none" points="-4,4 -4,-169 1405,-169 1405,4 -4,4"/>
<!-- Node90 -->
<g id="node1" class="node"><title>Node90</title>
<polygon fill="#bfbfbf" stroke="black" points="666.5,-134.5 666.5,-164.5 803.5,-164.5 803.5,-134.5 666.5,-134.5"/>
<text text-anchor="start" x="674.5" y="-152.5" font-family="Helvetica,sans-Serif" font-size="10.00">src/analysis/slowcontrol</text>
<text text-anchor="middle" x="735" y="-141.5" font-family="Helvetica,sans-Serif" font-size="10.00">/SlowControlProcessors.h</text>
</g>
<!-- Node91 -->
<g id="node2" class="node"><title>Node91</title>
<g id="a_node2"><a xlink:href="_slow_control_manager_8h.html" target="_top" xlink:title="src/analysis/slowcontrol\l/SlowControlManager.h">
<polygon fill="white" stroke="black" points="147,-67.5 147,-97.5 275,-97.5 275,-67.5 147,-67.5"/>
<text text-anchor="start" x="155" y="-85.5" font-family="Helvetica,sans-Serif" font-size="10.00">src/analysis/slowcontrol</text>
<text text-anchor="middle" x="211" y="-74.5" font-family="Helvetica,sans-Serif" font-size="10.00">/SlowControlManager.h</text>
</a>
</g>
</g>
<!-- Node90&#45;&gt;Node91 -->
<g id="edge1" class="edge"><title>Node90&#45;&gt;Node91</title>
<path fill="none" stroke="midnightblue" d="M656.355,-139.021C573.433,-128.989 438.993,-112.617 323,-98 307.535,-96.0511 290.874,-93.9143 275.251,-91.8943"/>
<polygon fill="midnightblue" stroke="midnightblue" points="656.109,-142.517 666.457,-140.243 656.95,-135.567 656.109,-142.517"/>
</g>
<!-- Node94 -->
<g id="node5" class="node"><title>Node94</title>
<g id="a_node5"><a xlink:href="_test_slow_control_manager_8cc.html" target="_top" xlink:title="test/analysis/TestSlowControl\lManager.cc">
<polygon fill="white" stroke="black" points="277.5,-0.5 277.5,-30.5 432.5,-30.5 432.5,-0.5 277.5,-0.5"/>
<text text-anchor="start" x="285.5" y="-18.5" font-family="Helvetica,sans-Serif" font-size="10.00">test/analysis/TestSlowControl</text>
<text text-anchor="middle" x="355" y="-7.5" font-family="Helvetica,sans-Serif" font-size="10.00">Manager.cc</text>
</a>
</g>
</g>
<!-- Node90&#45;&gt;Node94 -->
<g id="edge12" class="edge"><title>Node90&#45;&gt;Node94</title>
<path fill="none" stroke="midnightblue" d="M656.04,-143.427C550.833,-135.854 375.576,-120.083 356,-98 339.667,-79.5756 345.075,-48.5459 350.215,-30.5578"/>
<polygon fill="midnightblue" stroke="midnightblue" points="656.086,-146.939 666.309,-144.156 656.582,-139.956 656.086,-146.939"/>
</g>
<!-- Node95 -->
<g id="node6" class="node"><title>Node95</title>
<g id="a_node6"><a xlink:href="_slow_control_processors_8cc.html" target="_top" xlink:title="src/analysis/slowcontrol\l/SlowControlProcessors.cc">
<polygon fill="white" stroke="black" points="365,-67.5 365,-97.5 507,-97.5 507,-67.5 365,-67.5"/>
<text text-anchor="start" x="373" y="-85.5" font-family="Helvetica,sans-Serif" font-size="10.00">src/analysis/slowcontrol</text>
<text text-anchor="middle" x="436" y="-74.5" font-family="Helvetica,sans-Serif" font-size="10.00">/SlowControlProcessors.cc</text>
</a>
</g>
</g>
<!-- Node90&#45;&gt;Node95 -->
<g id="edge5" class="edge"><title>Node90&#45;&gt;Node95</title>
<path fill="none" stroke="midnightblue" d="M660.552,-132.316C611.412,-121.633 547.665,-107.775 500.652,-97.5549"/>
<polygon fill="midnightblue" stroke="midnightblue" points="659.974,-135.772 670.49,-134.476 661.461,-128.932 659.974,-135.772"/>
</g>
<!-- Node96 -->
<g id="node7" class="node"><title>Node96</title>
<g id="a_node7"><a xlink:href="_beam_8cc.html" target="_top" xlink:title="src/analysis/slowcontrol\l/variables/Beam.cc">
<polygon fill="white" stroke="black" points="525,-67.5 525,-97.5 653,-97.5 653,-67.5 525,-67.5"/>
<text text-anchor="start" x="533" y="-85.5" font-family="Helvetica,sans-Serif" font-size="10.00">src/analysis/slowcontrol</text>
<text text-anchor="middle" x="589" y="-74.5" font-family="Helvetica,sans-Serif" font-size="10.00">/variables/Beam.cc</text>
</a>
</g>
</g>
<!-- Node90&#45;&gt;Node96 -->
<g id="edge6" class="edge"><title>Node90&#45;&gt;Node96</title>
<path fill="none" stroke="midnightblue" d="M694.05,-130.269C670.796,-119.916 642.128,-107.153 620.618,-97.5765"/>
<polygon fill="midnightblue" stroke="midnightblue" points="692.761,-133.526 703.32,-134.396 695.608,-127.131 692.761,-133.526"/>
</g>
<!-- Node97 -->
<g id="node8" class="node"><title>Node97</title>
<g id="a_node8"><a xlink:href="_clocks_8cc.html" target="_top" xlink:title="src/analysis/slowcontrol\l/variables/Clocks.cc">
<polygon fill="white" stroke="black" points="671,-67.5 671,-97.5 799,-97.5 799,-67.5 671,-67.5"/>
<text text-anchor="start" x="679" y="-85.5" font-family="Helvetica,sans-Serif" font-size="10.00">src/analysis/slowcontrol</text>
<text text-anchor="middle" x="735" y="-74.5" font-family="Helvetica,sans-Serif" font-size="10.00">/variables/Clocks.cc</text>
</a>
</g>
</g>
<!-- Node90&#45;&gt;Node97 -->
<g id="edge7" class="edge"><title>Node90&#45;&gt;Node97</title>
<path fill="none" stroke="midnightblue" d="M735,-124.108C735,-115.154 735,-105.323 735,-97.5765"/>
<polygon fill="midnightblue" stroke="midnightblue" points="731.5,-124.396 735,-134.396 738.5,-124.396 731.5,-124.396"/>
</g>
<!-- Node98 -->
<g id="node9" class="node"><title>Node98</title>
<g id="a_node9"><a xlink:href="variables_2_pair_spec_8cc.html" target="_top" xlink:title="src/analysis/slowcontrol\l/variables/Pairspec.cc">
<polygon fill="white" stroke="black" points="817,-67.5 817,-97.5 945,-97.5 945,-67.5 817,-67.5"/>
<text text-anchor="start" x="825" y="-85.5" font-family="Helvetica,sans-Serif" font-size="10.00">src/analysis/slowcontrol</text>
<text text-anchor="middle" x="881" y="-74.5" font-family="Helvetica,sans-Serif" font-size="10.00">/variables/Pairspec.cc</text>
</a>
</g>
</g>
<!-- Node90&#45;&gt;Node98 -->
<g id="edge8" class="edge"><title>Node90&#45;&gt;Node98</title>
<path fill="none" stroke="midnightblue" d="M775.95,-130.269C799.204,-119.916 827.872,-107.153 849.382,-97.5765"/>
<polygon fill="midnightblue" stroke="midnightblue" points="774.392,-127.131 766.68,-134.396 777.239,-133.526 774.392,-127.131"/>
</g>
<!-- Node99 -->
<g id="node10" class="node"><title>Node99</title>
<g id="a_node10"><a xlink:href="analysis_2slowcontrol_2variables_2_tagg_eff_8cc.html" target="_top" xlink:title="src/analysis/slowcontrol\l/variables/TaggEff.cc">
<polygon fill="white" stroke="black" points="963,-67.5 963,-97.5 1091,-97.5 1091,-67.5 963,-67.5"/>
<text text-anchor="start" x="971" y="-85.5" font-family="Helvetica,sans-Serif" font-size="10.00">src/analysis/slowcontrol</text>
<text text-anchor="middle" x="1027" y="-74.5" font-family="Helvetica,sans-Serif" font-size="10.00">/variables/TaggEff.cc</text>
</a>
</g>
</g>
<!-- Node90&#45;&gt;Node99 -->
<g id="edge9" class="edge"><title>Node90&#45;&gt;Node99</title>
<path fill="none" stroke="midnightblue" d="M808.006,-132.249C855.955,-121.575 918.045,-107.754 963.861,-97.5549"/>
<polygon fill="midnightblue" stroke="midnightblue" points="807.001,-128.887 798,-134.476 808.522,-135.719 807.001,-128.887"/>
</g>
<!-- Node100 -->
<g id="node11" class="node"><title>Node100</title>
<g id="a_node11"><a xlink:href="_tagger_scalers_8cc.html" target="_top" xlink:title="src/analysis/slowcontrol\l/variables/TaggerScalers.cc">
<polygon fill="white" stroke="black" points="1109,-67.5 1109,-97.5 1255,-97.5 1255,-67.5 1109,-67.5"/>
<text text-anchor="start" x="1117" y="-85.5" font-family="Helvetica,sans-Serif" font-size="10.00">src/analysis/slowcontrol</text>
<text text-anchor="middle" x="1182" y="-74.5" font-family="Helvetica,sans-Serif" font-size="10.00">/variables/TaggerScalers.cc</text>
</a>
</g>
</g>
<!-- Node90&#45;&gt;Node100 -->
<g id="edge10" class="edge"><title>Node90&#45;&gt;Node100</title>
<path fill="none" stroke="midnightblue" d="M813.905,-138.452C887.917,-128.822 1001.62,-113.498 1100,-98 1102.86,-97.5501 1105.77,-97.0819 1108.71,-96.6012"/>
<polygon fill="midnightblue" stroke="midnightblue" points="813.197,-135.015 803.731,-139.773 814.098,-141.956 813.197,-135.015"/>
</g>
<!-- Node101 -->
<g id="node12" class="node"><title>Node101</title>
<g id="a_node12"><a xlink:href="analysis_2slowcontrol_2variables_2_trigger_8cc.html" target="_top" xlink:title="src/analysis/slowcontrol\l/variables/Trigger.cc">
<polygon fill="white" stroke="black" points="1273,-67.5 1273,-97.5 1401,-97.5 1401,-67.5 1273,-67.5"/>
<text text-anchor="start" x="1281" y="-85.5" font-family="Helvetica,sans-Serif" font-size="10.00">src/analysis/slowcontrol</text>
<text text-anchor="middle" x="1337" y="-74.5" font-family="Helvetica,sans-Serif" font-size="10.00">/variables/Trigger.cc</text>
</a>
</g>
</g>
<!-- Node90&#45;&gt;Node101 -->
<g id="edge11" class="edge"><title>Node90&#45;&gt;Node101</title>
<path fill="none" stroke="midnightblue" d="M813.813,-143.47C917.436,-136.287 1104.99,-121.321 1264,-98 1266.94,-97.5687 1269.94,-97.0979 1272.97,-96.5982"/>
<polygon fill="midnightblue" stroke="midnightblue" points="813.481,-139.985 803.744,-144.162 813.96,-146.968 813.481,-139.985"/>
</g>
<!-- Node92 -->
<g id="node3" class="node"><title>Node92</title>
<g id="a_node3"><a xlink:href="_physics_manager_8cc.html" target="_top" xlink:title="src/analysis/physics\l/PhysicsManager.cc">
<polygon fill="white" stroke="black" points="0,-0.5 0,-30.5 110,-30.5 110,-0.5 0,-0.5"/>
<text text-anchor="start" x="8" y="-18.5" font-family="Helvetica,sans-Serif" font-size="10.00">src/analysis/physics</text>
<text text-anchor="middle" x="55" y="-7.5" font-family="Helvetica,sans-Serif" font-size="10.00">/PhysicsManager.cc</text>
</a>
</g>
</g>
<!-- Node91&#45;&gt;Node92 -->
<g id="edge2" class="edge"><title>Node91&#45;&gt;Node92</title>
<path fill="none" stroke="midnightblue" d="M167.906,-63.5442C142.943,-53.143 111.971,-40.238 88.7836,-30.5765"/>
<polygon fill="midnightblue" stroke="midnightblue" points="166.573,-66.7805 177.15,-67.396 169.266,-60.319 166.573,-66.7805"/>
</g>
<!-- Node93 -->
<g id="node4" class="node"><title>Node93</title>
<g id="a_node4"><a xlink:href="_slow_control_manager_8cc.html" target="_top" xlink:title="src/analysis/slowcontrol\l/SlowControlManager.cc">
<polygon fill="white" stroke="black" points="128.5,-0.5 128.5,-30.5 259.5,-30.5 259.5,-0.5 128.5,-0.5"/>
<text text-anchor="start" x="136.5" y="-18.5" font-family="Helvetica,sans-Serif" font-size="10.00">src/analysis/slowcontrol</text>
<text text-anchor="middle" x="194" y="-7.5" font-family="Helvetica,sans-Serif" font-size="10.00">/SlowControlManager.cc</text>
</a>
</g>
</g>
<!-- Node91&#45;&gt;Node93 -->
<g id="edge3" class="edge"><title>Node91&#45;&gt;Node93</title>
<path fill="none" stroke="midnightblue" d="M204.775,-57.6971C202.392,-48.5871 199.752,-38.4929 197.682,-30.5765"/>
<polygon fill="midnightblue" stroke="midnightblue" points="201.395,-58.607 207.311,-67.396 208.167,-56.8358 201.395,-58.607"/>
</g>
<!-- Node91&#45;&gt;Node94 -->
<g id="edge4" class="edge"><title>Node91&#45;&gt;Node94</title>
<path fill="none" stroke="midnightblue" d="M251.389,-63.2687C274.325,-52.9159 302.6,-40.1528 323.815,-30.5765"/>
<polygon fill="midnightblue" stroke="midnightblue" points="249.92,-60.0917 242.246,-67.396 252.8,-66.4718 249.92,-60.0917"/>
</g>
</g>
</svg>
