<?xml version="1.0" encoding="UTF-8" standalone="no"?>
<!DOCTYPE svg PUBLIC "-//W3C//DTD SVG 1.1//EN"
 "http://www.w3.org/Graphics/SVG/1.1/DTD/svg11.dtd">
<!-- Generated by graphviz version 2.38.0 (20140413.2041)
 -->
<!-- Title: src/calibration/modules/TAPS_ShowerCorrection.h Pages: 1 -->
<svg width="1830pt" height="117pt"
 viewBox="0.00 0.00 1830.00 117.00" xmlns="http://www.w3.org/2000/svg" xmlns:xlink="http://www.w3.org/1999/xlink">
<g id="graph0" class="graph" transform="scale(1 1) rotate(0) translate(4 113)">
<title>src/calibration/modules/TAPS_ShowerCorrection.h</title>
<polygon fill="white" stroke="none" points="-4,4 -4,-113 1826,-113 1826,4 -4,4"/>
<!-- Node51 -->
<g id="node1" class="node"><title>Node51</title>
<polygon fill="#bfbfbf" stroke="black" points="851.5,-78.5 851.5,-108.5 994.5,-108.5 994.5,-78.5 851.5,-78.5"/>
<text text-anchor="start" x="859.5" y="-96.5" font-family="Helvetica,sans-Serif" font-size="10.00">src/calibration/modules</text>
<text text-anchor="middle" x="923" y="-85.5" font-family="Helvetica,sans-Serif" font-size="10.00">/TAPS_ShowerCorrection.h</text>
</g>
<!-- Node52 -->
<g id="node2" class="node"><title>Node52</title>
<g id="a_node2"><a xlink:href="_setup__2007___base_8cc.html" target="_top" xlink:title="src/expconfig/setups\l/Setup_2007_Base.cc">
<polygon fill="white" stroke="black" points="0,-6 0,-36 120,-36 120,-6 0,-6"/>
<text text-anchor="start" x="8" y="-24" font-family="Helvetica,sans-Serif" font-size="10.00">src/expconfig/setups</text>
<text text-anchor="middle" x="60" y="-13" font-family="Helvetica,sans-Serif" font-size="10.00">/Setup_2007_Base.cc</text>
</a>
</g>
</g>
<!-- Node51&#45;&gt;Node52 -->
<g id="edge1" class="edge"><title>Node51&#45;&gt;Node52</title>
<path fill="none" stroke="midnightblue" d="M841.354,-93.1584C696.674,-93.0292 386.287,-86.9124 129,-42 120.522,-40.5201 111.602,-38.3851 103.094,-36.0555"/>
<polygon fill="midnightblue" stroke="midnightblue" points="841.482,-96.6585 851.482,-93.1578 841.481,-89.6585 841.482,-96.6585"/>
</g>
<!-- Node53 -->
<g id="node3" class="node"><title>Node53</title>
<g id="a_node3"><a xlink:href="_setup__2010__03___base_8cc.html" target="_top" xlink:title="src/expconfig/setups\l/Setup_2010_03_Base.cc">
<polygon fill="white" stroke="black" points="138.5,-6 138.5,-36 275.5,-36 275.5,-6 138.5,-6"/>
<text text-anchor="start" x="146.5" y="-24" font-family="Helvetica,sans-Serif" font-size="10.00">src/expconfig/setups</text>
<text text-anchor="middle" x="207" y="-13" font-family="Helvetica,sans-Serif" font-size="10.00">/Setup_2010_03_Base.cc</text>
</a>
</g>
</g>
<!-- Node51&#45;&gt;Node53 -->
<g id="edge2" class="edge"><title>Node51&#45;&gt;Node53</title>
<path fill="none" stroke="midnightblue" d="M841.08,-90.6108C718.959,-86.7623 482.276,-75.3206 284,-42 274.874,-40.4664 265.251,-38.3656 256.016,-36.0996"/>
<polygon fill="midnightblue" stroke="midnightblue" points="841.002,-94.11 851.105,-90.9177 841.216,-87.1133 841.002,-94.11"/>
</g>
<!-- Node54 -->
<g id="node4" class="node"><title>Node54</title>
<g id="a_node4"><a xlink:href="_setup__2014___e_p_t_8cc.html" target="_top" xlink:title="src/expconfig/setups\l/Setup_2014_EPT.cc">
<polygon fill="white" stroke="black" points="293.5,-6 293.5,-36 408.5,-36 408.5,-6 293.5,-6"/>
<text text-anchor="start" x="301.5" y="-24" font-family="Helvetica,sans-Serif" font-size="10.00">src/expconfig/setups</text>
<text text-anchor="middle" x="351" y="-13" font-family="Helvetica,sans-Serif" font-size="10.00">/Setup_2014_EPT.cc</text>
</a>
</g>
</g>
<!-- Node51&#45;&gt;Node54 -->
<g id="edge3" class="edge"><title>Node51&#45;&gt;Node54</title>
<path fill="none" stroke="midnightblue" d="M841.203,-89.1115C740.742,-83.8536 565.506,-71.1152 418,-42 410.021,-40.425 401.629,-38.3045 393.587,-36.0319"/>
<polygon fill="midnightblue" stroke="midnightblue" points="841.119,-92.6117 851.285,-89.6271 841.476,-85.6208 841.119,-92.6117"/>
</g>
<!-- Node55 -->
<g id="node5" class="node"><title>Node55</title>
<g id="a_node5"><a xlink:href="_setup__2015__01___pion_8cc.html" target="_top" xlink:title="src/expconfig/setups\l/Setup_2015_01_Pion.cc">
<polygon fill="white" stroke="black" points="427,-6 427,-36 561,-36 561,-6 427,-6"/>
<text text-anchor="start" x="435" y="-24" font-family="Helvetica,sans-Serif" font-size="10.00">src/expconfig/setups</text>
<text text-anchor="middle" x="494" y="-13" font-family="Helvetica,sans-Serif" font-size="10.00">/Setup_2015_01_Pion.cc</text>
</a>
</g>
</g>
<!-- Node51&#45;&gt;Node55 -->
<g id="edge4" class="edge"><title>Node51&#45;&gt;Node55</title>
<path fill="none" stroke="midnightblue" d="M840.919,-83.4751C769.081,-74.9307 662.1,-60.6418 570,-42 561.575,-40.2948 552.694,-38.2176 544.092,-36.0548"/>
<polygon fill="midnightblue" stroke="midnightblue" points="840.916,-86.9989 851.257,-84.6938 841.736,-80.047 840.916,-86.9989"/>
</g>
<!-- Node56 -->
<g id="node6" class="node"><title>Node56</title>
<g id="a_node6"><a xlink:href="_setup__2017__03_8cc.html" target="_top" xlink:title="src/expconfig/setups\l/Setup_2017_03.cc">
<polygon fill="white" stroke="black" points="579.5,-6 579.5,-36 694.5,-36 694.5,-6 579.5,-6"/>
<text text-anchor="start" x="587.5" y="-24" font-family="Helvetica,sans-Serif" font-size="10.00">src/expconfig/setups</text>
<text text-anchor="middle" x="637" y="-13" font-family="Helvetica,sans-Serif" font-size="10.00">/Setup_2017_03.cc</text>
</a>
</g>
</g>
<!-- Node51&#45;&gt;Node56 -->
<g id="edge5" class="edge"><title>Node51&#45;&gt;Node56</title>
<path fill="none" stroke="midnightblue" d="M846.302,-76.2484C803.884,-66.9213 750.332,-54.588 703,-42 696.173,-40.1844 688.988,-38.1434 681.971,-36.0773"/>
<polygon fill="midnightblue" stroke="midnightblue" points="845.763,-79.7132 856.28,-78.4322 847.259,-72.875 845.763,-79.7132"/>
</g>
<!-- Node57 -->
<g id="node7" class="node"><title>Node57</title>
<g id="a_node7"><a xlink:href="_setup__2017__05_8cc.html" target="_top" xlink:title="src/expconfig/setups\l/Setup_2017_05.cc">
<polygon fill="white" stroke="black" points="712.5,-6 712.5,-36 827.5,-36 827.5,-6 712.5,-6"/>
<text text-anchor="start" x="720.5" y="-24" font-family="Helvetica,sans-Serif" font-size="10.00">src/expconfig/setups</text>
<text text-anchor="middle" x="770" y="-13" font-family="Helvetica,sans-Serif" font-size="10.00">/Setup_2017_05.cc</text>
</a>
</g>
</g>
<!-- Node51&#45;&gt;Node57 -->
<g id="edge6" class="edge"><title>Node51&#45;&gt;Node57</title>
<path fill="none" stroke="midnightblue" d="M883.256,-74.1868C857.438,-62.2903 824.293,-47.0175 800.541,-36.0729"/>
<polygon fill="midnightblue" stroke="midnightblue" points="881.859,-77.3965 892.406,-78.4027 884.788,-71.0389 881.859,-77.3965"/>
</g>
<!-- Node58 -->
<g id="node8" class="node"><title>Node58</title>
<g id="a_node8"><a xlink:href="_setup__2017_plus___new_tagger___base_8cc.html" target="_top" xlink:title="src/expconfig/setups\l/Setup_2017Plus_NewTagger\l_Base.cc">
<polygon fill="white" stroke="black" points="846,-0.5 846,-41.5 1000,-41.5 1000,-0.5 846,-0.5"/>
<text text-anchor="start" x="854" y="-29.5" font-family="Helvetica,sans-Serif" font-size="10.00">src/expconfig/setups</text>
<text text-anchor="start" x="854" y="-18.5" font-family="Helvetica,sans-Serif" font-size="10.00">/Setup_2017Plus_NewTagger</text>
<text text-anchor="middle" x="923" y="-7.5" font-family="Helvetica,sans-Serif" font-size="10.00">_Base.cc</text>
</a>
</g>
</g>
<!-- Node51&#45;&gt;Node58 -->
<g id="edge7" class="edge"><title>Node51&#45;&gt;Node58</title>
<path fill="none" stroke="midnightblue" d="M923,-67.9815C923,-59.3468 923,-49.7625 923,-41.5884"/>
<polygon fill="midnightblue" stroke="midnightblue" points="919.5,-68.2332 923,-78.2333 926.5,-68.2333 919.5,-68.2332"/>
</g>
<!-- Node59 -->
<g id="node9" class="node"><title>Node59</title>
<g id="a_node9"><a xlink:href="_setup__2018__11_8cc.html" target="_top" xlink:title="src/expconfig/setups\l/Setup_2018_11.cc">
<polygon fill="white" stroke="black" points="1018.5,-6 1018.5,-36 1133.5,-36 1133.5,-6 1018.5,-6"/>
<text text-anchor="start" x="1026.5" y="-24" font-family="Helvetica,sans-Serif" font-size="10.00">src/expconfig/setups</text>
<text text-anchor="middle" x="1076" y="-13" font-family="Helvetica,sans-Serif" font-size="10.00">/Setup_2018_11.cc</text>
</a>
</g>
</g>
<!-- Node51&#45;&gt;Node59 -->
<g id="edge8" class="edge"><title>Node51&#45;&gt;Node59</title>
<path fill="none" stroke="midnightblue" d="M962.744,-74.1868C988.562,-62.2903 1021.71,-47.0175 1045.46,-36.0729"/>
<polygon fill="midnightblue" stroke="midnightblue" points="961.212,-71.0389 953.594,-78.4027 964.141,-77.3965 961.212,-71.0389"/>
</g>
<!-- Node60 -->
<g id="node10" class="node"><title>Node60</title>
<g id="a_node10"><a xlink:href="_setup__2019__01_8cc.html" target="_top" xlink:title="src/expconfig/setups\l/Setup_2019_01.cc">
<polygon fill="white" stroke="black" points="1151.5,-6 1151.5,-36 1266.5,-36 1266.5,-6 1151.5,-6"/>
<text text-anchor="start" x="1159.5" y="-24" font-family="Helvetica,sans-Serif" font-size="10.00">src/expconfig/setups</text>
<text text-anchor="middle" x="1209" y="-13" font-family="Helvetica,sans-Serif" font-size="10.00">/Setup_2019_01.cc</text>
</a>
</g>
</g>
<!-- Node51&#45;&gt;Node60 -->
<g id="edge9" class="edge"><title>Node51&#45;&gt;Node60</title>
<path fill="none" stroke="midnightblue" d="M999.698,-76.2484C1042.12,-66.9213 1095.67,-54.588 1143,-42 1149.83,-40.1844 1157.01,-38.1434 1164.03,-36.0773"/>
<polygon fill="midnightblue" stroke="midnightblue" points="998.741,-72.875 989.72,-78.4322 1000.24,-79.7132 998.741,-72.875"/>
</g>
<!-- Node61 -->
<g id="node11" class="node"><title>Node61</title>
<g id="a_node11"><a xlink:href="_setup__2019__06_8cc.html" target="_top" xlink:title="src/expconfig/setups\l/Setup_2019_06.cc">
<polygon fill="white" stroke="black" points="1284.5,-6 1284.5,-36 1399.5,-36 1399.5,-6 1284.5,-6"/>
<text text-anchor="start" x="1292.5" y="-24" font-family="Helvetica,sans-Serif" font-size="10.00">src/expconfig/setups</text>
<text text-anchor="middle" x="1342" y="-13" font-family="Helvetica,sans-Serif" font-size="10.00">/Setup_2019_06.cc</text>
</a>
</g>
</g>
<!-- Node51&#45;&gt;Node61 -->
<g id="edge10" class="edge"><title>Node51&#45;&gt;Node61</title>
<path fill="none" stroke="midnightblue" d="M1004.92,-84.3561C1076.88,-76.3558 1184.12,-62.3703 1276,-42 1283.48,-40.3415 1291.35,-38.2623 1298.94,-36.0763"/>
<polygon fill="midnightblue" stroke="midnightblue" points="1004.13,-80.9224 994.567,-85.4931 1004.89,-87.8806 1004.13,-80.9224"/>
</g>
<!-- Node62 -->
<g id="node12" class="node"><title>Node62</title>
<g id="a_node12"><a xlink:href="_setup__2019__07_8cc.html" target="_top" xlink:title="src/expconfig/setups\l/Setup_2019_07.cc">
<polygon fill="white" stroke="black" points="1417.5,-6 1417.5,-36 1532.5,-36 1532.5,-6 1417.5,-6"/>
<text text-anchor="start" x="1425.5" y="-24" font-family="Helvetica,sans-Serif" font-size="10.00">src/expconfig/setups</text>
<text text-anchor="middle" x="1475" y="-13" font-family="Helvetica,sans-Serif" font-size="10.00">/Setup_2019_07.cc</text>
</a>
</g>
</g>
<!-- Node51&#45;&gt;Node62 -->
<g id="edge11" class="edge"><title>Node51&#45;&gt;Node62</title>
<path fill="none" stroke="midnightblue" d="M1004.93,-88.7591C1102.12,-83.2262 1268.65,-70.2877 1409,-42 1416.86,-40.4151 1425.13,-38.2898 1433.05,-36.0156"/>
<polygon fill="midnightblue" stroke="midnightblue" points="1004.67,-85.2683 994.878,-89.3191 1005.06,-92.2575 1004.67,-85.2683"/>
</g>
<!-- Node63 -->
<g id="node13" class="node"><title>Node63</title>
<g id="a_node13"><a xlink:href="_setup__2019__09_8cc.html" target="_top" xlink:title="src/expconfig/setups\l/Setup_2019_09.cc">
<polygon fill="white" stroke="black" points="1550.5,-6 1550.5,-36 1665.5,-36 1665.5,-6 1550.5,-6"/>
<text text-anchor="start" x="1558.5" y="-24" font-family="Helvetica,sans-Serif" font-size="10.00">src/expconfig/setups</text>
<text text-anchor="middle" x="1608" y="-13" font-family="Helvetica,sans-Serif" font-size="10.00">/Setup_2019_09.cc</text>
</a>
</g>
</g>
<!-- Node51&#45;&gt;Node63 -->
<g id="edge12" class="edge"><title>Node51&#45;&gt;Node63</title>
<path fill="none" stroke="midnightblue" d="M1004.82,-91.3483C1123.99,-88.4276 1351.84,-78.1409 1542,-42 1550,-40.4798 1558.4,-38.3561 1566.44,-36.0568"/>
<polygon fill="midnightblue" stroke="midnightblue" points="1004.59,-87.8525 994.679,-91.5854 1004.76,-94.8506 1004.59,-87.8525"/>
</g>
<!-- Node64 -->
<g id="node14" class="node"><title>Node64</title>
<g id="a_node14"><a xlink:href="expconfig__helpers_8cc.html" target="_top" xlink:title="test/expconfig_helpers.cc">
<polygon fill="white" stroke="black" points="1684,-11.5 1684,-30.5 1822,-30.5 1822,-11.5 1684,-11.5"/>
<text text-anchor="middle" x="1753" y="-18.5" font-family="Helvetica,sans-Serif" font-size="10.00">test/expconfig_helpers.cc</text>
</a>
</g>
</g>
<!-- Node51&#45;&gt;Node64 -->
<g id="edge13" class="edge"><title>Node51&#45;&gt;Node64</title>
<path fill="none" stroke="midnightblue" d="M1004.64,-91.9188C1143.29,-89.8406 1433.31,-80.7628 1675,-42 1691.7,-39.3213 1710.04,-34.7067 1724.74,-30.5847"/>
<polygon fill="midnightblue" stroke="midnightblue" points="1004.46,-88.4208 994.513,-92.062 1004.56,-95.4201 1004.46,-88.4208"/>
</g>
</g>
</svg>
