<?xml version="1.0" encoding="UTF-8" standalone="no"?>
<!DOCTYPE svg PUBLIC "-//W3C//DTD SVG 1.1//EN"
 "http://www.w3.org/Graphics/SVG/1.1/DTD/svg11.dtd">
<!-- Generated by graphviz version 2.38.0 (20140413.2041)
 -->
<!-- Title: src/expconfig/detectors/detail/TAPSVeto_2014_PbWO4_elements.h Pages: 1 -->
<svg width="136pt" height="117pt"
 viewBox="0.00 0.00 136.00 117.00" xmlns="http://www.w3.org/2000/svg" xmlns:xlink="http://www.w3.org/1999/xlink">
<g id="graph0" class="graph" transform="scale(1 1) rotate(0) translate(4 113)">
<title>src/expconfig/detectors/detail/TAPSVeto_2014_PbWO4_elements.h</title>
<polygon fill="white" stroke="none" points="-4,4 -4,-113 132,-113 132,4 -4,4"/>
<!-- Node57 -->
<g id="node1" class="node"><title>Node57</title>
<polygon fill="#bfbfbf" stroke="black" points="0,-67.5 0,-108.5 128,-108.5 128,-67.5 0,-67.5"/>
<text text-anchor="start" x="8" y="-96.5" font-family="Helvetica,sans-Serif" font-size="10.00">src/expconfig/detectors</text>
<text text-anchor="start" x="8" y="-85.5" font-family="Helvetica,sans-Serif" font-size="10.00">/detail/TAPSVeto_2014</text>
<text text-anchor="middle" x="64" y="-74.5" font-family="Helvetica,sans-Serif" font-size="10.00">_PbWO4_elements.h</text>
</g>
<!-- Node58 -->
<g id="node2" class="node"><title>Node58</title>
<g id="a_node2"><a xlink:href="_t_a_p_s_veto_8cc.html" target="_top" xlink:title="src/expconfig/detectors\l/TAPSVeto.cc">
<polygon fill="white" stroke="black" points="0,-0.5 0,-30.5 128,-30.5 128,-0.5 0,-0.5"/>
<text text-anchor="start" x="8" y="-18.5" font-family="Helvetica,sans-Serif" font-size="10.00">src/expconfig/detectors</text>
<text text-anchor="middle" x="64" y="-7.5" font-family="Helvetica,sans-Serif" font-size="10.00">/TAPSVeto.cc</text>
</a>
</g>
</g>
<!-- Node57&#45;&gt;Node58 -->
<g id="edge1" class="edge"><title>Node57&#45;&gt;Node58</title>
<path fill="none" stroke="midnightblue" d="M64,-57.08C64,-48.0061 64,-38.4498 64,-30.8916"/>
<polygon fill="midnightblue" stroke="midnightblue" points="60.5001,-57.3618 64,-67.3618 67.5001,-57.3619 60.5001,-57.3618"/>
</g>
</g>
</svg>
