<?xml version="1.0" encoding="UTF-8" standalone="no"?>
<!DOCTYPE svg PUBLIC "-//W3C//DTD SVG 1.1//EN"
 "http://www.w3.org/Graphics/SVG/1.1/DTD/svg11.dtd">
<!-- Generated by graphviz version 2.38.0 (20140413.2041)
 -->
<!-- Title: src/base/TF1Ext.h Pages: 1 -->
<svg width="1089pt" height="95pt"
 viewBox="0.00 0.00 1089.00 95.00" xmlns="http://www.w3.org/2000/svg" xmlns:xlink="http://www.w3.org/1999/xlink">
<g id="graph0" class="graph" transform="scale(1 1) rotate(0) translate(4 91)">
<title>src/base/TF1Ext.h</title>
<polygon fill="white" stroke="none" points="-4,4 -4,-91 1085,-91 1085,4 -4,4"/>
<!-- Node2 -->
<g id="node1" class="node"><title>Node2</title>
<polygon fill="#bfbfbf" stroke="black" points="490,-67.5 490,-86.5 591,-86.5 591,-67.5 490,-67.5"/>
<text text-anchor="middle" x="540.5" y="-74.5" font-family="Helvetica,sans-Serif" font-size="10.00">src/base/TF1Ext.h</text>
</g>
<!-- Node3 -->
<g id="node2" class="node"><title>Node3</title>
<g id="a_node2"><a xlink:href="_fit_gausexpo_8cc.html" target="_top" xlink:title="src/calibration/fitfunctions\l/FitGausexpo.cc">
<polygon fill="white" stroke="black" points="0,-0.5 0,-30.5 139,-30.5 139,-0.5 0,-0.5"/>
<text text-anchor="start" x="8" y="-18.5" font-family="Helvetica,sans-Serif" font-size="10.00">src/calibration/fitfunctions</text>
<text text-anchor="middle" x="69.5" y="-7.5" font-family="Helvetica,sans-Serif" font-size="10.00">/FitGausexpo.cc</text>
</a>
</g>
</g>
<!-- Node2&#45;&gt;Node3 -->
<g id="edge1" class="edge"><title>Node2&#45;&gt;Node3</title>
<path fill="none" stroke="midnightblue" d="M479.741,-70.3705C402.372,-62.8975 264.657,-48.5751 147.5,-31 144.776,-30.5913 142.001,-30.158 139.201,-29.7064"/>
<polygon fill="midnightblue" stroke="midnightblue" points="479.501,-73.8635 489.79,-71.3353 480.17,-66.8955 479.501,-73.8635"/>
</g>
<!-- Node4 -->
<g id="node3" class="node"><title>Node4</title>
<g id="a_node3"><a xlink:href="_fit_gaus_pol1_8cc.html" target="_top" xlink:title="src/calibration/fitfunctions\l/FitGausPol1.cc">
<polygon fill="white" stroke="black" points="157,-0.5 157,-30.5 296,-30.5 296,-0.5 157,-0.5"/>
<text text-anchor="start" x="165" y="-18.5" font-family="Helvetica,sans-Serif" font-size="10.00">src/calibration/fitfunctions</text>
<text text-anchor="middle" x="226.5" y="-7.5" font-family="Helvetica,sans-Serif" font-size="10.00">/FitGausPol1.cc</text>
</a>
</g>
</g>
<!-- Node2&#45;&gt;Node4 -->
<g id="edge2" class="edge"><title>Node2&#45;&gt;Node4</title>
<path fill="none" stroke="midnightblue" d="M485.675,-65.6112C432.981,-55.6261 353.141,-40.4973 296.009,-29.6712"/>
<polygon fill="midnightblue" stroke="midnightblue" points="485.035,-69.0521 495.511,-67.4751 486.338,-62.1744 485.035,-69.0521"/>
</g>
<!-- Node5 -->
<g id="node4" class="node"><title>Node5</title>
<g id="a_node4"><a xlink:href="_fit_gaus_pol3_8cc.html" target="_top" xlink:title="src/calibration/fitfunctions\l/FitGausPol3.cc">
<polygon fill="white" stroke="black" points="314,-0.5 314,-30.5 453,-30.5 453,-0.5 314,-0.5"/>
<text text-anchor="start" x="322" y="-18.5" font-family="Helvetica,sans-Serif" font-size="10.00">src/calibration/fitfunctions</text>
<text text-anchor="middle" x="383.5" y="-7.5" font-family="Helvetica,sans-Serif" font-size="10.00">/FitGausPol3.cc</text>
</a>
</g>
</g>
<!-- Node2&#45;&gt;Node5 -->
<g id="edge3" class="edge"><title>Node2&#45;&gt;Node5</title>
<path fill="none" stroke="midnightblue" d="M508.434,-63.8475C482.929,-54.1817 447.216,-40.6471 420.502,-30.523"/>
<polygon fill="midnightblue" stroke="midnightblue" points="507.414,-67.204 518.006,-67.4751 509.895,-60.6583 507.414,-67.204"/>
</g>
<!-- Node6 -->
<g id="node5" class="node"><title>Node6</title>
<g id="a_node5"><a xlink:href="_fit_landau_expo_8cc.html" target="_top" xlink:title="src/calibration/fitfunctions\l/FitLandauExpo.cc">
<polygon fill="white" stroke="black" points="471,-0.5 471,-30.5 610,-30.5 610,-0.5 471,-0.5"/>
<text text-anchor="start" x="479" y="-18.5" font-family="Helvetica,sans-Serif" font-size="10.00">src/calibration/fitfunctions</text>
<text text-anchor="middle" x="540.5" y="-7.5" font-family="Helvetica,sans-Serif" font-size="10.00">/FitLandauExpo.cc</text>
</a>
</g>
</g>
<!-- Node2&#45;&gt;Node6 -->
<g id="edge4" class="edge"><title>Node2&#45;&gt;Node6</title>
<path fill="none" stroke="midnightblue" d="M540.5,-57.2349C540.5,-48.5864 540.5,-38.4969 540.5,-30.523"/>
<polygon fill="midnightblue" stroke="midnightblue" points="537,-57.4751 540.5,-67.4751 544,-57.4751 537,-57.4751"/>
</g>
<!-- Node7 -->
<g id="node6" class="node"><title>Node7</title>
<g id="a_node6"><a xlink:href="_fit_timewalk_8cc.html" target="_top" xlink:title="src/calibration/fitfunctions\l/FitTimewalk.cc">
<polygon fill="white" stroke="black" points="628,-0.5 628,-30.5 767,-30.5 767,-0.5 628,-0.5"/>
<text text-anchor="start" x="636" y="-18.5" font-family="Helvetica,sans-Serif" font-size="10.00">src/calibration/fitfunctions</text>
<text text-anchor="middle" x="697.5" y="-7.5" font-family="Helvetica,sans-Serif" font-size="10.00">/FitTimewalk.cc</text>
</a>
</g>
</g>
<!-- Node2&#45;&gt;Node7 -->
<g id="edge5" class="edge"><title>Node2&#45;&gt;Node7</title>
<path fill="none" stroke="midnightblue" d="M572.566,-63.8475C598.071,-54.1817 633.784,-40.6471 660.498,-30.523"/>
<polygon fill="midnightblue" stroke="midnightblue" points="571.105,-60.6583 562.994,-67.4751 573.586,-67.204 571.105,-60.6583"/>
</g>
<!-- Node8 -->
<g id="node7" class="node"><title>Node8</title>
<g id="a_node7"><a xlink:href="_fit_veto_band_8cc.html" target="_top" xlink:title="src/calibration/fitfunctions\l/FitVetoBand.cc">
<polygon fill="white" stroke="black" points="785,-0.5 785,-30.5 924,-30.5 924,-0.5 785,-0.5"/>
<text text-anchor="start" x="793" y="-18.5" font-family="Helvetica,sans-Serif" font-size="10.00">src/calibration/fitfunctions</text>
<text text-anchor="middle" x="854.5" y="-7.5" font-family="Helvetica,sans-Serif" font-size="10.00">/FitVetoBand.cc</text>
</a>
</g>
</g>
<!-- Node2&#45;&gt;Node8 -->
<g id="edge6" class="edge"><title>Node2&#45;&gt;Node8</title>
<path fill="none" stroke="midnightblue" d="M595.325,-65.6112C648.019,-55.6261 727.859,-40.4973 784.991,-29.6712"/>
<polygon fill="midnightblue" stroke="midnightblue" points="594.662,-62.1744 585.489,-67.4751 595.965,-69.0521 594.662,-62.1744"/>
</g>
<!-- Node9 -->
<g id="node8" class="node"><title>Node9</title>
<g id="a_node8"><a xlink:href="_fit_weibull_landau_pol1_8cc.html" target="_top" xlink:title="src/calibration/fitfunctions\l/FitWeibullLandauPol1.cc">
<polygon fill="white" stroke="black" points="942,-0.5 942,-30.5 1081,-30.5 1081,-0.5 942,-0.5"/>
<text text-anchor="start" x="950" y="-18.5" font-family="Helvetica,sans-Serif" font-size="10.00">src/calibration/fitfunctions</text>
<text text-anchor="middle" x="1011.5" y="-7.5" font-family="Helvetica,sans-Serif" font-size="10.00">/FitWeibullLandauPol1.cc</text>
</a>
</g>
</g>
<!-- Node2&#45;&gt;Node9 -->
<g id="edge7" class="edge"><title>Node2&#45;&gt;Node9</title>
<path fill="none" stroke="midnightblue" d="M601.259,-70.3705C678.628,-62.8975 816.343,-48.5751 933.5,-31 936.224,-30.5913 938.999,-30.158 941.799,-29.7064"/>
<polygon fill="midnightblue" stroke="midnightblue" points="600.83,-66.8955 591.21,-71.3353 601.499,-73.8635 600.83,-66.8955"/>
</g>
</g>
</svg>
