<?xml version="1.0" encoding="UTF-8" standalone="no"?>
<!DOCTYPE svg PUBLIC "-//W3C//DTD SVG 1.1//EN"
 "http://www.w3.org/Graphics/SVG/1.1/DTD/svg11.dtd">
<!-- Generated by graphviz version 2.38.0 (20140413.2041)
 -->
<!-- Title: src/root&#45;addons/cbtaps_display/TH2Crystals.cc Pages: 1 -->
<svg width="732pt" height="151pt"
 viewBox="0.00 0.00 732.00 151.00" xmlns="http://www.w3.org/2000/svg" xmlns:xlink="http://www.w3.org/1999/xlink">
<g id="graph0" class="graph" transform="scale(1 1) rotate(0) translate(4 147)">
<title>src/root&#45;addons/cbtaps_display/TH2Crystals.cc</title>
<polygon fill="white" stroke="none" points="-4,4 -4,-147 728,-147 728,4 -4,4"/>
<!-- Node0 -->
<g id="node1" class="node"><title>Node0</title>
<polygon fill="#bfbfbf" stroke="black" points="307,-112.5 307,-142.5 435,-142.5 435,-112.5 307,-112.5"/>
<text text-anchor="start" x="315" y="-130.5" font-family="Helvetica,sans-Serif" font-size="10.00">src/root&#45;addons/cbtaps</text>
<text text-anchor="middle" x="371" y="-119.5" font-family="Helvetica,sans-Serif" font-size="10.00">_display/TH2Crystals.cc</text>
</g>
<!-- Node1 -->
<g id="node2" class="node"><title>Node1</title>
<g id="a_node2"><a xlink:href="_t_h2_crystals_8h.html" target="_top" xlink:title="TH2Crystals.h">
<polygon fill="white" stroke="black" points="65.5,-56.5 65.5,-75.5 148.5,-75.5 148.5,-56.5 65.5,-56.5"/>
<text text-anchor="middle" x="107" y="-63.5" font-family="Helvetica,sans-Serif" font-size="10.00">TH2Crystals.h</text>
</a>
</g>
</g>
<!-- Node0&#45;&gt;Node1 -->
<g id="edge1" class="edge"><title>Node0&#45;&gt;Node1</title>
<path fill="none" stroke="midnightblue" d="M308.77,-112.475C261.633,-101.851 197.84,-87.4734 154.7,-77.7507"/>
<polygon fill="midnightblue" stroke="midnightblue" points="155.267,-74.2907 144.743,-75.5064 153.728,-81.1194 155.267,-74.2907"/>
</g>
<!-- Node6 -->
<g id="node7" class="node"><title>Node6</title>
<polygon fill="white" stroke="#bfbfbf" points="166.5,-56.5 166.5,-75.5 239.5,-75.5 239.5,-56.5 166.5,-56.5"/>
<text text-anchor="middle" x="203" y="-63.5" font-family="Helvetica,sans-Serif" font-size="10.00">TDirectory.h</text>
</g>
<!-- Node0&#45;&gt;Node6 -->
<g id="edge6" class="edge"><title>Node0&#45;&gt;Node6</title>
<path fill="none" stroke="midnightblue" d="M331.186,-112.399C302.495,-102.238 264.19,-88.6716 236.945,-79.0221"/>
<polygon fill="midnightblue" stroke="midnightblue" points="238.04,-75.6971 227.445,-75.6578 235.703,-82.2955 238.04,-75.6971"/>
</g>
<!-- Node7 -->
<g id="node8" class="node"><title>Node7</title>
<polygon fill="white" stroke="#bfbfbf" points="257.5,-56.5 257.5,-75.5 322.5,-75.5 322.5,-56.5 257.5,-56.5"/>
<text text-anchor="middle" x="290" y="-63.5" font-family="Helvetica,sans-Serif" font-size="10.00">TIterator.h</text>
</g>
<!-- Node0&#45;&gt;Node7 -->
<g id="edge7" class="edge"><title>Node0&#45;&gt;Node7</title>
<path fill="none" stroke="midnightblue" d="M351.804,-112.399C339.184,-103.129 322.707,-91.0254 309.939,-81.6469"/>
<polygon fill="midnightblue" stroke="midnightblue" points="311.918,-78.7572 301.786,-75.6578 307.773,-84.3987 311.918,-78.7572"/>
</g>
<!-- Node8 -->
<g id="node9" class="node"><title>Node8</title>
<polygon fill="white" stroke="#bfbfbf" points="341,-56.5 341,-75.5 401,-75.5 401,-56.5 341,-56.5"/>
<text text-anchor="middle" x="371" y="-63.5" font-family="Helvetica,sans-Serif" font-size="10.00">TGraph.h</text>
</g>
<!-- Node0&#45;&gt;Node8 -->
<g id="edge8" class="edge"><title>Node0&#45;&gt;Node8</title>
<path fill="none" stroke="midnightblue" d="M371,-112.399C371,-104.466 371,-94.458 371,-85.8583"/>
<polygon fill="midnightblue" stroke="midnightblue" points="374.5,-85.6577 371,-75.6578 367.5,-85.6578 374.5,-85.6577"/>
</g>
<!-- Node9 -->
<g id="node10" class="node"><title>Node9</title>
<polygon fill="white" stroke="#bfbfbf" points="419.5,-56.5 419.5,-75.5 482.5,-75.5 482.5,-56.5 419.5,-56.5"/>
<text text-anchor="middle" x="451" y="-63.5" font-family="Helvetica,sans-Serif" font-size="10.00">TMarker.h</text>
</g>
<!-- Node0&#45;&gt;Node9 -->
<g id="edge9" class="edge"><title>Node0&#45;&gt;Node9</title>
<path fill="none" stroke="midnightblue" d="M389.959,-112.399C402.423,-103.129 418.697,-91.0254 431.307,-81.6469"/>
<polygon fill="midnightblue" stroke="midnightblue" points="433.424,-84.4341 439.359,-75.6578 429.247,-78.8173 433.424,-84.4341"/>
</g>
<!-- Node10 -->
<g id="node11" class="node"><title>Node10</title>
<polygon fill="white" stroke="#bfbfbf" points="500.5,-56.5 500.5,-75.5 559.5,-75.5 559.5,-56.5 500.5,-56.5"/>
<text text-anchor="middle" x="530" y="-63.5" font-family="Helvetica,sans-Serif" font-size="10.00">iostream</text>
</g>
<!-- Node0&#45;&gt;Node10 -->
<g id="edge10" class="edge"><title>Node0&#45;&gt;Node10</title>
<path fill="none" stroke="midnightblue" d="M408.681,-112.399C435.596,-102.327 471.452,-88.9093 497.193,-79.2769"/>
<polygon fill="midnightblue" stroke="midnightblue" points="498.725,-82.4406 506.864,-75.6578 496.272,-75.8846 498.725,-82.4406"/>
</g>
<!-- Node11 -->
<g id="node12" class="node"><title>Node11</title>
<g id="a_node12"><a xlink:href="matrixstack_8h.html" target="_top" xlink:title="base/matrixstack.h">
<polygon fill="white" stroke="black" points="578,-56.5 578,-75.5 686,-75.5 686,-56.5 578,-56.5"/>
<text text-anchor="middle" x="632" y="-63.5" font-family="Helvetica,sans-Serif" font-size="10.00">base/matrixstack.h</text>
</a>
</g>
</g>
<!-- Node0&#45;&gt;Node11 -->
<g id="edge11" class="edge"><title>Node0&#45;&gt;Node11</title>
<path fill="none" stroke="midnightblue" d="M432.523,-112.475C479.124,-101.851 542.193,-87.4734 584.842,-77.7507"/>
<polygon fill="midnightblue" stroke="midnightblue" points="585.714,-81.1416 594.686,-75.5064 584.159,-74.3167 585.714,-81.1416"/>
</g>
<!-- Node2 -->
<g id="node3" class="node"><title>Node2</title>
<polygon fill="white" stroke="#bfbfbf" points="0,-0.5 0,-19.5 58,-19.5 58,-0.5 0,-0.5"/>
<text text-anchor="middle" x="29" y="-7.5" font-family="Helvetica,sans-Serif" font-size="10.00">Rtypes.h</text>
</g>
<!-- Node1&#45;&gt;Node2 -->
<g id="edge2" class="edge"><title>Node1&#45;&gt;Node2</title>
<path fill="none" stroke="midnightblue" d="M94.468,-56.324C82.4141,-47.979 63.9732,-35.2122 49.7313,-25.3524"/>
<polygon fill="midnightblue" stroke="midnightblue" points="51.7151,-22.469 41.5009,-19.6545 47.7306,-28.2243 51.7151,-22.469"/>
</g>
<!-- Node3 -->
<g id="node4" class="node"><title>Node3</title>
<polygon fill="white" stroke="#bfbfbf" points="76,-0.5 76,-19.5 138,-19.5 138,-0.5 76,-0.5"/>
<text text-anchor="middle" x="107" y="-7.5" font-family="Helvetica,sans-Serif" font-size="10.00">TH2Poly.h</text>
</g>
<!-- Node1&#45;&gt;Node3 -->
<g id="edge3" class="edge"><title>Node1&#45;&gt;Node3</title>
<path fill="none" stroke="midnightblue" d="M107,-56.083C107,-49.0059 107,-38.8611 107,-29.9865"/>
<polygon fill="midnightblue" stroke="midnightblue" points="110.5,-29.751 107,-19.7511 103.5,-29.7511 110.5,-29.751"/>
</g>
<!-- Node4 -->
<g id="node5" class="node"><title>Node4</title>
<polygon fill="white" stroke="#bfbfbf" points="324,-0.5 324,-19.5 392,-19.5 392,-0.5 324,-0.5"/>
<text text-anchor="middle" x="358" y="-7.5" font-family="Helvetica,sans-Serif" font-size="10.00">TVector2.h</text>
</g>
<!-- Node1&#45;&gt;Node4 -->
<g id="edge4" class="edge"><title>Node1&#45;&gt;Node4</title>
<path fill="none" stroke="midnightblue" d="M146.772,-56.4435C192.232,-46.6632 266.44,-30.6981 313.71,-20.5286"/>
<polygon fill="midnightblue" stroke="midnightblue" points="314.617,-23.9135 323.658,-18.3884 313.145,-17.07 314.617,-23.9135"/>
</g>
<!-- Node5 -->
<g id="node6" class="node"><title>Node5</title>
<polygon fill="white" stroke="#bfbfbf" points="156,-0.5 156,-19.5 200,-19.5 200,-0.5 156,-0.5"/>
<text text-anchor="middle" x="178" y="-7.5" font-family="Helvetica,sans-Serif" font-size="10.00">string</text>
</g>
<!-- Node1&#45;&gt;Node5 -->
<g id="edge5" class="edge"><title>Node1&#45;&gt;Node5</title>
<path fill="none" stroke="midnightblue" d="M118.407,-56.324C129.109,-48.1849 145.341,-35.8395 158.163,-26.0874"/>
<polygon fill="midnightblue" stroke="midnightblue" points="160.544,-28.6734 166.385,-19.8339 156.307,-23.1018 160.544,-28.6734"/>
</g>
<!-- Node11&#45;&gt;Node4 -->
<g id="edge14" class="edge"><title>Node11&#45;&gt;Node4</title>
<path fill="none" stroke="midnightblue" d="M588.584,-56.4435C537.62,-46.3996 453.56,-29.8331 402.242,-19.7193"/>
<polygon fill="midnightblue" stroke="midnightblue" points="402.612,-16.2248 392.123,-17.7251 401.258,-23.0927 402.612,-16.2248"/>
</g>
<!-- Node12 -->
<g id="node13" class="node"><title>Node12</title>
<polygon fill="white" stroke="#bfbfbf" points="516.5,-0.5 516.5,-19.5 581.5,-19.5 581.5,-0.5 516.5,-0.5"/>
<text text-anchor="middle" x="549" y="-7.5" font-family="Helvetica,sans-Serif" font-size="10.00">TVectorT.h</text>
</g>
<!-- Node11&#45;&gt;Node12 -->
<g id="edge12" class="edge"><title>Node11&#45;&gt;Node12</title>
<path fill="none" stroke="midnightblue" d="M618.665,-56.324C605.838,-47.979 586.215,-35.2122 571.06,-25.3524"/>
<polygon fill="midnightblue" stroke="midnightblue" points="572.593,-22.1742 562.302,-19.6545 568.776,-28.0417 572.593,-22.1742"/>
</g>
<!-- Node13 -->
<g id="node14" class="node"><title>Node13</title>
<polygon fill="white" stroke="#bfbfbf" points="600,-0.5 600,-19.5 664,-19.5 664,-0.5 600,-0.5"/>
<text text-anchor="middle" x="632" y="-7.5" font-family="Helvetica,sans-Serif" font-size="10.00">TMatrixT.h</text>
</g>
<!-- Node11&#45;&gt;Node13 -->
<g id="edge13" class="edge"><title>Node11&#45;&gt;Node13</title>
<path fill="none" stroke="midnightblue" d="M632,-56.083C632,-49.0059 632,-38.8611 632,-29.9865"/>
<polygon fill="midnightblue" stroke="midnightblue" points="635.5,-29.751 632,-19.7511 628.5,-29.7511 635.5,-29.751"/>
</g>
<!-- Node14 -->
<g id="node15" class="node"><title>Node14</title>
<polygon fill="white" stroke="#bfbfbf" points="682,-0.5 682,-19.5 724,-19.5 724,-0.5 682,-0.5"/>
<text text-anchor="middle" x="703" y="-7.5" font-family="Helvetica,sans-Serif" font-size="10.00">stack</text>
</g>
<!-- Node11&#45;&gt;Node14 -->
<g id="edge15" class="edge"><title>Node11&#45;&gt;Node14</title>
<path fill="none" stroke="midnightblue" d="M643.407,-56.324C654.109,-48.1849 670.341,-35.8395 683.163,-26.0874"/>
<polygon fill="midnightblue" stroke="midnightblue" points="685.544,-28.6734 691.385,-19.8339 681.307,-23.1018 685.544,-28.6734"/>
</g>
</g>
</svg>
