<?xml version="1.0" encoding="UTF-8" standalone="no"?>
<!DOCTYPE svg PUBLIC "-//W3C//DTD SVG 1.1//EN"
 "http://www.w3.org/Graphics/SVG/1.1/DTD/svg11.dtd">
<!-- Generated by graphviz version 2.38.0 (20140413.2041)
 -->
<!-- Title: src/root&#45;addons/cbtaps_display/TH2TAPS.cc Pages: 1 -->
<svg width="669pt" height="207pt"
 viewBox="0.00 0.00 668.50 207.00" xmlns="http://www.w3.org/2000/svg" xmlns:xlink="http://www.w3.org/1999/xlink">
<g id="graph0" class="graph" transform="scale(1 1) rotate(0) translate(4 203)">
<title>src/root&#45;addons/cbtaps_display/TH2TAPS.cc</title>
<polygon fill="white" stroke="none" points="-4,4 -4,-203 664.5,-203 664.5,4 -4,4"/>
<!-- Node0 -->
<g id="node1" class="node"><title>Node0</title>
<polygon fill="#bfbfbf" stroke="black" points="348,-168.5 348,-198.5 476,-198.5 476,-168.5 348,-168.5"/>
<text text-anchor="start" x="356" y="-186.5" font-family="Helvetica,sans-Serif" font-size="10.00">src/root&#45;addons/cbtaps</text>
<text text-anchor="middle" x="412" y="-175.5" font-family="Helvetica,sans-Serif" font-size="10.00">_display/TH2TAPS.cc</text>
</g>
<!-- Node1 -->
<g id="node2" class="node"><title>Node1</title>
<g id="a_node2"><a xlink:href="_t_h2_t_a_p_s_8h.html" target="_top" xlink:title="TH2TAPS.h">
<polygon fill="white" stroke="black" points="139,-112.5 139,-131.5 207,-131.5 207,-112.5 139,-112.5"/>
<text text-anchor="middle" x="173" y="-119.5" font-family="Helvetica,sans-Serif" font-size="10.00">TH2TAPS.h</text>
</a>
</g>
</g>
<!-- Node0&#45;&gt;Node1 -->
<g id="edge1" class="edge"><title>Node0&#45;&gt;Node1</title>
<path fill="none" stroke="midnightblue" d="M355.663,-168.475C313.35,-157.941 256.211,-143.716 217.176,-133.998"/>
<polygon fill="midnightblue" stroke="midnightblue" points="217.718,-130.526 207.168,-131.506 216.027,-137.319 217.718,-130.526"/>
</g>
<!-- Node4 -->
<g id="node5" class="node"><title>Node4</title>
<polygon fill="white" stroke="#bfbfbf" points="138,-0.5 138,-19.5 200,-19.5 200,-0.5 138,-0.5"/>
<text text-anchor="middle" x="169" y="-7.5" font-family="Helvetica,sans-Serif" font-size="10.00">TH2Poly.h</text>
</g>
<!-- Node0&#45;&gt;Node4 -->
<g id="edge8" class="edge"><title>Node0&#45;&gt;Node4</title>
<path fill="none" stroke="midnightblue" d="M347.757,-168.692C322.064,-160.935 293.333,-149.238 271,-132 238.601,-106.993 245.957,-86.7961 219,-56 209.6,-45.2614 197.781,-34.5209 187.994,-26.2274"/>
<polygon fill="midnightblue" stroke="midnightblue" points="189.963,-23.3135 180.029,-19.6306 185.498,-28.7047 189.963,-23.3135"/>
</g>
<!-- Node7 -->
<g id="node8" class="node"><title>Node7</title>
<polygon fill="white" stroke="#bfbfbf" points="384.5,-112.5 384.5,-131.5 439.5,-131.5 439.5,-112.5 384.5,-112.5"/>
<text text-anchor="middle" x="412" y="-119.5" font-family="Helvetica,sans-Serif" font-size="10.00">TMath.h</text>
</g>
<!-- Node0&#45;&gt;Node7 -->
<g id="edge7" class="edge"><title>Node0&#45;&gt;Node7</title>
<path fill="none" stroke="midnightblue" d="M412,-168.399C412,-160.466 412,-150.458 412,-141.858"/>
<polygon fill="midnightblue" stroke="midnightblue" points="415.5,-141.658 412,-131.658 408.5,-141.658 415.5,-141.658"/>
</g>
<!-- Node8 -->
<g id="node9" class="node"><title>Node8</title>
<polygon fill="white" stroke="#bfbfbf" points="458,-112.5 458,-131.5 518,-131.5 518,-112.5 458,-112.5"/>
<text text-anchor="middle" x="488" y="-119.5" font-family="Helvetica,sans-Serif" font-size="10.00">TGraph.h</text>
</g>
<!-- Node0&#45;&gt;Node8 -->
<g id="edge9" class="edge"><title>Node0&#45;&gt;Node8</title>
<path fill="none" stroke="midnightblue" d="M430.011,-168.399C441.738,-159.218 457.015,-147.258 468.945,-137.918"/>
<polygon fill="midnightblue" stroke="midnightblue" points="471.225,-140.578 476.941,-131.658 466.91,-135.066 471.225,-140.578"/>
</g>
<!-- Node9 -->
<g id="node10" class="node"><title>Node9</title>
<polygon fill="white" stroke="#bfbfbf" points="536.5,-112.5 536.5,-131.5 595.5,-131.5 595.5,-112.5 536.5,-112.5"/>
<text text-anchor="middle" x="566" y="-119.5" font-family="Helvetica,sans-Serif" font-size="10.00">TString.h</text>
</g>
<!-- Node0&#45;&gt;Node9 -->
<g id="edge10" class="edge"><title>Node0&#45;&gt;Node9</title>
<path fill="none" stroke="midnightblue" d="M448.496,-168.399C474.565,-158.327 509.294,-144.909 534.224,-135.277"/>
<polygon fill="midnightblue" stroke="midnightblue" points="535.525,-138.527 543.592,-131.658 533.002,-131.997 535.525,-138.527"/>
</g>
<!-- Node10 -->
<g id="node11" class="node"><title>Node10</title>
<g id="a_node11"><a xlink:href="_t_h2_draw_tool_8h.html" target="_top" xlink:title="TH2DrawTool.h">
<polygon fill="white" stroke="black" points="280,-112.5 280,-131.5 366,-131.5 366,-112.5 280,-112.5"/>
<text text-anchor="middle" x="323" y="-119.5" font-family="Helvetica,sans-Serif" font-size="10.00">TH2DrawTool.h</text>
</a>
</g>
</g>
<!-- Node0&#45;&gt;Node10 -->
<g id="edge11" class="edge"><title>Node0&#45;&gt;Node10</title>
<path fill="none" stroke="midnightblue" d="M390.908,-168.399C376.909,-159.04 358.589,-146.792 344.505,-137.377"/>
<polygon fill="midnightblue" stroke="midnightblue" points="346.209,-134.306 335.95,-131.658 342.318,-140.125 346.209,-134.306"/>
</g>
<!-- Node16 -->
<g id="node17" class="node"><title>Node16</title>
<polygon fill="white" stroke="#bfbfbf" points="613.5,-112.5 613.5,-131.5 660.5,-131.5 660.5,-112.5 613.5,-112.5"/>
<text text-anchor="middle" x="637" y="-119.5" font-family="Helvetica,sans-Serif" font-size="10.00">TList.h</text>
</g>
<!-- Node0&#45;&gt;Node16 -->
<g id="edge18" class="edge"><title>Node0&#45;&gt;Node16</title>
<path fill="none" stroke="midnightblue" d="M466.977,-168.399C503.292,-159.02 552.184,-146.269 603.333,-132.422"/>
<polygon fill="midnightblue" stroke="midnightblue" points="604.513,-135.729 613.248,-129.732 602.68,-128.973 604.513,-135.729"/>
</g>
<!-- Node2 -->
<g id="node3" class="node"><title>Node2</title>
<g id="a_node3"><a xlink:href="_t_h2_crystals_8h.html" target="_top" xlink:title="TH2Crystals.h">
<polygon fill="white" stroke="black" points="127.5,-56.5 127.5,-75.5 210.5,-75.5 210.5,-56.5 127.5,-56.5"/>
<text text-anchor="middle" x="169" y="-63.5" font-family="Helvetica,sans-Serif" font-size="10.00">TH2Crystals.h</text>
</a>
</g>
</g>
<!-- Node1&#45;&gt;Node2 -->
<g id="edge2" class="edge"><title>Node1&#45;&gt;Node2</title>
<path fill="none" stroke="midnightblue" d="M172.339,-112.083C171.815,-105.006 171.064,-94.8611 170.406,-85.9865"/>
<polygon fill="midnightblue" stroke="midnightblue" points="173.877,-85.4652 169.648,-75.7511 166.897,-85.9823 173.877,-85.4652"/>
</g>
<!-- Node3 -->
<g id="node4" class="node"><title>Node3</title>
<polygon fill="white" stroke="#bfbfbf" points="62,-0.5 62,-19.5 120,-19.5 120,-0.5 62,-0.5"/>
<text text-anchor="middle" x="91" y="-7.5" font-family="Helvetica,sans-Serif" font-size="10.00">Rtypes.h</text>
</g>
<!-- Node2&#45;&gt;Node3 -->
<g id="edge3" class="edge"><title>Node2&#45;&gt;Node3</title>
<path fill="none" stroke="midnightblue" d="M156.468,-56.324C144.414,-47.979 125.973,-35.2122 111.731,-25.3524"/>
<polygon fill="midnightblue" stroke="midnightblue" points="113.715,-22.469 103.501,-19.6545 109.731,-28.2243 113.715,-22.469"/>
</g>
<!-- Node2&#45;&gt;Node4 -->
<g id="edge4" class="edge"><title>Node2&#45;&gt;Node4</title>
<path fill="none" stroke="midnightblue" d="M169,-56.083C169,-49.0059 169,-38.8611 169,-29.9865"/>
<polygon fill="midnightblue" stroke="midnightblue" points="172.5,-29.751 169,-19.7511 165.5,-29.7511 172.5,-29.751"/>
</g>
<!-- Node5 -->
<g id="node6" class="node"><title>Node5</title>
<polygon fill="white" stroke="#bfbfbf" points="218,-0.5 218,-19.5 286,-19.5 286,-0.5 218,-0.5"/>
<text text-anchor="middle" x="252" y="-7.5" font-family="Helvetica,sans-Serif" font-size="10.00">TVector2.h</text>
</g>
<!-- Node2&#45;&gt;Node5 -->
<g id="edge5" class="edge"><title>Node2&#45;&gt;Node5</title>
<path fill="none" stroke="midnightblue" d="M182.335,-56.324C195.162,-47.979 214.785,-35.2122 229.94,-25.3524"/>
<polygon fill="midnightblue" stroke="midnightblue" points="232.224,-28.0417 238.698,-19.6545 228.407,-22.1742 232.224,-28.0417"/>
</g>
<!-- Node6 -->
<g id="node7" class="node"><title>Node6</title>
<polygon fill="white" stroke="#bfbfbf" points="0,-0.5 0,-19.5 44,-19.5 44,-0.5 0,-0.5"/>
<text text-anchor="middle" x="22" y="-7.5" font-family="Helvetica,sans-Serif" font-size="10.00">string</text>
</g>
<!-- Node2&#45;&gt;Node6 -->
<g id="edge6" class="edge"><title>Node2&#45;&gt;Node6</title>
<path fill="none" stroke="midnightblue" d="M145.707,-56.4435C120.904,-47.3322 81.4891,-32.8531 53.8306,-22.6929"/>
<polygon fill="midnightblue" stroke="midnightblue" points="54.8149,-19.3258 44.2214,-19.1629 52.4012,-25.8965 54.8149,-19.3258"/>
</g>
<!-- Node11 -->
<g id="node12" class="node"><title>Node11</title>
<g id="a_node12"><a xlink:href="matrixstack_8h.html" target="_top" xlink:title="base/matrixstack.h">
<polygon fill="white" stroke="black" points="279,-56.5 279,-75.5 387,-75.5 387,-56.5 279,-56.5"/>
<text text-anchor="middle" x="333" y="-63.5" font-family="Helvetica,sans-Serif" font-size="10.00">base/matrixstack.h</text>
</a>
</g>
</g>
<!-- Node10&#45;&gt;Node11 -->
<g id="edge12" class="edge"><title>Node10&#45;&gt;Node11</title>
<path fill="none" stroke="midnightblue" d="M324.651,-112.083C325.976,-104.927 327.882,-94.6353 329.539,-85.6911"/>
<polygon fill="midnightblue" stroke="midnightblue" points="333,-86.2212 331.379,-75.7511 326.117,-84.9466 333,-86.2212"/>
</g>
<!-- Node15 -->
<g id="node16" class="node"><title>Node15</title>
<polygon fill="white" stroke="#bfbfbf" points="405.5,-56.5 405.5,-75.5 452.5,-75.5 452.5,-56.5 405.5,-56.5"/>
<text text-anchor="middle" x="429" y="-63.5" font-family="Helvetica,sans-Serif" font-size="10.00">vector</text>
</g>
<!-- Node10&#45;&gt;Node15 -->
<g id="edge17" class="edge"><title>Node10&#45;&gt;Node15</title>
<path fill="none" stroke="midnightblue" d="M340.031,-112.324C357.03,-103.664 383.376,-90.2424 402.993,-80.249"/>
<polygon fill="midnightblue" stroke="midnightblue" points="404.69,-83.3125 412.012,-75.6545 401.512,-77.0752 404.69,-83.3125"/>
</g>
<!-- Node11&#45;&gt;Node5 -->
<g id="edge15" class="edge"><title>Node11&#45;&gt;Node5</title>
<path fill="none" stroke="midnightblue" d="M319.986,-56.324C307.468,-47.979 288.318,-35.2122 273.529,-25.3524"/>
<polygon fill="midnightblue" stroke="midnightblue" points="275.244,-22.2894 264.982,-19.6545 271.361,-28.1137 275.244,-22.2894"/>
</g>
<!-- Node12 -->
<g id="node13" class="node"><title>Node12</title>
<polygon fill="white" stroke="#bfbfbf" points="304.5,-0.5 304.5,-19.5 369.5,-19.5 369.5,-0.5 304.5,-0.5"/>
<text text-anchor="middle" x="337" y="-7.5" font-family="Helvetica,sans-Serif" font-size="10.00">TVectorT.h</text>
</g>
<!-- Node11&#45;&gt;Node12 -->
<g id="edge13" class="edge"><title>Node11&#45;&gt;Node12</title>
<path fill="none" stroke="midnightblue" d="M333.661,-56.083C334.185,-49.0059 334.936,-38.8611 335.594,-29.9865"/>
<polygon fill="midnightblue" stroke="midnightblue" points="339.103,-29.9823 336.352,-19.7511 332.123,-29.4652 339.103,-29.9823"/>
</g>
<!-- Node13 -->
<g id="node14" class="node"><title>Node13</title>
<polygon fill="white" stroke="#bfbfbf" points="388,-0.5 388,-19.5 452,-19.5 452,-0.5 388,-0.5"/>
<text text-anchor="middle" x="420" y="-7.5" font-family="Helvetica,sans-Serif" font-size="10.00">TMatrixT.h</text>
</g>
<!-- Node11&#45;&gt;Node13 -->
<g id="edge14" class="edge"><title>Node11&#45;&gt;Node13</title>
<path fill="none" stroke="midnightblue" d="M346.978,-56.324C360.55,-47.9002 381.38,-34.9709 397.325,-25.0741"/>
<polygon fill="midnightblue" stroke="midnightblue" points="399.406,-27.9019 406.057,-19.6545 395.714,-21.9544 399.406,-27.9019"/>
</g>
<!-- Node14 -->
<g id="node15" class="node"><title>Node14</title>
<polygon fill="white" stroke="#bfbfbf" points="470,-0.5 470,-19.5 512,-19.5 512,-0.5 470,-0.5"/>
<text text-anchor="middle" x="491" y="-7.5" font-family="Helvetica,sans-Serif" font-size="10.00">stack</text>
</g>
<!-- Node11&#45;&gt;Node14 -->
<g id="edge16" class="edge"><title>Node11&#45;&gt;Node14</title>
<path fill="none" stroke="midnightblue" d="M358.036,-56.4435C385.71,-46.985 430.31,-31.7421 460.129,-21.551"/>
<polygon fill="midnightblue" stroke="midnightblue" points="461.298,-24.8502 469.629,-18.3042 459.034,-18.2264 461.298,-24.8502"/>
</g>
</g>
</svg>
