<?xml version="1.0" encoding="UTF-8" standalone="no"?>
<!DOCTYPE svg PUBLIC "-//W3C//DTD SVG 1.1//EN"
 "http://www.w3.org/Graphics/SVG/1.1/DTD/svg11.dtd">
<!-- Generated by graphviz version 2.38.0 (20140413.2041)
 -->
<!-- Title: src/root&#45;addons/cbtaps_display/TH2TAPS.h Pages: 1 -->
<svg width="1605pt" height="173pt"
 viewBox="0.00 0.00 1605.00 173.00" xmlns="http://www.w3.org/2000/svg" xmlns:xlink="http://www.w3.org/1999/xlink">
<g id="graph0" class="graph" transform="scale(1 1) rotate(0) translate(4 169)">
<title>src/root&#45;addons/cbtaps_display/TH2TAPS.h</title>
<polygon fill="white" stroke="none" points="-4,4 -4,-169 1601,-169 1601,4 -4,4"/>
<!-- Node6 -->
<g id="node1" class="node"><title>Node6</title>
<polygon fill="#bfbfbf" stroke="black" points="757,-134.5 757,-164.5 885,-164.5 885,-134.5 757,-134.5"/>
<text text-anchor="start" x="765" y="-152.5" font-family="Helvetica,sans-Serif" font-size="10.00">src/root&#45;addons/cbtaps</text>
<text text-anchor="middle" x="821" y="-141.5" font-family="Helvetica,sans-Serif" font-size="10.00">_display/TH2TAPS.h</text>
</g>
<!-- Node7 -->
<g id="node2" class="node"><title>Node7</title>
<g id="a_node2"><a xlink:href="analysis_2physics_2calibration_2_t_a_p_s___energy_8h.html" target="_top" xlink:title="src/analysis/physics\l/calibration/TAPS_Energy.h">
<polygon fill="white" stroke="black" points="2,-67.5 2,-97.5 144,-97.5 144,-67.5 2,-67.5"/>
<text text-anchor="start" x="10" y="-85.5" font-family="Helvetica,sans-Serif" font-size="10.00">src/analysis/physics</text>
<text text-anchor="middle" x="73" y="-74.5" font-family="Helvetica,sans-Serif" font-size="10.00">/calibration/TAPS_Energy.h</text>
</a>
</g>
</g>
<!-- Node6&#45;&gt;Node7 -->
<g id="edge1" class="edge"><title>Node6&#45;&gt;Node7</title>
<path fill="none" stroke="midnightblue" d="M746.649,-145.403C623.033,-139.69 367.595,-125.484 153,-98 150.06,-97.6234 147.064,-97.2111 144.041,-96.7714"/>
<polygon fill="midnightblue" stroke="midnightblue" points="746.608,-148.905 756.758,-145.865 746.928,-141.912 746.608,-148.905"/>
</g>
<!-- Node9 -->
<g id="node4" class="node"><title>Node9</title>
<g id="a_node4"><a xlink:href="_m_c_reconstruct_check_8cc.html" target="_top" xlink:title="src/analysis/physics\l/check/MCReconstructCheck.cc">
<polygon fill="white" stroke="black" points="162,-67.5 162,-97.5 326,-97.5 326,-67.5 162,-67.5"/>
<text text-anchor="start" x="170" y="-85.5" font-family="Helvetica,sans-Serif" font-size="10.00">src/analysis/physics</text>
<text text-anchor="middle" x="244" y="-74.5" font-family="Helvetica,sans-Serif" font-size="10.00">/check/MCReconstructCheck.cc</text>
</a>
</g>
</g>
<!-- Node6&#45;&gt;Node9 -->
<g id="edge3" class="edge"><title>Node6&#45;&gt;Node9</title>
<path fill="none" stroke="midnightblue" d="M746.664,-142.044C651.193,-133.462 480.458,-117.131 335,-98 332.145,-97.6245 329.242,-97.2301 326.311,-96.8213"/>
<polygon fill="midnightblue" stroke="midnightblue" points="746.523,-145.545 756.795,-142.951 747.147,-138.573 746.523,-145.545"/>
</g>
<!-- Node10 -->
<g id="node5" class="node"><title>Node10</title>
<g id="a_node5"><a xlink:href="_event_display_hists_8cc.html" target="_top" xlink:title="src/analysis/physics\l/common/EventDisplayHists.cc">
<polygon fill="white" stroke="black" points="344,-67.5 344,-97.5 508,-97.5 508,-67.5 344,-67.5"/>
<text text-anchor="start" x="352" y="-85.5" font-family="Helvetica,sans-Serif" font-size="10.00">src/analysis/physics</text>
<text text-anchor="middle" x="426" y="-74.5" font-family="Helvetica,sans-Serif" font-size="10.00">/common/EventDisplayHists.cc</text>
</a>
</g>
</g>
<!-- Node6&#45;&gt;Node10 -->
<g id="edge4" class="edge"><title>Node6&#45;&gt;Node10</title>
<path fill="none" stroke="midnightblue" d="M746.459,-136.234C678.526,-125.055 578.363,-108.572 508.148,-97.018"/>
<polygon fill="midnightblue" stroke="midnightblue" points="746.222,-139.742 756.657,-137.912 747.358,-132.835 746.222,-139.742"/>
</g>
<!-- Node11 -->
<g id="node6" class="node"><title>Node11</title>
<g id="a_node6"><a xlink:href="_goat_comparison_8cc.html" target="_top" xlink:title="src/analysis/physics\l/misc/GoatComparison.cc">
<polygon fill="white" stroke="black" points="526,-67.5 526,-97.5 666,-97.5 666,-67.5 526,-67.5"/>
<text text-anchor="start" x="534" y="-85.5" font-family="Helvetica,sans-Serif" font-size="10.00">src/analysis/physics</text>
<text text-anchor="middle" x="596" y="-74.5" font-family="Helvetica,sans-Serif" font-size="10.00">/misc/GoatComparison.cc</text>
</a>
</g>
</g>
<!-- Node6&#45;&gt;Node11 -->
<g id="edge5" class="edge"><title>Node6&#45;&gt;Node11</title>
<path fill="none" stroke="midnightblue" d="M762.43,-131.58C725.886,-121.022 679.396,-107.592 644.845,-97.6109"/>
<polygon fill="midnightblue" stroke="midnightblue" points="761.877,-135.063 772.455,-134.476 763.82,-128.338 761.877,-135.063"/>
</g>
<!-- Node12 -->
<g id="node7" class="node"><title>Node12</title>
<g id="a_node7"><a xlink:href="calibration_2modules_2_t_a_p_s___energy_8cc.html" target="_top" xlink:title="src/calibration/modules\l/TAPS_Energy.cc">
<polygon fill="white" stroke="black" points="684,-67.5 684,-97.5 812,-97.5 812,-67.5 684,-67.5"/>
<text text-anchor="start" x="692" y="-85.5" font-family="Helvetica,sans-Serif" font-size="10.00">src/calibration/modules</text>
<text text-anchor="middle" x="748" y="-74.5" font-family="Helvetica,sans-Serif" font-size="10.00">/TAPS_Energy.cc</text>
</a>
</g>
</g>
<!-- Node6&#45;&gt;Node12 -->
<g id="edge6" class="edge"><title>Node6&#45;&gt;Node12</title>
<path fill="none" stroke="midnightblue" d="M797.525,-127.598C786.503,-117.783 773.656,-106.344 763.809,-97.5765"/>
<polygon fill="midnightblue" stroke="midnightblue" points="795.364,-130.36 805.16,-134.396 800.019,-125.132 795.364,-130.36"/>
</g>
<!-- Node13 -->
<g id="node8" class="node"><title>Node13</title>
<g id="a_node8"><a xlink:href="calibration_2modules_2_t_a_p_s___short_energy_8cc.html" target="_top" xlink:title="src/calibration/modules\l/TAPS_ShortEnergy.cc">
<polygon fill="white" stroke="black" points="830,-67.5 830,-97.5 958,-97.5 958,-67.5 830,-67.5"/>
<text text-anchor="start" x="838" y="-85.5" font-family="Helvetica,sans-Serif" font-size="10.00">src/calibration/modules</text>
<text text-anchor="middle" x="894" y="-74.5" font-family="Helvetica,sans-Serif" font-size="10.00">/TAPS_ShortEnergy.cc</text>
</a>
</g>
</g>
<!-- Node6&#45;&gt;Node13 -->
<g id="edge7" class="edge"><title>Node6&#45;&gt;Node13</title>
<path fill="none" stroke="midnightblue" d="M844.475,-127.598C855.497,-117.783 868.344,-106.344 878.191,-97.5765"/>
<polygon fill="midnightblue" stroke="midnightblue" points="841.981,-125.132 836.84,-134.396 846.636,-130.36 841.981,-125.132"/>
</g>
<!-- Node14 -->
<g id="node9" class="node"><title>Node14</title>
<g id="a_node9"><a xlink:href="_detector_plots_8cc.html" target="_top" xlink:title="src/root&#45;addons/analysis\l_codes/DetectorPlots.cc">
<polygon fill="white" stroke="black" points="976,-67.5 976,-97.5 1110,-97.5 1110,-67.5 976,-67.5"/>
<text text-anchor="start" x="984" y="-85.5" font-family="Helvetica,sans-Serif" font-size="10.00">src/root&#45;addons/analysis</text>
<text text-anchor="middle" x="1043" y="-74.5" font-family="Helvetica,sans-Serif" font-size="10.00">_codes/DetectorPlots.cc</text>
</a>
</g>
</g>
<!-- Node6&#45;&gt;Node14 -->
<g id="edge8" class="edge"><title>Node6&#45;&gt;Node14</title>
<path fill="none" stroke="midnightblue" d="M878.789,-131.58C914.846,-121.022 960.716,-107.592 994.806,-97.6109"/>
<polygon fill="midnightblue" stroke="midnightblue" points="877.511,-128.307 868.897,-134.476 879.478,-135.025 877.511,-128.307"/>
</g>
<!-- Node15 -->
<g id="node10" class="node"><title>Node15</title>
<g id="a_node10"><a xlink:href="_display_clustering_8cc.html" target="_top" xlink:title="src/root&#45;addons/analysis\l_codes/DisplayClustering.cc">
<polygon fill="white" stroke="black" points="1128.5,-67.5 1128.5,-97.5 1277.5,-97.5 1277.5,-67.5 1128.5,-67.5"/>
<text text-anchor="start" x="1136.5" y="-85.5" font-family="Helvetica,sans-Serif" font-size="10.00">src/root&#45;addons/analysis</text>
<text text-anchor="middle" x="1203" y="-74.5" font-family="Helvetica,sans-Serif" font-size="10.00">_codes/DisplayClustering.cc</text>
</a>
</g>
</g>
<!-- Node6&#45;&gt;Node15 -->
<g id="edge9" class="edge"><title>Node6&#45;&gt;Node15</title>
<path fill="none" stroke="midnightblue" d="M895.431,-135.952C955.72,-125.772 1042.85,-111.025 1119,-98 1122.06,-97.476 1125.19,-96.9405 1128.35,-96.3987"/>
<polygon fill="midnightblue" stroke="midnightblue" points="894.522,-132.556 885.244,-137.671 895.687,-139.458 894.522,-132.556"/>
</g>
<!-- Node16 -->
<g id="node11" class="node"><title>Node16</title>
<g id="a_node11"><a xlink:href="root-addons_2analysis__codes_2_extract_resolutions_8cc.html" target="_top" xlink:title="src/root&#45;addons/analysis\l_codes/ExtractResolutions.cc">
<polygon fill="white" stroke="black" points="1295.5,-67.5 1295.5,-97.5 1450.5,-97.5 1450.5,-67.5 1295.5,-67.5"/>
<text text-anchor="start" x="1303.5" y="-85.5" font-family="Helvetica,sans-Serif" font-size="10.00">src/root&#45;addons/analysis</text>
<text text-anchor="middle" x="1373" y="-74.5" font-family="Helvetica,sans-Serif" font-size="10.00">_codes/ExtractResolutions.cc</text>
</a>
</g>
</g>
<!-- Node6&#45;&gt;Node16 -->
<g id="edge10" class="edge"><title>Node6&#45;&gt;Node16</title>
<path fill="none" stroke="midnightblue" d="M895.278,-141.816C987.381,-133.214 1149.09,-117.082 1287,-98 1289.7,-97.6265 1292.44,-97.2338 1295.22,-96.8264"/>
<polygon fill="midnightblue" stroke="midnightblue" points="894.852,-138.34 885.219,-142.751 895.5,-145.31 894.852,-138.34"/>
</g>
<!-- Node17 -->
<g id="node12" class="node"><title>Node17</title>
<g id="a_node12"><a xlink:href="_t_h2_t_a_p_s_8cc.html" target="_top" xlink:title="src/root&#45;addons/cbtaps\l_display/TH2TAPS.cc">
<polygon fill="white" stroke="black" points="1469,-67.5 1469,-97.5 1597,-97.5 1597,-67.5 1469,-67.5"/>
<text text-anchor="start" x="1477" y="-85.5" font-family="Helvetica,sans-Serif" font-size="10.00">src/root&#45;addons/cbtaps</text>
<text text-anchor="middle" x="1533" y="-74.5" font-family="Helvetica,sans-Serif" font-size="10.00">_display/TH2TAPS.cc</text>
</a>
</g>
</g>
<!-- Node6&#45;&gt;Node17 -->
<g id="edge11" class="edge"><title>Node6&#45;&gt;Node17</title>
<path fill="none" stroke="midnightblue" d="M895.34,-145.456C1014.81,-139.929 1256.76,-126.118 1460,-98 1462.94,-97.5927 1465.95,-97.1416 1468.98,-96.6578"/>
<polygon fill="midnightblue" stroke="midnightblue" points="895.04,-141.966 885.21,-145.918 895.359,-148.959 895.04,-141.966"/>
</g>
<!-- Node8 -->
<g id="node3" class="node"><title>Node8</title>
<g id="a_node3"><a xlink:href="analysis_2physics_2calibration_2_t_a_p_s___energy_8cc.html" target="_top" xlink:title="src/analysis/physics\l/calibration/TAPS_Energy.cc">
<polygon fill="white" stroke="black" points="0,-0.5 0,-30.5 146,-30.5 146,-0.5 0,-0.5"/>
<text text-anchor="start" x="8" y="-18.5" font-family="Helvetica,sans-Serif" font-size="10.00">src/analysis/physics</text>
<text text-anchor="middle" x="73" y="-7.5" font-family="Helvetica,sans-Serif" font-size="10.00">/calibration/TAPS_Energy.cc</text>
</a>
</g>
</g>
<!-- Node7&#45;&gt;Node8 -->
<g id="edge2" class="edge"><title>Node7&#45;&gt;Node8</title>
<path fill="none" stroke="midnightblue" d="M73,-57.1081C73,-48.1539 73,-38.3227 73,-30.5765"/>
<polygon fill="midnightblue" stroke="midnightblue" points="69.5001,-57.3959 73,-67.396 76.5001,-57.396 69.5001,-57.3959"/>
</g>
</g>
</svg>
