<?xml version="1.0" encoding="UTF-8" standalone="no"?>
<!DOCTYPE svg PUBLIC "-//W3C//DTD SVG 1.1//EN"
 "http://www.w3.org/Graphics/SVG/1.1/DTD/svg11.dtd">
<!-- Generated by graphviz version 2.38.0 (20140413.2041)
 -->
<!-- Title: src/root&#45;addons/cbtaps_display/TH2DrawTool.cc Pages: 1 -->
<svg width="337pt" height="207pt"
 viewBox="0.00 0.00 336.50 207.00" xmlns="http://www.w3.org/2000/svg" xmlns:xlink="http://www.w3.org/1999/xlink">
<g id="graph0" class="graph" transform="scale(1 1) rotate(0) translate(4 203)">
<title>src/root&#45;addons/cbtaps_display/TH2DrawTool.cc</title>
<polygon fill="white" stroke="none" points="-4,4 -4,-203 332.5,-203 332.5,4 -4,4"/>
<!-- Node0 -->
<g id="node1" class="node"><title>Node0</title>
<polygon fill="#bfbfbf" stroke="black" points="185.5,-168.5 185.5,-198.5 317.5,-198.5 317.5,-168.5 185.5,-168.5"/>
<text text-anchor="start" x="193.5" y="-186.5" font-family="Helvetica,sans-Serif" font-size="10.00">src/root&#45;addons/cbtaps</text>
<text text-anchor="middle" x="251.5" y="-175.5" font-family="Helvetica,sans-Serif" font-size="10.00">_display/TH2DrawTool.cc</text>
</g>
<!-- Node1 -->
<g id="node2" class="node"><title>Node1</title>
<g id="a_node2"><a xlink:href="_t_h2_draw_tool_8h.html" target="_top" xlink:title="TH2DrawTool.h">
<polygon fill="white" stroke="black" points="162.5,-112.5 162.5,-131.5 248.5,-131.5 248.5,-112.5 162.5,-112.5"/>
<text text-anchor="middle" x="205.5" y="-119.5" font-family="Helvetica,sans-Serif" font-size="10.00">TH2DrawTool.h</text>
</a>
</g>
</g>
<!-- Node0&#45;&gt;Node1 -->
<g id="edge1" class="edge"><title>Node0&#45;&gt;Node1</title>
<path fill="none" stroke="midnightblue" d="M240.599,-168.399C233.914,-159.753 225.324,-148.642 218.315,-139.576"/>
<polygon fill="midnightblue" stroke="midnightblue" points="221.079,-137.428 212.193,-131.658 215.541,-141.71 221.079,-137.428"/>
</g>
<!-- Node8 -->
<g id="node9" class="node"><title>Node8</title>
<polygon fill="white" stroke="#bfbfbf" points="266.5,-112.5 266.5,-131.5 328.5,-131.5 328.5,-112.5 266.5,-112.5"/>
<text text-anchor="middle" x="297.5" y="-119.5" font-family="Helvetica,sans-Serif" font-size="10.00">TH2Poly.h</text>
</g>
<!-- Node0&#45;&gt;Node8 -->
<g id="edge8" class="edge"><title>Node0&#45;&gt;Node8</title>
<path fill="none" stroke="midnightblue" d="M262.401,-168.399C269.086,-159.753 277.676,-148.642 284.685,-139.576"/>
<polygon fill="midnightblue" stroke="midnightblue" points="287.459,-141.71 290.807,-131.658 281.921,-137.428 287.459,-141.71"/>
</g>
<!-- Node2 -->
<g id="node3" class="node"><title>Node2</title>
<g id="a_node3"><a xlink:href="matrixstack_8h.html" target="_top" xlink:title="base/matrixstack.h">
<polygon fill="white" stroke="black" points="103.5,-56.5 103.5,-75.5 211.5,-75.5 211.5,-56.5 103.5,-56.5"/>
<text text-anchor="middle" x="157.5" y="-63.5" font-family="Helvetica,sans-Serif" font-size="10.00">base/matrixstack.h</text>
</a>
</g>
</g>
<!-- Node1&#45;&gt;Node2 -->
<g id="edge2" class="edge"><title>Node1&#45;&gt;Node2</title>
<path fill="none" stroke="midnightblue" d="M197.574,-112.083C190.654,-104.298 180.435,-92.8015 172.048,-83.3665"/>
<polygon fill="midnightblue" stroke="midnightblue" points="174.538,-80.8999 165.279,-75.7511 169.306,-85.5505 174.538,-80.8999"/>
</g>
<!-- Node7 -->
<g id="node8" class="node"><title>Node7</title>
<polygon fill="white" stroke="#bfbfbf" points="230,-56.5 230,-75.5 277,-75.5 277,-56.5 230,-56.5"/>
<text text-anchor="middle" x="253.5" y="-63.5" font-family="Helvetica,sans-Serif" font-size="10.00">vector</text>
</g>
<!-- Node1&#45;&gt;Node7 -->
<g id="edge7" class="edge"><title>Node1&#45;&gt;Node7</title>
<path fill="none" stroke="midnightblue" d="M213.426,-112.083C220.346,-104.298 230.565,-92.8015 238.952,-83.3665"/>
<polygon fill="midnightblue" stroke="midnightblue" points="241.694,-85.5505 245.721,-75.7511 236.462,-80.8999 241.694,-85.5505"/>
</g>
<!-- Node3 -->
<g id="node4" class="node"><title>Node3</title>
<polygon fill="white" stroke="#bfbfbf" points="0,-0.5 0,-19.5 65,-19.5 65,-0.5 0,-0.5"/>
<text text-anchor="middle" x="32.5" y="-7.5" font-family="Helvetica,sans-Serif" font-size="10.00">TVectorT.h</text>
</g>
<!-- Node2&#45;&gt;Node3 -->
<g id="edge3" class="edge"><title>Node2&#45;&gt;Node3</title>
<path fill="none" stroke="midnightblue" d="M137.693,-56.4435C117.213,-47.5961 85.0173,-33.6875 61.6353,-23.5865"/>
<polygon fill="midnightblue" stroke="midnightblue" points="62.782,-20.2692 52.214,-19.5164 60.0059,-26.6953 62.782,-20.2692"/>
</g>
<!-- Node4 -->
<g id="node5" class="node"><title>Node4</title>
<polygon fill="white" stroke="#bfbfbf" points="83.5,-0.5 83.5,-19.5 147.5,-19.5 147.5,-0.5 83.5,-0.5"/>
<text text-anchor="middle" x="115.5" y="-7.5" font-family="Helvetica,sans-Serif" font-size="10.00">TMatrixT.h</text>
</g>
<!-- Node2&#45;&gt;Node4 -->
<g id="edge4" class="edge"><title>Node2&#45;&gt;Node4</title>
<path fill="none" stroke="midnightblue" d="M150.565,-56.083C144.571,-48.3768 135.748,-37.0333 128.452,-27.6531"/>
<polygon fill="midnightblue" stroke="midnightblue" points="131.209,-25.4958 122.306,-19.7511 125.683,-29.7934 131.209,-25.4958"/>
</g>
<!-- Node5 -->
<g id="node6" class="node"><title>Node5</title>
<polygon fill="white" stroke="#bfbfbf" points="165.5,-0.5 165.5,-19.5 233.5,-19.5 233.5,-0.5 165.5,-0.5"/>
<text text-anchor="middle" x="199.5" y="-7.5" font-family="Helvetica,sans-Serif" font-size="10.00">TVector2.h</text>
</g>
<!-- Node2&#45;&gt;Node5 -->
<g id="edge5" class="edge"><title>Node2&#45;&gt;Node5</title>
<path fill="none" stroke="midnightblue" d="M164.435,-56.083C170.429,-48.3768 179.252,-37.0333 186.548,-27.6531"/>
<polygon fill="midnightblue" stroke="midnightblue" points="189.317,-29.7934 192.694,-19.7511 183.791,-25.4958 189.317,-29.7934"/>
</g>
<!-- Node6 -->
<g id="node7" class="node"><title>Node6</title>
<polygon fill="white" stroke="#bfbfbf" points="251.5,-0.5 251.5,-19.5 293.5,-19.5 293.5,-0.5 251.5,-0.5"/>
<text text-anchor="middle" x="272.5" y="-7.5" font-family="Helvetica,sans-Serif" font-size="10.00">stack</text>
</g>
<!-- Node2&#45;&gt;Node6 -->
<g id="edge6" class="edge"><title>Node2&#45;&gt;Node6</title>
<path fill="none" stroke="midnightblue" d="M175.722,-56.4435C194.396,-47.6751 223.656,-33.9355 245.117,-23.8579"/>
<polygon fill="midnightblue" stroke="midnightblue" points="246.799,-26.935 254.363,-19.5164 243.824,-20.5988 246.799,-26.935"/>
</g>
</g>
</svg>
