<?xml version="1.0" encoding="UTF-8" standalone="no"?>
<!DOCTYPE svg PUBLIC "-//W3C//DTD SVG 1.1//EN"
 "http://www.w3.org/Graphics/SVG/1.1/DTD/svg11.dtd">
<!-- Generated by graphviz version 2.38.0 (20140413.2041)
 -->
<!-- Title: progs/TPCSim.cc Pages: 1 -->
<svg width="2088pt" height="263pt"
 viewBox="0.00 0.00 2087.57 263.00" xmlns="http://www.w3.org/2000/svg" xmlns:xlink="http://www.w3.org/1999/xlink">
<g id="graph0" class="graph" transform="scale(1 1) rotate(0) translate(4 259)">
<title>progs/TPCSim.cc</title>
<polygon fill="white" stroke="none" points="-4,4 -4,-259 2083.57,-259 2083.57,4 -4,4"/>
<!-- Node0 -->
<g id="node1" class="node"><title>Node0</title>
<polygon fill="#bfbfbf" stroke="black" points="1343.57,-235.5 1343.57,-254.5 1440.57,-254.5 1440.57,-235.5 1343.57,-235.5"/>
<text text-anchor="middle" x="1392.07" y="-242.5" font-family="Helvetica,sans-Serif" font-size="10.00">progs/TPCSim.cc</text>
</g>
<!-- Node1 -->
<g id="node2" class="node"><title>Node1</title>
<g id="a_node2"><a xlink:href="_t_p_c_sim__tools_8h.html" target="_top" xlink:title="detail/TPCSim_tools.h">
<polygon fill="white" stroke="black" points="365.066,-179.5 365.066,-198.5 485.066,-198.5 485.066,-179.5 365.066,-179.5"/>
<text text-anchor="middle" x="425.066" y="-186.5" font-family="Helvetica,sans-Serif" font-size="10.00">detail/TPCSim_tools.h</text>
</a>
</g>
</g>
<!-- Node0&#45;&gt;Node1 -->
<g id="edge1" class="edge"><title>Node0&#45;&gt;Node1</title>
<path fill="none" stroke="midnightblue" d="M1343.45,-241.285C1184.83,-232.427 681.878,-204.341 495.468,-193.931"/>
<polygon fill="midnightblue" stroke="midnightblue" points="495.419,-190.423 485.24,-193.36 495.029,-197.412 495.419,-190.423"/>
</g>
<!-- Node15 -->
<g id="node16" class="node"><title>Node15</title>
<g id="a_node16"><a xlink:href="base_2std__ext_2math_8h.html" target="_top" xlink:title="base/std_ext/math.h">
<polygon fill="white" stroke="black" points="151.066,-118 151.066,-137 267.066,-137 267.066,-118 151.066,-118"/>
<text text-anchor="middle" x="209.066" y="-125" font-family="Helvetica,sans-Serif" font-size="10.00">base/std_ext/math.h</text>
</a>
</g>
</g>
<!-- Node0&#45;&gt;Node15 -->
<g id="edge35" class="edge"><title>Node0&#45;&gt;Node15</title>
<path fill="none" stroke="midnightblue" d="M1343.56,-244.465C1165.26,-245.778 546.644,-246.709 356.066,-199 308.703,-187.143 258.425,-159.255 230.665,-142.324"/>
<polygon fill="midnightblue" stroke="midnightblue" points="232.493,-139.339 222.151,-137.041 228.803,-145.288 232.493,-139.339"/>
</g>
<!-- Node21 -->
<g id="node22" class="node"><title>Node21</title>
<g id="a_node22"><a xlink:href="_logger_8h.html" target="_top" xlink:title="base/Logger.h">
<polygon fill="white" stroke="black" points="1067.07,-179.5 1067.07,-198.5 1151.07,-198.5 1151.07,-179.5 1067.07,-179.5"/>
<text text-anchor="middle" x="1109.07" y="-186.5" font-family="Helvetica,sans-Serif" font-size="10.00">base/Logger.h</text>
</a>
</g>
</g>
<!-- Node0&#45;&gt;Node21 -->
<g id="edge28" class="edge"><title>Node0&#45;&gt;Node21</title>
<path fill="none" stroke="midnightblue" d="M1347.22,-235.444C1296.71,-225.805 1214.71,-210.159 1161.34,-199.974"/>
<polygon fill="midnightblue" stroke="midnightblue" points="1161.87,-196.512 1151.39,-198.075 1160.55,-203.388 1161.87,-196.512"/>
</g>
<!-- Node23 -->
<g id="node24" class="node"><title>Node23</title>
<polygon fill="white" stroke="#bfbfbf" points="1169.07,-179.5 1169.07,-198.5 1263.07,-198.5 1263.07,-179.5 1169.07,-179.5"/>
<text text-anchor="middle" x="1216.07" y="-186.5" font-family="Helvetica,sans-Serif" font-size="10.00">tclap/CmdLine.h</text>
</g>
<!-- Node0&#45;&gt;Node23 -->
<g id="edge30" class="edge"><title>Node0&#45;&gt;Node23</title>
<path fill="none" stroke="midnightblue" d="M1364.18,-235.444C1334.31,-226.28 1286.75,-211.688 1253.61,-201.519"/>
<polygon fill="midnightblue" stroke="midnightblue" points="1254.41,-198.104 1243.82,-198.516 1252.36,-204.796 1254.41,-198.104"/>
</g>
<!-- Node24 -->
<g id="node25" class="node"><title>Node24</title>
<g id="a_node25"><a xlink:href="_for_loop_counter_8h.html" target="_top" xlink:title="base/ForLoopCounter.h">
<polygon fill="white" stroke="black" points="883.066,-179.5 883.066,-198.5 1011.07,-198.5 1011.07,-179.5 883.066,-179.5"/>
<text text-anchor="middle" x="947.066" y="-186.5" font-family="Helvetica,sans-Serif" font-size="10.00">base/ForLoopCounter.h</text>
</a>
</g>
</g>
<!-- Node0&#45;&gt;Node24 -->
<g id="edge31" class="edge"><title>Node0&#45;&gt;Node24</title>
<path fill="none" stroke="midnightblue" d="M1343.17,-238.067C1265.26,-228.613 1112.45,-210.069 1021.09,-198.982"/>
<polygon fill="midnightblue" stroke="midnightblue" points="1021.43,-195.498 1011.08,-197.768 1020.58,-202.447 1021.43,-195.498"/>
</g>
<!-- Node26 -->
<g id="node27" class="node"><title>Node26</title>
<polygon fill="white" stroke="#bfbfbf" points="1009.57,-118 1009.57,-137 1068.57,-137 1068.57,-118 1009.57,-118"/>
<text text-anchor="middle" x="1039.07" y="-125" font-family="Helvetica,sans-Serif" font-size="10.00">iostream</text>
</g>
<!-- Node0&#45;&gt;Node26 -->
<g id="edge56" class="edge"><title>Node0&#45;&gt;Node26</title>
<path fill="none" stroke="midnightblue" d="M1343.29,-243.855C1261,-242.59 1099.5,-235.393 1058.07,-199 1043.66,-186.344 1039.64,-164.027 1038.77,-147.886"/>
<polygon fill="midnightblue" stroke="midnightblue" points="1042.26,-147.388 1038.59,-137.451 1035.26,-147.512 1042.26,-147.388"/>
</g>
<!-- Node27 -->
<g id="node28" class="node"><title>Node27</title>
<g id="a_node28"><a xlink:href="_histogram_factory_8h.html" target="_top" xlink:title="analysis/plot/HistogramFactory.h">
<polygon fill="white" stroke="black" points="693.566,-179.5 693.566,-198.5 864.566,-198.5 864.566,-179.5 693.566,-179.5"/>
<text text-anchor="middle" x="779.066" y="-186.5" font-family="Helvetica,sans-Serif" font-size="10.00">analysis/plot/HistogramFactory.h</text>
</a>
</g>
</g>
<!-- Node0&#45;&gt;Node27 -->
<g id="edge36" class="edge"><title>Node0&#45;&gt;Node27</title>
<path fill="none" stroke="midnightblue" d="M1343.49,-239.907C1253.45,-232.293 1054.24,-215.318 874.917,-199.071"/>
<polygon fill="midnightblue" stroke="midnightblue" points="875.044,-195.568 864.768,-198.15 874.411,-202.539 875.044,-195.568"/>
</g>
<!-- Node29 -->
<g id="node30" class="node"><title>Node29</title>
<polygon fill="white" stroke="#bfbfbf" points="1281.07,-179.5 1281.07,-198.5 1349.07,-198.5 1349.07,-179.5 1281.07,-179.5"/>
<text text-anchor="middle" x="1315.07" y="-186.5" font-family="Helvetica,sans-Serif" font-size="10.00">TSystem.h</text>
</g>
<!-- Node0&#45;&gt;Node29 -->
<g id="edge46" class="edge"><title>Node0&#45;&gt;Node29</title>
<path fill="none" stroke="midnightblue" d="M1379.69,-235.324C1367.91,-227.058 1349.93,-214.453 1335.93,-204.632"/>
<polygon fill="midnightblue" stroke="midnightblue" points="1337.6,-201.531 1327.41,-198.655 1333.58,-207.262 1337.6,-201.531"/>
</g>
<!-- Node30 -->
<g id="node31" class="node"><title>Node30</title>
<polygon fill="white" stroke="#bfbfbf" points="1367.57,-179.5 1367.57,-198.5 1416.57,-198.5 1416.57,-179.5 1367.57,-179.5"/>
<text text-anchor="middle" x="1392.07" y="-186.5" font-family="Helvetica,sans-Serif" font-size="10.00">TRint.h</text>
</g>
<!-- Node0&#45;&gt;Node30 -->
<g id="edge47" class="edge"><title>Node0&#45;&gt;Node30</title>
<path fill="none" stroke="midnightblue" d="M1392.07,-235.083C1392.07,-228.006 1392.07,-217.861 1392.07,-208.986"/>
<polygon fill="midnightblue" stroke="midnightblue" points="1395.57,-208.751 1392.07,-198.751 1388.57,-208.751 1395.57,-208.751"/>
</g>
<!-- Node31 -->
<g id="node32" class="node"><title>Node31</title>
<polygon fill="white" stroke="#bfbfbf" points="1434.57,-179.5 1434.57,-198.5 1523.57,-198.5 1523.57,-179.5 1434.57,-179.5"/>
<text text-anchor="middle" x="1479.07" y="-186.5" font-family="Helvetica,sans-Serif" font-size="10.00">TGraphErrors.h</text>
</g>
<!-- Node0&#45;&gt;Node31 -->
<g id="edge48" class="edge"><title>Node0&#45;&gt;Node31</title>
<path fill="none" stroke="midnightblue" d="M1406.04,-235.324C1419.62,-226.9 1440.45,-213.971 1456.39,-204.074"/>
<polygon fill="midnightblue" stroke="midnightblue" points="1458.47,-206.902 1465.12,-198.655 1454.78,-200.954 1458.47,-206.902"/>
</g>
<!-- Node32 -->
<g id="node33" class="node"><title>Node32</title>
<polygon fill="white" stroke="#bfbfbf" points="1541.07,-179.5 1541.07,-198.5 1601.07,-198.5 1601.07,-179.5 1541.07,-179.5"/>
<text text-anchor="middle" x="1571.07" y="-186.5" font-family="Helvetica,sans-Serif" font-size="10.00">TGraph.h</text>
</g>
<!-- Node0&#45;&gt;Node32 -->
<g id="edge49" class="edge"><title>Node0&#45;&gt;Node32</title>
<path fill="none" stroke="midnightblue" d="M1420.43,-235.444C1450.8,-226.28 1499.18,-211.688 1532.88,-201.519"/>
<polygon fill="midnightblue" stroke="midnightblue" points="1534.27,-204.756 1542.84,-198.516 1532.25,-198.054 1534.27,-204.756"/>
</g>
<!-- Node33 -->
<g id="node34" class="node"><title>Node33</title>
<polygon fill="white" stroke="#bfbfbf" points="1619.07,-179.5 1619.07,-198.5 1661.07,-198.5 1661.07,-179.5 1619.07,-179.5"/>
<text text-anchor="middle" x="1640.07" y="-186.5" font-family="Helvetica,sans-Serif" font-size="10.00">TF1.h</text>
</g>
<!-- Node0&#45;&gt;Node33 -->
<g id="edge50" class="edge"><title>Node0&#45;&gt;Node33</title>
<path fill="none" stroke="midnightblue" d="M1439.54,-235.446C1481.72,-227.567 1545.23,-215.022 1609,-199.102"/>
<polygon fill="midnightblue" stroke="midnightblue" points="1609.99,-202.464 1618.83,-196.624 1608.27,-195.677 1609.99,-202.464"/>
</g>
<!-- Node34 -->
<g id="node35" class="node"><title>Node34</title>
<polygon fill="white" stroke="#bfbfbf" points="1679.57,-179.5 1679.57,-198.5 1762.57,-198.5 1762.57,-179.5 1679.57,-179.5"/>
<text text-anchor="middle" x="1721.07" y="-186.5" font-family="Helvetica,sans-Serif" font-size="10.00">TApplication.h</text>
</g>
<!-- Node0&#45;&gt;Node34 -->
<g id="edge51" class="edge"><title>Node0&#45;&gt;Node34</title>
<path fill="none" stroke="midnightblue" d="M1440.81,-236.324C1494.29,-227.856 1582.92,-213.679 1669.35,-199.102"/>
<polygon fill="midnightblue" stroke="midnightblue" points="1670.05,-202.533 1679.33,-197.416 1668.88,-195.631 1670.05,-202.533"/>
</g>
<!-- Node35 -->
<g id="node36" class="node"><title>Node35</title>
<polygon fill="white" stroke="#bfbfbf" points="1781.07,-179.5 1781.07,-198.5 1831.07,-198.5 1831.07,-179.5 1781.07,-179.5"/>
<text text-anchor="middle" x="1806.07" y="-186.5" font-family="Helvetica,sans-Serif" font-size="10.00">TAxis.h</text>
</g>
<!-- Node0&#45;&gt;Node35 -->
<g id="edge52" class="edge"><title>Node0&#45;&gt;Node35</title>
<path fill="none" stroke="midnightblue" d="M1440.69,-240.448C1511.37,-234.802 1646.73,-222.169 1770.85,-198.989"/>
<polygon fill="midnightblue" stroke="midnightblue" points="1771.73,-202.384 1780.91,-197.083 1770.43,-195.507 1771.73,-202.384"/>
</g>
<!-- Node36 -->
<g id="node37" class="node"><title>Node36</title>
<polygon fill="white" stroke="#bfbfbf" points="1849.07,-179.5 1849.07,-198.5 1901.07,-198.5 1901.07,-179.5 1849.07,-179.5"/>
<text text-anchor="middle" x="1875.07" y="-186.5" font-family="Helvetica,sans-Serif" font-size="10.00">TH2D.h</text>
</g>
<!-- Node0&#45;&gt;Node36 -->
<g id="edge53" class="edge"><title>Node0&#45;&gt;Node36</title>
<path fill="none" stroke="midnightblue" d="M1440.79,-241.53C1521.66,-236.902 1688.77,-225.102 1838.92,-198.956"/>
<polygon fill="midnightblue" stroke="midnightblue" points="1839.55,-202.4 1848.79,-197.213 1838.33,-195.506 1839.55,-202.4"/>
</g>
<!-- Node37 -->
<g id="node38" class="node"><title>Node37</title>
<polygon fill="white" stroke="#bfbfbf" points="1919.57,-179.5 1919.57,-198.5 1996.57,-198.5 1996.57,-179.5 1919.57,-179.5"/>
<text text-anchor="middle" x="1958.07" y="-186.5" font-family="Helvetica,sans-Serif" font-size="10.00">TRandom3.h</text>
</g>
<!-- Node0&#45;&gt;Node37 -->
<g id="edge54" class="edge"><title>Node0&#45;&gt;Node37</title>
<path fill="none" stroke="midnightblue" d="M1440.81,-241.375C1531.13,-236.16 1730.76,-222.999 1909.25,-198.974"/>
<polygon fill="midnightblue" stroke="midnightblue" points="1909.91,-202.416 1919.35,-197.599 1908.97,-195.48 1909.91,-202.416"/>
</g>
<!-- Node38 -->
<g id="node39" class="node"><title>Node38</title>
<polygon fill="white" stroke="#bfbfbf" points="2014.57,-179.5 2014.57,-198.5 2079.57,-198.5 2079.57,-179.5 2014.57,-179.5"/>
<text text-anchor="middle" x="2047.07" y="-186.5" font-family="Helvetica,sans-Serif" font-size="10.00">TCanvas.h</text>
</g>
<!-- Node0&#45;&gt;Node38 -->
<g id="edge55" class="edge"><title>Node0&#45;&gt;Node38</title>
<path fill="none" stroke="midnightblue" d="M1440.88,-242.79C1543.52,-239.736 1789.34,-229.742 2004.26,-199.072"/>
<polygon fill="midnightblue" stroke="midnightblue" points="2005.07,-202.491 2014.47,-197.596 2004.07,-195.563 2005.07,-202.491"/>
</g>
<!-- Node2 -->
<g id="node3" class="node"><title>Node2</title>
<polygon fill="white" stroke="#bfbfbf" points="509.566,-56.5 509.566,-75.5 556.566,-75.5 556.566,-56.5 509.566,-56.5"/>
<text text-anchor="middle" x="533.066" y="-63.5" font-family="Helvetica,sans-Serif" font-size="10.00">vector</text>
</g>
<!-- Node1&#45;&gt;Node2 -->
<g id="edge2" class="edge"><title>Node1&#45;&gt;Node2</title>
<path fill="none" stroke="midnightblue" d="M480.98,-179.458C502.539,-173.136 525.089,-162.137 538.066,-143 549.512,-126.123 545.353,-101.999 540.237,-85.4842"/>
<polygon fill="midnightblue" stroke="midnightblue" points="543.487,-84.1744 536.891,-75.8832 536.877,-86.478 543.487,-84.1744"/>
</g>
<!-- Node3 -->
<g id="node4" class="node"><title>Node3</title>
<polygon fill="white" stroke="#bfbfbf" points="285.066,-118 285.066,-137 315.066,-137 315.066,-118 285.066,-118"/>
<text text-anchor="middle" x="300.066" y="-125" font-family="Helvetica,sans-Serif" font-size="10.00">list</text>
</g>
<!-- Node1&#45;&gt;Node3 -->
<g id="edge3" class="edge"><title>Node1&#45;&gt;Node3</title>
<path fill="none" stroke="midnightblue" d="M403.815,-179.438C383.123,-170.892 350.951,-157.041 324.066,-143 323.527,-142.718 322.983,-142.43 322.436,-142.135"/>
<polygon fill="midnightblue" stroke="midnightblue" points="324.023,-139.01 313.605,-137.08 320.545,-145.086 324.023,-139.01"/>
</g>
<!-- Node4 -->
<g id="node5" class="node"><title>Node4</title>
<g id="a_node5"><a xlink:href="vec2_8h.html" target="_top" xlink:title="base/vec/vec2.h">
<polygon fill="white" stroke="black" points="27.0664,-56.5 27.0664,-75.5 121.066,-75.5 121.066,-56.5 27.0664,-56.5"/>
<text text-anchor="middle" x="74.0664" y="-63.5" font-family="Helvetica,sans-Serif" font-size="10.00">base/vec/vec2.h</text>
</a>
</g>
</g>
<!-- Node1&#45;&gt;Node4 -->
<g id="edge4" class="edge"><title>Node1&#45;&gt;Node4</title>
<path fill="none" stroke="midnightblue" d="M364.859,-185.902C254.656,-181.438 29.596,-169.192 6.06635,-143 -3.14116,-132.751 -0.455453,-124.136 6.06635,-112 13.6888,-97.8153 27.963,-87.3516 41.4727,-80.1027"/>
<polygon fill="midnightblue" stroke="midnightblue" points="43.1942,-83.1562 50.6123,-75.5916 40.096,-76.8791 43.1942,-83.1562"/>
</g>
<!-- Node6 -->
<g id="node7" class="node"><title>Node6</title>
<polygon fill="white" stroke="#bfbfbf" points="637.566,-56.5 637.566,-75.5 694.566,-75.5 694.566,-56.5 637.566,-56.5"/>
<text text-anchor="middle" x="666.066" y="-63.5" font-family="Helvetica,sans-Serif" font-size="10.00">ostream</text>
</g>
<!-- Node1&#45;&gt;Node6 -->
<g id="edge6" class="edge"><title>Node1&#45;&gt;Node6</title>
<path fill="none" stroke="midnightblue" d="M457.83,-179.454C484.954,-171.749 524.084,-159.155 556.066,-143 590.511,-125.601 626.609,-98.7481 647.687,-82.0582"/>
<polygon fill="midnightblue" stroke="midnightblue" points="650.144,-84.574 655.752,-75.5848 645.762,-79.115 650.144,-84.574"/>
</g>
<!-- Node7 -->
<g id="node8" class="node"><title>Node7</title>
<g id="a_node8"><a xlink:href="_linear_8h.html" target="_top" xlink:title="base/math_functions\l/Linear.h">
<polygon fill="white" stroke="black" points="15.5664,-112.5 15.5664,-142.5 132.566,-142.5 132.566,-112.5 15.5664,-112.5"/>
<text text-anchor="start" x="23.5664" y="-130.5" font-family="Helvetica,sans-Serif" font-size="10.00">base/math_functions</text>
<text text-anchor="middle" x="74.0664" y="-119.5" font-family="Helvetica,sans-Serif" font-size="10.00">/Linear.h</text>
</a>
</g>
</g>
<!-- Node1&#45;&gt;Node7 -->
<g id="edge7" class="edge"><title>Node1&#45;&gt;Node7</title>
<path fill="none" stroke="midnightblue" d="M365.557,-179.464C310.367,-171.337 225.727,-158.342 142.509,-143.022"/>
<polygon fill="midnightblue" stroke="midnightblue" points="143.103,-139.573 132.633,-141.192 141.827,-146.456 143.103,-139.573"/>
</g>
<!-- Node8 -->
<g id="node9" class="node"><title>Node8</title>
<g id="a_node9"><a xlink:href="interval_8h.html" target="_top" xlink:title="base/interval.h">
<polygon fill="white" stroke="black" points="712.566,-56.5 712.566,-75.5 799.566,-75.5 799.566,-56.5 712.566,-56.5"/>
<text text-anchor="middle" x="756.066" y="-63.5" font-family="Helvetica,sans-Serif" font-size="10.00">base/interval.h</text>
</a>
</g>
</g>
<!-- Node1&#45;&gt;Node8 -->
<g id="edge9" class="edge"><title>Node1&#45;&gt;Node8</title>
<path fill="none" stroke="midnightblue" d="M466.145,-179.452C501.2,-171.624 552.673,-158.859 596.066,-143 645.586,-124.902 700.54,-96.9582 731.439,-80.4732"/>
<polygon fill="midnightblue" stroke="midnightblue" points="733.441,-83.3708 740.589,-75.5506 730.124,-77.2063 733.441,-83.3708"/>
</g>
<!-- Node1&#45;&gt;Node15 -->
<g id="edge17" class="edge"><title>Node1&#45;&gt;Node15</title>
<path fill="none" stroke="midnightblue" d="M394.119,-179.475C356.185,-169.026 291.788,-151.287 249.846,-139.733"/>
<polygon fill="midnightblue" stroke="midnightblue" points="250.527,-136.291 239.956,-137.009 248.668,-143.039 250.527,-136.291"/>
</g>
<!-- Node16 -->
<g id="node17" class="node"><title>Node16</title>
<g id="a_node17"><a xlink:href="_wrap_t_tree_8h.html" target="_top" xlink:title="base/WrapTTree.h">
<polygon fill="white" stroke="black" points="429.066,-118 429.066,-137 529.066,-137 529.066,-118 429.066,-118"/>
<text text-anchor="middle" x="479.066" y="-125" font-family="Helvetica,sans-Serif" font-size="10.00">base/WrapTTree.h</text>
</a>
</g>
</g>
<!-- Node1&#45;&gt;Node16 -->
<g id="edge21" class="edge"><title>Node1&#45;&gt;Node16</title>
<path fill="none" stroke="midnightblue" d="M432.803,-179.475C441.064,-170.373 454.343,-155.741 464.561,-144.483"/>
<polygon fill="midnightblue" stroke="midnightblue" points="467.215,-146.766 471.344,-137.009 462.031,-142.062 467.215,-146.766"/>
</g>
<!-- Node20 -->
<g id="node21" class="node"><title>Node20</title>
<polygon fill="white" stroke="#bfbfbf" points="333.566,-118 333.566,-137 410.566,-137 410.566,-118 333.566,-118"/>
<text text-anchor="middle" x="372.066" y="-125" font-family="Helvetica,sans-Serif" font-size="10.00">APLCON.hpp</text>
</g>
<!-- Node1&#45;&gt;Node20 -->
<g id="edge27" class="edge"><title>Node1&#45;&gt;Node20</title>
<path fill="none" stroke="midnightblue" d="M417.473,-179.475C409.365,-170.373 396.331,-155.741 386.303,-144.483"/>
<polygon fill="midnightblue" stroke="midnightblue" points="388.911,-142.148 379.646,-137.009 383.684,-146.804 388.911,-142.148"/>
</g>
<!-- Node5 -->
<g id="node6" class="node"><title>Node5</title>
<polygon fill="white" stroke="#bfbfbf" points="185.566,-0.5 185.566,-19.5 232.566,-19.5 232.566,-0.5 185.566,-0.5"/>
<text text-anchor="middle" x="209.066" y="-7.5" font-family="Helvetica,sans-Serif" font-size="10.00">cmath</text>
</g>
<!-- Node4&#45;&gt;Node5 -->
<g id="edge5" class="edge"><title>Node4&#45;&gt;Node5</title>
<path fill="none" stroke="midnightblue" d="M95.4575,-56.4435C117.774,-47.5171 152.97,-33.4387 178.274,-23.3168"/>
<polygon fill="midnightblue" stroke="midnightblue" points="179.79,-26.4801 187.775,-19.5164 177.191,-19.9807 179.79,-26.4801"/>
</g>
<!-- Node7&#45;&gt;Node4 -->
<g id="edge8" class="edge"><title>Node7&#45;&gt;Node4</title>
<path fill="none" stroke="midnightblue" d="M74.0664,-112.399C74.0664,-104.466 74.0664,-94.458 74.0664,-85.8583"/>
<polygon fill="midnightblue" stroke="midnightblue" points="77.5664,-85.6577 74.0664,-75.6578 70.5664,-85.6578 77.5664,-85.6577"/>
</g>
<!-- Node8&#45;&gt;Node5 -->
<g id="edge16" class="edge"><title>Node8&#45;&gt;Node5</title>
<path fill="none" stroke="midnightblue" d="M712.434,-57.3157C709.268,-56.8426 706.12,-56.3978 703.066,-56 530.62,-33.5382 322.854,-18.5128 242.787,-13.1681"/>
<polygon fill="midnightblue" stroke="midnightblue" points="242.999,-9.67451 232.789,-12.5069 242.537,-16.6593 242.999,-9.67451"/>
</g>
<!-- Node9 -->
<g id="node10" class="node"><title>Node9</title>
<g id="a_node10"><a xlink:href="types_8h.html" target="_top" xlink:title="types.h">
<polygon fill="white" stroke="black" points="577.066,-0.5 577.066,-19.5 629.066,-19.5 629.066,-0.5 577.066,-0.5"/>
<text text-anchor="middle" x="603.066" y="-7.5" font-family="Helvetica,sans-Serif" font-size="10.00">types.h</text>
</a>
</g>
</g>
<!-- Node8&#45;&gt;Node9 -->
<g id="edge10" class="edge"><title>Node8&#45;&gt;Node9</title>
<path fill="none" stroke="midnightblue" d="M731.823,-56.4435C706.196,-47.3986 665.581,-33.064 636.828,-22.9158"/>
<polygon fill="midnightblue" stroke="midnightblue" points="637.791,-19.5442 627.196,-19.5164 635.461,-26.1452 637.791,-19.5442"/>
</g>
<!-- Node10 -->
<g id="node11" class="node"><title>Node10</title>
<polygon fill="white" stroke="#bfbfbf" points="721.066,-0.5 721.066,-19.5 783.066,-19.5 783.066,-0.5 721.066,-0.5"/>
<text text-anchor="middle" x="752.066" y="-7.5" font-family="Helvetica,sans-Serif" font-size="10.00">algorithm</text>
</g>
<!-- Node8&#45;&gt;Node10 -->
<g id="edge11" class="edge"><title>Node8&#45;&gt;Node10</title>
<path fill="none" stroke="midnightblue" d="M755.406,-56.083C754.882,-49.0059 754.13,-38.8611 753.473,-29.9865"/>
<polygon fill="midnightblue" stroke="midnightblue" points="756.944,-29.4652 752.715,-19.7511 749.963,-29.9823 756.944,-29.4652"/>
</g>
<!-- Node11 -->
<g id="node12" class="node"><title>Node11</title>
<polygon fill="white" stroke="#bfbfbf" points="873.066,-0.5 873.066,-19.5 937.066,-19.5 937.066,-0.5 873.066,-0.5"/>
<text text-anchor="middle" x="905.066" y="-7.5" font-family="Helvetica,sans-Serif" font-size="10.00">stdexcept</text>
</g>
<!-- Node8&#45;&gt;Node11 -->
<g id="edge12" class="edge"><title>Node8&#45;&gt;Node11</title>
<path fill="none" stroke="midnightblue" d="M779.676,-56.4435C804.524,-47.4381 843.841,-33.1891 871.82,-23.049"/>
<polygon fill="midnightblue" stroke="midnightblue" points="873.358,-26.2144 881.567,-19.5164 870.973,-19.6332 873.358,-26.2144"/>
</g>
<!-- Node12 -->
<g id="node13" class="node"><title>Node12</title>
<polygon fill="white" stroke="#bfbfbf" points="385.066,-0.5 385.066,-19.5 427.066,-19.5 427.066,-0.5 385.066,-0.5"/>
<text text-anchor="middle" x="406.066" y="-7.5" font-family="Helvetica,sans-Serif" font-size="10.00">limits</text>
</g>
<!-- Node8&#45;&gt;Node12 -->
<g id="edge13" class="edge"><title>Node8&#45;&gt;Node12</title>
<path fill="none" stroke="midnightblue" d="M712.404,-57.5222C709.245,-57.0007 706.107,-56.4885 703.066,-56 606.28,-40.4512 491.504,-23.4752 437.337,-15.5506"/>
<polygon fill="midnightblue" stroke="midnightblue" points="437.735,-12.0718 427.335,-14.0895 436.724,-18.9983 437.735,-12.0718"/>
</g>
<!-- Node13 -->
<g id="node14" class="node"><title>Node13</title>
<polygon fill="white" stroke="#bfbfbf" points="801.566,-0.5 801.566,-19.5 854.566,-19.5 854.566,-0.5 801.566,-0.5"/>
<text text-anchor="middle" x="828.066" y="-7.5" font-family="Helvetica,sans-Serif" font-size="10.00">istream</text>
</g>
<!-- Node8&#45;&gt;Node13 -->
<g id="edge14" class="edge"><title>Node8&#45;&gt;Node13</title>
<path fill="none" stroke="midnightblue" d="M767.634,-56.324C778.487,-48.1849 794.947,-35.8395 807.95,-26.0874"/>
<polygon fill="midnightblue" stroke="midnightblue" points="810.388,-28.6339 816.288,-19.8339 806.188,-23.0339 810.388,-28.6339"/>
</g>
<!-- Node14 -->
<g id="node15" class="node"><title>Node14</title>
<polygon fill="white" stroke="#bfbfbf" points="647.066,-0.5 647.066,-19.5 703.066,-19.5 703.066,-0.5 647.066,-0.5"/>
<text text-anchor="middle" x="675.066" y="-7.5" font-family="Helvetica,sans-Serif" font-size="10.00">sstream</text>
</g>
<!-- Node8&#45;&gt;Node14 -->
<g id="edge15" class="edge"><title>Node8&#45;&gt;Node14</title>
<path fill="none" stroke="midnightblue" d="M743.052,-56.324C730.535,-47.979 711.385,-35.2122 696.595,-25.3524"/>
<polygon fill="midnightblue" stroke="midnightblue" points="698.31,-22.2894 688.048,-19.6545 694.427,-28.1137 698.31,-22.2894"/>
</g>
<!-- Node15&#45;&gt;Node2 -->
<g id="edge20" class="edge"><title>Node15&#45;&gt;Node2</title>
<path fill="none" stroke="midnightblue" d="M247.278,-117.956C256.676,-115.93 266.723,-113.828 276.066,-112 355.79,-96.3999 449.941,-80.5724 499.179,-72.4922"/>
<polygon fill="midnightblue" stroke="midnightblue" points="499.965,-75.9103 509.269,-70.8418 498.835,-69.0021 499.965,-75.9103"/>
</g>
<!-- Node15&#45;&gt;Node5 -->
<g id="edge18" class="edge"><title>Node15&#45;&gt;Node5</title>
<path fill="none" stroke="midnightblue" d="M209.066,-117.819C209.066,-99.2568 209.066,-55.3391 209.066,-29.9734"/>
<polygon fill="midnightblue" stroke="midnightblue" points="212.566,-29.782 209.066,-19.782 205.566,-29.782 212.566,-29.782"/>
</g>
<!-- Node15&#45;&gt;Node12 -->
<g id="edge19" class="edge"><title>Node15&#45;&gt;Node12</title>
<path fill="none" stroke="midnightblue" d="M221.56,-117.826C241.554,-104.079 282.15,-76.727 318.066,-56 338.005,-44.4936 361.213,-32.6889 378.788,-24.0584"/>
<polygon fill="midnightblue" stroke="midnightblue" points="380.459,-27.1379 387.916,-19.6123 377.393,-20.8448 380.459,-27.1379"/>
</g>
<!-- Node16&#45;&gt;Node2 -->
<g id="edge23" class="edge"><title>Node16&#45;&gt;Node2</title>
<path fill="none" stroke="midnightblue" d="M486.803,-117.975C495.064,-108.873 508.343,-94.241 518.561,-82.983"/>
<polygon fill="midnightblue" stroke="midnightblue" points="521.215,-85.2663 525.344,-75.5091 516.031,-80.5619 521.215,-85.2663"/>
</g>
<!-- Node16&#45;&gt;Node10 -->
<g id="edge25" class="edge"><title>Node16&#45;&gt;Node10</title>
<path fill="none" stroke="midnightblue" d="M478.919,-117.589C479.192,-102.477 482.091,-71.9171 500.066,-56 569.241,5.25494 615.175,-35.5714 710.643,-20.0388"/>
<polygon fill="midnightblue" stroke="midnightblue" points="711.437,-23.4521 720.657,-18.2326 710.194,-16.5632 711.437,-23.4521"/>
</g>
<!-- Node17 -->
<g id="node18" class="node"><title>Node17</title>
<polygon fill="white" stroke="#bfbfbf" points="403.066,-56.5 403.066,-75.5 453.066,-75.5 453.066,-56.5 403.066,-56.5"/>
<text text-anchor="middle" x="428.066" y="-63.5" font-family="Helvetica,sans-Serif" font-size="10.00">TTree.h</text>
</g>
<!-- Node16&#45;&gt;Node17 -->
<g id="edge22" class="edge"><title>Node16&#45;&gt;Node17</title>
<path fill="none" stroke="midnightblue" d="M471.759,-117.975C464.034,-108.962 451.659,-94.5246 442.048,-83.3118"/>
<polygon fill="midnightblue" stroke="midnightblue" points="444.525,-80.8239 435.36,-75.5091 439.21,-85.3795 444.525,-80.8239"/>
</g>
<!-- Node18 -->
<g id="node19" class="node"><title>Node18</title>
<polygon fill="white" stroke="#bfbfbf" points="575.066,-56.5 575.066,-75.5 619.066,-75.5 619.066,-56.5 575.066,-56.5"/>
<text text-anchor="middle" x="597.066" y="-63.5" font-family="Helvetica,sans-Serif" font-size="10.00">string</text>
</g>
<!-- Node16&#45;&gt;Node18 -->
<g id="edge24" class="edge"><title>Node16&#45;&gt;Node18</title>
<path fill="none" stroke="midnightblue" d="M495.973,-117.975C515.601,-108.078 548.197,-91.6416 571.057,-80.1151"/>
<polygon fill="midnightblue" stroke="midnightblue" points="572.838,-83.1367 580.191,-75.5091 569.686,-76.8863 572.838,-83.1367"/>
</g>
<!-- Node19 -->
<g id="node20" class="node"><title>Node19</title>
<polygon fill="white" stroke="#bfbfbf" points="327.566,-56.5 327.566,-75.5 384.566,-75.5 384.566,-56.5 327.566,-56.5"/>
<text text-anchor="middle" x="356.066" y="-63.5" font-family="Helvetica,sans-Serif" font-size="10.00">memory</text>
</g>
<!-- Node16&#45;&gt;Node19 -->
<g id="edge26" class="edge"><title>Node16&#45;&gt;Node19</title>
<path fill="none" stroke="midnightblue" d="M461.443,-117.975C440.893,-108.034 406.703,-91.4947 382.86,-79.961"/>
<polygon fill="midnightblue" stroke="midnightblue" points="384.183,-76.7131 373.657,-75.5091 381.134,-83.0145 384.183,-76.7131"/>
</g>
<!-- Node22 -->
<g id="node23" class="node"><title>Node22</title>
<polygon fill="white" stroke="#bfbfbf" points="1086.57,-118 1086.57,-137 1185.57,-137 1185.57,-118 1086.57,-118"/>
<text text-anchor="middle" x="1136.07" y="-125" font-family="Helvetica,sans-Serif" font-size="10.00">easylogging++.h</text>
</g>
<!-- Node21&#45;&gt;Node22 -->
<g id="edge29" class="edge"><title>Node21&#45;&gt;Node22</title>
<path fill="none" stroke="midnightblue" d="M1112.93,-179.475C1116.86,-170.815 1123.07,-157.149 1128.06,-146.145"/>
<polygon fill="midnightblue" stroke="midnightblue" points="1131.26,-147.562 1132.21,-137.009 1124.89,-144.669 1131.26,-147.562"/>
</g>
<!-- Node24&#45;&gt;Node10 -->
<g id="edge34" class="edge"><title>Node24&#45;&gt;Node10</title>
<path fill="none" stroke="midnightblue" d="M938.641,-179.44C924.606,-165.237 895.468,-135.985 870.066,-112 843.068,-86.5073 836.328,-80.084 808.066,-56 796.082,-45.7869 782.298,-34.7028 771.404,-26.0907"/>
<polygon fill="midnightblue" stroke="midnightblue" points="773.401,-23.2085 763.377,-19.7778 769.074,-28.7108 773.401,-23.2085"/>
</g>
<!-- Node25 -->
<g id="node26" class="node"><title>Node25</title>
<polygon fill="white" stroke="#bfbfbf" points="939.066,-118 939.066,-137 991.066,-137 991.066,-118 939.066,-118"/>
<text text-anchor="middle" x="965.066" y="-125" font-family="Helvetica,sans-Serif" font-size="10.00">iterator</text>
</g>
<!-- Node24&#45;&gt;Node25 -->
<g id="edge32" class="edge"><title>Node24&#45;&gt;Node25</title>
<path fill="none" stroke="midnightblue" d="M949.645,-179.475C952.212,-170.992 956.231,-157.704 959.523,-146.822"/>
<polygon fill="midnightblue" stroke="midnightblue" points="962.947,-147.594 962.492,-137.009 956.246,-145.567 962.947,-147.594"/>
</g>
<!-- Node24&#45;&gt;Node26 -->
<g id="edge33" class="edge"><title>Node24&#45;&gt;Node26</title>
<path fill="none" stroke="midnightblue" d="M960.248,-179.475C975.141,-169.843 999.611,-154.017 1017.34,-142.552"/>
<polygon fill="midnightblue" stroke="midnightblue" points="1019.41,-145.379 1025.91,-137.009 1015.61,-139.501 1019.41,-145.379"/>
</g>
<!-- Node27&#45;&gt;Node2 -->
<g id="edge45" class="edge"><title>Node27&#45;&gt;Node2</title>
<path fill="none" stroke="midnightblue" d="M753.687,-179.468C729.852,-171.15 693.416,-157.644 663.066,-143 623.642,-123.978 580.177,-97.327 554.822,-81.164"/>
<polygon fill="midnightblue" stroke="midnightblue" points="556.646,-78.1763 546.341,-75.7173 552.864,-84.0662 556.646,-78.1763"/>
</g>
<!-- Node27&#45;&gt;Node8 -->
<g id="edge37" class="edge"><title>Node27&#45;&gt;Node8</title>
<path fill="none" stroke="midnightblue" d="M805.996,-179.356C822.786,-172.411 843.044,-160.825 853.066,-143 859.819,-130.99 860.481,-123.613 853.066,-112 842.867,-96.0253 825.376,-85.6351 808.03,-78.9159"/>
<polygon fill="midnightblue" stroke="midnightblue" points="809.051,-75.5648 798.456,-75.5486 806.729,-82.1683 809.051,-75.5648"/>
</g>
<!-- Node27&#45;&gt;Node18 -->
<g id="edge44" class="edge"><title>Node27&#45;&gt;Node18</title>
<path fill="none" stroke="midnightblue" d="M766.268,-179.492C735.407,-158.974 656.624,-106.596 618.447,-81.2146"/>
<polygon fill="midnightblue" stroke="midnightblue" points="620.359,-78.2829 610.094,-75.661 616.483,-84.1122 620.359,-78.2829"/>
</g>
<!-- Node28 -->
<g id="node29" class="node"><title>Node28</title>
<g id="a_node29"><a xlink:href="_bin_settings_8h.html" target="_top" xlink:title="base/BinSettings.h">
<polygon fill="white" stroke="black" points="737.566,-118 737.566,-137 844.566,-137 844.566,-118 737.566,-118"/>
<text text-anchor="middle" x="791.066" y="-125" font-family="Helvetica,sans-Serif" font-size="10.00">base/BinSettings.h</text>
</a>
</g>
</g>
<!-- Node27&#45;&gt;Node28 -->
<g id="edge38" class="edge"><title>Node27&#45;&gt;Node28</title>
<path fill="none" stroke="midnightblue" d="M780.786,-179.475C782.497,-170.992 785.176,-157.704 787.371,-146.822"/>
<polygon fill="midnightblue" stroke="midnightblue" points="790.804,-147.504 789.35,-137.009 783.942,-146.12 790.804,-147.504"/>
</g>
<!-- Node28&#45;&gt;Node2 -->
<g id="edge40" class="edge"><title>Node28&#45;&gt;Node2</title>
<path fill="none" stroke="midnightblue" d="M750.289,-117.931C707.142,-108.735 636.847,-93.3851 566.717,-76.0737"/>
<polygon fill="midnightblue" stroke="midnightblue" points="567.374,-72.6307 556.826,-73.6184 565.688,-79.4245 567.374,-72.6307"/>
</g>
<!-- Node28&#45;&gt;Node6 -->
<g id="edge43" class="edge"><title>Node28&#45;&gt;Node6</title>
<path fill="none" stroke="midnightblue" d="M773.157,-117.975C752.179,-107.99 717.217,-91.3476 692.973,-79.8075"/>
<polygon fill="midnightblue" stroke="midnightblue" points="694.476,-76.6468 683.943,-75.5091 691.468,-82.9673 694.476,-76.6468"/>
</g>
<!-- Node28&#45;&gt;Node8 -->
<g id="edge39" class="edge"><title>Node28&#45;&gt;Node8</title>
<path fill="none" stroke="midnightblue" d="M786.052,-117.975C780.906,-109.227 772.754,-95.3691 766.248,-84.3093"/>
<polygon fill="midnightblue" stroke="midnightblue" points="769.159,-82.3539 761.072,-75.5091 763.125,-85.903 769.159,-82.3539"/>
</g>
<!-- Node28&#45;&gt;Node11 -->
<g id="edge41" class="edge"><title>Node28&#45;&gt;Node11</title>
<path fill="none" stroke="midnightblue" d="M799.635,-117.819C818.698,-98.5043 864.859,-51.7366 889.291,-26.9827"/>
<polygon fill="midnightblue" stroke="midnightblue" points="891.865,-29.3578 896.398,-19.782 886.883,-24.4405 891.865,-29.3578"/>
</g>
<!-- Node28&#45;&gt;Node13 -->
<g id="edge42" class="edge"><title>Node28&#45;&gt;Node13</title>
<path fill="none" stroke="midnightblue" d="M794.023,-117.945C797.469,-107.919 803.302,-90.7929 808.066,-76 813.1,-60.3718 818.567,-42.5423 822.511,-29.5146"/>
<polygon fill="midnightblue" stroke="midnightblue" points="825.887,-30.439 825.422,-19.8544 819.185,-28.4189 825.887,-30.439"/>
</g>
</g>
</svg>
