<?xml version="1.0" encoding="UTF-8" standalone="no"?>
<!DOCTYPE svg PUBLIC "-//W3C//DTD SVG 1.1//EN"
 "http://www.w3.org/Graphics/SVG/1.1/DTD/svg11.dtd">
<!-- Generated by graphviz version 2.38.0 (20140413.2041)
 -->
<!-- Title: progs/detail/TPCSim_tools.h Pages: 1 -->
<svg width="915pt" height="218pt"
 viewBox="0.00 0.00 914.50 218.00" xmlns="http://www.w3.org/2000/svg" xmlns:xlink="http://www.w3.org/1999/xlink">
<g id="graph0" class="graph" transform="scale(1 1) rotate(0) translate(4 214)">
<title>progs/detail/TPCSim_tools.h</title>
<polygon fill="white" stroke="none" points="-4,4 -4,-214 910.5,-214 910.5,4 -4,4"/>
<!-- Node0 -->
<g id="node1" class="node"><title>Node0</title>
<polygon fill="#bfbfbf" stroke="black" points="534.5,-179.5 534.5,-209.5 647.5,-209.5 647.5,-179.5 534.5,-179.5"/>
<text text-anchor="start" x="542.5" y="-197.5" font-family="Helvetica,sans-Serif" font-size="10.00">progs/detail/TPCSim</text>
<text text-anchor="middle" x="591" y="-186.5" font-family="Helvetica,sans-Serif" font-size="10.00">_tools.h</text>
</g>
<!-- Node1 -->
<g id="node2" class="node"><title>Node1</title>
<polygon fill="white" stroke="#bfbfbf" points="22.5,-56.5 22.5,-75.5 69.5,-75.5 69.5,-56.5 22.5,-56.5"/>
<text text-anchor="middle" x="46" y="-63.5" font-family="Helvetica,sans-Serif" font-size="10.00">vector</text>
</g>
<!-- Node0&#45;&gt;Node1 -->
<g id="edge1" class="edge"><title>Node0&#45;&gt;Node1</title>
<path fill="none" stroke="midnightblue" d="M534.426,-192.01C457.283,-188.677 315.479,-177.894 200,-143 174.063,-135.163 107.327,-100.144 70.7997,-80.491"/>
<polygon fill="midnightblue" stroke="midnightblue" points="72.2439,-77.2932 61.7818,-75.621 68.9176,-83.4524 72.2439,-77.2932"/>
</g>
<!-- Node2 -->
<g id="node3" class="node"><title>Node2</title>
<polygon fill="white" stroke="#bfbfbf" points="706,-118 706,-137 736,-137 736,-118 706,-118"/>
<text text-anchor="middle" x="721" y="-125" font-family="Helvetica,sans-Serif" font-size="10.00">list</text>
</g>
<!-- Node0&#45;&gt;Node2 -->
<g id="edge2" class="edge"><title>Node0&#45;&gt;Node2</title>
<path fill="none" stroke="midnightblue" d="M619.208,-179.396C642.366,-167.817 674.814,-151.593 696.802,-140.599"/>
<polygon fill="midnightblue" stroke="midnightblue" points="698.434,-143.696 705.813,-136.094 695.303,-137.435 698.434,-143.696"/>
</g>
<!-- Node3 -->
<g id="node4" class="node"><title>Node3</title>
<g id="a_node4"><a xlink:href="vec2_8h.html" target="_top" xlink:title="base/vec/vec2.h">
<polygon fill="white" stroke="black" points="770,-56.5 770,-75.5 864,-75.5 864,-56.5 770,-56.5"/>
<text text-anchor="middle" x="817" y="-63.5" font-family="Helvetica,sans-Serif" font-size="10.00">base/vec/vec2.h</text>
</a>
</g>
</g>
<!-- Node0&#45;&gt;Node3 -->
<g id="edge3" class="edge"><title>Node0&#45;&gt;Node3</title>
<path fill="none" stroke="midnightblue" d="M610.522,-179.365C624.21,-169.366 642.872,-155.557 659,-143 676.198,-129.61 678.102,-122.859 697,-112 721.983,-97.6447 752.398,-86.2977 776.355,-78.5889"/>
<polygon fill="midnightblue" stroke="midnightblue" points="777.695,-81.8371 786.193,-75.5097 775.604,-75.1567 777.695,-81.8371"/>
</g>
<!-- Node5 -->
<g id="node6" class="node"><title>Node5</title>
<polygon fill="white" stroke="#bfbfbf" points="754.5,-118 754.5,-137 811.5,-137 811.5,-118 754.5,-118"/>
<text text-anchor="middle" x="783" y="-125" font-family="Helvetica,sans-Serif" font-size="10.00">ostream</text>
</g>
<!-- Node0&#45;&gt;Node5 -->
<g id="edge5" class="edge"><title>Node0&#45;&gt;Node5</title>
<path fill="none" stroke="midnightblue" d="M635.668,-179.473C666.511,-169.636 708.403,-155.975 745,-143 747.109,-142.252 749.278,-141.468 751.46,-140.666"/>
<polygon fill="midnightblue" stroke="midnightblue" points="752.822,-143.894 760.963,-137.113 750.37,-137.337 752.822,-143.894"/>
</g>
<!-- Node6 -->
<g id="node7" class="node"><title>Node6</title>
<g id="a_node7"><a xlink:href="_linear_8h.html" target="_top" xlink:title="base/math_functions\l/Linear.h">
<polygon fill="white" stroke="black" points="532.5,-112.5 532.5,-142.5 649.5,-142.5 649.5,-112.5 532.5,-112.5"/>
<text text-anchor="start" x="540.5" y="-130.5" font-family="Helvetica,sans-Serif" font-size="10.00">base/math_functions</text>
<text text-anchor="middle" x="591" y="-119.5" font-family="Helvetica,sans-Serif" font-size="10.00">/Linear.h</text>
</a>
</g>
</g>
<!-- Node0&#45;&gt;Node6 -->
<g id="edge6" class="edge"><title>Node0&#45;&gt;Node6</title>
<path fill="none" stroke="midnightblue" d="M591,-179.396C591,-171.645 591,-161.812 591,-152.86"/>
<polygon fill="midnightblue" stroke="midnightblue" points="594.5,-152.576 591,-142.577 587.5,-152.577 594.5,-152.576"/>
</g>
<!-- Node7 -->
<g id="node8" class="node"><title>Node7</title>
<g id="a_node8"><a xlink:href="interval_8h.html" target="_top" xlink:title="base/interval.h">
<polygon fill="white" stroke="black" points="427.5,-118 427.5,-137 514.5,-137 514.5,-118 427.5,-118"/>
<text text-anchor="middle" x="471" y="-125" font-family="Helvetica,sans-Serif" font-size="10.00">base/interval.h</text>
</a>
</g>
</g>
<!-- Node0&#45;&gt;Node7 -->
<g id="edge8" class="edge"><title>Node0&#45;&gt;Node7</title>
<path fill="none" stroke="midnightblue" d="M564.962,-179.396C544.372,-168.243 515.827,-152.781 495.616,-141.834"/>
<polygon fill="midnightblue" stroke="midnightblue" points="497.165,-138.692 486.705,-137.007 493.831,-144.847 497.165,-138.692"/>
</g>
<!-- Node14 -->
<g id="node15" class="node"><title>Node14</title>
<g id="a_node15"><a xlink:href="base_2std__ext_2math_8h.html" target="_top" xlink:title="base/std_ext/math.h">
<polygon fill="white" stroke="black" points="0,-118 0,-137 116,-137 116,-118 0,-118"/>
<text text-anchor="middle" x="58" y="-125" font-family="Helvetica,sans-Serif" font-size="10.00">base/std_ext/math.h</text>
</a>
</g>
</g>
<!-- Node0&#45;&gt;Node14 -->
<g id="edge16" class="edge"><title>Node0&#45;&gt;Node14</title>
<path fill="none" stroke="midnightblue" d="M534.353,-187.592C450.955,-178.748 290.267,-161.159 154,-143 143.744,-141.633 132.887,-140.088 122.307,-138.529"/>
<polygon fill="midnightblue" stroke="midnightblue" points="122.683,-135.047 112.277,-137.035 121.652,-141.97 122.683,-135.047"/>
</g>
<!-- Node15 -->
<g id="node16" class="node"><title>Node15</title>
<g id="a_node16"><a xlink:href="_wrap_t_tree_8h.html" target="_top" xlink:title="base/WrapTTree.h">
<polygon fill="white" stroke="black" points="209,-118 209,-137 309,-137 309,-118 209,-118"/>
<text text-anchor="middle" x="259" y="-125" font-family="Helvetica,sans-Serif" font-size="10.00">base/WrapTTree.h</text>
</a>
</g>
</g>
<!-- Node0&#45;&gt;Node15 -->
<g id="edge20" class="edge"><title>Node0&#45;&gt;Node15</title>
<path fill="none" stroke="midnightblue" d="M534.304,-182.4C472.241,-170.249 373.482,-150.914 312.651,-139.004"/>
<polygon fill="midnightblue" stroke="midnightblue" points="312.975,-135.501 302.489,-137.014 311.63,-142.371 312.975,-135.501"/>
</g>
<!-- Node19 -->
<g id="node20" class="node"><title>Node19</title>
<polygon fill="white" stroke="#bfbfbf" points="829.5,-118 829.5,-137 906.5,-137 906.5,-118 829.5,-118"/>
<text text-anchor="middle" x="868" y="-125" font-family="Helvetica,sans-Serif" font-size="10.00">APLCON.hpp</text>
</g>
<!-- Node0&#45;&gt;Node19 -->
<g id="edge26" class="edge"><title>Node0&#45;&gt;Node19</title>
<path fill="none" stroke="midnightblue" d="M647.554,-182.449C694.304,-172.987 762.295,-158.472 821,-143 824.597,-142.052 828.331,-141.007 832.051,-139.925"/>
<polygon fill="midnightblue" stroke="midnightblue" points="833.186,-143.239 841.761,-137.017 831.178,-136.533 833.186,-143.239"/>
</g>
<!-- Node4 -->
<g id="node5" class="node"><title>Node4</title>
<polygon fill="white" stroke="#bfbfbf" points="420.5,-0.5 420.5,-19.5 467.5,-19.5 467.5,-0.5 420.5,-0.5"/>
<text text-anchor="middle" x="444" y="-7.5" font-family="Helvetica,sans-Serif" font-size="10.00">cmath</text>
</g>
<!-- Node3&#45;&gt;Node4 -->
<g id="edge4" class="edge"><title>Node3&#45;&gt;Node4</title>
<path fill="none" stroke="midnightblue" d="M769.956,-57.3752C766.926,-56.904 763.921,-56.442 761,-56 658.037,-40.4194 536.008,-23.5438 477.957,-15.6123"/>
<polygon fill="midnightblue" stroke="midnightblue" points="478.263,-12.1217 467.882,-14.2378 477.317,-19.0575 478.263,-12.1217"/>
</g>
<!-- Node6&#45;&gt;Node3 -->
<g id="edge7" class="edge"><title>Node6&#45;&gt;Node3</title>
<path fill="none" stroke="midnightblue" d="M644.273,-112.475C684.114,-101.986 737.855,-87.8367 774.755,-78.1221"/>
<polygon fill="midnightblue" stroke="midnightblue" points="775.911,-81.4371 784.69,-75.5064 774.129,-74.6678 775.911,-81.4371"/>
</g>
<!-- Node7&#45;&gt;Node4 -->
<g id="edge15" class="edge"><title>Node7&#45;&gt;Node4</title>
<path fill="none" stroke="midnightblue" d="M468.971,-117.819C464.612,-99.1732 454.272,-54.943 448.355,-29.6317"/>
<polygon fill="midnightblue" stroke="midnightblue" points="451.737,-28.7228 446.053,-19.782 444.921,-30.3162 451.737,-28.7228"/>
</g>
<!-- Node8 -->
<g id="node9" class="node"><title>Node8</title>
<g id="a_node9"><a xlink:href="types_8h.html" target="_top" xlink:title="types.h">
<polygon fill="white" stroke="black" points="618,-56.5 618,-75.5 670,-75.5 670,-56.5 618,-56.5"/>
<text text-anchor="middle" x="644" y="-63.5" font-family="Helvetica,sans-Serif" font-size="10.00">types.h</text>
</a>
</g>
</g>
<!-- Node7&#45;&gt;Node8 -->
<g id="edge9" class="edge"><title>Node7&#45;&gt;Node8</title>
<path fill="none" stroke="midnightblue" d="M495.787,-117.975C525.591,-107.725 575.791,-90.4593 609.402,-78.8994"/>
<polygon fill="midnightblue" stroke="midnightblue" points="610.941,-82.0712 619.259,-75.5091 608.665,-75.4518 610.941,-82.0712"/>
</g>
<!-- Node9 -->
<g id="node10" class="node"><title>Node9</title>
<polygon fill="white" stroke="#bfbfbf" points="354,-56.5 354,-75.5 416,-75.5 416,-56.5 354,-56.5"/>
<text text-anchor="middle" x="385" y="-63.5" font-family="Helvetica,sans-Serif" font-size="10.00">algorithm</text>
</g>
<!-- Node7&#45;&gt;Node9 -->
<g id="edge10" class="edge"><title>Node7&#45;&gt;Node9</title>
<path fill="none" stroke="midnightblue" d="M458.678,-117.975C444.884,-108.431 422.301,-92.8073 405.768,-81.3683"/>
<polygon fill="midnightblue" stroke="midnightblue" points="407.514,-78.3205 397.299,-75.5091 403.531,-84.077 407.514,-78.3205"/>
</g>
<!-- Node10 -->
<g id="node11" class="node"><title>Node10</title>
<polygon fill="white" stroke="#bfbfbf" points="688,-56.5 688,-75.5 752,-75.5 752,-56.5 688,-56.5"/>
<text text-anchor="middle" x="720" y="-63.5" font-family="Helvetica,sans-Serif" font-size="10.00">stdexcept</text>
</g>
<!-- Node7&#45;&gt;Node10 -->
<g id="edge11" class="edge"><title>Node7&#45;&gt;Node10</title>
<path fill="none" stroke="midnightblue" d="M500.634,-117.975C507.929,-115.949 515.732,-113.842 523,-112 551.891,-104.677 629.216,-87.2506 677.953,-76.359"/>
<polygon fill="midnightblue" stroke="midnightblue" points="678.894,-79.7351 687.891,-74.1401 677.369,-72.9033 678.894,-79.7351"/>
</g>
<!-- Node11 -->
<g id="node12" class="node"><title>Node11</title>
<polygon fill="white" stroke="#bfbfbf" points="218,-56.5 218,-75.5 260,-75.5 260,-56.5 218,-56.5"/>
<text text-anchor="middle" x="239" y="-63.5" font-family="Helvetica,sans-Serif" font-size="10.00">limits</text>
</g>
<!-- Node7&#45;&gt;Node11 -->
<g id="edge12" class="edge"><title>Node7&#45;&gt;Node11</title>
<path fill="none" stroke="midnightblue" d="M434.743,-117.973C396.19,-108.787 333.217,-93.446 270.004,-76.1867"/>
<polygon fill="midnightblue" stroke="midnightblue" points="270.84,-72.7868 260.27,-73.5141 268.986,-79.537 270.84,-72.7868"/>
</g>
<!-- Node12 -->
<g id="node13" class="node"><title>Node12</title>
<polygon fill="white" stroke="#bfbfbf" points="472.5,-56.5 472.5,-75.5 525.5,-75.5 525.5,-56.5 472.5,-56.5"/>
<text text-anchor="middle" x="499" y="-63.5" font-family="Helvetica,sans-Serif" font-size="10.00">istream</text>
</g>
<!-- Node7&#45;&gt;Node12 -->
<g id="edge13" class="edge"><title>Node7&#45;&gt;Node12</title>
<path fill="none" stroke="midnightblue" d="M475.012,-117.975C479.087,-109.315 485.518,-95.6486 490.696,-84.6453"/>
<polygon fill="midnightblue" stroke="midnightblue" points="493.905,-86.0476 494.996,-75.5091 487.571,-83.067 493.905,-86.0476"/>
</g>
<!-- Node13 -->
<g id="node14" class="node"><title>Node13</title>
<polygon fill="white" stroke="#bfbfbf" points="544,-56.5 544,-75.5 600,-75.5 600,-56.5 544,-56.5"/>
<text text-anchor="middle" x="572" y="-63.5" font-family="Helvetica,sans-Serif" font-size="10.00">sstream</text>
</g>
<!-- Node7&#45;&gt;Node13 -->
<g id="edge14" class="edge"><title>Node7&#45;&gt;Node13</title>
<path fill="none" stroke="midnightblue" d="M485.471,-117.975C501.971,-108.255 529.178,-92.2266 548.681,-80.7372"/>
<polygon fill="midnightblue" stroke="midnightblue" points="550.716,-83.6005 557.556,-75.5091 547.163,-77.5693 550.716,-83.6005"/>
</g>
<!-- Node14&#45;&gt;Node1 -->
<g id="edge19" class="edge"><title>Node14&#45;&gt;Node1</title>
<path fill="none" stroke="midnightblue" d="M56.2807,-117.975C54.5698,-109.492 51.8899,-96.2043 49.6952,-85.3222"/>
<polygon fill="midnightblue" stroke="midnightblue" points="53.1241,-84.6197 47.7161,-75.5091 46.2623,-86.0037 53.1241,-84.6197"/>
</g>
<!-- Node14&#45;&gt;Node4 -->
<g id="edge17" class="edge"><title>Node14&#45;&gt;Node4</title>
<path fill="none" stroke="midnightblue" d="M45.3864,-117.845C26.5263,-103.887 -4.98157,-75.9567 13,-56 39.4848,-26.606 313.474,-15.134 410.318,-11.978"/>
<polygon fill="midnightblue" stroke="midnightblue" points="410.556,-15.4723 420.441,-11.6576 410.335,-8.47578 410.556,-15.4723"/>
</g>
<!-- Node14&#45;&gt;Node11 -->
<g id="edge18" class="edge"><title>Node14&#45;&gt;Node11</title>
<path fill="none" stroke="midnightblue" d="M83.9329,-117.975C116.762,-107.183 173.244,-88.616 208.223,-77.1174"/>
<polygon fill="midnightblue" stroke="midnightblue" points="209.502,-80.3811 217.909,-73.9332 207.316,-73.7312 209.502,-80.3811"/>
</g>
<!-- Node15&#45;&gt;Node1 -->
<g id="edge22" class="edge"><title>Node15&#45;&gt;Node1</title>
<path fill="none" stroke="midnightblue" d="M228.482,-117.975C188.927,-106.926 120.195,-87.7257 79.3168,-76.3068"/>
<polygon fill="midnightblue" stroke="midnightblue" points="80.1319,-72.9006 69.559,-73.581 78.2486,-79.6425 80.1319,-72.9006"/>
</g>
<!-- Node15&#45;&gt;Node9 -->
<g id="edge24" class="edge"><title>Node15&#45;&gt;Node9</title>
<path fill="none" stroke="midnightblue" d="M277.053,-117.975C298.198,-107.99 333.44,-91.3476 357.878,-79.8075"/>
<polygon fill="midnightblue" stroke="midnightblue" points="359.433,-82.9441 366.981,-75.5091 356.444,-76.6143 359.433,-82.9441"/>
</g>
<!-- Node16 -->
<g id="node17" class="node"><title>Node16</title>
<polygon fill="white" stroke="#bfbfbf" points="88,-56.5 88,-75.5 138,-75.5 138,-56.5 88,-56.5"/>
<text text-anchor="middle" x="113" y="-63.5" font-family="Helvetica,sans-Serif" font-size="10.00">TTree.h</text>
</g>
<!-- Node15&#45;&gt;Node16 -->
<g id="edge21" class="edge"><title>Node15&#45;&gt;Node16</title>
<path fill="none" stroke="midnightblue" d="M238.082,-117.975C213.254,-107.857 171.657,-90.9046 143.306,-79.3507"/>
<polygon fill="midnightblue" stroke="midnightblue" points="144.461,-76.0419 133.879,-75.5091 141.819,-82.5243 144.461,-76.0419"/>
</g>
<!-- Node17 -->
<g id="node18" class="node"><title>Node17</title>
<polygon fill="white" stroke="#bfbfbf" points="156,-56.5 156,-75.5 200,-75.5 200,-56.5 156,-56.5"/>
<text text-anchor="middle" x="178" y="-63.5" font-family="Helvetica,sans-Serif" font-size="10.00">string</text>
</g>
<!-- Node15&#45;&gt;Node17 -->
<g id="edge23" class="edge"><title>Node15&#45;&gt;Node17</title>
<path fill="none" stroke="midnightblue" d="M247.395,-117.975C234.523,-108.52 213.526,-93.0961 197.994,-81.6871"/>
<polygon fill="midnightblue" stroke="midnightblue" points="199.715,-78.6085 189.584,-75.5091 195.571,-84.25 199.715,-78.6085"/>
</g>
<!-- Node18 -->
<g id="node19" class="node"><title>Node18</title>
<polygon fill="white" stroke="#bfbfbf" points="278.5,-56.5 278.5,-75.5 335.5,-75.5 335.5,-56.5 278.5,-56.5"/>
<text text-anchor="middle" x="307" y="-63.5" font-family="Helvetica,sans-Serif" font-size="10.00">memory</text>
</g>
<!-- Node15&#45;&gt;Node18 -->
<g id="edge25" class="edge"><title>Node15&#45;&gt;Node18</title>
<path fill="none" stroke="midnightblue" d="M265.877,-117.975C273.149,-108.962 284.795,-94.5246 293.841,-83.3118"/>
<polygon fill="midnightblue" stroke="midnightblue" points="296.581,-85.4898 300.136,-75.5091 291.133,-81.0946 296.581,-85.4898"/>
</g>
</g>
</svg>
