<?xml version="1.0" encoding="UTF-8" standalone="no"?>
<!DOCTYPE svg PUBLIC "-//W3C//DTD SVG 1.1//EN"
 "http://www.w3.org/Graphics/SVG/1.1/DTD/svg11.dtd">
<!-- Generated by graphviz version 2.38.0 (20140413.2041)
 -->
<!-- Title: progs/detail/TPCSim_tools.h Pages: 1 -->
<svg width="236pt" height="106pt"
 viewBox="0.00 0.00 236.00 106.00" xmlns="http://www.w3.org/2000/svg" xmlns:xlink="http://www.w3.org/1999/xlink">
<g id="graph0" class="graph" transform="scale(1 1) rotate(0) translate(4 102)">
<title>progs/detail/TPCSim_tools.h</title>
<polygon fill="white" stroke="none" points="-4,4 -4,-102 232,-102 232,4 -4,4"/>
<!-- Node20 -->
<g id="node1" class="node"><title>Node20</title>
<polygon fill="#bfbfbf" stroke="black" points="61,-67.5 61,-97.5 174,-97.5 174,-67.5 61,-67.5"/>
<text text-anchor="start" x="69" y="-85.5" font-family="Helvetica,sans-Serif" font-size="10.00">progs/detail/TPCSim</text>
<text text-anchor="middle" x="117.5" y="-74.5" font-family="Helvetica,sans-Serif" font-size="10.00">_tools.h</text>
</g>
<!-- Node21 -->
<g id="node2" class="node"><title>Node21</title>
<g id="a_node2"><a xlink:href="_t_p_c_sim__tools_8cc.html" target="_top" xlink:title="progs/detail/TPCSim\l_tools.cc">
<polygon fill="white" stroke="black" points="0,-0.5 0,-30.5 113,-30.5 113,-0.5 0,-0.5"/>
<text text-anchor="start" x="8" y="-18.5" font-family="Helvetica,sans-Serif" font-size="10.00">progs/detail/TPCSim</text>
<text text-anchor="middle" x="56.5" y="-7.5" font-family="Helvetica,sans-Serif" font-size="10.00">_tools.cc</text>
</a>
</g>
</g>
<!-- Node20&#45;&gt;Node21 -->
<g id="edge1" class="edge"><title>Node20&#45;&gt;Node21</title>
<path fill="none" stroke="midnightblue" d="M97.3458,-60.0243C88.2574,-50.3398 77.7786,-39.1739 69.7103,-30.5765"/>
<polygon fill="midnightblue" stroke="midnightblue" points="94.8686,-62.4992 104.264,-67.396 99.9729,-57.709 94.8686,-62.4992"/>
</g>
<!-- Node22 -->
<g id="node3" class="node"><title>Node22</title>
<g id="a_node3"><a xlink:href="_t_p_c_sim_8cc.html" target="_top" xlink:title="progs/TPCSim.cc">
<polygon fill="white" stroke="black" points="131,-6 131,-25 228,-25 228,-6 131,-6"/>
<text text-anchor="middle" x="179.5" y="-13" font-family="Helvetica,sans-Serif" font-size="10.00">progs/TPCSim.cc</text>
</a>
</g>
</g>
<!-- Node20&#45;&gt;Node22 -->
<g id="edge2" class="edge"><title>Node20&#45;&gt;Node22</title>
<path fill="none" stroke="midnightblue" d="M138.011,-59.9967C149.328,-48.1323 162.759,-34.0516 171.207,-25.1945"/>
<polygon fill="midnightblue" stroke="midnightblue" points="135.323,-57.7441 130.953,-67.396 140.388,-62.5756 135.323,-57.7441"/>
</g>
</g>
</svg>
