<?xml version="1.0" encoding="UTF-8" standalone="no"?>
<!DOCTYPE svg PUBLIC "-//W3C//DTD SVG 1.1//EN"
 "http://www.w3.org/Graphics/SVG/1.1/DTD/svg11.dtd">
<!-- Generated by graphviz version 2.38.0 (20140413.2041)
 -->
<!-- Title: src/tree/TSimpleParticle.h Pages: 1 -->
<svg width="2468pt" height="262pt"
 viewBox="0.00 0.00 2467.50 262.00" xmlns="http://www.w3.org/2000/svg" xmlns:xlink="http://www.w3.org/1999/xlink">
<g id="graph0" class="graph" transform="scale(1 1) rotate(0) translate(4 258)">
<title>src/tree/TSimpleParticle.h</title>
<polygon fill="white" stroke="none" points="-4,4 -4,-258 2463.5,-258 2463.5,4 -4,4"/>
<!-- Node43 -->
<g id="node1" class="node"><title>Node43</title>
<polygon fill="#bfbfbf" stroke="black" points="1444,-234.5 1444,-253.5 1582,-253.5 1582,-234.5 1444,-234.5"/>
<text text-anchor="middle" x="1513" y="-241.5" font-family="Helvetica,sans-Serif" font-size="10.00">src/tree/TSimpleParticle.h</text>
</g>
<!-- Node44 -->
<g id="node2" class="node"><title>Node44</title>
<g id="a_node2"><a xlink:href="etaprime__dalitz_8h.html" target="_top" xlink:title="src/analysis/physics\l/etaprime/etaprime_dalitz.h">
<polygon fill="white" stroke="black" points="405.5,-162 405.5,-192 554.5,-192 554.5,-162 405.5,-162"/>
<text text-anchor="start" x="413.5" y="-180" font-family="Helvetica,sans-Serif" font-size="10.00">src/analysis/physics</text>
<text text-anchor="middle" x="480" y="-169" font-family="Helvetica,sans-Serif" font-size="10.00">/etaprime/etaprime_dalitz.h</text>
</a>
</g>
</g>
<!-- Node43&#45;&gt;Node44 -->
<g id="edge1" class="edge"><title>Node43&#45;&gt;Node44</title>
<path fill="none" stroke="midnightblue" d="M1433.49,-237.997C1239.4,-225.784 743.472,-194.579 554.589,-182.693"/>
<polygon fill="midnightblue" stroke="midnightblue" points="1433.42,-241.499 1443.62,-238.634 1433.86,-234.513 1433.42,-241.499"/>
</g>
<!-- Node51 -->
<g id="node9" class="node"><title>Node51</title>
<g id="a_node9"><a xlink:href="_etap_omega_g_8h.html" target="_top" xlink:title="src/analysis/physics\l/etaprime/EtapOmegaG.h">
<polygon fill="white" stroke="black" points="890,-162 890,-192 1030,-192 1030,-162 890,-162"/>
<text text-anchor="start" x="898" y="-180" font-family="Helvetica,sans-Serif" font-size="10.00">src/analysis/physics</text>
<text text-anchor="middle" x="960" y="-169" font-family="Helvetica,sans-Serif" font-size="10.00">/etaprime/EtapOmegaG.h</text>
</a>
</g>
</g>
<!-- Node43&#45;&gt;Node51 -->
<g id="edge8" class="edge"><title>Node43&#45;&gt;Node51</title>
<path fill="none" stroke="midnightblue" d="M1433.64,-236.645C1345.37,-229.168 1198.64,-215.52 1073,-198 1059.09,-196.06 1044.27,-193.672 1030.1,-191.23"/>
<polygon fill="midnightblue" stroke="midnightblue" points="1433.58,-240.153 1443.84,-237.504 1434.17,-233.178 1433.58,-240.153"/>
</g>
<!-- Node54 -->
<g id="node12" class="node"><title>Node54</title>
<g id="a_node12"><a xlink:href="_etap_omega_g__simple_8cc.html" target="_top" xlink:title="src/analysis/physics\l/etaprime/EtapOmegaG\l_simple.cc">
<polygon fill="white" stroke="black" points="1082.5,-156.5 1082.5,-197.5 1213.5,-197.5 1213.5,-156.5 1082.5,-156.5"/>
<text text-anchor="start" x="1090.5" y="-185.5" font-family="Helvetica,sans-Serif" font-size="10.00">src/analysis/physics</text>
<text text-anchor="start" x="1090.5" y="-174.5" font-family="Helvetica,sans-Serif" font-size="10.00">/etaprime/EtapOmegaG</text>
<text text-anchor="middle" x="1148" y="-163.5" font-family="Helvetica,sans-Serif" font-size="10.00">_simple.cc</text>
</a>
</g>
</g>
<!-- Node43&#45;&gt;Node54 -->
<g id="edge11" class="edge"><title>Node43&#45;&gt;Node54</title>
<path fill="none" stroke="midnightblue" d="M1434.73,-233.158C1376.14,-225.234 1294.17,-212.967 1223,-198 1219.97,-197.362 1216.87,-196.677 1213.75,-195.96"/>
<polygon fill="midnightblue" stroke="midnightblue" points="1434.28,-236.629 1444.66,-234.49 1435.21,-229.691 1434.28,-236.629"/>
</g>
<!-- Node55 -->
<g id="node13" class="node"><title>Node55</title>
<g id="a_node13"><a xlink:href="_omega___ep_em_8h.html" target="_top" xlink:title="src/analysis/physics\l/omega/Omega_EpEm.h">
<polygon fill="white" stroke="black" points="1232,-162 1232,-192 1366,-192 1366,-162 1232,-162"/>
<text text-anchor="start" x="1240" y="-180" font-family="Helvetica,sans-Serif" font-size="10.00">src/analysis/physics</text>
<text text-anchor="middle" x="1299" y="-169" font-family="Helvetica,sans-Serif" font-size="10.00">/omega/Omega_EpEm.h</text>
</a>
</g>
</g>
<!-- Node43&#45;&gt;Node55 -->
<g id="edge12" class="edge"><title>Node43&#45;&gt;Node55</title>
<path fill="none" stroke="midnightblue" d="M1474.86,-231.417C1438.58,-220.395 1383.92,-203.794 1345.18,-192.028"/>
<polygon fill="midnightblue" stroke="midnightblue" points="1474,-234.811 1484.58,-234.369 1476.03,-228.113 1474,-234.811"/>
</g>
<!-- Node58 -->
<g id="node16" class="node"><title>Node58</title>
<g id="a_node16"><a xlink:href="pi0eta__lost__g_8h.html" target="_top" xlink:title="src/analysis/physics\l/omega/pi0eta_lost_g.h">
<polygon fill="white" stroke="black" points="1392.5,-162 1392.5,-192 1521.5,-192 1521.5,-162 1392.5,-162"/>
<text text-anchor="start" x="1400.5" y="-180" font-family="Helvetica,sans-Serif" font-size="10.00">src/analysis/physics</text>
<text text-anchor="middle" x="1457" y="-169" font-family="Helvetica,sans-Serif" font-size="10.00">/omega/pi0eta_lost_g.h</text>
</a>
</g>
</g>
<!-- Node43&#45;&gt;Node58 -->
<g id="edge15" class="edge"><title>Node43&#45;&gt;Node58</title>
<path fill="none" stroke="midnightblue" d="M1498.78,-226.489C1489.62,-215.864 1477.85,-202.202 1469.14,-192.089"/>
<polygon fill="midnightblue" stroke="midnightblue" points="1496.27,-228.942 1505.45,-234.234 1501.57,-224.373 1496.27,-228.942"/>
</g>
<!-- Node60 -->
<g id="node18" class="node"><title>Node60</title>
<g id="a_node18"><a xlink:href="sigma_plus_8h.html" target="_top" xlink:title="src/analysis/physics\l/production/sigmaPlus.h">
<polygon fill="white" stroke="black" points="1532.5,-84 1532.5,-114 1663.5,-114 1663.5,-84 1532.5,-84"/>
<text text-anchor="start" x="1540.5" y="-102" font-family="Helvetica,sans-Serif" font-size="10.00">src/analysis/physics</text>
<text text-anchor="middle" x="1598" y="-91" font-family="Helvetica,sans-Serif" font-size="10.00">/production/sigmaPlus.h</text>
</a>
</g>
</g>
<!-- Node43&#45;&gt;Node60 -->
<g id="edge17" class="edge"><title>Node43&#45;&gt;Node60</title>
<path fill="none" stroke="midnightblue" d="M1523.32,-225.641C1540.28,-197.103 1573.74,-140.807 1589.46,-114.362"/>
<polygon fill="midnightblue" stroke="midnightblue" points="1520.16,-224.098 1518.06,-234.483 1526.18,-227.675 1520.16,-224.098"/>
</g>
<!-- Node63 -->
<g id="node21" class="node"><title>Node63</title>
<g id="a_node21"><a xlink:href="single_pi0_8h.html" target="_top" xlink:title="src/analysis/physics\l/production/singlePi0.h">
<polygon fill="white" stroke="black" points="1681.5,-84 1681.5,-114 1806.5,-114 1806.5,-84 1681.5,-84"/>
<text text-anchor="start" x="1689.5" y="-102" font-family="Helvetica,sans-Serif" font-size="10.00">src/analysis/physics</text>
<text text-anchor="middle" x="1744" y="-91" font-family="Helvetica,sans-Serif" font-size="10.00">/production/singlePi0.h</text>
</a>
</g>
</g>
<!-- Node43&#45;&gt;Node63 -->
<g id="edge20" class="edge"><title>Node43&#45;&gt;Node63</title>
<path fill="none" stroke="midnightblue" d="M1535.29,-229.201C1579.26,-201.981 1676.75,-141.63 1721.16,-114.138"/>
<polygon fill="midnightblue" stroke="midnightblue" points="1533.42,-226.243 1526.76,-234.483 1537.1,-232.195 1533.42,-226.243"/>
</g>
<!-- Node66 -->
<g id="node24" class="node"><title>Node66</title>
<g id="a_node24"><a xlink:href="triple_pi0_8h.html" target="_top" xlink:title="src/analysis/physics\l/production/triplePi0.h">
<polygon fill="white" stroke="black" points="2032.5,-84 2032.5,-114 2153.5,-114 2153.5,-84 2032.5,-84"/>
<text text-anchor="start" x="2040.5" y="-102" font-family="Helvetica,sans-Serif" font-size="10.00">src/analysis/physics</text>
<text text-anchor="middle" x="2093" y="-91" font-family="Helvetica,sans-Serif" font-size="10.00">/production/triplePi0.h</text>
</a>
</g>
</g>
<!-- Node43&#45;&gt;Node66 -->
<g id="edge23" class="edge"><title>Node43&#45;&gt;Node66</title>
<path fill="none" stroke="midnightblue" d="M1592.46,-239.406C1684.2,-234.18 1828.69,-222.321 1877,-198 1900.02,-186.409 1895.14,-169.669 1917,-156 1937.53,-143.163 1995.07,-125.986 2038.82,-114.056"/>
<polygon fill="midnightblue" stroke="midnightblue" points="1592.16,-235.917 1582.37,-239.966 1592.55,-242.906 1592.16,-235.917"/>
</g>
<!-- Node70 -->
<g id="node28" class="node"><title>Node70</title>
<g id="a_node28"><a xlink:href="src_2analysis_2physics_2scratch_2wolfes_2tools_2tools_8h.html" target="_top" xlink:title="src/analysis/physics\l/scratch/wolfes/tools\l/tools.h">
<polygon fill="white" stroke="black" points="1755.5,-156.5 1755.5,-197.5 1868.5,-197.5 1868.5,-156.5 1755.5,-156.5"/>
<text text-anchor="start" x="1763.5" y="-185.5" font-family="Helvetica,sans-Serif" font-size="10.00">src/analysis/physics</text>
<text text-anchor="start" x="1763.5" y="-174.5" font-family="Helvetica,sans-Serif" font-size="10.00">/scratch/wolfes/tools</text>
<text text-anchor="middle" x="1812" y="-163.5" font-family="Helvetica,sans-Serif" font-size="10.00">/tools.h</text>
</a>
</g>
</g>
<!-- Node43&#45;&gt;Node70 -->
<g id="edge27" class="edge"><title>Node43&#45;&gt;Node70</title>
<path fill="none" stroke="midnightblue" d="M1562.25,-232.293C1615.32,-220.757 1699.64,-202.427 1755.4,-190.305"/>
<polygon fill="midnightblue" stroke="midnightblue" points="1561.42,-228.891 1552.4,-234.436 1562.91,-235.731 1561.42,-228.891"/>
</g>
<!-- Node72 -->
<g id="node30" class="node"><title>Node72</title>
<g id="a_node30"><a xlink:href="_t_simple_particle_8cc.html" target="_top" xlink:title="src/tree/TSimpleParticle.cc">
<polygon fill="white" stroke="black" points="1925.5,-167.5 1925.5,-186.5 2068.5,-186.5 2068.5,-167.5 1925.5,-167.5"/>
<text text-anchor="middle" x="1997" y="-174.5" font-family="Helvetica,sans-Serif" font-size="10.00">src/tree/TSimpleParticle.cc</text>
</a>
</g>
</g>
<!-- Node43&#45;&gt;Node72 -->
<g id="edge34" class="edge"><title>Node43&#45;&gt;Node72</title>
<path fill="none" stroke="midnightblue" d="M1592.08,-236.779C1672.67,-229.803 1801.09,-216.929 1911,-198 1928.67,-194.956 1948.16,-190.517 1964.1,-186.594"/>
<polygon fill="midnightblue" stroke="midnightblue" points="1591.68,-233.301 1582.01,-237.642 1592.27,-240.275 1591.68,-233.301"/>
</g>
<!-- Node45 -->
<g id="node3" class="node"><title>Node45</title>
<g id="a_node3"><a xlink:href="_etap_dalitz__fit_8cc.html" target="_top" xlink:title="progs/EtapDalitz_fit.cc">
<polygon fill="white" stroke="black" points="358.5,-89.5 358.5,-108.5 481.5,-108.5 481.5,-89.5 358.5,-89.5"/>
<text text-anchor="middle" x="420" y="-96.5" font-family="Helvetica,sans-Serif" font-size="10.00">progs/EtapDalitz_fit.cc</text>
</a>
</g>
</g>
<!-- Node44&#45;&gt;Node45 -->
<g id="edge2" class="edge"><title>Node44&#45;&gt;Node45</title>
<path fill="none" stroke="midnightblue" d="M462.468,-153.793C450.518,-138.656 435.357,-119.452 426.761,-108.564"/>
<polygon fill="midnightblue" stroke="midnightblue" points="459.771,-156.025 468.714,-161.705 465.265,-151.687 459.771,-156.025"/>
</g>
<!-- Node46 -->
<g id="node4" class="node"><title>Node46</title>
<g id="a_node4"><a xlink:href="_p_c_a_8cc.html" target="_top" xlink:title="Tool to perform a Principal Component Analysis, based on ROOTs TPrincipal class, to create principal ...">
<polygon fill="white" stroke="black" points="500,-89.5 500,-108.5 580,-108.5 580,-89.5 500,-89.5"/>
<text text-anchor="middle" x="540" y="-96.5" font-family="Helvetica,sans-Serif" font-size="10.00">progs/PCA.cc</text>
</a>
</g>
</g>
<!-- Node44&#45;&gt;Node46 -->
<g id="edge3" class="edge"><title>Node44&#45;&gt;Node46</title>
<path fill="none" stroke="midnightblue" d="M497.532,-153.793C509.482,-138.656 524.643,-119.452 533.239,-108.564"/>
<polygon fill="midnightblue" stroke="midnightblue" points="494.735,-151.687 491.286,-161.705 500.229,-156.025 494.735,-151.687"/>
</g>
<!-- Node47 -->
<g id="node5" class="node"><title>Node47</title>
<g id="a_node5"><a xlink:href="_etap_dalitz__plot_8cc.html" target="_top" xlink:title="src/analysis/physics\l/etaprime/EtapDalitz\l_plot.cc">
<polygon fill="white" stroke="black" points="598.5,-78.5 598.5,-119.5 713.5,-119.5 713.5,-78.5 598.5,-78.5"/>
<text text-anchor="start" x="606.5" y="-107.5" font-family="Helvetica,sans-Serif" font-size="10.00">src/analysis/physics</text>
<text text-anchor="start" x="606.5" y="-96.5" font-family="Helvetica,sans-Serif" font-size="10.00">/etaprime/EtapDalitz</text>
<text text-anchor="middle" x="656" y="-85.5" font-family="Helvetica,sans-Serif" font-size="10.00">_plot.cc</text>
</a>
</g>
</g>
<!-- Node44&#45;&gt;Node47 -->
<g id="edge4" class="edge"><title>Node44&#45;&gt;Node47</title>
<path fill="none" stroke="midnightblue" d="M522.136,-157.805C548.802,-146.29 583.266,-131.408 610.546,-119.628"/>
<polygon fill="midnightblue" stroke="midnightblue" points="520.485,-154.705 512.692,-161.883 523.26,-161.132 520.485,-154.705"/>
</g>
<!-- Node48 -->
<g id="node6" class="node"><title>Node48</title>
<g id="a_node6"><a xlink:href="etaprime__dalitz_8cc.html" target="_top" xlink:title="src/analysis/physics\l/etaprime/etaprime_dalitz.cc">
<polygon fill="white" stroke="black" points="0,-84 0,-114 154,-114 154,-84 0,-84"/>
<text text-anchor="start" x="8" y="-102" font-family="Helvetica,sans-Serif" font-size="10.00">src/analysis/physics</text>
<text text-anchor="middle" x="77" y="-91" font-family="Helvetica,sans-Serif" font-size="10.00">/etaprime/etaprime_dalitz.cc</text>
</a>
</g>
</g>
<!-- Node44&#45;&gt;Node48 -->
<g id="edge5" class="edge"><title>Node44&#45;&gt;Node48</title>
<path fill="none" stroke="midnightblue" d="M395.446,-162.331C331.452,-151.678 241.48,-136.046 163,-120 154.139,-118.188 144.795,-116.149 135.66,-114.084"/>
<polygon fill="midnightblue" stroke="midnightblue" points="395.05,-165.813 405.488,-163.997 396.195,-158.907 395.05,-165.813"/>
</g>
<!-- Node49 -->
<g id="node7" class="node"><title>Node49</title>
<g id="a_node7"><a xlink:href="_etap_dalitz_m_c_8h.html" target="_top" xlink:title="src/analysis/physics\l/scratch/wagner/EtapDalitzMC.h">
<polygon fill="white" stroke="black" points="172,-84 172,-114 340,-114 340,-84 172,-84"/>
<text text-anchor="start" x="180" y="-102" font-family="Helvetica,sans-Serif" font-size="10.00">src/analysis/physics</text>
<text text-anchor="middle" x="256" y="-91" font-family="Helvetica,sans-Serif" font-size="10.00">/scratch/wagner/EtapDalitzMC.h</text>
</a>
</g>
</g>
<!-- Node44&#45;&gt;Node49 -->
<g id="edge6" class="edge"><title>Node44&#45;&gt;Node49</title>
<path fill="none" stroke="midnightblue" d="M429.129,-158.74C389.322,-145.234 334.665,-126.69 297.484,-114.075"/>
<polygon fill="midnightblue" stroke="midnightblue" points="428.06,-162.073 438.654,-161.972 430.309,-155.444 428.06,-162.073"/>
</g>
<!-- Node50 -->
<g id="node8" class="node"><title>Node50</title>
<g id="a_node8"><a xlink:href="_etap_dalitz_m_c_8cc.html" target="_top" xlink:title="src/analysis/physics\l/scratch/wagner/EtapDalitzMC.cc">
<polygon fill="white" stroke="black" points="169.5,-6 169.5,-36 342.5,-36 342.5,-6 169.5,-6"/>
<text text-anchor="start" x="177.5" y="-24" font-family="Helvetica,sans-Serif" font-size="10.00">src/analysis/physics</text>
<text text-anchor="middle" x="256" y="-13" font-family="Helvetica,sans-Serif" font-size="10.00">/scratch/wagner/EtapDalitzMC.cc</text>
</a>
</g>
</g>
<!-- Node49&#45;&gt;Node50 -->
<g id="edge7" class="edge"><title>Node49&#45;&gt;Node50</title>
<path fill="none" stroke="midnightblue" d="M256,-73.5898C256,-61.2565 256,-46.7237 256,-36.2309"/>
<polygon fill="midnightblue" stroke="midnightblue" points="252.5,-73.7049 256,-83.705 259.5,-73.705 252.5,-73.7049"/>
</g>
<!-- Node52 -->
<g id="node10" class="node"><title>Node52</title>
<g id="a_node10"><a xlink:href="_etap_omega_g_8cc.html" target="_top" xlink:title="src/analysis/physics\l/etaprime/EtapOmegaG.cc">
<polygon fill="white" stroke="black" points="732,-84 732,-114 876,-114 876,-84 732,-84"/>
<text text-anchor="start" x="740" y="-102" font-family="Helvetica,sans-Serif" font-size="10.00">src/analysis/physics</text>
<text text-anchor="middle" x="804" y="-91" font-family="Helvetica,sans-Serif" font-size="10.00">/etaprime/EtapOmegaG.cc</text>
</a>
</g>
</g>
<!-- Node51&#45;&gt;Node52 -->
<g id="edge9" class="edge"><title>Node51&#45;&gt;Node52</title>
<path fill="none" stroke="midnightblue" d="M921.717,-157.349C894.257,-143.971 857.839,-126.229 832.822,-114.041"/>
<polygon fill="midnightblue" stroke="midnightblue" points="920.5,-160.65 931.023,-161.883 923.566,-154.357 920.5,-160.65"/>
</g>
<!-- Node53 -->
<g id="node11" class="node"><title>Node53</title>
<g id="a_node11"><a xlink:href="_etap_omega_g__plot_8cc.html" target="_top" xlink:title="src/analysis/physics\l/etaprime/EtapOmegaG\l_plot.cc">
<polygon fill="white" stroke="black" points="894.5,-78.5 894.5,-119.5 1025.5,-119.5 1025.5,-78.5 894.5,-78.5"/>
<text text-anchor="start" x="902.5" y="-107.5" font-family="Helvetica,sans-Serif" font-size="10.00">src/analysis/physics</text>
<text text-anchor="start" x="902.5" y="-96.5" font-family="Helvetica,sans-Serif" font-size="10.00">/etaprime/EtapOmegaG</text>
<text text-anchor="middle" x="960" y="-85.5" font-family="Helvetica,sans-Serif" font-size="10.00">_plot.cc</text>
</a>
</g>
</g>
<!-- Node51&#45;&gt;Node53 -->
<g id="edge10" class="edge"><title>Node51&#45;&gt;Node53</title>
<path fill="none" stroke="midnightblue" d="M960,-151.656C960,-141.326 960,-129.443 960,-119.68"/>
<polygon fill="midnightblue" stroke="midnightblue" points="956.5,-151.705 960,-161.705 963.5,-151.705 956.5,-151.705"/>
</g>
<!-- Node56 -->
<g id="node14" class="node"><title>Node56</title>
<g id="a_node14"><a xlink:href="_omega___ep_em_8cc.html" target="_top" xlink:title="src/analysis/physics\l/omega/Omega_EpEm.cc">
<polygon fill="white" stroke="black" points="1044,-84 1044,-114 1182,-114 1182,-84 1044,-84"/>
<text text-anchor="start" x="1052" y="-102" font-family="Helvetica,sans-Serif" font-size="10.00">src/analysis/physics</text>
<text text-anchor="middle" x="1113" y="-91" font-family="Helvetica,sans-Serif" font-size="10.00">/omega/Omega_EpEm.cc</text>
</a>
</g>
</g>
<!-- Node55&#45;&gt;Node56 -->
<g id="edge13" class="edge"><title>Node55&#45;&gt;Node56</title>
<path fill="none" stroke="midnightblue" d="M1255.06,-158.046C1222.14,-144.593 1177.71,-126.442 1147.36,-114.041"/>
<polygon fill="midnightblue" stroke="midnightblue" points="1253.87,-161.341 1264.45,-161.883 1256.52,-154.861 1253.87,-161.341"/>
</g>
<!-- Node57 -->
<g id="node15" class="node"><title>Node57</title>
<g id="a_node15"><a xlink:href="_omega___ep_em__plot_8cc.html" target="_top" xlink:title="src/analysis/physics\l/omega/Omega_EpEm_plot.cc">
<polygon fill="white" stroke="black" points="1200.5,-84 1200.5,-114 1361.5,-114 1361.5,-84 1200.5,-84"/>
<text text-anchor="start" x="1208.5" y="-102" font-family="Helvetica,sans-Serif" font-size="10.00">src/analysis/physics</text>
<text text-anchor="middle" x="1281" y="-91" font-family="Helvetica,sans-Serif" font-size="10.00">/omega/Omega_EpEm_plot.cc</text>
</a>
</g>
</g>
<!-- Node55&#45;&gt;Node57 -->
<g id="edge14" class="edge"><title>Node55&#45;&gt;Node57</title>
<path fill="none" stroke="midnightblue" d="M1293.31,-151.963C1290.37,-139.551 1286.88,-124.83 1284.37,-114.231"/>
<polygon fill="midnightblue" stroke="midnightblue" points="1289.9,-152.781 1295.61,-161.705 1296.72,-151.168 1289.9,-152.781"/>
</g>
<!-- Node59 -->
<g id="node17" class="node"><title>Node59</title>
<g id="a_node17"><a xlink:href="pi0eta__lost__g_8cc.html" target="_top" xlink:title="src/analysis/physics\l/omega/pi0eta_lost_g.cc">
<polygon fill="white" stroke="black" points="1380,-84 1380,-114 1514,-114 1514,-84 1380,-84"/>
<text text-anchor="start" x="1388" y="-102" font-family="Helvetica,sans-Serif" font-size="10.00">src/analysis/physics</text>
<text text-anchor="middle" x="1447" y="-91" font-family="Helvetica,sans-Serif" font-size="10.00">/omega/pi0eta_lost_g.cc</text>
</a>
</g>
</g>
<!-- Node58&#45;&gt;Node59 -->
<g id="edge16" class="edge"><title>Node58&#45;&gt;Node59</title>
<path fill="none" stroke="midnightblue" d="M1453.79,-151.59C1452.17,-139.257 1450.25,-124.724 1448.87,-114.231"/>
<polygon fill="midnightblue" stroke="midnightblue" points="1450.34,-152.247 1455.12,-161.705 1457.28,-151.334 1450.34,-152.247"/>
</g>
<!-- Node61 -->
<g id="node19" class="node"><title>Node61</title>
<g id="a_node19"><a xlink:href="sigma_plus_8cc.html" target="_top" xlink:title="src/analysis/physics\l/production/sigmaPlus.cc">
<polygon fill="white" stroke="black" points="1348,-6 1348,-36 1484,-36 1484,-6 1348,-6"/>
<text text-anchor="start" x="1356" y="-24" font-family="Helvetica,sans-Serif" font-size="10.00">src/analysis/physics</text>
<text text-anchor="middle" x="1416" y="-13" font-family="Helvetica,sans-Serif" font-size="10.00">/production/sigmaPlus.cc</text>
</a>
</g>
</g>
<!-- Node60&#45;&gt;Node61 -->
<g id="edge18" class="edge"><title>Node60&#45;&gt;Node61</title>
<path fill="none" stroke="midnightblue" d="M1554.59,-79.8729C1522.42,-66.4372 1479.2,-48.3891 1449.63,-36.0413"/>
<polygon fill="midnightblue" stroke="midnightblue" points="1553.62,-83.2594 1564.19,-83.8831 1556.31,-76.8 1553.62,-83.2594"/>
</g>
<!-- Node62 -->
<g id="node20" class="node"><title>Node62</title>
<g id="a_node20"><a xlink:href="sigma_plus_plots_8cc.html" target="_top" xlink:title="src/analysis/physics\l/production/sigmaPlusPlots.cc">
<polygon fill="white" stroke="black" points="1502.5,-6 1502.5,-36 1661.5,-36 1661.5,-6 1502.5,-6"/>
<text text-anchor="start" x="1510.5" y="-24" font-family="Helvetica,sans-Serif" font-size="10.00">src/analysis/physics</text>
<text text-anchor="middle" x="1582" y="-13" font-family="Helvetica,sans-Serif" font-size="10.00">/production/sigmaPlusPlots.cc</text>
</a>
</g>
</g>
<!-- Node60&#45;&gt;Node62 -->
<g id="edge19" class="edge"><title>Node60&#45;&gt;Node62</title>
<path fill="none" stroke="midnightblue" d="M1592.86,-73.5898C1590.26,-61.2565 1587.2,-46.7237 1585,-36.2309"/>
<polygon fill="midnightblue" stroke="midnightblue" points="1589.51,-74.6405 1594.99,-83.705 1596.36,-73.1984 1589.51,-74.6405"/>
</g>
<!-- Node64 -->
<g id="node22" class="node"><title>Node64</title>
<g id="a_node22"><a xlink:href="single_pi0_8cc.html" target="_top" xlink:title="src/analysis/physics\l/production/singlePi0.cc">
<polygon fill="white" stroke="black" points="1679.5,-6 1679.5,-36 1808.5,-36 1808.5,-6 1679.5,-6"/>
<text text-anchor="start" x="1687.5" y="-24" font-family="Helvetica,sans-Serif" font-size="10.00">src/analysis/physics</text>
<text text-anchor="middle" x="1744" y="-13" font-family="Helvetica,sans-Serif" font-size="10.00">/production/singlePi0.cc</text>
</a>
</g>
</g>
<!-- Node63&#45;&gt;Node64 -->
<g id="edge21" class="edge"><title>Node63&#45;&gt;Node64</title>
<path fill="none" stroke="midnightblue" d="M1744,-73.5898C1744,-61.2565 1744,-46.7237 1744,-36.2309"/>
<polygon fill="midnightblue" stroke="midnightblue" points="1740.5,-73.7049 1744,-83.705 1747.5,-73.705 1740.5,-73.7049"/>
</g>
<!-- Node65 -->
<g id="node23" class="node"><title>Node65</title>
<g id="a_node23"><a xlink:href="single_pi0_plots_8cc.html" target="_top" xlink:title="src/analysis/physics\l/production/singlePi0Plots.cc">
<polygon fill="white" stroke="black" points="1827,-6 1827,-36 1979,-36 1979,-6 1827,-6"/>
<text text-anchor="start" x="1835" y="-24" font-family="Helvetica,sans-Serif" font-size="10.00">src/analysis/physics</text>
<text text-anchor="middle" x="1903" y="-13" font-family="Helvetica,sans-Serif" font-size="10.00">/production/singlePi0Plots.cc</text>
</a>
</g>
</g>
<!-- Node63&#45;&gt;Node65 -->
<g id="edge22" class="edge"><title>Node63&#45;&gt;Node65</title>
<path fill="none" stroke="midnightblue" d="M1782.65,-79.5244C1810.68,-66.1265 1848.01,-48.2827 1873.62,-36.0413"/>
<polygon fill="midnightblue" stroke="midnightblue" points="1781.05,-76.4127 1773.53,-83.8831 1784.07,-82.7283 1781.05,-76.4127"/>
</g>
<!-- Node67 -->
<g id="node25" class="node"><title>Node67</title>
<g id="a_node25"><a xlink:href="triple_pi0_8cc.html" target="_top" xlink:title="src/analysis/physics\l/production/triplePi0.cc">
<polygon fill="white" stroke="black" points="2167.5,-6 2167.5,-36 2292.5,-36 2292.5,-6 2167.5,-6"/>
<text text-anchor="start" x="2175.5" y="-24" font-family="Helvetica,sans-Serif" font-size="10.00">src/analysis/physics</text>
<text text-anchor="middle" x="2230" y="-13" font-family="Helvetica,sans-Serif" font-size="10.00">/production/triplePi0.cc</text>
</a>
</g>
</g>
<!-- Node66&#45;&gt;Node67 -->
<g id="edge24" class="edge"><title>Node66&#45;&gt;Node67</title>
<path fill="none" stroke="midnightblue" d="M2127.25,-78.9979C2151.29,-65.6619 2182.91,-48.123 2204.69,-36.0413"/>
<polygon fill="midnightblue" stroke="midnightblue" points="2125.49,-75.9714 2118.45,-83.8831 2128.89,-82.0926 2125.49,-75.9714"/>
</g>
<!-- Node68 -->
<g id="node26" class="node"><title>Node68</title>
<g id="a_node26"><a xlink:href="triple_pi0_plots_8cc.html" target="_top" xlink:title="src/analysis/physics\l/production/triplePi0Plots.cc">
<polygon fill="white" stroke="black" points="2310.5,-6 2310.5,-36 2459.5,-36 2459.5,-6 2310.5,-6"/>
<text text-anchor="start" x="2318.5" y="-24" font-family="Helvetica,sans-Serif" font-size="10.00">src/analysis/physics</text>
<text text-anchor="middle" x="2385" y="-13" font-family="Helvetica,sans-Serif" font-size="10.00">/production/triplePi0Plots.cc</text>
</a>
</g>
</g>
<!-- Node66&#45;&gt;Node68 -->
<g id="edge25" class="edge"><title>Node66&#45;&gt;Node68</title>
<path fill="none" stroke="midnightblue" d="M2156.7,-81.421C2208.79,-67.8634 2281.64,-48.9031 2330.92,-36.0749"/>
<polygon fill="midnightblue" stroke="midnightblue" points="2155.69,-78.0658 2146.9,-83.9719 2157.46,-84.8401 2155.69,-78.0658"/>
</g>
<!-- Node69 -->
<g id="node27" class="node"><title>Node69</title>
<g id="a_node27"><a xlink:href="_proton_vertex_test_8cc.html" target="_top" xlink:title="src/analysis/physics\l/scratch/wolfes/ProtonVertex\lTest.cc">
<polygon fill="white" stroke="black" points="1997,-0.5 1997,-41.5 2149,-41.5 2149,-0.5 1997,-0.5"/>
<text text-anchor="start" x="2005" y="-29.5" font-family="Helvetica,sans-Serif" font-size="10.00">src/analysis/physics</text>
<text text-anchor="start" x="2005" y="-18.5" font-family="Helvetica,sans-Serif" font-size="10.00">/scratch/wolfes/ProtonVertex</text>
<text text-anchor="middle" x="2073" y="-7.5" font-family="Helvetica,sans-Serif" font-size="10.00">Test.cc</text>
</a>
</g>
</g>
<!-- Node66&#45;&gt;Node69 -->
<g id="edge26" class="edge"><title>Node66&#45;&gt;Node69</title>
<path fill="none" stroke="midnightblue" d="M2086.68,-73.9817C2083.94,-63.5762 2080.78,-51.5453 2078.18,-41.68"/>
<polygon fill="midnightblue" stroke="midnightblue" points="2083.31,-74.925 2089.24,-83.705 2090.08,-73.1435 2083.31,-74.925"/>
</g>
<!-- Node70&#45;&gt;Node60 -->
<g id="edge28" class="edge"><title>Node70&#45;&gt;Node60</title>
<path fill="none" stroke="midnightblue" d="M1747.05,-152.934C1711.41,-140.277 1668.37,-124.991 1637.72,-114.106"/>
<polygon fill="midnightblue" stroke="midnightblue" points="1746.29,-156.38 1756.89,-156.428 1748.64,-149.783 1746.29,-156.38"/>
</g>
<!-- Node70&#45;&gt;Node63 -->
<g id="edge29" class="edge"><title>Node70&#45;&gt;Node63</title>
<path fill="none" stroke="midnightblue" d="M1787.53,-148.654C1777.11,-137.002 1765.38,-123.897 1756.73,-114.225"/>
<polygon fill="midnightblue" stroke="midnightblue" points="1785.21,-151.309 1794.49,-156.428 1790.43,-146.642 1785.21,-151.309"/>
</g>
<!-- Node70&#45;&gt;Node65 -->
<g id="edge30" class="edge"><title>Node70&#45;&gt;Node65</title>
<path fill="none" stroke="midnightblue" d="M1878.32,-156.218C1908.12,-145.858 1938.51,-132.71 1947,-120 1965.44,-92.3929 1936.96,-55.7979 1917.9,-36.0607"/>
<polygon fill="midnightblue" stroke="midnightblue" points="1877.04,-152.955 1868.69,-159.479 1879.29,-159.585 1877.04,-152.955"/>
</g>
<!-- Node70&#45;&gt;Node66 -->
<g id="edge31" class="edge"><title>Node70&#45;&gt;Node66</title>
<path fill="none" stroke="midnightblue" d="M1878.55,-157.222C1880.05,-156.81 1881.53,-156.402 1883,-156 1884.95,-155.465 1978.81,-130.442 2040.37,-114.03"/>
<polygon fill="midnightblue" stroke="midnightblue" points="1877.26,-153.948 1868.56,-159.99 1879.13,-160.694 1877.26,-153.948"/>
</g>
<!-- Node70&#45;&gt;Node69 -->
<g id="edge32" class="edge"><title>Node70&#45;&gt;Node69</title>
<path fill="none" stroke="midnightblue" d="M1878.61,-157.262C1905.83,-148.112 1936.97,-135.657 1963,-120 1999.38,-98.1181 2034.83,-63.4081 2055.26,-41.7072"/>
<polygon fill="midnightblue" stroke="midnightblue" points="1877.19,-154.044 1868.78,-160.483 1879.37,-160.696 1877.19,-154.044"/>
</g>
<!-- Node71 -->
<g id="node29" class="node"><title>Node71</title>
<g id="a_node29"><a xlink:href="tools_8cc.html" target="_top" xlink:title="src/analysis/physics\l/scratch/wolfes/tools\l/tools.cc">
<polygon fill="white" stroke="black" points="1824.5,-78.5 1824.5,-119.5 1937.5,-119.5 1937.5,-78.5 1824.5,-78.5"/>
<text text-anchor="start" x="1832.5" y="-107.5" font-family="Helvetica,sans-Serif" font-size="10.00">src/analysis/physics</text>
<text text-anchor="start" x="1832.5" y="-96.5" font-family="Helvetica,sans-Serif" font-size="10.00">/scratch/wolfes/tools</text>
<text text-anchor="middle" x="1881" y="-85.5" font-family="Helvetica,sans-Serif" font-size="10.00">/tools.cc</text>
</a>
</g>
</g>
<!-- Node70&#45;&gt;Node71 -->
<g id="edge33" class="edge"><title>Node70&#45;&gt;Node71</title>
<path fill="none" stroke="midnightblue" d="M1836.59,-148.916C1845.41,-139.203 1855.17,-128.45 1863.29,-119.506"/>
<polygon fill="midnightblue" stroke="midnightblue" points="1833.9,-146.672 1829.77,-156.428 1839.08,-151.377 1833.9,-146.672"/>
</g>
</g>
</svg>
