<?xml version="1.0" encoding="UTF-8" standalone="no"?>
<!DOCTYPE svg PUBLIC "-//W3C//DTD SVG 1.1//EN"
 "http://www.w3.org/Graphics/SVG/1.1/DTD/svg11.dtd">
<!-- Generated by graphviz version 2.38.0 (20140413.2041)
 -->
<!-- Title: src/tree/TTrigger.h Pages: 1 -->
<svg width="288pt" height="84pt"
 viewBox="0.00 0.00 287.50 84.00" xmlns="http://www.w3.org/2000/svg" xmlns:xlink="http://www.w3.org/1999/xlink">
<g id="graph0" class="graph" transform="scale(1 1) rotate(0) translate(4 80)">
<title>src/tree/TTrigger.h</title>
<polygon fill="white" stroke="none" points="-4,4 -4,-80 283.5,-80 283.5,4 -4,4"/>
<!-- Node0 -->
<g id="node1" class="node"><title>Node0</title>
<polygon fill="#bfbfbf" stroke="black" points="100.5,-56.5 100.5,-75.5 201.5,-75.5 201.5,-56.5 100.5,-56.5"/>
<text text-anchor="middle" x="151" y="-63.5" font-family="Helvetica,sans-Serif" font-size="10.00">src/tree/TTrigger.h</text>
</g>
<!-- Node1 -->
<g id="node2" class="node"><title>Node1</title>
<g id="a_node2"><a xlink:href="types_8h.html" target="_top" xlink:title="base/types.h">
<polygon fill="white" stroke="black" points="0,-0.5 0,-19.5 78,-19.5 78,-0.5 0,-0.5"/>
<text text-anchor="middle" x="39" y="-7.5" font-family="Helvetica,sans-Serif" font-size="10.00">base/types.h</text>
</a>
</g>
</g>
<!-- Node0&#45;&gt;Node1 -->
<g id="edge1" class="edge"><title>Node0&#45;&gt;Node1</title>
<path fill="none" stroke="midnightblue" d="M133.005,-56.324C114.962,-47.6247 86.9531,-34.1202 66.1973,-24.113"/>
<polygon fill="midnightblue" stroke="midnightblue" points="67.4778,-20.8449 56.9501,-19.6545 64.4377,-27.1502 67.4778,-20.8449"/>
</g>
<!-- Node2 -->
<g id="node3" class="node"><title>Node2</title>
<polygon fill="white" stroke="#bfbfbf" points="96.5,-0.5 96.5,-19.5 143.5,-19.5 143.5,-0.5 96.5,-0.5"/>
<text text-anchor="middle" x="120" y="-7.5" font-family="Helvetica,sans-Serif" font-size="10.00">vector</text>
</g>
<!-- Node0&#45;&gt;Node2 -->
<g id="edge2" class="edge"><title>Node0&#45;&gt;Node2</title>
<path fill="none" stroke="midnightblue" d="M145.881,-56.083C141.592,-48.6127 135.342,-37.7244 130.058,-28.5199"/>
<polygon fill="midnightblue" stroke="midnightblue" points="133.038,-26.6811 125.024,-19.7511 126.967,-30.1662 133.038,-26.6811"/>
</g>
<!-- Node3 -->
<g id="node4" class="node"><title>Node3</title>
<polygon fill="white" stroke="#bfbfbf" points="162,-0.5 162,-19.5 204,-19.5 204,-0.5 162,-0.5"/>
<text text-anchor="middle" x="183" y="-7.5" font-family="Helvetica,sans-Serif" font-size="10.00">limits</text>
</g>
<!-- Node0&#45;&gt;Node3 -->
<g id="edge3" class="edge"><title>Node0&#45;&gt;Node3</title>
<path fill="none" stroke="midnightblue" d="M156.284,-56.083C160.711,-48.6127 167.163,-37.7244 172.618,-28.5199"/>
<polygon fill="midnightblue" stroke="midnightblue" points="175.727,-30.1383 177.814,-19.7511 169.705,-26.5697 175.727,-30.1383"/>
</g>
<!-- Node4 -->
<g id="node5" class="node"><title>Node4</title>
<polygon fill="white" stroke="#bfbfbf" points="222.5,-0.5 222.5,-19.5 279.5,-19.5 279.5,-0.5 222.5,-0.5"/>
<text text-anchor="middle" x="251" y="-7.5" font-family="Helvetica,sans-Serif" font-size="10.00">memory</text>
</g>
<!-- Node0&#45;&gt;Node4 -->
<g id="edge4" class="edge"><title>Node0&#45;&gt;Node4</title>
<path fill="none" stroke="midnightblue" d="M167.067,-56.324C182.958,-47.7428 207.507,-34.486 225.958,-24.5224"/>
<polygon fill="midnightblue" stroke="midnightblue" points="227.837,-27.4857 234.973,-19.6545 224.511,-21.3264 227.837,-27.4857"/>
</g>
</g>
</svg>
