<?xml version="1.0" encoding="UTF-8" standalone="no"?>
<!DOCTYPE svg PUBLIC "-//W3C//DTD SVG 1.1//EN"
 "http://www.w3.org/Graphics/SVG/1.1/DTD/svg11.dtd">
<!-- Generated by graphviz version 2.38.0 (20140413.2041)
 -->
<!-- Title: src/tree/TTaggerHit.h Pages: 1 -->
<svg width="910pt" height="252pt"
 viewBox="0.00 0.00 909.50 252.00" xmlns="http://www.w3.org/2000/svg" xmlns:xlink="http://www.w3.org/1999/xlink">
<g id="graph0" class="graph" transform="scale(1 1) rotate(0) translate(4 248)">
<title>src/tree/TTaggerHit.h</title>
<polygon fill="white" stroke="none" points="-4,4 -4,-248 905.5,-248 905.5,4 -4,4"/>
<!-- Node0 -->
<g id="node1" class="node"><title>Node0</title>
<polygon fill="#bfbfbf" stroke="black" points="322,-224.5 322,-243.5 438,-243.5 438,-224.5 322,-224.5"/>
<text text-anchor="middle" x="380" y="-231.5" font-family="Helvetica,sans-Serif" font-size="10.00">src/tree/TTaggerHit.h</text>
</g>
<!-- Node1 -->
<g id="node2" class="node"><title>Node1</title>
<g id="a_node2"><a xlink:href="_t_i_d_8h.html" target="_top" xlink:title="TID.h">
<polygon fill="white" stroke="black" points="359.5,-168.5 359.5,-187.5 400.5,-187.5 400.5,-168.5 359.5,-168.5"/>
<text text-anchor="middle" x="380" y="-175.5" font-family="Helvetica,sans-Serif" font-size="10.00">TID.h</text>
</a>
</g>
</g>
<!-- Node0&#45;&gt;Node1 -->
<g id="edge1" class="edge"><title>Node0&#45;&gt;Node1</title>
<path fill="none" stroke="midnightblue" d="M380,-224.083C380,-217.006 380,-206.861 380,-197.986"/>
<polygon fill="midnightblue" stroke="midnightblue" points="383.5,-197.751 380,-187.751 376.5,-197.751 383.5,-197.751"/>
</g>
<!-- Node6 -->
<g id="node7" class="node"><title>Node6</title>
<polygon fill="white" stroke="#bfbfbf" points="0,-0.5 0,-19.5 56,-19.5 56,-0.5 0,-0.5"/>
<text text-anchor="middle" x="28" y="-7.5" font-family="Helvetica,sans-Serif" font-size="10.00">sstream</text>
</g>
<!-- Node0&#45;&gt;Node6 -->
<g id="edge26" class="edge"><title>Node0&#45;&gt;Node6</title>
<path fill="none" stroke="midnightblue" d="M321.801,-228.055C254.851,-221.512 149.798,-208.37 116,-188 58.4651,-153.324 37.4657,-68.1883 30.768,-30.0353"/>
<polygon fill="midnightblue" stroke="midnightblue" points="34.1673,-29.1285 29.124,-19.811 27.256,-30.2398 34.1673,-29.1285"/>
</g>
<!-- Node8 -->
<g id="node9" class="node"><title>Node8</title>
<polygon fill="white" stroke="#bfbfbf" points="74.5,-0.5 74.5,-19.5 121.5,-19.5 121.5,-0.5 74.5,-0.5"/>
<text text-anchor="middle" x="98" y="-7.5" font-family="Helvetica,sans-Serif" font-size="10.00">vector</text>
</g>
<!-- Node0&#45;&gt;Node8 -->
<g id="edge24" class="edge"><title>Node0&#45;&gt;Node8</title>
<path fill="none" stroke="midnightblue" d="M321.831,-231.899C252.364,-227.078 138.821,-207.315 85,-132 62.9751,-101.179 78.1786,-54.1768 89.2665,-28.7777"/>
<polygon fill="midnightblue" stroke="midnightblue" points="92.4861,-30.1541 93.5069,-19.6085 86.1326,-27.2158 92.4861,-30.1541"/>
</g>
<!-- Node16 -->
<g id="node17" class="node"><title>Node16</title>
<polygon fill="white" stroke="#bfbfbf" points="681.5,-112.5 681.5,-131.5 736.5,-131.5 736.5,-112.5 681.5,-112.5"/>
<text text-anchor="middle" x="709" y="-119.5" font-family="Helvetica,sans-Serif" font-size="10.00">iomanip</text>
</g>
<!-- Node0&#45;&gt;Node16 -->
<g id="edge25" class="edge"><title>Node0&#45;&gt;Node16</title>
<path fill="none" stroke="midnightblue" d="M405.542,-224.46C463.846,-204.966 606.833,-157.159 673.591,-134.839"/>
<polygon fill="midnightblue" stroke="midnightblue" points="674.873,-138.101 683.247,-131.61 672.653,-131.462 674.873,-138.101"/>
</g>
<!-- Node17 -->
<g id="node18" class="node"><title>Node17</title>
<g id="a_node18"><a xlink:href="_lorentz_vec_8h.html" target="_top" xlink:title="base/vec/LorentzVec.h">
<polygon fill="white" stroke="black" points="668.5,-168.5 668.5,-187.5 793.5,-187.5 793.5,-168.5 668.5,-168.5"/>
<text text-anchor="middle" x="731" y="-175.5" font-family="Helvetica,sans-Serif" font-size="10.00">base/vec/LorentzVec.h</text>
</a>
</g>
</g>
<!-- Node0&#45;&gt;Node17 -->
<g id="edge18" class="edge"><title>Node0&#45;&gt;Node17</title>
<path fill="none" stroke="midnightblue" d="M435.617,-224.444C498.132,-214.826 599.521,-199.228 665.734,-189.041"/>
<polygon fill="midnightblue" stroke="midnightblue" points="666.292,-192.496 675.643,-187.516 665.227,-185.578 666.292,-192.496"/>
</g>
<!-- Node2 -->
<g id="node3" class="node"><title>Node2</title>
<polygon fill="white" stroke="#bfbfbf" points="351,-112.5 351,-131.5 409,-131.5 409,-112.5 351,-112.5"/>
<text text-anchor="middle" x="380" y="-119.5" font-family="Helvetica,sans-Serif" font-size="10.00">Rtypes.h</text>
</g>
<!-- Node1&#45;&gt;Node2 -->
<g id="edge2" class="edge"><title>Node1&#45;&gt;Node2</title>
<path fill="none" stroke="midnightblue" d="M380,-168.083C380,-161.006 380,-150.861 380,-141.986"/>
<polygon fill="midnightblue" stroke="midnightblue" points="383.5,-141.751 380,-131.751 376.5,-141.751 383.5,-141.751"/>
</g>
<!-- Node3 -->
<g id="node4" class="node"><title>Node3</title>
<g id="a_node4"><a xlink:href="base_2std__ext_2_time_8h.html" target="_top" xlink:title="base/std_ext/time.h">
<polygon fill="white" stroke="black" points="427,-112.5 427,-131.5 539,-131.5 539,-112.5 427,-112.5"/>
<text text-anchor="middle" x="483" y="-119.5" font-family="Helvetica,sans-Serif" font-size="10.00">base/std_ext/time.h</text>
</a>
</g>
</g>
<!-- Node1&#45;&gt;Node3 -->
<g id="edge3" class="edge"><title>Node1&#45;&gt;Node3</title>
<path fill="none" stroke="midnightblue" d="M396.549,-168.324C412.992,-159.703 438.435,-146.364 457.468,-136.386"/>
<polygon fill="midnightblue" stroke="midnightblue" points="459.261,-139.398 466.492,-131.655 456.011,-133.198 459.261,-139.398"/>
</g>
<!-- Node10 -->
<g id="node11" class="node"><title>Node10</title>
<polygon fill="white" stroke="#bfbfbf" points="536,-56.5 536,-75.5 580,-75.5 580,-56.5 536,-56.5"/>
<text text-anchor="middle" x="558" y="-63.5" font-family="Helvetica,sans-Serif" font-size="10.00">ctime</text>
</g>
<!-- Node1&#45;&gt;Node10 -->
<g id="edge17" class="edge"><title>Node1&#45;&gt;Node10</title>
<path fill="none" stroke="midnightblue" d="M400.723,-174.286C441.159,-168.556 528.348,-153.921 548,-132 559.065,-119.657 560.796,-100.407 560.221,-86.0552"/>
<polygon fill="midnightblue" stroke="midnightblue" points="563.688,-85.5086 559.4,-75.8206 556.711,-86.0685 563.688,-85.5086"/>
</g>
<!-- Node11 -->
<g id="node12" class="node"><title>Node11</title>
<polygon fill="white" stroke="#bfbfbf" points="595,-112.5 595,-131.5 663,-131.5 663,-112.5 595,-112.5"/>
<text text-anchor="middle" x="629" y="-119.5" font-family="Helvetica,sans-Serif" font-size="10.00">type_traits</text>
</g>
<!-- Node1&#45;&gt;Node11 -->
<g id="edge11" class="edge"><title>Node1&#45;&gt;Node11</title>
<path fill="none" stroke="midnightblue" d="M400.801,-172.489C441.101,-163.749 530.605,-144.339 584.771,-132.592"/>
<polygon fill="midnightblue" stroke="midnightblue" points="585.75,-135.961 594.781,-130.421 584.266,-129.12 585.75,-135.961"/>
</g>
<!-- Node12 -->
<g id="node13" class="node"><title>Node12</title>
<polygon fill="white" stroke="#bfbfbf" points="94.5,-112.5 94.5,-131.5 135.5,-131.5 135.5,-112.5 94.5,-112.5"/>
<text text-anchor="middle" x="115" y="-119.5" font-family="Helvetica,sans-Serif" font-size="10.00">tuple</text>
</g>
<!-- Node1&#45;&gt;Node12 -->
<g id="edge12" class="edge"><title>Node1&#45;&gt;Node12</title>
<path fill="none" stroke="midnightblue" d="M359.311,-173.859C319.579,-167.657 229.712,-152.809 145.252,-132.1"/>
<polygon fill="midnightblue" stroke="midnightblue" points="146.064,-128.695 135.515,-129.68 144.375,-135.488 146.064,-128.695"/>
</g>
<!-- Node13 -->
<g id="node14" class="node"><title>Node13</title>
<polygon fill="white" stroke="#bfbfbf" points="153.5,-112.5 153.5,-131.5 202.5,-131.5 202.5,-112.5 153.5,-112.5"/>
<text text-anchor="middle" x="178" y="-119.5" font-family="Helvetica,sans-Serif" font-size="10.00">cstdint</text>
</g>
<!-- Node1&#45;&gt;Node13 -->
<g id="edge13" class="edge"><title>Node1&#45;&gt;Node13</title>
<path fill="none" stroke="midnightblue" d="M359.143,-171.424C324.501,-162.164 254.753,-143.518 212.633,-132.258"/>
<polygon fill="midnightblue" stroke="midnightblue" points="213.378,-128.835 202.813,-129.633 211.57,-135.597 213.378,-128.835"/>
</g>
<!-- Node14 -->
<g id="node15" class="node"><title>Node14</title>
<polygon fill="white" stroke="#bfbfbf" points="221,-112.5 221,-131.5 285,-131.5 285,-112.5 221,-112.5"/>
<text text-anchor="middle" x="253" y="-119.5" font-family="Helvetica,sans-Serif" font-size="10.00">stdexcept</text>
</g>
<!-- Node1&#45;&gt;Node14 -->
<g id="edge14" class="edge"><title>Node1&#45;&gt;Node14</title>
<path fill="none" stroke="midnightblue" d="M359.876,-168.444C338.976,-159.557 306.065,-145.563 282.284,-135.451"/>
<polygon fill="midnightblue" stroke="midnightblue" points="283.602,-132.208 273.029,-131.516 280.862,-138.65 283.602,-132.208"/>
</g>
<!-- Node15 -->
<g id="node16" class="node"><title>Node15</title>
<polygon fill="white" stroke="#bfbfbf" points="303,-112.5 303,-131.5 333,-131.5 333,-112.5 303,-112.5"/>
<text text-anchor="middle" x="318" y="-119.5" font-family="Helvetica,sans-Serif" font-size="10.00">list</text>
</g>
<!-- Node1&#45;&gt;Node15 -->
<g id="edge15" class="edge"><title>Node1&#45;&gt;Node15</title>
<path fill="none" stroke="midnightblue" d="M370.039,-168.324C360.873,-160.341 347.063,-148.313 335.972,-138.653"/>
<polygon fill="midnightblue" stroke="midnightblue" points="337.982,-135.762 328.143,-131.834 333.385,-141.041 337.982,-135.762"/>
</g>
<!-- Node1&#45;&gt;Node16 -->
<g id="edge16" class="edge"><title>Node1&#45;&gt;Node16</title>
<path fill="none" stroke="midnightblue" d="M400.639,-174.438C447.087,-168.542 563.532,-153.032 671.128,-132.022"/>
<polygon fill="midnightblue" stroke="midnightblue" points="672.044,-135.409 681.176,-130.039 670.688,-128.542 672.044,-135.409"/>
</g>
<!-- Node4 -->
<g id="node5" class="node"><title>Node4</title>
<g id="a_node5"><a xlink:href="string_8h.html" target="_top" xlink:title="base/std_ext/string.h">
<polygon fill="white" stroke="black" points="112.5,-56.5 112.5,-75.5 229.5,-75.5 229.5,-56.5 112.5,-56.5"/>
<text text-anchor="middle" x="171" y="-63.5" font-family="Helvetica,sans-Serif" font-size="10.00">base/std_ext/string.h</text>
</a>
</g>
</g>
<!-- Node3&#45;&gt;Node4 -->
<g id="edge4" class="edge"><title>Node3&#45;&gt;Node4</title>
<path fill="none" stroke="midnightblue" d="M433.563,-112.444C378.336,-102.885 288.979,-87.4195 230.105,-77.2298"/>
<polygon fill="midnightblue" stroke="midnightblue" points="230.656,-73.7732 220.206,-75.5164 229.463,-80.6707 230.656,-73.7732"/>
</g>
<!-- Node9 -->
<g id="node10" class="node"><title>Node9</title>
<polygon fill="white" stroke="#bfbfbf" points="458.5,-56.5 458.5,-75.5 507.5,-75.5 507.5,-56.5 458.5,-56.5"/>
<text text-anchor="middle" x="483" y="-63.5" font-family="Helvetica,sans-Serif" font-size="10.00">cstring</text>
</g>
<!-- Node3&#45;&gt;Node9 -->
<g id="edge9" class="edge"><title>Node3&#45;&gt;Node9</title>
<path fill="none" stroke="midnightblue" d="M483,-112.083C483,-105.006 483,-94.8611 483,-85.9865"/>
<polygon fill="midnightblue" stroke="midnightblue" points="486.5,-85.751 483,-75.7511 479.5,-85.7511 486.5,-85.751"/>
</g>
<!-- Node3&#45;&gt;Node10 -->
<g id="edge10" class="edge"><title>Node3&#45;&gt;Node10</title>
<path fill="none" stroke="midnightblue" d="M495.05,-112.324C506.463,-104.107 523.831,-91.6017 537.435,-81.8069"/>
<polygon fill="midnightblue" stroke="midnightblue" points="539.66,-84.5174 545.731,-75.8339 535.57,-78.8366 539.66,-84.5174"/>
</g>
<!-- Node5 -->
<g id="node6" class="node"><title>Node5</title>
<polygon fill="white" stroke="#bfbfbf" points="220,-0.5 220,-19.5 264,-19.5 264,-0.5 220,-0.5"/>
<text text-anchor="middle" x="242" y="-7.5" font-family="Helvetica,sans-Serif" font-size="10.00">string</text>
</g>
<!-- Node4&#45;&gt;Node5 -->
<g id="edge5" class="edge"><title>Node4&#45;&gt;Node5</title>
<path fill="none" stroke="midnightblue" d="M182.407,-56.324C193.109,-48.1849 209.341,-35.8395 222.163,-26.0874"/>
<polygon fill="midnightblue" stroke="midnightblue" points="224.544,-28.6734 230.385,-19.8339 220.307,-23.1018 224.544,-28.6734"/>
</g>
<!-- Node4&#45;&gt;Node6 -->
<g id="edge6" class="edge"><title>Node4&#45;&gt;Node6</title>
<path fill="none" stroke="midnightblue" d="M148.341,-56.4435C124.598,-47.4776 87.0909,-33.314 60.2616,-23.1827"/>
<polygon fill="midnightblue" stroke="midnightblue" points="61.1445,-19.7749 50.5528,-19.5164 58.6715,-26.3235 61.1445,-19.7749"/>
</g>
<!-- Node7 -->
<g id="node8" class="node"><title>Node7</title>
<polygon fill="white" stroke="#bfbfbf" points="140,-0.5 140,-19.5 202,-19.5 202,-0.5 140,-0.5"/>
<text text-anchor="middle" x="171" y="-7.5" font-family="Helvetica,sans-Serif" font-size="10.00">algorithm</text>
</g>
<!-- Node4&#45;&gt;Node7 -->
<g id="edge7" class="edge"><title>Node4&#45;&gt;Node7</title>
<path fill="none" stroke="midnightblue" d="M171,-56.083C171,-49.0059 171,-38.8611 171,-29.9865"/>
<polygon fill="midnightblue" stroke="midnightblue" points="174.5,-29.751 171,-19.7511 167.5,-29.7511 174.5,-29.751"/>
</g>
<!-- Node4&#45;&gt;Node8 -->
<g id="edge8" class="edge"><title>Node4&#45;&gt;Node8</title>
<path fill="none" stroke="midnightblue" d="M159.271,-56.324C148.163,-48.1066 131.258,-35.6017 118.017,-25.8069"/>
<polygon fill="midnightblue" stroke="midnightblue" points="120.063,-22.9671 109.942,-19.8339 115.9,-28.5948 120.063,-22.9671"/>
</g>
<!-- Node18 -->
<g id="node19" class="node"><title>Node18</title>
<g id="a_node19"><a xlink:href="vec3_8h.html" target="_top" xlink:title="base/vec/vec3.h">
<polygon fill="white" stroke="black" points="755,-112.5 755,-131.5 849,-131.5 849,-112.5 755,-112.5"/>
<text text-anchor="middle" x="802" y="-119.5" font-family="Helvetica,sans-Serif" font-size="10.00">base/vec/vec3.h</text>
</a>
</g>
</g>
<!-- Node17&#45;&gt;Node18 -->
<g id="edge19" class="edge"><title>Node17&#45;&gt;Node18</title>
<path fill="none" stroke="midnightblue" d="M742.407,-168.324C753.109,-160.185 769.341,-147.839 782.163,-138.087"/>
<polygon fill="midnightblue" stroke="midnightblue" points="784.544,-140.673 790.385,-131.834 780.307,-135.102 784.544,-140.673"/>
</g>
<!-- Node19 -->
<g id="node20" class="node"><title>Node19</title>
<g id="a_node20"><a xlink:href="vec2_8h.html" target="_top" xlink:title="vec2.h">
<polygon fill="white" stroke="black" points="778,-56.5 778,-75.5 826,-75.5 826,-56.5 778,-56.5"/>
<text text-anchor="middle" x="802" y="-63.5" font-family="Helvetica,sans-Serif" font-size="10.00">vec2.h</text>
</a>
</g>
</g>
<!-- Node18&#45;&gt;Node19 -->
<g id="edge20" class="edge"><title>Node18&#45;&gt;Node19</title>
<path fill="none" stroke="midnightblue" d="M802,-112.083C802,-105.006 802,-94.8611 802,-85.9865"/>
<polygon fill="midnightblue" stroke="midnightblue" points="805.5,-85.751 802,-75.7511 798.5,-85.7511 805.5,-85.751"/>
</g>
<!-- Node20 -->
<g id="node21" class="node"><title>Node20</title>
<polygon fill="white" stroke="#bfbfbf" points="752.5,-0.5 752.5,-19.5 799.5,-19.5 799.5,-0.5 752.5,-0.5"/>
<text text-anchor="middle" x="776" y="-7.5" font-family="Helvetica,sans-Serif" font-size="10.00">cmath</text>
</g>
<!-- Node18&#45;&gt;Node20 -->
<g id="edge23" class="edge"><title>Node18&#45;&gt;Node20</title>
<path fill="none" stroke="midnightblue" d="M792.98,-112.34C784.928,-103.932 773.702,-90.3633 769,-76 764.034,-60.8312 766.636,-42.7137 769.99,-29.4642"/>
<polygon fill="midnightblue" stroke="midnightblue" points="773.412,-30.2302 772.835,-19.6512 766.689,-28.2813 773.412,-30.2302"/>
</g>
<!-- Node21 -->
<g id="node22" class="node"><title>Node21</title>
<polygon fill="white" stroke="#bfbfbf" points="844.5,-56.5 844.5,-75.5 901.5,-75.5 901.5,-56.5 844.5,-56.5"/>
<text text-anchor="middle" x="873" y="-63.5" font-family="Helvetica,sans-Serif" font-size="10.00">ostream</text>
</g>
<!-- Node18&#45;&gt;Node21 -->
<g id="edge22" class="edge"><title>Node18&#45;&gt;Node21</title>
<path fill="none" stroke="midnightblue" d="M813.407,-112.324C824.109,-104.185 840.341,-91.8395 853.163,-82.0874"/>
<polygon fill="midnightblue" stroke="midnightblue" points="855.544,-84.6734 861.385,-75.8339 851.307,-79.1018 855.544,-84.6734"/>
</g>
<!-- Node19&#45;&gt;Node20 -->
<g id="edge21" class="edge"><title>Node19&#45;&gt;Node20</title>
<path fill="none" stroke="midnightblue" d="M797.707,-56.083C794.148,-48.6913 788.978,-37.9533 784.576,-28.8111"/>
<polygon fill="midnightblue" stroke="midnightblue" points="787.705,-27.2427 780.213,-19.7511 781.398,-30.2795 787.705,-27.2427"/>
</g>
</g>
</svg>
