<?xml version="1.0" encoding="UTF-8" standalone="no"?>
<!DOCTYPE svg PUBLIC "-//W3C//DTD SVG 1.1//EN"
 "http://www.w3.org/Graphics/SVG/1.1/DTD/svg11.dtd">
<!-- Generated by graphviz version 2.38.0 (20140413.2041)
 -->
<!-- Title: src/tree/TUnpackerMessage.h Pages: 1 -->
<svg width="211pt" height="140pt"
 viewBox="0.00 0.00 211.00 140.00" xmlns="http://www.w3.org/2000/svg" xmlns:xlink="http://www.w3.org/1999/xlink">
<g id="graph0" class="graph" transform="scale(1 1) rotate(0) translate(4 136)">
<title>src/tree/TUnpackerMessage.h</title>
<polygon fill="white" stroke="none" points="-4,4 -4,-136 207,-136 207,4 -4,4"/>
<!-- Node0 -->
<g id="node1" class="node"><title>Node0</title>
<polygon fill="#bfbfbf" stroke="black" points="44,-112.5 44,-131.5 203,-131.5 203,-112.5 44,-112.5"/>
<text text-anchor="middle" x="123.5" y="-119.5" font-family="Helvetica,sans-Serif" font-size="10.00">src/tree/TUnpackerMessage.h</text>
</g>
<!-- Node1 -->
<g id="node2" class="node"><title>Node1</title>
<g id="a_node2"><a xlink:href="_format_8h.html" target="_top" xlink:title="base/Format.h">
<polygon fill="white" stroke="black" points="35.5,-56.5 35.5,-75.5 121.5,-75.5 121.5,-56.5 35.5,-56.5"/>
<text text-anchor="middle" x="78.5" y="-63.5" font-family="Helvetica,sans-Serif" font-size="10.00">base/Format.h</text>
</a>
</g>
</g>
<!-- Node0&#45;&gt;Node1 -->
<g id="edge1" class="edge"><title>Node0&#45;&gt;Node1</title>
<path fill="none" stroke="midnightblue" d="M116.069,-112.083C109.647,-104.377 100.194,-93.0333 92.3775,-83.6531"/>
<polygon fill="midnightblue" stroke="midnightblue" points="94.8832,-81.1927 85.7926,-75.7511 89.5057,-85.674 94.8832,-81.1927"/>
</g>
<!-- Node4 -->
<g id="node5" class="node"><title>Node4</title>
<polygon fill="white" stroke="#bfbfbf" points="140,-56.5 140,-75.5 197,-75.5 197,-56.5 140,-56.5"/>
<text text-anchor="middle" x="168.5" y="-63.5" font-family="Helvetica,sans-Serif" font-size="10.00">ostream</text>
</g>
<!-- Node0&#45;&gt;Node4 -->
<g id="edge4" class="edge"><title>Node0&#45;&gt;Node4</title>
<path fill="none" stroke="midnightblue" d="M130.931,-112.083C137.353,-104.377 146.806,-93.0333 154.622,-83.6531"/>
<polygon fill="midnightblue" stroke="midnightblue" points="157.494,-85.674 161.207,-75.7511 152.117,-81.1927 157.494,-85.674"/>
</g>
<!-- Node2 -->
<g id="node3" class="node"><title>Node2</title>
<polygon fill="white" stroke="#bfbfbf" points="0,-0.5 0,-19.5 77,-19.5 77,-0.5 0,-0.5"/>
<text text-anchor="middle" x="38.5" y="-7.5" font-family="Helvetica,sans-Serif" font-size="10.00">fmt/format.h</text>
</g>
<!-- Node1&#45;&gt;Node2 -->
<g id="edge2" class="edge"><title>Node1&#45;&gt;Node2</title>
<path fill="none" stroke="midnightblue" d="M71.8948,-56.083C66.2448,-48.4554 57.9552,-37.2645 51.0488,-27.9408"/>
<polygon fill="midnightblue" stroke="midnightblue" points="53.7471,-25.7034 44.9823,-19.7511 48.1221,-29.87 53.7471,-25.7034"/>
</g>
<!-- Node3 -->
<g id="node4" class="node"><title>Node3</title>
<polygon fill="white" stroke="#bfbfbf" points="95,-0.5 95,-19.5 142,-19.5 142,-0.5 95,-0.5"/>
<text text-anchor="middle" x="118.5" y="-7.5" font-family="Helvetica,sans-Serif" font-size="10.00">vector</text>
</g>
<!-- Node1&#45;&gt;Node3 -->
<g id="edge3" class="edge"><title>Node1&#45;&gt;Node3</title>
<path fill="none" stroke="midnightblue" d="M85.1052,-56.083C90.7552,-48.4554 99.0448,-37.2645 105.951,-27.9408"/>
<polygon fill="midnightblue" stroke="midnightblue" points="108.878,-29.87 112.018,-19.7511 103.253,-25.7034 108.878,-29.87"/>
</g>
</g>
</svg>
