<?xml version="1.0" encoding="UTF-8" standalone="no"?>
<!DOCTYPE svg PUBLIC "-//W3C//DTD SVG 1.1//EN"
 "http://www.w3.org/Graphics/SVG/1.1/DTD/svg11.dtd">
<!-- Generated by graphviz version 2.38.0 (20140413.2041)
 -->
<!-- Title: src/calibration/modules/Tagger_QDC.h Pages: 1 -->
<svg width="1733pt" height="106pt"
 viewBox="0.00 0.00 1732.50 106.00" xmlns="http://www.w3.org/2000/svg" xmlns:xlink="http://www.w3.org/1999/xlink">
<g id="graph0" class="graph" transform="scale(1 1) rotate(0) translate(4 102)">
<title>src/calibration/modules/Tagger_QDC.h</title>
<polygon fill="white" stroke="none" points="-4,4 -4,-102 1728.5,-102 1728.5,4 -4,4"/>
<!-- Node49 -->
<g id="node1" class="node"><title>Node49</title>
<polygon fill="#bfbfbf" stroke="black" points="805,-67.5 805,-97.5 933,-97.5 933,-67.5 805,-67.5"/>
<text text-anchor="start" x="813" y="-85.5" font-family="Helvetica,sans-Serif" font-size="10.00">src/calibration/modules</text>
<text text-anchor="middle" x="869" y="-74.5" font-family="Helvetica,sans-Serif" font-size="10.00">/Tagger_QDC.h</text>
</g>
<!-- Node50 -->
<g id="node2" class="node"><title>Node50</title>
<g id="a_node2"><a xlink:href="_tagger___q_d_c_8cc.html" target="_top" xlink:title="src/calibration/modules\l/Tagger_QDC.cc">
<polygon fill="white" stroke="black" points="0,-0.5 0,-30.5 128,-30.5 128,-0.5 0,-0.5"/>
<text text-anchor="start" x="8" y="-18.5" font-family="Helvetica,sans-Serif" font-size="10.00">src/calibration/modules</text>
<text text-anchor="middle" x="64" y="-7.5" font-family="Helvetica,sans-Serif" font-size="10.00">/Tagger_QDC.cc</text>
</a>
</g>
</g>
<!-- Node49&#45;&gt;Node50 -->
<g id="edge1" class="edge"><title>Node49&#45;&gt;Node50</title>
<path fill="none" stroke="midnightblue" d="M794.536,-79.49C661.861,-75.2135 376.05,-62.8557 137,-31 134.054,-30.6074 131.048,-30.1684 128.017,-29.6943"/>
<polygon fill="midnightblue" stroke="midnightblue" points="794.484,-82.99 804.59,-79.808 794.705,-75.9935 794.484,-82.99"/>
</g>
<!-- Node51 -->
<g id="node3" class="node"><title>Node51</title>
<g id="a_node3"><a xlink:href="_setup__2014___e_p_t_8cc.html" target="_top" xlink:title="src/expconfig/setups\l/Setup_2014_EPT.cc">
<polygon fill="white" stroke="black" points="146.5,-0.5 146.5,-30.5 261.5,-30.5 261.5,-0.5 146.5,-0.5"/>
<text text-anchor="start" x="154.5" y="-18.5" font-family="Helvetica,sans-Serif" font-size="10.00">src/expconfig/setups</text>
<text text-anchor="middle" x="204" y="-7.5" font-family="Helvetica,sans-Serif" font-size="10.00">/Setup_2014_EPT.cc</text>
</a>
</g>
</g>
<!-- Node49&#45;&gt;Node51 -->
<g id="edge2" class="edge"><title>Node49&#45;&gt;Node51</title>
<path fill="none" stroke="midnightblue" d="M794.529,-78.3885C680.893,-72.9277 457.619,-59.3913 270,-31 267.216,-30.5787 264.374,-30.109 261.509,-29.6036"/>
<polygon fill="midnightblue" stroke="midnightblue" points="794.693,-81.9 804.847,-78.8765 795.024,-74.9079 794.693,-81.9"/>
</g>
<!-- Node52 -->
<g id="node4" class="node"><title>Node52</title>
<g id="a_node4"><a xlink:href="_setup__2017__03_8cc.html" target="_top" xlink:title="src/expconfig/setups\l/Setup_2017_03.cc">
<polygon fill="white" stroke="black" points="279.5,-0.5 279.5,-30.5 394.5,-30.5 394.5,-0.5 279.5,-0.5"/>
<text text-anchor="start" x="287.5" y="-18.5" font-family="Helvetica,sans-Serif" font-size="10.00">src/expconfig/setups</text>
<text text-anchor="middle" x="337" y="-7.5" font-family="Helvetica,sans-Serif" font-size="10.00">/Setup_2017_03.cc</text>
</a>
</g>
</g>
<!-- Node49&#45;&gt;Node52 -->
<g id="edge3" class="edge"><title>Node49&#45;&gt;Node52</title>
<path fill="none" stroke="midnightblue" d="M794.553,-75.9342C702.28,-68.4614 540.399,-53.4701 403,-31 400.221,-30.5456 397.384,-30.0489 394.522,-29.5219"/>
<polygon fill="midnightblue" stroke="midnightblue" points="794.384,-79.4318 804.632,-76.7429 794.944,-72.4542 794.384,-79.4318"/>
</g>
<!-- Node53 -->
<g id="node5" class="node"><title>Node53</title>
<g id="a_node5"><a xlink:href="_setup__2017__05_8cc.html" target="_top" xlink:title="src/expconfig/setups\l/Setup_2017_05.cc">
<polygon fill="white" stroke="black" points="412.5,-0.5 412.5,-30.5 527.5,-30.5 527.5,-0.5 412.5,-0.5"/>
<text text-anchor="start" x="420.5" y="-18.5" font-family="Helvetica,sans-Serif" font-size="10.00">src/expconfig/setups</text>
<text text-anchor="middle" x="470" y="-7.5" font-family="Helvetica,sans-Serif" font-size="10.00">/Setup_2017_05.cc</text>
</a>
</g>
</g>
<!-- Node49&#45;&gt;Node53 -->
<g id="edge4" class="edge"><title>Node49&#45;&gt;Node53</title>
<path fill="none" stroke="midnightblue" d="M794.819,-71.6745C727.18,-62.3778 624.591,-47.4307 536,-31 533.232,-30.4866 530.402,-29.9419 527.548,-29.3765"/>
<polygon fill="midnightblue" stroke="midnightblue" points="794.57,-75.173 804.952,-73.061 795.519,-68.2376 794.57,-75.173"/>
</g>
<!-- Node54 -->
<g id="node6" class="node"><title>Node54</title>
<g id="a_node6"><a xlink:href="_setup__2017__12_8cc.html" target="_top" xlink:title="src/expconfig/setups\l/Setup_2017_12.cc">
<polygon fill="white" stroke="black" points="545.5,-0.5 545.5,-30.5 660.5,-30.5 660.5,-0.5 545.5,-0.5"/>
<text text-anchor="start" x="553.5" y="-18.5" font-family="Helvetica,sans-Serif" font-size="10.00">src/expconfig/setups</text>
<text text-anchor="middle" x="603" y="-7.5" font-family="Helvetica,sans-Serif" font-size="10.00">/Setup_2017_12.cc</text>
</a>
</g>
</g>
<!-- Node49&#45;&gt;Node54 -->
<g id="edge5" class="edge"><title>Node49&#45;&gt;Node54</title>
<path fill="none" stroke="midnightblue" d="M801.688,-65.0515C758.201,-54.425 702.203,-40.7414 660.746,-30.6109"/>
<polygon fill="midnightblue" stroke="midnightblue" points="801.064,-68.5021 811.609,-67.476 802.726,-61.7022 801.064,-68.5021"/>
</g>
<!-- Node55 -->
<g id="node7" class="node"><title>Node55</title>
<g id="a_node7"><a xlink:href="_setup__2018__03_8cc.html" target="_top" xlink:title="src/expconfig/setups\l/Setup_2018_03.cc">
<polygon fill="white" stroke="black" points="678.5,-0.5 678.5,-30.5 793.5,-30.5 793.5,-0.5 678.5,-0.5"/>
<text text-anchor="start" x="686.5" y="-18.5" font-family="Helvetica,sans-Serif" font-size="10.00">src/expconfig/setups</text>
<text text-anchor="middle" x="736" y="-7.5" font-family="Helvetica,sans-Serif" font-size="10.00">/Setup_2018_03.cc</text>
</a>
</g>
</g>
<!-- Node49&#45;&gt;Node55 -->
<g id="edge6" class="edge"><title>Node49&#45;&gt;Node55</title>
<path fill="none" stroke="midnightblue" d="M831.13,-62.9921C810.049,-52.6892 784.223,-40.0677 764.803,-30.5765"/>
<polygon fill="midnightblue" stroke="midnightblue" points="829.62,-66.1496 840.141,-67.396 832.693,-59.8605 829.62,-66.1496"/>
</g>
<!-- Node56 -->
<g id="node8" class="node"><title>Node56</title>
<g id="a_node8"><a xlink:href="_setup__2018__05_8cc.html" target="_top" xlink:title="src/expconfig/setups\l/Setup_2018_05.cc">
<polygon fill="white" stroke="black" points="811.5,-0.5 811.5,-30.5 926.5,-30.5 926.5,-0.5 811.5,-0.5"/>
<text text-anchor="start" x="819.5" y="-18.5" font-family="Helvetica,sans-Serif" font-size="10.00">src/expconfig/setups</text>
<text text-anchor="middle" x="869" y="-7.5" font-family="Helvetica,sans-Serif" font-size="10.00">/Setup_2018_05.cc</text>
</a>
</g>
</g>
<!-- Node49&#45;&gt;Node56 -->
<g id="edge7" class="edge"><title>Node49&#45;&gt;Node56</title>
<path fill="none" stroke="midnightblue" d="M869,-57.1081C869,-48.1539 869,-38.3227 869,-30.5765"/>
<polygon fill="midnightblue" stroke="midnightblue" points="865.5,-57.3959 869,-67.396 872.5,-57.396 865.5,-57.3959"/>
</g>
<!-- Node57 -->
<g id="node9" class="node"><title>Node57</title>
<g id="a_node9"><a xlink:href="_setup__2018__09_8cc.html" target="_top" xlink:title="src/expconfig/setups\l/Setup_2018_09.cc">
<polygon fill="white" stroke="black" points="944.5,-0.5 944.5,-30.5 1059.5,-30.5 1059.5,-0.5 944.5,-0.5"/>
<text text-anchor="start" x="952.5" y="-18.5" font-family="Helvetica,sans-Serif" font-size="10.00">src/expconfig/setups</text>
<text text-anchor="middle" x="1002" y="-7.5" font-family="Helvetica,sans-Serif" font-size="10.00">/Setup_2018_09.cc</text>
</a>
</g>
</g>
<!-- Node49&#45;&gt;Node57 -->
<g id="edge8" class="edge"><title>Node49&#45;&gt;Node57</title>
<path fill="none" stroke="midnightblue" d="M906.87,-62.9921C927.951,-52.6892 953.777,-40.0677 973.197,-30.5765"/>
<polygon fill="midnightblue" stroke="midnightblue" points="905.307,-59.8605 897.859,-67.396 908.38,-66.1496 905.307,-59.8605"/>
</g>
<!-- Node58 -->
<g id="node10" class="node"><title>Node58</title>
<g id="a_node10"><a xlink:href="_setup__2018__11_8cc.html" target="_top" xlink:title="src/expconfig/setups\l/Setup_2018_11.cc">
<polygon fill="white" stroke="black" points="1077.5,-0.5 1077.5,-30.5 1192.5,-30.5 1192.5,-0.5 1077.5,-0.5"/>
<text text-anchor="start" x="1085.5" y="-18.5" font-family="Helvetica,sans-Serif" font-size="10.00">src/expconfig/setups</text>
<text text-anchor="middle" x="1135" y="-7.5" font-family="Helvetica,sans-Serif" font-size="10.00">/Setup_2018_11.cc</text>
</a>
</g>
</g>
<!-- Node49&#45;&gt;Node58 -->
<g id="edge9" class="edge"><title>Node49&#45;&gt;Node58</title>
<path fill="none" stroke="midnightblue" d="M936.312,-65.0515C979.799,-54.425 1035.8,-40.7414 1077.25,-30.6109"/>
<polygon fill="midnightblue" stroke="midnightblue" points="935.274,-61.7022 926.391,-67.476 936.936,-68.5021 935.274,-61.7022"/>
</g>
<!-- Node59 -->
<g id="node11" class="node"><title>Node59</title>
<g id="a_node11"><a xlink:href="_setup__2019__01_8cc.html" target="_top" xlink:title="src/expconfig/setups\l/Setup_2019_01.cc">
<polygon fill="white" stroke="black" points="1210.5,-0.5 1210.5,-30.5 1325.5,-30.5 1325.5,-0.5 1210.5,-0.5"/>
<text text-anchor="start" x="1218.5" y="-18.5" font-family="Helvetica,sans-Serif" font-size="10.00">src/expconfig/setups</text>
<text text-anchor="middle" x="1268" y="-7.5" font-family="Helvetica,sans-Serif" font-size="10.00">/Setup_2019_01.cc</text>
</a>
</g>
</g>
<!-- Node49&#45;&gt;Node59 -->
<g id="edge10" class="edge"><title>Node49&#45;&gt;Node59</title>
<path fill="none" stroke="midnightblue" d="M943.181,-71.6745C1010.82,-62.3778 1113.41,-47.4307 1202,-31 1204.77,-30.4866 1207.6,-29.9419 1210.45,-29.3765"/>
<polygon fill="midnightblue" stroke="midnightblue" points="942.481,-68.2376 933.048,-73.061 943.43,-75.173 942.481,-68.2376"/>
</g>
<!-- Node60 -->
<g id="node12" class="node"><title>Node60</title>
<g id="a_node12"><a xlink:href="_setup__2019__06_8cc.html" target="_top" xlink:title="src/expconfig/setups\l/Setup_2019_06.cc">
<polygon fill="white" stroke="black" points="1343.5,-0.5 1343.5,-30.5 1458.5,-30.5 1458.5,-0.5 1343.5,-0.5"/>
<text text-anchor="start" x="1351.5" y="-18.5" font-family="Helvetica,sans-Serif" font-size="10.00">src/expconfig/setups</text>
<text text-anchor="middle" x="1401" y="-7.5" font-family="Helvetica,sans-Serif" font-size="10.00">/Setup_2019_06.cc</text>
</a>
</g>
</g>
<!-- Node49&#45;&gt;Node60 -->
<g id="edge11" class="edge"><title>Node49&#45;&gt;Node60</title>
<path fill="none" stroke="midnightblue" d="M943.447,-75.9342C1035.72,-68.4614 1197.6,-53.4701 1335,-31 1337.78,-30.5456 1340.62,-30.0489 1343.48,-29.5219"/>
<polygon fill="midnightblue" stroke="midnightblue" points="943.056,-72.4542 933.368,-76.7429 943.616,-79.4318 943.056,-72.4542"/>
</g>
<!-- Node61 -->
<g id="node13" class="node"><title>Node61</title>
<g id="a_node13"><a xlink:href="_setup__2019__07_8cc.html" target="_top" xlink:title="src/expconfig/setups\l/Setup_2019_07.cc">
<polygon fill="white" stroke="black" points="1476.5,-0.5 1476.5,-30.5 1591.5,-30.5 1591.5,-0.5 1476.5,-0.5"/>
<text text-anchor="start" x="1484.5" y="-18.5" font-family="Helvetica,sans-Serif" font-size="10.00">src/expconfig/setups</text>
<text text-anchor="middle" x="1534" y="-7.5" font-family="Helvetica,sans-Serif" font-size="10.00">/Setup_2019_07.cc</text>
</a>
</g>
</g>
<!-- Node49&#45;&gt;Node61 -->
<g id="edge12" class="edge"><title>Node49&#45;&gt;Node61</title>
<path fill="none" stroke="midnightblue" d="M943.471,-78.3885C1057.11,-72.9277 1280.38,-59.3913 1468,-31 1470.78,-30.5787 1473.63,-30.109 1476.49,-29.6036"/>
<polygon fill="midnightblue" stroke="midnightblue" points="942.976,-74.9079 933.153,-78.8765 943.307,-81.9 942.976,-74.9079"/>
</g>
<!-- Node62 -->
<g id="node14" class="node"><title>Node62</title>
<g id="a_node14"><a xlink:href="_setup__2019__09_8cc.html" target="_top" xlink:title="src/expconfig/setups\l/Setup_2019_09.cc">
<polygon fill="white" stroke="black" points="1609.5,-0.5 1609.5,-30.5 1724.5,-30.5 1724.5,-0.5 1609.5,-0.5"/>
<text text-anchor="start" x="1617.5" y="-18.5" font-family="Helvetica,sans-Serif" font-size="10.00">src/expconfig/setups</text>
<text text-anchor="middle" x="1667" y="-7.5" font-family="Helvetica,sans-Serif" font-size="10.00">/Setup_2019_09.cc</text>
</a>
</g>
</g>
<!-- Node49&#45;&gt;Node62 -->
<g id="edge13" class="edge"><title>Node49&#45;&gt;Node62</title>
<path fill="none" stroke="midnightblue" d="M943.532,-79.9807C1076.31,-76.4694 1362.28,-65.2664 1601,-31 1603.79,-30.5999 1606.63,-30.1474 1609.5,-29.6559"/>
<polygon fill="midnightblue" stroke="midnightblue" points="943.377,-76.4835 933.47,-80.2397 943.557,-83.4811 943.377,-76.4835"/>
</g>
</g>
</svg>
