<?xml version="1.0" encoding="UTF-8" standalone="no"?>
<!DOCTYPE svg PUBLIC "-//W3C//DTD SVG 1.1//EN"
 "http://www.w3.org/Graphics/SVG/1.1/DTD/svg11.dtd">
<!-- Generated by graphviz version 2.38.0 (20140413.2041)
 -->
<!-- Title: src/root&#45;addons/analysis_codes/ThetaCBToyMC.cc Pages: 1 -->
<svg width="1095pt" height="263pt"
 viewBox="0.00 0.00 1094.50 263.00" xmlns="http://www.w3.org/2000/svg" xmlns:xlink="http://www.w3.org/1999/xlink">
<g id="graph0" class="graph" transform="scale(1 1) rotate(0) translate(4 259)">
<title>src/root&#45;addons/analysis_codes/ThetaCBToyMC.cc</title>
<polygon fill="white" stroke="none" points="-4,4 -4,-259 1090.5,-259 1090.5,4 -4,4"/>
<!-- Node0 -->
<g id="node1" class="node"><title>Node0</title>
<polygon fill="#bfbfbf" stroke="black" points="345.5,-224.5 345.5,-254.5 482.5,-254.5 482.5,-224.5 345.5,-224.5"/>
<text text-anchor="start" x="353.5" y="-242.5" font-family="Helvetica,sans-Serif" font-size="10.00">src/root&#45;addons/analysis</text>
<text text-anchor="middle" x="414" y="-231.5" font-family="Helvetica,sans-Serif" font-size="10.00">_codes/ThetaCBToyMC.cc</text>
</g>
<!-- Node1 -->
<g id="node2" class="node"><title>Node1</title>
<g id="a_node2"><a xlink:href="_theta_c_b_toy_m_c_8h.html" target="_top" xlink:title="ThetaCBToyMC.h">
<polygon fill="white" stroke="black" points="0,-168.5 0,-187.5 96,-187.5 96,-168.5 0,-168.5"/>
<text text-anchor="middle" x="48" y="-175.5" font-family="Helvetica,sans-Serif" font-size="10.00">ThetaCBToyMC.h</text>
</a>
</g>
</g>
<!-- Node0&#45;&gt;Node1 -->
<g id="edge1" class="edge"><title>Node0&#45;&gt;Node1</title>
<path fill="none" stroke="midnightblue" d="M345.158,-227.309C276.167,-216.093 171.132,-199.017 106.179,-188.458"/>
<polygon fill="midnightblue" stroke="midnightblue" points="106.542,-184.971 96.1097,-186.821 105.418,-191.88 106.542,-184.971"/>
</g>
<!-- Node2 -->
<g id="node3" class="node"><title>Node2</title>
<g id="a_node3"><a xlink:href="base_2std__ext_2math_8h.html" target="_top" xlink:title="base/std_ext/math.h">
<polygon fill="white" stroke="black" points="405,-112.5 405,-131.5 521,-131.5 521,-112.5 405,-112.5"/>
<text text-anchor="middle" x="463" y="-119.5" font-family="Helvetica,sans-Serif" font-size="10.00">base/std_ext/math.h</text>
</a>
</g>
</g>
<!-- Node0&#45;&gt;Node2 -->
<g id="edge2" class="edge"><title>Node0&#45;&gt;Node2</title>
<path fill="none" stroke="midnightblue" d="M345.455,-238.719C260.593,-236.656 132.794,-224.508 181,-168 207.928,-136.434 320.193,-126.909 394.694,-124.096"/>
<polygon fill="midnightblue" stroke="midnightblue" points="395.07,-127.585 404.943,-123.742 394.828,-120.59 395.07,-127.585"/>
</g>
<!-- Node3 -->
<g id="node4" class="node"><title>Node3</title>
<polygon fill="white" stroke="#bfbfbf" points="439.5,-0.5 439.5,-19.5 486.5,-19.5 486.5,-0.5 439.5,-0.5"/>
<text text-anchor="middle" x="463" y="-7.5" font-family="Helvetica,sans-Serif" font-size="10.00">cmath</text>
</g>
<!-- Node0&#45;&gt;Node3 -->
<g id="edge35" class="edge"><title>Node0&#45;&gt;Node3</title>
<path fill="none" stroke="midnightblue" d="M345.493,-233.993C280.375,-228.112 189.176,-215.169 167,-188 161.379,-181.114 162.418,-175.617 167,-168 225.086,-71.4399 364.754,-31.1164 429.277,-17.2109"/>
<polygon fill="midnightblue" stroke="midnightblue" points="430.245,-20.5847 439.327,-15.129 428.825,-13.7302 430.245,-20.5847"/>
</g>
<!-- Node6 -->
<g id="node7" class="node"><title>Node6</title>
<polygon fill="white" stroke="#bfbfbf" points="190,-168.5 190,-187.5 234,-187.5 234,-168.5 190,-168.5"/>
<text text-anchor="middle" x="212" y="-175.5" font-family="Helvetica,sans-Serif" font-size="10.00">TH2.h</text>
</g>
<!-- Node0&#45;&gt;Node6 -->
<g id="edge6" class="edge"><title>Node0&#45;&gt;Node6</title>
<path fill="none" stroke="midnightblue" d="M366.385,-224.475C328.705,-213.376 277.115,-198.18 244.167,-188.475"/>
<polygon fill="midnightblue" stroke="midnightblue" points="244.747,-184.997 234.166,-185.529 242.769,-191.712 244.747,-184.997"/>
</g>
<!-- Node7 -->
<g id="node8" class="node"><title>Node7</title>
<polygon fill="white" stroke="#bfbfbf" points="252,-168.5 252,-187.5 296,-187.5 296,-168.5 252,-168.5"/>
<text text-anchor="middle" x="274" y="-175.5" font-family="Helvetica,sans-Serif" font-size="10.00">TH3.h</text>
</g>
<!-- Node0&#45;&gt;Node7 -->
<g id="edge7" class="edge"><title>Node0&#45;&gt;Node7</title>
<path fill="none" stroke="midnightblue" d="M380.822,-224.399C357.437,-214.461 326.388,-201.265 303.794,-191.662"/>
<polygon fill="midnightblue" stroke="midnightblue" points="304.944,-188.348 294.371,-187.658 302.206,-194.79 304.944,-188.348"/>
</g>
<!-- Node8 -->
<g id="node9" class="node"><title>Node8</title>
<polygon fill="white" stroke="#bfbfbf" points="314,-168.5 314,-187.5 366,-187.5 366,-168.5 314,-168.5"/>
<text text-anchor="middle" x="340" y="-175.5" font-family="Helvetica,sans-Serif" font-size="10.00">TH2D.h</text>
</g>
<!-- Node0&#45;&gt;Node8 -->
<g id="edge8" class="edge"><title>Node0&#45;&gt;Node8</title>
<path fill="none" stroke="midnightblue" d="M396.463,-224.399C385.156,-215.308 370.458,-203.49 358.893,-194.191"/>
<polygon fill="midnightblue" stroke="midnightblue" points="360.754,-191.196 350.768,-187.658 356.368,-196.652 360.754,-191.196"/>
</g>
<!-- Node9 -->
<g id="node10" class="node"><title>Node9</title>
<polygon fill="white" stroke="#bfbfbf" points="384,-168.5 384,-187.5 444,-187.5 444,-168.5 384,-168.5"/>
<text text-anchor="middle" x="414" y="-175.5" font-family="Helvetica,sans-Serif" font-size="10.00">TGraph.h</text>
</g>
<!-- Node0&#45;&gt;Node9 -->
<g id="edge9" class="edge"><title>Node0&#45;&gt;Node9</title>
<path fill="none" stroke="midnightblue" d="M414,-224.399C414,-216.466 414,-206.458 414,-197.858"/>
<polygon fill="midnightblue" stroke="midnightblue" points="417.5,-197.658 414,-187.658 410.5,-197.658 417.5,-197.658"/>
</g>
<!-- Node10 -->
<g id="node11" class="node"><title>Node10</title>
<polygon fill="white" stroke="#bfbfbf" points="462.5,-168.5 462.5,-187.5 527.5,-187.5 527.5,-168.5 462.5,-168.5"/>
<text text-anchor="middle" x="495" y="-175.5" font-family="Helvetica,sans-Serif" font-size="10.00">TCanvas.h</text>
</g>
<!-- Node0&#45;&gt;Node10 -->
<g id="edge10" class="edge"><title>Node0&#45;&gt;Node10</title>
<path fill="none" stroke="midnightblue" d="M433.196,-224.399C445.816,-215.129 462.293,-203.025 475.061,-193.647"/>
<polygon fill="midnightblue" stroke="midnightblue" points="477.227,-196.399 483.214,-187.658 473.082,-190.757 477.227,-196.399"/>
</g>
<!-- Node11 -->
<g id="node12" class="node"><title>Node11</title>
<g id="a_node12"><a xlink:href="histtools_8h.html" target="_top" xlink:title="histtools.h">
<polygon fill="white" stroke="black" points="546,-168.5 546,-187.5 612,-187.5 612,-168.5 546,-168.5"/>
<text text-anchor="middle" x="579" y="-175.5" font-family="Helvetica,sans-Serif" font-size="10.00">histtools.h</text>
</a>
</g>
</g>
<!-- Node0&#45;&gt;Node11 -->
<g id="edge11" class="edge"><title>Node0&#45;&gt;Node11</title>
<path fill="none" stroke="midnightblue" d="M453.103,-224.399C481.158,-214.283 518.573,-200.791 545.309,-191.149"/>
<polygon fill="midnightblue" stroke="midnightblue" points="546.771,-194.343 554.991,-187.658 544.397,-187.758 546.771,-194.343"/>
</g>
<!-- Node13 -->
<g id="node14" class="node"><title>Node13</title>
<polygon fill="white" stroke="#bfbfbf" points="630.5,-168.5 630.5,-187.5 689.5,-187.5 689.5,-168.5 630.5,-168.5"/>
<text text-anchor="middle" x="660" y="-175.5" font-family="Helvetica,sans-Serif" font-size="10.00">iostream</text>
</g>
<!-- Node0&#45;&gt;Node13 -->
<g id="edge13" class="edge"><title>Node0&#45;&gt;Node13</title>
<path fill="none" stroke="midnightblue" d="M471.987,-224.475C517.722,-213.413 580.287,-198.28 620.428,-188.571"/>
<polygon fill="midnightblue" stroke="midnightblue" points="621.479,-191.918 630.375,-186.165 619.833,-185.114 621.479,-191.918"/>
</g>
<!-- Node14 -->
<g id="node15" class="node"><title>Node14</title>
<polygon fill="white" stroke="#bfbfbf" points="708,-168.5 708,-187.5 750,-187.5 750,-168.5 708,-168.5"/>
<text text-anchor="middle" x="729" y="-175.5" font-family="Helvetica,sans-Serif" font-size="10.00">TF1.h</text>
</g>
<!-- Node0&#45;&gt;Node14 -->
<g id="edge14" class="edge"><title>Node0&#45;&gt;Node14</title>
<path fill="none" stroke="midnightblue" d="M482.697,-228.618C538.331,-220.092 618.858,-206.571 697.676,-188.097"/>
<polygon fill="midnightblue" stroke="midnightblue" points="698.856,-191.414 707.777,-185.699 697.239,-184.603 698.856,-191.414"/>
</g>
<!-- Node15 -->
<g id="node16" class="node"><title>Node15</title>
<g id="a_node16"><a xlink:href="_root_draw_8h.html" target="_top" xlink:title="analysis/plot/RootDraw.h">
<polygon fill="white" stroke="black" points="768,-168.5 768,-187.5 900,-187.5 900,-168.5 768,-168.5"/>
<text text-anchor="middle" x="834" y="-175.5" font-family="Helvetica,sans-Serif" font-size="10.00">analysis/plot/RootDraw.h</text>
</a>
</g>
</g>
<!-- Node0&#45;&gt;Node15 -->
<g id="edge15" class="edge"><title>Node0&#45;&gt;Node15</title>
<path fill="none" stroke="midnightblue" d="M482.884,-228.741C560.391,-217.761 685.631,-200.019 763.709,-188.958"/>
<polygon fill="midnightblue" stroke="midnightblue" points="764.522,-192.378 773.932,-187.51 763.54,-185.447 764.522,-192.378"/>
</g>
<!-- Node29 -->
<g id="node30" class="node"><title>Node29</title>
<polygon fill="white" stroke="#bfbfbf" points="918.5,-168.5 918.5,-187.5 995.5,-187.5 995.5,-168.5 918.5,-168.5"/>
<text text-anchor="middle" x="957" y="-175.5" font-family="Helvetica,sans-Serif" font-size="10.00">TRandom2.h</text>
</g>
<!-- Node0&#45;&gt;Node29 -->
<g id="edge36" class="edge"><title>Node0&#45;&gt;Node29</title>
<path fill="none" stroke="midnightblue" d="M482.685,-233.32C576.503,-225.838 750.153,-210.542 908.358,-187.976"/>
<polygon fill="midnightblue" stroke="midnightblue" points="908.874,-191.438 918.274,-186.549 907.877,-184.509 908.874,-191.438"/>
</g>
<!-- Node2&#45;&gt;Node3 -->
<g id="edge3" class="edge"><title>Node2&#45;&gt;Node3</title>
<path fill="none" stroke="midnightblue" d="M463,-112.368C463,-94.617 463,-53.6664 463,-29.5974"/>
<polygon fill="midnightblue" stroke="midnightblue" points="466.5,-29.5914 463,-19.5914 459.5,-29.5915 466.5,-29.5914"/>
</g>
<!-- Node4 -->
<g id="node5" class="node"><title>Node4</title>
<polygon fill="white" stroke="#bfbfbf" points="551,-0.5 551,-19.5 593,-19.5 593,-0.5 551,-0.5"/>
<text text-anchor="middle" x="572" y="-7.5" font-family="Helvetica,sans-Serif" font-size="10.00">limits</text>
</g>
<!-- Node2&#45;&gt;Node4 -->
<g id="edge4" class="edge"><title>Node2&#45;&gt;Node4</title>
<path fill="none" stroke="midnightblue" d="M471.553,-112.368C489.86,-93.8941 533.065,-50.2926 556.4,-26.7436"/>
<polygon fill="midnightblue" stroke="midnightblue" points="558.934,-29.1583 563.487,-19.5914 553.962,-24.2312 558.934,-29.1583"/>
</g>
<!-- Node5 -->
<g id="node6" class="node"><title>Node5</title>
<polygon fill="white" stroke="#bfbfbf" points="661.5,-56.5 661.5,-75.5 708.5,-75.5 708.5,-56.5 661.5,-56.5"/>
<text text-anchor="middle" x="685" y="-63.5" font-family="Helvetica,sans-Serif" font-size="10.00">vector</text>
</g>
<!-- Node2&#45;&gt;Node5 -->
<g id="edge5" class="edge"><title>Node2&#45;&gt;Node5</title>
<path fill="none" stroke="midnightblue" d="M498.177,-112.444C540.217,-102.217 610.055,-85.2298 651.391,-75.1753"/>
<polygon fill="midnightblue" stroke="midnightblue" points="652.362,-78.5412 661.251,-72.7767 650.707,-71.7395 652.362,-78.5412"/>
</g>
<!-- Node12 -->
<g id="node13" class="node"><title>Node12</title>
<polygon fill="white" stroke="#bfbfbf" points="539,-112.5 539,-131.5 581,-131.5 581,-112.5 539,-112.5"/>
<text text-anchor="middle" x="560" y="-119.5" font-family="Helvetica,sans-Serif" font-size="10.00">utility</text>
</g>
<!-- Node11&#45;&gt;Node12 -->
<g id="edge12" class="edge"><title>Node11&#45;&gt;Node12</title>
<path fill="none" stroke="midnightblue" d="M575.863,-168.083C573.317,-160.849 569.644,-150.409 566.473,-141.397"/>
<polygon fill="midnightblue" stroke="midnightblue" points="569.7,-140.023 563.079,-131.751 563.097,-142.346 569.7,-140.023"/>
</g>
<!-- Node15&#45;&gt;Node5 -->
<g id="edge18" class="edge"><title>Node15&#45;&gt;Node5</title>
<path fill="none" stroke="midnightblue" d="M773.39,-168.436C748.909,-162.109 722.2,-151.112 704,-132 692.228,-119.639 687.698,-100.392 685.981,-86.045"/>
<polygon fill="midnightblue" stroke="midnightblue" points="689.447,-85.4876 685.123,-75.8151 682.471,-86.0727 689.447,-85.4876"/>
</g>
<!-- Node16 -->
<g id="node17" class="node"><title>Node16</title>
<polygon fill="white" stroke="#bfbfbf" points="713,-112.5 713,-131.5 757,-131.5 757,-112.5 713,-112.5"/>
<text text-anchor="middle" x="735" y="-119.5" font-family="Helvetica,sans-Serif" font-size="10.00">string</text>
</g>
<!-- Node15&#45;&gt;Node16 -->
<g id="edge16" class="edge"><title>Node15&#45;&gt;Node16</title>
<path fill="none" stroke="midnightblue" d="M818.094,-168.324C802.362,-159.743 778.058,-146.486 759.791,-136.522"/>
<polygon fill="midnightblue" stroke="midnightblue" points="761.322,-133.37 750.867,-131.655 757.97,-139.516 761.322,-133.37"/>
</g>
<!-- Node17 -->
<g id="node18" class="node"><title>Node17</title>
<polygon fill="white" stroke="#bfbfbf" points="775,-112.5 775,-131.5 805,-131.5 805,-112.5 775,-112.5"/>
<text text-anchor="middle" x="790" y="-119.5" font-family="Helvetica,sans-Serif" font-size="10.00">list</text>
</g>
<!-- Node15&#45;&gt;Node17 -->
<g id="edge17" class="edge"><title>Node15&#45;&gt;Node17</title>
<path fill="none" stroke="midnightblue" d="M826.734,-168.083C820.455,-160.377 811.212,-149.033 803.569,-139.653"/>
<polygon fill="midnightblue" stroke="midnightblue" points="806.161,-137.293 797.131,-131.751 800.734,-141.714 806.161,-137.293"/>
</g>
<!-- Node18 -->
<g id="node19" class="node"><title>Node18</title>
<polygon fill="white" stroke="#bfbfbf" points="823.5,-112.5 823.5,-131.5 880.5,-131.5 880.5,-112.5 823.5,-112.5"/>
<text text-anchor="middle" x="852" y="-119.5" font-family="Helvetica,sans-Serif" font-size="10.00">memory</text>
</g>
<!-- Node15&#45;&gt;Node18 -->
<g id="edge19" class="edge"><title>Node15&#45;&gt;Node18</title>
<path fill="none" stroke="midnightblue" d="M836.972,-168.083C839.384,-160.849 842.864,-150.409 845.868,-141.397"/>
<polygon fill="midnightblue" stroke="midnightblue" points="849.241,-142.345 849.083,-131.751 842.6,-140.131 849.241,-142.345"/>
</g>
<!-- Node19 -->
<g id="node20" class="node"><title>Node19</title>
<polygon fill="white" stroke="#bfbfbf" points="898.5,-112.5 898.5,-131.5 961.5,-131.5 961.5,-112.5 898.5,-112.5"/>
<text text-anchor="middle" x="930" y="-119.5" font-family="Helvetica,sans-Serif" font-size="10.00">functional</text>
</g>
<!-- Node15&#45;&gt;Node19 -->
<g id="edge20" class="edge"><title>Node15&#45;&gt;Node19</title>
<path fill="none" stroke="midnightblue" d="M849.424,-168.324C864.54,-159.822 887.815,-146.729 905.471,-136.797"/>
<polygon fill="midnightblue" stroke="midnightblue" points="907.614,-139.608 914.614,-131.655 904.183,-133.507 907.614,-139.608"/>
</g>
<!-- Node20 -->
<g id="node21" class="node"><title>Node20</title>
<g id="a_node21"><a xlink:href="_bin_settings_8h.html" target="_top" xlink:title="base/BinSettings.h">
<polygon fill="white" stroke="black" points="979.5,-112.5 979.5,-131.5 1086.5,-131.5 1086.5,-112.5 979.5,-112.5"/>
<text text-anchor="middle" x="1033" y="-119.5" font-family="Helvetica,sans-Serif" font-size="10.00">base/BinSettings.h</text>
</a>
</g>
</g>
<!-- Node15&#45;&gt;Node20 -->
<g id="edge21" class="edge"><title>Node15&#45;&gt;Node20</title>
<path fill="none" stroke="midnightblue" d="M865.532,-168.444C899.592,-159.201 954.006,-144.436 991.515,-134.257"/>
<polygon fill="midnightblue" stroke="midnightblue" points="992.881,-137.513 1001.62,-131.516 991.048,-130.758 992.881,-137.513"/>
</g>
<!-- Node28 -->
<g id="node29" class="node"><title>Node28</title>
<polygon fill="white" stroke="#bfbfbf" points="599,-112.5 599,-131.5 657,-131.5 657,-112.5 599,-112.5"/>
<text text-anchor="middle" x="628" y="-119.5" font-family="Helvetica,sans-Serif" font-size="10.00">Rtypes.h</text>
</g>
<!-- Node15&#45;&gt;Node28 -->
<g id="edge34" class="edge"><title>Node15&#45;&gt;Node28</title>
<path fill="none" stroke="midnightblue" d="M801.359,-168.444C764.908,-158.889 705.94,-143.431 667.067,-133.241"/>
<polygon fill="midnightblue" stroke="midnightblue" points="667.719,-129.793 657.158,-130.643 665.944,-136.565 667.719,-129.793"/>
</g>
<!-- Node20&#45;&gt;Node5 -->
<g id="edge30" class="edge"><title>Node20&#45;&gt;Node5</title>
<path fill="none" stroke="midnightblue" d="M979.388,-112.681C906.905,-101.433 779.753,-81.7031 719.082,-72.2886"/>
<polygon fill="midnightblue" stroke="midnightblue" points="719.318,-68.7833 708.899,-70.7085 718.244,-75.7005 719.318,-68.7833"/>
</g>
<!-- Node21 -->
<g id="node22" class="node"><title>Node21</title>
<g id="a_node22"><a xlink:href="interval_8h.html" target="_top" xlink:title="base/interval.h">
<polygon fill="white" stroke="black" points="752.5,-56.5 752.5,-75.5 839.5,-75.5 839.5,-56.5 752.5,-56.5"/>
<text text-anchor="middle" x="796" y="-63.5" font-family="Helvetica,sans-Serif" font-size="10.00">base/interval.h</text>
</a>
</g>
</g>
<!-- Node20&#45;&gt;Node21 -->
<g id="edge22" class="edge"><title>Node20&#45;&gt;Node21</title>
<path fill="none" stroke="midnightblue" d="M995.447,-112.444C954.189,-103.043 887.856,-87.9291 843.134,-77.7393"/>
<polygon fill="midnightblue" stroke="midnightblue" points="843.905,-74.3255 833.378,-75.5164 842.35,-81.1506 843.905,-74.3255"/>
</g>
<!-- Node24 -->
<g id="node25" class="node"><title>Node24</title>
<polygon fill="white" stroke="#bfbfbf" points="881,-0.5 881,-19.5 945,-19.5 945,-0.5 881,-0.5"/>
<text text-anchor="middle" x="913" y="-7.5" font-family="Helvetica,sans-Serif" font-size="10.00">stdexcept</text>
</g>
<!-- Node20&#45;&gt;Node24 -->
<g id="edge31" class="edge"><title>Node20&#45;&gt;Node24</title>
<path fill="none" stroke="midnightblue" d="M1023.58,-112.368C1003.34,-93.8137 955.45,-49.9129 929.841,-26.4376"/>
<polygon fill="midnightblue" stroke="midnightblue" points="932.109,-23.7686 922.372,-19.5914 927.379,-28.9287 932.109,-23.7686"/>
</g>
<!-- Node25 -->
<g id="node26" class="node"><title>Node25</title>
<polygon fill="white" stroke="#bfbfbf" points="963.5,-0.5 963.5,-19.5 1016.5,-19.5 1016.5,-0.5 963.5,-0.5"/>
<text text-anchor="middle" x="990" y="-7.5" font-family="Helvetica,sans-Serif" font-size="10.00">istream</text>
</g>
<!-- Node20&#45;&gt;Node25 -->
<g id="edge32" class="edge"><title>Node20&#45;&gt;Node25</title>
<path fill="none" stroke="midnightblue" d="M1027.95,-112.249C1022.94,-103.334 1015.28,-89.0079 1010,-76 1003.76,-60.6151 998.338,-42.5189 994.721,-29.3325"/>
<polygon fill="midnightblue" stroke="midnightblue" points="998.08,-28.3435 992.129,-19.578 991.315,-30.1415 998.08,-28.3435"/>
</g>
<!-- Node27 -->
<g id="node28" class="node"><title>Node27</title>
<polygon fill="white" stroke="#bfbfbf" points="1018.5,-56.5 1018.5,-75.5 1075.5,-75.5 1075.5,-56.5 1018.5,-56.5"/>
<text text-anchor="middle" x="1047" y="-63.5" font-family="Helvetica,sans-Serif" font-size="10.00">ostream</text>
</g>
<!-- Node20&#45;&gt;Node27 -->
<g id="edge33" class="edge"><title>Node20&#45;&gt;Node27</title>
<path fill="none" stroke="midnightblue" d="M1035.31,-112.083C1037.17,-104.927 1039.84,-94.6353 1042.15,-85.6911"/>
<polygon fill="midnightblue" stroke="midnightblue" points="1045.61,-86.3094 1044.73,-75.7511 1038.83,-84.5527 1045.61,-86.3094"/>
</g>
<!-- Node21&#45;&gt;Node3 -->
<g id="edge29" class="edge"><title>Node21&#45;&gt;Node3</title>
<path fill="none" stroke="midnightblue" d="M752.466,-57.9404C685.277,-47.0449 557.726,-26.3609 496.904,-16.498"/>
<polygon fill="midnightblue" stroke="midnightblue" points="497.13,-12.9889 486.698,-14.843 496.009,-19.8986 497.13,-12.9889"/>
</g>
<!-- Node21&#45;&gt;Node4 -->
<g id="edge26" class="edge"><title>Node21&#45;&gt;Node4</title>
<path fill="none" stroke="midnightblue" d="M760.507,-56.4435C717.063,-45.9706 644.203,-28.4061 602.944,-18.4598"/>
<polygon fill="midnightblue" stroke="midnightblue" points="603.714,-15.0453 593.173,-16.1041 602.074,-21.8503 603.714,-15.0453"/>
</g>
<!-- Node22 -->
<g id="node23" class="node"><title>Node22</title>
<g id="a_node23"><a xlink:href="types_8h.html" target="_top" xlink:title="types.h">
<polygon fill="white" stroke="black" points="811,-0.5 811,-19.5 863,-19.5 863,-0.5 811,-0.5"/>
<text text-anchor="middle" x="837" y="-7.5" font-family="Helvetica,sans-Serif" font-size="10.00">types.h</text>
</a>
</g>
</g>
<!-- Node21&#45;&gt;Node22 -->
<g id="edge23" class="edge"><title>Node21&#45;&gt;Node22</title>
<path fill="none" stroke="midnightblue" d="M802.77,-56.083C808.562,-48.4554 817.058,-37.2645 824.138,-27.9408"/>
<polygon fill="midnightblue" stroke="midnightblue" points="827.096,-29.8321 830.356,-19.7511 821.521,-25.5991 827.096,-29.8321"/>
</g>
<!-- Node23 -->
<g id="node24" class="node"><title>Node23</title>
<polygon fill="white" stroke="#bfbfbf" points="657,-0.5 657,-19.5 719,-19.5 719,-0.5 657,-0.5"/>
<text text-anchor="middle" x="688" y="-7.5" font-family="Helvetica,sans-Serif" font-size="10.00">algorithm</text>
</g>
<!-- Node21&#45;&gt;Node23 -->
<g id="edge24" class="edge"><title>Node21&#45;&gt;Node23</title>
<path fill="none" stroke="midnightblue" d="M778.648,-56.324C761.328,-47.6641 734.485,-34.2424 714.498,-24.249"/>
<polygon fill="midnightblue" stroke="midnightblue" points="715.819,-20.9962 705.309,-19.6545 712.688,-27.2572 715.819,-20.9962"/>
</g>
<!-- Node21&#45;&gt;Node24 -->
<g id="edge25" class="edge"><title>Node21&#45;&gt;Node24</title>
<path fill="none" stroke="midnightblue" d="M814.539,-56.4435C833.623,-47.6356 863.575,-33.8116 885.436,-23.722"/>
<polygon fill="midnightblue" stroke="midnightblue" points="886.935,-26.8849 894.548,-19.5164 884.001,-20.5292 886.935,-26.8849"/>
</g>
<!-- Node21&#45;&gt;Node25 -->
<g id="edge27" class="edge"><title>Node21&#45;&gt;Node25</title>
<path fill="none" stroke="midnightblue" d="M826.74,-56.4435C861.214,-46.8477 917.076,-31.2984 953.678,-21.1104"/>
<polygon fill="midnightblue" stroke="midnightblue" points="954.761,-24.4419 963.456,-18.3884 952.884,-17.6982 954.761,-24.4419"/>
</g>
<!-- Node26 -->
<g id="node27" class="node"><title>Node26</title>
<polygon fill="white" stroke="#bfbfbf" points="737,-0.5 737,-19.5 793,-19.5 793,-0.5 737,-0.5"/>
<text text-anchor="middle" x="765" y="-7.5" font-family="Helvetica,sans-Serif" font-size="10.00">sstream</text>
</g>
<!-- Node21&#45;&gt;Node26 -->
<g id="edge28" class="edge"><title>Node21&#45;&gt;Node26</title>
<path fill="none" stroke="midnightblue" d="M790.881,-56.083C786.592,-48.6127 780.342,-37.7244 775.058,-28.5199"/>
<polygon fill="midnightblue" stroke="midnightblue" points="778.038,-26.6811 770.024,-19.7511 771.967,-30.1662 778.038,-26.6811"/>
</g>
</g>
</svg>
