<?xml version="1.0" encoding="UTF-8" standalone="no"?>
<!DOCTYPE svg PUBLIC "-//W3C//DTD SVG 1.1//EN"
 "http://www.w3.org/Graphics/SVG/1.1/DTD/svg11.dtd">
<!-- Generated by graphviz version 2.38.0 (20140413.2041)
 -->
<!-- Title: src/analysis/utils/TimeSmearingHack.cc Pages: 1 -->
<svg width="1548pt" height="498pt"
 viewBox="0.00 0.00 1547.86 498.00" xmlns="http://www.w3.org/2000/svg" xmlns:xlink="http://www.w3.org/1999/xlink">
<g id="graph0" class="graph" transform="scale(1 1) rotate(0) translate(4 494)">
<title>src/analysis/utils/TimeSmearingHack.cc</title>
<polygon fill="white" stroke="none" points="-4,4 -4,-494 1543.86,-494 1543.86,4 -4,4"/>
<!-- Node0 -->
<g id="node1" class="node"><title>Node0</title>
<polygon fill="#bfbfbf" stroke="black" points="767.5,-459.5 767.5,-489.5 894.5,-489.5 894.5,-459.5 767.5,-459.5"/>
<text text-anchor="start" x="775.5" y="-477.5" font-family="Helvetica,sans-Serif" font-size="10.00">src/analysis/utils</text>
<text text-anchor="middle" x="831" y="-466.5" font-family="Helvetica,sans-Serif" font-size="10.00">/TimeSmearingHack.cc</text>
</g>
<!-- Node1 -->
<g id="node2" class="node"><title>Node1</title>
<g id="a_node2"><a xlink:href="_time_smearing_hack_8h.html" target="_top" xlink:title="TimeSmearingHack.h">
<polygon fill="white" stroke="black" points="658.5,-403.5 658.5,-422.5 777.5,-422.5 777.5,-403.5 658.5,-403.5"/>
<text text-anchor="middle" x="718" y="-410.5" font-family="Helvetica,sans-Serif" font-size="10.00">TimeSmearingHack.h</text>
</a>
</g>
</g>
<!-- Node0&#45;&gt;Node1 -->
<g id="edge1" class="edge"><title>Node0&#45;&gt;Node1</title>
<path fill="none" stroke="midnightblue" d="M804.221,-459.399C785.938,-449.773 761.852,-437.09 743.785,-427.577"/>
<polygon fill="midnightblue" stroke="midnightblue" points="744.922,-424.22 734.443,-422.658 741.66,-430.414 744.922,-424.22"/>
</g>
<!-- Node35 -->
<g id="node36" class="node"><title>Node35</title>
<polygon fill="white" stroke="#bfbfbf" points="795.5,-403.5 795.5,-422.5 866.5,-422.5 866.5,-403.5 795.5,-403.5"/>
<text text-anchor="middle" x="831" y="-410.5" font-family="Helvetica,sans-Serif" font-size="10.00">TRandom.h</text>
</g>
<!-- Node0&#45;&gt;Node35 -->
<g id="edge66" class="edge"><title>Node0&#45;&gt;Node35</title>
<path fill="none" stroke="midnightblue" d="M831,-459.399C831,-451.466 831,-441.458 831,-432.858"/>
<polygon fill="midnightblue" stroke="midnightblue" points="834.5,-432.658 831,-422.658 827.5,-432.658 834.5,-432.658"/>
</g>
<!-- Node36 -->
<g id="node37" class="node"><title>Node36</title>
<g id="a_node37"><a xlink:href="_logger_8h.html" target="_top" xlink:title="base/Logger.h">
<polygon fill="white" stroke="black" points="885,-403.5 885,-422.5 969,-422.5 969,-403.5 885,-403.5"/>
<text text-anchor="middle" x="927" y="-410.5" font-family="Helvetica,sans-Serif" font-size="10.00">base/Logger.h</text>
</a>
</g>
</g>
<!-- Node0&#45;&gt;Node36 -->
<g id="edge67" class="edge"><title>Node0&#45;&gt;Node36</title>
<path fill="none" stroke="midnightblue" d="M853.751,-459.399C868.995,-449.951 888.989,-437.559 904.236,-428.109"/>
<polygon fill="midnightblue" stroke="midnightblue" points="906.375,-430.901 913.031,-422.658 902.687,-424.951 906.375,-430.901"/>
</g>
<!-- Node2 -->
<g id="node3" class="node"><title>Node2</title>
<g id="a_node3"><a xlink:href="_t_tagger_hit_8h.html" target="_top" xlink:title="tree/TTaggerHit.h">
<polygon fill="white" stroke="black" points="1104,-291.5 1104,-310.5 1202,-310.5 1202,-291.5 1104,-291.5"/>
<text text-anchor="middle" x="1153" y="-298.5" font-family="Helvetica,sans-Serif" font-size="10.00">tree/TTaggerHit.h</text>
</a>
</g>
</g>
<!-- Node1&#45;&gt;Node2 -->
<g id="edge2" class="edge"><title>Node1&#45;&gt;Node2</title>
<path fill="none" stroke="midnightblue" d="M734.142,-403.382C761.093,-389.368 817.307,-361.728 868,-347 889.234,-340.831 1016.76,-321.764 1093.85,-310.526"/>
<polygon fill="midnightblue" stroke="midnightblue" points="1094.52,-313.965 1103.92,-309.062 1093.52,-307.038 1094.52,-313.965"/>
</g>
<!-- Node24 -->
<g id="node25" class="node"><title>Node24</title>
<g id="a_node25"><a xlink:href="_t_candidate_8h.html" target="_top" xlink:title="tree/TCandidate.h">
<polygon fill="white" stroke="black" points="615.5,-347.5 615.5,-366.5 716.5,-366.5 716.5,-347.5 615.5,-347.5"/>
<text text-anchor="middle" x="666" y="-354.5" font-family="Helvetica,sans-Serif" font-size="10.00">tree/TCandidate.h</text>
</a>
</g>
</g>
<!-- Node1&#45;&gt;Node24 -->
<g id="edge29" class="edge"><title>Node1&#45;&gt;Node24</title>
<path fill="none" stroke="midnightblue" d="M709.413,-403.083C701.841,-395.22 690.622,-383.569 681.486,-374.081"/>
<polygon fill="midnightblue" stroke="midnightblue" points="683.885,-371.527 674.427,-366.751 678.842,-376.382 683.885,-371.527"/>
</g>
<!-- Node3 -->
<g id="node4" class="node"><title>Node3</title>
<g id="a_node4"><a xlink:href="_t_i_d_8h.html" target="_top" xlink:title="TID.h">
<polygon fill="white" stroke="black" points="1160.5,-230 1160.5,-249 1201.5,-249 1201.5,-230 1160.5,-230"/>
<text text-anchor="middle" x="1181" y="-237" font-family="Helvetica,sans-Serif" font-size="10.00">TID.h</text>
</a>
</g>
</g>
<!-- Node2&#45;&gt;Node3 -->
<g id="edge3" class="edge"><title>Node2&#45;&gt;Node3</title>
<path fill="none" stroke="midnightblue" d="M1157.01,-291.475C1161.09,-282.815 1167.52,-269.149 1172.7,-258.145"/>
<polygon fill="midnightblue" stroke="midnightblue" points="1175.9,-259.548 1177,-249.009 1169.57,-256.567 1175.9,-259.548"/>
</g>
<!-- Node8 -->
<g id="node9" class="node"><title>Node8</title>
<polygon fill="white" stroke="#bfbfbf" points="1108,-56.5 1108,-75.5 1164,-75.5 1164,-56.5 1108,-56.5"/>
<text text-anchor="middle" x="1136" y="-63.5" font-family="Helvetica,sans-Serif" font-size="10.00">sstream</text>
</g>
<!-- Node2&#45;&gt;Node8 -->
<g id="edge28" class="edge"><title>Node2&#45;&gt;Node8</title>
<path fill="none" stroke="midnightblue" d="M1202.07,-293.707C1322.81,-276.375 1617.67,-221.779 1520,-112 1497.23,-86.4073 1266.61,-73.0169 1174.1,-68.6414"/>
<polygon fill="midnightblue" stroke="midnightblue" points="1174.19,-65.142 1164.04,-68.1756 1173.86,-72.1345 1174.19,-65.142"/>
</g>
<!-- Node10 -->
<g id="node11" class="node"><title>Node10</title>
<polygon fill="white" stroke="#bfbfbf" points="260.5,-56.5 260.5,-75.5 307.5,-75.5 307.5,-56.5 260.5,-56.5"/>
<text text-anchor="middle" x="284" y="-63.5" font-family="Helvetica,sans-Serif" font-size="10.00">vector</text>
</g>
<!-- Node2&#45;&gt;Node10 -->
<g id="edge26" class="edge"><title>Node2&#45;&gt;Node10</title>
<path fill="none" stroke="midnightblue" d="M1103.9,-299.447C980.081,-297.552 657.793,-289.365 557,-255 446.144,-217.204 339.003,-120.68 299.737,-82.6959"/>
<polygon fill="midnightblue" stroke="midnightblue" points="302.004,-80.0177 292.411,-75.5212 297.106,-85.0188 302.004,-80.0177"/>
</g>
<!-- Node18 -->
<g id="node19" class="node"><title>Node18</title>
<polygon fill="white" stroke="#bfbfbf" points="840.5,-168.5 840.5,-187.5 895.5,-187.5 895.5,-168.5 840.5,-168.5"/>
<text text-anchor="middle" x="868" y="-175.5" font-family="Helvetica,sans-Serif" font-size="10.00">iomanip</text>
</g>
<!-- Node2&#45;&gt;Node18 -->
<g id="edge27" class="edge"><title>Node2&#45;&gt;Node18</title>
<path fill="none" stroke="midnightblue" d="M1132.96,-291.492C1083.61,-270.541 956.025,-216.372 897.783,-191.645"/>
<polygon fill="midnightblue" stroke="midnightblue" points="898.973,-188.347 888.4,-187.661 896.237,-194.791 898.973,-188.347"/>
</g>
<!-- Node19 -->
<g id="node20" class="node"><title>Node19</title>
<g id="a_node20"><a xlink:href="_lorentz_vec_8h.html" target="_top" xlink:title="base/vec/LorentzVec.h">
<polygon fill="white" stroke="black" points="566.5,-230 566.5,-249 691.5,-249 691.5,-230 566.5,-230"/>
<text text-anchor="middle" x="629" y="-237" font-family="Helvetica,sans-Serif" font-size="10.00">base/vec/LorentzVec.h</text>
</a>
</g>
</g>
<!-- Node2&#45;&gt;Node19 -->
<g id="edge20" class="edge"><title>Node2&#45;&gt;Node19</title>
<path fill="none" stroke="midnightblue" d="M1103.97,-296.725C1020.79,-290.811 846.835,-276.889 701,-255 693.46,-253.868 685.514,-252.474 677.763,-251.002"/>
<polygon fill="midnightblue" stroke="midnightblue" points="678.223,-247.526 667.736,-249.037 676.877,-254.395 678.223,-247.526"/>
</g>
<!-- Node4 -->
<g id="node5" class="node"><title>Node4</title>
<polygon fill="white" stroke="#bfbfbf" points="1180,-168.5 1180,-187.5 1238,-187.5 1238,-168.5 1180,-168.5"/>
<text text-anchor="middle" x="1209" y="-175.5" font-family="Helvetica,sans-Serif" font-size="10.00">Rtypes.h</text>
</g>
<!-- Node3&#45;&gt;Node4 -->
<g id="edge4" class="edge"><title>Node3&#45;&gt;Node4</title>
<path fill="none" stroke="midnightblue" d="M1185.01,-229.975C1189.09,-221.315 1195.52,-207.649 1200.7,-196.645"/>
<polygon fill="midnightblue" stroke="midnightblue" points="1203.9,-198.048 1205,-187.509 1197.57,-195.067 1203.9,-198.048"/>
</g>
<!-- Node5 -->
<g id="node6" class="node"><title>Node5</title>
<g id="a_node6"><a xlink:href="base_2std__ext_2_time_8h.html" target="_top" xlink:title="base/std_ext/time.h">
<polygon fill="white" stroke="black" points="1364,-168.5 1364,-187.5 1476,-187.5 1476,-168.5 1364,-168.5"/>
<text text-anchor="middle" x="1420" y="-175.5" font-family="Helvetica,sans-Serif" font-size="10.00">base/std_ext/time.h</text>
</a>
</g>
</g>
<!-- Node3&#45;&gt;Node5 -->
<g id="edge5" class="edge"><title>Node3&#45;&gt;Node5</title>
<path fill="none" stroke="midnightblue" d="M1201.79,-233.324C1240.44,-223.702 1324.11,-202.871 1375.88,-189.983"/>
<polygon fill="midnightblue" stroke="midnightblue" points="1376.93,-193.329 1385.79,-187.517 1375.24,-186.536 1376.93,-193.329"/>
</g>
<!-- Node12 -->
<g id="node13" class="node"><title>Node12</title>
<polygon fill="white" stroke="#bfbfbf" points="1467,-112.5 1467,-131.5 1511,-131.5 1511,-112.5 1467,-112.5"/>
<text text-anchor="middle" x="1489" y="-119.5" font-family="Helvetica,sans-Serif" font-size="10.00">ctime</text>
</g>
<!-- Node3&#45;&gt;Node12 -->
<g id="edge19" class="edge"><title>Node3&#45;&gt;Node12</title>
<path fill="none" stroke="midnightblue" d="M1201.93,-238.261C1264.33,-237.076 1447.11,-230.016 1485,-188 1496.1,-175.689 1495.8,-156.157 1493.51,-141.715"/>
<polygon fill="midnightblue" stroke="midnightblue" points="1496.94,-140.981 1491.53,-131.867 1490.07,-142.36 1496.94,-140.981"/>
</g>
<!-- Node13 -->
<g id="node14" class="node"><title>Node13</title>
<polygon fill="white" stroke="#bfbfbf" points="678,-112.5 678,-131.5 746,-131.5 746,-112.5 678,-112.5"/>
<text text-anchor="middle" x="712" y="-119.5" font-family="Helvetica,sans-Serif" font-size="10.00">type_traits</text>
</g>
<!-- Node3&#45;&gt;Node13 -->
<g id="edge13" class="edge"><title>Node3&#45;&gt;Node13</title>
<path fill="none" stroke="midnightblue" d="M1160.29,-233.611C1123.24,-224.817 1043.19,-205.604 976,-188 943.873,-179.583 936.174,-176.235 904,-168 853.459,-155.063 795.057,-141.583 756.061,-132.791"/>
<polygon fill="midnightblue" stroke="midnightblue" points="756.615,-129.328 746.091,-130.549 755.08,-136.157 756.615,-129.328"/>
</g>
<!-- Node14 -->
<g id="node15" class="node"><title>Node14</title>
<polygon fill="white" stroke="#bfbfbf" points="1256.5,-168.5 1256.5,-187.5 1297.5,-187.5 1297.5,-168.5 1256.5,-168.5"/>
<text text-anchor="middle" x="1277" y="-175.5" font-family="Helvetica,sans-Serif" font-size="10.00">tuple</text>
</g>
<!-- Node3&#45;&gt;Node14 -->
<g id="edge14" class="edge"><title>Node3&#45;&gt;Node14</title>
<path fill="none" stroke="midnightblue" d="M1194.75,-229.975C1210.37,-220.299 1236.06,-204.372 1254.58,-192.894"/>
<polygon fill="midnightblue" stroke="midnightblue" points="1256.62,-195.752 1263.27,-187.509 1252.93,-189.802 1256.62,-195.752"/>
</g>
<!-- Node15 -->
<g id="node16" class="node"><title>Node15</title>
<polygon fill="white" stroke="#bfbfbf" points="764.5,-112.5 764.5,-131.5 813.5,-131.5 813.5,-112.5 764.5,-112.5"/>
<text text-anchor="middle" x="789" y="-119.5" font-family="Helvetica,sans-Serif" font-size="10.00">cstdint</text>
</g>
<!-- Node3&#45;&gt;Node15 -->
<g id="edge15" class="edge"><title>Node3&#45;&gt;Node15</title>
<path fill="none" stroke="midnightblue" d="M1160.27,-230.596C1123.51,-216.758 1044.34,-187.737 976,-168 911.901,-149.487 892.498,-148.95 823.881,-132.148"/>
<polygon fill="midnightblue" stroke="midnightblue" points="824.41,-128.674 813.862,-129.666 822.727,-135.468 824.41,-128.674"/>
</g>
<!-- Node16 -->
<g id="node17" class="node"><title>Node16</title>
<polygon fill="white" stroke="#bfbfbf" points="832,-112.5 832,-131.5 896,-131.5 896,-112.5 832,-112.5"/>
<text text-anchor="middle" x="864" y="-119.5" font-family="Helvetica,sans-Serif" font-size="10.00">stdexcept</text>
</g>
<!-- Node3&#45;&gt;Node16 -->
<g id="edge16" class="edge"><title>Node3&#45;&gt;Node16</title>
<path fill="none" stroke="midnightblue" d="M1177.2,-229.878C1170,-214.643 1152.84,-183.145 1128,-168 1109.38,-156.648 976.253,-137.765 906.461,-128.487"/>
<polygon fill="midnightblue" stroke="midnightblue" points="906.61,-124.976 896.237,-127.136 905.693,-131.916 906.61,-124.976"/>
</g>
<!-- Node17 -->
<g id="node18" class="node"><title>Node17</title>
<polygon fill="white" stroke="#bfbfbf" points="1316,-168.5 1316,-187.5 1346,-187.5 1346,-168.5 1316,-168.5"/>
<text text-anchor="middle" x="1331" y="-175.5" font-family="Helvetica,sans-Serif" font-size="10.00">list</text>
</g>
<!-- Node3&#45;&gt;Node17 -->
<g id="edge17" class="edge"><title>Node3&#45;&gt;Node17</title>
<path fill="none" stroke="midnightblue" d="M1201.54,-230.352C1228.82,-219.533 1276.94,-200.445 1306.2,-188.836"/>
<polygon fill="midnightblue" stroke="midnightblue" points="1307.7,-192.009 1315.7,-185.068 1305.12,-185.502 1307.7,-192.009"/>
</g>
<!-- Node3&#45;&gt;Node18 -->
<g id="edge18" class="edge"><title>Node3&#45;&gt;Node18</title>
<path fill="none" stroke="midnightblue" d="M1160.46,-234.596C1108.7,-224.755 972.258,-198.819 905.654,-186.158"/>
<polygon fill="midnightblue" stroke="midnightblue" points="906.066,-182.674 895.588,-184.244 904.758,-189.55 906.066,-182.674"/>
</g>
<!-- Node6 -->
<g id="node7" class="node"><title>Node6</title>
<g id="a_node7"><a xlink:href="string_8h.html" target="_top" xlink:title="base/std_ext/string.h">
<polygon fill="white" stroke="black" points="952.5,-112.5 952.5,-131.5 1069.5,-131.5 1069.5,-112.5 952.5,-112.5"/>
<text text-anchor="middle" x="1011" y="-119.5" font-family="Helvetica,sans-Serif" font-size="10.00">base/std_ext/string.h</text>
</a>
</g>
</g>
<!-- Node5&#45;&gt;Node6 -->
<g id="edge6" class="edge"><title>Node5&#45;&gt;Node6</title>
<path fill="none" stroke="midnightblue" d="M1363.98,-169.217C1360.95,-168.803 1357.94,-168.395 1355,-168 1259.56,-155.15 1149.15,-140.798 1079.7,-131.833"/>
<polygon fill="midnightblue" stroke="midnightblue" points="1080.12,-128.358 1069.76,-130.55 1079.23,-135.301 1080.12,-128.358"/>
</g>
<!-- Node11 -->
<g id="node12" class="node"><title>Node11</title>
<polygon fill="white" stroke="#bfbfbf" points="1395.5,-112.5 1395.5,-131.5 1444.5,-131.5 1444.5,-112.5 1395.5,-112.5"/>
<text text-anchor="middle" x="1420" y="-119.5" font-family="Helvetica,sans-Serif" font-size="10.00">cstring</text>
</g>
<!-- Node5&#45;&gt;Node11 -->
<g id="edge11" class="edge"><title>Node5&#45;&gt;Node11</title>
<path fill="none" stroke="midnightblue" d="M1420,-168.083C1420,-161.006 1420,-150.861 1420,-141.986"/>
<polygon fill="midnightblue" stroke="midnightblue" points="1423.5,-141.751 1420,-131.751 1416.5,-141.751 1423.5,-141.751"/>
</g>
<!-- Node5&#45;&gt;Node12 -->
<g id="edge12" class="edge"><title>Node5&#45;&gt;Node12</title>
<path fill="none" stroke="midnightblue" d="M1431.09,-168.324C1441.49,-160.185 1457.26,-147.839 1469.72,-138.087"/>
<polygon fill="midnightblue" stroke="midnightblue" points="1471.99,-140.753 1477.71,-131.834 1467.68,-135.241 1471.99,-140.753"/>
</g>
<!-- Node7 -->
<g id="node8" class="node"><title>Node7</title>
<polygon fill="white" stroke="#bfbfbf" points="981,-56.5 981,-75.5 1025,-75.5 1025,-56.5 981,-56.5"/>
<text text-anchor="middle" x="1003" y="-63.5" font-family="Helvetica,sans-Serif" font-size="10.00">string</text>
</g>
<!-- Node6&#45;&gt;Node7 -->
<g id="edge7" class="edge"><title>Node6&#45;&gt;Node7</title>
<path fill="none" stroke="midnightblue" d="M1009.68,-112.083C1008.62,-104.927 1007.09,-94.6353 1005.77,-85.6911"/>
<polygon fill="midnightblue" stroke="midnightblue" points="1009.22,-85.1302 1004.3,-75.7511 1002.3,-86.1561 1009.22,-85.1302"/>
</g>
<!-- Node6&#45;&gt;Node8 -->
<g id="edge8" class="edge"><title>Node6&#45;&gt;Node8</title>
<path fill="none" stroke="midnightblue" d="M1030.81,-112.444C1051.29,-103.596 1083.48,-89.6875 1106.86,-79.5865"/>
<polygon fill="midnightblue" stroke="midnightblue" points="1108.49,-82.6953 1116.29,-75.5164 1105.72,-76.2692 1108.49,-82.6953"/>
</g>
<!-- Node9 -->
<g id="node10" class="node"><title>Node9</title>
<polygon fill="white" stroke="#bfbfbf" points="893,-56.5 893,-75.5 955,-75.5 955,-56.5 893,-56.5"/>
<text text-anchor="middle" x="924" y="-63.5" font-family="Helvetica,sans-Serif" font-size="10.00">algorithm</text>
</g>
<!-- Node6&#45;&gt;Node9 -->
<g id="edge9" class="edge"><title>Node6&#45;&gt;Node9</title>
<path fill="none" stroke="midnightblue" d="M997.022,-112.324C983.45,-103.9 962.62,-90.9709 946.675,-81.0741"/>
<polygon fill="midnightblue" stroke="midnightblue" points="948.286,-77.9544 937.943,-75.6545 944.594,-83.9019 948.286,-77.9544"/>
</g>
<!-- Node6&#45;&gt;Node10 -->
<g id="edge10" class="edge"><title>Node6&#45;&gt;Node10</title>
<path fill="none" stroke="midnightblue" d="M952.425,-115.777C937.005,-114.471 920.381,-113.123 905,-112 646.751,-93.1471 576.37,-119.078 317.71,-75.9523"/>
<polygon fill="midnightblue" stroke="midnightblue" points="318.08,-72.4655 307.638,-74.2542 316.917,-79.3681 318.08,-72.4655"/>
</g>
<!-- Node20 -->
<g id="node21" class="node"><title>Node20</title>
<g id="a_node21"><a xlink:href="vec3_8h.html" target="_top" xlink:title="base/vec/vec3.h">
<polygon fill="white" stroke="black" points="428,-112.5 428,-131.5 522,-131.5 522,-112.5 428,-112.5"/>
<text text-anchor="middle" x="475" y="-119.5" font-family="Helvetica,sans-Serif" font-size="10.00">base/vec/vec3.h</text>
</a>
</g>
</g>
<!-- Node19&#45;&gt;Node20 -->
<g id="edge21" class="edge"><title>Node19&#45;&gt;Node20</title>
<path fill="none" stroke="midnightblue" d="M600.253,-229.895C576.801,-221.833 543.777,-208.009 520,-188 504.451,-174.915 491.835,-155.223 483.961,-140.943"/>
<polygon fill="midnightblue" stroke="midnightblue" points="486.84,-138.899 479.091,-131.674 480.644,-142.154 486.84,-138.899"/>
</g>
<!-- Node21 -->
<g id="node22" class="node"><title>Node21</title>
<g id="a_node22"><a xlink:href="vec2_8h.html" target="_top" xlink:title="vec2.h">
<polygon fill="white" stroke="black" points="401,-56.5 401,-75.5 449,-75.5 449,-56.5 401,-56.5"/>
<text text-anchor="middle" x="425" y="-63.5" font-family="Helvetica,sans-Serif" font-size="10.00">vec2.h</text>
</a>
</g>
</g>
<!-- Node20&#45;&gt;Node21 -->
<g id="edge22" class="edge"><title>Node20&#45;&gt;Node21</title>
<path fill="none" stroke="midnightblue" d="M466.744,-112.083C459.535,-104.298 448.89,-92.8015 440.154,-83.3665"/>
<polygon fill="midnightblue" stroke="midnightblue" points="442.465,-80.7108 433.103,-75.7511 437.329,-85.4666 442.465,-80.7108"/>
</g>
<!-- Node22 -->
<g id="node23" class="node"><title>Node22</title>
<polygon fill="white" stroke="#bfbfbf" points="298.5,-0.5 298.5,-19.5 345.5,-19.5 345.5,-0.5 298.5,-0.5"/>
<text text-anchor="middle" x="322" y="-7.5" font-family="Helvetica,sans-Serif" font-size="10.00">cmath</text>
</g>
<!-- Node20&#45;&gt;Node22 -->
<g id="edge25" class="edge"><title>Node20&#45;&gt;Node22</title>
<path fill="none" stroke="midnightblue" d="M475.207,-112.182C475.042,-98.3833 472.685,-71.652 458,-56 431.438,-27.6887 386.704,-17.1722 355.835,-13.2758"/>
<polygon fill="midnightblue" stroke="midnightblue" points="355.867,-9.75869 345.547,-12.1554 355.109,-16.7175 355.867,-9.75869"/>
</g>
<!-- Node23 -->
<g id="node24" class="node"><title>Node23</title>
<polygon fill="white" stroke="#bfbfbf" points="325.5,-56.5 325.5,-75.5 382.5,-75.5 382.5,-56.5 325.5,-56.5"/>
<text text-anchor="middle" x="354" y="-63.5" font-family="Helvetica,sans-Serif" font-size="10.00">ostream</text>
</g>
<!-- Node20&#45;&gt;Node23 -->
<g id="edge24" class="edge"><title>Node20&#45;&gt;Node23</title>
<path fill="none" stroke="midnightblue" d="M455.827,-112.444C436.091,-103.636 405.115,-89.8116 382.507,-79.722"/>
<polygon fill="midnightblue" stroke="midnightblue" points="383.641,-76.3957 373.083,-75.5164 380.789,-82.788 383.641,-76.3957"/>
</g>
<!-- Node21&#45;&gt;Node22 -->
<g id="edge23" class="edge"><title>Node21&#45;&gt;Node22</title>
<path fill="none" stroke="midnightblue" d="M408.451,-56.324C392.008,-47.7034 366.565,-34.3643 347.532,-24.3855"/>
<polygon fill="midnightblue" stroke="midnightblue" points="348.989,-21.198 338.508,-19.6545 345.739,-27.3977 348.989,-21.198"/>
</g>
<!-- Node24&#45;&gt;Node8 -->
<g id="edge63" class="edge"><title>Node24&#45;&gt;Node8</title>
<path fill="none" stroke="midnightblue" d="M714.898,-347.474C751.124,-340.23 801.236,-328.24 843,-311 980.566,-254.212 1049.35,-259.57 1126,-132 1134.36,-118.084 1136.52,-99.5749 1136.79,-85.8674"/>
<polygon fill="midnightblue" stroke="midnightblue" points="1140.28,-85.6445 1136.66,-75.6888 1133.28,-85.7316 1140.28,-85.6445"/>
</g>
<!-- Node24&#45;&gt;Node9 -->
<g id="edge65" class="edge"><title>Node24&#45;&gt;Node9</title>
<path fill="none" stroke="midnightblue" d="M714.003,-347.432C744.174,-340.628 783.094,-329.172 814,-311 844.889,-292.839 851.056,-284.074 872,-255 910.222,-201.941 920.369,-121.96 923.047,-85.8611"/>
<polygon fill="midnightblue" stroke="midnightblue" points="926.547,-85.972 923.681,-75.7723 919.561,-85.5333 926.547,-85.972"/>
</g>
<!-- Node24&#45;&gt;Node10 -->
<g id="edge61" class="edge"><title>Node24&#45;&gt;Node10</title>
<path fill="none" stroke="midnightblue" d="M615.395,-352.568C459.974,-341.36 0,-302.916 0,-240.5 0,-240.5 0,-240.5 0,-177 0,-123.849 175.154,-86.3386 250.356,-72.6831"/>
<polygon fill="midnightblue" stroke="midnightblue" points="251.044,-76.1156 260.275,-70.9154 249.816,-69.2242 251.044,-76.1156"/>
</g>
<!-- Node24&#45;&gt;Node18 -->
<g id="edge62" class="edge"><title>Node24&#45;&gt;Node18</title>
<path fill="none" stroke="midnightblue" d="M698.271,-347.427C740.168,-334.566 812.472,-306.151 851,-255 863.426,-238.504 867.075,-214.635 867.998,-198.066"/>
<polygon fill="midnightblue" stroke="midnightblue" points="871.5,-198.033 868.276,-187.941 864.503,-197.841 871.5,-198.033"/>
</g>
<!-- Node25 -->
<g id="node26" class="node"><title>Node25</title>
<g id="a_node26"><a xlink:href="_t_cluster_8h.html" target="_top" xlink:title="TCluster.h">
<polygon fill="white" stroke="black" points="354.5,-291.5 354.5,-310.5 417.5,-310.5 417.5,-291.5 354.5,-291.5"/>
<text text-anchor="middle" x="386" y="-298.5" font-family="Helvetica,sans-Serif" font-size="10.00">TCluster.h</text>
</a>
</g>
</g>
<!-- Node24&#45;&gt;Node25 -->
<g id="edge30" class="edge"><title>Node24&#45;&gt;Node25</title>
<path fill="none" stroke="midnightblue" d="M621.633,-347.444C568.288,-337.156 479.459,-320.024 427.449,-309.994"/>
<polygon fill="midnightblue" stroke="midnightblue" points="428.041,-306.544 417.559,-308.086 426.716,-313.417 428.041,-306.544"/>
</g>
<!-- Node27 -->
<g id="node28" class="node"><title>Node27</title>
<g id="a_node28"><a xlink:href="_detector__t_8h.html" target="_top" xlink:title="base/Detector_t.h">
<polygon fill="white" stroke="black" points="529.5,-168.5 529.5,-187.5 632.5,-187.5 632.5,-168.5 529.5,-168.5"/>
<text text-anchor="middle" x="581" y="-175.5" font-family="Helvetica,sans-Serif" font-size="10.00">base/Detector_t.h</text>
</a>
</g>
</g>
<!-- Node24&#45;&gt;Node27 -->
<g id="edge60" class="edge"><title>Node24&#45;&gt;Node27</title>
<path fill="none" stroke="midnightblue" d="M650.315,-347.339C625.042,-332.366 576.204,-298.975 557,-255 548.471,-235.468 558.894,-211.927 568.55,-196.271"/>
<polygon fill="midnightblue" stroke="midnightblue" points="571.662,-197.914 574.288,-187.649 565.834,-194.036 571.662,-197.914"/>
</g>
<!-- Node33 -->
<g id="node34" class="node"><title>Node33</title>
<polygon fill="white" stroke="#bfbfbf" points="142.5,-168.5 142.5,-187.5 199.5,-187.5 199.5,-168.5 142.5,-168.5"/>
<text text-anchor="middle" x="171" y="-175.5" font-family="Helvetica,sans-Serif" font-size="10.00">memory</text>
</g>
<!-- Node24&#45;&gt;Node33 -->
<g id="edge64" class="edge"><title>Node24&#45;&gt;Node33</title>
<path fill="none" stroke="midnightblue" d="M615.102,-353.64C500.508,-347.123 228.111,-324.491 175,-255 162.614,-238.794 163.712,-214.497 166.535,-197.76"/>
<polygon fill="midnightblue" stroke="midnightblue" points="170.044,-198.071 168.621,-187.573 163.186,-196.667 170.044,-198.071"/>
</g>
<!-- Node25&#45;&gt;Node8 -->
<g id="edge58" class="edge"><title>Node25&#45;&gt;Node8</title>
<path fill="none" stroke="midnightblue" d="M417.612,-300.346C493.613,-300.447 692.055,-296.367 851,-255 911.499,-239.254 1060.98,-177.36 1104,-132 1116.69,-118.618 1125.34,-99.2421 1130.42,-85.1283"/>
<polygon fill="midnightblue" stroke="midnightblue" points="1133.77,-86.1412 1133.61,-75.5476 1127.13,-83.9285 1133.77,-86.1412"/>
</g>
<!-- Node25&#45;&gt;Node10 -->
<g id="edge55" class="edge"><title>Node25&#45;&gt;Node10</title>
<path fill="none" stroke="midnightblue" d="M382.347,-291.284C373.41,-270.048 349.589,-213.999 328,-168 320.4,-151.806 317.328,-148.319 310,-132 302.998,-116.408 295.843,-98.3326 290.816,-85.2065"/>
<polygon fill="midnightblue" stroke="midnightblue" points="293.959,-83.6208 287.144,-75.508 287.412,-86.0995 293.959,-83.6208"/>
</g>
<!-- Node25&#45;&gt;Node18 -->
<g id="edge57" class="edge"><title>Node25&#45;&gt;Node18</title>
<path fill="none" stroke="midnightblue" d="M401.482,-291.368C430.847,-275.398 497.07,-241.296 557,-224 653.175,-196.244 771.249,-185.159 830.425,-181.105"/>
<polygon fill="midnightblue" stroke="midnightblue" points="830.68,-184.596 840.429,-180.449 830.222,-177.611 830.68,-184.596"/>
</g>
<!-- Node25&#45;&gt;Node20 -->
<g id="edge54" class="edge"><title>Node25&#45;&gt;Node20</title>
<path fill="none" stroke="midnightblue" d="M388.476,-291.29C392.735,-276.869 402.144,-247.312 414,-224 422.717,-206.86 427.904,-204.366 438,-188 447.779,-172.148 458.215,-153.654 465.502,-140.455"/>
<polygon fill="midnightblue" stroke="midnightblue" points="468.66,-141.976 470.398,-131.525 462.521,-138.611 468.66,-141.976"/>
</g>
<!-- Node25&#45;&gt;Node22 -->
<g id="edge56" class="edge"><title>Node25&#45;&gt;Node22</title>
<path fill="none" stroke="midnightblue" d="M354.347,-297.057C295.82,-291.168 173.339,-276.616 137,-255 99.7757,-232.857 76,-222.312 76,-179 76,-179 76,-179 76,-121 76,-29.0757 220.92,-13.4595 288.299,-11.1667"/>
<polygon fill="midnightblue" stroke="midnightblue" points="288.507,-14.6625 298.412,-10.9034 288.325,-7.6649 288.507,-14.6625"/>
</g>
<!-- Node26 -->
<g id="node27" class="node"><title>Node26</title>
<g id="a_node27"><a xlink:href="_t_detector_read_hit_8h.html" target="_top" xlink:title="tree/TDetectorReadHit.h">
<polygon fill="white" stroke="black" points="710,-230 710,-249 842,-249 842,-230 710,-230"/>
<text text-anchor="middle" x="776" y="-237" font-family="Helvetica,sans-Serif" font-size="10.00">tree/TDetectorReadHit.h</text>
</a>
</g>
</g>
<!-- Node25&#45;&gt;Node26 -->
<g id="edge31" class="edge"><title>Node25&#45;&gt;Node26</title>
<path fill="none" stroke="midnightblue" d="M417.719,-295.947C474.467,-288.586 597.066,-272.186 700,-255 707.462,-253.754 715.319,-252.355 723.036,-250.929"/>
<polygon fill="midnightblue" stroke="midnightblue" points="723.872,-254.334 733.056,-249.052 722.582,-247.454 723.872,-254.334"/>
</g>
<!-- Node25&#45;&gt;Node27 -->
<g id="edge47" class="edge"><title>Node25&#45;&gt;Node27</title>
<path fill="none" stroke="midnightblue" d="M390.793,-291.374C399.916,-275.718 421.275,-242.535 448,-224 471.342,-207.812 500.992,-197.037 526.37,-190.101"/>
<polygon fill="midnightblue" stroke="midnightblue" points="527.429,-193.443 536.226,-187.539 525.667,-186.668 527.429,-193.443"/>
</g>
<!-- Node30 -->
<g id="node31" class="node"><title>Node30</title>
<g id="a_node31"><a xlink:href="base_2std__ext_2math_8h.html" target="_top" xlink:title="base/std_ext/math.h">
<polygon fill="white" stroke="black" points="104,-112.5 104,-131.5 220,-131.5 220,-112.5 104,-112.5"/>
<text text-anchor="middle" x="162" y="-119.5" font-family="Helvetica,sans-Serif" font-size="10.00">base/std_ext/math.h</text>
</a>
</g>
</g>
<!-- Node25&#45;&gt;Node30 -->
<g id="edge48" class="edge"><title>Node25&#45;&gt;Node30</title>
<path fill="none" stroke="midnightblue" d="M354.386,-300.658C310.299,-300.046 229.628,-293.221 175,-255 139.819,-230.386 120.877,-209.19 133,-168 136.012,-157.765 142.155,-147.66 148.014,-139.627"/>
<polygon fill="midnightblue" stroke="midnightblue" points="150.932,-141.577 154.327,-131.541 145.414,-137.269 150.932,-141.577"/>
</g>
<!-- Node32 -->
<g id="node33" class="node"><title>Node32</title>
<g id="a_node33"><a xlink:href="shared__ptr__container_8h.html" target="_top" xlink:title="base/std_ext/shared\l_ptr_container.h">
<polygon fill="white" stroke="black" points="206,-224.5 206,-254.5 320,-254.5 320,-224.5 206,-224.5"/>
<text text-anchor="start" x="214" y="-242.5" font-family="Helvetica,sans-Serif" font-size="10.00">base/std_ext/shared</text>
<text text-anchor="middle" x="263" y="-231.5" font-family="Helvetica,sans-Serif" font-size="10.00">_ptr_container.h</text>
</a>
</g>
</g>
<!-- Node25&#45;&gt;Node32 -->
<g id="edge49" class="edge"><title>Node25&#45;&gt;Node32</title>
<path fill="none" stroke="midnightblue" d="M368.377,-291.475C350.94,-283.04 323.684,-269.855 301.26,-259.008"/>
<polygon fill="midnightblue" stroke="midnightblue" points="302.515,-255.727 291.989,-254.523 299.467,-262.028 302.515,-255.727"/>
</g>
<!-- Node25&#45;&gt;Node33 -->
<g id="edge59" class="edge"><title>Node25&#45;&gt;Node33</title>
<path fill="none" stroke="midnightblue" d="M354.232,-296.172C306.608,-289.83 219.844,-275.752 197,-255 180.828,-240.308 174.712,-215.132 172.401,-197.808"/>
<polygon fill="midnightblue" stroke="midnightblue" points="175.871,-197.335 171.364,-187.747 168.908,-198.053 175.871,-197.335"/>
</g>
<!-- Node26&#45;&gt;Node8 -->
<g id="edge46" class="edge"><title>Node26&#45;&gt;Node8</title>
<path fill="none" stroke="midnightblue" d="M821.178,-229.989C883.187,-216.734 996.268,-186.8 1078,-132 1096.96,-119.287 1113.73,-98.9696 1124.29,-84.434"/>
<polygon fill="midnightblue" stroke="midnightblue" points="1127.43,-86.0535 1130.3,-75.855 1121.7,-82.0372 1127.43,-86.0535"/>
</g>
<!-- Node26&#45;&gt;Node18 -->
<g id="edge45" class="edge"><title>Node26&#45;&gt;Node18</title>
<path fill="none" stroke="midnightblue" d="M789.181,-229.975C804.074,-220.343 828.544,-204.517 846.273,-193.052"/>
<polygon fill="midnightblue" stroke="midnightblue" points="848.347,-195.879 854.843,-187.509 844.545,-190.001 848.347,-195.879"/>
</g>
<!-- Node26&#45;&gt;Node27 -->
<g id="edge32" class="edge"><title>Node26&#45;&gt;Node27</title>
<path fill="none" stroke="midnightblue" d="M748.061,-229.975C714.033,-219.592 656.416,-202.012 618.538,-190.454"/>
<polygon fill="midnightblue" stroke="midnightblue" points="619.473,-187.08 608.887,-187.509 617.43,-193.775 619.473,-187.08"/>
</g>
<!-- Node27&#45;&gt;Node7 -->
<g id="edge42" class="edge"><title>Node27&#45;&gt;Node7</title>
<path fill="none" stroke="midnightblue" d="M589.306,-168.473C603.916,-154.07 635.824,-125.205 669,-112 791.72,-63.1533 833.913,-98.8819 964,-76 966.224,-75.6088 968.512,-75.1718 970.812,-74.7071"/>
<polygon fill="midnightblue" stroke="midnightblue" points="971.774,-78.0802 980.809,-72.547 970.295,-71.2381 971.774,-78.0802"/>
</g>
<!-- Node27&#45;&gt;Node10 -->
<g id="edge44" class="edge"><title>Node27&#45;&gt;Node10</title>
<path fill="none" stroke="midnightblue" d="M543.075,-168.489C509.852,-160.558 460.527,-147.623 419,-132 379.102,-116.99 334.965,-94.5613 308.365,-80.3629"/>
<polygon fill="midnightblue" stroke="midnightblue" points="309.862,-77.1942 299.399,-75.5332 306.543,-83.357 309.862,-77.1942"/>
</g>
<!-- Node27&#45;&gt;Node13 -->
<g id="edge43" class="edge"><title>Node27&#45;&gt;Node13</title>
<path fill="none" stroke="midnightblue" d="M601.757,-168.444C623.316,-159.557 657.263,-145.563 681.794,-135.451"/>
<polygon fill="midnightblue" stroke="midnightblue" points="683.428,-138.563 691.34,-131.516 680.761,-132.092 683.428,-138.563"/>
</g>
<!-- Node27&#45;&gt;Node15 -->
<g id="edge40" class="edge"><title>Node27&#45;&gt;Node15</title>
<path fill="none" stroke="midnightblue" d="M614.372,-168.43C647.425,-159.928 699.746,-146.434 754.588,-132.096"/>
<polygon fill="midnightblue" stroke="midnightblue" points="755.702,-135.423 764.49,-129.506 753.93,-128.651 755.702,-135.423"/>
</g>
<!-- Node27&#45;&gt;Node16 -->
<g id="edge41" class="edge"><title>Node27&#45;&gt;Node16</title>
<path fill="none" stroke="midnightblue" d="M628.628,-168.491C677.295,-159.706 755.018,-145.428 822,-132 822.101,-131.98 822.201,-131.96 822.302,-131.939"/>
<polygon fill="midnightblue" stroke="midnightblue" points="822.822,-135.406 831.915,-129.967 821.415,-128.549 822.822,-135.406"/>
</g>
<!-- Node27&#45;&gt;Node20 -->
<g id="edge35" class="edge"><title>Node27&#45;&gt;Node20</title>
<path fill="none" stroke="midnightblue" d="M563.969,-168.324C546.97,-159.664 520.624,-146.242 501.007,-136.249"/>
<polygon fill="midnightblue" stroke="midnightblue" points="502.488,-133.075 491.988,-131.655 499.31,-139.312 502.488,-133.075"/>
</g>
<!-- Node28 -->
<g id="node29" class="node"><title>Node28</title>
<g id="a_node29"><a xlink:href="bitflag_8h.html" target="_top" xlink:title="base/bitflag.h">
<polygon fill="white" stroke="black" points="540.5,-112.5 540.5,-131.5 621.5,-131.5 621.5,-112.5 540.5,-112.5"/>
<text text-anchor="middle" x="581" y="-119.5" font-family="Helvetica,sans-Serif" font-size="10.00">base/bitflag.h</text>
</a>
</g>
</g>
<!-- Node27&#45;&gt;Node28 -->
<g id="edge33" class="edge"><title>Node27&#45;&gt;Node28</title>
<path fill="none" stroke="midnightblue" d="M581,-168.083C581,-161.006 581,-150.861 581,-141.986"/>
<polygon fill="midnightblue" stroke="midnightblue" points="584.5,-141.751 581,-131.751 577.5,-141.751 584.5,-141.751"/>
</g>
<!-- Node27&#45;&gt;Node30 -->
<g id="edge36" class="edge"><title>Node27&#45;&gt;Node30</title>
<path fill="none" stroke="midnightblue" d="M529.202,-170.324C453.85,-160.613 313.894,-142.576 230.226,-131.793"/>
<polygon fill="midnightblue" stroke="midnightblue" points="230.425,-128.29 220.059,-130.483 229.53,-135.232 230.425,-128.29"/>
</g>
<!-- Node29 -->
<g id="node30" class="node"><title>Node29</title>
<polygon fill="white" stroke="#bfbfbf" points="559,-56.5 559,-75.5 603,-75.5 603,-56.5 559,-56.5"/>
<text text-anchor="middle" x="581" y="-63.5" font-family="Helvetica,sans-Serif" font-size="10.00">bitset</text>
</g>
<!-- Node28&#45;&gt;Node29 -->
<g id="edge34" class="edge"><title>Node28&#45;&gt;Node29</title>
<path fill="none" stroke="midnightblue" d="M581,-112.083C581,-105.006 581,-94.8611 581,-85.9865"/>
<polygon fill="midnightblue" stroke="midnightblue" points="584.5,-85.751 581,-75.7511 577.5,-85.7511 584.5,-85.751"/>
</g>
<!-- Node30&#45;&gt;Node10 -->
<g id="edge39" class="edge"><title>Node30&#45;&gt;Node10</title>
<path fill="none" stroke="midnightblue" d="M181.331,-112.444C201.32,-103.596 232.743,-89.6875 255.564,-79.5865"/>
<polygon fill="midnightblue" stroke="midnightblue" points="257.032,-82.7645 264.759,-75.5164 254.198,-76.3635 257.032,-82.7645"/>
</g>
<!-- Node30&#45;&gt;Node22 -->
<g id="edge37" class="edge"><title>Node30&#45;&gt;Node22</title>
<path fill="none" stroke="midnightblue" d="M173.348,-112.341C190.098,-99.645 222.533,-75.3853 251,-56 266.931,-45.1513 285.321,-33.5195 299.393,-24.7999"/>
<polygon fill="midnightblue" stroke="midnightblue" points="301.271,-27.7541 307.948,-19.5279 297.598,-21.7949 301.271,-27.7541"/>
</g>
<!-- Node31 -->
<g id="node32" class="node"><title>Node31</title>
<polygon fill="white" stroke="#bfbfbf" points="141,-56.5 141,-75.5 183,-75.5 183,-56.5 141,-56.5"/>
<text text-anchor="middle" x="162" y="-63.5" font-family="Helvetica,sans-Serif" font-size="10.00">limits</text>
</g>
<!-- Node30&#45;&gt;Node31 -->
<g id="edge38" class="edge"><title>Node30&#45;&gt;Node31</title>
<path fill="none" stroke="midnightblue" d="M162,-112.083C162,-105.006 162,-94.8611 162,-85.9865"/>
<polygon fill="midnightblue" stroke="midnightblue" points="165.5,-85.751 162,-75.7511 158.5,-85.7511 165.5,-85.751"/>
</g>
<!-- Node32&#45;&gt;Node9 -->
<g id="edge53" class="edge"><title>Node32&#45;&gt;Node9</title>
<path fill="none" stroke="midnightblue" d="M281.628,-224.306C294.698,-214.279 312.532,-200.462 328,-188 369.034,-154.941 370.31,-132.148 419,-112 502.547,-77.4284 777.235,-69.3639 882.469,-67.5269"/>
<polygon fill="midnightblue" stroke="midnightblue" points="882.756,-71.0228 892.697,-67.3589 882.641,-64.0237 882.756,-71.0228"/>
</g>
<!-- Node32&#45;&gt;Node10 -->
<g id="edge50" class="edge"><title>Node32&#45;&gt;Node10</title>
<path fill="none" stroke="midnightblue" d="M256.348,-224.268C250.531,-210.086 243.514,-187.649 247,-168 252.364,-137.763 266.104,-104.697 275.246,-84.9125"/>
<polygon fill="midnightblue" stroke="midnightblue" points="278.528,-86.1608 279.654,-75.626 272.204,-83.1591 278.528,-86.1608"/>
</g>
<!-- Node32&#45;&gt;Node33 -->
<g id="edge51" class="edge"><title>Node32&#45;&gt;Node33</title>
<path fill="none" stroke="midnightblue" d="M241.197,-224.399C226.588,-214.951 207.427,-202.559 192.815,-193.109"/>
<polygon fill="midnightblue" stroke="midnightblue" points="194.684,-190.15 184.387,-187.658 190.883,-196.027 194.684,-190.15"/>
</g>
<!-- Node34 -->
<g id="node35" class="node"><title>Node34</title>
<polygon fill="white" stroke="#bfbfbf" points="256.5,-168.5 256.5,-187.5 319.5,-187.5 319.5,-168.5 256.5,-168.5"/>
<text text-anchor="middle" x="288" y="-175.5" font-family="Helvetica,sans-Serif" font-size="10.00">functional</text>
</g>
<!-- Node32&#45;&gt;Node34 -->
<g id="edge52" class="edge"><title>Node32&#45;&gt;Node34</title>
<path fill="none" stroke="midnightblue" d="M268.925,-224.399C272.37,-216.199 276.748,-205.781 280.44,-196.994"/>
<polygon fill="midnightblue" stroke="midnightblue" points="283.715,-198.233 284.362,-187.658 277.262,-195.521 283.715,-198.233"/>
</g>
<!-- Node37 -->
<g id="node38" class="node"><title>Node37</title>
<polygon fill="white" stroke="#bfbfbf" points="877.5,-347.5 877.5,-366.5 976.5,-366.5 976.5,-347.5 877.5,-347.5"/>
<text text-anchor="middle" x="927" y="-354.5" font-family="Helvetica,sans-Serif" font-size="10.00">easylogging++.h</text>
</g>
<!-- Node36&#45;&gt;Node37 -->
<g id="edge68" class="edge"><title>Node36&#45;&gt;Node37</title>
<path fill="none" stroke="midnightblue" d="M927,-403.083C927,-396.006 927,-385.861 927,-376.986"/>
<polygon fill="midnightblue" stroke="midnightblue" points="930.5,-376.751 927,-366.751 923.5,-376.751 930.5,-376.751"/>
</g>
</g>
</svg>
