<?xml version="1.0" encoding="UTF-8" standalone="no"?>
<!DOCTYPE svg PUBLIC "-//W3C//DTD SVG 1.1//EN"
 "http://www.w3.org/Graphics/SVG/1.1/DTD/svg11.dtd">
<!-- Generated by graphviz version 2.38.0 (20140413.2041)
 -->
<!-- Title: src/analysis/utils/TimeSmearingHack.h Pages: 1 -->
<svg width="1390pt" height="442pt"
 viewBox="0.00 0.00 1390.00 442.00" xmlns="http://www.w3.org/2000/svg" xmlns:xlink="http://www.w3.org/1999/xlink">
<g id="graph0" class="graph" transform="scale(1 1) rotate(0) translate(4 438)">
<title>src/analysis/utils/TimeSmearingHack.h</title>
<polygon fill="white" stroke="none" points="-4,4 -4,-438 1386,-438 1386,4 -4,4"/>
<!-- Node0 -->
<g id="node1" class="node"><title>Node0</title>
<polygon fill="#bfbfbf" stroke="black" points="562,-403.5 562,-433.5 684,-433.5 684,-403.5 562,-403.5"/>
<text text-anchor="start" x="570" y="-421.5" font-family="Helvetica,sans-Serif" font-size="10.00">src/analysis/utils</text>
<text text-anchor="middle" x="623" y="-410.5" font-family="Helvetica,sans-Serif" font-size="10.00">/TimeSmearingHack.h</text>
</g>
<!-- Node1 -->
<g id="node2" class="node"><title>Node1</title>
<g id="a_node2"><a xlink:href="_t_tagger_hit_8h.html" target="_top" xlink:title="tree/TTaggerHit.h">
<polygon fill="white" stroke="black" points="858,-291.5 858,-310.5 956,-310.5 956,-291.5 858,-291.5"/>
<text text-anchor="middle" x="907" y="-298.5" font-family="Helvetica,sans-Serif" font-size="10.00">tree/TTaggerHit.h</text>
</a>
</g>
</g>
<!-- Node0&#45;&gt;Node1 -->
<g id="edge1" class="edge"><title>Node0&#45;&gt;Node1</title>
<path fill="none" stroke="midnightblue" d="M657.54,-403.453C713.507,-380.692 823.106,-336.119 876.419,-314.437"/>
<polygon fill="midnightblue" stroke="midnightblue" points="878.051,-317.552 885.996,-310.542 875.414,-311.067 878.051,-317.552"/>
</g>
<!-- Node23 -->
<g id="node24" class="node"><title>Node23</title>
<g id="a_node24"><a xlink:href="_t_candidate_8h.html" target="_top" xlink:title="tree/TCandidate.h">
<polygon fill="white" stroke="black" points="441.5,-347.5 441.5,-366.5 542.5,-366.5 542.5,-347.5 441.5,-347.5"/>
<text text-anchor="middle" x="492" y="-354.5" font-family="Helvetica,sans-Serif" font-size="10.00">tree/TCandidate.h</text>
</a>
</g>
</g>
<!-- Node0&#45;&gt;Node23 -->
<g id="edge28" class="edge"><title>Node0&#45;&gt;Node23</title>
<path fill="none" stroke="midnightblue" d="M591.955,-403.399C570.27,-393.55 541.541,-380.501 520.449,-370.922"/>
<polygon fill="midnightblue" stroke="midnightblue" points="521.614,-367.607 511.062,-366.658 518.719,-373.98 521.614,-367.607"/>
</g>
<!-- Node2 -->
<g id="node3" class="node"><title>Node2</title>
<g id="a_node3"><a xlink:href="_t_i_d_8h.html" target="_top" xlink:title="TID.h">
<polygon fill="white" stroke="black" points="1013.5,-230 1013.5,-249 1054.5,-249 1054.5,-230 1013.5,-230"/>
<text text-anchor="middle" x="1034" y="-237" font-family="Helvetica,sans-Serif" font-size="10.00">TID.h</text>
</a>
</g>
</g>
<!-- Node1&#45;&gt;Node2 -->
<g id="edge2" class="edge"><title>Node1&#45;&gt;Node2</title>
<path fill="none" stroke="midnightblue" d="M925.636,-291.461C945.196,-282.473 976.82,-267.872 1004,-255 1004.99,-254.53 1006,-254.049 1007.03,-253.563"/>
<polygon fill="midnightblue" stroke="midnightblue" points="1008.75,-256.616 1016.26,-249.134 1005.73,-250.304 1008.75,-256.616"/>
</g>
<!-- Node7 -->
<g id="node8" class="node"><title>Node7</title>
<polygon fill="white" stroke="#bfbfbf" points="1093,-56.5 1093,-75.5 1149,-75.5 1149,-56.5 1093,-56.5"/>
<text text-anchor="middle" x="1121" y="-63.5" font-family="Helvetica,sans-Serif" font-size="10.00">sstream</text>
</g>
<!-- Node1&#45;&gt;Node7 -->
<g id="edge27" class="edge"><title>Node1&#45;&gt;Node7</title>
<path fill="none" stroke="midnightblue" d="M956.042,-300.862C1039.86,-299.557 1210.8,-284.343 1306,-188 1330.2,-163.51 1342.51,-138.885 1321,-112 1301.14,-87.1699 1211.56,-75.0784 1159.27,-70.0397"/>
<polygon fill="midnightblue" stroke="midnightblue" points="1159.31,-66.5284 1149.03,-69.0969 1158.66,-73.499 1159.31,-66.5284"/>
</g>
<!-- Node9 -->
<g id="node10" class="node"><title>Node9</title>
<polygon fill="white" stroke="#bfbfbf" points="114.5,-56.5 114.5,-75.5 161.5,-75.5 161.5,-56.5 114.5,-56.5"/>
<text text-anchor="middle" x="138" y="-63.5" font-family="Helvetica,sans-Serif" font-size="10.00">vector</text>
</g>
<!-- Node1&#45;&gt;Node9 -->
<g id="edge25" class="edge"><title>Node1&#45;&gt;Node9</title>
<path fill="none" stroke="midnightblue" d="M857.786,-298.05C705.226,-291.838 248.841,-271.925 222,-255 208.745,-246.642 158.652,-146.615 153,-132 147.184,-116.962 143.258,-99.0567 140.886,-85.8501"/>
<polygon fill="midnightblue" stroke="midnightblue" points="144.282,-84.9365 139.193,-75.644 137.377,-86.082 144.282,-84.9365"/>
</g>
<!-- Node17 -->
<g id="node18" class="node"><title>Node17</title>
<polygon fill="white" stroke="#bfbfbf" points="756.5,-168.5 756.5,-187.5 811.5,-187.5 811.5,-168.5 756.5,-168.5"/>
<text text-anchor="middle" x="784" y="-175.5" font-family="Helvetica,sans-Serif" font-size="10.00">iomanip</text>
</g>
<!-- Node1&#45;&gt;Node17 -->
<g id="edge26" class="edge"><title>Node1&#45;&gt;Node17</title>
<path fill="none" stroke="midnightblue" d="M898.17,-291.385C888.901,-282.336 873.909,-267.685 861,-255 840.008,-234.373 815.867,-210.525 800.296,-195.126"/>
<polygon fill="midnightblue" stroke="midnightblue" points="802.567,-192.45 792.997,-187.905 797.645,-197.426 802.567,-192.45"/>
</g>
<!-- Node18 -->
<g id="node19" class="node"><title>Node18</title>
<g id="a_node19"><a xlink:href="_lorentz_vec_8h.html" target="_top" xlink:title="base/vec/LorentzVec.h">
<polygon fill="white" stroke="black" points="870.5,-230 870.5,-249 995.5,-249 995.5,-230 870.5,-230"/>
<text text-anchor="middle" x="933" y="-237" font-family="Helvetica,sans-Serif" font-size="10.00">base/vec/LorentzVec.h</text>
</a>
</g>
</g>
<!-- Node1&#45;&gt;Node18 -->
<g id="edge19" class="edge"><title>Node1&#45;&gt;Node18</title>
<path fill="none" stroke="midnightblue" d="M910.725,-291.475C914.471,-282.904 920.36,-269.427 925.142,-258.483"/>
<polygon fill="midnightblue" stroke="midnightblue" points="928.485,-259.574 929.282,-249.009 922.07,-256.771 928.485,-259.574"/>
</g>
<!-- Node3 -->
<g id="node4" class="node"><title>Node3</title>
<polygon fill="white" stroke="#bfbfbf" points="1090,-168.5 1090,-187.5 1148,-187.5 1148,-168.5 1090,-168.5"/>
<text text-anchor="middle" x="1119" y="-175.5" font-family="Helvetica,sans-Serif" font-size="10.00">Rtypes.h</text>
</g>
<!-- Node2&#45;&gt;Node3 -->
<g id="edge3" class="edge"><title>Node2&#45;&gt;Node3</title>
<path fill="none" stroke="midnightblue" d="M1046.18,-229.975C1059.81,-220.431 1082.13,-204.807 1098.47,-193.368"/>
<polygon fill="midnightblue" stroke="midnightblue" points="1100.66,-196.111 1106.84,-187.509 1096.64,-190.376 1100.66,-196.111"/>
</g>
<!-- Node4 -->
<g id="node5" class="node"><title>Node4</title>
<g id="a_node5"><a xlink:href="base_2std__ext_2_time_8h.html" target="_top" xlink:title="base/std_ext/time.h">
<polygon fill="white" stroke="black" points="1166,-168.5 1166,-187.5 1278,-187.5 1278,-168.5 1166,-168.5"/>
<text text-anchor="middle" x="1222" y="-175.5" font-family="Helvetica,sans-Serif" font-size="10.00">base/std_ext/time.h</text>
</a>
</g>
</g>
<!-- Node2&#45;&gt;Node4 -->
<g id="edge4" class="edge"><title>Node2&#45;&gt;Node4</title>
<path fill="none" stroke="midnightblue" d="M1054.84,-231.905C1086.26,-221.962 1146.21,-202.987 1185.12,-190.671"/>
<polygon fill="midnightblue" stroke="midnightblue" points="1186.54,-193.894 1195.02,-187.54 1184.43,-187.22 1186.54,-193.894"/>
</g>
<!-- Node11 -->
<g id="node12" class="node"><title>Node11</title>
<polygon fill="white" stroke="#bfbfbf" points="1268,-112.5 1268,-131.5 1312,-131.5 1312,-112.5 1268,-112.5"/>
<text text-anchor="middle" x="1290" y="-119.5" font-family="Helvetica,sans-Serif" font-size="10.00">ctime</text>
</g>
<!-- Node2&#45;&gt;Node11 -->
<g id="edge18" class="edge"><title>Node2&#45;&gt;Node11</title>
<path fill="none" stroke="midnightblue" d="M1054.54,-237.544C1109.31,-234.531 1256.71,-223.242 1287,-188 1297.8,-175.438 1297.21,-155.943 1294.74,-141.577"/>
<polygon fill="midnightblue" stroke="midnightblue" points="1298.16,-140.834 1292.64,-131.792 1291.31,-142.304 1298.16,-140.834"/>
</g>
<!-- Node12 -->
<g id="node13" class="node"><title>Node12</title>
<polygon fill="white" stroke="#bfbfbf" points="672,-112.5 672,-131.5 740,-131.5 740,-112.5 672,-112.5"/>
<text text-anchor="middle" x="706" y="-119.5" font-family="Helvetica,sans-Serif" font-size="10.00">type_traits</text>
</g>
<!-- Node2&#45;&gt;Node12 -->
<g id="edge12" class="edge"><title>Node2&#45;&gt;Node12</title>
<path fill="none" stroke="midnightblue" d="M1016.35,-229.968C988.907,-216.697 938.284,-192.19 930,-188 912.969,-179.386 909.856,-174.74 892,-168 866.372,-158.327 796.585,-142.444 750.162,-132.365"/>
<polygon fill="midnightblue" stroke="midnightblue" points="750.861,-128.935 740.347,-130.245 749.383,-135.777 750.861,-128.935"/>
</g>
<!-- Node13 -->
<g id="node14" class="node"><title>Node13</title>
<polygon fill="white" stroke="#bfbfbf" points="982.5,-168.5 982.5,-187.5 1023.5,-187.5 1023.5,-168.5 982.5,-168.5"/>
<text text-anchor="middle" x="1003" y="-175.5" font-family="Helvetica,sans-Serif" font-size="10.00">tuple</text>
</g>
<!-- Node2&#45;&gt;Node13 -->
<g id="edge13" class="edge"><title>Node2&#45;&gt;Node13</title>
<path fill="none" stroke="midnightblue" d="M1029.56,-229.975C1025.05,-221.315 1017.93,-207.649 1012.19,-196.645"/>
<polygon fill="midnightblue" stroke="midnightblue" points="1015.16,-194.76 1007.43,-187.509 1008.95,-197.995 1015.16,-194.76"/>
</g>
<!-- Node14 -->
<g id="node15" class="node"><title>Node14</title>
<polygon fill="white" stroke="#bfbfbf" points="758.5,-112.5 758.5,-131.5 807.5,-131.5 807.5,-112.5 758.5,-112.5"/>
<text text-anchor="middle" x="783" y="-119.5" font-family="Helvetica,sans-Serif" font-size="10.00">cstdint</text>
</g>
<!-- Node2&#45;&gt;Node14 -->
<g id="edge14" class="edge"><title>Node2&#45;&gt;Node14</title>
<path fill="none" stroke="midnightblue" d="M1023.71,-229.967C1005.74,-215.426 966.99,-185.704 930,-168 919.708,-163.074 857.571,-144.649 817.447,-132.958"/>
<polygon fill="midnightblue" stroke="midnightblue" points="818.344,-129.574 807.765,-130.143 816.39,-136.296 818.344,-129.574"/>
</g>
<!-- Node15 -->
<g id="node16" class="node"><title>Node15</title>
<polygon fill="white" stroke="#bfbfbf" points="590,-112.5 590,-131.5 654,-131.5 654,-112.5 590,-112.5"/>
<text text-anchor="middle" x="622" y="-119.5" font-family="Helvetica,sans-Serif" font-size="10.00">stdexcept</text>
</g>
<!-- Node2&#45;&gt;Node15 -->
<g id="edge15" class="edge"><title>Node2&#45;&gt;Node15</title>
<path fill="none" stroke="midnightblue" d="M1017.38,-229.905C1013.08,-227.837 1008.42,-225.728 1004,-224 964.196,-208.431 861.31,-178.965 820,-168 805.076,-164.039 717.835,-144.421 664.255,-132.433"/>
<polygon fill="midnightblue" stroke="midnightblue" points="664.867,-128.984 654.344,-130.217 663.339,-135.815 664.867,-128.984"/>
</g>
<!-- Node16 -->
<g id="node17" class="node"><title>Node16</title>
<polygon fill="white" stroke="#bfbfbf" points="1042,-168.5 1042,-187.5 1072,-187.5 1072,-168.5 1042,-168.5"/>
<text text-anchor="middle" x="1057" y="-175.5" font-family="Helvetica,sans-Serif" font-size="10.00">list</text>
</g>
<!-- Node2&#45;&gt;Node16 -->
<g id="edge16" class="edge"><title>Node2&#45;&gt;Node16</title>
<path fill="none" stroke="midnightblue" d="M1037.3,-229.975C1040.61,-221.404 1045.82,-207.927 1050.05,-196.983"/>
<polygon fill="midnightblue" stroke="midnightblue" points="1053.37,-198.098 1053.71,-187.509 1046.84,-195.575 1053.37,-198.098"/>
</g>
<!-- Node2&#45;&gt;Node17 -->
<g id="edge17" class="edge"><title>Node2&#45;&gt;Node17</title>
<path fill="none" stroke="midnightblue" d="M1018.12,-229.917C1013.64,-227.752 1008.71,-225.593 1004,-224 941.772,-202.964 866.156,-190.125 821.731,-183.805"/>
<polygon fill="midnightblue" stroke="midnightblue" points="822.057,-180.317 811.671,-182.41 821.096,-187.251 822.057,-180.317"/>
</g>
<!-- Node5 -->
<g id="node6" class="node"><title>Node5</title>
<g id="a_node6"><a xlink:href="string_8h.html" target="_top" xlink:title="base/std_ext/string.h">
<polygon fill="white" stroke="black" points="825.5,-112.5 825.5,-131.5 942.5,-131.5 942.5,-112.5 825.5,-112.5"/>
<text text-anchor="middle" x="884" y="-119.5" font-family="Helvetica,sans-Serif" font-size="10.00">base/std_ext/string.h</text>
</a>
</g>
</g>
<!-- Node4&#45;&gt;Node5 -->
<g id="edge5" class="edge"><title>Node4&#45;&gt;Node5</title>
<path fill="none" stroke="midnightblue" d="M1168.44,-168.444C1108.37,-158.846 1011.01,-143.292 947.242,-133.104"/>
<polygon fill="midnightblue" stroke="midnightblue" points="947.734,-129.638 937.307,-131.516 946.629,-136.55 947.734,-129.638"/>
</g>
<!-- Node10 -->
<g id="node11" class="node"><title>Node10</title>
<polygon fill="white" stroke="#bfbfbf" points="1197.5,-112.5 1197.5,-131.5 1246.5,-131.5 1246.5,-112.5 1197.5,-112.5"/>
<text text-anchor="middle" x="1222" y="-119.5" font-family="Helvetica,sans-Serif" font-size="10.00">cstring</text>
</g>
<!-- Node4&#45;&gt;Node10 -->
<g id="edge10" class="edge"><title>Node4&#45;&gt;Node10</title>
<path fill="none" stroke="midnightblue" d="M1222,-168.083C1222,-161.006 1222,-150.861 1222,-141.986"/>
<polygon fill="midnightblue" stroke="midnightblue" points="1225.5,-141.751 1222,-131.751 1218.5,-141.751 1225.5,-141.751"/>
</g>
<!-- Node4&#45;&gt;Node11 -->
<g id="edge11" class="edge"><title>Node4&#45;&gt;Node11</title>
<path fill="none" stroke="midnightblue" d="M1232.93,-168.324C1243.17,-160.185 1258.72,-147.839 1271,-138.087"/>
<polygon fill="midnightblue" stroke="midnightblue" points="1273.22,-140.794 1278.88,-131.834 1268.87,-135.312 1273.22,-140.794"/>
</g>
<!-- Node6 -->
<g id="node7" class="node"><title>Node6</title>
<polygon fill="white" stroke="#bfbfbf" points="674,-56.5 674,-75.5 718,-75.5 718,-56.5 674,-56.5"/>
<text text-anchor="middle" x="696" y="-63.5" font-family="Helvetica,sans-Serif" font-size="10.00">string</text>
</g>
<!-- Node5&#45;&gt;Node6 -->
<g id="edge6" class="edge"><title>Node5&#45;&gt;Node6</title>
<path fill="none" stroke="midnightblue" d="M854.211,-112.444C819.721,-102.537 763.139,-86.2846 727.812,-76.1375"/>
<polygon fill="midnightblue" stroke="midnightblue" points="728.591,-72.7198 718.013,-73.323 726.658,-79.4477 728.591,-72.7198"/>
</g>
<!-- Node5&#45;&gt;Node7 -->
<g id="edge7" class="edge"><title>Node5&#45;&gt;Node7</title>
<path fill="none" stroke="midnightblue" d="M921.553,-112.444C965.751,-102.373 1038.73,-85.7456 1083.08,-75.6394"/>
<polygon fill="midnightblue" stroke="midnightblue" points="1083.93,-79.0368 1092.9,-73.4026 1082.37,-72.2117 1083.93,-79.0368"/>
</g>
<!-- Node8 -->
<g id="node9" class="node"><title>Node8</title>
<polygon fill="white" stroke="#bfbfbf" points="334,-56.5 334,-75.5 396,-75.5 396,-56.5 334,-56.5"/>
<text text-anchor="middle" x="365" y="-63.5" font-family="Helvetica,sans-Serif" font-size="10.00">algorithm</text>
</g>
<!-- Node5&#45;&gt;Node8 -->
<g id="edge8" class="edge"><title>Node5&#45;&gt;Node8</title>
<path fill="none" stroke="midnightblue" d="M825.409,-113.124C822.228,-112.734 819.076,-112.357 816,-112 737.083,-102.843 502.056,-80.1333 406.297,-70.9488"/>
<polygon fill="midnightblue" stroke="midnightblue" points="406.419,-67.4445 396.13,-69.9744 405.751,-74.4126 406.419,-67.4445"/>
</g>
<!-- Node5&#45;&gt;Node9 -->
<g id="edge9" class="edge"><title>Node5&#45;&gt;Node9</title>
<path fill="none" stroke="midnightblue" d="M825.425,-112.981C822.239,-112.628 819.082,-112.298 816,-112 554.949,-86.7785 488.408,-97.1976 227,-76 208.842,-74.5276 188.638,-72.5148 172.075,-70.7661"/>
<polygon fill="midnightblue" stroke="midnightblue" points="172.091,-67.2479 161.775,-69.6634 171.346,-74.2081 172.091,-67.2479"/>
</g>
<!-- Node19 -->
<g id="node20" class="node"><title>Node19</title>
<g id="a_node20"><a xlink:href="vec3_8h.html" target="_top" xlink:title="base/vec/vec3.h">
<polygon fill="white" stroke="black" points="961,-112.5 961,-131.5 1055,-131.5 1055,-112.5 961,-112.5"/>
<text text-anchor="middle" x="1008" y="-119.5" font-family="Helvetica,sans-Serif" font-size="10.00">base/vec/vec3.h</text>
</a>
</g>
</g>
<!-- Node18&#45;&gt;Node19 -->
<g id="edge20" class="edge"><title>Node18&#45;&gt;Node19</title>
<path fill="none" stroke="midnightblue" d="M937.53,-229.573C944.562,-215.948 958.781,-189.302 973,-168 979.525,-158.224 987.528,-147.835 994.233,-139.505"/>
<polygon fill="midnightblue" stroke="midnightblue" points="997.011,-141.637 1000.63,-131.682 991.593,-137.204 997.011,-141.637"/>
</g>
<!-- Node20 -->
<g id="node21" class="node"><title>Node20</title>
<g id="a_node21"><a xlink:href="vec2_8h.html" target="_top" xlink:title="vec2.h">
<polygon fill="white" stroke="black" points="984,-56.5 984,-75.5 1032,-75.5 1032,-56.5 984,-56.5"/>
<text text-anchor="middle" x="1008" y="-63.5" font-family="Helvetica,sans-Serif" font-size="10.00">vec2.h</text>
</a>
</g>
</g>
<!-- Node19&#45;&gt;Node20 -->
<g id="edge21" class="edge"><title>Node19&#45;&gt;Node20</title>
<path fill="none" stroke="midnightblue" d="M1008,-112.083C1008,-105.006 1008,-94.8611 1008,-85.9865"/>
<polygon fill="midnightblue" stroke="midnightblue" points="1011.5,-85.751 1008,-75.7511 1004.5,-85.7511 1011.5,-85.751"/>
</g>
<!-- Node21 -->
<g id="node22" class="node"><title>Node21</title>
<polygon fill="white" stroke="#bfbfbf" points="666.5,-0.5 666.5,-19.5 713.5,-19.5 713.5,-0.5 666.5,-0.5"/>
<text text-anchor="middle" x="690" y="-7.5" font-family="Helvetica,sans-Serif" font-size="10.00">cmath</text>
</g>
<!-- Node19&#45;&gt;Node21 -->
<g id="edge24" class="edge"><title>Node19&#45;&gt;Node21</title>
<path fill="none" stroke="midnightblue" d="M1001.1,-112.182C989.375,-97.8815 964.1,-69.8394 936,-56 865.966,-21.5078 772.954,-13.2686 723.792,-11.4196"/>
<polygon fill="midnightblue" stroke="midnightblue" points="723.808,-7.91852 713.704,-11.1079 723.591,-14.9152 723.808,-7.91852"/>
</g>
<!-- Node22 -->
<g id="node23" class="node"><title>Node22</title>
<polygon fill="white" stroke="#bfbfbf" points="870.5,-56.5 870.5,-75.5 927.5,-75.5 927.5,-56.5 870.5,-56.5"/>
<text text-anchor="middle" x="899" y="-63.5" font-family="Helvetica,sans-Serif" font-size="10.00">ostream</text>
</g>
<!-- Node19&#45;&gt;Node22 -->
<g id="edge23" class="edge"><title>Node19&#45;&gt;Node22</title>
<path fill="none" stroke="midnightblue" d="M990.487,-112.324C972.928,-103.625 945.669,-90.1202 925.469,-80.113"/>
<polygon fill="midnightblue" stroke="midnightblue" points="926.984,-76.9575 916.469,-75.6545 923.876,-83.23 926.984,-76.9575"/>
</g>
<!-- Node20&#45;&gt;Node21 -->
<g id="edge22" class="edge"><title>Node20&#45;&gt;Node21</title>
<path fill="none" stroke="midnightblue" d="M983.935,-59.02C979.323,-57.9534 974.522,-56.8976 970,-56 881.673,-38.467 776.633,-23.0171 723.847,-15.6233"/>
<polygon fill="midnightblue" stroke="midnightblue" points="724.091,-12.1236 713.704,-14.2119 723.126,-19.0568 724.091,-12.1236"/>
</g>
<!-- Node23&#45;&gt;Node7 -->
<g id="edge62" class="edge"><title>Node23&#45;&gt;Node7</title>
<path fill="none" stroke="midnightblue" d="M542.723,-354.796C731.417,-349.657 1382,-325.757 1382,-240.5 1382,-240.5 1382,-240.5 1382,-177 1382,-81.5076 1231.8,-67.5939 1159.29,-66.4413"/>
<polygon fill="midnightblue" stroke="midnightblue" points="1159.21,-62.9406 1149.18,-66.3556 1159.15,-69.9403 1159.21,-62.9406"/>
</g>
<!-- Node23&#45;&gt;Node8 -->
<g id="edge64" class="edge"><title>Node23&#45;&gt;Node8</title>
<path fill="none" stroke="midnightblue" d="M474.969,-347.497C445.006,-331.192 386,-292.484 386,-240.5 386,-240.5 386,-240.5 386,-177 386,-144.384 376.982,-107.278 370.765,-85.5732"/>
<polygon fill="midnightblue" stroke="midnightblue" points="374.043,-84.3156 367.832,-75.7319 367.334,-86.3151 374.043,-84.3156"/>
</g>
<!-- Node23&#45;&gt;Node9 -->
<g id="edge60" class="edge"><title>Node23&#45;&gt;Node9</title>
<path fill="none" stroke="midnightblue" d="M441.2,-354.782C315.495,-350.397 0,-330.432 0,-240.5 0,-240.5 0,-240.5 0,-177 0,-123.646 63.8564,-91.9791 104.694,-77.1828"/>
<polygon fill="midnightblue" stroke="midnightblue" points="105.973,-80.4438 114.277,-73.8642 103.682,-73.8292 105.973,-80.4438"/>
</g>
<!-- Node23&#45;&gt;Node17 -->
<g id="edge61" class="edge"><title>Node23&#45;&gt;Node17</title>
<path fill="none" stroke="midnightblue" d="M542.584,-352.215C605.464,-344.681 711.494,-322.174 769,-255 782.502,-239.228 785.174,-214.841 785.169,-197.965"/>
<polygon fill="midnightblue" stroke="midnightblue" points="788.657,-197.561 784.837,-187.679 781.661,-197.787 788.657,-197.561"/>
</g>
<!-- Node24 -->
<g id="node25" class="node"><title>Node24</title>
<g id="a_node25"><a xlink:href="_t_cluster_8h.html" target="_top" xlink:title="TCluster.h">
<polygon fill="white" stroke="black" points="490.5,-291.5 490.5,-310.5 553.5,-310.5 553.5,-291.5 490.5,-291.5"/>
<text text-anchor="middle" x="522" y="-298.5" font-family="Helvetica,sans-Serif" font-size="10.00">TCluster.h</text>
</a>
</g>
</g>
<!-- Node23&#45;&gt;Node24 -->
<g id="edge29" class="edge"><title>Node23&#45;&gt;Node24</title>
<path fill="none" stroke="midnightblue" d="M496.954,-347.083C501.104,-339.613 507.153,-328.724 512.267,-319.52"/>
<polygon fill="midnightblue" stroke="midnightblue" points="515.341,-321.192 517.138,-310.751 509.222,-317.793 515.341,-321.192"/>
</g>
<!-- Node26 -->
<g id="node27" class="node"><title>Node26</title>
<g id="a_node27"><a xlink:href="_detector__t_8h.html" target="_top" xlink:title="base/Detector_t.h">
<polygon fill="white" stroke="black" points="452.5,-168.5 452.5,-187.5 555.5,-187.5 555.5,-168.5 452.5,-168.5"/>
<text text-anchor="middle" x="504" y="-175.5" font-family="Helvetica,sans-Serif" font-size="10.00">base/Detector_t.h</text>
</a>
</g>
</g>
<!-- Node23&#45;&gt;Node26 -->
<g id="edge59" class="edge"><title>Node23&#45;&gt;Node26</title>
<path fill="none" stroke="midnightblue" d="M489.27,-347.486C486.549,-338.52 482.558,-323.935 481,-311 476.081,-270.161 488.932,-222.759 497.35,-197.347"/>
<polygon fill="midnightblue" stroke="midnightblue" points="500.76,-198.197 500.725,-187.602 494.145,-195.906 500.76,-198.197"/>
</g>
<!-- Node32 -->
<g id="node33" class="node"><title>Node32</title>
<polygon fill="white" stroke="#bfbfbf" points="104.5,-168.5 104.5,-187.5 161.5,-187.5 161.5,-168.5 104.5,-168.5"/>
<text text-anchor="middle" x="133" y="-175.5" font-family="Helvetica,sans-Serif" font-size="10.00">memory</text>
</g>
<!-- Node23&#45;&gt;Node32 -->
<g id="edge63" class="edge"><title>Node23&#45;&gt;Node32</title>
<path fill="none" stroke="midnightblue" d="M441.258,-356.701C365.365,-354.803 223.092,-339.331 147,-255 133.125,-239.623 130.893,-215.155 131.308,-198.151"/>
<polygon fill="midnightblue" stroke="midnightblue" points="134.824,-197.961 131.907,-187.776 127.836,-197.558 134.824,-197.961"/>
</g>
<!-- Node24&#45;&gt;Node7 -->
<g id="edge57" class="edge"><title>Node24&#45;&gt;Node7</title>
<path fill="none" stroke="midnightblue" d="M553.561,-300.595C594.084,-299.699 664.47,-292.322 709,-255 741.338,-227.896 712.947,-192.914 747,-168 871.065,-77.232 966.006,-221.485 1091,-132 1106.13,-121.171 1113.82,-100.786 1117.6,-85.7207"/>
<polygon fill="midnightblue" stroke="midnightblue" points="1121.03,-86.4161 1119.71,-75.9035 1114.19,-84.9434 1121.03,-86.4161"/>
</g>
<!-- Node24&#45;&gt;Node9 -->
<g id="edge54" class="edge"><title>Node24&#45;&gt;Node9</title>
<path fill="none" stroke="midnightblue" d="M490.188,-298.678C397.004,-294.521 129.366,-280.46 100,-255 51.7497,-213.168 57.9087,-169.349 86,-112 92.0724,-99.6031 103.267,-89.2247 113.719,-81.5704"/>
<polygon fill="midnightblue" stroke="midnightblue" points="115.9,-84.3194 122.194,-75.7969 111.959,-78.5341 115.9,-84.3194"/>
</g>
<!-- Node24&#45;&gt;Node17 -->
<g id="edge56" class="edge"><title>Node24&#45;&gt;Node17</title>
<path fill="none" stroke="midnightblue" d="M553.644,-296.803C607.108,-290.874 712.394,-276.761 742,-255 761.314,-240.804 772.838,-214.925 778.798,-197.351"/>
<polygon fill="midnightblue" stroke="midnightblue" points="782.184,-198.249 781.81,-187.661 775.5,-196.171 782.184,-198.249"/>
</g>
<!-- Node24&#45;&gt;Node19 -->
<g id="edge53" class="edge"><title>Node24&#45;&gt;Node19</title>
<path fill="none" stroke="midnightblue" d="M524.165,-291.368C528.419,-275.996 539.219,-243.65 559,-224 599.9,-183.372 620.73,-184.39 676,-168 791.062,-133.878 827.106,-148.771 950.515,-131.995"/>
<polygon fill="midnightblue" stroke="midnightblue" points="951.321,-135.417 960.737,-130.561 950.348,-128.485 951.321,-135.417"/>
</g>
<!-- Node24&#45;&gt;Node21 -->
<g id="edge55" class="edge"><title>Node24&#45;&gt;Node21</title>
<path fill="none" stroke="midnightblue" d="M507.54,-291.374C480.279,-273.89 424,-231.443 424,-179 424,-179 424,-179 424,-121 424,-21.6553 584.403,-10.2694 656.089,-10.1414"/>
<polygon fill="midnightblue" stroke="midnightblue" points="656.374,-13.643 666.394,-10.2003 656.414,-6.64312 656.374,-13.643"/>
</g>
<!-- Node25 -->
<g id="node26" class="node"><title>Node25</title>
<g id="a_node26"><a xlink:href="_t_detector_read_hit_8h.html" target="_top" xlink:title="tree/TDetectorReadHit.h">
<polygon fill="white" stroke="black" points="568,-230 568,-249 700,-249 700,-230 568,-230"/>
<text text-anchor="middle" x="634" y="-237" font-family="Helvetica,sans-Serif" font-size="10.00">tree/TDetectorReadHit.h</text>
</a>
</g>
</g>
<!-- Node24&#45;&gt;Node25 -->
<g id="edge30" class="edge"><title>Node24&#45;&gt;Node25</title>
<path fill="none" stroke="midnightblue" d="M538.047,-291.475C556.593,-281.622 587.34,-265.288 609.022,-253.77"/>
<polygon fill="midnightblue" stroke="midnightblue" points="610.794,-256.792 617.983,-249.009 607.51,-250.61 610.794,-256.792"/>
</g>
<!-- Node24&#45;&gt;Node26 -->
<g id="edge46" class="edge"><title>Node24&#45;&gt;Node26</title>
<path fill="none" stroke="midnightblue" d="M520.705,-291.298C517.799,-271.763 510.704,-224.065 506.759,-197.547"/>
<polygon fill="midnightblue" stroke="midnightblue" points="510.216,-196.999 505.283,-187.623 503.292,-198.029 510.216,-196.999"/>
</g>
<!-- Node29 -->
<g id="node30" class="node"><title>Node29</title>
<g id="a_node30"><a xlink:href="base_2std__ext_2math_8h.html" target="_top" xlink:title="base/std_ext/math.h">
<polygon fill="white" stroke="black" points="204,-112.5 204,-131.5 320,-131.5 320,-112.5 204,-112.5"/>
<text text-anchor="middle" x="262" y="-119.5" font-family="Helvetica,sans-Serif" font-size="10.00">base/std_ext/math.h</text>
</a>
</g>
</g>
<!-- Node24&#45;&gt;Node29 -->
<g id="edge47" class="edge"><title>Node24&#45;&gt;Node29</title>
<path fill="none" stroke="midnightblue" d="M490.245,-299.296C410.773,-297.048 205.489,-288.11 147,-255 107.798,-232.809 67.6023,-203.758 95,-168 107.358,-151.871 153.326,-140.218 193.911,-132.817"/>
<polygon fill="midnightblue" stroke="midnightblue" points="194.577,-136.254 203.819,-131.073 193.364,-129.36 194.577,-136.254"/>
</g>
<!-- Node31 -->
<g id="node32" class="node"><title>Node31</title>
<g id="a_node32"><a xlink:href="shared__ptr__container_8h.html" target="_top" xlink:title="base/std_ext/shared\l_ptr_container.h">
<polygon fill="white" stroke="black" points="231,-224.5 231,-254.5 345,-254.5 345,-224.5 231,-224.5"/>
<text text-anchor="start" x="239" y="-242.5" font-family="Helvetica,sans-Serif" font-size="10.00">base/std_ext/shared</text>
<text text-anchor="middle" x="288" y="-231.5" font-family="Helvetica,sans-Serif" font-size="10.00">_ptr_container.h</text>
</a>
</g>
</g>
<!-- Node24&#45;&gt;Node31 -->
<g id="edge48" class="edge"><title>Node24&#45;&gt;Node31</title>
<path fill="none" stroke="midnightblue" d="M490.442,-291.976C455.416,-283.07 397.928,-268.452 353.146,-257.065"/>
<polygon fill="midnightblue" stroke="midnightblue" points="353.773,-253.613 343.219,-254.541 352.048,-260.397 353.773,-253.613"/>
</g>
<!-- Node24&#45;&gt;Node32 -->
<g id="edge58" class="edge"><title>Node24&#45;&gt;Node32</title>
<path fill="none" stroke="midnightblue" d="M490.486,-299.435C415.144,-297.535 227.062,-289.383 176,-255 155.912,-241.473 144.15,-215.234 138.146,-197.415"/>
<polygon fill="midnightblue" stroke="midnightblue" points="141.481,-196.353 135.192,-187.827 134.791,-198.414 141.481,-196.353"/>
</g>
<!-- Node25&#45;&gt;Node7 -->
<g id="edge45" class="edge"><title>Node25&#45;&gt;Node7</title>
<path fill="none" stroke="midnightblue" d="M640.785,-229.67C653.317,-214.104 681.776,-182.099 714,-168 857.264,-105.319 925.057,-203.751 1064,-132 1084.76,-121.278 1101.35,-99.5571 1111.17,-84.1806"/>
<polygon fill="midnightblue" stroke="midnightblue" points="1114.19,-85.9477 1116.38,-75.5816 1108.2,-82.3195 1114.19,-85.9477"/>
</g>
<!-- Node25&#45;&gt;Node17 -->
<g id="edge44" class="edge"><title>Node25&#45;&gt;Node17</title>
<path fill="none" stroke="midnightblue" d="M655.491,-229.975C681.11,-219.813 724.11,-202.756 753.245,-191.2"/>
<polygon fill="midnightblue" stroke="midnightblue" points="754.544,-194.45 762.549,-187.509 751.963,-187.943 754.544,-194.45"/>
</g>
<!-- Node25&#45;&gt;Node26 -->
<g id="edge31" class="edge"><title>Node25&#45;&gt;Node26</title>
<path fill="none" stroke="midnightblue" d="M615.374,-229.975C593.557,-219.99 557.196,-203.348 531.983,-191.807"/>
<polygon fill="midnightblue" stroke="midnightblue" points="533.141,-188.488 522.591,-187.509 530.228,-194.853 533.141,-188.488"/>
</g>
<!-- Node26&#45;&gt;Node6 -->
<g id="edge41" class="edge"><title>Node26&#45;&gt;Node6</title>
<path fill="none" stroke="midnightblue" d="M512.283,-168.375C525.664,-154.842 553.342,-128.468 581,-112 607.435,-96.2605 640.368,-84.0269 664.208,-76.3143"/>
<polygon fill="midnightblue" stroke="midnightblue" points="665.335,-79.629 673.823,-73.2886 663.234,-72.9518 665.335,-79.629"/>
</g>
<!-- Node26&#45;&gt;Node9 -->
<g id="edge43" class="edge"><title>Node26&#45;&gt;Node9</title>
<path fill="none" stroke="midnightblue" d="M452.335,-173.798C376.238,-168.361 238.347,-155.554 195,-132 174.687,-120.962 158.182,-99.6753 148.257,-84.4688"/>
<polygon fill="midnightblue" stroke="midnightblue" points="151.204,-82.5786 142.953,-75.9323 145.258,-86.2733 151.204,-82.5786"/>
</g>
<!-- Node26&#45;&gt;Node12 -->
<g id="edge42" class="edge"><title>Node26&#45;&gt;Node12</title>
<path fill="none" stroke="midnightblue" d="M536.008,-168.444C570.729,-159.162 626.288,-144.309 664.377,-134.127"/>
<polygon fill="midnightblue" stroke="midnightblue" points="665.385,-137.48 674.142,-131.516 663.578,-130.718 665.385,-137.48"/>
</g>
<!-- Node26&#45;&gt;Node14 -->
<g id="edge39" class="edge"><title>Node26&#45;&gt;Node14</title>
<path fill="none" stroke="midnightblue" d="M555.855,-168.67C603.372,-160.768 675.868,-148.039 747.999,-132.082"/>
<polygon fill="midnightblue" stroke="midnightblue" points="749.176,-135.405 758.172,-129.809 747.649,-128.573 749.176,-135.405"/>
</g>
<!-- Node26&#45;&gt;Node15 -->
<g id="edge40" class="edge"><title>Node26&#45;&gt;Node15</title>
<path fill="none" stroke="midnightblue" d="M522.697,-168.444C541.944,-159.636 572.152,-145.812 594.2,-135.722"/>
<polygon fill="midnightblue" stroke="midnightblue" points="595.753,-138.86 603.39,-131.516 592.84,-132.495 595.753,-138.86"/>
</g>
<!-- Node26&#45;&gt;Node19 -->
<g id="edge34" class="edge"><title>Node26&#45;&gt;Node19</title>
<path fill="none" stroke="midnightblue" d="M555.855,-169.723C560.634,-169.114 565.405,-168.53 570,-168 735.749,-148.877 780.554,-153.101 950.702,-131.953"/>
<polygon fill="midnightblue" stroke="midnightblue" points="951.268,-135.409 960.755,-130.692 950.397,-128.464 951.268,-135.409"/>
</g>
<!-- Node27 -->
<g id="node28" class="node"><title>Node27</title>
<g id="a_node28"><a xlink:href="bitflag_8h.html" target="_top" xlink:title="base/bitflag.h">
<polygon fill="white" stroke="black" points="452.5,-112.5 452.5,-131.5 533.5,-131.5 533.5,-112.5 452.5,-112.5"/>
<text text-anchor="middle" x="493" y="-119.5" font-family="Helvetica,sans-Serif" font-size="10.00">base/bitflag.h</text>
</a>
</g>
</g>
<!-- Node26&#45;&gt;Node27 -->
<g id="edge32" class="edge"><title>Node26&#45;&gt;Node27</title>
<path fill="none" stroke="midnightblue" d="M502.184,-168.083C500.726,-160.927 498.629,-150.635 496.807,-141.691"/>
<polygon fill="midnightblue" stroke="midnightblue" points="500.208,-140.851 494.783,-131.751 493.349,-142.248 500.208,-140.851"/>
</g>
<!-- Node26&#45;&gt;Node29 -->
<g id="edge35" class="edge"><title>Node26&#45;&gt;Node29</title>
<path fill="none" stroke="midnightblue" d="M465.654,-168.444C423.527,-159.043 355.794,-143.929 310.128,-133.739"/>
<polygon fill="midnightblue" stroke="midnightblue" points="310.688,-130.278 300.166,-131.516 309.164,-137.11 310.688,-130.278"/>
</g>
<!-- Node28 -->
<g id="node29" class="node"><title>Node28</title>
<polygon fill="white" stroke="#bfbfbf" points="471,-56.5 471,-75.5 515,-75.5 515,-56.5 471,-56.5"/>
<text text-anchor="middle" x="493" y="-63.5" font-family="Helvetica,sans-Serif" font-size="10.00">bitset</text>
</g>
<!-- Node27&#45;&gt;Node28 -->
<g id="edge33" class="edge"><title>Node27&#45;&gt;Node28</title>
<path fill="none" stroke="midnightblue" d="M493,-112.083C493,-105.006 493,-94.8611 493,-85.9865"/>
<polygon fill="midnightblue" stroke="midnightblue" points="496.5,-85.751 493,-75.7511 489.5,-85.7511 496.5,-85.751"/>
</g>
<!-- Node29&#45;&gt;Node9 -->
<g id="edge38" class="edge"><title>Node29&#45;&gt;Node9</title>
<path fill="none" stroke="midnightblue" d="M242.352,-112.444C222.035,-103.596 190.097,-89.6875 166.902,-79.5865"/>
<polygon fill="midnightblue" stroke="midnightblue" points="168.122,-76.3002 157.556,-75.5164 165.327,-82.7181 168.122,-76.3002"/>
</g>
<!-- Node29&#45;&gt;Node21 -->
<g id="edge36" class="edge"><title>Node29&#45;&gt;Node21</title>
<path fill="none" stroke="midnightblue" d="M267.375,-112.465C276.972,-98.049 298.55,-69.1653 325,-56 382.798,-27.231 577.068,-15.8326 656.115,-12.3139"/>
<polygon fill="midnightblue" stroke="midnightblue" points="656.638,-15.7948 666.478,-11.8688 656.337,-8.80127 656.638,-15.7948"/>
</g>
<!-- Node30 -->
<g id="node31" class="node"><title>Node30</title>
<polygon fill="white" stroke="#bfbfbf" points="236,-56.5 236,-75.5 278,-75.5 278,-56.5 236,-56.5"/>
<text text-anchor="middle" x="257" y="-63.5" font-family="Helvetica,sans-Serif" font-size="10.00">limits</text>
</g>
<!-- Node29&#45;&gt;Node30 -->
<g id="edge37" class="edge"><title>Node29&#45;&gt;Node30</title>
<path fill="none" stroke="midnightblue" d="M261.174,-112.083C260.519,-105.006 259.58,-94.8611 258.758,-85.9865"/>
<polygon fill="midnightblue" stroke="midnightblue" points="262.217,-85.3858 257.81,-75.7511 255.247,-86.0312 262.217,-85.3858"/>
</g>
<!-- Node31&#45;&gt;Node8 -->
<g id="edge52" class="edge"><title>Node31&#45;&gt;Node8</title>
<path fill="none" stroke="midnightblue" d="M301.468,-224.492C310.084,-214.879 320.931,-201.469 328,-188 345.802,-154.081 356.52,-110.227 361.544,-85.7116"/>
<polygon fill="midnightblue" stroke="midnightblue" points="365.03,-86.1205 363.508,-75.6355 358.159,-84.7811 365.03,-86.1205"/>
</g>
<!-- Node31&#45;&gt;Node9 -->
<g id="edge49" class="edge"><title>Node31&#45;&gt;Node9</title>
<path fill="none" stroke="midnightblue" d="M271.23,-224.285C240.148,-197.843 176.012,-142.791 168,-132 157.36,-117.669 149.217,-98.962 144.117,-85.2981"/>
<polygon fill="midnightblue" stroke="midnightblue" points="147.323,-83.8637 140.691,-75.6012 140.723,-86.1959 147.323,-83.8637"/>
</g>
<!-- Node31&#45;&gt;Node32 -->
<g id="edge50" class="edge"><title>Node31&#45;&gt;Node32</title>
<path fill="none" stroke="midnightblue" d="M251.267,-224.399C225.029,-214.327 190.075,-200.909 164.982,-191.277"/>
<polygon fill="midnightblue" stroke="midnightblue" points="166.144,-187.974 155.554,-187.658 163.635,-194.509 166.144,-187.974"/>
</g>
<!-- Node33 -->
<g id="node34" class="node"><title>Node33</title>
<polygon fill="white" stroke="#bfbfbf" points="256.5,-168.5 256.5,-187.5 319.5,-187.5 319.5,-168.5 256.5,-168.5"/>
<text text-anchor="middle" x="288" y="-175.5" font-family="Helvetica,sans-Serif" font-size="10.00">functional</text>
</g>
<!-- Node31&#45;&gt;Node33 -->
<g id="edge51" class="edge"><title>Node31&#45;&gt;Node33</title>
<path fill="none" stroke="midnightblue" d="M288,-224.399C288,-216.466 288,-206.458 288,-197.858"/>
<polygon fill="midnightblue" stroke="midnightblue" points="291.5,-197.658 288,-187.658 284.5,-197.658 291.5,-197.658"/>
</g>
</g>
</svg>
