<?xml version="1.0" encoding="UTF-8" standalone="no"?>
<!DOCTYPE svg PUBLIC "-//W3C//DTD SVG 1.1//EN"
 "http://www.w3.org/Graphics/SVG/1.1/DTD/svg11.dtd">
<!-- Generated by graphviz version 2.38.0 (20140413.2041)
 -->
<!-- Title: src/root&#45;addons/analysis_codes/TreeTools.h Pages: 1 -->
<svg width="471pt" height="106pt"
 viewBox="0.00 0.00 470.50 106.00" xmlns="http://www.w3.org/2000/svg" xmlns:xlink="http://www.w3.org/1999/xlink">
<g id="graph0" class="graph" transform="scale(1 1) rotate(0) translate(4 102)">
<title>src/root&#45;addons/analysis_codes/TreeTools.h</title>
<polygon fill="white" stroke="none" points="-4,4 -4,-102 466.5,-102 466.5,4 -4,4"/>
<!-- Node14 -->
<g id="node1" class="node"><title>Node14</title>
<polygon fill="#bfbfbf" stroke="black" points="174.5,-67.5 174.5,-97.5 308.5,-97.5 308.5,-67.5 174.5,-67.5"/>
<text text-anchor="start" x="182.5" y="-85.5" font-family="Helvetica,sans-Serif" font-size="10.00">src/root&#45;addons/analysis</text>
<text text-anchor="middle" x="241.5" y="-74.5" font-family="Helvetica,sans-Serif" font-size="10.00">_codes/TreeTools.h</text>
</g>
<!-- Node15 -->
<g id="node2" class="node"><title>Node15</title>
<g id="a_node2"><a xlink:href="root-addons_2analysis__codes_2_extract_resolutions_8cc.html" target="_top" xlink:title="src/root&#45;addons/analysis\l_codes/ExtractResolutions.cc">
<polygon fill="white" stroke="black" points="0,-0.5 0,-30.5 155,-30.5 155,-0.5 0,-0.5"/>
<text text-anchor="start" x="8" y="-18.5" font-family="Helvetica,sans-Serif" font-size="10.00">src/root&#45;addons/analysis</text>
<text text-anchor="middle" x="77.5" y="-7.5" font-family="Helvetica,sans-Serif" font-size="10.00">_codes/ExtractResolutions.cc</text>
</a>
</g>
</g>
<!-- Node14&#45;&gt;Node15 -->
<g id="edge1" class="edge"><title>Node14&#45;&gt;Node15</title>
<path fill="none" stroke="midnightblue" d="M196.543,-63.6815C170.24,-53.2568 137.5,-40.2805 113.016,-30.5765"/>
<polygon fill="midnightblue" stroke="midnightblue" points="195.328,-66.9651 205.914,-67.396 197.908,-60.4576 195.328,-66.9651"/>
</g>
<!-- Node16 -->
<g id="node3" class="node"><title>Node16</title>
<g id="a_node3"><a xlink:href="symmetric__pi0_8cc.html" target="_top" xlink:title="src/root&#45;addons/analysis\l_codes/symmetric_pi0.cc">
<polygon fill="white" stroke="black" points="173,-0.5 173,-30.5 310,-30.5 310,-0.5 173,-0.5"/>
<text text-anchor="start" x="181" y="-18.5" font-family="Helvetica,sans-Serif" font-size="10.00">src/root&#45;addons/analysis</text>
<text text-anchor="middle" x="241.5" y="-7.5" font-family="Helvetica,sans-Serif" font-size="10.00">_codes/symmetric_pi0.cc</text>
</a>
</g>
</g>
<!-- Node14&#45;&gt;Node16 -->
<g id="edge2" class="edge"><title>Node14&#45;&gt;Node16</title>
<path fill="none" stroke="midnightblue" d="M241.5,-57.1081C241.5,-48.1539 241.5,-38.3227 241.5,-30.5765"/>
<polygon fill="midnightblue" stroke="midnightblue" points="238,-57.3959 241.5,-67.396 245,-57.396 238,-57.3959"/>
</g>
<!-- Node17 -->
<g id="node4" class="node"><title>Node17</title>
<g id="a_node4"><a xlink:href="_tree_tools_8cc.html" target="_top" xlink:title="src/root&#45;addons/analysis\l_codes/TreeTools.cc">
<polygon fill="white" stroke="black" points="328.5,-0.5 328.5,-30.5 462.5,-30.5 462.5,-0.5 328.5,-0.5"/>
<text text-anchor="start" x="336.5" y="-18.5" font-family="Helvetica,sans-Serif" font-size="10.00">src/root&#45;addons/analysis</text>
<text text-anchor="middle" x="395.5" y="-7.5" font-family="Helvetica,sans-Serif" font-size="10.00">_codes/TreeTools.cc</text>
</a>
</g>
</g>
<!-- Node14&#45;&gt;Node17 -->
<g id="edge3" class="edge"><title>Node14&#45;&gt;Node17</title>
<path fill="none" stroke="midnightblue" d="M284.367,-63.4066C308.953,-53.0294 339.36,-40.1954 362.15,-30.5765"/>
<polygon fill="midnightblue" stroke="midnightblue" points="282.768,-60.2828 274.916,-67.396 285.49,-66.7319 282.768,-60.2828"/>
</g>
</g>
</svg>
