<?xml version="1.0" encoding="UTF-8" standalone="no"?>
<!DOCTYPE svg PUBLIC "-//W3C//DTD SVG 1.1//EN"
 "http://www.w3.org/Graphics/SVG/1.1/DTD/svg11.dtd">
<!-- Generated by graphviz version 2.38.0 (20140413.2041)
 -->
<!-- Title: src/root&#45;addons/analysis_codes/TreeTools.cc Pages: 1 -->
<svg width="831pt" height="319pt"
 viewBox="0.00 0.00 831.00 319.00" xmlns="http://www.w3.org/2000/svg" xmlns:xlink="http://www.w3.org/1999/xlink">
<g id="graph0" class="graph" transform="scale(1 1) rotate(0) translate(4 315)">
<title>src/root&#45;addons/analysis_codes/TreeTools.cc</title>
<polygon fill="white" stroke="none" points="-4,4 -4,-315 827,-315 827,4 -4,4"/>
<!-- Node0 -->
<g id="node1" class="node"><title>Node0</title>
<polygon fill="#bfbfbf" stroke="black" points="484.5,-280.5 484.5,-310.5 618.5,-310.5 618.5,-280.5 484.5,-280.5"/>
<text text-anchor="start" x="492.5" y="-298.5" font-family="Helvetica,sans-Serif" font-size="10.00">src/root&#45;addons/analysis</text>
<text text-anchor="middle" x="551.5" y="-287.5" font-family="Helvetica,sans-Serif" font-size="10.00">_codes/TreeTools.cc</text>
</g>
<!-- Node1 -->
<g id="node2" class="node"><title>Node1</title>
<g id="a_node2"><a xlink:href="_tree_tools_8h.html" target="_top" xlink:title="TreeTools.h">
<polygon fill="white" stroke="black" points="294.5,-224.5 294.5,-243.5 362.5,-243.5 362.5,-224.5 294.5,-224.5"/>
<text text-anchor="middle" x="328.5" y="-231.5" font-family="Helvetica,sans-Serif" font-size="10.00">TreeTools.h</text>
</a>
</g>
</g>
<!-- Node0&#45;&gt;Node1 -->
<g id="edge1" class="edge"><title>Node0&#45;&gt;Node1</title>
<path fill="none" stroke="midnightblue" d="M498.934,-280.475C459.622,-269.986 406.594,-255.837 370.184,-246.122"/>
<polygon fill="midnightblue" stroke="midnightblue" points="370.945,-242.703 360.381,-243.506 369.141,-249.466 370.945,-242.703"/>
</g>
<!-- Node15 -->
<g id="node16" class="node"><title>Node15</title>
<polygon fill="white" stroke="#bfbfbf" points="430.5,-224.5 430.5,-243.5 480.5,-243.5 480.5,-224.5 430.5,-224.5"/>
<text text-anchor="middle" x="455.5" y="-231.5" font-family="Helvetica,sans-Serif" font-size="10.00">TTree.h</text>
</g>
<!-- Node0&#45;&gt;Node15 -->
<g id="edge20" class="edge"><title>Node0&#45;&gt;Node15</title>
<path fill="none" stroke="midnightblue" d="M528.749,-280.399C513.505,-270.951 493.511,-258.559 478.264,-249.109"/>
<polygon fill="midnightblue" stroke="midnightblue" points="479.813,-245.951 469.469,-243.658 476.125,-251.901 479.813,-245.951"/>
</g>
<!-- Node16 -->
<g id="node17" class="node"><title>Node16</title>
<polygon fill="white" stroke="#bfbfbf" points="498.5,-224.5 498.5,-243.5 542.5,-243.5 542.5,-224.5 498.5,-224.5"/>
<text text-anchor="middle" x="520.5" y="-231.5" font-family="Helvetica,sans-Serif" font-size="10.00">TH1.h</text>
</g>
<!-- Node0&#45;&gt;Node16 -->
<g id="edge21" class="edge"><title>Node0&#45;&gt;Node16</title>
<path fill="none" stroke="midnightblue" d="M544.153,-280.399C539.835,-272.11 534.335,-261.554 529.726,-252.708"/>
<polygon fill="midnightblue" stroke="midnightblue" points="532.735,-250.909 525.011,-243.658 526.527,-254.144 532.735,-250.909"/>
</g>
<!-- Node17 -->
<g id="node18" class="node"><title>Node17</title>
<polygon fill="white" stroke="#bfbfbf" points="560.5,-224.5 560.5,-243.5 604.5,-243.5 604.5,-224.5 560.5,-224.5"/>
<text text-anchor="middle" x="582.5" y="-231.5" font-family="Helvetica,sans-Serif" font-size="10.00">TH2.h</text>
</g>
<!-- Node0&#45;&gt;Node17 -->
<g id="edge22" class="edge"><title>Node0&#45;&gt;Node17</title>
<path fill="none" stroke="midnightblue" d="M558.847,-280.399C563.165,-272.11 568.665,-261.554 573.274,-252.708"/>
<polygon fill="midnightblue" stroke="midnightblue" points="576.473,-254.144 577.989,-243.658 570.265,-250.909 576.473,-254.144"/>
</g>
<!-- Node18 -->
<g id="node19" class="node"><title>Node18</title>
<polygon fill="white" stroke="#bfbfbf" points="622.5,-224.5 622.5,-243.5 666.5,-243.5 666.5,-224.5 622.5,-224.5"/>
<text text-anchor="middle" x="644.5" y="-231.5" font-family="Helvetica,sans-Serif" font-size="10.00">TH3.h</text>
</g>
<!-- Node0&#45;&gt;Node18 -->
<g id="edge23" class="edge"><title>Node0&#45;&gt;Node18</title>
<path fill="none" stroke="midnightblue" d="M573.54,-280.399C588.308,-270.951 607.677,-258.559 622.447,-249.109"/>
<polygon fill="midnightblue" stroke="midnightblue" points="624.43,-251.995 630.968,-243.658 620.658,-246.099 624.43,-251.995"/>
</g>
<!-- Node19 -->
<g id="node20" class="node"><title>Node19</title>
<polygon fill="white" stroke="#bfbfbf" points="685,-224.5 685,-243.5 732,-243.5 732,-224.5 685,-224.5"/>
<text text-anchor="middle" x="708.5" y="-231.5" font-family="Helvetica,sans-Serif" font-size="10.00">TCut.h</text>
</g>
<!-- Node0&#45;&gt;Node19 -->
<g id="edge24" class="edge"><title>Node0&#45;&gt;Node19</title>
<path fill="none" stroke="midnightblue" d="M588.707,-280.399C615.284,-270.327 650.689,-256.909 676.105,-247.277"/>
<polygon fill="midnightblue" stroke="midnightblue" points="677.544,-250.475 685.655,-243.658 675.064,-243.929 677.544,-250.475"/>
</g>
<!-- Node20 -->
<g id="node21" class="node"><title>Node20</title>
<polygon fill="white" stroke="#bfbfbf" points="750,-224.5 750,-243.5 823,-243.5 823,-224.5 750,-224.5"/>
<text text-anchor="middle" x="786.5" y="-231.5" font-family="Helvetica,sans-Serif" font-size="10.00">TDirectory.h</text>
</g>
<!-- Node0&#45;&gt;Node20 -->
<g id="edge25" class="edge"><title>Node0&#45;&gt;Node20</title>
<path fill="none" stroke="midnightblue" d="M606.894,-280.475C648.499,-269.941 704.681,-255.716 743.063,-245.998"/>
<polygon fill="midnightblue" stroke="midnightblue" points="744.068,-249.354 752.903,-243.506 742.35,-242.568 744.068,-249.354"/>
</g>
<!-- Node21 -->
<g id="node22" class="node"><title>Node21</title>
<g id="a_node22"><a xlink:href="string_8h.html" target="_top" xlink:title="base/std_ext/string.h">
<polygon fill="white" stroke="black" points="357,-168.5 357,-187.5 474,-187.5 474,-168.5 357,-168.5"/>
<text text-anchor="middle" x="415.5" y="-175.5" font-family="Helvetica,sans-Serif" font-size="10.00">base/std_ext/string.h</text>
</a>
</g>
</g>
<!-- Node0&#45;&gt;Node21 -->
<g id="edge26" class="edge"><title>Node0&#45;&gt;Node21</title>
<path fill="none" stroke="midnightblue" d="M484.469,-283.495C460.96,-276.209 436.662,-264.105 421.5,-244 411.593,-230.863 410.993,-211.72 412.33,-197.609"/>
<polygon fill="midnightblue" stroke="midnightblue" points="415.815,-197.959 413.677,-187.582 408.877,-197.027 415.815,-197.959"/>
</g>
<!-- Node2 -->
<g id="node3" class="node"><title>Node2</title>
<polygon fill="white" stroke="#bfbfbf" points="305.5,-112.5 305.5,-131.5 349.5,-131.5 349.5,-112.5 305.5,-112.5"/>
<text text-anchor="middle" x="327.5" y="-119.5" font-family="Helvetica,sans-Serif" font-size="10.00">string</text>
</g>
<!-- Node1&#45;&gt;Node2 -->
<g id="edge2" class="edge"><title>Node1&#45;&gt;Node2</title>
<path fill="none" stroke="midnightblue" d="M328.422,-224.368C328.26,-206.617 327.888,-165.666 327.669,-141.597"/>
<polygon fill="midnightblue" stroke="midnightblue" points="331.169,-141.559 327.578,-131.591 324.169,-141.623 331.169,-141.559"/>
</g>
<!-- Node3 -->
<g id="node4" class="node"><title>Node3</title>
<g id="a_node4"><a xlink:href="_histogram_factory_8h.html" target="_top" xlink:title="analysis/plot/HistogramFactory.h">
<polygon fill="white" stroke="black" points="129,-168.5 129,-187.5 300,-187.5 300,-168.5 129,-168.5"/>
<text text-anchor="middle" x="214.5" y="-175.5" font-family="Helvetica,sans-Serif" font-size="10.00">analysis/plot/HistogramFactory.h</text>
</a>
</g>
</g>
<!-- Node1&#45;&gt;Node3 -->
<g id="edge3" class="edge"><title>Node1&#45;&gt;Node3</title>
<path fill="none" stroke="midnightblue" d="M310.436,-224.444C291.925,-215.675 262.919,-201.935 241.645,-191.858"/>
<polygon fill="midnightblue" stroke="midnightblue" points="243.015,-188.634 232.479,-187.516 240.018,-194.96 243.015,-188.634"/>
</g>
<!-- Node3&#45;&gt;Node2 -->
<g id="edge18" class="edge"><title>Node3&#45;&gt;Node2</title>
<path fill="none" stroke="midnightblue" d="M232.405,-168.444C250.754,-159.675 279.505,-145.935 300.594,-135.858"/>
<polygon fill="midnightblue" stroke="midnightblue" points="302.165,-138.986 309.679,-131.516 299.147,-132.67 302.165,-138.986"/>
</g>
<!-- Node4 -->
<g id="node5" class="node"><title>Node4</title>
<g id="a_node5"><a xlink:href="interval_8h.html" target="_top" xlink:title="base/interval.h">
<polygon fill="white" stroke="black" points="201,-56.5 201,-75.5 288,-75.5 288,-56.5 201,-56.5"/>
<text text-anchor="middle" x="244.5" y="-63.5" font-family="Helvetica,sans-Serif" font-size="10.00">base/interval.h</text>
</a>
</g>
</g>
<!-- Node3&#45;&gt;Node4 -->
<g id="edge4" class="edge"><title>Node3&#45;&gt;Node4</title>
<path fill="none" stroke="midnightblue" d="M216.854,-168.368C221.717,-150.537 232.965,-109.295 239.517,-85.2717"/>
<polygon fill="midnightblue" stroke="midnightblue" points="242.902,-86.16 242.157,-75.5914 236.149,-84.3181 242.902,-86.16"/>
</g>
<!-- Node12 -->
<g id="node13" class="node"><title>Node12</title>
<g id="a_node13"><a xlink:href="_bin_settings_8h.html" target="_top" xlink:title="base/BinSettings.h">
<polygon fill="white" stroke="black" points="101,-112.5 101,-131.5 208,-131.5 208,-112.5 101,-112.5"/>
<text text-anchor="middle" x="154.5" y="-119.5" font-family="Helvetica,sans-Serif" font-size="10.00">base/BinSettings.h</text>
</a>
</g>
</g>
<!-- Node3&#45;&gt;Node12 -->
<g id="edge12" class="edge"><title>Node3&#45;&gt;Node12</title>
<path fill="none" stroke="midnightblue" d="M204.86,-168.324C195.99,-160.341 182.625,-148.313 171.892,-138.653"/>
<polygon fill="midnightblue" stroke="midnightblue" points="174.09,-135.922 164.315,-131.834 169.407,-141.125 174.09,-135.922"/>
</g>
<!-- Node13 -->
<g id="node14" class="node"><title>Node13</title>
<polygon fill="white" stroke="#bfbfbf" points="306,-56.5 306,-75.5 353,-75.5 353,-56.5 306,-56.5"/>
<text text-anchor="middle" x="329.5" y="-63.5" font-family="Helvetica,sans-Serif" font-size="10.00">vector</text>
</g>
<!-- Node3&#45;&gt;Node13 -->
<g id="edge19" class="edge"><title>Node3&#45;&gt;Node13</title>
<path fill="none" stroke="midnightblue" d="M223.524,-168.368C242.838,-149.894 288.421,-106.293 313.041,-82.7436"/>
<polygon fill="midnightblue" stroke="midnightblue" points="315.711,-85.0329 320.518,-75.5914 310.872,-79.9744 315.711,-85.0329"/>
</g>
<!-- Node5 -->
<g id="node6" class="node"><title>Node5</title>
<g id="a_node6"><a xlink:href="types_8h.html" target="_top" xlink:title="types.h">
<polygon fill="white" stroke="black" points="153.5,-0.5 153.5,-19.5 205.5,-19.5 205.5,-0.5 153.5,-0.5"/>
<text text-anchor="middle" x="179.5" y="-7.5" font-family="Helvetica,sans-Serif" font-size="10.00">types.h</text>
</a>
</g>
</g>
<!-- Node4&#45;&gt;Node5 -->
<g id="edge5" class="edge"><title>Node4&#45;&gt;Node5</title>
<path fill="none" stroke="midnightblue" d="M234.057,-56.324C224.354,-48.2631 209.685,-36.0765 198,-26.3695"/>
<polygon fill="midnightblue" stroke="midnightblue" points="200.062,-23.532 190.133,-19.8339 195.589,-28.9163 200.062,-23.532"/>
</g>
<!-- Node6 -->
<g id="node7" class="node"><title>Node6</title>
<polygon fill="white" stroke="#bfbfbf" points="423.5,-0.5 423.5,-19.5 485.5,-19.5 485.5,-0.5 423.5,-0.5"/>
<text text-anchor="middle" x="454.5" y="-7.5" font-family="Helvetica,sans-Serif" font-size="10.00">algorithm</text>
</g>
<!-- Node4&#45;&gt;Node6 -->
<g id="edge6" class="edge"><title>Node4&#45;&gt;Node6</title>
<path fill="none" stroke="midnightblue" d="M277.775,-56.4435C314.587,-46.9777 373.928,-31.7186 413.56,-21.5273"/>
<polygon fill="midnightblue" stroke="midnightblue" points="414.621,-24.8685 423.434,-18.9883 412.878,-18.0891 414.621,-24.8685"/>
</g>
<!-- Node7 -->
<g id="node8" class="node"><title>Node7</title>
<polygon fill="white" stroke="#bfbfbf" points="71.5,-0.5 71.5,-19.5 135.5,-19.5 135.5,-0.5 71.5,-0.5"/>
<text text-anchor="middle" x="103.5" y="-7.5" font-family="Helvetica,sans-Serif" font-size="10.00">stdexcept</text>
</g>
<!-- Node4&#45;&gt;Node7 -->
<g id="edge7" class="edge"><title>Node4&#45;&gt;Node7</title>
<path fill="none" stroke="midnightblue" d="M222.158,-56.4435C198.747,-47.4776 161.764,-33.314 135.31,-23.1827"/>
<polygon fill="midnightblue" stroke="midnightblue" points="136.328,-19.8245 125.737,-19.5164 133.824,-26.3615 136.328,-19.8245"/>
</g>
<!-- Node8 -->
<g id="node9" class="node"><title>Node8</title>
<polygon fill="white" stroke="#bfbfbf" points="223.5,-0.5 223.5,-19.5 265.5,-19.5 265.5,-0.5 223.5,-0.5"/>
<text text-anchor="middle" x="244.5" y="-7.5" font-family="Helvetica,sans-Serif" font-size="10.00">limits</text>
</g>
<!-- Node4&#45;&gt;Node8 -->
<g id="edge8" class="edge"><title>Node4&#45;&gt;Node8</title>
<path fill="none" stroke="midnightblue" d="M244.5,-56.083C244.5,-49.0059 244.5,-38.8611 244.5,-29.9865"/>
<polygon fill="midnightblue" stroke="midnightblue" points="248,-29.751 244.5,-19.7511 241,-29.7511 248,-29.751"/>
</g>
<!-- Node9 -->
<g id="node10" class="node"><title>Node9</title>
<polygon fill="white" stroke="#bfbfbf" points="0,-0.5 0,-19.5 53,-19.5 53,-0.5 0,-0.5"/>
<text text-anchor="middle" x="26.5" y="-7.5" font-family="Helvetica,sans-Serif" font-size="10.00">istream</text>
</g>
<!-- Node4&#45;&gt;Node9 -->
<g id="edge9" class="edge"><title>Node4&#45;&gt;Node9</title>
<path fill="none" stroke="midnightblue" d="M209.941,-56.4835C175.329,-47.9476 120.268,-34.3517 63.1623,-20.1599"/>
<polygon fill="midnightblue" stroke="midnightblue" points="63.7835,-16.7079 53.2344,-17.6918 62.0946,-23.5011 63.7835,-16.7079"/>
</g>
<!-- Node10 -->
<g id="node11" class="node"><title>Node10</title>
<polygon fill="white" stroke="#bfbfbf" points="349.5,-0.5 349.5,-19.5 405.5,-19.5 405.5,-0.5 349.5,-0.5"/>
<text text-anchor="middle" x="377.5" y="-7.5" font-family="Helvetica,sans-Serif" font-size="10.00">sstream</text>
</g>
<!-- Node4&#45;&gt;Node10 -->
<g id="edge10" class="edge"><title>Node4&#45;&gt;Node10</title>
<path fill="none" stroke="midnightblue" d="M265.574,-56.4435C287.56,-47.5171 322.234,-33.4387 347.164,-23.3168"/>
<polygon fill="midnightblue" stroke="midnightblue" points="348.576,-26.5213 356.524,-19.5164 345.942,-20.0355 348.576,-26.5213"/>
</g>
<!-- Node11 -->
<g id="node12" class="node"><title>Node11</title>
<polygon fill="white" stroke="#bfbfbf" points="284,-0.5 284,-19.5 331,-19.5 331,-0.5 284,-0.5"/>
<text text-anchor="middle" x="307.5" y="-7.5" font-family="Helvetica,sans-Serif" font-size="10.00">cmath</text>
</g>
<!-- Node4&#45;&gt;Node11 -->
<g id="edge11" class="edge"><title>Node4&#45;&gt;Node11</title>
<path fill="none" stroke="midnightblue" d="M254.622,-56.324C264.026,-48.2631 278.244,-36.0765 289.569,-26.3695"/>
<polygon fill="midnightblue" stroke="midnightblue" points="291.879,-28.9993 297.194,-19.8339 287.323,-23.6844 291.879,-28.9993"/>
</g>
<!-- Node12&#45;&gt;Node4 -->
<g id="edge13" class="edge"><title>Node12&#45;&gt;Node4</title>
<path fill="none" stroke="midnightblue" d="M168.96,-112.324C183,-103.9 204.548,-90.9709 221.043,-81.0741"/>
<polygon fill="midnightblue" stroke="midnightblue" points="223.302,-83.8007 230.076,-75.6545 219.7,-77.7983 223.302,-83.8007"/>
</g>
<!-- Node12&#45;&gt;Node7 -->
<g id="edge15" class="edge"><title>Node12&#45;&gt;Node7</title>
<path fill="none" stroke="midnightblue" d="M144.807,-112.342C136.024,-103.935 123.429,-90.3682 116.5,-76 109.471,-61.423 106.241,-43.2471 104.758,-29.8248"/>
<polygon fill="midnightblue" stroke="midnightblue" points="108.244,-29.505 103.878,-19.8514 101.271,-30.1204 108.244,-29.505"/>
</g>
<!-- Node12&#45;&gt;Node9 -->
<g id="edge16" class="edge"><title>Node12&#45;&gt;Node9</title>
<path fill="none" stroke="midnightblue" d="M144.456,-112.368C122.772,-93.7334 71.3377,-49.5324 44.1103,-26.1338"/>
<polygon fill="midnightblue" stroke="midnightblue" points="46.3627,-23.4546 36.4973,-19.5914 41.8003,-28.7636 46.3627,-23.4546"/>
</g>
<!-- Node12&#45;&gt;Node13 -->
<g id="edge14" class="edge"><title>Node12&#45;&gt;Node13</title>
<path fill="none" stroke="midnightblue" d="M182.229,-112.444C213.148,-102.903 263.141,-87.4766 296.165,-77.2863"/>
<polygon fill="midnightblue" stroke="midnightblue" points="297.306,-80.5972 305.829,-74.3042 295.242,-73.9084 297.306,-80.5972"/>
</g>
<!-- Node14 -->
<g id="node15" class="node"><title>Node14</title>
<polygon fill="white" stroke="#bfbfbf" points="126,-56.5 126,-75.5 183,-75.5 183,-56.5 126,-56.5"/>
<text text-anchor="middle" x="154.5" y="-63.5" font-family="Helvetica,sans-Serif" font-size="10.00">ostream</text>
</g>
<!-- Node12&#45;&gt;Node14 -->
<g id="edge17" class="edge"><title>Node12&#45;&gt;Node14</title>
<path fill="none" stroke="midnightblue" d="M154.5,-112.083C154.5,-105.006 154.5,-94.8611 154.5,-85.9865"/>
<polygon fill="midnightblue" stroke="midnightblue" points="158,-85.751 154.5,-75.7511 151,-85.7511 158,-85.751"/>
</g>
<!-- Node21&#45;&gt;Node2 -->
<g id="edge27" class="edge"><title>Node21&#45;&gt;Node2</title>
<path fill="none" stroke="midnightblue" d="M401.361,-168.324C387.634,-159.9 366.564,-146.971 350.436,-137.074"/>
<polygon fill="midnightblue" stroke="midnightblue" points="351.957,-133.902 341.604,-131.655 348.296,-139.868 351.957,-133.902"/>
</g>
<!-- Node21&#45;&gt;Node6 -->
<g id="edge29" class="edge"><title>Node21&#45;&gt;Node6</title>
<path fill="none" stroke="midnightblue" d="M417.597,-168.075C423.736,-141.945 441.764,-65.2106 450.136,-29.577"/>
<polygon fill="midnightblue" stroke="midnightblue" points="453.607,-30.1036 452.487,-19.5681 446.793,-28.5025 453.607,-30.1036"/>
</g>
<!-- Node21&#45;&gt;Node10 -->
<g id="edge28" class="edge"><title>Node21&#45;&gt;Node10</title>
<path fill="none" stroke="midnightblue" d="M413.457,-168.075C407.475,-141.945 389.91,-65.2106 381.753,-29.577"/>
<polygon fill="midnightblue" stroke="midnightblue" points="385.105,-28.5349 379.461,-19.5681 378.281,-30.097 385.105,-28.5349"/>
</g>
<!-- Node21&#45;&gt;Node13 -->
<g id="edge30" class="edge"><title>Node21&#45;&gt;Node13</title>
<path fill="none" stroke="midnightblue" d="M408.752,-168.368C394.496,-150.135 361.106,-107.426 342.537,-83.6752"/>
<polygon fill="midnightblue" stroke="midnightblue" points="345.134,-81.3138 336.217,-75.5914 339.619,-85.6253 345.134,-81.3138"/>
</g>
</g>
</svg>
