<?xml version="1.0" encoding="UTF-8" standalone="no"?>
<!DOCTYPE svg PUBLIC "-//W3C//DTD SVG 1.1//EN"
 "http://www.w3.org/Graphics/SVG/1.1/DTD/svg11.dtd">
<!-- Generated by graphviz version 2.38.0 (20140413.2041)
 -->
<!-- Title: src/analysis/physics/tunings/TrueRecCheck_ClusterE.h Pages: 1 -->
<svg width="131pt" height="128pt"
 viewBox="0.00 0.00 131.00 128.00" xmlns="http://www.w3.org/2000/svg" xmlns:xlink="http://www.w3.org/1999/xlink">
<g id="graph0" class="graph" transform="scale(1 1) rotate(0) translate(4 124)">
<title>src/analysis/physics/tunings/TrueRecCheck_ClusterE.h</title>
<polygon fill="white" stroke="none" points="-4,4 -4,-124 127,-124 127,4 -4,4"/>
<!-- Node71 -->
<g id="node1" class="node"><title>Node71</title>
<polygon fill="#bfbfbf" stroke="black" points="0,-78.5 0,-119.5 123,-119.5 123,-78.5 0,-78.5"/>
<text text-anchor="start" x="8" y="-107.5" font-family="Helvetica,sans-Serif" font-size="10.00">src/analysis/physics</text>
<text text-anchor="start" x="8" y="-96.5" font-family="Helvetica,sans-Serif" font-size="10.00">/tunings/TrueRecCheck</text>
<text text-anchor="middle" x="61.5" y="-85.5" font-family="Helvetica,sans-Serif" font-size="10.00">_ClusterE.h</text>
</g>
<!-- Node72 -->
<g id="node2" class="node"><title>Node72</title>
<g id="a_node2"><a xlink:href="_true_rec_check___cluster_e_8cc.html" target="_top" xlink:title="src/analysis/physics\l/tunings/TrueRecCheck\l_ClusterE.cc">
<polygon fill="white" stroke="black" points="0,-0.5 0,-41.5 123,-41.5 123,-0.5 0,-0.5"/>
<text text-anchor="start" x="8" y="-29.5" font-family="Helvetica,sans-Serif" font-size="10.00">src/analysis/physics</text>
<text text-anchor="start" x="8" y="-18.5" font-family="Helvetica,sans-Serif" font-size="10.00">/tunings/TrueRecCheck</text>
<text text-anchor="middle" x="61.5" y="-7.5" font-family="Helvetica,sans-Serif" font-size="10.00">_ClusterE.cc</text>
</a>
</g>
</g>
<!-- Node71&#45;&gt;Node72 -->
<g id="edge1" class="edge"><title>Node71&#45;&gt;Node72</title>
<path fill="none" stroke="midnightblue" d="M61.5,-68.2965C61.5,-59.3009 61.5,-49.6532 61.5,-41.5056"/>
<polygon fill="midnightblue" stroke="midnightblue" points="58.0001,-68.4281 61.5,-78.4281 65.0001,-68.4281 58.0001,-68.4281"/>
</g>
</g>
</svg>
