<?xml version="1.0" encoding="UTF-8" standalone="no"?>
<!DOCTYPE svg PUBLIC "-//W3C//DTD SVG 1.1//EN"
 "http://www.w3.org/Graphics/SVG/1.1/DTD/svg11.dtd">
<!-- Generated by graphviz version 2.38.0 (20140413.2041)
 -->
<!-- Title: src/root&#45;addons/analysis_codes/TwoPi0_MCSmearing_tools.h Pages: 1 -->
<svg width="442pt" height="128pt"
 viewBox="0.00 0.00 441.50 128.00" xmlns="http://www.w3.org/2000/svg" xmlns:xlink="http://www.w3.org/1999/xlink">
<g id="graph0" class="graph" transform="scale(1 1) rotate(0) translate(4 124)">
<title>src/root&#45;addons/analysis_codes/TwoPi0_MCSmearing_tools.h</title>
<polygon fill="white" stroke="none" points="-4,4 -4,-124 437.5,-124 437.5,4 -4,4"/>
<!-- Node4 -->
<g id="node1" class="node"><title>Node4</title>
<polygon fill="#bfbfbf" stroke="black" points="118.5,-78.5 118.5,-119.5 269.5,-119.5 269.5,-78.5 118.5,-78.5"/>
<text text-anchor="start" x="126.5" y="-107.5" font-family="Helvetica,sans-Serif" font-size="10.00">src/root&#45;addons/analysis</text>
<text text-anchor="start" x="126.5" y="-96.5" font-family="Helvetica,sans-Serif" font-size="10.00">_codes/TwoPi0_MCSmearing</text>
<text text-anchor="middle" x="194" y="-85.5" font-family="Helvetica,sans-Serif" font-size="10.00">_tools.h</text>
</g>
<!-- Node5 -->
<g id="node2" class="node"><title>Node5</title>
<g id="a_node2"><a xlink:href="_ant-_e_corr_8cc.html" target="_top" xlink:title="progs/Ant&#45;ECorr.cc">
<polygon fill="white" stroke="black" points="0,-11.5 0,-30.5 106,-30.5 106,-11.5 0,-11.5"/>
<text text-anchor="middle" x="53" y="-18.5" font-family="Helvetica,sans-Serif" font-size="10.00">progs/Ant&#45;ECorr.cc</text>
</a>
</g>
</g>
<!-- Node4&#45;&gt;Node5 -->
<g id="edge1" class="edge"><title>Node4&#45;&gt;Node5</title>
<path fill="none" stroke="midnightblue" d="M148.657,-73.56C121.283,-58.8048 88.0835,-40.9103 68.8663,-30.552"/>
<polygon fill="midnightblue" stroke="midnightblue" points="147.226,-76.7643 157.689,-78.4281 150.547,-70.6024 147.226,-76.7643"/>
</g>
<!-- Node6 -->
<g id="node3" class="node"><title>Node6</title>
<g id="a_node3"><a xlink:href="_ant-mcsmearing_8cc.html" target="_top" xlink:title="progs/Ant&#45;mcsmearing.cc">
<polygon fill="white" stroke="black" points="124,-11.5 124,-30.5 264,-30.5 264,-11.5 124,-11.5"/>
<text text-anchor="middle" x="194" y="-18.5" font-family="Helvetica,sans-Serif" font-size="10.00">progs/Ant&#45;mcsmearing.cc</text>
</a>
</g>
</g>
<!-- Node4&#45;&gt;Node6 -->
<g id="edge2" class="edge"><title>Node4&#45;&gt;Node6</title>
<path fill="none" stroke="midnightblue" d="M194,-68.0508C194,-54.5595 194,-39.6493 194,-30.552"/>
<polygon fill="midnightblue" stroke="midnightblue" points="190.5,-68.4281 194,-78.4281 197.5,-68.4281 190.5,-68.4281"/>
</g>
<!-- Node7 -->
<g id="node4" class="node"><title>Node7</title>
<g id="a_node4"><a xlink:href="_two_pi0___m_c_smearing__tools_8cc.html" target="_top" xlink:title="src/root&#45;addons/analysis\l_codes/TwoPi0_MCSmearing\l_tools.cc">
<polygon fill="white" stroke="black" points="282.5,-0.5 282.5,-41.5 433.5,-41.5 433.5,-0.5 282.5,-0.5"/>
<text text-anchor="start" x="290.5" y="-29.5" font-family="Helvetica,sans-Serif" font-size="10.00">src/root&#45;addons/analysis</text>
<text text-anchor="start" x="290.5" y="-18.5" font-family="Helvetica,sans-Serif" font-size="10.00">_codes/TwoPi0_MCSmearing</text>
<text text-anchor="middle" x="358" y="-7.5" font-family="Helvetica,sans-Serif" font-size="10.00">_tools.cc</text>
</a>
</g>
</g>
<!-- Node4&#45;&gt;Node7 -->
<g id="edge3" class="edge"><title>Node4&#45;&gt;Node7</title>
<path fill="none" stroke="midnightblue" d="M245.382,-74.189C268.07,-63.6749 294.41,-51.4687 315.909,-41.5056"/>
<polygon fill="midnightblue" stroke="midnightblue" points="243.836,-71.0479 236.234,-78.4281 246.779,-77.399 243.836,-71.0479"/>
</g>
</g>
</svg>
