<?xml version="1.0" encoding="UTF-8" standalone="no"?>
<!DOCTYPE svg PUBLIC "-//W3C//DTD SVG 1.1//EN"
 "http://www.w3.org/Graphics/SVG/1.1/DTD/svg11.dtd">
<!-- Generated by graphviz version 2.38.0 (20140413.2041)
 -->
<!-- Title: src/root&#45;addons/analysis_codes/TwoPi0_MCSmearing_tools.h Pages: 1 -->
<svg width="184pt" height="106pt"
 viewBox="0.00 0.00 183.50 106.00" xmlns="http://www.w3.org/2000/svg" xmlns:xlink="http://www.w3.org/1999/xlink">
<g id="graph0" class="graph" transform="scale(1 1) rotate(0) translate(4 102)">
<title>src/root&#45;addons/analysis_codes/TwoPi0_MCSmearing_tools.h</title>
<polygon fill="white" stroke="none" points="-4,4 -4,-102 179.5,-102 179.5,4 -4,4"/>
<!-- Node0 -->
<g id="node1" class="node"><title>Node0</title>
<polygon fill="#bfbfbf" stroke="black" points="1.5,-56.5 1.5,-97.5 152.5,-97.5 152.5,-56.5 1.5,-56.5"/>
<text text-anchor="start" x="9.5" y="-85.5" font-family="Helvetica,sans-Serif" font-size="10.00">src/root&#45;addons/analysis</text>
<text text-anchor="start" x="9.5" y="-74.5" font-family="Helvetica,sans-Serif" font-size="10.00">_codes/TwoPi0_MCSmearing</text>
<text text-anchor="middle" x="77" y="-63.5" font-family="Helvetica,sans-Serif" font-size="10.00">_tools.h</text>
</g>
<!-- Node1 -->
<g id="node2" class="node"><title>Node1</title>
<polygon fill="white" stroke="#bfbfbf" points="0,-0.5 0,-19.5 44,-19.5 44,-0.5 0,-0.5"/>
<text text-anchor="middle" x="22" y="-7.5" font-family="Helvetica,sans-Serif" font-size="10.00">string</text>
</g>
<!-- Node0&#45;&gt;Node1 -->
<g id="edge1" class="edge"><title>Node0&#45;&gt;Node1</title>
<path fill="none" stroke="midnightblue" d="M60.4982,-56.4979C52.6332,-47.2029 43.3313,-36.2097 35.8413,-27.3579"/>
<polygon fill="midnightblue" stroke="midnightblue" points="38.4527,-25.0256 29.3213,-19.6525 33.1089,-29.5472 38.4527,-25.0256"/>
</g>
<!-- Node2 -->
<g id="node3" class="node"><title>Node2</title>
<polygon fill="white" stroke="#bfbfbf" points="62,-0.5 62,-19.5 92,-19.5 92,-0.5 62,-0.5"/>
<text text-anchor="middle" x="77" y="-7.5" font-family="Helvetica,sans-Serif" font-size="10.00">list</text>
</g>
<!-- Node0&#45;&gt;Node2 -->
<g id="edge2" class="edge"><title>Node0&#45;&gt;Node2</title>
<path fill="none" stroke="midnightblue" d="M77,-56.4979C77,-48.0653 77,-38.2351 77,-29.874"/>
<polygon fill="midnightblue" stroke="midnightblue" points="80.5001,-29.6525 77,-19.6525 73.5001,-29.6525 80.5001,-29.6525"/>
</g>
<!-- Node3 -->
<g id="node4" class="node"><title>Node3</title>
<polygon fill="white" stroke="#bfbfbf" points="110.5,-0.5 110.5,-19.5 175.5,-19.5 175.5,-0.5 110.5,-0.5"/>
<text text-anchor="middle" x="143" y="-7.5" font-family="Helvetica,sans-Serif" font-size="10.00">TCanvas.h</text>
</g>
<!-- Node0&#45;&gt;Node3 -->
<g id="edge3" class="edge"><title>Node0&#45;&gt;Node3</title>
<path fill="none" stroke="midnightblue" d="M96.8022,-56.4979C106.435,-47.0113 117.863,-35.7557 126.944,-26.8131"/>
<polygon fill="midnightblue" stroke="midnightblue" points="129.545,-29.1631 134.214,-19.6525 124.634,-24.1757 129.545,-29.1631"/>
</g>
</g>
</svg>
