<?xml version="1.0" encoding="UTF-8" standalone="no"?>
<!DOCTYPE svg PUBLIC "-//W3C//DTD SVG 1.1//EN"
 "http://www.w3.org/Graphics/SVG/1.1/DTD/svg11.dtd">
<!-- Generated by graphviz version 2.38.0 (20140413.2041)
 -->
<!-- Title: src/reconstruct/UpdateableManager.h Pages: 1 -->
<svg width="1438pt" height="341pt"
 viewBox="0.00 0.00 1437.50 341.00" xmlns="http://www.w3.org/2000/svg" xmlns:xlink="http://www.w3.org/1999/xlink">
<g id="graph0" class="graph" transform="scale(1 1) rotate(0) translate(4 337)">
<title>src/reconstruct/UpdateableManager.h</title>
<polygon fill="white" stroke="none" points="-4,4 -4,-337 1433.5,-337 1433.5,4 -4,4"/>
<!-- Node0 -->
<g id="node1" class="node"><title>Node0</title>
<polygon fill="#bfbfbf" stroke="black" points="171.5,-302.5 171.5,-332.5 318.5,-332.5 318.5,-302.5 171.5,-302.5"/>
<text text-anchor="start" x="179.5" y="-320.5" font-family="Helvetica,sans-Serif" font-size="10.00">src/reconstruct/Updateable</text>
<text text-anchor="middle" x="245" y="-309.5" font-family="Helvetica,sans-Serif" font-size="10.00">Manager.h</text>
</g>
<!-- Node1 -->
<g id="node2" class="node"><title>Node1</title>
<g id="a_node2"><a xlink:href="_t_i_d_8h.html" target="_top" xlink:title="tree/TID.h">
<polygon fill="white" stroke="black" points="1003.5,-246.5 1003.5,-265.5 1066.5,-265.5 1066.5,-246.5 1003.5,-246.5"/>
<text text-anchor="middle" x="1035" y="-253.5" font-family="Helvetica,sans-Serif" font-size="10.00">tree/TID.h</text>
</a>
</g>
</g>
<!-- Node0&#45;&gt;Node1 -->
<g id="edge1" class="edge"><title>Node0&#45;&gt;Node1</title>
<path fill="none" stroke="midnightblue" d="M318.612,-310.956C481.052,-298.721 865.875,-269.738 993.25,-260.144"/>
<polygon fill="midnightblue" stroke="midnightblue" points="993.662,-263.623 1003.37,-259.382 993.137,-256.643 993.662,-263.623"/>
</g>
<!-- Node15 -->
<g id="node16" class="node"><title>Node15</title>
<polygon fill="white" stroke="#bfbfbf" points="0,-56.5 0,-75.5 30,-75.5 30,-56.5 0,-56.5"/>
<text text-anchor="middle" x="15" y="-63.5" font-family="Helvetica,sans-Serif" font-size="10.00">list</text>
</g>
<!-- Node0&#45;&gt;Node15 -->
<g id="edge53" class="edge"><title>Node0&#45;&gt;Node15</title>
<path fill="none" stroke="midnightblue" d="M175.386,-302.429C149.535,-294.753 121.142,-283.183 99,-266 40.0922,-220.284 22.0174,-125.53 16.8828,-85.4955"/>
<polygon fill="midnightblue" stroke="midnightblue" points="20.3572,-85.0722 15.7339,-75.5394 13.4034,-85.8747 20.3572,-85.0722"/>
</g>
<!-- Node17 -->
<g id="node18" class="node"><title>Node17</title>
<g id="a_node18"><a xlink:href="_reconstruct__traits_8h.html" target="_top" xlink:title="Reconstruct_traits.h">
<polygon fill="white" stroke="black" points="189,-246.5 189,-265.5 301,-265.5 301,-246.5 189,-246.5"/>
<text text-anchor="middle" x="245" y="-253.5" font-family="Helvetica,sans-Serif" font-size="10.00">Reconstruct_traits.h</text>
</a>
</g>
</g>
<!-- Node0&#45;&gt;Node17 -->
<g id="edge18" class="edge"><title>Node0&#45;&gt;Node17</title>
<path fill="none" stroke="midnightblue" d="M245,-302.399C245,-294.466 245,-284.458 245,-275.858"/>
<polygon fill="midnightblue" stroke="midnightblue" points="248.5,-275.658 245,-265.658 241.5,-275.658 248.5,-275.658"/>
</g>
<!-- Node29 -->
<g id="node30" class="node"><title>Node29</title>
<polygon fill="white" stroke="#bfbfbf" points="136.5,-56.5 136.5,-75.5 193.5,-75.5 193.5,-56.5 136.5,-56.5"/>
<text text-anchor="middle" x="165" y="-63.5" font-family="Helvetica,sans-Serif" font-size="10.00">memory</text>
</g>
<!-- Node0&#45;&gt;Node29 -->
<g id="edge54" class="edge"><title>Node0&#45;&gt;Node29</title>
<path fill="none" stroke="midnightblue" d="M198.714,-302.432C157.207,-287.073 98.8354,-258.033 72,-210 64.3356,-196.282 60.5054,-133.021 74,-112 85.7565,-93.6864 107.342,-82.5703 126.541,-75.9691"/>
<polygon fill="midnightblue" stroke="midnightblue" points="127.8,-79.2423 136.298,-72.9144 125.709,-72.562 127.8,-79.2423"/>
</g>
<!-- Node33 -->
<g id="node34" class="node"><title>Node33</title>
<polygon fill="white" stroke="#bfbfbf" points="1084.5,-246.5 1084.5,-265.5 1131.5,-265.5 1131.5,-246.5 1084.5,-246.5"/>
<text text-anchor="middle" x="1108" y="-253.5" font-family="Helvetica,sans-Serif" font-size="10.00">queue</text>
</g>
<!-- Node0&#45;&gt;Node33 -->
<g id="edge52" class="edge"><title>Node0&#45;&gt;Node33</title>
<path fill="none" stroke="midnightblue" d="M318.564,-317.071C462.365,-317.091 790.68,-311.747 1074.27,-265.733"/>
<polygon fill="midnightblue" stroke="midnightblue" points="1075.04,-269.154 1084.34,-264.079 1073.9,-262.247 1075.04,-269.154"/>
</g>
<!-- Node2 -->
<g id="node3" class="node"><title>Node2</title>
<polygon fill="white" stroke="#bfbfbf" points="949,-185 949,-204 1007,-204 1007,-185 949,-185"/>
<text text-anchor="middle" x="978" y="-192" font-family="Helvetica,sans-Serif" font-size="10.00">Rtypes.h</text>
</g>
<!-- Node1&#45;&gt;Node2 -->
<g id="edge2" class="edge"><title>Node1&#45;&gt;Node2</title>
<path fill="none" stroke="midnightblue" d="M1026.83,-246.475C1018.11,-237.373 1004.1,-222.741 993.311,-211.483"/>
<polygon fill="midnightblue" stroke="midnightblue" points="995.597,-208.809 986.152,-204.009 990.542,-213.651 995.597,-208.809"/>
</g>
<!-- Node3 -->
<g id="node4" class="node"><title>Node3</title>
<g id="a_node4"><a xlink:href="base_2std__ext_2_time_8h.html" target="_top" xlink:title="base/std_ext/time.h">
<polygon fill="white" stroke="black" points="1147,-185 1147,-204 1259,-204 1259,-185 1147,-185"/>
<text text-anchor="middle" x="1203" y="-192" font-family="Helvetica,sans-Serif" font-size="10.00">base/std_ext/time.h</text>
</a>
</g>
</g>
<!-- Node1&#45;&gt;Node3 -->
<g id="edge3" class="edge"><title>Node1&#45;&gt;Node3</title>
<path fill="none" stroke="midnightblue" d="M1059.07,-246.475C1088.01,-236.225 1136.76,-218.959 1169.4,-207.399"/>
<polygon fill="midnightblue" stroke="midnightblue" points="1170.72,-210.647 1178.97,-204.009 1168.38,-204.048 1170.72,-210.647"/>
</g>
<!-- Node10 -->
<g id="node11" class="node"><title>Node10</title>
<polygon fill="white" stroke="#bfbfbf" points="1355,-118 1355,-137 1399,-137 1399,-118 1355,-118"/>
<text text-anchor="middle" x="1377" y="-125" font-family="Helvetica,sans-Serif" font-size="10.00">ctime</text>
</g>
<!-- Node1&#45;&gt;Node10 -->
<g id="edge17" class="edge"><title>Node1&#45;&gt;Node10</title>
<path fill="none" stroke="midnightblue" d="M1066.85,-247.722C1069.61,-247.126 1072.35,-246.545 1075,-246 1160.47,-228.42 1188.61,-246.217 1268,-210 1288.14,-200.81 1289.35,-192.37 1307,-179 1323.36,-166.604 1342.26,-153.014 1356.29,-143.057"/>
<polygon fill="midnightblue" stroke="midnightblue" points="1358.59,-145.719 1364.73,-137.088 1354.55,-140.003 1358.59,-145.719"/>
</g>
<!-- Node11 -->
<g id="node12" class="node"><title>Node11</title>
<polygon fill="white" stroke="#bfbfbf" points="494,-118 494,-137 562,-137 562,-118 494,-118"/>
<text text-anchor="middle" x="528" y="-125" font-family="Helvetica,sans-Serif" font-size="10.00">type_traits</text>
</g>
<!-- Node1&#45;&gt;Node11 -->
<g id="edge11" class="edge"><title>Node1&#45;&gt;Node11</title>
<path fill="none" stroke="midnightblue" d="M1003.07,-253.377C944.828,-249.788 817.848,-239.058 715,-210 654.566,-192.925 588.13,-160.4 553.004,-142.022"/>
<polygon fill="midnightblue" stroke="midnightblue" points="554.435,-138.82 543.958,-137.239 551.162,-145.008 554.435,-138.82"/>
</g>
<!-- Node12 -->
<g id="node13" class="node"><title>Node12</title>
<polygon fill="white" stroke="#bfbfbf" points="1315.5,-185 1315.5,-204 1356.5,-204 1356.5,-185 1315.5,-185"/>
<text text-anchor="middle" x="1336" y="-192" font-family="Helvetica,sans-Serif" font-size="10.00">tuple</text>
</g>
<!-- Node1&#45;&gt;Node12 -->
<g id="edge12" class="edge"><title>Node1&#45;&gt;Node12</title>
<path fill="none" stroke="midnightblue" d="M1066.84,-247.645C1069.59,-247.067 1072.34,-246.51 1075,-246 1174.89,-226.827 1203.12,-237.655 1301,-210 1303.44,-209.311 1305.93,-208.502 1308.41,-207.624"/>
<polygon fill="midnightblue" stroke="midnightblue" points="1309.7,-210.88 1317.76,-204.005 1307.17,-204.352 1309.7,-210.88"/>
</g>
<!-- Node13 -->
<g id="node14" class="node"><title>Node13</title>
<polygon fill="white" stroke="#bfbfbf" points="1002.5,-118 1002.5,-137 1051.5,-137 1051.5,-118 1002.5,-118"/>
<text text-anchor="middle" x="1027" y="-125" font-family="Helvetica,sans-Serif" font-size="10.00">cstdint</text>
</g>
<!-- Node1&#45;&gt;Node13 -->
<g id="edge13" class="edge"><title>Node1&#45;&gt;Node13</title>
<path fill="none" stroke="midnightblue" d="M1034.45,-246.305C1033.17,-225.994 1029.94,-175.053 1028.19,-147.277"/>
<polygon fill="midnightblue" stroke="midnightblue" points="1031.68,-147.015 1027.55,-137.256 1024.69,-147.457 1031.68,-147.015"/>
</g>
<!-- Node14 -->
<g id="node15" class="node"><title>Node14</title>
<polygon fill="white" stroke="#bfbfbf" points="1070,-118 1070,-137 1134,-137 1134,-118 1070,-118"/>
<text text-anchor="middle" x="1102" y="-125" font-family="Helvetica,sans-Serif" font-size="10.00">stdexcept</text>
</g>
<!-- Node1&#45;&gt;Node14 -->
<g id="edge14" class="edge"><title>Node1&#45;&gt;Node14</title>
<path fill="none" stroke="midnightblue" d="M1039.61,-246.305C1050.51,-225.723 1078.07,-173.689 1092.64,-146.178"/>
<polygon fill="midnightblue" stroke="midnightblue" points="1095.78,-147.731 1097.36,-137.256 1089.59,-144.455 1095.78,-147.731"/>
</g>
<!-- Node1&#45;&gt;Node15 -->
<g id="edge15" class="edge"><title>Node1&#45;&gt;Node15</title>
<path fill="none" stroke="midnightblue" d="M1003.4,-254.462C877.119,-252.112 408.62,-241.415 264,-210 183.425,-192.498 160.085,-188.01 91,-143 65.7043,-126.519 42.0253,-100.513 28.0237,-83.6046"/>
<polygon fill="midnightblue" stroke="midnightblue" points="30.635,-81.2674 21.6266,-75.6907 25.1911,-85.6679 30.635,-81.2674"/>
</g>
<!-- Node16 -->
<g id="node17" class="node"><title>Node16</title>
<polygon fill="white" stroke="#bfbfbf" points="1374.5,-185 1374.5,-204 1429.5,-204 1429.5,-185 1374.5,-185"/>
<text text-anchor="middle" x="1402" y="-192" font-family="Helvetica,sans-Serif" font-size="10.00">iomanip</text>
</g>
<!-- Node1&#45;&gt;Node16 -->
<g id="edge16" class="edge"><title>Node1&#45;&gt;Node16</title>
<path fill="none" stroke="midnightblue" d="M1066.82,-247.544C1069.58,-246.988 1072.34,-246.463 1075,-246 1203.39,-223.67 1239.83,-242.619 1366,-210 1368.51,-209.351 1371.08,-208.569 1373.64,-207.709"/>
<polygon fill="midnightblue" stroke="midnightblue" points="1375.11,-210.895 1383.25,-204.12 1372.66,-204.337 1375.11,-210.895"/>
</g>
<!-- Node4 -->
<g id="node5" class="node"><title>Node4</title>
<g id="a_node5"><a xlink:href="string_8h.html" target="_top" xlink:title="base/std_ext/string.h">
<polygon fill="white" stroke="black" points="1152.5,-118 1152.5,-137 1269.5,-137 1269.5,-118 1152.5,-118"/>
<text text-anchor="middle" x="1211" y="-125" font-family="Helvetica,sans-Serif" font-size="10.00">base/std_ext/string.h</text>
</a>
</g>
</g>
<!-- Node3&#45;&gt;Node4 -->
<g id="edge4" class="edge"><title>Node3&#45;&gt;Node4</title>
<path fill="none" stroke="midnightblue" d="M1204.08,-184.734C1205.25,-175.183 1207.17,-159.618 1208.69,-147.283"/>
<polygon fill="midnightblue" stroke="midnightblue" points="1212.19,-147.48 1209.94,-137.127 1205.24,-146.625 1212.19,-147.48"/>
</g>
<!-- Node9 -->
<g id="node10" class="node"><title>Node9</title>
<polygon fill="white" stroke="#bfbfbf" points="1287.5,-118 1287.5,-137 1336.5,-137 1336.5,-118 1287.5,-118"/>
<text text-anchor="middle" x="1312" y="-125" font-family="Helvetica,sans-Serif" font-size="10.00">cstring</text>
</g>
<!-- Node3&#45;&gt;Node9 -->
<g id="edge9" class="edge"><title>Node3&#45;&gt;Node9</title>
<path fill="none" stroke="midnightblue" d="M1217.7,-184.734C1235.92,-173.867 1267.2,-155.216 1288.7,-142.393"/>
<polygon fill="midnightblue" stroke="midnightblue" points="1290.74,-145.255 1297.53,-137.127 1287.15,-139.243 1290.74,-145.255"/>
</g>
<!-- Node3&#45;&gt;Node10 -->
<g id="edge10" class="edge"><title>Node3&#45;&gt;Node10</title>
<path fill="none" stroke="midnightblue" d="M1229.65,-184.959C1258.59,-175.481 1306.04,-159.356 1346,-143 1347.37,-142.437 1348.78,-141.846 1350.19,-141.238"/>
<polygon fill="midnightblue" stroke="midnightblue" points="1351.74,-144.376 1359.43,-137.084 1348.87,-137.992 1351.74,-144.376"/>
</g>
<!-- Node5 -->
<g id="node6" class="node"><title>Node5</title>
<polygon fill="white" stroke="#bfbfbf" points="1095,-56.5 1095,-75.5 1139,-75.5 1139,-56.5 1095,-56.5"/>
<text text-anchor="middle" x="1117" y="-63.5" font-family="Helvetica,sans-Serif" font-size="10.00">string</text>
</g>
<!-- Node4&#45;&gt;Node5 -->
<g id="edge5" class="edge"><title>Node4&#45;&gt;Node5</title>
<path fill="none" stroke="midnightblue" d="M1197.53,-117.975C1182.32,-108.343 1157.31,-92.5175 1139.2,-81.0517"/>
<polygon fill="midnightblue" stroke="midnightblue" points="1140.76,-77.9002 1130.44,-75.5091 1137.02,-83.8149 1140.76,-77.9002"/>
</g>
<!-- Node6 -->
<g id="node7" class="node"><title>Node6</title>
<polygon fill="white" stroke="#bfbfbf" points="1183,-56.5 1183,-75.5 1239,-75.5 1239,-56.5 1183,-56.5"/>
<text text-anchor="middle" x="1211" y="-63.5" font-family="Helvetica,sans-Serif" font-size="10.00">sstream</text>
</g>
<!-- Node4&#45;&gt;Node6 -->
<g id="edge6" class="edge"><title>Node4&#45;&gt;Node6</title>
<path fill="none" stroke="midnightblue" d="M1211,-117.975C1211,-109.58 1211,-96.4806 1211,-85.6631"/>
<polygon fill="midnightblue" stroke="midnightblue" points="1214.5,-85.5091 1211,-75.5091 1207.5,-85.5091 1214.5,-85.5091"/>
</g>
<!-- Node7 -->
<g id="node8" class="node"><title>Node7</title>
<polygon fill="white" stroke="#bfbfbf" points="771,-56.5 771,-75.5 833,-75.5 833,-56.5 771,-56.5"/>
<text text-anchor="middle" x="802" y="-63.5" font-family="Helvetica,sans-Serif" font-size="10.00">algorithm</text>
</g>
<!-- Node4&#45;&gt;Node7 -->
<g id="edge7" class="edge"><title>Node4&#45;&gt;Node7</title>
<path fill="none" stroke="midnightblue" d="M1173.69,-117.991C1163.75,-115.875 1152.99,-113.722 1143,-112 1035.41,-93.4604 907.58,-78.4505 843.288,-71.3841"/>
<polygon fill="midnightblue" stroke="midnightblue" points="843.476,-67.884 833.155,-70.2786 842.717,-74.8427 843.476,-67.884"/>
</g>
<!-- Node8 -->
<g id="node9" class="node"><title>Node8</title>
<polygon fill="white" stroke="#bfbfbf" points="645.5,-56.5 645.5,-75.5 692.5,-75.5 692.5,-56.5 645.5,-56.5"/>
<text text-anchor="middle" x="669" y="-63.5" font-family="Helvetica,sans-Serif" font-size="10.00">vector</text>
</g>
<!-- Node4&#45;&gt;Node8 -->
<g id="edge8" class="edge"><title>Node4&#45;&gt;Node8</title>
<path fill="none" stroke="midnightblue" d="M1175.16,-117.956C1164.83,-115.739 1153.51,-113.543 1143,-112 951.664,-83.9096 897.478,-109.149 702.663,-75.7609"/>
<polygon fill="midnightblue" stroke="midnightblue" points="703.127,-72.2892 692.674,-74.0193 701.925,-79.1851 703.127,-72.2892"/>
</g>
<!-- Node17&#45;&gt;Node15 -->
<g id="edge50" class="edge"><title>Node17&#45;&gt;Node15</title>
<path fill="none" stroke="midnightblue" d="M188.637,-249.733C152.839,-244.222 106.854,-232.967 72,-210 40.5248,-189.26 33.3792,-178.24 20,-143 12.9753,-124.498 12.4556,-101.652 13.2356,-85.8658"/>
<polygon fill="midnightblue" stroke="midnightblue" points="16.7344,-86.0069 13.959,-75.7821 9.75237,-85.506 16.7344,-86.0069"/>
</g>
<!-- Node18 -->
<g id="node19" class="node"><title>Node18</title>
<g id="a_node19"><a xlink:href="_detector__t_8h.html" target="_top" xlink:title="base/Detector_t.h">
<polygon fill="white" stroke="black" points="724.5,-185 724.5,-204 827.5,-204 827.5,-185 724.5,-185"/>
<text text-anchor="middle" x="776" y="-192" font-family="Helvetica,sans-Serif" font-size="10.00">base/Detector_t.h</text>
</a>
</g>
</g>
<!-- Node17&#45;&gt;Node18 -->
<g id="edge19" class="edge"><title>Node17&#45;&gt;Node18</title>
<path fill="none" stroke="midnightblue" d="M301.073,-248.717C401.178,-237.5 609.896,-214.112 714.073,-202.439"/>
<polygon fill="midnightblue" stroke="midnightblue" points="714.576,-205.905 724.124,-201.313 713.797,-198.948 714.576,-205.905"/>
</g>
<!-- Node27 -->
<g id="node28" class="node"><title>Node27</title>
<g id="a_node28"><a xlink:href="mapped__vectors_8h.html" target="_top" xlink:title="base/std_ext/mapped\l_vectors.h">
<polygon fill="white" stroke="black" points="273.5,-179.5 273.5,-209.5 394.5,-209.5 394.5,-179.5 273.5,-179.5"/>
<text text-anchor="start" x="281.5" y="-197.5" font-family="Helvetica,sans-Serif" font-size="10.00">base/std_ext/mapped</text>
<text text-anchor="middle" x="334" y="-186.5" font-family="Helvetica,sans-Serif" font-size="10.00">_vectors.h</text>
</a>
</g>
</g>
<!-- Node17&#45;&gt;Node27 -->
<g id="edge36" class="edge"><title>Node17&#45;&gt;Node27</title>
<path fill="none" stroke="midnightblue" d="M257.752,-246.475C269.918,-238.341 288.691,-225.791 304.565,-215.179"/>
<polygon fill="midnightblue" stroke="midnightblue" points="306.656,-217.99 313.024,-209.523 302.766,-212.171 306.656,-217.99"/>
</g>
<!-- Node17&#45;&gt;Node29 -->
<g id="edge48" class="edge"><title>Node17&#45;&gt;Node29</title>
<path fill="none" stroke="midnightblue" d="M192.099,-246.46C152.568,-238.872 103.321,-226.437 91,-210 64.8754,-175.149 69.6529,-149.966 91,-112 99.2215,-97.3782 114.331,-86.9543 128.763,-79.8465"/>
<polygon fill="midnightblue" stroke="midnightblue" points="130.397,-82.9491 138.071,-75.6437 127.516,-76.5693 130.397,-82.9491"/>
</g>
<!-- Node30 -->
<g id="node31" class="node"><title>Node30</title>
<g id="a_node31"><a xlink:href="shared__ptr__container_8h.html" target="_top" xlink:title="base/std_ext/shared\l_ptr_container.h">
<polygon fill="white" stroke="black" points="362,-112.5 362,-142.5 476,-142.5 476,-112.5 362,-112.5"/>
<text text-anchor="start" x="370" y="-130.5" font-family="Helvetica,sans-Serif" font-size="10.00">base/std_ext/shared</text>
<text text-anchor="middle" x="419" y="-119.5" font-family="Helvetica,sans-Serif" font-size="10.00">_ptr_container.h</text>
</a>
</g>
</g>
<!-- Node17&#45;&gt;Node30 -->
<g id="edge43" class="edge"><title>Node17&#45;&gt;Node30</title>
<path fill="none" stroke="midnightblue" d="M301.206,-253.201C335.365,-249.059 377.225,-238.026 403,-210 417.131,-194.635 420.397,-170.583 420.566,-152.584"/>
<polygon fill="midnightblue" stroke="midnightblue" points="424.065,-152.469 420.355,-142.545 417.066,-152.616 424.065,-152.469"/>
</g>
<!-- Node31 -->
<g id="node32" class="node"><title>Node31</title>
<polygon fill="white" stroke="#bfbfbf" points="325.5,-56.5 325.5,-75.5 388.5,-75.5 388.5,-56.5 325.5,-56.5"/>
<text text-anchor="middle" x="357" y="-63.5" font-family="Helvetica,sans-Serif" font-size="10.00">functional</text>
</g>
<!-- Node17&#45;&gt;Node31 -->
<g id="edge51" class="edge"><title>Node17&#45;&gt;Node31</title>
<path fill="none" stroke="midnightblue" d="M245.92,-246.122C247.717,-231.46 252.566,-201.566 264,-179 283.665,-140.189 318.936,-102.929 339.933,-82.6848"/>
<polygon fill="midnightblue" stroke="midnightblue" points="342.608,-84.9721 347.47,-75.5585 337.799,-79.8858 342.608,-84.9721"/>
</g>
<!-- Node32 -->
<g id="node33" class="node"><title>Node32</title>
<polygon fill="white" stroke="#bfbfbf" points="100,-185 100,-204 138,-204 138,-185 100,-185"/>
<text text-anchor="middle" x="119" y="-192" font-family="Helvetica,sans-Serif" font-size="10.00">map</text>
</g>
<!-- Node17&#45;&gt;Node32 -->
<g id="edge49" class="edge"><title>Node17&#45;&gt;Node32</title>
<path fill="none" stroke="midnightblue" d="M226.947,-246.475C205.802,-236.49 170.56,-219.848 146.122,-208.307"/>
<polygon fill="midnightblue" stroke="midnightblue" points="147.556,-205.114 137.019,-204.009 144.567,-211.444 147.556,-205.114"/>
</g>
<!-- Node18&#45;&gt;Node5 -->
<g id="edge33" class="edge"><title>Node18&#45;&gt;Node5</title>
<path fill="none" stroke="midnightblue" d="M826.676,-184.963C863.697,-177.382 914.323,-164.158 955,-143 974.337,-132.942 974.044,-122.758 993,-112 1022.54,-95.2349 1059.47,-82.7915 1085.32,-75.2894"/>
<polygon fill="midnightblue" stroke="midnightblue" points="1086.3,-78.6474 1094.98,-72.5644 1084.4,-71.9102 1086.3,-78.6474"/>
</g>
<!-- Node18&#45;&gt;Node8 -->
<g id="edge35" class="edge"><title>Node18&#45;&gt;Node8</title>
<path fill="none" stroke="midnightblue" d="M760.894,-184.843C746.215,-175.851 724.003,-160.643 709,-143 694.104,-125.483 682.639,-101.49 675.877,-85.1807"/>
<polygon fill="midnightblue" stroke="midnightblue" points="679.064,-83.7231 672.124,-75.7181 672.557,-86.304 679.064,-83.7231"/>
</g>
<!-- Node18&#45;&gt;Node11 -->
<g id="edge34" class="edge"><title>Node18&#45;&gt;Node11</title>
<path fill="none" stroke="midnightblue" d="M737.205,-184.962C695.787,-175.611 628.363,-159.705 571,-143 568.069,-142.146 565.04,-141.219 562.01,-140.26"/>
<polygon fill="midnightblue" stroke="midnightblue" points="563.039,-136.914 552.446,-137.138 560.867,-143.568 563.039,-136.914"/>
</g>
<!-- Node18&#45;&gt;Node13 -->
<g id="edge31" class="edge"><title>Node18&#45;&gt;Node13</title>
<path fill="none" stroke="midnightblue" d="M818.642,-184.944C861.745,-175.923 930.077,-160.595 988,-143 990.568,-142.22 993.212,-141.361 995.857,-140.462"/>
<polygon fill="midnightblue" stroke="midnightblue" points="997.047,-143.753 1005.3,-137.104 994.701,-137.158 997.047,-143.753"/>
</g>
<!-- Node18&#45;&gt;Node14 -->
<g id="edge32" class="edge"><title>Node18&#45;&gt;Node14</title>
<path fill="none" stroke="midnightblue" d="M827.568,-186.807C884.876,-178.797 979.904,-163.811 1060,-143 1063.04,-142.211 1066.17,-141.306 1069.29,-140.343"/>
<polygon fill="midnightblue" stroke="midnightblue" points="1070.68,-143.572 1079.09,-137.134 1068.5,-136.92 1070.68,-143.572"/>
</g>
<!-- Node19 -->
<g id="node20" class="node"><title>Node19</title>
<g id="a_node20"><a xlink:href="bitflag_8h.html" target="_top" xlink:title="base/bitflag.h">
<polygon fill="white" stroke="black" points="580.5,-118 580.5,-137 661.5,-137 661.5,-118 580.5,-118"/>
<text text-anchor="middle" x="621" y="-125" font-family="Helvetica,sans-Serif" font-size="10.00">base/bitflag.h</text>
</a>
</g>
</g>
<!-- Node18&#45;&gt;Node19 -->
<g id="edge20" class="edge"><title>Node18&#45;&gt;Node19</title>
<path fill="none" stroke="midnightblue" d="M755.417,-184.869C728.666,-173.65 681.752,-153.977 651.028,-141.092"/>
<polygon fill="midnightblue" stroke="midnightblue" points="652.243,-137.807 641.668,-137.167 649.536,-144.262 652.243,-137.807"/>
</g>
<!-- Node21 -->
<g id="node22" class="node"><title>Node21</title>
<g id="a_node22"><a xlink:href="vec3_8h.html" target="_top" xlink:title="base/vec/vec3.h">
<polygon fill="white" stroke="black" points="852,-118 852,-137 946,-137 946,-118 852,-118"/>
<text text-anchor="middle" x="899" y="-125" font-family="Helvetica,sans-Serif" font-size="10.00">base/vec/vec3.h</text>
</a>
</g>
</g>
<!-- Node18&#45;&gt;Node21 -->
<g id="edge22" class="edge"><title>Node18&#45;&gt;Node21</title>
<path fill="none" stroke="midnightblue" d="M792.333,-184.869C813.102,-173.893 849.186,-154.824 873.57,-141.938"/>
<polygon fill="midnightblue" stroke="midnightblue" points="875.393,-144.934 882.599,-137.167 872.122,-138.745 875.393,-144.934"/>
</g>
<!-- Node25 -->
<g id="node26" class="node"><title>Node25</title>
<g id="a_node26"><a xlink:href="base_2std__ext_2math_8h.html" target="_top" xlink:title="base/std_ext/math.h">
<polygon fill="white" stroke="black" points="718,-118 718,-137 834,-137 834,-118 718,-118"/>
<text text-anchor="middle" x="776" y="-125" font-family="Helvetica,sans-Serif" font-size="10.00">base/std_ext/math.h</text>
</a>
</g>
</g>
<!-- Node18&#45;&gt;Node25 -->
<g id="edge27" class="edge"><title>Node18&#45;&gt;Node25</title>
<path fill="none" stroke="midnightblue" d="M776,-184.734C776,-175.183 776,-159.618 776,-147.283"/>
<polygon fill="midnightblue" stroke="midnightblue" points="779.5,-147.127 776,-137.127 772.5,-147.127 779.5,-147.127"/>
</g>
<!-- Node20 -->
<g id="node21" class="node"><title>Node20</title>
<polygon fill="white" stroke="#bfbfbf" points="583,-56.5 583,-75.5 627,-75.5 627,-56.5 583,-56.5"/>
<text text-anchor="middle" x="605" y="-63.5" font-family="Helvetica,sans-Serif" font-size="10.00">bitset</text>
</g>
<!-- Node19&#45;&gt;Node20 -->
<g id="edge21" class="edge"><title>Node19&#45;&gt;Node20</title>
<path fill="none" stroke="midnightblue" d="M618.708,-117.975C616.426,-109.492 612.853,-96.2043 609.927,-85.3222"/>
<polygon fill="midnightblue" stroke="midnightblue" points="613.265,-84.2571 607.288,-75.5091 606.505,-86.0749 613.265,-84.2571"/>
</g>
<!-- Node22 -->
<g id="node23" class="node"><title>Node22</title>
<g id="a_node23"><a xlink:href="vec2_8h.html" target="_top" xlink:title="vec2.h">
<polygon fill="white" stroke="black" points="927,-56.5 927,-75.5 975,-75.5 975,-56.5 927,-56.5"/>
<text text-anchor="middle" x="951" y="-63.5" font-family="Helvetica,sans-Serif" font-size="10.00">vec2.h</text>
</a>
</g>
</g>
<!-- Node21&#45;&gt;Node22 -->
<g id="edge23" class="edge"><title>Node21&#45;&gt;Node22</title>
<path fill="none" stroke="midnightblue" d="M906.45,-117.975C914.328,-108.962 926.945,-94.5246 936.744,-83.3118"/>
<polygon fill="midnightblue" stroke="midnightblue" points="939.618,-85.342 943.563,-75.5091 934.347,-80.7356 939.618,-85.342"/>
</g>
<!-- Node23 -->
<g id="node24" class="node"><title>Node23</title>
<polygon fill="white" stroke="#bfbfbf" points="875.5,-0.5 875.5,-19.5 922.5,-19.5 922.5,-0.5 875.5,-0.5"/>
<text text-anchor="middle" x="899" y="-7.5" font-family="Helvetica,sans-Serif" font-size="10.00">cmath</text>
</g>
<!-- Node21&#45;&gt;Node23 -->
<g id="edge26" class="edge"><title>Node21&#45;&gt;Node23</title>
<path fill="none" stroke="midnightblue" d="M899,-117.819C899,-99.2568 899,-55.3391 899,-29.9734"/>
<polygon fill="midnightblue" stroke="midnightblue" points="902.5,-29.782 899,-19.782 895.5,-29.782 902.5,-29.782"/>
</g>
<!-- Node24 -->
<g id="node25" class="node"><title>Node24</title>
<polygon fill="white" stroke="#bfbfbf" points="993.5,-56.5 993.5,-75.5 1050.5,-75.5 1050.5,-56.5 993.5,-56.5"/>
<text text-anchor="middle" x="1022" y="-63.5" font-family="Helvetica,sans-Serif" font-size="10.00">ostream</text>
</g>
<!-- Node21&#45;&gt;Node24 -->
<g id="edge25" class="edge"><title>Node21&#45;&gt;Node24</title>
<path fill="none" stroke="midnightblue" d="M916.623,-117.975C937.174,-108.034 971.364,-91.4947 995.207,-79.961"/>
<polygon fill="midnightblue" stroke="midnightblue" points="996.932,-83.0145 1004.41,-75.5091 993.884,-76.7131 996.932,-83.0145"/>
</g>
<!-- Node22&#45;&gt;Node23 -->
<g id="edge24" class="edge"><title>Node22&#45;&gt;Node23</title>
<path fill="none" stroke="midnightblue" d="M942.413,-56.083C934.841,-48.2195 923.622,-36.5688 914.486,-27.0813"/>
<polygon fill="midnightblue" stroke="midnightblue" points="916.885,-24.5266 907.427,-19.7511 911.842,-29.3821 916.885,-24.5266"/>
</g>
<!-- Node25&#45;&gt;Node8 -->
<g id="edge30" class="edge"><title>Node25&#45;&gt;Node8</title>
<path fill="none" stroke="midnightblue" d="M760.67,-117.975C743.03,-108.166 713.84,-91.9346 693.142,-80.425"/>
<polygon fill="midnightblue" stroke="midnightblue" points="694.743,-77.3102 684.302,-75.5091 691.341,-83.4279 694.743,-77.3102"/>
</g>
<!-- Node25&#45;&gt;Node23 -->
<g id="edge28" class="edge"><title>Node25&#45;&gt;Node23</title>
<path fill="none" stroke="midnightblue" d="M788.75,-117.884C802.493,-108.343 824.719,-92.1632 842,-76 858.185,-60.8612 874.662,-41.5619 885.71,-27.9379"/>
<polygon fill="midnightblue" stroke="midnightblue" points="888.621,-29.9025 892.129,-19.9053 883.152,-25.5328 888.621,-29.9025"/>
</g>
<!-- Node26 -->
<g id="node27" class="node"><title>Node26</title>
<polygon fill="white" stroke="#bfbfbf" points="711,-56.5 711,-75.5 753,-75.5 753,-56.5 711,-56.5"/>
<text text-anchor="middle" x="732" y="-63.5" font-family="Helvetica,sans-Serif" font-size="10.00">limits</text>
</g>
<!-- Node25&#45;&gt;Node26 -->
<g id="edge29" class="edge"><title>Node25&#45;&gt;Node26</title>
<path fill="none" stroke="midnightblue" d="M769.696,-117.975C763.096,-109.05 752.563,-94.8071 744.307,-83.6425"/>
<polygon fill="midnightblue" stroke="midnightblue" points="747.052,-81.4684 738.292,-75.5091 741.424,-85.6305 747.052,-81.4684"/>
</g>
<!-- Node27&#45;&gt;Node8 -->
<g id="edge40" class="edge"><title>Node27&#45;&gt;Node8</title>
<path fill="none" stroke="midnightblue" d="M332.834,-179.302C332.176,-160.864 334.124,-129.034 353,-112 397.951,-71.4359 558.468,-86.8013 635.07,-75.6474"/>
<polygon fill="midnightblue" stroke="midnightblue" points="636.039,-79.0323 645.301,-73.889 634.853,-72.1335 636.039,-79.0323"/>
</g>
<!-- Node27&#45;&gt;Node11 -->
<g id="edge42" class="edge"><title>Node27&#45;&gt;Node11</title>
<path fill="none" stroke="midnightblue" d="M375.993,-179.487C406.295,-169.368 448.183,-155.364 485,-143 487.572,-142.136 490.23,-141.243 492.905,-140.343"/>
<polygon fill="midnightblue" stroke="midnightblue" points="494.178,-143.607 502.538,-137.098 491.943,-136.973 494.178,-143.607"/>
</g>
<!-- Node28 -->
<g id="node29" class="node"><title>Node28</title>
<g id="a_node29"><a xlink:href="memory_8h.html" target="_top" xlink:title="base/std_ext/memory.h">
<polygon fill="white" stroke="black" points="100.5,-118 100.5,-137 229.5,-137 229.5,-118 100.5,-118"/>
<text text-anchor="middle" x="165" y="-125" font-family="Helvetica,sans-Serif" font-size="10.00">base/std_ext/memory.h</text>
</a>
</g>
</g>
<!-- Node27&#45;&gt;Node28 -->
<g id="edge37" class="edge"><title>Node27&#45;&gt;Node28</title>
<path fill="none" stroke="midnightblue" d="M297.33,-179.396C267.283,-167.84 225.206,-151.656 196.624,-140.663"/>
<polygon fill="midnightblue" stroke="midnightblue" points="197.708,-137.33 187.118,-137.007 195.195,-143.864 197.708,-137.33"/>
</g>
<!-- Node27&#45;&gt;Node29 -->
<g id="edge41" class="edge"><title>Node27&#45;&gt;Node29</title>
<path fill="none" stroke="midnightblue" d="M318.958,-179.481C300.539,-162.614 268.072,-133.841 238,-112 222.387,-100.66 203.872,-89.2683 189.395,-80.7835"/>
<polygon fill="midnightblue" stroke="midnightblue" points="190.944,-77.6363 180.535,-75.6574 187.438,-83.6951 190.944,-77.6363"/>
</g>
<!-- Node28&#45;&gt;Node15 -->
<g id="edge39" class="edge"><title>Node28&#45;&gt;Node15</title>
<path fill="none" stroke="midnightblue" d="M143.509,-117.975C115.972,-107.052 68.3556,-88.1644 39.4591,-76.7021"/>
<polygon fill="midnightblue" stroke="midnightblue" points="40.6683,-73.4165 30.0824,-72.9827 38.0872,-79.9233 40.6683,-73.4165"/>
</g>
<!-- Node28&#45;&gt;Node29 -->
<g id="edge38" class="edge"><title>Node28&#45;&gt;Node29</title>
<path fill="none" stroke="midnightblue" d="M165,-117.975C165,-109.58 165,-96.4806 165,-85.6631"/>
<polygon fill="midnightblue" stroke="midnightblue" points="168.5,-85.5091 165,-75.5091 161.5,-85.5091 168.5,-85.5091"/>
</g>
<!-- Node30&#45;&gt;Node7 -->
<g id="edge47" class="edge"><title>Node30&#45;&gt;Node7</title>
<path fill="none" stroke="midnightblue" d="M476.177,-113.619C479.156,-113.048 482.111,-112.504 485,-112 604.074,-91.2228 637.982,-97.2999 760.463,-76.13"/>
<polygon fill="midnightblue" stroke="midnightblue" points="761.368,-79.5249 770.612,-74.3491 760.158,-72.6302 761.368,-79.5249"/>
</g>
<!-- Node30&#45;&gt;Node8 -->
<g id="edge44" class="edge"><title>Node30&#45;&gt;Node8</title>
<path fill="none" stroke="midnightblue" d="M476.253,-113.794C517.776,-104.437 575.518,-91.1358 635.244,-76.1194"/>
<polygon fill="midnightblue" stroke="midnightblue" points="636.397,-79.4383 645.235,-73.596 634.682,-72.6515 636.397,-79.4383"/>
</g>
<!-- Node30&#45;&gt;Node29 -->
<g id="edge45" class="edge"><title>Node30&#45;&gt;Node29</title>
<path fill="none" stroke="midnightblue" d="M361.997,-113.147C313.623,-101.815 245.545,-85.8678 203.403,-75.996"/>
<polygon fill="midnightblue" stroke="midnightblue" points="204.069,-72.5572 193.534,-73.6841 202.472,-79.3727 204.069,-72.5572"/>
</g>
<!-- Node30&#45;&gt;Node31 -->
<g id="edge46" class="edge"><title>Node30&#45;&gt;Node31</title>
<path fill="none" stroke="midnightblue" d="M404.307,-112.399C395.019,-103.486 383.001,-91.9523 373.402,-82.7408"/>
<polygon fill="midnightblue" stroke="midnightblue" points="375.66,-80.0566 366.022,-75.6578 370.813,-85.1072 375.66,-80.0566"/>
</g>
</g>
</svg>
