<?xml version="1.0" encoding="UTF-8" standalone="no"?>
<!DOCTYPE svg PUBLIC "-//W3C//DTD SVG 1.1//EN"
 "http://www.w3.org/Graphics/SVG/1.1/DTD/svg11.dtd">
<!-- Generated by graphviz version 2.38.0 (20140413.2041)
 -->
<!-- Title: src/analysis/slowcontrol/variables/Variable.h Pages: 1 -->
<svg width="2297pt" height="251pt"
 viewBox="0.00 0.00 2296.50 251.00" xmlns="http://www.w3.org/2000/svg" xmlns:xlink="http://www.w3.org/1999/xlink">
<g id="graph0" class="graph" transform="scale(1 1) rotate(0) translate(4 247)">
<title>src/analysis/slowcontrol/variables/Variable.h</title>
<polygon fill="white" stroke="none" points="-4,4 -4,-247 2292.5,-247 2292.5,4 -4,4"/>
<!-- Node58 -->
<g id="node1" class="node"><title>Node58</title>
<polygon fill="#bfbfbf" stroke="black" points="1085,-212.5 1085,-242.5 1213,-242.5 1213,-212.5 1085,-212.5"/>
<text text-anchor="start" x="1093" y="-230.5" font-family="Helvetica,sans-Serif" font-size="10.00">src/analysis/slowcontrol</text>
<text text-anchor="middle" x="1149" y="-219.5" font-family="Helvetica,sans-Serif" font-size="10.00">/variables/Variable.h</text>
</g>
<!-- Node59 -->
<g id="node2" class="node"><title>Node59</title>
<g id="a_node2"><a xlink:href="_slow_control_variables_8h.html" target="_top" xlink:title="src/analysis/slowcontrol\l/SlowControlVariables.h">
<polygon fill="white" stroke="black" points="1085,-78.5 1085,-108.5 1213,-108.5 1213,-78.5 1085,-78.5"/>
<text text-anchor="start" x="1093" y="-96.5" font-family="Helvetica,sans-Serif" font-size="10.00">src/analysis/slowcontrol</text>
<text text-anchor="middle" x="1149" y="-85.5" font-family="Helvetica,sans-Serif" font-size="10.00">/SlowControlVariables.h</text>
</a>
</g>
</g>
<!-- Node58&#45;&gt;Node59 -->
<g id="edge1" class="edge"><title>Node58&#45;&gt;Node59</title>
<path fill="none" stroke="midnightblue" d="M1149,-202.024C1149,-174.512 1149,-130.789 1149,-108.525"/>
<polygon fill="midnightblue" stroke="midnightblue" points="1145.5,-202.374 1149,-212.374 1152.5,-202.374 1145.5,-202.374"/>
</g>
<!-- Node75 -->
<g id="node18" class="node"><title>Node75</title>
<g id="a_node18"><a xlink:href="_tagger_scalers_8h.html" target="_top" xlink:title="src/analysis/slowcontrol\l/variables/TaggerScalers.h">
<polygon fill="white" stroke="black" points="687.5,-145.5 687.5,-175.5 828.5,-175.5 828.5,-145.5 687.5,-145.5"/>
<text text-anchor="start" x="695.5" y="-163.5" font-family="Helvetica,sans-Serif" font-size="10.00">src/analysis/slowcontrol</text>
<text text-anchor="middle" x="758" y="-152.5" font-family="Helvetica,sans-Serif" font-size="10.00">/variables/TaggerScalers.h</text>
</a>
</g>
</g>
<!-- Node58&#45;&gt;Node75 -->
<g id="edge17" class="edge"><title>Node58&#45;&gt;Node75</title>
<path fill="none" stroke="midnightblue" d="M1074.67,-214.822C1011.62,-204.824 918.814,-189.884 838,-176 834.939,-175.474 831.814,-174.932 828.658,-174.379"/>
<polygon fill="midnightblue" stroke="midnightblue" points="1074.49,-218.337 1084.91,-216.445 1075.58,-211.424 1074.49,-218.337"/>
</g>
<!-- Node77 -->
<g id="node20" class="node"><title>Node77</title>
<g id="a_node20"><a xlink:href="_clocks_8h.html" target="_top" xlink:title="src/analysis/slowcontrol\l/variables/Clocks.h">
<polygon fill="white" stroke="black" points="847,-145.5 847,-175.5 975,-175.5 975,-145.5 847,-145.5"/>
<text text-anchor="start" x="855" y="-163.5" font-family="Helvetica,sans-Serif" font-size="10.00">src/analysis/slowcontrol</text>
<text text-anchor="middle" x="911" y="-152.5" font-family="Helvetica,sans-Serif" font-size="10.00">/variables/Clocks.h</text>
</a>
</g>
</g>
<!-- Node58&#45;&gt;Node77 -->
<g id="edge20" class="edge"><title>Node58&#45;&gt;Node77</title>
<path fill="none" stroke="midnightblue" d="M1087.54,-209.715C1048.81,-199.137 999.371,-185.635 962.668,-175.611"/>
<polygon fill="midnightblue" stroke="midnightblue" points="1087.08,-213.218 1097.65,-212.476 1088.93,-206.465 1087.08,-213.218"/>
</g>
<!-- Node79 -->
<g id="node22" class="node"><title>Node79</title>
<g id="a_node22"><a xlink:href="_beam_8h.html" target="_top" xlink:title="src/analysis/slowcontrol\l/variables/Beam.h">
<polygon fill="white" stroke="black" points="993,-145.5 993,-175.5 1121,-175.5 1121,-145.5 993,-145.5"/>
<text text-anchor="start" x="1001" y="-163.5" font-family="Helvetica,sans-Serif" font-size="10.00">src/analysis/slowcontrol</text>
<text text-anchor="middle" x="1057" y="-152.5" font-family="Helvetica,sans-Serif" font-size="10.00">/variables/Beam.h</text>
</a>
</g>
</g>
<!-- Node58&#45;&gt;Node79 -->
<g id="edge23" class="edge"><title>Node58&#45;&gt;Node79</title>
<path fill="none" stroke="midnightblue" d="M1120.62,-206.451C1106.47,-196.452 1089.69,-184.6 1076.92,-175.577"/>
<polygon fill="midnightblue" stroke="midnightblue" points="1118.85,-209.484 1129.04,-212.396 1122.89,-203.767 1118.85,-209.484"/>
</g>
<!-- Node81 -->
<g id="node24" class="node"><title>Node81</title>
<g id="a_node24"><a xlink:href="variables_2_pair_spec_8h.html" target="_top" xlink:title="src/analysis/slowcontrol\l/variables/Pairspec.h">
<polygon fill="white" stroke="black" points="1177,-145.5 1177,-175.5 1305,-175.5 1305,-145.5 1177,-145.5"/>
<text text-anchor="start" x="1185" y="-163.5" font-family="Helvetica,sans-Serif" font-size="10.00">src/analysis/slowcontrol</text>
<text text-anchor="middle" x="1241" y="-152.5" font-family="Helvetica,sans-Serif" font-size="10.00">/variables/Pairspec.h</text>
</a>
</g>
</g>
<!-- Node58&#45;&gt;Node81 -->
<g id="edge26" class="edge"><title>Node58&#45;&gt;Node81</title>
<path fill="none" stroke="midnightblue" d="M1177.38,-206.451C1191.53,-196.452 1208.31,-184.6 1221.08,-175.577"/>
<polygon fill="midnightblue" stroke="midnightblue" points="1175.11,-203.767 1168.96,-212.396 1179.15,-209.484 1175.11,-203.767"/>
</g>
<!-- Node83 -->
<g id="node26" class="node"><title>Node83</title>
<g id="a_node26"><a xlink:href="analysis_2slowcontrol_2variables_2_trigger_8h.html" target="_top" xlink:title="src/analysis/slowcontrol\l/variables/Trigger.h">
<polygon fill="white" stroke="black" points="1323,-145.5 1323,-175.5 1451,-175.5 1451,-145.5 1323,-145.5"/>
<text text-anchor="start" x="1331" y="-163.5" font-family="Helvetica,sans-Serif" font-size="10.00">src/analysis/slowcontrol</text>
<text text-anchor="middle" x="1387" y="-152.5" font-family="Helvetica,sans-Serif" font-size="10.00">/variables/Trigger.h</text>
</a>
</g>
</g>
<!-- Node58&#45;&gt;Node83 -->
<g id="edge29" class="edge"><title>Node58&#45;&gt;Node83</title>
<path fill="none" stroke="midnightblue" d="M1210.46,-209.715C1249.19,-199.137 1298.63,-185.635 1335.33,-175.611"/>
<polygon fill="midnightblue" stroke="midnightblue" points="1209.07,-206.465 1200.35,-212.476 1210.92,-213.218 1209.07,-206.465"/>
</g>
<!-- Node85 -->
<g id="node28" class="node"><title>Node85</title>
<g id="a_node28"><a xlink:href="analysis_2slowcontrol_2variables_2_tagg_eff_8h.html" target="_top" xlink:title="src/analysis/slowcontrol\l/variables/TaggEff.h">
<polygon fill="white" stroke="black" points="1469,-145.5 1469,-175.5 1597,-175.5 1597,-145.5 1469,-145.5"/>
<text text-anchor="start" x="1477" y="-163.5" font-family="Helvetica,sans-Serif" font-size="10.00">src/analysis/slowcontrol</text>
<text text-anchor="middle" x="1533" y="-152.5" font-family="Helvetica,sans-Serif" font-size="10.00">/variables/TaggEff.h</text>
</a>
</g>
</g>
<!-- Node58&#45;&gt;Node85 -->
<g id="edge32" class="edge"><title>Node58&#45;&gt;Node85</title>
<path fill="none" stroke="midnightblue" d="M1223.39,-215.171C1286.48,-205.385 1379.3,-190.561 1460,-176 1462.92,-175.472 1465.91,-174.922 1468.93,-174.358"/>
<polygon fill="midnightblue" stroke="midnightblue" points="1222.49,-211.769 1213.14,-216.758 1223.56,-218.687 1222.49,-211.769"/>
</g>
<!-- Node60 -->
<g id="node3" class="node"><title>Node60</title>
<g id="a_node3"><a xlink:href="_debug_physics_8cc.html" target="_top" xlink:title="src/analysis/physics\l/common/DebugPhysics.cc">
<polygon fill="white" stroke="black" points="0,-6 0,-36 146,-36 146,-6 0,-6"/>
<text text-anchor="start" x="8" y="-24" font-family="Helvetica,sans-Serif" font-size="10.00">src/analysis/physics</text>
<text text-anchor="middle" x="73" y="-13" font-family="Helvetica,sans-Serif" font-size="10.00">/common/DebugPhysics.cc</text>
</a>
</g>
</g>
<!-- Node59&#45;&gt;Node60 -->
<g id="edge2" class="edge"><title>Node59&#45;&gt;Node60</title>
<path fill="none" stroke="midnightblue" d="M1075.01,-78.029C667.415,-31.0491 557.418,-98.3606 155,-42 144.842,-40.5773 134.108,-38.4373 123.873,-36.0786"/>
<polygon fill="midnightblue" stroke="midnightblue" points="1074.66,-81.512 1085,-79.1964 1075.47,-74.5593 1074.66,-81.512"/>
</g>
<!-- Node61 -->
<g id="node4" class="node"><title>Node61</title>
<g id="a_node4"><a xlink:href="_extract_scalers_8cc.html" target="_top" xlink:title="src/analysis/physics\l/common/ExtractScalers.cc">
<polygon fill="white" stroke="black" points="164,-6 164,-36 312,-36 312,-6 164,-6"/>
<text text-anchor="start" x="172" y="-24" font-family="Helvetica,sans-Serif" font-size="10.00">src/analysis/physics</text>
<text text-anchor="middle" x="238" y="-13" font-family="Helvetica,sans-Serif" font-size="10.00">/common/ExtractScalers.cc</text>
</a>
</g>
</g>
<!-- Node59&#45;&gt;Node61 -->
<g id="edge3" class="edge"><title>Node59&#45;&gt;Node61</title>
<path fill="none" stroke="midnightblue" d="M1075.03,-78.0224C740.793,-38.1771 650.306,-89.0954 321,-42 310.729,-40.5311 299.869,-38.3701 289.511,-36.0054"/>
<polygon fill="midnightblue" stroke="midnightblue" points="1074.64,-81.5009 1084.99,-79.2279 1075.49,-74.5516 1074.64,-81.5009"/>
</g>
<!-- Node62 -->
<g id="node5" class="node"><title>Node62</title>
<g id="a_node5"><a xlink:href="_photon_flux_8cc.html" target="_top" xlink:title="src/analysis/physics\l/common/PhotonFlux.cc">
<polygon fill="white" stroke="black" points="330.5,-6 330.5,-36 461.5,-36 461.5,-6 330.5,-6"/>
<text text-anchor="start" x="338.5" y="-24" font-family="Helvetica,sans-Serif" font-size="10.00">src/analysis/physics</text>
<text text-anchor="middle" x="396" y="-13" font-family="Helvetica,sans-Serif" font-size="10.00">/common/PhotonFlux.cc</text>
</a>
</g>
</g>
<!-- Node59&#45;&gt;Node62 -->
<g id="edge4" class="edge"><title>Node59&#45;&gt;Node62</title>
<path fill="none" stroke="midnightblue" d="M1074.96,-78.0018C807.046,-44.6749 733.677,-84.3956 471,-42 461.82,-40.5184 452.141,-38.3826 442.897,-36.0528"/>
<polygon fill="midnightblue" stroke="midnightblue" points="1074.63,-81.4868 1084.99,-79.2711 1075.51,-74.5423 1074.63,-81.4868"/>
</g>
<!-- Node63 -->
<g id="node6" class="node"><title>Node63</title>
<g id="a_node6"><a xlink:href="_process_tagg_eff_8cc.html" target="_top" xlink:title="src/analysis/physics\l/common/ProcessTaggEff.cc">
<polygon fill="white" stroke="black" points="480,-6 480,-36 630,-36 630,-6 480,-6"/>
<text text-anchor="start" x="488" y="-24" font-family="Helvetica,sans-Serif" font-size="10.00">src/analysis/physics</text>
<text text-anchor="middle" x="555" y="-13" font-family="Helvetica,sans-Serif" font-size="10.00">/common/ProcessTaggEff.cc</text>
</a>
</g>
</g>
<!-- Node59&#45;&gt;Node63 -->
<g id="edge5" class="edge"><title>Node59&#45;&gt;Node63</title>
<path fill="none" stroke="midnightblue" d="M1075.04,-77.9818C881.253,-51.6781 828.259,-72.1481 639,-42 629.081,-40.42 618.6,-38.297 608.531,-36.0236"/>
<polygon fill="midnightblue" stroke="midnightblue" points="1074.59,-81.4529 1084.98,-79.3544 1075.55,-74.5188 1074.59,-81.4529"/>
</g>
<!-- Node64 -->
<g id="node7" class="node"><title>Node64</title>
<g id="a_node7"><a xlink:href="debug_scalers_8cc.html" target="_top" xlink:title="src/analysis/physics\l/misc/debugScalers.cc">
<polygon fill="white" stroke="black" points="648,-6 648,-36 772,-36 772,-6 648,-6"/>
<text text-anchor="start" x="656" y="-24" font-family="Helvetica,sans-Serif" font-size="10.00">src/analysis/physics</text>
<text text-anchor="middle" x="710" y="-13" font-family="Helvetica,sans-Serif" font-size="10.00">/misc/debugScalers.cc</text>
</a>
</g>
</g>
<!-- Node59&#45;&gt;Node64 -->
<g id="edge6" class="edge"><title>Node59&#45;&gt;Node64</title>
<path fill="none" stroke="midnightblue" d="M1074.93,-77.917C943.808,-57.6274 907.341,-67.3483 781,-42 772.839,-40.3626 764.245,-38.2673 755.963,-36.0522"/>
<polygon fill="midnightblue" stroke="midnightblue" points="1074.53,-81.3974 1084.95,-79.4977 1075.62,-74.4828 1074.53,-81.3974"/>
</g>
<!-- Node65 -->
<g id="node8" class="node"><title>Node65</title>
<g id="a_node8"><a xlink:href="debug_tagg_eff_8cc.html" target="_top" xlink:title="src/analysis/physics\l/misc/debugTaggEff.cc">
<polygon fill="white" stroke="black" points="790,-6 790,-36 912,-36 912,-6 790,-6"/>
<text text-anchor="start" x="798" y="-24" font-family="Helvetica,sans-Serif" font-size="10.00">src/analysis/physics</text>
<text text-anchor="middle" x="851" y="-13" font-family="Helvetica,sans-Serif" font-size="10.00">/misc/debugTaggEff.cc</text>
</a>
</g>
</g>
<!-- Node59&#45;&gt;Node65 -->
<g id="edge7" class="edge"><title>Node59&#45;&gt;Node65</title>
<path fill="none" stroke="midnightblue" d="M1074.96,-77.2832C1030.23,-67.7955 972.153,-54.9599 921,-42 913.771,-40.1686 906.157,-38.119 898.718,-36.0491"/>
<polygon fill="midnightblue" stroke="midnightblue" points="1074.37,-80.7346 1084.88,-79.377 1075.81,-73.8858 1074.37,-80.7346"/>
</g>
<!-- Node66 -->
<g id="node9" class="node"><title>Node66</title>
<g id="a_node9"><a xlink:href="sigma_plus_8cc.html" target="_top" xlink:title="src/analysis/physics\l/production/sigmaPlus.cc">
<polygon fill="white" stroke="black" points="930,-6 930,-36 1066,-36 1066,-6 930,-6"/>
<text text-anchor="start" x="938" y="-24" font-family="Helvetica,sans-Serif" font-size="10.00">src/analysis/physics</text>
<text text-anchor="middle" x="998" y="-13" font-family="Helvetica,sans-Serif" font-size="10.00">/production/sigmaPlus.cc</text>
</a>
</g>
</g>
<!-- Node59&#45;&gt;Node66 -->
<g id="edge8" class="edge"><title>Node59&#45;&gt;Node66</title>
<path fill="none" stroke="midnightblue" d="M1109.44,-74.0301C1084.01,-62.1564 1051.48,-46.9695 1028.14,-36.0729"/>
<polygon fill="midnightblue" stroke="midnightblue" points="1108.26,-77.3435 1118.81,-78.4027 1111.23,-71.0008 1108.26,-77.3435"/>
</g>
<!-- Node67 -->
<g id="node10" class="node"><title>Node67</title>
<g id="a_node10"><a xlink:href="single_pi0_8cc.html" target="_top" xlink:title="src/analysis/physics\l/production/singlePi0.cc">
<polygon fill="white" stroke="black" points="1084.5,-6 1084.5,-36 1213.5,-36 1213.5,-6 1084.5,-6"/>
<text text-anchor="start" x="1092.5" y="-24" font-family="Helvetica,sans-Serif" font-size="10.00">src/analysis/physics</text>
<text text-anchor="middle" x="1149" y="-13" font-family="Helvetica,sans-Serif" font-size="10.00">/production/singlePi0.cc</text>
</a>
</g>
</g>
<!-- Node59&#45;&gt;Node67 -->
<g id="edge9" class="edge"><title>Node59&#45;&gt;Node67</title>
<path fill="none" stroke="midnightblue" d="M1149,-68.2317C1149,-57.5679 1149,-45.4145 1149,-36.2455"/>
<polygon fill="midnightblue" stroke="midnightblue" points="1145.5,-68.2332 1149,-78.2333 1152.5,-68.2333 1145.5,-68.2332"/>
</g>
<!-- Node68 -->
<g id="node11" class="node"><title>Node68</title>
<g id="a_node11"><a xlink:href="triple_pi0_8cc.html" target="_top" xlink:title="src/analysis/physics\l/production/triplePi0.cc">
<polygon fill="white" stroke="black" points="1231.5,-6 1231.5,-36 1356.5,-36 1356.5,-6 1231.5,-6"/>
<text text-anchor="start" x="1239.5" y="-24" font-family="Helvetica,sans-Serif" font-size="10.00">src/analysis/physics</text>
<text text-anchor="middle" x="1294" y="-13" font-family="Helvetica,sans-Serif" font-size="10.00">/production/triplePi0.cc</text>
</a>
</g>
</g>
<!-- Node59&#45;&gt;Node68 -->
<g id="edge10" class="edge"><title>Node59&#45;&gt;Node68</title>
<path fill="none" stroke="midnightblue" d="M1186.99,-74.0301C1211.41,-62.1564 1242.64,-46.9695 1265.06,-36.0729"/>
<polygon fill="midnightblue" stroke="midnightblue" points="1185.46,-70.8824 1177.99,-78.4027 1188.52,-77.1777 1185.46,-70.8824"/>
</g>
<!-- Node69 -->
<g id="node12" class="node"><title>Node69</title>
<g id="a_node12"><a xlink:href="cross__section_8cc.html" target="_top" xlink:title="src/analysis/physics\l/scratch/collicott/cross\l_section.cc">
<polygon fill="white" stroke="black" points="1374.5,-0.5 1374.5,-41.5 1497.5,-41.5 1497.5,-0.5 1374.5,-0.5"/>
<text text-anchor="start" x="1382.5" y="-29.5" font-family="Helvetica,sans-Serif" font-size="10.00">src/analysis/physics</text>
<text text-anchor="start" x="1382.5" y="-18.5" font-family="Helvetica,sans-Serif" font-size="10.00">/scratch/collicott/cross</text>
<text text-anchor="middle" x="1436" y="-7.5" font-family="Helvetica,sans-Serif" font-size="10.00">_section.cc</text>
</a>
</g>
</g>
<!-- Node59&#45;&gt;Node69 -->
<g id="edge11" class="edge"><title>Node59&#45;&gt;Node69</title>
<path fill="none" stroke="midnightblue" d="M1222.35,-76.2105C1264.25,-66.6916 1317.7,-54.1848 1365,-42 1368.1,-41.2013 1371.27,-40.3679 1374.47,-39.5142"/>
<polygon fill="midnightblue" stroke="midnightblue" points="1221.49,-72.8177 1212.51,-78.4406 1223.03,-79.6447 1221.49,-72.8177"/>
</g>
<!-- Node70 -->
<g id="node13" class="node"><title>Node70</title>
<g id="a_node13"><a xlink:href="det__eff_8cc.html" target="_top" xlink:title="src/analysis/physics\l/scratch/collicott/det\l_eff.cc">
<polygon fill="white" stroke="black" points="1515.5,-0.5 1515.5,-41.5 1628.5,-41.5 1628.5,-0.5 1515.5,-0.5"/>
<text text-anchor="start" x="1523.5" y="-29.5" font-family="Helvetica,sans-Serif" font-size="10.00">src/analysis/physics</text>
<text text-anchor="start" x="1523.5" y="-18.5" font-family="Helvetica,sans-Serif" font-size="10.00">/scratch/collicott/det</text>
<text text-anchor="middle" x="1572" y="-7.5" font-family="Helvetica,sans-Serif" font-size="10.00">_eff.cc</text>
</a>
</g>
</g>
<!-- Node59&#45;&gt;Node70 -->
<g id="edge12" class="edge"><title>Node59&#45;&gt;Node70</title>
<path fill="none" stroke="midnightblue" d="M1223.1,-77.9073C1349.37,-58.1254 1384.73,-67.869 1506,-42 1509.04,-41.3506 1512.15,-40.6268 1515.28,-39.8504"/>
<polygon fill="midnightblue" stroke="midnightblue" points="1222.37,-74.4802 1213.05,-79.5146 1223.48,-81.3924 1222.37,-74.4802"/>
</g>
<!-- Node71 -->
<g id="node14" class="node"><title>Node71</title>
<g id="a_node14"><a xlink:href="checktagger_8cc.html" target="_top" xlink:title="src/analysis/physics\l/scratch/lheijken/checktagger.cc">
<polygon fill="white" stroke="black" points="1646.5,-6 1646.5,-36 1815.5,-36 1815.5,-6 1646.5,-6"/>
<text text-anchor="start" x="1654.5" y="-24" font-family="Helvetica,sans-Serif" font-size="10.00">src/analysis/physics</text>
<text text-anchor="middle" x="1731" y="-13" font-family="Helvetica,sans-Serif" font-size="10.00">/scratch/lheijken/checktagger.cc</text>
</a>
</g>
</g>
<!-- Node59&#45;&gt;Node71 -->
<g id="edge13" class="edge"><title>Node59&#45;&gt;Node71</title>
<path fill="none" stroke="midnightblue" d="M1223.06,-77.9614C1407.49,-52.4906 1457.7,-69.0785 1638,-42 1648.78,-40.3811 1660.18,-38.2676 1671.17,-36.0221"/>
<polygon fill="midnightblue" stroke="midnightblue" points="1222.44,-74.5132 1213.03,-79.3695 1223.42,-81.4452 1222.44,-74.5132"/>
</g>
<!-- Node72 -->
<g id="node15" class="node"><title>Node72</title>
<g id="a_node15"><a xlink:href="_slow_control_manager_8cc.html" target="_top" xlink:title="src/analysis/slowcontrol\l/SlowControlManager.cc">
<polygon fill="white" stroke="black" points="1833.5,-6 1833.5,-36 1964.5,-36 1964.5,-6 1833.5,-6"/>
<text text-anchor="start" x="1841.5" y="-24" font-family="Helvetica,sans-Serif" font-size="10.00">src/analysis/slowcontrol</text>
<text text-anchor="middle" x="1899" y="-13" font-family="Helvetica,sans-Serif" font-size="10.00">/SlowControlManager.cc</text>
</a>
</g>
</g>
<!-- Node59&#45;&gt;Node72 -->
<g id="edge14" class="edge"><title>Node59&#45;&gt;Node72</title>
<path fill="none" stroke="midnightblue" d="M1223,-78.0057C1490.07,-44.7676 1563.26,-84.7216 1825,-42 1834.06,-40.5207 1843.62,-38.386 1852.74,-36.0565"/>
<polygon fill="midnightblue" stroke="midnightblue" points="1222.49,-74.5423 1213.01,-79.2718 1223.37,-81.4867 1222.49,-74.5423"/>
</g>
<!-- Node73 -->
<g id="node16" class="node"><title>Node73</title>
<g id="a_node16"><a xlink:href="_slow_control_variables_8cc.html" target="_top" xlink:title="src/analysis/slowcontrol\l/SlowControlVariables.cc">
<polygon fill="white" stroke="black" points="1982.5,-6 1982.5,-36 2115.5,-36 2115.5,-6 1982.5,-6"/>
<text text-anchor="start" x="1990.5" y="-24" font-family="Helvetica,sans-Serif" font-size="10.00">src/analysis/slowcontrol</text>
<text text-anchor="middle" x="2049" y="-13" font-family="Helvetica,sans-Serif" font-size="10.00">/SlowControlVariables.cc</text>
</a>
</g>
</g>
<!-- Node59&#45;&gt;Node73 -->
<g id="edge15" class="edge"><title>Node59&#45;&gt;Node73</title>
<path fill="none" stroke="midnightblue" d="M1223.42,-77.9693C1555.98,-38.433 1646.76,-92.8711 1974,-42 1983.32,-40.551 1993.15,-38.3991 2002.52,-36.0369"/>
<polygon fill="midnightblue" stroke="midnightblue" points="1222.51,-74.5534 1213.01,-79.2286 1223.36,-81.5027 1222.51,-74.5534"/>
</g>
<!-- Node74 -->
<g id="node17" class="node"><title>Node74</title>
<g id="a_node17"><a xlink:href="_test_slow_control_manager_8cc.html" target="_top" xlink:title="test/analysis/TestSlowControl\lManager.cc">
<polygon fill="white" stroke="black" points="2133.5,-6 2133.5,-36 2288.5,-36 2288.5,-6 2133.5,-6"/>
<text text-anchor="start" x="2141.5" y="-24" font-family="Helvetica,sans-Serif" font-size="10.00">test/analysis/TestSlowControl</text>
<text text-anchor="middle" x="2211" y="-13" font-family="Helvetica,sans-Serif" font-size="10.00">Manager.cc</text>
</a>
</g>
</g>
<!-- Node59&#45;&gt;Node74 -->
<g id="edge16" class="edge"><title>Node59&#45;&gt;Node74</title>
<path fill="none" stroke="midnightblue" d="M1223.1,-78.0156C1622.64,-31.801 1730.26,-95.2827 2125,-42 2135.63,-40.5646 2146.88,-38.4188 2157.61,-36.0585"/>
<polygon fill="midnightblue" stroke="midnightblue" points="1222.53,-74.5584 1213,-79.1993 1223.34,-81.5108 1222.53,-74.5584"/>
</g>
<!-- Node75&#45;&gt;Node59 -->
<g id="edge18" class="edge"><title>Node75&#45;&gt;Node59</title>
<path fill="none" stroke="midnightblue" d="M838.526,-144.947C945.187,-127.441 973.705,-126.886 1076,-109 1078.93,-108.488 1081.92,-107.951 1084.94,-107.398"/>
<polygon fill="midnightblue" stroke="midnightblue" points="837.946,-141.495 828.651,-146.579 839.088,-148.401 837.946,-141.495"/>
</g>
<!-- Node76 -->
<g id="node19" class="node"><title>Node76</title>
<g id="a_node19"><a xlink:href="_tagger_scalers_8cc.html" target="_top" xlink:title="src/analysis/slowcontrol\l/variables/TaggerScalers.cc">
<polygon fill="white" stroke="black" points="629,-78.5 629,-108.5 775,-108.5 775,-78.5 629,-78.5"/>
<text text-anchor="start" x="637" y="-96.5" font-family="Helvetica,sans-Serif" font-size="10.00">src/analysis/slowcontrol</text>
<text text-anchor="middle" x="702" y="-85.5" font-family="Helvetica,sans-Serif" font-size="10.00">/variables/TaggerScalers.cc</text>
</a>
</g>
</g>
<!-- Node75&#45;&gt;Node76 -->
<g id="edge19" class="edge"><title>Node75&#45;&gt;Node76</title>
<path fill="none" stroke="midnightblue" d="M739.25,-137.736C730.964,-128.119 721.461,-117.089 714.127,-108.577"/>
<polygon fill="midnightblue" stroke="midnightblue" points="736.67,-140.104 745.849,-145.396 741.973,-135.535 736.67,-140.104"/>
</g>
<!-- Node77&#45;&gt;Node59 -->
<g id="edge21" class="edge"><title>Node77&#45;&gt;Node59</title>
<path fill="none" stroke="midnightblue" d="M972.459,-142.715C1011.19,-132.137 1060.63,-118.635 1097.33,-108.611"/>
<polygon fill="midnightblue" stroke="midnightblue" points="971.074,-139.465 962.349,-145.476 972.918,-146.218 971.074,-139.465"/>
</g>
<!-- Node78 -->
<g id="node21" class="node"><title>Node78</title>
<g id="a_node21"><a xlink:href="_clocks_8cc.html" target="_top" xlink:title="src/analysis/slowcontrol\l/variables/Clocks.cc">
<polygon fill="white" stroke="black" points="793,-78.5 793,-108.5 921,-108.5 921,-78.5 793,-78.5"/>
<text text-anchor="start" x="801" y="-96.5" font-family="Helvetica,sans-Serif" font-size="10.00">src/analysis/slowcontrol</text>
<text text-anchor="middle" x="857" y="-85.5" font-family="Helvetica,sans-Serif" font-size="10.00">/variables/Clocks.cc</text>
</a>
</g>
</g>
<!-- Node77&#45;&gt;Node78 -->
<g id="edge22" class="edge"><title>Node77&#45;&gt;Node78</title>
<path fill="none" stroke="midnightblue" d="M892.679,-137.447C884.747,-127.899 875.695,-117.004 868.694,-108.577"/>
<polygon fill="midnightblue" stroke="midnightblue" points="890.2,-139.941 899.283,-145.396 895.585,-135.467 890.2,-139.941"/>
</g>
<!-- Node79&#45;&gt;Node59 -->
<g id="edge24" class="edge"><title>Node79&#45;&gt;Node59</title>
<path fill="none" stroke="midnightblue" d="M1085.38,-139.451C1099.53,-129.452 1116.31,-117.6 1129.08,-108.577"/>
<polygon fill="midnightblue" stroke="midnightblue" points="1083.11,-136.767 1076.96,-145.396 1087.15,-142.484 1083.11,-136.767"/>
</g>
<!-- Node80 -->
<g id="node23" class="node"><title>Node80</title>
<g id="a_node23"><a xlink:href="_beam_8cc.html" target="_top" xlink:title="src/analysis/slowcontrol\l/variables/Beam.cc">
<polygon fill="white" stroke="black" points="939,-78.5 939,-108.5 1067,-108.5 1067,-78.5 939,-78.5"/>
<text text-anchor="start" x="947" y="-96.5" font-family="Helvetica,sans-Serif" font-size="10.00">src/analysis/slowcontrol</text>
<text text-anchor="middle" x="1003" y="-85.5" font-family="Helvetica,sans-Serif" font-size="10.00">/variables/Beam.cc</text>
</a>
</g>
</g>
<!-- Node79&#45;&gt;Node80 -->
<g id="edge25" class="edge"><title>Node79&#45;&gt;Node80</title>
<path fill="none" stroke="midnightblue" d="M1038.68,-137.447C1030.75,-127.899 1021.7,-117.004 1014.69,-108.577"/>
<polygon fill="midnightblue" stroke="midnightblue" points="1036.2,-139.941 1045.28,-145.396 1041.58,-135.467 1036.2,-139.941"/>
</g>
<!-- Node81&#45;&gt;Node59 -->
<g id="edge27" class="edge"><title>Node81&#45;&gt;Node59</title>
<path fill="none" stroke="midnightblue" d="M1212.62,-139.451C1198.47,-129.452 1181.69,-117.6 1168.92,-108.577"/>
<polygon fill="midnightblue" stroke="midnightblue" points="1210.85,-142.484 1221.04,-145.396 1214.89,-136.767 1210.85,-142.484"/>
</g>
<!-- Node82 -->
<g id="node25" class="node"><title>Node82</title>
<g id="a_node25"><a xlink:href="variables_2_pair_spec_8cc.html" target="_top" xlink:title="src/analysis/slowcontrol\l/variables/Pairspec.cc">
<polygon fill="white" stroke="black" points="1231,-78.5 1231,-108.5 1359,-108.5 1359,-78.5 1231,-78.5"/>
<text text-anchor="start" x="1239" y="-96.5" font-family="Helvetica,sans-Serif" font-size="10.00">src/analysis/slowcontrol</text>
<text text-anchor="middle" x="1295" y="-85.5" font-family="Helvetica,sans-Serif" font-size="10.00">/variables/Pairspec.cc</text>
</a>
</g>
</g>
<!-- Node81&#45;&gt;Node82 -->
<g id="edge28" class="edge"><title>Node81&#45;&gt;Node82</title>
<path fill="none" stroke="midnightblue" d="M1259.32,-137.447C1267.25,-127.899 1276.3,-117.004 1283.31,-108.577"/>
<polygon fill="midnightblue" stroke="midnightblue" points="1256.42,-135.467 1252.72,-145.396 1261.8,-139.941 1256.42,-135.467"/>
</g>
<!-- Node83&#45;&gt;Node59 -->
<g id="edge30" class="edge"><title>Node83&#45;&gt;Node59</title>
<path fill="none" stroke="midnightblue" d="M1325.54,-142.715C1286.81,-132.137 1237.37,-118.635 1200.67,-108.611"/>
<polygon fill="midnightblue" stroke="midnightblue" points="1325.08,-146.218 1335.65,-145.476 1326.93,-139.465 1325.08,-146.218"/>
</g>
<!-- Node84 -->
<g id="node27" class="node"><title>Node84</title>
<g id="a_node27"><a xlink:href="analysis_2slowcontrol_2variables_2_trigger_8cc.html" target="_top" xlink:title="src/analysis/slowcontrol\l/variables/Trigger.cc">
<polygon fill="white" stroke="black" points="1377,-78.5 1377,-108.5 1505,-108.5 1505,-78.5 1377,-78.5"/>
<text text-anchor="start" x="1385" y="-96.5" font-family="Helvetica,sans-Serif" font-size="10.00">src/analysis/slowcontrol</text>
<text text-anchor="middle" x="1441" y="-85.5" font-family="Helvetica,sans-Serif" font-size="10.00">/variables/Trigger.cc</text>
</a>
</g>
</g>
<!-- Node83&#45;&gt;Node84 -->
<g id="edge31" class="edge"><title>Node83&#45;&gt;Node84</title>
<path fill="none" stroke="midnightblue" d="M1405.32,-137.447C1413.25,-127.899 1422.3,-117.004 1429.31,-108.577"/>
<polygon fill="midnightblue" stroke="midnightblue" points="1402.42,-135.467 1398.72,-145.396 1407.8,-139.941 1402.42,-135.467"/>
</g>
<!-- Node85&#45;&gt;Node59 -->
<g id="edge33" class="edge"><title>Node85&#45;&gt;Node59</title>
<path fill="none" stroke="midnightblue" d="M1458.79,-144.839C1352.9,-126.608 1324.19,-126.868 1222,-109 1219.07,-108.488 1216.08,-107.951 1213.06,-107.398"/>
<polygon fill="midnightblue" stroke="midnightblue" points="1458.49,-148.339 1468.94,-146.602 1459.68,-141.442 1458.49,-148.339"/>
</g>
<!-- Node86 -->
<g id="node29" class="node"><title>Node86</title>
<g id="a_node29"><a xlink:href="analysis_2slowcontrol_2variables_2_tagg_eff_8cc.html" target="_top" xlink:title="src/analysis/slowcontrol\l/variables/TaggEff.cc">
<polygon fill="white" stroke="black" points="1523,-78.5 1523,-108.5 1651,-108.5 1651,-78.5 1523,-78.5"/>
<text text-anchor="start" x="1531" y="-96.5" font-family="Helvetica,sans-Serif" font-size="10.00">src/analysis/slowcontrol</text>
<text text-anchor="middle" x="1587" y="-85.5" font-family="Helvetica,sans-Serif" font-size="10.00">/variables/TaggEff.cc</text>
</a>
</g>
</g>
<!-- Node85&#45;&gt;Node86 -->
<g id="edge34" class="edge"><title>Node85&#45;&gt;Node86</title>
<path fill="none" stroke="midnightblue" d="M1551.32,-137.447C1559.25,-127.899 1568.3,-117.004 1575.31,-108.577"/>
<polygon fill="midnightblue" stroke="midnightblue" points="1548.42,-135.467 1544.72,-145.396 1553.8,-139.941 1548.42,-135.467"/>
</g>
</g>
</svg>
