<?xml version="1.0" encoding="UTF-8" standalone="no"?>
<!DOCTYPE svg PUBLIC "-//W3C//DTD SVG 1.1//EN"
 "http://www.w3.org/Graphics/SVG/1.1/DTD/svg11.dtd">
<!-- Generated by graphviz version 2.38.0 (20140413.2041)
 -->
<!-- Title: src/base/WrapTFile.cc Pages: 1 -->
<svg width="1774pt" height="196pt"
 viewBox="0.00 0.00 1774.00 196.00" xmlns="http://www.w3.org/2000/svg" xmlns:xlink="http://www.w3.org/1999/xlink">
<g id="graph0" class="graph" transform="scale(1 1) rotate(0) translate(4 192)">
<title>src/base/WrapTFile.cc</title>
<polygon fill="white" stroke="none" points="-4,4 -4,-192 1770,-192 1770,4 -4,4"/>
<!-- Node0 -->
<g id="node1" class="node"><title>Node0</title>
<polygon fill="#bfbfbf" stroke="black" points="1172.5,-168.5 1172.5,-187.5 1289.5,-187.5 1289.5,-168.5 1172.5,-168.5"/>
<text text-anchor="middle" x="1231" y="-175.5" font-family="Helvetica,sans-Serif" font-size="10.00">src/base/WrapTFile.cc</text>
</g>
<!-- Node1 -->
<g id="node2" class="node"><title>Node1</title>
<g id="a_node2"><a xlink:href="_wrap_t_file_8h.html" target="_top" xlink:title="WrapTFile.h">
<polygon fill="white" stroke="black" points="645.5,-112.5 645.5,-131.5 714.5,-131.5 714.5,-112.5 645.5,-112.5"/>
<text text-anchor="middle" x="680" y="-119.5" font-family="Helvetica,sans-Serif" font-size="10.00">WrapTFile.h</text>
</a>
</g>
</g>
<!-- Node0&#45;&gt;Node1 -->
<g id="edge1" class="edge"><title>Node0&#45;&gt;Node1</title>
<path fill="none" stroke="midnightblue" d="M1172.29,-171.247C1061.42,-160.38 823.474,-137.061 724.554,-127.366"/>
<polygon fill="midnightblue" stroke="midnightblue" points="724.879,-123.882 714.586,-126.39 724.197,-130.848 724.879,-123.882"/>
</g>
<!-- Node2 -->
<g id="node3" class="node"><title>Node2</title>
<g id="a_node3"><a xlink:href="string_8h.html" target="_top" xlink:title="base/std_ext/string.h">
<polygon fill="white" stroke="black" points="105.5,-56.5 105.5,-75.5 222.5,-75.5 222.5,-56.5 105.5,-56.5"/>
<text text-anchor="middle" x="164" y="-63.5" font-family="Helvetica,sans-Serif" font-size="10.00">base/std_ext/string.h</text>
</a>
</g>
</g>
<!-- Node0&#45;&gt;Node2 -->
<g id="edge34" class="edge"><title>Node0&#45;&gt;Node2</title>
<path fill="none" stroke="midnightblue" d="M1172.44,-175.774C1049.48,-172.665 755.532,-162.428 511,-132 403.039,-118.566 277.966,-92.5117 211.416,-77.7969"/>
<polygon fill="midnightblue" stroke="midnightblue" points="211.77,-74.2903 201.249,-75.5363 210.251,-81.1234 211.77,-74.2903"/>
</g>
<!-- Node3 -->
<g id="node4" class="node"><title>Node3</title>
<polygon fill="white" stroke="#bfbfbf" points="937,-0.5 937,-19.5 981,-19.5 981,-0.5 937,-0.5"/>
<text text-anchor="middle" x="959" y="-7.5" font-family="Helvetica,sans-Serif" font-size="10.00">string</text>
</g>
<!-- Node0&#45;&gt;Node3 -->
<g id="edge44" class="edge"><title>Node0&#45;&gt;Node3</title>
<path fill="none" stroke="midnightblue" d="M1228.79,-168.339C1222.61,-145.898 1202.88,-85.5631 1163,-56 1111.7,-17.9678 1034.46,-10.9647 991.234,-10.2988"/>
<polygon fill="midnightblue" stroke="midnightblue" points="991.03,-6.79792 981.014,-10.251 990.997,-13.7978 991.03,-6.79792"/>
</g>
<!-- Node7 -->
<g id="node8" class="node"><title>Node7</title>
<g id="a_node8"><a xlink:href="misc_8h.html" target="_top" xlink:title="base/std_ext/misc.h">
<polygon fill="white" stroke="black" points="240.5,-56.5 240.5,-75.5 353.5,-75.5 353.5,-56.5 240.5,-56.5"/>
<text text-anchor="middle" x="297" y="-63.5" font-family="Helvetica,sans-Serif" font-size="10.00">base/std_ext/misc.h</text>
</a>
</g>
</g>
<!-- Node0&#45;&gt;Node7 -->
<g id="edge30" class="edge"><title>Node0&#45;&gt;Node7</title>
<path fill="none" stroke="midnightblue" d="M1172.5,-174.789C1065.58,-170.256 831.617,-158.065 636,-132 530.842,-117.988 409.012,-92.2723 343.854,-77.74"/>
<polygon fill="midnightblue" stroke="midnightblue" points="344.418,-74.2796 333.895,-75.5071 342.887,-81.11 344.418,-74.2796"/>
</g>
<!-- Node21 -->
<g id="node22" class="node"><title>Node21</title>
<polygon fill="white" stroke="#bfbfbf" points="987,-56.5 987,-75.5 1051,-75.5 1051,-56.5 987,-56.5"/>
<text text-anchor="middle" x="1019" y="-63.5" font-family="Helvetica,sans-Serif" font-size="10.00">stdexcept</text>
</g>
<!-- Node0&#45;&gt;Node21 -->
<g id="edge43" class="edge"><title>Node0&#45;&gt;Node21</title>
<path fill="none" stroke="midnightblue" d="M1172.45,-176.394C1097.44,-174.232 973.662,-165.524 945,-132 927.605,-111.654 959.155,-91.8858 986.294,-79.5966"/>
<polygon fill="midnightblue" stroke="midnightblue" points="987.827,-82.7474 995.623,-75.573 985.054,-76.3199 987.827,-82.7474"/>
</g>
<!-- Node22 -->
<g id="node23" class="node"><title>Node22</title>
<g id="a_node23"><a xlink:href="memory_8h.html" target="_top" xlink:title="std_ext/memory.h">
<polygon fill="white" stroke="black" points="954.5,-112.5 954.5,-131.5 1057.5,-131.5 1057.5,-112.5 954.5,-112.5"/>
<text text-anchor="middle" x="1006" y="-119.5" font-family="Helvetica,sans-Serif" font-size="10.00">std_ext/memory.h</text>
</a>
</g>
</g>
<!-- Node0&#45;&gt;Node22 -->
<g id="edge27" class="edge"><title>Node0&#45;&gt;Node22</title>
<path fill="none" stroke="midnightblue" d="M1195.35,-168.444C1156.34,-159.083 1093.73,-144.056 1051.28,-133.868"/>
<polygon fill="midnightblue" stroke="midnightblue" points="1052.03,-130.447 1041.49,-131.516 1050.39,-137.254 1052.03,-130.447"/>
</g>
<!-- Node23 -->
<g id="node24" class="node"><title>Node23</title>
<g id="a_node24"><a xlink:href="system_8h.html" target="_top" xlink:title="std_ext/system.h">
<polygon fill="white" stroke="black" points="1075.5,-112.5 1075.5,-131.5 1174.5,-131.5 1174.5,-112.5 1075.5,-112.5"/>
<text text-anchor="middle" x="1125" y="-119.5" font-family="Helvetica,sans-Serif" font-size="10.00">std_ext/system.h</text>
</a>
</g>
</g>
<!-- Node0&#45;&gt;Node23 -->
<g id="edge31" class="edge"><title>Node0&#45;&gt;Node23</title>
<path fill="none" stroke="midnightblue" d="M1213.97,-168.324C1196.97,-159.664 1170.62,-146.242 1151.01,-136.249"/>
<polygon fill="midnightblue" stroke="midnightblue" points="1152.49,-133.075 1141.99,-131.655 1149.31,-139.312 1152.49,-133.075"/>
</g>
<!-- Node24 -->
<g id="node25" class="node"><title>Node24</title>
<g id="a_node25"><a xlink:href="_logger_8h.html" target="_top" xlink:title="Logger.h">
<polygon fill="white" stroke="black" points="1231,-112.5 1231,-131.5 1289,-131.5 1289,-112.5 1231,-112.5"/>
<text text-anchor="middle" x="1260" y="-119.5" font-family="Helvetica,sans-Serif" font-size="10.00">Logger.h</text>
</a>
</g>
</g>
<!-- Node0&#45;&gt;Node24 -->
<g id="edge35" class="edge"><title>Node0&#45;&gt;Node24</title>
<path fill="none" stroke="midnightblue" d="M1235.79,-168.083C1239.76,-160.691 1245.53,-149.953 1250.43,-140.811"/>
<polygon fill="midnightblue" stroke="midnightblue" points="1253.65,-142.217 1255.3,-131.751 1247.49,-138.905 1253.65,-142.217"/>
</g>
<!-- Node26 -->
<g id="node27" class="node"><title>Node26</title>
<polygon fill="white" stroke="#bfbfbf" points="1307,-112.5 1307,-131.5 1375,-131.5 1375,-112.5 1307,-112.5"/>
<text text-anchor="middle" x="1341" y="-119.5" font-family="Helvetica,sans-Serif" font-size="10.00">TSystem.h</text>
</g>
<!-- Node0&#45;&gt;Node26 -->
<g id="edge37" class="edge"><title>Node0&#45;&gt;Node26</title>
<path fill="none" stroke="midnightblue" d="M1248.67,-168.324C1266.39,-159.625 1293.9,-146.12 1314.29,-136.113"/>
<polygon fill="midnightblue" stroke="midnightblue" points="1315.94,-139.203 1323.37,-131.655 1312.85,-132.919 1315.94,-139.203"/>
</g>
<!-- Node27 -->
<g id="node28" class="node"><title>Node27</title>
<polygon fill="white" stroke="#bfbfbf" points="1393,-112.5 1393,-131.5 1445,-131.5 1445,-112.5 1393,-112.5"/>
<text text-anchor="middle" x="1419" y="-119.5" font-family="Helvetica,sans-Serif" font-size="10.00">TH1D.h</text>
</g>
<!-- Node0&#45;&gt;Node27 -->
<g id="edge38" class="edge"><title>Node0&#45;&gt;Node27</title>
<path fill="none" stroke="midnightblue" d="M1260.79,-168.444C1293.96,-158.916 1347.56,-143.519 1383.04,-133.328"/>
<polygon fill="midnightblue" stroke="midnightblue" points="1384.34,-136.598 1392.98,-130.473 1382.41,-129.87 1384.34,-136.598"/>
</g>
<!-- Node28 -->
<g id="node29" class="node"><title>Node28</title>
<polygon fill="white" stroke="#bfbfbf" points="1463,-112.5 1463,-131.5 1515,-131.5 1515,-112.5 1463,-112.5"/>
<text text-anchor="middle" x="1489" y="-119.5" font-family="Helvetica,sans-Serif" font-size="10.00">TH2D.h</text>
</g>
<!-- Node0&#45;&gt;Node28 -->
<g id="edge39" class="edge"><title>Node0&#45;&gt;Node28</title>
<path fill="none" stroke="midnightblue" d="M1276.85,-168.478C1319.92,-160.309 1386.39,-147.284 1452.86,-132.175"/>
<polygon fill="midnightblue" stroke="midnightblue" points="1453.7,-135.574 1462.66,-129.93 1452.13,-128.75 1453.7,-135.574"/>
</g>
<!-- Node29 -->
<g id="node30" class="node"><title>Node29</title>
<polygon fill="white" stroke="#bfbfbf" points="1533,-112.5 1533,-131.5 1585,-131.5 1585,-112.5 1533,-112.5"/>
<text text-anchor="middle" x="1559" y="-119.5" font-family="Helvetica,sans-Serif" font-size="10.00">TH3D.h</text>
</g>
<!-- Node0&#45;&gt;Node29 -->
<g id="edge40" class="edge"><title>Node0&#45;&gt;Node29</title>
<path fill="none" stroke="midnightblue" d="M1289.68,-169.733C1346.84,-162.259 1436.38,-149.514 1522.73,-132.098"/>
<polygon fill="midnightblue" stroke="midnightblue" points="1523.59,-135.493 1532.69,-130.064 1522.19,-128.634 1523.59,-135.493"/>
</g>
<!-- Node30 -->
<g id="node31" class="node"><title>Node30</title>
<polygon fill="white" stroke="#bfbfbf" points="1603.5,-112.5 1603.5,-131.5 1692.5,-131.5 1692.5,-112.5 1603.5,-112.5"/>
<text text-anchor="middle" x="1648" y="-119.5" font-family="Helvetica,sans-Serif" font-size="10.00">Compression.h</text>
</g>
<!-- Node0&#45;&gt;Node30 -->
<g id="edge41" class="edge"><title>Node0&#45;&gt;Node30</title>
<path fill="none" stroke="midnightblue" d="M1289.57,-170.502C1359.38,-162.588 1479.79,-148.396 1593.33,-132.044"/>
<polygon fill="midnightblue" stroke="midnightblue" points="1593.84,-135.507 1603.23,-130.609 1592.83,-128.579 1593.84,-135.507"/>
</g>
<!-- Node31 -->
<g id="node32" class="node"><title>Node31</title>
<polygon fill="white" stroke="#bfbfbf" points="1710,-112.5 1710,-131.5 1766,-131.5 1766,-112.5 1710,-112.5"/>
<text text-anchor="middle" x="1738" y="-119.5" font-family="Helvetica,sans-Serif" font-size="10.00">TClass.h</text>
</g>
<!-- Node0&#45;&gt;Node31 -->
<g id="edge42" class="edge"><title>Node0&#45;&gt;Node31</title>
<path fill="none" stroke="midnightblue" d="M1289.75,-174.218C1377.32,-169.448 1547.35,-157.79 1699.77,-132.185"/>
<polygon fill="midnightblue" stroke="midnightblue" points="1700.52,-135.608 1709.79,-130.478 1699.34,-128.708 1700.52,-135.608"/>
</g>
<!-- Node1&#45;&gt;Node2 -->
<g id="edge2" class="edge"><title>Node1&#45;&gt;Node2</title>
<path fill="none" stroke="midnightblue" d="M645.311,-117.924C571.416,-111.286 392.782,-94.7808 232.833,-76.1847"/>
<polygon fill="midnightblue" stroke="midnightblue" points="233.151,-72.6981 222.812,-75.014 232.338,-79.6508 233.151,-72.6981"/>
</g>
<!-- Node1&#45;&gt;Node3 -->
<g id="edge22" class="edge"><title>Node1&#45;&gt;Node3</title>
<path fill="none" stroke="midnightblue" d="M714.795,-119.371C777.547,-115.736 906.209,-104.886 939,-76 952.132,-64.4324 956.762,-44.4705 958.333,-29.7122"/>
<polygon fill="midnightblue" stroke="midnightblue" points="961.829,-29.8838 959.028,-19.666 954.846,-29.4004 961.829,-29.8838"/>
</g>
<!-- Node1&#45;&gt;Node7 -->
<g id="edge7" class="edge"><title>Node1&#45;&gt;Node7</title>
<path fill="none" stroke="midnightblue" d="M645.336,-116.113C581.789,-107.153 445.65,-87.9585 363.65,-76.3971"/>
<polygon fill="midnightblue" stroke="midnightblue" points="364.072,-72.9221 353.681,-74.9916 363.095,-79.8535 364.072,-72.9221"/>
</g>
<!-- Node8 -->
<g id="node9" class="node"><title>Node8</title>
<polygon fill="white" stroke="#bfbfbf" points="445.5,-0.5 445.5,-19.5 508.5,-19.5 508.5,-0.5 445.5,-0.5"/>
<text text-anchor="middle" x="477" y="-7.5" font-family="Helvetica,sans-Serif" font-size="10.00">functional</text>
</g>
<!-- Node1&#45;&gt;Node8 -->
<g id="edge26" class="edge"><title>Node1&#45;&gt;Node8</title>
<path fill="none" stroke="midnightblue" d="M645.452,-116.702C598.3,-110.161 517.211,-96.2869 496,-76 483.53,-64.0734 479.113,-44.4579 477.615,-29.8897"/>
<polygon fill="midnightblue" stroke="midnightblue" points="481.083,-29.2831 476.94,-19.5317 474.097,-29.738 481.083,-29.2831"/>
</g>
<!-- Node12 -->
<g id="node13" class="node"><title>Node12</title>
<polygon fill="white" stroke="#bfbfbf" points="600.5,-0.5 600.5,-19.5 657.5,-19.5 657.5,-0.5 600.5,-0.5"/>
<text text-anchor="middle" x="629" y="-7.5" font-family="Helvetica,sans-Serif" font-size="10.00">memory</text>
</g>
<!-- Node1&#45;&gt;Node12 -->
<g id="edge21" class="edge"><title>Node1&#45;&gt;Node12</title>
<path fill="none" stroke="midnightblue" d="M672.426,-112.258C665.247,-103.577 654.605,-89.6303 648,-76 640.79,-61.1218 635.768,-42.9757 632.706,-29.6413"/>
<polygon fill="midnightblue" stroke="midnightblue" points="636.104,-28.7959 630.589,-19.7495 629.259,-30.2605 636.104,-28.7959"/>
</g>
<!-- Node13 -->
<g id="node14" class="node"><title>Node13</title>
<polygon fill="white" stroke="#bfbfbf" points="657,-56.5 657,-75.5 703,-75.5 703,-56.5 657,-56.5"/>
<text text-anchor="middle" x="680" y="-63.5" font-family="Helvetica,sans-Serif" font-size="10.00">TFile.h</text>
</g>
<!-- Node1&#45;&gt;Node13 -->
<g id="edge15" class="edge"><title>Node1&#45;&gt;Node13</title>
<path fill="none" stroke="midnightblue" d="M680,-112.083C680,-105.006 680,-94.8611 680,-85.9865"/>
<polygon fill="midnightblue" stroke="midnightblue" points="683.5,-85.751 680,-75.7511 676.5,-85.7511 683.5,-85.751"/>
</g>
<!-- Node14 -->
<g id="node15" class="node"><title>Node14</title>
<polygon fill="white" stroke="#bfbfbf" points="721.5,-56.5 721.5,-75.5 794.5,-75.5 794.5,-56.5 721.5,-56.5"/>
<text text-anchor="middle" x="758" y="-63.5" font-family="Helvetica,sans-Serif" font-size="10.00">TDirectory.h</text>
</g>
<!-- Node1&#45;&gt;Node14 -->
<g id="edge16" class="edge"><title>Node1&#45;&gt;Node14</title>
<path fill="none" stroke="midnightblue" d="M692.532,-112.324C704.586,-103.979 723.027,-91.2122 737.269,-81.3524"/>
<polygon fill="midnightblue" stroke="midnightblue" points="739.269,-84.2243 745.499,-75.6545 735.285,-78.469 739.269,-84.2243"/>
</g>
<!-- Node15 -->
<g id="node16" class="node"><title>Node15</title>
<polygon fill="white" stroke="#bfbfbf" points="812.5,-56.5 812.5,-75.5 865.5,-75.5 865.5,-56.5 812.5,-56.5"/>
<text text-anchor="middle" x="839" y="-63.5" font-family="Helvetica,sans-Serif" font-size="10.00">TError.h</text>
</g>
<!-- Node1&#45;&gt;Node15 -->
<g id="edge17" class="edge"><title>Node1&#45;&gt;Node15</title>
<path fill="none" stroke="midnightblue" d="M705.194,-112.444C731.943,-103.359 774.403,-88.9388 804.305,-78.7831"/>
<polygon fill="midnightblue" stroke="midnightblue" points="805.581,-82.0464 813.924,-75.5164 803.329,-75.4182 805.581,-82.0464"/>
</g>
<!-- Node16 -->
<g id="node17" class="node"><title>Node16</title>
<polygon fill="white" stroke="#bfbfbf" points="883.5,-56.5 883.5,-75.5 930.5,-75.5 930.5,-56.5 883.5,-56.5"/>
<text text-anchor="middle" x="907" y="-63.5" font-family="Helvetica,sans-Serif" font-size="10.00">TList.h</text>
</g>
<!-- Node1&#45;&gt;Node16 -->
<g id="edge18" class="edge"><title>Node1&#45;&gt;Node16</title>
<path fill="none" stroke="midnightblue" d="M714.791,-113.352C751.715,-105.142 812,-91.4734 873.379,-76.0824"/>
<polygon fill="midnightblue" stroke="midnightblue" points="874.394,-79.436 883.236,-73.598 872.683,-72.6483 874.394,-79.436"/>
</g>
<!-- Node17 -->
<g id="node18" class="node"><title>Node17</title>
<polygon fill="white" stroke="#bfbfbf" points="371.5,-56.5 371.5,-75.5 448.5,-75.5 448.5,-56.5 371.5,-56.5"/>
<text text-anchor="middle" x="410" y="-63.5" font-family="Helvetica,sans-Serif" font-size="10.00">TCollection.h</text>
</g>
<!-- Node1&#45;&gt;Node17 -->
<g id="edge19" class="edge"><title>Node1&#45;&gt;Node17</title>
<path fill="none" stroke="midnightblue" d="M645.255,-114.051C597.755,-104.551 512.318,-87.4637 458.522,-76.7043"/>
<polygon fill="midnightblue" stroke="midnightblue" points="459.025,-73.2358 448.533,-74.7066 457.652,-80.0999 459.025,-73.2358"/>
</g>
<!-- Node18 -->
<g id="node19" class="node"><title>Node18</title>
<polygon fill="white" stroke="#bfbfbf" points="505,-56.5 505,-75.5 551,-75.5 551,-56.5 505,-56.5"/>
<text text-anchor="middle" x="528" y="-63.5" font-family="Helvetica,sans-Serif" font-size="10.00">TKey.h</text>
</g>
<!-- Node1&#45;&gt;Node18 -->
<g id="edge20" class="edge"><title>Node1&#45;&gt;Node18</title>
<path fill="none" stroke="midnightblue" d="M655.915,-112.444C630.306,-103.345 589.631,-88.8952 561.038,-78.7372"/>
<polygon fill="midnightblue" stroke="midnightblue" points="562.067,-75.3887 551.473,-75.339 559.724,-81.9848 562.067,-75.3887"/>
</g>
<!-- Node19 -->
<g id="node20" class="node"><title>Node19</title>
<polygon fill="white" stroke="#bfbfbf" points="1107,-56.5 1107,-75.5 1137,-75.5 1137,-56.5 1107,-56.5"/>
<text text-anchor="middle" x="1122" y="-63.5" font-family="Helvetica,sans-Serif" font-size="10.00">list</text>
</g>
<!-- Node1&#45;&gt;Node19 -->
<g id="edge23" class="edge"><title>Node1&#45;&gt;Node19</title>
<path fill="none" stroke="midnightblue" d="M714.618,-117.209C781.452,-109.821 932.883,-92.75 1060,-76 1072.18,-74.3956 1085.67,-72.4556 1096.96,-70.7882"/>
<polygon fill="midnightblue" stroke="midnightblue" points="1097.61,-74.23 1106.98,-69.2929 1096.57,-67.3065 1097.61,-74.23"/>
</g>
<!-- Node20 -->
<g id="node21" class="node"><title>Node20</title>
<polygon fill="white" stroke="#bfbfbf" points="569,-56.5 569,-75.5 601,-75.5 601,-56.5 569,-56.5"/>
<text text-anchor="middle" x="585" y="-63.5" font-family="Helvetica,sans-Serif" font-size="10.00">set</text>
</g>
<!-- Node1&#45;&gt;Node20 -->
<g id="edge24" class="edge"><title>Node1&#45;&gt;Node20</title>
<path fill="none" stroke="midnightblue" d="M664.737,-112.324C649.779,-103.822 626.745,-90.7288 609.273,-80.7975"/>
<polygon fill="midnightblue" stroke="midnightblue" points="610.649,-77.5534 600.226,-75.6545 607.19,-83.639 610.649,-77.5534"/>
</g>
<!-- Node1&#45;&gt;Node21 -->
<g id="edge25" class="edge"><title>Node1&#45;&gt;Node21</title>
<path fill="none" stroke="midnightblue" d="M714.805,-116.124C769.764,-108.318 879.969,-92.2379 973,-76 974.263,-75.7796 975.544,-75.5523 976.837,-75.3197"/>
<polygon fill="midnightblue" stroke="midnightblue" points="977.666,-78.7258 986.86,-73.4617 976.39,-71.843 977.666,-78.7258"/>
</g>
<!-- Node2&#45;&gt;Node3 -->
<g id="edge3" class="edge"><title>Node2&#45;&gt;Node3</title>
<path fill="none" stroke="midnightblue" d="M222.798,-56.8588C225.569,-56.5516 228.313,-56.2631 231,-56 499.12,-29.7394 824.385,-16.0476 926.64,-12.1707"/>
<polygon fill="midnightblue" stroke="midnightblue" points="927.054,-15.6578 936.916,-11.7859 926.792,-8.66266 927.054,-15.6578"/>
</g>
<!-- Node4 -->
<g id="node5" class="node"><title>Node4</title>
<polygon fill="white" stroke="#bfbfbf" points="0,-0.5 0,-19.5 56,-19.5 56,-0.5 0,-0.5"/>
<text text-anchor="middle" x="28" y="-7.5" font-family="Helvetica,sans-Serif" font-size="10.00">sstream</text>
</g>
<!-- Node2&#45;&gt;Node4 -->
<g id="edge4" class="edge"><title>Node2&#45;&gt;Node4</title>
<path fill="none" stroke="midnightblue" d="M142.45,-56.4435C119.969,-47.5171 84.5123,-33.4387 59.0201,-23.3168"/>
<polygon fill="midnightblue" stroke="midnightblue" points="60.0346,-19.9539 49.4488,-19.5164 57.4513,-26.4598 60.0346,-19.9539"/>
</g>
<!-- Node5 -->
<g id="node6" class="node"><title>Node5</title>
<polygon fill="white" stroke="#bfbfbf" points="140,-0.5 140,-19.5 202,-19.5 202,-0.5 140,-0.5"/>
<text text-anchor="middle" x="171" y="-7.5" font-family="Helvetica,sans-Serif" font-size="10.00">algorithm</text>
</g>
<!-- Node2&#45;&gt;Node5 -->
<g id="edge5" class="edge"><title>Node2&#45;&gt;Node5</title>
<path fill="none" stroke="midnightblue" d="M165.156,-56.083C166.084,-48.9272 167.418,-38.6353 168.577,-29.6911"/>
<polygon fill="midnightblue" stroke="midnightblue" points="172.051,-30.1181 169.866,-19.7511 165.109,-29.2181 172.051,-30.1181"/>
</g>
<!-- Node6 -->
<g id="node7" class="node"><title>Node6</title>
<polygon fill="white" stroke="#bfbfbf" points="74.5,-0.5 74.5,-19.5 121.5,-19.5 121.5,-0.5 74.5,-0.5"/>
<text text-anchor="middle" x="98" y="-7.5" font-family="Helvetica,sans-Serif" font-size="10.00">vector</text>
</g>
<!-- Node2&#45;&gt;Node6 -->
<g id="edge6" class="edge"><title>Node2&#45;&gt;Node6</title>
<path fill="none" stroke="midnightblue" d="M153.396,-56.324C143.544,-48.2631 128.649,-36.0765 116.785,-26.3695"/>
<polygon fill="midnightblue" stroke="midnightblue" points="118.753,-23.4575 108.797,-19.8339 114.32,-28.8752 118.753,-23.4575"/>
</g>
<!-- Node7&#45;&gt;Node3 -->
<g id="edge14" class="edge"><title>Node7&#45;&gt;Node3</title>
<path fill="none" stroke="midnightblue" d="M353.695,-56.938C356.501,-56.6054 359.281,-56.2904 362,-56 577.265,-33.0067 837.435,-17.6404 926.945,-12.7109"/>
<polygon fill="midnightblue" stroke="midnightblue" points="927.206,-16.2019 937,-12.1617 926.824,-9.21236 927.206,-16.2019"/>
</g>
<!-- Node7&#45;&gt;Node5 -->
<g id="edge8" class="edge"><title>Node7&#45;&gt;Node5</title>
<path fill="none" stroke="midnightblue" d="M277.035,-56.4435C256.391,-47.5961 223.937,-33.6875 200.368,-23.5865"/>
<polygon fill="midnightblue" stroke="midnightblue" points="201.442,-20.2387 190.872,-19.5164 198.684,-26.6727 201.442,-20.2387"/>
</g>
<!-- Node7&#45;&gt;Node8 -->
<g id="edge9" class="edge"><title>Node7&#45;&gt;Node8</title>
<path fill="none" stroke="midnightblue" d="M325.522,-56.4435C356.066,-47.2801 404.708,-32.6876 438.603,-22.5192"/>
<polygon fill="midnightblue" stroke="midnightblue" points="440.039,-25.7424 448.612,-19.5164 438.028,-19.0376 440.039,-25.7424"/>
</g>
<!-- Node9 -->
<g id="node10" class="node"><title>Node9</title>
<polygon fill="white" stroke="#bfbfbf" points="380.5,-0.5 380.5,-19.5 427.5,-19.5 427.5,-0.5 380.5,-0.5"/>
<text text-anchor="middle" x="404" y="-7.5" font-family="Helvetica,sans-Serif" font-size="10.00">cmath</text>
</g>
<!-- Node7&#45;&gt;Node9 -->
<g id="edge10" class="edge"><title>Node7&#45;&gt;Node9</title>
<path fill="none" stroke="midnightblue" d="M314.191,-56.324C331.351,-47.6641 357.946,-34.2424 377.747,-24.249"/>
<polygon fill="midnightblue" stroke="midnightblue" points="379.501,-27.2847 386.851,-19.6545 376.347,-21.0354 379.501,-27.2847"/>
</g>
<!-- Node10 -->
<g id="node11" class="node"><title>Node10</title>
<polygon fill="white" stroke="#bfbfbf" points="220,-0.5 220,-19.5 276,-19.5 276,-0.5 220,-0.5"/>
<text text-anchor="middle" x="248" y="-7.5" font-family="Helvetica,sans-Serif" font-size="10.00">cxxabi.h</text>
</g>
<!-- Node7&#45;&gt;Node10 -->
<g id="edge11" class="edge"><title>Node7&#45;&gt;Node10</title>
<path fill="none" stroke="midnightblue" d="M288.909,-56.083C281.845,-48.2982 271.412,-36.8015 262.851,-27.3665"/>
<polygon fill="midnightblue" stroke="midnightblue" points="265.253,-24.8047 255.941,-19.7511 260.069,-29.5087 265.253,-24.8047"/>
</g>
<!-- Node11 -->
<g id="node12" class="node"><title>Node11</title>
<polygon fill="white" stroke="#bfbfbf" points="294,-0.5 294,-19.5 362,-19.5 362,-0.5 294,-0.5"/>
<text text-anchor="middle" x="328" y="-7.5" font-family="Helvetica,sans-Serif" font-size="10.00">type_traits</text>
</g>
<!-- Node7&#45;&gt;Node11 -->
<g id="edge12" class="edge"><title>Node7&#45;&gt;Node11</title>
<path fill="none" stroke="midnightblue" d="M302.119,-56.083C306.408,-48.6127 312.658,-37.7244 317.942,-28.5199"/>
<polygon fill="midnightblue" stroke="midnightblue" points="321.033,-30.1662 322.976,-19.7511 314.962,-26.6811 321.033,-30.1662"/>
</g>
<!-- Node7&#45;&gt;Node12 -->
<g id="edge13" class="edge"><title>Node7&#45;&gt;Node12</title>
<path fill="none" stroke="midnightblue" d="M349.606,-56.4435C416.531,-45.5582 530.557,-27.0118 590.137,-17.3211"/>
<polygon fill="midnightblue" stroke="midnightblue" points="590.95,-20.735 600.258,-15.6749 589.826,-13.8258 590.95,-20.735"/>
</g>
<!-- Node22&#45;&gt;Node12 -->
<g id="edge28" class="edge"><title>Node22&#45;&gt;Node12</title>
<path fill="none" stroke="midnightblue" d="M1022.13,-112.402C1043.8,-99.7836 1077.68,-75.6186 1060,-56 1033.98,-27.1199 769.032,-15.5407 667.922,-12.1512"/>
<polygon fill="midnightblue" stroke="midnightblue" points="667.93,-8.64967 657.821,-11.8217 667.701,-15.646 667.93,-8.64967"/>
</g>
<!-- Node22&#45;&gt;Node19 -->
<g id="edge29" class="edge"><title>Node22&#45;&gt;Node19</title>
<path fill="none" stroke="midnightblue" d="M1024.38,-112.444C1044.1,-103.262 1075.53,-88.6313 1097.38,-78.4605"/>
<polygon fill="midnightblue" stroke="midnightblue" points="1099.08,-81.5302 1106.67,-74.1368 1096.13,-75.1841 1099.08,-81.5302"/>
</g>
<!-- Node23&#45;&gt;Node3 -->
<g id="edge33" class="edge"><title>Node23&#45;&gt;Node3</title>
<path fill="none" stroke="midnightblue" d="M1132.6,-112.096C1143.11,-98.6543 1159.36,-72.9534 1146,-56 1127.08,-31.9918 1039.59,-19.3084 991.279,-14.0303"/>
<polygon fill="midnightblue" stroke="midnightblue" points="991.629,-10.5479 981.319,-12.9864 990.9,-17.5098 991.629,-10.5479"/>
</g>
<!-- Node23&#45;&gt;Node19 -->
<g id="edge32" class="edge"><title>Node23&#45;&gt;Node19</title>
<path fill="none" stroke="midnightblue" d="M1124.5,-112.083C1124.11,-105.006 1123.55,-94.8611 1123.05,-85.9865"/>
<polygon fill="midnightblue" stroke="midnightblue" points="1126.54,-85.5415 1122.49,-75.7511 1119.55,-85.9299 1126.54,-85.5415"/>
</g>
<!-- Node25 -->
<g id="node26" class="node"><title>Node25</title>
<polygon fill="white" stroke="#bfbfbf" points="1231.5,-56.5 1231.5,-75.5 1330.5,-75.5 1330.5,-56.5 1231.5,-56.5"/>
<text text-anchor="middle" x="1281" y="-63.5" font-family="Helvetica,sans-Serif" font-size="10.00">easylogging++.h</text>
</g>
<!-- Node24&#45;&gt;Node25 -->
<g id="edge36" class="edge"><title>Node24&#45;&gt;Node25</title>
<path fill="none" stroke="midnightblue" d="M1263.47,-112.083C1266.31,-104.77 1270.43,-94.1814 1273.96,-85.1034"/>
<polygon fill="midnightblue" stroke="midnightblue" points="1277.23,-86.3397 1277.6,-75.7511 1270.71,-83.8025 1277.23,-86.3397"/>
</g>
</g>
</svg>
