<?xml version="1.0" encoding="UTF-8" standalone="no"?>
<!DOCTYPE svg PUBLIC "-//W3C//DTD SVG 1.1//EN"
 "http://www.w3.org/Graphics/SVG/1.1/DTD/svg11.dtd">
<!-- Generated by graphviz version 2.38.0 (20140413.2041)
 -->
<!-- Title: src/calibration/modules/CB_TimeWalk.h Pages: 1 -->
<svg width="1976pt" height="117pt"
 viewBox="0.00 0.00 1976.00 117.00" xmlns="http://www.w3.org/2000/svg" xmlns:xlink="http://www.w3.org/1999/xlink">
<g id="graph0" class="graph" transform="scale(1 1) rotate(0) translate(4 113)">
<title>src/calibration/modules/CB_TimeWalk.h</title>
<polygon fill="white" stroke="none" points="-4,4 -4,-113 1972,-113 1972,4 -4,4"/>
<!-- Node49 -->
<g id="node1" class="node"><title>Node49</title>
<polygon fill="#bfbfbf" stroke="black" points="928,-78.5 928,-108.5 1056,-108.5 1056,-78.5 928,-78.5"/>
<text text-anchor="start" x="936" y="-96.5" font-family="Helvetica,sans-Serif" font-size="10.00">src/calibration/modules</text>
<text text-anchor="middle" x="992" y="-85.5" font-family="Helvetica,sans-Serif" font-size="10.00">/CB_TimeWalk.h</text>
</g>
<!-- Node50 -->
<g id="node2" class="node"><title>Node50</title>
<g id="a_node2"><a xlink:href="calibration_2modules_2_c_b___time_walk_8cc.html" target="_top" xlink:title="src/calibration/modules\l/CB_TimeWalk.cc">
<polygon fill="white" stroke="black" points="0,-6 0,-36 128,-36 128,-6 0,-6"/>
<text text-anchor="start" x="8" y="-24" font-family="Helvetica,sans-Serif" font-size="10.00">src/calibration/modules</text>
<text text-anchor="middle" x="64" y="-13" font-family="Helvetica,sans-Serif" font-size="10.00">/CB_TimeWalk.cc</text>
</a>
</g>
</g>
<!-- Node49&#45;&gt;Node50 -->
<g id="edge1" class="edge"><title>Node49&#45;&gt;Node50</title>
<path fill="none" stroke="midnightblue" d="M917.549,-93.2915C768.373,-93.7385 422.668,-89.0403 137,-42 128.053,-40.5268 118.626,-38.3948 109.628,-36.0662"/>
<polygon fill="midnightblue" stroke="midnightblue" points="917.961,-96.79 927.947,-93.2509 917.933,-89.79 917.961,-96.79"/>
</g>
<!-- Node51 -->
<g id="node3" class="node"><title>Node51</title>
<g id="a_node3"><a xlink:href="_setup__2007___base_8cc.html" target="_top" xlink:title="src/expconfig/setups\l/Setup_2007_Base.cc">
<polygon fill="white" stroke="black" points="146,-6 146,-36 266,-36 266,-6 146,-6"/>
<text text-anchor="start" x="154" y="-24" font-family="Helvetica,sans-Serif" font-size="10.00">src/expconfig/setups</text>
<text text-anchor="middle" x="206" y="-13" font-family="Helvetica,sans-Serif" font-size="10.00">/Setup_2007_Base.cc</text>
</a>
</g>
</g>
<!-- Node49&#45;&gt;Node51 -->
<g id="edge2" class="edge"><title>Node49&#45;&gt;Node51</title>
<path fill="none" stroke="midnightblue" d="M917.339,-92.4224C786.284,-91.138 506.755,-83.268 275,-42 266.527,-40.4913 257.609,-38.343 249.102,-36.0094"/>
<polygon fill="midnightblue" stroke="midnightblue" points="917.625,-95.9249 927.656,-92.5128 917.687,-88.9252 917.625,-95.9249"/>
</g>
<!-- Node52 -->
<g id="node4" class="node"><title>Node52</title>
<g id="a_node4"><a xlink:href="_setup__2010__03___base_8cc.html" target="_top" xlink:title="src/expconfig/setups\l/Setup_2010_03_Base.cc">
<polygon fill="white" stroke="black" points="284.5,-6 284.5,-36 421.5,-36 421.5,-6 284.5,-6"/>
<text text-anchor="start" x="292.5" y="-24" font-family="Helvetica,sans-Serif" font-size="10.00">src/expconfig/setups</text>
<text text-anchor="middle" x="353" y="-13" font-family="Helvetica,sans-Serif" font-size="10.00">/Setup_2010_03_Base.cc</text>
</a>
</g>
</g>
<!-- Node49&#45;&gt;Node52 -->
<g id="edge3" class="edge"><title>Node49&#45;&gt;Node52</title>
<path fill="none" stroke="midnightblue" d="M917.78,-89.7198C809.758,-84.7961 603.214,-72.0671 430,-42 420.883,-40.4174 411.263,-38.2932 402.029,-36.0194"/>
<polygon fill="midnightblue" stroke="midnightblue" points="917.775,-93.223 927.921,-90.1723 918.087,-86.23 917.775,-93.223"/>
</g>
<!-- Node53 -->
<g id="node5" class="node"><title>Node53</title>
<g id="a_node5"><a xlink:href="_setup__2014___e_p_t_8cc.html" target="_top" xlink:title="src/expconfig/setups\l/Setup_2014_EPT.cc">
<polygon fill="white" stroke="black" points="439.5,-6 439.5,-36 554.5,-36 554.5,-6 439.5,-6"/>
<text text-anchor="start" x="447.5" y="-24" font-family="Helvetica,sans-Serif" font-size="10.00">src/expconfig/setups</text>
<text text-anchor="middle" x="497" y="-13" font-family="Helvetica,sans-Serif" font-size="10.00">/Setup_2014_EPT.cc</text>
</a>
</g>
</g>
<!-- Node49&#45;&gt;Node53 -->
<g id="edge4" class="edge"><title>Node49&#45;&gt;Node53</title>
<path fill="none" stroke="midnightblue" d="M917.831,-87.653C831.988,-81.1446 686.691,-67.3522 564,-42 556.154,-40.3787 547.9,-38.2641 539.97,-36.0182"/>
<polygon fill="midnightblue" stroke="midnightblue" points="917.766,-91.1579 927.999,-88.4109 918.287,-84.1772 917.766,-91.1579"/>
</g>
<!-- Node54 -->
<g id="node6" class="node"><title>Node54</title>
<g id="a_node6"><a xlink:href="_setup__2015__01___pion_8cc.html" target="_top" xlink:title="src/expconfig/setups\l/Setup_2015_01_Pion.cc">
<polygon fill="white" stroke="black" points="573,-6 573,-36 707,-36 707,-6 573,-6"/>
<text text-anchor="start" x="581" y="-24" font-family="Helvetica,sans-Serif" font-size="10.00">src/expconfig/setups</text>
<text text-anchor="middle" x="640" y="-13" font-family="Helvetica,sans-Serif" font-size="10.00">/Setup_2015_01_Pion.cc</text>
</a>
</g>
</g>
<!-- Node49&#45;&gt;Node54 -->
<g id="edge5" class="edge"><title>Node49&#45;&gt;Node54</title>
<path fill="none" stroke="midnightblue" d="M917.724,-80.4919C861.989,-71.0985 783.925,-57.1285 716,-42 708.01,-40.2203 699.59,-38.1763 691.381,-36.0895"/>
<polygon fill="midnightblue" stroke="midnightblue" points="917.422,-83.9901 927.863,-82.1918 918.58,-77.0865 917.422,-83.9901"/>
</g>
<!-- Node55 -->
<g id="node7" class="node"><title>Node55</title>
<g id="a_node7"><a xlink:href="_setup__2017__03_8cc.html" target="_top" xlink:title="src/expconfig/setups\l/Setup_2017_03.cc">
<polygon fill="white" stroke="black" points="725.5,-6 725.5,-36 840.5,-36 840.5,-6 725.5,-6"/>
<text text-anchor="start" x="733.5" y="-24" font-family="Helvetica,sans-Serif" font-size="10.00">src/expconfig/setups</text>
<text text-anchor="middle" x="783" y="-13" font-family="Helvetica,sans-Serif" font-size="10.00">/Setup_2017_03.cc</text>
</a>
</g>
</g>
<!-- Node49&#45;&gt;Node55 -->
<g id="edge6" class="edge"><title>Node49&#45;&gt;Node55</title>
<path fill="none" stroke="midnightblue" d="M940.727,-75.2046C905.093,-63.1843 858.193,-47.3642 824.82,-36.1069"/>
<polygon fill="midnightblue" stroke="midnightblue" points="939.864,-78.6073 950.458,-78.4872 942.102,-71.9744 939.864,-78.6073"/>
</g>
<!-- Node56 -->
<g id="node8" class="node"><title>Node56</title>
<g id="a_node8"><a xlink:href="_setup__2017__05_8cc.html" target="_top" xlink:title="src/expconfig/setups\l/Setup_2017_05.cc">
<polygon fill="white" stroke="black" points="858.5,-6 858.5,-36 973.5,-36 973.5,-6 858.5,-6"/>
<text text-anchor="start" x="866.5" y="-24" font-family="Helvetica,sans-Serif" font-size="10.00">src/expconfig/setups</text>
<text text-anchor="middle" x="916" y="-13" font-family="Helvetica,sans-Serif" font-size="10.00">/Setup_2017_05.cc</text>
</a>
</g>
</g>
<!-- Node49&#45;&gt;Node56 -->
<g id="edge7" class="edge"><title>Node49&#45;&gt;Node56</title>
<path fill="none" stroke="midnightblue" d="M968.973,-71.139C956.687,-59.7429 941.917,-46.0414 931.097,-36.0049"/>
<polygon fill="midnightblue" stroke="midnightblue" points="966.909,-73.9984 976.62,-78.2333 971.669,-68.8664 966.909,-73.9984"/>
</g>
<!-- Node57 -->
<g id="node9" class="node"><title>Node57</title>
<g id="a_node9"><a xlink:href="_setup__2017_plus___new_tagger___base_8cc.html" target="_top" xlink:title="src/expconfig/setups\l/Setup_2017Plus_NewTagger\l_Base.cc">
<polygon fill="white" stroke="black" points="992,-0.5 992,-41.5 1146,-41.5 1146,-0.5 992,-0.5"/>
<text text-anchor="start" x="1000" y="-29.5" font-family="Helvetica,sans-Serif" font-size="10.00">src/expconfig/setups</text>
<text text-anchor="start" x="1000" y="-18.5" font-family="Helvetica,sans-Serif" font-size="10.00">/Setup_2017Plus_NewTagger</text>
<text text-anchor="middle" x="1069" y="-7.5" font-family="Helvetica,sans-Serif" font-size="10.00">_Base.cc</text>
</a>
</g>
</g>
<!-- Node49&#45;&gt;Node57 -->
<g id="edge8" class="edge"><title>Node49&#45;&gt;Node57</title>
<path fill="none" stroke="midnightblue" d="M1015.07,-71.3792C1025.39,-61.9277 1037.49,-50.8524 1047.61,-41.5884"/>
<polygon fill="midnightblue" stroke="midnightblue" points="1012.59,-68.8989 1007.58,-78.2333 1017.32,-74.0618 1012.59,-68.8989"/>
</g>
<!-- Node58 -->
<g id="node10" class="node"><title>Node58</title>
<g id="a_node10"><a xlink:href="_setup__2018__11_8cc.html" target="_top" xlink:title="src/expconfig/setups\l/Setup_2018_11.cc">
<polygon fill="white" stroke="black" points="1164.5,-6 1164.5,-36 1279.5,-36 1279.5,-6 1164.5,-6"/>
<text text-anchor="start" x="1172.5" y="-24" font-family="Helvetica,sans-Serif" font-size="10.00">src/expconfig/setups</text>
<text text-anchor="middle" x="1222" y="-13" font-family="Helvetica,sans-Serif" font-size="10.00">/Setup_2018_11.cc</text>
</a>
</g>
</g>
<!-- Node49&#45;&gt;Node58 -->
<g id="edge9" class="edge"><title>Node49&#45;&gt;Node58</title>
<path fill="none" stroke="midnightblue" d="M1047.42,-75.5119C1086.76,-63.4551 1138.94,-47.4604 1175.98,-36.1069"/>
<polygon fill="midnightblue" stroke="midnightblue" points="1046.25,-72.2101 1037.72,-78.4872 1048.3,-78.9028 1046.25,-72.2101"/>
</g>
<!-- Node59 -->
<g id="node11" class="node"><title>Node59</title>
<g id="a_node11"><a xlink:href="_setup__2019__01_8cc.html" target="_top" xlink:title="src/expconfig/setups\l/Setup_2019_01.cc">
<polygon fill="white" stroke="black" points="1297.5,-6 1297.5,-36 1412.5,-36 1412.5,-6 1297.5,-6"/>
<text text-anchor="start" x="1305.5" y="-24" font-family="Helvetica,sans-Serif" font-size="10.00">src/expconfig/setups</text>
<text text-anchor="middle" x="1355" y="-13" font-family="Helvetica,sans-Serif" font-size="10.00">/Setup_2019_01.cc</text>
</a>
</g>
</g>
<!-- Node49&#45;&gt;Node59 -->
<g id="edge10" class="edge"><title>Node49&#45;&gt;Node59</title>
<path fill="none" stroke="midnightblue" d="M1066.4,-82.5014C1126.79,-73.7516 1213.92,-59.6837 1289,-42 1296.34,-40.2706 1304.07,-38.1812 1311.54,-36.0136"/>
<polygon fill="midnightblue" stroke="midnightblue" points="1065.6,-79.0808 1056.2,-83.9662 1066.59,-86.0097 1065.6,-79.0808"/>
</g>
<!-- Node60 -->
<g id="node12" class="node"><title>Node60</title>
<g id="a_node12"><a xlink:href="_setup__2019__06_8cc.html" target="_top" xlink:title="src/expconfig/setups\l/Setup_2019_06.cc">
<polygon fill="white" stroke="black" points="1430.5,-6 1430.5,-36 1545.5,-36 1545.5,-6 1430.5,-6"/>
<text text-anchor="start" x="1438.5" y="-24" font-family="Helvetica,sans-Serif" font-size="10.00">src/expconfig/setups</text>
<text text-anchor="middle" x="1488" y="-13" font-family="Helvetica,sans-Serif" font-size="10.00">/Setup_2019_06.cc</text>
</a>
</g>
</g>
<!-- Node49&#45;&gt;Node60 -->
<g id="edge11" class="edge"><title>Node49&#45;&gt;Node60</title>
<path fill="none" stroke="midnightblue" d="M1066.54,-87.7748C1152.8,-81.3791 1298.79,-67.6913 1422,-42 1429.74,-40.387 1437.87,-38.2763 1445.68,-36.0318"/>
<polygon fill="midnightblue" stroke="midnightblue" points="1066.04,-84.3017 1056.32,-88.5189 1066.55,-91.2832 1066.04,-84.3017"/>
</g>
<!-- Node61 -->
<g id="node13" class="node"><title>Node61</title>
<g id="a_node13"><a xlink:href="_setup__2019__07_8cc.html" target="_top" xlink:title="src/expconfig/setups\l/Setup_2019_07.cc">
<polygon fill="white" stroke="black" points="1563.5,-6 1563.5,-36 1678.5,-36 1678.5,-6 1563.5,-6"/>
<text text-anchor="start" x="1571.5" y="-24" font-family="Helvetica,sans-Serif" font-size="10.00">src/expconfig/setups</text>
<text text-anchor="middle" x="1621" y="-13" font-family="Helvetica,sans-Serif" font-size="10.00">/Setup_2019_07.cc</text>
</a>
</g>
</g>
<!-- Node49&#45;&gt;Node61 -->
<g id="edge12" class="edge"><title>Node49&#45;&gt;Node61</title>
<path fill="none" stroke="midnightblue" d="M1066.52,-90.6619C1174.95,-86.8968 1382.12,-75.5802 1555,-42 1562.99,-40.4476 1571.4,-38.3088 1579.43,-36.0047"/>
<polygon fill="midnightblue" stroke="midnightblue" points="1066.22,-87.17 1056.34,-91.0032 1066.46,-94.1661 1066.22,-87.17"/>
</g>
<!-- Node62 -->
<g id="node14" class="node"><title>Node62</title>
<g id="a_node14"><a xlink:href="_setup__2019__09_8cc.html" target="_top" xlink:title="src/expconfig/setups\l/Setup_2019_09.cc">
<polygon fill="white" stroke="black" points="1696.5,-6 1696.5,-36 1811.5,-36 1811.5,-6 1696.5,-6"/>
<text text-anchor="start" x="1704.5" y="-24" font-family="Helvetica,sans-Serif" font-size="10.00">src/expconfig/setups</text>
<text text-anchor="middle" x="1754" y="-13" font-family="Helvetica,sans-Serif" font-size="10.00">/Setup_2019_09.cc</text>
</a>
</g>
</g>
<!-- Node49&#45;&gt;Node62 -->
<g id="edge13" class="edge"><title>Node49&#45;&gt;Node62</title>
<path fill="none" stroke="midnightblue" d="M1066.51,-92.4863C1194.63,-91.2665 1464.45,-83.4496 1688,-42 1696.12,-40.4939 1704.66,-38.3468 1712.8,-36.0135"/>
<polygon fill="midnightblue" stroke="midnightblue" points="1066.39,-88.9871 1056.42,-92.5715 1066.45,-95.9869 1066.39,-88.9871"/>
</g>
<!-- Node63 -->
<g id="node15" class="node"><title>Node63</title>
<g id="a_node15"><a xlink:href="expconfig__helpers_8cc.html" target="_top" xlink:title="test/expconfig_helpers.cc">
<polygon fill="white" stroke="black" points="1830,-11.5 1830,-30.5 1968,-30.5 1968,-11.5 1830,-11.5"/>
<text text-anchor="middle" x="1899" y="-18.5" font-family="Helvetica,sans-Serif" font-size="10.00">test/expconfig_helpers.cc</text>
</a>
</g>
</g>
<!-- Node49&#45;&gt;Node63 -->
<g id="edge14" class="edge"><title>Node49&#45;&gt;Node63</title>
<path fill="none" stroke="midnightblue" d="M1066.31,-92.6896C1212.02,-92.0234 1545.05,-85.378 1821,-42 1837.85,-39.3515 1856.35,-34.6851 1871.11,-30.5256"/>
<polygon fill="midnightblue" stroke="midnightblue" points="1066.14,-89.1901 1056.15,-92.7276 1066.16,-96.19 1066.14,-89.1901"/>
</g>
</g>
</svg>
