<?xml version="1.0" encoding="UTF-8" standalone="no"?>
<!DOCTYPE svg PUBLIC "-//W3C//DTD SVG 1.1//EN"
 "http://www.w3.org/Graphics/SVG/1.1/DTD/svg11.dtd">
<!-- Generated by graphviz version 2.38.0 (20140413.2041)
 -->
<!-- Title: src/calibration/modules/TaggEff.h Pages: 1 -->
<svg width="2191pt" height="106pt"
 viewBox="0.00 0.00 2191.00 106.00" xmlns="http://www.w3.org/2000/svg" xmlns:xlink="http://www.w3.org/1999/xlink">
<g id="graph0" class="graph" transform="scale(1 1) rotate(0) translate(4 102)">
<title>src/calibration/modules/TaggEff.h</title>
<polygon fill="white" stroke="none" points="-4,4 -4,-102 2187,-102 2187,4 -4,4"/>
<!-- Node49 -->
<g id="node1" class="node"><title>Node49</title>
<polygon fill="#bfbfbf" stroke="black" points="1063.5,-67.5 1063.5,-97.5 1191.5,-97.5 1191.5,-67.5 1063.5,-67.5"/>
<text text-anchor="start" x="1071.5" y="-85.5" font-family="Helvetica,sans-Serif" font-size="10.00">src/calibration/modules</text>
<text text-anchor="middle" x="1127.5" y="-74.5" font-family="Helvetica,sans-Serif" font-size="10.00">/TaggEff.h</text>
</g>
<!-- Node50 -->
<g id="node2" class="node"><title>Node50</title>
<g id="a_node2"><a xlink:href="_ant-make_lin_pol_8cc.html" target="_top" xlink:title="progs/Ant&#45;makeLinPol.cc">
<polygon fill="white" stroke="black" points="0,-6 0,-25 135,-25 135,-6 0,-6"/>
<text text-anchor="middle" x="67.5" y="-13" font-family="Helvetica,sans-Serif" font-size="10.00">progs/Ant&#45;makeLinPol.cc</text>
</a>
</g>
</g>
<!-- Node49&#45;&gt;Node50 -->
<g id="edge1" class="edge"><title>Node49&#45;&gt;Node50</title>
<path fill="none" stroke="midnightblue" d="M1053.34,-81.1617C888.928,-79.6536 481.601,-71.7337 143.5,-31 131.498,-29.554 118.541,-27.3325 106.785,-25.0596"/>
<polygon fill="midnightblue" stroke="midnightblue" points="1053.32,-84.6615 1063.35,-81.2483 1053.38,-77.6618 1053.32,-84.6615"/>
</g>
<!-- Node51 -->
<g id="node3" class="node"><title>Node51</title>
<g id="a_node3"><a xlink:href="_ant-make_tagg_eff_8cc.html" target="_top" xlink:title="progs/Ant&#45;makeTaggEff.cc">
<polygon fill="white" stroke="black" points="153,-6 153,-25 294,-25 294,-6 153,-6"/>
<text text-anchor="middle" x="223.5" y="-13" font-family="Helvetica,sans-Serif" font-size="10.00">progs/Ant&#45;makeTaggEff.cc</text>
</a>
</g>
</g>
<!-- Node49&#45;&gt;Node51 -->
<g id="edge2" class="edge"><title>Node49&#45;&gt;Node51</title>
<path fill="none" stroke="midnightblue" d="M1053.33,-79.8878C908.645,-76.095 578.803,-64.2675 303.5,-31 291.028,-29.4929 277.559,-27.2812 265.293,-25.0369"/>
<polygon fill="midnightblue" stroke="midnightblue" points="1053.34,-83.3891 1063.42,-80.1472 1053.52,-76.3914 1053.34,-83.3891"/>
</g>
<!-- Node52 -->
<g id="node4" class="node"><title>Node52</title>
<g id="a_node4"><a xlink:href="analysis_2slowcontrol_2processors_2_tagg_eff_8cc.html" target="_top" xlink:title="src/analysis/slowcontrol\l/processors/TaggEff.cc">
<polygon fill="white" stroke="black" points="312.5,-0.5 312.5,-30.5 440.5,-30.5 440.5,-0.5 312.5,-0.5"/>
<text text-anchor="start" x="320.5" y="-18.5" font-family="Helvetica,sans-Serif" font-size="10.00">src/analysis/slowcontrol</text>
<text text-anchor="middle" x="376.5" y="-7.5" font-family="Helvetica,sans-Serif" font-size="10.00">/processors/TaggEff.cc</text>
</a>
</g>
</g>
<!-- Node49&#45;&gt;Node52 -->
<g id="edge3" class="edge"><title>Node49&#45;&gt;Node52</title>
<path fill="none" stroke="midnightblue" d="M1052.96,-78.9167C927.792,-73.9153 667.633,-60.6753 449.5,-31 446.555,-30.5994 443.55,-30.1537 440.52,-29.6743"/>
<polygon fill="midnightblue" stroke="midnightblue" points="1053.07,-82.4233 1063.2,-79.3191 1053.34,-75.4287 1053.07,-82.4233"/>
</g>
<!-- Node53 -->
<g id="node5" class="node"><title>Node53</title>
<g id="a_node5"><a xlink:href="calibration_2modules_2_tagg_eff_8cc.html" target="_top" xlink:title="src/calibration/modules\l/TaggEff.cc">
<polygon fill="white" stroke="black" points="458.5,-0.5 458.5,-30.5 586.5,-30.5 586.5,-0.5 458.5,-0.5"/>
<text text-anchor="start" x="466.5" y="-18.5" font-family="Helvetica,sans-Serif" font-size="10.00">src/calibration/modules</text>
<text text-anchor="middle" x="522.5" y="-7.5" font-family="Helvetica,sans-Serif" font-size="10.00">/TaggEff.cc</text>
</a>
</g>
</g>
<!-- Node49&#45;&gt;Node53 -->
<g id="edge4" class="edge"><title>Node49&#45;&gt;Node53</title>
<path fill="none" stroke="midnightblue" d="M1053.38,-76.8484C950.323,-69.8391 758.076,-54.7999 595.5,-31 592.559,-30.5695 589.558,-30.0994 586.53,-29.6001"/>
<polygon fill="midnightblue" stroke="midnightblue" points="1053.16,-80.3415 1063.37,-77.522 1053.63,-73.3574 1053.16,-80.3415"/>
</g>
<!-- Node54 -->
<g id="node6" class="node"><title>Node54</title>
<g id="a_node6"><a xlink:href="_setup__2014___e_p_t_8cc.html" target="_top" xlink:title="src/expconfig/setups\l/Setup_2014_EPT.cc">
<polygon fill="white" stroke="black" points="605,-0.5 605,-30.5 720,-30.5 720,-0.5 605,-0.5"/>
<text text-anchor="start" x="613" y="-18.5" font-family="Helvetica,sans-Serif" font-size="10.00">src/expconfig/setups</text>
<text text-anchor="middle" x="662.5" y="-7.5" font-family="Helvetica,sans-Serif" font-size="10.00">/Setup_2014_EPT.cc</text>
</a>
</g>
</g>
<!-- Node49&#45;&gt;Node54 -->
<g id="edge5" class="edge"><title>Node49&#45;&gt;Node54</title>
<path fill="none" stroke="midnightblue" d="M1053.29,-74.1356C972.945,-65.6901 841.164,-50.4648 728.5,-31 725.726,-30.5207 722.891,-30.0038 720.033,-29.4605"/>
<polygon fill="midnightblue" stroke="midnightblue" points="1053,-77.6245 1063.31,-75.1819 1053.73,-70.6624 1053,-77.6245"/>
</g>
<!-- Node55 -->
<g id="node7" class="node"><title>Node55</title>
<g id="a_node7"><a xlink:href="_setup__2017__03_8cc.html" target="_top" xlink:title="src/expconfig/setups\l/Setup_2017_03.cc">
<polygon fill="white" stroke="black" points="738,-0.5 738,-30.5 853,-30.5 853,-0.5 738,-0.5"/>
<text text-anchor="start" x="746" y="-18.5" font-family="Helvetica,sans-Serif" font-size="10.00">src/expconfig/setups</text>
<text text-anchor="middle" x="795.5" y="-7.5" font-family="Helvetica,sans-Serif" font-size="10.00">/Setup_2017_03.cc</text>
</a>
</g>
</g>
<!-- Node49&#45;&gt;Node55 -->
<g id="edge6" class="edge"><title>Node49&#45;&gt;Node55</title>
<path fill="none" stroke="midnightblue" d="M1053.37,-68.0151C999.95,-58.1535 926.177,-44.2412 861.5,-31 858.742,-30.4353 855.92,-29.849 853.072,-29.2502"/>
<polygon fill="midnightblue" stroke="midnightblue" points="1052.97,-71.5 1063.44,-69.87 1054.24,-64.6158 1052.97,-71.5"/>
</g>
<!-- Node56 -->
<g id="node8" class="node"><title>Node56</title>
<g id="a_node8"><a xlink:href="_setup__2017__05_8cc.html" target="_top" xlink:title="src/expconfig/setups\l/Setup_2017_05.cc">
<polygon fill="white" stroke="black" points="871,-0.5 871,-30.5 986,-30.5 986,-0.5 871,-0.5"/>
<text text-anchor="start" x="879" y="-18.5" font-family="Helvetica,sans-Serif" font-size="10.00">src/expconfig/setups</text>
<text text-anchor="middle" x="928.5" y="-7.5" font-family="Helvetica,sans-Serif" font-size="10.00">/Setup_2017_05.cc</text>
</a>
</g>
</g>
<!-- Node49&#45;&gt;Node56 -->
<g id="edge7" class="edge"><title>Node49&#45;&gt;Node56</title>
<path fill="none" stroke="midnightblue" d="M1074.62,-64.2278C1042.43,-53.7131 1001.83,-40.4508 971.596,-30.5765"/>
<polygon fill="midnightblue" stroke="midnightblue" points="1073.73,-67.618 1084.32,-67.396 1075.9,-60.964 1073.73,-67.618"/>
</g>
<!-- Node57 -->
<g id="node9" class="node"><title>Node57</title>
<g id="a_node9"><a xlink:href="_setup__2017__12_8cc.html" target="_top" xlink:title="src/expconfig/setups\l/Setup_2017_12.cc">
<polygon fill="white" stroke="black" points="1004,-0.5 1004,-30.5 1119,-30.5 1119,-0.5 1004,-0.5"/>
<text text-anchor="start" x="1012" y="-18.5" font-family="Helvetica,sans-Serif" font-size="10.00">src/expconfig/setups</text>
<text text-anchor="middle" x="1061.5" y="-7.5" font-family="Helvetica,sans-Serif" font-size="10.00">/Setup_2017_12.cc</text>
</a>
</g>
</g>
<!-- Node49&#45;&gt;Node57 -->
<g id="edge8" class="edge"><title>Node49&#45;&gt;Node57</title>
<path fill="none" stroke="midnightblue" d="M1105.99,-60.3115C1096.09,-50.5612 1084.61,-39.259 1075.79,-30.5765"/>
<polygon fill="midnightblue" stroke="midnightblue" points="1103.6,-62.8728 1113.18,-67.396 1108.51,-57.8853 1103.6,-62.8728"/>
</g>
<!-- Node58 -->
<g id="node10" class="node"><title>Node58</title>
<g id="a_node10"><a xlink:href="_setup__2018__03_8cc.html" target="_top" xlink:title="src/expconfig/setups\l/Setup_2018_03.cc">
<polygon fill="white" stroke="black" points="1137,-0.5 1137,-30.5 1252,-30.5 1252,-0.5 1137,-0.5"/>
<text text-anchor="start" x="1145" y="-18.5" font-family="Helvetica,sans-Serif" font-size="10.00">src/expconfig/setups</text>
<text text-anchor="middle" x="1194.5" y="-7.5" font-family="Helvetica,sans-Serif" font-size="10.00">/Setup_2018_03.cc</text>
</a>
</g>
</g>
<!-- Node49&#45;&gt;Node58 -->
<g id="edge9" class="edge"><title>Node49&#45;&gt;Node58</title>
<path fill="none" stroke="midnightblue" d="M1149.34,-60.3115C1159.39,-50.5612 1171.04,-39.259 1179.99,-30.5765"/>
<polygon fill="midnightblue" stroke="midnightblue" points="1146.78,-57.9207 1142.04,-67.396 1151.65,-62.9449 1146.78,-57.9207"/>
</g>
<!-- Node59 -->
<g id="node11" class="node"><title>Node59</title>
<g id="a_node11"><a xlink:href="_setup__2018__05_8cc.html" target="_top" xlink:title="src/expconfig/setups\l/Setup_2018_05.cc">
<polygon fill="white" stroke="black" points="1270,-0.5 1270,-30.5 1385,-30.5 1385,-0.5 1270,-0.5"/>
<text text-anchor="start" x="1278" y="-18.5" font-family="Helvetica,sans-Serif" font-size="10.00">src/expconfig/setups</text>
<text text-anchor="middle" x="1327.5" y="-7.5" font-family="Helvetica,sans-Serif" font-size="10.00">/Setup_2018_05.cc</text>
</a>
</g>
</g>
<!-- Node49&#45;&gt;Node59 -->
<g id="edge10" class="edge"><title>Node49&#45;&gt;Node59</title>
<path fill="none" stroke="midnightblue" d="M1180.65,-64.2278C1213,-53.7131 1253.81,-40.4508 1284.19,-30.5765"/>
<polygon fill="midnightblue" stroke="midnightblue" points="1179.33,-60.9764 1170.9,-67.396 1181.49,-67.6337 1179.33,-60.9764"/>
</g>
<!-- Node60 -->
<g id="node12" class="node"><title>Node60</title>
<g id="a_node12"><a xlink:href="_setup__2018__09_8cc.html" target="_top" xlink:title="src/expconfig/setups\l/Setup_2018_09.cc">
<polygon fill="white" stroke="black" points="1403,-0.5 1403,-30.5 1518,-30.5 1518,-0.5 1403,-0.5"/>
<text text-anchor="start" x="1411" y="-18.5" font-family="Helvetica,sans-Serif" font-size="10.00">src/expconfig/setups</text>
<text text-anchor="middle" x="1460.5" y="-7.5" font-family="Helvetica,sans-Serif" font-size="10.00">/Setup_2018_09.cc</text>
</a>
</g>
</g>
<!-- Node49&#45;&gt;Node60 -->
<g id="edge11" class="edge"><title>Node49&#45;&gt;Node60</title>
<path fill="none" stroke="midnightblue" d="M1201.64,-68.0802C1255.29,-58.2233 1329.48,-44.2892 1394.5,-31 1397.26,-30.4362 1400.08,-29.8507 1402.93,-29.2525"/>
<polygon fill="midnightblue" stroke="midnightblue" points="1200.74,-64.6875 1191.53,-69.9339 1202,-71.5726 1200.74,-64.6875"/>
</g>
<!-- Node61 -->
<g id="node13" class="node"><title>Node61</title>
<g id="a_node13"><a xlink:href="_setup__2018__11_8cc.html" target="_top" xlink:title="src/expconfig/setups\l/Setup_2018_11.cc">
<polygon fill="white" stroke="black" points="1536,-0.5 1536,-30.5 1651,-30.5 1651,-0.5 1536,-0.5"/>
<text text-anchor="start" x="1544" y="-18.5" font-family="Helvetica,sans-Serif" font-size="10.00">src/expconfig/setups</text>
<text text-anchor="middle" x="1593.5" y="-7.5" font-family="Helvetica,sans-Serif" font-size="10.00">/Setup_2018_11.cc</text>
</a>
</g>
</g>
<!-- Node49&#45;&gt;Node61 -->
<g id="edge12" class="edge"><title>Node49&#45;&gt;Node61</title>
<path fill="none" stroke="midnightblue" d="M1201.54,-74.1845C1282.06,-65.7566 1414.39,-50.5238 1527.5,-31 1530.27,-30.5211 1533.11,-30.0045 1535.97,-29.4616"/>
<polygon fill="midnightblue" stroke="midnightblue" points="1201.08,-70.713 1191.5,-75.2283 1201.81,-77.6755 1201.08,-70.713"/>
</g>
<!-- Node62 -->
<g id="node14" class="node"><title>Node62</title>
<g id="a_node14"><a xlink:href="_setup__2019__01_8cc.html" target="_top" xlink:title="src/expconfig/setups\l/Setup_2019_01.cc">
<polygon fill="white" stroke="black" points="1669,-0.5 1669,-30.5 1784,-30.5 1784,-0.5 1669,-0.5"/>
<text text-anchor="start" x="1677" y="-18.5" font-family="Helvetica,sans-Serif" font-size="10.00">src/expconfig/setups</text>
<text text-anchor="middle" x="1726.5" y="-7.5" font-family="Helvetica,sans-Serif" font-size="10.00">/Setup_2019_01.cc</text>
</a>
</g>
</g>
<!-- Node49&#45;&gt;Node62 -->
<g id="edge13" class="edge"><title>Node49&#45;&gt;Node62</title>
<path fill="none" stroke="midnightblue" d="M1201.83,-77.325C1305.16,-70.8699 1497.87,-56.4724 1660.5,-31 1663.28,-30.5643 1666.12,-30.0829 1668.99,-29.5681"/>
<polygon fill="midnightblue" stroke="midnightblue" points="1201.57,-73.834 1191.81,-77.9435 1202.01,-80.8207 1201.57,-73.834"/>
</g>
<!-- Node63 -->
<g id="node15" class="node"><title>Node63</title>
<g id="a_node15"><a xlink:href="_setup__2019__06_8cc.html" target="_top" xlink:title="src/expconfig/setups\l/Setup_2019_06.cc">
<polygon fill="white" stroke="black" points="1802,-0.5 1802,-30.5 1917,-30.5 1917,-0.5 1802,-0.5"/>
<text text-anchor="start" x="1810" y="-18.5" font-family="Helvetica,sans-Serif" font-size="10.00">src/expconfig/setups</text>
<text text-anchor="middle" x="1859.5" y="-7.5" font-family="Helvetica,sans-Serif" font-size="10.00">/Setup_2019_06.cc</text>
</a>
</g>
</g>
<!-- Node49&#45;&gt;Node63 -->
<g id="edge14" class="edge"><title>Node49&#45;&gt;Node63</title>
<path fill="none" stroke="midnightblue" d="M1201.75,-79.2757C1325.17,-74.8175 1580.09,-62.3748 1793.5,-31 1796.29,-30.5905 1799.13,-30.1303 1801.99,-29.6325"/>
<polygon fill="midnightblue" stroke="midnightblue" points="1201.53,-75.7813 1191.66,-79.633 1201.77,-82.777 1201.53,-75.7813"/>
</g>
<!-- Node64 -->
<g id="node16" class="node"><title>Node64</title>
<g id="a_node16"><a xlink:href="_setup__2019__07_8cc.html" target="_top" xlink:title="src/expconfig/setups\l/Setup_2019_07.cc">
<polygon fill="white" stroke="black" points="1935,-0.5 1935,-30.5 2050,-30.5 2050,-0.5 1935,-0.5"/>
<text text-anchor="start" x="1943" y="-18.5" font-family="Helvetica,sans-Serif" font-size="10.00">src/expconfig/setups</text>
<text text-anchor="middle" x="1992.5" y="-7.5" font-family="Helvetica,sans-Serif" font-size="10.00">/Setup_2019_07.cc</text>
</a>
</g>
</g>
<!-- Node49&#45;&gt;Node64 -->
<g id="edge15" class="edge"><title>Node49&#45;&gt;Node64</title>
<path fill="none" stroke="midnightblue" d="M1201.83,-80.5939C1343.49,-78.0293 1661.64,-68.2414 1926.5,-31 1929.17,-30.6243 1931.9,-30.1991 1934.64,-29.7362"/>
<polygon fill="midnightblue" stroke="midnightblue" points="1201.47,-77.0995 1191.53,-80.7731 1201.59,-84.0985 1201.47,-77.0995"/>
</g>
<!-- Node65 -->
<g id="node17" class="node"><title>Node65</title>
<g id="a_node17"><a xlink:href="_setup__2019__09_8cc.html" target="_top" xlink:title="src/expconfig/setups\l/Setup_2019_09.cc">
<polygon fill="white" stroke="black" points="2068,-0.5 2068,-30.5 2183,-30.5 2183,-0.5 2068,-0.5"/>
<text text-anchor="start" x="2076" y="-18.5" font-family="Helvetica,sans-Serif" font-size="10.00">src/expconfig/setups</text>
<text text-anchor="middle" x="2125.5" y="-7.5" font-family="Helvetica,sans-Serif" font-size="10.00">/Setup_2019_09.cc</text>
</a>
</g>
</g>
<!-- Node49&#45;&gt;Node65 -->
<g id="edge16" class="edge"><title>Node49&#45;&gt;Node65</title>
<path fill="none" stroke="midnightblue" d="M1201.79,-81.5506C1360.18,-80.7658 1742.52,-74.1174 2059.5,-31 2062.17,-30.6363 2064.9,-30.2209 2067.65,-29.7661"/>
<polygon fill="midnightblue" stroke="midnightblue" points="1201.67,-78.051 1191.68,-81.5941 1201.7,-85.0509 1201.67,-78.051"/>
</g>
</g>
</svg>
