<?xml version="1.0" encoding="UTF-8" standalone="no"?>
<!DOCTYPE svg PUBLIC "-//W3C//DTD SVG 1.1//EN"
 "http://www.w3.org/Graphics/SVG/1.1/DTD/svg11.dtd">
<!-- Generated by graphviz version 2.38.0 (20140413.2041)
 -->
<!-- Title: src/analysis/physics/scratch/lheijken/checktagger.h Pages: 1 -->
<svg width="177pt" height="106pt"
 viewBox="0.00 0.00 177.00 106.00" xmlns="http://www.w3.org/2000/svg" xmlns:xlink="http://www.w3.org/1999/xlink">
<g id="graph0" class="graph" transform="scale(1 1) rotate(0) translate(4 102)">
<title>src/analysis/physics/scratch/lheijken/checktagger.h</title>
<polygon fill="white" stroke="none" points="-4,4 -4,-102 173,-102 173,4 -4,4"/>
<!-- Node92 -->
<g id="node1" class="node"><title>Node92</title>
<polygon fill="#bfbfbf" stroke="black" points="2.5,-67.5 2.5,-97.5 166.5,-97.5 166.5,-67.5 2.5,-67.5"/>
<text text-anchor="start" x="10.5" y="-85.5" font-family="Helvetica,sans-Serif" font-size="10.00">src/analysis/physics</text>
<text text-anchor="middle" x="84.5" y="-74.5" font-family="Helvetica,sans-Serif" font-size="10.00">/scratch/lheijken/checktagger.h</text>
</g>
<!-- Node93 -->
<g id="node2" class="node"><title>Node93</title>
<g id="a_node2"><a xlink:href="checktagger_8cc.html" target="_top" xlink:title="src/analysis/physics\l/scratch/lheijken/checktagger.cc">
<polygon fill="white" stroke="black" points="-1.42109e-14,-0.5 -1.42109e-14,-30.5 169,-30.5 169,-0.5 -1.42109e-14,-0.5"/>
<text text-anchor="start" x="8" y="-18.5" font-family="Helvetica,sans-Serif" font-size="10.00">src/analysis/physics</text>
<text text-anchor="middle" x="84.5" y="-7.5" font-family="Helvetica,sans-Serif" font-size="10.00">/scratch/lheijken/checktagger.cc</text>
</a>
</g>
</g>
<!-- Node92&#45;&gt;Node93 -->
<g id="edge1" class="edge"><title>Node92&#45;&gt;Node93</title>
<path fill="none" stroke="midnightblue" d="M84.5,-57.1081C84.5,-48.1539 84.5,-38.3227 84.5,-30.5765"/>
<polygon fill="midnightblue" stroke="midnightblue" points="81.0001,-57.3959 84.5,-67.396 88.0001,-57.396 81.0001,-57.3959"/>
</g>
</g>
</svg>
