<?xml version="1.0" encoding="UTF-8" standalone="no"?>
<!DOCTYPE svg PUBLIC "-//W3C//DTD SVG 1.1//EN"
 "http://www.w3.org/Graphics/SVG/1.1/DTD/svg11.dtd">
<!-- Generated by graphviz version 2.38.0 (20140413.2041)
 -->
<!-- Title: ant::analysis::physics::scratch_lheijken_checkcb Pages: 1 -->
<svg width="1223pt" height="248pt"
 viewBox="0.00 0.00 1223.00 248.00" xmlns="http://www.w3.org/2000/svg" xmlns:xlink="http://www.w3.org/1999/xlink">
<g id="graph0" class="graph" transform="scale(1 1) rotate(0) translate(4 244)">
<title>ant::analysis::physics::scratch_lheijken_checkcb</title>
<polygon fill="white" stroke="none" points="-4,4 -4,-244 1219,-244 1219,4 -4,4"/>
<!-- Node2 -->
<g id="node1" class="node"><title>Node2</title>
<polygon fill="#bfbfbf" stroke="black" points="1072,-120.5 1072,-150.5 1215,-150.5 1215,-120.5 1072,-120.5"/>
<text text-anchor="start" x="1080" y="-138.5" font-family="Helvetica,sans-Serif" font-size="10.00">ant::analysis::physics</text>
<text text-anchor="middle" x="1143.5" y="-127.5" font-family="Helvetica,sans-Serif" font-size="10.00">::scratch_lheijken_checkcb</text>
</g>
<!-- Node3 -->
<g id="node2" class="node"><title>Node3</title>
<g id="a_node2"><a xlink:href="classant_1_1analysis_1_1_physics.html" target="_top" xlink:title="ant::analysis::Physics">
<polygon fill="white" stroke="black" points="822,-212 822,-231 940,-231 940,-212 822,-212"/>
<text text-anchor="middle" x="881" y="-219" font-family="Helvetica,sans-Serif" font-size="10.00">ant::analysis::Physics</text>
</a>
</g>
</g>
<!-- Node3&#45;&gt;Node2 -->
<g id="edge1" class="edge"><title>Node3&#45;&gt;Node2</title>
<path fill="none" stroke="midnightblue" d="M950.414,-217.575C982.689,-214.025 1021.22,-207.284 1054,-194.5 1080.84,-184.033 1107.83,-164.414 1124.82,-150.683"/>
<polygon fill="midnightblue" stroke="midnightblue" points="949.764,-214.123 940.171,-218.619 950.474,-221.087 949.764,-214.123"/>
</g>
<!-- Node4 -->
<g id="node3" class="node"><title>Node4</title>
<g id="a_node3"><a xlink:href="classant_1_1analysis_1_1_histogram_factory.html" target="_top" xlink:title="ant::analysis::Histogram\lFactory">
<polygon fill="white" stroke="black" points="557.5,-209.5 557.5,-239.5 690.5,-239.5 690.5,-209.5 557.5,-209.5"/>
<text text-anchor="start" x="565.5" y="-227.5" font-family="Helvetica,sans-Serif" font-size="10.00">ant::analysis::Histogram</text>
<text text-anchor="middle" x="624" y="-216.5" font-family="Helvetica,sans-Serif" font-size="10.00">Factory</text>
</a>
</g>
</g>
<!-- Node4&#45;&gt;Node3 -->
<g id="edge2" class="edge"><title>Node4&#45;&gt;Node3</title>
<path fill="none" stroke="#9a32cd" stroke-dasharray="5,2" d="M700.865,-223.607C739.633,-223.151 786.064,-222.605 821.94,-222.183"/>
<polygon fill="#9a32cd" stroke="#9a32cd" points="700.627,-220.11 690.669,-223.727 700.709,-227.109 700.627,-220.11"/>
<text text-anchor="middle" x="748" y="-225.5" font-family="Helvetica,sans-Serif" font-size="10.00"> HistFac</text>
</g>
<!-- Node5 -->
<g id="node4" class="node"><title>Node5</title>
<g id="a_node4"><a xlink:href="structant_1_1calibration_1_1converter_1_1_ge_si_ca___s_a_d_c.html" target="_top" xlink:title="ant::calibration::converter\l::GeSiCa_SADC">
<polygon fill="white" stroke="black" points="396,-204.5 396,-234.5 536,-234.5 536,-204.5 396,-204.5"/>
<text text-anchor="start" x="404" y="-222.5" font-family="Helvetica,sans-Serif" font-size="10.00">ant::calibration::converter</text>
<text text-anchor="middle" x="466" y="-211.5" font-family="Helvetica,sans-Serif" font-size="10.00">::GeSiCa_SADC</text>
</a>
</g>
</g>
<!-- Node5&#45;&gt;Node2 -->
<g id="edge3" class="edge"><title>Node5&#45;&gt;Node2</title>
<path fill="none" stroke="#9a32cd" stroke-dasharray="5,2" d="M542.017,-202.548C546.062,-201.812 550.075,-201.123 554,-200.5 774.572,-165.506 832.665,-180.289 1054,-150.5 1059.71,-149.731 1065.63,-148.871 1071.56,-147.962"/>
<polygon fill="#9a32cd" stroke="#9a32cd" points="541.101,-199.159 531.929,-204.463 542.407,-206.036 541.101,-199.159"/>
<text text-anchor="middle" x="748" y="-182.5" font-family="Helvetica,sans-Serif" font-size="10.00"> adc_converter</text>
</g>
<!-- Node6 -->
<g id="node5" class="node"><title>Node6</title>
<g id="a_node5"><a xlink:href="structant_1_1_calibration_1_1_converter.html" target="_top" xlink:title="The Converter struct handles the transition from raw bytes to somewhat meaningful values (not necessa...">
<polygon fill="white" stroke="black" points="0,-203 0,-222 143,-222 143,-203 0,-203"/>
<text text-anchor="middle" x="71.5" y="-210" font-family="Helvetica,sans-Serif" font-size="10.00">ant::Calibration::Converter</text>
</a>
</g>
</g>
<!-- Node6&#45;&gt;Node5 -->
<g id="edge4" class="edge"><title>Node6&#45;&gt;Node5</title>
<path fill="none" stroke="midnightblue" d="M153.227,-215.306C155.848,-215.375 158.445,-215.44 161,-215.5 241.603,-217.396 334.25,-218.454 395.871,-218.998"/>
<polygon fill="midnightblue" stroke="midnightblue" points="153.117,-211.802 143.024,-215.022 152.922,-218.799 153.117,-211.802"/>
</g>
<!-- Node9 -->
<g id="node8" class="node"><title>Node9</title>
<g id="a_node8"><a xlink:href="structant_1_1calibration_1_1converter_1_1_multi_hit.html" target="_top" xlink:title="ant::calibration::converter\l::MultiHit\&lt; std::uint16_t \&gt;">
<polygon fill="white" stroke="black" points="232.5,-175.5 232.5,-205.5 373.5,-205.5 373.5,-175.5 232.5,-175.5"/>
<text text-anchor="start" x="240.5" y="-193.5" font-family="Helvetica,sans-Serif" font-size="10.00">ant::calibration::converter</text>
<text text-anchor="middle" x="303" y="-182.5" font-family="Helvetica,sans-Serif" font-size="10.00">::MultiHit&lt; std::uint16_t &gt;</text>
</a>
</g>
</g>
<!-- Node6&#45;&gt;Node9 -->
<g id="edge8" class="edge"><title>Node6&#45;&gt;Node9</title>
<path fill="none" stroke="midnightblue" d="M153.345,-204.75C179.112,-202.28 207.385,-199.57 232.292,-197.182"/>
<polygon fill="midnightblue" stroke="midnightblue" points="152.851,-201.281 143.23,-205.72 153.519,-208.249 152.851,-201.281"/>
</g>
<!-- Node7 -->
<g id="node6" class="node"><title>Node7</title>
<g id="a_node6"><a xlink:href="structant_1_1calibration_1_1converter_1_1_c_a_t_c_h___t_d_c.html" target="_top" xlink:title="ant::calibration::converter\l::CATCH_TDC">
<polygon fill="white" stroke="black" points="811,-120.5 811,-150.5 951,-150.5 951,-120.5 811,-120.5"/>
<text text-anchor="start" x="819" y="-138.5" font-family="Helvetica,sans-Serif" font-size="10.00">ant::calibration::converter</text>
<text text-anchor="middle" x="881" y="-127.5" font-family="Helvetica,sans-Serif" font-size="10.00">::CATCH_TDC</text>
</a>
</g>
</g>
<!-- Node7&#45;&gt;Node2 -->
<g id="edge5" class="edge"><title>Node7&#45;&gt;Node2</title>
<path fill="none" stroke="#9a32cd" stroke-dasharray="5,2" d="M961.356,-135.5C996.527,-135.5 1037.57,-135.5 1071.69,-135.5"/>
<polygon fill="#9a32cd" stroke="#9a32cd" points="961.125,-132 951.125,-135.5 961.125,-139 961.125,-132"/>
<text text-anchor="middle" x="1016" y="-138.5" font-family="Helvetica,sans-Serif" font-size="10.00"> tdc_converter</text>
</g>
<!-- Node8 -->
<g id="node7" class="node"><title>Node8</title>
<g id="a_node7"><a xlink:href="structant_1_1calibration_1_1converter_1_1_multi_hit_reference.html" target="_top" xlink:title="ant::calibration::converter\l::MultiHitReference\&lt; std\l::uint16_t \&gt;">
<polygon fill="white" stroke="black" points="554,-111 554,-152 694,-152 694,-111 554,-111"/>
<text text-anchor="start" x="562" y="-140" font-family="Helvetica,sans-Serif" font-size="10.00">ant::calibration::converter</text>
<text text-anchor="start" x="562" y="-129" font-family="Helvetica,sans-Serif" font-size="10.00">::MultiHitReference&lt; std</text>
<text text-anchor="middle" x="624" y="-118" font-family="Helvetica,sans-Serif" font-size="10.00">::uint16_t &gt;</text>
</a>
</g>
</g>
<!-- Node8&#45;&gt;Node7 -->
<g id="edge6" class="edge"><title>Node8&#45;&gt;Node7</title>
<path fill="none" stroke="midnightblue" d="M704.411,-132.746C738.537,-133.281 778.048,-133.901 810.938,-134.417"/>
<polygon fill="midnightblue" stroke="midnightblue" points="704.06,-129.24 694.007,-132.582 703.951,-136.239 704.06,-129.24"/>
</g>
<!-- Node9&#45;&gt;Node8 -->
<g id="edge7" class="edge"><title>Node9&#45;&gt;Node8</title>
<path fill="none" stroke="midnightblue" d="M383.646,-177.663C428.489,-170.211 485.467,-160.369 536,-150.5 541.766,-149.374 547.737,-148.163 553.725,-146.919"/>
<polygon fill="midnightblue" stroke="midnightblue" points="382.982,-174.225 373.688,-179.312 384.125,-181.131 382.982,-174.225"/>
</g>
<!-- Node10 -->
<g id="node9" class="node"><title>Node10</title>
<g id="a_node9"><a xlink:href="structant_1_1_reconstruct_hook_1_1_detector_read_hits.html" target="_top" xlink:title="The DetectorReadHits struct instances are applied before hit matching. ">
<polygon fill="white" stroke="black" points="243.5,-126.5 243.5,-156.5 362.5,-156.5 362.5,-126.5 243.5,-126.5"/>
<text text-anchor="start" x="251.5" y="-144.5" font-family="Helvetica,sans-Serif" font-size="10.00">ant::ReconstructHook</text>
<text text-anchor="middle" x="303" y="-133.5" font-family="Helvetica,sans-Serif" font-size="10.00">::DetectorReadHits</text>
</a>
</g>
</g>
<!-- Node10&#45;&gt;Node8 -->
<g id="edge9" class="edge"><title>Node10&#45;&gt;Node8</title>
<path fill="none" stroke="midnightblue" d="M372.588,-139.35C426.092,-137.673 500.087,-135.353 553.757,-133.671"/>
<polygon fill="midnightblue" stroke="midnightblue" points="372.395,-135.854 362.51,-139.666 372.614,-142.851 372.395,-135.854"/>
</g>
<!-- Node11 -->
<g id="node10" class="node"><title>Node11</title>
<g id="a_node10"><a xlink:href="structant_1_1_reconstruct_hook_1_1_base.html" target="_top" xlink:title="The Base struct just defines some useful types. ">
<polygon fill="white" stroke="black" points="12,-126.5 12,-156.5 131,-156.5 131,-126.5 12,-126.5"/>
<text text-anchor="start" x="20" y="-144.5" font-family="Helvetica,sans-Serif" font-size="10.00">ant::ReconstructHook</text>
<text text-anchor="middle" x="71.5" y="-133.5" font-family="Helvetica,sans-Serif" font-size="10.00">::Base</text>
</a>
</g>
</g>
<!-- Node11&#45;&gt;Node10 -->
<g id="edge10" class="edge"><title>Node11&#45;&gt;Node10</title>
<path fill="none" stroke="midnightblue" d="M141.323,-141.5C173.785,-141.5 212.119,-141.5 243.202,-141.5"/>
<polygon fill="midnightblue" stroke="midnightblue" points="141.006,-138 131.006,-141.5 141.006,-145 141.006,-138"/>
</g>
<!-- Node12 -->
<g id="node11" class="node"><title>Node12</title>
<g id="a_node11"><a xlink:href="structant_1_1_logical_channel__t.html" target="_top" xlink:title="The LogicalChannel_t struct uniquely identifies detector element within setup. ">
<polygon fill="white" stroke="black" points="243.5,-88 243.5,-107 362.5,-107 362.5,-88 243.5,-88"/>
<text text-anchor="middle" x="303" y="-95" font-family="Helvetica,sans-Serif" font-size="10.00">ant::LogicalChannel_t</text>
</a>
</g>
</g>
<!-- Node12&#45;&gt;Node8 -->
<g id="edge11" class="edge"><title>Node12&#45;&gt;Node8</title>
<path fill="none" stroke="#9a32cd" stroke-dasharray="5,2" d="M372.909,-103.261C419.103,-107.314 481.265,-113.133 536,-119.5 541.755,-120.169 547.719,-120.905 553.702,-121.671"/>
<polygon fill="#9a32cd" stroke="#9a32cd" points="372.978,-99.7542 362.712,-102.373 372.371,-106.728 372.978,-99.7542"/>
<text text-anchor="middle" x="466" y="-122.5" font-family="Helvetica,sans-Serif" font-size="10.00"> ReferenceChannel</text>
</g>
<!-- Node13 -->
<g id="node12" class="node"><title>Node13</title>
<polygon fill="white" stroke="#bfbfbf" points="228,-50 228,-69 378,-69 378,-50 228,-50"/>
<text text-anchor="middle" x="303" y="-57" font-family="Helvetica,sans-Serif" font-size="10.00">std::vector&lt; std::uint16_t &gt;</text>
</g>
<!-- Node13&#45;&gt;Node8 -->
<g id="edge12" class="edge"><title>Node13&#45;&gt;Node8</title>
<path fill="none" stroke="#9a32cd" stroke-dasharray="5,2" d="M388.255,-65.1235C432.837,-69.5918 488.113,-77.5217 536,-91.5 552.437,-96.2979 569.731,-103.71 584.531,-110.856"/>
<polygon fill="#9a32cd" stroke="#9a32cd" points="388.329,-61.6145 378.04,-64.1411 387.659,-68.5824 388.329,-61.6145"/>
<text text-anchor="middle" x="466" y="-94.5" font-family="Helvetica,sans-Serif" font-size="10.00"> ReferenceHits</text>
</g>
<!-- Node14 -->
<g id="node13" class="node"><title>Node14</title>
<g id="a_node13"><a xlink:href="classant_1_1analysis_1_1utils_1_1_trigger_simulation.html" target="_top" xlink:title="ant::analysis::utils\l::TriggerSimulation">
<polygon fill="white" stroke="black" points="828.5,-71.5 828.5,-101.5 933.5,-101.5 933.5,-71.5 828.5,-71.5"/>
<text text-anchor="start" x="836.5" y="-89.5" font-family="Helvetica,sans-Serif" font-size="10.00">ant::analysis::utils</text>
<text text-anchor="middle" x="881" y="-78.5" font-family="Helvetica,sans-Serif" font-size="10.00">::TriggerSimulation</text>
</a>
</g>
</g>
<!-- Node14&#45;&gt;Node2 -->
<g id="edge13" class="edge"><title>Node14&#45;&gt;Node2</title>
<path fill="none" stroke="#9a32cd" stroke-dasharray="5,2" d="M943.786,-98.1219C982.161,-105.34 1031.61,-114.642 1071.58,-122.161"/>
<polygon fill="#9a32cd" stroke="#9a32cd" points="944.253,-94.6484 933.778,-96.2394 942.958,-101.528 944.253,-94.6484"/>
<text text-anchor="middle" x="1016" y="-121.5" font-family="Helvetica,sans-Serif" font-size="10.00"> triggersimu</text>
</g>
<!-- Node15 -->
<g id="node14" class="node"><title>Node15</title>
<g id="a_node14"><a xlink:href="classant_1_1analysis_1_1_prompt_random_1_1_switch.html" target="_top" xlink:title="ant::analysis::PromptRandom\l::Switch">
<polygon fill="white" stroke="black" points="802,-21.5 802,-51.5 960,-51.5 960,-21.5 802,-21.5"/>
<text text-anchor="start" x="810" y="-39.5" font-family="Helvetica,sans-Serif" font-size="10.00">ant::analysis::PromptRandom</text>
<text text-anchor="middle" x="881" y="-28.5" font-family="Helvetica,sans-Serif" font-size="10.00">::Switch</text>
</a>
</g>
</g>
<!-- Node15&#45;&gt;Node2 -->
<g id="edge14" class="edge"><title>Node15&#45;&gt;Node2</title>
<path fill="none" stroke="#9a32cd" stroke-dasharray="5,2" d="M948.028,-54.4333C980.412,-63.9317 1019.73,-76.5196 1054,-90.5 1075.23,-99.1586 1098.28,-110.966 1115.54,-120.314"/>
<polygon fill="#9a32cd" stroke="#9a32cd" points="948.793,-51.011 938.214,-51.5866 946.843,-57.7339 948.793,-51.011"/>
<text text-anchor="middle" x="1016" y="-93.5" font-family="Helvetica,sans-Serif" font-size="10.00"> promptrandom</text>
</g>
<!-- Node16 -->
<g id="node15" class="node"><title>Node16</title>
<g id="a_node15"><a xlink:href="classant_1_1_piecewise_interval.html" target="_top" xlink:title="ant::PiecewiseInterval\l\&lt; double \&gt;">
<polygon fill="white" stroke="black" points="564.5,-14.5 564.5,-44.5 683.5,-44.5 683.5,-14.5 564.5,-14.5"/>
<text text-anchor="start" x="572.5" y="-32.5" font-family="Helvetica,sans-Serif" font-size="10.00">ant::PiecewiseInterval</text>
<text text-anchor="middle" x="624" y="-21.5" font-family="Helvetica,sans-Serif" font-size="10.00">&lt; double &gt;</text>
</a>
</g>
</g>
<!-- Node16&#45;&gt;Node15 -->
<g id="edge15" class="edge"><title>Node16&#45;&gt;Node15</title>
<path fill="none" stroke="#9a32cd" stroke-dasharray="5,2" d="M693.636,-31.3841C727.049,-32.3013 767.373,-33.4083 801.953,-34.3575"/>
<polygon fill="#9a32cd" stroke="#9a32cd" points="693.594,-27.8818 683.502,-31.1059 693.402,-34.8791 693.594,-27.8818"/>
<text text-anchor="middle" x="748" y="-48.5" font-family="Helvetica,sans-Serif" font-size="10.00"> promptw</text>
<text text-anchor="middle" x="748" y="-37.5" font-family="Helvetica,sans-Serif" font-size="10.00">randomw</text>
</g>
<!-- Node17 -->
<g id="node16" class="node"><title>Node17</title>
<g id="a_node16"><a xlink:title="STL class. ">
<polygon fill="white" stroke="#bfbfbf" points="246,-0.5 246,-30.5 360,-30.5 360,-0.5 246,-0.5"/>
<text text-anchor="start" x="254" y="-18.5" font-family="Helvetica,sans-Serif" font-size="10.00">std::vector&lt; interval</text>
<text text-anchor="middle" x="303" y="-7.5" font-family="Helvetica,sans-Serif" font-size="10.00">&lt; double &gt; &gt;</text>
</a>
</g>
</g>
<!-- Node17&#45;&gt;Node16 -->
<g id="edge16" class="edge"><title>Node17&#45;&gt;Node16</title>
<path fill="none" stroke="midnightblue" d="M370.326,-18.4109C427.55,-20.9223 509.414,-24.515 564.298,-26.9237"/>
<polygon fill="midnightblue" stroke="midnightblue" points="370.44,-14.9126 360.296,-17.9707 370.133,-21.9059 370.44,-14.9126"/>
</g>
<!-- Node18 -->
<g id="node17" class="node"><title>Node18</title>
<polygon fill="white" stroke="#bfbfbf" points="57,-6 57,-25 86,-25 86,-6 57,-6"/>
<text text-anchor="middle" x="71.5" y="-13" font-family="Helvetica,sans-Serif" font-size="10.00">T</text>
</g>
<!-- Node18&#45;&gt;Node17 -->
<g id="edge17" class="edge"><title>Node18&#45;&gt;Node17</title>
<path fill="none" stroke="#9a32cd" stroke-dasharray="5,2" d="M96.3874,-15.5C131.448,-15.5 197.863,-15.5 245.739,-15.5"/>
<polygon fill="#9a32cd" stroke="#9a32cd" points="96.169,-12.0001 86.169,-15.5 96.1689,-19.0001 96.169,-12.0001"/>
<text text-anchor="middle" x="185.5" y="-18.5" font-family="Helvetica,sans-Serif" font-size="10.00"> elements</text>
</g>
</g>
</svg>
