<?xml version="1.0" encoding="UTF-8" standalone="no"?>
<!DOCTYPE svg PUBLIC "-//W3C//DTD SVG 1.1//EN"
 "http://www.w3.org/Graphics/SVG/1.1/DTD/svg11.dtd">
<!-- Generated by graphviz version 2.38.0 (20140413.2041)
 -->
<!-- Title: ant::Calibration::Module Pages: 1 -->
<svg width="293pt" height="151pt"
 viewBox="0.00 0.00 293.00 151.00" xmlns="http://www.w3.org/2000/svg" xmlns:xlink="http://www.w3.org/1999/xlink">
<g id="graph0" class="graph" transform="scale(1 1) rotate(0) translate(4 147)">
<title>ant::Calibration::Module</title>
<polygon fill="white" stroke="none" points="-4,4 -4,-147 289,-147 289,4 -4,4"/>
<!-- Node17 -->
<g id="node1" class="node"><title>Node17</title>
<polygon fill="#bfbfbf" stroke="black" points="85,-0.5 85,-19.5 215,-19.5 215,-0.5 85,-0.5"/>
<text text-anchor="middle" x="150" y="-7.5" font-family="Helvetica,sans-Serif" font-size="10.00">ant::Calibration::Module</text>
</g>
<!-- Node18 -->
<g id="node2" class="node"><title>Node18</title>
<g id="a_node2"><a xlink:href="classant_1_1_calibration_1_1_physics_module.html" target="_top" xlink:title="The PhysicsModule class gives the modules the ability to create histograms from events as well as fit...">
<polygon fill="white" stroke="black" points="11.5,-56.5 11.5,-86.5 142.5,-86.5 142.5,-56.5 11.5,-56.5"/>
<text text-anchor="start" x="19.5" y="-74.5" font-family="Helvetica,sans-Serif" font-size="10.00">ant::Calibration::Physics</text>
<text text-anchor="middle" x="77" y="-63.5" font-family="Helvetica,sans-Serif" font-size="10.00">Module</text>
</a>
</g>
</g>
<!-- Node18&#45;&gt;Node17 -->
<g id="edge1" class="edge"><title>Node18&#45;&gt;Node17</title>
<path fill="none" stroke="midnightblue" d="M102.282,-49.8934C114.981,-39.5432 129.686,-27.5577 139.378,-19.6578"/>
<polygon fill="midnightblue" stroke="midnightblue" points="99.8401,-47.3684 94.3,-56.3993 104.263,-52.7944 99.8401,-47.3684"/>
</g>
<!-- Node19 -->
<g id="node3" class="node"><title>Node19</title>
<g id="a_node3"><a xlink:href="classant_1_1_calibration_1_1_base_module.html" target="_top" xlink:title="The BaseModule class provides a name for identification. ">
<polygon fill="white" stroke="black" points="0,-123.5 0,-142.5 154,-142.5 154,-123.5 0,-123.5"/>
<text text-anchor="middle" x="77" y="-130.5" font-family="Helvetica,sans-Serif" font-size="10.00">ant::Calibration::BaseModule</text>
</a>
</g>
</g>
<!-- Node19&#45;&gt;Node18 -->
<g id="edge2" class="edge"><title>Node19&#45;&gt;Node18</title>
<path fill="none" stroke="midnightblue" d="M77,-113.235C77,-104.586 77,-94.4969 77,-86.523"/>
<polygon fill="midnightblue" stroke="midnightblue" points="73.5001,-113.475 77,-123.475 80.5001,-113.475 73.5001,-113.475"/>
</g>
<!-- Node20 -->
<g id="node4" class="node"><title>Node20</title>
<g id="a_node4"><a xlink:href="structant_1_1_updateable__traits.html" target="_top" xlink:title="The Updateable_traits class used by the UpdateableManager. ">
<polygon fill="white" stroke="black" points="161,-62 161,-81 285,-81 285,-62 161,-62"/>
<text text-anchor="middle" x="223" y="-69" font-family="Helvetica,sans-Serif" font-size="10.00">ant::Updateable_traits</text>
</a>
</g>
</g>
<!-- Node20&#45;&gt;Node17 -->
<g id="edge3" class="edge"><title>Node20&#45;&gt;Node17</title>
<path fill="none" stroke="midnightblue" d="M204.563,-55.4727C190.601,-44.0925 171.924,-28.8694 160.44,-19.5091"/>
<polygon fill="midnightblue" stroke="midnightblue" points="202.578,-58.3701 212.541,-61.9751 207.001,-52.9442 202.578,-58.3701"/>
</g>
</g>
</svg>
