<?xml version="1.0" encoding="UTF-8" standalone="no"?>
<!DOCTYPE svg PUBLIC "-//W3C//DTD SVG 1.1//EN"
 "http://www.w3.org/Graphics/SVG/1.1/DTD/svg11.dtd">
<!-- Generated by graphviz version 2.38.0 (20140413.2041)
 -->
<!-- Title: ant::analysis::physics::PID_TAPSVeto_Kinfit Pages: 1 -->
<svg width="2321pt" height="484pt"
 viewBox="0.00 0.00 2321.00 483.50" xmlns="http://www.w3.org/2000/svg" xmlns:xlink="http://www.w3.org/1999/xlink">
<g id="graph0" class="graph" transform="scale(1 1) rotate(0) translate(4 479.5)">
<title>ant::analysis::physics::PID_TAPSVeto_Kinfit</title>
<polygon fill="white" stroke="none" points="-4,4 -4,-479.5 2317,-479.5 2317,4 -4,4"/>
<!-- Node2 -->
<g id="node1" class="node"><title>Node2</title>
<polygon fill="#bfbfbf" stroke="black" points="2195,-168.5 2195,-198.5 2313,-198.5 2313,-168.5 2195,-168.5"/>
<text text-anchor="start" x="2203" y="-186.5" font-family="Helvetica,sans-Serif" font-size="10.00">ant::analysis::physics</text>
<text text-anchor="middle" x="2254" y="-175.5" font-family="Helvetica,sans-Serif" font-size="10.00">::PID_TAPSVeto_Kinfit</text>
</g>
<!-- Node3 -->
<g id="node2" class="node"><title>Node3</title>
<g id="a_node2"><a xlink:href="classant_1_1analysis_1_1_physics.html" target="_top" xlink:title="ant::analysis::Physics">
<polygon fill="white" stroke="black" points="1547,-304 1547,-323 1665,-323 1665,-304 1547,-304"/>
<text text-anchor="middle" x="1606" y="-311" font-family="Helvetica,sans-Serif" font-size="10.00">ant::analysis::Physics</text>
</a>
</g>
</g>
<!-- Node3&#45;&gt;Node2 -->
<g id="edge1" class="edge"><title>Node3&#45;&gt;Node2</title>
<path fill="none" stroke="midnightblue" d="M1667.82,-302.052C1763.53,-283.932 1955.07,-247.231 2117,-213.5 2142.56,-208.175 2170.76,-202.003 2194.83,-196.648"/>
<polygon fill="midnightblue" stroke="midnightblue" points="1666.93,-298.66 1657.75,-303.958 1668.23,-305.538 1666.93,-298.66"/>
</g>
<!-- Node4 -->
<g id="node3" class="node"><title>Node4</title>
<g id="a_node3"><a xlink:href="classant_1_1analysis_1_1_histogram_factory.html" target="_top" xlink:title="ant::analysis::Histogram\lFactory">
<polygon fill="white" stroke="black" points="1153.5,-327.5 1153.5,-357.5 1286.5,-357.5 1286.5,-327.5 1153.5,-327.5"/>
<text text-anchor="start" x="1161.5" y="-345.5" font-family="Helvetica,sans-Serif" font-size="10.00">ant::analysis::Histogram</text>
<text text-anchor="middle" x="1220" y="-334.5" font-family="Helvetica,sans-Serif" font-size="10.00">Factory</text>
</a>
</g>
</g>
<!-- Node4&#45;&gt;Node3 -->
<g id="edge2" class="edge"><title>Node4&#45;&gt;Node3</title>
<path fill="none" stroke="#9a32cd" stroke-dasharray="5,2" d="M1296.69,-336.784C1370.16,-331.235 1480.1,-322.933 1546.92,-317.886"/>
<polygon fill="#9a32cd" stroke="#9a32cd" points="1296.28,-333.304 1286.58,-337.548 1296.81,-340.285 1296.28,-333.304"/>
<text text-anchor="middle" x="1355" y="-337.5" font-family="Helvetica,sans-Serif" font-size="10.00"> HistFac</text>
</g>
<!-- Node7 -->
<g id="node6" class="node"><title>Node7</title>
<g id="a_node6"><a xlink:href="structant_1_1analysis_1_1physics_1_1_p_i_d___t_a_p_s_veto___kinfit_1_1_multi_pi0.html" target="_top" xlink:title="ant::analysis::physics\l::PID_TAPSVeto_Kinfit\l::MultiPi0">
<polygon fill="white" stroke="black" points="1411,-163 1411,-204 1529,-204 1529,-163 1411,-163"/>
<text text-anchor="start" x="1419" y="-192" font-family="Helvetica,sans-Serif" font-size="10.00">ant::analysis::physics</text>
<text text-anchor="start" x="1419" y="-181" font-family="Helvetica,sans-Serif" font-size="10.00">::PID_TAPSVeto_Kinfit</text>
<text text-anchor="middle" x="1470" y="-170" font-family="Helvetica,sans-Serif" font-size="10.00">::MultiPi0</text>
</a>
</g>
</g>
<!-- Node4&#45;&gt;Node7 -->
<g id="edge31" class="edge"><title>Node4&#45;&gt;Node7</title>
<path fill="none" stroke="#9a32cd" stroke-dasharray="5,2" d="M1281.25,-324.217C1287.29,-322.077 1293.3,-319.824 1299,-317.5 1307.28,-314.125 1308.71,-311.857 1317,-308.5 1349.83,-295.205 1364.08,-304.96 1393,-284.5 1422.74,-263.459 1445.86,-227.238 1458.45,-204.371"/>
<polygon fill="#9a32cd" stroke="#9a32cd" points="1280.08,-320.919 1271.76,-327.48 1282.35,-327.538 1280.08,-320.919"/>
<text text-anchor="middle" x="1355" y="-311.5" font-family="Helvetica,sans-Serif" font-size="10.00"> HistFac</text>
</g>
<!-- Node5 -->
<g id="node4" class="node"><title>Node5</title>
<polygon fill="white" stroke="#bfbfbf" points="1934,-163 1934,-204 2117,-204 2117,-163 1934,-163"/>
<text text-anchor="start" x="1942" y="-192" font-family="Helvetica,sans-Serif" font-size="10.00">std::vector&lt; std::unique</text>
<text text-anchor="start" x="1942" y="-181" font-family="Helvetica,sans-Serif" font-size="10.00">_ptr&lt; ant::analysis::physics</text>
<text text-anchor="middle" x="2025.5" y="-170" font-family="Helvetica,sans-Serif" font-size="10.00">::PID_TAPSVeto_Kinfit::MultiPi0 &gt; &gt;</text>
</g>
<!-- Node5&#45;&gt;Node2 -->
<g id="edge3" class="edge"><title>Node5&#45;&gt;Node2</title>
<path fill="none" stroke="#9a32cd" stroke-dasharray="5,2" d="M2127.48,-183.5C2150.5,-183.5 2174.2,-183.5 2194.72,-183.5"/>
<polygon fill="#9a32cd" stroke="#9a32cd" points="2127.32,-180 2117.32,-183.5 2127.32,-187 2127.32,-180"/>
<text text-anchor="middle" x="2156" y="-186.5" font-family="Helvetica,sans-Serif" font-size="10.00"> multiPi0</text>
</g>
<!-- Node6 -->
<g id="node5" class="node"><title>Node6</title>
<polygon fill="white" stroke="#bfbfbf" points="1683,-163 1683,-204 1849,-204 1849,-163 1683,-163"/>
<text text-anchor="start" x="1691" y="-192" font-family="Helvetica,sans-Serif" font-size="10.00">std::unique_ptr&lt; ant</text>
<text text-anchor="start" x="1691" y="-181" font-family="Helvetica,sans-Serif" font-size="10.00">::analysis::physics::</text>
<text text-anchor="middle" x="1766" y="-170" font-family="Helvetica,sans-Serif" font-size="10.00">PID_TAPSVeto_Kinfit::MultiPi0 &gt;</text>
</g>
<!-- Node6&#45;&gt;Node5 -->
<g id="edge4" class="edge"><title>Node6&#45;&gt;Node5</title>
<path fill="none" stroke="#9a32cd" stroke-dasharray="5,2" d="M1859.42,-183.5C1883.6,-183.5 1909.64,-183.5 1933.73,-183.5"/>
<polygon fill="#9a32cd" stroke="#9a32cd" points="1859.18,-180 1849.18,-183.5 1859.18,-187 1859.18,-180"/>
<text text-anchor="middle" x="1891.5" y="-186.5" font-family="Helvetica,sans-Serif" font-size="10.00"> elements</text>
</g>
<!-- Node7&#45;&gt;Node6 -->
<g id="edge5" class="edge"><title>Node7&#45;&gt;Node6</title>
<path fill="none" stroke="#9a32cd" stroke-dasharray="5,2" d="M1539.13,-183.5C1581.99,-183.5 1637.54,-183.5 1682.83,-183.5"/>
<polygon fill="#9a32cd" stroke="#9a32cd" points="1539.08,-180 1529.08,-183.5 1539.08,-187 1539.08,-180"/>
<text text-anchor="middle" x="1606" y="-186.5" font-family="Helvetica,sans-Serif" font-size="10.00"> ptr</text>
</g>
<!-- Node8 -->
<g id="node7" class="node"><title>Node8</title>
<polygon fill="white" stroke="#bfbfbf" points="1141,-109 1141,-150 1299,-150 1299,-109 1141,-109"/>
<text text-anchor="start" x="1149" y="-138" font-family="Helvetica,sans-Serif" font-size="10.00">std::vector&lt; std::pair</text>
<text text-anchor="start" x="1149" y="-127" font-family="Helvetica,sans-Serif" font-size="10.00">&lt; utils::TreeFitter::tree</text>
<text text-anchor="middle" x="1220" y="-116" font-family="Helvetica,sans-Serif" font-size="10.00">_t, utils::TreeFitter::tree_t &gt; &gt;</text>
</g>
<!-- Node8&#45;&gt;Node7 -->
<g id="edge6" class="edge"><title>Node8&#45;&gt;Node7</title>
<path fill="none" stroke="#9a32cd" stroke-dasharray="5,2" d="M1309.02,-148.666C1342.86,-156.034 1380.61,-164.253 1410.93,-170.856"/>
<polygon fill="#9a32cd" stroke="#9a32cd" points="1309.64,-145.22 1299.13,-146.512 1308.15,-152.059 1309.64,-145.22"/>
<text text-anchor="middle" x="1355" y="-169.5" font-family="Helvetica,sans-Serif" font-size="10.00"> pions</text>
</g>
<!-- Node9 -->
<g id="node8" class="node"><title>Node9</title>
<g id="a_node8"><a xlink:href="classant_1_1analysis_1_1utils_1_1_tree_fitter.html" target="_top" xlink:title="ant::analysis::utils\l::TreeFitter">
<polygon fill="white" stroke="black" points="1169,-278.5 1169,-308.5 1271,-308.5 1271,-278.5 1169,-278.5"/>
<text text-anchor="start" x="1177" y="-296.5" font-family="Helvetica,sans-Serif" font-size="10.00">ant::analysis::utils</text>
<text text-anchor="middle" x="1220" y="-285.5" font-family="Helvetica,sans-Serif" font-size="10.00">::TreeFitter</text>
</a>
</g>
</g>
<!-- Node9&#45;&gt;Node7 -->
<g id="edge7" class="edge"><title>Node9&#45;&gt;Node7</title>
<path fill="none" stroke="#9a32cd" stroke-dasharray="5,2" d="M1281.18,-281.19C1322.62,-272.133 1373.58,-259.679 1393,-249.5 1414.98,-237.98 1435.96,-218.933 1450.28,-204.254"/>
<polygon fill="#9a32cd" stroke="#9a32cd" points="1280.18,-277.825 1271.15,-283.358 1281.66,-284.667 1280.18,-277.825"/>
<text text-anchor="middle" x="1355" y="-276.5" font-family="Helvetica,sans-Serif" font-size="10.00"> treefitter</text>
</g>
<!-- Node10 -->
<g id="node9" class="node"><title>Node10</title>
<g id="a_node9"><a xlink:href="classant_1_1analysis_1_1utils_1_1_kin_fitter.html" target="_top" xlink:title="ant::analysis::utils\l::KinFitter">
<polygon fill="white" stroke="black" points="880,-220.5 880,-250.5 982,-250.5 982,-220.5 880,-220.5"/>
<text text-anchor="start" x="888" y="-238.5" font-family="Helvetica,sans-Serif" font-size="10.00">ant::analysis::utils</text>
<text text-anchor="middle" x="931" y="-227.5" font-family="Helvetica,sans-Serif" font-size="10.00">::KinFitter</text>
</a>
</g>
</g>
<!-- Node10&#45;&gt;Node7 -->
<g id="edge25" class="edge"><title>Node10&#45;&gt;Node7</title>
<path fill="none" stroke="#9a32cd" stroke-dasharray="5,2" d="M992.135,-233.173C1080.41,-229.192 1250.09,-219.391 1393,-198.5 1398.72,-197.663 1404.67,-196.685 1410.6,-195.635"/>
<polygon fill="#9a32cd" stroke="#9a32cd" points="991.874,-229.681 982.039,-233.619 992.183,-236.674 991.874,-229.681"/>
<text text-anchor="middle" x="1220" y="-227.5" font-family="Helvetica,sans-Serif" font-size="10.00"> fitter</text>
</g>
<!-- Node10&#45;&gt;Node9 -->
<g id="edge8" class="edge"><title>Node10&#45;&gt;Node9</title>
<path fill="none" stroke="midnightblue" d="M992.148,-247.655C1044.51,-258.236 1119.52,-273.397 1168.74,-283.342"/>
<polygon fill="midnightblue" stroke="midnightblue" points="992.815,-244.219 982.32,-245.669 991.429,-251.081 992.815,-244.219"/>
</g>
<!-- Node11 -->
<g id="node10" class="node"><title>Node11</title>
<g id="a_node10"><a xlink:href="classant_1_1analysis_1_1utils_1_1_fitter.html" target="_top" xlink:title="ant::analysis::utils\l::Fitter">
<polygon fill="white" stroke="black" points="639.5,-220.5 639.5,-250.5 741.5,-250.5 741.5,-220.5 639.5,-220.5"/>
<text text-anchor="start" x="647.5" y="-238.5" font-family="Helvetica,sans-Serif" font-size="10.00">ant::analysis::utils</text>
<text text-anchor="middle" x="690.5" y="-227.5" font-family="Helvetica,sans-Serif" font-size="10.00">::Fitter</text>
</a>
</g>
</g>
<!-- Node11&#45;&gt;Node10 -->
<g id="edge9" class="edge"><title>Node11&#45;&gt;Node10</title>
<path fill="none" stroke="midnightblue" d="M751.835,-235.5C791.376,-235.5 842.458,-235.5 879.781,-235.5"/>
<polygon fill="midnightblue" stroke="midnightblue" points="751.788,-232 741.788,-235.5 751.788,-239 751.788,-232"/>
</g>
<!-- Node12 -->
<g id="node11" class="node"><title>Node12</title>
<g id="a_node11"><a xlink:href="structant_1_1analysis_1_1utils_1_1_kin_fitter_1_1_target__t.html" target="_top" xlink:title="ant::analysis::utils\l::KinFitter::Target_t">
<polygon fill="white" stroke="black" points="638,-171.5 638,-201.5 743,-201.5 743,-171.5 638,-171.5"/>
<text text-anchor="start" x="646" y="-189.5" font-family="Helvetica,sans-Serif" font-size="10.00">ant::analysis::utils</text>
<text text-anchor="middle" x="690.5" y="-178.5" font-family="Helvetica,sans-Serif" font-size="10.00">::KinFitter::Target_t</text>
</a>
</g>
</g>
<!-- Node12&#45;&gt;Node10 -->
<g id="edge10" class="edge"><title>Node12&#45;&gt;Node10</title>
<path fill="none" stroke="#9a32cd" stroke-dasharray="5,2" d="M753.276,-199.192C792.683,-207.288 843.095,-217.645 879.984,-225.224"/>
<polygon fill="#9a32cd" stroke="#9a32cd" points="753.751,-195.716 743.251,-197.132 752.342,-202.573 753.751,-195.716"/>
<text text-anchor="middle" x="800.5" y="-215.5" font-family="Helvetica,sans-Serif" font-size="10.00"> Target</text>
</g>
<!-- Node13 -->
<g id="node12" class="node"><title>Node13</title>
<g id="a_node12"><a xlink:href="structant_1_1analysis_1_1utils_1_1_kin_fitter_1_1_beam_e__t.html" target="_top" xlink:title="ant::analysis::utils\l::KinFitter::BeamE_t">
<polygon fill="white" stroke="black" points="635.5,-269.5 635.5,-299.5 745.5,-299.5 745.5,-269.5 635.5,-269.5"/>
<text text-anchor="start" x="643.5" y="-287.5" font-family="Helvetica,sans-Serif" font-size="10.00">ant::analysis::utils</text>
<text text-anchor="middle" x="690.5" y="-276.5" font-family="Helvetica,sans-Serif" font-size="10.00">::KinFitter::BeamE_t</text>
</a>
</g>
</g>
<!-- Node13&#45;&gt;Node10 -->
<g id="edge11" class="edge"><title>Node13&#45;&gt;Node10</title>
<path fill="none" stroke="#9a32cd" stroke-dasharray="5,2" d="M755.802,-271.289C794.737,-263.29 843.675,-253.236 879.759,-245.822"/>
<polygon fill="#9a32cd" stroke="#9a32cd" points="754.71,-267.94 745.619,-273.381 756.119,-274.797 754.71,-267.94"/>
<text text-anchor="middle" x="800.5" y="-269.5" font-family="Helvetica,sans-Serif" font-size="10.00"> BeamE</text>
</g>
<!-- Node14 -->
<g id="node13" class="node"><title>Node14</title>
<polygon fill="white" stroke="#bfbfbf" points="440.5,-275 440.5,-294 496.5,-294 496.5,-275 440.5,-275"/>
<text text-anchor="middle" x="468.5" y="-282" font-family="Helvetica,sans-Serif" font-size="10.00">V_S_P_t</text>
</g>
<!-- Node14&#45;&gt;Node13 -->
<g id="edge12" class="edge"><title>Node14&#45;&gt;Node13</title>
<path fill="none" stroke="midnightblue" d="M507.242,-284.5C542.448,-284.5 595.364,-284.5 635.123,-284.5"/>
<polygon fill="midnightblue" stroke="midnightblue" points="506.918,-281 496.918,-284.5 506.918,-288 506.918,-281"/>
</g>
<!-- Node15 -->
<g id="node14" class="node"><title>Node15</title>
<polygon fill="white" stroke="#bfbfbf" points="623,-133 623,-152 758,-152 758,-133 623,-133"/>
<text text-anchor="middle" x="690.5" y="-140" font-family="Helvetica,sans-Serif" font-size="10.00">std::vector&lt; FitParticle &gt;</text>
</g>
<!-- Node15&#45;&gt;Node10 -->
<g id="edge13" class="edge"><title>Node15&#45;&gt;Node10</title>
<path fill="none" stroke="#9a32cd" stroke-dasharray="5,2" d="M737.852,-154.917C744.654,-156.978 751.541,-159.198 758,-161.5 808.066,-179.34 864.34,-204.577 898.47,-220.485"/>
<polygon fill="#9a32cd" stroke="#9a32cd" points="738.587,-151.486 728.006,-152.022 736.612,-158.201 738.587,-151.486"/>
<text text-anchor="middle" x="800.5" y="-189.5" font-family="Helvetica,sans-Serif" font-size="10.00"> Photons</text>
</g>
<!-- Node16 -->
<g id="node15" class="node"><title>Node16</title>
<polygon fill="white" stroke="#bfbfbf" points="871.5,-455 871.5,-474 990.5,-474 990.5,-455 871.5,-455"/>
<text text-anchor="middle" x="931" y="-462" font-family="Helvetica,sans-Serif" font-size="10.00">std::vector&lt; tree_t &gt;</text>
</g>
<!-- Node16&#45;&gt;Node9 -->
<g id="edge14" class="edge"><title>Node16&#45;&gt;Node9</title>
<path fill="none" stroke="#9a32cd" stroke-dasharray="5,2" d="M1000.91,-468.541C1041.94,-467.039 1091.9,-457.704 1123,-425.5 1156.5,-390.813 1109.43,-354.956 1141,-318.5 1148.26,-310.115 1158.34,-304.519 1168.84,-300.79"/>
<polygon fill="#9a32cd" stroke="#9a32cd" points="1000.61,-465.047 990.691,-468.763 1000.76,-472.045 1000.61,-465.047"/>
<text text-anchor="middle" x="1080" y="-467.5" font-family="Helvetica,sans-Serif" font-size="10.00"> tree_leaves</text>
</g>
<!-- Node17 -->
<g id="node16" class="node"><title>Node17</title>
<polygon fill="white" stroke="#bfbfbf" points="852,-356.5 852,-386.5 1010,-386.5 1010,-356.5 852,-356.5"/>
<text text-anchor="start" x="860" y="-374.5" font-family="Helvetica,sans-Serif" font-size="10.00">std::list&lt; ant::analysis</text>
<text text-anchor="middle" x="931" y="-363.5" font-family="Helvetica,sans-Serif" font-size="10.00">::utils::TreeFitter::iteration_t &gt;</text>
</g>
<!-- Node17&#45;&gt;Node9 -->
<g id="edge15" class="edge"><title>Node17&#45;&gt;Node9</title>
<path fill="none" stroke="#9a32cd" stroke-dasharray="5,2" d="M1020.34,-359.695C1053.39,-353.443 1090.72,-344.136 1123,-330.5 1131.86,-326.758 1132.34,-322.674 1141,-318.5 1149.71,-314.302 1159.3,-310.57 1168.68,-307.353"/>
<polygon fill="#9a32cd" stroke="#9a32cd" points="1019.44,-356.301 1010.23,-361.539 1020.7,-363.188 1019.44,-356.301"/>
<text text-anchor="middle" x="1080" y="-357.5" font-family="Helvetica,sans-Serif" font-size="10.00"> iterations</text>
</g>
<!-- Node18 -->
<g id="node17" class="node"><title>Node18</title>
<g id="a_node17"><a xlink:href="structant_1_1analysis_1_1utils_1_1_tree_fitter_1_1iteration__t.html" target="_top" xlink:title="ant::analysis::utils\l::TreeFitter::iteration_t">
<polygon fill="white" stroke="black" points="630,-357.5 630,-387.5 751,-387.5 751,-357.5 630,-357.5"/>
<text text-anchor="start" x="638" y="-375.5" font-family="Helvetica,sans-Serif" font-size="10.00">ant::analysis::utils</text>
<text text-anchor="middle" x="690.5" y="-364.5" font-family="Helvetica,sans-Serif" font-size="10.00">::TreeFitter::iteration_t</text>
</a>
</g>
</g>
<!-- Node18&#45;&gt;Node17 -->
<g id="edge16" class="edge"><title>Node18&#45;&gt;Node17</title>
<path fill="none" stroke="#9a32cd" stroke-dasharray="5,2" d="M761.31,-372.207C789.708,-372.088 822.652,-371.95 851.851,-371.828"/>
<polygon fill="#9a32cd" stroke="#9a32cd" points="761.054,-368.708 751.068,-372.25 761.083,-375.708 761.054,-368.708"/>
<text text-anchor="middle" x="800.5" y="-374.5" font-family="Helvetica,sans-Serif" font-size="10.00"> elements</text>
</g>
<!-- Node19 -->
<g id="node18" class="node"><title>Node19</title>
<polygon fill="white" stroke="#bfbfbf" points="399,-352 399,-393 538,-393 538,-352 399,-352"/>
<text text-anchor="start" x="407" y="-381" font-family="Helvetica,sans-Serif" font-size="10.00">std::vector&lt; ant::analysis</text>
<text text-anchor="start" x="407" y="-370" font-family="Helvetica,sans-Serif" font-size="10.00">::utils::TreeFitter::iteration</text>
<text text-anchor="middle" x="468.5" y="-359" font-family="Helvetica,sans-Serif" font-size="10.00">_t::photon_t &gt;</text>
</g>
<!-- Node19&#45;&gt;Node18 -->
<g id="edge17" class="edge"><title>Node19&#45;&gt;Node18</title>
<path fill="none" stroke="#9a32cd" stroke-dasharray="5,2" d="M548.35,-372.5C575.204,-372.5 604.758,-372.5 629.853,-372.5"/>
<polygon fill="#9a32cd" stroke="#9a32cd" points="548.204,-369 538.204,-372.5 548.204,-376 548.204,-369"/>
<text text-anchor="middle" x="580.5" y="-375.5" font-family="Helvetica,sans-Serif" font-size="10.00"> Photons</text>
</g>
<!-- Node20 -->
<g id="node19" class="node"><title>Node20</title>
<g id="a_node19"><a xlink:href="structant_1_1analysis_1_1utils_1_1_tree_fitter_1_1iteration__t_1_1photon__t.html" target="_top" xlink:title="ant::analysis::utils\l::TreeFitter::iteration\l_t::photon_t">
<polygon fill="white" stroke="black" points="202,-352 202,-393 314,-393 314,-352 202,-352"/>
<text text-anchor="start" x="210" y="-381" font-family="Helvetica,sans-Serif" font-size="10.00">ant::analysis::utils</text>
<text text-anchor="start" x="210" y="-370" font-family="Helvetica,sans-Serif" font-size="10.00">::TreeFitter::iteration</text>
<text text-anchor="middle" x="258" y="-359" font-family="Helvetica,sans-Serif" font-size="10.00">_t::photon_t</text>
</a>
</g>
</g>
<!-- Node20&#45;&gt;Node19 -->
<g id="edge18" class="edge"><title>Node20&#45;&gt;Node19</title>
<path fill="none" stroke="#9a32cd" stroke-dasharray="5,2" d="M324.329,-372.5C347.978,-372.5 374.748,-372.5 398.688,-372.5"/>
<polygon fill="#9a32cd" stroke="#9a32cd" points="324.054,-369 314.054,-372.5 324.054,-376 324.054,-369"/>
<text text-anchor="middle" x="356.5" y="-375.5" font-family="Helvetica,sans-Serif" font-size="10.00"> elements</text>
</g>
<!-- Node21 -->
<g id="node20" class="node"><title>Node21</title>
<g id="a_node20"><a xlink:href="structant_1_1std__ext_1_1cc__shared__ptr.html" target="_top" xlink:title="ant::std_ext::cc_shared\l_ptr\&lt; TParticle \&gt;">
<polygon fill="white" stroke="black" points="0,-357.5 0,-387.5 128,-387.5 128,-357.5 0,-357.5"/>
<text text-anchor="start" x="8" y="-375.5" font-family="Helvetica,sans-Serif" font-size="10.00">ant::std_ext::cc_shared</text>
<text text-anchor="middle" x="64" y="-364.5" font-family="Helvetica,sans-Serif" font-size="10.00">_ptr&lt; TParticle &gt;</text>
</a>
</g>
</g>
<!-- Node21&#45;&gt;Node20 -->
<g id="edge19" class="edge"><title>Node21&#45;&gt;Node20</title>
<path fill="none" stroke="#9a32cd" stroke-dasharray="5,2" d="M138.349,-372.5C159.45,-372.5 182.099,-372.5 201.895,-372.5"/>
<polygon fill="#9a32cd" stroke="#9a32cd" points="138.134,-369 128.134,-372.5 138.134,-376 138.134,-369"/>
<text text-anchor="middle" x="165" y="-375.5" font-family="Helvetica,sans-Serif" font-size="10.00"> Particle</text>
</g>
<!-- Node22 -->
<g id="node21" class="node"><title>Node22</title>
<polygon fill="white" stroke="#bfbfbf" points="862,-405.5 862,-435.5 1000,-435.5 1000,-405.5 862,-405.5"/>
<text text-anchor="start" x="870" y="-423.5" font-family="Helvetica,sans-Serif" font-size="10.00">std::vector&lt; std::function</text>
<text text-anchor="middle" x="931" y="-412.5" font-family="Helvetica,sans-Serif" font-size="10.00">&lt; void()&gt; &gt;</text>
</g>
<!-- Node22&#45;&gt;Node9 -->
<g id="edge20" class="edge"><title>Node22&#45;&gt;Node9</title>
<path fill="none" stroke="#9a32cd" stroke-dasharray="5,2" d="M1010.16,-416.389C1048.38,-410.566 1092.58,-397.626 1123,-369.5 1140.65,-353.182 1123.76,-335.247 1141,-318.5 1148.65,-311.069 1158.51,-305.847 1168.63,-302.176"/>
<polygon fill="#9a32cd" stroke="#9a32cd" points="1009.5,-412.948 1000.07,-417.785 1010.46,-419.881 1009.5,-412.948"/>
<text text-anchor="middle" x="1080" y="-413.5" font-family="Helvetica,sans-Serif" font-size="10.00"> sum_daughters</text>
</g>
<!-- Node23 -->
<g id="node22" class="node"><title>Node23</title>
<polygon fill="white" stroke="#bfbfbf" points="852,-318 852,-337 1010,-337 1010,-318 852,-318"/>
<text text-anchor="middle" x="931" y="-325" font-family="Helvetica,sans-Serif" font-size="10.00">std::vector&lt; permutation_t &gt;</text>
</g>
<!-- Node23&#45;&gt;Node9 -->
<g id="edge21" class="edge"><title>Node23&#45;&gt;Node9</title>
<path fill="none" stroke="#9a32cd" stroke-dasharray="5,2" d="M1020.4,-317.499C1052.69,-313.797 1089.51,-309.522 1123,-305.5 1137.84,-303.718 1153.97,-301.724 1168.69,-299.882"/>
<polygon fill="#9a32cd" stroke="#9a32cd" points="1019.62,-314.065 1010.08,-318.679 1020.41,-321.02 1019.62,-314.065"/>
<text text-anchor="middle" x="1080" y="-318.5" font-family="Helvetica,sans-Serif" font-size="10.00"> permutations</text>
</g>
<!-- Node24 -->
<g id="node23" class="node"><title>Node24</title>
<g id="a_node23"><a xlink:title="STL class. ">
<polygon fill="white" stroke="#bfbfbf" points="643,-319 643,-338 738,-338 738,-319 643,-319"/>
<text text-anchor="middle" x="690.5" y="-326" font-family="Helvetica,sans-Serif" font-size="10.00">std::vector&lt; T &gt;</text>
</a>
</g>
</g>
<!-- Node24&#45;&gt;Node23 -->
<g id="edge22" class="edge"><title>Node24&#45;&gt;Node23</title>
<path fill="none" stroke="#9a32cd" stroke-dasharray="5,2" d="M748.219,-328.262C779.137,-328.133 817.877,-327.97 851.64,-327.829"/>
<polygon fill="#9a32cd" stroke="#9a32cd" points="748.037,-324.763 738.051,-328.305 748.066,-331.763 748.037,-324.763"/>
<text text-anchor="middle" x="800.5" y="-331.5" font-family="Helvetica,sans-Serif" font-size="10.00"> elements</text>
</g>
<!-- Node25 -->
<g id="node24" class="node"><title>Node25</title>
<polygon fill="white" stroke="#bfbfbf" points="454,-314 454,-333 483,-333 483,-314 454,-314"/>
<text text-anchor="middle" x="468.5" y="-321" font-family="Helvetica,sans-Serif" font-size="10.00">T</text>
</g>
<!-- Node25&#45;&gt;Node24 -->
<g id="edge23" class="edge"><title>Node25&#45;&gt;Node24</title>
<path fill="none" stroke="#9a32cd" stroke-dasharray="5,2" d="M493.701,-324.05C529.526,-324.864 597.345,-326.406 642.989,-327.443"/>
<polygon fill="#9a32cd" stroke="#9a32cd" points="493.339,-320.541 483.262,-323.813 493.18,-327.539 493.339,-320.541"/>
<text text-anchor="middle" x="580.5" y="-329.5" font-family="Helvetica,sans-Serif" font-size="10.00"> elements</text>
</g>
<!-- Node29 -->
<g id="node28" class="node"><title>Node29</title>
<g id="a_node28"><a xlink:title="STL class. ">
<polygon fill="white" stroke="#bfbfbf" points="633.5,-83.5 633.5,-113.5 747.5,-113.5 747.5,-83.5 633.5,-83.5"/>
<text text-anchor="start" x="641.5" y="-101.5" font-family="Helvetica,sans-Serif" font-size="10.00">std::vector&lt; interval</text>
<text text-anchor="middle" x="690.5" y="-90.5" font-family="Helvetica,sans-Serif" font-size="10.00">&lt; double &gt; &gt;</text>
</a>
</g>
</g>
<!-- Node25&#45;&gt;Node29 -->
<g id="edge29" class="edge"><title>Node25&#45;&gt;Node29</title>
<path fill="none" stroke="#9a32cd" stroke-dasharray="5,2" d="M493.301,-321.459C507.665,-319.127 525.538,-314.143 538,-303.5 605.275,-246.043 557.942,-183.455 623,-123.5 627.172,-119.655 631.992,-116.385 637.092,-113.607"/>
<polygon fill="#9a32cd" stroke="#9a32cd" points="492.615,-318.018 483.148,-322.775 493.515,-324.96 492.615,-318.018"/>
<text text-anchor="middle" x="580.5" y="-286.5" font-family="Helvetica,sans-Serif" font-size="10.00"> elements</text>
</g>
<!-- Node26 -->
<g id="node25" class="node"><title>Node26</title>
<polygon fill="white" stroke="#bfbfbf" points="843,-280 843,-299 1019,-299 1019,-280 843,-280"/>
<text text-anchor="middle" x="931" y="-287" font-family="Helvetica,sans-Serif" font-size="10.00">std::vector&lt; node_constraint_t &gt;</text>
</g>
<!-- Node26&#45;&gt;Node9 -->
<g id="edge24" class="edge"><title>Node26&#45;&gt;Node9</title>
<path fill="none" stroke="#9a32cd" stroke-dasharray="5,2" d="M1029.46,-290.858C1076.29,-291.511 1130.44,-292.266 1168.83,-292.801"/>
<polygon fill="#9a32cd" stroke="#9a32cd" points="1029.33,-287.356 1019.28,-290.716 1029.23,-294.356 1029.33,-287.356"/>
<text text-anchor="middle" x="1080" y="-295.5" font-family="Helvetica,sans-Serif" font-size="10.00"> node_constraints</text>
</g>
<!-- Node27 -->
<g id="node26" class="node"><title>Node27</title>
<g id="a_node26"><a xlink:href="classant_1_1analysis_1_1_prompt_random_1_1_switch.html" target="_top" xlink:title="ant::analysis::PromptRandom\l::Switch">
<polygon fill="white" stroke="black" points="1141,-168.5 1141,-198.5 1299,-198.5 1299,-168.5 1141,-168.5"/>
<text text-anchor="start" x="1149" y="-186.5" font-family="Helvetica,sans-Serif" font-size="10.00">ant::analysis::PromptRandom</text>
<text text-anchor="middle" x="1220" y="-175.5" font-family="Helvetica,sans-Serif" font-size="10.00">::Switch</text>
</a>
</g>
</g>
<!-- Node27&#45;&gt;Node7 -->
<g id="edge26" class="edge"><title>Node27&#45;&gt;Node7</title>
<path fill="none" stroke="#9a32cd" stroke-dasharray="5,2" d="M1309.46,-183.5C1343.18,-183.5 1380.74,-183.5 1410.93,-183.5"/>
<polygon fill="#9a32cd" stroke="#9a32cd" points="1309.13,-180 1299.13,-183.5 1309.13,-187 1309.13,-180"/>
<text text-anchor="middle" x="1355" y="-186.5" font-family="Helvetica,sans-Serif" font-size="10.00"> promptrandom</text>
</g>
<!-- Node28 -->
<g id="node27" class="node"><title>Node28</title>
<g id="a_node27"><a xlink:href="classant_1_1_piecewise_interval.html" target="_top" xlink:title="ant::PiecewiseInterval\l\&lt; double \&gt;">
<polygon fill="white" stroke="black" points="871.5,-133.5 871.5,-163.5 990.5,-163.5 990.5,-133.5 871.5,-133.5"/>
<text text-anchor="start" x="879.5" y="-151.5" font-family="Helvetica,sans-Serif" font-size="10.00">ant::PiecewiseInterval</text>
<text text-anchor="middle" x="931" y="-140.5" font-family="Helvetica,sans-Serif" font-size="10.00">&lt; double &gt;</text>
</a>
</g>
</g>
<!-- Node28&#45;&gt;Node27 -->
<g id="edge27" class="edge"><title>Node28&#45;&gt;Node27</title>
<path fill="none" stroke="#9a32cd" stroke-dasharray="5,2" d="M1000.95,-156.909C1043.14,-162.053 1097.22,-168.649 1140.98,-173.985"/>
<polygon fill="#9a32cd" stroke="#9a32cd" points="1001.12,-153.404 990.771,-155.667 1000.27,-160.352 1001.12,-153.404"/>
<text text-anchor="middle" x="1080" y="-185.5" font-family="Helvetica,sans-Serif" font-size="10.00"> promptw</text>
<text text-anchor="middle" x="1080" y="-174.5" font-family="Helvetica,sans-Serif" font-size="10.00">randomw</text>
</g>
<!-- Node29&#45;&gt;Node28 -->
<g id="edge28" class="edge"><title>Node29&#45;&gt;Node28</title>
<path fill="none" stroke="midnightblue" d="M757.632,-108.093C779.195,-111.569 803.193,-115.807 825,-120.5 842.245,-124.211 860.9,-128.946 877.634,-133.463"/>
<polygon fill="midnightblue" stroke="midnightblue" points="758.014,-104.61 747.589,-106.501 756.917,-111.524 758.014,-104.61"/>
</g>
<!-- Node30 -->
<g id="node29" class="node"><title>Node30</title>
<g id="a_node29"><a xlink:href="classant_1_1analysis_1_1utils_1_1_trigger_simulation.html" target="_top" xlink:title="ant::analysis::utils\l::TriggerSimulation">
<polygon fill="white" stroke="black" points="1167.5,-0.5 1167.5,-30.5 1272.5,-30.5 1272.5,-0.5 1167.5,-0.5"/>
<text text-anchor="start" x="1175.5" y="-18.5" font-family="Helvetica,sans-Serif" font-size="10.00">ant::analysis::utils</text>
<text text-anchor="middle" x="1220" y="-7.5" font-family="Helvetica,sans-Serif" font-size="10.00">::TriggerSimulation</text>
</a>
</g>
</g>
<!-- Node30&#45;&gt;Node2 -->
<g id="edge34" class="edge"><title>Node30&#45;&gt;Node2</title>
<path fill="none" stroke="#9a32cd" stroke-dasharray="5,2" d="M1282.81,-16.275C1332.99,-16.8374 1405.56,-17.5 1469,-17.5 1469,-17.5 1469,-17.5 2026.5,-17.5 2128.15,-17.5 2214.47,-127.613 2243,-168.476"/>
<polygon fill="#9a32cd" stroke="#9a32cd" points="1282.81,-12.7748 1272.77,-16.1604 1282.73,-19.7744 1282.81,-12.7748"/>
<text text-anchor="middle" x="1766" y="-20.5" font-family="Helvetica,sans-Serif" font-size="10.00"> triggersimu</text>
</g>
<!-- Node30&#45;&gt;Node7 -->
<g id="edge30" class="edge"><title>Node30&#45;&gt;Node7</title>
<path fill="none" stroke="#9a32cd" stroke-dasharray="5,2" d="M1282.16,-33.2285C1317.25,-45.5484 1360.63,-64.626 1393,-91.5 1418.35,-112.539 1441.53,-142.934 1455.45,-162.946"/>
<polygon fill="#9a32cd" stroke="#9a32cd" points="1283.1,-29.8487 1272.5,-29.9319 1280.84,-36.4737 1283.1,-29.8487"/>
<text text-anchor="middle" x="1355" y="-94.5" font-family="Helvetica,sans-Serif" font-size="10.00"> triggersimu</text>
</g>
<!-- Node31 -->
<g id="node30" class="node"><title>Node31</title>
<g id="a_node30"><a xlink:href="structant_1_1analysis_1_1physics_1_1_p_i_d___t_a_p_s_veto___kinfit_1_1_multi_pi0_1_1_multi_pi0_tree.html" target="_top" xlink:title="ant::analysis::physics\l::PID_TAPSVeto_Kinfit\l::MultiPi0::MultiPi0Tree">
<polygon fill="white" stroke="black" points="1159,-49 1159,-90 1281,-90 1281,-49 1159,-49"/>
<text text-anchor="start" x="1167" y="-78" font-family="Helvetica,sans-Serif" font-size="10.00">ant::analysis::physics</text>
<text text-anchor="start" x="1167" y="-67" font-family="Helvetica,sans-Serif" font-size="10.00">::PID_TAPSVeto_Kinfit</text>
<text text-anchor="middle" x="1220" y="-56" font-family="Helvetica,sans-Serif" font-size="10.00">::MultiPi0::MultiPi0Tree</text>
</a>
</g>
</g>
<!-- Node31&#45;&gt;Node7 -->
<g id="edge32" class="edge"><title>Node31&#45;&gt;Node7</title>
<path fill="none" stroke="#9a32cd" stroke-dasharray="5,2" d="M1284.32,-93.7491C1289.29,-95.6848 1294.23,-97.6186 1299,-99.5 1340.92,-116.033 1352.71,-117.324 1393,-137.5 1408.03,-145.027 1424.04,-154.483 1437.47,-162.862"/>
<polygon fill="#9a32cd" stroke="#9a32cd" points="1285.34,-90.3926 1274.75,-90.0372 1282.81,-96.9183 1285.34,-90.3926"/>
<text text-anchor="middle" x="1355" y="-140.5" font-family="Helvetica,sans-Serif" font-size="10.00"> t</text>
</g>
<!-- Node32 -->
<g id="node31" class="node"><title>Node32</title>
<g id="a_node31"><a xlink:href="classant_1_1_wrap_t_tree.html" target="_top" xlink:title="The WrapTTree struct simplifies TTree handling in physics classes. ">
<polygon fill="white" stroke="black" points="888,-60 888,-79 974,-79 974,-60 888,-60"/>
<text text-anchor="middle" x="931" y="-67" font-family="Helvetica,sans-Serif" font-size="10.00">ant::WrapTTree</text>
</a>
</g>
</g>
<!-- Node32&#45;&gt;Node31 -->
<g id="edge33" class="edge"><title>Node32&#45;&gt;Node31</title>
<path fill="none" stroke="midnightblue" d="M984.154,-69.5C1033.38,-69.5 1107.15,-69.5 1158.84,-69.5"/>
<polygon fill="midnightblue" stroke="midnightblue" points="984.04,-66.0001 974.04,-69.5 984.04,-73.0001 984.04,-66.0001"/>
</g>
</g>
</svg>
