<?xml version="1.0" encoding="UTF-8" standalone="no"?>
<!DOCTYPE svg PUBLIC "-//W3C//DTD SVG 1.1//EN"
 "http://www.w3.org/Graphics/SVG/1.1/DTD/svg11.dtd">
<!-- Generated by graphviz version 2.38.0 (20140413.2041)
 -->
<!-- Title: ant::calibration::gui::FitGausPol1 Pages: 1 -->
<svg width="281pt" height="555pt"
 viewBox="0.00 0.00 281.00 555.00" xmlns="http://www.w3.org/2000/svg" xmlns:xlink="http://www.w3.org/1999/xlink">
<g id="graph0" class="graph" transform="scale(1 1) rotate(0) translate(4 551)">
<title>ant::calibration::gui::FitGausPol1</title>
<polygon fill="white" stroke="none" points="-4,4 -4,-551 277,-551 277,4 -4,4"/>
<!-- Node3 -->
<g id="node1" class="node"><title>Node3</title>
<polygon fill="#bfbfbf" stroke="black" points="12.5,-0.5 12.5,-30.5 120.5,-30.5 120.5,-0.5 12.5,-0.5"/>
<text text-anchor="start" x="20.5" y="-18.5" font-family="Helvetica,sans-Serif" font-size="10.00">ant::calibration::gui</text>
<text text-anchor="middle" x="66.5" y="-7.5" font-family="Helvetica,sans-Serif" font-size="10.00">::FitGausPol1</text>
</g>
<!-- Node4 -->
<g id="node2" class="node"><title>Node4</title>
<g id="a_node2"><a xlink:href="classant_1_1calibration_1_1gui_1_1_peaking_fit_function.html" target="_top" xlink:title="Fit functions describing peak shapes, like Gaus or Lorentz with optional background function...">
<polygon fill="white" stroke="black" points="11.5,-68.5 11.5,-98.5 121.5,-98.5 121.5,-68.5 11.5,-68.5"/>
<text text-anchor="start" x="19.5" y="-86.5" font-family="Helvetica,sans-Serif" font-size="10.00">ant::calibration::gui</text>
<text text-anchor="middle" x="66.5" y="-75.5" font-family="Helvetica,sans-Serif" font-size="10.00">::PeakingFitFunction</text>
</a>
</g>
</g>
<!-- Node4&#45;&gt;Node3 -->
<g id="edge1" class="edge"><title>Node4&#45;&gt;Node3</title>
<path fill="none" stroke="midnightblue" d="M66.5,-58.0322C66.5,-48.8606 66.5,-38.7449 66.5,-30.7931"/>
<polygon fill="midnightblue" stroke="midnightblue" points="63.0001,-58.1789 66.5,-68.179 70.0001,-58.179 63.0001,-58.1789"/>
</g>
<!-- Node5 -->
<g id="node3" class="node"><title>Node5</title>
<g id="a_node3"><a xlink:href="classant_1_1calibration_1_1gui_1_1_fit_function.html" target="_top" xlink:title="ant::calibration::gui\l::FitFunction">
<polygon fill="white" stroke="black" points="12.5,-136.5 12.5,-166.5 120.5,-166.5 120.5,-136.5 12.5,-136.5"/>
<text text-anchor="start" x="20.5" y="-154.5" font-family="Helvetica,sans-Serif" font-size="10.00">ant::calibration::gui</text>
<text text-anchor="middle" x="66.5" y="-143.5" font-family="Helvetica,sans-Serif" font-size="10.00">::FitFunction</text>
</a>
</g>
</g>
<!-- Node5&#45;&gt;Node4 -->
<g id="edge2" class="edge"><title>Node5&#45;&gt;Node4</title>
<path fill="none" stroke="midnightblue" d="M66.5,-126.032C66.5,-116.861 66.5,-106.745 66.5,-98.7931"/>
<polygon fill="midnightblue" stroke="midnightblue" points="63.0001,-126.179 66.5,-136.179 70.0001,-126.179 63.0001,-126.179"/>
</g>
<!-- Node6 -->
<g id="node4" class="node"><title>Node6</title>
<polygon fill="white" stroke="#bfbfbf" points="77.5,-214.5 77.5,-244.5 211.5,-244.5 211.5,-214.5 77.5,-214.5"/>
<text text-anchor="start" x="85.5" y="-232.5" font-family="Helvetica,sans-Serif" font-size="10.00">std::list&lt; std::unique</text>
<text text-anchor="middle" x="144.5" y="-221.5" font-family="Helvetica,sans-Serif" font-size="10.00">_ptr&lt; IndicatorKnob &gt; &gt;</text>
</g>
<!-- Node6&#45;&gt;Node5 -->
<g id="edge3" class="edge"><title>Node6&#45;&gt;Node5</title>
<path fill="none" stroke="#9a32cd" stroke-dasharray="5,2" d="M122.468,-207.033C109.227,-194.132 92.7445,-178.072 81.1054,-166.731"/>
<polygon fill="#9a32cd" stroke="#9a32cd" points="120.224,-209.733 129.829,-214.205 125.109,-204.719 120.224,-209.733"/>
<text text-anchor="middle" x="126.5" y="-188" font-family="Helvetica,sans-Serif" font-size="10.00"> knobs</text>
</g>
<!-- Node7 -->
<g id="node5" class="node"><title>Node7</title>
<polygon fill="white" stroke="#bfbfbf" points="132,-292.5 132,-322.5 273,-322.5 273,-292.5 132,-292.5"/>
<text text-anchor="start" x="140" y="-310.5" font-family="Helvetica,sans-Serif" font-size="10.00">std::unique_ptr&lt; Indicator</text>
<text text-anchor="middle" x="202.5" y="-299.5" font-family="Helvetica,sans-Serif" font-size="10.00">Knob &gt;</text>
</g>
<!-- Node7&#45;&gt;Node6 -->
<g id="edge4" class="edge"><title>Node7&#45;&gt;Node6</title>
<path fill="none" stroke="#9a32cd" stroke-dasharray="5,2" d="M185.284,-283.941C175.587,-271.235 163.772,-255.754 155.36,-244.731"/>
<polygon fill="#9a32cd" stroke="#9a32cd" points="182.742,-286.379 191.591,-292.205 188.306,-282.132 182.742,-286.379"/>
<text text-anchor="middle" x="202" y="-266" font-family="Helvetica,sans-Serif" font-size="10.00"> elements</text>
</g>
<!-- Node8 -->
<g id="node6" class="node"><title>Node8</title>
<g id="a_node6"><a xlink:href="classant_1_1calibration_1_1gui_1_1_indicator_knob.html" target="_top" xlink:title="ant::calibration::gui\l::IndicatorKnob">
<polygon fill="white" stroke="black" points="126.5,-370.5 126.5,-400.5 234.5,-400.5 234.5,-370.5 126.5,-370.5"/>
<text text-anchor="start" x="134.5" y="-388.5" font-family="Helvetica,sans-Serif" font-size="10.00">ant::calibration::gui</text>
<text text-anchor="middle" x="180.5" y="-377.5" font-family="Helvetica,sans-Serif" font-size="10.00">::IndicatorKnob</text>
</a>
</g>
</g>
<!-- Node8&#45;&gt;Node7 -->
<g id="edge5" class="edge"><title>Node8&#45;&gt;Node7</title>
<path fill="none" stroke="#9a32cd" stroke-dasharray="5,2" d="M187.458,-360.463C191.051,-348.051 195.312,-333.33 198.381,-322.731"/>
<polygon fill="#9a32cd" stroke="#9a32cd" points="184.057,-359.626 184.638,-370.205 190.781,-361.573 184.057,-359.626"/>
<text text-anchor="middle" x="201" y="-344" font-family="Helvetica,sans-Serif" font-size="10.00"> ptr</text>
</g>
<!-- Node9 -->
<g id="node7" class="node"><title>Node9</title>
<g id="a_node7"><a xlink:title="STL class. ">
<polygon fill="white" stroke="#bfbfbf" points="19,-454 19,-473 84,-473 84,-454 19,-454"/>
<text text-anchor="middle" x="51.5" y="-461" font-family="Helvetica,sans-Serif" font-size="10.00">std::string</text>
</a>
</g>
</g>
<!-- Node9&#45;&gt;Node5 -->
<g id="edge9" class="edge"><title>Node9&#45;&gt;Node5</title>
<path fill="none" stroke="#9a32cd" stroke-dasharray="5,2" d="M43.4484,-444.17C37.5247,-429.014 30.5,-406.768 30.5,-386.5 30.5,-386.5 30.5,-386.5 30.5,-228.5 30.5,-205.14 44.5625,-181.293 55.1094,-166.692"/>
<polygon fill="#9a32cd" stroke="#9a32cd" points="40.3877,-445.927 47.451,-453.824 46.8539,-443.246 40.3877,-445.927"/>
<text text-anchor="middle" x="72" y="-305" font-family="Helvetica,sans-Serif" font-size="10.00"> AdditionalFitArgs</text>
</g>
<!-- Node9&#45;&gt;Node8 -->
<g id="edge6" class="edge"><title>Node9&#45;&gt;Node8</title>
<path fill="none" stroke="#9a32cd" stroke-dasharray="5,2" d="M75.1347,-448.576C98.3148,-434.919 133.468,-414.209 156.703,-400.52"/>
<polygon fill="#9a32cd" stroke="#9a32cd" points="73.1372,-445.69 66.2979,-453.782 76.6905,-451.721 73.1372,-445.69"/>
<text text-anchor="middle" x="140" y="-422" font-family="Helvetica,sans-Serif" font-size="10.00"> name</text>
</g>
<!-- Node10 -->
<g id="node8" class="node"><title>Node10</title>
<g id="a_node8"><a xlink:title="STL class. ">
<polygon fill="white" stroke="#bfbfbf" points="0,-516.5 0,-546.5 103,-546.5 103,-516.5 0,-516.5"/>
<text text-anchor="start" x="8" y="-534.5" font-family="Helvetica,sans-Serif" font-size="10.00">std::basic_string&lt;</text>
<text text-anchor="middle" x="51.5" y="-523.5" font-family="Helvetica,sans-Serif" font-size="10.00"> char &gt;</text>
</a>
</g>
</g>
<!-- Node10&#45;&gt;Node9 -->
<g id="edge7" class="edge"><title>Node10&#45;&gt;Node9</title>
<path fill="none" stroke="midnightblue" d="M51.5,-505.876C51.5,-494.471 51.5,-481.636 51.5,-473.328"/>
<polygon fill="midnightblue" stroke="midnightblue" points="48.0001,-506.179 51.5,-516.179 55.0001,-506.179 48.0001,-506.179"/>
</g>
<!-- Node11 -->
<g id="node9" class="node"><title>Node11</title>
<g id="a_node9"><a xlink:href="structant_1_1calibration_1_1gui_1_1_indicator_properties.html" target="_top" xlink:title="ant::calibration::gui\l::IndicatorProperties">
<polygon fill="white" stroke="black" points="124,-448.5 124,-478.5 237,-478.5 237,-448.5 124,-448.5"/>
<text text-anchor="start" x="132" y="-466.5" font-family="Helvetica,sans-Serif" font-size="10.00">ant::calibration::gui</text>
<text text-anchor="middle" x="180.5" y="-455.5" font-family="Helvetica,sans-Serif" font-size="10.00">::IndicatorProperties</text>
</a>
</g>
</g>
<!-- Node11&#45;&gt;Node8 -->
<g id="edge8" class="edge"><title>Node11&#45;&gt;Node8</title>
<path fill="none" stroke="#9a32cd" stroke-dasharray="5,2" d="M180.5,-438.09C180.5,-425.757 180.5,-411.224 180.5,-400.731"/>
<polygon fill="#9a32cd" stroke="#9a32cd" points="177,-438.205 180.5,-448.205 184,-438.205 177,-438.205"/>
<text text-anchor="middle" x="189.5" y="-422" font-family="Helvetica,sans-Serif" font-size="10.00"> gui</text>
</g>
</g>
</svg>
