<?xml version="1.0" encoding="UTF-8" standalone="no"?>
<!DOCTYPE svg PUBLIC "-//W3C//DTD SVG 1.1//EN"
 "http://www.w3.org/Graphics/SVG/1.1/DTD/svg11.dtd">
<!-- Generated by graphviz version 2.38.0 (20140413.2041)
 -->
<!-- Title: ant::BinSettings Pages: 1 -->
<svg width="239pt" height="140pt"
 viewBox="0.00 0.00 239.00 140.00" xmlns="http://www.w3.org/2000/svg" xmlns:xlink="http://www.w3.org/1999/xlink">
<g id="graph0" class="graph" transform="scale(1 1) rotate(0) translate(4 136)">
<title>ant::BinSettings</title>
<polygon fill="white" stroke="none" points="-4,4 -4,-136 235,-136 235,4 -4,4"/>
<!-- Node0 -->
<g id="node1" class="node"><title>Node0</title>
<polygon fill="#bfbfbf" stroke="black" points="120.5,-56.5 120.5,-75.5 213.5,-75.5 213.5,-56.5 120.5,-56.5"/>
<text text-anchor="middle" x="167" y="-63.5" font-family="Helvetica,sans-Serif" font-size="10.00">ant::BinSettings</text>
</g>
<!-- Node2 -->
<g id="node3" class="node"><title>Node2</title>
<g id="a_node3"><a xlink:href="classant_1_1_axis_settings.html" target="_top" xlink:title="ant::AxisSettings">
<polygon fill="white" stroke="black" points="0,-0.5 0,-19.5 98,-19.5 98,-0.5 0,-0.5"/>
<text text-anchor="middle" x="49" y="-7.5" font-family="Helvetica,sans-Serif" font-size="10.00">ant::AxisSettings</text>
</a>
</g>
</g>
<!-- Node0&#45;&gt;Node2 -->
<g id="edge2" class="edge"><title>Node0&#45;&gt;Node2</title>
<path fill="none" stroke="midnightblue" d="M139.1,-52.2321C117.027,-42.1312 86.8237,-28.3091 67.61,-19.5164"/>
<polygon fill="midnightblue" stroke="midnightblue" points="137.753,-55.4648 148.303,-56.4435 140.666,-49.0997 137.753,-55.4648"/>
</g>
<!-- Node3 -->
<g id="node4" class="node"><title>Node3</title>
<g id="a_node4"><a xlink:href="struct_t_c_l_a_p_bin_settings.html" target="_top" xlink:title="TCLAPBinSettings">
<polygon fill="white" stroke="black" points="116.5,-0.5 116.5,-19.5 217.5,-19.5 217.5,-0.5 116.5,-0.5"/>
<text text-anchor="middle" x="167" y="-7.5" font-family="Helvetica,sans-Serif" font-size="10.00">TCLAPBinSettings</text>
</a>
</g>
</g>
<!-- Node0&#45;&gt;Node3 -->
<g id="edge3" class="edge"><title>Node0&#45;&gt;Node3</title>
<path fill="none" stroke="midnightblue" d="M160.528,-46.1005C159.896,-37.1357 160.343,-26.8579 161.869,-19.7511"/>
<polygon fill="midnightblue" stroke="midnightblue" points="157.066,-46.6216 161.834,-56.083 164.007,-45.7134 157.066,-46.6216"/>
</g>
<!-- Node0&#45;&gt;Node3 -->
<g id="edge4" class="edge"><title>Node0&#45;&gt;Node3</title>
<path fill="none" stroke="midnightblue" d="M173.472,-46.1005C174.104,-37.1357 173.657,-26.8579 172.131,-19.7511"/>
<polygon fill="midnightblue" stroke="midnightblue" points="169.993,-45.7134 172.166,-56.083 176.934,-46.6216 169.993,-45.7134"/>
</g>
<!-- Node1 -->
<g id="node2" class="node"><title>Node1</title>
<g id="a_node2"><a xlink:href="classant_1_1interval.html" target="_top" xlink:title="ant::interval\&lt; double \&gt;">
<polygon fill="white" stroke="black" points="103,-112.5 103,-131.5 231,-131.5 231,-112.5 103,-112.5"/>
<text text-anchor="middle" x="167" y="-119.5" font-family="Helvetica,sans-Serif" font-size="10.00">ant::interval&lt; double &gt;</text>
</a>
</g>
</g>
<!-- Node1&#45;&gt;Node0 -->
<g id="edge1" class="edge"><title>Node1&#45;&gt;Node0</title>
<path fill="none" stroke="midnightblue" d="M167,-101.805C167,-92.9102 167,-82.7798 167,-75.7511"/>
<polygon fill="midnightblue" stroke="midnightblue" points="163.5,-102.083 167,-112.083 170.5,-102.083 163.5,-102.083"/>
</g>
</g>
</svg>
