<?xml version="1.0" encoding="UTF-8" standalone="no"?>
<!DOCTYPE svg PUBLIC "-//W3C//DTD SVG 1.1//EN"
 "http://www.w3.org/Graphics/SVG/1.1/DTD/svg11.dtd">
<!-- Generated by graphviz version 2.38.0 (20140413.2041)
 -->
<!-- Title: triplePi0_Plot Pages: 1 -->
<svg width="729pt" height="260pt"
 viewBox="0.00 0.00 729.00 259.50" xmlns="http://www.w3.org/2000/svg" xmlns:xlink="http://www.w3.org/1999/xlink">
<g id="graph0" class="graph" transform="scale(1 1) rotate(0) translate(4 255.5)">
<title>triplePi0_Plot</title>
<polygon fill="white" stroke="none" points="-4,4 -4,-255.5 725,-255.5 725,4 -4,4"/>
<!-- Node2 -->
<g id="node1" class="node"><title>Node2</title>
<polygon fill="#bfbfbf" stroke="black" points="643,-107.5 643,-126.5 721,-126.5 721,-107.5 643,-107.5"/>
<text text-anchor="middle" x="682" y="-114.5" font-family="Helvetica,sans-Serif" font-size="10.00">triplePi0_Plot</text>
</g>
<!-- Node3 -->
<g id="node2" class="node"><title>Node3</title>
<g id="a_node2"><a xlink:href="classant_1_1analysis_1_1_plotter.html" target="_top" xlink:title="ant::analysis::Plotter">
<polygon fill="white" stroke="black" points="433,-226.5 433,-245.5 547,-245.5 547,-226.5 433,-226.5"/>
<text text-anchor="middle" x="490" y="-233.5" font-family="Helvetica,sans-Serif" font-size="10.00">ant::analysis::Plotter</text>
</a>
</g>
</g>
<!-- Node3&#45;&gt;Node2 -->
<g id="edge1" class="edge"><title>Node3&#45;&gt;Node2</title>
<path fill="none" stroke="midnightblue" d="M541.57,-223.502C568.164,-215.249 600.28,-202.486 625,-184 646.853,-167.657 665.661,-141.173 674.902,-126.888"/>
<polygon fill="midnightblue" stroke="midnightblue" points="540.261,-220.24 531.675,-226.447 542.258,-226.949 540.261,-220.24"/>
</g>
<!-- Node4 -->
<g id="node3" class="node"><title>Node4</title>
<g id="a_node3"><a xlink:href="classant_1_1analysis_1_1_histogram_factory.html" target="_top" xlink:title="ant::analysis::Histogram\lFactory">
<polygon fill="white" stroke="black" points="123,-221 123,-251 256,-251 256,-221 123,-221"/>
<text text-anchor="start" x="131" y="-239" font-family="Helvetica,sans-Serif" font-size="10.00">ant::analysis::Histogram</text>
<text text-anchor="middle" x="189.5" y="-228" font-family="Helvetica,sans-Serif" font-size="10.00">Factory</text>
</a>
</g>
</g>
<!-- Node4&#45;&gt;Node3 -->
<g id="edge2" class="edge"><title>Node4&#45;&gt;Node3</title>
<path fill="none" stroke="#9a32cd" stroke-dasharray="5,2" d="M266.15,-236C317.972,-236 385.584,-236 432.685,-236"/>
<polygon fill="#9a32cd" stroke="#9a32cd" points="266.007,-232.5 256.007,-236 266.007,-239.5 266.007,-232.5"/>
<text text-anchor="middle" x="343.5" y="-239" font-family="Helvetica,sans-Serif" font-size="10.00"> HistFac</text>
</g>
<!-- Node5 -->
<g id="node4" class="node"><title>Node5</title>
<g id="a_node4"><a xlink:href="structant_1_1analysis_1_1physics_1_1triple_pi0_1_1_seen_tree.html" target="_top" xlink:title="ant::analysis::physics\l::triplePi0::SeenTree">
<polygon fill="white" stroke="black" points="431,-177 431,-207 549,-207 549,-177 431,-177"/>
<text text-anchor="start" x="439" y="-195" font-family="Helvetica,sans-Serif" font-size="10.00">ant::analysis::physics</text>
<text text-anchor="middle" x="490" y="-184" font-family="Helvetica,sans-Serif" font-size="10.00">::triplePi0::SeenTree</text>
</a>
</g>
</g>
<!-- Node5&#45;&gt;Node2 -->
<g id="edge3" class="edge"><title>Node5&#45;&gt;Node2</title>
<path fill="none" stroke="#9a32cd" stroke-dasharray="5,2" d="M554.513,-173.843C577.112,-166.679 602.518,-157.809 625,-148 639.056,-141.867 654.23,-133.338 665.233,-126.778"/>
<polygon fill="#9a32cd" stroke="#9a32cd" points="553.188,-170.59 544.684,-176.908 555.272,-177.272 553.188,-170.59"/>
<text text-anchor="middle" x="596" y="-172" font-family="Helvetica,sans-Serif" font-size="10.00"> seenTree</text>
</g>
<!-- Node6 -->
<g id="node5" class="node"><title>Node6</title>
<g id="a_node5"><a xlink:href="structant_1_1analysis_1_1physics_1_1triple_pi0_1_1eff_tree__t.html" target="_top" xlink:title="ant::analysis::physics\l::triplePi0::effTree_t">
<polygon fill="white" stroke="black" points="130.5,-128 130.5,-158 248.5,-158 248.5,-128 130.5,-128"/>
<text text-anchor="start" x="138.5" y="-146" font-family="Helvetica,sans-Serif" font-size="10.00">ant::analysis::physics</text>
<text text-anchor="middle" x="189.5" y="-135" font-family="Helvetica,sans-Serif" font-size="10.00">::triplePi0::effTree_t</text>
</a>
</g>
</g>
<!-- Node6&#45;&gt;Node5 -->
<g id="edge4" class="edge"><title>Node6&#45;&gt;Node5</title>
<path fill="none" stroke="midnightblue" d="M258.792,-154.477C263.938,-155.334 269.051,-156.182 274,-157 326.983,-165.754 387.339,-175.565 430.586,-182.568"/>
<polygon fill="midnightblue" stroke="midnightblue" points="259.33,-151.019 248.891,-152.826 258.179,-157.924 259.33,-151.019"/>
</g>
<!-- Node8 -->
<g id="node7" class="node"><title>Node8</title>
<g id="a_node7"><a xlink:href="structant_1_1analysis_1_1physics_1_1triple_pi0_1_1_rec_tree.html" target="_top" xlink:title="ant::analysis::physics\l::triplePi0::RecTree">
<polygon fill="white" stroke="black" points="431,-128 431,-158 549,-158 549,-128 431,-128"/>
<text text-anchor="start" x="439" y="-146" font-family="Helvetica,sans-Serif" font-size="10.00">ant::analysis::physics</text>
<text text-anchor="middle" x="490" y="-135" font-family="Helvetica,sans-Serif" font-size="10.00">::triplePi0::RecTree</text>
</a>
</g>
</g>
<!-- Node6&#45;&gt;Node8 -->
<g id="edge7" class="edge"><title>Node6&#45;&gt;Node8</title>
<path fill="none" stroke="midnightblue" d="M258.898,-143C310.885,-143 381.618,-143 430.885,-143"/>
<polygon fill="midnightblue" stroke="midnightblue" points="258.762,-139.5 248.762,-143 258.762,-146.5 258.762,-139.5"/>
</g>
<!-- Node7 -->
<g id="node6" class="node"><title>Node7</title>
<g id="a_node6"><a xlink:href="classant_1_1_wrap_t_tree.html" target="_top" xlink:title="The WrapTTree struct simplifies TTree handling in physics classes. ">
<polygon fill="white" stroke="black" points="0,-106.5 0,-125.5 86,-125.5 86,-106.5 0,-106.5"/>
<text text-anchor="middle" x="43" y="-113.5" font-family="Helvetica,sans-Serif" font-size="10.00">ant::WrapTTree</text>
</a>
</g>
</g>
<!-- Node7&#45;&gt;Node6 -->
<g id="edge5" class="edge"><title>Node7&#45;&gt;Node6</title>
<path fill="none" stroke="midnightblue" d="M96.1679,-125.748C107.287,-127.825 119.096,-130.032 130.421,-132.148"/>
<polygon fill="midnightblue" stroke="midnightblue" points="96.6566,-122.278 86.1838,-123.882 95.3708,-129.159 96.6566,-122.278"/>
</g>
<!-- Node11 -->
<g id="node10" class="node"><title>Node11</title>
<g id="a_node10"><a xlink:href="structant_1_1analysis_1_1physics_1_1sigma_plus_1_1_pion_prod_tree.html" target="_top" xlink:title="ant::analysis::physics\l::sigmaPlus::PionProdTree">
<polygon fill="white" stroke="black" points="274,-83 274,-113 413,-113 413,-83 274,-83"/>
<text text-anchor="start" x="282" y="-101" font-family="Helvetica,sans-Serif" font-size="10.00">ant::analysis::physics</text>
<text text-anchor="middle" x="343.5" y="-90" font-family="Helvetica,sans-Serif" font-size="10.00">::sigmaPlus::PionProdTree</text>
</a>
</g>
</g>
<!-- Node7&#45;&gt;Node11 -->
<g id="edge11" class="edge"><title>Node7&#45;&gt;Node11</title>
<path fill="none" stroke="midnightblue" d="M96.262,-112.849C145.569,-109.875 219.786,-105.4 273.849,-102.14"/>
<polygon fill="midnightblue" stroke="midnightblue" points="95.9058,-109.364 86.1347,-113.459 96.3272,-116.351 95.9058,-109.364"/>
</g>
<!-- Node8&#45;&gt;Node2 -->
<g id="edge6" class="edge"><title>Node8&#45;&gt;Node2</title>
<path fill="none" stroke="#9a32cd" stroke-dasharray="5,2" d="M559.224,-133.664C587.345,-129.816 618.874,-125.501 642.804,-122.227"/>
<polygon fill="#9a32cd" stroke="#9a32cd" points="558.472,-130.234 549.039,-135.058 559.421,-137.17 558.472,-130.234"/>
<text text-anchor="middle" x="596" y="-136" font-family="Helvetica,sans-Serif" font-size="10.00"> recTree</text>
</g>
<!-- Node9 -->
<g id="node8" class="node"><title>Node9</title>
<g id="a_node8"><a xlink:title="STL class. ">
<polygon fill="white" stroke="#bfbfbf" points="457.5,-42.5 457.5,-61.5 522.5,-61.5 522.5,-42.5 457.5,-42.5"/>
<text text-anchor="middle" x="490" y="-49.5" font-family="Helvetica,sans-Serif" font-size="10.00">std::string</text>
</a>
</g>
</g>
<!-- Node9&#45;&gt;Node2 -->
<g id="edge8" class="edge"><title>Node9&#45;&gt;Node2</title>
<path fill="none" stroke="#9a32cd" stroke-dasharray="5,2" d="M532.572,-53.1031C559.831,-55.1111 595.71,-60.2449 625,-73 643.591,-81.096 661.345,-96.8766 671.704,-107.173"/>
<polygon fill="#9a32cd" stroke="#9a32cd" points="532.778,-49.6092 522.579,-52.4772 532.341,-56.5955 532.778,-49.6092"/>
<text text-anchor="middle" x="596" y="-76" font-family="Helvetica,sans-Serif" font-size="10.00"> data_name</text>
</g>
<!-- Node10 -->
<g id="node9" class="node"><title>Node10</title>
<g id="a_node9"><a xlink:title="STL class. ">
<polygon fill="white" stroke="#bfbfbf" points="138,-39 138,-69 241,-69 241,-39 138,-39"/>
<text text-anchor="start" x="146" y="-57" font-family="Helvetica,sans-Serif" font-size="10.00">std::basic_string&lt;</text>
<text text-anchor="middle" x="189.5" y="-46" font-family="Helvetica,sans-Serif" font-size="10.00"> char &gt;</text>
</a>
</g>
</g>
<!-- Node10&#45;&gt;Node9 -->
<g id="edge9" class="edge"><title>Node10&#45;&gt;Node9</title>
<path fill="none" stroke="midnightblue" d="M251.253,-53.5929C313.714,-53.1744 408.542,-52.5391 457.417,-52.2116"/>
<polygon fill="midnightblue" stroke="midnightblue" points="251.113,-50.0937 241.136,-53.6607 251.16,-57.0936 251.113,-50.0937"/>
</g>
<!-- Node11&#45;&gt;Node2 -->
<g id="edge10" class="edge"><title>Node11&#45;&gt;Node2</title>
<path fill="none" stroke="#9a32cd" stroke-dasharray="5,2" d="M423.635,-100.899C461.574,-102.438 507.657,-104.525 549,-107 580.659,-108.895 616.543,-111.653 642.898,-113.793"/>
<polygon fill="#9a32cd" stroke="#9a32cd" points="423.293,-97.3826 413.161,-100.48 423.013,-104.377 423.293,-97.3826"/>
<text text-anchor="middle" x="490" y="-110" font-family="Helvetica,sans-Serif" font-size="10.00"> tree</text>
</g>
<!-- Node12 -->
<g id="node11" class="node"><title>Node12</title>
<g id="a_node11"><a xlink:href="classant_1_1_bin_settings.html" target="_top" xlink:title="ant::BinSettings">
<polygon fill="white" stroke="black" points="443.5,-2.5 443.5,-21.5 536.5,-21.5 536.5,-2.5 443.5,-2.5"/>
<text text-anchor="middle" x="490" y="-9.5" font-family="Helvetica,sans-Serif" font-size="10.00">ant::BinSettings</text>
</a>
</g>
</g>
<!-- Node12&#45;&gt;Node2 -->
<g id="edge12" class="edge"><title>Node12&#45;&gt;Node2</title>
<path fill="none" stroke="#9a32cd" stroke-dasharray="5,2" d="M546.482,-16.1453C572.02,-20.143 601.74,-27.9209 625,-43 650.281,-59.3888 668.509,-91.3199 676.498,-107.342"/>
<polygon fill="#9a32cd" stroke="#9a32cd" points="546.949,-12.6766 536.558,-14.7449 545.97,-19.6079 546.949,-12.6766"/>
<text text-anchor="middle" x="596" y="-46" font-family="Helvetica,sans-Serif" font-size="10.00"> taggerBins</text>
</g>
<!-- Node13 -->
<g id="node12" class="node"><title>Node13</title>
<g id="a_node12"><a xlink:href="classant_1_1interval.html" target="_top" xlink:title="ant::interval\&lt; double \&gt;">
<polygon fill="white" stroke="black" points="125.5,-0.5 125.5,-19.5 253.5,-19.5 253.5,-0.5 125.5,-0.5"/>
<text text-anchor="middle" x="189.5" y="-7.5" font-family="Helvetica,sans-Serif" font-size="10.00">ant::interval&lt; double &gt;</text>
</a>
</g>
</g>
<!-- Node13&#45;&gt;Node12 -->
<g id="edge13" class="edge"><title>Node13&#45;&gt;Node12</title>
<path fill="none" stroke="midnightblue" d="M264.04,-10.4927C320.126,-10.8685 395.615,-11.3743 443.299,-11.6938"/>
<polygon fill="midnightblue" stroke="midnightblue" points="263.827,-6.99132 253.804,-10.4241 263.78,-13.9912 263.827,-6.99132"/>
</g>
</g>
</svg>
