<?xml version="1.0" encoding="UTF-8" standalone="no"?>
<!DOCTYPE svg PUBLIC "-//W3C//DTD SVG 1.1//EN"
 "http://www.w3.org/Graphics/SVG/1.1/DTD/svg11.dtd">
<!-- Generated by graphviz version 2.38.0 (20140413.2041)
 -->
<!-- Title: ant::analysis::physics::MCTrueOverview Pages: 1 -->
<svg width="2138pt" height="241pt"
 viewBox="0.00 0.00 2138.00 241.00" xmlns="http://www.w3.org/2000/svg" xmlns:xlink="http://www.w3.org/1999/xlink">
<g id="graph0" class="graph" transform="scale(1 1) rotate(0) translate(4 237)">
<title>ant::analysis::physics::MCTrueOverview</title>
<polygon fill="white" stroke="none" points="-4,4 -4,-237 2134,-237 2134,4 -4,4"/>
<!-- Node2 -->
<g id="node1" class="node"><title>Node2</title>
<polygon fill="#bfbfbf" stroke="black" points="2012,-100 2012,-130 2130,-130 2130,-100 2012,-100"/>
<text text-anchor="start" x="2020" y="-118" font-family="Helvetica,sans-Serif" font-size="10.00">ant::analysis::physics</text>
<text text-anchor="middle" x="2071" y="-107" font-family="Helvetica,sans-Serif" font-size="10.00">::MCTrueOverview</text>
</g>
<!-- Node3 -->
<g id="node2" class="node"><title>Node3</title>
<g id="a_node2"><a xlink:href="classant_1_1analysis_1_1_physics.html" target="_top" xlink:title="ant::analysis::Physics">
<polygon fill="white" stroke="black" points="1798,-131.5 1798,-150.5 1916,-150.5 1916,-131.5 1798,-131.5"/>
<text text-anchor="middle" x="1857" y="-138.5" font-family="Helvetica,sans-Serif" font-size="10.00">ant::analysis::Physics</text>
</a>
</g>
</g>
<!-- Node3&#45;&gt;Node2 -->
<g id="edge1" class="edge"><title>Node3&#45;&gt;Node2</title>
<path fill="none" stroke="midnightblue" d="M1926.2,-132.636C1953.83,-129.247 1985.41,-125.375 2011.92,-122.123"/>
<polygon fill="midnightblue" stroke="midnightblue" points="1925.71,-129.17 1916.21,-133.861 1926.56,-136.118 1925.71,-129.17"/>
</g>
<!-- Node4 -->
<g id="node3" class="node"><title>Node4</title>
<g id="a_node3"><a xlink:href="classant_1_1analysis_1_1_histogram_factory.html" target="_top" xlink:title="ant::analysis::Histogram\lFactory">
<polygon fill="white" stroke="black" points="1545.5,-126 1545.5,-156 1678.5,-156 1678.5,-126 1545.5,-126"/>
<text text-anchor="start" x="1553.5" y="-144" font-family="Helvetica,sans-Serif" font-size="10.00">ant::analysis::Histogram</text>
<text text-anchor="middle" x="1612" y="-133" font-family="Helvetica,sans-Serif" font-size="10.00">Factory</text>
</a>
</g>
</g>
<!-- Node4&#45;&gt;Node3 -->
<g id="edge2" class="edge"><title>Node4&#45;&gt;Node3</title>
<path fill="none" stroke="#9a32cd" stroke-dasharray="5,2" d="M1688.96,-141C1724.04,-141 1765.05,-141 1797.65,-141"/>
<polygon fill="#9a32cd" stroke="#9a32cd" points="1688.76,-137.5 1678.76,-141 1688.76,-144.5 1688.76,-137.5"/>
<text text-anchor="middle" x="1741.5" y="-144" font-family="Helvetica,sans-Serif" font-size="10.00"> HistFac</text>
</g>
<!-- Node5 -->
<g id="node4" class="node"><title>Node5</title>
<polygon fill="white" stroke="#bfbfbf" points="1784,-49.5 1784,-112.5 1930,-112.5 1930,-49.5 1784,-49.5"/>
<text text-anchor="start" x="1792" y="-100.5" font-family="Helvetica,sans-Serif" font-size="10.00">std::map&lt; ParticleTypeTree</text>
<text text-anchor="start" x="1792" y="-89.5" font-family="Helvetica,sans-Serif" font-size="10.00">Database::Channel, std</text>
<text text-anchor="start" x="1792" y="-78.5" font-family="Helvetica,sans-Serif" font-size="10.00">::unique_ptr&lt; ant::analysis</text>
<text text-anchor="start" x="1792" y="-67.5" font-family="Helvetica,sans-Serif" font-size="10.00">::physics::MCTrueOverview::</text>
<text text-anchor="middle" x="1857" y="-56.5" font-family="Helvetica,sans-Serif" font-size="10.00">perChannel_t &gt; &gt;</text>
</g>
<!-- Node5&#45;&gt;Node2 -->
<g id="edge3" class="edge"><title>Node5&#45;&gt;Node2</title>
<path fill="none" stroke="#9a32cd" stroke-dasharray="5,2" d="M1940.2,-94.1826C1964.11,-98.0173 1989.72,-102.125 2011.83,-105.67"/>
<polygon fill="#9a32cd" stroke="#9a32cd" points="1940.5,-90.6861 1930.07,-92.5583 1939.39,-97.5978 1940.5,-90.6861"/>
<text text-anchor="middle" x="1971" y="-106" font-family="Helvetica,sans-Serif" font-size="10.00"> channels</text>
</g>
<!-- Node6 -->
<g id="node5" class="node"><title>Node6</title>
<polygon fill="white" stroke="#bfbfbf" points="1525,-60.5 1525,-101.5 1699,-101.5 1699,-60.5 1525,-60.5"/>
<text text-anchor="start" x="1533" y="-89.5" font-family="Helvetica,sans-Serif" font-size="10.00">std::unique_ptr&lt; ant</text>
<text text-anchor="start" x="1533" y="-78.5" font-family="Helvetica,sans-Serif" font-size="10.00">::analysis::physics::</text>
<text text-anchor="middle" x="1612" y="-67.5" font-family="Helvetica,sans-Serif" font-size="10.00">MCTrueOverview::perChannel_t &gt;</text>
</g>
<!-- Node6&#45;&gt;Node5 -->
<g id="edge4" class="edge"><title>Node6&#45;&gt;Node5</title>
<path fill="none" stroke="#9a32cd" stroke-dasharray="5,2" d="M1709.19,-81C1734.04,-81 1760.37,-81 1783.76,-81"/>
<polygon fill="#9a32cd" stroke="#9a32cd" points="1709.01,-77.5001 1699.01,-81 1709.01,-84.5001 1709.01,-77.5001"/>
<text text-anchor="middle" x="1741.5" y="-84" font-family="Helvetica,sans-Serif" font-size="10.00"> elements</text>
</g>
<!-- Node7 -->
<g id="node6" class="node"><title>Node7</title>
<g id="a_node6"><a xlink:href="structant_1_1analysis_1_1physics_1_1_m_c_true_overview_1_1per_channel__t.html" target="_top" xlink:title="ant::analysis::physics\l::MCTrueOverview::perChannel_t">
<polygon fill="white" stroke="black" points="1303,-66 1303,-96 1472,-96 1472,-66 1303,-66"/>
<text text-anchor="start" x="1311" y="-84" font-family="Helvetica,sans-Serif" font-size="10.00">ant::analysis::physics</text>
<text text-anchor="middle" x="1387.5" y="-73" font-family="Helvetica,sans-Serif" font-size="10.00">::MCTrueOverview::perChannel_t</text>
</a>
</g>
</g>
<!-- Node7&#45;&gt;Node6 -->
<g id="edge5" class="edge"><title>Node7&#45;&gt;Node6</title>
<path fill="none" stroke="#9a32cd" stroke-dasharray="5,2" d="M1482.43,-81C1496.44,-81 1510.83,-81 1524.68,-81"/>
<polygon fill="#9a32cd" stroke="#9a32cd" points="1482.3,-77.5001 1472.3,-81 1482.3,-84.5001 1482.3,-77.5001"/>
<text text-anchor="middle" x="1498.5" y="-84" font-family="Helvetica,sans-Serif" font-size="10.00"> ptr</text>
</g>
<!-- Node8 -->
<g id="node7" class="node"><title>Node8</title>
<g id="a_node7"><a xlink:href="classant_1_1_tree.html" target="_top" xlink:title="ant::Tree\&lt; histnode_t \&gt;">
<polygon fill="white" stroke="black" points="1081.5,-148.5 1081.5,-167.5 1212.5,-167.5 1212.5,-148.5 1081.5,-148.5"/>
<text text-anchor="middle" x="1147" y="-155.5" font-family="Helvetica,sans-Serif" font-size="10.00">ant::Tree&lt; histnode_t &gt;</text>
</a>
</g>
</g>
<!-- Node8&#45;&gt;Node7 -->
<g id="edge6" class="edge"><title>Node8&#45;&gt;Node7</title>
<path fill="none" stroke="#9a32cd" stroke-dasharray="5,2" d="M1187.31,-145.31C1229.2,-131.783 1295.51,-110.377 1339.98,-96.0199"/>
<polygon fill="#9a32cd" stroke="#9a32cd" points="1186.16,-142 1177.72,-148.404 1188.32,-148.662 1186.16,-142"/>
<text text-anchor="middle" x="1265" y="-130" font-family="Helvetica,sans-Serif" font-size="10.00"> histtree</text>
</g>
<!-- Node9 -->
<g id="node8" class="node"><title>Node9</title>
<polygon fill="white" stroke="#bfbfbf" points="325.5,-209.5 325.5,-228.5 432.5,-228.5 432.5,-209.5 325.5,-209.5"/>
<text text-anchor="middle" x="379" y="-216.5" font-family="Helvetica,sans-Serif" font-size="10.00">std::list&lt; node_t &gt;</text>
</g>
<!-- Node9&#45;&gt;Node8 -->
<g id="edge7" class="edge"><title>Node9&#45;&gt;Node8</title>
<path fill="none" stroke="#9a32cd" stroke-dasharray="5,2" d="M443.061,-217.986C469.598,-217.493 500.803,-216.826 529,-216 760.183,-209.227 822.604,-243.287 1049,-196 1077.33,-190.083 1108.14,-176.719 1127.26,-167.527"/>
<polygon fill="#9a32cd" stroke="#9a32cd" points="442.693,-214.492 432.758,-218.173 442.82,-221.491 442.693,-214.492"/>
<text text-anchor="middle" x="792" y="-225" font-family="Helvetica,sans-Serif" font-size="10.00"> daughters</text>
</g>
<!-- Node17 -->
<g id="node16" class="node"><title>Node17</title>
<g id="a_node16"><a xlink:href="classant_1_1_tree.html" target="_top" xlink:title="ant::Tree\&lt; T \&gt;">
<polygon fill="white" stroke="black" points="604.5,-172.5 604.5,-191.5 690.5,-191.5 690.5,-172.5 604.5,-172.5"/>
<text text-anchor="middle" x="647.5" y="-179.5" font-family="Helvetica,sans-Serif" font-size="10.00">ant::Tree&lt; T &gt;</text>
</a>
</g>
</g>
<!-- Node9&#45;&gt;Node17 -->
<g id="edge17" class="edge"><title>Node9&#45;&gt;Node17</title>
<path fill="none" stroke="#9a32cd" stroke-dasharray="5,2" d="M442.537,-209.895C453.998,-208.248 465.857,-206.56 477,-205 520.38,-198.926 570.041,-192.216 604.344,-187.619"/>
<polygon fill="#9a32cd" stroke="#9a32cd" points="441.995,-206.436 432.596,-211.326 442.992,-213.365 441.995,-206.436"/>
<text text-anchor="middle" x="503" y="-208" font-family="Helvetica,sans-Serif" font-size="10.00"> daughters</text>
</g>
<!-- Node10 -->
<g id="node9" class="node"><title>Node10</title>
<g id="a_node9"><a xlink:href="structant_1_1analysis_1_1physics_1_1_m_c_true_overview_1_1per_channel__t_1_1histnode__t.html" target="_top" xlink:title="ant::analysis::physics\l::MCTrueOverview::perChannel\l_t::histnode_t">
<polygon fill="white" stroke="black" points="836,-109.5 836,-150.5 996,-150.5 996,-109.5 836,-109.5"/>
<text text-anchor="start" x="844" y="-138.5" font-family="Helvetica,sans-Serif" font-size="10.00">ant::analysis::physics</text>
<text text-anchor="start" x="844" y="-127.5" font-family="Helvetica,sans-Serif" font-size="10.00">::MCTrueOverview::perChannel</text>
<text text-anchor="middle" x="916" y="-116.5" font-family="Helvetica,sans-Serif" font-size="10.00">_t::histnode_t</text>
</a>
</g>
</g>
<!-- Node10&#45;&gt;Node8 -->
<g id="edge8" class="edge"><title>Node10&#45;&gt;Node8</title>
<path fill="none" stroke="#9a32cd" stroke-dasharray="5,2" d="M1006.35,-140.925C1031.34,-143.98 1058.01,-147.241 1081.28,-150.086"/>
<polygon fill="#9a32cd" stroke="#9a32cd" points="1006.48,-137.415 996.129,-139.675 1005.63,-144.363 1006.48,-137.415"/>
<text text-anchor="middle" x="1031.5" y="-149" font-family="Helvetica,sans-Serif" font-size="10.00"> data</text>
</g>
<!-- Node11 -->
<g id="node10" class="node"><title>Node11</title>
<polygon fill="white" stroke="#bfbfbf" points="547,-91 547,-143 748,-143 748,-91 547,-91"/>
<text text-anchor="start" x="555" y="-131" font-family="Helvetica,sans-Serif" font-size="10.00">std::map&lt; ant::ParticleType</text>
<text text-anchor="start" x="555" y="-120" font-family="Helvetica,sans-Serif" font-size="10.00">Database::Type, ant::analysis</text>
<text text-anchor="start" x="555" y="-109" font-family="Helvetica,sans-Serif" font-size="10.00">::physics::MCTrueOverview::perChannel</text>
<text text-anchor="middle" x="647.5" y="-98" font-family="Helvetica,sans-Serif" font-size="10.00">_t::histnode_t::perType_t &gt;</text>
</g>
<!-- Node11&#45;&gt;Node10 -->
<g id="edge9" class="edge"><title>Node11&#45;&gt;Node10</title>
<path fill="none" stroke="#9a32cd" stroke-dasharray="5,2" d="M758.385,-122.36C784.364,-123.627 811.565,-124.954 835.873,-126.14"/>
<polygon fill="#9a32cd" stroke="#9a32cd" points="758.272,-118.851 748.114,-121.859 757.931,-125.842 758.272,-118.851"/>
<text text-anchor="middle" x="792" y="-129" font-family="Helvetica,sans-Serif" font-size="10.00"> hists</text>
</g>
<!-- Node12 -->
<g id="node11" class="node"><title>Node12</title>
<g id="a_node11"><a xlink:href="structant_1_1analysis_1_1physics_1_1_m_c_true_overview_1_1per_channel__t_1_1histnode__t_1_1per_type__t.html" target="_top" xlink:title="ant::analysis::physics\l::MCTrueOverview::perChannel\l_t::histnode_t::perType_t">
<polygon fill="white" stroke="black" points="299,-98.5 299,-139.5 459,-139.5 459,-98.5 299,-98.5"/>
<text text-anchor="start" x="307" y="-127.5" font-family="Helvetica,sans-Serif" font-size="10.00">ant::analysis::physics</text>
<text text-anchor="start" x="307" y="-116.5" font-family="Helvetica,sans-Serif" font-size="10.00">::MCTrueOverview::perChannel</text>
<text text-anchor="middle" x="379" y="-105.5" font-family="Helvetica,sans-Serif" font-size="10.00">_t::histnode_t::perType_t</text>
</a>
</g>
</g>
<!-- Node12&#45;&gt;Node11 -->
<g id="edge10" class="edge"><title>Node12&#45;&gt;Node11</title>
<path fill="none" stroke="#9a32cd" stroke-dasharray="5,2" d="M469.366,-118.329C494.212,-118.143 521.35,-117.939 546.751,-117.749"/>
<polygon fill="#9a32cd" stroke="#9a32cd" points="469.211,-114.83 459.237,-118.405 469.263,-121.83 469.211,-114.83"/>
<text text-anchor="middle" x="503" y="-122" font-family="Helvetica,sans-Serif" font-size="10.00"> elements</text>
</g>
<!-- Node13 -->
<g id="node12" class="node"><title>Node13</title>
<g id="a_node12"><a xlink:href="classant_1_1_particle_type_database_1_1_type.html" target="_top" xlink:title="ant::ParticleTypeDatabase\l::Type">
<polygon fill="white" stroke="black" points="309,-20 309,-50 449,-50 449,-20 309,-20"/>
<text text-anchor="start" x="317" y="-38" font-family="Helvetica,sans-Serif" font-size="10.00">ant::ParticleTypeDatabase</text>
<text text-anchor="middle" x="379" y="-27" font-family="Helvetica,sans-Serif" font-size="10.00">::Type</text>
</a>
</g>
</g>
<!-- Node13&#45;&gt;Node11 -->
<g id="edge11" class="edge"><title>Node13&#45;&gt;Node11</title>
<path fill="none" stroke="#9a32cd" stroke-dasharray="5,2" d="M438.763,-53.081C474.865,-64.1893 521.715,-78.6045 561.783,-90.9332"/>
<polygon fill="#9a32cd" stroke="#9a32cd" points="439.467,-49.6358 428.88,-50.0401 437.409,-56.3262 439.467,-49.6358"/>
<text text-anchor="middle" x="503" y="-82" font-family="Helvetica,sans-Serif" font-size="10.00"> keys</text>
</g>
<!-- Node13&#45;&gt;Node13 -->
<g id="edge14" class="edge"><title>Node13&#45;&gt;Node13</title>
<path fill="none" stroke="#9a32cd" stroke-dasharray="5,2" d="M356.967,-60.4579C359.701,-65.179 367.046,-68.5 379,-68.5 398.617,-68.5 405.82,-59.5566 400.61,-50.159"/>
<polygon fill="#9a32cd" stroke="#9a32cd" points="360.476,-60.2945 357.39,-50.159 353.482,-60.0066 360.476,-60.2945"/>
<text text-anchor="middle" x="379" y="-71.5" font-family="Helvetica,sans-Serif" font-size="10.00"> sametype</text>
</g>
<!-- Node14 -->
<g id="node13" class="node"><title>Node14</title>
<g id="a_node13"><a xlink:title="STL class. ">
<polygon fill="white" stroke="#bfbfbf" points="140,-25.5 140,-44.5 205,-44.5 205,-25.5 140,-25.5"/>
<text text-anchor="middle" x="172.5" y="-32.5" font-family="Helvetica,sans-Serif" font-size="10.00">std::string</text>
</a>
</g>
</g>
<!-- Node14&#45;&gt;Node13 -->
<g id="edge12" class="edge"><title>Node14&#45;&gt;Node13</title>
<path fill="none" stroke="#9a32cd" stroke-dasharray="5,2" d="M215.218,-35C242.099,-35 277.701,-35 308.754,-35"/>
<polygon fill="#9a32cd" stroke="#9a32cd" points="215.005,-31.5001 205.005,-35 215.005,-38.5001 215.005,-31.5001"/>
<text text-anchor="middle" x="252" y="-49" font-family="Helvetica,sans-Serif" font-size="10.00"> print_name</text>
<text text-anchor="middle" x="252" y="-38" font-family="Helvetica,sans-Serif" font-size="10.00">name</text>
</g>
<!-- Node15 -->
<g id="node14" class="node"><title>Node15</title>
<g id="a_node14"><a xlink:title="STL class. ">
<polygon fill="white" stroke="#bfbfbf" points="0,-20 0,-50 103,-50 103,-20 0,-20"/>
<text text-anchor="start" x="8" y="-38" font-family="Helvetica,sans-Serif" font-size="10.00">std::basic_string&lt;</text>
<text text-anchor="middle" x="51.5" y="-27" font-family="Helvetica,sans-Serif" font-size="10.00"> char &gt;</text>
</a>
</g>
</g>
<!-- Node15&#45;&gt;Node14 -->
<g id="edge13" class="edge"><title>Node15&#45;&gt;Node14</title>
<path fill="none" stroke="midnightblue" d="M113.539,-35C122.619,-35 131.651,-35 139.788,-35"/>
<polygon fill="midnightblue" stroke="midnightblue" points="113.312,-31.5001 103.312,-35 113.312,-38.5001 113.312,-31.5001"/>
</g>
<!-- Node16 -->
<g id="node15" class="node"><title>Node16</title>
<polygon fill="white" stroke="#bfbfbf" points="855,-169.5 855,-188.5 977,-188.5 977,-169.5 855,-169.5"/>
<text text-anchor="middle" x="916" y="-176.5" font-family="Helvetica,sans-Serif" font-size="10.00">std::weak_ptr&lt; Tree &gt;</text>
</g>
<!-- Node16&#45;&gt;Node8 -->
<g id="edge15" class="edge"><title>Node16&#45;&gt;Node8</title>
<path fill="none" stroke="#9a32cd" stroke-dasharray="5,2" d="M987.152,-172.567C1017.18,-169.813 1052.03,-166.617 1081.42,-163.922"/>
<polygon fill="#9a32cd" stroke="#9a32cd" points="986.806,-169.084 977.167,-173.482 987.445,-176.055 986.806,-169.084"/>
<text text-anchor="middle" x="1031.5" y="-184" font-family="Helvetica,sans-Serif" font-size="10.00"> parent</text>
<text text-anchor="middle" x="1031.5" y="-173" font-family="Helvetica,sans-Serif" font-size="10.00">self</text>
</g>
<!-- Node16&#45;&gt;Node17 -->
<g id="edge18" class="edge"><title>Node16&#45;&gt;Node17</title>
<path fill="none" stroke="#9a32cd" stroke-dasharray="5,2" d="M863.979,-167.005C854.656,-164.735 845.025,-162.338 836,-160 827.962,-157.918 826.227,-156.121 818,-155 795.101,-151.879 788.964,-152.396 766,-155 736.883,-158.302 704.472,-166.068 681.078,-172.427"/>
<polygon fill="#9a32cd" stroke="#9a32cd" points="863.387,-170.463 873.93,-169.41 865.032,-163.659 863.387,-170.463"/>
<text text-anchor="middle" x="792" y="-169" font-family="Helvetica,sans-Serif" font-size="10.00"> parent</text>
<text text-anchor="middle" x="792" y="-158" font-family="Helvetica,sans-Serif" font-size="10.00">self</text>
</g>
<!-- Node17&#45;&gt;Node16 -->
<g id="edge16" class="edge"><title>Node17&#45;&gt;Node16</title>
<path fill="none" stroke="#9a32cd" stroke-dasharray="5,2" d="M700.968,-181.409C745.149,-180.912 808.361,-180.2 854.635,-179.68"/>
<polygon fill="#9a32cd" stroke="#9a32cd" points="700.688,-177.912 690.728,-181.525 700.767,-184.912 700.688,-177.912"/>
<text text-anchor="middle" x="792" y="-184" font-family="Helvetica,sans-Serif" font-size="10.00"> ptr</text>
</g>
<!-- Node18 -->
<g id="node17" class="node"><title>Node18</title>
<polygon fill="white" stroke="#bfbfbf" points="364.5,-160.5 364.5,-179.5 393.5,-179.5 393.5,-160.5 364.5,-160.5"/>
<text text-anchor="middle" x="379" y="-167.5" font-family="Helvetica,sans-Serif" font-size="10.00">T</text>
</g>
<!-- Node18&#45;&gt;Node17 -->
<g id="edge19" class="edge"><title>Node18&#45;&gt;Node17</title>
<path fill="none" stroke="#9a32cd" stroke-dasharray="5,2" d="M403.689,-169.527C433.098,-169.085 484.785,-168.786 529,-171 554.067,-172.255 582.049,-174.828 604.416,-177.17"/>
<polygon fill="#9a32cd" stroke="#9a32cd" points="403.51,-166.029 393.57,-169.698 403.628,-173.028 403.51,-166.029"/>
<text text-anchor="middle" x="503" y="-174" font-family="Helvetica,sans-Serif" font-size="10.00"> data</text>
</g>
<!-- Node19 -->
<g id="node18" class="node"><title>Node19</title>
<g id="a_node18"><a xlink:href="structant_1_1analysis_1_1physics_1_1_m_c_true_overview_1_1per_channel__t_1_1tree__t.html" target="_top" xlink:title="ant::analysis::physics\l::MCTrueOverview::perChannel\l_t::tree_t">
<polygon fill="white" stroke="black" points="1067,-60.5 1067,-101.5 1227,-101.5 1227,-60.5 1067,-60.5"/>
<text text-anchor="start" x="1075" y="-89.5" font-family="Helvetica,sans-Serif" font-size="10.00">ant::analysis::physics</text>
<text text-anchor="start" x="1075" y="-78.5" font-family="Helvetica,sans-Serif" font-size="10.00">::MCTrueOverview::perChannel</text>
<text text-anchor="middle" x="1147" y="-67.5" font-family="Helvetica,sans-Serif" font-size="10.00">_t::tree_t</text>
</a>
</g>
</g>
<!-- Node19&#45;&gt;Node7 -->
<g id="edge20" class="edge"><title>Node19&#45;&gt;Node7</title>
<path fill="none" stroke="#9a32cd" stroke-dasharray="5,2" d="M1237.17,-81C1258.64,-81 1281.5,-81 1302.72,-81"/>
<polygon fill="#9a32cd" stroke="#9a32cd" points="1237.09,-77.5001 1227.09,-81 1237.09,-84.5001 1237.09,-77.5001"/>
<text text-anchor="middle" x="1265" y="-84" font-family="Helvetica,sans-Serif" font-size="10.00"> tree</text>
</g>
<!-- Node20 -->
<g id="node19" class="node"><title>Node20</title>
<g id="a_node19"><a xlink:href="classant_1_1_wrap_t_tree.html" target="_top" xlink:title="The WrapTTree struct simplifies TTree handling in physics classes. ">
<polygon fill="white" stroke="black" points="873,-71.5 873,-90.5 959,-90.5 959,-71.5 873,-71.5"/>
<text text-anchor="middle" x="916" y="-78.5" font-family="Helvetica,sans-Serif" font-size="10.00">ant::WrapTTree</text>
</a>
</g>
</g>
<!-- Node20&#45;&gt;Node19 -->
<g id="edge21" class="edge"><title>Node20&#45;&gt;Node19</title>
<path fill="none" stroke="midnightblue" d="M969.259,-81C998.088,-81 1034.48,-81 1066.74,-81"/>
<polygon fill="midnightblue" stroke="midnightblue" points="969.002,-77.5001 959.002,-81 969.002,-84.5001 969.002,-77.5001"/>
</g>
<!-- Node21 -->
<g id="node20" class="node"><title>Node21</title>
<g id="a_node20"><a xlink:href="structant_1_1analysis_1_1physics_1_1_m_c_true_overview_1_1_c_b_t_a_p_s___multiplicity.html" target="_top" xlink:title="ant::analysis::physics\l::MCTrueOverview::CBTAPS\l_Multiplicity">
<polygon fill="white" stroke="black" points="1075.5,-0.5 1075.5,-41.5 1218.5,-41.5 1218.5,-0.5 1075.5,-0.5"/>
<text text-anchor="start" x="1083.5" y="-29.5" font-family="Helvetica,sans-Serif" font-size="10.00">ant::analysis::physics</text>
<text text-anchor="start" x="1083.5" y="-18.5" font-family="Helvetica,sans-Serif" font-size="10.00">::MCTrueOverview::CBTAPS</text>
<text text-anchor="middle" x="1147" y="-7.5" font-family="Helvetica,sans-Serif" font-size="10.00">_Multiplicity</text>
</a>
</g>
</g>
<!-- Node21&#45;&gt;Node7 -->
<g id="edge22" class="edge"><title>Node21&#45;&gt;Node7</title>
<path fill="none" stroke="#9a32cd" stroke-dasharray="5,2" d="M1228.41,-41.2282C1260.52,-49.3059 1296.84,-58.4447 1326.57,-65.9233"/>
<polygon fill="#9a32cd" stroke="#9a32cd" points="1229.14,-37.804 1218.59,-38.7584 1227.43,-44.5925 1229.14,-37.804"/>
<text text-anchor="middle" x="1265" y="-58" font-family="Helvetica,sans-Serif" font-size="10.00"> mult</text>
</g>
</g>
</svg>
