<?xml version="1.0" encoding="UTF-8" standalone="no"?>
<!DOCTYPE svg PUBLIC "-//W3C//DTD SVG 1.1//EN"
 "http://www.w3.org/Graphics/SVG/1.1/DTD/svg11.dtd">
<!-- Generated by graphviz version 2.38.0 (20140413.2041)
 -->
<!-- Title: ant::calibration::TaggEff Pages: 1 -->
<svg width="481pt" height="116pt"
 viewBox="0.00 0.00 481.00 115.50" xmlns="http://www.w3.org/2000/svg" xmlns:xlink="http://www.w3.org/1999/xlink">
<g id="graph0" class="graph" transform="scale(1 1) rotate(0) translate(4 111.5)">
<title>ant::calibration::TaggEff</title>
<polygon fill="white" stroke="none" points="-4,4 -4,-111.5 477,-111.5 477,4 -4,4"/>
<!-- Node0 -->
<g id="node1" class="node"><title>Node0</title>
<polygon fill="#bfbfbf" stroke="black" points="345,-50 345,-69 473,-69 473,-50 345,-50"/>
<text text-anchor="middle" x="409" y="-57" font-family="Helvetica,sans-Serif" font-size="10.00">ant::calibration::TaggEff</text>
</g>
<!-- Node1 -->
<g id="node2" class="node"><title>Node1</title>
<g id="a_node2"><a xlink:href="classant_1_1_calibration_1_1_base_module.html" target="_top" xlink:title="The BaseModule class provides a name for identification. ">
<polygon fill="white" stroke="black" points="155,-88 155,-107 309,-107 309,-88 155,-88"/>
<text text-anchor="middle" x="232" y="-95" font-family="Helvetica,sans-Serif" font-size="10.00">ant::Calibration::BaseModule</text>
</a>
</g>
</g>
<!-- Node1&#45;&gt;Node0 -->
<g id="edge1" class="edge"><title>Node1&#45;&gt;Node0</title>
<path fill="none" stroke="midnightblue" d="M287.124,-85.7474C311.869,-80.3742 340.803,-74.0914 364.158,-69.0201"/>
<polygon fill="midnightblue" stroke="midnightblue" points="286.189,-82.3686 277.16,-87.911 287.675,-89.2092 286.189,-82.3686"/>
</g>
<!-- Node2 -->
<g id="node3" class="node"><title>Node2</title>
<g id="a_node3"><a xlink:href="structant_1_1_updateable__traits.html" target="_top" xlink:title="The Updateable_traits class used by the UpdateableManager. ">
<polygon fill="white" stroke="black" points="170,-50 170,-69 294,-69 294,-50 170,-50"/>
<text text-anchor="middle" x="232" y="-57" font-family="Helvetica,sans-Serif" font-size="10.00">ant::Updateable_traits</text>
</a>
</g>
</g>
<!-- Node2&#45;&gt;Node0 -->
<g id="edge2" class="edge"><title>Node2&#45;&gt;Node0</title>
<path fill="none" stroke="midnightblue" d="M304.323,-59.5C317.713,-59.5 331.627,-59.5 344.751,-59.5"/>
<polygon fill="midnightblue" stroke="midnightblue" points="304.207,-56.0001 294.207,-59.5 304.206,-63.0001 304.207,-56.0001"/>
</g>
<!-- Node3 -->
<g id="node4" class="node"><title>Node3</title>
<g id="a_node4"><a xlink:href="structant_1_1_reconstruct_hook_1_1_event_data.html" target="_top" xlink:title="The EventData struct instances are applied after candidate building. ">
<polygon fill="white" stroke="black" points="172.5,-0.5 172.5,-30.5 291.5,-30.5 291.5,-0.5 172.5,-0.5"/>
<text text-anchor="start" x="180.5" y="-18.5" font-family="Helvetica,sans-Serif" font-size="10.00">ant::ReconstructHook</text>
<text text-anchor="middle" x="232" y="-7.5" font-family="Helvetica,sans-Serif" font-size="10.00">::EventData</text>
</a>
</g>
</g>
<!-- Node3&#45;&gt;Node0 -->
<g id="edge3" class="edge"><title>Node3&#45;&gt;Node0</title>
<path fill="none" stroke="midnightblue" d="M301.596,-32.747C324.864,-38.5973 350.005,-44.9184 370.004,-49.9467"/>
<polygon fill="midnightblue" stroke="midnightblue" points="302.311,-29.3179 291.759,-30.2738 300.604,-36.1066 302.311,-29.3179"/>
</g>
<!-- Node4 -->
<g id="node5" class="node"><title>Node4</title>
<g id="a_node5"><a xlink:href="structant_1_1_reconstruct_hook_1_1_base.html" target="_top" xlink:title="The Base struct just defines some useful types. ">
<polygon fill="white" stroke="black" points="0,-0.5 0,-30.5 119,-30.5 119,-0.5 0,-0.5"/>
<text text-anchor="start" x="8" y="-18.5" font-family="Helvetica,sans-Serif" font-size="10.00">ant::ReconstructHook</text>
<text text-anchor="middle" x="59.5" y="-7.5" font-family="Helvetica,sans-Serif" font-size="10.00">::Base</text>
</a>
</g>
</g>
<!-- Node4&#45;&gt;Node3 -->
<g id="edge4" class="edge"><title>Node4&#45;&gt;Node3</title>
<path fill="none" stroke="midnightblue" d="M129.382,-15.5C143.582,-15.5 158.413,-15.5 172.215,-15.5"/>
<polygon fill="midnightblue" stroke="midnightblue" points="129.176,-12.0001 119.176,-15.5 129.176,-19.0001 129.176,-12.0001"/>
</g>
</g>
</svg>
