<?xml version="1.0" encoding="UTF-8" standalone="no"?>
<!DOCTYPE svg PUBLIC "-//W3C//DTD SVG 1.1//EN"
 "http://www.w3.org/Graphics/SVG/1.1/DTD/svg11.dtd">
<!-- Generated by graphviz version 2.38.0 (20140413.2041)
 -->
<!-- Title: ant::calibration::gui::update_notify_traits Pages: 1 -->
<svg width="611pt" height="259pt"
 viewBox="0.00 0.00 611.00 259.00" xmlns="http://www.w3.org/2000/svg" xmlns:xlink="http://www.w3.org/1999/xlink">
<g id="graph0" class="graph" transform="scale(1 1) rotate(0) translate(4 255)">
<title>ant::calibration::gui::update_notify_traits</title>
<polygon fill="white" stroke="none" points="-4,4 -4,-255 607,-255 607,4 -4,4"/>
<!-- Node0 -->
<g id="node1" class="node"><title>Node0</title>
<polygon fill="#bfbfbf" stroke="black" points="0,-122.5 0,-152.5 118,-152.5 118,-122.5 0,-122.5"/>
<text text-anchor="start" x="8" y="-140.5" font-family="Helvetica,sans-Serif" font-size="10.00">ant::calibration::gui</text>
<text text-anchor="middle" x="59" y="-129.5" font-family="Helvetica,sans-Serif" font-size="10.00">::update_notify_traits</text>
</g>
<!-- Node1 -->
<g id="node2" class="node"><title>Node1</title>
<g id="a_node2"><a xlink:href="classant_1_1calibration_1_1gui_1_1_cal_canvas.html" target="_top" xlink:title="ant::calibration::gui\l::CalCanvas">
<polygon fill="white" stroke="black" points="168.5,-220.5 168.5,-250.5 276.5,-250.5 276.5,-220.5 168.5,-220.5"/>
<text text-anchor="start" x="176.5" y="-238.5" font-family="Helvetica,sans-Serif" font-size="10.00">ant::calibration::gui</text>
<text text-anchor="middle" x="222.5" y="-227.5" font-family="Helvetica,sans-Serif" font-size="10.00">::CalCanvas</text>
</a>
</g>
</g>
<!-- Node0&#45;&gt;Node1 -->
<g id="edge1" class="edge"><title>Node0&#45;&gt;Node1</title>
<path fill="none" stroke="midnightblue" d="M83.5438,-159.609C101.681,-175.716 127.981,-197.141 154,-211.5 159.989,-214.805 166.521,-217.798 173.085,-220.46"/>
<polygon fill="midnightblue" stroke="midnightblue" points="85.5817,-156.733 75.8148,-152.627 80.8894,-161.928 85.5817,-156.733"/>
</g>
<!-- Node2 -->
<g id="node3" class="node"><title>Node2</title>
<g id="a_node3"><a xlink:href="classant_1_1calibration_1_1gui_1_1_editor_canvas.html" target="_top" xlink:title="ant::calibration::gui\l::EditorCanvas">
<polygon fill="white" stroke="black" points="168.5,-171.5 168.5,-201.5 276.5,-201.5 276.5,-171.5 168.5,-171.5"/>
<text text-anchor="start" x="176.5" y="-189.5" font-family="Helvetica,sans-Serif" font-size="10.00">ant::calibration::gui</text>
<text text-anchor="middle" x="222.5" y="-178.5" font-family="Helvetica,sans-Serif" font-size="10.00">::EditorCanvas</text>
</a>
</g>
</g>
<!-- Node0&#45;&gt;Node2 -->
<g id="edge2" class="edge"><title>Node0&#45;&gt;Node2</title>
<path fill="none" stroke="midnightblue" d="M119.699,-155.613C136.868,-160.822 155.403,-166.446 171.891,-171.448"/>
<polygon fill="midnightblue" stroke="midnightblue" points="120.359,-152.156 109.773,-152.601 118.326,-158.854 120.359,-152.156"/>
</g>
<!-- Node3 -->
<g id="node4" class="node"><title>Node3</title>
<g id="a_node4"><a xlink:href="classant_1_1calibration_1_1gui_1_1_editor_window.html" target="_top" xlink:title="ant::calibration::gui\l::EditorWindow">
<polygon fill="white" stroke="black" points="168.5,-122.5 168.5,-152.5 276.5,-152.5 276.5,-122.5 168.5,-122.5"/>
<text text-anchor="start" x="176.5" y="-140.5" font-family="Helvetica,sans-Serif" font-size="10.00">ant::calibration::gui</text>
<text text-anchor="middle" x="222.5" y="-129.5" font-family="Helvetica,sans-Serif" font-size="10.00">::EditorWindow</text>
</a>
</g>
</g>
<!-- Node0&#45;&gt;Node3 -->
<g id="edge3" class="edge"><title>Node0&#45;&gt;Node3</title>
<path fill="none" stroke="midnightblue" d="M128.411,-137.5C141.776,-137.5 155.603,-137.5 168.381,-137.5"/>
<polygon fill="midnightblue" stroke="midnightblue" points="128.305,-134 118.305,-137.5 128.305,-141 128.305,-134"/>
</g>
<!-- Node4 -->
<g id="node5" class="node"><title>Node4</title>
<g id="a_node5"><a xlink:href="classant_1_1calibration_1_1gui_1_1_embedded_editor_canvas.html" target="_top" xlink:title="ant::calibration::gui\l::EmbeddedEditorCanvas">
<polygon fill="white" stroke="black" points="154,-73.5 154,-103.5 291,-103.5 291,-73.5 154,-73.5"/>
<text text-anchor="start" x="162" y="-91.5" font-family="Helvetica,sans-Serif" font-size="10.00">ant::calibration::gui</text>
<text text-anchor="middle" x="222.5" y="-80.5" font-family="Helvetica,sans-Serif" font-size="10.00">::EmbeddedEditorCanvas</text>
</a>
</g>
</g>
<!-- Node0&#45;&gt;Node4 -->
<g id="edge4" class="edge"><title>Node0&#45;&gt;Node4</title>
<path fill="none" stroke="midnightblue" d="M119.699,-119.387C136.868,-114.178 155.403,-108.554 171.891,-103.552"/>
<polygon fill="midnightblue" stroke="midnightblue" points="118.326,-116.146 109.773,-122.399 120.359,-122.844 118.326,-116.146"/>
</g>
<!-- Node5 -->
<g id="node6" class="node"><title>Node5</title>
<g id="a_node6"><a xlink:href="classant_1_1calibration_1_1gui_1_1_indicator.html" target="_top" xlink:title="ant::calibration::gui\l::Indicator">
<polygon fill="white" stroke="black" points="168.5,-24.5 168.5,-54.5 276.5,-54.5 276.5,-24.5 168.5,-24.5"/>
<text text-anchor="start" x="176.5" y="-42.5" font-family="Helvetica,sans-Serif" font-size="10.00">ant::calibration::gui</text>
<text text-anchor="middle" x="222.5" y="-31.5" font-family="Helvetica,sans-Serif" font-size="10.00">::Indicator</text>
</a>
</g>
</g>
<!-- Node0&#45;&gt;Node5 -->
<g id="edge5" class="edge"><title>Node0&#45;&gt;Node5</title>
<path fill="none" stroke="midnightblue" d="M83.9807,-115.521C102.16,-99.7249 128.318,-78.7816 154,-64.5 160.553,-60.856 167.742,-57.5468 174.909,-54.6157"/>
<polygon fill="midnightblue" stroke="midnightblue" points="81.3993,-113.131 76.2201,-122.373 86.0327,-118.378 81.3993,-113.131"/>
</g>
<!-- Node6 -->
<g id="node7" class="node"><title>Node6</title>
<g id="a_node7"><a xlink:href="classant_1_1calibration_1_1gui_1_1_indicator_line.html" target="_top" xlink:title="ant::calibration::gui\l::IndicatorLine">
<polygon fill="white" stroke="black" points="327,-24.5 327,-54.5 435,-54.5 435,-24.5 327,-24.5"/>
<text text-anchor="start" x="335" y="-42.5" font-family="Helvetica,sans-Serif" font-size="10.00">ant::calibration::gui</text>
<text text-anchor="middle" x="381" y="-31.5" font-family="Helvetica,sans-Serif" font-size="10.00">::IndicatorLine</text>
</a>
</g>
</g>
<!-- Node5&#45;&gt;Node6 -->
<g id="edge6" class="edge"><title>Node5&#45;&gt;Node6</title>
<path fill="none" stroke="midnightblue" d="M287.299,-39.5C300.426,-39.5 314.116,-39.5 326.82,-39.5"/>
<polygon fill="midnightblue" stroke="midnightblue" points="286.921,-36.0001 276.921,-39.5 286.921,-43.0001 286.921,-36.0001"/>
</g>
<!-- Node7 -->
<g id="node8" class="node"><title>Node7</title>
<g id="a_node8"><a xlink:href="classant_1_1calibration_1_1gui_1_1_horizontal_indicator_line.html" target="_top" xlink:title="ant::calibration::gui\l::HorizontalIndicatorLine">
<polygon fill="white" stroke="black" points="471,-49.5 471,-79.5 603,-79.5 603,-49.5 471,-49.5"/>
<text text-anchor="start" x="479" y="-67.5" font-family="Helvetica,sans-Serif" font-size="10.00">ant::calibration::gui</text>
<text text-anchor="middle" x="537" y="-56.5" font-family="Helvetica,sans-Serif" font-size="10.00">::HorizontalIndicatorLine</text>
</a>
</g>
</g>
<!-- Node6&#45;&gt;Node7 -->
<g id="edge7" class="edge"><title>Node6&#45;&gt;Node7</title>
<path fill="none" stroke="midnightblue" d="M445.539,-49.8148C453.94,-51.1786 462.561,-52.5782 470.987,-53.9459"/>
<polygon fill="midnightblue" stroke="midnightblue" points="445.861,-46.3213 435.43,-48.1736 444.739,-53.2309 445.861,-46.3213"/>
</g>
<!-- Node8 -->
<g id="node9" class="node"><title>Node8</title>
<g id="a_node9"><a xlink:href="classant_1_1calibration_1_1gui_1_1_vertical_indicator_line.html" target="_top" xlink:title="ant::calibration::gui\l::VerticalIndicatorLine">
<polygon fill="white" stroke="black" points="477.5,-0.5 477.5,-30.5 596.5,-30.5 596.5,-0.5 477.5,-0.5"/>
<text text-anchor="start" x="485.5" y="-18.5" font-family="Helvetica,sans-Serif" font-size="10.00">ant::calibration::gui</text>
<text text-anchor="middle" x="537" y="-7.5" font-family="Helvetica,sans-Serif" font-size="10.00">::VerticalIndicatorLine</text>
</a>
</g>
</g>
<!-- Node6&#45;&gt;Node8 -->
<g id="edge8" class="edge"><title>Node6&#45;&gt;Node8</title>
<path fill="none" stroke="midnightblue" d="M445.439,-29.6135C456.019,-27.9646 466.952,-26.2607 477.405,-24.6317"/>
<polygon fill="midnightblue" stroke="midnightblue" points="444.771,-26.1751 435.43,-31.1733 445.849,-33.0916 444.771,-26.1751"/>
</g>
</g>
</svg>
