<?xml version="1.0" encoding="UTF-8" standalone="no"?>
<!DOCTYPE svg PUBLIC "-//W3C//DTD SVG 1.1//EN"
 "http://www.w3.org/Graphics/SVG/1.1/DTD/svg11.dtd">
<!-- Generated by graphviz version 2.38.0 (20140413.2041)
 -->
<!-- Title: ant::analysis::physics::scratch_lheijken_checkkinfit Pages: 1 -->
<svg width="1066pt" height="431pt"
 viewBox="0.00 0.00 1066.00 431.00" xmlns="http://www.w3.org/2000/svg" xmlns:xlink="http://www.w3.org/1999/xlink">
<g id="graph0" class="graph" transform="scale(1 1) rotate(0) translate(4 427)">
<title>ant::analysis::physics::scratch_lheijken_checkkinfit</title>
<polygon fill="white" stroke="none" points="-4,4 -4,-427 1062,-427 1062,4 -4,4"/>
<!-- Node2 -->
<g id="node1" class="node"><title>Node2</title>
<polygon fill="#bfbfbf" stroke="black" points="903,-176.5 903,-206.5 1058,-206.5 1058,-176.5 903,-176.5"/>
<text text-anchor="start" x="911" y="-194.5" font-family="Helvetica,sans-Serif" font-size="10.00">ant::analysis::physics</text>
<text text-anchor="middle" x="980.5" y="-183.5" font-family="Helvetica,sans-Serif" font-size="10.00">::scratch_lheijken_checkkinfit</text>
</g>
<!-- Node3 -->
<g id="node2" class="node"><title>Node3</title>
<g id="a_node2"><a xlink:href="classant_1_1analysis_1_1_physics.html" target="_top" xlink:title="ant::analysis::Physics">
<polygon fill="white" stroke="black" points="653,-356 653,-375 771,-375 771,-356 653,-356"/>
<text text-anchor="middle" x="712" y="-363" font-family="Helvetica,sans-Serif" font-size="10.00">ant::analysis::Physics</text>
</a>
</g>
</g>
<!-- Node3&#45;&gt;Node2 -->
<g id="edge1" class="edge"><title>Node3&#45;&gt;Node2</title>
<path fill="none" stroke="midnightblue" d="M748.109,-352.093C784.135,-337.5 840.984,-312.111 885,-281.5 917.179,-259.122 949.022,-225.888 966.288,-206.69"/>
<polygon fill="midnightblue" stroke="midnightblue" points="746.518,-348.959 738.528,-355.918 749.113,-355.46 746.518,-348.959"/>
</g>
<!-- Node4 -->
<g id="node3" class="node"><title>Node4</title>
<g id="a_node3"><a xlink:href="classant_1_1analysis_1_1_histogram_factory.html" target="_top" xlink:title="ant::analysis::Histogram\lFactory">
<polygon fill="white" stroke="black" points="414,-392.5 414,-422.5 547,-422.5 547,-392.5 414,-392.5"/>
<text text-anchor="start" x="422" y="-410.5" font-family="Helvetica,sans-Serif" font-size="10.00">ant::analysis::Histogram</text>
<text text-anchor="middle" x="480.5" y="-399.5" font-family="Helvetica,sans-Serif" font-size="10.00">Factory</text>
</a>
</g>
</g>
<!-- Node4&#45;&gt;Node3 -->
<g id="edge2" class="edge"><title>Node4&#45;&gt;Node3</title>
<path fill="none" stroke="#9a32cd" stroke-dasharray="5,2" d="M557.438,-393.603C590.774,-387.502 629.065,-380.495 659.071,-375.003"/>
<polygon fill="#9a32cd" stroke="#9a32cd" points="556.472,-390.221 547.265,-395.464 557.732,-397.107 556.472,-390.221"/>
<text text-anchor="middle" x="592" y="-393.5" font-family="Helvetica,sans-Serif" font-size="10.00"> HistFac</text>
</g>
<!-- Node5 -->
<g id="node4" class="node"><title>Node5</title>
<g id="a_node4"><a xlink:href="classant_1_1analysis_1_1utils_1_1_cluster_e_corr__simple.html" target="_top" xlink:title="Corrections to calocluster energies, allows access to True &#45; Rec vs Rec values from an existing TH1 h...">
<polygon fill="white" stroke="black" points="652.5,-265.5 652.5,-295.5 771.5,-295.5 771.5,-265.5 652.5,-265.5"/>
<text text-anchor="start" x="660.5" y="-283.5" font-family="Helvetica,sans-Serif" font-size="10.00">ant::analysis::utils</text>
<text text-anchor="middle" x="712" y="-272.5" font-family="Helvetica,sans-Serif" font-size="10.00">::ClusterECorr_simple</text>
</a>
</g>
</g>
<!-- Node5&#45;&gt;Node2 -->
<g id="edge3" class="edge"><title>Node5&#45;&gt;Node2</title>
<path fill="none" stroke="#9a32cd" stroke-dasharray="5,2" d="M781.744,-262.995C813.463,-254.389 851.443,-243.332 885,-231.5 905.834,-224.154 928.657,-214.54 946.653,-206.578"/>
<polygon fill="#9a32cd" stroke="#9a32cd" points="780.427,-259.725 771.679,-265.701 782.245,-266.485 780.427,-259.725"/>
<text text-anchor="middle" x="847" y="-269.5" font-family="Helvetica,sans-Serif" font-size="10.00"> lepCBcorr</text>
<text text-anchor="middle" x="847" y="-258.5" font-family="Helvetica,sans-Serif" font-size="10.00">photCBcorr</text>
</g>
<!-- Node6 -->
<g id="node5" class="node"><title>Node6</title>
<g id="a_node5"><a xlink:href="classant_1_1analysis_1_1utils_1_1_kin_fitter.html" target="_top" xlink:title="ant::analysis::utils\l::KinFitter">
<polygon fill="white" stroke="black" points="661,-146.5 661,-176.5 763,-176.5 763,-146.5 661,-146.5"/>
<text text-anchor="start" x="669" y="-164.5" font-family="Helvetica,sans-Serif" font-size="10.00">ant::analysis::utils</text>
<text text-anchor="middle" x="712" y="-153.5" font-family="Helvetica,sans-Serif" font-size="10.00">::KinFitter</text>
</a>
</g>
</g>
<!-- Node6&#45;&gt;Node2 -->
<g id="edge4" class="edge"><title>Node6&#45;&gt;Node2</title>
<path fill="none" stroke="#9a32cd" stroke-dasharray="5,2" d="M773.021,-168.043C806.065,-171.667 847.802,-176.281 885,-180.5 890.826,-181.161 896.854,-181.85 902.915,-182.547"/>
<polygon fill="#9a32cd" stroke="#9a32cd" points="773.381,-164.562 763.059,-166.951 772.618,-171.52 773.381,-164.562"/>
<text text-anchor="middle" x="847" y="-183.5" font-family="Helvetica,sans-Serif" font-size="10.00"> fitter</text>
</g>
<!-- Node7 -->
<g id="node6" class="node"><title>Node7</title>
<g id="a_node6"><a xlink:href="classant_1_1analysis_1_1utils_1_1_fitter.html" target="_top" xlink:title="ant::analysis::utils\l::Fitter">
<polygon fill="white" stroke="black" points="429.5,-147.5 429.5,-177.5 531.5,-177.5 531.5,-147.5 429.5,-147.5"/>
<text text-anchor="start" x="437.5" y="-165.5" font-family="Helvetica,sans-Serif" font-size="10.00">ant::analysis::utils</text>
<text text-anchor="middle" x="480.5" y="-154.5" font-family="Helvetica,sans-Serif" font-size="10.00">::Fitter</text>
</a>
</g>
</g>
<!-- Node7&#45;&gt;Node6 -->
<g id="edge5" class="edge"><title>Node7&#45;&gt;Node6</title>
<path fill="none" stroke="midnightblue" d="M541.971,-155.465C551.019,-154.649 560.246,-153.949 569,-153.5 599.454,-151.938 633.573,-153.745 660.732,-156.034"/>
<polygon fill="midnightblue" stroke="midnightblue" points="541.489,-151.995 531.866,-156.429 542.153,-158.964 541.489,-151.995"/>
</g>
<!-- Node12 -->
<g id="node11" class="node"><title>Node12</title>
<g id="a_node11"><a xlink:href="classant_1_1analysis_1_1utils_1_1_no_proton_fitter.html" target="_top" xlink:title="ant::analysis::utils\l::NoProtonFitter">
<polygon fill="white" stroke="black" points="661,-216.5 661,-246.5 763,-246.5 763,-216.5 661,-216.5"/>
<text text-anchor="start" x="669" y="-234.5" font-family="Helvetica,sans-Serif" font-size="10.00">ant::analysis::utils</text>
<text text-anchor="middle" x="712" y="-223.5" font-family="Helvetica,sans-Serif" font-size="10.00">::NoProtonFitter</text>
</a>
</g>
</g>
<!-- Node7&#45;&gt;Node12 -->
<g id="edge11" class="edge"><title>Node7&#45;&gt;Node12</title>
<path fill="none" stroke="midnightblue" d="M541.721,-164.786C565.039,-166.939 591.68,-170.982 615,-178.5 629.405,-183.144 662.949,-202.464 686.301,-216.439"/>
<polygon fill="midnightblue" stroke="midnightblue" points="541.864,-161.286 531.609,-163.949 541.287,-168.262 541.864,-161.286"/>
</g>
<!-- Node8 -->
<g id="node7" class="node"><title>Node8</title>
<g id="a_node7"><a xlink:href="structant_1_1analysis_1_1utils_1_1_kin_fitter_1_1_target__t.html" target="_top" xlink:title="ant::analysis::utils\l::KinFitter::Target_t">
<polygon fill="white" stroke="black" points="428,-98.5 428,-128.5 533,-128.5 533,-98.5 428,-98.5"/>
<text text-anchor="start" x="436" y="-116.5" font-family="Helvetica,sans-Serif" font-size="10.00">ant::analysis::utils</text>
<text text-anchor="middle" x="480.5" y="-105.5" font-family="Helvetica,sans-Serif" font-size="10.00">::KinFitter::Target_t</text>
</a>
</g>
</g>
<!-- Node8&#45;&gt;Node6 -->
<g id="edge6" class="edge"><title>Node8&#45;&gt;Node6</title>
<path fill="none" stroke="#9a32cd" stroke-dasharray="5,2" d="M543.423,-124.43C566.001,-128.59 591.702,-133.531 615,-138.5 629.918,-141.682 646.066,-145.431 660.786,-148.969"/>
<polygon fill="#9a32cd" stroke="#9a32cd" points="543.755,-120.932 533.288,-122.575 542.495,-127.818 543.755,-120.932"/>
<text text-anchor="middle" x="592" y="-141.5" font-family="Helvetica,sans-Serif" font-size="10.00"> Target</text>
</g>
<!-- Node9 -->
<g id="node8" class="node"><title>Node9</title>
<g id="a_node8"><a xlink:href="structant_1_1analysis_1_1utils_1_1_kin_fitter_1_1_beam_e__t.html" target="_top" xlink:title="ant::analysis::utils\l::KinFitter::BeamE_t">
<polygon fill="white" stroke="black" points="425.5,-49.5 425.5,-79.5 535.5,-79.5 535.5,-49.5 425.5,-49.5"/>
<text text-anchor="start" x="433.5" y="-67.5" font-family="Helvetica,sans-Serif" font-size="10.00">ant::analysis::utils</text>
<text text-anchor="middle" x="480.5" y="-56.5" font-family="Helvetica,sans-Serif" font-size="10.00">::KinFitter::BeamE_t</text>
</a>
</g>
</g>
<!-- Node9&#45;&gt;Node6 -->
<g id="edge7" class="edge"><title>Node9&#45;&gt;Node6</title>
<path fill="none" stroke="#9a32cd" stroke-dasharray="5,2" d="M536.174,-82.9943C541.203,-84.8113 546.206,-86.6633 551,-88.5 579.829,-99.5446 590.067,-97.2945 615,-115.5 624.928,-122.749 622.759,-129.7 633,-136.5 641.411,-142.085 651.156,-146.495 660.849,-149.952"/>
<polygon fill="#9a32cd" stroke="#9a32cd" points="537.117,-79.6147 526.522,-79.556 534.768,-86.2088 537.117,-79.6147"/>
<text text-anchor="middle" x="592" y="-118.5" font-family="Helvetica,sans-Serif" font-size="10.00"> BeamE</text>
</g>
<!-- Node10 -->
<g id="node9" class="node"><title>Node10</title>
<polygon fill="white" stroke="#bfbfbf" points="223.5,-55 223.5,-74 279.5,-74 279.5,-55 223.5,-55"/>
<text text-anchor="middle" x="251.5" y="-62" font-family="Helvetica,sans-Serif" font-size="10.00">V_S_P_t</text>
</g>
<!-- Node10&#45;&gt;Node9 -->
<g id="edge8" class="edge"><title>Node10&#45;&gt;Node9</title>
<path fill="none" stroke="midnightblue" d="M290.184,-64.5C327.023,-64.5 383.496,-64.5 425.182,-64.5"/>
<polygon fill="midnightblue" stroke="midnightblue" points="289.882,-61.0001 279.882,-64.5 289.881,-68.0001 289.882,-61.0001"/>
</g>
<!-- Node11 -->
<g id="node10" class="node"><title>Node11</title>
<polygon fill="white" stroke="#bfbfbf" points="413,-197 413,-216 548,-216 548,-197 413,-197"/>
<text text-anchor="middle" x="480.5" y="-204" font-family="Helvetica,sans-Serif" font-size="10.00">std::vector&lt; FitParticle &gt;</text>
</g>
<!-- Node11&#45;&gt;Node6 -->
<g id="edge9" class="edge"><title>Node11&#45;&gt;Node6</title>
<path fill="none" stroke="#9a32cd" stroke-dasharray="5,2" d="M540.39,-194.953C577.664,-187.644 625.34,-178.296 660.813,-171.341"/>
<polygon fill="#9a32cd" stroke="#9a32cd" points="539.311,-191.598 530.171,-196.957 540.658,-198.467 539.311,-191.598"/>
<text text-anchor="middle" x="592" y="-191.5" font-family="Helvetica,sans-Serif" font-size="10.00"> Photons</text>
</g>
<!-- Node11&#45;&gt;Node12 -->
<g id="edge19" class="edge"><title>Node11&#45;&gt;Node12</title>
<path fill="none" stroke="#9a32cd" stroke-dasharray="5,2" d="M558.502,-214.888C592.287,-218.568 630.986,-222.784 660.945,-226.047"/>
<polygon fill="#9a32cd" stroke="#9a32cd" points="558.509,-211.368 548.189,-213.765 557.751,-218.327 558.509,-211.368"/>
<text text-anchor="middle" x="592" y="-223.5" font-family="Helvetica,sans-Serif" font-size="10.00"> Photons</text>
</g>
<!-- Node12&#45;&gt;Node2 -->
<g id="edge10" class="edge"><title>Node12&#45;&gt;Node2</title>
<path fill="none" stroke="#9a32cd" stroke-dasharray="5,2" d="M773.122,-222.476C811.507,-216.715 861.623,-209.193 902.856,-203.004"/>
<polygon fill="#9a32cd" stroke="#9a32cd" points="772.496,-219.031 763.127,-223.976 773.535,-225.953 772.496,-219.031"/>
<text text-anchor="middle" x="847" y="-219.5" font-family="Helvetica,sans-Serif" font-size="10.00"> npfitter</text>
</g>
<!-- Node13 -->
<g id="node12" class="node"><title>Node13</title>
<g id="a_node12"><a xlink:href="structant_1_1analysis_1_1utils_1_1_no_proton_fitter_1_1_beam_e__t.html" target="_top" xlink:title="ant::analysis::utils\l::NoProtonFitter::BeamE_t">
<polygon fill="white" stroke="black" points="410,-294.5 410,-324.5 551,-324.5 551,-294.5 410,-294.5"/>
<text text-anchor="start" x="418" y="-312.5" font-family="Helvetica,sans-Serif" font-size="10.00">ant::analysis::utils</text>
<text text-anchor="middle" x="480.5" y="-301.5" font-family="Helvetica,sans-Serif" font-size="10.00">::NoProtonFitter::BeamE_t</text>
</a>
</g>
</g>
<!-- Node13&#45;&gt;Node12 -->
<g id="edge12" class="edge"><title>Node13&#45;&gt;Node12</title>
<path fill="none" stroke="#9a32cd" stroke-dasharray="5,2" d="M538.131,-291.192C562.027,-283.156 590.04,-273.326 615,-263.5 623.146,-260.293 624.802,-258.571 633,-255.5 641.89,-252.171 651.469,-248.94 660.768,-245.984"/>
<polygon fill="#9a32cd" stroke="#9a32cd" points="536.883,-287.918 528.507,-294.406 539.101,-294.558 536.883,-287.918"/>
<text text-anchor="middle" x="592" y="-283.5" font-family="Helvetica,sans-Serif" font-size="10.00"> BeamE</text>
</g>
<!-- Node14 -->
<g id="node13" class="node"><title>Node14</title>
<g id="a_node13"><a xlink:href="structant_1_1analysis_1_1utils_1_1_fitter_1_1_v___s___p__t.html" target="_top" xlink:title="ant::analysis::utils\l::Fitter::V_S_P_t">
<polygon fill="white" stroke="black" points="200.5,-294.5 200.5,-324.5 302.5,-324.5 302.5,-294.5 200.5,-294.5"/>
<text text-anchor="start" x="208.5" y="-312.5" font-family="Helvetica,sans-Serif" font-size="10.00">ant::analysis::utils</text>
<text text-anchor="middle" x="251.5" y="-301.5" font-family="Helvetica,sans-Serif" font-size="10.00">::Fitter::V_S_P_t</text>
</a>
</g>
</g>
<!-- Node14&#45;&gt;Node13 -->
<g id="edge13" class="edge"><title>Node14&#45;&gt;Node13</title>
<path fill="none" stroke="midnightblue" d="M312.854,-309.5C342.648,-309.5 378.754,-309.5 409.73,-309.5"/>
<polygon fill="midnightblue" stroke="midnightblue" points="312.597,-306 302.597,-309.5 312.597,-313 312.597,-306"/>
</g>
<!-- Node15 -->
<g id="node14" class="node"><title>Node15</title>
<g id="a_node14"><a xlink:href="structant_1_1analysis_1_1utils_1_1_fitter_1_1_v___s__t.html" target="_top" xlink:title="ant::analysis::utils\l::Fitter::V_S_t">
<polygon fill="white" stroke="black" points="0,-294.5 0,-324.5 102,-324.5 102,-294.5 0,-294.5"/>
<text text-anchor="start" x="8" y="-312.5" font-family="Helvetica,sans-Serif" font-size="10.00">ant::analysis::utils</text>
<text text-anchor="middle" x="51" y="-301.5" font-family="Helvetica,sans-Serif" font-size="10.00">::Fitter::V_S_t</text>
</a>
</g>
</g>
<!-- Node15&#45;&gt;Node14 -->
<g id="edge14" class="edge"><title>Node15&#45;&gt;Node14</title>
<path fill="none" stroke="midnightblue" d="M112.232,-309.5C140.431,-309.5 173.629,-309.5 200.426,-309.5"/>
<polygon fill="midnightblue" stroke="midnightblue" points="112.09,-306 102.09,-309.5 112.09,-313 112.09,-306"/>
</g>
<!-- Node16 -->
<g id="node15" class="node"><title>Node16</title>
<g id="a_node15"><a xlink:href="structant_1_1analysis_1_1utils_1_1_no_proton_fitter_1_1_fit_proton_un_meas.html" target="_top" xlink:title="ant::analysis::utils\l::NoProtonFitter::FitProton\lUnMeas">
<polygon fill="white" stroke="black" points="410.5,-235 410.5,-276 550.5,-276 550.5,-235 410.5,-235"/>
<text text-anchor="start" x="418.5" y="-264" font-family="Helvetica,sans-Serif" font-size="10.00">ant::analysis::utils</text>
<text text-anchor="start" x="418.5" y="-253" font-family="Helvetica,sans-Serif" font-size="10.00">::NoProtonFitter::FitProton</text>
<text text-anchor="middle" x="480.5" y="-242" font-family="Helvetica,sans-Serif" font-size="10.00">UnMeas</text>
</a>
</g>
</g>
<!-- Node16&#45;&gt;Node12 -->
<g id="edge15" class="edge"><title>Node16&#45;&gt;Node12</title>
<path fill="none" stroke="#9a32cd" stroke-dasharray="5,2" d="M561.149,-248.797C578.887,-247.177 597.593,-245.37 615,-243.5 629.863,-241.904 645.995,-239.967 660.717,-238.119"/>
<polygon fill="#9a32cd" stroke="#9a32cd" points="560.479,-245.343 550.834,-249.728 561.108,-252.315 560.479,-245.343"/>
<text text-anchor="middle" x="592" y="-251.5" font-family="Helvetica,sans-Serif" font-size="10.00"> Proton</text>
</g>
<!-- Node17 -->
<g id="node16" class="node"><title>Node17</title>
<polygon fill="white" stroke="#bfbfbf" points="189,-206 189,-225 314,-225 314,-206 189,-206"/>
<text text-anchor="middle" x="251.5" y="-213" font-family="Helvetica,sans-Serif" font-size="10.00">std::array&lt; V_S_t, 3 &gt;</text>
</g>
<!-- Node17&#45;&gt;Node16 -->
<g id="edge16" class="edge"><title>Node17&#45;&gt;Node16</title>
<path fill="none" stroke="#9a32cd" stroke-dasharray="5,2" d="M324.42,-222.374C346.224,-224.965 370.176,-228.322 392,-232.5 398.016,-233.652 404.231,-234.986 410.442,-236.422"/>
<polygon fill="#9a32cd" stroke="#9a32cd" points="324.575,-218.868 314.239,-221.2 323.773,-225.822 324.575,-218.868"/>
<text text-anchor="middle" x="363" y="-246.5" font-family="Helvetica,sans-Serif" font-size="10.00"> Vars</text>
<text text-anchor="middle" x="363" y="-235.5" font-family="Helvetica,sans-Serif" font-size="10.00">Vars_before</text>
</g>
<!-- Node18 -->
<g id="node17" class="node"><title>Node18</title>
<polygon fill="white" stroke="#bfbfbf" points="187,-251 187,-270 316,-270 316,-251 187,-251"/>
<text text-anchor="middle" x="251.5" y="-258" font-family="Helvetica,sans-Serif" font-size="10.00">std::array&lt; double, 3 &gt;</text>
</g>
<!-- Node18&#45;&gt;Node16 -->
<g id="edge17" class="edge"><title>Node18&#45;&gt;Node16</title>
<path fill="none" stroke="#9a32cd" stroke-dasharray="5,2" d="M326.218,-258.876C353.272,-258.28 383.777,-257.608 410.41,-257.022"/>
<polygon fill="#9a32cd" stroke="#9a32cd" points="325.954,-255.381 316.034,-259.101 326.109,-262.379 325.954,-255.381"/>
<text text-anchor="middle" x="363" y="-262.5" font-family="Helvetica,sans-Serif" font-size="10.00"> Pulls</text>
</g>
<!-- Node19 -->
<g id="node18" class="node"><title>Node19</title>
<g id="a_node18"><a xlink:href="structant_1_1analysis_1_1utils_1_1_no_proton_fitter_1_1_target__t.html" target="_top" xlink:title="ant::analysis::utils\l::NoProtonFitter::Target_t">
<polygon fill="white" stroke="black" points="412.5,-343.5 412.5,-373.5 548.5,-373.5 548.5,-343.5 412.5,-343.5"/>
<text text-anchor="start" x="420.5" y="-361.5" font-family="Helvetica,sans-Serif" font-size="10.00">ant::analysis::utils</text>
<text text-anchor="middle" x="480.5" y="-350.5" font-family="Helvetica,sans-Serif" font-size="10.00">::NoProtonFitter::Target_t</text>
</a>
</g>
</g>
<!-- Node19&#45;&gt;Node12 -->
<g id="edge18" class="edge"><title>Node19&#45;&gt;Node12</title>
<path fill="none" stroke="#9a32cd" stroke-dasharray="5,2" d="M536.676,-339.753C541.57,-337.76 546.406,-335.666 551,-333.5 580.922,-319.393 592.966,-320.175 615,-295.5 627.985,-280.959 618.385,-268.402 633,-255.5 640.86,-248.561 650.693,-243.629 660.703,-240.122"/>
<polygon fill="#9a32cd" stroke="#9a32cd" points="535.275,-336.543 527.244,-343.452 537.831,-343.059 535.275,-336.543"/>
<text text-anchor="middle" x="592" y="-328.5" font-family="Helvetica,sans-Serif" font-size="10.00"> Target</text>
</g>
<!-- Node20 -->
<g id="node19" class="node"><title>Node20</title>
<g id="a_node19"><a xlink:href="classant_1_1analysis_1_1_prompt_random_1_1_switch.html" target="_top" xlink:title="ant::analysis::PromptRandom\l::Switch">
<polygon fill="white" stroke="black" points="633,-97.5 633,-127.5 791,-127.5 791,-97.5 633,-97.5"/>
<text text-anchor="start" x="641" y="-115.5" font-family="Helvetica,sans-Serif" font-size="10.00">ant::analysis::PromptRandom</text>
<text text-anchor="middle" x="712" y="-104.5" font-family="Helvetica,sans-Serif" font-size="10.00">::Switch</text>
</a>
</g>
</g>
<!-- Node20&#45;&gt;Node2 -->
<g id="edge20" class="edge"><title>Node20&#45;&gt;Node2</title>
<path fill="none" stroke="#9a32cd" stroke-dasharray="5,2" d="M785.685,-129.982C816.494,-137.788 852.678,-147.479 885,-157.5 903.319,-163.179 923.343,-170.256 940.224,-176.48"/>
<polygon fill="#9a32cd" stroke="#9a32cd" points="786.434,-126.562 775.882,-127.516 784.726,-133.35 786.434,-126.562"/>
<text text-anchor="middle" x="847" y="-160.5" font-family="Helvetica,sans-Serif" font-size="10.00"> promptrandom</text>
</g>
<!-- Node21 -->
<g id="node20" class="node"><title>Node21</title>
<g id="a_node20"><a xlink:href="classant_1_1_piecewise_interval.html" target="_top" xlink:title="ant::PiecewiseInterval\l\&lt; double \&gt;">
<polygon fill="white" stroke="black" points="421,-0.5 421,-30.5 540,-30.5 540,-0.5 421,-0.5"/>
<text text-anchor="start" x="429" y="-18.5" font-family="Helvetica,sans-Serif" font-size="10.00">ant::PiecewiseInterval</text>
<text text-anchor="middle" x="480.5" y="-7.5" font-family="Helvetica,sans-Serif" font-size="10.00">&lt; double &gt;</text>
</a>
</g>
</g>
<!-- Node21&#45;&gt;Node20 -->
<g id="edge21" class="edge"><title>Node21&#45;&gt;Node20</title>
<path fill="none" stroke="#9a32cd" stroke-dasharray="5,2" d="M537.082,-34.1033C541.813,-35.8653 546.505,-37.6764 551,-39.5 580.11,-51.3102 589.285,-51.4557 615,-69.5 624.261,-75.9986 623.342,-81.6079 633,-87.5 639.191,-91.277 646.011,-94.5413 652.964,-97.3472"/>
<polygon fill="#9a32cd" stroke="#9a32cd" points="537.96,-30.6982 527.366,-30.567 535.566,-37.2761 537.96,-30.6982"/>
<text text-anchor="middle" x="592" y="-83.5" font-family="Helvetica,sans-Serif" font-size="10.00"> promptw</text>
<text text-anchor="middle" x="592" y="-72.5" font-family="Helvetica,sans-Serif" font-size="10.00">randomw</text>
</g>
<!-- Node22 -->
<g id="node21" class="node"><title>Node22</title>
<g id="a_node21"><a xlink:title="STL class. ">
<polygon fill="white" stroke="#bfbfbf" points="194.5,-0.5 194.5,-30.5 308.5,-30.5 308.5,-0.5 194.5,-0.5"/>
<text text-anchor="start" x="202.5" y="-18.5" font-family="Helvetica,sans-Serif" font-size="10.00">std::vector&lt; interval</text>
<text text-anchor="middle" x="251.5" y="-7.5" font-family="Helvetica,sans-Serif" font-size="10.00">&lt; double &gt; &gt;</text>
</a>
</g>
</g>
<!-- Node22&#45;&gt;Node21 -->
<g id="edge22" class="edge"><title>Node22&#45;&gt;Node21</title>
<path fill="none" stroke="midnightblue" d="M318.865,-15.5C351.166,-15.5 389.66,-15.5 420.867,-15.5"/>
<polygon fill="midnightblue" stroke="midnightblue" points="318.612,-12.0001 308.612,-15.5 318.612,-19.0001 318.612,-12.0001"/>
</g>
<!-- Node23 -->
<g id="node22" class="node"><title>Node23</title>
<polygon fill="white" stroke="#bfbfbf" points="36.5,-6 36.5,-25 65.5,-25 65.5,-6 36.5,-6"/>
<text text-anchor="middle" x="51" y="-13" font-family="Helvetica,sans-Serif" font-size="10.00">T</text>
</g>
<!-- Node23&#45;&gt;Node22 -->
<g id="edge23" class="edge"><title>Node23&#45;&gt;Node22</title>
<path fill="none" stroke="#9a32cd" stroke-dasharray="5,2" d="M75.6881,-15.5C104.782,-15.5 155.093,-15.5 194.294,-15.5"/>
<polygon fill="#9a32cd" stroke="#9a32cd" points="75.6437,-12.0001 65.6437,-15.5 75.6437,-19.0001 75.6437,-12.0001"/>
<text text-anchor="middle" x="144.5" y="-18.5" font-family="Helvetica,sans-Serif" font-size="10.00"> elements</text>
</g>
<!-- Node24 -->
<g id="node23" class="node"><title>Node24</title>
<g id="a_node23"><a xlink:href="classant_1_1analysis_1_1utils_1_1_trigger_simulation.html" target="_top" xlink:title="ant::analysis::utils\l::TriggerSimulation">
<polygon fill="white" stroke="black" points="659.5,-48.5 659.5,-78.5 764.5,-78.5 764.5,-48.5 659.5,-48.5"/>
<text text-anchor="start" x="667.5" y="-66.5" font-family="Helvetica,sans-Serif" font-size="10.00">ant::analysis::utils</text>
<text text-anchor="middle" x="712" y="-55.5" font-family="Helvetica,sans-Serif" font-size="10.00">::TriggerSimulation</text>
</a>
</g>
</g>
<!-- Node24&#45;&gt;Node2 -->
<g id="edge24" class="edge"><title>Node24&#45;&gt;Node2</title>
<path fill="none" stroke="#9a32cd" stroke-dasharray="5,2" d="M772.729,-81.5526C778.913,-83.5187 785.092,-85.5239 791,-87.5 833.132,-101.592 845.849,-100.501 885,-121.5 914.148,-137.133 944.248,-161.012 962.423,-176.441"/>
<polygon fill="#9a32cd" stroke="#9a32cd" points="773.637,-78.1691 763.048,-78.505 771.535,-84.8461 773.637,-78.1691"/>
<text text-anchor="middle" x="847" y="-124.5" font-family="Helvetica,sans-Serif" font-size="10.00"> triggersimu</text>
</g>
</g>
</svg>
