<?xml version="1.0" encoding="UTF-8" standalone="no"?>
<!DOCTYPE svg PUBLIC "-//W3C//DTD SVG 1.1//EN"
 "http://www.w3.org/Graphics/SVG/1.1/DTD/svg11.dtd">
<!-- Generated by graphviz version 2.38.0 (20140413.2041)
 -->
<!-- Title: ant::calibration::gui::KnobsTF1::FixedRangeKnob Pages: 1 -->
<svg width="223pt" height="321pt"
 viewBox="0.00 0.00 223.00 321.00" xmlns="http://www.w3.org/2000/svg" xmlns:xlink="http://www.w3.org/1999/xlink">
<g id="graph0" class="graph" transform="scale(1 1) rotate(0) translate(4 317)">
<title>ant::calibration::gui::KnobsTF1::FixedRangeKnob</title>
<polygon fill="white" stroke="none" points="-4,4 -4,-317 219,-317 219,4 -4,4"/>
<!-- Node3 -->
<g id="node1" class="node"><title>Node3</title>
<polygon fill="#bfbfbf" stroke="black" points="54.5,-0.5 54.5,-30.5 206.5,-30.5 206.5,-0.5 54.5,-0.5"/>
<text text-anchor="start" x="62.5" y="-18.5" font-family="Helvetica,sans-Serif" font-size="10.00">ant::calibration::gui</text>
<text text-anchor="middle" x="130.5" y="-7.5" font-family="Helvetica,sans-Serif" font-size="10.00">::KnobsTF1::FixedRangeKnob</text>
</g>
<!-- Node4 -->
<g id="node2" class="node"><title>Node4</title>
<g id="a_node2"><a xlink:href="classant_1_1calibration_1_1gui_1_1_knobs_t_f1_1_1_range_knob.html" target="_top" xlink:title="ant::calibration::gui\l::KnobsTF1::RangeKnob">
<polygon fill="white" stroke="black" points="66.5,-68.5 66.5,-98.5 194.5,-98.5 194.5,-68.5 66.5,-68.5"/>
<text text-anchor="start" x="74.5" y="-86.5" font-family="Helvetica,sans-Serif" font-size="10.00">ant::calibration::gui</text>
<text text-anchor="middle" x="130.5" y="-75.5" font-family="Helvetica,sans-Serif" font-size="10.00">::KnobsTF1::RangeKnob</text>
</a>
</g>
</g>
<!-- Node4&#45;&gt;Node3 -->
<g id="edge1" class="edge"><title>Node4&#45;&gt;Node3</title>
<path fill="none" stroke="midnightblue" d="M130.5,-58.0322C130.5,-48.8606 130.5,-38.7449 130.5,-30.7931"/>
<polygon fill="midnightblue" stroke="midnightblue" points="127,-58.1789 130.5,-68.179 134,-58.179 127,-58.1789"/>
</g>
<!-- Node5 -->
<g id="node3" class="node"><title>Node5</title>
<g id="a_node3"><a xlink:href="classant_1_1calibration_1_1gui_1_1_indicator_knob.html" target="_top" xlink:title="ant::calibration::gui\l::IndicatorKnob">
<polygon fill="white" stroke="black" points="76.5,-136.5 76.5,-166.5 184.5,-166.5 184.5,-136.5 76.5,-136.5"/>
<text text-anchor="start" x="84.5" y="-154.5" font-family="Helvetica,sans-Serif" font-size="10.00">ant::calibration::gui</text>
<text text-anchor="middle" x="130.5" y="-143.5" font-family="Helvetica,sans-Serif" font-size="10.00">::IndicatorKnob</text>
</a>
</g>
</g>
<!-- Node5&#45;&gt;Node4 -->
<g id="edge2" class="edge"><title>Node5&#45;&gt;Node4</title>
<path fill="none" stroke="midnightblue" d="M130.5,-126.032C130.5,-116.861 130.5,-106.745 130.5,-98.7931"/>
<polygon fill="midnightblue" stroke="midnightblue" points="127,-126.179 130.5,-136.179 134,-126.179 127,-126.179"/>
</g>
<!-- Node6 -->
<g id="node4" class="node"><title>Node6</title>
<g id="a_node4"><a xlink:title="STL class. ">
<polygon fill="white" stroke="#bfbfbf" points="19,-220 19,-239 84,-239 84,-220 19,-220"/>
<text text-anchor="middle" x="51.5" y="-227" font-family="Helvetica,sans-Serif" font-size="10.00">std::string</text>
</a>
</g>
</g>
<!-- Node6&#45;&gt;Node5 -->
<g id="edge3" class="edge"><title>Node6&#45;&gt;Node5</title>
<path fill="none" stroke="#9a32cd" stroke-dasharray="5,2" d="M68.1069,-212.524C82.257,-198.911 102.393,-179.54 115.927,-166.52"/>
<polygon fill="#9a32cd" stroke="#9a32cd" points="65.3424,-210.327 60.5623,-219.782 70.1954,-215.371 65.3424,-210.327"/>
<text text-anchor="middle" x="112" y="-188" font-family="Helvetica,sans-Serif" font-size="10.00"> name</text>
</g>
<!-- Node7 -->
<g id="node5" class="node"><title>Node7</title>
<g id="a_node5"><a xlink:title="STL class. ">
<polygon fill="white" stroke="#bfbfbf" points="0,-282.5 0,-312.5 103,-312.5 103,-282.5 0,-282.5"/>
<text text-anchor="start" x="8" y="-300.5" font-family="Helvetica,sans-Serif" font-size="10.00">std::basic_string&lt;</text>
<text text-anchor="middle" x="51.5" y="-289.5" font-family="Helvetica,sans-Serif" font-size="10.00"> char &gt;</text>
</a>
</g>
</g>
<!-- Node7&#45;&gt;Node6 -->
<g id="edge4" class="edge"><title>Node7&#45;&gt;Node6</title>
<path fill="none" stroke="midnightblue" d="M51.5,-271.876C51.5,-260.471 51.5,-247.636 51.5,-239.328"/>
<polygon fill="midnightblue" stroke="midnightblue" points="48.0001,-272.179 51.5,-282.179 55.0001,-272.179 48.0001,-272.179"/>
</g>
<!-- Node8 -->
<g id="node6" class="node"><title>Node8</title>
<g id="a_node6"><a xlink:href="structant_1_1calibration_1_1gui_1_1_indicator_properties.html" target="_top" xlink:title="ant::calibration::gui\l::IndicatorProperties">
<polygon fill="white" stroke="black" points="102,-214.5 102,-244.5 215,-244.5 215,-214.5 102,-214.5"/>
<text text-anchor="start" x="110" y="-232.5" font-family="Helvetica,sans-Serif" font-size="10.00">ant::calibration::gui</text>
<text text-anchor="middle" x="158.5" y="-221.5" font-family="Helvetica,sans-Serif" font-size="10.00">::IndicatorProperties</text>
</a>
</g>
</g>
<!-- Node8&#45;&gt;Node5 -->
<g id="edge5" class="edge"><title>Node8&#45;&gt;Node5</title>
<path fill="none" stroke="#9a32cd" stroke-dasharray="5,2" d="M149.644,-204.463C145.071,-192.051 139.648,-177.33 135.743,-166.731"/>
<polygon fill="#9a32cd" stroke="#9a32cd" points="146.492,-206.032 153.233,-214.205 153.061,-203.612 146.492,-206.032"/>
<text text-anchor="middle" x="154.5" y="-188" font-family="Helvetica,sans-Serif" font-size="10.00"> gui</text>
</g>
</g>
</svg>
