<?xml version="1.0" encoding="UTF-8" standalone="no"?>
<!DOCTYPE svg PUBLIC "-//W3C//DTD SVG 1.1//EN"
 "http://www.w3.org/Graphics/SVG/1.1/DTD/svg11.dtd">
<!-- Generated by graphviz version 2.38.0 (20140413.2041)
 -->
<!-- Title: ant::analysis::physics::OmegaBase Pages: 1 -->
<svg width="262pt" height="162pt"
 viewBox="0.00 0.00 262.00 162.00" xmlns="http://www.w3.org/2000/svg" xmlns:xlink="http://www.w3.org/1999/xlink">
<g id="graph0" class="graph" transform="scale(1 1) rotate(0) translate(4 158)">
<title>ant::analysis::physics::OmegaBase</title>
<polygon fill="white" stroke="none" points="-4,4 -4,-158 258,-158 258,4 -4,4"/>
<!-- Node0 -->
<g id="node1" class="node"><title>Node0</title>
<polygon fill="#bfbfbf" stroke="black" points="68,-67.5 68,-97.5 186,-97.5 186,-67.5 68,-67.5"/>
<text text-anchor="start" x="76" y="-85.5" font-family="Helvetica,sans-Serif" font-size="10.00">ant::analysis::physics</text>
<text text-anchor="middle" x="127" y="-74.5" font-family="Helvetica,sans-Serif" font-size="10.00">::OmegaBase</text>
</g>
<!-- Node2 -->
<g id="node3" class="node"><title>Node2</title>
<g id="a_node3"><a xlink:href="classant_1_1analysis_1_1physics_1_1_omega_eta_g2.html" target="_top" xlink:title="ant::analysis::physics\l::OmegaEtaG2">
<polygon fill="white" stroke="black" points="0,-0.5 0,-30.5 118,-30.5 118,-0.5 0,-0.5"/>
<text text-anchor="start" x="8" y="-18.5" font-family="Helvetica,sans-Serif" font-size="10.00">ant::analysis::physics</text>
<text text-anchor="middle" x="59" y="-7.5" font-family="Helvetica,sans-Serif" font-size="10.00">::OmegaEtaG2</text>
</a>
</g>
</g>
<!-- Node0&#45;&gt;Node2 -->
<g id="edge2" class="edge"><title>Node0&#45;&gt;Node2</title>
<path fill="none" stroke="midnightblue" d="M104.834,-60.3115C94.6333,-50.5612 82.8095,-39.259 73.7262,-30.5765"/>
<polygon fill="midnightblue" stroke="midnightblue" points="102.598,-63.0162 112.245,-67.396 107.435,-57.9561 102.598,-63.0162"/>
</g>
<!-- Node3 -->
<g id="node4" class="node"><title>Node3</title>
<g id="a_node4"><a xlink:href="classant_1_1analysis_1_1physics_1_1_pi0_eta.html" target="_top" xlink:title="ant::analysis::physics\l::Pi0Eta">
<polygon fill="white" stroke="black" points="136,-0.5 136,-30.5 254,-30.5 254,-0.5 136,-0.5"/>
<text text-anchor="start" x="144" y="-18.5" font-family="Helvetica,sans-Serif" font-size="10.00">ant::analysis::physics</text>
<text text-anchor="middle" x="195" y="-7.5" font-family="Helvetica,sans-Serif" font-size="10.00">::Pi0Eta</text>
</a>
</g>
</g>
<!-- Node0&#45;&gt;Node3 -->
<g id="edge3" class="edge"><title>Node0&#45;&gt;Node3</title>
<path fill="none" stroke="midnightblue" d="M149.166,-60.3115C159.367,-50.5612 171.191,-39.259 180.274,-30.5765"/>
<polygon fill="midnightblue" stroke="midnightblue" points="146.565,-57.9561 141.755,-67.396 151.402,-63.0162 146.565,-57.9561"/>
</g>
<!-- Node1 -->
<g id="node2" class="node"><title>Node1</title>
<g id="a_node2"><a xlink:href="classant_1_1analysis_1_1_physics.html" target="_top" xlink:title="ant::analysis::Physics">
<polygon fill="white" stroke="black" points="68,-134.5 68,-153.5 186,-153.5 186,-134.5 68,-134.5"/>
<text text-anchor="middle" x="127" y="-141.5" font-family="Helvetica,sans-Serif" font-size="10.00">ant::analysis::Physics</text>
</a>
</g>
</g>
<!-- Node1&#45;&gt;Node0 -->
<g id="edge1" class="edge"><title>Node1&#45;&gt;Node0</title>
<path fill="none" stroke="midnightblue" d="M127,-124.235C127,-115.586 127,-105.497 127,-97.523"/>
<polygon fill="midnightblue" stroke="midnightblue" points="123.5,-124.475 127,-134.475 130.5,-124.475 123.5,-124.475"/>
</g>
</g>
</svg>
