<?xml version="1.0" encoding="UTF-8" standalone="no"?>
<!DOCTYPE svg PUBLIC "-//W3C//DTD SVG 1.1//EN"
 "http://www.w3.org/Graphics/SVG/1.1/DTD/svg11.dtd">
<!-- Generated by graphviz version 2.38.0 (20140413.2041)
 -->
<!-- Title: ant::analysis::utils::UncertaintyModels::MCExtracted Pages: 1 -->
<svg width="403pt" height="104pt"
 viewBox="0.00 0.00 403.00 103.50" xmlns="http://www.w3.org/2000/svg" xmlns:xlink="http://www.w3.org/1999/xlink">
<g id="graph0" class="graph" transform="scale(1 1) rotate(0) translate(4 99.5)">
<title>ant::analysis::utils::UncertaintyModels::MCExtracted</title>
<polygon fill="white" stroke="none" points="-4,4 -4,-99.5 399,-99.5 399,4 -4,4"/>
<!-- Node2 -->
<g id="node1" class="node"><title>Node2</title>
<polygon fill="#bfbfbf" stroke="black" points="277,-29.5 277,-70.5 395,-70.5 395,-29.5 277,-29.5"/>
<text text-anchor="start" x="285" y="-58.5" font-family="Helvetica,sans-Serif" font-size="10.00">ant::analysis::utils</text>
<text text-anchor="start" x="285" y="-47.5" font-family="Helvetica,sans-Serif" font-size="10.00">::UncertaintyModels::</text>
<text text-anchor="middle" x="336" y="-36.5" font-family="Helvetica,sans-Serif" font-size="10.00">MCExtracted</text>
</g>
<!-- Node3 -->
<g id="node2" class="node"><title>Node3</title>
<g id="a_node2"><a xlink:href="classant_1_1analysis_1_1utils_1_1_uncertainty_model.html" target="_top" xlink:title="Virtual base class for different Uncertainty Models for fitter. Implement at least the GetSigmas() me...">
<polygon fill="white" stroke="black" points="23.5,-65 23.5,-95 130.5,-95 130.5,-65 23.5,-65"/>
<text text-anchor="start" x="31.5" y="-83" font-family="Helvetica,sans-Serif" font-size="10.00">ant::analysis::utils</text>
<text text-anchor="middle" x="77" y="-72" font-family="Helvetica,sans-Serif" font-size="10.00">::UncertaintyModel</text>
</a>
</g>
</g>
<!-- Node3&#45;&gt;Node2 -->
<g id="edge1" class="edge"><title>Node3&#45;&gt;Node2</title>
<path fill="none" stroke="midnightblue" d="M140.923,-77.1519C175.831,-75.066 219.956,-71.5956 259,-66 264.739,-65.1775 270.695,-64.1798 276.632,-63.0891"/>
<polygon fill="midnightblue" stroke="midnightblue" points="140.651,-73.6616 130.868,-77.7298 141.053,-80.6501 140.651,-73.6616"/>
</g>
<!-- Node4 -->
<g id="node3" class="node"><title>Node4</title>
<g id="a_node3"><a xlink:href="structant_1_1analysis_1_1utils_1_1_uncertainty_models_1_1_m_c_extracted_1_1angular__sigma.html" target="_top" xlink:title="ant::analysis::utils\l::UncertaintyModels::\lMCExtracted::angular_sigma">
<polygon fill="white" stroke="black" points="0,-0.5 0,-41.5 154,-41.5 154,-0.5 0,-0.5"/>
<text text-anchor="start" x="8" y="-29.5" font-family="Helvetica,sans-Serif" font-size="10.00">ant::analysis::utils</text>
<text text-anchor="start" x="8" y="-18.5" font-family="Helvetica,sans-Serif" font-size="10.00">::UncertaintyModels::</text>
<text text-anchor="middle" x="77" y="-7.5" font-family="Helvetica,sans-Serif" font-size="10.00">MCExtracted::angular_sigma</text>
</a>
</g>
</g>
<!-- Node4&#45;&gt;Node2 -->
<g id="edge2" class="edge"><title>Node4&#45;&gt;Node2</title>
<path fill="none" stroke="#9a32cd" stroke-dasharray="5,2" d="M164.347,-15.4064C194.503,-15.0518 228.442,-16.4628 259,-22 268.27,-23.6798 277.894,-26.3982 287.051,-29.4966"/>
<polygon fill="#9a32cd" stroke="#9a32cd" points="164.21,-11.9082 154.276,-15.5909 164.338,-18.907 164.21,-11.9082"/>
<text text-anchor="middle" x="215.5" y="-58" font-family="Helvetica,sans-Serif" font-size="10.00"> cb_sigma_theta</text>
<text text-anchor="middle" x="215.5" y="-47" font-family="Helvetica,sans-Serif" font-size="10.00">taps_sigma_theta</text>
<text text-anchor="middle" x="215.5" y="-36" font-family="Helvetica,sans-Serif" font-size="10.00">cb_sigma_phi</text>
<text text-anchor="middle" x="215.5" y="-25" font-family="Helvetica,sans-Serif" font-size="10.00">taps_sigma_phi</text>
</g>
</g>
</svg>
