<?xml version="1.0" encoding="UTF-8" standalone="no"?>
<!DOCTYPE svg PUBLIC "-//W3C//DTD SVG 1.1//EN"
 "http://www.w3.org/Graphics/SVG/1.1/DTD/svg11.dtd">
<!-- Generated by graphviz version 2.38.0 (20140413.2041)
 -->
<!-- Title: ant::expconfig::setup::Setup_2017Plus_NewTagger_Base Pages: 1 -->
<svg width="634pt" height="285pt"
 viewBox="0.00 0.00 634.00 284.50" xmlns="http://www.w3.org/2000/svg" xmlns:xlink="http://www.w3.org/1999/xlink">
<g id="graph0" class="graph" transform="scale(1 1) rotate(0) translate(4 280.5)">
<title>ant::expconfig::setup::Setup_2017Plus_NewTagger_Base</title>
<polygon fill="white" stroke="none" points="-4,4 -4,-280.5 630,-280.5 630,4 -4,4"/>
<!-- Node9 -->
<g id="node1" class="node"><title>Node9</title>
<polygon fill="#bfbfbf" stroke="black" points="440,-142 440,-172 626,-172 626,-142 440,-142"/>
<text text-anchor="start" x="448" y="-160" font-family="Helvetica,sans-Serif" font-size="10.00">ant::expconfig::setup</text>
<text text-anchor="middle" x="533" y="-149" font-family="Helvetica,sans-Serif" font-size="10.00">::Setup_2017Plus_NewTagger_Base</text>
</g>
<!-- Node10 -->
<g id="node2" class="node"><title>Node10</title>
<g id="a_node2"><a xlink:href="classant_1_1expconfig_1_1_setup.html" target="_top" xlink:title="The Setup class serves as a base class for all known beamtime setup configurations. ">
<polygon fill="white" stroke="black" points="284,-147.5 284,-166.5 403,-166.5 403,-147.5 284,-147.5"/>
<text text-anchor="middle" x="343.5" y="-154.5" font-family="Helvetica,sans-Serif" font-size="10.00">ant::expconfig::Setup</text>
</a>
</g>
</g>
<!-- Node10&#45;&gt;Node9 -->
<g id="edge1" class="edge"><title>Node10&#45;&gt;Node9</title>
<path fill="none" stroke="midnightblue" d="M413.121,-157C421.834,-157 430.861,-157 439.867,-157"/>
<polygon fill="midnightblue" stroke="midnightblue" points="413.055,-153.5 403.055,-157 413.055,-160.5 413.055,-153.5"/>
</g>
<!-- Node11 -->
<g id="node3" class="node"><title>Node11</title>
<g id="a_node3"><a xlink:href="classant_1_1expconfig_1_1_setup__traits.html" target="_top" xlink:title="The Setup_traits class is the interface to the &quot;static&quot; experimental information. ...">
<polygon fill="white" stroke="black" points="18.5,-246 18.5,-276 137.5,-276 137.5,-246 18.5,-246"/>
<text text-anchor="start" x="26.5" y="-264" font-family="Helvetica,sans-Serif" font-size="10.00">ant::expconfig::Setup</text>
<text text-anchor="middle" x="78" y="-253" font-family="Helvetica,sans-Serif" font-size="10.00">_traits</text>
</a>
</g>
</g>
<!-- Node11&#45;&gt;Node10 -->
<g id="edge2" class="edge"><title>Node11&#45;&gt;Node10</title>
<path fill="none" stroke="midnightblue" d="M147.612,-244.597C183.659,-234.864 228.1,-221.08 266,-204 289.448,-193.433 314.45,-176.963 329.262,-166.589"/>
<polygon fill="midnightblue" stroke="midnightblue" points="146.447,-241.285 137.68,-247.234 148.243,-248.05 146.447,-241.285"/>
</g>
<!-- Node12 -->
<g id="node4" class="node"><title>Node12</title>
<g id="a_node4"><a xlink:href="classant_1_1_unpacker_acqu_config.html" target="_top" xlink:title="ant::UnpackerAcquConfig">
<polygon fill="white" stroke="black" points="9,-207.5 9,-226.5 147,-226.5 147,-207.5 9,-207.5"/>
<text text-anchor="middle" x="78" y="-214.5" font-family="Helvetica,sans-Serif" font-size="10.00">ant::UnpackerAcquConfig</text>
</a>
</g>
</g>
<!-- Node12&#45;&gt;Node10 -->
<g id="edge3" class="edge"><title>Node12&#45;&gt;Node10</title>
<path fill="none" stroke="midnightblue" d="M148.158,-205.624C183.606,-199.305 227.34,-190.752 266,-181 282.331,-176.881 300.315,-171.294 314.74,-166.547"/>
<polygon fill="midnightblue" stroke="midnightblue" points="147.156,-202.247 137.915,-207.43 148.371,-209.141 147.156,-202.247"/>
</g>
<!-- Node13 -->
<g id="node5" class="node"><title>Node13</title>
<g id="a_node5"><a xlink:href="classant_1_1_unpacker_a2_geant_config.html" target="_top" xlink:title="The UnpackerA2GeantConfig class provides stuff the A2Geant unpacker needs. ">
<polygon fill="white" stroke="black" points="0,-169.5 0,-188.5 156,-188.5 156,-169.5 0,-169.5"/>
<text text-anchor="middle" x="78" y="-176.5" font-family="Helvetica,sans-Serif" font-size="10.00">ant::UnpackerA2GeantConfig</text>
</a>
</g>
</g>
<!-- Node13&#45;&gt;Node10 -->
<g id="edge4" class="edge"><title>Node13&#45;&gt;Node10</title>
<path fill="none" stroke="midnightblue" d="M166.453,-171.698C204.956,-168.484 249.173,-164.792 283.66,-161.913"/>
<polygon fill="midnightblue" stroke="midnightblue" points="165.952,-168.228 156.278,-172.548 166.535,-175.204 165.952,-168.228"/>
</g>
<!-- Node14 -->
<g id="node6" class="node"><title>Node14</title>
<polygon fill="white" stroke="#bfbfbf" points="7,-120 7,-150 149,-150 149,-120 7,-120"/>
<text text-anchor="start" x="15" y="-138" font-family="Helvetica,sans-Serif" font-size="10.00">std::list&lt; std::shared</text>
<text text-anchor="middle" x="78" y="-127" font-family="Helvetica,sans-Serif" font-size="10.00">_ptr&lt; ant::Detector_t &gt; &gt;</text>
</g>
<!-- Node14&#45;&gt;Node10 -->
<g id="edge5" class="edge"><title>Node14&#45;&gt;Node10</title>
<path fill="none" stroke="#9a32cd" stroke-dasharray="5,2" d="M159.265,-140.488C192.338,-142.885 231.031,-145.863 266,-149 271.719,-149.513 277.675,-150.079 283.628,-150.667"/>
<polygon fill="#9a32cd" stroke="#9a32cd" points="159.418,-136.99 149.192,-139.763 158.915,-143.972 159.418,-136.99"/>
<text text-anchor="middle" x="220" y="-152" font-family="Helvetica,sans-Serif" font-size="10.00"> detectors</text>
</g>
<!-- Node15 -->
<g id="node7" class="node"><title>Node15</title>
<polygon fill="white" stroke="#bfbfbf" points="18.5,-60.5 18.5,-101.5 137.5,-101.5 137.5,-60.5 18.5,-60.5"/>
<text text-anchor="start" x="26.5" y="-89.5" font-family="Helvetica,sans-Serif" font-size="10.00">std::list&lt; std::shared</text>
<text text-anchor="start" x="26.5" y="-78.5" font-family="Helvetica,sans-Serif" font-size="10.00">_ptr&lt; ant::Calibration</text>
<text text-anchor="middle" x="78" y="-67.5" font-family="Helvetica,sans-Serif" font-size="10.00">::BaseModule &gt; &gt;</text>
</g>
<!-- Node15&#45;&gt;Node10 -->
<g id="edge6" class="edge"><title>Node15&#45;&gt;Node10</title>
<path fill="none" stroke="#9a32cd" stroke-dasharray="5,2" d="M147.493,-95.5558C183.144,-103.708 227.261,-114.699 266,-127 284.628,-132.915 305.227,-141.091 320.353,-147.414"/>
<polygon fill="#9a32cd" stroke="#9a32cd" points="148.199,-92.1273 137.673,-93.3332 146.654,-98.9546 148.199,-92.1273"/>
<text text-anchor="middle" x="220" y="-130" font-family="Helvetica,sans-Serif" font-size="10.00"> calibrations</text>
</g>
<!-- Node16 -->
<g id="node8" class="node"><title>Node16</title>
<polygon fill="white" stroke="#bfbfbf" points="3.5,-0.5 3.5,-41.5 152.5,-41.5 152.5,-0.5 3.5,-0.5"/>
<text text-anchor="start" x="11.5" y="-29.5" font-family="Helvetica,sans-Serif" font-size="10.00">std::list&lt; std::shared</text>
<text text-anchor="start" x="11.5" y="-18.5" font-family="Helvetica,sans-Serif" font-size="10.00">_ptr&lt; ant::ReconstructHook</text>
<text text-anchor="middle" x="78" y="-7.5" font-family="Helvetica,sans-Serif" font-size="10.00">::Base &gt; &gt;</text>
</g>
<!-- Node16&#45;&gt;Node10 -->
<g id="edge7" class="edge"><title>Node16&#45;&gt;Node10</title>
<path fill="none" stroke="#9a32cd" stroke-dasharray="5,2" d="M162.399,-42.5411C195.951,-53.1832 234.155,-67.9036 266,-87 294.099,-103.85 320.91,-132.122 334.063,-147.058"/>
<polygon fill="#9a32cd" stroke="#9a32cd" points="163.197,-39.1243 152.609,-39.5085 161.125,-45.8109 163.197,-39.1243"/>
<text text-anchor="middle" x="220" y="-90" font-family="Helvetica,sans-Serif" font-size="10.00"> reconstruct_hooks</text>
</g>
</g>
</svg>
