<?xml version="1.0" encoding="UTF-8" standalone="no"?>
<!DOCTYPE svg PUBLIC "-//W3C//DTD SVG 1.1//EN"
 "http://www.w3.org/Graphics/SVG/1.1/DTD/svg11.dtd">
<!-- Generated by graphviz version 2.38.0 (20140413.2041)
 -->
<!-- Title: ant::Calibration::PhysicsModule Pages: 1 -->
<svg width="879pt" height="350pt"
 viewBox="0.00 0.00 879.00 349.50" xmlns="http://www.w3.org/2000/svg" xmlns:xlink="http://www.w3.org/1999/xlink">
<g id="graph0" class="graph" transform="scale(1 1) rotate(0) translate(4 345.5)">
<title>ant::Calibration::PhysicsModule</title>
<polygon fill="white" stroke="none" points="-4,4 -4,-345.5 875,-345.5 875,4 -4,4"/>
<!-- Node0 -->
<g id="node1" class="node"><title>Node0</title>
<polygon fill="#bfbfbf" stroke="black" points="190,-166 190,-196 321,-196 321,-166 190,-166"/>
<text text-anchor="start" x="198" y="-184" font-family="Helvetica,sans-Serif" font-size="10.00">ant::Calibration::Physics</text>
<text text-anchor="middle" x="255.5" y="-173" font-family="Helvetica,sans-Serif" font-size="10.00">Module</text>
</g>
<!-- Node2 -->
<g id="node3" class="node"><title>Node2</title>
<g id="a_node3"><a xlink:href="classant_1_1calibration_1_1_c_b___source_calib.html" target="_top" xlink:title="ant::calibration::CB\l_SourceCalib">
<polygon fill="white" stroke="black" points="368.5,-188 368.5,-218 475.5,-218 475.5,-188 368.5,-188"/>
<text text-anchor="start" x="376.5" y="-206" font-family="Helvetica,sans-Serif" font-size="10.00">ant::calibration::CB</text>
<text text-anchor="middle" x="422" y="-195" font-family="Helvetica,sans-Serif" font-size="10.00">_SourceCalib</text>
</a>
</g>
</g>
<!-- Node0&#45;&gt;Node2 -->
<g id="edge2" class="edge"><title>Node0&#45;&gt;Node2</title>
<path fill="none" stroke="midnightblue" d="M331.051,-190.97C343.624,-192.652 356.438,-194.366 368.306,-195.953"/>
<polygon fill="midnightblue" stroke="midnightblue" points="331.418,-187.488 321.043,-189.632 330.49,-194.427 331.418,-187.488"/>
</g>
<!-- Node3 -->
<g id="node4" class="node"><title>Node3</title>
<g id="a_node4"><a xlink:href="classant_1_1_calibration_1_1_module.html" target="_top" xlink:title="The Module class is typically used for calibrations. ">
<polygon fill="white" stroke="black" points="357,-149.5 357,-168.5 487,-168.5 487,-149.5 357,-149.5"/>
<text text-anchor="middle" x="422" y="-156.5" font-family="Helvetica,sans-Serif" font-size="10.00">ant::Calibration::Module</text>
</a>
</g>
</g>
<!-- Node0&#45;&gt;Node3 -->
<g id="edge3" class="edge"><title>Node0&#45;&gt;Node3</title>
<path fill="none" stroke="midnightblue" d="M331.09,-171.024C339.712,-169.871 348.448,-168.703 356.913,-167.571"/>
<polygon fill="midnightblue" stroke="midnightblue" points="330.49,-167.573 321.043,-172.368 331.418,-174.512 330.49,-167.573"/>
</g>
<!-- Node1 -->
<g id="node2" class="node"><title>Node1</title>
<g id="a_node2"><a xlink:href="classant_1_1_calibration_1_1_base_module.html" target="_top" xlink:title="The BaseModule class provides a name for identification. ">
<polygon fill="white" stroke="black" points="0,-171.5 0,-190.5 154,-190.5 154,-171.5 0,-171.5"/>
<text text-anchor="middle" x="77" y="-178.5" font-family="Helvetica,sans-Serif" font-size="10.00">ant::Calibration::BaseModule</text>
</a>
</g>
</g>
<!-- Node1&#45;&gt;Node0 -->
<g id="edge1" class="edge"><title>Node1&#45;&gt;Node0</title>
<path fill="none" stroke="midnightblue" d="M164.261,-181C172.915,-181 181.595,-181 189.968,-181"/>
<polygon fill="midnightblue" stroke="midnightblue" points="164.133,-177.5 154.133,-181 164.132,-184.5 164.133,-177.5"/>
</g>
<!-- Node4 -->
<g id="node5" class="node"><title>Node4</title>
<g id="a_node5"><a xlink:href="classant_1_1calibration_1_1_c_b___time_walk.html" target="_top" xlink:title="ant::calibration::CB\l_TimeWalk">
<polygon fill="white" stroke="black" points="538.5,-232 538.5,-262 645.5,-262 645.5,-232 538.5,-232"/>
<text text-anchor="start" x="546.5" y="-250" font-family="Helvetica,sans-Serif" font-size="10.00">ant::calibration::CB</text>
<text text-anchor="middle" x="592" y="-239" font-family="Helvetica,sans-Serif" font-size="10.00">_TimeWalk</text>
</a>
</g>
</g>
<!-- Node3&#45;&gt;Node4 -->
<g id="edge4" class="edge"><title>Node3&#45;&gt;Node4</title>
<path fill="none" stroke="midnightblue" d="M477.197,-172.486C480.621,-174.123 483.924,-175.954 487,-178 508.04,-191.991 502.417,-207.346 523,-222 528.328,-225.793 534.298,-229.077 540.428,-231.902"/>
<polygon fill="midnightblue" stroke="midnightblue" points="478.493,-169.234 467.918,-168.586 475.781,-175.687 478.493,-169.234"/>
</g>
<!-- Node5 -->
<g id="node6" class="node"><title>Node5</title>
<g id="a_node6"><a xlink:href="classant_1_1calibration_1_1_energy.html" target="_top" xlink:title="ant::calibration::Energy">
<polygon fill="white" stroke="black" points="528.5,-193.5 528.5,-212.5 655.5,-212.5 655.5,-193.5 528.5,-193.5"/>
<text text-anchor="middle" x="592" y="-200.5" font-family="Helvetica,sans-Serif" font-size="10.00">ant::calibration::Energy</text>
</a>
</g>
</g>
<!-- Node3&#45;&gt;Node5 -->
<g id="edge5" class="edge"><title>Node3&#45;&gt;Node5</title>
<path fill="none" stroke="midnightblue" d="M469.409,-171.155C496.292,-178.195 529.647,-186.931 554.618,-193.471"/>
<polygon fill="midnightblue" stroke="midnightblue" points="470.014,-167.695 459.453,-168.547 468.24,-174.467 470.014,-167.695"/>
</g>
<!-- Node11 -->
<g id="node12" class="node"><title>Node11</title>
<g id="a_node12"><a xlink:href="classant_1_1calibration_1_1_p_i_d___phi_angle.html" target="_top" xlink:title="ant::calibration::PID\l_PhiAngle">
<polygon fill="white" stroke="black" points="537,-144 537,-174 647,-174 647,-144 537,-144"/>
<text text-anchor="start" x="545" y="-162" font-family="Helvetica,sans-Serif" font-size="10.00">ant::calibration::PID</text>
<text text-anchor="middle" x="592" y="-151" font-family="Helvetica,sans-Serif" font-size="10.00">_PhiAngle</text>
</a>
</g>
</g>
<!-- Node3&#45;&gt;Node11 -->
<g id="edge11" class="edge"><title>Node3&#45;&gt;Node11</title>
<path fill="none" stroke="midnightblue" d="M497.503,-159C510.73,-159 524.275,-159 536.803,-159"/>
<polygon fill="midnightblue" stroke="midnightblue" points="497.473,-155.5 487.473,-159 497.473,-162.5 497.473,-155.5"/>
</g>
<!-- Node12 -->
<g id="node13" class="node"><title>Node12</title>
<g id="a_node13"><a xlink:href="classant_1_1calibration_1_1_t_a_p_s___to_f.html" target="_top" xlink:title="ant::calibration::TAPS_ToF">
<polygon fill="white" stroke="black" points="523,-105.5 523,-124.5 661,-124.5 661,-105.5 523,-105.5"/>
<text text-anchor="middle" x="592" y="-112.5" font-family="Helvetica,sans-Serif" font-size="10.00">ant::calibration::TAPS_ToF</text>
</a>
</g>
</g>
<!-- Node3&#45;&gt;Node12 -->
<g id="edge12" class="edge"><title>Node3&#45;&gt;Node12</title>
<path fill="none" stroke="midnightblue" d="M469.409,-146.845C496.292,-139.805 529.647,-131.069 554.618,-124.529"/>
<polygon fill="midnightblue" stroke="midnightblue" points="468.24,-143.533 459.453,-149.453 470.014,-150.305 468.24,-143.533"/>
</g>
<!-- Node13 -->
<g id="node14" class="node"><title>Node13</title>
<g id="a_node14"><a xlink:href="classant_1_1calibration_1_1_time.html" target="_top" xlink:title="ant::calibration::Time">
<polygon fill="white" stroke="black" points="533.5,-52.5 533.5,-71.5 650.5,-71.5 650.5,-52.5 533.5,-52.5"/>
<text text-anchor="middle" x="592" y="-59.5" font-family="Helvetica,sans-Serif" font-size="10.00">ant::calibration::Time</text>
</a>
</g>
</g>
<!-- Node3&#45;&gt;Node13 -->
<g id="edge13" class="edge"><title>Node3&#45;&gt;Node13</title>
<path fill="none" stroke="midnightblue" d="M445.743,-143.77C465.762,-130.584 495.868,-111.281 523,-96 538.641,-87.1912 556.855,-78.1461 570.493,-71.6018"/>
<polygon fill="midnightblue" stroke="midnightblue" points="443.705,-140.922 437.302,-149.362 447.571,-146.757 443.705,-140.922"/>
</g>
<!-- Node6 -->
<g id="node7" class="node"><title>Node6</title>
<g id="a_node7"><a xlink:href="classant_1_1calibration_1_1_c_b___energy.html" target="_top" xlink:title="ant::calibration::CB\l_Energy">
<polygon fill="white" stroke="black" points="730.5,-311 730.5,-341 837.5,-341 837.5,-311 730.5,-311"/>
<text text-anchor="start" x="738.5" y="-329" font-family="Helvetica,sans-Serif" font-size="10.00">ant::calibration::CB</text>
<text text-anchor="middle" x="784" y="-318" font-family="Helvetica,sans-Serif" font-size="10.00">_Energy</text>
</a>
</g>
</g>
<!-- Node5&#45;&gt;Node6 -->
<g id="edge6" class="edge"><title>Node5&#45;&gt;Node6</title>
<path fill="none" stroke="midnightblue" d="M654.621,-217.319C656.865,-218.736 659.004,-220.291 661,-222 690.316,-247.088 667.816,-275.76 697,-301 706.408,-309.137 718.335,-314.63 730.287,-318.336"/>
<polygon fill="midnightblue" stroke="midnightblue" points="656.006,-214.093 645.529,-212.518 652.737,-220.283 656.006,-214.093"/>
</g>
<!-- Node7 -->
<g id="node8" class="node"><title>Node7</title>
<g id="a_node8"><a xlink:href="classant_1_1calibration_1_1_p_i_d___energy.html" target="_top" xlink:title="ant::calibration::PID\l_Energy">
<polygon fill="white" stroke="black" points="729,-262 729,-292 839,-292 839,-262 729,-262"/>
<text text-anchor="start" x="737" y="-280" font-family="Helvetica,sans-Serif" font-size="10.00">ant::calibration::PID</text>
<text text-anchor="middle" x="784" y="-269" font-family="Helvetica,sans-Serif" font-size="10.00">_Energy</text>
</a>
</g>
</g>
<!-- Node5&#45;&gt;Node7 -->
<g id="edge7" class="edge"><title>Node5&#45;&gt;Node7</title>
<path fill="none" stroke="midnightblue" d="M647.345,-215.914C652.065,-217.711 656.683,-219.733 661,-222 679.439,-231.684 678.612,-242.22 697,-252 706.884,-257.257 718.011,-261.534 728.9,-264.968"/>
<polygon fill="midnightblue" stroke="midnightblue" points="648.17,-212.496 637.576,-212.533 645.881,-219.111 648.17,-212.496"/>
</g>
<!-- Node8 -->
<g id="node9" class="node"><title>Node8</title>
<g id="a_node9"><a xlink:href="classant_1_1calibration_1_1_t_a_p_s___energy.html" target="_top" xlink:title="ant::calibration::TAPS\l_Energy">
<polygon fill="white" stroke="black" points="725,-213 725,-243 843,-243 843,-213 725,-213"/>
<text text-anchor="start" x="733" y="-231" font-family="Helvetica,sans-Serif" font-size="10.00">ant::calibration::TAPS</text>
<text text-anchor="middle" x="784" y="-220" font-family="Helvetica,sans-Serif" font-size="10.00">_Energy</text>
</a>
</g>
</g>
<!-- Node5&#45;&gt;Node8 -->
<g id="edge8" class="edge"><title>Node5&#45;&gt;Node8</title>
<path fill="none" stroke="midnightblue" d="M665.814,-212.581C685.346,-215.151 706.203,-217.895 724.826,-220.346"/>
<polygon fill="midnightblue" stroke="midnightblue" points="666.111,-209.09 655.74,-211.255 665.198,-216.03 666.111,-209.09"/>
</g>
<!-- Node9 -->
<g id="node10" class="node"><title>Node9</title>
<g id="a_node10"><a xlink:href="classant_1_1calibration_1_1_t_a_p_s___short_energy.html" target="_top" xlink:title="ant::calibration::TAPS\l_ShortEnergy">
<polygon fill="white" stroke="black" points="725,-164 725,-194 843,-194 843,-164 725,-164"/>
<text text-anchor="start" x="733" y="-182" font-family="Helvetica,sans-Serif" font-size="10.00">ant::calibration::TAPS</text>
<text text-anchor="middle" x="784" y="-171" font-family="Helvetica,sans-Serif" font-size="10.00">_ShortEnergy</text>
</a>
</g>
</g>
<!-- Node5&#45;&gt;Node9 -->
<g id="edge9" class="edge"><title>Node5&#45;&gt;Node9</title>
<path fill="none" stroke="midnightblue" d="M665.814,-193.802C685.346,-191.335 706.203,-188.701 724.826,-186.348"/>
<polygon fill="midnightblue" stroke="midnightblue" points="665.222,-190.349 655.74,-195.075 666.099,-197.294 665.222,-190.349"/>
</g>
<!-- Node10 -->
<g id="node11" class="node"><title>Node10</title>
<g id="a_node11"><a xlink:href="classant_1_1calibration_1_1_t_a_p_s_veto___energy.html" target="_top" xlink:title="ant::calibration::TAPSVeto\l_Energy">
<polygon fill="white" stroke="black" points="714,-115 714,-145 854,-145 854,-115 714,-115"/>
<text text-anchor="start" x="722" y="-133" font-family="Helvetica,sans-Serif" font-size="10.00">ant::calibration::TAPSVeto</text>
<text text-anchor="middle" x="784" y="-122" font-family="Helvetica,sans-Serif" font-size="10.00">_Energy</text>
</a>
</g>
</g>
<!-- Node5&#45;&gt;Node10 -->
<g id="edge10" class="edge"><title>Node5&#45;&gt;Node10</title>
<path fill="none" stroke="midnightblue" d="M644.573,-190.191C650.245,-188.093 655.831,-185.705 661,-183 679.204,-173.474 678.73,-163.399 697,-154 703.616,-150.596 710.775,-147.625 718.04,-145.044"/>
<polygon fill="midnightblue" stroke="midnightblue" points="643.343,-186.912 635.005,-193.449 645.6,-193.538 643.343,-186.912"/>
</g>
<!-- Node14 -->
<g id="node15" class="node"><title>Node14</title>
<g id="a_node15"><a xlink:href="classant_1_1calibration_1_1_new_tagger___time.html" target="_top" xlink:title="ant::calibration::NewTagger_Time">
<polygon fill="white" stroke="black" points="697,-76.5 697,-95.5 871,-95.5 871,-76.5 697,-76.5"/>
<text text-anchor="middle" x="784" y="-83.5" font-family="Helvetica,sans-Serif" font-size="10.00">ant::calibration::NewTagger_Time</text>
</a>
</g>
</g>
<!-- Node13&#45;&gt;Node14 -->
<g id="edge14" class="edge"><title>Node13&#45;&gt;Node14</title>
<path fill="none" stroke="midnightblue" d="M660.864,-70.5723C676.066,-72.4926 692.281,-74.5408 707.763,-76.4964"/>
<polygon fill="midnightblue" stroke="midnightblue" points="660.882,-67.0468 650.522,-69.2659 660.004,-73.9916 660.882,-67.0468"/>
</g>
<!-- Node15 -->
<g id="node16" class="node"><title>Node15</title>
<g id="a_node16"><a xlink:href="classant_1_1calibration_1_1_t_a_p_s___time.html" target="_top" xlink:title="ant::calibration::TAPS_Time">
<polygon fill="white" stroke="black" points="711,-38.5 711,-57.5 857,-57.5 857,-38.5 711,-38.5"/>
<text text-anchor="middle" x="784" y="-45.5" font-family="Helvetica,sans-Serif" font-size="10.00">ant::calibration::TAPS_Time</text>
</a>
</g>
</g>
<!-- Node13&#45;&gt;Node15 -->
<g id="edge15" class="edge"><title>Node13&#45;&gt;Node15</title>
<path fill="none" stroke="midnightblue" d="M660.513,-57.0254C676.836,-55.8226 694.344,-54.5325 710.871,-53.3148"/>
<polygon fill="midnightblue" stroke="midnightblue" points="660.238,-53.5361 650.522,-57.7615 660.752,-60.5171 660.238,-53.5361"/>
</g>
<!-- Node16 -->
<g id="node17" class="node"><title>Node16</title>
<g id="a_node17"><a xlink:href="classant_1_1calibration_1_1_t_a_p_s_veto___time.html" target="_top" xlink:title="ant::calibration::TAPSVeto_Time">
<polygon fill="white" stroke="black" points="700,-0.5 700,-19.5 868,-19.5 868,-0.5 700,-0.5"/>
<text text-anchor="middle" x="784" y="-7.5" font-family="Helvetica,sans-Serif" font-size="10.00">ant::calibration::TAPSVeto_Time</text>
</a>
</g>
</g>
<!-- Node13&#45;&gt;Node16 -->
<g id="edge16" class="edge"><title>Node13&#45;&gt;Node16</title>
<path fill="none" stroke="midnightblue" d="M630.147,-49.3202C649.881,-42.8116 674.62,-35.0099 697,-29 709.552,-25.6292 723.25,-22.4022 735.949,-19.5951"/>
<polygon fill="midnightblue" stroke="midnightblue" points="628.993,-46.0155 620.609,-52.4935 631.203,-52.6575 628.993,-46.0155"/>
</g>
</g>
</svg>
