<?xml version="1.0" encoding="UTF-8" standalone="no"?>
<!DOCTYPE svg PUBLIC "-//W3C//DTD SVG 1.1//EN"
 "http://www.w3.org/Graphics/SVG/1.1/DTD/svg11.dtd">
<!-- Generated by graphviz version 2.38.0 (20140413.2041)
 -->
<!-- Title: ant::analysis::physics::EtapProton Pages: 1 -->
<svg width="1270pt" height="303pt"
 viewBox="0.00 0.00 1270.00 303.00" xmlns="http://www.w3.org/2000/svg" xmlns:xlink="http://www.w3.org/1999/xlink">
<g id="graph0" class="graph" transform="scale(1 1) rotate(0) translate(4 299)">
<title>ant::analysis::physics::EtapProton</title>
<polygon fill="white" stroke="none" points="-4,4 -4,-299 1266,-299 1266,4 -4,4"/>
<!-- Node2 -->
<g id="node1" class="node"><title>Node2</title>
<polygon fill="#bfbfbf" stroke="black" points="1144,-101.5 1144,-131.5 1262,-131.5 1262,-101.5 1144,-101.5"/>
<text text-anchor="start" x="1152" y="-119.5" font-family="Helvetica,sans-Serif" font-size="10.00">ant::analysis::physics</text>
<text text-anchor="middle" x="1203" y="-108.5" font-family="Helvetica,sans-Serif" font-size="10.00">::EtapProton</text>
</g>
<!-- Node3 -->
<g id="node2" class="node"><title>Node3</title>
<g id="a_node2"><a xlink:href="classant_1_1analysis_1_1_physics.html" target="_top" xlink:title="ant::analysis::Physics">
<polygon fill="white" stroke="black" points="894,-206 894,-225 1012,-225 1012,-206 894,-206"/>
<text text-anchor="middle" x="953" y="-213" font-family="Helvetica,sans-Serif" font-size="10.00">ant::analysis::Physics</text>
</a>
</g>
</g>
<!-- Node3&#45;&gt;Node2 -->
<g id="edge1" class="edge"><title>Node3&#45;&gt;Node2</title>
<path fill="none" stroke="midnightblue" d="M1006.94,-203.496C1015.37,-201.329 1023.96,-198.968 1032,-196.5 1074.62,-183.424 1085.77,-180.71 1126,-161.5 1144.4,-152.712 1164.2,-140.909 1178.97,-131.596"/>
<polygon fill="midnightblue" stroke="midnightblue" points="1006.01,-200.12 997.16,-205.945 1007.71,-206.91 1006.01,-200.12"/>
</g>
<!-- Node4 -->
<g id="node3" class="node"><title>Node4</title>
<g id="a_node3"><a xlink:href="classant_1_1analysis_1_1_histogram_factory.html" target="_top" xlink:title="ant::analysis::Histogram\lFactory">
<polygon fill="white" stroke="black" points="581.5,-200.5 581.5,-230.5 714.5,-230.5 714.5,-200.5 581.5,-200.5"/>
<text text-anchor="start" x="589.5" y="-218.5" font-family="Helvetica,sans-Serif" font-size="10.00">ant::analysis::Histogram</text>
<text text-anchor="middle" x="648" y="-207.5" font-family="Helvetica,sans-Serif" font-size="10.00">Factory</text>
</a>
</g>
</g>
<!-- Node4&#45;&gt;Node3 -->
<g id="edge2" class="edge"><title>Node4&#45;&gt;Node3</title>
<path fill="none" stroke="#9a32cd" stroke-dasharray="5,2" d="M724.986,-215.5C777.315,-215.5 845.793,-215.5 893.801,-215.5"/>
<polygon fill="#9a32cd" stroke="#9a32cd" points="724.747,-212 714.746,-215.5 724.746,-219 724.747,-212"/>
<text text-anchor="middle" x="796.5" y="-218.5" font-family="Helvetica,sans-Serif" font-size="10.00"> HistFac</text>
</g>
<!-- Node5 -->
<g id="node4" class="node"><title>Node5</title>
<polygon fill="white" stroke="#bfbfbf" points="887,-146 887,-187 1019,-187 1019,-146 887,-146"/>
<text text-anchor="start" x="895" y="-175" font-family="Helvetica,sans-Serif" font-size="10.00">std::vector&lt; std::unique</text>
<text text-anchor="start" x="895" y="-164" font-family="Helvetica,sans-Serif" font-size="10.00">_ptr&lt; ant::analysis::utils</text>
<text text-anchor="middle" x="953" y="-153" font-family="Helvetica,sans-Serif" font-size="10.00">::KinFitter &gt; &gt;</text>
</g>
<!-- Node5&#45;&gt;Node2 -->
<g id="edge3" class="edge"><title>Node5&#45;&gt;Node2</title>
<path fill="none" stroke="#9a32cd" stroke-dasharray="5,2" d="M1029.32,-151.315C1066.02,-143.916 1109.48,-135.152 1143.62,-128.269"/>
<polygon fill="#9a32cd" stroke="#9a32cd" points="1028.27,-147.956 1019.16,-153.363 1029.65,-154.818 1028.27,-147.956"/>
<text text-anchor="middle" x="1088" y="-149.5" font-family="Helvetica,sans-Serif" font-size="10.00"> fitters</text>
</g>
<!-- Node6 -->
<g id="node5" class="node"><title>Node6</title>
<polygon fill="white" stroke="#bfbfbf" points="577,-151.5 577,-181.5 719,-181.5 719,-151.5 577,-151.5"/>
<text text-anchor="start" x="585" y="-169.5" font-family="Helvetica,sans-Serif" font-size="10.00">std::unique_ptr&lt; ant</text>
<text text-anchor="middle" x="648" y="-158.5" font-family="Helvetica,sans-Serif" font-size="10.00">::analysis::utils::KinFitter &gt;</text>
</g>
<!-- Node6&#45;&gt;Node5 -->
<g id="edge4" class="edge"><title>Node6&#45;&gt;Node5</title>
<path fill="none" stroke="#9a32cd" stroke-dasharray="5,2" d="M729.557,-166.5C778.702,-166.5 840.71,-166.5 886.766,-166.5"/>
<polygon fill="#9a32cd" stroke="#9a32cd" points="729.276,-163 719.276,-166.5 729.276,-170 729.276,-163"/>
<text text-anchor="middle" x="796.5" y="-169.5" font-family="Helvetica,sans-Serif" font-size="10.00"> elements</text>
</g>
<!-- Node7 -->
<g id="node6" class="node"><title>Node7</title>
<g id="a_node6"><a xlink:href="classant_1_1analysis_1_1utils_1_1_kin_fitter.html" target="_top" xlink:title="ant::analysis::utils\l::KinFitter">
<polygon fill="white" stroke="black" points="319,-166.5 319,-196.5 421,-196.5 421,-166.5 319,-166.5"/>
<text text-anchor="start" x="327" y="-184.5" font-family="Helvetica,sans-Serif" font-size="10.00">ant::analysis::utils</text>
<text text-anchor="middle" x="370" y="-173.5" font-family="Helvetica,sans-Serif" font-size="10.00">::KinFitter</text>
</a>
</g>
</g>
<!-- Node7&#45;&gt;Node6 -->
<g id="edge5" class="edge"><title>Node7&#45;&gt;Node6</title>
<path fill="none" stroke="#9a32cd" stroke-dasharray="5,2" d="M431.31,-178.222C474.169,-175.893 531.858,-172.758 576.79,-170.316"/>
<polygon fill="#9a32cd" stroke="#9a32cd" points="431.097,-174.729 421.302,-178.766 431.477,-181.718 431.097,-174.729"/>
<text text-anchor="middle" x="502" y="-180.5" font-family="Helvetica,sans-Serif" font-size="10.00"> ptr</text>
</g>
<!-- Node8 -->
<g id="node7" class="node"><title>Node8</title>
<g id="a_node7"><a xlink:href="classant_1_1analysis_1_1utils_1_1_fitter.html" target="_top" xlink:title="ant::analysis::utils\l::Fitter">
<polygon fill="white" stroke="black" points="109.5,-264.5 109.5,-294.5 211.5,-294.5 211.5,-264.5 109.5,-264.5"/>
<text text-anchor="start" x="117.5" y="-282.5" font-family="Helvetica,sans-Serif" font-size="10.00">ant::analysis::utils</text>
<text text-anchor="middle" x="160.5" y="-271.5" font-family="Helvetica,sans-Serif" font-size="10.00">::Fitter</text>
</a>
</g>
</g>
<!-- Node8&#45;&gt;Node7 -->
<g id="edge6" class="edge"><title>Node8&#45;&gt;Node7</title>
<path fill="none" stroke="midnightblue" d="M214.205,-260.889C218.887,-259.112 223.54,-257.3 228,-255.5 258.255,-243.287 266.041,-240.529 295,-225.5 312.114,-216.618 330.77,-205.515 345.069,-196.685"/>
<polygon fill="midnightblue" stroke="midnightblue" points="212.749,-257.697 204.605,-264.474 215.198,-264.254 212.749,-257.697"/>
</g>
<!-- Node9 -->
<g id="node8" class="node"><title>Node9</title>
<g id="a_node8"><a xlink:href="structant_1_1analysis_1_1utils_1_1_kin_fitter_1_1_target__t.html" target="_top" xlink:title="ant::analysis::utils\l::KinFitter::Target_t">
<polygon fill="white" stroke="black" points="108,-215.5 108,-245.5 213,-245.5 213,-215.5 108,-215.5"/>
<text text-anchor="start" x="116" y="-233.5" font-family="Helvetica,sans-Serif" font-size="10.00">ant::analysis::utils</text>
<text text-anchor="middle" x="160.5" y="-222.5" font-family="Helvetica,sans-Serif" font-size="10.00">::KinFitter::Target_t</text>
</a>
</g>
</g>
<!-- Node9&#45;&gt;Node7 -->
<g id="edge7" class="edge"><title>Node9&#45;&gt;Node7</title>
<path fill="none" stroke="#9a32cd" stroke-dasharray="5,2" d="M223.159,-215.94C253.66,-208.737 290.005,-200.154 318.782,-193.359"/>
<polygon fill="#9a32cd" stroke="#9a32cd" points="221.987,-212.62 213.059,-218.325 223.595,-219.433 221.987,-212.62"/>
<text text-anchor="middle" x="270.5" y="-213.5" font-family="Helvetica,sans-Serif" font-size="10.00"> Target</text>
</g>
<!-- Node10 -->
<g id="node9" class="node"><title>Node10</title>
<g id="a_node9"><a xlink:href="structant_1_1analysis_1_1utils_1_1_kin_fitter_1_1_beam_e__t.html" target="_top" xlink:title="ant::analysis::utils\l::KinFitter::BeamE_t">
<polygon fill="white" stroke="black" points="105.5,-166.5 105.5,-196.5 215.5,-196.5 215.5,-166.5 105.5,-166.5"/>
<text text-anchor="start" x="113.5" y="-184.5" font-family="Helvetica,sans-Serif" font-size="10.00">ant::analysis::utils</text>
<text text-anchor="middle" x="160.5" y="-173.5" font-family="Helvetica,sans-Serif" font-size="10.00">::KinFitter::BeamE_t</text>
</a>
</g>
</g>
<!-- Node10&#45;&gt;Node7 -->
<g id="edge8" class="edge"><title>Node10&#45;&gt;Node7</title>
<path fill="none" stroke="#9a32cd" stroke-dasharray="5,2" d="M226.106,-181.5C256.051,-181.5 291.093,-181.5 318.982,-181.5"/>
<polygon fill="#9a32cd" stroke="#9a32cd" points="225.747,-178 215.747,-181.5 225.747,-185 225.747,-178"/>
<text text-anchor="middle" x="270.5" y="-184.5" font-family="Helvetica,sans-Serif" font-size="10.00"> BeamE</text>
</g>
<!-- Node11 -->
<g id="node10" class="node"><title>Node11</title>
<polygon fill="white" stroke="#bfbfbf" points="0,-172 0,-191 56,-191 56,-172 0,-172"/>
<text text-anchor="middle" x="28" y="-179" font-family="Helvetica,sans-Serif" font-size="10.00">V_S_P_t</text>
</g>
<!-- Node11&#45;&gt;Node10 -->
<g id="edge9" class="edge"><title>Node11&#45;&gt;Node10</title>
<path fill="none" stroke="midnightblue" d="M66.2548,-181.5C78.4109,-181.5 92.1666,-181.5 105.306,-181.5"/>
<polygon fill="midnightblue" stroke="midnightblue" points="66.0397,-178 56.0397,-181.5 66.0397,-185 66.0397,-178"/>
</g>
<!-- Node12 -->
<g id="node11" class="node"><title>Node12</title>
<polygon fill="white" stroke="#bfbfbf" points="93,-128 93,-147 228,-147 228,-128 93,-128"/>
<text text-anchor="middle" x="160.5" y="-135" font-family="Helvetica,sans-Serif" font-size="10.00">std::vector&lt; FitParticle &gt;</text>
</g>
<!-- Node12&#45;&gt;Node7 -->
<g id="edge10" class="edge"><title>Node12&#45;&gt;Node7</title>
<path fill="none" stroke="#9a32cd" stroke-dasharray="5,2" d="M216.552,-149.174C248.357,-155.918 288.059,-164.337 318.973,-170.892"/>
<polygon fill="#9a32cd" stroke="#9a32cd" points="217.033,-145.698 206.524,-147.047 215.581,-152.546 217.033,-145.698"/>
<text text-anchor="middle" x="270.5" y="-168.5" font-family="Helvetica,sans-Serif" font-size="10.00"> Photons</text>
</g>
<!-- Node13 -->
<g id="node12" class="node"><title>Node13</title>
<g id="a_node12"><a xlink:href="classant_1_1_piecewise_interval.html" target="_top" xlink:title="ant::PiecewiseInterval\l\&lt; unsigned \&gt;">
<polygon fill="white" stroke="black" points="737,-100.5 737,-130.5 856,-130.5 856,-100.5 737,-100.5"/>
<text text-anchor="start" x="745" y="-118.5" font-family="Helvetica,sans-Serif" font-size="10.00">ant::PiecewiseInterval</text>
<text text-anchor="middle" x="796.5" y="-107.5" font-family="Helvetica,sans-Serif" font-size="10.00">&lt; unsigned &gt;</text>
</a>
</g>
</g>
<!-- Node13&#45;&gt;Node2 -->
<g id="edge11" class="edge"><title>Node13&#45;&gt;Node2</title>
<path fill="none" stroke="#9a32cd" stroke-dasharray="5,2" d="M866.539,-115.671C944.63,-115.864 1070.44,-116.175 1143.77,-116.356"/>
<polygon fill="#9a32cd" stroke="#9a32cd" points="866.326,-112.17 856.318,-115.645 866.309,-119.17 866.326,-112.17"/>
<text text-anchor="middle" x="953" y="-119.5" font-family="Helvetica,sans-Serif" font-size="10.00"> multiplicities</text>
</g>
<!-- Node14 -->
<g id="node13" class="node"><title>Node14</title>
<g id="a_node13"><a xlink:title="STL class. ">
<polygon fill="white" stroke="#bfbfbf" points="445,-94.5 445,-124.5 559,-124.5 559,-94.5 445,-94.5"/>
<text text-anchor="start" x="453" y="-112.5" font-family="Helvetica,sans-Serif" font-size="10.00">std::vector&lt; interval</text>
<text text-anchor="middle" x="502" y="-101.5" font-family="Helvetica,sans-Serif" font-size="10.00">&lt; unsigned &gt; &gt;</text>
</a>
</g>
</g>
<!-- Node14&#45;&gt;Node13 -->
<g id="edge12" class="edge"><title>Node14&#45;&gt;Node13</title>
<path fill="none" stroke="midnightblue" d="M569.201,-110.858C619.635,-111.893 688.425,-113.304 736.882,-114.298"/>
<polygon fill="midnightblue" stroke="midnightblue" points="569.121,-107.356 559.051,-110.65 568.977,-114.354 569.121,-107.356"/>
</g>
<!-- Node15 -->
<g id="node14" class="node"><title>Node15</title>
<polygon fill="white" stroke="#bfbfbf" points="146,-75 146,-94 175,-94 175,-75 146,-75"/>
<text text-anchor="middle" x="160.5" y="-82" font-family="Helvetica,sans-Serif" font-size="10.00">T</text>
</g>
<!-- Node15&#45;&gt;Node14 -->
<g id="edge13" class="edge"><title>Node15&#45;&gt;Node14</title>
<path fill="none" stroke="#9a32cd" stroke-dasharray="5,2" d="M185.426,-86.2619C238.91,-90.2003 369.356,-99.806 444.729,-105.356"/>
<polygon fill="#9a32cd" stroke="#9a32cd" points="185.459,-82.7549 175.229,-85.511 184.945,-89.736 185.459,-82.7549"/>
<text text-anchor="middle" x="270.5" y="-97.5" font-family="Helvetica,sans-Serif" font-size="10.00"> elements</text>
</g>
<!-- Node19 -->
<g id="node18" class="node"><title>Node19</title>
<g id="a_node18"><a xlink:title="STL class. ">
<polygon fill="white" stroke="#bfbfbf" points="313,-49.5 313,-79.5 427,-79.5 427,-49.5 313,-49.5"/>
<text text-anchor="start" x="321" y="-67.5" font-family="Helvetica,sans-Serif" font-size="10.00">std::vector&lt; interval</text>
<text text-anchor="middle" x="370" y="-56.5" font-family="Helvetica,sans-Serif" font-size="10.00">&lt; double &gt; &gt;</text>
</a>
</g>
</g>
<!-- Node15&#45;&gt;Node19 -->
<g id="edge18" class="edge"><title>Node15&#45;&gt;Node19</title>
<path fill="none" stroke="#9a32cd" stroke-dasharray="5,2" d="M185.363,-81.8496C202.282,-79.997 225.524,-77.5059 246,-75.5 267.871,-73.3575 291.946,-71.1672 312.955,-69.3109"/>
<polygon fill="#9a32cd" stroke="#9a32cd" points="184.807,-78.3895 175.251,-82.9632 185.574,-85.3475 184.807,-78.3895"/>
<text text-anchor="middle" x="270.5" y="-78.5" font-family="Helvetica,sans-Serif" font-size="10.00"> elements</text>
</g>
<!-- Node16 -->
<g id="node15" class="node"><title>Node16</title>
<g id="a_node15"><a xlink:href="classant_1_1analysis_1_1utils_1_1_trigger_simulation.html" target="_top" xlink:title="ant::analysis::utils\l::TriggerSimulation">
<polygon fill="white" stroke="black" points="900.5,-0.5 900.5,-30.5 1005.5,-30.5 1005.5,-0.5 900.5,-0.5"/>
<text text-anchor="start" x="908.5" y="-18.5" font-family="Helvetica,sans-Serif" font-size="10.00">ant::analysis::utils</text>
<text text-anchor="middle" x="953" y="-7.5" font-family="Helvetica,sans-Serif" font-size="10.00">::TriggerSimulation</text>
</a>
</g>
</g>
<!-- Node16&#45;&gt;Node2 -->
<g id="edge14" class="edge"><title>Node16&#45;&gt;Node2</title>
<path fill="none" stroke="#9a32cd" stroke-dasharray="5,2" d="M1015.87,-26.8874C1049.46,-34.4183 1091.14,-45.9914 1126,-62.5 1147.8,-72.8215 1169.97,-89.4212 1184.69,-101.494"/>
<polygon fill="#9a32cd" stroke="#9a32cd" points="1016.23,-23.385 1005.72,-24.679 1014.74,-30.225 1016.23,-23.385"/>
<text text-anchor="middle" x="1088" y="-65.5" font-family="Helvetica,sans-Serif" font-size="10.00"> triggersimu</text>
</g>
<!-- Node17 -->
<g id="node16" class="node"><title>Node17</title>
<g id="a_node16"><a xlink:href="classant_1_1analysis_1_1_prompt_random_1_1_switch.html" target="_top" xlink:title="ant::analysis::PromptRandom\l::Switch">
<polygon fill="white" stroke="black" points="874,-49.5 874,-79.5 1032,-79.5 1032,-49.5 874,-49.5"/>
<text text-anchor="start" x="882" y="-67.5" font-family="Helvetica,sans-Serif" font-size="10.00">ant::analysis::PromptRandom</text>
<text text-anchor="middle" x="953" y="-56.5" font-family="Helvetica,sans-Serif" font-size="10.00">::Switch</text>
</a>
</g>
</g>
<!-- Node17&#45;&gt;Node2 -->
<g id="edge15" class="edge"><title>Node17&#45;&gt;Node2</title>
<path fill="none" stroke="#9a32cd" stroke-dasharray="5,2" d="M1042.24,-75.5451C1069.3,-79.6821 1099.03,-84.9935 1126,-91.5 1137.21,-94.204 1149.14,-97.7826 1160.14,-101.384"/>
<polygon fill="#9a32cd" stroke="#9a32cd" points="1042.42,-72.0333 1032.01,-74.017 1041.39,-78.9565 1042.42,-72.0333"/>
<text text-anchor="middle" x="1088" y="-94.5" font-family="Helvetica,sans-Serif" font-size="10.00"> promptrandom</text>
</g>
<!-- Node18 -->
<g id="node17" class="node"><title>Node18</title>
<g id="a_node17"><a xlink:href="classant_1_1_piecewise_interval.html" target="_top" xlink:title="ant::PiecewiseInterval\l\&lt; double \&gt;">
<polygon fill="white" stroke="black" points="588.5,-49.5 588.5,-79.5 707.5,-79.5 707.5,-49.5 588.5,-49.5"/>
<text text-anchor="start" x="596.5" y="-67.5" font-family="Helvetica,sans-Serif" font-size="10.00">ant::PiecewiseInterval</text>
<text text-anchor="middle" x="648" y="-56.5" font-family="Helvetica,sans-Serif" font-size="10.00">&lt; double &gt;</text>
</a>
</g>
</g>
<!-- Node18&#45;&gt;Node17 -->
<g id="edge16" class="edge"><title>Node18&#45;&gt;Node17</title>
<path fill="none" stroke="#9a32cd" stroke-dasharray="5,2" d="M718.043,-64.5C764.447,-64.5 825.694,-64.5 873.882,-64.5"/>
<polygon fill="#9a32cd" stroke="#9a32cd" points="717.781,-61.0001 707.781,-64.5 717.781,-68.0001 717.781,-61.0001"/>
<text text-anchor="middle" x="796.5" y="-78.5" font-family="Helvetica,sans-Serif" font-size="10.00"> promptw</text>
<text text-anchor="middle" x="796.5" y="-67.5" font-family="Helvetica,sans-Serif" font-size="10.00">randomw</text>
</g>
<!-- Node19&#45;&gt;Node18 -->
<g id="edge17" class="edge"><title>Node19&#45;&gt;Node18</title>
<path fill="none" stroke="midnightblue" d="M437.338,-64.5C483.25,-64.5 543.81,-64.5 588.034,-64.5"/>
<polygon fill="midnightblue" stroke="midnightblue" points="437.185,-61.0001 427.185,-64.5 437.185,-68.0001 437.185,-61.0001"/>
</g>
</g>
</svg>
