<?xml version="1.0" encoding="UTF-8" standalone="no"?>
<!DOCTYPE svg PUBLIC "-//W3C//DTD SVG 1.1//EN"
 "http://www.w3.org/Graphics/SVG/1.1/DTD/svg11.dtd">
<!-- Generated by graphviz version 2.38.0 (20140413.2041)
 -->
<!-- Title: ant::analysis::physics::MCTrueAcceptance Pages: 1 -->
<svg width="301pt" height="217pt"
 viewBox="0.00 0.00 300.50 217.00" xmlns="http://www.w3.org/2000/svg" xmlns:xlink="http://www.w3.org/1999/xlink">
<g id="graph0" class="graph" transform="scale(1 1) rotate(0) translate(4 213)">
<title>ant::analysis::physics::MCTrueAcceptance</title>
<polygon fill="white" stroke="none" points="-4,4 -4,-213 296.5,-213 296.5,4 -4,4"/>
<!-- Node2 -->
<g id="node1" class="node"><title>Node2</title>
<polygon fill="#bfbfbf" stroke="black" points="95.5,-0.5 95.5,-30.5 213.5,-30.5 213.5,-0.5 95.5,-0.5"/>
<text text-anchor="start" x="103.5" y="-18.5" font-family="Helvetica,sans-Serif" font-size="10.00">ant::analysis::physics</text>
<text text-anchor="middle" x="154.5" y="-7.5" font-family="Helvetica,sans-Serif" font-size="10.00">::MCTrueAcceptance</text>
</g>
<!-- Node3 -->
<g id="node2" class="node"><title>Node3</title>
<g id="a_node2"><a xlink:href="classant_1_1analysis_1_1_physics.html" target="_top" xlink:title="ant::analysis::Physics">
<polygon fill="white" stroke="black" points="11.5,-84 11.5,-103 129.5,-103 129.5,-84 11.5,-84"/>
<text text-anchor="middle" x="70.5" y="-91" font-family="Helvetica,sans-Serif" font-size="10.00">ant::analysis::Physics</text>
</a>
</g>
</g>
<!-- Node3&#45;&gt;Node2 -->
<g id="edge1" class="edge"><title>Node3&#45;&gt;Node2</title>
<path fill="none" stroke="midnightblue" d="M87.7378,-76.9039C102.803,-63.2736 124.479,-43.6615 139.004,-30.5198"/>
<polygon fill="midnightblue" stroke="midnightblue" points="85.203,-74.4773 80.1359,-83.7818 89.8995,-79.6681 85.203,-74.4773"/>
</g>
<!-- Node4 -->
<g id="node3" class="node"><title>Node4</title>
<g id="a_node3"><a xlink:href="classant_1_1analysis_1_1_histogram_factory.html" target="_top" xlink:title="ant::analysis::Histogram\lFactory">
<polygon fill="white" stroke="black" points="0,-178.5 0,-208.5 133,-208.5 133,-178.5 0,-178.5"/>
<text text-anchor="start" x="8" y="-196.5" font-family="Helvetica,sans-Serif" font-size="10.00">ant::analysis::Histogram</text>
<text text-anchor="middle" x="66.5" y="-185.5" font-family="Helvetica,sans-Serif" font-size="10.00">Factory</text>
</a>
</g>
</g>
<!-- Node4&#45;&gt;Node3 -->
<g id="edge2" class="edge"><title>Node4&#45;&gt;Node3</title>
<path fill="none" stroke="#9a32cd" stroke-dasharray="5,2" d="M67.4898,-168.251C68.3561,-147.027 69.5653,-117.4 70.1525,-103.013"/>
<polygon fill="#9a32cd" stroke="#9a32cd" points="63.9839,-168.325 67.0731,-178.459 70.9781,-168.61 63.9839,-168.325"/>
<text text-anchor="middle" x="88.5" y="-141" font-family="Helvetica,sans-Serif" font-size="10.00"> HistFac</text>
</g>
<!-- Node5 -->
<g id="node4" class="node"><title>Node5</title>
<g id="a_node4"><a xlink:href="classant_1_1analysis_1_1utils_1_1_a2_simple_geometry.html" target="_top" xlink:title="ant::analysis::utils\l::A2SimpleGeometry">
<polygon fill="white" stroke="black" points="154.5,-78.5 154.5,-108.5 270.5,-108.5 270.5,-78.5 154.5,-78.5"/>
<text text-anchor="start" x="162.5" y="-96.5" font-family="Helvetica,sans-Serif" font-size="10.00">ant::analysis::utils</text>
<text text-anchor="middle" x="212.5" y="-85.5" font-family="Helvetica,sans-Serif" font-size="10.00">::A2SimpleGeometry</text>
</a>
</g>
</g>
<!-- Node5&#45;&gt;Node2 -->
<g id="edge3" class="edge"><title>Node5&#45;&gt;Node2</title>
<path fill="none" stroke="#9a32cd" stroke-dasharray="5,2" d="M195.284,-69.9408C185.587,-57.2348 173.772,-41.7536 165.36,-30.7309"/>
<polygon fill="#9a32cd" stroke="#9a32cd" points="192.742,-72.3788 201.591,-78.205 198.306,-68.1321 192.742,-72.3788"/>
<text text-anchor="middle" x="198.5" y="-52" font-family="Helvetica,sans-Serif" font-size="10.00"> geo</text>
</g>
<!-- Node6 -->
<g id="node5" class="node"><title>Node6</title>
<g id="a_node5"><a xlink:href="classant_1_1interval.html" target="_top" xlink:title="ant::interval\&lt; double \&gt;">
<polygon fill="white" stroke="black" points="151.5,-184 151.5,-203 279.5,-203 279.5,-184 151.5,-184"/>
<text text-anchor="middle" x="215.5" y="-191" font-family="Helvetica,sans-Serif" font-size="10.00">ant::interval&lt; double &gt;</text>
</a>
</g>
</g>
<!-- Node6&#45;&gt;Node5 -->
<g id="edge4" class="edge"><title>Node6&#45;&gt;Node5</title>
<path fill="none" stroke="#9a32cd" stroke-dasharray="5,2" d="M214.924,-173.688C214.342,-154.688 213.457,-125.767 212.933,-108.637"/>
<polygon fill="#9a32cd" stroke="#9a32cd" points="211.429,-173.915 215.234,-183.803 218.426,-173.701 211.429,-173.915"/>
<text text-anchor="middle" x="253.5" y="-152" font-family="Helvetica,sans-Serif" font-size="10.00"> cb_phi_hem1</text>
<text text-anchor="middle" x="253.5" y="-141" font-family="Helvetica,sans-Serif" font-size="10.00">cb_theta_region</text>
<text text-anchor="middle" x="253.5" y="-130" font-family="Helvetica,sans-Serif" font-size="10.00">taps_region</text>
</g>
</g>
</svg>
