<?xml version="1.0" encoding="UTF-8" standalone="no"?>
<!DOCTYPE svg PUBLIC "-//W3C//DTD SVG 1.1//EN"
 "http://www.w3.org/Graphics/SVG/1.1/DTD/svg11.dtd">
<!-- Generated by graphviz version 2.38.0 (20140413.2041)
 -->
<!-- Title: ant::calibration::PID_Energy Pages: 1 -->
<svg width="1220pt" height="254pt"
 viewBox="0.00 0.00 1220.00 254.00" xmlns="http://www.w3.org/2000/svg" xmlns:xlink="http://www.w3.org/1999/xlink">
<g id="graph0" class="graph" transform="scale(1 1) rotate(0) translate(4 250)">
<title>ant::calibration::PID_Energy</title>
<polygon fill="white" stroke="none" points="-4,4 -4,-250 1216,-250 1216,4 -4,4"/>
<!-- Node9 -->
<g id="node1" class="node"><title>Node9</title>
<polygon fill="#bfbfbf" stroke="black" points="1102,-42.5 1102,-72.5 1212,-72.5 1212,-42.5 1102,-42.5"/>
<text text-anchor="start" x="1110" y="-60.5" font-family="Helvetica,sans-Serif" font-size="10.00">ant::calibration::PID</text>
<text text-anchor="middle" x="1157" y="-49.5" font-family="Helvetica,sans-Serif" font-size="10.00">_Energy</text>
</g>
<!-- Node10 -->
<g id="node2" class="node"><title>Node10</title>
<g id="a_node2"><a xlink:href="classant_1_1calibration_1_1_energy.html" target="_top" xlink:title="ant::calibration::Energy">
<polygon fill="white" stroke="black" points="938,-86 938,-105 1065,-105 1065,-86 938,-86"/>
<text text-anchor="middle" x="1001.5" y="-93" font-family="Helvetica,sans-Serif" font-size="10.00">ant::calibration::Energy</text>
</a>
</g>
</g>
<!-- Node10&#45;&gt;Node9 -->
<g id="edge1" class="edge"><title>Node10&#45;&gt;Node9</title>
<path fill="none" stroke="midnightblue" d="M1051.03,-83.4866C1067.21,-79.4805 1085.34,-74.9929 1101.92,-70.889"/>
<polygon fill="midnightblue" stroke="midnightblue" points="1050.1,-80.1104 1041.23,-85.911 1051.78,-86.9053 1050.1,-80.1104"/>
</g>
<!-- Node11 -->
<g id="node3" class="node"><title>Node11</title>
<g id="a_node3"><a xlink:href="classant_1_1_calibration_1_1_module.html" target="_top" xlink:title="The Module class is typically used for calibrations. ">
<polygon fill="white" stroke="black" points="643,-86 643,-105 773,-105 773,-86 643,-86"/>
<text text-anchor="middle" x="708" y="-93" font-family="Helvetica,sans-Serif" font-size="10.00">ant::Calibration::Module</text>
</a>
</g>
</g>
<!-- Node11&#45;&gt;Node10 -->
<g id="edge2" class="edge"><title>Node11&#45;&gt;Node10</title>
<path fill="none" stroke="midnightblue" d="M783.613,-95.5C831.364,-95.5 892.611,-95.5 937.834,-95.5"/>
<polygon fill="midnightblue" stroke="midnightblue" points="783.332,-92.0001 773.332,-95.5 783.332,-99.0001 783.332,-92.0001"/>
</g>
<!-- Node12 -->
<g id="node4" class="node"><title>Node12</title>
<g id="a_node4"><a xlink:href="classant_1_1_calibration_1_1_physics_module.html" target="_top" xlink:title="The PhysicsModule class gives the modules the ability to create histograms from events as well as fit...">
<polygon fill="white" stroke="black" points="413.5,-53.5 413.5,-83.5 544.5,-83.5 544.5,-53.5 413.5,-53.5"/>
<text text-anchor="start" x="421.5" y="-71.5" font-family="Helvetica,sans-Serif" font-size="10.00">ant::Calibration::Physics</text>
<text text-anchor="middle" x="479" y="-60.5" font-family="Helvetica,sans-Serif" font-size="10.00">Module</text>
</a>
</g>
</g>
<!-- Node12&#45;&gt;Node11 -->
<g id="edge3" class="edge"><title>Node12&#45;&gt;Node11</title>
<path fill="none" stroke="midnightblue" d="M555.047,-77.4263C583.499,-80.8104 615.607,-84.6295 642.954,-87.8822"/>
<polygon fill="midnightblue" stroke="midnightblue" points="555.089,-73.9067 544.745,-76.201 554.262,-80.8577 555.089,-73.9067"/>
</g>
<!-- Node13 -->
<g id="node5" class="node"><title>Node13</title>
<g id="a_node5"><a xlink:href="classant_1_1_calibration_1_1_base_module.html" target="_top" xlink:title="The BaseModule class provides a name for identification. ">
<polygon fill="white" stroke="black" points="140,-59 140,-78 294,-78 294,-59 140,-59"/>
<text text-anchor="middle" x="217" y="-66" font-family="Helvetica,sans-Serif" font-size="10.00">ant::Calibration::BaseModule</text>
</a>
</g>
</g>
<!-- Node13&#45;&gt;Node12 -->
<g id="edge4" class="edge"><title>Node13&#45;&gt;Node12</title>
<path fill="none" stroke="midnightblue" d="M304.595,-68.5C340.043,-68.5 380.355,-68.5 413.185,-68.5"/>
<polygon fill="midnightblue" stroke="midnightblue" points="304.252,-65.0001 294.252,-68.5 304.252,-72.0001 304.252,-65.0001"/>
</g>
<!-- Node14 -->
<g id="node6" class="node"><title>Node14</title>
<g id="a_node6"><a xlink:href="structant_1_1_updateable__traits.html" target="_top" xlink:title="The Updateable_traits class used by the UpdateableManager. ">
<polygon fill="white" stroke="black" points="417,-103 417,-122 541,-122 541,-103 417,-103"/>
<text text-anchor="middle" x="479" y="-110" font-family="Helvetica,sans-Serif" font-size="10.00">ant::Updateable_traits</text>
</a>
</g>
</g>
<!-- Node14&#45;&gt;Node11 -->
<g id="edge5" class="edge"><title>Node14&#45;&gt;Node11</title>
<path fill="none" stroke="midnightblue" d="M551.317,-107.159C580.677,-104.96 614.429,-102.433 642.984,-100.294"/>
<polygon fill="midnightblue" stroke="midnightblue" points="550.841,-103.685 541.13,-107.922 551.364,-110.665 550.841,-103.685"/>
</g>
<!-- Node15 -->
<g id="node7" class="node"><title>Node15</title>
<g id="a_node7"><a xlink:href="structant_1_1_reconstruct_hook_1_1_detector_read_hits.html" target="_top" xlink:title="The DetectorReadHits struct instances are applied before hit matching. ">
<polygon fill="white" stroke="black" points="648.5,-36.5 648.5,-66.5 767.5,-66.5 767.5,-36.5 648.5,-36.5"/>
<text text-anchor="start" x="656.5" y="-54.5" font-family="Helvetica,sans-Serif" font-size="10.00">ant::ReconstructHook</text>
<text text-anchor="middle" x="708" y="-43.5" font-family="Helvetica,sans-Serif" font-size="10.00">::DetectorReadHits</text>
</a>
</g>
</g>
<!-- Node15&#45;&gt;Node10 -->
<g id="edge6" class="edge"><title>Node15&#45;&gt;Node10</title>
<path fill="none" stroke="midnightblue" d="M777.742,-61.8762C826.285,-69.2034 890.815,-78.9437 937.922,-86.0542"/>
<polygon fill="midnightblue" stroke="midnightblue" points="778.049,-58.3829 767.639,-60.3511 777.004,-65.3045 778.049,-58.3829"/>
</g>
<!-- Node16 -->
<g id="node8" class="node"><title>Node16</title>
<g id="a_node8"><a xlink:href="structant_1_1_reconstruct_hook_1_1_base.html" target="_top" xlink:title="The Base struct just defines some useful types. ">
<polygon fill="white" stroke="black" points="419.5,-0.5 419.5,-30.5 538.5,-30.5 538.5,-0.5 419.5,-0.5"/>
<text text-anchor="start" x="427.5" y="-18.5" font-family="Helvetica,sans-Serif" font-size="10.00">ant::ReconstructHook</text>
<text text-anchor="middle" x="479" y="-7.5" font-family="Helvetica,sans-Serif" font-size="10.00">::Base</text>
</a>
</g>
</g>
<!-- Node16&#45;&gt;Node15 -->
<g id="edge7" class="edge"><title>Node16&#45;&gt;Node15</title>
<path fill="none" stroke="midnightblue" d="M548.872,-26.4224C580.687,-31.4679 618.066,-37.396 648.493,-42.2213"/>
<polygon fill="midnightblue" stroke="midnightblue" points="549.178,-22.9273 538.753,-24.8177 548.082,-29.8409 549.178,-22.9273"/>
</g>
<!-- Node22 -->
<g id="node14" class="node"><title>Node22</title>
<g id="a_node14"><a xlink:href="structant_1_1_reconstruct_hook_1_1_event_data.html" target="_top" xlink:title="The EventData struct instances are applied after candidate building. ">
<polygon fill="white" stroke="black" points="801,-0.5 801,-30.5 920,-30.5 920,-0.5 801,-0.5"/>
<text text-anchor="start" x="809" y="-18.5" font-family="Helvetica,sans-Serif" font-size="10.00">ant::ReconstructHook</text>
<text text-anchor="middle" x="860.5" y="-7.5" font-family="Helvetica,sans-Serif" font-size="10.00">::EventData</text>
</a>
</g>
</g>
<!-- Node16&#45;&gt;Node22 -->
<g id="edge15" class="edge"><title>Node16&#45;&gt;Node22</title>
<path fill="none" stroke="midnightblue" d="M549.215,-15.5C621.272,-15.5 732.905,-15.5 800.794,-15.5"/>
<polygon fill="midnightblue" stroke="midnightblue" points="548.881,-12.0001 538.88,-15.5 548.88,-19.0001 548.881,-12.0001"/>
</g>
<!-- Node17 -->
<g id="node9" class="node"><title>Node17</title>
<g id="a_node9"><a xlink:href="structant_1_1calibration_1_1_calib_type.html" target="_top" xlink:title="The CalibType struct stores the data for the Updateable interface and for the GUI. ">
<polygon fill="white" stroke="black" points="410,-151 410,-170 548,-170 548,-151 410,-151"/>
<text text-anchor="middle" x="479" y="-158" font-family="Helvetica,sans-Serif" font-size="10.00">ant::calibration::CalibType</text>
</a>
</g>
</g>
<!-- Node17&#45;&gt;Node10 -->
<g id="edge8" class="edge"><title>Node17&#45;&gt;Node10</title>
<path fill="none" stroke="#9a32cd" stroke-dasharray="5,2" d="M558.56,-152.754C646.713,-143.746 793.899,-127.758 920,-109.5 929.125,-108.179 938.807,-106.626 948.173,-105.044"/>
<polygon fill="#9a32cd" stroke="#9a32cd" points="557.966,-149.296 548.371,-153.791 558.674,-156.26 557.966,-149.296"/>
<text text-anchor="middle" x="708" y="-191.5" font-family="Helvetica,sans-Serif" font-size="10.00"> Thresholds_Raw</text>
<text text-anchor="middle" x="708" y="-180.5" font-family="Helvetica,sans-Serif" font-size="10.00">RelativeGains</text>
<text text-anchor="middle" x="708" y="-169.5" font-family="Helvetica,sans-Serif" font-size="10.00">Pedestals</text>
<text text-anchor="middle" x="708" y="-158.5" font-family="Helvetica,sans-Serif" font-size="10.00">Thresholds_MeV</text>
<text text-anchor="middle" x="708" y="-147.5" font-family="Helvetica,sans-Serif" font-size="10.00">Gains</text>
</g>
<!-- Node21 -->
<g id="node13" class="node"><title>Node21</title>
<polygon fill="white" stroke="#bfbfbf" points="633,-215.5 633,-245.5 783,-245.5 783,-215.5 633,-215.5"/>
<text text-anchor="start" x="641" y="-233.5" font-family="Helvetica,sans-Serif" font-size="10.00">std::vector&lt; ant::calibration</text>
<text text-anchor="middle" x="708" y="-222.5" font-family="Helvetica,sans-Serif" font-size="10.00">::CalibType *&gt;</text>
</g>
<!-- Node17&#45;&gt;Node21 -->
<g id="edge13" class="edge"><title>Node17&#45;&gt;Node21</title>
<path fill="none" stroke="#9a32cd" stroke-dasharray="5,2" d="M520.921,-173.119C559.414,-184.989 617.092,-202.775 658.015,-215.395"/>
<polygon fill="#9a32cd" stroke="#9a32cd" points="521.675,-169.689 511.087,-170.086 519.612,-176.378 521.675,-169.689"/>
<text text-anchor="middle" x="590.5" y="-204.5" font-family="Helvetica,sans-Serif" font-size="10.00"> elements</text>
</g>
<!-- Node18 -->
<g id="node10" class="node"><title>Node18</title>
<g id="a_node10"><a xlink:title="STL class. ">
<polygon fill="white" stroke="#bfbfbf" points="184.5,-119 184.5,-138 249.5,-138 249.5,-119 184.5,-119"/>
<text text-anchor="middle" x="217" y="-126" font-family="Helvetica,sans-Serif" font-size="10.00">std::string</text>
</a>
</g>
</g>
<!-- Node18&#45;&gt;Node17 -->
<g id="edge9" class="edge"><title>Node18&#45;&gt;Node17</title>
<path fill="none" stroke="#9a32cd" stroke-dasharray="5,2" d="M260.038,-129.085C295.417,-130.072 347.256,-132.677 392,-139.5 409.625,-142.187 428.935,-146.751 444.784,-150.939"/>
<polygon fill="#9a32cd" stroke="#9a32cd" points="259.695,-125.576 249.612,-128.828 259.523,-132.573 259.695,-125.576"/>
<text text-anchor="middle" x="352" y="-153.5" font-family="Helvetica,sans-Serif" font-size="10.00"> Name</text>
<text text-anchor="middle" x="352" y="-142.5" font-family="Helvetica,sans-Serif" font-size="10.00">HistogramName</text>
</g>
<!-- Node19 -->
<g id="node11" class="node"><title>Node19</title>
<g id="a_node11"><a xlink:title="STL class. ">
<polygon fill="white" stroke="#bfbfbf" points="0,-113.5 0,-143.5 103,-143.5 103,-113.5 0,-113.5"/>
<text text-anchor="start" x="8" y="-131.5" font-family="Helvetica,sans-Serif" font-size="10.00">std::basic_string&lt;</text>
<text text-anchor="middle" x="51.5" y="-120.5" font-family="Helvetica,sans-Serif" font-size="10.00"> char &gt;</text>
</a>
</g>
</g>
<!-- Node19&#45;&gt;Node18 -->
<g id="edge10" class="edge"><title>Node19&#45;&gt;Node18</title>
<path fill="none" stroke="midnightblue" d="M113.46,-128.5C137.511,-128.5 164.134,-128.5 184.224,-128.5"/>
<polygon fill="midnightblue" stroke="midnightblue" points="113.336,-125 103.336,-128.5 113.336,-132 113.336,-125"/>
</g>
<!-- Node20 -->
<g id="node12" class="node"><title>Node20</title>
<polygon fill="white" stroke="#bfbfbf" points="156,-164 156,-183 278,-183 278,-164 156,-164"/>
<text text-anchor="middle" x="217" y="-171" font-family="Helvetica,sans-Serif" font-size="10.00">std::vector&lt; double &gt;</text>
</g>
<!-- Node20&#45;&gt;Node17 -->
<g id="edge11" class="edge"><title>Node20&#45;&gt;Node17</title>
<path fill="none" stroke="#9a32cd" stroke-dasharray="5,2" d="M288.689,-169.966C326.357,-168.082 372.483,-165.776 409.773,-163.911"/>
<polygon fill="#9a32cd" stroke="#9a32cd" points="288.115,-166.49 278.303,-170.485 288.465,-173.481 288.115,-166.49"/>
<text text-anchor="middle" x="352" y="-172.5" font-family="Helvetica,sans-Serif" font-size="10.00"> Values</text>
</g>
<!-- Node21&#45;&gt;Node10 -->
<g id="edge12" class="edge"><title>Node21&#45;&gt;Node10</title>
<path fill="none" stroke="#9a32cd" stroke-dasharray="5,2" d="M775.29,-212.522C817.968,-199.613 873.881,-180.16 920,-155.5 947.053,-141.035 974.957,-118.1 989.755,-105.178"/>
<polygon fill="#9a32cd" stroke="#9a32cd" points="774.152,-209.209 765.568,-215.419 776.151,-215.917 774.152,-209.209"/>
<text text-anchor="middle" x="860.5" y="-206.5" font-family="Helvetica,sans-Serif" font-size="10.00"> AllCalibrations</text>
</g>
<!-- Node22&#45;&gt;Node9 -->
<g id="edge14" class="edge"><title>Node22&#45;&gt;Node9</title>
<path fill="none" stroke="midnightblue" d="M930.216,-25.2999C982.418,-32.7446 1053.23,-42.8441 1101.55,-49.7347"/>
<polygon fill="midnightblue" stroke="midnightblue" points="930.43,-21.7951 920.036,-23.8481 929.441,-28.7249 930.43,-21.7951"/>
</g>
</g>
</svg>
