<?xml version="1.0" encoding="UTF-8" standalone="no"?>
<!DOCTYPE svg PUBLIC "-//W3C//DTD SVG 1.1//EN"
 "http://www.w3.org/Graphics/SVG/1.1/DTD/svg11.dtd">
<!-- Generated by graphviz version 2.38.0 (20140413.2041)
 -->
<!-- Title: ant::TBinGraphCanvas Pages: 1 -->
<svg width="180pt" height="85pt"
 viewBox="0.00 0.00 180.00 85.00" xmlns="http://www.w3.org/2000/svg" xmlns:xlink="http://www.w3.org/1999/xlink">
<g id="graph0" class="graph" transform="scale(1 1) rotate(0) translate(4 81)">
<title>ant::TBinGraphCanvas</title>
<polygon fill="white" stroke="none" points="-4,4 -4,-81 176,-81 176,4 -4,4"/>
<!-- Node2 -->
<g id="node1" class="node"><title>Node2</title>
<polygon fill="#bfbfbf" stroke="black" points="0,-0.5 0,-19.5 123,-19.5 123,-0.5 0,-0.5"/>
<text text-anchor="middle" x="61.5" y="-7.5" font-family="Helvetica,sans-Serif" font-size="10.00">ant::TBinGraphCanvas</text>
</g>
<!-- Node2&#45;&gt;Node2 -->
<g id="edge2" class="edge"><title>Node2&#45;&gt;Node2</title>
<path fill="none" stroke="#9a32cd" stroke-dasharray="5,2" d="M133.439,-13.7409C138.149,-12.8705 141,-11.6235 141,-10 141,-7.40234 133.701,-5.76866 123.167,-5.09895"/>
<polygon fill="#9a32cd" stroke="#9a32cd" points="132.711,-10.3008 123.167,-14.901 133.496,-17.2566 132.711,-10.3008"/>
<text text-anchor="middle" x="156.5" y="-7.5" font-family="Helvetica,sans-Serif" font-size="10.00"> graph</text>
</g>
<!-- Node3 -->
<g id="node2" class="node"><title>Node3</title>
<polygon fill="white" stroke="#bfbfbf" points="33.5,-57.5 33.5,-76.5 89.5,-76.5 89.5,-57.5 33.5,-57.5"/>
<text text-anchor="middle" x="61.5" y="-64.5" font-family="Helvetica,sans-Serif" font-size="10.00">TCanvas</text>
</g>
<!-- Node3&#45;&gt;Node2 -->
<g id="edge1" class="edge"><title>Node3&#45;&gt;Node2</title>
<path fill="none" stroke="midnightblue" d="M61.5,-47.1166C61.5,-37.8173 61.5,-27.0557 61.5,-19.7149"/>
<polygon fill="midnightblue" stroke="midnightblue" points="58.0001,-47.4062 61.5,-57.4062 65.0001,-47.4063 58.0001,-47.4062"/>
</g>
</g>
</svg>
