<?xml version="1.0" encoding="UTF-8" standalone="no"?>
<!DOCTYPE svg PUBLIC "-//W3C//DTD SVG 1.1//EN"
 "http://www.w3.org/Graphics/SVG/1.1/DTD/svg11.dtd">
<!-- Generated by graphviz version 2.38.0 (20140413.2041)
 -->
<!-- Title: ant::unpacker::acqu::FileFormatBase Pages: 1 -->
<svg width="1421pt" height="369pt"
 viewBox="0.00 0.00 1421.00 369.00" xmlns="http://www.w3.org/2000/svg" xmlns:xlink="http://www.w3.org/1999/xlink">
<g id="graph0" class="graph" transform="scale(1 1) rotate(0) translate(4 365)">
<title>ant::unpacker::acqu::FileFormatBase</title>
<polygon fill="white" stroke="none" points="-4,4 -4,-365 1417,-365 1417,4 -4,4"/>
<!-- Node4 -->
<g id="node1" class="node"><title>Node4</title>
<polygon fill="#bfbfbf" stroke="black" points="1301,-158 1301,-188 1413,-188 1413,-158 1301,-158"/>
<text text-anchor="start" x="1309" y="-176" font-family="Helvetica,sans-Serif" font-size="10.00">ant::unpacker::acqu</text>
<text text-anchor="middle" x="1357" y="-165" font-family="Helvetica,sans-Serif" font-size="10.00">::FileFormatBase</text>
</g>
<!-- Node5 -->
<g id="node2" class="node"><title>Node5</title>
<g id="a_node2"><a xlink:href="classant_1_1_unpacker_acqu_file_format.html" target="_top" xlink:title="ant::UnpackerAcquFileFormat">
<polygon fill="white" stroke="black" points="1020,-305.5 1020,-324.5 1178,-324.5 1178,-305.5 1020,-305.5"/>
<text text-anchor="middle" x="1099" y="-312.5" font-family="Helvetica,sans-Serif" font-size="10.00">ant::UnpackerAcquFileFormat</text>
</a>
</g>
</g>
<!-- Node5&#45;&gt;Node4 -->
<g id="edge1" class="edge"><title>Node5&#45;&gt;Node4</title>
<path fill="none" stroke="midnightblue" d="M1186.19,-303.323C1218.52,-296.006 1254.34,-284.156 1283,-265 1313,-244.946 1336.42,-208.643 1348.01,-188.147"/>
<polygon fill="midnightblue" stroke="midnightblue" points="1185.32,-299.929 1176.28,-305.451 1186.79,-306.773 1185.32,-299.929"/>
</g>
<!-- Node6 -->
<g id="node3" class="node"><title>Node6</title>
<polygon fill="white" stroke="#bfbfbf" points="1021,-256 1021,-286 1177,-286 1177,-256 1021,-256"/>
<text text-anchor="start" x="1029" y="-274" font-family="Helvetica,sans-Serif" font-size="10.00">std::vector&lt; ant::Unpacker</text>
<text text-anchor="middle" x="1099" y="-263" font-family="Helvetica,sans-Serif" font-size="10.00">AcquConfig::hit_mapping_t &gt;</text>
</g>
<!-- Node6&#45;&gt;Node4 -->
<g id="edge2" class="edge"><title>Node6&#45;&gt;Node4</title>
<path fill="none" stroke="#9a32cd" stroke-dasharray="5,2" d="M1182.81,-253.532C1214.86,-245.336 1251.37,-234.198 1283,-220 1302.11,-211.42 1321.99,-198.301 1336.17,-188.102"/>
<polygon fill="#9a32cd" stroke="#9a32cd" points="1181.87,-250.159 1173.01,-255.981 1183.56,-256.95 1181.87,-250.159"/>
<text text-anchor="middle" x="1239.5" y="-253" font-family="Helvetica,sans-Serif" font-size="10.00"> hit_mappings</text>
</g>
<!-- Node7 -->
<g id="node4" class="node"><title>Node7</title>
<g id="a_node4"><a xlink:href="structant_1_1_unpacker_acqu_config_1_1hit__mapping__t.html" target="_top" xlink:title="ant::UnpackerAcquConfig\l::hit_mapping_t">
<polygon fill="white" stroke="black" points="793.5,-291 793.5,-321 931.5,-321 931.5,-291 793.5,-291"/>
<text text-anchor="start" x="801.5" y="-309" font-family="Helvetica,sans-Serif" font-size="10.00">ant::UnpackerAcquConfig</text>
<text text-anchor="middle" x="862.5" y="-298" font-family="Helvetica,sans-Serif" font-size="10.00">::hit_mapping_t</text>
</a>
</g>
</g>
<!-- Node7&#45;&gt;Node6 -->
<g id="edge3" class="edge"><title>Node7&#45;&gt;Node6</title>
<path fill="none" stroke="#9a32cd" stroke-dasharray="5,2" d="M941.608,-294.342C967.036,-290.547 995.238,-286.338 1020.61,-282.55"/>
<polygon fill="#9a32cd" stroke="#9a32cd" points="941.016,-290.892 931.642,-295.83 942.049,-297.815 941.016,-290.892"/>
<text text-anchor="middle" x="977.5" y="-295" font-family="Helvetica,sans-Serif" font-size="10.00"> elements</text>
</g>
<!-- Node8 -->
<g id="node5" class="node"><title>Node8</title>
<g id="a_node5"><a xlink:href="structant_1_1_logical_channel__t.html" target="_top" xlink:title="The LogicalChannel_t struct uniquely identifies detector element within setup. ">
<polygon fill="white" stroke="black" points="542.5,-341.5 542.5,-360.5 661.5,-360.5 661.5,-341.5 542.5,-341.5"/>
<text text-anchor="middle" x="602" y="-348.5" font-family="Helvetica,sans-Serif" font-size="10.00">ant::LogicalChannel_t</text>
</a>
</g>
</g>
<!-- Node8&#45;&gt;Node7 -->
<g id="edge4" class="edge"><title>Node8&#45;&gt;Node7</title>
<path fill="none" stroke="#9a32cd" stroke-dasharray="5,2" d="M667.83,-339.714C706.124,-333.048 754.553,-324.618 793.403,-317.854"/>
<polygon fill="#9a32cd" stroke="#9a32cd" points="667.073,-336.293 657.821,-341.457 668.273,-343.19 667.073,-336.293"/>
<text text-anchor="middle" x="734" y="-337" font-family="Helvetica,sans-Serif" font-size="10.00"> LogicalChannel</text>
</g>
<!-- Node9 -->
<g id="node6" class="node"><title>Node9</title>
<polygon fill="white" stroke="#bfbfbf" points="529,-281.5 529,-322.5 675,-322.5 675,-281.5 529,-281.5"/>
<text text-anchor="start" x="537" y="-310.5" font-family="Helvetica,sans-Serif" font-size="10.00">std::vector&lt; ant::Unpacker</text>
<text text-anchor="start" x="537" y="-299.5" font-family="Helvetica,sans-Serif" font-size="10.00">AcquConfig::RawChannel</text>
<text text-anchor="middle" x="602" y="-288.5" font-family="Helvetica,sans-Serif" font-size="10.00">_t&lt; std::uint16_t &gt; &gt;</text>
</g>
<!-- Node9&#45;&gt;Node7 -->
<g id="edge5" class="edge"><title>Node9&#45;&gt;Node7</title>
<path fill="none" stroke="#9a32cd" stroke-dasharray="5,2" d="M685.171,-303.272C720.058,-303.811 760.244,-304.433 793.434,-304.947"/>
<polygon fill="#9a32cd" stroke="#9a32cd" points="685.06,-299.769 675.007,-303.114 684.951,-306.769 685.06,-299.769"/>
<text text-anchor="middle" x="734" y="-308" font-family="Helvetica,sans-Serif" font-size="10.00"> RawChannels</text>
</g>
<!-- Node10 -->
<g id="node7" class="node"><title>Node10</title>
<g id="a_node7"><a xlink:href="structant_1_1_unpacker_acqu_config_1_1_raw_channel__t.html" target="_top" xlink:title="ant::UnpackerAcquConfig\l::RawChannel_t\&lt; std::uint16_t \&gt;">
<polygon fill="white" stroke="black" points="269,-287 269,-317 441,-317 441,-287 269,-287"/>
<text text-anchor="start" x="277" y="-305" font-family="Helvetica,sans-Serif" font-size="10.00">ant::UnpackerAcquConfig</text>
<text text-anchor="middle" x="355" y="-294" font-family="Helvetica,sans-Serif" font-size="10.00">::RawChannel_t&lt; std::uint16_t &gt;</text>
</a>
</g>
</g>
<!-- Node10&#45;&gt;Node9 -->
<g id="edge6" class="edge"><title>Node10&#45;&gt;Node9</title>
<path fill="none" stroke="#9a32cd" stroke-dasharray="5,2" d="M451.172,-302C476.967,-302 504.465,-302 528.769,-302"/>
<polygon fill="#9a32cd" stroke="#9a32cd" points="451.002,-298.5 441.002,-302 451.001,-305.5 451.002,-298.5"/>
<text text-anchor="middle" x="483.5" y="-305" font-family="Helvetica,sans-Serif" font-size="10.00"> elements</text>
</g>
<!-- Node11 -->
<g id="node8" class="node"><title>Node11</title>
<polygon fill="white" stroke="#bfbfbf" points="1024.5,-158 1024.5,-188 1173.5,-188 1173.5,-158 1024.5,-158"/>
<text text-anchor="start" x="1032.5" y="-176" font-family="Helvetica,sans-Serif" font-size="10.00">std::vector&lt; UnpackerAcqu</text>
<text text-anchor="middle" x="1099" y="-165" font-family="Helvetica,sans-Serif" font-size="10.00">Config::scaler_mapping_t &gt;</text>
</g>
<!-- Node11&#45;&gt;Node4 -->
<g id="edge7" class="edge"><title>Node11&#45;&gt;Node4</title>
<path fill="none" stroke="#9a32cd" stroke-dasharray="5,2" d="M1183.83,-173C1222.19,-173 1266.58,-173 1300.68,-173"/>
<polygon fill="#9a32cd" stroke="#9a32cd" points="1183.7,-169.5 1173.7,-173 1183.7,-176.5 1183.7,-169.5"/>
<text text-anchor="middle" x="1239.5" y="-176" font-family="Helvetica,sans-Serif" font-size="10.00"> scaler_mappings</text>
</g>
<!-- Node12 -->
<g id="node9" class="node"><title>Node12</title>
<g id="a_node9"><a xlink:href="structant_1_1_unpacker_acqu_config_1_1scaler__mapping__t.html" target="_top" xlink:title="ant::UnpackerAcquConfig\l::scaler_mapping_t">
<polygon fill="white" stroke="black" points="793.5,-132 793.5,-162 931.5,-162 931.5,-132 793.5,-132"/>
<text text-anchor="start" x="801.5" y="-150" font-family="Helvetica,sans-Serif" font-size="10.00">ant::UnpackerAcquConfig</text>
<text text-anchor="middle" x="862.5" y="-139" font-family="Helvetica,sans-Serif" font-size="10.00">::scaler_mapping_t</text>
</a>
</g>
</g>
<!-- Node12&#45;&gt;Node11 -->
<g id="edge8" class="edge"><title>Node12&#45;&gt;Node11</title>
<path fill="none" stroke="#9a32cd" stroke-dasharray="5,2" d="M941.699,-155.67C968.362,-158.626 998.066,-161.92 1024.36,-164.835"/>
<polygon fill="#9a32cd" stroke="#9a32cd" points="941.967,-152.179 931.642,-154.555 941.195,-159.136 941.967,-152.179"/>
<text text-anchor="middle" x="977.5" y="-166" font-family="Helvetica,sans-Serif" font-size="10.00"> elements</text>
</g>
<!-- Node13 -->
<g id="node10" class="node"><title>Node13</title>
<g id="a_node10"><a xlink:title="STL class. ">
<polygon fill="white" stroke="#bfbfbf" points="322.5,-191.5 322.5,-210.5 387.5,-210.5 387.5,-191.5 322.5,-191.5"/>
<text text-anchor="middle" x="355" y="-198.5" font-family="Helvetica,sans-Serif" font-size="10.00">std::string</text>
</a>
</g>
</g>
<!-- Node13&#45;&gt;Node12 -->
<g id="edge9" class="edge"><title>Node13&#45;&gt;Node12</title>
<path fill="none" stroke="#9a32cd" stroke-dasharray="5,2" d="M396.916,-188.717C431.081,-179.047 481.249,-166.201 526,-160 617.949,-147.259 725.329,-145.339 793.361,-145.707"/>
<polygon fill="#9a32cd" stroke="#9a32cd" points="395.935,-185.357 387.287,-191.478 397.865,-192.086 395.935,-185.357"/>
<text text-anchor="middle" x="602" y="-163" font-family="Helvetica,sans-Serif" font-size="10.00"> SlowControlName</text>
</g>
<!-- Node21 -->
<g id="node18" class="node"><title>Node21</title>
<g id="a_node18"><a xlink:href="structant_1_1unpacker_1_1acqu_1_1_file_format_base_1_1_info.html" target="_top" xlink:title="ant::unpacker::acqu\l::FileFormatBase::Info">
<polygon fill="white" stroke="black" points="1039.5,-207 1039.5,-237 1158.5,-237 1158.5,-207 1039.5,-207"/>
<text text-anchor="start" x="1047.5" y="-225" font-family="Helvetica,sans-Serif" font-size="10.00">ant::unpacker::acqu</text>
<text text-anchor="middle" x="1099" y="-214" font-family="Helvetica,sans-Serif" font-size="10.00">::FileFormatBase::Info</text>
</a>
</g>
</g>
<!-- Node13&#45;&gt;Node21 -->
<g id="edge21" class="edge"><title>Node13&#45;&gt;Node21</title>
<path fill="none" stroke="#9a32cd" stroke-dasharray="5,2" d="M397.843,-210.489C432.089,-217.745 481.898,-227.138 526,-231 712.995,-247.373 935.654,-234.665 1039.39,-226.891"/>
<polygon fill="#9a32cd" stroke="#9a32cd" points="398.251,-206.996 387.738,-208.314 396.778,-213.84 398.251,-206.996"/>
<text text-anchor="middle" x="734" y="-264" font-family="Helvetica,sans-Serif" font-size="10.00"> Description</text>
<text text-anchor="middle" x="734" y="-253" font-family="Helvetica,sans-Serif" font-size="10.00">OutFile</text>
<text text-anchor="middle" x="734" y="-242" font-family="Helvetica,sans-Serif" font-size="10.00">RunNote</text>
</g>
<!-- Node23 -->
<g id="node20" class="node"><title>Node23</title>
<g id="a_node20"><a xlink:href="structant_1_1unpacker_1_1acqu_1_1_file_format_base_1_1_info_1_1_hardware_module.html" target="_top" xlink:title="ant::unpacker::acqu\l::FileFormatBase::Info\l::HardwareModule">
<polygon fill="white" stroke="black" points="542.5,-180.5 542.5,-221.5 661.5,-221.5 661.5,-180.5 542.5,-180.5"/>
<text text-anchor="start" x="550.5" y="-209.5" font-family="Helvetica,sans-Serif" font-size="10.00">ant::unpacker::acqu</text>
<text text-anchor="start" x="550.5" y="-198.5" font-family="Helvetica,sans-Serif" font-size="10.00">::FileFormatBase::Info</text>
<text text-anchor="middle" x="602" y="-187.5" font-family="Helvetica,sans-Serif" font-size="10.00">::HardwareModule</text>
</a>
</g>
</g>
<!-- Node13&#45;&gt;Node23 -->
<g id="edge20" class="edge"><title>Node13&#45;&gt;Node23</title>
<path fill="none" stroke="#9a32cd" stroke-dasharray="5,2" d="M397.677,-201C437.467,-201 497.802,-201 542.421,-201"/>
<polygon fill="#9a32cd" stroke="#9a32cd" points="397.528,-197.5 387.528,-201 397.528,-204.5 397.528,-197.5"/>
<text text-anchor="middle" x="483.5" y="-204" font-family="Helvetica,sans-Serif" font-size="10.00"> Identifier</text>
</g>
<!-- Node14 -->
<g id="node11" class="node"><title>Node14</title>
<g id="a_node11"><a xlink:title="STL class. ">
<polygon fill="white" stroke="#bfbfbf" points="34.5,-186 34.5,-216 137.5,-216 137.5,-186 34.5,-186"/>
<text text-anchor="start" x="42.5" y="-204" font-family="Helvetica,sans-Serif" font-size="10.00">std::basic_string&lt;</text>
<text text-anchor="middle" x="86" y="-193" font-family="Helvetica,sans-Serif" font-size="10.00"> char &gt;</text>
</a>
</g>
</g>
<!-- Node14&#45;&gt;Node13 -->
<g id="edge10" class="edge"><title>Node14&#45;&gt;Node13</title>
<path fill="none" stroke="midnightblue" d="M147.74,-201C202.098,-201 279.629,-201 322.484,-201"/>
<polygon fill="midnightblue" stroke="midnightblue" points="147.535,-197.5 137.535,-201 147.535,-204.5 147.535,-197.5"/>
</g>
<!-- Node15 -->
<g id="node12" class="node"><title>Node15</title>
<polygon fill="white" stroke="#bfbfbf" points="526,-73.5 526,-114.5 678,-114.5 678,-73.5 526,-73.5"/>
<text text-anchor="start" x="534" y="-102.5" font-family="Helvetica,sans-Serif" font-size="10.00">std::vector&lt; ant::Unpacker</text>
<text text-anchor="start" x="534" y="-91.5" font-family="Helvetica,sans-Serif" font-size="10.00">AcquConfig::scaler_mapping</text>
<text text-anchor="middle" x="602" y="-80.5" font-family="Helvetica,sans-Serif" font-size="10.00">_t::entry_t &gt;</text>
</g>
<!-- Node15&#45;&gt;Node12 -->
<g id="edge11" class="edge"><title>Node15&#45;&gt;Node12</title>
<path fill="none" stroke="#9a32cd" stroke-dasharray="5,2" d="M688.16,-109.38C715.032,-114.433 744.801,-120.237 772,-126 780.744,-127.853 789.945,-129.9 798.984,-131.967"/>
<polygon fill="#9a32cd" stroke="#9a32cd" points="688.488,-105.881 678.015,-107.482 687.201,-112.762 688.488,-105.881"/>
<text text-anchor="middle" x="734" y="-129" font-family="Helvetica,sans-Serif" font-size="10.00"> Entries</text>
</g>
<!-- Node16 -->
<g id="node13" class="node"><title>Node16</title>
<g id="a_node13"><a xlink:href="structant_1_1_unpacker_acqu_config_1_1scaler__mapping__t_1_1entry__t.html" target="_top" xlink:title="ant::UnpackerAcquConfig\l::scaler_mapping_t::entry_t">
<polygon fill="white" stroke="black" points="281.5,-79 281.5,-109 428.5,-109 428.5,-79 281.5,-79"/>
<text text-anchor="start" x="289.5" y="-97" font-family="Helvetica,sans-Serif" font-size="10.00">ant::UnpackerAcquConfig</text>
<text text-anchor="middle" x="355" y="-86" font-family="Helvetica,sans-Serif" font-size="10.00">::scaler_mapping_t::entry_t</text>
</a>
</g>
</g>
<!-- Node16&#45;&gt;Node15 -->
<g id="edge12" class="edge"><title>Node16&#45;&gt;Node15</title>
<path fill="none" stroke="#9a32cd" stroke-dasharray="5,2" d="M438.728,-94C466.874,-94 498.163,-94 525.696,-94"/>
<polygon fill="#9a32cd" stroke="#9a32cd" points="438.514,-90.5001 428.514,-94 438.514,-97.5001 438.514,-90.5001"/>
<text text-anchor="middle" x="483.5" y="-97" font-family="Helvetica,sans-Serif" font-size="10.00"> elements</text>
</g>
<!-- Node17 -->
<g id="node14" class="node"><title>Node17</title>
<g id="a_node14"><a xlink:href="structant_1_1_unpacker_acqu_config_1_1_raw_channel__t.html" target="_top" xlink:title="ant::UnpackerAcquConfig\l::RawChannel_t\&lt; std::uint32_t \&gt;">
<polygon fill="white" stroke="black" points="0,-79 0,-109 172,-109 172,-79 0,-79"/>
<text text-anchor="start" x="8" y="-97" font-family="Helvetica,sans-Serif" font-size="10.00">ant::UnpackerAcquConfig</text>
<text text-anchor="middle" x="86" y="-86" font-family="Helvetica,sans-Serif" font-size="10.00">::RawChannel_t&lt; std::uint32_t &gt;</text>
</a>
</g>
</g>
<!-- Node17&#45;&gt;Node16 -->
<g id="edge13" class="edge"><title>Node17&#45;&gt;Node16</title>
<path fill="none" stroke="#9a32cd" stroke-dasharray="5,2" d="M182.635,-94C215.115,-94 250.855,-94 281.253,-94"/>
<polygon fill="#9a32cd" stroke="#9a32cd" points="182.215,-90.5001 172.215,-94 182.215,-97.5001 182.215,-90.5001"/>
<text text-anchor="middle" x="220.5" y="-97" font-family="Helvetica,sans-Serif" font-size="10.00"> RawChannel</text>
</g>
<!-- Node18 -->
<g id="node15" class="node"><title>Node18</title>
<g id="a_node15"><a xlink:href="structant_1_1std__ext_1_1mapped__vectors.html" target="_top" xlink:title="ant::std_ext::mapped\l_vectors\&lt; std::uint16\l_t, std::uint16_t \&gt;">
<polygon fill="white" stroke="black" points="1039.5,-98.5 1039.5,-139.5 1158.5,-139.5 1158.5,-98.5 1039.5,-98.5"/>
<text text-anchor="start" x="1047.5" y="-127.5" font-family="Helvetica,sans-Serif" font-size="10.00">ant::std_ext::mapped</text>
<text text-anchor="start" x="1047.5" y="-116.5" font-family="Helvetica,sans-Serif" font-size="10.00">_vectors&lt; std::uint16</text>
<text text-anchor="middle" x="1099" y="-105.5" font-family="Helvetica,sans-Serif" font-size="10.00">_t, std::uint16_t &gt;</text>
</a>
</g>
</g>
<!-- Node18&#45;&gt;Node4 -->
<g id="edge14" class="edge"><title>Node18&#45;&gt;Node4</title>
<path fill="none" stroke="#9a32cd" stroke-dasharray="5,2" d="M1168.72,-133.496C1210.04,-142.212 1261.93,-153.158 1300.61,-161.316"/>
<polygon fill="#9a32cd" stroke="#9a32cd" points="1169.24,-130.028 1158.73,-131.389 1167.79,-136.877 1169.24,-130.028"/>
<text text-anchor="middle" x="1239.5" y="-161" font-family="Helvetica,sans-Serif" font-size="10.00"> hit_storage</text>
</g>
<!-- Node19 -->
<g id="node16" class="node"><title>Node19</title>
<g id="a_node16"><a xlink:href="structant_1_1_t_i_d.html" target="_top" xlink:title="ant::TID">
<polygon fill="white" stroke="black" points="1072.5,-60.5 1072.5,-79.5 1125.5,-79.5 1125.5,-60.5 1072.5,-60.5"/>
<text text-anchor="middle" x="1099" y="-67.5" font-family="Helvetica,sans-Serif" font-size="10.00">ant::TID</text>
</a>
</g>
</g>
<!-- Node19&#45;&gt;Node4 -->
<g id="edge15" class="edge"><title>Node19&#45;&gt;Node4</title>
<path fill="none" stroke="#9a32cd" stroke-dasharray="5,2" d="M1135.57,-77.05C1173.42,-85.3711 1234.4,-101.165 1283,-125 1301.93,-134.284 1321.82,-147.637 1336.06,-157.904"/>
<polygon fill="#9a32cd" stroke="#9a32cd" points="1136.05,-73.5737 1125.54,-74.9007 1134.59,-80.4183 1136.05,-73.5737"/>
<text text-anchor="middle" x="1239.5" y="-128" font-family="Helvetica,sans-Serif" font-size="10.00"> id</text>
</g>
<!-- Node20 -->
<g id="node17" class="node"><title>Node20</title>
<polygon fill="white" stroke="#bfbfbf" points="1020.5,-0.5 1020.5,-41.5 1177.5,-41.5 1177.5,-0.5 1020.5,-0.5"/>
<text text-anchor="start" x="1028.5" y="-29.5" font-family="Helvetica,sans-Serif" font-size="10.00">std::vector&lt; std::vector</text>
<text text-anchor="start" x="1028.5" y="-18.5" font-family="Helvetica,sans-Serif" font-size="10.00">&lt; const UnpackerAcquConfig</text>
<text text-anchor="middle" x="1099" y="-7.5" font-family="Helvetica,sans-Serif" font-size="10.00">::hit_mapping_t *&gt; &gt;</text>
</g>
<!-- Node20&#45;&gt;Node4 -->
<g id="edge16" class="edge"><title>Node20&#45;&gt;Node4</title>
<path fill="none" stroke="#9a32cd" stroke-dasharray="5,2" d="M1187.5,-37.274C1219.5,-46.0678 1254.75,-59.3113 1283,-79 1313.17,-100.031 1336.68,-137.261 1348.2,-157.996"/>
<polygon fill="#9a32cd" stroke="#9a32cd" points="1188.24,-33.851 1177.68,-34.6855 1186.46,-40.6197 1188.24,-33.851"/>
<text text-anchor="middle" x="1239.5" y="-82" font-family="Helvetica,sans-Serif" font-size="10.00"> hit_mappings_ptr</text>
</g>
<!-- Node21&#45;&gt;Node4 -->
<g id="edge17" class="edge"><title>Node21&#45;&gt;Node4</title>
<path fill="none" stroke="#9a32cd" stroke-dasharray="5,2" d="M1168.51,-209.589C1202.9,-203.279 1245.19,-195.397 1283,-188 1288.71,-186.882 1294.67,-185.694 1300.62,-184.494"/>
<polygon fill="#9a32cd" stroke="#9a32cd" points="1167.77,-206.166 1158.57,-211.41 1169.04,-213.051 1167.77,-206.166"/>
<text text-anchor="middle" x="1239.5" y="-208" font-family="Helvetica,sans-Serif" font-size="10.00"> info</text>
</g>
<!-- Node22 -->
<g id="node19" class="node"><title>Node22</title>
<polygon fill="white" stroke="#bfbfbf" points="790,-180.5 790,-221.5 935,-221.5 935,-180.5 790,-180.5"/>
<text text-anchor="start" x="798" y="-209.5" font-family="Helvetica,sans-Serif" font-size="10.00">std::vector&lt; ant::unpacker</text>
<text text-anchor="start" x="798" y="-198.5" font-family="Helvetica,sans-Serif" font-size="10.00">::acqu::FileFormatBase::</text>
<text text-anchor="middle" x="862.5" y="-187.5" font-family="Helvetica,sans-Serif" font-size="10.00">Info::HardwareModule &gt;</text>
</g>
<!-- Node22&#45;&gt;Node21 -->
<g id="edge18" class="edge"><title>Node22&#45;&gt;Node21</title>
<path fill="none" stroke="#9a32cd" stroke-dasharray="5,2" d="M945.477,-208.341C976.43,-211.113 1011,-214.209 1039.39,-216.752"/>
<polygon fill="#9a32cd" stroke="#9a32cd" points="945.404,-204.821 935.132,-207.415 944.78,-211.793 945.404,-204.821"/>
<text text-anchor="middle" x="977.5" y="-217" font-family="Helvetica,sans-Serif" font-size="10.00"> Modules</text>
</g>
<!-- Node23&#45;&gt;Node22 -->
<g id="edge19" class="edge"><title>Node23&#45;&gt;Node22</title>
<path fill="none" stroke="#9a32cd" stroke-dasharray="5,2" d="M671.697,-201C708.119,-201 752.829,-201 789.705,-201"/>
<polygon fill="#9a32cd" stroke="#9a32cd" points="671.658,-197.5 661.658,-201 671.658,-204.5 671.658,-197.5"/>
<text text-anchor="middle" x="734" y="-204" font-family="Helvetica,sans-Serif" font-size="10.00"> elements</text>
</g>
</g>
</svg>
