<?xml version="1.0" encoding="UTF-8" standalone="no"?>
<!DOCTYPE svg PUBLIC "-//W3C//DTD SVG 1.1//EN"
 "http://www.w3.org/Graphics/SVG/1.1/DTD/svg11.dtd">
<!-- Generated by graphviz version 2.38.0 (20140413.2041)
 -->
<!-- Title: ant::calibration::gui::FitTimewalk Pages: 1 -->
<svg width="281pt" height="487pt"
 viewBox="0.00 0.00 281.00 487.00" xmlns="http://www.w3.org/2000/svg" xmlns:xlink="http://www.w3.org/1999/xlink">
<g id="graph0" class="graph" transform="scale(1 1) rotate(0) translate(4 483)">
<title>ant::calibration::gui::FitTimewalk</title>
<polygon fill="white" stroke="none" points="-4,4 -4,-483 277,-483 277,4 -4,4"/>
<!-- Node2 -->
<g id="node1" class="node"><title>Node2</title>
<polygon fill="#bfbfbf" stroke="black" points="12.5,-0.5 12.5,-30.5 120.5,-30.5 120.5,-0.5 12.5,-0.5"/>
<text text-anchor="start" x="20.5" y="-18.5" font-family="Helvetica,sans-Serif" font-size="10.00">ant::calibration::gui</text>
<text text-anchor="middle" x="66.5" y="-7.5" font-family="Helvetica,sans-Serif" font-size="10.00">::FitTimewalk</text>
</g>
<!-- Node3 -->
<g id="node2" class="node"><title>Node3</title>
<g id="a_node2"><a xlink:href="classant_1_1calibration_1_1gui_1_1_fit_function.html" target="_top" xlink:title="ant::calibration::gui\l::FitFunction">
<polygon fill="white" stroke="black" points="12.5,-68.5 12.5,-98.5 120.5,-98.5 120.5,-68.5 12.5,-68.5"/>
<text text-anchor="start" x="20.5" y="-86.5" font-family="Helvetica,sans-Serif" font-size="10.00">ant::calibration::gui</text>
<text text-anchor="middle" x="66.5" y="-75.5" font-family="Helvetica,sans-Serif" font-size="10.00">::FitFunction</text>
</a>
</g>
</g>
<!-- Node3&#45;&gt;Node2 -->
<g id="edge1" class="edge"><title>Node3&#45;&gt;Node2</title>
<path fill="none" stroke="midnightblue" d="M66.5,-58.0322C66.5,-48.8606 66.5,-38.7449 66.5,-30.7931"/>
<polygon fill="midnightblue" stroke="midnightblue" points="63.0001,-58.1789 66.5,-68.179 70.0001,-58.179 63.0001,-58.1789"/>
</g>
<!-- Node4 -->
<g id="node3" class="node"><title>Node4</title>
<polygon fill="white" stroke="#bfbfbf" points="77.5,-146.5 77.5,-176.5 211.5,-176.5 211.5,-146.5 77.5,-146.5"/>
<text text-anchor="start" x="85.5" y="-164.5" font-family="Helvetica,sans-Serif" font-size="10.00">std::list&lt; std::unique</text>
<text text-anchor="middle" x="144.5" y="-153.5" font-family="Helvetica,sans-Serif" font-size="10.00">_ptr&lt; IndicatorKnob &gt; &gt;</text>
</g>
<!-- Node4&#45;&gt;Node3 -->
<g id="edge2" class="edge"><title>Node4&#45;&gt;Node3</title>
<path fill="none" stroke="#9a32cd" stroke-dasharray="5,2" d="M122.468,-139.033C109.227,-126.132 92.7445,-110.072 81.1054,-98.7309"/>
<polygon fill="#9a32cd" stroke="#9a32cd" points="120.224,-141.733 129.829,-146.205 125.109,-136.719 120.224,-141.733"/>
<text text-anchor="middle" x="126.5" y="-120" font-family="Helvetica,sans-Serif" font-size="10.00"> knobs</text>
</g>
<!-- Node5 -->
<g id="node4" class="node"><title>Node5</title>
<polygon fill="white" stroke="#bfbfbf" points="132,-224.5 132,-254.5 273,-254.5 273,-224.5 132,-224.5"/>
<text text-anchor="start" x="140" y="-242.5" font-family="Helvetica,sans-Serif" font-size="10.00">std::unique_ptr&lt; Indicator</text>
<text text-anchor="middle" x="202.5" y="-231.5" font-family="Helvetica,sans-Serif" font-size="10.00">Knob &gt;</text>
</g>
<!-- Node5&#45;&gt;Node4 -->
<g id="edge3" class="edge"><title>Node5&#45;&gt;Node4</title>
<path fill="none" stroke="#9a32cd" stroke-dasharray="5,2" d="M185.284,-215.941C175.587,-203.235 163.772,-187.754 155.36,-176.731"/>
<polygon fill="#9a32cd" stroke="#9a32cd" points="182.742,-218.379 191.591,-224.205 188.306,-214.132 182.742,-218.379"/>
<text text-anchor="middle" x="202" y="-198" font-family="Helvetica,sans-Serif" font-size="10.00"> elements</text>
</g>
<!-- Node6 -->
<g id="node5" class="node"><title>Node6</title>
<g id="a_node5"><a xlink:href="classant_1_1calibration_1_1gui_1_1_indicator_knob.html" target="_top" xlink:title="ant::calibration::gui\l::IndicatorKnob">
<polygon fill="white" stroke="black" points="126.5,-302.5 126.5,-332.5 234.5,-332.5 234.5,-302.5 126.5,-302.5"/>
<text text-anchor="start" x="134.5" y="-320.5" font-family="Helvetica,sans-Serif" font-size="10.00">ant::calibration::gui</text>
<text text-anchor="middle" x="180.5" y="-309.5" font-family="Helvetica,sans-Serif" font-size="10.00">::IndicatorKnob</text>
</a>
</g>
</g>
<!-- Node6&#45;&gt;Node5 -->
<g id="edge4" class="edge"><title>Node6&#45;&gt;Node5</title>
<path fill="none" stroke="#9a32cd" stroke-dasharray="5,2" d="M187.458,-292.463C191.051,-280.051 195.312,-265.33 198.381,-254.731"/>
<polygon fill="#9a32cd" stroke="#9a32cd" points="184.057,-291.626 184.638,-302.205 190.781,-293.573 184.057,-291.626"/>
<text text-anchor="middle" x="201" y="-276" font-family="Helvetica,sans-Serif" font-size="10.00"> ptr</text>
</g>
<!-- Node7 -->
<g id="node6" class="node"><title>Node7</title>
<g id="a_node6"><a xlink:title="STL class. ">
<polygon fill="white" stroke="#bfbfbf" points="19,-386 19,-405 84,-405 84,-386 19,-386"/>
<text text-anchor="middle" x="51.5" y="-393" font-family="Helvetica,sans-Serif" font-size="10.00">std::string</text>
</a>
</g>
</g>
<!-- Node7&#45;&gt;Node3 -->
<g id="edge8" class="edge"><title>Node7&#45;&gt;Node3</title>
<path fill="none" stroke="#9a32cd" stroke-dasharray="5,2" d="M43.4484,-376.17C37.5247,-361.014 30.5,-338.768 30.5,-318.5 30.5,-318.5 30.5,-318.5 30.5,-160.5 30.5,-137.14 44.5625,-113.293 55.1094,-98.692"/>
<polygon fill="#9a32cd" stroke="#9a32cd" points="40.3877,-377.927 47.451,-385.824 46.8539,-375.246 40.3877,-377.927"/>
<text text-anchor="middle" x="72" y="-237" font-family="Helvetica,sans-Serif" font-size="10.00"> AdditionalFitArgs</text>
</g>
<!-- Node7&#45;&gt;Node6 -->
<g id="edge5" class="edge"><title>Node7&#45;&gt;Node6</title>
<path fill="none" stroke="#9a32cd" stroke-dasharray="5,2" d="M75.1347,-380.576C98.3148,-366.919 133.468,-346.209 156.703,-332.52"/>
<polygon fill="#9a32cd" stroke="#9a32cd" points="73.1372,-377.69 66.2979,-385.782 76.6905,-383.721 73.1372,-377.69"/>
<text text-anchor="middle" x="140" y="-354" font-family="Helvetica,sans-Serif" font-size="10.00"> name</text>
</g>
<!-- Node8 -->
<g id="node7" class="node"><title>Node8</title>
<g id="a_node7"><a xlink:title="STL class. ">
<polygon fill="white" stroke="#bfbfbf" points="0,-448.5 0,-478.5 103,-478.5 103,-448.5 0,-448.5"/>
<text text-anchor="start" x="8" y="-466.5" font-family="Helvetica,sans-Serif" font-size="10.00">std::basic_string&lt;</text>
<text text-anchor="middle" x="51.5" y="-455.5" font-family="Helvetica,sans-Serif" font-size="10.00"> char &gt;</text>
</a>
</g>
</g>
<!-- Node8&#45;&gt;Node7 -->
<g id="edge6" class="edge"><title>Node8&#45;&gt;Node7</title>
<path fill="none" stroke="midnightblue" d="M51.5,-437.876C51.5,-426.471 51.5,-413.636 51.5,-405.328"/>
<polygon fill="midnightblue" stroke="midnightblue" points="48.0001,-438.179 51.5,-448.179 55.0001,-438.179 48.0001,-438.179"/>
</g>
<!-- Node9 -->
<g id="node8" class="node"><title>Node9</title>
<g id="a_node8"><a xlink:href="structant_1_1calibration_1_1gui_1_1_indicator_properties.html" target="_top" xlink:title="ant::calibration::gui\l::IndicatorProperties">
<polygon fill="white" stroke="black" points="124,-380.5 124,-410.5 237,-410.5 237,-380.5 124,-380.5"/>
<text text-anchor="start" x="132" y="-398.5" font-family="Helvetica,sans-Serif" font-size="10.00">ant::calibration::gui</text>
<text text-anchor="middle" x="180.5" y="-387.5" font-family="Helvetica,sans-Serif" font-size="10.00">::IndicatorProperties</text>
</a>
</g>
</g>
<!-- Node9&#45;&gt;Node6 -->
<g id="edge7" class="edge"><title>Node9&#45;&gt;Node6</title>
<path fill="none" stroke="#9a32cd" stroke-dasharray="5,2" d="M180.5,-370.09C180.5,-357.757 180.5,-343.224 180.5,-332.731"/>
<polygon fill="#9a32cd" stroke="#9a32cd" points="177,-370.205 180.5,-380.205 184,-370.205 177,-370.205"/>
<text text-anchor="middle" x="189.5" y="-354" font-family="Helvetica,sans-Serif" font-size="10.00"> gui</text>
</g>
</g>
</svg>
