<?xml version="1.0" encoding="UTF-8" standalone="no"?>
<!DOCTYPE svg PUBLIC "-//W3C//DTD SVG 1.1//EN"
 "http://www.w3.org/Graphics/SVG/1.1/DTD/svg11.dtd">
<!-- Generated by graphviz version 2.38.0 (20140413.2041)
 -->
<!-- Title: ant::analysis::physics::DeltaPlusPhysics::Histogm Pages: 1 -->
<svg width="212pt" height="252pt"
 viewBox="0.00 0.00 211.50 252.00" xmlns="http://www.w3.org/2000/svg" xmlns:xlink="http://www.w3.org/1999/xlink">
<g id="graph0" class="graph" transform="scale(1 1) rotate(0) translate(4 248)">
<title>ant::analysis::physics::DeltaPlusPhysics::Histogm</title>
<polygon fill="white" stroke="none" points="-4,4 -4,-248 207.5,-248 207.5,4 -4,4"/>
<!-- Node1 -->
<g id="node1" class="node"><title>Node1</title>
<polygon fill="#bfbfbf" stroke="black" points="-1.42109e-14,-0.5 -1.42109e-14,-30.5 149,-30.5 149,-0.5 -1.42109e-14,-0.5"/>
<text text-anchor="start" x="8" y="-18.5" font-family="Helvetica,sans-Serif" font-size="10.00">ant::analysis::physics</text>
<text text-anchor="middle" x="74.5" y="-7.5" font-family="Helvetica,sans-Serif" font-size="10.00">::DeltaPlusPhysics::Histogm</text>
</g>
<!-- Node2 -->
<g id="node2" class="node"><title>Node2</title>
<g id="a_node2"><a xlink:title="STL class. ">
<polygon fill="white" stroke="#bfbfbf" points="25,-156.5 25,-175.5 90,-175.5 90,-156.5 25,-156.5"/>
<text text-anchor="middle" x="57.5" y="-163.5" font-family="Helvetica,sans-Serif" font-size="10.00">std::string</text>
</a>
</g>
</g>
<!-- Node2&#45;&gt;Node1 -->
<g id="edge1" class="edge"><title>Node2&#45;&gt;Node1</title>
<path fill="none" stroke="#9a32cd" stroke-dasharray="5,2" d="M53.1685,-146.385C49.7111,-128.665 46.1109,-101.32 50.5,-78 53.6799,-61.1047 61.3731,-42.8942 67.1988,-30.7103"/>
<polygon fill="#9a32cd" stroke="#9a32cd" points="49.7696,-147.228 55.2822,-156.276 56.615,-145.765 49.7696,-147.228"/>
<text text-anchor="middle" x="61.5" y="-91" font-family="Helvetica,sans-Serif" font-size="10.00"> pref</text>
</g>
<!-- Node4 -->
<g id="node4" class="node"><title>Node4</title>
<polygon fill="white" stroke="#bfbfbf" points="81.5,-78.5 81.5,-108.5 203.5,-108.5 203.5,-78.5 81.5,-78.5"/>
<text text-anchor="start" x="89.5" y="-96.5" font-family="Helvetica,sans-Serif" font-size="10.00">std::map&lt; std::string,</text>
<text text-anchor="middle" x="142.5" y="-85.5" font-family="Helvetica,sans-Serif" font-size="10.00"> TH1 * &gt;</text>
</g>
<!-- Node2&#45;&gt;Node4 -->
<g id="edge4" class="edge"><title>Node2&#45;&gt;Node4</title>
<path fill="none" stroke="#9a32cd" stroke-dasharray="5,2" d="M75.845,-149.784C90.595,-137.551 111.156,-120.497 125.529,-108.576"/>
<polygon fill="#9a32cd" stroke="#9a32cd" points="73.3853,-147.277 67.9227,-156.355 77.8541,-152.665 73.3853,-147.277"/>
<text text-anchor="middle" x="115" y="-130" font-family="Helvetica,sans-Serif" font-size="10.00"> keys</text>
</g>
<!-- Node3 -->
<g id="node3" class="node"><title>Node3</title>
<g id="a_node3"><a xlink:title="STL class. ">
<polygon fill="white" stroke="#bfbfbf" points="6,-213.5 6,-243.5 109,-243.5 109,-213.5 6,-213.5"/>
<text text-anchor="start" x="14" y="-231.5" font-family="Helvetica,sans-Serif" font-size="10.00">std::basic_string&lt;</text>
<text text-anchor="middle" x="57.5" y="-220.5" font-family="Helvetica,sans-Serif" font-size="10.00"> char &gt;</text>
</a>
</g>
</g>
<!-- Node3&#45;&gt;Node2 -->
<g id="edge2" class="edge"><title>Node3&#45;&gt;Node2</title>
<path fill="none" stroke="midnightblue" d="M57.5,-203.352C57.5,-193.513 57.5,-182.775 57.5,-175.54"/>
<polygon fill="midnightblue" stroke="midnightblue" points="54.0001,-203.468 57.5,-213.468 61.0001,-203.468 54.0001,-203.468"/>
</g>
<!-- Node4&#45;&gt;Node1 -->
<g id="edge3" class="edge"><title>Node4&#45;&gt;Node1</title>
<path fill="none" stroke="#9a32cd" stroke-dasharray="5,2" d="M122.969,-70.6707C111.481,-57.8319 97.285,-41.9656 87.2329,-30.7309"/>
<polygon fill="#9a32cd" stroke="#9a32cd" points="120.433,-73.0863 129.71,-78.205 125.65,-68.4187 120.433,-73.0863"/>
<text text-anchor="middle" x="117.5" y="-52" font-family="Helvetica,sans-Serif" font-size="10.00"> h</text>
</g>
</g>
</svg>
