<?xml version="1.0" encoding="UTF-8" standalone="no"?>
<!DOCTYPE svg PUBLIC "-//W3C//DTD SVG 1.1//EN"
 "http://www.w3.org/Graphics/SVG/1.1/DTD/svg11.dtd">
<!-- Generated by graphviz version 2.38.0 (20140413.2041)
 -->
<!-- Title: ant::calibration::CB_SourceCalib::TheGUI Pages: 1 -->
<svg width="1561pt" height="341pt"
 viewBox="0.00 0.00 1561.00 341.00" xmlns="http://www.w3.org/2000/svg" xmlns:xlink="http://www.w3.org/1999/xlink">
<g id="graph0" class="graph" transform="scale(1 1) rotate(0) translate(4 337)">
<title>ant::calibration::CB_SourceCalib::TheGUI</title>
<polygon fill="white" stroke="none" points="-4,4 -4,-337 1557,-337 1557,4 -4,4"/>
<!-- Node2 -->
<g id="node1" class="node"><title>Node2</title>
<polygon fill="#bfbfbf" stroke="black" points="1434,-183 1434,-213 1553,-213 1553,-183 1434,-183"/>
<text text-anchor="start" x="1442" y="-201" font-family="Helvetica,sans-Serif" font-size="10.00">ant::calibration::CB</text>
<text text-anchor="middle" x="1493.5" y="-190" font-family="Helvetica,sans-Serif" font-size="10.00">_SourceCalib::TheGUI</text>
</g>
<!-- Node3 -->
<g id="node2" class="node"><title>Node3</title>
<g id="a_node2"><a xlink:href="classant_1_1calibration_1_1gui_1_1_calib_module__traits.html" target="_top" xlink:title="ant::calibration::gui\l::CalibModule_traits">
<polygon fill="white" stroke="black" points="1191.5,-258 1191.5,-288 1301.5,-288 1301.5,-258 1191.5,-258"/>
<text text-anchor="start" x="1199.5" y="-276" font-family="Helvetica,sans-Serif" font-size="10.00">ant::calibration::gui</text>
<text text-anchor="middle" x="1246.5" y="-265" font-family="Helvetica,sans-Serif" font-size="10.00">::CalibModule_traits</text>
</a>
</g>
</g>
<!-- Node3&#45;&gt;Node2 -->
<g id="edge1" class="edge"><title>Node3&#45;&gt;Node2</title>
<path fill="none" stroke="midnightblue" d="M1311.62,-258.97C1343.35,-251.44 1382.03,-241.372 1416,-230 1430.47,-225.156 1446.07,-218.837 1459.39,-213.095"/>
<polygon fill="midnightblue" stroke="midnightblue" points="1310.52,-255.633 1301.58,-261.324 1312.12,-262.449 1310.52,-255.633"/>
</g>
<!-- Node4 -->
<g id="node3" class="node"><title>Node4</title>
<polygon fill="white" stroke="#bfbfbf" points="1178,-209 1178,-239 1315,-239 1315,-209 1178,-209"/>
<text text-anchor="start" x="1186" y="-227" font-family="Helvetica,sans-Serif" font-size="10.00">std::map&lt; unsigned,</text>
<text text-anchor="middle" x="1246.5" y="-216" font-family="Helvetica,sans-Serif" font-size="10.00"> std::vector&lt; double &gt; &gt;</text>
</g>
<!-- Node4&#45;&gt;Node2 -->
<g id="edge2" class="edge"><title>Node4&#45;&gt;Node2</title>
<path fill="none" stroke="#9a32cd" stroke-dasharray="5,2" d="M1325.33,-215.741C1360.49,-212.009 1401.35,-207.673 1433.87,-204.222"/>
<polygon fill="#9a32cd" stroke="#9a32cd" points="1324.67,-212.291 1315.1,-216.827 1325.41,-219.252 1324.67,-212.291"/>
<text text-anchor="middle" x="1374.5" y="-218" font-family="Helvetica,sans-Serif" font-size="10.00"> fitParameters</text>
</g>
<!-- Node5 -->
<g id="node4" class="node"><title>Node5</title>
<polygon fill="white" stroke="#bfbfbf" points="940,-311.5 940,-330.5 1062,-330.5 1062,-311.5 940,-311.5"/>
<text text-anchor="middle" x="1001" y="-318.5" font-family="Helvetica,sans-Serif" font-size="10.00">std::vector&lt; double &gt;</text>
</g>
<!-- Node5&#45;&gt;Node4 -->
<g id="edge3" class="edge"><title>Node5&#45;&gt;Node4</title>
<path fill="none" stroke="#9a32cd" stroke-dasharray="5,2" d="M1072.22,-325.375C1102.16,-323.708 1135.7,-316.705 1160,-297 1177.7,-282.649 1161.86,-265.078 1178,-249 1181.9,-245.12 1186.45,-241.835 1191.31,-239.055"/>
<polygon fill="#9a32cd" stroke="#9a32cd" points="1072.09,-321.877 1062.23,-325.746 1072.35,-328.872 1072.09,-321.877"/>
<text text-anchor="middle" x="1127" y="-325" font-family="Helvetica,sans-Serif" font-size="10.00"> elements</text>
</g>
<!-- Node6 -->
<g id="node5" class="node"><title>Node6</title>
<g id="a_node5"><a xlink:href="classant_1_1calibration_1_1gui_1_1_cal_canvas.html" target="_top" xlink:title="ant::calibration::gui\l::CalCanvas">
<polygon fill="white" stroke="black" points="1192.5,-160 1192.5,-190 1300.5,-190 1300.5,-160 1192.5,-160"/>
<text text-anchor="start" x="1200.5" y="-178" font-family="Helvetica,sans-Serif" font-size="10.00">ant::calibration::gui</text>
<text text-anchor="middle" x="1246.5" y="-167" font-family="Helvetica,sans-Serif" font-size="10.00">::CalCanvas</text>
</a>
</g>
</g>
<!-- Node6&#45;&gt;Node2 -->
<g id="edge4" class="edge"><title>Node6&#45;&gt;Node2</title>
<path fill="none" stroke="#9a32cd" stroke-dasharray="5,2" d="M1310.79,-176.469C1342.46,-177.689 1381.35,-179.92 1416,-184 1421.77,-184.679 1427.75,-185.525 1433.72,-186.462"/>
<polygon fill="#9a32cd" stroke="#9a32cd" points="1310.89,-172.97 1300.77,-176.107 1310.64,-179.966 1310.89,-172.97"/>
<text text-anchor="middle" x="1374.5" y="-187" font-family="Helvetica,sans-Serif" font-size="10.00"> canvas</text>
</g>
<!-- Node7 -->
<g id="node6" class="node"><title>Node7</title>
<polygon fill="white" stroke="#bfbfbf" points="973,-273.5 973,-292.5 1029,-292.5 1029,-273.5 973,-273.5"/>
<text text-anchor="middle" x="1001" y="-280.5" font-family="Helvetica,sans-Serif" font-size="10.00">TCanvas</text>
</g>
<!-- Node7&#45;&gt;Node6 -->
<g id="edge5" class="edge"><title>Node7&#45;&gt;Node6</title>
<path fill="none" stroke="midnightblue" d="M1039.39,-287.792C1074.68,-290.138 1126.97,-287.685 1160,-259 1181.02,-240.746 1158.81,-219.174 1178,-199 1182.11,-194.674 1187.06,-191.127 1192.38,-188.218"/>
<polygon fill="midnightblue" stroke="midnightblue" points="1039.28,-284.27 1029.03,-286.933 1038.7,-291.247 1039.28,-284.27"/>
</g>
<!-- Node8 -->
<g id="node7" class="node"><title>Node8</title>
<g id="a_node7"><a xlink:href="classant_1_1calibration_1_1gui_1_1update__notify__traits.html" target="_top" xlink:title="ant::calibration::gui\l::update_notify_traits">
<polygon fill="white" stroke="black" points="492.5,-217 492.5,-247 610.5,-247 610.5,-217 492.5,-217"/>
<text text-anchor="start" x="500.5" y="-235" font-family="Helvetica,sans-Serif" font-size="10.00">ant::calibration::gui</text>
<text text-anchor="middle" x="551.5" y="-224" font-family="Helvetica,sans-Serif" font-size="10.00">::update_notify_traits</text>
</a>
</g>
</g>
<!-- Node8&#45;&gt;Node6 -->
<g id="edge6" class="edge"><title>Node8&#45;&gt;Node6</title>
<path fill="none" stroke="midnightblue" d="M620.833,-235.418C721.046,-239.451 913.599,-243.479 1076,-225 1113.94,-220.683 1123.69,-218.817 1160,-207 1168.32,-204.291 1169.87,-202.247 1178,-199 1185.62,-195.956 1193.8,-192.886 1201.74,-190.006"/>
<polygon fill="midnightblue" stroke="midnightblue" points="620.976,-231.921 610.84,-235.003 620.686,-238.915 620.976,-231.921"/>
</g>
<!-- Node10 -->
<g id="node9" class="node"><title>Node10</title>
<g id="a_node9"><a xlink:href="classant_1_1calibration_1_1gui_1_1_indicator.html" target="_top" xlink:title="ant::calibration::gui\l::Indicator">
<polygon fill="white" stroke="black" points="720,-186 720,-216 828,-216 828,-186 720,-186"/>
<text text-anchor="start" x="728" y="-204" font-family="Helvetica,sans-Serif" font-size="10.00">ant::calibration::gui</text>
<text text-anchor="middle" x="774" y="-193" font-family="Helvetica,sans-Serif" font-size="10.00">::Indicator</text>
</a>
</g>
</g>
<!-- Node8&#45;&gt;Node10 -->
<g id="edge9" class="edge"><title>Node8&#45;&gt;Node10</title>
<path fill="none" stroke="midnightblue" d="M620.854,-222.39C652.704,-217.912 690.033,-212.664 719.746,-208.487"/>
<polygon fill="midnightblue" stroke="midnightblue" points="620.138,-218.956 610.722,-223.815 621.112,-225.888 620.138,-218.956"/>
</g>
<!-- Node9 -->
<g id="node8" class="node"><title>Node9</title>
<polygon fill="white" stroke="#bfbfbf" points="934,-186 934,-216 1068,-216 1068,-186 934,-186"/>
<text text-anchor="start" x="942" y="-204" font-family="Helvetica,sans-Serif" font-size="10.00">std::list&lt; ant::calibration</text>
<text text-anchor="middle" x="1001" y="-193" font-family="Helvetica,sans-Serif" font-size="10.00">::gui::Indicator *&gt;</text>
</g>
<!-- Node9&#45;&gt;Node6 -->
<g id="edge7" class="edge"><title>Node9&#45;&gt;Node6</title>
<path fill="none" stroke="#9a32cd" stroke-dasharray="5,2" d="M1078.47,-192.834C1115.5,-188.88 1159.05,-184.231 1192.39,-180.67"/>
<polygon fill="#9a32cd" stroke="#9a32cd" points="1077.79,-189.388 1068.22,-193.93 1078.53,-196.348 1077.79,-189.388"/>
<text text-anchor="middle" x="1127" y="-195" font-family="Helvetica,sans-Serif" font-size="10.00"> indicators</text>
</g>
<!-- Node10&#45;&gt;Node9 -->
<g id="edge8" class="edge"><title>Node10&#45;&gt;Node9</title>
<path fill="none" stroke="#9a32cd" stroke-dasharray="5,2" d="M838.301,-201C868.043,-201 903.498,-201 933.619,-201"/>
<polygon fill="#9a32cd" stroke="#9a32cd" points="838.037,-197.5 828.037,-201 838.037,-204.5 838.037,-197.5"/>
<text text-anchor="middle" x="883.5" y="-204" font-family="Helvetica,sans-Serif" font-size="10.00"> elements</text>
</g>
<!-- Node11 -->
<g id="node10" class="node"><title>Node11</title>
<polygon fill="white" stroke="#bfbfbf" points="938.5,-137 938.5,-167 1063.5,-167 1063.5,-137 938.5,-137"/>
<text text-anchor="start" x="946.5" y="-155" font-family="Helvetica,sans-Serif" font-size="10.00">std::stack&lt; FitFunction</text>
<text text-anchor="middle" x="1001" y="-144" font-family="Helvetica,sans-Serif" font-size="10.00">::SavedState_t &gt;</text>
</g>
<!-- Node11&#45;&gt;Node6 -->
<g id="edge10" class="edge"><title>Node11&#45;&gt;Node6</title>
<path fill="none" stroke="#9a32cd" stroke-dasharray="5,2" d="M1073.82,-154.49C1100.88,-155.849 1131.91,-157.909 1160,-161 1170.47,-162.152 1181.6,-163.72 1192.26,-165.392"/>
<polygon fill="#9a32cd" stroke="#9a32cd" points="1073.81,-150.986 1063.65,-154.003 1073.47,-157.978 1073.81,-150.986"/>
<text text-anchor="middle" x="1127" y="-164" font-family="Helvetica,sans-Serif" font-size="10.00"> UndoStack</text>
</g>
<!-- Node12 -->
<g id="node11" class="node"><title>Node12</title>
<g id="a_node11"><a xlink:title="STL class. ">
<polygon fill="white" stroke="#bfbfbf" points="726.5,-142.5 726.5,-161.5 821.5,-161.5 821.5,-142.5 726.5,-142.5"/>
<text text-anchor="middle" x="774" y="-149.5" font-family="Helvetica,sans-Serif" font-size="10.00">std::vector&lt; T &gt;</text>
</a>
</g>
</g>
<!-- Node12&#45;&gt;Node11 -->
<g id="edge11" class="edge"><title>Node12&#45;&gt;Node11</title>
<path fill="none" stroke="#9a32cd" stroke-dasharray="5,2" d="M831.87,-152C864.397,-152 905.215,-152 938.488,-152"/>
<polygon fill="#9a32cd" stroke="#9a32cd" points="831.62,-148.5 821.62,-152 831.62,-155.5 831.62,-148.5"/>
<text text-anchor="middle" x="883.5" y="-155" font-family="Helvetica,sans-Serif" font-size="10.00"> elements</text>
</g>
<!-- Node13 -->
<g id="node12" class="node"><title>Node13</title>
<polygon fill="white" stroke="#bfbfbf" points="537,-142.5 537,-161.5 566,-161.5 566,-142.5 537,-142.5"/>
<text text-anchor="middle" x="551.5" y="-149.5" font-family="Helvetica,sans-Serif" font-size="10.00">T</text>
</g>
<!-- Node13&#45;&gt;Node12 -->
<g id="edge12" class="edge"><title>Node13&#45;&gt;Node12</title>
<path fill="none" stroke="#9a32cd" stroke-dasharray="5,2" d="M576.756,-152C612.663,-152 680.636,-152 726.383,-152"/>
<polygon fill="#9a32cd" stroke="#9a32cd" points="576.293,-148.5 566.293,-152 576.293,-155.5 576.293,-148.5"/>
<text text-anchor="middle" x="664.5" y="-155" font-family="Helvetica,sans-Serif" font-size="10.00"> elements</text>
</g>
<!-- Node14 -->
<g id="node13" class="node"><title>Node14</title>
<g id="a_node13"><a xlink:href="structant_1_1calibration_1_1gui_1_1_cal_canvas_1_1axis__settings__t.html" target="_top" xlink:title="ant::calibration::gui\l::CalCanvas::axis_settings_t">
<polygon fill="white" stroke="black" points="926,-88 926,-118 1076,-118 1076,-88 926,-88"/>
<text text-anchor="start" x="934" y="-106" font-family="Helvetica,sans-Serif" font-size="10.00">ant::calibration::gui</text>
<text text-anchor="middle" x="1001" y="-95" font-family="Helvetica,sans-Serif" font-size="10.00">::CalCanvas::axis_settings_t</text>
</a>
</g>
</g>
<!-- Node14&#45;&gt;Node6 -->
<g id="edge13" class="edge"><title>Node14&#45;&gt;Node6</title>
<path fill="none" stroke="#9a32cd" stroke-dasharray="5,2" d="M1084.19,-120.423C1108.77,-126.262 1135.66,-133.276 1160,-141 1177.05,-146.411 1195.55,-153.595 1210.96,-159.965"/>
<polygon fill="#9a32cd" stroke="#9a32cd" points="1084.7,-116.95 1074.17,-118.078 1083.11,-123.765 1084.7,-116.95"/>
<text text-anchor="middle" x="1127" y="-144" font-family="Helvetica,sans-Serif" font-size="10.00"> axis_settings</text>
</g>
<!-- Node15 -->
<g id="node14" class="node"><title>Node15</title>
<g id="a_node14"><a xlink:href="classant_1_1calibration_1_1gui_1_1_fit_function.html" target="_top" xlink:title="ant::calibration::gui\l::FitFunction">
<polygon fill="white" stroke="black" points="947,-39 947,-69 1055,-69 1055,-39 947,-39"/>
<text text-anchor="start" x="955" y="-57" font-family="Helvetica,sans-Serif" font-size="10.00">ant::calibration::gui</text>
<text text-anchor="middle" x="1001" y="-46" font-family="Helvetica,sans-Serif" font-size="10.00">::FitFunction</text>
</a>
</g>
</g>
<!-- Node15&#45;&gt;Node6 -->
<g id="edge14" class="edge"><title>Node15&#45;&gt;Node6</title>
<path fill="none" stroke="#9a32cd" stroke-dasharray="5,2" d="M1059.07,-72.2573C1064.8,-74.1656 1070.52,-76.1019 1076,-78 1113.6,-91.0299 1125.18,-89.7309 1160,-109 1186.09,-123.437 1212.75,-145.401 1229.21,-159.972"/>
<polygon fill="#9a32cd" stroke="#9a32cd" points="1060.06,-68.8971 1049.47,-69.0838 1057.86,-75.5439 1060.06,-68.8971"/>
<text text-anchor="middle" x="1127" y="-112" font-family="Helvetica,sans-Serif" font-size="10.00"> func</text>
</g>
<!-- Node16 -->
<g id="node15" class="node"><title>Node16</title>
<polygon fill="white" stroke="#bfbfbf" points="707,-39 707,-69 841,-69 841,-39 707,-39"/>
<text text-anchor="start" x="715" y="-57" font-family="Helvetica,sans-Serif" font-size="10.00">std::list&lt; std::unique</text>
<text text-anchor="middle" x="774" y="-46" font-family="Helvetica,sans-Serif" font-size="10.00">_ptr&lt; IndicatorKnob &gt; &gt;</text>
</g>
<!-- Node16&#45;&gt;Node15 -->
<g id="edge15" class="edge"><title>Node16&#45;&gt;Node15</title>
<path fill="none" stroke="#9a32cd" stroke-dasharray="5,2" d="M851.342,-54C882.801,-54 918.48,-54 946.999,-54"/>
<polygon fill="#9a32cd" stroke="#9a32cd" points="851.291,-50.5001 841.29,-54 851.29,-57.5001 851.291,-50.5001"/>
<text text-anchor="middle" x="883.5" y="-57" font-family="Helvetica,sans-Serif" font-size="10.00"> knobs</text>
</g>
<!-- Node17 -->
<g id="node16" class="node"><title>Node17</title>
<polygon fill="white" stroke="#bfbfbf" points="481,-33 481,-63 622,-63 622,-33 481,-33"/>
<text text-anchor="start" x="489" y="-51" font-family="Helvetica,sans-Serif" font-size="10.00">std::unique_ptr&lt; Indicator</text>
<text text-anchor="middle" x="551.5" y="-40" font-family="Helvetica,sans-Serif" font-size="10.00">Knob &gt;</text>
</g>
<!-- Node17&#45;&gt;Node16 -->
<g id="edge16" class="edge"><title>Node17&#45;&gt;Node16</title>
<path fill="none" stroke="#9a32cd" stroke-dasharray="5,2" d="M632.554,-50.1783C656.895,-50.8407 683.363,-51.5609 706.693,-52.1957"/>
<polygon fill="#9a32cd" stroke="#9a32cd" points="632.359,-46.6718 622.268,-49.8984 632.169,-53.6692 632.359,-46.6718"/>
<text text-anchor="middle" x="664.5" y="-55" font-family="Helvetica,sans-Serif" font-size="10.00"> elements</text>
</g>
<!-- Node18 -->
<g id="node17" class="node"><title>Node18</title>
<g id="a_node17"><a xlink:href="classant_1_1calibration_1_1gui_1_1_indicator_knob.html" target="_top" xlink:title="ant::calibration::gui\l::IndicatorKnob">
<polygon fill="white" stroke="black" points="320,-33 320,-63 428,-63 428,-33 320,-33"/>
<text text-anchor="start" x="328" y="-51" font-family="Helvetica,sans-Serif" font-size="10.00">ant::calibration::gui</text>
<text text-anchor="middle" x="374" y="-40" font-family="Helvetica,sans-Serif" font-size="10.00">::IndicatorKnob</text>
</a>
</g>
</g>
<!-- Node18&#45;&gt;Node17 -->
<g id="edge17" class="edge"><title>Node18&#45;&gt;Node17</title>
<path fill="none" stroke="#9a32cd" stroke-dasharray="5,2" d="M438.432,-48C452.153,-48 466.734,-48 480.685,-48"/>
<polygon fill="#9a32cd" stroke="#9a32cd" points="438.132,-44.5001 428.132,-48 438.132,-51.5001 438.132,-44.5001"/>
<text text-anchor="middle" x="454.5" y="-51" font-family="Helvetica,sans-Serif" font-size="10.00"> ptr</text>
</g>
<!-- Node19 -->
<g id="node18" class="node"><title>Node19</title>
<g id="a_node18"><a xlink:title="STL class. ">
<polygon fill="white" stroke="#bfbfbf" points="164,-82.5 164,-101.5 229,-101.5 229,-82.5 164,-82.5"/>
<text text-anchor="middle" x="196.5" y="-89.5" font-family="Helvetica,sans-Serif" font-size="10.00">std::string</text>
</a>
</g>
</g>
<!-- Node19&#45;&gt;Node15 -->
<g id="edge21" class="edge"><title>Node19&#45;&gt;Node15</title>
<path fill="none" stroke="#9a32cd" stroke-dasharray="5,2" d="M239.193,-94.9709C274.737,-97.247 327.196,-100 373,-100 373,-100 373,-100 775,-100 837.995,-100 908.938,-82.4777 954.022,-69.0621"/>
<polygon fill="#9a32cd" stroke="#9a32cd" points="239.393,-91.4765 229.185,-94.3139 238.934,-98.4615 239.393,-91.4765"/>
<text text-anchor="middle" x="551.5" y="-103" font-family="Helvetica,sans-Serif" font-size="10.00"> AdditionalFitArgs</text>
</g>
<!-- Node19&#45;&gt;Node18 -->
<g id="edge18" class="edge"><title>Node19&#45;&gt;Node18</title>
<path fill="none" stroke="#9a32cd" stroke-dasharray="5,2" d="M239.19,-81.5479C263.31,-75.5006 293.911,-67.8287 319.759,-61.3482"/>
<polygon fill="#9a32cd" stroke="#9a32cd" points="238.13,-78.2051 229.282,-84.0319 239.833,-84.9949 238.13,-78.2051"/>
<text text-anchor="middle" x="286.5" y="-76" font-family="Helvetica,sans-Serif" font-size="10.00"> name</text>
</g>
<!-- Node20 -->
<g id="node19" class="node"><title>Node20</title>
<g id="a_node19"><a xlink:title="STL class. ">
<polygon fill="white" stroke="#bfbfbf" points="0,-77 0,-107 103,-107 103,-77 0,-77"/>
<text text-anchor="start" x="8" y="-95" font-family="Helvetica,sans-Serif" font-size="10.00">std::basic_string&lt;</text>
<text text-anchor="middle" x="51.5" y="-84" font-family="Helvetica,sans-Serif" font-size="10.00"> char &gt;</text>
</a>
</g>
</g>
<!-- Node20&#45;&gt;Node19 -->
<g id="edge19" class="edge"><title>Node20&#45;&gt;Node19</title>
<path fill="none" stroke="midnightblue" d="M113.439,-92C130.849,-92 149.114,-92 163.98,-92"/>
<polygon fill="midnightblue" stroke="midnightblue" points="113.319,-88.5001 103.319,-92 113.319,-95.5001 113.319,-88.5001"/>
</g>
<!-- Node21 -->
<g id="node20" class="node"><title>Node21</title>
<g id="a_node20"><a xlink:href="structant_1_1calibration_1_1gui_1_1_indicator_properties.html" target="_top" xlink:title="ant::calibration::gui\l::IndicatorProperties">
<polygon fill="white" stroke="black" points="140,-25 140,-55 253,-55 253,-25 140,-25"/>
<text text-anchor="start" x="148" y="-43" font-family="Helvetica,sans-Serif" font-size="10.00">ant::calibration::gui</text>
<text text-anchor="middle" x="196.5" y="-32" font-family="Helvetica,sans-Serif" font-size="10.00">::IndicatorProperties</text>
</a>
</g>
</g>
<!-- Node21&#45;&gt;Node18 -->
<g id="edge20" class="edge"><title>Node21&#45;&gt;Node18</title>
<path fill="none" stroke="#9a32cd" stroke-dasharray="5,2" d="M263.283,-39.7408C276.129,-39.9412 289.492,-40.3249 302,-41 307.813,-41.3138 313.885,-41.7482 319.924,-42.2486"/>
<polygon fill="#9a32cd" stroke="#9a32cd" points="263.16,-36.2391 253.118,-39.6174 263.074,-43.2386 263.16,-36.2391"/>
<text text-anchor="middle" x="286.5" y="-44" font-family="Helvetica,sans-Serif" font-size="10.00"> gui</text>
</g>
<!-- Node22 -->
<g id="node21" class="node"><title>Node22</title>
<g id="a_node21"><a xlink:href="classant_1_1_t_h2_c_b.html" target="_top" xlink:title="The TH2CB class. ">
<polygon fill="white" stroke="black" points="1211,-74.5 1211,-93.5 1282,-93.5 1282,-74.5 1211,-74.5"/>
<text text-anchor="middle" x="1246.5" y="-81.5" font-family="Helvetica,sans-Serif" font-size="10.00">ant::TH2CB</text>
</a>
</g>
</g>
<!-- Node22&#45;&gt;Node2 -->
<g id="edge22" class="edge"><title>Node22&#45;&gt;Node2</title>
<path fill="none" stroke="#9a32cd" stroke-dasharray="5,2" d="M1277.15,-97.7972C1323.37,-119.302 1412.23,-160.651 1460.09,-182.918"/>
<polygon fill="#9a32cd" stroke="#9a32cd" points="1278.51,-94.569 1267.97,-93.5235 1275.56,-100.916 1278.51,-94.569"/>
<text text-anchor="middle" x="1374.5" y="-165" font-family="Helvetica,sans-Serif" font-size="10.00"> AmBe_peaks_cb</text>
</g>
<!-- Node23 -->
<g id="node22" class="node"><title>Node23</title>
<g id="a_node22"><a xlink:href="classant_1_1_t_h2_crystals.html" target="_top" xlink:title="Base class for A2 Calorimeter display classes. ">
<polygon fill="white" stroke="black" points="953.5,-0.5 953.5,-19.5 1048.5,-19.5 1048.5,-0.5 953.5,-0.5"/>
<text text-anchor="middle" x="1001" y="-7.5" font-family="Helvetica,sans-Serif" font-size="10.00">ant::TH2Crystals</text>
</a>
</g>
</g>
<!-- Node23&#45;&gt;Node22 -->
<g id="edge23" class="edge"><title>Node23&#45;&gt;Node22</title>
<path fill="none" stroke="midnightblue" d="M1058.89,-17.3261C1089.4,-22.2055 1127.33,-29.8145 1160,-41 1185.47,-49.7187 1212.94,-64.6222 1229.68,-74.3915"/>
<polygon fill="midnightblue" stroke="midnightblue" points="1059.26,-13.8424 1048.85,-15.7747 1058.19,-20.7604 1059.26,-13.8424"/>
</g>
<!-- Node24 -->
<g id="node23" class="node"><title>Node24</title>
<polygon fill="white" stroke="#bfbfbf" points="746.5,-0.5 746.5,-19.5 801.5,-19.5 801.5,-0.5 746.5,-0.5"/>
<text text-anchor="middle" x="774" y="-7.5" font-family="Helvetica,sans-Serif" font-size="10.00">TH2Poly</text>
</g>
<!-- Node24&#45;&gt;Node23 -->
<g id="edge24" class="edge"><title>Node24&#45;&gt;Node23</title>
<path fill="none" stroke="midnightblue" d="M811.982,-10C850.66,-10 911.464,-10 953.399,-10"/>
<polygon fill="midnightblue" stroke="midnightblue" points="811.694,-6.5001 801.694,-10 811.694,-13.5001 811.694,-6.5001"/>
</g>
</g>
</svg>
