<?xml version="1.0" encoding="UTF-8" standalone="no"?>
<!DOCTYPE svg PUBLIC "-//W3C//DTD SVG 1.1//EN"
 "http://www.w3.org/Graphics/SVG/1.1/DTD/svg11.dtd">
<!-- Generated by graphviz version 2.38.0 (20140413.2041)
 -->
<!-- Title: ant::ExpConfig::ExceptionNoSetup Pages: 1 -->
<svg width="146pt" height="207pt"
 viewBox="0.00 0.00 146.00 207.00" xmlns="http://www.w3.org/2000/svg" xmlns:xlink="http://www.w3.org/1999/xlink">
<g id="graph0" class="graph" transform="scale(1 1) rotate(0) translate(4 203)">
<title>ant::ExpConfig::ExceptionNoSetup</title>
<polygon fill="white" stroke="none" points="-4,4 -4,-203 142,-203 142,4 -4,4"/>
<!-- Node0 -->
<g id="node1" class="node"><title>Node0</title>
<polygon fill="#bfbfbf" stroke="black" points="0,-0.5 0,-30.5 138,-30.5 138,-0.5 0,-0.5"/>
<text text-anchor="start" x="8" y="-18.5" font-family="Helvetica,sans-Serif" font-size="10.00">ant::ExpConfig::Exception</text>
<text text-anchor="middle" x="69" y="-7.5" font-family="Helvetica,sans-Serif" font-size="10.00">NoSetup</text>
</g>
<!-- Node1 -->
<g id="node2" class="node"><title>Node1</title>
<g id="a_node2"><a xlink:href="classant_1_1_exp_config_1_1_exception.html" target="_top" xlink:title="ant::ExpConfig::Exception">
<polygon fill="white" stroke="black" points="0,-67.5 0,-86.5 138,-86.5 138,-67.5 0,-67.5"/>
<text text-anchor="middle" x="69" y="-74.5" font-family="Helvetica,sans-Serif" font-size="10.00">ant::ExpConfig::Exception</text>
</a>
</g>
</g>
<!-- Node1&#45;&gt;Node0 -->
<g id="edge1" class="edge"><title>Node1&#45;&gt;Node0</title>
<path fill="none" stroke="midnightblue" d="M69,-57.2349C69,-48.5864 69,-38.4969 69,-30.523"/>
<polygon fill="midnightblue" stroke="midnightblue" points="65.5001,-57.4751 69,-67.4751 72.5001,-57.4751 65.5001,-57.4751"/>
</g>
<!-- Node2 -->
<g id="node3" class="node"><title>Node2</title>
<g id="a_node3"><a xlink:title="STL class. ">
<polygon fill="white" stroke="#bfbfbf" points="17,-123.5 17,-142.5 121,-142.5 121,-123.5 17,-123.5"/>
<text text-anchor="middle" x="69" y="-130.5" font-family="Helvetica,sans-Serif" font-size="10.00">std::runtime_error</text>
</a>
</g>
</g>
<!-- Node2&#45;&gt;Node1 -->
<g id="edge2" class="edge"><title>Node2&#45;&gt;Node1</title>
<path fill="none" stroke="midnightblue" d="M69,-112.805C69,-103.91 69,-93.7798 69,-86.7511"/>
<polygon fill="midnightblue" stroke="midnightblue" points="65.5001,-113.083 69,-123.083 72.5001,-113.083 65.5001,-113.083"/>
</g>
<!-- Node3 -->
<g id="node4" class="node"><title>Node3</title>
<g id="a_node4"><a xlink:title="STL class. ">
<polygon fill="white" stroke="#bfbfbf" points="27,-179.5 27,-198.5 111,-198.5 111,-179.5 27,-179.5"/>
<text text-anchor="middle" x="69" y="-186.5" font-family="Helvetica,sans-Serif" font-size="10.00">std::exception</text>
</a>
</g>
</g>
<!-- Node3&#45;&gt;Node2 -->
<g id="edge3" class="edge"><title>Node3&#45;&gt;Node2</title>
<path fill="none" stroke="midnightblue" d="M69,-168.805C69,-159.91 69,-149.78 69,-142.751"/>
<polygon fill="midnightblue" stroke="midnightblue" points="65.5001,-169.083 69,-179.083 72.5001,-169.083 65.5001,-169.083"/>
</g>
</g>
</svg>
