<?xml version="1.0" encoding="UTF-8" standalone="no"?>
<!DOCTYPE svg PUBLIC "-//W3C//DTD SVG 1.1//EN"
 "http://www.w3.org/Graphics/SVG/1.1/DTD/svg11.dtd">
<!-- Generated by graphviz version 2.38.0 (20140413.2041)
 -->
<!-- Title: ant::calibration::gui::IndicatorKnob Pages: 1 -->
<svg width="801pt" height="137pt"
 viewBox="0.00 0.00 801.00 137.00" xmlns="http://www.w3.org/2000/svg" xmlns:xlink="http://www.w3.org/1999/xlink">
<g id="graph0" class="graph" transform="scale(1 1) rotate(0) translate(4 133)">
<title>ant::calibration::gui::IndicatorKnob</title>
<polygon fill="white" stroke="none" points="-4,4 -4,-133 797,-133 797,4 -4,4"/>
<!-- Node0 -->
<g id="node1" class="node"><title>Node0</title>
<polygon fill="#bfbfbf" stroke="black" points="0,-49.5 0,-79.5 108,-79.5 108,-49.5 0,-49.5"/>
<text text-anchor="start" x="8" y="-67.5" font-family="Helvetica,sans-Serif" font-size="10.00">ant::calibration::gui</text>
<text text-anchor="middle" x="54" y="-56.5" font-family="Helvetica,sans-Serif" font-size="10.00">::IndicatorKnob</text>
</g>
<!-- Node1 -->
<g id="node2" class="node"><title>Node1</title>
<g id="a_node2"><a xlink:href="classant_1_1calibration_1_1gui_1_1_knobs_t_f1_1_1_fixed_parameter_knob.html" target="_top" xlink:title="ant::calibration::gui\l::KnobsTF1::FixedParameterKnob">
<polygon fill="white" stroke="black" points="144,-98.5 144,-128.5 317,-128.5 317,-98.5 144,-98.5"/>
<text text-anchor="start" x="152" y="-116.5" font-family="Helvetica,sans-Serif" font-size="10.00">ant::calibration::gui</text>
<text text-anchor="middle" x="230.5" y="-105.5" font-family="Helvetica,sans-Serif" font-size="10.00">::KnobsTF1::FixedParameterKnob</text>
</a>
</g>
</g>
<!-- Node0&#45;&gt;Node1 -->
<g id="edge1" class="edge"><title>Node0&#45;&gt;Node1</title>
<path fill="none" stroke="midnightblue" d="M118.049,-82.2042C137.012,-87.5293 157.633,-93.3195 175.921,-98.4549"/>
<polygon fill="midnightblue" stroke="midnightblue" points="118.878,-78.8017 108.304,-79.4679 116.985,-85.5411 118.878,-78.8017"/>
</g>
<!-- Node2 -->
<g id="node3" class="node"><title>Node2</title>
<g id="a_node3"><a xlink:href="classant_1_1calibration_1_1gui_1_1_knobs_t_f1_1_1_parameter_knob.html" target="_top" xlink:title="ant::calibration::gui\l::KnobsTF1::ParameterKnob">
<polygon fill="white" stroke="black" points="156,-49.5 156,-79.5 305,-79.5 305,-49.5 156,-49.5"/>
<text text-anchor="start" x="164" y="-67.5" font-family="Helvetica,sans-Serif" font-size="10.00">ant::calibration::gui</text>
<text text-anchor="middle" x="230.5" y="-56.5" font-family="Helvetica,sans-Serif" font-size="10.00">::KnobsTF1::ParameterKnob</text>
</a>
</g>
</g>
<!-- Node0&#45;&gt;Node2 -->
<g id="edge2" class="edge"><title>Node0&#45;&gt;Node2</title>
<path fill="none" stroke="midnightblue" d="M118.376,-64.5C130.583,-64.5 143.465,-64.5 155.963,-64.5"/>
<polygon fill="midnightblue" stroke="midnightblue" points="118.304,-61.0001 108.304,-64.5 118.304,-68.0001 118.304,-61.0001"/>
</g>
<!-- Node6 -->
<g id="node7" class="node"><title>Node6</title>
<g id="a_node7"><a xlink:href="classant_1_1calibration_1_1gui_1_1_knobs_t_f1_1_1_range_knob.html" target="_top" xlink:title="ant::calibration::gui\l::KnobsTF1::RangeKnob">
<polygon fill="white" stroke="black" points="166.5,-0.5 166.5,-30.5 294.5,-30.5 294.5,-0.5 166.5,-0.5"/>
<text text-anchor="start" x="174.5" y="-18.5" font-family="Helvetica,sans-Serif" font-size="10.00">ant::calibration::gui</text>
<text text-anchor="middle" x="230.5" y="-7.5" font-family="Helvetica,sans-Serif" font-size="10.00">::KnobsTF1::RangeKnob</text>
</a>
</g>
</g>
<!-- Node0&#45;&gt;Node6 -->
<g id="edge6" class="edge"><title>Node0&#45;&gt;Node6</title>
<path fill="none" stroke="midnightblue" d="M118.049,-46.7958C137.012,-41.4707 157.633,-35.6805 175.921,-30.5451"/>
<polygon fill="midnightblue" stroke="midnightblue" points="116.985,-43.4589 108.304,-49.5321 118.878,-50.1983 116.985,-43.4589"/>
</g>
<!-- Node3 -->
<g id="node4" class="node"><title>Node3</title>
<g id="a_node4"><a xlink:href="classant_1_1calibration_1_1gui_1_1_knobs_t_f1_1_1_ranged_parameter_knob.html" target="_top" xlink:title="ant::calibration::gui\l::KnobsTF1::RangedParameterKnob">
<polygon fill="white" stroke="black" points="364.5,-98.5 364.5,-128.5 549.5,-128.5 549.5,-98.5 364.5,-98.5"/>
<text text-anchor="start" x="372.5" y="-116.5" font-family="Helvetica,sans-Serif" font-size="10.00">ant::calibration::gui</text>
<text text-anchor="middle" x="457" y="-105.5" font-family="Helvetica,sans-Serif" font-size="10.00">::KnobsTF1::RangedParameterKnob</text>
</a>
</g>
</g>
<!-- Node2&#45;&gt;Node3 -->
<g id="edge3" class="edge"><title>Node2&#45;&gt;Node3</title>
<path fill="none" stroke="midnightblue" d="M310.237,-81.6854C335.341,-87.1647 362.908,-93.1815 387.247,-98.4938"/>
<polygon fill="midnightblue" stroke="midnightblue" points="310.899,-78.2476 300.383,-79.5346 309.407,-85.0866 310.899,-78.2476"/>
</g>
<!-- Node4 -->
<g id="node5" class="node"><title>Node4</title>
<g id="a_node5"><a xlink:href="classant_1_1calibration_1_1gui_1_1_knobs_t_f1_1_1_transformed_parameter_knob.html" target="_top" xlink:title="ant::calibration::gui\l::KnobsTF1::TransformedParameterKnob">
<polygon fill="white" stroke="black" points="353,-49.5 353,-79.5 561,-79.5 561,-49.5 353,-49.5"/>
<text text-anchor="start" x="361" y="-67.5" font-family="Helvetica,sans-Serif" font-size="10.00">ant::calibration::gui</text>
<text text-anchor="middle" x="457" y="-56.5" font-family="Helvetica,sans-Serif" font-size="10.00">::KnobsTF1::TransformedParameterKnob</text>
</a>
</g>
</g>
<!-- Node2&#45;&gt;Node4 -->
<g id="edge4" class="edge"><title>Node2&#45;&gt;Node4</title>
<path fill="none" stroke="midnightblue" d="M315.224,-64.5C327.538,-64.5 340.343,-64.5 352.99,-64.5"/>
<polygon fill="midnightblue" stroke="midnightblue" points="315.01,-61.0001 305.01,-64.5 315.01,-68.0001 315.01,-61.0001"/>
</g>
<!-- Node5 -->
<g id="node6" class="node"><title>Node5</title>
<g id="a_node6"><a xlink:href="classant_1_1calibration_1_1gui_1_1_knobs_t_f1_1_1_reference_parameter_knob.html" target="_top" xlink:title="ant::calibration::gui\l::KnobsTF1::ReferenceParameterKnob">
<polygon fill="white" stroke="black" points="597,-49.5 597,-79.5 793,-79.5 793,-49.5 597,-49.5"/>
<text text-anchor="start" x="605" y="-67.5" font-family="Helvetica,sans-Serif" font-size="10.00">ant::calibration::gui</text>
<text text-anchor="middle" x="695" y="-56.5" font-family="Helvetica,sans-Serif" font-size="10.00">::KnobsTF1::ReferenceParameterKnob</text>
</a>
</g>
</g>
<!-- Node4&#45;&gt;Node5 -->
<g id="edge5" class="edge"><title>Node4&#45;&gt;Node5</title>
<path fill="none" stroke="midnightblue" d="M571.426,-64.5C579.857,-64.5 588.319,-64.5 596.64,-64.5"/>
<polygon fill="midnightblue" stroke="midnightblue" points="571.17,-61.0001 561.17,-64.5 571.17,-68.0001 571.17,-61.0001"/>
</g>
<!-- Node7 -->
<g id="node8" class="node"><title>Node7</title>
<g id="a_node8"><a xlink:href="classant_1_1calibration_1_1gui_1_1_knobs_t_f1_1_1_fixed_range_knob.html" target="_top" xlink:title="ant::calibration::gui\l::KnobsTF1::FixedRangeKnob">
<polygon fill="white" stroke="black" points="381,-0.5 381,-30.5 533,-30.5 533,-0.5 381,-0.5"/>
<text text-anchor="start" x="389" y="-18.5" font-family="Helvetica,sans-Serif" font-size="10.00">ant::calibration::gui</text>
<text text-anchor="middle" x="457" y="-7.5" font-family="Helvetica,sans-Serif" font-size="10.00">::KnobsTF1::FixedRangeKnob</text>
</a>
</g>
</g>
<!-- Node6&#45;&gt;Node7 -->
<g id="edge7" class="edge"><title>Node6&#45;&gt;Node7</title>
<path fill="none" stroke="midnightblue" d="M304.853,-15.5C329.131,-15.5 356.179,-15.5 380.608,-15.5"/>
<polygon fill="midnightblue" stroke="midnightblue" points="304.633,-12.0001 294.633,-15.5 304.633,-19.0001 304.633,-12.0001"/>
</g>
</g>
</svg>
