<?xml version="1.0" encoding="UTF-8" standalone="no"?>
<!DOCTYPE svg PUBLIC "-//W3C//DTD SVG 1.1//EN"
 "http://www.w3.org/Graphics/SVG/1.1/DTD/svg11.dtd">
<!-- Generated by graphviz version 2.38.0 (20140413.2041)
 -->
<!-- Title: ant::analysis::utils::scratch_collicott_DetEff Pages: 1 -->
<svg width="525pt" height="198pt"
 viewBox="0.00 0.00 525.00 197.50" xmlns="http://www.w3.org/2000/svg" xmlns:xlink="http://www.w3.org/1999/xlink">
<g id="graph0" class="graph" transform="scale(1 1) rotate(0) translate(4 193.5)">
<title>ant::analysis::utils::scratch_collicott_DetEff</title>
<polygon fill="white" stroke="none" points="-4,4 -4,-193.5 521,-193.5 521,4 -4,4"/>
<!-- Node1 -->
<g id="node1" class="node"><title>Node1</title>
<polygon fill="#bfbfbf" stroke="black" points="383,-67.5 383,-97.5 517,-97.5 517,-67.5 383,-67.5"/>
<text text-anchor="start" x="391" y="-85.5" font-family="Helvetica,sans-Serif" font-size="10.00">ant::analysis::utils</text>
<text text-anchor="middle" x="450" y="-74.5" font-family="Helvetica,sans-Serif" font-size="10.00">::scratch_collicott_DetEff</text>
</g>
<!-- Node2 -->
<g id="node2" class="node"><title>Node2</title>
<g id="a_node2"><a xlink:href="structant_1_1analysis_1_1utils_1_1scratch__collicott___det_eff_1_1_stats__t.html" target="_top" xlink:title="ant::analysis::utils\l::scratch_collicott_DetEff\l::Stats_t">
<polygon fill="white" stroke="black" points="140,-148 140,-189 274,-189 274,-148 140,-148"/>
<text text-anchor="start" x="148" y="-177" font-family="Helvetica,sans-Serif" font-size="10.00">ant::analysis::utils</text>
<text text-anchor="start" x="148" y="-166" font-family="Helvetica,sans-Serif" font-size="10.00">::scratch_collicott_DetEff</text>
<text text-anchor="middle" x="207" y="-155" font-family="Helvetica,sans-Serif" font-size="10.00">::Stats_t</text>
</a>
</g>
</g>
<!-- Node2&#45;&gt;Node1 -->
<g id="edge1" class="edge"><title>Node2&#45;&gt;Node1</title>
<path fill="none" stroke="#9a32cd" stroke-dasharray="5,2" d="M284.041,-158.841C310.307,-153.99 339.523,-146.86 365,-136.5 389.09,-126.705 413.788,-109.849 430.112,-97.5694"/>
<polygon fill="#9a32cd" stroke="#9a32cd" points="283.371,-155.405 274.132,-160.59 284.588,-162.298 283.371,-155.405"/>
<text text-anchor="middle" x="328.5" y="-159.5" font-family="Helvetica,sans-Serif" font-size="10.00"> stats</text>
</g>
<!-- Node3 -->
<g id="node3" class="node"><title>Node3</title>
<g id="a_node3"><a xlink:href="classant_1_1_wrap_t_tree.html" target="_top" xlink:title="The WrapTTree struct simplifies TTree handling in physics classes. ">
<polygon fill="white" stroke="black" points="8.5,-120 8.5,-139 94.5,-139 94.5,-120 8.5,-120"/>
<text text-anchor="middle" x="51.5" y="-127" font-family="Helvetica,sans-Serif" font-size="10.00">ant::WrapTTree</text>
</a>
</g>
</g>
<!-- Node3&#45;&gt;Node2 -->
<g id="edge2" class="edge"><title>Node3&#45;&gt;Node2</title>
<path fill="none" stroke="midnightblue" d="M99.8747,-141.537C112.499,-144.744 126.372,-148.269 139.805,-151.682"/>
<polygon fill="midnightblue" stroke="midnightblue" points="100.604,-138.111 90.0503,-139.04 98.8805,-144.895 100.604,-138.111"/>
</g>
<!-- Node7 -->
<g id="node7" class="node"><title>Node7</title>
<g id="a_node7"><a xlink:href="structant_1_1analysis_1_1utils_1_1scratch__collicott___det_eff_1_1_det_eff__t.html" target="_top" xlink:title="ant::analysis::utils\l::scratch_collicott_DetEff\l::DetEff_t">
<polygon fill="white" stroke="black" points="140,-88 140,-129 274,-129 274,-88 140,-88"/>
<text text-anchor="start" x="148" y="-117" font-family="Helvetica,sans-Serif" font-size="10.00">ant::analysis::utils</text>
<text text-anchor="start" x="148" y="-106" font-family="Helvetica,sans-Serif" font-size="10.00">::scratch_collicott_DetEff</text>
<text text-anchor="middle" x="207" y="-95" font-family="Helvetica,sans-Serif" font-size="10.00">::DetEff_t</text>
</a>
</g>
</g>
<!-- Node3&#45;&gt;Node7 -->
<g id="edge7" class="edge"><title>Node3&#45;&gt;Node7</title>
<path fill="none" stroke="midnightblue" d="M104.929,-122.327C116.176,-120.789 128.2,-119.144 139.889,-117.545"/>
<polygon fill="midnightblue" stroke="midnightblue" points="104.284,-118.883 94.8509,-123.706 105.233,-125.818 104.284,-118.883"/>
</g>
<!-- Node4 -->
<g id="node4" class="node"><title>Node4</title>
<g id="a_node4"><a xlink:title="STL class. ">
<polygon fill="white" stroke="#bfbfbf" points="174.5,-50 174.5,-69 239.5,-69 239.5,-50 174.5,-50"/>
<text text-anchor="middle" x="207" y="-57" font-family="Helvetica,sans-Serif" font-size="10.00">std::string</text>
</a>
</g>
</g>
<!-- Node4&#45;&gt;Node1 -->
<g id="edge3" class="edge"><title>Node4&#45;&gt;Node1</title>
<path fill="none" stroke="#9a32cd" stroke-dasharray="5,2" d="M249.854,-61.6117C281.524,-63.4084 326.064,-66.3603 365,-70.5 370.713,-71.1074 376.635,-71.8083 382.569,-72.56"/>
<polygon fill="#9a32cd" stroke="#9a32cd" points="249.812,-58.1041 239.634,-61.0466 249.425,-65.0934 249.812,-58.1041"/>
<text text-anchor="middle" x="328.5" y="-73.5" font-family="Helvetica,sans-Serif" font-size="10.00"> Decay</text>
</g>
<!-- Node5 -->
<g id="node5" class="node"><title>Node5</title>
<g id="a_node5"><a xlink:title="STL class. ">
<polygon fill="white" stroke="#bfbfbf" points="0,-44.5 0,-74.5 103,-74.5 103,-44.5 0,-44.5"/>
<text text-anchor="start" x="8" y="-62.5" font-family="Helvetica,sans-Serif" font-size="10.00">std::basic_string&lt;</text>
<text text-anchor="middle" x="51.5" y="-51.5" font-family="Helvetica,sans-Serif" font-size="10.00"> char &gt;</text>
</a>
</g>
</g>
<!-- Node5&#45;&gt;Node4 -->
<g id="edge4" class="edge"><title>Node5&#45;&gt;Node4</title>
<path fill="none" stroke="midnightblue" d="M113.25,-59.5C134.074,-59.5 156.544,-59.5 174.151,-59.5"/>
<polygon fill="midnightblue" stroke="midnightblue" points="113.187,-56.0001 103.187,-59.5 113.187,-63.0001 113.187,-56.0001"/>
</g>
<!-- Node6 -->
<g id="node6" class="node"><title>Node6</title>
<g id="a_node6"><a xlink:href="classant_1_1analysis_1_1_histogram_factory.html" target="_top" xlink:title="ant::analysis::Histogram\lFactory">
<polygon fill="white" stroke="black" points="140.5,-0.5 140.5,-30.5 273.5,-30.5 273.5,-0.5 140.5,-0.5"/>
<text text-anchor="start" x="148.5" y="-18.5" font-family="Helvetica,sans-Serif" font-size="10.00">ant::analysis::Histogram</text>
<text text-anchor="middle" x="207" y="-7.5" font-family="Helvetica,sans-Serif" font-size="10.00">Factory</text>
</a>
</g>
</g>
<!-- Node6&#45;&gt;Node1 -->
<g id="edge5" class="edge"><title>Node6&#45;&gt;Node1</title>
<path fill="none" stroke="#9a32cd" stroke-dasharray="5,2" d="M283.653,-30.0499C309.648,-35.6597 338.793,-42.6321 365,-50.5 380.993,-55.3014 398.291,-61.6795 413.01,-67.4774"/>
<polygon fill="#9a32cd" stroke="#9a32cd" points="284.366,-26.6234 273.857,-27.9676 282.91,-33.4704 284.366,-26.6234"/>
<text text-anchor="middle" x="328.5" y="-53.5" font-family="Helvetica,sans-Serif" font-size="10.00"> HistFac</text>
</g>
<!-- Node7&#45;&gt;Node1 -->
<g id="edge6" class="edge"><title>Node7&#45;&gt;Node1</title>
<path fill="none" stroke="#9a32cd" stroke-dasharray="5,2" d="M284.287,-100.27C315.992,-96.8494 352.439,-92.9174 382.975,-89.6231"/>
<polygon fill="#9a32cd" stroke="#9a32cd" points="283.74,-96.8085 274.173,-101.361 284.491,-103.768 283.74,-96.8085"/>
<text text-anchor="middle" x="328.5" y="-124.5" font-family="Helvetica,sans-Serif" font-size="10.00"> contamination</text>
<text text-anchor="middle" x="328.5" y="-113.5" font-family="Helvetica,sans-Serif" font-size="10.00">accepted</text>
<text text-anchor="middle" x="328.5" y="-102.5" font-family="Helvetica,sans-Serif" font-size="10.00">total</text>
</g>
</g>
</svg>
