<?xml version="1.0" encoding="UTF-8" standalone="no"?>
<!DOCTYPE svg PUBLIC "-//W3C//DTD SVG 1.1//EN"
 "http://www.w3.org/Graphics/SVG/1.1/DTD/svg11.dtd">
<!-- Generated by graphviz version 2.38.0 (20140413.2041)
 -->
<!-- Title: ant::calibration::gui::IndicatorLine Pages: 1 -->
<svg width="582pt" height="88pt"
 viewBox="0.00 0.00 582.00 88.00" xmlns="http://www.w3.org/2000/svg" xmlns:xlink="http://www.w3.org/1999/xlink">
<g id="graph0" class="graph" transform="scale(1 1) rotate(0) translate(4 84)">
<title>ant::calibration::gui::IndicatorLine</title>
<polygon fill="white" stroke="none" points="-4,4 -4,-84 578,-84 578,4 -4,4"/>
<!-- Node0 -->
<g id="node1" class="node"><title>Node0</title>
<polygon fill="#bfbfbf" stroke="black" points="298,-24.5 298,-54.5 406,-54.5 406,-24.5 298,-24.5"/>
<text text-anchor="start" x="306" y="-42.5" font-family="Helvetica,sans-Serif" font-size="10.00">ant::calibration::gui</text>
<text text-anchor="middle" x="352" y="-31.5" font-family="Helvetica,sans-Serif" font-size="10.00">::IndicatorLine</text>
</g>
<!-- Node4 -->
<g id="node5" class="node"><title>Node4</title>
<g id="a_node5"><a xlink:href="classant_1_1calibration_1_1gui_1_1_horizontal_indicator_line.html" target="_top" xlink:title="ant::calibration::gui\l::HorizontalIndicatorLine">
<polygon fill="white" stroke="black" points="442,-49.5 442,-79.5 574,-79.5 574,-49.5 442,-49.5"/>
<text text-anchor="start" x="450" y="-67.5" font-family="Helvetica,sans-Serif" font-size="10.00">ant::calibration::gui</text>
<text text-anchor="middle" x="508" y="-56.5" font-family="Helvetica,sans-Serif" font-size="10.00">::HorizontalIndicatorLine</text>
</a>
</g>
</g>
<!-- Node0&#45;&gt;Node4 -->
<g id="edge4" class="edge"><title>Node0&#45;&gt;Node4</title>
<path fill="none" stroke="midnightblue" d="M416.539,-49.8148C424.94,-51.1786 433.561,-52.5782 441.987,-53.9459"/>
<polygon fill="midnightblue" stroke="midnightblue" points="416.861,-46.3213 406.43,-48.1736 415.739,-53.2309 416.861,-46.3213"/>
</g>
<!-- Node5 -->
<g id="node6" class="node"><title>Node5</title>
<g id="a_node6"><a xlink:href="classant_1_1calibration_1_1gui_1_1_vertical_indicator_line.html" target="_top" xlink:title="ant::calibration::gui\l::VerticalIndicatorLine">
<polygon fill="white" stroke="black" points="448.5,-0.5 448.5,-30.5 567.5,-30.5 567.5,-0.5 448.5,-0.5"/>
<text text-anchor="start" x="456.5" y="-18.5" font-family="Helvetica,sans-Serif" font-size="10.00">ant::calibration::gui</text>
<text text-anchor="middle" x="508" y="-7.5" font-family="Helvetica,sans-Serif" font-size="10.00">::VerticalIndicatorLine</text>
</a>
</g>
</g>
<!-- Node0&#45;&gt;Node5 -->
<g id="edge5" class="edge"><title>Node0&#45;&gt;Node5</title>
<path fill="none" stroke="midnightblue" d="M416.439,-29.6135C427.019,-27.9646 437.952,-26.2607 448.405,-24.6317"/>
<polygon fill="midnightblue" stroke="midnightblue" points="415.771,-26.1751 406.43,-31.1733 416.849,-33.0916 415.771,-26.1751"/>
</g>
<!-- Node1 -->
<g id="node2" class="node"><title>Node1</title>
<polygon fill="white" stroke="#bfbfbf" points="187.5,-52 187.5,-71 228.5,-71 228.5,-52 187.5,-52"/>
<text text-anchor="middle" x="208" y="-59" font-family="Helvetica,sans-Serif" font-size="10.00">TLine</text>
</g>
<!-- Node1&#45;&gt;Node0 -->
<g id="edge1" class="edge"><title>Node1&#45;&gt;Node0</title>
<path fill="none" stroke="midnightblue" d="M238.696,-56.8992C255.795,-54.25 277.794,-50.8417 297.784,-47.7448"/>
<polygon fill="midnightblue" stroke="midnightblue" points="238.091,-53.4511 228.744,-58.441 239.162,-60.3686 238.091,-53.4511"/>
</g>
<!-- Node2 -->
<g id="node3" class="node"><title>Node2</title>
<g id="a_node3"><a xlink:href="classant_1_1calibration_1_1gui_1_1_indicator.html" target="_top" xlink:title="ant::calibration::gui\l::Indicator">
<polygon fill="white" stroke="black" points="154,-2.5 154,-32.5 262,-32.5 262,-2.5 154,-2.5"/>
<text text-anchor="start" x="162" y="-20.5" font-family="Helvetica,sans-Serif" font-size="10.00">ant::calibration::gui</text>
<text text-anchor="middle" x="208" y="-9.5" font-family="Helvetica,sans-Serif" font-size="10.00">::Indicator</text>
</a>
</g>
</g>
<!-- Node2&#45;&gt;Node0 -->
<g id="edge2" class="edge"><title>Node2&#45;&gt;Node0</title>
<path fill="none" stroke="midnightblue" d="M272.238,-27.2974C280.806,-28.6249 289.528,-29.9761 297.894,-31.2723"/>
<polygon fill="midnightblue" stroke="midnightblue" points="272.698,-23.827 262.28,-25.7546 271.626,-30.7444 272.698,-23.827"/>
</g>
<!-- Node3 -->
<g id="node4" class="node"><title>Node3</title>
<g id="a_node4"><a xlink:href="classant_1_1calibration_1_1gui_1_1update__notify__traits.html" target="_top" xlink:title="ant::calibration::gui\l::update_notify_traits">
<polygon fill="white" stroke="black" points="0,-2.5 0,-32.5 118,-32.5 118,-2.5 0,-2.5"/>
<text text-anchor="start" x="8" y="-20.5" font-family="Helvetica,sans-Serif" font-size="10.00">ant::calibration::gui</text>
<text text-anchor="middle" x="59" y="-9.5" font-family="Helvetica,sans-Serif" font-size="10.00">::update_notify_traits</text>
</a>
</g>
</g>
<!-- Node3&#45;&gt;Node2 -->
<g id="edge3" class="edge"><title>Node3&#45;&gt;Node2</title>
<path fill="none" stroke="midnightblue" d="M128.365,-17.5C136.845,-17.5 145.416,-17.5 153.624,-17.5"/>
<polygon fill="midnightblue" stroke="midnightblue" points="128.098,-14.0001 118.098,-17.5 128.098,-21.0001 128.098,-14.0001"/>
</g>
</g>
</svg>
