<?xml version="1.0" encoding="UTF-8" standalone="no"?>
<!DOCTYPE svg PUBLIC "-//W3C//DTD SVG 1.1//EN"
 "http://www.w3.org/Graphics/SVG/1.1/DTD/svg11.dtd">
<!-- Generated by graphviz version 2.38.0 (20140413.2041)
 -->
<!-- Title: ant::VarAxisSettings Pages: 1 -->
<svg width="398pt" height="173pt"
 viewBox="0.00 0.00 397.50 173.00" xmlns="http://www.w3.org/2000/svg" xmlns:xlink="http://www.w3.org/1999/xlink">
<g id="graph0" class="graph" transform="scale(1 1) rotate(0) translate(4 169)">
<title>ant::VarAxisSettings</title>
<polygon fill="white" stroke="none" points="-4,4 -4,-169 393.5,-169 393.5,4 -4,4"/>
<!-- Node3 -->
<g id="node1" class="node"><title>Node3</title>
<polygon fill="#bfbfbf" stroke="black" points="227.5,-0.5 227.5,-19.5 340.5,-19.5 340.5,-0.5 227.5,-0.5"/>
<text text-anchor="middle" x="284" y="-7.5" font-family="Helvetica,sans-Serif" font-size="10.00">ant::VarAxisSettings</text>
</g>
<!-- Node4 -->
<g id="node2" class="node"><title>Node4</title>
<g id="a_node2"><a xlink:href="classant_1_1_var_bin_settings.html" target="_top" xlink:title="ant::VarBinSettings">
<polygon fill="white" stroke="black" points="152.5,-67.5 152.5,-86.5 261.5,-86.5 261.5,-67.5 152.5,-67.5"/>
<text text-anchor="middle" x="207" y="-74.5" font-family="Helvetica,sans-Serif" font-size="10.00">ant::VarBinSettings</text>
</a>
</g>
</g>
<!-- Node4&#45;&gt;Node3 -->
<g id="edge1" class="edge"><title>Node4&#45;&gt;Node3</title>
<path fill="none" stroke="midnightblue" d="M225.109,-60.7134C240.279,-47.907 261.388,-30.0884 273.78,-19.6273"/>
<polygon fill="midnightblue" stroke="midnightblue" points="222.768,-58.1088 217.385,-67.2338 227.284,-63.4577 222.768,-58.1088"/>
</g>
<!-- Node5 -->
<g id="node3" class="node"><title>Node5</title>
<g id="a_node3"><a xlink:href="classant_1_1interval.html" target="_top" xlink:title="ant::interval\&lt; double \&gt;">
<polygon fill="white" stroke="black" points="0,-140 0,-159 128,-159 128,-140 0,-140"/>
<text text-anchor="middle" x="64" y="-147" font-family="Helvetica,sans-Serif" font-size="10.00">ant::interval&lt; double &gt;</text>
</a>
</g>
</g>
<!-- Node5&#45;&gt;Node4 -->
<g id="edge2" class="edge"><title>Node5&#45;&gt;Node4</title>
<path fill="none" stroke="midnightblue" d="M90.3721,-135.498C119.32,-121.227 164.961,-98.7253 189.69,-86.5341"/>
<polygon fill="midnightblue" stroke="midnightblue" points="88.6707,-132.435 81.2491,-139.996 91.7661,-138.713 88.6707,-132.435"/>
</g>
<!-- Node6 -->
<g id="node4" class="node"><title>Node6</title>
<polygon fill="white" stroke="#bfbfbf" points="146,-140 146,-159 268,-159 268,-140 146,-140"/>
<text text-anchor="middle" x="207" y="-147" font-family="Helvetica,sans-Serif" font-size="10.00">std::vector&lt; double &gt;</text>
</g>
<!-- Node6&#45;&gt;Node4 -->
<g id="edge3" class="edge"><title>Node6&#45;&gt;Node4</title>
<path fill="none" stroke="#9a32cd" stroke-dasharray="5,2" d="M207,-129.442C207,-115.53 207,-97.3203 207,-86.7154"/>
<polygon fill="#9a32cd" stroke="#9a32cd" points="203.5,-129.855 207,-139.855 210.5,-129.855 203.5,-129.855"/>
<text text-anchor="middle" x="233" y="-108" font-family="Helvetica,sans-Serif" font-size="10.00"> bin_edges</text>
</g>
<!-- Node7 -->
<g id="node5" class="node"><title>Node7</title>
<g id="a_node5"><a xlink:title="STL class. ">
<polygon fill="white" stroke="#bfbfbf" points="293.5,-67.5 293.5,-86.5 358.5,-86.5 358.5,-67.5 293.5,-67.5"/>
<text text-anchor="middle" x="326" y="-74.5" font-family="Helvetica,sans-Serif" font-size="10.00">std::string</text>
</a>
</g>
</g>
<!-- Node7&#45;&gt;Node3 -->
<g id="edge4" class="edge"><title>Node7&#45;&gt;Node3</title>
<path fill="none" stroke="#9a32cd" stroke-dasharray="5,2" d="M314.715,-58.5347C306.583,-45.9499 295.959,-29.5072 289.575,-19.6273"/>
<polygon fill="#9a32cd" stroke="#9a32cd" points="311.969,-60.7341 320.336,-67.2338 317.848,-56.9351 311.969,-60.7341"/>
<text text-anchor="middle" x="321" y="-41" font-family="Helvetica,sans-Serif" font-size="10.00"> label</text>
</g>
<!-- Node8 -->
<g id="node6" class="node"><title>Node8</title>
<g id="a_node6"><a xlink:title="STL class. ">
<polygon fill="white" stroke="#bfbfbf" points="286.5,-134.5 286.5,-164.5 389.5,-164.5 389.5,-134.5 286.5,-134.5"/>
<text text-anchor="start" x="294.5" y="-152.5" font-family="Helvetica,sans-Serif" font-size="10.00">std::basic_string&lt;</text>
<text text-anchor="middle" x="338" y="-141.5" font-family="Helvetica,sans-Serif" font-size="10.00"> char &gt;</text>
</a>
</g>
</g>
<!-- Node8&#45;&gt;Node7 -->
<g id="edge5" class="edge"><title>Node8&#45;&gt;Node7</title>
<path fill="none" stroke="midnightblue" d="M333.845,-124.091C331.653,-111.214 329.097,-96.1974 327.514,-86.8932"/>
<polygon fill="midnightblue" stroke="midnightblue" points="330.443,-124.962 335.572,-134.233 337.344,-123.788 330.443,-124.962"/>
</g>
</g>
</svg>
