<?xml version="1.0" encoding="UTF-8" standalone="no"?>
<!DOCTYPE svg PUBLIC "-//W3C//DTD SVG 1.1//EN"
 "http://www.w3.org/Graphics/SVG/1.1/DTD/svg11.dtd">
<!-- Generated by graphviz version 2.38.0 (20140413.2041)
 -->
<!-- Title: ant::calibration::ClusterCorrection Pages: 1 -->
<svg width="809pt" height="186pt"
 viewBox="0.00 0.00 809.00 186.00" xmlns="http://www.w3.org/2000/svg" xmlns:xlink="http://www.w3.org/1999/xlink">
<g id="graph0" class="graph" transform="scale(1 1) rotate(0) translate(4 182)">
<title>ant::calibration::ClusterCorrection</title>
<polygon fill="white" stroke="none" points="-4,4 -4,-182 805,-182 805,4 -4,4"/>
<!-- Node0 -->
<g id="node1" class="node"><title>Node0</title>
<polygon fill="#bfbfbf" stroke="black" points="345,-49.5 345,-79.5 473,-79.5 473,-49.5 345,-49.5"/>
<text text-anchor="start" x="353" y="-67.5" font-family="Helvetica,sans-Serif" font-size="10.00">ant::calibration::Cluster</text>
<text text-anchor="middle" x="409" y="-56.5" font-family="Helvetica,sans-Serif" font-size="10.00">Correction</text>
</g>
<!-- Node5 -->
<g id="node6" class="node"><title>Node5</title>
<g id="a_node6"><a xlink:href="classant_1_1calibration_1_1_cluster_correction_manual.html" target="_top" xlink:title="ant::calibration::Cluster\lCorrectionManual">
<polygon fill="white" stroke="black" points="509,-98.5 509,-128.5 637,-128.5 637,-98.5 509,-98.5"/>
<text text-anchor="start" x="517" y="-116.5" font-family="Helvetica,sans-Serif" font-size="10.00">ant::calibration::Cluster</text>
<text text-anchor="middle" x="573" y="-105.5" font-family="Helvetica,sans-Serif" font-size="10.00">CorrectionManual</text>
</a>
</g>
</g>
<!-- Node0&#45;&gt;Node5 -->
<g id="edge5" class="edge"><title>Node0&#45;&gt;Node5</title>
<path fill="none" stroke="midnightblue" d="M469.884,-82.6129C487.106,-87.8222 505.698,-93.4457 522.238,-98.4484"/>
<polygon fill="midnightblue" stroke="midnightblue" points="470.512,-79.1466 459.927,-79.6014 468.486,-85.8468 470.512,-79.1466"/>
</g>
<!-- Node9 -->
<g id="node10" class="node"><title>Node9</title>
<g id="a_node10"><a xlink:href="classant_1_1calibration_1_1_cluster_e_corr.html" target="_top" xlink:title="Cluster energy correction based on energy and cluster size. ">
<polygon fill="white" stroke="black" points="509,-49.5 509,-79.5 637,-79.5 637,-49.5 509,-49.5"/>
<text text-anchor="start" x="517" y="-67.5" font-family="Helvetica,sans-Serif" font-size="10.00">ant::calibration::Cluster</text>
<text text-anchor="middle" x="573" y="-56.5" font-family="Helvetica,sans-Serif" font-size="10.00">ECorr</text>
</a>
</g>
</g>
<!-- Node0&#45;&gt;Node9 -->
<g id="edge9" class="edge"><title>Node0&#45;&gt;Node9</title>
<path fill="none" stroke="midnightblue" d="M483.374,-64.5C491.865,-64.5 500.469,-64.5 508.808,-64.5"/>
<polygon fill="midnightblue" stroke="midnightblue" points="483.097,-61.0001 473.097,-64.5 483.097,-68.0001 483.097,-61.0001"/>
</g>
<!-- Node10 -->
<g id="node11" class="node"><title>Node10</title>
<g id="a_node11"><a xlink:href="classant_1_1calibration_1_1_cluster_smearing.html" target="_top" xlink:title="Cluster energy smearing based on energy and cos(theta) ">
<polygon fill="white" stroke="black" points="509,-0.5 509,-30.5 637,-30.5 637,-0.5 509,-0.5"/>
<text text-anchor="start" x="517" y="-18.5" font-family="Helvetica,sans-Serif" font-size="10.00">ant::calibration::Cluster</text>
<text text-anchor="middle" x="573" y="-7.5" font-family="Helvetica,sans-Serif" font-size="10.00">Smearing</text>
</a>
</g>
</g>
<!-- Node0&#45;&gt;Node10 -->
<g id="edge10" class="edge"><title>Node0&#45;&gt;Node10</title>
<path fill="none" stroke="midnightblue" d="M469.884,-46.3871C487.106,-41.1778 505.698,-35.5543 522.238,-30.5516"/>
<polygon fill="midnightblue" stroke="midnightblue" points="468.486,-43.1532 459.927,-49.3986 470.512,-49.8534 468.486,-43.1532"/>
</g>
<!-- Node1 -->
<g id="node2" class="node"><title>Node1</title>
<g id="a_node2"><a xlink:href="classant_1_1_calibration_1_1_base_module.html" target="_top" xlink:title="The BaseModule class provides a name for identification. ">
<polygon fill="white" stroke="black" points="155,-93 155,-112 309,-112 309,-93 155,-93"/>
<text text-anchor="middle" x="232" y="-100" font-family="Helvetica,sans-Serif" font-size="10.00">ant::Calibration::BaseModule</text>
</a>
</g>
</g>
<!-- Node1&#45;&gt;Node0 -->
<g id="edge1" class="edge"><title>Node1&#45;&gt;Node0</title>
<path fill="none" stroke="midnightblue" d="M287.032,-90.7673C305.27,-86.8071 325.792,-82.3509 344.682,-78.2491"/>
<polygon fill="midnightblue" stroke="midnightblue" points="286.189,-87.3686 277.16,-92.911 287.675,-94.2092 286.189,-87.3686"/>
</g>
<!-- Node2 -->
<g id="node3" class="node"><title>Node2</title>
<g id="a_node3"><a xlink:href="structant_1_1_updateable__traits.html" target="_top" xlink:title="The Updateable_traits class used by the UpdateableManager. ">
<polygon fill="white" stroke="black" points="170,-55 170,-74 294,-74 294,-55 170,-55"/>
<text text-anchor="middle" x="232" y="-62" font-family="Helvetica,sans-Serif" font-size="10.00">ant::Updateable_traits</text>
</a>
</g>
</g>
<!-- Node2&#45;&gt;Node0 -->
<g id="edge2" class="edge"><title>Node2&#45;&gt;Node0</title>
<path fill="none" stroke="midnightblue" d="M304.323,-64.5C317.713,-64.5 331.627,-64.5 344.751,-64.5"/>
<polygon fill="midnightblue" stroke="midnightblue" points="304.207,-61.0001 294.207,-64.5 304.206,-68.0001 304.207,-61.0001"/>
</g>
<!-- Node3 -->
<g id="node4" class="node"><title>Node3</title>
<g id="a_node4"><a xlink:href="structant_1_1_reconstruct_hook_1_1_clusters.html" target="_top" xlink:title="The Clusters struct instances are applied before candidate matching and after clustering. ">
<polygon fill="white" stroke="black" points="172.5,-5.5 172.5,-35.5 291.5,-35.5 291.5,-5.5 172.5,-5.5"/>
<text text-anchor="start" x="180.5" y="-23.5" font-family="Helvetica,sans-Serif" font-size="10.00">ant::ReconstructHook</text>
<text text-anchor="middle" x="232" y="-12.5" font-family="Helvetica,sans-Serif" font-size="10.00">::Clusters</text>
</a>
</g>
</g>
<!-- Node3&#45;&gt;Node0 -->
<g id="edge3" class="edge"><title>Node3&#45;&gt;Node0</title>
<path fill="none" stroke="midnightblue" d="M301.714,-37.7766C317.071,-41.6379 333.239,-45.703 348.202,-49.4651"/>
<polygon fill="midnightblue" stroke="midnightblue" points="302.311,-34.3179 291.759,-35.2738 300.604,-41.1066 302.311,-34.3179"/>
</g>
<!-- Node4 -->
<g id="node5" class="node"><title>Node4</title>
<g id="a_node5"><a xlink:href="structant_1_1_reconstruct_hook_1_1_base.html" target="_top" xlink:title="The Base struct just defines some useful types. ">
<polygon fill="white" stroke="black" points="0,-5.5 0,-35.5 119,-35.5 119,-5.5 0,-5.5"/>
<text text-anchor="start" x="8" y="-23.5" font-family="Helvetica,sans-Serif" font-size="10.00">ant::ReconstructHook</text>
<text text-anchor="middle" x="59.5" y="-12.5" font-family="Helvetica,sans-Serif" font-size="10.00">::Base</text>
</a>
</g>
</g>
<!-- Node4&#45;&gt;Node3 -->
<g id="edge4" class="edge"><title>Node4&#45;&gt;Node3</title>
<path fill="none" stroke="midnightblue" d="M129.382,-20.5C143.582,-20.5 158.413,-20.5 172.215,-20.5"/>
<polygon fill="midnightblue" stroke="midnightblue" points="129.176,-17.0001 119.176,-20.5 129.176,-24.0001 129.176,-17.0001"/>
</g>
<!-- Node6 -->
<g id="node7" class="node"><title>Node6</title>
<g id="a_node7"><a xlink:href="classant_1_1calibration_1_1_cluster_corr_factor.html" target="_top" xlink:title="Manually set additional cluster energy correction factor. ">
<polygon fill="white" stroke="black" points="673,-147.5 673,-177.5 801,-177.5 801,-147.5 673,-147.5"/>
<text text-anchor="start" x="681" y="-165.5" font-family="Helvetica,sans-Serif" font-size="10.00">ant::calibration::Cluster</text>
<text text-anchor="middle" x="737" y="-154.5" font-family="Helvetica,sans-Serif" font-size="10.00">CorrFactor</text>
</a>
</g>
</g>
<!-- Node5&#45;&gt;Node6 -->
<g id="edge6" class="edge"><title>Node5&#45;&gt;Node6</title>
<path fill="none" stroke="midnightblue" d="M633.884,-131.613C651.106,-136.822 669.698,-142.446 686.238,-147.448"/>
<polygon fill="midnightblue" stroke="midnightblue" points="634.512,-128.147 623.927,-128.601 632.486,-134.847 634.512,-128.147"/>
</g>
<!-- Node7 -->
<g id="node8" class="node"><title>Node7</title>
<g id="a_node8"><a xlink:href="classant_1_1calibration_1_1_cluster_corr_offset.html" target="_top" xlink:title="Manually set cluster energy offset. ">
<polygon fill="white" stroke="black" points="673,-98.5 673,-128.5 801,-128.5 801,-98.5 673,-98.5"/>
<text text-anchor="start" x="681" y="-116.5" font-family="Helvetica,sans-Serif" font-size="10.00">ant::calibration::Cluster</text>
<text text-anchor="middle" x="737" y="-105.5" font-family="Helvetica,sans-Serif" font-size="10.00">CorrOffset</text>
</a>
</g>
</g>
<!-- Node5&#45;&gt;Node7 -->
<g id="edge7" class="edge"><title>Node5&#45;&gt;Node7</title>
<path fill="none" stroke="midnightblue" d="M647.374,-113.5C655.865,-113.5 664.469,-113.5 672.808,-113.5"/>
<polygon fill="midnightblue" stroke="midnightblue" points="647.097,-110 637.097,-113.5 647.097,-117 647.097,-110"/>
</g>
<!-- Node8 -->
<g id="node9" class="node"><title>Node8</title>
<g id="a_node9"><a xlink:href="classant_1_1calibration_1_1_cluster_corr_smearing.html" target="_top" xlink:title="Manually add an additional cluster energy smearing. ">
<polygon fill="white" stroke="black" points="673,-49.5 673,-79.5 801,-79.5 801,-49.5 673,-49.5"/>
<text text-anchor="start" x="681" y="-67.5" font-family="Helvetica,sans-Serif" font-size="10.00">ant::calibration::Cluster</text>
<text text-anchor="middle" x="737" y="-56.5" font-family="Helvetica,sans-Serif" font-size="10.00">CorrSmearing</text>
</a>
</g>
</g>
<!-- Node5&#45;&gt;Node8 -->
<g id="edge8" class="edge"><title>Node5&#45;&gt;Node8</title>
<path fill="none" stroke="midnightblue" d="M633.884,-95.3871C651.106,-90.1778 669.698,-84.5543 686.238,-79.5516"/>
<polygon fill="midnightblue" stroke="midnightblue" points="632.486,-92.1532 623.927,-98.3986 634.512,-98.8534 632.486,-92.1532"/>
</g>
</g>
</svg>
