<?xml version="1.0" encoding="UTF-8" standalone="no"?>
<!DOCTYPE svg PUBLIC "-//W3C//DTD SVG 1.1//EN"
 "http://www.w3.org/Graphics/SVG/1.1/DTD/svg11.dtd">
<!-- Generated by graphviz version 2.38.0 (20140413.2041)
 -->
<!-- Title: ant::ExpConfig::Exception Pages: 1 -->
<svg width="302pt" height="207pt"
 viewBox="0.00 0.00 302.00 207.00" xmlns="http://www.w3.org/2000/svg" xmlns:xlink="http://www.w3.org/1999/xlink">
<g id="graph0" class="graph" transform="scale(1 1) rotate(0) translate(4 203)">
<title>ant::ExpConfig::Exception</title>
<polygon fill="white" stroke="none" points="-4,4 -4,-203 298,-203 298,4 -4,4"/>
<!-- Node0 -->
<g id="node1" class="node"><title>Node0</title>
<polygon fill="#bfbfbf" stroke="black" points="78,-67.5 78,-86.5 216,-86.5 216,-67.5 78,-67.5"/>
<text text-anchor="middle" x="147" y="-74.5" font-family="Helvetica,sans-Serif" font-size="10.00">ant::ExpConfig::Exception</text>
</g>
<!-- Node3 -->
<g id="node4" class="node"><title>Node3</title>
<g id="a_node4"><a xlink:href="classant_1_1_exp_config_1_1_exception_no_detector.html" target="_top" xlink:title="ant::ExpConfig::Exception\lNoDetector">
<polygon fill="white" stroke="black" points="0,-0.5 0,-30.5 138,-30.5 138,-0.5 0,-0.5"/>
<text text-anchor="start" x="8" y="-18.5" font-family="Helvetica,sans-Serif" font-size="10.00">ant::ExpConfig::Exception</text>
<text text-anchor="middle" x="69" y="-7.5" font-family="Helvetica,sans-Serif" font-size="10.00">NoDetector</text>
</a>
</g>
</g>
<!-- Node0&#45;&gt;Node3 -->
<g id="edge3" class="edge"><title>Node0&#45;&gt;Node3</title>
<path fill="none" stroke="midnightblue" d="M127.592,-61.1955C115.293,-51.8129 99.4806,-39.7512 87.3831,-30.523"/>
<polygon fill="midnightblue" stroke="midnightblue" points="125.751,-64.1928 135.825,-67.4751 129.996,-58.6272 125.751,-64.1928"/>
</g>
<!-- Node4 -->
<g id="node5" class="node"><title>Node4</title>
<g id="a_node5"><a xlink:href="classant_1_1_exp_config_1_1_exception_no_setup.html" target="_top" xlink:title="ant::ExpConfig::Exception\lNoSetup">
<polygon fill="white" stroke="black" points="156,-0.5 156,-30.5 294,-30.5 294,-0.5 156,-0.5"/>
<text text-anchor="start" x="164" y="-18.5" font-family="Helvetica,sans-Serif" font-size="10.00">ant::ExpConfig::Exception</text>
<text text-anchor="middle" x="225" y="-7.5" font-family="Helvetica,sans-Serif" font-size="10.00">NoSetup</text>
</a>
</g>
</g>
<!-- Node0&#45;&gt;Node4 -->
<g id="edge4" class="edge"><title>Node0&#45;&gt;Node4</title>
<path fill="none" stroke="midnightblue" d="M166.408,-61.1955C178.707,-51.8129 194.519,-39.7512 206.617,-30.523"/>
<polygon fill="midnightblue" stroke="midnightblue" points="164.004,-58.6272 158.175,-67.4751 168.249,-64.1928 164.004,-58.6272"/>
</g>
<!-- Node1 -->
<g id="node2" class="node"><title>Node1</title>
<g id="a_node2"><a xlink:title="STL class. ">
<polygon fill="white" stroke="#bfbfbf" points="95,-123.5 95,-142.5 199,-142.5 199,-123.5 95,-123.5"/>
<text text-anchor="middle" x="147" y="-130.5" font-family="Helvetica,sans-Serif" font-size="10.00">std::runtime_error</text>
</a>
</g>
</g>
<!-- Node1&#45;&gt;Node0 -->
<g id="edge1" class="edge"><title>Node1&#45;&gt;Node0</title>
<path fill="none" stroke="midnightblue" d="M147,-112.805C147,-103.91 147,-93.7798 147,-86.7511"/>
<polygon fill="midnightblue" stroke="midnightblue" points="143.5,-113.083 147,-123.083 150.5,-113.083 143.5,-113.083"/>
</g>
<!-- Node2 -->
<g id="node3" class="node"><title>Node2</title>
<g id="a_node3"><a xlink:title="STL class. ">
<polygon fill="white" stroke="#bfbfbf" points="105,-179.5 105,-198.5 189,-198.5 189,-179.5 105,-179.5"/>
<text text-anchor="middle" x="147" y="-186.5" font-family="Helvetica,sans-Serif" font-size="10.00">std::exception</text>
</a>
</g>
</g>
<!-- Node2&#45;&gt;Node1 -->
<g id="edge2" class="edge"><title>Node2&#45;&gt;Node1</title>
<path fill="none" stroke="midnightblue" d="M147,-168.805C147,-159.91 147,-149.78 147,-142.751"/>
<polygon fill="midnightblue" stroke="midnightblue" points="143.5,-169.083 147,-179.083 150.5,-169.083 143.5,-169.083"/>
</g>
</g>
</svg>
