<?xml version="1.0" encoding="UTF-8" standalone="no"?>
<!DOCTYPE svg PUBLIC "-//W3C//DTD SVG 1.1//EN"
 "http://www.w3.org/Graphics/SVG/1.1/DTD/svg11.dtd">
<!-- Generated by graphviz version 2.38.0 (20140413.2041)
 -->
<!-- Title: ant::analysis::physics::McTrue3Pi0 Pages: 1 -->
<svg width="588pt" height="218pt"
 viewBox="0.00 0.00 588.00 217.50" xmlns="http://www.w3.org/2000/svg" xmlns:xlink="http://www.w3.org/1999/xlink">
<g id="graph0" class="graph" transform="scale(1 1) rotate(0) translate(4 213.5)">
<title>ant::analysis::physics::McTrue3Pi0</title>
<polygon fill="white" stroke="none" points="-4,4 -4,-213.5 584,-213.5 584,4 -4,4"/>
<!-- Node2 -->
<g id="node1" class="node"><title>Node2</title>
<polygon fill="#bfbfbf" stroke="black" points="462,-88 462,-118 580,-118 580,-88 462,-88"/>
<text text-anchor="start" x="470" y="-106" font-family="Helvetica,sans-Serif" font-size="10.00">ant::analysis::physics</text>
<text text-anchor="middle" x="521" y="-95" font-family="Helvetica,sans-Serif" font-size="10.00">::McTrue3Pi0</text>
</g>
<!-- Node3 -->
<g id="node2" class="node"><title>Node3</title>
<g id="a_node2"><a xlink:href="classant_1_1analysis_1_1_physics.html" target="_top" xlink:title="ant::analysis::Physics">
<polygon fill="white" stroke="black" points="229.5,-184.5 229.5,-203.5 347.5,-203.5 347.5,-184.5 229.5,-184.5"/>
<text text-anchor="middle" x="288.5" y="-191.5" font-family="Helvetica,sans-Serif" font-size="10.00">ant::analysis::Physics</text>
</a>
</g>
</g>
<!-- Node3&#45;&gt;Node2 -->
<g id="edge1" class="edge"><title>Node3&#45;&gt;Node2</title>
<path fill="none" stroke="midnightblue" d="M357.896,-191.086C385.647,-187.858 417.37,-181.464 444,-169 469.799,-156.925 493.556,-133.47 507.412,-118.021"/>
<polygon fill="midnightblue" stroke="midnightblue" points="357.449,-187.614 347.868,-192.138 358.179,-194.576 357.449,-187.614"/>
</g>
<!-- Node4 -->
<g id="node3" class="node"><title>Node4</title>
<g id="a_node3"><a xlink:href="classant_1_1analysis_1_1_histogram_factory.html" target="_top" xlink:title="ant::analysis::Histogram\lFactory">
<polygon fill="white" stroke="black" points="0.5,-179 0.5,-209 133.5,-209 133.5,-179 0.5,-179"/>
<text text-anchor="start" x="8.5" y="-197" font-family="Helvetica,sans-Serif" font-size="10.00">ant::analysis::Histogram</text>
<text text-anchor="middle" x="67" y="-186" font-family="Helvetica,sans-Serif" font-size="10.00">Factory</text>
</a>
</g>
</g>
<!-- Node4&#45;&gt;Node3 -->
<g id="edge2" class="edge"><title>Node4&#45;&gt;Node3</title>
<path fill="none" stroke="#9a32cd" stroke-dasharray="5,2" d="M143.73,-194C171.779,-194 203.118,-194 229.36,-194"/>
<polygon fill="#9a32cd" stroke="#9a32cd" points="143.56,-190.5 133.56,-194 143.56,-197.5 143.56,-190.5"/>
<text text-anchor="middle" x="176.5" y="-197" font-family="Helvetica,sans-Serif" font-size="10.00"> HistFac</text>
</g>
<!-- Node5 -->
<g id="node4" class="node"><title>Node5</title>
<g id="a_node4"><a xlink:href="structant_1_1analysis_1_1utils_1_1_particle_vars.html" target="_top" xlink:title="ant::analysis::utils\l::ParticleVars">
<polygon fill="white" stroke="black" points="16,-119 16,-149 118,-149 118,-119 16,-119"/>
<text text-anchor="start" x="24" y="-137" font-family="Helvetica,sans-Serif" font-size="10.00">ant::analysis::utils</text>
<text text-anchor="middle" x="67" y="-126" font-family="Helvetica,sans-Serif" font-size="10.00">::ParticleVars</text>
</a>
</g>
</g>
<!-- Node5&#45;&gt;Node2 -->
<g id="edge3" class="edge"><title>Node5&#45;&gt;Node2</title>
<path fill="none" stroke="#9a32cd" stroke-dasharray="5,2" d="M128.253,-139.35C203.015,-144.585 334.067,-149.148 444,-129 457.031,-126.612 470.856,-122.416 483.092,-118.082"/>
<polygon fill="#9a32cd" stroke="#9a32cd" points="128.314,-135.846 118.086,-138.61 127.805,-142.827 128.314,-135.846"/>
<text text-anchor="middle" x="288.5" y="-147" font-family="Helvetica,sans-Serif" font-size="10.00"> proton</text>
</g>
<!-- Node6 -->
<g id="node5" class="node"><title>Node6</title>
<polygon fill="white" stroke="#bfbfbf" points="219,-88 219,-118 358,-118 358,-88 219,-88"/>
<text text-anchor="start" x="227" y="-106" font-family="Helvetica,sans-Serif" font-size="10.00">std::vector&lt; ant::analysis</text>
<text text-anchor="middle" x="288.5" y="-95" font-family="Helvetica,sans-Serif" font-size="10.00">::utils::ParticleVars &gt;</text>
</g>
<!-- Node5&#45;&gt;Node6 -->
<g id="edge5" class="edge"><title>Node5&#45;&gt;Node6</title>
<path fill="none" stroke="#9a32cd" stroke-dasharray="5,2" d="M128.166,-125.503C156.26,-121.535 189.842,-116.792 218.917,-112.686"/>
<polygon fill="#9a32cd" stroke="#9a32cd" points="127.495,-122.063 118.083,-126.927 128.474,-128.994 127.495,-122.063"/>
<text text-anchor="middle" x="176.5" y="-125" font-family="Helvetica,sans-Serif" font-size="10.00"> elements</text>
</g>
<!-- Node6&#45;&gt;Node2 -->
<g id="edge4" class="edge"><title>Node6&#45;&gt;Node2</title>
<path fill="none" stroke="#9a32cd" stroke-dasharray="5,2" d="M368.278,-103C398.963,-103 433.494,-103 461.853,-103"/>
<polygon fill="#9a32cd" stroke="#9a32cd" points="368.034,-99.5001 358.034,-103 368.033,-106.5 368.034,-99.5001"/>
<text text-anchor="middle" x="410" y="-117" font-family="Helvetica,sans-Serif" font-size="10.00"> pi0s</text>
<text text-anchor="middle" x="410" y="-106" font-family="Helvetica,sans-Serif" font-size="10.00">gammas</text>
</g>
<!-- Node7 -->
<g id="node6" class="node"><title>Node7</title>
<polygon fill="white" stroke="#bfbfbf" points="223.5,-39 223.5,-69 353.5,-69 353.5,-39 223.5,-39"/>
<text text-anchor="start" x="231.5" y="-57" font-family="Helvetica,sans-Serif" font-size="10.00">std::vector&lt; std::vector</text>
<text text-anchor="middle" x="288.5" y="-46" font-family="Helvetica,sans-Serif" font-size="10.00">&lt; unsigned &gt; &gt;</text>
</g>
<!-- Node7&#45;&gt;Node2 -->
<g id="edge6" class="edge"><title>Node7&#45;&gt;Node2</title>
<path fill="none" stroke="#9a32cd" stroke-dasharray="5,2" d="M363.816,-69.7981C395.508,-76.5354 431.948,-84.2817 461.654,-90.5966"/>
<polygon fill="#9a32cd" stroke="#9a32cd" points="364.216,-66.3052 353.707,-67.6492 362.761,-73.1522 364.216,-66.3052"/>
<text text-anchor="middle" x="410" y="-89" font-family="Helvetica,sans-Serif" font-size="10.00"> combinations</text>
</g>
<!-- Node8 -->
<g id="node7" class="node"><title>Node8</title>
<polygon fill="white" stroke="#bfbfbf" points="0,-44.5 0,-63.5 134,-63.5 134,-44.5 0,-44.5"/>
<text text-anchor="middle" x="67" y="-51.5" font-family="Helvetica,sans-Serif" font-size="10.00">std::vector&lt; unsigned &gt;</text>
</g>
<!-- Node8&#45;&gt;Node7 -->
<g id="edge7" class="edge"><title>Node8&#45;&gt;Node7</title>
<path fill="none" stroke="#9a32cd" stroke-dasharray="5,2" d="M144.27,-54C170.072,-54 198.603,-54 223.366,-54"/>
<polygon fill="#9a32cd" stroke="#9a32cd" points="144.155,-50.5001 134.155,-54 144.155,-57.5001 144.155,-50.5001"/>
<text text-anchor="middle" x="176.5" y="-57" font-family="Helvetica,sans-Serif" font-size="10.00"> elements</text>
</g>
<!-- Node9 -->
<g id="node8" class="node"><title>Node9</title>
<polygon fill="white" stroke="#bfbfbf" points="227.5,-0.5 227.5,-19.5 349.5,-19.5 349.5,-0.5 227.5,-0.5"/>
<text text-anchor="middle" x="288.5" y="-7.5" font-family="Helvetica,sans-Serif" font-size="10.00">std::vector&lt; double &gt;</text>
</g>
<!-- Node9&#45;&gt;Node2 -->
<g id="edge8" class="edge"><title>Node9&#45;&gt;Node2</title>
<path fill="none" stroke="#9a32cd" stroke-dasharray="5,2" d="M335.334,-22.3394C342.925,-24.4902 350.699,-26.7584 358,-29 396.56,-40.8395 407.334,-41.1879 444,-58 462.678,-66.564 482.625,-78.492 497.396,-87.9158"/>
<polygon fill="#9a32cd" stroke="#9a32cd" points="336.087,-18.9159 325.514,-19.5916 334.201,-25.6569 336.087,-18.9159"/>
<text text-anchor="middle" x="410" y="-61" font-family="Helvetica,sans-Serif" font-size="10.00"> popens</text>
</g>
</g>
</svg>
