<?xml version="1.0" encoding="UTF-8" standalone="no"?>
<!DOCTYPE svg PUBLIC "-//W3C//DTD SVG 1.1//EN"
 "http://www.w3.org/Graphics/SVG/1.1/DTD/svg11.dtd">
<!-- Generated by graphviz version 2.38.0 (20140413.2041)
 -->
<!-- Title: ant::calibration::gui::CalCanvas Pages: 1 -->
<svg width="1294pt" height="305pt"
 viewBox="0.00 0.00 1294.00 304.50" xmlns="http://www.w3.org/2000/svg" xmlns:xlink="http://www.w3.org/1999/xlink">
<g id="graph0" class="graph" transform="scale(1 1) rotate(0) translate(4 300.5)">
<title>ant::calibration::gui::CalCanvas</title>
<polygon fill="white" stroke="none" points="-4,4 -4,-300.5 1290,-300.5 1290,4 -4,4"/>
<!-- Node3 -->
<g id="node1" class="node"><title>Node3</title>
<polygon fill="#bfbfbf" stroke="black" points="1178,-163.5 1178,-193.5 1286,-193.5 1286,-163.5 1178,-163.5"/>
<text text-anchor="start" x="1186" y="-181.5" font-family="Helvetica,sans-Serif" font-size="10.00">ant::calibration::gui</text>
<text text-anchor="middle" x="1232" y="-170.5" font-family="Helvetica,sans-Serif" font-size="10.00">::CalCanvas</text>
</g>
<!-- Node4 -->
<g id="node2" class="node"><title>Node4</title>
<polygon fill="white" stroke="#bfbfbf" points="973,-277 973,-296 1029,-296 1029,-277 973,-277"/>
<text text-anchor="middle" x="1001" y="-284" font-family="Helvetica,sans-Serif" font-size="10.00">TCanvas</text>
</g>
<!-- Node4&#45;&gt;Node3 -->
<g id="edge1" class="edge"><title>Node4&#45;&gt;Node3</title>
<path fill="none" stroke="midnightblue" d="M1039.6,-288.038C1073.2,-287.795 1122.74,-283.335 1160,-262.5 1189.17,-246.19 1211.63,-212.925 1222.93,-193.508"/>
<polygon fill="midnightblue" stroke="midnightblue" points="1039.3,-284.536 1029.28,-287.984 1039.27,-291.536 1039.3,-284.536"/>
</g>
<!-- Node5 -->
<g id="node3" class="node"><title>Node5</title>
<g id="a_node3"><a xlink:href="classant_1_1calibration_1_1gui_1_1update__notify__traits.html" target="_top" xlink:title="ant::calibration::gui\l::update_notify_traits">
<polygon fill="white" stroke="black" points="492.5,-211.5 492.5,-241.5 610.5,-241.5 610.5,-211.5 492.5,-211.5"/>
<text text-anchor="start" x="500.5" y="-229.5" font-family="Helvetica,sans-Serif" font-size="10.00">ant::calibration::gui</text>
<text text-anchor="middle" x="551.5" y="-218.5" font-family="Helvetica,sans-Serif" font-size="10.00">::update_notify_traits</text>
</a>
</g>
</g>
<!-- Node5&#45;&gt;Node3 -->
<g id="edge2" class="edge"><title>Node5&#45;&gt;Node3</title>
<path fill="none" stroke="midnightblue" d="M620.883,-232.443C721.159,-239.904 913.788,-249.469 1076,-229.5 1114.19,-224.798 1123.5,-220.692 1160,-208.5 1172.69,-204.26 1186.3,-198.755 1198.18,-193.62"/>
<polygon fill="midnightblue" stroke="midnightblue" points="621.12,-228.951 610.884,-231.683 620.59,-235.931 621.12,-228.951"/>
</g>
<!-- Node7 -->
<g id="node5" class="node"><title>Node7</title>
<g id="a_node5"><a xlink:href="classant_1_1calibration_1_1gui_1_1_indicator.html" target="_top" xlink:title="ant::calibration::gui\l::Indicator">
<polygon fill="white" stroke="black" points="720,-189.5 720,-219.5 828,-219.5 828,-189.5 720,-189.5"/>
<text text-anchor="start" x="728" y="-207.5" font-family="Helvetica,sans-Serif" font-size="10.00">ant::calibration::gui</text>
<text text-anchor="middle" x="774" y="-196.5" font-family="Helvetica,sans-Serif" font-size="10.00">::Indicator</text>
</a>
</g>
</g>
<!-- Node5&#45;&gt;Node7 -->
<g id="edge5" class="edge"><title>Node5&#45;&gt;Node7</title>
<path fill="none" stroke="midnightblue" d="M620.854,-219.68C652.704,-216.502 690.033,-212.778 719.746,-209.813"/>
<polygon fill="midnightblue" stroke="midnightblue" points="620.325,-216.215 610.722,-220.691 621.02,-223.181 620.325,-216.215"/>
</g>
<!-- Node6 -->
<g id="node4" class="node"><title>Node6</title>
<polygon fill="white" stroke="#bfbfbf" points="934,-189.5 934,-219.5 1068,-219.5 1068,-189.5 934,-189.5"/>
<text text-anchor="start" x="942" y="-207.5" font-family="Helvetica,sans-Serif" font-size="10.00">std::list&lt; ant::calibration</text>
<text text-anchor="middle" x="1001" y="-196.5" font-family="Helvetica,sans-Serif" font-size="10.00">::gui::Indicator *&gt;</text>
</g>
<!-- Node6&#45;&gt;Node3 -->
<g id="edge3" class="edge"><title>Node6&#45;&gt;Node3</title>
<path fill="none" stroke="#9a32cd" stroke-dasharray="5,2" d="M1078.22,-195.846C1110.94,-192.132 1148.36,-187.883 1177.98,-184.52"/>
<polygon fill="#9a32cd" stroke="#9a32cd" points="1077.78,-192.374 1068.24,-196.98 1078.57,-199.329 1077.78,-192.374"/>
<text text-anchor="middle" x="1127" y="-196.5" font-family="Helvetica,sans-Serif" font-size="10.00"> indicators</text>
</g>
<!-- Node7&#45;&gt;Node6 -->
<g id="edge4" class="edge"><title>Node7&#45;&gt;Node6</title>
<path fill="none" stroke="#9a32cd" stroke-dasharray="5,2" d="M838.301,-204.5C868.043,-204.5 903.498,-204.5 933.619,-204.5"/>
<polygon fill="#9a32cd" stroke="#9a32cd" points="838.037,-201 828.037,-204.5 838.037,-208 838.037,-201"/>
<text text-anchor="middle" x="883.5" y="-207.5" font-family="Helvetica,sans-Serif" font-size="10.00"> elements</text>
</g>
<!-- Node8 -->
<g id="node6" class="node"><title>Node8</title>
<polygon fill="white" stroke="#bfbfbf" points="938.5,-140.5 938.5,-170.5 1063.5,-170.5 1063.5,-140.5 938.5,-140.5"/>
<text text-anchor="start" x="946.5" y="-158.5" font-family="Helvetica,sans-Serif" font-size="10.00">std::stack&lt; FitFunction</text>
<text text-anchor="middle" x="1001" y="-147.5" font-family="Helvetica,sans-Serif" font-size="10.00">::SavedState_t &gt;</text>
</g>
<!-- Node8&#45;&gt;Node3 -->
<g id="edge6" class="edge"><title>Node8&#45;&gt;Node3</title>
<path fill="none" stroke="#9a32cd" stroke-dasharray="5,2" d="M1073.88,-157.502C1100.95,-158.805 1131.96,-160.954 1160,-164.5 1165.73,-165.225 1171.7,-166.142 1177.63,-167.157"/>
<polygon fill="#9a32cd" stroke="#9a32cd" points="1073.86,-153.998 1063.71,-157.043 1073.54,-160.991 1073.86,-153.998"/>
<text text-anchor="middle" x="1127" y="-167.5" font-family="Helvetica,sans-Serif" font-size="10.00"> UndoStack</text>
</g>
<!-- Node9 -->
<g id="node7" class="node"><title>Node9</title>
<g id="a_node7"><a xlink:title="STL class. ">
<polygon fill="white" stroke="#bfbfbf" points="726.5,-146 726.5,-165 821.5,-165 821.5,-146 726.5,-146"/>
<text text-anchor="middle" x="774" y="-153" font-family="Helvetica,sans-Serif" font-size="10.00">std::vector&lt; T &gt;</text>
</a>
</g>
</g>
<!-- Node9&#45;&gt;Node8 -->
<g id="edge7" class="edge"><title>Node9&#45;&gt;Node8</title>
<path fill="none" stroke="#9a32cd" stroke-dasharray="5,2" d="M831.87,-155.5C864.397,-155.5 905.215,-155.5 938.488,-155.5"/>
<polygon fill="#9a32cd" stroke="#9a32cd" points="831.62,-152 821.62,-155.5 831.62,-159 831.62,-152"/>
<text text-anchor="middle" x="883.5" y="-158.5" font-family="Helvetica,sans-Serif" font-size="10.00"> elements</text>
</g>
<!-- Node10 -->
<g id="node8" class="node"><title>Node10</title>
<polygon fill="white" stroke="#bfbfbf" points="537,-146 537,-165 566,-165 566,-146 537,-146"/>
<text text-anchor="middle" x="551.5" y="-153" font-family="Helvetica,sans-Serif" font-size="10.00">T</text>
</g>
<!-- Node10&#45;&gt;Node9 -->
<g id="edge8" class="edge"><title>Node10&#45;&gt;Node9</title>
<path fill="none" stroke="#9a32cd" stroke-dasharray="5,2" d="M576.756,-155.5C612.663,-155.5 680.636,-155.5 726.383,-155.5"/>
<polygon fill="#9a32cd" stroke="#9a32cd" points="576.293,-152 566.293,-155.5 576.293,-159 576.293,-152"/>
<text text-anchor="middle" x="664.5" y="-158.5" font-family="Helvetica,sans-Serif" font-size="10.00"> elements</text>
</g>
<!-- Node11 -->
<g id="node9" class="node"><title>Node11</title>
<g id="a_node9"><a xlink:href="structant_1_1calibration_1_1gui_1_1_cal_canvas_1_1axis__settings__t.html" target="_top" xlink:title="ant::calibration::gui\l::CalCanvas::axis_settings_t">
<polygon fill="white" stroke="black" points="926,-91.5 926,-121.5 1076,-121.5 1076,-91.5 926,-91.5"/>
<text text-anchor="start" x="934" y="-109.5" font-family="Helvetica,sans-Serif" font-size="10.00">ant::calibration::gui</text>
<text text-anchor="middle" x="1001" y="-98.5" font-family="Helvetica,sans-Serif" font-size="10.00">::CalCanvas::axis_settings_t</text>
</a>
</g>
</g>
<!-- Node11&#45;&gt;Node3 -->
<g id="edge9" class="edge"><title>Node11&#45;&gt;Node3</title>
<path fill="none" stroke="#9a32cd" stroke-dasharray="5,2" d="M1085.97,-123.23C1110.17,-128.979 1136.4,-136.117 1160,-144.5 1174.55,-149.669 1190.09,-156.9 1202.91,-163.364"/>
<polygon fill="#9a32cd" stroke="#9a32cd" points="1086.63,-119.789 1076.1,-120.933 1085.04,-126.607 1086.63,-119.789"/>
<text text-anchor="middle" x="1127" y="-147.5" font-family="Helvetica,sans-Serif" font-size="10.00"> axis_settings</text>
</g>
<!-- Node12 -->
<g id="node10" class="node"><title>Node12</title>
<g id="a_node10"><a xlink:href="classant_1_1calibration_1_1gui_1_1_fit_function.html" target="_top" xlink:title="ant::calibration::gui\l::FitFunction">
<polygon fill="white" stroke="black" points="947,-42.5 947,-72.5 1055,-72.5 1055,-42.5 947,-42.5"/>
<text text-anchor="start" x="955" y="-60.5" font-family="Helvetica,sans-Serif" font-size="10.00">ant::calibration::gui</text>
<text text-anchor="middle" x="1001" y="-49.5" font-family="Helvetica,sans-Serif" font-size="10.00">::FitFunction</text>
</a>
</g>
</g>
<!-- Node12&#45;&gt;Node3 -->
<g id="edge10" class="edge"><title>Node12&#45;&gt;Node3</title>
<path fill="none" stroke="#9a32cd" stroke-dasharray="5,2" d="M1065.05,-72.1456C1095.17,-80.8262 1130.91,-93.6751 1160,-111.5 1183.12,-125.667 1205.08,-148.297 1218.29,-163.278"/>
<polygon fill="#9a32cd" stroke="#9a32cd" points="1065.64,-68.6765 1055.06,-69.3603 1063.75,-75.419 1065.64,-68.6765"/>
<text text-anchor="middle" x="1127" y="-114.5" font-family="Helvetica,sans-Serif" font-size="10.00"> func</text>
</g>
<!-- Node13 -->
<g id="node11" class="node"><title>Node13</title>
<polygon fill="white" stroke="#bfbfbf" points="707,-14.5 707,-44.5 841,-44.5 841,-14.5 707,-14.5"/>
<text text-anchor="start" x="715" y="-32.5" font-family="Helvetica,sans-Serif" font-size="10.00">std::list&lt; std::unique</text>
<text text-anchor="middle" x="774" y="-21.5" font-family="Helvetica,sans-Serif" font-size="10.00">_ptr&lt; IndicatorKnob &gt; &gt;</text>
</g>
<!-- Node13&#45;&gt;Node12 -->
<g id="edge11" class="edge"><title>Node13&#45;&gt;Node12</title>
<path fill="none" stroke="#9a32cd" stroke-dasharray="5,2" d="M851.342,-39.0003C882.801,-42.9152 918.48,-47.3553 946.999,-50.9043"/>
<polygon fill="#9a32cd" stroke="#9a32cd" points="851.646,-35.5113 841.29,-37.7495 850.782,-42.4577 851.646,-35.5113"/>
<text text-anchor="middle" x="883.5" y="-49.5" font-family="Helvetica,sans-Serif" font-size="10.00"> knobs</text>
</g>
<!-- Node14 -->
<g id="node12" class="node"><title>Node14</title>
<polygon fill="white" stroke="#bfbfbf" points="481,-8.5 481,-38.5 622,-38.5 622,-8.5 481,-8.5"/>
<text text-anchor="start" x="489" y="-26.5" font-family="Helvetica,sans-Serif" font-size="10.00">std::unique_ptr&lt; Indicator</text>
<text text-anchor="middle" x="551.5" y="-15.5" font-family="Helvetica,sans-Serif" font-size="10.00">Knob &gt;</text>
</g>
<!-- Node14&#45;&gt;Node13 -->
<g id="edge12" class="edge"><title>Node14&#45;&gt;Node13</title>
<path fill="none" stroke="#9a32cd" stroke-dasharray="5,2" d="M632.554,-25.6783C656.895,-26.3407 683.363,-27.0609 706.693,-27.6957"/>
<polygon fill="#9a32cd" stroke="#9a32cd" points="632.359,-22.1718 622.268,-25.3984 632.169,-29.1692 632.359,-22.1718"/>
<text text-anchor="middle" x="664.5" y="-30.5" font-family="Helvetica,sans-Serif" font-size="10.00"> elements</text>
</g>
<!-- Node15 -->
<g id="node13" class="node"><title>Node15</title>
<g id="a_node13"><a xlink:href="classant_1_1calibration_1_1gui_1_1_indicator_knob.html" target="_top" xlink:title="ant::calibration::gui\l::IndicatorKnob">
<polygon fill="white" stroke="black" points="320,-8.5 320,-38.5 428,-38.5 428,-8.5 320,-8.5"/>
<text text-anchor="start" x="328" y="-26.5" font-family="Helvetica,sans-Serif" font-size="10.00">ant::calibration::gui</text>
<text text-anchor="middle" x="374" y="-15.5" font-family="Helvetica,sans-Serif" font-size="10.00">::IndicatorKnob</text>
</a>
</g>
</g>
<!-- Node15&#45;&gt;Node14 -->
<g id="edge13" class="edge"><title>Node15&#45;&gt;Node14</title>
<path fill="none" stroke="#9a32cd" stroke-dasharray="5,2" d="M438.432,-23.5C452.153,-23.5 466.734,-23.5 480.685,-23.5"/>
<polygon fill="#9a32cd" stroke="#9a32cd" points="438.132,-20.0001 428.132,-23.5 438.132,-27.0001 438.132,-20.0001"/>
<text text-anchor="middle" x="454.5" y="-26.5" font-family="Helvetica,sans-Serif" font-size="10.00"> ptr</text>
</g>
<!-- Node16 -->
<g id="node14" class="node"><title>Node16</title>
<g id="a_node14"><a xlink:title="STL class. ">
<polygon fill="white" stroke="#bfbfbf" points="164,-58 164,-77 229,-77 229,-58 164,-58"/>
<text text-anchor="middle" x="196.5" y="-65" font-family="Helvetica,sans-Serif" font-size="10.00">std::string</text>
</a>
</g>
</g>
<!-- Node16&#45;&gt;Node12 -->
<g id="edge17" class="edge"><title>Node16&#45;&gt;Node12</title>
<path fill="none" stroke="#9a32cd" stroke-dasharray="5,2" d="M239.193,-70.4709C274.737,-72.747 327.196,-75.5 373,-75.5 373,-75.5 373,-75.5 775,-75.5 833.977,-75.5 901.373,-69.2789 946.906,-64.1514"/>
<polygon fill="#9a32cd" stroke="#9a32cd" points="239.393,-66.9765 229.185,-69.8139 238.934,-73.9615 239.393,-66.9765"/>
<text text-anchor="middle" x="551.5" y="-78.5" font-family="Helvetica,sans-Serif" font-size="10.00"> AdditionalFitArgs</text>
</g>
<!-- Node16&#45;&gt;Node15 -->
<g id="edge14" class="edge"><title>Node16&#45;&gt;Node15</title>
<path fill="none" stroke="#9a32cd" stroke-dasharray="5,2" d="M239.19,-57.0479C263.31,-51.0006 293.911,-43.3287 319.759,-36.8482"/>
<polygon fill="#9a32cd" stroke="#9a32cd" points="238.13,-53.7051 229.282,-59.5319 239.833,-60.4949 238.13,-53.7051"/>
<text text-anchor="middle" x="286.5" y="-51.5" font-family="Helvetica,sans-Serif" font-size="10.00"> name</text>
</g>
<!-- Node17 -->
<g id="node15" class="node"><title>Node17</title>
<g id="a_node15"><a xlink:title="STL class. ">
<polygon fill="white" stroke="#bfbfbf" points="0,-52.5 0,-82.5 103,-82.5 103,-52.5 0,-52.5"/>
<text text-anchor="start" x="8" y="-70.5" font-family="Helvetica,sans-Serif" font-size="10.00">std::basic_string&lt;</text>
<text text-anchor="middle" x="51.5" y="-59.5" font-family="Helvetica,sans-Serif" font-size="10.00"> char &gt;</text>
</a>
</g>
</g>
<!-- Node17&#45;&gt;Node16 -->
<g id="edge15" class="edge"><title>Node17&#45;&gt;Node16</title>
<path fill="none" stroke="midnightblue" d="M113.439,-67.5C130.849,-67.5 149.114,-67.5 163.98,-67.5"/>
<polygon fill="midnightblue" stroke="midnightblue" points="113.319,-64.0001 103.319,-67.5 113.319,-71.0001 113.319,-64.0001"/>
</g>
<!-- Node18 -->
<g id="node16" class="node"><title>Node18</title>
<g id="a_node16"><a xlink:href="structant_1_1calibration_1_1gui_1_1_indicator_properties.html" target="_top" xlink:title="ant::calibration::gui\l::IndicatorProperties">
<polygon fill="white" stroke="black" points="140,-0.5 140,-30.5 253,-30.5 253,-0.5 140,-0.5"/>
<text text-anchor="start" x="148" y="-18.5" font-family="Helvetica,sans-Serif" font-size="10.00">ant::calibration::gui</text>
<text text-anchor="middle" x="196.5" y="-7.5" font-family="Helvetica,sans-Serif" font-size="10.00">::IndicatorProperties</text>
</a>
</g>
</g>
<!-- Node18&#45;&gt;Node15 -->
<g id="edge16" class="edge"><title>Node18&#45;&gt;Node15</title>
<path fill="none" stroke="#9a32cd" stroke-dasharray="5,2" d="M263.283,-15.2408C276.129,-15.4412 289.492,-15.8249 302,-16.5 307.813,-16.8138 313.885,-17.2482 319.924,-17.7486"/>
<polygon fill="#9a32cd" stroke="#9a32cd" points="263.16,-11.7391 253.118,-15.1174 263.074,-18.7386 263.16,-11.7391"/>
<text text-anchor="middle" x="286.5" y="-19.5" font-family="Helvetica,sans-Serif" font-size="10.00"> gui</text>
</g>
</g>
</svg>
