<?xml version="1.0" encoding="UTF-8" standalone="no"?>
<!DOCTYPE svg PUBLIC "-//W3C//DTD SVG 1.1//EN"
 "http://www.w3.org/Graphics/SVG/1.1/DTD/svg11.dtd">
<!-- Generated by graphviz version 2.38.0 (20140413.2041)
 -->
<!-- Title: ant::analysis::physics::DataOverviewBase Pages: 1 -->
<svg width="434pt" height="186pt"
 viewBox="0.00 0.00 434.00 186.00" xmlns="http://www.w3.org/2000/svg" xmlns:xlink="http://www.w3.org/1999/xlink">
<g id="graph0" class="graph" transform="scale(1 1) rotate(0) translate(4 182)">
<title>ant::analysis::physics::DataOverviewBase</title>
<polygon fill="white" stroke="none" points="-4,4 -4,-182 430,-182 430,4 -4,4"/>
<!-- Node0 -->
<g id="node1" class="node"><title>Node0</title>
<polygon fill="#bfbfbf" stroke="black" points="154,-73.5 154,-103.5 272,-103.5 272,-73.5 154,-73.5"/>
<text text-anchor="start" x="162" y="-91.5" font-family="Helvetica,sans-Serif" font-size="10.00">ant::analysis::physics</text>
<text text-anchor="middle" x="213" y="-80.5" font-family="Helvetica,sans-Serif" font-size="10.00">::DataOverviewBase</text>
</g>
<!-- Node2 -->
<g id="node3" class="node"><title>Node2</title>
<g id="a_node3"><a xlink:href="classant_1_1analysis_1_1physics_1_1_particle_overview.html" target="_top" xlink:title="The ParticleOverview class shows particle type occurences. ">
<polygon fill="white" stroke="black" points="308,-147.5 308,-177.5 426,-177.5 426,-147.5 308,-147.5"/>
<text text-anchor="start" x="316" y="-165.5" font-family="Helvetica,sans-Serif" font-size="10.00">ant::analysis::physics</text>
<text text-anchor="middle" x="367" y="-154.5" font-family="Helvetica,sans-Serif" font-size="10.00">::ParticleOverview</text>
</a>
</g>
</g>
<!-- Node0&#45;&gt;Node2 -->
<g id="edge2" class="edge"><title>Node0&#45;&gt;Node2</title>
<path fill="none" stroke="midnightblue" d="M249.994,-108.694C267.328,-118.148 288.533,-129.321 308,-138.5 314.407,-141.521 321.299,-144.555 328.018,-147.401"/>
<polygon fill="midnightblue" stroke="midnightblue" points="251.247,-105.389 240.797,-103.642 247.877,-111.525 251.247,-105.389"/>
</g>
<!-- Node3 -->
<g id="node4" class="node"><title>Node3</title>
<g id="a_node4"><a xlink:href="classant_1_1analysis_1_1physics_1_1_tagger_overview.html" target="_top" xlink:title="Physics class to show Tagger related infos. ">
<polygon fill="white" stroke="black" points="308,-98.5 308,-128.5 426,-128.5 426,-98.5 308,-98.5"/>
<text text-anchor="start" x="316" y="-116.5" font-family="Helvetica,sans-Serif" font-size="10.00">ant::analysis::physics</text>
<text text-anchor="middle" x="367" y="-105.5" font-family="Helvetica,sans-Serif" font-size="10.00">::TaggerOverview</text>
</a>
</g>
</g>
<!-- Node0&#45;&gt;Node3 -->
<g id="edge3" class="edge"><title>Node0&#45;&gt;Node3</title>
<path fill="none" stroke="midnightblue" d="M282.264,-99.7276C290.798,-101.131 299.463,-102.556 307.824,-103.932"/>
<polygon fill="midnightblue" stroke="midnightblue" points="282.768,-96.2636 272.332,-98.0942 281.632,-103.171 282.768,-96.2636"/>
</g>
<!-- Node4 -->
<g id="node5" class="node"><title>Node4</title>
<g id="a_node5"><a xlink:href="classant_1_1analysis_1_1physics_1_1_target_overview.html" target="_top" xlink:title="The TargetOverview class shows target information. ">
<polygon fill="white" stroke="black" points="308,-49.5 308,-79.5 426,-79.5 426,-49.5 308,-49.5"/>
<text text-anchor="start" x="316" y="-67.5" font-family="Helvetica,sans-Serif" font-size="10.00">ant::analysis::physics</text>
<text text-anchor="middle" x="367" y="-56.5" font-family="Helvetica,sans-Serif" font-size="10.00">::TargetOverview</text>
</a>
</g>
</g>
<!-- Node0&#45;&gt;Node4 -->
<g id="edge4" class="edge"><title>Node0&#45;&gt;Node4</title>
<path fill="none" stroke="midnightblue" d="M282.264,-77.7215C290.798,-76.374 299.463,-75.0058 307.824,-73.6857"/>
<polygon fill="midnightblue" stroke="midnightblue" points="281.664,-74.2727 272.332,-79.2896 282.756,-81.1871 281.664,-74.2727"/>
</g>
<!-- Node5 -->
<g id="node6" class="node"><title>Node5</title>
<g id="a_node6"><a xlink:href="classant_1_1analysis_1_1physics_1_1_trigger_overview.html" target="_top" xlink:title="Physics class to show Trigger and general event infos. ">
<polygon fill="white" stroke="black" points="308,-0.5 308,-30.5 426,-30.5 426,-0.5 308,-0.5"/>
<text text-anchor="start" x="316" y="-18.5" font-family="Helvetica,sans-Serif" font-size="10.00">ant::analysis::physics</text>
<text text-anchor="middle" x="367" y="-7.5" font-family="Helvetica,sans-Serif" font-size="10.00">::TriggerOverview</text>
</a>
</g>
</g>
<!-- Node0&#45;&gt;Node5 -->
<g id="edge5" class="edge"><title>Node0&#45;&gt;Node5</title>
<path fill="none" stroke="midnightblue" d="M250.413,-68.5643C267.687,-59.3545 288.721,-48.4925 308,-39.5 314.518,-36.4597 321.53,-33.3919 328.349,-30.5128"/>
<polygon fill="midnightblue" stroke="midnightblue" points="248.395,-65.6753 241.239,-73.4885 251.705,-71.8431 248.395,-65.6753"/>
</g>
<!-- Node1 -->
<g id="node2" class="node"><title>Node1</title>
<g id="a_node2"><a xlink:href="classant_1_1analysis_1_1_physics.html" target="_top" xlink:title="ant::analysis::Physics">
<polygon fill="white" stroke="black" points="0,-79 0,-98 118,-98 118,-79 0,-79"/>
<text text-anchor="middle" x="59" y="-86" font-family="Helvetica,sans-Serif" font-size="10.00">ant::analysis::Physics</text>
</a>
</g>
</g>
<!-- Node1&#45;&gt;Node0 -->
<g id="edge1" class="edge"><title>Node1&#45;&gt;Node0</title>
<path fill="none" stroke="midnightblue" d="M128.542,-88.5C136.986,-88.5 145.554,-88.5 153.824,-88.5"/>
<polygon fill="midnightblue" stroke="midnightblue" points="128.332,-85.0001 118.332,-88.5 128.332,-92.0001 128.332,-85.0001"/>
</g>
</g>
</svg>
