<?xml version="1.0" encoding="UTF-8" standalone="no"?>
<!DOCTYPE svg PUBLIC "-//W3C//DTD SVG 1.1//EN"
 "http://www.w3.org/Graphics/SVG/1.1/DTD/svg11.dtd">
<!-- Generated by graphviz version 2.38.0 (20140413.2041)
 -->
<!-- Title: ant::calibration::CB_TimeWalk::TheGUI Pages: 1 -->
<svg width="1534pt" height="316pt"
 viewBox="0.00 0.00 1534.00 315.50" xmlns="http://www.w3.org/2000/svg" xmlns:xlink="http://www.w3.org/1999/xlink">
<g id="graph0" class="graph" transform="scale(1 1) rotate(0) translate(4 311.5)">
<title>ant::calibration::CB_TimeWalk::TheGUI</title>
<polygon fill="white" stroke="none" points="-4,4 -4,-311.5 1530,-311.5 1530,4 -4,4"/>
<!-- Node2 -->
<g id="node1" class="node"><title>Node2</title>
<polygon fill="#bfbfbf" stroke="black" points="1419,-125.5 1419,-155.5 1526,-155.5 1526,-125.5 1419,-125.5"/>
<text text-anchor="start" x="1427" y="-143.5" font-family="Helvetica,sans-Serif" font-size="10.00">ant::calibration::CB</text>
<text text-anchor="middle" x="1472.5" y="-132.5" font-family="Helvetica,sans-Serif" font-size="10.00">_TimeWalk::TheGUI</text>
</g>
<!-- Node3 -->
<g id="node2" class="node"><title>Node3</title>
<g id="a_node2"><a xlink:href="classant_1_1calibration_1_1gui_1_1_calib_module__traits.html" target="_top" xlink:title="ant::calibration::gui\l::CalibModule_traits">
<polygon fill="white" stroke="black" points="1191.5,-200.5 1191.5,-230.5 1301.5,-230.5 1301.5,-200.5 1191.5,-200.5"/>
<text text-anchor="start" x="1199.5" y="-218.5" font-family="Helvetica,sans-Serif" font-size="10.00">ant::calibration::gui</text>
<text text-anchor="middle" x="1246.5" y="-207.5" font-family="Helvetica,sans-Serif" font-size="10.00">::CalibModule_traits</text>
</a>
</g>
</g>
<!-- Node3&#45;&gt;Node2 -->
<g id="edge1" class="edge"><title>Node3&#45;&gt;Node2</title>
<path fill="none" stroke="midnightblue" d="M1311.77,-206.492C1339.79,-201.35 1372.64,-193.646 1401,-182.5 1418.5,-175.62 1436.7,-164.669 1450.22,-155.674"/>
<polygon fill="midnightblue" stroke="midnightblue" points="1310.92,-203.088 1301.68,-208.273 1312.13,-209.981 1310.92,-203.088"/>
</g>
<!-- Node4 -->
<g id="node3" class="node"><title>Node4</title>
<g id="a_node3"><a xlink:href="classant_1_1calibration_1_1gui_1_1_cal_canvas.html" target="_top" xlink:title="ant::calibration::gui\l::CalCanvas">
<polygon fill="white" stroke="black" points="1192.5,-151.5 1192.5,-181.5 1300.5,-181.5 1300.5,-151.5 1192.5,-151.5"/>
<text text-anchor="start" x="1200.5" y="-169.5" font-family="Helvetica,sans-Serif" font-size="10.00">ant::calibration::gui</text>
<text text-anchor="middle" x="1246.5" y="-158.5" font-family="Helvetica,sans-Serif" font-size="10.00">::CalCanvas</text>
</a>
</g>
</g>
<!-- Node4&#45;&gt;Node2 -->
<g id="edge2" class="edge"><title>Node4&#45;&gt;Node2</title>
<path fill="none" stroke="#9a32cd" stroke-dasharray="5,2" d="M1310.9,-159.141C1344.98,-155.185 1386.51,-150.365 1418.8,-146.617"/>
<polygon fill="#9a32cd" stroke="#9a32cd" points="1310.11,-155.709 1300.58,-160.338 1310.92,-162.662 1310.11,-155.709"/>
<text text-anchor="middle" x="1367" y="-170.5" font-family="Helvetica,sans-Serif" font-size="10.00"> c_fit</text>
<text text-anchor="middle" x="1367" y="-159.5" font-family="Helvetica,sans-Serif" font-size="10.00">c_extra</text>
</g>
<!-- Node5 -->
<g id="node4" class="node"><title>Node5</title>
<polygon fill="white" stroke="#bfbfbf" points="973,-288 973,-307 1029,-307 1029,-288 973,-288"/>
<text text-anchor="middle" x="1001" y="-295" font-family="Helvetica,sans-Serif" font-size="10.00">TCanvas</text>
</g>
<!-- Node5&#45;&gt;Node4 -->
<g id="edge3" class="edge"><title>Node5&#45;&gt;Node4</title>
<path fill="none" stroke="midnightblue" d="M1039.13,-302.791C1074.8,-305.639 1127.88,-303.665 1160,-273.5 1187.52,-247.661 1153.07,-218.844 1178,-190.5 1182.02,-185.924 1186.98,-182.22 1192.37,-179.223"/>
<polygon fill="midnightblue" stroke="midnightblue" points="1039.4,-299.301 1029.11,-301.829 1038.73,-306.269 1039.4,-299.301"/>
</g>
<!-- Node6 -->
<g id="node5" class="node"><title>Node6</title>
<g id="a_node5"><a xlink:href="classant_1_1calibration_1_1gui_1_1update__notify__traits.html" target="_top" xlink:title="ant::calibration::gui\l::update_notify_traits">
<polygon fill="white" stroke="black" points="492.5,-231.5 492.5,-261.5 610.5,-261.5 610.5,-231.5 492.5,-231.5"/>
<text text-anchor="start" x="500.5" y="-249.5" font-family="Helvetica,sans-Serif" font-size="10.00">ant::calibration::gui</text>
<text text-anchor="middle" x="551.5" y="-238.5" font-family="Helvetica,sans-Serif" font-size="10.00">::update_notify_traits</text>
</a>
</g>
</g>
<!-- Node6&#45;&gt;Node4 -->
<g id="edge4" class="edge"><title>Node6&#45;&gt;Node4</title>
<path fill="none" stroke="midnightblue" d="M620.727,-252.039C721.197,-258.744 914.508,-266.1 1076,-239.5 1114.69,-233.127 1127.59,-234.578 1160,-212.5 1170.44,-205.387 1167.67,-197.772 1178,-190.5 1182.78,-187.135 1188.08,-184.197 1193.55,-181.642"/>
<polygon fill="midnightblue" stroke="midnightblue" points="620.925,-248.544 610.709,-251.352 620.446,-255.528 620.925,-248.544"/>
</g>
<!-- Node8 -->
<g id="node7" class="node"><title>Node8</title>
<g id="a_node7"><a xlink:href="classant_1_1calibration_1_1gui_1_1_indicator.html" target="_top" xlink:title="ant::calibration::gui\l::Indicator">
<polygon fill="white" stroke="black" points="720,-200.5 720,-230.5 828,-230.5 828,-200.5 720,-200.5"/>
<text text-anchor="start" x="728" y="-218.5" font-family="Helvetica,sans-Serif" font-size="10.00">ant::calibration::gui</text>
<text text-anchor="middle" x="774" y="-207.5" font-family="Helvetica,sans-Serif" font-size="10.00">::Indicator</text>
</a>
</g>
</g>
<!-- Node6&#45;&gt;Node8 -->
<g id="edge7" class="edge"><title>Node6&#45;&gt;Node8</title>
<path fill="none" stroke="midnightblue" d="M620.854,-236.89C652.704,-232.412 690.033,-227.164 719.746,-222.987"/>
<polygon fill="midnightblue" stroke="midnightblue" points="620.138,-233.456 610.722,-238.315 621.112,-240.388 620.138,-233.456"/>
</g>
<!-- Node7 -->
<g id="node6" class="node"><title>Node7</title>
<polygon fill="white" stroke="#bfbfbf" points="934,-200.5 934,-230.5 1068,-230.5 1068,-200.5 934,-200.5"/>
<text text-anchor="start" x="942" y="-218.5" font-family="Helvetica,sans-Serif" font-size="10.00">std::list&lt; ant::calibration</text>
<text text-anchor="middle" x="1001" y="-207.5" font-family="Helvetica,sans-Serif" font-size="10.00">::gui::Indicator *&gt;</text>
</g>
<!-- Node7&#45;&gt;Node4 -->
<g id="edge5" class="edge"><title>Node7&#45;&gt;Node4</title>
<path fill="none" stroke="#9a32cd" stroke-dasharray="5,2" d="M1078.47,-200.111C1115.5,-192.659 1159.05,-183.896 1192.39,-177.186"/>
<polygon fill="#9a32cd" stroke="#9a32cd" points="1077.33,-196.771 1068.22,-202.175 1078.71,-203.634 1077.33,-196.771"/>
<text text-anchor="middle" x="1127" y="-200.5" font-family="Helvetica,sans-Serif" font-size="10.00"> indicators</text>
</g>
<!-- Node8&#45;&gt;Node7 -->
<g id="edge6" class="edge"><title>Node8&#45;&gt;Node7</title>
<path fill="none" stroke="#9a32cd" stroke-dasharray="5,2" d="M838.301,-215.5C868.043,-215.5 903.498,-215.5 933.619,-215.5"/>
<polygon fill="#9a32cd" stroke="#9a32cd" points="838.037,-212 828.037,-215.5 838.037,-219 838.037,-212"/>
<text text-anchor="middle" x="883.5" y="-218.5" font-family="Helvetica,sans-Serif" font-size="10.00"> elements</text>
</g>
<!-- Node9 -->
<g id="node8" class="node"><title>Node9</title>
<polygon fill="white" stroke="#bfbfbf" points="938.5,-151.5 938.5,-181.5 1063.5,-181.5 1063.5,-151.5 938.5,-151.5"/>
<text text-anchor="start" x="946.5" y="-169.5" font-family="Helvetica,sans-Serif" font-size="10.00">std::stack&lt; FitFunction</text>
<text text-anchor="middle" x="1001" y="-158.5" font-family="Helvetica,sans-Serif" font-size="10.00">::SavedState_t &gt;</text>
</g>
<!-- Node9&#45;&gt;Node4 -->
<g id="edge8" class="edge"><title>Node9&#45;&gt;Node4</title>
<path fill="none" stroke="#9a32cd" stroke-dasharray="5,2" d="M1074.24,-166.5C1112.18,-166.5 1157.85,-166.5 1192.48,-166.5"/>
<polygon fill="#9a32cd" stroke="#9a32cd" points="1073.76,-163 1063.76,-166.5 1073.76,-170 1073.76,-163"/>
<text text-anchor="middle" x="1127" y="-169.5" font-family="Helvetica,sans-Serif" font-size="10.00"> UndoStack</text>
</g>
<!-- Node10 -->
<g id="node9" class="node"><title>Node10</title>
<g id="a_node9"><a xlink:title="STL class. ">
<polygon fill="white" stroke="#bfbfbf" points="726.5,-157 726.5,-176 821.5,-176 821.5,-157 726.5,-157"/>
<text text-anchor="middle" x="774" y="-164" font-family="Helvetica,sans-Serif" font-size="10.00">std::vector&lt; T &gt;</text>
</a>
</g>
</g>
<!-- Node10&#45;&gt;Node9 -->
<g id="edge9" class="edge"><title>Node10&#45;&gt;Node9</title>
<path fill="none" stroke="#9a32cd" stroke-dasharray="5,2" d="M831.87,-166.5C864.397,-166.5 905.215,-166.5 938.488,-166.5"/>
<polygon fill="#9a32cd" stroke="#9a32cd" points="831.62,-163 821.62,-166.5 831.62,-170 831.62,-163"/>
<text text-anchor="middle" x="883.5" y="-169.5" font-family="Helvetica,sans-Serif" font-size="10.00"> elements</text>
</g>
<!-- Node11 -->
<g id="node10" class="node"><title>Node11</title>
<polygon fill="white" stroke="#bfbfbf" points="537,-157 537,-176 566,-176 566,-157 537,-157"/>
<text text-anchor="middle" x="551.5" y="-164" font-family="Helvetica,sans-Serif" font-size="10.00">T</text>
</g>
<!-- Node11&#45;&gt;Node10 -->
<g id="edge10" class="edge"><title>Node11&#45;&gt;Node10</title>
<path fill="none" stroke="#9a32cd" stroke-dasharray="5,2" d="M576.756,-166.5C612.663,-166.5 680.636,-166.5 726.383,-166.5"/>
<polygon fill="#9a32cd" stroke="#9a32cd" points="576.293,-163 566.293,-166.5 576.293,-170 576.293,-163"/>
<text text-anchor="middle" x="664.5" y="-169.5" font-family="Helvetica,sans-Serif" font-size="10.00"> elements</text>
</g>
<!-- Node12 -->
<g id="node11" class="node"><title>Node12</title>
<g id="a_node11"><a xlink:href="structant_1_1calibration_1_1gui_1_1_cal_canvas_1_1axis__settings__t.html" target="_top" xlink:title="ant::calibration::gui\l::CalCanvas::axis_settings_t">
<polygon fill="white" stroke="black" points="926,-102.5 926,-132.5 1076,-132.5 1076,-102.5 926,-102.5"/>
<text text-anchor="start" x="934" y="-120.5" font-family="Helvetica,sans-Serif" font-size="10.00">ant::calibration::gui</text>
<text text-anchor="middle" x="1001" y="-109.5" font-family="Helvetica,sans-Serif" font-size="10.00">::CalCanvas::axis_settings_t</text>
</a>
</g>
</g>
<!-- Node12&#45;&gt;Node4 -->
<g id="edge11" class="edge"><title>Node12&#45;&gt;Node4</title>
<path fill="none" stroke="#9a32cd" stroke-dasharray="5,2" d="M1085.86,-134.376C1121.15,-141.476 1161.14,-149.525 1192.28,-155.79"/>
<polygon fill="#9a32cd" stroke="#9a32cd" points="1086.54,-130.943 1076.05,-132.401 1085.16,-137.805 1086.54,-130.943"/>
<text text-anchor="middle" x="1127" y="-152.5" font-family="Helvetica,sans-Serif" font-size="10.00"> axis_settings</text>
</g>
<!-- Node13 -->
<g id="node12" class="node"><title>Node13</title>
<g id="a_node12"><a xlink:href="classant_1_1calibration_1_1gui_1_1_fit_function.html" target="_top" xlink:title="ant::calibration::gui\l::FitFunction">
<polygon fill="white" stroke="black" points="947,-53.5 947,-83.5 1055,-83.5 1055,-53.5 947,-53.5"/>
<text text-anchor="start" x="955" y="-71.5" font-family="Helvetica,sans-Serif" font-size="10.00">ant::calibration::gui</text>
<text text-anchor="middle" x="1001" y="-60.5" font-family="Helvetica,sans-Serif" font-size="10.00">::FitFunction</text>
</a>
</g>
</g>
<!-- Node13&#45;&gt;Node4 -->
<g id="edge12" class="edge"><title>Node13&#45;&gt;Node4</title>
<path fill="none" stroke="#9a32cd" stroke-dasharray="5,2" d="M1058.77,-86.7933C1064.6,-88.7054 1070.42,-90.6324 1076,-92.5 1113.45,-105.037 1127.08,-99.6839 1160,-121.5 1169.97,-128.106 1168.11,-134.784 1178,-141.5 1183.58,-145.29 1189.81,-148.593 1196.17,-151.447"/>
<polygon fill="#9a32cd" stroke="#9a32cd" points="1059.61,-83.3848 1049.02,-83.6027 1057.44,-90.038 1059.61,-83.3848"/>
<text text-anchor="middle" x="1127" y="-124.5" font-family="Helvetica,sans-Serif" font-size="10.00"> func</text>
</g>
<!-- Node14 -->
<g id="node13" class="node"><title>Node14</title>
<polygon fill="white" stroke="#bfbfbf" points="707,-14.5 707,-44.5 841,-44.5 841,-14.5 707,-14.5"/>
<text text-anchor="start" x="715" y="-32.5" font-family="Helvetica,sans-Serif" font-size="10.00">std::list&lt; std::unique</text>
<text text-anchor="middle" x="774" y="-21.5" font-family="Helvetica,sans-Serif" font-size="10.00">_ptr&lt; IndicatorKnob &gt; &gt;</text>
</g>
<!-- Node14&#45;&gt;Node13 -->
<g id="edge13" class="edge"><title>Node14&#45;&gt;Node13</title>
<path fill="none" stroke="#9a32cd" stroke-dasharray="5,2" d="M850.967,-41.0034C869.639,-43.9661 889.56,-47.2415 908,-50.5 920.501,-52.7091 933.925,-55.243 946.549,-57.6988"/>
<polygon fill="#9a32cd" stroke="#9a32cd" points="851.461,-37.538 841.038,-39.4383 850.371,-44.4527 851.461,-37.538"/>
<text text-anchor="middle" x="883.5" y="-53.5" font-family="Helvetica,sans-Serif" font-size="10.00"> knobs</text>
</g>
<!-- Node15 -->
<g id="node14" class="node"><title>Node15</title>
<polygon fill="white" stroke="#bfbfbf" points="481,-8.5 481,-38.5 622,-38.5 622,-8.5 481,-8.5"/>
<text text-anchor="start" x="489" y="-26.5" font-family="Helvetica,sans-Serif" font-size="10.00">std::unique_ptr&lt; Indicator</text>
<text text-anchor="middle" x="551.5" y="-15.5" font-family="Helvetica,sans-Serif" font-size="10.00">Knob &gt;</text>
</g>
<!-- Node15&#45;&gt;Node14 -->
<g id="edge14" class="edge"><title>Node15&#45;&gt;Node14</title>
<path fill="none" stroke="#9a32cd" stroke-dasharray="5,2" d="M632.554,-25.6783C656.895,-26.3407 683.363,-27.0609 706.693,-27.6957"/>
<polygon fill="#9a32cd" stroke="#9a32cd" points="632.359,-22.1718 622.268,-25.3984 632.169,-29.1692 632.359,-22.1718"/>
<text text-anchor="middle" x="664.5" y="-30.5" font-family="Helvetica,sans-Serif" font-size="10.00"> elements</text>
</g>
<!-- Node16 -->
<g id="node15" class="node"><title>Node16</title>
<g id="a_node15"><a xlink:href="classant_1_1calibration_1_1gui_1_1_indicator_knob.html" target="_top" xlink:title="ant::calibration::gui\l::IndicatorKnob">
<polygon fill="white" stroke="black" points="320,-8.5 320,-38.5 428,-38.5 428,-8.5 320,-8.5"/>
<text text-anchor="start" x="328" y="-26.5" font-family="Helvetica,sans-Serif" font-size="10.00">ant::calibration::gui</text>
<text text-anchor="middle" x="374" y="-15.5" font-family="Helvetica,sans-Serif" font-size="10.00">::IndicatorKnob</text>
</a>
</g>
</g>
<!-- Node16&#45;&gt;Node15 -->
<g id="edge15" class="edge"><title>Node16&#45;&gt;Node15</title>
<path fill="none" stroke="#9a32cd" stroke-dasharray="5,2" d="M438.432,-23.5C452.153,-23.5 466.734,-23.5 480.685,-23.5"/>
<polygon fill="#9a32cd" stroke="#9a32cd" points="438.132,-20.0001 428.132,-23.5 438.132,-27.0001 438.132,-20.0001"/>
<text text-anchor="middle" x="454.5" y="-26.5" font-family="Helvetica,sans-Serif" font-size="10.00"> ptr</text>
</g>
<!-- Node17 -->
<g id="node16" class="node"><title>Node17</title>
<g id="a_node16"><a xlink:title="STL class. ">
<polygon fill="white" stroke="#bfbfbf" points="164,-58 164,-77 229,-77 229,-58 164,-58"/>
<text text-anchor="middle" x="196.5" y="-65" font-family="Helvetica,sans-Serif" font-size="10.00">std::string</text>
</a>
</g>
</g>
<!-- Node17&#45;&gt;Node13 -->
<g id="edge19" class="edge"><title>Node17&#45;&gt;Node13</title>
<path fill="none" stroke="#9a32cd" stroke-dasharray="5,2" d="M239.193,-70.4709C274.737,-72.747 327.196,-75.5 373,-75.5 373,-75.5 373,-75.5 775,-75.5 833.818,-75.5 901.242,-73.0807 946.825,-71.0867"/>
<polygon fill="#9a32cd" stroke="#9a32cd" points="239.393,-66.9765 229.185,-69.8139 238.934,-73.9615 239.393,-66.9765"/>
<text text-anchor="middle" x="551.5" y="-78.5" font-family="Helvetica,sans-Serif" font-size="10.00"> AdditionalFitArgs</text>
</g>
<!-- Node17&#45;&gt;Node16 -->
<g id="edge16" class="edge"><title>Node17&#45;&gt;Node16</title>
<path fill="none" stroke="#9a32cd" stroke-dasharray="5,2" d="M239.19,-57.0479C263.31,-51.0006 293.911,-43.3287 319.759,-36.8482"/>
<polygon fill="#9a32cd" stroke="#9a32cd" points="238.13,-53.7051 229.282,-59.5319 239.833,-60.4949 238.13,-53.7051"/>
<text text-anchor="middle" x="286.5" y="-51.5" font-family="Helvetica,sans-Serif" font-size="10.00"> name</text>
</g>
<!-- Node18 -->
<g id="node17" class="node"><title>Node18</title>
<g id="a_node17"><a xlink:title="STL class. ">
<polygon fill="white" stroke="#bfbfbf" points="0,-52.5 0,-82.5 103,-82.5 103,-52.5 0,-52.5"/>
<text text-anchor="start" x="8" y="-70.5" font-family="Helvetica,sans-Serif" font-size="10.00">std::basic_string&lt;</text>
<text text-anchor="middle" x="51.5" y="-59.5" font-family="Helvetica,sans-Serif" font-size="10.00"> char &gt;</text>
</a>
</g>
</g>
<!-- Node18&#45;&gt;Node17 -->
<g id="edge17" class="edge"><title>Node18&#45;&gt;Node17</title>
<path fill="none" stroke="midnightblue" d="M113.439,-67.5C130.849,-67.5 149.114,-67.5 163.98,-67.5"/>
<polygon fill="midnightblue" stroke="midnightblue" points="113.319,-64.0001 103.319,-67.5 113.319,-71.0001 113.319,-64.0001"/>
</g>
<!-- Node19 -->
<g id="node18" class="node"><title>Node19</title>
<g id="a_node18"><a xlink:href="structant_1_1calibration_1_1gui_1_1_indicator_properties.html" target="_top" xlink:title="ant::calibration::gui\l::IndicatorProperties">
<polygon fill="white" stroke="black" points="140,-0.5 140,-30.5 253,-30.5 253,-0.5 140,-0.5"/>
<text text-anchor="start" x="148" y="-18.5" font-family="Helvetica,sans-Serif" font-size="10.00">ant::calibration::gui</text>
<text text-anchor="middle" x="196.5" y="-7.5" font-family="Helvetica,sans-Serif" font-size="10.00">::IndicatorProperties</text>
</a>
</g>
</g>
<!-- Node19&#45;&gt;Node16 -->
<g id="edge18" class="edge"><title>Node19&#45;&gt;Node16</title>
<path fill="none" stroke="#9a32cd" stroke-dasharray="5,2" d="M263.283,-15.2408C276.129,-15.4412 289.492,-15.8249 302,-16.5 307.813,-16.8138 313.885,-17.2482 319.924,-17.7486"/>
<polygon fill="#9a32cd" stroke="#9a32cd" points="263.16,-11.7391 253.118,-15.1174 263.074,-18.7386 263.16,-11.7391"/>
<text text-anchor="middle" x="286.5" y="-19.5" font-family="Helvetica,sans-Serif" font-size="10.00"> gui</text>
</g>
<!-- Node20 -->
<g id="node19" class="node"><title>Node20</title>
<polygon fill="white" stroke="#bfbfbf" points="1178,-102.5 1178,-132.5 1315,-132.5 1315,-102.5 1178,-102.5"/>
<text text-anchor="start" x="1186" y="-120.5" font-family="Helvetica,sans-Serif" font-size="10.00">std::map&lt; unsigned,</text>
<text text-anchor="middle" x="1246.5" y="-109.5" font-family="Helvetica,sans-Serif" font-size="10.00"> std::vector&lt; double &gt; &gt;</text>
</g>
<!-- Node20&#45;&gt;Node2 -->
<g id="edge20" class="edge"><title>Node20&#45;&gt;Node2</title>
<path fill="none" stroke="#9a32cd" stroke-dasharray="5,2" d="M1325.54,-119.996C1349.78,-121.329 1376.56,-123.371 1401,-126.5 1406.82,-127.245 1412.88,-128.188 1418.89,-129.231"/>
<polygon fill="#9a32cd" stroke="#9a32cd" points="1325.48,-116.489 1315.31,-119.467 1325.12,-123.479 1325.48,-116.489"/>
<text text-anchor="middle" x="1367" y="-129.5" font-family="Helvetica,sans-Serif" font-size="10.00"> fitParameters</text>
</g>
<!-- Node21 -->
<g id="node20" class="node"><title>Node21</title>
<polygon fill="white" stroke="#bfbfbf" points="940,-15 940,-34 1062,-34 1062,-15 940,-15"/>
<text text-anchor="middle" x="1001" y="-22" font-family="Helvetica,sans-Serif" font-size="10.00">std::vector&lt; double &gt;</text>
</g>
<!-- Node21&#45;&gt;Node20 -->
<g id="edge21" class="edge"><title>Node21&#45;&gt;Node20</title>
<path fill="none" stroke="#9a32cd" stroke-dasharray="5,2" d="M1072.55,-17.4708C1102.37,-18.1504 1135.74,-24.1795 1160,-43.5 1178.48,-58.2122 1161.27,-76.8322 1178,-93.5 1181.44,-96.9231 1185.39,-99.8603 1189.63,-102.38"/>
<polygon fill="#9a32cd" stroke="#9a32cd" points="1072.18,-13.9698 1062.17,-17.4405 1072.16,-20.9698 1072.18,-13.9698"/>
<text text-anchor="middle" x="1127" y="-46.5" font-family="Helvetica,sans-Serif" font-size="10.00"> elements</text>
</g>
<!-- Node22 -->
<g id="node21" class="node"><title>Node22</title>
<polygon fill="white" stroke="#bfbfbf" points="1180,-43 1180,-84 1313,-84 1313,-43 1180,-43"/>
<text text-anchor="start" x="1188" y="-72" font-family="Helvetica,sans-Serif" font-size="10.00">std::vector&lt; std::shared</text>
<text text-anchor="start" x="1188" y="-61" font-family="Helvetica,sans-Serif" font-size="10.00">_ptr&lt; ant::calibration</text>
<text text-anchor="middle" x="1246.5" y="-50" font-family="Helvetica,sans-Serif" font-size="10.00">::gui::FitTimewalk &gt; &gt;</text>
</g>
<!-- Node22&#45;&gt;Node2 -->
<g id="edge22" class="edge"><title>Node22&#45;&gt;Node2</title>
<path fill="none" stroke="#9a32cd" stroke-dasharray="5,2" d="M1323.21,-81.0998C1348.3,-87.753 1376.16,-96.0363 1401,-105.5 1415.69,-111.094 1431.4,-118.725 1444.26,-125.434"/>
<polygon fill="#9a32cd" stroke="#9a32cd" points="1323.93,-77.6723 1313.37,-78.5375 1322.17,-84.4461 1323.93,-77.6723"/>
<text text-anchor="middle" x="1367" y="-108.5" font-family="Helvetica,sans-Serif" font-size="10.00"> timewalks</text>
</g>
</g>
</svg>
