<?xml version="1.0" encoding="UTF-8" standalone="no"?>
<!DOCTYPE svg PUBLIC "-//W3C//DTD SVG 1.1//EN"
 "http://www.w3.org/Graphics/SVG/1.1/DTD/svg11.dtd">
<!-- Generated by graphviz version 2.38.0 (20140413.2041)
 -->
<!-- Title: ant::analysis::physics::IMPlots Pages: 1 -->
<svg width="1273pt" height="176pt"
 viewBox="0.00 0.00 1273.00 176.00" xmlns="http://www.w3.org/2000/svg" xmlns:xlink="http://www.w3.org/1999/xlink">
<g id="graph0" class="graph" transform="scale(1 1) rotate(0) translate(4 172)">
<title>ant::analysis::physics::IMPlots</title>
<polygon fill="white" stroke="none" points="-4,4 -4,-172 1269,-172 1269,4 -4,4"/>
<!-- Node2 -->
<g id="node1" class="node"><title>Node2</title>
<polygon fill="#bfbfbf" stroke="black" points="1147,-75.5 1147,-105.5 1265,-105.5 1265,-75.5 1147,-75.5"/>
<text text-anchor="start" x="1155" y="-93.5" font-family="Helvetica,sans-Serif" font-size="10.00">ant::analysis::physics</text>
<text text-anchor="middle" x="1206" y="-82.5" font-family="Helvetica,sans-Serif" font-size="10.00">::IMPlots</text>
</g>
<!-- Node3 -->
<g id="node2" class="node"><title>Node3</title>
<g id="a_node2"><a xlink:href="classant_1_1analysis_1_1_physics.html" target="_top" xlink:title="ant::analysis::Physics">
<polygon fill="white" stroke="black" points="924,-140 924,-159 1042,-159 1042,-140 924,-140"/>
<text text-anchor="middle" x="983" y="-147" font-family="Helvetica,sans-Serif" font-size="10.00">ant::analysis::Physics</text>
</a>
</g>
</g>
<!-- Node3&#45;&gt;Node2 -->
<g id="edge1" class="edge"><title>Node3&#45;&gt;Node2</title>
<path fill="none" stroke="midnightblue" d="M1052.12,-139.915C1076.63,-135.656 1104.32,-129.901 1129,-122.5 1143.95,-118.018 1159.94,-111.552 1173.39,-105.603"/>
<polygon fill="midnightblue" stroke="midnightblue" points="1051.47,-136.476 1042.19,-141.59 1052.63,-143.378 1051.47,-136.476"/>
</g>
<!-- Node4 -->
<g id="node3" class="node"><title>Node4</title>
<g id="a_node3"><a xlink:href="classant_1_1analysis_1_1_histogram_factory.html" target="_top" xlink:title="ant::analysis::Histogram\lFactory">
<polygon fill="white" stroke="black" points="682.5,-137.5 682.5,-167.5 815.5,-167.5 815.5,-137.5 682.5,-137.5"/>
<text text-anchor="start" x="690.5" y="-155.5" font-family="Helvetica,sans-Serif" font-size="10.00">ant::analysis::Histogram</text>
<text text-anchor="middle" x="749" y="-144.5" font-family="Helvetica,sans-Serif" font-size="10.00">Factory</text>
</a>
</g>
</g>
<!-- Node4&#45;&gt;Node3 -->
<g id="edge2" class="edge"><title>Node4&#45;&gt;Node3</title>
<path fill="none" stroke="#9a32cd" stroke-dasharray="5,2" d="M825.714,-151.521C857.56,-151.109 894.03,-150.638 923.727,-150.254"/>
<polygon fill="#9a32cd" stroke="#9a32cd" points="825.506,-148.023 815.552,-151.652 825.596,-155.023 825.506,-148.023"/>
<text text-anchor="middle" x="870.5" y="-153.5" font-family="Helvetica,sans-Serif" font-size="10.00"> HistFac</text>
</g>
<!-- Node5 -->
<g id="node4" class="node"><title>Node5</title>
<g id="a_node4"><a xlink:href="classant_1_1analysis_1_1_prompt_random_1_1_switch.html" target="_top" xlink:title="ant::analysis::PromptRandom\l::Switch">
<polygon fill="white" stroke="black" points="466,-75.5 466,-105.5 624,-105.5 624,-75.5 466,-75.5"/>
<text text-anchor="start" x="474" y="-93.5" font-family="Helvetica,sans-Serif" font-size="10.00">ant::analysis::PromptRandom</text>
<text text-anchor="middle" x="545" y="-82.5" font-family="Helvetica,sans-Serif" font-size="10.00">::Switch</text>
</a>
</g>
</g>
<!-- Node5&#45;&gt;Node2 -->
<g id="edge3" class="edge"><title>Node5&#45;&gt;Node2</title>
<path fill="none" stroke="#9a32cd" stroke-dasharray="5,2" d="M634.242,-92.3931C636.857,-92.4317 639.448,-92.4675 642,-92.5 832.653,-94.9302 880.332,-94.0556 1071,-94.5 1096.78,-94.5601 1103.23,-95.1777 1129,-94.5 1134.81,-94.3472 1140.87,-94.1287 1146.92,-93.8717"/>
<polygon fill="#9a32cd" stroke="#9a32cd" points="634.118,-88.8908 624.064,-92.2318 634.007,-95.8899 634.118,-88.8908"/>
<text text-anchor="middle" x="870.5" y="-97.5" font-family="Helvetica,sans-Serif" font-size="10.00"> prs</text>
</g>
<!-- Node11 -->
<g id="node10" class="node"><title>Node11</title>
<g id="a_node10"><a xlink:href="structant_1_1analysis_1_1_prompt_random_1_1_hist1.html" target="_top" xlink:title="ant::analysis::PromptRandom\l::Hist1">
<polygon fill="white" stroke="black" points="670,-49.5 670,-79.5 828,-79.5 828,-49.5 670,-49.5"/>
<text text-anchor="start" x="678" y="-67.5" font-family="Helvetica,sans-Serif" font-size="10.00">ant::analysis::PromptRandom</text>
<text text-anchor="middle" x="749" y="-56.5" font-family="Helvetica,sans-Serif" font-size="10.00">::Hist1</text>
</a>
</g>
</g>
<!-- Node5&#45;&gt;Node11 -->
<g id="edge10" class="edge"><title>Node5&#45;&gt;Node11</title>
<path fill="none" stroke="#9a32cd" stroke-dasharray="5,2" d="M634.021,-79.1705C645.92,-77.639 658.064,-76.0759 669.776,-74.5684"/>
<polygon fill="#9a32cd" stroke="#9a32cd" points="633.57,-75.6997 624.098,-80.4477 634.463,-82.6424 633.57,-75.6997"/>
<text text-anchor="middle" x="647" y="-80.5" font-family="Helvetica,sans-Serif" font-size="10.00"> d</text>
</g>
<!-- Node6 -->
<g id="node5" class="node"><title>Node6</title>
<g id="a_node5"><a xlink:href="classant_1_1_piecewise_interval.html" target="_top" xlink:title="ant::PiecewiseInterval\l\&lt; double \&gt;">
<polygon fill="white" stroke="black" points="265,-75.5 265,-105.5 384,-105.5 384,-75.5 265,-75.5"/>
<text text-anchor="start" x="273" y="-93.5" font-family="Helvetica,sans-Serif" font-size="10.00">ant::PiecewiseInterval</text>
<text text-anchor="middle" x="324.5" y="-82.5" font-family="Helvetica,sans-Serif" font-size="10.00">&lt; double &gt;</text>
</a>
</g>
</g>
<!-- Node6&#45;&gt;Node5 -->
<g id="edge4" class="edge"><title>Node6&#45;&gt;Node5</title>
<path fill="none" stroke="#9a32cd" stroke-dasharray="5,2" d="M394.304,-90.5C417.067,-90.5 442.558,-90.5 465.962,-90.5"/>
<polygon fill="#9a32cd" stroke="#9a32cd" points="394.054,-87.0001 384.054,-90.5 394.054,-94.0001 394.054,-87.0001"/>
<text text-anchor="middle" x="425" y="-104.5" font-family="Helvetica,sans-Serif" font-size="10.00"> promptw</text>
<text text-anchor="middle" x="425" y="-93.5" font-family="Helvetica,sans-Serif" font-size="10.00">randomw</text>
</g>
<!-- Node7 -->
<g id="node6" class="node"><title>Node7</title>
<g id="a_node6"><a xlink:title="STL class. ">
<polygon fill="white" stroke="#bfbfbf" points="114,-75.5 114,-105.5 228,-105.5 228,-75.5 114,-75.5"/>
<text text-anchor="start" x="122" y="-93.5" font-family="Helvetica,sans-Serif" font-size="10.00">std::vector&lt; interval</text>
<text text-anchor="middle" x="171" y="-82.5" font-family="Helvetica,sans-Serif" font-size="10.00">&lt; double &gt; &gt;</text>
</a>
</g>
</g>
<!-- Node7&#45;&gt;Node6 -->
<g id="edge5" class="edge"><title>Node7&#45;&gt;Node6</title>
<path fill="none" stroke="midnightblue" d="M238.554,-90.5C247.282,-90.5 256.175,-90.5 264.76,-90.5"/>
<polygon fill="midnightblue" stroke="midnightblue" points="238.413,-87.0001 228.413,-90.5 238.413,-94.0001 238.413,-87.0001"/>
</g>
<!-- Node8 -->
<g id="node7" class="node"><title>Node8</title>
<polygon fill="white" stroke="#bfbfbf" points="0,-81 0,-100 29,-100 29,-81 0,-81"/>
<text text-anchor="middle" x="14.5" y="-88" font-family="Helvetica,sans-Serif" font-size="10.00">T</text>
</g>
<!-- Node8&#45;&gt;Node7 -->
<g id="edge6" class="edge"><title>Node8&#45;&gt;Node7</title>
<path fill="none" stroke="#9a32cd" stroke-dasharray="5,2" d="M39.4618,-90.5C59.2697,-90.5 88.1942,-90.5 113.785,-90.5"/>
<polygon fill="#9a32cd" stroke="#9a32cd" points="39.2109,-87.0001 29.2108,-90.5 39.2108,-94.0001 39.2109,-87.0001"/>
<text text-anchor="middle" x="71.5" y="-93.5" font-family="Helvetica,sans-Serif" font-size="10.00"> elements</text>
</g>
<!-- Node9 -->
<g id="node8" class="node"><title>Node9</title>
<g id="a_node8"><a xlink:href="classant_1_1analysis_1_1utils_1_1_trigger_simulation.html" target="_top" xlink:title="ant::analysis::utils\l::TriggerSimulation">
<polygon fill="white" stroke="black" points="930.5,-0.5 930.5,-30.5 1035.5,-30.5 1035.5,-0.5 930.5,-0.5"/>
<text text-anchor="start" x="938.5" y="-18.5" font-family="Helvetica,sans-Serif" font-size="10.00">ant::analysis::utils</text>
<text text-anchor="middle" x="983" y="-7.5" font-family="Helvetica,sans-Serif" font-size="10.00">::TriggerSimulation</text>
</a>
</g>
</g>
<!-- Node9&#45;&gt;Node2 -->
<g id="edge7" class="edge"><title>Node9&#45;&gt;Node2</title>
<path fill="none" stroke="#9a32cd" stroke-dasharray="5,2" d="M1045.35,-33.4272C1071.31,-41.2976 1101.77,-50.9165 1129,-60.5 1141.98,-65.0684 1156.03,-70.4819 1168.49,-75.4442"/>
<polygon fill="#9a32cd" stroke="#9a32cd" points="1046.23,-30.0356 1035.64,-30.5002 1044.21,-36.7377 1046.23,-30.0356"/>
<text text-anchor="middle" x="1100" y="-63.5" font-family="Helvetica,sans-Serif" font-size="10.00"> triggersimu</text>
</g>
<!-- Node10 -->
<g id="node9" class="node"><title>Node10</title>
<polygon fill="white" stroke="#bfbfbf" points="913,-49.5 913,-79.5 1053,-79.5 1053,-49.5 913,-49.5"/>
<text text-anchor="start" x="921" y="-67.5" font-family="Helvetica,sans-Serif" font-size="10.00">std::vector&lt; ant::analysis</text>
<text text-anchor="middle" x="983" y="-56.5" font-family="Helvetica,sans-Serif" font-size="10.00">::PromptRandom::Hist1 &gt;</text>
</g>
<!-- Node10&#45;&gt;Node2 -->
<g id="edge8" class="edge"><title>Node10&#45;&gt;Node2</title>
<path fill="none" stroke="#9a32cd" stroke-dasharray="5,2" d="M1063.07,-73.8018C1090.73,-77.0568 1121.27,-80.6491 1146.9,-83.6652"/>
<polygon fill="#9a32cd" stroke="#9a32cd" points="1063.36,-70.3121 1053.02,-72.6196 1062.54,-77.2641 1063.36,-70.3121"/>
<text text-anchor="middle" x="1100" y="-84.5" font-family="Helvetica,sans-Serif" font-size="10.00"> m</text>
</g>
<!-- Node11&#45;&gt;Node10 -->
<g id="edge9" class="edge"><title>Node11&#45;&gt;Node10</title>
<path fill="none" stroke="#9a32cd" stroke-dasharray="5,2" d="M838.287,-64.5C862.915,-64.5 889.312,-64.5 912.677,-64.5"/>
<polygon fill="#9a32cd" stroke="#9a32cd" points="838.221,-61.0001 828.221,-64.5 838.221,-68.0001 838.221,-61.0001"/>
<text text-anchor="middle" x="870.5" y="-67.5" font-family="Helvetica,sans-Serif" font-size="10.00"> elements</text>
</g>
</g>
</svg>
