<?xml version="1.0" encoding="UTF-8" standalone="no"?>
<!DOCTYPE svg PUBLIC "-//W3C//DTD SVG 1.1//EN"
 "http://www.w3.org/Graphics/SVG/1.1/DTD/svg11.dtd">
<!-- Generated by graphviz version 2.38.0 (20140413.2041)
 -->
<!-- Title: ant::analysis::physics::OmegaMCCrossSection Pages: 1 -->
<svg width="1330pt" height="272pt"
 viewBox="0.00 0.00 1330.00 272.35" xmlns="http://www.w3.org/2000/svg" xmlns:xlink="http://www.w3.org/1999/xlink">
<g id="graph0" class="graph" transform="scale(1 1) rotate(0) translate(4 268.351)">
<title>ant::analysis::physics::OmegaMCCrossSection</title>
<polygon fill="white" stroke="none" points="-4,4 -4,-268.351 1326,-268.351 1326,4 -4,4"/>
<!-- Node2 -->
<g id="node1" class="node"><title>Node2</title>
<polygon fill="#bfbfbf" stroke="black" points="1186,-149.351 1186,-179.351 1322,-179.351 1322,-149.351 1186,-149.351"/>
<text text-anchor="start" x="1194" y="-167.351" font-family="Helvetica,sans-Serif" font-size="10.00">ant::analysis::physics</text>
<text text-anchor="middle" x="1254" y="-156.351" font-family="Helvetica,sans-Serif" font-size="10.00">::OmegaMCCrossSection</text>
</g>
<!-- Node3 -->
<g id="node2" class="node"><title>Node3</title>
<g id="a_node2"><a xlink:href="classant_1_1analysis_1_1_physics.html" target="_top" xlink:title="ant::analysis::Physics">
<polygon fill="white" stroke="black" points="968,-154.851 968,-173.851 1086,-173.851 1086,-154.851 968,-154.851"/>
<text text-anchor="middle" x="1027" y="-161.851" font-family="Helvetica,sans-Serif" font-size="10.00">ant::analysis::Physics</text>
</a>
</g>
</g>
<!-- Node3&#45;&gt;Node2 -->
<g id="edge1" class="edge"><title>Node3&#45;&gt;Node2</title>
<path fill="none" stroke="midnightblue" d="M1096.47,-164.351C1124.83,-164.351 1157.62,-164.351 1185.84,-164.351"/>
<polygon fill="midnightblue" stroke="midnightblue" points="1096.24,-160.852 1086.24,-164.351 1096.24,-167.852 1096.24,-160.852"/>
</g>
<!-- Node4 -->
<g id="node3" class="node"><title>Node4</title>
<g id="a_node3"><a xlink:href="classant_1_1analysis_1_1_histogram_factory.html" target="_top" xlink:title="ant::analysis::Histogram\lFactory">
<polygon fill="white" stroke="black" points="755,-136.351 755,-166.351 888,-166.351 888,-136.351 755,-136.351"/>
<text text-anchor="start" x="763" y="-154.351" font-family="Helvetica,sans-Serif" font-size="10.00">ant::analysis::Histogram</text>
<text text-anchor="middle" x="821.5" y="-143.351" font-family="Helvetica,sans-Serif" font-size="10.00">Factory</text>
</a>
</g>
</g>
<!-- Node4&#45;&gt;Node3 -->
<g id="edge2" class="edge"><title>Node4&#45;&gt;Node3</title>
<path fill="none" stroke="#9a32cd" stroke-dasharray="5,2" d="M898.099,-156.181C921.149,-157.653 946.12,-159.249 967.828,-160.635"/>
<polygon fill="#9a32cd" stroke="#9a32cd" points="898.212,-152.681 888.009,-155.536 897.765,-159.667 898.212,-152.681"/>
<text text-anchor="middle" x="928" y="-163.351" font-family="Helvetica,sans-Serif" font-size="10.00"> HistFac</text>
</g>
<!-- Node5 -->
<g id="node4" class="node"><title>Node5</title>
<g id="a_node4"><a xlink:href="classant_1_1analysis_1_1utils_1_1_m_c_weighting.html" target="_top" xlink:title="ant::analysis::utils\l::MCWeighting">
<polygon fill="white" stroke="black" points="976,-41.3515 976,-71.3515 1078,-71.3515 1078,-41.3515 976,-41.3515"/>
<text text-anchor="start" x="984" y="-59.3515" font-family="Helvetica,sans-Serif" font-size="10.00">ant::analysis::utils</text>
<text text-anchor="middle" x="1027" y="-48.3515" font-family="Helvetica,sans-Serif" font-size="10.00">::MCWeighting</text>
</a>
</g>
</g>
<!-- Node4&#45;&gt;Node5 -->
<g id="edge16" class="edge"><title>Node4&#45;&gt;Node5</title>
<path fill="none" stroke="#9a32cd" stroke-dasharray="5,2" d="M896.583,-133.315C914.531,-127.699 933.336,-120.731 950,-112.351 971.964,-101.307 994.281,-83.979 1009,-71.5231"/>
<polygon fill="#9a32cd" stroke="#9a32cd" points="895.279,-130.052 886.719,-136.296 897.304,-136.753 895.279,-130.052"/>
<text text-anchor="middle" x="928" y="-133.351" font-family="Helvetica,sans-Serif" font-size="10.00"> HistFac</text>
</g>
<!-- Node5&#45;&gt;Node2 -->
<g id="edge3" class="edge"><title>Node5&#45;&gt;Node2</title>
<path fill="none" stroke="#9a32cd" stroke-dasharray="5,2" d="M1068.53,-75.8044C1112.46,-96.8924 1181.64,-130.097 1221.62,-149.288"/>
<polygon fill="#9a32cd" stroke="#9a32cd" points="1069.82,-72.5405 1059.29,-71.3684 1066.79,-78.8511 1069.82,-72.5405"/>
<text text-anchor="middle" x="1136" y="-126.351" font-family="Helvetica,sans-Serif" font-size="10.00"> mcweighting</text>
</g>
<!-- Node6 -->
<g id="node5" class="node"><title>Node6</title>
<g id="a_node5"><a xlink:href="structant_1_1analysis_1_1utils_1_1_m_c_weighting_1_1tree__t.html" target="_top" xlink:title="ant::analysis::utils\l::MCWeighting::tree_t">
<polygon fill="white" stroke="black" points="762.5,-18.3515 762.5,-48.3515 880.5,-48.3515 880.5,-18.3515 762.5,-18.3515"/>
<text text-anchor="start" x="770.5" y="-36.3515" font-family="Helvetica,sans-Serif" font-size="10.00">ant::analysis::utils</text>
<text text-anchor="middle" x="821.5" y="-25.3515" font-family="Helvetica,sans-Serif" font-size="10.00">::MCWeighting::tree_t</text>
</a>
</g>
</g>
<!-- Node6&#45;&gt;Node5 -->
<g id="edge4" class="edge"><title>Node6&#45;&gt;Node5</title>
<path fill="none" stroke="#9a32cd" stroke-dasharray="5,2" d="M890.901,-20.9114C910.156,-19.3183 931.02,-19.4086 950,-23.3515 966.901,-26.8624 984.656,-34.3328 998.752,-41.2792"/>
<polygon fill="#9a32cd" stroke="#9a32cd" points="890.302,-17.4534 880.695,-21.9208 890.991,-24.4194 890.302,-17.4534"/>
<text text-anchor="middle" x="928" y="-26.3515" font-family="Helvetica,sans-Serif" font-size="10.00"> t</text>
</g>
<!-- Node7 -->
<g id="node6" class="node"><title>Node7</title>
<g id="a_node6"><a xlink:href="classant_1_1_wrap_t_tree.html" target="_top" xlink:title="The WrapTTree struct simplifies TTree handling in physics classes. ">
<polygon fill="white" stroke="black" points="547.5,-23.8515 547.5,-42.8515 633.5,-42.8515 633.5,-23.8515 547.5,-23.8515"/>
<text text-anchor="middle" x="590.5" y="-30.8515" font-family="Helvetica,sans-Serif" font-size="10.00">ant::WrapTTree</text>
</a>
</g>
</g>
<!-- Node7&#45;&gt;Node6 -->
<g id="edge5" class="edge"><title>Node7&#45;&gt;Node6</title>
<path fill="none" stroke="midnightblue" d="M643.623,-33.3515C678.997,-33.3515 725.803,-33.3515 762.381,-33.3515"/>
<polygon fill="midnightblue" stroke="midnightblue" points="643.502,-29.8516 633.502,-33.3515 643.502,-36.8516 643.502,-29.8516"/>
</g>
<!-- Node8 -->
<g id="node7" class="node"><title>Node8</title>
<g id="a_node7"><a xlink:href="structant_1_1analysis_1_1utils_1_1_m_c_weighting_1_1item__t.html" target="_top" xlink:title="ant::analysis::utils\l::MCWeighting::item_t">
<polygon fill="white" stroke="black" points="761.5,-74.3515 761.5,-104.351 881.5,-104.351 881.5,-74.3515 761.5,-74.3515"/>
<text text-anchor="start" x="769.5" y="-92.3515" font-family="Helvetica,sans-Serif" font-size="10.00">ant::analysis::utils</text>
<text text-anchor="middle" x="821.5" y="-81.3515" font-family="Helvetica,sans-Serif" font-size="10.00">::MCWeighting::item_t</text>
</a>
</g>
</g>
<!-- Node8&#45;&gt;Node5 -->
<g id="edge6" class="edge"><title>Node8&#45;&gt;Node5</title>
<path fill="none" stroke="#9a32cd" stroke-dasharray="5,2" d="M863.205,-70.4134C876.547,-65.1183 891.639,-60.071 906,-57.3515 928.722,-53.0487 954.3,-52.2892 975.986,-52.8093"/>
<polygon fill="#9a32cd" stroke="#9a32cd" points="861.741,-67.2311 853.834,-74.2831 864.413,-73.7012 861.741,-67.2311"/>
<text text-anchor="middle" x="928" y="-104.351" font-family="Helvetica,sans-Serif" font-size="10.00"> Item</text>
<text text-anchor="middle" x="928" y="-93.3515" font-family="Helvetica,sans-Serif" font-size="10.00">EtaPrime</text>
<text text-anchor="middle" x="928" y="-82.3515" font-family="Helvetica,sans-Serif" font-size="10.00">Pi0</text>
<text text-anchor="middle" x="928" y="-71.3515" font-family="Helvetica,sans-Serif" font-size="10.00">Omega</text>
<text text-anchor="middle" x="928" y="-60.3515" font-family="Helvetica,sans-Serif" font-size="10.00">Eta</text>
</g>
<!-- Node9 -->
<g id="node8" class="node"><title>Node9</title>
<polygon fill="white" stroke="#bfbfbf" points="514,-225.851 514,-244.851 667,-244.851 667,-225.851 514,-225.851"/>
<text text-anchor="middle" x="590.5" y="-232.851" font-family="Helvetica,sans-Serif" font-size="10.00">std::vector&lt; coefficients_t &gt;</text>
</g>
<!-- Node9&#45;&gt;Node8 -->
<g id="edge7" class="edge"><title>Node9&#45;&gt;Node8</title>
<path fill="none" stroke="#9a32cd" stroke-dasharray="5,2" d="M613.65,-219.827C644.772,-198.19 703.417,-158.056 755,-126.351 767.239,-118.829 781.054,-110.94 792.83,-104.388"/>
<polygon fill="#9a32cd" stroke="#9a32cd" points="611.474,-217.078 605.272,-225.668 615.477,-222.82 611.474,-217.078"/>
<text text-anchor="middle" x="711" y="-173.351" font-family="Helvetica,sans-Serif" font-size="10.00"> Database</text>
</g>
<!-- Node10 -->
<g id="node9" class="node"><title>Node10</title>
<polygon fill="white" stroke="#bfbfbf" points="268,-220.351 268,-250.351 420,-250.351 420,-220.351 268,-220.351"/>
<text text-anchor="start" x="276" y="-238.351" font-family="Helvetica,sans-Serif" font-size="10.00">ant::analysis::utils</text>
<text text-anchor="middle" x="344" y="-227.351" font-family="Helvetica,sans-Serif" font-size="10.00">::MCWeighting::coefficients_t</text>
</g>
<!-- Node10&#45;&gt;Node9 -->
<g id="edge8" class="edge"><title>Node10&#45;&gt;Node9</title>
<path fill="none" stroke="#9a32cd" stroke-dasharray="5,2" d="M430.29,-235.351C457.465,-235.351 487.33,-235.351 513.779,-235.351"/>
<polygon fill="#9a32cd" stroke="#9a32cd" points="430.02,-231.852 420.02,-235.351 430.02,-238.852 430.02,-231.852"/>
<text text-anchor="middle" x="467" y="-238.351" font-family="Helvetica,sans-Serif" font-size="10.00"> elements</text>
</g>
<!-- Node11 -->
<g id="node10" class="node"><title>Node11</title>
<g id="a_node10"><a xlink:href="classant_1_1interval.html" target="_top" xlink:title="ant::interval\&lt; double \&gt;">
<polygon fill="white" stroke="black" points="0,-206.851 0,-225.851 128,-225.851 128,-206.851 0,-206.851"/>
<text text-anchor="middle" x="64" y="-213.851" font-family="Helvetica,sans-Serif" font-size="10.00">ant::interval&lt; double &gt;</text>
</a>
</g>
</g>
<!-- Node11&#45;&gt;Node10 -->
<g id="edge9" class="edge"><title>Node11&#45;&gt;Node10</title>
<path fill="none" stroke="#9a32cd" stroke-dasharray="5,2" d="M138.367,-216.273C172.38,-216.765 213.309,-218.106 250,-221.351 255.855,-221.869 261.903,-222.518 267.973,-223.252"/>
<polygon fill="#9a32cd" stroke="#9a32cd" points="138.088,-212.769 128.045,-216.146 138.002,-219.769 138.088,-212.769"/>
<text text-anchor="middle" x="198" y="-224.351" font-family="Helvetica,sans-Serif" font-size="10.00"> BeamE</text>
</g>
<!-- Node12 -->
<g id="node11" class="node"><title>Node12</title>
<polygon fill="white" stroke="#bfbfbf" points="3,-244.851 3,-263.851 125,-263.851 125,-244.851 3,-244.851"/>
<text text-anchor="middle" x="64" y="-251.851" font-family="Helvetica,sans-Serif" font-size="10.00">std::vector&lt; double &gt;</text>
</g>
<!-- Node12&#45;&gt;Node10 -->
<g id="edge10" class="edge"><title>Node12&#45;&gt;Node10</title>
<path fill="none" stroke="#9a32cd" stroke-dasharray="5,2" d="M135.375,-249.542C175.845,-246.776 226.675,-243.302 267.912,-240.483"/>
<polygon fill="#9a32cd" stroke="#9a32cd" points="135.06,-246.055 125.322,-250.229 135.537,-253.039 135.06,-246.055"/>
<text text-anchor="middle" x="198" y="-251.351" font-family="Helvetica,sans-Serif" font-size="10.00"> LegendreCoefficients</text>
</g>
<!-- Node13 -->
<g id="node12" class="node"><title>Node13</title>
<g id="a_node12"><a xlink:href="classant_1_1_particle_type_database_1_1_type.html" target="_top" xlink:title="ant::ParticleTypeDatabase\l::Type">
<polygon fill="white" stroke="black" points="520.5,-74.3515 520.5,-104.351 660.5,-104.351 660.5,-74.3515 520.5,-74.3515"/>
<text text-anchor="start" x="528.5" y="-92.3515" font-family="Helvetica,sans-Serif" font-size="10.00">ant::ParticleTypeDatabase</text>
<text text-anchor="middle" x="590.5" y="-81.3515" font-family="Helvetica,sans-Serif" font-size="10.00">::Type</text>
</a>
</g>
</g>
<!-- Node13&#45;&gt;Node2 -->
<g id="edge17" class="edge"><title>Node13&#45;&gt;Node2</title>
<path fill="none" stroke="#9a32cd" stroke-dasharray="5,2" d="M620.996,-110.106C652.502,-130.977 704.724,-161.929 755,-175.351 904.769,-215.335 1088.96,-193.933 1185.94,-177.506"/>
<polygon fill="#9a32cd" stroke="#9a32cd" points="622.928,-107.188 612.677,-104.509 619.02,-112.996 622.928,-107.188"/>
<text text-anchor="middle" x="928" y="-201.351" font-family="Helvetica,sans-Serif" font-size="10.00"> meson</text>
</g>
<!-- Node13&#45;&gt;Node8 -->
<g id="edge11" class="edge"><title>Node13&#45;&gt;Node8</title>
<path fill="none" stroke="#9a32cd" stroke-dasharray="5,2" d="M670.861,-89.3515C700.555,-89.3515 733.741,-89.3515 761.301,-89.3515"/>
<polygon fill="#9a32cd" stroke="#9a32cd" points="670.518,-85.8516 660.518,-89.3515 670.518,-92.8516 670.518,-85.8516"/>
<text text-anchor="middle" x="711" y="-92.3515" font-family="Helvetica,sans-Serif" font-size="10.00"> Type</text>
</g>
<!-- Node13&#45;&gt;Node13 -->
<g id="edge14" class="edge"><title>Node13&#45;&gt;Node13</title>
<path fill="none" stroke="#9a32cd" stroke-dasharray="5,2" d="M569.177,-114.809C571.824,-119.53 578.931,-122.851 590.5,-122.851 609.484,-122.851 616.455,-113.908 611.412,-104.51"/>
<polygon fill="#9a32cd" stroke="#9a32cd" points="572.687,-114.642 569.588,-104.51 565.692,-114.363 572.687,-114.642"/>
<text text-anchor="middle" x="590.5" y="-125.851" font-family="Helvetica,sans-Serif" font-size="10.00"> sametype</text>
</g>
<!-- Node14 -->
<g id="node13" class="node"><title>Node14</title>
<g id="a_node13"><a xlink:title="STL class. ">
<polygon fill="white" stroke="#bfbfbf" points="311.5,-39.8515 311.5,-58.8515 376.5,-58.8515 376.5,-39.8515 311.5,-39.8515"/>
<text text-anchor="middle" x="344" y="-46.8515" font-family="Helvetica,sans-Serif" font-size="10.00">std::string</text>
</a>
</g>
</g>
<!-- Node14&#45;&gt;Node5 -->
<g id="edge15" class="edge"><title>Node14&#45;&gt;Node5</title>
<path fill="none" stroke="#9a32cd" stroke-dasharray="5,2" d="M386.842,-38.5023C420.837,-30.2181 470.164,-19.3951 514,-14.3515 679.154,4.65049 722.098,2.30765 888,-8.35149 915.727,-10.1329 923.51,-7.97104 950,-16.3515 968.623,-22.2431 988.087,-32.5792 1002.66,-41.2685"/>
<polygon fill="#9a32cd" stroke="#9a32cd" points="385.675,-35.1853 376.807,-40.9825 387.355,-41.9808 385.675,-35.1853"/>
<text text-anchor="middle" x="711" y="-4.35149" font-family="Helvetica,sans-Serif" font-size="10.00"> treeName</text>
</g>
<!-- Node14&#45;&gt;Node13 -->
<g id="edge12" class="edge"><title>Node14&#45;&gt;Node13</title>
<path fill="none" stroke="#9a32cd" stroke-dasharray="5,2" d="M387.285,-56.2694C423.913,-62.2617 477.604,-71.0454 520.457,-78.0562"/>
<polygon fill="#9a32cd" stroke="#9a32cd" points="387.398,-52.7413 376.964,-54.5808 386.268,-59.6495 387.398,-52.7413"/>
<text text-anchor="middle" x="467" y="-87.3515" font-family="Helvetica,sans-Serif" font-size="10.00"> print_name</text>
<text text-anchor="middle" x="467" y="-76.3515" font-family="Helvetica,sans-Serif" font-size="10.00">name</text>
</g>
<!-- Node15 -->
<g id="node14" class="node"><title>Node15</title>
<g id="a_node14"><a xlink:title="STL class. ">
<polygon fill="white" stroke="#bfbfbf" points="12.5,-34.3515 12.5,-64.3515 115.5,-64.3515 115.5,-34.3515 12.5,-34.3515"/>
<text text-anchor="start" x="20.5" y="-52.3515" font-family="Helvetica,sans-Serif" font-size="10.00">std::basic_string&lt;</text>
<text text-anchor="middle" x="64" y="-41.3515" font-family="Helvetica,sans-Serif" font-size="10.00"> char &gt;</text>
</a>
</g>
</g>
<!-- Node15&#45;&gt;Node14 -->
<g id="edge13" class="edge"><title>Node15&#45;&gt;Node14</title>
<path fill="none" stroke="midnightblue" d="M126.02,-49.3515C183.171,-49.3515 266.323,-49.3515 311.285,-49.3515"/>
<polygon fill="midnightblue" stroke="midnightblue" points="125.666,-45.8516 115.666,-49.3515 125.666,-52.8516 125.666,-45.8516"/>
</g>
</g>
</svg>
