<?xml version="1.0" encoding="UTF-8" standalone="no"?>
<!DOCTYPE svg PUBLIC "-//W3C//DTD SVG 1.1//EN"
 "http://www.w3.org/Graphics/SVG/1.1/DTD/svg11.dtd">
<!-- Generated by graphviz version 2.38.0 (20140413.2041)
 -->
<!-- Title: ant::analysis::physics::XMasCB Pages: 1 -->
<svg width="376pt" height="320pt"
 viewBox="0.00 0.00 375.50 320.00" xmlns="http://www.w3.org/2000/svg" xmlns:xlink="http://www.w3.org/1999/xlink">
<g id="graph0" class="graph" transform="scale(1 1) rotate(0) translate(4 316)">
<title>ant::analysis::physics::XMasCB</title>
<polygon fill="white" stroke="none" points="-4,4 -4,-316 371.5,-316 371.5,4 -4,4"/>
<!-- Node2 -->
<g id="node1" class="node"><title>Node2</title>
<polygon fill="#bfbfbf" stroke="black" points="141.5,-0.5 141.5,-30.5 259.5,-30.5 259.5,-0.5 141.5,-0.5"/>
<text text-anchor="start" x="149.5" y="-18.5" font-family="Helvetica,sans-Serif" font-size="10.00">ant::analysis::physics</text>
<text text-anchor="middle" x="200.5" y="-7.5" font-family="Helvetica,sans-Serif" font-size="10.00">::XMasCB</text>
</g>
<!-- Node3 -->
<g id="node2" class="node"><title>Node3</title>
<g id="a_node2"><a xlink:href="classant_1_1analysis_1_1_physics.html" target="_top" xlink:title="ant::analysis::Physics">
<polygon fill="white" stroke="black" points="19.5,-95 19.5,-114 137.5,-114 137.5,-95 19.5,-95"/>
<text text-anchor="middle" x="78.5" y="-102" font-family="Helvetica,sans-Serif" font-size="10.00">ant::analysis::Physics</text>
</a>
</g>
</g>
<!-- Node3&#45;&gt;Node2 -->
<g id="edge1" class="edge"><title>Node3&#45;&gt;Node2</title>
<path fill="none" stroke="midnightblue" d="M98.9214,-88.9372C121.706,-72.6891 158.314,-46.5837 180.801,-30.5475"/>
<polygon fill="midnightblue" stroke="midnightblue" points="96.7536,-86.1843 90.6439,-94.84 100.818,-91.8836 96.7536,-86.1843"/>
</g>
<!-- Node4 -->
<g id="node3" class="node"><title>Node4</title>
<g id="a_node3"><a xlink:href="classant_1_1analysis_1_1_histogram_factory.html" target="_top" xlink:title="ant::analysis::Histogram\lFactory">
<polygon fill="white" stroke="black" points="0,-167.5 0,-197.5 133,-197.5 133,-167.5 0,-167.5"/>
<text text-anchor="start" x="8" y="-185.5" font-family="Helvetica,sans-Serif" font-size="10.00">ant::analysis::Histogram</text>
<text text-anchor="middle" x="66.5" y="-174.5" font-family="Helvetica,sans-Serif" font-size="10.00">Factory</text>
</a>
</g>
</g>
<!-- Node4&#45;&gt;Node3 -->
<g id="edge2" class="edge"><title>Node4&#45;&gt;Node3</title>
<path fill="none" stroke="#9a32cd" stroke-dasharray="5,2" d="M70.3423,-157.165C72.6744,-142.396 75.5082,-124.448 77.1479,-114.064"/>
<polygon fill="#9a32cd" stroke="#9a32cd" points="66.8596,-156.781 68.7571,-167.205 73.774,-157.873 66.8596,-156.781"/>
<text text-anchor="middle" x="92.5" y="-141" font-family="Helvetica,sans-Serif" font-size="10.00"> HistFac</text>
</g>
<!-- Node5 -->
<g id="node4" class="node"><title>Node5</title>
<g id="a_node4"><a xlink:title="STL class. ">
<polygon fill="white" stroke="#bfbfbf" points="168,-95 168,-114 233,-114 233,-95 168,-95"/>
<text text-anchor="middle" x="200.5" y="-102" font-family="Helvetica,sans-Serif" font-size="10.00">std::string</text>
</a>
</g>
</g>
<!-- Node5&#45;&gt;Node2 -->
<g id="edge3" class="edge"><title>Node5&#45;&gt;Node2</title>
<path fill="none" stroke="#9a32cd" stroke-dasharray="5,2" d="M200.5,-84.4058C200.5,-68.1475 200.5,-45.1645 200.5,-30.5475"/>
<polygon fill="#9a32cd" stroke="#9a32cd" points="197,-84.84 200.5,-94.84 204,-84.8401 197,-84.84"/>
<text text-anchor="middle" x="210" y="-57.5" font-family="Helvetica,sans-Serif" font-size="10.00"> ext</text>
</g>
<!-- Node6 -->
<g id="node5" class="node"><title>Node6</title>
<g id="a_node5"><a xlink:title="STL class. ">
<polygon fill="white" stroke="#bfbfbf" points="151,-167.5 151,-197.5 254,-197.5 254,-167.5 151,-167.5"/>
<text text-anchor="start" x="159" y="-185.5" font-family="Helvetica,sans-Serif" font-size="10.00">std::basic_string&lt;</text>
<text text-anchor="middle" x="202.5" y="-174.5" font-family="Helvetica,sans-Serif" font-size="10.00"> char &gt;</text>
</a>
</g>
</g>
<!-- Node6&#45;&gt;Node5 -->
<g id="edge4" class="edge"><title>Node6&#45;&gt;Node5</title>
<path fill="none" stroke="midnightblue" d="M201.86,-157.165C201.471,-142.396 200.999,-124.448 200.725,-114.064"/>
<polygon fill="midnightblue" stroke="midnightblue" points="198.362,-157.301 202.124,-167.205 205.359,-157.116 198.362,-157.301"/>
</g>
<!-- Node7 -->
<g id="node6" class="node"><title>Node7</title>
<polygon fill="white" stroke="#bfbfbf" points="251.5,-89.5 251.5,-119.5 367.5,-119.5 367.5,-89.5 251.5,-89.5"/>
<text text-anchor="start" x="259.5" y="-107.5" font-family="Helvetica,sans-Serif" font-size="10.00">std::unique_ptr&lt; ant</text>
<text text-anchor="middle" x="309.5" y="-96.5" font-family="Helvetica,sans-Serif" font-size="10.00">::TH2CB &gt;</text>
</g>
<!-- Node7&#45;&gt;Node2 -->
<g id="edge5" class="edge"><title>Node7&#45;&gt;Node2</title>
<path fill="none" stroke="#9a32cd" stroke-dasharray="5,2" d="M283.614,-82.8386C263.416,-66.7172 235.899,-44.7541 218.164,-30.599"/>
<polygon fill="#9a32cd" stroke="#9a32cd" points="281.502,-85.631 291.501,-89.1337 285.869,-80.16 281.502,-85.631"/>
<text text-anchor="middle" x="278" y="-63" font-family="Helvetica,sans-Serif" font-size="10.00"> hist</text>
<text text-anchor="middle" x="278" y="-52" font-family="Helvetica,sans-Serif" font-size="10.00">grid</text>
</g>
<!-- Node8 -->
<g id="node7" class="node"><title>Node8</title>
<g id="a_node7"><a xlink:href="classant_1_1_t_h2_c_b.html" target="_top" xlink:title="The TH2CB class. ">
<polygon fill="white" stroke="black" points="274,-173 274,-192 345,-192 345,-173 274,-173"/>
<text text-anchor="middle" x="309.5" y="-180" font-family="Helvetica,sans-Serif" font-size="10.00">ant::TH2CB</text>
</a>
</g>
</g>
<!-- Node8&#45;&gt;Node7 -->
<g id="edge6" class="edge"><title>Node8&#45;&gt;Node7</title>
<path fill="none" stroke="#9a32cd" stroke-dasharray="5,2" d="M309.5,-162.782C309.5,-149.404 309.5,-131.688 309.5,-119.52"/>
<polygon fill="#9a32cd" stroke="#9a32cd" points="306,-162.782 309.5,-172.782 313,-162.782 306,-162.782"/>
<text text-anchor="middle" x="318" y="-141" font-family="Helvetica,sans-Serif" font-size="10.00"> ptr</text>
</g>
<!-- Node9 -->
<g id="node8" class="node"><title>Node9</title>
<g id="a_node8"><a xlink:href="classant_1_1_t_h2_crystals.html" target="_top" xlink:title="Base class for A2 Calorimeter display classes. ">
<polygon fill="white" stroke="black" points="262,-235.5 262,-254.5 357,-254.5 357,-235.5 262,-235.5"/>
<text text-anchor="middle" x="309.5" y="-242.5" font-family="Helvetica,sans-Serif" font-size="10.00">ant::TH2Crystals</text>
</a>
</g>
</g>
<!-- Node9&#45;&gt;Node8 -->
<g id="edge7" class="edge"><title>Node9&#45;&gt;Node8</title>
<path fill="none" stroke="midnightblue" d="M309.5,-225.003C309.5,-214 309.5,-200.682 309.5,-192.152"/>
<polygon fill="midnightblue" stroke="midnightblue" points="306,-225.332 309.5,-235.332 313,-225.332 306,-225.332"/>
</g>
<!-- Node10 -->
<g id="node9" class="node"><title>Node10</title>
<polygon fill="white" stroke="#bfbfbf" points="282,-292.5 282,-311.5 337,-311.5 337,-292.5 282,-292.5"/>
<text text-anchor="middle" x="309.5" y="-299.5" font-family="Helvetica,sans-Serif" font-size="10.00">TH2Poly</text>
</g>
<!-- Node10&#45;&gt;Node9 -->
<g id="edge8" class="edge"><title>Node10&#45;&gt;Node9</title>
<path fill="none" stroke="midnightblue" d="M309.5,-282.117C309.5,-272.817 309.5,-262.056 309.5,-254.715"/>
<polygon fill="midnightblue" stroke="midnightblue" points="306,-282.406 309.5,-292.406 313,-282.406 306,-282.406"/>
</g>
</g>
</svg>
