<?xml version="1.0" encoding="UTF-8" standalone="no"?>
<!DOCTYPE svg PUBLIC "-//W3C//DTD SVG 1.1//EN"
 "http://www.w3.org/Graphics/SVG/1.1/DTD/svg11.dtd">
<!-- Generated by graphviz version 2.38.0 (20140413.2041)
 -->
<!-- Title: ant::analysis::utils::NoProtonFitter Pages: 1 -->
<svg width="692pt" height="235pt"
 viewBox="0.00 0.00 692.00 234.50" xmlns="http://www.w3.org/2000/svg" xmlns:xlink="http://www.w3.org/1999/xlink">
<g id="graph0" class="graph" transform="scale(1 1) rotate(0) translate(4 230.5)">
<title>ant::analysis::utils::NoProtonFitter</title>
<polygon fill="white" stroke="none" points="-4,4 -4,-230.5 688,-230.5 688,4 -4,4"/>
<!-- Node2 -->
<g id="node1" class="node"><title>Node2</title>
<polygon fill="#bfbfbf" stroke="black" points="582,-93 582,-123 684,-123 684,-93 582,-93"/>
<text text-anchor="start" x="590" y="-111" font-family="Helvetica,sans-Serif" font-size="10.00">ant::analysis::utils</text>
<text text-anchor="middle" x="633" y="-100" font-family="Helvetica,sans-Serif" font-size="10.00">::NoProtonFitter</text>
</g>
<!-- Node3 -->
<g id="node2" class="node"><title>Node3</title>
<g id="a_node2"><a xlink:href="classant_1_1analysis_1_1utils_1_1_fitter.html" target="_top" xlink:title="ant::analysis::utils\l::Fitter">
<polygon fill="white" stroke="black" points="381.5,-196 381.5,-226 483.5,-226 483.5,-196 381.5,-196"/>
<text text-anchor="start" x="389.5" y="-214" font-family="Helvetica,sans-Serif" font-size="10.00">ant::analysis::utils</text>
<text text-anchor="middle" x="432.5" y="-203" font-family="Helvetica,sans-Serif" font-size="10.00">::Fitter</text>
</a>
</g>
</g>
<!-- Node3&#45;&gt;Node2 -->
<g id="edge1" class="edge"><title>Node3&#45;&gt;Node2</title>
<path fill="none" stroke="midnightblue" d="M488.387,-192.209C493.371,-190.217 498.306,-188.135 503,-186 542.784,-167.903 585.559,-140.224 610.492,-123.166"/>
<polygon fill="midnightblue" stroke="midnightblue" points="486.857,-189.047 478.793,-195.919 489.382,-195.576 486.857,-189.047"/>
</g>
<!-- Node4 -->
<g id="node3" class="node"><title>Node4</title>
<g id="a_node3"><a xlink:href="structant_1_1analysis_1_1utils_1_1_no_proton_fitter_1_1_beam_e__t.html" target="_top" xlink:title="ant::analysis::utils\l::NoProtonFitter::BeamE_t">
<polygon fill="white" stroke="black" points="362,-147 362,-177 503,-177 503,-147 362,-147"/>
<text text-anchor="start" x="370" y="-165" font-family="Helvetica,sans-Serif" font-size="10.00">ant::analysis::utils</text>
<text text-anchor="middle" x="432.5" y="-154" font-family="Helvetica,sans-Serif" font-size="10.00">::NoProtonFitter::BeamE_t</text>
</a>
</g>
</g>
<!-- Node4&#45;&gt;Node2 -->
<g id="edge2" class="edge"><title>Node4&#45;&gt;Node2</title>
<path fill="none" stroke="#9a32cd" stroke-dasharray="5,2" d="M498.564,-144.3C525.605,-136.944 556.504,-128.538 581.754,-121.669"/>
<polygon fill="#9a32cd" stroke="#9a32cd" points="497.524,-140.956 488.793,-146.958 499.361,-147.71 497.524,-140.956"/>
<text text-anchor="middle" x="542.5" y="-140" font-family="Helvetica,sans-Serif" font-size="10.00"> BeamE</text>
</g>
<!-- Node5 -->
<g id="node4" class="node"><title>Node5</title>
<g id="a_node4"><a xlink:href="structant_1_1analysis_1_1utils_1_1_fitter_1_1_v___s___p__t.html" target="_top" xlink:title="ant::analysis::utils\l::Fitter::V_S_P_t">
<polygon fill="white" stroke="black" points="152.5,-147 152.5,-177 254.5,-177 254.5,-147 152.5,-147"/>
<text text-anchor="start" x="160.5" y="-165" font-family="Helvetica,sans-Serif" font-size="10.00">ant::analysis::utils</text>
<text text-anchor="middle" x="203.5" y="-154" font-family="Helvetica,sans-Serif" font-size="10.00">::Fitter::V_S_P_t</text>
</a>
</g>
</g>
<!-- Node5&#45;&gt;Node4 -->
<g id="edge3" class="edge"><title>Node5&#45;&gt;Node4</title>
<path fill="none" stroke="midnightblue" d="M264.854,-162C294.648,-162 330.754,-162 361.73,-162"/>
<polygon fill="midnightblue" stroke="midnightblue" points="264.597,-158.5 254.597,-162 264.597,-165.5 264.597,-158.5"/>
</g>
<!-- Node6 -->
<g id="node5" class="node"><title>Node6</title>
<g id="a_node5"><a xlink:href="structant_1_1analysis_1_1utils_1_1_fitter_1_1_v___s__t.html" target="_top" xlink:title="ant::analysis::utils\l::Fitter::V_S_t">
<polygon fill="white" stroke="black" points="0,-147 0,-177 102,-177 102,-147 0,-147"/>
<text text-anchor="start" x="8" y="-165" font-family="Helvetica,sans-Serif" font-size="10.00">ant::analysis::utils</text>
<text text-anchor="middle" x="51" y="-154" font-family="Helvetica,sans-Serif" font-size="10.00">::Fitter::V_S_t</text>
</a>
</g>
</g>
<!-- Node6&#45;&gt;Node5 -->
<g id="edge4" class="edge"><title>Node6&#45;&gt;Node5</title>
<path fill="none" stroke="midnightblue" d="M112.15,-162C125.479,-162 139.468,-162 152.348,-162"/>
<polygon fill="midnightblue" stroke="midnightblue" points="112.114,-158.5 102.114,-162 112.114,-165.5 112.114,-158.5"/>
</g>
<!-- Node7 -->
<g id="node6" class="node"><title>Node7</title>
<g id="a_node6"><a xlink:href="structant_1_1analysis_1_1utils_1_1_no_proton_fitter_1_1_fit_proton_un_meas.html" target="_top" xlink:title="ant::analysis::utils\l::NoProtonFitter::FitProton\lUnMeas">
<polygon fill="white" stroke="black" points="362.5,-87.5 362.5,-128.5 502.5,-128.5 502.5,-87.5 362.5,-87.5"/>
<text text-anchor="start" x="370.5" y="-116.5" font-family="Helvetica,sans-Serif" font-size="10.00">ant::analysis::utils</text>
<text text-anchor="start" x="370.5" y="-105.5" font-family="Helvetica,sans-Serif" font-size="10.00">::NoProtonFitter::FitProton</text>
<text text-anchor="middle" x="432.5" y="-94.5" font-family="Helvetica,sans-Serif" font-size="10.00">UnMeas</text>
</a>
</g>
</g>
<!-- Node7&#45;&gt;Node2 -->
<g id="edge5" class="edge"><title>Node7&#45;&gt;Node2</title>
<path fill="none" stroke="#9a32cd" stroke-dasharray="5,2" d="M512.864,-108C536.142,-108 560.942,-108 581.854,-108"/>
<polygon fill="#9a32cd" stroke="#9a32cd" points="512.647,-104.5 502.647,-108 512.647,-111.5 512.647,-104.5"/>
<text text-anchor="middle" x="542.5" y="-111" font-family="Helvetica,sans-Serif" font-size="10.00"> Proton</text>
</g>
<!-- Node8 -->
<g id="node7" class="node"><title>Node8</title>
<polygon fill="white" stroke="#bfbfbf" points="141,-103.5 141,-122.5 266,-122.5 266,-103.5 141,-103.5"/>
<text text-anchor="middle" x="203.5" y="-110.5" font-family="Helvetica,sans-Serif" font-size="10.00">std::array&lt; V_S_t, 3 &gt;</text>
</g>
<!-- Node8&#45;&gt;Node7 -->
<g id="edge6" class="edge"><title>Node8&#45;&gt;Node7</title>
<path fill="none" stroke="#9a32cd" stroke-dasharray="5,2" d="M276.528,-111.413C303.918,-110.81 335.045,-110.125 362.18,-109.527"/>
<polygon fill="#9a32cd" stroke="#9a32cd" points="276.149,-107.921 266.229,-111.64 276.304,-114.919 276.149,-107.921"/>
<text text-anchor="middle" x="315" y="-126" font-family="Helvetica,sans-Serif" font-size="10.00"> Vars</text>
<text text-anchor="middle" x="315" y="-115" font-family="Helvetica,sans-Serif" font-size="10.00">Vars_before</text>
</g>
<!-- Node9 -->
<g id="node8" class="node"><title>Node9</title>
<polygon fill="white" stroke="#bfbfbf" points="139,-65.5 139,-84.5 268,-84.5 268,-65.5 139,-65.5"/>
<text text-anchor="middle" x="203.5" y="-72.5" font-family="Helvetica,sans-Serif" font-size="10.00">std::array&lt; double, 3 &gt;</text>
</g>
<!-- Node9&#45;&gt;Node7 -->
<g id="edge7" class="edge"><title>Node9&#45;&gt;Node7</title>
<path fill="none" stroke="#9a32cd" stroke-dasharray="5,2" d="M278.218,-85.7167C305.272,-89.6496 335.777,-94.0844 362.41,-97.9561"/>
<polygon fill="#9a32cd" stroke="#9a32cd" points="278.434,-82.2113 268.034,-84.2362 277.426,-89.1385 278.434,-82.2113"/>
<text text-anchor="middle" x="315" y="-98" font-family="Helvetica,sans-Serif" font-size="10.00"> Pulls</text>
</g>
<!-- Node10 -->
<g id="node9" class="node"><title>Node10</title>
<g id="a_node9"><a xlink:href="structant_1_1analysis_1_1utils_1_1_no_proton_fitter_1_1_target__t.html" target="_top" xlink:title="ant::analysis::utils\l::NoProtonFitter::Target_t">
<polygon fill="white" stroke="black" points="364.5,-39 364.5,-69 500.5,-69 500.5,-39 364.5,-39"/>
<text text-anchor="start" x="372.5" y="-57" font-family="Helvetica,sans-Serif" font-size="10.00">ant::analysis::utils</text>
<text text-anchor="middle" x="432.5" y="-46" font-family="Helvetica,sans-Serif" font-size="10.00">::NoProtonFitter::Target_t</text>
</a>
</g>
</g>
<!-- Node10&#45;&gt;Node2 -->
<g id="edge8" class="edge"><title>Node10&#45;&gt;Node2</title>
<path fill="none" stroke="#9a32cd" stroke-dasharray="5,2" d="M498.564,-71.7C525.605,-79.0564 556.504,-87.4621 581.754,-94.331"/>
<polygon fill="#9a32cd" stroke="#9a32cd" points="499.361,-68.2898 488.793,-69.042 497.524,-75.0443 499.361,-68.2898"/>
<text text-anchor="middle" x="542.5" y="-92" font-family="Helvetica,sans-Serif" font-size="10.00"> Target</text>
</g>
<!-- Node11 -->
<g id="node10" class="node"><title>Node11</title>
<polygon fill="white" stroke="#bfbfbf" points="365,-0.5 365,-19.5 500,-19.5 500,-0.5 365,-0.5"/>
<text text-anchor="middle" x="432.5" y="-7.5" font-family="Helvetica,sans-Serif" font-size="10.00">std::vector&lt; FitParticle &gt;</text>
</g>
<!-- Node11&#45;&gt;Node2 -->
<g id="edge9" class="edge"><title>Node11&#45;&gt;Node2</title>
<path fill="none" stroke="#9a32cd" stroke-dasharray="5,2" d="M485.616,-22.6103C491.559,-24.5283 497.464,-26.6595 503,-29 543.879,-46.2837 587.004,-75.1762 611.594,-92.8179"/>
<polygon fill="#9a32cd" stroke="#9a32cd" points="486.226,-19.1378 475.641,-19.5842 484.194,-25.8364 486.226,-19.1378"/>
<text text-anchor="middle" x="542.5" y="-63" font-family="Helvetica,sans-Serif" font-size="10.00"> Photons</text>
</g>
</g>
</svg>
