<?xml version="1.0" encoding="UTF-8" standalone="no"?>
<!DOCTYPE svg PUBLIC "-//W3C//DTD SVG 1.1//EN"
 "http://www.w3.org/Graphics/SVG/1.1/DTD/svg11.dtd">
<!-- Generated by graphviz version 2.38.0 (20140413.2041)
 -->
<!-- Title: ant::progs::taggeff::taggEffTriple_t Pages: 1 -->
<svg width="1124pt" height="230pt"
 viewBox="0.00 0.00 1124.00 230.00" xmlns="http://www.w3.org/2000/svg" xmlns:xlink="http://www.w3.org/1999/xlink">
<g id="graph0" class="graph" transform="scale(1 1) rotate(0) translate(4 226)">
<title>ant::progs::taggeff::taggEffTriple_t</title>
<polygon fill="white" stroke="none" points="-4,4 -4,-226 1120,-226 1120,4 -4,4"/>
<!-- Node1 -->
<g id="node1" class="node"><title>Node1</title>
<polygon fill="#bfbfbf" stroke="black" points="1011,-82.5 1011,-112.5 1116,-112.5 1116,-82.5 1011,-82.5"/>
<text text-anchor="start" x="1019" y="-100.5" font-family="Helvetica,sans-Serif" font-size="10.00">ant::progs::taggeff</text>
<text text-anchor="middle" x="1063.5" y="-89.5" font-family="Helvetica,sans-Serif" font-size="10.00">::taggEffTriple_t</text>
</g>
<!-- Node2 -->
<g id="node2" class="node"><title>Node2</title>
<g id="a_node2"><a xlink:href="structant_1_1progs_1_1taggeff_1_1tree_loader__t.html" target="_top" xlink:title="ant::progs::taggeff\l::treeLoader_t">
<polygon fill="white" stroke="black" points="818,-147.5 818,-177.5 923,-177.5 923,-147.5 818,-147.5"/>
<text text-anchor="start" x="826" y="-165.5" font-family="Helvetica,sans-Serif" font-size="10.00">ant::progs::taggeff</text>
<text text-anchor="middle" x="870.5" y="-154.5" font-family="Helvetica,sans-Serif" font-size="10.00">::treeLoader_t</text>
</a>
</g>
</g>
<!-- Node2&#45;&gt;Node1 -->
<g id="edge1" class="edge"><title>Node2&#45;&gt;Node1</title>
<path fill="none" stroke="#9a32cd" stroke-dasharray="5,2" d="M932.001,-144.458C951.559,-138.392 973.282,-131.405 993,-124.5 1003.51,-120.821 1014.8,-116.567 1025.16,-112.539"/>
<polygon fill="#9a32cd" stroke="#9a32cd" points="930.819,-141.16 922.294,-147.45 932.881,-147.85 930.819,-141.16"/>
<text text-anchor="middle" x="974" y="-162.5" font-family="Helvetica,sans-Serif" font-size="10.00"> Bkg1</text>
<text text-anchor="middle" x="974" y="-151.5" font-family="Helvetica,sans-Serif" font-size="10.00">Bkg2</text>
<text text-anchor="middle" x="974" y="-140.5" font-family="Helvetica,sans-Serif" font-size="10.00">Run</text>
</g>
<!-- Node3 -->
<g id="node3" class="node"><title>Node3</title>
<g id="a_node3"><a xlink:href="structant_1_1analysis_1_1physics_1_1_process_tagg_eff_1_1_tree_scalar_reads.html" target="_top" xlink:title="ant::analysis::physics\l::ProcessTaggEff::TreeScalarReads">
<polygon fill="white" stroke="black" points="530,-191.5 530,-221.5 708,-221.5 708,-191.5 530,-191.5"/>
<text text-anchor="start" x="538" y="-209.5" font-family="Helvetica,sans-Serif" font-size="10.00">ant::analysis::physics</text>
<text text-anchor="middle" x="619" y="-198.5" font-family="Helvetica,sans-Serif" font-size="10.00">::ProcessTaggEff::TreeScalarReads</text>
</a>
</g>
</g>
<!-- Node3&#45;&gt;Node2 -->
<g id="edge2" class="edge"><title>Node3&#45;&gt;Node2</title>
<path fill="none" stroke="#9a32cd" stroke-dasharray="5,2" d="M716.602,-189.704C739.366,-185.724 763.541,-181.479 786,-177.5 796.297,-175.676 807.305,-173.71 817.838,-171.82"/>
<polygon fill="#9a32cd" stroke="#9a32cd" points="715.848,-186.283 706.599,-191.452 717.053,-193.178 715.848,-186.283"/>
<text text-anchor="middle" x="756" y="-190.5" font-family="Helvetica,sans-Serif" font-size="10.00"> wrapTree</text>
</g>
<!-- Node4 -->
<g id="node4" class="node"><title>Node4</title>
<g id="a_node4"><a xlink:href="classant_1_1_wrap_t_tree.html" target="_top" xlink:title="The WrapTTree struct simplifies TTree handling in physics classes. ">
<polygon fill="white" stroke="black" points="398.5,-197 398.5,-216 484.5,-216 484.5,-197 398.5,-197"/>
<text text-anchor="middle" x="441.5" y="-204" font-family="Helvetica,sans-Serif" font-size="10.00">ant::WrapTTree</text>
</a>
</g>
</g>
<!-- Node4&#45;&gt;Node3 -->
<g id="edge3" class="edge"><title>Node4&#45;&gt;Node3</title>
<path fill="none" stroke="midnightblue" d="M494.817,-206.5C505.856,-206.5 517.795,-206.5 529.747,-206.5"/>
<polygon fill="midnightblue" stroke="midnightblue" points="494.537,-203 484.537,-206.5 494.537,-210 494.537,-203"/>
</g>
<!-- Node5 -->
<g id="node5" class="node"><title>Node5</title>
<g id="a_node5"><a xlink:title="STL class. ">
<polygon fill="white" stroke="#bfbfbf" points="586.5,-153 586.5,-172 651.5,-172 651.5,-153 586.5,-153"/>
<text text-anchor="middle" x="619" y="-160" font-family="Helvetica,sans-Serif" font-size="10.00">std::string</text>
</a>
</g>
</g>
<!-- Node5&#45;&gt;Node2 -->
<g id="edge4" class="edge"><title>Node5&#45;&gt;Node2</title>
<path fill="none" stroke="#9a32cd" stroke-dasharray="5,2" d="M661.698,-162.5C704.606,-162.5 771.535,-162.5 817.787,-162.5"/>
<polygon fill="#9a32cd" stroke="#9a32cd" points="661.599,-159 651.599,-162.5 661.599,-166 661.599,-159"/>
<text text-anchor="middle" x="756" y="-165.5" font-family="Helvetica,sans-Serif" font-size="10.00"> setupName</text>
</g>
<!-- Node6 -->
<g id="node6" class="node"><title>Node6</title>
<g id="a_node6"><a xlink:title="STL class. ">
<polygon fill="white" stroke="#bfbfbf" points="390,-147.5 390,-177.5 493,-177.5 493,-147.5 390,-147.5"/>
<text text-anchor="start" x="398" y="-165.5" font-family="Helvetica,sans-Serif" font-size="10.00">std::basic_string&lt;</text>
<text text-anchor="middle" x="441.5" y="-154.5" font-family="Helvetica,sans-Serif" font-size="10.00"> char &gt;</text>
</a>
</g>
</g>
<!-- Node6&#45;&gt;Node5 -->
<g id="edge5" class="edge"><title>Node6&#45;&gt;Node5</title>
<path fill="none" stroke="midnightblue" d="M503.358,-162.5C531.322,-162.5 563.32,-162.5 586.391,-162.5"/>
<polygon fill="midnightblue" stroke="midnightblue" points="503.262,-159 493.262,-162.5 503.262,-166 503.262,-159"/>
</g>
<!-- Node7 -->
<g id="node7" class="node"><title>Node7</title>
<g id="a_node7"><a xlink:href="classant_1_1_wrap_t_file_input.html" target="_top" xlink:title="ant::WrapTFileInput">
<polygon fill="white" stroke="black" points="566,-112 566,-131 672,-131 672,-112 566,-112"/>
<text text-anchor="middle" x="619" y="-119" font-family="Helvetica,sans-Serif" font-size="10.00">ant::WrapTFileInput</text>
</a>
</g>
</g>
<!-- Node7&#45;&gt;Node2 -->
<g id="edge6" class="edge"><title>Node7&#45;&gt;Node2</title>
<path fill="none" stroke="#9a32cd" stroke-dasharray="5,2" d="M682.294,-130.919C713.463,-135.718 751.755,-141.743 786,-147.5 796.313,-149.234 807.328,-151.159 817.862,-153.038"/>
<polygon fill="#9a32cd" stroke="#9a32cd" points="682.428,-127.399 672.012,-129.341 681.365,-134.318 682.428,-127.399"/>
<text text-anchor="middle" x="756" y="-150.5" font-family="Helvetica,sans-Serif" font-size="10.00"> wrapFile</text>
</g>
<!-- Node8 -->
<g id="node8" class="node"><title>Node8</title>
<g id="a_node8"><a xlink:href="classant_1_1_wrap_t_file.html" target="_top" xlink:title="ant::WrapTFile">
<polygon fill="white" stroke="black" points="400.5,-109 400.5,-128 482.5,-128 482.5,-109 400.5,-109"/>
<text text-anchor="middle" x="441.5" y="-116" font-family="Helvetica,sans-Serif" font-size="10.00">ant::WrapTFile</text>
</a>
</g>
</g>
<!-- Node8&#45;&gt;Node7 -->
<g id="edge7" class="edge"><title>Node8&#45;&gt;Node7</title>
<path fill="none" stroke="midnightblue" d="M492.952,-119.362C515.829,-119.753 542.86,-120.216 565.927,-120.61"/>
<polygon fill="midnightblue" stroke="midnightblue" points="492.822,-115.86 482.763,-119.188 492.702,-122.859 492.822,-115.86"/>
</g>
<!-- Node9 -->
<g id="node9" class="node"><title>Node9</title>
<polygon fill="white" stroke="#bfbfbf" points="216,-103.5 216,-133.5 332,-133.5 332,-103.5 216,-103.5"/>
<text text-anchor="start" x="224" y="-121.5" font-family="Helvetica,sans-Serif" font-size="10.00">std::list&lt; std::unique</text>
<text text-anchor="middle" x="274" y="-110.5" font-family="Helvetica,sans-Serif" font-size="10.00">_ptr&lt; TFile &gt; &gt;</text>
</g>
<!-- Node9&#45;&gt;Node8 -->
<g id="edge8" class="edge"><title>Node9&#45;&gt;Node8</title>
<path fill="none" stroke="#9a32cd" stroke-dasharray="5,2" d="M342.554,-118.5C362.187,-118.5 383.002,-118.5 400.371,-118.5"/>
<polygon fill="#9a32cd" stroke="#9a32cd" points="342.419,-115 332.419,-118.5 342.419,-122 342.419,-115"/>
<text text-anchor="middle" x="361" y="-121.5" font-family="Helvetica,sans-Serif" font-size="10.00"> files</text>
</g>
<!-- Node10 -->
<g id="node10" class="node"><title>Node10</title>
<polygon fill="white" stroke="#bfbfbf" points="0,-109 0,-128 131,-128 131,-109 0,-109"/>
<text text-anchor="middle" x="65.5" y="-116" font-family="Helvetica,sans-Serif" font-size="10.00">std::unique_ptr&lt; TFile &gt;</text>
</g>
<!-- Node10&#45;&gt;Node9 -->
<g id="edge9" class="edge"><title>Node10&#45;&gt;Node9</title>
<path fill="none" stroke="#9a32cd" stroke-dasharray="5,2" d="M141.276,-118.5C165.843,-118.5 192.742,-118.5 215.792,-118.5"/>
<polygon fill="#9a32cd" stroke="#9a32cd" points="141.271,-115 131.271,-118.5 141.271,-122 141.271,-115"/>
<text text-anchor="middle" x="173.5" y="-121.5" font-family="Helvetica,sans-Serif" font-size="10.00"> elements</text>
</g>
<!-- Node11 -->
<g id="node11" class="node"><title>Node11</title>
<g id="a_node11"><a xlink:href="structant_1_1_t_i_d.html" target="_top" xlink:title="ant::TID">
<polygon fill="white" stroke="black" points="844,-109 844,-128 897,-128 897,-109 844,-109"/>
<text text-anchor="middle" x="870.5" y="-116" font-family="Helvetica,sans-Serif" font-size="10.00">ant::TID</text>
</a>
</g>
</g>
<!-- Node11&#45;&gt;Node1 -->
<g id="edge10" class="edge"><title>Node11&#45;&gt;Node1</title>
<path fill="none" stroke="#9a32cd" stroke-dasharray="5,2" d="M907.42,-114.551C936.627,-111.339 978.215,-106.767 1010.97,-103.165"/>
<polygon fill="#9a32cd" stroke="#9a32cd" points="906.817,-111.096 897.259,-115.668 907.582,-118.054 906.817,-111.096"/>
<text text-anchor="middle" x="974" y="-112.5" font-family="Helvetica,sans-Serif" font-size="10.00"> startID</text>
</g>
<!-- Node12 -->
<g id="node12" class="node"><title>Node12</title>
<polygon fill="white" stroke="#bfbfbf" points="806.5,-49 806.5,-90 934.5,-90 934.5,-49 806.5,-49"/>
<text text-anchor="start" x="814.5" y="-78" font-family="Helvetica,sans-Serif" font-size="10.00">std::vector&lt; ant::progs</text>
<text text-anchor="start" x="814.5" y="-67" font-family="Helvetica,sans-Serif" font-size="10.00">::taggeff::taggEffTriple</text>
<text text-anchor="middle" x="870.5" y="-56" font-family="Helvetica,sans-Serif" font-size="10.00">_t::bkgFit_t &gt;</text>
</g>
<!-- Node12&#45;&gt;Node1 -->
<g id="edge11" class="edge"><title>Node12&#45;&gt;Node1</title>
<path fill="none" stroke="#9a32cd" stroke-dasharray="5,2" d="M944.597,-80.2159C966.723,-83.4593 990.548,-86.952 1010.95,-89.943"/>
<polygon fill="#9a32cd" stroke="#9a32cd" points="944.972,-76.7334 934.57,-78.7458 943.956,-83.6594 944.972,-76.7334"/>
<text text-anchor="middle" x="974" y="-90.5" font-family="Helvetica,sans-Serif" font-size="10.00"> bkgFits</text>
</g>
<!-- Node13 -->
<g id="node13" class="node"><title>Node13</title>
<g id="a_node13"><a xlink:href="structant_1_1progs_1_1taggeff_1_1tagg_eff_triple__t_1_1bkg_fit__t.html" target="_top" xlink:title="ant::progs::taggeff\l::taggEffTriple_t::bkgFit_t">
<polygon fill="white" stroke="black" points="553,-54.5 553,-84.5 685,-84.5 685,-54.5 553,-54.5"/>
<text text-anchor="start" x="561" y="-72.5" font-family="Helvetica,sans-Serif" font-size="10.00">ant::progs::taggeff</text>
<text text-anchor="middle" x="619" y="-61.5" font-family="Helvetica,sans-Serif" font-size="10.00">::taggEffTriple_t::bkgFit_t</text>
</a>
</g>
</g>
<!-- Node13&#45;&gt;Node12 -->
<g id="edge12" class="edge"><title>Node13&#45;&gt;Node12</title>
<path fill="none" stroke="#9a32cd" stroke-dasharray="5,2" d="M695.518,-69.5C730.939,-69.5 772.666,-69.5 806.376,-69.5"/>
<polygon fill="#9a32cd" stroke="#9a32cd" points="695.227,-66.0001 685.227,-69.5 695.227,-73.0001 695.227,-66.0001"/>
<text text-anchor="middle" x="756" y="-72.5" font-family="Helvetica,sans-Serif" font-size="10.00"> elements</text>
</g>
<!-- Node14 -->
<g id="node14" class="node"><title>Node14</title>
<g id="a_node14"><a xlink:href="classant_1_1analysis_1_1_histogram_factory.html" target="_top" xlink:title="ant::analysis::Histogram\lFactory">
<polygon fill="white" stroke="black" points="804,-0.5 804,-30.5 937,-30.5 937,-0.5 804,-0.5"/>
<text text-anchor="start" x="812" y="-18.5" font-family="Helvetica,sans-Serif" font-size="10.00">ant::analysis::Histogram</text>
<text text-anchor="middle" x="870.5" y="-7.5" font-family="Helvetica,sans-Serif" font-size="10.00">Factory</text>
</a>
</g>
</g>
<!-- Node14&#45;&gt;Node1 -->
<g id="edge13" class="edge"><title>Node14&#45;&gt;Node1</title>
<path fill="none" stroke="#9a32cd" stroke-dasharray="5,2" d="M923.995,-34.3027C928.412,-36.0155 932.794,-37.7611 937,-39.5 969.828,-53.0736 1006.64,-70.3379 1031.87,-82.489"/>
<polygon fill="#9a32cd" stroke="#9a32cd" points="924.919,-30.9091 914.328,-30.6209 922.427,-37.4508 924.919,-30.9091"/>
<text text-anchor="middle" x="974" y="-67.5" font-family="Helvetica,sans-Serif" font-size="10.00"> HistFac</text>
</g>
</g>
</svg>
