<?xml version="1.0" encoding="UTF-8" standalone="no"?>
<!DOCTYPE svg PUBLIC "-//W3C//DTD SVG 1.1//EN"
 "http://www.w3.org/Graphics/SVG/1.1/DTD/svg11.dtd">
<!-- Generated by graphviz version 2.38.0 (20140413.2041)
 -->
<!-- Title: ant::analysis::physics::TaggerOverview Pages: 1 -->
<svg width="141pt" height="242pt"
 viewBox="0.00 0.00 141.00 242.00" xmlns="http://www.w3.org/2000/svg" xmlns:xlink="http://www.w3.org/1999/xlink">
<g id="graph0" class="graph" transform="scale(1 1) rotate(0) translate(4 238)">
<title>ant::analysis::physics::TaggerOverview</title>
<polygon fill="white" stroke="none" points="-4,4 -4,-238 137,-238 137,4 -4,4"/>
<!-- Node3 -->
<g id="node1" class="node"><title>Node3</title>
<polygon fill="#bfbfbf" stroke="black" points="7.5,-0.5 7.5,-30.5 125.5,-30.5 125.5,-0.5 7.5,-0.5"/>
<text text-anchor="start" x="15.5" y="-18.5" font-family="Helvetica,sans-Serif" font-size="10.00">ant::analysis::physics</text>
<text text-anchor="middle" x="66.5" y="-7.5" font-family="Helvetica,sans-Serif" font-size="10.00">::TaggerOverview</text>
</g>
<!-- Node4 -->
<g id="node2" class="node"><title>Node4</title>
<g id="a_node2"><a xlink:href="classant_1_1analysis_1_1physics_1_1_data_overview_base.html" target="_top" xlink:title="Base class for DataOverview physics. ">
<polygon fill="white" stroke="black" points="7.5,-68.5 7.5,-98.5 125.5,-98.5 125.5,-68.5 7.5,-68.5"/>
<text text-anchor="start" x="15.5" y="-86.5" font-family="Helvetica,sans-Serif" font-size="10.00">ant::analysis::physics</text>
<text text-anchor="middle" x="66.5" y="-75.5" font-family="Helvetica,sans-Serif" font-size="10.00">::DataOverviewBase</text>
</a>
</g>
</g>
<!-- Node4&#45;&gt;Node3 -->
<g id="edge1" class="edge"><title>Node4&#45;&gt;Node3</title>
<path fill="none" stroke="midnightblue" d="M66.5,-58.0322C66.5,-48.8606 66.5,-38.7449 66.5,-30.7931"/>
<polygon fill="midnightblue" stroke="midnightblue" points="63.0001,-58.1789 66.5,-68.179 70.0001,-58.179 63.0001,-58.1789"/>
</g>
<!-- Node5 -->
<g id="node3" class="node"><title>Node5</title>
<g id="a_node3"><a xlink:href="classant_1_1analysis_1_1_physics.html" target="_top" xlink:title="ant::analysis::Physics">
<polygon fill="white" stroke="black" points="7.5,-136.5 7.5,-155.5 125.5,-155.5 125.5,-136.5 7.5,-136.5"/>
<text text-anchor="middle" x="66.5" y="-143.5" font-family="Helvetica,sans-Serif" font-size="10.00">ant::analysis::Physics</text>
</a>
</g>
</g>
<!-- Node5&#45;&gt;Node4 -->
<g id="edge2" class="edge"><title>Node5&#45;&gt;Node4</title>
<path fill="none" stroke="midnightblue" d="M66.5,-126.215C66.5,-117.356 66.5,-106.958 66.5,-98.7587"/>
<polygon fill="midnightblue" stroke="midnightblue" points="63.0001,-126.332 66.5,-136.332 70.0001,-126.332 63.0001,-126.332"/>
</g>
<!-- Node6 -->
<g id="node4" class="node"><title>Node6</title>
<g id="a_node4"><a xlink:href="classant_1_1analysis_1_1_histogram_factory.html" target="_top" xlink:title="ant::analysis::Histogram\lFactory">
<polygon fill="white" stroke="black" points="0,-203.5 0,-233.5 133,-233.5 133,-203.5 0,-203.5"/>
<text text-anchor="start" x="8" y="-221.5" font-family="Helvetica,sans-Serif" font-size="10.00">ant::analysis::Histogram</text>
<text text-anchor="middle" x="66.5" y="-210.5" font-family="Helvetica,sans-Serif" font-size="10.00">Factory</text>
</a>
</g>
</g>
<!-- Node6&#45;&gt;Node5 -->
<g id="edge3" class="edge"><title>Node6&#45;&gt;Node5</title>
<path fill="none" stroke="#9a32cd" stroke-dasharray="5,2" d="M66.5,-193.091C66.5,-180.214 66.5,-165.197 66.5,-155.893"/>
<polygon fill="#9a32cd" stroke="#9a32cd" points="63.0001,-193.233 66.5,-203.233 70.0001,-193.233 63.0001,-193.233"/>
<text text-anchor="middle" x="85.5" y="-177" font-family="Helvetica,sans-Serif" font-size="10.00"> HistFac</text>
</g>
</g>
</svg>
