<?xml version="1.0" encoding="UTF-8" standalone="no"?>
<!DOCTYPE svg PUBLIC "-//W3C//DTD SVG 1.1//EN"
 "http://www.w3.org/Graphics/SVG/1.1/DTD/svg11.dtd">
<!-- Generated by graphviz version 2.38.0 (20140413.2041)
 -->
<!-- Title: ant::calibration::gui::VerticalIndicatorLine Pages: 1 -->
<svg width="803pt" height="212pt"
 viewBox="0.00 0.00 803.00 212.00" xmlns="http://www.w3.org/2000/svg" xmlns:xlink="http://www.w3.org/1999/xlink">
<g id="graph0" class="graph" transform="scale(1 1) rotate(0) translate(4 208)">
<title>ant::calibration::gui::VerticalIndicatorLine</title>
<polygon fill="white" stroke="none" points="-4,4 -4,-208 799,-208 799,4 -4,4"/>
<!-- Node5 -->
<g id="node1" class="node"><title>Node5</title>
<polygon fill="#bfbfbf" stroke="black" points="676,-88 676,-118 795,-118 795,-88 676,-88"/>
<text text-anchor="start" x="684" y="-106" font-family="Helvetica,sans-Serif" font-size="10.00">ant::calibration::gui</text>
<text text-anchor="middle" x="735.5" y="-95" font-family="Helvetica,sans-Serif" font-size="10.00">::VerticalIndicatorLine</text>
</g>
<!-- Node6 -->
<g id="node2" class="node"><title>Node6</title>
<g id="a_node2"><a xlink:href="classant_1_1calibration_1_1gui_1_1_indicator_line.html" target="_top" xlink:title="ant::calibration::gui\l::IndicatorLine">
<polygon fill="white" stroke="black" points="531,-88 531,-118 639,-118 639,-88 531,-88"/>
<text text-anchor="start" x="539" y="-106" font-family="Helvetica,sans-Serif" font-size="10.00">ant::calibration::gui</text>
<text text-anchor="middle" x="585" y="-95" font-family="Helvetica,sans-Serif" font-size="10.00">::IndicatorLine</text>
</a>
</g>
</g>
<!-- Node6&#45;&gt;Node5 -->
<g id="edge1" class="edge"><title>Node6&#45;&gt;Node5</title>
<path fill="none" stroke="midnightblue" d="M649.39,-103C658.184,-103 667.186,-103 675.888,-103"/>
<polygon fill="midnightblue" stroke="midnightblue" points="649.192,-99.5001 639.192,-103 649.192,-106.5 649.192,-99.5001"/>
</g>
<!-- Node7 -->
<g id="node3" class="node"><title>Node7</title>
<polygon fill="white" stroke="#bfbfbf" points="376,-184.5 376,-203.5 417,-203.5 417,-184.5 376,-184.5"/>
<text text-anchor="middle" x="396.5" y="-191.5" font-family="Helvetica,sans-Serif" font-size="10.00">TLine</text>
</g>
<!-- Node7&#45;&gt;Node6 -->
<g id="edge2" class="edge"><title>Node7&#45;&gt;Node6</title>
<path fill="none" stroke="midnightblue" d="M427.41,-191.912C451.644,-189.217 486.066,-183.058 513,-169 537.17,-156.385 559.182,-133.306 572.088,-118.058"/>
<polygon fill="midnightblue" stroke="midnightblue" points="426.989,-188.437 417.378,-192.895 427.672,-195.403 426.989,-188.437"/>
</g>
<!-- Node8 -->
<g id="node4" class="node"><title>Node8</title>
<g id="a_node4"><a xlink:href="classant_1_1calibration_1_1gui_1_1_indicator.html" target="_top" xlink:title="ant::calibration::gui\l::Indicator">
<polygon fill="white" stroke="black" points="342.5,-88 342.5,-118 450.5,-118 450.5,-88 342.5,-88"/>
<text text-anchor="start" x="350.5" y="-106" font-family="Helvetica,sans-Serif" font-size="10.00">ant::calibration::gui</text>
<text text-anchor="middle" x="396.5" y="-95" font-family="Helvetica,sans-Serif" font-size="10.00">::Indicator</text>
</a>
</g>
</g>
<!-- Node8&#45;&gt;Node6 -->
<g id="edge3" class="edge"><title>Node8&#45;&gt;Node6</title>
<path fill="none" stroke="midnightblue" d="M460.919,-103C483.627,-103 508.974,-103 530.736,-103"/>
<polygon fill="midnightblue" stroke="midnightblue" points="460.694,-99.5001 450.694,-103 460.694,-106.5 460.694,-99.5001"/>
</g>
<!-- Node9 -->
<g id="node5" class="node"><title>Node9</title>
<g id="a_node5"><a xlink:href="classant_1_1calibration_1_1gui_1_1update__notify__traits.html" target="_top" xlink:title="ant::calibration::gui\l::update_notify_traits">
<polygon fill="white" stroke="black" points="140,-130 140,-160 258,-160 258,-130 140,-130"/>
<text text-anchor="start" x="148" y="-148" font-family="Helvetica,sans-Serif" font-size="10.00">ant::calibration::gui</text>
<text text-anchor="middle" x="199" y="-137" font-family="Helvetica,sans-Serif" font-size="10.00">::update_notify_traits</text>
</a>
</g>
</g>
<!-- Node9&#45;&gt;Node6 -->
<g id="edge9" class="edge"><title>Node9&#45;&gt;Node6</title>
<path fill="none" stroke="#9a32cd" stroke-dasharray="5,2" d="M268.25,-142.157C281.127,-141.522 294.479,-140.798 307,-140 378.643,-135.435 396.937,-137.181 468,-127 488.663,-124.04 511.176,-119.654 530.824,-115.439"/>
<polygon fill="#9a32cd" stroke="#9a32cd" points="267.871,-138.671 258.05,-142.646 268.207,-145.663 267.871,-138.671"/>
<text text-anchor="middle" x="396.5" y="-141" font-family="Helvetica,sans-Serif" font-size="10.00"> update</text>
</g>
<!-- Node9&#45;&gt;Node8 -->
<g id="edge4" class="edge"><title>Node9&#45;&gt;Node8</title>
<path fill="none" stroke="midnightblue" d="M268.008,-130.39C292.332,-125.164 319.372,-119.355 342.267,-114.436"/>
<polygon fill="midnightblue" stroke="midnightblue" points="267.169,-126.99 258.127,-132.512 268.639,-133.834 267.169,-126.99"/>
</g>
<!-- Node10 -->
<g id="node6" class="node"><title>Node10</title>
<g id="a_node6"><a xlink:href="classant_1_1calibration_1_1gui_1_1_indicator_knob.html" target="_top" xlink:title="ant::calibration::gui\l::IndicatorKnob">
<polygon fill="white" stroke="black" points="342.5,-39 342.5,-69 450.5,-69 450.5,-39 342.5,-39"/>
<text text-anchor="start" x="350.5" y="-57" font-family="Helvetica,sans-Serif" font-size="10.00">ant::calibration::gui</text>
<text text-anchor="middle" x="396.5" y="-46" font-family="Helvetica,sans-Serif" font-size="10.00">::IndicatorKnob</text>
</a>
</g>
</g>
<!-- Node10&#45;&gt;Node6 -->
<g id="edge5" class="edge"><title>Node10&#45;&gt;Node6</title>
<path fill="none" stroke="#9a32cd" stroke-dasharray="5,2" d="M460.613,-70.5819C483.399,-76.5686 508.876,-83.2622 530.736,-89.0056"/>
<polygon fill="#9a32cd" stroke="#9a32cd" points="461.255,-67.1319 450.694,-67.9759 459.476,-73.9021 461.255,-67.1319"/>
<text text-anchor="middle" x="499.5" y="-88" font-family="Helvetica,sans-Serif" font-size="10.00"> knob</text>
</g>
<!-- Node11 -->
<g id="node7" class="node"><title>Node11</title>
<g id="a_node7"><a xlink:title="STL class. ">
<polygon fill="white" stroke="#bfbfbf" points="166.5,-82.5 166.5,-101.5 231.5,-101.5 231.5,-82.5 166.5,-82.5"/>
<text text-anchor="middle" x="199" y="-89.5" font-family="Helvetica,sans-Serif" font-size="10.00">std::string</text>
</a>
</g>
</g>
<!-- Node11&#45;&gt;Node10 -->
<g id="edge6" class="edge"><title>Node11&#45;&gt;Node10</title>
<path fill="none" stroke="#9a32cd" stroke-dasharray="5,2" d="M241.777,-83.8796C271.137,-78.1728 310.659,-70.4908 342.277,-64.3452"/>
<polygon fill="#9a32cd" stroke="#9a32cd" points="240.994,-80.4663 231.846,-85.8101 242.33,-87.3377 240.994,-80.4663"/>
<text text-anchor="middle" x="291.5" y="-80" font-family="Helvetica,sans-Serif" font-size="10.00"> name</text>
</g>
<!-- Node12 -->
<g id="node8" class="node"><title>Node12</title>
<g id="a_node8"><a xlink:title="STL class. ">
<polygon fill="white" stroke="#bfbfbf" points="0,-77 0,-107 103,-107 103,-77 0,-77"/>
<text text-anchor="start" x="8" y="-95" font-family="Helvetica,sans-Serif" font-size="10.00">std::basic_string&lt;</text>
<text text-anchor="middle" x="51.5" y="-84" font-family="Helvetica,sans-Serif" font-size="10.00"> char &gt;</text>
</a>
</g>
</g>
<!-- Node12&#45;&gt;Node11 -->
<g id="edge7" class="edge"><title>Node12&#45;&gt;Node11</title>
<path fill="none" stroke="midnightblue" d="M113.642,-92C131.81,-92 150.969,-92 166.429,-92"/>
<polygon fill="midnightblue" stroke="midnightblue" points="113.389,-88.5001 103.389,-92 113.389,-95.5001 113.389,-88.5001"/>
</g>
<!-- Node13 -->
<g id="node9" class="node"><title>Node13</title>
<g id="a_node9"><a xlink:href="structant_1_1calibration_1_1gui_1_1_indicator_properties.html" target="_top" xlink:title="ant::calibration::gui\l::IndicatorProperties">
<polygon fill="white" stroke="black" points="142.5,-33 142.5,-63 255.5,-63 255.5,-33 142.5,-33"/>
<text text-anchor="start" x="150.5" y="-51" font-family="Helvetica,sans-Serif" font-size="10.00">ant::calibration::gui</text>
<text text-anchor="middle" x="199" y="-40" font-family="Helvetica,sans-Serif" font-size="10.00">::IndicatorProperties</text>
</a>
</g>
</g>
<!-- Node13&#45;&gt;Node10 -->
<g id="edge8" class="edge"><title>Node13&#45;&gt;Node10</title>
<path fill="none" stroke="#9a32cd" stroke-dasharray="5,2" d="M265.858,-50.0212C290.761,-50.7855 318.765,-51.645 342.357,-52.369"/>
<polygon fill="#9a32cd" stroke="#9a32cd" points="265.864,-46.5198 255.761,-49.7113 265.649,-53.5165 265.864,-46.5198"/>
<text text-anchor="middle" x="291.5" y="-55" font-family="Helvetica,sans-Serif" font-size="10.00"> gui</text>
</g>
<!-- Node14 -->
<g id="node10" class="node"><title>Node14</title>
<polygon fill="white" stroke="#bfbfbf" points="325,-0.5 325,-19.5 468,-19.5 468,-0.5 325,-0.5"/>
<text text-anchor="middle" x="396.5" y="-7.5" font-family="Helvetica,sans-Serif" font-size="10.00">std::unique_ptr&lt; TLatex &gt;</text>
</g>
<!-- Node14&#45;&gt;Node6 -->
<g id="edge10" class="edge"><title>Node14&#45;&gt;Node6</title>
<path fill="none" stroke="#9a32cd" stroke-dasharray="5,2" d="M450.932,-22.5335C456.782,-24.454 462.576,-26.6069 468,-29 504.279,-45.0078 542.283,-71.3704 564.521,-87.928"/>
<polygon fill="#9a32cd" stroke="#9a32cd" points="451.679,-19.1019 441.093,-19.5195 449.629,-25.795 451.679,-19.1019"/>
<text text-anchor="middle" x="499.5" y="-55" font-family="Helvetica,sans-Serif" font-size="10.00"> label</text>
</g>
</g>
</svg>
