<?xml version="1.0" encoding="UTF-8" standalone="no"?>
<!DOCTYPE svg PUBLIC "-//W3C//DTD SVG 1.1//EN"
 "http://www.w3.org/Graphics/SVG/1.1/DTD/svg11.dtd">
<!-- Generated by graphviz version 2.38.0 (20140413.2041)
 -->
<!-- Title: ant::calibration::gui::FitTimewalk Pages: 1 -->
<svg width="116pt" height="106pt"
 viewBox="0.00 0.00 116.00 106.00" xmlns="http://www.w3.org/2000/svg" xmlns:xlink="http://www.w3.org/1999/xlink">
<g id="graph0" class="graph" transform="scale(1 1) rotate(0) translate(4 102)">
<title>ant::calibration::gui::FitTimewalk</title>
<polygon fill="white" stroke="none" points="-4,4 -4,-102 112,-102 112,4 -4,4"/>
<!-- Node0 -->
<g id="node1" class="node"><title>Node0</title>
<polygon fill="#bfbfbf" stroke="black" points="0,-0.5 0,-30.5 108,-30.5 108,-0.5 0,-0.5"/>
<text text-anchor="start" x="8" y="-18.5" font-family="Helvetica,sans-Serif" font-size="10.00">ant::calibration::gui</text>
<text text-anchor="middle" x="54" y="-7.5" font-family="Helvetica,sans-Serif" font-size="10.00">::FitTimewalk</text>
</g>
<!-- Node1 -->
<g id="node2" class="node"><title>Node1</title>
<g id="a_node2"><a xlink:href="classant_1_1calibration_1_1gui_1_1_fit_function.html" target="_top" xlink:title="ant::calibration::gui\l::FitFunction">
<polygon fill="white" stroke="black" points="0,-67.5 0,-97.5 108,-97.5 108,-67.5 0,-67.5"/>
<text text-anchor="start" x="8" y="-85.5" font-family="Helvetica,sans-Serif" font-size="10.00">ant::calibration::gui</text>
<text text-anchor="middle" x="54" y="-74.5" font-family="Helvetica,sans-Serif" font-size="10.00">::FitFunction</text>
</a>
</g>
</g>
<!-- Node1&#45;&gt;Node0 -->
<g id="edge1" class="edge"><title>Node1&#45;&gt;Node0</title>
<path fill="none" stroke="midnightblue" d="M54,-57.1081C54,-48.1539 54,-38.3227 54,-30.5765"/>
<polygon fill="midnightblue" stroke="midnightblue" points="50.5001,-57.3959 54,-67.396 57.5001,-57.396 50.5001,-57.3959"/>
</g>
</g>
</svg>
