<?xml version="1.0" encoding="UTF-8" standalone="no"?>
<!DOCTYPE svg PUBLIC "-//W3C//DTD SVG 1.1//EN"
 "http://www.w3.org/Graphics/SVG/1.1/DTD/svg11.dtd">
<!-- Generated by graphviz version 2.38.0 (20140413.2041)
 -->
<!-- Title: sigmaPlus_FinalPlot Pages: 1 -->
<svg width="765pt" height="264pt"
 viewBox="0.00 0.00 765.00 263.50" xmlns="http://www.w3.org/2000/svg" xmlns:xlink="http://www.w3.org/1999/xlink">
<g id="graph0" class="graph" transform="scale(1 1) rotate(0) translate(4 259.5)">
<title>sigmaPlus_FinalPlot</title>
<polygon fill="white" stroke="none" points="-4,4 -4,-259.5 761,-259.5 761,4 -4,4"/>
<!-- Node2 -->
<g id="node1" class="node"><title>Node2</title>
<polygon fill="#bfbfbf" stroke="black" points="647,-115.5 647,-134.5 757,-134.5 757,-115.5 647,-115.5"/>
<text text-anchor="middle" x="702" y="-122.5" font-family="Helvetica,sans-Serif" font-size="10.00">sigmaPlus_FinalPlot</text>
</g>
<!-- Node3 -->
<g id="node2" class="node"><title>Node3</title>
<g id="a_node2"><a xlink:href="classant_1_1analysis_1_1_plotter.html" target="_top" xlink:title="ant::analysis::Plotter">
<polygon fill="white" stroke="black" points="435,-225.5 435,-244.5 549,-244.5 549,-225.5 435,-225.5"/>
<text text-anchor="middle" x="492" y="-232.5" font-family="Helvetica,sans-Serif" font-size="10.00">ant::analysis::Plotter</text>
</a>
</g>
</g>
<!-- Node3&#45;&gt;Node2 -->
<g id="edge1" class="edge"><title>Node3&#45;&gt;Node2</title>
<path fill="none" stroke="midnightblue" d="M543.298,-222.659C569.856,-214.921 602.368,-203.453 629,-188 654.572,-173.162 679.392,-148.5 692.143,-134.849"/>
<polygon fill="midnightblue" stroke="midnightblue" points="542.109,-219.358 533.436,-225.443 544.011,-226.095 542.109,-219.358"/>
</g>
<!-- Node4 -->
<g id="node3" class="node"><title>Node4</title>
<g id="a_node3"><a xlink:href="classant_1_1analysis_1_1_histogram_factory.html" target="_top" xlink:title="ant::analysis::Histogram\lFactory">
<polygon fill="white" stroke="black" points="123,-225 123,-255 256,-255 256,-225 123,-225"/>
<text text-anchor="start" x="131" y="-243" font-family="Helvetica,sans-Serif" font-size="10.00">ant::analysis::Histogram</text>
<text text-anchor="middle" x="189.5" y="-232" font-family="Helvetica,sans-Serif" font-size="10.00">Factory</text>
</a>
</g>
</g>
<!-- Node4&#45;&gt;Node3 -->
<g id="edge2" class="edge"><title>Node4&#45;&gt;Node3</title>
<path fill="none" stroke="#9a32cd" stroke-dasharray="5,2" d="M266.317,-238.738C318.659,-237.868 387.125,-236.728 434.659,-235.937"/>
<polygon fill="#9a32cd" stroke="#9a32cd" points="266.015,-235.243 256.075,-238.909 266.132,-242.242 266.015,-235.243"/>
<text text-anchor="middle" x="343.5" y="-241" font-family="Helvetica,sans-Serif" font-size="10.00"> HistFac</text>
</g>
<!-- Node5 -->
<g id="node4" class="node"><title>Node5</title>
<g id="a_node4"><a xlink:title="STL class. ">
<polygon fill="white" stroke="#bfbfbf" points="459.5,-184.5 459.5,-203.5 524.5,-203.5 524.5,-184.5 459.5,-184.5"/>
<text text-anchor="middle" x="492" y="-191.5" font-family="Helvetica,sans-Serif" font-size="10.00">std::string</text>
</a>
</g>
</g>
<!-- Node5&#45;&gt;Node2 -->
<g id="edge3" class="edge"><title>Node5&#45;&gt;Node2</title>
<path fill="none" stroke="#9a32cd" stroke-dasharray="5,2" d="M534.645,-183.91C561.797,-176.954 597.844,-167.004 629,-156 646.837,-149.7 666.531,-141.102 680.807,-134.559"/>
<polygon fill="#9a32cd" stroke="#9a32cd" points="533.539,-180.58 524.703,-186.425 535.256,-187.366 533.539,-180.58"/>
<text text-anchor="middle" x="600" y="-176" font-family="Helvetica,sans-Serif" font-size="10.00"> data_name</text>
</g>
<!-- Node6 -->
<g id="node5" class="node"><title>Node6</title>
<g id="a_node5"><a xlink:title="STL class. ">
<polygon fill="white" stroke="#bfbfbf" points="138,-176 138,-206 241,-206 241,-176 138,-176"/>
<text text-anchor="start" x="146" y="-194" font-family="Helvetica,sans-Serif" font-size="10.00">std::basic_string&lt;</text>
<text text-anchor="middle" x="189.5" y="-183" font-family="Helvetica,sans-Serif" font-size="10.00"> char &gt;</text>
</a>
</g>
</g>
<!-- Node6&#45;&gt;Node5 -->
<g id="edge4" class="edge"><title>Node6&#45;&gt;Node5</title>
<path fill="none" stroke="midnightblue" d="M251.312,-191.607C314.153,-192.234 409.811,-193.189 459.128,-193.682"/>
<polygon fill="midnightblue" stroke="midnightblue" points="251.17,-188.106 241.136,-191.506 251.1,-195.105 251.17,-188.106"/>
</g>
<!-- Node7 -->
<g id="node6" class="node"><title>Node7</title>
<g id="a_node6"><a xlink:href="structant_1_1analysis_1_1physics_1_1sigma_plus_1_1_rec_tree.html" target="_top" xlink:title="ant::analysis::physics\l::sigmaPlus::RecTree">
<polygon fill="white" stroke="black" points="433,-135 433,-165 551,-165 551,-135 433,-135"/>
<text text-anchor="start" x="441" y="-153" font-family="Helvetica,sans-Serif" font-size="10.00">ant::analysis::physics</text>
<text text-anchor="middle" x="492" y="-142" font-family="Helvetica,sans-Serif" font-size="10.00">::sigmaPlus::RecTree</text>
</a>
</g>
</g>
<!-- Node7&#45;&gt;Node2 -->
<g id="edge5" class="edge"><title>Node7&#45;&gt;Node2</title>
<path fill="none" stroke="#9a32cd" stroke-dasharray="5,2" d="M561.245,-141.797C588.988,-138.463 620.595,-134.664 646.726,-131.523"/>
<polygon fill="#9a32cd" stroke="#9a32cd" points="560.727,-138.334 551.216,-143.003 561.562,-145.284 560.727,-138.334"/>
<text text-anchor="middle" x="600" y="-144" font-family="Helvetica,sans-Serif" font-size="10.00"> recTree</text>
</g>
<!-- Node8 -->
<g id="node7" class="node"><title>Node8</title>
<g id="a_node7"><a xlink:href="structant_1_1analysis_1_1physics_1_1sigma_plus_1_1eff_tree__t.html" target="_top" xlink:title="ant::analysis::physics\l::sigmaPlus::effTree_t">
<polygon fill="white" stroke="black" points="130.5,-86 130.5,-116 248.5,-116 248.5,-86 130.5,-86"/>
<text text-anchor="start" x="138.5" y="-104" font-family="Helvetica,sans-Serif" font-size="10.00">ant::analysis::physics</text>
<text text-anchor="middle" x="189.5" y="-93" font-family="Helvetica,sans-Serif" font-size="10.00">::sigmaPlus::effTree_t</text>
</a>
</g>
</g>
<!-- Node8&#45;&gt;Node7 -->
<g id="edge6" class="edge"><title>Node8&#45;&gt;Node7</title>
<path fill="none" stroke="midnightblue" d="M258.791,-112.486C263.937,-113.34 269.051,-114.186 274,-115 327.846,-123.856 389.246,-133.739 432.959,-140.739"/>
<polygon fill="midnightblue" stroke="midnightblue" points="259.328,-109.027 248.889,-110.837 258.178,-115.932 259.328,-109.027"/>
</g>
<!-- Node13 -->
<g id="node12" class="node"><title>Node13</title>
<g id="a_node12"><a xlink:href="structant_1_1analysis_1_1physics_1_1sigma_plus_1_1_seen_tree.html" target="_top" xlink:title="ant::analysis::physics\l::sigmaPlus::SeenTree">
<polygon fill="white" stroke="black" points="431,-86 431,-116 553,-116 553,-86 431,-86"/>
<text text-anchor="start" x="439" y="-104" font-family="Helvetica,sans-Serif" font-size="10.00">ant::analysis::physics</text>
<text text-anchor="middle" x="492" y="-93" font-family="Helvetica,sans-Serif" font-size="10.00">::sigmaPlus::SeenTree</text>
</a>
</g>
</g>
<!-- Node8&#45;&gt;Node13 -->
<g id="edge13" class="edge"><title>Node8&#45;&gt;Node13</title>
<path fill="none" stroke="midnightblue" d="M258.893,-101C310.682,-101 381.146,-101 430.808,-101"/>
<polygon fill="midnightblue" stroke="midnightblue" points="258.796,-97.5001 248.796,-101 258.796,-104.5 258.796,-97.5001"/>
</g>
<!-- Node9 -->
<g id="node8" class="node"><title>Node9</title>
<g id="a_node8"><a xlink:href="classant_1_1_wrap_t_tree.html" target="_top" xlink:title="The WrapTTree struct simplifies TTree handling in physics classes. ">
<polygon fill="white" stroke="black" points="0,-63.5 0,-82.5 86,-82.5 86,-63.5 0,-63.5"/>
<text text-anchor="middle" x="43" y="-70.5" font-family="Helvetica,sans-Serif" font-size="10.00">ant::WrapTTree</text>
</a>
</g>
</g>
<!-- Node9&#45;&gt;Node8 -->
<g id="edge7" class="edge"><title>Node9&#45;&gt;Node8</title>
<path fill="none" stroke="midnightblue" d="M96.1679,-83.1087C107.287,-85.2633 119.096,-87.5514 130.421,-89.7459"/>
<polygon fill="midnightblue" stroke="midnightblue" points="96.6671,-79.6404 86.1838,-81.174 95.3354,-86.5125 96.6671,-79.6404"/>
</g>
<!-- Node10 -->
<g id="node9" class="node"><title>Node10</title>
<g id="a_node9"><a xlink:href="structant_1_1analysis_1_1physics_1_1sigma_plus_1_1_pion_prod_tree.html" target="_top" xlink:title="ant::analysis::physics\l::sigmaPlus::PionProdTree">
<polygon fill="white" stroke="black" points="274,-41 274,-71 413,-71 413,-41 274,-41"/>
<text text-anchor="start" x="282" y="-59" font-family="Helvetica,sans-Serif" font-size="10.00">ant::analysis::physics</text>
<text text-anchor="middle" x="343.5" y="-48" font-family="Helvetica,sans-Serif" font-size="10.00">::sigmaPlus::PionProdTree</text>
</a>
</g>
</g>
<!-- Node9&#45;&gt;Node10 -->
<g id="edge9" class="edge"><title>Node9&#45;&gt;Node10</title>
<path fill="none" stroke="midnightblue" d="M96.262,-70.0236C145.569,-67.2155 219.786,-62.9887 273.849,-59.9098"/>
<polygon fill="midnightblue" stroke="midnightblue" points="95.9194,-66.5373 86.1347,-70.6004 96.3175,-73.526 95.9194,-66.5373"/>
</g>
<!-- Node10&#45;&gt;Node2 -->
<g id="edge8" class="edge"><title>Node10&#45;&gt;Node2</title>
<path fill="none" stroke="#9a32cd" stroke-dasharray="5,2" d="M423.4,-53.101C462.749,-53.2427 510.823,-55.8273 553,-65 602.037,-75.6647 655.717,-101.242 682.961,-115.314"/>
<polygon fill="#9a32cd" stroke="#9a32cd" points="423.327,-49.601 413.333,-53.1168 423.338,-56.601 423.327,-49.601"/>
<text text-anchor="middle" x="492" y="-68" font-family="Helvetica,sans-Serif" font-size="10.00"> tree</text>
</g>
<!-- Node11 -->
<g id="node10" class="node"><title>Node11</title>
<g id="a_node10"><a xlink:href="classant_1_1_bin_settings.html" target="_top" xlink:title="ant::BinSettings">
<polygon fill="white" stroke="black" points="445.5,-0.5 445.5,-19.5 538.5,-19.5 538.5,-0.5 445.5,-0.5"/>
<text text-anchor="middle" x="492" y="-7.5" font-family="Helvetica,sans-Serif" font-size="10.00">ant::BinSettings</text>
</a>
</g>
</g>
<!-- Node11&#45;&gt;Node2 -->
<g id="edge10" class="edge"><title>Node11&#45;&gt;Node2</title>
<path fill="none" stroke="#9a32cd" stroke-dasharray="5,2" d="M548.791,-9.26477C574.726,-11.1779 605.052,-16.8015 629,-31 663.657,-51.5483 687.451,-95.7331 696.7,-115.316"/>
<polygon fill="#9a32cd" stroke="#9a32cd" points="548.904,-5.76559 538.72,-8.68764 548.504,-12.7541 548.904,-5.76559"/>
<text text-anchor="middle" x="600" y="-34" font-family="Helvetica,sans-Serif" font-size="10.00"> taggerBins</text>
</g>
<!-- Node12 -->
<g id="node11" class="node"><title>Node12</title>
<g id="a_node11"><a xlink:href="classant_1_1interval.html" target="_top" xlink:title="ant::interval\&lt; double \&gt;">
<polygon fill="white" stroke="black" points="125.5,-0.5 125.5,-19.5 253.5,-19.5 253.5,-0.5 125.5,-0.5"/>
<text text-anchor="middle" x="189.5" y="-7.5" font-family="Helvetica,sans-Serif" font-size="10.00">ant::interval&lt; double &gt;</text>
</a>
</g>
</g>
<!-- Node12&#45;&gt;Node11 -->
<g id="edge11" class="edge"><title>Node12&#45;&gt;Node11</title>
<path fill="none" stroke="midnightblue" d="M264.194,-10C320.826,-10 397.259,-10 445.338,-10"/>
<polygon fill="midnightblue" stroke="midnightblue" points="263.861,-6.5001 253.861,-10 263.861,-13.5001 263.861,-6.5001"/>
</g>
<!-- Node13&#45;&gt;Node2 -->
<g id="edge12" class="edge"><title>Node13&#45;&gt;Node2</title>
<path fill="none" stroke="#9a32cd" stroke-dasharray="5,2" d="M563.232,-106.156C584.406,-107.991 607.682,-110.287 629,-113 634.783,-113.736 640.812,-114.595 646.812,-115.509"/>
<polygon fill="#9a32cd" stroke="#9a32cd" points="563.284,-102.648 553.025,-105.293 562.694,-109.623 563.284,-102.648"/>
<text text-anchor="middle" x="600" y="-116" font-family="Helvetica,sans-Serif" font-size="10.00"> seenTree</text>
</g>
</g>
</svg>
