<?xml version="1.0" encoding="UTF-8" standalone="no"?>
<!DOCTYPE svg PUBLIC "-//W3C//DTD SVG 1.1//EN"
 "http://www.w3.org/Graphics/SVG/1.1/DTD/svg11.dtd">
<!-- Generated by graphviz version 2.38.0 (20140413.2041)
 -->
<!-- Title: ant::PiecewiseInterval&lt; T &gt; Pages: 1 -->
<svg width="155pt" height="163pt"
 viewBox="0.00 0.00 155.00 163.00" xmlns="http://www.w3.org/2000/svg" xmlns:xlink="http://www.w3.org/1999/xlink">
<g id="graph0" class="graph" transform="scale(1 1) rotate(0) translate(4 159)">
<title>ant::PiecewiseInterval&lt; T &gt;</title>
<polygon fill="white" stroke="none" points="-4,4 -4,-159 151,-159 151,4 -4,4"/>
<!-- Node2 -->
<g id="node1" class="node"><title>Node2</title>
<polygon fill="#bfbfbf" stroke="black" points="0,-0.5 0,-19.5 147,-19.5 147,-0.5 0,-0.5"/>
<text text-anchor="middle" x="73.5" y="-7.5" font-family="Helvetica,sans-Serif" font-size="10.00">ant::PiecewiseInterval&lt; T &gt;</text>
</g>
<!-- Node3 -->
<g id="node2" class="node"><title>Node3</title>
<g id="a_node2"><a xlink:title="STL class. ">
<polygon fill="white" stroke="#bfbfbf" points="16.5,-57.5 16.5,-87.5 130.5,-87.5 130.5,-57.5 16.5,-57.5"/>
<text text-anchor="start" x="24.5" y="-75.5" font-family="Helvetica,sans-Serif" font-size="10.00">std::vector&lt; interval</text>
<text text-anchor="middle" x="73.5" y="-64.5" font-family="Helvetica,sans-Serif" font-size="10.00">&lt; T &gt; &gt;</text>
</a>
</g>
</g>
<!-- Node3&#45;&gt;Node2 -->
<g id="edge1" class="edge"><title>Node3&#45;&gt;Node2</title>
<path fill="none" stroke="midnightblue" d="M73.5,-47.3524C73.5,-37.5132 73.5,-26.7753 73.5,-19.5399"/>
<polygon fill="midnightblue" stroke="midnightblue" points="70.0001,-47.468 73.5,-57.468 77.0001,-47.4681 70.0001,-47.468"/>
</g>
<!-- Node4 -->
<g id="node3" class="node"><title>Node4</title>
<polygon fill="white" stroke="#bfbfbf" points="59,-135.5 59,-154.5 88,-154.5 88,-135.5 59,-135.5"/>
<text text-anchor="middle" x="73.5" y="-142.5" font-family="Helvetica,sans-Serif" font-size="10.00">T</text>
</g>
<!-- Node4&#45;&gt;Node3 -->
<g id="edge2" class="edge"><title>Node4&#45;&gt;Node3</title>
<path fill="none" stroke="#9a32cd" stroke-dasharray="5,2" d="M73.5,-125.236C73.5,-113.408 73.5,-98.3829 73.5,-87.5762"/>
<polygon fill="#9a32cd" stroke="#9a32cd" points="70.0001,-125.355 73.5,-135.355 77.0001,-125.355 70.0001,-125.355"/>
<text text-anchor="middle" x="98" y="-109" font-family="Helvetica,sans-Serif" font-size="10.00"> elements</text>
</g>
</g>
</svg>
