<?xml version="1.0" encoding="UTF-8" standalone="no"?>
<!DOCTYPE svg PUBLIC "-//W3C//DTD SVG 1.1//EN"
 "http://www.w3.org/Graphics/SVG/1.1/DTD/svg11.dtd">
<!-- Generated by graphviz version 2.38.0 (20140413.2041)
 -->
<!-- Title: ant::analysis::Physics Pages: 1 -->
<svg width="141pt" height="106pt"
 viewBox="0.00 0.00 141.00 106.00" xmlns="http://www.w3.org/2000/svg" xmlns:xlink="http://www.w3.org/1999/xlink">
<g id="graph0" class="graph" transform="scale(1 1) rotate(0) translate(4 102)">
<title>ant::analysis::Physics</title>
<polygon fill="white" stroke="none" points="-4,4 -4,-102 137,-102 137,4 -4,4"/>
<!-- Node116 -->
<g id="node1" class="node"><title>Node116</title>
<polygon fill="#bfbfbf" stroke="black" points="7.5,-0.5 7.5,-19.5 125.5,-19.5 125.5,-0.5 7.5,-0.5"/>
<text text-anchor="middle" x="66.5" y="-7.5" font-family="Helvetica,sans-Serif" font-size="10.00">ant::analysis::Physics</text>
</g>
<!-- Node117 -->
<g id="node2" class="node"><title>Node117</title>
<g id="a_node2"><a xlink:href="classant_1_1analysis_1_1_histogram_factory.html" target="_top" xlink:title="ant::analysis::Histogram\lFactory">
<polygon fill="white" stroke="black" points="0,-67.5 0,-97.5 133,-97.5 133,-67.5 0,-67.5"/>
<text text-anchor="start" x="8" y="-85.5" font-family="Helvetica,sans-Serif" font-size="10.00">ant::analysis::Histogram</text>
<text text-anchor="middle" x="66.5" y="-74.5" font-family="Helvetica,sans-Serif" font-size="10.00">Factory</text>
</a>
</g>
</g>
<!-- Node117&#45;&gt;Node116 -->
<g id="edge1" class="edge"><title>Node117&#45;&gt;Node116</title>
<path fill="none" stroke="#9a32cd" stroke-dasharray="5,2" d="M66.5,-57.0913C66.5,-44.2136 66.5,-29.1974 66.5,-19.8932"/>
<polygon fill="#9a32cd" stroke="#9a32cd" points="63.0001,-57.2332 66.5,-67.2333 70.0001,-57.2333 63.0001,-57.2332"/>
<text text-anchor="middle" x="85.5" y="-41" font-family="Helvetica,sans-Serif" font-size="10.00"> HistFac</text>
</g>
</g>
</svg>
