<?xml version="1.0" encoding="UTF-8" standalone="no"?>
<!DOCTYPE svg PUBLIC "-//W3C//DTD SVG 1.1//EN"
 "http://www.w3.org/Graphics/SVG/1.1/DTD/svg11.dtd">
<!-- Generated by graphviz version 2.38.0 (20140413.2041)
 -->
<!-- Title: ant::analysis::physics::TrueRecCheck_ClusterE Pages: 1 -->
<svg width="426pt" height="273pt"
 viewBox="0.00 0.00 425.50 273.00" xmlns="http://www.w3.org/2000/svg" xmlns:xlink="http://www.w3.org/1999/xlink">
<g id="graph0" class="graph" transform="scale(1 1) rotate(0) translate(4 269)">
<title>ant::analysis::physics::TrueRecCheck_ClusterE</title>
<polygon fill="white" stroke="none" points="-4,4 -4,-269 421.5,-269 421.5,4 -4,4"/>
<!-- Node2 -->
<g id="node1" class="node"><title>Node2</title>
<polygon fill="#bfbfbf" stroke="black" points="140,-0.5 140,-30.5 273,-30.5 273,-0.5 140,-0.5"/>
<text text-anchor="start" x="148" y="-18.5" font-family="Helvetica,sans-Serif" font-size="10.00">ant::analysis::physics</text>
<text text-anchor="middle" x="206.5" y="-7.5" font-family="Helvetica,sans-Serif" font-size="10.00">::TrueRecCheck_ClusterE</text>
</g>
<!-- Node3 -->
<g id="node2" class="node"><title>Node3</title>
<g id="a_node2"><a xlink:href="classant_1_1analysis_1_1_physics.html" target="_top" xlink:title="ant::analysis::Physics">
<polygon fill="white" stroke="black" points="8.5,-95 8.5,-114 126.5,-114 126.5,-95 8.5,-95"/>
<text text-anchor="middle" x="67.5" y="-102" font-family="Helvetica,sans-Serif" font-size="10.00">ant::analysis::Physics</text>
</a>
</g>
</g>
<!-- Node3&#45;&gt;Node2 -->
<g id="edge1" class="edge"><title>Node3&#45;&gt;Node2</title>
<path fill="none" stroke="midnightblue" d="M89.7955,-89.5453C115.643,-73.3673 158.007,-46.852 183.958,-30.6088"/>
<polygon fill="midnightblue" stroke="midnightblue" points="87.7006,-86.7274 81.081,-94.9997 91.4145,-92.661 87.7006,-86.7274"/>
</g>
<!-- Node4 -->
<g id="node3" class="node"><title>Node4</title>
<g id="a_node3"><a xlink:href="classant_1_1analysis_1_1_histogram_factory.html" target="_top" xlink:title="ant::analysis::Histogram\lFactory">
<polygon fill="white" stroke="black" points="0,-167.5 0,-197.5 133,-197.5 133,-167.5 0,-167.5"/>
<text text-anchor="start" x="8" y="-185.5" font-family="Helvetica,sans-Serif" font-size="10.00">ant::analysis::Histogram</text>
<text text-anchor="middle" x="66.5" y="-174.5" font-family="Helvetica,sans-Serif" font-size="10.00">Factory</text>
</a>
</g>
</g>
<!-- Node4&#45;&gt;Node3 -->
<g id="edge2" class="edge"><title>Node4&#45;&gt;Node3</title>
<path fill="none" stroke="#9a32cd" stroke-dasharray="5,2" d="M66.8202,-157.165C67.0145,-142.396 67.2507,-124.448 67.3873,-114.064"/>
<polygon fill="#9a32cd" stroke="#9a32cd" points="63.3201,-157.16 66.6881,-167.205 70.3195,-157.252 63.3201,-157.16"/>
<text text-anchor="middle" x="86.5" y="-141" font-family="Helvetica,sans-Serif" font-size="10.00"> HistFac</text>
</g>
<!-- Node5 -->
<g id="node4" class="node"><title>Node5</title>
<g id="a_node4"><a xlink:href="classant_1_1_piecewise_interval.html" target="_top" xlink:title="ant::PiecewiseInterval\l\&lt; double \&gt;">
<polygon fill="white" stroke="black" points="147,-89.5 147,-119.5 266,-119.5 266,-89.5 147,-89.5"/>
<text text-anchor="start" x="155" y="-107.5" font-family="Helvetica,sans-Serif" font-size="10.00">ant::PiecewiseInterval</text>
<text text-anchor="middle" x="206.5" y="-96.5" font-family="Helvetica,sans-Serif" font-size="10.00">&lt; double &gt;</text>
</a>
</g>
</g>
<!-- Node5&#45;&gt;Node2 -->
<g id="edge3" class="edge"><title>Node5&#45;&gt;Node2</title>
<path fill="none" stroke="#9a32cd" stroke-dasharray="5,2" d="M206.5,-79.0903C206.5,-63.4429 206.5,-43.6846 206.5,-30.599"/>
<polygon fill="#9a32cd" stroke="#9a32cd" points="203,-79.1337 206.5,-89.1337 210,-79.1338 203,-79.1337"/>
<text text-anchor="middle" x="254" y="-57.5" font-family="Helvetica,sans-Serif" font-size="10.00"> CBHemisphereGap</text>
</g>
<!-- Node6 -->
<g id="node5" class="node"><title>Node6</title>
<g id="a_node5"><a xlink:title="STL class. ">
<polygon fill="white" stroke="#bfbfbf" points="151.5,-167.5 151.5,-197.5 265.5,-197.5 265.5,-167.5 151.5,-167.5"/>
<text text-anchor="start" x="159.5" y="-185.5" font-family="Helvetica,sans-Serif" font-size="10.00">std::vector&lt; interval</text>
<text text-anchor="middle" x="208.5" y="-174.5" font-family="Helvetica,sans-Serif" font-size="10.00">&lt; double &gt; &gt;</text>
</a>
</g>
</g>
<!-- Node6&#45;&gt;Node5 -->
<g id="edge4" class="edge"><title>Node6&#45;&gt;Node5</title>
<path fill="none" stroke="midnightblue" d="M207.858,-157.09C207.533,-144.757 207.151,-130.224 206.874,-119.731"/>
<polygon fill="midnightblue" stroke="midnightblue" points="204.362,-157.301 208.124,-167.205 211.359,-157.116 204.362,-157.301"/>
</g>
<!-- Node7 -->
<g id="node6" class="node"><title>Node7</title>
<polygon fill="white" stroke="#bfbfbf" points="194,-245.5 194,-264.5 223,-264.5 223,-245.5 194,-245.5"/>
<text text-anchor="middle" x="208.5" y="-252.5" font-family="Helvetica,sans-Serif" font-size="10.00">T</text>
</g>
<!-- Node7&#45;&gt;Node6 -->
<g id="edge5" class="edge"><title>Node7&#45;&gt;Node6</title>
<path fill="none" stroke="#9a32cd" stroke-dasharray="5,2" d="M208.5,-235.236C208.5,-223.408 208.5,-208.383 208.5,-197.576"/>
<polygon fill="#9a32cd" stroke="#9a32cd" points="205,-235.355 208.5,-245.355 212,-235.355 205,-235.355"/>
<text text-anchor="middle" x="233" y="-219" font-family="Helvetica,sans-Serif" font-size="10.00"> elements</text>
</g>
<!-- Node8 -->
<g id="node7" class="node"><title>Node8</title>
<g id="a_node7"><a xlink:href="classant_1_1interval.html" target="_top" xlink:title="ant::interval\&lt; double \&gt;">
<polygon fill="white" stroke="black" points="284.5,-95 284.5,-114 412.5,-114 412.5,-95 284.5,-95"/>
<text text-anchor="middle" x="348.5" y="-102" font-family="Helvetica,sans-Serif" font-size="10.00">ant::interval&lt; double &gt;</text>
</a>
</g>
</g>
<!-- Node8&#45;&gt;Node2 -->
<g id="edge6" class="edge"><title>Node8&#45;&gt;Node2</title>
<path fill="none" stroke="#9a32cd" stroke-dasharray="5,2" d="M338.607,-86.1409C330.968,-74.159 319.375,-58.6974 305.5,-49 294.305,-41.1758 281.103,-35.1399 268.051,-30.5179"/>
<polygon fill="#9a32cd" stroke="#9a32cd" points="335.688,-88.0771 343.854,-94.8274 341.68,-84.458 335.688,-88.0771"/>
<text text-anchor="middle" x="372.5" y="-63" font-family="Helvetica,sans-Serif" font-size="10.00"> TAPSThetaWindow</text>
<text text-anchor="middle" x="372.5" y="-52" font-family="Helvetica,sans-Serif" font-size="10.00">CBThetaWindow</text>
</g>
</g>
</svg>
