<?xml version="1.0" encoding="UTF-8" standalone="no"?>
<!DOCTYPE svg PUBLIC "-//W3C//DTD SVG 1.1//EN"
 "http://www.w3.org/Graphics/SVG/1.1/DTD/svg11.dtd">
<!-- Generated by graphviz version 2.38.0 (20140413.2041)
 -->
<!-- Title: ant::analysis::PhysicsManager Pages: 1 -->
<svg width="1184pt" height="332pt"
 viewBox="0.00 0.00 1184.00 332.00" xmlns="http://www.w3.org/2000/svg" xmlns:xlink="http://www.w3.org/1999/xlink">
<g id="graph0" class="graph" transform="scale(1 1) rotate(0) translate(4 328)">
<title>ant::analysis::PhysicsManager</title>
<polygon fill="white" stroke="none" points="-4,4 -4,-328 1180,-328 1180,4 -4,4"/>
<!-- Node2 -->
<g id="node1" class="node"><title>Node2</title>
<polygon fill="#bfbfbf" stroke="black" points="1016,-152 1016,-171 1176,-171 1176,-152 1016,-152"/>
<text text-anchor="middle" x="1096" y="-159" font-family="Helvetica,sans-Serif" font-size="10.00">ant::analysis::PhysicsManager</text>
</g>
<!-- Node3 -->
<g id="node2" class="node"><title>Node3</title>
<polygon fill="white" stroke="#bfbfbf" points="746,-293.5 746,-323.5 862,-323.5 862,-293.5 746,-293.5"/>
<text text-anchor="start" x="754" y="-311.5" font-family="Helvetica,sans-Serif" font-size="10.00">std::list&lt; std::unique</text>
<text text-anchor="middle" x="804" y="-300.5" font-family="Helvetica,sans-Serif" font-size="10.00">_ptr&lt; Physics &gt; &gt;</text>
</g>
<!-- Node3&#45;&gt;Node2 -->
<g id="edge1" class="edge"><title>Node3&#45;&gt;Node2</title>
<path fill="none" stroke="#9a32cd" stroke-dasharray="5,2" d="M872.302,-296.606C910.844,-287.889 959.12,-273.636 998,-251.5 1036.53,-229.563 1072.1,-189.549 1087.27,-171.183"/>
<polygon fill="#9a32cd" stroke="#9a32cd" points="871.237,-293.257 862.216,-298.813 872.733,-300.095 871.237,-293.257"/>
<text text-anchor="middle" x="950" y="-290.5" font-family="Helvetica,sans-Serif" font-size="10.00"> physics</text>
</g>
<!-- Node4 -->
<g id="node3" class="node"><title>Node4</title>
<polygon fill="white" stroke="#bfbfbf" points="378,-299 378,-318 524,-318 524,-299 378,-299"/>
<text text-anchor="middle" x="451" y="-306" font-family="Helvetica,sans-Serif" font-size="10.00">std::unique_ptr&lt; Physics &gt;</text>
</g>
<!-- Node4&#45;&gt;Node3 -->
<g id="edge2" class="edge"><title>Node4&#45;&gt;Node3</title>
<path fill="none" stroke="#9a32cd" stroke-dasharray="5,2" d="M534.522,-308.5C599.533,-308.5 688.476,-308.5 745.839,-308.5"/>
<polygon fill="#9a32cd" stroke="#9a32cd" points="534.302,-305 524.302,-308.5 534.302,-312 534.302,-305"/>
<text text-anchor="middle" x="624" y="-311.5" font-family="Helvetica,sans-Serif" font-size="10.00"> elements</text>
</g>
<!-- Node5 -->
<g id="node4" class="node"><title>Node5</title>
<g id="a_node4"><a xlink:href="classant_1_1analysis_1_1_physics.html" target="_top" xlink:title="ant::analysis::Physics">
<polygon fill="white" stroke="black" points="207,-299 207,-318 325,-318 325,-299 207,-299"/>
<text text-anchor="middle" x="266" y="-306" font-family="Helvetica,sans-Serif" font-size="10.00">ant::analysis::Physics</text>
</a>
</g>
</g>
<!-- Node5&#45;&gt;Node4 -->
<g id="edge3" class="edge"><title>Node5&#45;&gt;Node4</title>
<path fill="none" stroke="#9a32cd" stroke-dasharray="5,2" d="M335.549,-308.5C349.362,-308.5 363.922,-308.5 377.854,-308.5"/>
<polygon fill="#9a32cd" stroke="#9a32cd" points="335.154,-305 325.154,-308.5 335.154,-312 335.154,-305"/>
<text text-anchor="middle" x="351.5" y="-311.5" font-family="Helvetica,sans-Serif" font-size="10.00"> ptr</text>
</g>
<!-- Node6 -->
<g id="node5" class="node"><title>Node6</title>
<g id="a_node5"><a xlink:href="classant_1_1analysis_1_1_histogram_factory.html" target="_top" xlink:title="ant::analysis::Histogram\lFactory">
<polygon fill="white" stroke="black" points="0,-293.5 0,-323.5 133,-323.5 133,-293.5 0,-293.5"/>
<text text-anchor="start" x="8" y="-311.5" font-family="Helvetica,sans-Serif" font-size="10.00">ant::analysis::Histogram</text>
<text text-anchor="middle" x="66.5" y="-300.5" font-family="Helvetica,sans-Serif" font-size="10.00">Factory</text>
</a>
</g>
</g>
<!-- Node6&#45;&gt;Node5 -->
<g id="edge4" class="edge"><title>Node6&#45;&gt;Node5</title>
<path fill="none" stroke="#9a32cd" stroke-dasharray="5,2" d="M143.454,-308.5C164.485,-308.5 186.975,-308.5 206.82,-308.5"/>
<polygon fill="#9a32cd" stroke="#9a32cd" points="143.265,-305 133.265,-308.5 143.265,-312 143.265,-305"/>
<text text-anchor="middle" x="170" y="-311.5" font-family="Helvetica,sans-Serif" font-size="10.00"> HistFac</text>
</g>
<!-- Node7 -->
<g id="node6" class="node"><title>Node7</title>
<g id="a_node6"><a xlink:href="classant_1_1bitflag.html" target="_top" xlink:title="ant::bitflag\&lt; reader\l_flag_t \&gt;">
<polygon fill="white" stroke="black" points="749,-244.5 749,-274.5 859,-274.5 859,-244.5 749,-244.5"/>
<text text-anchor="start" x="757" y="-262.5" font-family="Helvetica,sans-Serif" font-size="10.00">ant::bitflag&lt; reader</text>
<text text-anchor="middle" x="804" y="-251.5" font-family="Helvetica,sans-Serif" font-size="10.00">_flag_t &gt;</text>
</a>
</g>
</g>
<!-- Node7&#45;&gt;Node2 -->
<g id="edge5" class="edge"><title>Node7&#45;&gt;Node2</title>
<path fill="none" stroke="#9a32cd" stroke-dasharray="5,2" d="M869.033,-245.855C907.07,-236.945 955.936,-224.083 998,-208.5 1026.95,-197.774 1058.88,-181.35 1077.92,-171.028"/>
<polygon fill="#9a32cd" stroke="#9a32cd" points="868.064,-242.487 859.108,-248.148 869.64,-249.307 868.064,-242.487"/>
<text text-anchor="middle" x="950" y="-239.5" font-family="Helvetica,sans-Serif" font-size="10.00"> reader_flags</text>
</g>
<!-- Node8 -->
<g id="node7" class="node"><title>Node8</title>
<polygon fill="white" stroke="#bfbfbf" points="401.5,-250 401.5,-269 500.5,-269 500.5,-250 401.5,-250"/>
<text text-anchor="middle" x="451" y="-257" font-family="Helvetica,sans-Serif" font-size="10.00">std::bitset&lt; 32 &gt;</text>
</g>
<!-- Node8&#45;&gt;Node7 -->
<g id="edge6" class="edge"><title>Node8&#45;&gt;Node7</title>
<path fill="none" stroke="#9a32cd" stroke-dasharray="5,2" d="M511.108,-259.5C577.548,-259.5 684.516,-259.5 748.854,-259.5"/>
<polygon fill="#9a32cd" stroke="#9a32cd" points="510.805,-256 500.805,-259.5 510.805,-263 510.805,-256"/>
<text text-anchor="middle" x="624" y="-262.5" font-family="Helvetica,sans-Serif" font-size="10.00"> bits</text>
</g>
<!-- Node9 -->
<g id="node8" class="node"><title>Node9</title>
<g id="a_node8"><a xlink:href="structant_1_1analysis_1_1_physics_manager_1_1interrupt__t.html" target="_top" xlink:title="ant::analysis::PhysicsManager\l::interrupt_t">
<polygon fill="white" stroke="black" points="724,-195.5 724,-225.5 884,-225.5 884,-195.5 724,-195.5"/>
<text text-anchor="start" x="732" y="-213.5" font-family="Helvetica,sans-Serif" font-size="10.00">ant::analysis::PhysicsManager</text>
<text text-anchor="middle" x="804" y="-202.5" font-family="Helvetica,sans-Serif" font-size="10.00">::interrupt_t</text>
</a>
</g>
</g>
<!-- Node9&#45;&gt;Node2 -->
<g id="edge7" class="edge"><title>Node9&#45;&gt;Node2</title>
<path fill="none" stroke="#9a32cd" stroke-dasharray="5,2" d="M894.124,-195.441C941.124,-187.5 997.371,-177.996 1038.38,-171.068"/>
<polygon fill="#9a32cd" stroke="#9a32cd" points="893.521,-191.993 884.244,-197.111 894.687,-198.895 893.521,-191.993"/>
<text text-anchor="middle" x="950" y="-196.5" font-family="Helvetica,sans-Serif" font-size="10.00"> interrupt</text>
</g>
<!-- Node10 -->
<g id="node9" class="node"><title>Node10</title>
<polygon fill="white" stroke="#bfbfbf" points="726.5,-146.5 726.5,-176.5 881.5,-176.5 881.5,-146.5 726.5,-146.5"/>
<text text-anchor="start" x="734.5" y="-164.5" font-family="Helvetica,sans-Serif" font-size="10.00">std::list&lt; std::unique</text>
<text text-anchor="middle" x="804" y="-153.5" font-family="Helvetica,sans-Serif" font-size="10.00">_ptr&lt; input::DataReader &gt; &gt;</text>
</g>
<!-- Node10&#45;&gt;Node2 -->
<g id="edge8" class="edge"><title>Node10&#45;&gt;Node2</title>
<path fill="none" stroke="#9a32cd" stroke-dasharray="5,2" d="M891.707,-161.5C931.151,-161.5 977.5,-161.5 1015.97,-161.5"/>
<polygon fill="#9a32cd" stroke="#9a32cd" points="891.573,-158 881.573,-161.5 891.573,-165 891.573,-158"/>
<text text-anchor="middle" x="950" y="-164.5" font-family="Helvetica,sans-Serif" font-size="10.00"> amenders</text>
</g>
<!-- Node11 -->
<g id="node10" class="node"><title>Node11</title>
<polygon fill="white" stroke="#bfbfbf" points="389,-146.5 389,-176.5 513,-176.5 513,-146.5 389,-146.5"/>
<text text-anchor="start" x="397" y="-164.5" font-family="Helvetica,sans-Serif" font-size="10.00">std::unique_ptr&lt; input</text>
<text text-anchor="middle" x="451" y="-153.5" font-family="Helvetica,sans-Serif" font-size="10.00">::DataReader &gt;</text>
</g>
<!-- Node11&#45;&gt;Node10 -->
<g id="edge9" class="edge"><title>Node11&#45;&gt;Node10</title>
<path fill="none" stroke="#9a32cd" stroke-dasharray="5,2" d="M523.488,-161.5C582.469,-161.5 665.971,-161.5 726.331,-161.5"/>
<polygon fill="#9a32cd" stroke="#9a32cd" points="523.14,-158 513.14,-161.5 523.14,-165 523.14,-158"/>
<text text-anchor="middle" x="624" y="-164.5" font-family="Helvetica,sans-Serif" font-size="10.00"> elements</text>
</g>
<!-- Node12 -->
<g id="node11" class="node"><title>Node12</title>
<g id="a_node11"><a xlink:href="classant_1_1analysis_1_1input_1_1_data_reader.html" target="_top" xlink:title="Abstract base class for data input modules. ">
<polygon fill="white" stroke="black" points="212.5,-122.5 212.5,-152.5 319.5,-152.5 319.5,-122.5 212.5,-122.5"/>
<text text-anchor="start" x="220.5" y="-140.5" font-family="Helvetica,sans-Serif" font-size="10.00">ant::analysis::input</text>
<text text-anchor="middle" x="266" y="-129.5" font-family="Helvetica,sans-Serif" font-size="10.00">::DataReader</text>
</a>
</g>
</g>
<!-- Node12&#45;&gt;Node11 -->
<g id="edge10" class="edge"><title>Node12&#45;&gt;Node11</title>
<path fill="none" stroke="#9a32cd" stroke-dasharray="5,2" d="M329.994,-145.762C349.027,-148.258 369.888,-150.993 388.801,-153.474"/>
<polygon fill="#9a32cd" stroke="#9a32cd" points="330.301,-142.272 319.931,-144.442 329.391,-149.213 330.301,-142.272"/>
<text text-anchor="middle" x="351.5" y="-152.5" font-family="Helvetica,sans-Serif" font-size="10.00"> ptr</text>
</g>
<!-- Node13 -->
<g id="node12" class="node"><title>Node13</title>
<polygon fill="white" stroke="#bfbfbf" points="542,-101.5 542,-131.5 706,-131.5 706,-101.5 542,-101.5"/>
<text text-anchor="start" x="550" y="-119.5" font-family="Helvetica,sans-Serif" font-size="10.00">std::unique_ptr&lt; ant</text>
<text text-anchor="middle" x="624" y="-108.5" font-family="Helvetica,sans-Serif" font-size="10.00">::analysis::input::DataReader &gt;</text>
</g>
<!-- Node12&#45;&gt;Node13 -->
<g id="edge12" class="edge"><title>Node12&#45;&gt;Node13</title>
<path fill="none" stroke="#9a32cd" stroke-dasharray="5,2" d="M329.831,-133.794C388.867,-130.311 477.521,-125.082 541.877,-121.285"/>
<polygon fill="#9a32cd" stroke="#9a32cd" points="329.306,-130.318 319.529,-134.401 329.718,-137.306 329.306,-130.318"/>
<text text-anchor="middle" x="351.5" y="-136.5" font-family="Helvetica,sans-Serif" font-size="10.00"> ptr</text>
</g>
<!-- Node13&#45;&gt;Node2 -->
<g id="edge11" class="edge"><title>Node13&#45;&gt;Node2</title>
<path fill="none" stroke="#9a32cd" stroke-dasharray="5,2" d="M716.348,-116.687C766.038,-117.54 828.517,-119.829 884,-125.5 941.486,-131.376 1006.99,-143.396 1049.55,-151.928"/>
<polygon fill="#9a32cd" stroke="#9a32cd" points="716.32,-113.186 706.267,-116.53 716.211,-120.185 716.32,-113.186"/>
<text text-anchor="middle" x="804" y="-128.5" font-family="Helvetica,sans-Serif" font-size="10.00"> source</text>
</g>
<!-- Node14 -->
<g id="node13" class="node"><title>Node14</title>
<g id="a_node13"><a xlink:href="classant_1_1interval.html" target="_top" xlink:title="ant::interval\&lt; ant\l::TID \&gt;">
<polygon fill="white" stroke="black" points="753.5,-49.5 753.5,-79.5 854.5,-79.5 854.5,-49.5 753.5,-49.5"/>
<text text-anchor="start" x="761.5" y="-67.5" font-family="Helvetica,sans-Serif" font-size="10.00">ant::interval&lt; ant</text>
<text text-anchor="middle" x="804" y="-56.5" font-family="Helvetica,sans-Serif" font-size="10.00">::TID &gt;</text>
</a>
</g>
</g>
<!-- Node14&#45;&gt;Node2 -->
<g id="edge13" class="edge"><title>Node14&#45;&gt;Node2</title>
<path fill="none" stroke="#9a32cd" stroke-dasharray="5,2" d="M864.84,-65.4595C903.96,-67.8551 955.493,-74.4208 998,-91.5 1033.84,-105.901 1068.81,-136.328 1085.25,-151.891"/>
<polygon fill="#9a32cd" stroke="#9a32cd" points="864.838,-61.9544 854.665,-64.9126 864.463,-68.9443 864.838,-61.9544"/>
<text text-anchor="middle" x="950" y="-94.5" font-family="Helvetica,sans-Serif" font-size="10.00"> processedTIDrange</text>
</g>
<!-- Node15 -->
<g id="node14" class="node"><title>Node15</title>
<g id="a_node14"><a xlink:href="structant_1_1_t_i_d.html" target="_top" xlink:title="ant::TID">
<polygon fill="white" stroke="black" points="424.5,-55 424.5,-74 477.5,-74 477.5,-55 424.5,-55"/>
<text text-anchor="middle" x="451" y="-62" font-family="Helvetica,sans-Serif" font-size="10.00">ant::TID</text>
</a>
</g>
</g>
<!-- Node15&#45;&gt;Node14 -->
<g id="edge14" class="edge"><title>Node15&#45;&gt;Node14</title>
<path fill="none" stroke="#9a32cd" stroke-dasharray="5,2" d="M487.756,-64.5C550.769,-64.5 681.695,-64.5 753.403,-64.5"/>
<polygon fill="#9a32cd" stroke="#9a32cd" points="487.526,-61.0001 477.526,-64.5 487.526,-68.0001 487.526,-61.0001"/>
<text text-anchor="middle" x="624" y="-78.5" font-family="Helvetica,sans-Serif" font-size="10.00"> _start</text>
<text text-anchor="middle" x="624" y="-67.5" font-family="Helvetica,sans-Serif" font-size="10.00">_stop</text>
</g>
<!-- Node16 -->
<g id="node15" class="node"><title>Node16</title>
<g id="a_node15"><a xlink:href="structant_1_1analysis_1_1input_1_1tree_events__t.html" target="_top" xlink:title="ant::analysis::input\l::treeEvents_t">
<polygon fill="white" stroke="black" points="750.5,-0.5 750.5,-30.5 857.5,-30.5 857.5,-0.5 750.5,-0.5"/>
<text text-anchor="start" x="758.5" y="-18.5" font-family="Helvetica,sans-Serif" font-size="10.00">ant::analysis::input</text>
<text text-anchor="middle" x="804" y="-7.5" font-family="Helvetica,sans-Serif" font-size="10.00">::treeEvents_t</text>
</a>
</g>
</g>
<!-- Node16&#45;&gt;Node2 -->
<g id="edge15" class="edge"><title>Node16&#45;&gt;Node2</title>
<path fill="none" stroke="#9a32cd" stroke-dasharray="5,2" d="M867.721,-18.2206C907.28,-22.2609 958.222,-31.8891 998,-54.5 1041.6,-79.2812 1076.28,-130.649 1089.36,-151.937"/>
<polygon fill="#9a32cd" stroke="#9a32cd" points="867.945,-14.7264 857.664,-17.2876 867.298,-21.6964 867.945,-14.7264"/>
<text text-anchor="middle" x="950" y="-57.5" font-family="Helvetica,sans-Serif" font-size="10.00"> treeEvents</text>
</g>
<!-- Node17 -->
<g id="node16" class="node"><title>Node17</title>
<g id="a_node16"><a xlink:href="classant_1_1_wrap_t_tree.html" target="_top" xlink:title="The WrapTTree struct simplifies TTree handling in physics classes. ">
<polygon fill="white" stroke="black" points="408,-6 408,-25 494,-25 494,-6 408,-6"/>
<text text-anchor="middle" x="451" y="-13" font-family="Helvetica,sans-Serif" font-size="10.00">ant::WrapTTree</text>
</a>
</g>
</g>
<!-- Node17&#45;&gt;Node16 -->
<g id="edge16" class="edge"><title>Node17&#45;&gt;Node16</title>
<path fill="none" stroke="midnightblue" d="M504.548,-15.5C570.759,-15.5 683.891,-15.5 750.214,-15.5"/>
<polygon fill="midnightblue" stroke="midnightblue" points="504.339,-12.0001 494.339,-15.5 504.339,-19.0001 504.339,-12.0001"/>
</g>
</g>
</svg>
