<?xml version="1.0" encoding="UTF-8" standalone="no"?>
<!DOCTYPE svg PUBLIC "-//W3C//DTD SVG 1.1//EN"
 "http://www.w3.org/Graphics/SVG/1.1/DTD/svg11.dtd">
<!-- Generated by graphviz version 2.38.0 (20140413.2041)
 -->
<!-- Title: ant::analysis::physics::Thresholds Pages: 1 -->
<svg width="564pt" height="151pt"
 viewBox="0.00 0.00 564.00 151.00" xmlns="http://www.w3.org/2000/svg" xmlns:xlink="http://www.w3.org/1999/xlink">
<g id="graph0" class="graph" transform="scale(1 1) rotate(0) translate(4 147)">
<title>ant::analysis::physics::Thresholds</title>
<polygon fill="white" stroke="none" points="-4,4 -4,-147 560,-147 560,4 -4,4"/>
<!-- Node0 -->
<g id="node1" class="node"><title>Node0</title>
<polygon fill="#bfbfbf" stroke="black" points="199.5,-56.5 199.5,-86.5 317.5,-86.5 317.5,-56.5 199.5,-56.5"/>
<text text-anchor="start" x="207.5" y="-74.5" font-family="Helvetica,sans-Serif" font-size="10.00">ant::analysis::physics</text>
<text text-anchor="middle" x="258.5" y="-63.5" font-family="Helvetica,sans-Serif" font-size="10.00">::Thresholds</text>
</g>
<!-- Node2 -->
<g id="node3" class="node"><title>Node2</title>
<g id="a_node3"><a xlink:href="struct_c_b___thresholds.html" target="_top" xlink:title="CB_Thresholds">
<polygon fill="white" stroke="black" points="0,-0.5 0,-19.5 87,-19.5 87,-0.5 0,-0.5"/>
<text text-anchor="middle" x="43.5" y="-7.5" font-family="Helvetica,sans-Serif" font-size="10.00">CB_Thresholds</text>
</a>
</g>
</g>
<!-- Node0&#45;&gt;Node2 -->
<g id="edge2" class="edge"><title>Node0&#45;&gt;Node2</title>
<path fill="none" stroke="midnightblue" d="M198.086,-53.7808C157.757,-42.62 106.409,-28.4098 74.2373,-19.5064"/>
<polygon fill="midnightblue" stroke="midnightblue" points="197.249,-57.1806 207.82,-56.4747 199.116,-50.4342 197.249,-57.1806"/>
</g>
<!-- Node3 -->
<g id="node4" class="node"><title>Node3</title>
<g id="a_node4"><a xlink:href="struct_e_p_t___thresholds.html" target="_top" xlink:title="EPT_Thresholds">
<polygon fill="white" stroke="black" points="105,-0.5 105,-19.5 196,-19.5 196,-0.5 105,-0.5"/>
<text text-anchor="middle" x="150.5" y="-7.5" font-family="Helvetica,sans-Serif" font-size="10.00">EPT_Thresholds</text>
</a>
</g>
</g>
<!-- Node0&#45;&gt;Node3 -->
<g id="edge3" class="edge"><title>Node0&#45;&gt;Node3</title>
<path fill="none" stroke="midnightblue" d="M224.023,-51.5055C204.609,-40.8101 181.305,-27.9715 166.215,-19.6578"/>
<polygon fill="midnightblue" stroke="midnightblue" points="222.458,-54.6394 232.906,-56.3993 225.836,-48.5083 222.458,-54.6394"/>
</g>
<!-- Node4 -->
<g id="node5" class="node"><title>Node4</title>
<g id="a_node5"><a xlink:href="struct_p_i_d___thresholds.html" target="_top" xlink:title="PID_Thresholds">
<polygon fill="white" stroke="black" points="214,-0.5 214,-19.5 303,-19.5 303,-0.5 214,-0.5"/>
<text text-anchor="middle" x="258.5" y="-7.5" font-family="Helvetica,sans-Serif" font-size="10.00">PID_Thresholds</text>
</a>
</g>
</g>
<!-- Node0&#45;&gt;Node4 -->
<g id="edge4" class="edge"><title>Node0&#45;&gt;Node4</title>
<path fill="none" stroke="midnightblue" d="M258.5,-46.2892C258.5,-36.857 258.5,-26.6548 258.5,-19.6578"/>
<polygon fill="midnightblue" stroke="midnightblue" points="255,-46.3993 258.5,-56.3993 262,-46.3994 255,-46.3993"/>
</g>
<!-- Node5 -->
<g id="node6" class="node"><title>Node5</title>
<g id="a_node6"><a xlink:href="struct_t_a_p_s___thresholds.html" target="_top" xlink:title="TAPS_Thresholds">
<polygon fill="white" stroke="black" points="320.5,-0.5 320.5,-19.5 418.5,-19.5 418.5,-0.5 320.5,-0.5"/>
<text text-anchor="middle" x="369.5" y="-7.5" font-family="Helvetica,sans-Serif" font-size="10.00">TAPS_Thresholds</text>
</a>
</g>
</g>
<!-- Node0&#45;&gt;Node5 -->
<g id="edge5" class="edge"><title>Node0&#45;&gt;Node5</title>
<path fill="none" stroke="midnightblue" d="M293.664,-51.6506C313.671,-40.9264 337.769,-28.0091 353.349,-19.6578"/>
<polygon fill="midnightblue" stroke="midnightblue" points="291.966,-48.5901 284.805,-56.3993 295.273,-54.7596 291.966,-48.5901"/>
</g>
<!-- Node6 -->
<g id="node7" class="node"><title>Node6</title>
<g id="a_node7"><a xlink:href="struct_t_a_p_s_veto___thresholds.html" target="_top" xlink:title="TAPSVeto_Thresholds">
<polygon fill="white" stroke="black" points="437,-0.5 437,-19.5 556,-19.5 556,-0.5 437,-0.5"/>
<text text-anchor="middle" x="496.5" y="-7.5" font-family="Helvetica,sans-Serif" font-size="10.00">TAPSVeto_Thresholds</text>
</a>
</g>
</g>
<!-- Node0&#45;&gt;Node6 -->
<g id="edge6" class="edge"><title>Node0&#45;&gt;Node6</title>
<path fill="none" stroke="midnightblue" d="M324.529,-53.9928C369.298,-42.8005 426.635,-28.4663 462.475,-19.5064"/>
<polygon fill="midnightblue" stroke="midnightblue" points="323.454,-50.6537 314.601,-56.4747 325.152,-57.4447 323.454,-50.6537"/>
</g>
<!-- Node1 -->
<g id="node2" class="node"><title>Node1</title>
<g id="a_node2"><a xlink:href="classant_1_1analysis_1_1_physics.html" target="_top" xlink:title="ant::analysis::Physics">
<polygon fill="white" stroke="black" points="199.5,-123.5 199.5,-142.5 317.5,-142.5 317.5,-123.5 199.5,-123.5"/>
<text text-anchor="middle" x="258.5" y="-130.5" font-family="Helvetica,sans-Serif" font-size="10.00">ant::analysis::Physics</text>
</a>
</g>
</g>
<!-- Node1&#45;&gt;Node0 -->
<g id="edge1" class="edge"><title>Node1&#45;&gt;Node0</title>
<path fill="none" stroke="midnightblue" d="M258.5,-113.235C258.5,-104.586 258.5,-94.4969 258.5,-86.523"/>
<polygon fill="midnightblue" stroke="midnightblue" points="255,-113.475 258.5,-123.475 262,-113.475 255,-113.475"/>
</g>
</g>
</svg>
