<?xml version="1.0" encoding="UTF-8" standalone="no"?>
<!DOCTYPE svg PUBLIC "-//W3C//DTD SVG 1.1//EN"
 "http://www.w3.org/Graphics/SVG/1.1/DTD/svg11.dtd">
<!-- Generated by graphviz version 2.38.0 (20140413.2041)
 -->
<!-- Title: ant::calibration::gui::AvgBuffer_Sum&lt; AvgBufferItem &gt; Pages: 1 -->
<svg width="194pt" height="117pt"
 viewBox="0.00 0.00 194.00 117.00" xmlns="http://www.w3.org/2000/svg" xmlns:xlink="http://www.w3.org/1999/xlink">
<g id="graph0" class="graph" transform="scale(1 1) rotate(0) translate(4 113)">
<title>ant::calibration::gui::AvgBuffer_Sum&lt; AvgBufferItem &gt;</title>
<polygon fill="white" stroke="none" points="-4,4 -4,-113 190,-113 190,4 -4,4"/>
<!-- Node0 -->
<g id="node1" class="node"><title>Node0</title>
<polygon fill="#bfbfbf" stroke="black" points="-1.42109e-14,-0.5 -1.42109e-14,-30.5 186,-30.5 186,-0.5 -1.42109e-14,-0.5"/>
<text text-anchor="start" x="8" y="-18.5" font-family="Helvetica,sans-Serif" font-size="10.00">ant::calibration::gui</text>
<text text-anchor="middle" x="93" y="-7.5" font-family="Helvetica,sans-Serif" font-size="10.00">::AvgBuffer_Sum&lt; AvgBufferItem &gt;</text>
</g>
<!-- Node1 -->
<g id="node2" class="node"><title>Node1</title>
<g id="a_node2"><a xlink:href="classant_1_1calibration_1_1gui_1_1_avg_buffer__traits.html" target="_top" xlink:title="ant::calibration::gui\l::AvgBuffer_traits\&lt; AvgBuffer\lItem \&gt;">
<polygon fill="white" stroke="black" points="15.5,-67.5 15.5,-108.5 170.5,-108.5 170.5,-67.5 15.5,-67.5"/>
<text text-anchor="start" x="23.5" y="-96.5" font-family="Helvetica,sans-Serif" font-size="10.00">ant::calibration::gui</text>
<text text-anchor="start" x="23.5" y="-85.5" font-family="Helvetica,sans-Serif" font-size="10.00">::AvgBuffer_traits&lt; AvgBuffer</text>
<text text-anchor="middle" x="93" y="-74.5" font-family="Helvetica,sans-Serif" font-size="10.00">Item &gt;</text>
</a>
</g>
</g>
<!-- Node1&#45;&gt;Node0 -->
<g id="edge1" class="edge"><title>Node1&#45;&gt;Node0</title>
<path fill="none" stroke="midnightblue" d="M93,-57.08C93,-48.0061 93,-38.4498 93,-30.8916"/>
<polygon fill="midnightblue" stroke="midnightblue" points="89.5001,-57.3618 93,-67.3618 96.5001,-57.3619 89.5001,-57.3618"/>
</g>
</g>
</svg>
