<?xml version="1.0" encoding="UTF-8" standalone="no"?>
<!DOCTYPE svg PUBLIC "-//W3C//DTD SVG 1.1//EN"
 "http://www.w3.org/Graphics/SVG/1.1/DTD/svg11.dtd">
<!-- Generated by graphviz version 2.38.0 (20140413.2041)
 -->
<!-- Title: ant::analysis::physics::MCReconstructCheck Pages: 1 -->
<svg width="1701pt" height="476pt"
 viewBox="0.00 0.00 1701.00 476.00" xmlns="http://www.w3.org/2000/svg" xmlns:xlink="http://www.w3.org/1999/xlink">
<g id="graph0" class="graph" transform="scale(1 1) rotate(0) translate(4 472)">
<title>ant::analysis::physics::MCReconstructCheck</title>
<polygon fill="white" stroke="none" points="-4,4 -4,-472 1697,-472 1697,4 -4,4"/>
<!-- Node2 -->
<g id="node1" class="node"><title>Node2</title>
<polygon fill="#bfbfbf" stroke="black" points="1570,-119 1570,-149 1693,-149 1693,-119 1570,-119"/>
<text text-anchor="start" x="1578" y="-137" font-family="Helvetica,sans-Serif" font-size="10.00">ant::analysis::physics</text>
<text text-anchor="middle" x="1631.5" y="-126" font-family="Helvetica,sans-Serif" font-size="10.00">::MCReconstructCheck</text>
</g>
<!-- Node3 -->
<g id="node2" class="node"><title>Node3</title>
<g id="a_node2"><a xlink:href="classant_1_1analysis_1_1_physics.html" target="_top" xlink:title="ant::analysis::Physics">
<polygon fill="white" stroke="black" points="1354.5,-236.5 1354.5,-255.5 1472.5,-255.5 1472.5,-236.5 1354.5,-236.5"/>
<text text-anchor="middle" x="1413.5" y="-243.5" font-family="Helvetica,sans-Serif" font-size="10.00">ant::analysis::Physics</text>
</a>
</g>
</g>
<!-- Node3&#45;&gt;Node2 -->
<g id="edge1" class="edge"><title>Node3&#45;&gt;Node2</title>
<path fill="none" stroke="midnightblue" d="M1466.11,-233.714C1492.77,-226.155 1525.23,-215.009 1552,-200 1576.85,-186.068 1601.3,-163.77 1616.15,-149.005"/>
<polygon fill="midnightblue" stroke="midnightblue" points="1464.92,-230.412 1456.2,-236.436 1466.77,-237.162 1464.92,-230.412"/>
</g>
<!-- Node4 -->
<g id="node3" class="node"><title>Node4</title>
<g id="a_node3"><a xlink:href="classant_1_1analysis_1_1_histogram_factory.html" target="_top" xlink:title="ant::analysis::Histogram\lFactory">
<polygon fill="white" stroke="black" points="1087,-234 1087,-264 1220,-264 1220,-234 1087,-234"/>
<text text-anchor="start" x="1095" y="-252" font-family="Helvetica,sans-Serif" font-size="10.00">ant::analysis::Histogram</text>
<text text-anchor="middle" x="1153.5" y="-241" font-family="Helvetica,sans-Serif" font-size="10.00">Factory</text>
</a>
</g>
</g>
<!-- Node4&#45;&gt;Node3 -->
<g id="edge2" class="edge"><title>Node4&#45;&gt;Node3</title>
<path fill="none" stroke="#9a32cd" stroke-dasharray="5,2" d="M1230.42,-248.117C1270.01,-247.657 1317.69,-247.102 1354.32,-246.676"/>
<polygon fill="#9a32cd" stroke="#9a32cd" points="1230.23,-244.619 1220.27,-248.235 1230.31,-251.619 1230.23,-244.619"/>
<text text-anchor="middle" x="1284.5" y="-251" font-family="Helvetica,sans-Serif" font-size="10.00"> HistFac</text>
</g>
<!-- Node5 -->
<g id="node4" class="node"><title>Node5</title>
<g id="a_node4"><a xlink:href="structant_1_1analysis_1_1physics_1_1_m_c_reconstruct_check_1_1_t_a_p_s_veto_match.html" target="_top" xlink:title="ant::analysis::physics\l::MCReconstructCheck::\lTAPSVetoMatch">
<polygon fill="white" stroke="black" points="1349,-173.5 1349,-214.5 1478,-214.5 1478,-173.5 1349,-173.5"/>
<text text-anchor="start" x="1357" y="-202.5" font-family="Helvetica,sans-Serif" font-size="10.00">ant::analysis::physics</text>
<text text-anchor="start" x="1357" y="-191.5" font-family="Helvetica,sans-Serif" font-size="10.00">::MCReconstructCheck::</text>
<text text-anchor="middle" x="1413.5" y="-180.5" font-family="Helvetica,sans-Serif" font-size="10.00">TAPSVetoMatch</text>
</a>
</g>
</g>
<!-- Node5&#45;&gt;Node2 -->
<g id="edge3" class="edge"><title>Node5&#45;&gt;Node2</title>
<path fill="none" stroke="#9a32cd" stroke-dasharray="5,2" d="M1488.41,-185.458C1509.25,-182.025 1531.75,-177.332 1552,-171 1569.69,-165.469 1588.5,-156.711 1603.27,-149.105"/>
<polygon fill="#9a32cd" stroke="#9a32cd" points="1487.66,-182.032 1478.33,-187.044 1488.75,-188.947 1487.66,-182.032"/>
<text text-anchor="middle" x="1524" y="-188" font-family="Helvetica,sans-Serif" font-size="10.00"> tapsveto</text>
</g>
<!-- Node6 -->
<g id="node5" class="node"><title>Node6</title>
<g id="a_node5"><a xlink:href="structant_1_1analysis_1_1physics_1_1_m_c_reconstruct_check_1_1histgroup.html" target="_top" xlink:title="ant::analysis::physics\l::MCReconstructCheck::\lhistgroup">
<polygon fill="white" stroke="black" points="1349,-113.5 1349,-154.5 1478,-154.5 1478,-113.5 1349,-113.5"/>
<text text-anchor="start" x="1357" y="-142.5" font-family="Helvetica,sans-Serif" font-size="10.00">ant::analysis::physics</text>
<text text-anchor="start" x="1357" y="-131.5" font-family="Helvetica,sans-Serif" font-size="10.00">::MCReconstructCheck::</text>
<text text-anchor="middle" x="1413.5" y="-120.5" font-family="Helvetica,sans-Serif" font-size="10.00">histgroup</text>
</a>
</g>
</g>
<!-- Node6&#45;&gt;Node2 -->
<g id="edge4" class="edge"><title>Node6&#45;&gt;Node2</title>
<path fill="none" stroke="#9a32cd" stroke-dasharray="5,2" d="M1488.18,-134C1514.8,-134 1544.53,-134 1569.91,-134"/>
<polygon fill="#9a32cd" stroke="#9a32cd" points="1488.14,-130.5 1478.14,-134 1488.14,-137.5 1488.14,-130.5"/>
<text text-anchor="middle" x="1524" y="-159" font-family="Helvetica,sans-Serif" font-size="10.00"> cb_group</text>
<text text-anchor="middle" x="1524" y="-148" font-family="Helvetica,sans-Serif" font-size="10.00">all_group</text>
<text text-anchor="middle" x="1524" y="-137" font-family="Helvetica,sans-Serif" font-size="10.00">taps_group</text>
</g>
<!-- Node7 -->
<g id="node6" class="node"><title>Node7</title>
<g id="a_node6"><a xlink:title="STL class. ">
<polygon fill="white" stroke="#bfbfbf" points="140,-176.5 140,-195.5 205,-195.5 205,-176.5 140,-176.5"/>
<text text-anchor="middle" x="172.5" y="-183.5" font-family="Helvetica,sans-Serif" font-size="10.00">std::string</text>
</a>
</g>
</g>
<!-- Node7&#45;&gt;Node6 -->
<g id="edge5" class="edge"><title>Node7&#45;&gt;Node6</title>
<path fill="none" stroke="#9a32cd" stroke-dasharray="5,2" d="M181.794,-166.904C190.07,-149.771 204.249,-124.94 223,-109 274.868,-64.9088 295.424,-48 363.5,-48 363.5,-48 363.5,-48 1154.5,-48 1195.69,-48 1300.6,-87.9585 1363.23,-113.401"/>
<polygon fill="#9a32cd" stroke="#9a32cd" points="178.412,-165.881 177.415,-176.429 184.772,-168.805 178.412,-165.881"/>
<text text-anchor="middle" x="767" y="-51" font-family="Helvetica,sans-Serif" font-size="10.00"> Prefix</text>
</g>
<!-- Node10 -->
<g id="node9" class="node"><title>Node10</title>
<g id="a_node9"><a xlink:href="structant_1_1hstack.html" target="_top" xlink:title="ant::hstack">
<polygon fill="white" stroke="black" points="1118.5,-195.5 1118.5,-214.5 1188.5,-214.5 1188.5,-195.5 1118.5,-195.5"/>
<text text-anchor="middle" x="1153.5" y="-202.5" font-family="Helvetica,sans-Serif" font-size="10.00">ant::hstack</text>
</a>
</g>
</g>
<!-- Node7&#45;&gt;Node10 -->
<g id="edge16" class="edge"><title>Node7&#45;&gt;Node10</title>
<path fill="none" stroke="#9a32cd" stroke-dasharray="5,2" d="M215.403,-186C253.901,-186 312.544,-186 363.5,-186 363.5,-186 363.5,-186 903,-186 980.108,-186 1070.24,-195.134 1118.26,-200.736"/>
<polygon fill="#9a32cd" stroke="#9a32cd" points="215.101,-182.5 205.101,-186 215.101,-189.5 215.101,-182.5"/>
<text text-anchor="middle" x="649" y="-189" font-family="Helvetica,sans-Serif" font-size="10.00"> origtitle</text>
</g>
<!-- Node14 -->
<g id="node13" class="node"><title>Node14</title>
<g id="a_node13"><a xlink:href="structant_1_1hstack_1_1hist__t.html" target="_top" xlink:title="ant::hstack::hist_t">
<polygon fill="white" stroke="black" points="598,-92.5 598,-111.5 700,-111.5 700,-92.5 598,-92.5"/>
<text text-anchor="middle" x="649" y="-99.5" font-family="Helvetica,sans-Serif" font-size="10.00">ant::hstack::hist_t</text>
</a>
</g>
</g>
<!-- Node7&#45;&gt;Node14 -->
<g id="edge15" class="edge"><title>Node7&#45;&gt;Node14</title>
<path fill="none" stroke="#9a32cd" stroke-dasharray="5,2" d="M191.087,-169.52C214.024,-149.385 256.391,-116.679 300,-106 403.435,-80.67 529.397,-88.3222 597.839,-95.5481"/>
<polygon fill="#9a32cd" stroke="#9a32cd" points="188.64,-167.014 183.55,-176.306 193.323,-172.216 188.64,-167.014"/>
<text text-anchor="middle" x="364.5" y="-109" font-family="Helvetica,sans-Serif" font-size="10.00"> Path</text>
</g>
<!-- Node15 -->
<g id="node14" class="node"><title>Node15</title>
<g id="a_node14"><a xlink:href="structant_1_1analysis_1_1plot_1_1histstyle_1_1_mod_option__t.html" target="_top" xlink:title="ant::analysis::plot\l::histstyle::ModOption_t">
<polygon fill="white" stroke="black" points="300,-127 300,-157 429,-157 429,-127 300,-127"/>
<text text-anchor="start" x="308" y="-145" font-family="Helvetica,sans-Serif" font-size="10.00">ant::analysis::plot</text>
<text text-anchor="middle" x="364.5" y="-134" font-family="Helvetica,sans-Serif" font-size="10.00">::histstyle::ModOption_t</text>
</a>
</g>
</g>
<!-- Node7&#45;&gt;Node15 -->
<g id="edge14" class="edge"><title>Node7&#45;&gt;Node15</title>
<path fill="none" stroke="#9a32cd" stroke-dasharray="5,2" d="M197.895,-171.654C205.688,-167.63 214.502,-163.638 223,-161 247.565,-153.373 275.487,-148.807 299.931,-146.073"/>
<polygon fill="#9a32cd" stroke="#9a32cd" points="196.103,-168.644 188.983,-176.49 199.442,-174.797 196.103,-168.644"/>
<text text-anchor="middle" x="252.5" y="-164" font-family="Helvetica,sans-Serif" font-size="10.00"> DrawOption</text>
</g>
<!-- Node20 -->
<g id="node19" class="node"><title>Node20</title>
<polygon fill="white" stroke="#bfbfbf" points="588,-215.5 588,-256.5 710,-256.5 710,-215.5 588,-215.5"/>
<text text-anchor="start" x="596" y="-244.5" font-family="Helvetica,sans-Serif" font-size="10.00">std::map&lt; std::string,</text>
<text text-anchor="start" x="596" y="-233.5" font-family="Helvetica,sans-Serif" font-size="10.00"> ant::hstack::options</text>
<text text-anchor="middle" x="649" y="-222.5" font-family="Helvetica,sans-Serif" font-size="10.00">_t::hist_t &gt;</text>
</g>
<!-- Node7&#45;&gt;Node20 -->
<g id="edge25" class="edge"><title>Node7&#45;&gt;Node20</title>
<path fill="none" stroke="#9a32cd" stroke-dasharray="5,2" d="M189.664,-203.019C198.763,-211.788 210.737,-222.067 223,-229 254.321,-246.709 264.462,-248.375 300,-254 418.099,-272.692 450.052,-262.172 569,-250 575.097,-249.376 581.432,-248.553 587.743,-247.618"/>
<polygon fill="#9a32cd" stroke="#9a32cd" points="192.018,-200.423 182.473,-195.824 187.066,-205.371 192.018,-200.423"/>
<text text-anchor="middle" x="364.5" y="-268" font-family="Helvetica,sans-Serif" font-size="10.00"> keys</text>
</g>
<!-- Node21 -->
<g id="node20" class="node"><title>Node21</title>
<g id="a_node20"><a xlink:href="structant_1_1hstack_1_1options__t_1_1hist__t.html" target="_top" xlink:title="ant::hstack::options\l_t::hist_t">
<polygon fill="white" stroke="black" points="309,-215 309,-245 420,-245 420,-215 309,-215"/>
<text text-anchor="start" x="317" y="-233" font-family="Helvetica,sans-Serif" font-size="10.00">ant::hstack::options</text>
<text text-anchor="middle" x="364.5" y="-222" font-family="Helvetica,sans-Serif" font-size="10.00">_t::hist_t</text>
</a>
</g>
</g>
<!-- Node7&#45;&gt;Node21 -->
<g id="edge24" class="edge"><title>Node7&#45;&gt;Node21</title>
<path fill="none" stroke="#9a32cd" stroke-dasharray="5,2" d="M214.943,-197.936C217.665,-198.653 220.368,-199.348 223,-200 251.204,-206.992 282.835,-213.833 308.933,-219.212"/>
<polygon fill="#9a32cd" stroke="#9a32cd" points="215.673,-194.507 205.106,-195.271 213.843,-201.264 215.673,-194.507"/>
<text text-anchor="middle" x="252.5" y="-217" font-family="Helvetica,sans-Serif" font-size="10.00"> AddTo</text>
</g>
<!-- Node24 -->
<g id="node23" class="node"><title>Node24</title>
<polygon fill="white" stroke="#bfbfbf" points="447,-425.5 447,-444.5 569,-444.5 569,-425.5 447,-425.5"/>
<text text-anchor="middle" x="508" y="-432.5" font-family="Helvetica,sans-Serif" font-size="10.00">std::list&lt; std::string &gt;</text>
</g>
<!-- Node7&#45;&gt;Node24 -->
<g id="edge30" class="edge"><title>Node7&#45;&gt;Node24</title>
<path fill="none" stroke="#9a32cd" stroke-dasharray="5,2" d="M178.442,-205.728C190.589,-249.581 226.418,-354.837 300,-400 344.11,-427.073 402.975,-434.881 446.654,-436.466"/>
<polygon fill="#9a32cd" stroke="#9a32cd" points="181.802,-204.744 175.856,-195.976 175.036,-206.539 181.802,-204.744"/>
<text text-anchor="middle" x="252.5" y="-389" font-family="Helvetica,sans-Serif" font-size="10.00"> elements</text>
</g>
<!-- Node8 -->
<g id="node7" class="node"><title>Node8</title>
<g id="a_node7"><a xlink:title="STL class. ">
<polygon fill="white" stroke="#bfbfbf" points="0,-171 0,-201 103,-201 103,-171 0,-171"/>
<text text-anchor="start" x="8" y="-189" font-family="Helvetica,sans-Serif" font-size="10.00">std::basic_string&lt;</text>
<text text-anchor="middle" x="51.5" y="-178" font-family="Helvetica,sans-Serif" font-size="10.00"> char &gt;</text>
</a>
</g>
</g>
<!-- Node8&#45;&gt;Node7 -->
<g id="edge6" class="edge"><title>Node8&#45;&gt;Node7</title>
<path fill="none" stroke="midnightblue" d="M113.539,-186C122.619,-186 131.651,-186 139.788,-186"/>
<polygon fill="midnightblue" stroke="midnightblue" points="113.312,-182.5 103.312,-186 113.312,-189.5 113.312,-182.5"/>
</g>
<!-- Node9 -->
<g id="node8" class="node"><title>Node9</title>
<polygon fill="white" stroke="#bfbfbf" points="1092.5,-124.5 1092.5,-143.5 1214.5,-143.5 1214.5,-124.5 1092.5,-124.5"/>
<text text-anchor="middle" x="1153.5" y="-131.5" font-family="Helvetica,sans-Serif" font-size="10.00">std::vector&lt; TH1D *&gt;</text>
</g>
<!-- Node9&#45;&gt;Node6 -->
<g id="edge7" class="edge"><title>Node9&#45;&gt;Node6</title>
<path fill="none" stroke="#9a32cd" stroke-dasharray="5,2" d="M1224.8,-134C1263.45,-134 1311.04,-134 1348.63,-134"/>
<polygon fill="#9a32cd" stroke="#9a32cd" points="1224.66,-130.5 1214.66,-134 1224.66,-137.5 1224.66,-130.5"/>
<text text-anchor="middle" x="1284.5" y="-137" font-family="Helvetica,sans-Serif" font-size="10.00"> mult2_split_angles</text>
</g>
<!-- Node10&#45;&gt;Node6 -->
<g id="edge8" class="edge"><title>Node10&#45;&gt;Node6</title>
<path fill="none" stroke="#9a32cd" stroke-dasharray="5,2" d="M1198.53,-192.883C1239.84,-181.515 1302.09,-164.384 1348.81,-151.527"/>
<polygon fill="#9a32cd" stroke="#9a32cd" points="1197.47,-189.544 1188.76,-195.572 1199.33,-196.293 1197.47,-189.544"/>
<text text-anchor="middle" x="1284.5" y="-184" font-family="Helvetica,sans-Serif" font-size="10.00"> mult2_split_stack</text>
</g>
<!-- Node11 -->
<g id="node10" class="node"><title>Node11</title>
<polygon fill="white" stroke="#bfbfbf" points="874,-328.5 874,-347.5 930,-347.5 930,-328.5 874,-328.5"/>
<text text-anchor="middle" x="902" y="-335.5" font-family="Helvetica,sans-Serif" font-size="10.00">THStack</text>
</g>
<!-- Node11&#45;&gt;Node10 -->
<g id="edge9" class="edge"><title>Node11&#45;&gt;Node10</title>
<path fill="none" stroke="midnightblue" d="M940.059,-342.462C977.628,-344.773 1034.94,-341.866 1069,-309 1096.79,-282.187 1060.72,-252.292 1087,-224 1095.14,-215.238 1107.05,-210.433 1118.49,-207.825"/>
<polygon fill="midnightblue" stroke="midnightblue" points="940.26,-338.967 930.022,-341.692 939.725,-345.946 940.26,-338.967"/>
</g>
<!-- Node12 -->
<g id="node11" class="node"><title>Node12</title>
<polygon fill="white" stroke="#bfbfbf" points="823,-290.5 823,-309.5 981,-309.5 981,-290.5 823,-290.5"/>
<text text-anchor="middle" x="902" y="-297.5" font-family="Helvetica,sans-Serif" font-size="10.00">std::unique_ptr&lt; TPaveText &gt;</text>
</g>
<!-- Node12&#45;&gt;Node10 -->
<g id="edge10" class="edge"><title>Node12&#45;&gt;Node10</title>
<path fill="none" stroke="#9a32cd" stroke-dasharray="5,2" d="M991.299,-296.161C1018.58,-291.195 1047.16,-281.687 1069,-264 1084.15,-251.73 1072.28,-236.783 1087,-224 1095.76,-216.391 1107.41,-211.824 1118.46,-209.084"/>
<polygon fill="#9a32cd" stroke="#9a32cd" points="990.627,-292.725 981.323,-297.793 991.757,-299.633 990.627,-292.725"/>
<text text-anchor="middle" x="1034" y="-297" font-family="Helvetica,sans-Serif" font-size="10.00"> intellititle</text>
</g>
<!-- Node13 -->
<g id="node12" class="node"><title>Node13</title>
<polygon fill="white" stroke="#bfbfbf" points="844,-92.5 844,-111.5 960,-111.5 960,-92.5 844,-92.5"/>
<text text-anchor="middle" x="902" y="-99.5" font-family="Helvetica,sans-Serif" font-size="10.00">std::vector&lt; hist_t &gt;</text>
</g>
<!-- Node13&#45;&gt;Node10 -->
<g id="edge11" class="edge"><title>Node13&#45;&gt;Node10</title>
<path fill="none" stroke="#9a32cd" stroke-dasharray="5,2" d="M970.68,-92.4064C1003.03,-91.3258 1040.75,-95.539 1069,-115 1084.39,-125.603 1075.38,-138.365 1087,-153 1100.99,-170.625 1122.05,-185.97 1136.49,-195.335"/>
<polygon fill="#9a32cd" stroke="#9a32cd" points="970.195,-88.9265 960.385,-92.9306 970.551,-95.9174 970.195,-88.9265"/>
<text text-anchor="middle" x="1034" y="-118" font-family="Helvetica,sans-Serif" font-size="10.00"> hists</text>
</g>
<!-- Node14&#45;&gt;Node13 -->
<g id="edge12" class="edge"><title>Node14&#45;&gt;Node13</title>
<path fill="none" stroke="#9a32cd" stroke-dasharray="5,2" d="M710.217,-102C750.788,-102 803.973,-102 843.88,-102"/>
<polygon fill="#9a32cd" stroke="#9a32cd" points="710.19,-98.5001 700.19,-102 710.19,-105.5 710.19,-98.5001"/>
<text text-anchor="middle" x="767" y="-105" font-family="Helvetica,sans-Serif" font-size="10.00"> elements</text>
</g>
<!-- Node15&#45;&gt;Node10 -->
<g id="edge17" class="edge"><title>Node15&#45;&gt;Node10</title>
<path fill="none" stroke="#9a32cd" stroke-dasharray="5,2" d="M439.643,-142.048C595.136,-142.656 950.724,-146.853 1069,-172 1092.02,-176.895 1116.94,-187.497 1133.5,-195.37"/>
<polygon fill="#9a32cd" stroke="#9a32cd" points="439.259,-138.546 429.247,-142.011 439.234,-145.546 439.259,-138.546"/>
<text text-anchor="middle" x="767" y="-152" font-family="Helvetica,sans-Serif" font-size="10.00"> current_option</text>
</g>
<!-- Node15&#45;&gt;Node14 -->
<g id="edge13" class="edge"><title>Node15&#45;&gt;Node14</title>
<path fill="none" stroke="#9a32cd" stroke-dasharray="5,2" d="M439.394,-125.314C441.957,-124.852 444.498,-124.412 447,-124 498.091,-115.587 557.034,-109.566 597.821,-105.972"/>
<polygon fill="#9a32cd" stroke="#9a32cd" points="438.616,-121.899 429.438,-127.192 439.914,-128.777 438.616,-121.899"/>
<text text-anchor="middle" x="508" y="-127" font-family="Helvetica,sans-Serif" font-size="10.00"> Option</text>
</g>
<!-- Node16 -->
<g id="node15" class="node"><title>Node16</title>
<g id="a_node15"><a xlink:href="structant_1_1hstack_1_1options__t.html" target="_top" xlink:title="ant::hstack::options_t">
<polygon fill="white" stroke="black" points="842,-252.5 842,-271.5 962,-271.5 962,-252.5 842,-252.5"/>
<text text-anchor="middle" x="902" y="-259.5" font-family="Helvetica,sans-Serif" font-size="10.00">ant::hstack::options_t</text>
</a>
</g>
</g>
<!-- Node16&#45;&gt;Node10 -->
<g id="edge18" class="edge"><title>Node16&#45;&gt;Node10</title>
<path fill="none" stroke="#9a32cd" stroke-dasharray="5,2" d="M972.205,-253.283C1002.34,-248.521 1037.82,-241.595 1069,-232 1077.37,-229.425 1078.78,-227.004 1087,-224 1097.01,-220.343 1108.08,-216.909 1118.22,-213.993"/>
<polygon fill="#9a32cd" stroke="#9a32cd" points="971.559,-249.841 962.205,-254.816 972.62,-256.76 971.559,-249.841"/>
<text text-anchor="middle" x="1034" y="-252" font-family="Helvetica,sans-Serif" font-size="10.00"> GlobalOptions</text>
</g>
<!-- Node17 -->
<g id="node16" class="node"><title>Node17</title>
<g id="a_node16"><a xlink:href="classant_1_1interval.html" target="_top" xlink:title="ant::interval\&lt; double \&gt;">
<polygon fill="white" stroke="black" points="300.5,-371.5 300.5,-390.5 428.5,-390.5 428.5,-371.5 300.5,-371.5"/>
<text text-anchor="middle" x="364.5" y="-378.5" font-family="Helvetica,sans-Serif" font-size="10.00">ant::interval&lt; double &gt;</text>
</a>
</g>
</g>
<!-- Node17&#45;&gt;Node16 -->
<g id="edge19" class="edge"><title>Node17&#45;&gt;Node16</title>
<path fill="none" stroke="#9a32cd" stroke-dasharray="5,2" d="M439.124,-374.065C547.786,-362.759 744.753,-337.852 805,-301 815.202,-294.76 812.733,-287.133 823,-281 829.461,-277.14 836.667,-274.064 844.016,-271.611"/>
<polygon fill="#9a32cd" stroke="#9a32cd" points="438.481,-370.613 428.891,-375.117 439.197,-377.576 438.481,-370.613"/>
<text text-anchor="middle" x="649" y="-357" font-family="Helvetica,sans-Serif" font-size="10.00"> YAxisRange</text>
</g>
<!-- Node22 -->
<g id="node21" class="node"><title>Node22</title>
<g id="a_node21"><a xlink:href="classant_1_1interval.html" target="_top" xlink:title="ant::interval\&lt; ant\l::interval\&lt; double \&gt; \&gt;">
<polygon fill="white" stroke="black" points="587,-383 587,-413 711,-413 711,-383 587,-383"/>
<text text-anchor="start" x="595" y="-401" font-family="Helvetica,sans-Serif" font-size="10.00">ant::interval&lt; ant</text>
<text text-anchor="middle" x="649" y="-390" font-family="Helvetica,sans-Serif" font-size="10.00">::interval&lt; double &gt; &gt;</text>
</a>
</g>
</g>
<!-- Node17&#45;&gt;Node22 -->
<g id="edge27" class="edge"><title>Node17&#45;&gt;Node22</title>
<path fill="none" stroke="#9a32cd" stroke-dasharray="5,2" d="M438.734,-385.407C484.639,-388.169 543.134,-391.689 586.602,-394.305"/>
<polygon fill="#9a32cd" stroke="#9a32cd" points="438.739,-381.901 428.547,-384.794 438.319,-388.888 438.739,-381.901"/>
<text text-anchor="middle" x="508" y="-406" font-family="Helvetica,sans-Serif" font-size="10.00"> _start</text>
<text text-anchor="middle" x="508" y="-395" font-family="Helvetica,sans-Serif" font-size="10.00">_stop</text>
</g>
<!-- Node18 -->
<g id="node17" class="node"><title>Node18</title>
<polygon fill="white" stroke="#bfbfbf" points="589.5,-275.5 589.5,-316.5 708.5,-316.5 708.5,-275.5 589.5,-275.5"/>
<text text-anchor="start" x="597.5" y="-304.5" font-family="Helvetica,sans-Serif" font-size="10.00">std::map&lt; TH1 *, ant</text>
<text text-anchor="start" x="597.5" y="-293.5" font-family="Helvetica,sans-Serif" font-size="10.00">::hstack::options_t::</text>
<text text-anchor="middle" x="649" y="-282.5" font-family="Helvetica,sans-Serif" font-size="10.00">scale_t &gt;</text>
</g>
<!-- Node18&#45;&gt;Node16 -->
<g id="edge20" class="edge"><title>Node18&#45;&gt;Node16</title>
<path fill="none" stroke="#9a32cd" stroke-dasharray="5,2" d="M718.653,-286.7C757.274,-281.469 805.002,-275.004 841.94,-270"/>
<polygon fill="#9a32cd" stroke="#9a32cd" points="717.971,-283.261 708.532,-288.071 718.911,-290.197 717.971,-283.261"/>
<text text-anchor="middle" x="767" y="-289" font-family="Helvetica,sans-Serif" font-size="10.00"> AppliedScale</text>
</g>
<!-- Node19 -->
<g id="node18" class="node"><title>Node19</title>
<g id="a_node18"><a xlink:href="structant_1_1hstack_1_1options__t_1_1scale__t.html" target="_top" xlink:title="ant::hstack::options\l_t::scale_t">
<polygon fill="white" stroke="black" points="309,-312 309,-342 420,-342 420,-312 309,-312"/>
<text text-anchor="start" x="317" y="-330" font-family="Helvetica,sans-Serif" font-size="10.00">ant::hstack::options</text>
<text text-anchor="middle" x="364.5" y="-319" font-family="Helvetica,sans-Serif" font-size="10.00">_t::scale_t</text>
</a>
</g>
</g>
<!-- Node19&#45;&gt;Node18 -->
<g id="edge21" class="edge"><title>Node19&#45;&gt;Node18</title>
<path fill="none" stroke="#9a32cd" stroke-dasharray="5,2" d="M430.27,-319.892C478.234,-314.629 543.042,-307.518 589.456,-302.424"/>
<polygon fill="#9a32cd" stroke="#9a32cd" points="429.862,-316.416 420.304,-320.986 430.626,-323.374 429.862,-316.416"/>
<text text-anchor="middle" x="508" y="-321" font-family="Helvetica,sans-Serif" font-size="10.00"> elements</text>
</g>
<!-- Node20&#45;&gt;Node16 -->
<g id="edge22" class="edge"><title>Node20&#45;&gt;Node16</title>
<path fill="none" stroke="#9a32cd" stroke-dasharray="5,2" d="M720.169,-243.269C758.47,-247.236 805.366,-252.094 841.803,-255.868"/>
<polygon fill="#9a32cd" stroke="#9a32cd" points="720.428,-239.777 710.121,-242.228 719.707,-246.739 720.428,-239.777"/>
<text text-anchor="middle" x="767" y="-255" font-family="Helvetica,sans-Serif" font-size="10.00"> PerHist</text>
</g>
<!-- Node21&#45;&gt;Node20 -->
<g id="edge23" class="edge"><title>Node21&#45;&gt;Node20</title>
<path fill="none" stroke="#9a32cd" stroke-dasharray="5,2" d="M430.467,-231.38C477.902,-232.387 541.733,-233.743 587.973,-234.725"/>
<polygon fill="#9a32cd" stroke="#9a32cd" points="430.376,-227.877 420.304,-231.164 430.227,-234.876 430.376,-227.877"/>
<text text-anchor="middle" x="508" y="-238" font-family="Helvetica,sans-Serif" font-size="10.00"> elements</text>
</g>
<!-- Node22&#45;&gt;Node16 -->
<g id="edge26" class="edge"><title>Node22&#45;&gt;Node16</title>
<path fill="none" stroke="#9a32cd" stroke-dasharray="5,2" d="M721.379,-400.132C750.879,-397.246 783.206,-388.601 805,-367 832.736,-339.511 795.841,-309.059 823,-281 828.234,-275.592 834.731,-271.62 841.725,-268.719"/>
<polygon fill="#9a32cd" stroke="#9a32cd" points="720.786,-396.667 711.084,-400.925 721.324,-403.647 720.786,-396.667"/>
<text text-anchor="middle" x="767" y="-401" font-family="Helvetica,sans-Serif" font-size="10.00"> LegendPosition</text>
</g>
<!-- Node23 -->
<g id="node22" class="node"><title>Node23</title>
<polygon fill="white" stroke="#bfbfbf" points="826,-214.5 826,-233.5 978,-233.5 978,-214.5 826,-214.5"/>
<text text-anchor="middle" x="902" y="-221.5" font-family="Helvetica,sans-Serif" font-size="10.00">std::unique_ptr&lt; TLegend &gt;</text>
</g>
<!-- Node23&#45;&gt;Node10 -->
<g id="edge28" class="edge"><title>Node23&#45;&gt;Node10</title>
<path fill="none" stroke="#9a32cd" stroke-dasharray="5,2" d="M988.185,-217.513C1032.83,-214.113 1085.02,-210.139 1118.39,-207.597"/>
<polygon fill="#9a32cd" stroke="#9a32cd" points="987.902,-214.024 978.197,-218.274 988.433,-221.004 987.902,-214.024"/>
<text text-anchor="middle" x="1034" y="-220" font-family="Helvetica,sans-Serif" font-size="10.00"> intellilegend</text>
</g>
<!-- Node24&#45;&gt;Node10 -->
<g id="edge29" class="edge"><title>Node24&#45;&gt;Node10</title>
<path fill="none" stroke="#9a32cd" stroke-dasharray="5,2" d="M569.888,-446.101C686.75,-463.491 942.128,-481.805 1069,-339 1103.36,-300.325 1052.82,-262.83 1087,-224 1094.9,-215.024 1106.76,-210.173 1118.23,-207.59"/>
<polygon fill="#9a32cd" stroke="#9a32cd" points="570.109,-442.594 559.693,-444.533 569.045,-449.513 570.109,-442.594"/>
<text text-anchor="middle" x="767" y="-460" font-family="Helvetica,sans-Serif" font-size="10.00"> cutnames</text>
</g>
<!-- Node25 -->
<g id="node24" class="node"><title>Node25</title>
<g id="a_node24"><a xlink:href="structant_1_1analysis_1_1utils_1_1_time_smearing_hack.html" target="_top" xlink:title="ant::analysis::utils\l::TimeSmearingHack">
<polygon fill="white" stroke="black" points="1355.5,-65 1355.5,-95 1471.5,-95 1471.5,-65 1355.5,-65"/>
<text text-anchor="start" x="1363.5" y="-83" font-family="Helvetica,sans-Serif" font-size="10.00">ant::analysis::utils</text>
<text text-anchor="middle" x="1413.5" y="-72" font-family="Helvetica,sans-Serif" font-size="10.00">::TimeSmearingHack</text>
</a>
</g>
</g>
<!-- Node25&#45;&gt;Node2 -->
<g id="edge31" class="edge"><title>Node25&#45;&gt;Node2</title>
<path fill="none" stroke="#9a32cd" stroke-dasharray="5,2" d="M1481.36,-96.7153C1509.71,-103.803 1542.51,-112.003 1570.12,-118.905"/>
<polygon fill="#9a32cd" stroke="#9a32cd" points="1482.08,-93.2884 1471.53,-94.2585 1480.39,-100.079 1482.08,-93.2884"/>
<text text-anchor="middle" x="1524" y="-117" font-family="Helvetica,sans-Serif" font-size="10.00"> timesmear</text>
</g>
<!-- Node26 -->
<g id="node25" class="node"><title>Node26</title>
<g id="a_node25"><a xlink:href="structant_1_1analysis_1_1physics_1_1_m_c_reconstruct_check_1_1tree__t.html" target="_top" xlink:title="ant::analysis::physics\l::MCReconstructCheck::\ltree_t">
<polygon fill="white" stroke="black" points="1349,-0.5 1349,-41.5 1478,-41.5 1478,-0.5 1349,-0.5"/>
<text text-anchor="start" x="1357" y="-29.5" font-family="Helvetica,sans-Serif" font-size="10.00">ant::analysis::physics</text>
<text text-anchor="start" x="1357" y="-18.5" font-family="Helvetica,sans-Serif" font-size="10.00">::MCReconstructCheck::</text>
<text text-anchor="middle" x="1413.5" y="-7.5" font-family="Helvetica,sans-Serif" font-size="10.00">tree_t</text>
</a>
</g>
</g>
<!-- Node26&#45;&gt;Node2 -->
<g id="edge32" class="edge"><title>Node26&#45;&gt;Node2</title>
<path fill="none" stroke="#9a32cd" stroke-dasharray="5,2" d="M1470.67,-45.8968C1495.85,-57.4807 1525.73,-71.8141 1552,-86 1570.97,-96.248 1591.77,-109.036 1607.18,-118.835"/>
<polygon fill="#9a32cd" stroke="#9a32cd" points="1471.81,-42.5723 1461.26,-41.5979 1468.9,-48.9386 1471.81,-42.5723"/>
<text text-anchor="middle" x="1524" y="-89" font-family="Helvetica,sans-Serif" font-size="10.00"> t</text>
</g>
<!-- Node27 -->
<g id="node26" class="node"><title>Node27</title>
<g id="a_node26"><a xlink:href="classant_1_1_wrap_t_tree.html" target="_top" xlink:title="The WrapTTree struct simplifies TTree handling in physics classes. ">
<polygon fill="white" stroke="black" points="1110.5,-0.5 1110.5,-19.5 1196.5,-19.5 1196.5,-0.5 1110.5,-0.5"/>
<text text-anchor="middle" x="1153.5" y="-7.5" font-family="Helvetica,sans-Serif" font-size="10.00">ant::WrapTTree</text>
</a>
</g>
</g>
<!-- Node27&#45;&gt;Node26 -->
<g id="edge33" class="edge"><title>Node27&#45;&gt;Node26</title>
<path fill="none" stroke="midnightblue" d="M1206.59,-12.2208C1247.61,-13.97 1304.99,-16.4164 1348.76,-18.2825"/>
<polygon fill="midnightblue" stroke="midnightblue" points="1206.67,-8.72106 1196.53,-11.7918 1206.37,-15.7147 1206.67,-8.72106"/>
</g>
</g>
</svg>
