<?xml version="1.0" encoding="UTF-8" standalone="no"?>
<!DOCTYPE svg PUBLIC "-//W3C//DTD SVG 1.1//EN"
 "http://www.w3.org/Graphics/SVG/1.1/DTD/svg11.dtd">
<!-- Generated by graphviz version 2.38.0 (20140413.2041)
 -->
<!-- Title: ant::WrapTFileInput Pages: 1 -->
<svg width="139pt" height="230pt"
 viewBox="0.00 0.00 139.00 230.00" xmlns="http://www.w3.org/2000/svg" xmlns:xlink="http://www.w3.org/1999/xlink">
<g id="graph0" class="graph" transform="scale(1 1) rotate(0) translate(4 226)">
<title>ant::WrapTFileInput</title>
<polygon fill="white" stroke="none" points="-4,4 -4,-226 135,-226 135,4 -4,4"/>
<!-- Node2 -->
<g id="node1" class="node"><title>Node2</title>
<polygon fill="#bfbfbf" stroke="black" points="12.5,-0.5 12.5,-19.5 118.5,-19.5 118.5,-0.5 12.5,-0.5"/>
<text text-anchor="middle" x="65.5" y="-7.5" font-family="Helvetica,sans-Serif" font-size="10.00">ant::WrapTFileInput</text>
</g>
<!-- Node3 -->
<g id="node2" class="node"><title>Node3</title>
<g id="a_node2"><a xlink:href="classant_1_1_wrap_t_file.html" target="_top" xlink:title="ant::WrapTFile">
<polygon fill="white" stroke="black" points="24.5,-57.5 24.5,-76.5 106.5,-76.5 106.5,-57.5 24.5,-57.5"/>
<text text-anchor="middle" x="65.5" y="-64.5" font-family="Helvetica,sans-Serif" font-size="10.00">ant::WrapTFile</text>
</a>
</g>
</g>
<!-- Node3&#45;&gt;Node2 -->
<g id="edge1" class="edge"><title>Node3&#45;&gt;Node2</title>
<path fill="none" stroke="midnightblue" d="M65.5,-47.1166C65.5,-37.8173 65.5,-27.0557 65.5,-19.7149"/>
<polygon fill="midnightblue" stroke="midnightblue" points="62.0001,-47.4062 65.5,-57.4062 69.0001,-47.4063 62.0001,-47.4062"/>
</g>
<!-- Node4 -->
<g id="node3" class="node"><title>Node4</title>
<polygon fill="white" stroke="#bfbfbf" points="7.5,-124.5 7.5,-154.5 123.5,-154.5 123.5,-124.5 7.5,-124.5"/>
<text text-anchor="start" x="15.5" y="-142.5" font-family="Helvetica,sans-Serif" font-size="10.00">std::list&lt; std::unique</text>
<text text-anchor="middle" x="65.5" y="-131.5" font-family="Helvetica,sans-Serif" font-size="10.00">_ptr&lt; TFile &gt; &gt;</text>
</g>
<!-- Node4&#45;&gt;Node3 -->
<g id="edge2" class="edge"><title>Node4&#45;&gt;Node3</title>
<path fill="none" stroke="#9a32cd" stroke-dasharray="5,2" d="M65.5,-114.091C65.5,-101.214 65.5,-86.1974 65.5,-76.8932"/>
<polygon fill="#9a32cd" stroke="#9a32cd" points="62.0001,-114.233 65.5,-124.233 69.0001,-114.233 62.0001,-114.233"/>
<text text-anchor="middle" x="76.5" y="-98" font-family="Helvetica,sans-Serif" font-size="10.00"> files</text>
</g>
<!-- Node5 -->
<g id="node4" class="node"><title>Node5</title>
<polygon fill="white" stroke="#bfbfbf" points="0,-202.5 0,-221.5 131,-221.5 131,-202.5 0,-202.5"/>
<text text-anchor="middle" x="65.5" y="-209.5" font-family="Helvetica,sans-Serif" font-size="10.00">std::unique_ptr&lt; TFile &gt;</text>
</g>
<!-- Node5&#45;&gt;Node4 -->
<g id="edge3" class="edge"><title>Node5&#45;&gt;Node4</title>
<path fill="none" stroke="#9a32cd" stroke-dasharray="5,2" d="M65.5,-192.236C65.5,-180.408 65.5,-165.383 65.5,-154.576"/>
<polygon fill="#9a32cd" stroke="#9a32cd" points="62.0001,-192.355 65.5,-202.355 69.0001,-192.355 62.0001,-192.355"/>
<text text-anchor="middle" x="90" y="-176" font-family="Helvetica,sans-Serif" font-size="10.00"> elements</text>
</g>
</g>
</svg>
