<?xml version="1.0" encoding="UTF-8" standalone="no"?>
<!DOCTYPE svg PUBLIC "-//W3C//DTD SVG 1.1//EN"
 "http://www.w3.org/Graphics/SVG/1.1/DTD/svg11.dtd">
<!-- Generated by graphviz version 2.38.0 (20140413.2041)
 -->
<!-- Title: ant::analysis::physics::CandidatesAnalysis Pages: 1 -->
<svg width="978pt" height="99pt"
 viewBox="0.00 0.00 978.00 98.50" xmlns="http://www.w3.org/2000/svg" xmlns:xlink="http://www.w3.org/1999/xlink">
<g id="graph0" class="graph" transform="scale(1 1) rotate(0) translate(4 94.5)">
<title>ant::analysis::physics::CandidatesAnalysis</title>
<polygon fill="white" stroke="none" points="-4,4 -4,-94.5 974,-94.5 974,4 -4,4"/>
<!-- Node2 -->
<g id="node1" class="node"><title>Node2</title>
<polygon fill="#bfbfbf" stroke="black" points="852,-34 852,-64 970,-64 970,-34 852,-34"/>
<text text-anchor="start" x="860" y="-52" font-family="Helvetica,sans-Serif" font-size="10.00">ant::analysis::physics</text>
<text text-anchor="middle" x="911" y="-41" font-family="Helvetica,sans-Serif" font-size="10.00">::CandidatesAnalysis</text>
</g>
<!-- Node3 -->
<g id="node2" class="node"><title>Node3</title>
<g id="a_node2"><a xlink:href="classant_1_1analysis_1_1_physics.html" target="_top" xlink:title="ant::analysis::Physics">
<polygon fill="white" stroke="black" points="639,-60.5 639,-79.5 757,-79.5 757,-60.5 639,-60.5"/>
<text text-anchor="middle" x="698" y="-67.5" font-family="Helvetica,sans-Serif" font-size="10.00">ant::analysis::Physics</text>
</a>
</g>
</g>
<!-- Node3&#45;&gt;Node2 -->
<g id="edge1" class="edge"><title>Node3&#45;&gt;Node2</title>
<path fill="none" stroke="midnightblue" d="M767.469,-63.1856C794.754,-60.47 825.823,-57.3778 851.975,-54.775"/>
<polygon fill="midnightblue" stroke="midnightblue" points="766.819,-59.7328 757.215,-64.2061 767.513,-66.6984 766.819,-59.7328"/>
</g>
<!-- Node4 -->
<g id="node3" class="node"><title>Node4</title>
<g id="a_node3"><a xlink:href="classant_1_1analysis_1_1_histogram_factory.html" target="_top" xlink:title="ant::analysis::Histogram\lFactory">
<polygon fill="white" stroke="black" points="376,-60 376,-90 509,-90 509,-60 376,-60"/>
<text text-anchor="start" x="384" y="-78" font-family="Helvetica,sans-Serif" font-size="10.00">ant::analysis::Histogram</text>
<text text-anchor="middle" x="442.5" y="-67" font-family="Helvetica,sans-Serif" font-size="10.00">Factory</text>
</a>
</g>
</g>
<!-- Node4&#45;&gt;Node3 -->
<g id="edge2" class="edge"><title>Node4&#45;&gt;Node3</title>
<path fill="none" stroke="#9a32cd" stroke-dasharray="5,2" d="M519.172,-73.5075C557.408,-72.7533 603.091,-71.8522 638.58,-71.1523"/>
<polygon fill="#9a32cd" stroke="#9a32cd" points="519.041,-70.0093 509.112,-73.7059 519.179,-77.0079 519.041,-70.0093"/>
<text text-anchor="middle" x="577.5" y="-76" font-family="Helvetica,sans-Serif" font-size="10.00"> HistFac</text>
</g>
<!-- Node5 -->
<g id="node4" class="node"><title>Node5</title>
<g id="a_node4"><a xlink:href="structant_1_1analysis_1_1utils_1_1_cluster_tools.html" target="_top" xlink:title="ant::analysis::utils\l::ClusterTools">
<polygon fill="white" stroke="black" points="647,-10 647,-40 749,-40 749,-10 647,-10"/>
<text text-anchor="start" x="655" y="-28" font-family="Helvetica,sans-Serif" font-size="10.00">ant::analysis::utils</text>
<text text-anchor="middle" x="698" y="-17" font-family="Helvetica,sans-Serif" font-size="10.00">::ClusterTools</text>
</a>
</g>
</g>
<!-- Node5&#45;&gt;Node2 -->
<g id="edge3" class="edge"><title>Node5&#45;&gt;Node2</title>
<path fill="none" stroke="#9a32cd" stroke-dasharray="5,2" d="M759.035,-31.8287C788.122,-35.1371 822.91,-39.094 851.756,-42.3751"/>
<polygon fill="#9a32cd" stroke="#9a32cd" points="759.336,-28.3403 749.004,-30.6877 758.544,-35.2955 759.336,-28.3403"/>
<text text-anchor="middle" x="804.5" y="-43" font-family="Helvetica,sans-Serif" font-size="10.00"> clustertools</text>
</g>
<!-- Node6 -->
<g id="node5" class="node"><title>Node6</title>
<polygon fill="white" stroke="#bfbfbf" points="369,-0.5 369,-41.5 516,-41.5 516,-0.5 369,-0.5"/>
<text text-anchor="start" x="377" y="-29.5" font-family="Helvetica,sans-Serif" font-size="10.00">std::map&lt; Detector</text>
<text text-anchor="start" x="377" y="-18.5" font-family="Helvetica,sans-Serif" font-size="10.00">_t::Type_t, ant::analysis</text>
<text text-anchor="middle" x="442.5" y="-7.5" font-family="Helvetica,sans-Serif" font-size="10.00">::utils::ClusterTools::det_t &gt;</text>
</g>
<!-- Node6&#45;&gt;Node5 -->
<g id="edge4" class="edge"><title>Node6&#45;&gt;Node5</title>
<path fill="none" stroke="#9a32cd" stroke-dasharray="5,2" d="M526.369,-22.3076C566.148,-22.9353 612.505,-23.6667 646.853,-24.2087"/>
<polygon fill="#9a32cd" stroke="#9a32cd" points="526.197,-18.8045 516.143,-22.1462 526.086,-25.8037 526.197,-18.8045"/>
<text text-anchor="middle" x="577.5" y="-27" font-family="Helvetica,sans-Serif" font-size="10.00"> cluster_detectors</text>
</g>
<!-- Node7 -->
<g id="node6" class="node"><title>Node7</title>
<g id="a_node6"><a xlink:href="structant_1_1analysis_1_1utils_1_1_cluster_tools_1_1det__t.html" target="_top" xlink:title="ant::analysis::utils\l::ClusterTools::det_t">
<polygon fill="white" stroke="black" points="174,-6 174,-36 284,-36 284,-6 174,-6"/>
<text text-anchor="start" x="182" y="-24" font-family="Helvetica,sans-Serif" font-size="10.00">ant::analysis::utils</text>
<text text-anchor="middle" x="229" y="-13" font-family="Helvetica,sans-Serif" font-size="10.00">::ClusterTools::det_t</text>
</a>
</g>
</g>
<!-- Node7&#45;&gt;Node6 -->
<g id="edge5" class="edge"><title>Node7&#45;&gt;Node6</title>
<path fill="none" stroke="#9a32cd" stroke-dasharray="5,2" d="M294.381,-21C317.852,-21 344.55,-21 368.701,-21"/>
<polygon fill="#9a32cd" stroke="#9a32cd" points="294.192,-17.5001 284.192,-21 294.192,-24.5001 294.192,-17.5001"/>
<text text-anchor="middle" x="326.5" y="-24" font-family="Helvetica,sans-Serif" font-size="10.00"> elements</text>
</g>
<!-- Node8 -->
<g id="node7" class="node"><title>Node8</title>
<polygon fill="white" stroke="#bfbfbf" points="0,-11.5 0,-30.5 122,-30.5 122,-11.5 0,-11.5"/>
<text text-anchor="middle" x="61" y="-18.5" font-family="Helvetica,sans-Serif" font-size="10.00">std::vector&lt; double &gt;</text>
</g>
<!-- Node8&#45;&gt;Node7 -->
<g id="edge6" class="edge"><title>Node8&#45;&gt;Node7</title>
<path fill="none" stroke="#9a32cd" stroke-dasharray="5,2" d="M132.417,-21C146.322,-21 160.71,-21 173.97,-21"/>
<polygon fill="#9a32cd" stroke="#9a32cd" points="132.399,-17.5001 122.399,-21 132.399,-24.5001 132.399,-17.5001"/>
<text text-anchor="middle" x="148" y="-24" font-family="Helvetica,sans-Serif" font-size="10.00"> R0</text>
</g>
</g>
</svg>
