<?xml version="1.0" encoding="UTF-8" standalone="no"?>
<!DOCTYPE svg PUBLIC "-//W3C//DTD SVG 1.1//EN"
 "http://www.w3.org/Graphics/SVG/1.1/DTD/svg11.dtd">
<!-- Generated by graphviz version 2.38.0 (20140413.2041)
 -->
<!-- Title: ant::analysis::utils::SigmaFitter Pages: 1 -->
<svg width="417pt" height="176pt"
 viewBox="0.00 0.00 417.00 175.50" xmlns="http://www.w3.org/2000/svg" xmlns:xlink="http://www.w3.org/1999/xlink">
<g id="graph0" class="graph" transform="scale(1 1) rotate(0) translate(4 171.5)">
<title>ant::analysis::utils::SigmaFitter</title>
<polygon fill="white" stroke="none" points="-4,4 -4,-171.5 413,-171.5 413,4 -4,4"/>
<!-- Node2 -->
<g id="node1" class="node"><title>Node2</title>
<polygon fill="#bfbfbf" stroke="black" points="307,-60 307,-90 409,-90 409,-60 307,-60"/>
<text text-anchor="start" x="315" y="-78" font-family="Helvetica,sans-Serif" font-size="10.00">ant::analysis::utils</text>
<text text-anchor="middle" x="358" y="-67" font-family="Helvetica,sans-Serif" font-size="10.00">::SigmaFitter</text>
</g>
<!-- Node3 -->
<g id="node2" class="node"><title>Node3</title>
<g id="a_node2"><a xlink:href="classant_1_1analysis_1_1utils_1_1_fitter.html" target="_top" xlink:title="ant::analysis::utils\l::Fitter">
<polygon fill="white" stroke="black" points="109.5,-137 109.5,-167 211.5,-167 211.5,-137 109.5,-137"/>
<text text-anchor="start" x="117.5" y="-155" font-family="Helvetica,sans-Serif" font-size="10.00">ant::analysis::utils</text>
<text text-anchor="middle" x="160.5" y="-144" font-family="Helvetica,sans-Serif" font-size="10.00">::Fitter</text>
</a>
</g>
</g>
<!-- Node3&#45;&gt;Node2 -->
<g id="edge1" class="edge"><title>Node3&#45;&gt;Node2</title>
<path fill="none" stroke="midnightblue" d="M215.609,-133.575C238.423,-125.524 265.165,-115.714 289,-106 301.015,-101.103 314.019,-95.302 325.407,-90.0499"/>
<polygon fill="midnightblue" stroke="midnightblue" points="214.371,-130.3 206.092,-136.912 216.687,-136.906 214.371,-130.3"/>
</g>
<!-- Node4 -->
<g id="node3" class="node"><title>Node4</title>
<g id="a_node3"><a xlink:href="structant_1_1analysis_1_1utils_1_1_sigma_fitter_1_1_beam_e__t.html" target="_top" xlink:title="ant::analysis::utils\l::SigmaFitter::BeamE_t">
<polygon fill="white" stroke="black" points="97,-88 97,-118 224,-118 224,-88 97,-88"/>
<text text-anchor="start" x="105" y="-106" font-family="Helvetica,sans-Serif" font-size="10.00">ant::analysis::utils</text>
<text text-anchor="middle" x="160.5" y="-95" font-family="Helvetica,sans-Serif" font-size="10.00">::SigmaFitter::BeamE_t</text>
</a>
</g>
</g>
<!-- Node4&#45;&gt;Node2 -->
<g id="edge2" class="edge"><title>Node4&#45;&gt;Node2</title>
<path fill="none" stroke="#9a32cd" stroke-dasharray="5,2" d="M234.344,-92.5671C258.45,-89.1146 284.72,-85.3521 306.743,-82.198"/>
<polygon fill="#9a32cd" stroke="#9a32cd" points="233.567,-89.1426 224.164,-94.0251 234.559,-96.0719 233.567,-89.1426"/>
<text text-anchor="middle" x="267.5" y="-94" font-family="Helvetica,sans-Serif" font-size="10.00"> BeamE</text>
</g>
<!-- Node5 -->
<g id="node4" class="node"><title>Node5</title>
<polygon fill="white" stroke="#bfbfbf" points="0,-93.5 0,-112.5 56,-112.5 56,-93.5 0,-93.5"/>
<text text-anchor="middle" x="28" y="-100.5" font-family="Helvetica,sans-Serif" font-size="10.00">V_S_P_t</text>
</g>
<!-- Node5&#45;&gt;Node4 -->
<g id="edge3" class="edge"><title>Node5&#45;&gt;Node4</title>
<path fill="none" stroke="midnightblue" d="M66.064,-103C75.7194,-103 86.3942,-103 96.9734,-103"/>
<polygon fill="midnightblue" stroke="midnightblue" points="66.0397,-99.5001 56.0397,-103 66.0396,-106.5 66.0397,-99.5001"/>
</g>
<!-- Node6 -->
<g id="node5" class="node"><title>Node6</title>
<g id="a_node5"><a xlink:href="structant_1_1analysis_1_1utils_1_1_sigma_fitter_1_1_target__t.html" target="_top" xlink:title="ant::analysis::utils\l::SigmaFitter::Target_t">
<polygon fill="white" stroke="black" points="99.5,-39 99.5,-69 221.5,-69 221.5,-39 99.5,-39"/>
<text text-anchor="start" x="107.5" y="-57" font-family="Helvetica,sans-Serif" font-size="10.00">ant::analysis::utils</text>
<text text-anchor="middle" x="160.5" y="-46" font-family="Helvetica,sans-Serif" font-size="10.00">::SigmaFitter::Target_t</text>
</a>
</g>
</g>
<!-- Node6&#45;&gt;Node2 -->
<g id="edge4" class="edge"><title>Node6&#45;&gt;Node2</title>
<path fill="none" stroke="#9a32cd" stroke-dasharray="5,2" d="M231.804,-57.6448C250.435,-58.9705 270.51,-60.7222 289,-63 294.83,-63.7182 300.92,-64.6011 306.956,-65.5593"/>
<polygon fill="#9a32cd" stroke="#9a32cd" points="231.835,-54.1389 221.621,-56.9514 231.36,-61.1227 231.835,-54.1389"/>
<text text-anchor="middle" x="267.5" y="-66" font-family="Helvetica,sans-Serif" font-size="10.00"> Target</text>
</g>
<!-- Node7 -->
<g id="node6" class="node"><title>Node7</title>
<polygon fill="white" stroke="#bfbfbf" points="93,-0.5 93,-19.5 228,-19.5 228,-0.5 93,-0.5"/>
<text text-anchor="middle" x="160.5" y="-7.5" font-family="Helvetica,sans-Serif" font-size="10.00">std::vector&lt; FitParticle &gt;</text>
</g>
<!-- Node7&#45;&gt;Node2 -->
<g id="edge5" class="edge"><title>Node7&#45;&gt;Node2</title>
<path fill="none" stroke="#9a32cd" stroke-dasharray="5,2" d="M214.254,-21.9632C237.455,-27.7614 264.861,-35.3476 289,-44 301.58,-48.5091 315.045,-54.4081 326.646,-59.8486"/>
<polygon fill="#9a32cd" stroke="#9a32cd" points="214.801,-18.4935 204.255,-19.5089 213.132,-25.2918 214.801,-18.4935"/>
<text text-anchor="middle" x="267.5" y="-47" font-family="Helvetica,sans-Serif" font-size="10.00"> Photons</text>
</g>
</g>
</svg>
