<?xml version="1.0" encoding="UTF-8" standalone="no"?>
<!DOCTYPE svg PUBLIC "-//W3C//DTD SVG 1.1//EN"
 "http://www.w3.org/Graphics/SVG/1.1/DTD/svg11.dtd">
<!-- Generated by graphviz version 2.38.0 (20140413.2041)
 -->
<!-- Title: ant::analysis::physics::TAPS_Energy Pages: 1 -->
<svg width="682pt" height="194pt"
 viewBox="0.00 0.00 682.00 193.50" xmlns="http://www.w3.org/2000/svg" xmlns:xlink="http://www.w3.org/1999/xlink">
<g id="graph0" class="graph" transform="scale(1 1) rotate(0) translate(4 189.5)">
<title>ant::analysis::physics::TAPS_Energy</title>
<polygon fill="white" stroke="none" points="-4,4 -4,-189.5 678,-189.5 678,4 -4,4"/>
<!-- Node2 -->
<g id="node1" class="node"><title>Node2</title>
<polygon fill="#bfbfbf" stroke="black" points="556,-93 556,-123 674,-123 674,-93 556,-93"/>
<text text-anchor="start" x="564" y="-111" font-family="Helvetica,sans-Serif" font-size="10.00">ant::analysis::physics</text>
<text text-anchor="middle" x="615" y="-100" font-family="Helvetica,sans-Serif" font-size="10.00">::TAPS_Energy</text>
</g>
<!-- Node3 -->
<g id="node2" class="node"><title>Node3</title>
<g id="a_node2"><a xlink:href="classant_1_1analysis_1_1_physics.html" target="_top" xlink:title="ant::analysis::Physics">
<polygon fill="white" stroke="black" points="319,-151.5 319,-170.5 437,-170.5 437,-151.5 319,-151.5"/>
<text text-anchor="middle" x="378" y="-158.5" font-family="Helvetica,sans-Serif" font-size="10.00">ant::analysis::Physics</text>
</a>
</g>
</g>
<!-- Node3&#45;&gt;Node2 -->
<g id="edge1" class="edge"><title>Node3&#45;&gt;Node2</title>
<path fill="none" stroke="midnightblue" d="M447.43,-151.857C475.686,-147.442 508.635,-141.464 538,-134 549.758,-131.011 562.302,-127.051 573.74,-123.125"/>
<polygon fill="midnightblue" stroke="midnightblue" points="446.604,-148.443 437.247,-153.413 447.661,-155.362 446.604,-148.443"/>
</g>
<!-- Node4 -->
<g id="node3" class="node"><title>Node4</title>
<g id="a_node3"><a xlink:href="classant_1_1analysis_1_1_histogram_factory.html" target="_top" xlink:title="ant::analysis::Histogram\lFactory">
<polygon fill="white" stroke="black" points="92.5,-155 92.5,-185 225.5,-185 225.5,-155 92.5,-155"/>
<text text-anchor="start" x="100.5" y="-173" font-family="Helvetica,sans-Serif" font-size="10.00">ant::analysis::Histogram</text>
<text text-anchor="middle" x="159" y="-162" font-family="Helvetica,sans-Serif" font-size="10.00">Factory</text>
</a>
</g>
</g>
<!-- Node4&#45;&gt;Node3 -->
<g id="edge2" class="edge"><title>Node4&#45;&gt;Node3</title>
<path fill="none" stroke="#9a32cd" stroke-dasharray="5,2" d="M235.965,-166.849C263.187,-165.72 293.42,-164.466 318.89,-163.41"/>
<polygon fill="#9a32cd" stroke="#9a32cd" points="235.542,-163.364 225.696,-167.275 235.833,-170.358 235.542,-163.364"/>
<text text-anchor="middle" x="265.5" y="-169" font-family="Helvetica,sans-Serif" font-size="10.00"> HistFac</text>
</g>
<!-- Node5 -->
<g id="node4" class="node"><title>Node5</title>
<g id="a_node4"><a xlink:href="structant_1_1analysis_1_1physics_1_1_t_a_p_s___energy_1_1tree__data__t.html" target="_top" xlink:title="ant::analysis::physics\l::TAPS_Energy::tree_data_t">
<polygon fill="white" stroke="black" points="305,-93 305,-123 451,-123 451,-93 305,-93"/>
<text text-anchor="start" x="313" y="-111" font-family="Helvetica,sans-Serif" font-size="10.00">ant::analysis::physics</text>
<text text-anchor="middle" x="378" y="-100" font-family="Helvetica,sans-Serif" font-size="10.00">::TAPS_Energy::tree_data_t</text>
</a>
</g>
</g>
<!-- Node5&#45;&gt;Node2 -->
<g id="edge3" class="edge"><title>Node5&#45;&gt;Node2</title>
<path fill="none" stroke="#9a32cd" stroke-dasharray="5,2" d="M461.508,-108C492.632,-108 527.361,-108 555.806,-108"/>
<polygon fill="#9a32cd" stroke="#9a32cd" points="461.105,-104.5 451.105,-108 461.105,-111.5 461.105,-104.5"/>
<text text-anchor="middle" x="503.5" y="-122" font-family="Helvetica,sans-Serif" font-size="10.00"> cands_TAPS</text>
<text text-anchor="middle" x="503.5" y="-111" font-family="Helvetica,sans-Serif" font-size="10.00">cands_CB</text>
</g>
<!-- Node6 -->
<g id="node5" class="node"><title>Node6</title>
<polygon fill="white" stroke="#bfbfbf" points="92,-116.5 92,-135.5 226,-135.5 226,-116.5 92,-116.5"/>
<text text-anchor="middle" x="159" y="-123.5" font-family="Helvetica,sans-Serif" font-size="10.00">std::vector&lt; unsigned &gt;</text>
</g>
<!-- Node6&#45;&gt;Node5 -->
<g id="edge4" class="edge"><title>Node6&#45;&gt;Node5</title>
<path fill="none" stroke="#9a32cd" stroke-dasharray="5,2" d="M236.338,-119.668C258.552,-117.825 282.743,-115.819 304.7,-113.997"/>
<polygon fill="#9a32cd" stroke="#9a32cd" points="235.963,-116.187 226.286,-120.502 236.541,-123.163 235.963,-116.187"/>
<text text-anchor="middle" x="265.5" y="-122" font-family="Helvetica,sans-Serif" font-size="10.00"> Channel</text>
</g>
<!-- Node7 -->
<g id="node6" class="node"><title>Node7</title>
<polygon fill="white" stroke="#bfbfbf" points="98,-38.5 98,-57.5 220,-57.5 220,-38.5 98,-38.5"/>
<text text-anchor="middle" x="159" y="-45.5" font-family="Helvetica,sans-Serif" font-size="10.00">std::vector&lt; double &gt;</text>
</g>
<!-- Node7&#45;&gt;Node5 -->
<g id="edge5" class="edge"><title>Node7&#45;&gt;Node5</title>
<path fill="none" stroke="#9a32cd" stroke-dasharray="5,2" d="M230.093,-47.4061C248.88,-48.7422 268.973,-51.5587 287,-57 290.482,-58.0509 325.597,-78.1948 350.916,-92.8463"/>
<polygon fill="#9a32cd" stroke="#9a32cd" points="230.296,-43.9121 220.109,-46.8225 229.888,-50.9002 230.296,-43.9121"/>
<text text-anchor="middle" x="265.5" y="-104" font-family="Helvetica,sans-Serif" font-size="10.00"> Ek</text>
<text text-anchor="middle" x="265.5" y="-93" font-family="Helvetica,sans-Serif" font-size="10.00">VetoE</text>
<text text-anchor="middle" x="265.5" y="-82" font-family="Helvetica,sans-Serif" font-size="10.00">Theta</text>
<text text-anchor="middle" x="265.5" y="-71" font-family="Helvetica,sans-Serif" font-size="10.00">Time</text>
<text text-anchor="middle" x="265.5" y="-60" font-family="Helvetica,sans-Serif" font-size="10.00">Phi</text>
</g>
<!-- Node8 -->
<g id="node7" class="node"><title>Node8</title>
<g id="a_node7"><a xlink:href="classant_1_1_t_h2_t_a_p_s.html" target="_top" xlink:title="ant::TH2TAPS">
<polygon fill="white" stroke="black" points="337.5,-37.5 337.5,-56.5 418.5,-56.5 418.5,-37.5 337.5,-37.5"/>
<text text-anchor="middle" x="378" y="-44.5" font-family="Helvetica,sans-Serif" font-size="10.00">ant::TH2TAPS</text>
</a>
</g>
</g>
<!-- Node8&#45;&gt;Node2 -->
<g id="edge6" class="edge"><title>Node8&#45;&gt;Node2</title>
<path fill="none" stroke="#9a32cd" stroke-dasharray="5,2" d="M425.853,-59.1619C463.299,-68.8818 515.969,-82.5535 556.061,-92.9605"/>
<polygon fill="#9a32cd" stroke="#9a32cd" points="426.277,-55.6561 415.719,-56.5312 424.519,-62.4315 426.277,-55.6561"/>
<text text-anchor="middle" x="503.5" y="-92" font-family="Helvetica,sans-Serif" font-size="10.00"> h_tapsdisplay</text>
</g>
<!-- Node9 -->
<g id="node8" class="node"><title>Node9</title>
<g id="a_node8"><a xlink:href="classant_1_1_t_h2_crystals.html" target="_top" xlink:title="Base class for A2 Calorimeter display classes. ">
<polygon fill="white" stroke="black" points="111.5,-0.5 111.5,-19.5 206.5,-19.5 206.5,-0.5 111.5,-0.5"/>
<text text-anchor="middle" x="159" y="-7.5" font-family="Helvetica,sans-Serif" font-size="10.00">ant::TH2Crystals</text>
</a>
</g>
</g>
<!-- Node9&#45;&gt;Node8 -->
<g id="edge7" class="edge"><title>Node9&#45;&gt;Node8</title>
<path fill="none" stroke="midnightblue" d="M216.771,-16.5447C238.769,-19.3563 264.122,-22.9344 287,-27 303.547,-29.9405 321.661,-33.8334 337.273,-37.4028"/>
<polygon fill="midnightblue" stroke="midnightblue" points="216.952,-13.0401 206.594,-15.2676 216.081,-19.9856 216.952,-13.0401"/>
</g>
<!-- Node10 -->
<g id="node9" class="node"><title>Node10</title>
<polygon fill="white" stroke="#bfbfbf" points="0,-0.5 0,-19.5 55,-19.5 55,-0.5 0,-0.5"/>
<text text-anchor="middle" x="27.5" y="-7.5" font-family="Helvetica,sans-Serif" font-size="10.00">TH2Poly</text>
</g>
<!-- Node10&#45;&gt;Node9 -->
<g id="edge8" class="edge"><title>Node10&#45;&gt;Node9</title>
<path fill="none" stroke="midnightblue" d="M65.03,-10C79.4134,-10 96.1064,-10 111.345,-10"/>
<polygon fill="midnightblue" stroke="midnightblue" points="65.0188,-6.5001 55.0188,-10 65.0187,-13.5001 65.0188,-6.5001"/>
</g>
</g>
</svg>
