<?xml version="1.0" encoding="UTF-8" standalone="no"?>
<!DOCTYPE svg PUBLIC "-//W3C//DTD SVG 1.1//EN"
 "http://www.w3.org/Graphics/SVG/1.1/DTD/svg11.dtd">
<!-- Generated by graphviz version 2.38.0 (20140413.2041)
 -->
<!-- Title: ant::mc::data::ProductionDataBase Pages: 1 -->
<svg width="146pt" height="173pt"
 viewBox="0.00 0.00 146.00 173.00" xmlns="http://www.w3.org/2000/svg" xmlns:xlink="http://www.w3.org/1999/xlink">
<g id="graph0" class="graph" transform="scale(1 1) rotate(0) translate(4 169)">
<title>ant::mc::data::ProductionDataBase</title>
<polygon fill="white" stroke="none" points="-4,4 -4,-169 142,-169 142,4 -4,4"/>
<!-- Node1 -->
<g id="node1" class="node"><title>Node1</title>
<polygon fill="#bfbfbf" stroke="black" points="0,-0.5 0,-30.5 138,-30.5 138,-0.5 0,-0.5"/>
<text text-anchor="start" x="8" y="-18.5" font-family="Helvetica,sans-Serif" font-size="10.00">ant::mc::data::Production</text>
<text text-anchor="middle" x="69" y="-7.5" font-family="Helvetica,sans-Serif" font-size="10.00">DataBase</text>
</g>
<!-- Node2 -->
<g id="node2" class="node"><title>Node2</title>
<g id="a_node2"><a xlink:title="STL class. ">
<polygon fill="white" stroke="#bfbfbf" points="19.5,-78.5 19.5,-97.5 118.5,-97.5 118.5,-78.5 19.5,-78.5"/>
<text text-anchor="middle" x="69" y="-85.5" font-family="Helvetica,sans-Serif" font-size="10.00">std::map&lt; K, T &gt;</text>
</a>
</g>
</g>
<!-- Node2&#45;&gt;Node1 -->
<g id="edge1" class="edge"><title>Node2&#45;&gt;Node1</title>
<path fill="none" stroke="#9a32cd" stroke-dasharray="5,2" d="M69,-68.2362C69,-56.4079 69,-41.3829 69,-30.5762"/>
<polygon fill="#9a32cd" stroke="#9a32cd" points="65.5001,-68.3553 69,-78.3553 72.5001,-68.3554 65.5001,-68.3553"/>
<text text-anchor="middle" x="94.5" y="-52" font-family="Helvetica,sans-Serif" font-size="10.00"> XSections</text>
</g>
<!-- Node3 -->
<g id="node3" class="node"><title>Node3</title>
<polygon fill="white" stroke="#bfbfbf" points="30.5,-145.5 30.5,-164.5 59.5,-164.5 59.5,-145.5 30.5,-145.5"/>
<text text-anchor="middle" x="45" y="-152.5" font-family="Helvetica,sans-Serif" font-size="10.00">K</text>
</g>
<!-- Node3&#45;&gt;Node2 -->
<g id="edge2" class="edge"><title>Node3&#45;&gt;Node2</title>
<path fill="none" stroke="#9a32cd" stroke-dasharray="5,2" d="M43.027,-135.005C43.0219,-128.774 43.7271,-121.931 46,-116 48.6441,-109.1 53.863,-102.736 58.662,-97.9219"/>
<polygon fill="#9a32cd" stroke="#9a32cd" points="39.5466,-135.448 43.6178,-145.229 46.535,-135.044 39.5466,-135.448"/>
<text text-anchor="middle" x="58.5" y="-119" font-family="Helvetica,sans-Serif" font-size="10.00"> keys</text>
</g>
<!-- Node4 -->
<g id="node4" class="node"><title>Node4</title>
<polygon fill="white" stroke="#bfbfbf" points="78.5,-145.5 78.5,-164.5 107.5,-164.5 107.5,-145.5 78.5,-145.5"/>
<text text-anchor="middle" x="93" y="-152.5" font-family="Helvetica,sans-Serif" font-size="10.00">T</text>
</g>
<!-- Node4&#45;&gt;Node2 -->
<g id="edge3" class="edge"><title>Node4&#45;&gt;Node2</title>
<path fill="none" stroke="#9a32cd" stroke-dasharray="5,2" d="M86.2763,-135.79C81.6674,-123.308 75.7619,-107.314 72.1855,-97.6273"/>
<polygon fill="#9a32cd" stroke="#9a32cd" points="83.0161,-137.065 89.7633,-145.234 89.5828,-134.641 83.0161,-137.065"/>
<text text-anchor="middle" x="106.5" y="-119" font-family="Helvetica,sans-Serif" font-size="10.00"> elements</text>
</g>
</g>
</svg>
