<?xml version="1.0" encoding="UTF-8" standalone="no"?>
<!DOCTYPE svg PUBLIC "-//W3C//DTD SVG 1.1//EN"
 "http://www.w3.org/Graphics/SVG/1.1/DTD/svg11.dtd">
<!-- Generated by graphviz version 2.38.0 (20140413.2041)
 -->
<!-- Title: ant::analysis::physics::scratch_lheijken_gppi0p Pages: 1 -->
<svg width="895pt" height="192pt"
 viewBox="0.00 0.00 895.00 191.50" xmlns="http://www.w3.org/2000/svg" xmlns:xlink="http://www.w3.org/1999/xlink">
<g id="graph0" class="graph" transform="scale(1 1) rotate(0) translate(4 187.5)">
<title>ant::analysis::physics::scratch_lheijken_gppi0p</title>
<polygon fill="white" stroke="none" points="-4,4 -4,-187.5 891,-187.5 891,4 -4,4"/>
<!-- Node2 -->
<g id="node1" class="node"><title>Node2</title>
<polygon fill="#bfbfbf" stroke="black" points="750,-88 750,-118 887,-118 887,-88 750,-88"/>
<text text-anchor="start" x="758" y="-106" font-family="Helvetica,sans-Serif" font-size="10.00">ant::analysis::physics</text>
<text text-anchor="middle" x="818.5" y="-95" font-family="Helvetica,sans-Serif" font-size="10.00">::scratch_lheijken_gppi0p</text>
</g>
<!-- Node3 -->
<g id="node2" class="node"><title>Node3</title>
<g id="a_node2"><a xlink:href="classant_1_1analysis_1_1_physics.html" target="_top" xlink:title="ant::analysis::Physics">
<polygon fill="white" stroke="black" points="500,-158.5 500,-177.5 618,-177.5 618,-158.5 500,-158.5"/>
<text text-anchor="middle" x="559" y="-165.5" font-family="Helvetica,sans-Serif" font-size="10.00">ant::analysis::Physics</text>
</a>
</g>
</g>
<!-- Node3&#45;&gt;Node2 -->
<g id="edge1" class="edge"><title>Node3&#45;&gt;Node2</title>
<path fill="none" stroke="midnightblue" d="M618.528,-156.41C651.944,-149.459 694.521,-140.037 732,-130 745.232,-126.456 759.47,-122.159 772.459,-118.044"/>
<polygon fill="midnightblue" stroke="midnightblue" points="617.554,-153.037 608.468,-158.486 618.969,-159.893 617.554,-153.037"/>
</g>
<!-- Node4 -->
<g id="node3" class="node"><title>Node4</title>
<g id="a_node3"><a xlink:href="classant_1_1analysis_1_1_histogram_factory.html" target="_top" xlink:title="ant::analysis::Histogram\lFactory">
<polygon fill="white" stroke="black" points="265,-153 265,-183 398,-183 398,-153 265,-153"/>
<text text-anchor="start" x="273" y="-171" font-family="Helvetica,sans-Serif" font-size="10.00">ant::analysis::Histogram</text>
<text text-anchor="middle" x="331.5" y="-160" font-family="Helvetica,sans-Serif" font-size="10.00">Factory</text>
</a>
</g>
</g>
<!-- Node4&#45;&gt;Node3 -->
<g id="edge2" class="edge"><title>Node4&#45;&gt;Node3</title>
<path fill="none" stroke="#9a32cd" stroke-dasharray="5,2" d="M408.033,-168C438.029,-168 471.983,-168 499.988,-168"/>
<polygon fill="#9a32cd" stroke="#9a32cd" points="408.027,-164.5 398.027,-168 408.027,-171.5 408.027,-164.5"/>
<text text-anchor="middle" x="439" y="-171" font-family="Helvetica,sans-Serif" font-size="10.00"> HistFac</text>
</g>
<!-- Node5 -->
<g id="node4" class="node"><title>Node5</title>
<g id="a_node4"><a xlink:href="classant_1_1analysis_1_1utils_1_1_trigger_simulation.html" target="_top" xlink:title="ant::analysis::utils\l::TriggerSimulation">
<polygon fill="white" stroke="black" points="506.5,-109 506.5,-139 611.5,-139 611.5,-109 506.5,-109"/>
<text text-anchor="start" x="514.5" y="-127" font-family="Helvetica,sans-Serif" font-size="10.00">ant::analysis::utils</text>
<text text-anchor="middle" x="559" y="-116" font-family="Helvetica,sans-Serif" font-size="10.00">::TriggerSimulation</text>
</a>
</g>
</g>
<!-- Node5&#45;&gt;Node2 -->
<g id="edge3" class="edge"><title>Node5&#45;&gt;Node2</title>
<path fill="none" stroke="#9a32cd" stroke-dasharray="5,2" d="M621.853,-118.956C660.402,-115.812 710.029,-111.765 749.654,-108.533"/>
<polygon fill="#9a32cd" stroke="#9a32cd" points="621.482,-115.474 611.799,-119.776 622.051,-122.451 621.482,-115.474"/>
<text text-anchor="middle" x="694" y="-118" font-family="Helvetica,sans-Serif" font-size="10.00"> triggersimu</text>
</g>
<!-- Node6 -->
<g id="node5" class="node"><title>Node6</title>
<g id="a_node5"><a xlink:href="classant_1_1analysis_1_1_prompt_random_1_1_switch.html" target="_top" xlink:title="ant::analysis::PromptRandom\l::Switch">
<polygon fill="white" stroke="black" points="480,-60 480,-90 638,-90 638,-60 480,-60"/>
<text text-anchor="start" x="488" y="-78" font-family="Helvetica,sans-Serif" font-size="10.00">ant::analysis::PromptRandom</text>
<text text-anchor="middle" x="559" y="-67" font-family="Helvetica,sans-Serif" font-size="10.00">::Switch</text>
</a>
</g>
</g>
<!-- Node6&#45;&gt;Node2 -->
<g id="edge4" class="edge"><title>Node6&#45;&gt;Node2</title>
<path fill="none" stroke="#9a32cd" stroke-dasharray="5,2" d="M648.444,-84.6172C681.552,-88.2173 718.615,-92.2475 749.582,-95.6147"/>
<polygon fill="#9a32cd" stroke="#9a32cd" points="648.627,-81.1166 638.307,-83.515 647.87,-88.0755 648.627,-81.1166"/>
<text text-anchor="middle" x="694" y="-97" font-family="Helvetica,sans-Serif" font-size="10.00"> promptrandom</text>
</g>
<!-- Node7 -->
<g id="node6" class="node"><title>Node7</title>
<g id="a_node6"><a xlink:href="classant_1_1_piecewise_interval.html" target="_top" xlink:title="ant::PiecewiseInterval\l\&lt; double \&gt;">
<polygon fill="white" stroke="black" points="272,-60 272,-90 391,-90 391,-60 272,-60"/>
<text text-anchor="start" x="280" y="-78" font-family="Helvetica,sans-Serif" font-size="10.00">ant::PiecewiseInterval</text>
<text text-anchor="middle" x="331.5" y="-67" font-family="Helvetica,sans-Serif" font-size="10.00">&lt; double &gt;</text>
</a>
</g>
</g>
<!-- Node7&#45;&gt;Node6 -->
<g id="edge5" class="edge"><title>Node7&#45;&gt;Node6</title>
<path fill="none" stroke="#9a32cd" stroke-dasharray="5,2" d="M401.195,-75C425.979,-75 454.133,-75 479.679,-75"/>
<polygon fill="#9a32cd" stroke="#9a32cd" points="401.159,-71.5001 391.159,-75 401.159,-78.5001 401.159,-71.5001"/>
<text text-anchor="middle" x="439" y="-89" font-family="Helvetica,sans-Serif" font-size="10.00"> promptw</text>
<text text-anchor="middle" x="439" y="-78" font-family="Helvetica,sans-Serif" font-size="10.00">randomw</text>
</g>
<!-- Node8 -->
<g id="node7" class="node"><title>Node8</title>
<g id="a_node7"><a xlink:title="STL class. ">
<polygon fill="white" stroke="#bfbfbf" points="114,-60 114,-90 228,-90 228,-60 114,-60"/>
<text text-anchor="start" x="122" y="-78" font-family="Helvetica,sans-Serif" font-size="10.00">std::vector&lt; interval</text>
<text text-anchor="middle" x="171" y="-67" font-family="Helvetica,sans-Serif" font-size="10.00">&lt; double &gt; &gt;</text>
</a>
</g>
</g>
<!-- Node8&#45;&gt;Node7 -->
<g id="edge6" class="edge"><title>Node8&#45;&gt;Node7</title>
<path fill="none" stroke="midnightblue" d="M238.425,-75C249.554,-75 261.03,-75 271.943,-75"/>
<polygon fill="midnightblue" stroke="midnightblue" points="238.327,-71.5001 228.327,-75 238.327,-78.5001 238.327,-71.5001"/>
</g>
<!-- Node9 -->
<g id="node8" class="node"><title>Node9</title>
<polygon fill="white" stroke="#bfbfbf" points="0,-65.5 0,-84.5 29,-84.5 29,-65.5 0,-65.5"/>
<text text-anchor="middle" x="14.5" y="-72.5" font-family="Helvetica,sans-Serif" font-size="10.00">T</text>
</g>
<!-- Node9&#45;&gt;Node8 -->
<g id="edge7" class="edge"><title>Node9&#45;&gt;Node8</title>
<path fill="none" stroke="#9a32cd" stroke-dasharray="5,2" d="M39.4618,-75C59.2697,-75 88.1942,-75 113.785,-75"/>
<polygon fill="#9a32cd" stroke="#9a32cd" points="39.2109,-71.5001 29.2108,-75 39.2108,-78.5001 39.2109,-71.5001"/>
<text text-anchor="middle" x="71.5" y="-78" font-family="Helvetica,sans-Serif" font-size="10.00"> elements</text>
</g>
<!-- Node10 -->
<g id="node9" class="node"><title>Node10</title>
<g id="a_node9"><a xlink:href="structant_1_1analysis_1_1physics_1_1scratch__lheijken__gppi0p_1_1_analys_tree__t.html" target="_top" xlink:title="ant::analysis::physics\l::scratch_lheijken_gppi0p\l::AnalysTree_t">
<polygon fill="white" stroke="black" points="490.5,-0.5 490.5,-41.5 627.5,-41.5 627.5,-0.5 490.5,-0.5"/>
<text text-anchor="start" x="498.5" y="-29.5" font-family="Helvetica,sans-Serif" font-size="10.00">ant::analysis::physics</text>
<text text-anchor="start" x="498.5" y="-18.5" font-family="Helvetica,sans-Serif" font-size="10.00">::scratch_lheijken_gppi0p</text>
<text text-anchor="middle" x="559" y="-7.5" font-family="Helvetica,sans-Serif" font-size="10.00">::AnalysTree_t</text>
</a>
</g>
</g>
<!-- Node10&#45;&gt;Node2 -->
<g id="edge8" class="edge"><title>Node10&#45;&gt;Node2</title>
<path fill="none" stroke="#9a32cd" stroke-dasharray="5,2" d="M637.639,-42.2289C667.315,-50.6934 701.374,-60.8333 732,-71 747.493,-76.1432 764.36,-82.3279 778.987,-87.8835"/>
<polygon fill="#9a32cd" stroke="#9a32cd" points="638.33,-38.7868 627.754,-39.425 636.42,-45.5211 638.33,-38.7868"/>
<text text-anchor="middle" x="694" y="-74" font-family="Helvetica,sans-Serif" font-size="10.00"> AnalysTree</text>
</g>
<!-- Node11 -->
<g id="node10" class="node"><title>Node11</title>
<g id="a_node10"><a xlink:href="classant_1_1_wrap_t_tree.html" target="_top" xlink:title="The WrapTTree struct simplifies TTree handling in physics classes. ">
<polygon fill="white" stroke="black" points="288.5,-11.5 288.5,-30.5 374.5,-30.5 374.5,-11.5 288.5,-11.5"/>
<text text-anchor="middle" x="331.5" y="-18.5" font-family="Helvetica,sans-Serif" font-size="10.00">ant::WrapTTree</text>
</a>
</g>
</g>
<!-- Node11&#45;&gt;Node10 -->
<g id="edge9" class="edge"><title>Node11&#45;&gt;Node10</title>
<path fill="none" stroke="midnightblue" d="M384.938,-21C416.338,-21 456.582,-21 490.359,-21"/>
<polygon fill="midnightblue" stroke="midnightblue" points="384.65,-17.5001 374.65,-21 384.65,-24.5001 384.65,-17.5001"/>
</g>
</g>
</svg>
