<?xml version="1.0" encoding="UTF-8" standalone="no"?>
<!DOCTYPE svg PUBLIC "-//W3C//DTD SVG 1.1//EN"
 "http://www.w3.org/Graphics/SVG/1.1/DTD/svg11.dtd">
<!-- Generated by graphviz version 2.38.0 (20140413.2041)
 -->
<!-- Title: ant::analysis::physics::Time Pages: 1 -->
<svg width="434pt" height="284pt"
 viewBox="0.00 0.00 434.00 284.00" xmlns="http://www.w3.org/2000/svg" xmlns:xlink="http://www.w3.org/1999/xlink">
<g id="graph0" class="graph" transform="scale(1 1) rotate(0) translate(4 280)">
<title>ant::analysis::physics::Time</title>
<polygon fill="white" stroke="none" points="-4,4 -4,-280 430,-280 430,4 -4,4"/>
<!-- Node0 -->
<g id="node1" class="node"><title>Node0</title>
<polygon fill="#bfbfbf" stroke="black" points="154,-122.5 154,-152.5 272,-152.5 272,-122.5 154,-122.5"/>
<text text-anchor="start" x="162" y="-140.5" font-family="Helvetica,sans-Serif" font-size="10.00">ant::analysis::physics</text>
<text text-anchor="middle" x="213" y="-129.5" font-family="Helvetica,sans-Serif" font-size="10.00">::Time</text>
</g>
<!-- Node2 -->
<g id="node3" class="node"><title>Node2</title>
<g id="a_node3"><a xlink:href="structant_1_1analysis_1_1physics_1_1_c_b___time.html" target="_top" xlink:title="ant::analysis::physics\l::CB_Time">
<polygon fill="white" stroke="black" points="308,-245.5 308,-275.5 426,-275.5 426,-245.5 308,-245.5"/>
<text text-anchor="start" x="316" y="-263.5" font-family="Helvetica,sans-Serif" font-size="10.00">ant::analysis::physics</text>
<text text-anchor="middle" x="367" y="-252.5" font-family="Helvetica,sans-Serif" font-size="10.00">::CB_Time</text>
</a>
</g>
</g>
<!-- Node0&#45;&gt;Node2 -->
<g id="edge2" class="edge"><title>Node0&#45;&gt;Node2</title>
<path fill="none" stroke="midnightblue" d="M231.492,-160.955C248.871,-182.913 277.3,-215.415 308,-236.5 312.851,-239.832 318.236,-242.825 323.714,-245.476"/>
<polygon fill="midnightblue" stroke="midnightblue" points="234.074,-158.572 225.177,-152.819 228.544,-162.865 234.074,-158.572"/>
</g>
<!-- Node3 -->
<g id="node4" class="node"><title>Node3</title>
<g id="a_node4"><a xlink:href="structant_1_1analysis_1_1physics_1_1_e_p_t___time.html" target="_top" xlink:title="ant::analysis::physics\l::EPT_Time">
<polygon fill="white" stroke="black" points="308,-196.5 308,-226.5 426,-226.5 426,-196.5 308,-196.5"/>
<text text-anchor="start" x="316" y="-214.5" font-family="Helvetica,sans-Serif" font-size="10.00">ant::analysis::physics</text>
<text text-anchor="middle" x="367" y="-203.5" font-family="Helvetica,sans-Serif" font-size="10.00">::EPT_Time</text>
</a>
</g>
</g>
<!-- Node0&#45;&gt;Node3 -->
<g id="edge3" class="edge"><title>Node0&#45;&gt;Node3</title>
<path fill="none" stroke="midnightblue" d="M249.994,-157.694C267.328,-167.148 288.533,-178.321 308,-187.5 314.407,-190.521 321.299,-193.555 328.018,-196.401"/>
<polygon fill="midnightblue" stroke="midnightblue" points="251.247,-154.389 240.797,-152.642 247.877,-160.525 251.247,-154.389"/>
</g>
<!-- Node4 -->
<g id="node5" class="node"><title>Node4</title>
<g id="a_node5"><a xlink:href="structant_1_1analysis_1_1physics_1_1_p_i_d___time.html" target="_top" xlink:title="ant::analysis::physics\l::PID_Time">
<polygon fill="white" stroke="black" points="308,-147.5 308,-177.5 426,-177.5 426,-147.5 308,-147.5"/>
<text text-anchor="start" x="316" y="-165.5" font-family="Helvetica,sans-Serif" font-size="10.00">ant::analysis::physics</text>
<text text-anchor="middle" x="367" y="-154.5" font-family="Helvetica,sans-Serif" font-size="10.00">::PID_Time</text>
</a>
</g>
</g>
<!-- Node0&#45;&gt;Node4 -->
<g id="edge4" class="edge"><title>Node0&#45;&gt;Node4</title>
<path fill="none" stroke="midnightblue" d="M282.264,-148.728C290.798,-150.131 299.463,-151.556 307.824,-152.932"/>
<polygon fill="midnightblue" stroke="midnightblue" points="282.768,-145.264 272.332,-147.094 281.632,-152.171 282.768,-145.264"/>
</g>
<!-- Node5 -->
<g id="node6" class="node"><title>Node5</title>
<g id="a_node6"><a xlink:href="structant_1_1analysis_1_1physics_1_1_tagger___time.html" target="_top" xlink:title="ant::analysis::physics\l::Tagger_Time">
<polygon fill="white" stroke="black" points="308,-98.5 308,-128.5 426,-128.5 426,-98.5 308,-98.5"/>
<text text-anchor="start" x="316" y="-116.5" font-family="Helvetica,sans-Serif" font-size="10.00">ant::analysis::physics</text>
<text text-anchor="middle" x="367" y="-105.5" font-family="Helvetica,sans-Serif" font-size="10.00">::Tagger_Time</text>
</a>
</g>
</g>
<!-- Node0&#45;&gt;Node5 -->
<g id="edge5" class="edge"><title>Node0&#45;&gt;Node5</title>
<path fill="none" stroke="midnightblue" d="M282.264,-126.721C290.798,-125.374 299.463,-124.006 307.824,-122.686"/>
<polygon fill="midnightblue" stroke="midnightblue" points="281.664,-123.273 272.332,-128.29 282.756,-130.187 281.664,-123.273"/>
</g>
<!-- Node6 -->
<g id="node7" class="node"><title>Node6</title>
<g id="a_node7"><a xlink:href="structant_1_1analysis_1_1physics_1_1_t_a_p_s___time.html" target="_top" xlink:title="ant::analysis::physics\l::TAPS_Time">
<polygon fill="white" stroke="black" points="308,-49.5 308,-79.5 426,-79.5 426,-49.5 308,-49.5"/>
<text text-anchor="start" x="316" y="-67.5" font-family="Helvetica,sans-Serif" font-size="10.00">ant::analysis::physics</text>
<text text-anchor="middle" x="367" y="-56.5" font-family="Helvetica,sans-Serif" font-size="10.00">::TAPS_Time</text>
</a>
</g>
</g>
<!-- Node0&#45;&gt;Node6 -->
<g id="edge6" class="edge"><title>Node0&#45;&gt;Node6</title>
<path fill="none" stroke="midnightblue" d="M250.413,-117.564C267.687,-108.354 288.721,-97.4925 308,-88.5 314.518,-85.4597 321.53,-82.3919 328.349,-79.5128"/>
<polygon fill="midnightblue" stroke="midnightblue" points="248.395,-114.675 241.239,-122.488 251.705,-120.843 248.395,-114.675"/>
</g>
<!-- Node7 -->
<g id="node8" class="node"><title>Node7</title>
<g id="a_node8"><a xlink:href="structant_1_1analysis_1_1physics_1_1_t_a_p_s_veto___time.html" target="_top" xlink:title="ant::analysis::physics\l::TAPSVeto_Time">
<polygon fill="white" stroke="black" points="308,-0.5 308,-30.5 426,-30.5 426,-0.5 308,-0.5"/>
<text text-anchor="start" x="316" y="-18.5" font-family="Helvetica,sans-Serif" font-size="10.00">ant::analysis::physics</text>
<text text-anchor="middle" x="367" y="-7.5" font-family="Helvetica,sans-Serif" font-size="10.00">::TAPSVeto_Time</text>
</a>
</g>
</g>
<!-- Node0&#45;&gt;Node7 -->
<g id="edge7" class="edge"><title>Node0&#45;&gt;Node7</title>
<path fill="none" stroke="midnightblue" d="M231.541,-114.293C248.956,-92.5641 277.409,-60.3961 308,-39.5 312.859,-36.1808 318.249,-33.194 323.73,-30.547"/>
<polygon fill="midnightblue" stroke="midnightblue" points="228.641,-112.319 225.211,-122.343 234.144,-116.646 228.641,-112.319"/>
</g>
<!-- Node1 -->
<g id="node2" class="node"><title>Node1</title>
<g id="a_node2"><a xlink:href="classant_1_1analysis_1_1_physics.html" target="_top" xlink:title="ant::analysis::Physics">
<polygon fill="white" stroke="black" points="0,-128 0,-147 118,-147 118,-128 0,-128"/>
<text text-anchor="middle" x="59" y="-135" font-family="Helvetica,sans-Serif" font-size="10.00">ant::analysis::Physics</text>
</a>
</g>
</g>
<!-- Node1&#45;&gt;Node0 -->
<g id="edge1" class="edge"><title>Node1&#45;&gt;Node0</title>
<path fill="none" stroke="midnightblue" d="M128.542,-137.5C136.986,-137.5 145.554,-137.5 153.824,-137.5"/>
<polygon fill="midnightblue" stroke="midnightblue" points="128.332,-134 118.332,-137.5 128.332,-141 128.332,-134"/>
</g>
</g>
</svg>
