<?xml version="1.0" encoding="UTF-8" standalone="no"?>
<!DOCTYPE svg PUBLIC "-//W3C//DTD SVG 1.1//EN"
 "http://www.w3.org/Graphics/SVG/1.1/DTD/svg11.dtd">
<!-- Generated by graphviz version 2.38.0 (20140413.2041)
 -->
<!-- Title: ant::AxisSettings Pages: 1 -->
<svg width="258pt" height="163pt"
 viewBox="0.00 0.00 257.50 163.00" xmlns="http://www.w3.org/2000/svg" xmlns:xlink="http://www.w3.org/1999/xlink">
<g id="graph0" class="graph" transform="scale(1 1) rotate(0) translate(4 159)">
<title>ant::AxisSettings</title>
<polygon fill="white" stroke="none" points="-4,4 -4,-159 253.5,-159 253.5,4 -4,4"/>
<!-- Node3 -->
<g id="node1" class="node"><title>Node3</title>
<polygon fill="#bfbfbf" stroke="black" points="92,-0.5 92,-19.5 190,-19.5 190,-0.5 92,-0.5"/>
<text text-anchor="middle" x="141" y="-7.5" font-family="Helvetica,sans-Serif" font-size="10.00">ant::AxisSettings</text>
</g>
<!-- Node4 -->
<g id="node2" class="node"><title>Node4</title>
<g id="a_node2"><a xlink:href="classant_1_1_bin_settings.html" target="_top" xlink:title="ant::BinSettings">
<polygon fill="white" stroke="black" points="27.5,-67.5 27.5,-86.5 120.5,-86.5 120.5,-67.5 27.5,-67.5"/>
<text text-anchor="middle" x="74" y="-74.5" font-family="Helvetica,sans-Serif" font-size="10.00">ant::BinSettings</text>
</a>
</g>
</g>
<!-- Node4&#45;&gt;Node3 -->
<g id="edge1" class="edge"><title>Node4&#45;&gt;Node3</title>
<path fill="none" stroke="midnightblue" d="M90.4956,-59.9968C103.635,-47.2496 121.524,-29.8947 132.107,-19.6273"/>
<polygon fill="midnightblue" stroke="midnightblue" points="87.7762,-57.7586 83.0359,-67.2338 92.6504,-62.7827 87.7762,-57.7586"/>
</g>
<!-- Node5 -->
<g id="node3" class="node"><title>Node5</title>
<g id="a_node3"><a xlink:href="classant_1_1interval.html" target="_top" xlink:title="ant::interval\&lt; double \&gt;">
<polygon fill="white" stroke="black" points="0,-130 0,-149 128,-149 128,-130 0,-130"/>
<text text-anchor="middle" x="64" y="-137" font-family="Helvetica,sans-Serif" font-size="10.00">ant::interval&lt; double &gt;</text>
</a>
</g>
</g>
<!-- Node5&#45;&gt;Node4 -->
<g id="edge2" class="edge"><title>Node5&#45;&gt;Node4</title>
<path fill="none" stroke="midnightblue" d="M67.0828,-119.849C68.9122,-108.781 71.1452,-95.2718 72.5699,-86.6521"/>
<polygon fill="midnightblue" stroke="midnightblue" points="63.6105,-119.395 65.4328,-129.832 70.5168,-120.536 63.6105,-119.395"/>
</g>
<!-- Node6 -->
<g id="node4" class="node"><title>Node6</title>
<g id="a_node4"><a xlink:title="STL class. ">
<polygon fill="white" stroke="#bfbfbf" points="156.5,-67.5 156.5,-86.5 221.5,-86.5 221.5,-67.5 156.5,-67.5"/>
<text text-anchor="middle" x="189" y="-74.5" font-family="Helvetica,sans-Serif" font-size="10.00">std::string</text>
</a>
</g>
</g>
<!-- Node6&#45;&gt;Node3 -->
<g id="edge3" class="edge"><title>Node6&#45;&gt;Node3</title>
<path fill="none" stroke="#9a32cd" stroke-dasharray="5,2" d="M176.375,-58.9037C167.048,-46.2729 154.738,-29.6041 147.371,-19.6273"/>
<polygon fill="#9a32cd" stroke="#9a32cd" points="173.771,-61.2686 182.527,-67.2338 179.402,-57.1103 173.771,-61.2686"/>
<text text-anchor="middle" x="181" y="-41" font-family="Helvetica,sans-Serif" font-size="10.00"> label</text>
</g>
<!-- Node7 -->
<g id="node5" class="node"><title>Node7</title>
<g id="a_node5"><a xlink:title="STL class. ">
<polygon fill="white" stroke="#bfbfbf" points="146.5,-124.5 146.5,-154.5 249.5,-154.5 249.5,-124.5 146.5,-124.5"/>
<text text-anchor="start" x="154.5" y="-142.5" font-family="Helvetica,sans-Serif" font-size="10.00">std::basic_string&lt;</text>
<text text-anchor="middle" x="198" y="-131.5" font-family="Helvetica,sans-Serif" font-size="10.00"> char &gt;</text>
</a>
</g>
</g>
<!-- Node7&#45;&gt;Node6 -->
<g id="edge4" class="edge"><title>Node7&#45;&gt;Node6</title>
<path fill="none" stroke="midnightblue" d="M194.408,-114.352C192.944,-104.513 191.347,-93.7753 190.27,-86.5399"/>
<polygon fill="midnightblue" stroke="midnightblue" points="190.979,-115.092 195.913,-124.468 197.903,-114.062 190.979,-115.092"/>
</g>
</g>
</svg>
