<?xml version="1.0" encoding="UTF-8" standalone="no"?>
<!DOCTYPE svg PUBLIC "-//W3C//DTD SVG 1.1//EN"
 "http://www.w3.org/Graphics/SVG/1.1/DTD/svg11.dtd">
<!-- Generated by graphviz version 2.38.0 (20140413.2041)
 -->
<!-- Title: ant::calibration::Time::TheGUI Pages: 1 -->
<svg width="1531pt" height="318pt"
 viewBox="0.00 0.00 1531.00 317.50" xmlns="http://www.w3.org/2000/svg" xmlns:xlink="http://www.w3.org/1999/xlink">
<g id="graph0" class="graph" transform="scale(1 1) rotate(0) translate(4 313.5)">
<title>ant::calibration::Time::TheGUI</title>
<polygon fill="white" stroke="none" points="-4,4 -4,-313.5 1527,-313.5 1527,4 -4,4"/>
<!-- Node2 -->
<g id="node1" class="node"><title>Node2</title>
<polygon fill="#bfbfbf" stroke="black" points="1406,-85.5 1406,-115.5 1523,-115.5 1523,-85.5 1406,-85.5"/>
<text text-anchor="start" x="1414" y="-103.5" font-family="Helvetica,sans-Serif" font-size="10.00">ant::calibration::Time</text>
<text text-anchor="middle" x="1464.5" y="-92.5" font-family="Helvetica,sans-Serif" font-size="10.00">::TheGUI</text>
</g>
<!-- Node3 -->
<g id="node2" class="node"><title>Node3</title>
<g id="a_node2"><a xlink:href="classant_1_1calibration_1_1gui_1_1_calib_module__traits.html" target="_top" xlink:title="ant::calibration::gui\l::CalibModule_traits">
<polygon fill="white" stroke="black" points="1191.5,-185.5 1191.5,-215.5 1301.5,-215.5 1301.5,-185.5 1191.5,-185.5"/>
<text text-anchor="start" x="1199.5" y="-203.5" font-family="Helvetica,sans-Serif" font-size="10.00">ant::calibration::gui</text>
<text text-anchor="middle" x="1246.5" y="-192.5" font-family="Helvetica,sans-Serif" font-size="10.00">::CalibModule_traits</text>
</a>
</g>
</g>
<!-- Node3&#45;&gt;Node2 -->
<g id="edge1" class="edge"><title>Node3&#45;&gt;Node2</title>
<path fill="none" stroke="midnightblue" d="M1298.13,-181.894C1303.83,-179.757 1309.54,-177.594 1315,-175.5 1347.59,-162.992 1356.76,-162.082 1388,-146.5 1406.41,-137.32 1426.23,-125.147 1440.94,-115.629"/>
<polygon fill="midnightblue" stroke="midnightblue" points="1296.75,-178.673 1288.61,-185.45 1299.2,-185.231 1296.75,-178.673"/>
</g>
<!-- Node4 -->
<g id="node3" class="node"><title>Node4</title>
<g id="a_node3"><a xlink:href="classant_1_1calibration_1_1gui_1_1_cal_canvas.html" target="_top" xlink:title="ant::calibration::gui\l::CalCanvas">
<polygon fill="white" stroke="black" points="1192.5,-136.5 1192.5,-166.5 1300.5,-166.5 1300.5,-136.5 1192.5,-136.5"/>
<text text-anchor="start" x="1200.5" y="-154.5" font-family="Helvetica,sans-Serif" font-size="10.00">ant::calibration::gui</text>
<text text-anchor="middle" x="1246.5" y="-143.5" font-family="Helvetica,sans-Serif" font-size="10.00">::CalCanvas</text>
</a>
</g>
</g>
<!-- Node4&#45;&gt;Node2 -->
<g id="edge2" class="edge"><title>Node4&#45;&gt;Node2</title>
<path fill="none" stroke="#9a32cd" stroke-dasharray="5,2" d="M1310.57,-136.608C1340.62,-129.513 1376.31,-121.086 1405.66,-114.157"/>
<polygon fill="#9a32cd" stroke="#9a32cd" points="1309.54,-133.254 1300.62,-138.959 1311.15,-140.067 1309.54,-133.254"/>
<text text-anchor="middle" x="1360.5" y="-134.5" font-family="Helvetica,sans-Serif" font-size="10.00"> theCanvas</text>
</g>
<!-- Node5 -->
<g id="node4" class="node"><title>Node5</title>
<polygon fill="white" stroke="#bfbfbf" points="973,-290 973,-309 1029,-309 1029,-290 973,-290"/>
<text text-anchor="middle" x="1001" y="-297" font-family="Helvetica,sans-Serif" font-size="10.00">TCanvas</text>
</g>
<!-- Node5&#45;&gt;Node4 -->
<g id="edge3" class="edge"><title>Node5&#45;&gt;Node4</title>
<path fill="none" stroke="midnightblue" d="M1039.36,-305.035C1075.21,-308.068 1128.42,-306.23 1160,-275.5 1192.37,-244.008 1148.78,-209.933 1178,-175.5 1181.94,-170.853 1186.85,-167.106 1192.21,-164.084"/>
<polygon fill="midnightblue" stroke="midnightblue" points="1039.6,-301.541 1029.29,-304.017 1038.89,-308.505 1039.6,-301.541"/>
</g>
<!-- Node6 -->
<g id="node5" class="node"><title>Node6</title>
<g id="a_node5"><a xlink:href="classant_1_1calibration_1_1gui_1_1update__notify__traits.html" target="_top" xlink:title="ant::calibration::gui\l::update_notify_traits">
<polygon fill="white" stroke="black" points="492.5,-233.5 492.5,-263.5 610.5,-263.5 610.5,-233.5 492.5,-233.5"/>
<text text-anchor="start" x="500.5" y="-251.5" font-family="Helvetica,sans-Serif" font-size="10.00">ant::calibration::gui</text>
<text text-anchor="middle" x="551.5" y="-240.5" font-family="Helvetica,sans-Serif" font-size="10.00">::update_notify_traits</text>
</a>
</g>
</g>
<!-- Node6&#45;&gt;Node4 -->
<g id="edge4" class="edge"><title>Node6&#45;&gt;Node4</title>
<path fill="none" stroke="midnightblue" d="M620.886,-254.944C721.554,-262.778 915.11,-271.529 1076,-241.5 1115.12,-234.199 1130.2,-236.879 1160,-210.5 1173.1,-198.905 1164.83,-187.017 1178,-175.5 1182.31,-171.733 1187.24,-168.545 1192.45,-165.849"/>
<polygon fill="midnightblue" stroke="midnightblue" points="621.095,-251.449 610.848,-254.142 620.537,-258.427 621.095,-251.449"/>
</g>
<!-- Node8 -->
<g id="node7" class="node"><title>Node8</title>
<g id="a_node7"><a xlink:href="classant_1_1calibration_1_1gui_1_1_indicator.html" target="_top" xlink:title="ant::calibration::gui\l::Indicator">
<polygon fill="white" stroke="black" points="720,-202.5 720,-232.5 828,-232.5 828,-202.5 720,-202.5"/>
<text text-anchor="start" x="728" y="-220.5" font-family="Helvetica,sans-Serif" font-size="10.00">ant::calibration::gui</text>
<text text-anchor="middle" x="774" y="-209.5" font-family="Helvetica,sans-Serif" font-size="10.00">::Indicator</text>
</a>
</g>
</g>
<!-- Node6&#45;&gt;Node8 -->
<g id="edge7" class="edge"><title>Node6&#45;&gt;Node8</title>
<path fill="none" stroke="midnightblue" d="M620.854,-238.89C652.704,-234.412 690.033,-229.164 719.746,-224.987"/>
<polygon fill="midnightblue" stroke="midnightblue" points="620.138,-235.456 610.722,-240.315 621.112,-242.388 620.138,-235.456"/>
</g>
<!-- Node7 -->
<g id="node6" class="node"><title>Node7</title>
<polygon fill="white" stroke="#bfbfbf" points="934,-202.5 934,-232.5 1068,-232.5 1068,-202.5 934,-202.5"/>
<text text-anchor="start" x="942" y="-220.5" font-family="Helvetica,sans-Serif" font-size="10.00">std::list&lt; ant::calibration</text>
<text text-anchor="middle" x="1001" y="-209.5" font-family="Helvetica,sans-Serif" font-size="10.00">::gui::Indicator *&gt;</text>
</g>
<!-- Node7&#45;&gt;Node4 -->
<g id="edge5" class="edge"><title>Node7&#45;&gt;Node4</title>
<path fill="none" stroke="#9a32cd" stroke-dasharray="5,2" d="M1074.22,-199.979C1101.21,-193.231 1132.08,-185.274 1160,-177.5 1172.11,-174.129 1185.11,-170.288 1197.23,-166.612"/>
<polygon fill="#9a32cd" stroke="#9a32cd" points="1073.32,-196.595 1064.46,-202.408 1075.01,-203.388 1073.32,-196.595"/>
<text text-anchor="middle" x="1127" y="-198.5" font-family="Helvetica,sans-Serif" font-size="10.00"> indicators</text>
</g>
<!-- Node8&#45;&gt;Node7 -->
<g id="edge6" class="edge"><title>Node8&#45;&gt;Node7</title>
<path fill="none" stroke="#9a32cd" stroke-dasharray="5,2" d="M838.301,-217.5C868.043,-217.5 903.498,-217.5 933.619,-217.5"/>
<polygon fill="#9a32cd" stroke="#9a32cd" points="838.037,-214 828.037,-217.5 838.037,-221 838.037,-214"/>
<text text-anchor="middle" x="883.5" y="-220.5" font-family="Helvetica,sans-Serif" font-size="10.00"> elements</text>
</g>
<!-- Node9 -->
<g id="node8" class="node"><title>Node9</title>
<polygon fill="white" stroke="#bfbfbf" points="938.5,-153.5 938.5,-183.5 1063.5,-183.5 1063.5,-153.5 938.5,-153.5"/>
<text text-anchor="start" x="946.5" y="-171.5" font-family="Helvetica,sans-Serif" font-size="10.00">std::stack&lt; FitFunction</text>
<text text-anchor="middle" x="1001" y="-160.5" font-family="Helvetica,sans-Serif" font-size="10.00">::SavedState_t &gt;</text>
</g>
<!-- Node9&#45;&gt;Node4 -->
<g id="edge8" class="edge"><title>Node9&#45;&gt;Node4</title>
<path fill="none" stroke="#9a32cd" stroke-dasharray="5,2" d="M1073.75,-163.49C1111.79,-160.835 1157.7,-157.63 1192.48,-155.202"/>
<polygon fill="#9a32cd" stroke="#9a32cd" points="1073.49,-160 1063.76,-164.188 1073.98,-166.983 1073.49,-160"/>
<text text-anchor="middle" x="1127" y="-165.5" font-family="Helvetica,sans-Serif" font-size="10.00"> UndoStack</text>
</g>
<!-- Node10 -->
<g id="node9" class="node"><title>Node10</title>
<g id="a_node9"><a xlink:title="STL class. ">
<polygon fill="white" stroke="#bfbfbf" points="726.5,-159 726.5,-178 821.5,-178 821.5,-159 726.5,-159"/>
<text text-anchor="middle" x="774" y="-166" font-family="Helvetica,sans-Serif" font-size="10.00">std::vector&lt; T &gt;</text>
</a>
</g>
</g>
<!-- Node10&#45;&gt;Node9 -->
<g id="edge9" class="edge"><title>Node10&#45;&gt;Node9</title>
<path fill="none" stroke="#9a32cd" stroke-dasharray="5,2" d="M831.87,-168.5C864.397,-168.5 905.215,-168.5 938.488,-168.5"/>
<polygon fill="#9a32cd" stroke="#9a32cd" points="831.62,-165 821.62,-168.5 831.62,-172 831.62,-165"/>
<text text-anchor="middle" x="883.5" y="-171.5" font-family="Helvetica,sans-Serif" font-size="10.00"> elements</text>
</g>
<!-- Node11 -->
<g id="node10" class="node"><title>Node11</title>
<polygon fill="white" stroke="#bfbfbf" points="537,-159 537,-178 566,-178 566,-159 537,-159"/>
<text text-anchor="middle" x="551.5" y="-166" font-family="Helvetica,sans-Serif" font-size="10.00">T</text>
</g>
<!-- Node11&#45;&gt;Node10 -->
<g id="edge10" class="edge"><title>Node11&#45;&gt;Node10</title>
<path fill="none" stroke="#9a32cd" stroke-dasharray="5,2" d="M576.756,-168.5C612.663,-168.5 680.636,-168.5 726.383,-168.5"/>
<polygon fill="#9a32cd" stroke="#9a32cd" points="576.293,-165 566.293,-168.5 576.293,-172 576.293,-165"/>
<text text-anchor="middle" x="664.5" y="-171.5" font-family="Helvetica,sans-Serif" font-size="10.00"> elements</text>
</g>
<!-- Node12 -->
<g id="node11" class="node"><title>Node12</title>
<g id="a_node11"><a xlink:href="structant_1_1calibration_1_1gui_1_1_cal_canvas_1_1axis__settings__t.html" target="_top" xlink:title="ant::calibration::gui\l::CalCanvas::axis_settings_t">
<polygon fill="white" stroke="black" points="926,-104.5 926,-134.5 1076,-134.5 1076,-104.5 926,-104.5"/>
<text text-anchor="start" x="934" y="-122.5" font-family="Helvetica,sans-Serif" font-size="10.00">ant::calibration::gui</text>
<text text-anchor="middle" x="1001" y="-111.5" font-family="Helvetica,sans-Serif" font-size="10.00">::CalCanvas::axis_settings_t</text>
</a>
</g>
</g>
<!-- Node12&#45;&gt;Node4 -->
<g id="edge11" class="edge"><title>Node12&#45;&gt;Node4</title>
<path fill="none" stroke="#9a32cd" stroke-dasharray="5,2" d="M1086.32,-130.581C1121.49,-135.203 1161.28,-140.432 1192.28,-144.506"/>
<polygon fill="#9a32cd" stroke="#9a32cd" points="1086.42,-127.064 1076.05,-129.231 1085.51,-134.005 1086.42,-127.064"/>
<text text-anchor="middle" x="1127" y="-143.5" font-family="Helvetica,sans-Serif" font-size="10.00"> axis_settings</text>
</g>
<!-- Node13 -->
<g id="node12" class="node"><title>Node13</title>
<g id="a_node12"><a xlink:href="classant_1_1calibration_1_1gui_1_1_fit_function.html" target="_top" xlink:title="ant::calibration::gui\l::FitFunction">
<polygon fill="white" stroke="black" points="947,-55.5 947,-85.5 1055,-85.5 1055,-55.5 947,-55.5"/>
<text text-anchor="start" x="955" y="-73.5" font-family="Helvetica,sans-Serif" font-size="10.00">ant::calibration::gui</text>
<text text-anchor="middle" x="1001" y="-62.5" font-family="Helvetica,sans-Serif" font-size="10.00">::FitFunction</text>
</a>
</g>
</g>
<!-- Node13&#45;&gt;Node4 -->
<g id="edge12" class="edge"><title>Node13&#45;&gt;Node4</title>
<path fill="none" stroke="#9a32cd" stroke-dasharray="5,2" d="M1064.7,-87.7542C1093.86,-96.1371 1128.91,-106.717 1160,-117.5 1176.45,-123.205 1194.39,-130.216 1209.57,-136.386"/>
<polygon fill="#9a32cd" stroke="#9a32cd" points="1065.62,-84.3783 1055.04,-84.9984 1063.7,-91.1093 1065.62,-84.3783"/>
<text text-anchor="middle" x="1127" y="-120.5" font-family="Helvetica,sans-Serif" font-size="10.00"> func</text>
</g>
<!-- Node14 -->
<g id="node13" class="node"><title>Node14</title>
<polygon fill="white" stroke="#bfbfbf" points="707,-16.5 707,-46.5 841,-46.5 841,-16.5 707,-16.5"/>
<text text-anchor="start" x="715" y="-34.5" font-family="Helvetica,sans-Serif" font-size="10.00">std::list&lt; std::unique</text>
<text text-anchor="middle" x="774" y="-23.5" font-family="Helvetica,sans-Serif" font-size="10.00">_ptr&lt; IndicatorKnob &gt; &gt;</text>
</g>
<!-- Node14&#45;&gt;Node13 -->
<g id="edge13" class="edge"><title>Node14&#45;&gt;Node13</title>
<path fill="none" stroke="#9a32cd" stroke-dasharray="5,2" d="M850.967,-43.0034C869.639,-45.9661 889.56,-49.2415 908,-52.5 920.501,-54.7091 933.925,-57.243 946.549,-59.6988"/>
<polygon fill="#9a32cd" stroke="#9a32cd" points="851.461,-39.538 841.038,-41.4383 850.371,-46.4527 851.461,-39.538"/>
<text text-anchor="middle" x="883.5" y="-55.5" font-family="Helvetica,sans-Serif" font-size="10.00"> knobs</text>
</g>
<!-- Node15 -->
<g id="node14" class="node"><title>Node15</title>
<polygon fill="white" stroke="#bfbfbf" points="481,-10.5 481,-40.5 622,-40.5 622,-10.5 481,-10.5"/>
<text text-anchor="start" x="489" y="-28.5" font-family="Helvetica,sans-Serif" font-size="10.00">std::unique_ptr&lt; Indicator</text>
<text text-anchor="middle" x="551.5" y="-17.5" font-family="Helvetica,sans-Serif" font-size="10.00">Knob &gt;</text>
</g>
<!-- Node15&#45;&gt;Node14 -->
<g id="edge14" class="edge"><title>Node15&#45;&gt;Node14</title>
<path fill="none" stroke="#9a32cd" stroke-dasharray="5,2" d="M632.554,-27.6783C656.895,-28.3407 683.363,-29.0609 706.693,-29.6957"/>
<polygon fill="#9a32cd" stroke="#9a32cd" points="632.359,-24.1718 622.268,-27.3984 632.169,-31.1692 632.359,-24.1718"/>
<text text-anchor="middle" x="664.5" y="-32.5" font-family="Helvetica,sans-Serif" font-size="10.00"> elements</text>
</g>
<!-- Node16 -->
<g id="node15" class="node"><title>Node16</title>
<g id="a_node15"><a xlink:href="classant_1_1calibration_1_1gui_1_1_indicator_knob.html" target="_top" xlink:title="ant::calibration::gui\l::IndicatorKnob">
<polygon fill="white" stroke="black" points="320,-10.5 320,-40.5 428,-40.5 428,-10.5 320,-10.5"/>
<text text-anchor="start" x="328" y="-28.5" font-family="Helvetica,sans-Serif" font-size="10.00">ant::calibration::gui</text>
<text text-anchor="middle" x="374" y="-17.5" font-family="Helvetica,sans-Serif" font-size="10.00">::IndicatorKnob</text>
</a>
</g>
</g>
<!-- Node16&#45;&gt;Node15 -->
<g id="edge15" class="edge"><title>Node16&#45;&gt;Node15</title>
<path fill="none" stroke="#9a32cd" stroke-dasharray="5,2" d="M438.432,-25.5C452.153,-25.5 466.734,-25.5 480.685,-25.5"/>
<polygon fill="#9a32cd" stroke="#9a32cd" points="438.132,-22.0001 428.132,-25.5 438.132,-29.0001 438.132,-22.0001"/>
<text text-anchor="middle" x="454.5" y="-28.5" font-family="Helvetica,sans-Serif" font-size="10.00"> ptr</text>
</g>
<!-- Node17 -->
<g id="node16" class="node"><title>Node17</title>
<g id="a_node16"><a xlink:title="STL class. ">
<polygon fill="white" stroke="#bfbfbf" points="164,-60 164,-79 229,-79 229,-60 164,-60"/>
<text text-anchor="middle" x="196.5" y="-67" font-family="Helvetica,sans-Serif" font-size="10.00">std::string</text>
</a>
</g>
</g>
<!-- Node17&#45;&gt;Node13 -->
<g id="edge19" class="edge"><title>Node17&#45;&gt;Node13</title>
<path fill="none" stroke="#9a32cd" stroke-dasharray="5,2" d="M239.193,-72.4709C274.737,-74.747 327.196,-77.5 373,-77.5 373,-77.5 373,-77.5 775,-77.5 833.818,-77.5 901.242,-75.0807 946.825,-73.0867"/>
<polygon fill="#9a32cd" stroke="#9a32cd" points="239.393,-68.9765 229.185,-71.8139 238.934,-75.9615 239.393,-68.9765"/>
<text text-anchor="middle" x="551.5" y="-80.5" font-family="Helvetica,sans-Serif" font-size="10.00"> AdditionalFitArgs</text>
</g>
<!-- Node17&#45;&gt;Node16 -->
<g id="edge16" class="edge"><title>Node17&#45;&gt;Node16</title>
<path fill="none" stroke="#9a32cd" stroke-dasharray="5,2" d="M239.19,-59.0479C263.31,-53.0006 293.911,-45.3287 319.759,-38.8482"/>
<polygon fill="#9a32cd" stroke="#9a32cd" points="238.13,-55.7051 229.282,-61.5319 239.833,-62.4949 238.13,-55.7051"/>
<text text-anchor="middle" x="286.5" y="-53.5" font-family="Helvetica,sans-Serif" font-size="10.00"> name</text>
</g>
<!-- Node18 -->
<g id="node17" class="node"><title>Node18</title>
<g id="a_node17"><a xlink:title="STL class. ">
<polygon fill="white" stroke="#bfbfbf" points="0,-54.5 0,-84.5 103,-84.5 103,-54.5 0,-54.5"/>
<text text-anchor="start" x="8" y="-72.5" font-family="Helvetica,sans-Serif" font-size="10.00">std::basic_string&lt;</text>
<text text-anchor="middle" x="51.5" y="-61.5" font-family="Helvetica,sans-Serif" font-size="10.00"> char &gt;</text>
</a>
</g>
</g>
<!-- Node18&#45;&gt;Node17 -->
<g id="edge17" class="edge"><title>Node18&#45;&gt;Node17</title>
<path fill="none" stroke="midnightblue" d="M113.439,-69.5C130.849,-69.5 149.114,-69.5 163.98,-69.5"/>
<polygon fill="midnightblue" stroke="midnightblue" points="113.319,-66.0001 103.319,-69.5 113.319,-73.0001 113.319,-66.0001"/>
</g>
<!-- Node19 -->
<g id="node18" class="node"><title>Node19</title>
<g id="a_node18"><a xlink:href="structant_1_1calibration_1_1gui_1_1_indicator_properties.html" target="_top" xlink:title="ant::calibration::gui\l::IndicatorProperties">
<polygon fill="white" stroke="black" points="140,-2.5 140,-32.5 253,-32.5 253,-2.5 140,-2.5"/>
<text text-anchor="start" x="148" y="-20.5" font-family="Helvetica,sans-Serif" font-size="10.00">ant::calibration::gui</text>
<text text-anchor="middle" x="196.5" y="-9.5" font-family="Helvetica,sans-Serif" font-size="10.00">::IndicatorProperties</text>
</a>
</g>
</g>
<!-- Node19&#45;&gt;Node16 -->
<g id="edge18" class="edge"><title>Node19&#45;&gt;Node16</title>
<path fill="none" stroke="#9a32cd" stroke-dasharray="5,2" d="M263.283,-17.2408C276.129,-17.4412 289.492,-17.8249 302,-18.5 307.813,-18.8138 313.885,-19.2482 319.924,-19.7486"/>
<polygon fill="#9a32cd" stroke="#9a32cd" points="263.16,-13.7391 253.118,-17.1174 263.074,-20.7386 263.16,-13.7391"/>
<text text-anchor="middle" x="286.5" y="-21.5" font-family="Helvetica,sans-Serif" font-size="10.00"> gui</text>
</g>
<!-- Node20 -->
<g id="node19" class="node"><title>Node20</title>
<polygon fill="white" stroke="#bfbfbf" points="1178,-0.5 1178,-30.5 1315,-30.5 1315,-0.5 1178,-0.5"/>
<text text-anchor="start" x="1186" y="-18.5" font-family="Helvetica,sans-Serif" font-size="10.00">std::map&lt; unsigned,</text>
<text text-anchor="middle" x="1246.5" y="-7.5" font-family="Helvetica,sans-Serif" font-size="10.00"> std::vector&lt; double &gt; &gt;</text>
</g>
<!-- Node20&#45;&gt;Node2 -->
<g id="edge20" class="edge"><title>Node20&#45;&gt;Node2</title>
<path fill="none" stroke="#9a32cd" stroke-dasharray="5,2" d="M1325.07,-23.7739C1346.1,-27.7759 1368.44,-33.7084 1388,-42.5 1411.37,-53.0041 1434.12,-72.0508 1448.43,-85.4448"/>
<polygon fill="#9a32cd" stroke="#9a32cd" points="1325.65,-20.3228 1315.2,-22.014 1324.43,-27.2143 1325.65,-20.3228"/>
<text text-anchor="middle" x="1360.5" y="-45.5" font-family="Helvetica,sans-Serif" font-size="10.00"> fitParams</text>
</g>
<!-- Node21 -->
<g id="node20" class="node"><title>Node21</title>
<polygon fill="white" stroke="#bfbfbf" points="940,-12 940,-31 1062,-31 1062,-12 940,-12"/>
<text text-anchor="middle" x="1001" y="-19" font-family="Helvetica,sans-Serif" font-size="10.00">std::vector&lt; double &gt;</text>
</g>
<!-- Node21&#45;&gt;Node2 -->
<g id="edge22" class="edge"><title>Node21&#45;&gt;Node2</title>
<path fill="none" stroke="#9a32cd" stroke-dasharray="5,2" d="M1067.53,-32.7181C1158,-48.2044 1319.71,-75.8859 1405.82,-90.6268"/>
<polygon fill="#9a32cd" stroke="#9a32cd" points="1068.11,-29.2668 1057.67,-31.0292 1066.93,-36.1664 1068.11,-29.2668"/>
<text text-anchor="middle" x="1246.5" y="-99.5" font-family="Helvetica,sans-Serif" font-size="10.00"> offsets</text>
<text text-anchor="middle" x="1246.5" y="-88.5" font-family="Helvetica,sans-Serif" font-size="10.00">defaultOffsets</text>
<text text-anchor="middle" x="1246.5" y="-77.5" font-family="Helvetica,sans-Serif" font-size="10.00">previousOffsets</text>
</g>
<!-- Node21&#45;&gt;Node20 -->
<g id="edge21" class="edge"><title>Node21&#45;&gt;Node20</title>
<path fill="none" stroke="#9a32cd" stroke-dasharray="5,2" d="M1072.28,-19.7682C1105.5,-18.9498 1144.97,-17.977 1177.85,-17.167"/>
<polygon fill="#9a32cd" stroke="#9a32cd" points="1072.1,-16.2715 1062.19,-20.0169 1072.27,-23.2694 1072.1,-16.2715"/>
<text text-anchor="middle" x="1127" y="-22.5" font-family="Helvetica,sans-Serif" font-size="10.00"> elements</text>
</g>
</g>
</svg>
