<?xml version="1.0" encoding="UTF-8" standalone="no"?>
<!DOCTYPE svg PUBLIC "-//W3C//DTD SVG 1.1//EN"
 "http://www.w3.org/Graphics/SVG/1.1/DTD/svg11.dtd">
<!-- Generated by graphviz version 2.38.0 (20140413.2041)
 -->
<!-- Title: ant::calibration::DataBase Pages: 1 -->
<svg width="268pt" height="329pt"
 viewBox="0.00 0.00 268.00 329.00" xmlns="http://www.w3.org/2000/svg" xmlns:xlink="http://www.w3.org/1999/xlink">
<g id="graph0" class="graph" transform="scale(1 1) rotate(0) translate(4 325)">
<title>ant::calibration::DataBase</title>
<polygon fill="white" stroke="none" points="-4,4 -4,-325 264,-325 264,4 -4,4"/>
<!-- Node1 -->
<g id="node1" class="node"><title>Node1</title>
<polygon fill="#bfbfbf" stroke="black" points="40.5,-0.5 40.5,-19.5 181.5,-19.5 181.5,-0.5 40.5,-0.5"/>
<text text-anchor="middle" x="111" y="-7.5" font-family="Helvetica,sans-Serif" font-size="10.00">ant::calibration::DataBase</text>
</g>
<!-- Node2 -->
<g id="node2" class="node"><title>Node2</title>
<g id="a_node2"><a xlink:href="structant_1_1calibration_1_1_data_base_1_1_on_disk_layout.html" target="_top" xlink:title="ant::calibration::DataBase\l::OnDiskLayout">
<polygon fill="white" stroke="black" points="40.5,-67.5 40.5,-97.5 181.5,-97.5 181.5,-67.5 40.5,-67.5"/>
<text text-anchor="start" x="48.5" y="-85.5" font-family="Helvetica,sans-Serif" font-size="10.00">ant::calibration::DataBase</text>
<text text-anchor="middle" x="111" y="-74.5" font-family="Helvetica,sans-Serif" font-size="10.00">::OnDiskLayout</text>
</a>
</g>
</g>
<!-- Node2&#45;&gt;Node1 -->
<g id="edge1" class="edge"><title>Node2&#45;&gt;Node1</title>
<path fill="none" stroke="#9a32cd" stroke-dasharray="5,2" d="M111,-57.0913C111,-44.2136 111,-29.1974 111,-19.8932"/>
<polygon fill="#9a32cd" stroke="#9a32cd" points="107.5,-57.2332 111,-67.2333 114.5,-57.2333 107.5,-57.2332"/>
<text text-anchor="middle" x="129" y="-41" font-family="Helvetica,sans-Serif" font-size="10.00"> Layout</text>
</g>
<!-- Node3 -->
<g id="node3" class="node"><title>Node3</title>
<polygon fill="white" stroke="#bfbfbf" points="0,-145.5 0,-175.5 122,-175.5 122,-145.5 0,-145.5"/>
<text text-anchor="start" x="8" y="-163.5" font-family="Helvetica,sans-Serif" font-size="10.00">std::map&lt; std::string,</text>
<text text-anchor="middle" x="61" y="-152.5" font-family="Helvetica,sans-Serif" font-size="10.00"> DataRanges_t &gt;</text>
</g>
<!-- Node3&#45;&gt;Node2 -->
<g id="edge2" class="edge"><title>Node3&#45;&gt;Node2</title>
<path fill="none" stroke="#9a32cd" stroke-dasharray="5,2" d="M61.6804,-134.851C62.7133,-128.371 64.6152,-121.627 68,-116 72.3413,-108.783 78.9448,-102.624 85.6833,-97.6704"/>
<polygon fill="#9a32cd" stroke="#9a32cd" points="58.152,-134.967 60.6541,-145.262 65.1183,-135.654 58.152,-134.967"/>
<text text-anchor="middle" x="106" y="-119" font-family="Helvetica,sans-Serif" font-size="10.00"> cached_ranges</text>
</g>
<!-- Node4 -->
<g id="node4" class="node"><title>Node4</title>
<g id="a_node4"><a xlink:title="STL class. ">
<polygon fill="white" stroke="#bfbfbf" points="6.5,-223.5 6.5,-242.5 85.5,-242.5 85.5,-223.5 6.5,-223.5"/>
<text text-anchor="middle" x="46" y="-230.5" font-family="Helvetica,sans-Serif" font-size="10.00">std::list&lt; T &gt;</text>
</a>
</g>
</g>
<!-- Node4&#45;&gt;Node3 -->
<g id="edge3" class="edge"><title>Node4&#45;&gt;Node3</title>
<path fill="none" stroke="#9a32cd" stroke-dasharray="5,2" d="M45.088,-213.323C45.1555,-207.114 45.6353,-200.204 47,-194 48.3727,-187.76 50.9406,-181.226 53.5061,-175.667"/>
<polygon fill="#9a32cd" stroke="#9a32cd" points="41.5913,-213.516 45.3099,-223.437 48.5896,-213.362 41.5913,-213.516"/>
<text text-anchor="middle" x="71.5" y="-197" font-family="Helvetica,sans-Serif" font-size="10.00"> elements</text>
</g>
<!-- Node5 -->
<g id="node5" class="node"><title>Node5</title>
<polygon fill="white" stroke="#bfbfbf" points="31.5,-296 31.5,-315 60.5,-315 60.5,-296 31.5,-296"/>
<text text-anchor="middle" x="46" y="-303" font-family="Helvetica,sans-Serif" font-size="10.00">T</text>
</g>
<!-- Node5&#45;&gt;Node4 -->
<g id="edge4" class="edge"><title>Node5&#45;&gt;Node4</title>
<path fill="none" stroke="#9a32cd" stroke-dasharray="5,2" d="M46,-285.442C46,-271.53 46,-253.32 46,-242.715"/>
<polygon fill="#9a32cd" stroke="#9a32cd" points="42.5001,-285.855 46,-295.855 49.5001,-285.855 42.5001,-285.855"/>
<text text-anchor="middle" x="70.5" y="-264" font-family="Helvetica,sans-Serif" font-size="10.00"> elements</text>
</g>
<!-- Node6 -->
<g id="node6" class="node"><title>Node6</title>
<g id="a_node6"><a xlink:title="STL class. ">
<polygon fill="white" stroke="#bfbfbf" points="114.5,-223.5 114.5,-242.5 179.5,-242.5 179.5,-223.5 114.5,-223.5"/>
<text text-anchor="middle" x="147" y="-230.5" font-family="Helvetica,sans-Serif" font-size="10.00">std::string</text>
</a>
</g>
</g>
<!-- Node6&#45;&gt;Node2 -->
<g id="edge7" class="edge"><title>Node6&#45;&gt;Node2</title>
<path fill="none" stroke="#9a32cd" stroke-dasharray="5,2" d="M150.651,-213.299C154.378,-189.578 157.853,-147.922 144,-116 140.991,-109.066 135.742,-102.842 130.305,-97.7423"/>
<polygon fill="#9a32cd" stroke="#9a32cd" points="147.163,-212.926 148.876,-223.381 154.057,-214.14 147.163,-212.926"/>
<text text-anchor="middle" x="206.5" y="-158" font-family="Helvetica,sans-Serif" font-size="10.00"> CalibrationDataFolder</text>
</g>
<!-- Node6&#45;&gt;Node3 -->
<g id="edge5" class="edge"><title>Node6&#45;&gt;Node3</title>
<path fill="none" stroke="#9a32cd" stroke-dasharray="5,2" d="M128.439,-216.784C113.516,-204.551 92.7127,-187.497 78.1709,-175.576"/>
<polygon fill="#9a32cd" stroke="#9a32cd" points="126.502,-219.722 136.455,-223.355 130.94,-214.309 126.502,-219.722"/>
<text text-anchor="middle" x="123.5" y="-197" font-family="Helvetica,sans-Serif" font-size="10.00"> keys</text>
</g>
<!-- Node7 -->
<g id="node7" class="node"><title>Node7</title>
<g id="a_node7"><a xlink:title="STL class. ">
<polygon fill="white" stroke="#bfbfbf" points="95.5,-290.5 95.5,-320.5 198.5,-320.5 198.5,-290.5 95.5,-290.5"/>
<text text-anchor="start" x="103.5" y="-308.5" font-family="Helvetica,sans-Serif" font-size="10.00">std::basic_string&lt;</text>
<text text-anchor="middle" x="147" y="-297.5" font-family="Helvetica,sans-Serif" font-size="10.00"> char &gt;</text>
</a>
</g>
</g>
<!-- Node7&#45;&gt;Node6 -->
<g id="edge6" class="edge"><title>Node7&#45;&gt;Node6</title>
<path fill="none" stroke="midnightblue" d="M147,-280.091C147,-267.214 147,-252.197 147,-242.893"/>
<polygon fill="midnightblue" stroke="midnightblue" points="143.5,-280.233 147,-290.233 150.5,-280.233 143.5,-280.233"/>
</g>
</g>
</svg>
