<?xml version="1.0" encoding="UTF-8" standalone="no"?>
<!DOCTYPE svg PUBLIC "-//W3C//DTD SVG 1.1//EN"
 "http://www.w3.org/Graphics/SVG/1.1/DTD/svg11.dtd">
<!-- Generated by graphviz version 2.38.0 (20140413.2041)
 -->
<!-- Title: ant::Unpacker::Exception Pages: 1 -->
<svg width="266pt" height="207pt"
 viewBox="0.00 0.00 266.00 207.00" xmlns="http://www.w3.org/2000/svg" xmlns:xlink="http://www.w3.org/1999/xlink">
<g id="graph0" class="graph" transform="scale(1 1) rotate(0) translate(4 203)">
<title>ant::Unpacker::Exception</title>
<polygon fill="white" stroke="none" points="-4,4 -4,-203 262,-203 262,4 -4,4"/>
<!-- Node0 -->
<g id="node1" class="node"><title>Node0</title>
<polygon fill="#bfbfbf" stroke="black" points="63.5,-67.5 63.5,-86.5 200.5,-86.5 200.5,-67.5 63.5,-67.5"/>
<text text-anchor="middle" x="132" y="-74.5" font-family="Helvetica,sans-Serif" font-size="10.00">ant::Unpacker::Exception</text>
</g>
<!-- Node3 -->
<g id="node4" class="node"><title>Node3</title>
<g id="a_node4"><a xlink:href="classant_1_1_unpacker_a2_geant_1_1_exception.html" target="_top" xlink:title="ant::UnpackerA2Geant\l::Exception">
<polygon fill="white" stroke="black" points="0,-0.5 0,-30.5 126,-30.5 126,-0.5 0,-0.5"/>
<text text-anchor="start" x="8" y="-18.5" font-family="Helvetica,sans-Serif" font-size="10.00">ant::UnpackerA2Geant</text>
<text text-anchor="middle" x="63" y="-7.5" font-family="Helvetica,sans-Serif" font-size="10.00">::Exception</text>
</a>
</g>
</g>
<!-- Node0&#45;&gt;Node3 -->
<g id="edge3" class="edge"><title>Node0&#45;&gt;Node3</title>
<path fill="none" stroke="midnightblue" d="M114.514,-60.9215C103.68,-51.579 89.8597,-39.6616 79.2619,-30.523"/>
<polygon fill="midnightblue" stroke="midnightblue" points="112.255,-63.5952 122.114,-67.4751 116.826,-58.294 112.255,-63.5952"/>
</g>
<!-- Node4 -->
<g id="node5" class="node"><title>Node4</title>
<g id="a_node5"><a xlink:href="classant_1_1_unpacker_acqu_1_1_exception.html" target="_top" xlink:title="ant::UnpackerAcqu::\lException">
<polygon fill="white" stroke="black" points="144,-0.5 144,-30.5 258,-30.5 258,-0.5 144,-0.5"/>
<text text-anchor="start" x="152" y="-18.5" font-family="Helvetica,sans-Serif" font-size="10.00">ant::UnpackerAcqu::</text>
<text text-anchor="middle" x="201" y="-7.5" font-family="Helvetica,sans-Serif" font-size="10.00">Exception</text>
</a>
</g>
</g>
<!-- Node0&#45;&gt;Node4 -->
<g id="edge4" class="edge"><title>Node0&#45;&gt;Node4</title>
<path fill="none" stroke="midnightblue" d="M149.486,-60.9215C160.32,-51.579 174.14,-39.6616 184.738,-30.523"/>
<polygon fill="midnightblue" stroke="midnightblue" points="147.174,-58.294 141.886,-67.4751 151.745,-63.5952 147.174,-58.294"/>
</g>
<!-- Node1 -->
<g id="node2" class="node"><title>Node1</title>
<g id="a_node2"><a xlink:title="STL class. ">
<polygon fill="white" stroke="#bfbfbf" points="80,-123.5 80,-142.5 184,-142.5 184,-123.5 80,-123.5"/>
<text text-anchor="middle" x="132" y="-130.5" font-family="Helvetica,sans-Serif" font-size="10.00">std::runtime_error</text>
</a>
</g>
</g>
<!-- Node1&#45;&gt;Node0 -->
<g id="edge1" class="edge"><title>Node1&#45;&gt;Node0</title>
<path fill="none" stroke="midnightblue" d="M132,-112.805C132,-103.91 132,-93.7798 132,-86.7511"/>
<polygon fill="midnightblue" stroke="midnightblue" points="128.5,-113.083 132,-123.083 135.5,-113.083 128.5,-113.083"/>
</g>
<!-- Node2 -->
<g id="node3" class="node"><title>Node2</title>
<g id="a_node3"><a xlink:title="STL class. ">
<polygon fill="white" stroke="#bfbfbf" points="90,-179.5 90,-198.5 174,-198.5 174,-179.5 90,-179.5"/>
<text text-anchor="middle" x="132" y="-186.5" font-family="Helvetica,sans-Serif" font-size="10.00">std::exception</text>
</a>
</g>
</g>
<!-- Node2&#45;&gt;Node1 -->
<g id="edge2" class="edge"><title>Node2&#45;&gt;Node1</title>
<path fill="none" stroke="midnightblue" d="M132,-168.805C132,-159.91 132,-149.78 132,-142.751"/>
<polygon fill="midnightblue" stroke="midnightblue" points="128.5,-169.083 132,-179.083 135.5,-169.083 128.5,-169.083"/>
</g>
</g>
</svg>
