<?xml version="1.0" encoding="UTF-8" standalone="no"?>
<!DOCTYPE svg PUBLIC "-//W3C//DTD SVG 1.1//EN"
 "http://www.w3.org/Graphics/SVG/1.1/DTD/svg11.dtd">
<!-- Generated by graphviz version 2.38.0 (20140413.2041)
 -->
<!-- Title: ant::analysis::physics::IMCombFitPlots Pages: 1 -->
<svg width="1618pt" height="533pt"
 viewBox="0.00 0.00 1618.00 533.00" xmlns="http://www.w3.org/2000/svg" xmlns:xlink="http://www.w3.org/1999/xlink">
<g id="graph0" class="graph" transform="scale(1 1) rotate(0) translate(4 529)">
<title>ant::analysis::physics::IMCombFitPlots</title>
<polygon fill="white" stroke="none" points="-4,4 -4,-529 1614,-529 1614,4 -4,4"/>
<!-- Node2 -->
<g id="node1" class="node"><title>Node2</title>
<polygon fill="#bfbfbf" stroke="black" points="1492,-250.5 1492,-280.5 1610,-280.5 1610,-250.5 1492,-250.5"/>
<text text-anchor="start" x="1500" y="-268.5" font-family="Helvetica,sans-Serif" font-size="10.00">ant::analysis::physics</text>
<text text-anchor="middle" x="1551" y="-257.5" font-family="Helvetica,sans-Serif" font-size="10.00">::IMCombFitPlots</text>
</g>
<!-- Node3 -->
<g id="node2" class="node"><title>Node3</title>
<g id="a_node2"><a xlink:href="classant_1_1analysis_1_1_physics.html" target="_top" xlink:title="ant::analysis::Physics">
<polygon fill="white" stroke="black" points="1254.5,-430 1254.5,-449 1372.5,-449 1372.5,-430 1254.5,-430"/>
<text text-anchor="middle" x="1313.5" y="-437" font-family="Helvetica,sans-Serif" font-size="10.00">ant::analysis::Physics</text>
</a>
</g>
</g>
<!-- Node3&#45;&gt;Node2 -->
<g id="edge1" class="edge"><title>Node3&#45;&gt;Node2</title>
<path fill="none" stroke="midnightblue" d="M1380.89,-427.405C1411.97,-419.027 1447.81,-405.154 1474,-382.5 1507.89,-353.184 1532.49,-305.138 1543.53,-280.742"/>
<polygon fill="midnightblue" stroke="midnightblue" points="1379.81,-424.069 1370.99,-429.936 1381.54,-430.851 1379.81,-424.069"/>
</g>
<!-- Node4 -->
<g id="node3" class="node"><title>Node4</title>
<g id="a_node3"><a xlink:href="classant_1_1analysis_1_1_histogram_factory.html" target="_top" xlink:title="ant::analysis::Histogram\lFactory">
<polygon fill="white" stroke="black" points="916.5,-426.5 916.5,-456.5 1049.5,-456.5 1049.5,-426.5 916.5,-426.5"/>
<text text-anchor="start" x="924.5" y="-444.5" font-family="Helvetica,sans-Serif" font-size="10.00">ant::analysis::Histogram</text>
<text text-anchor="middle" x="983" y="-433.5" font-family="Helvetica,sans-Serif" font-size="10.00">Factory</text>
</a>
</g>
</g>
<!-- Node4&#45;&gt;Node3 -->
<g id="edge2" class="edge"><title>Node4&#45;&gt;Node3</title>
<path fill="none" stroke="#9a32cd" stroke-dasharray="5,2" d="M1059.74,-441.039C1118.99,-440.678 1200.15,-440.184 1254.35,-439.854"/>
<polygon fill="#9a32cd" stroke="#9a32cd" points="1059.67,-437.539 1049.69,-441.1 1059.71,-444.539 1059.67,-437.539"/>
<text text-anchor="middle" x="1141" y="-443.5" font-family="Helvetica,sans-Serif" font-size="10.00"> HistFac</text>
</g>
<!-- Node5 -->
<g id="node4" class="node"><title>Node5</title>
<polygon fill="white" stroke="#bfbfbf" points="1244,-377.5 1244,-407.5 1383,-407.5 1383,-377.5 1244,-377.5"/>
<text text-anchor="start" x="1252" y="-395.5" font-family="Helvetica,sans-Serif" font-size="10.00">std::vector&lt; ant::analysis</text>
<text text-anchor="middle" x="1313.5" y="-384.5" font-family="Helvetica,sans-Serif" font-size="10.00">::utils::KinFitter &gt;</text>
</g>
<!-- Node5&#45;&gt;Node2 -->
<g id="edge3" class="edge"><title>Node5&#45;&gt;Node2</title>
<path fill="none" stroke="#9a32cd" stroke-dasharray="5,2" d="M1393.02,-376.75C1419.94,-369.227 1449.45,-358.492 1474,-343.5 1501.27,-326.847 1525.66,-298.188 1539.08,-280.633"/>
<polygon fill="#9a32cd" stroke="#9a32cd" points="1391.99,-373.405 1383.24,-379.379 1393.8,-380.165 1391.99,-373.405"/>
<text text-anchor="middle" x="1445" y="-370.5" font-family="Helvetica,sans-Serif" font-size="10.00"> kinfit</text>
</g>
<!-- Node6 -->
<g id="node5" class="node"><title>Node6</title>
<g id="a_node5"><a xlink:href="classant_1_1analysis_1_1utils_1_1_kin_fitter.html" target="_top" xlink:title="ant::analysis::utils\l::KinFitter">
<polygon fill="white" stroke="black" points="932,-377.5 932,-407.5 1034,-407.5 1034,-377.5 932,-377.5"/>
<text text-anchor="start" x="940" y="-395.5" font-family="Helvetica,sans-Serif" font-size="10.00">ant::analysis::utils</text>
<text text-anchor="middle" x="983" y="-384.5" font-family="Helvetica,sans-Serif" font-size="10.00">::KinFitter</text>
</a>
</g>
</g>
<!-- Node6&#45;&gt;Node5 -->
<g id="edge4" class="edge"><title>Node6&#45;&gt;Node5</title>
<path fill="none" stroke="#9a32cd" stroke-dasharray="5,2" d="M1044.45,-392.5C1100.9,-392.5 1185.05,-392.5 1243.97,-392.5"/>
<polygon fill="#9a32cd" stroke="#9a32cd" points="1044.25,-389 1034.25,-392.5 1044.25,-396 1044.25,-389"/>
<text text-anchor="middle" x="1141" y="-395.5" font-family="Helvetica,sans-Serif" font-size="10.00"> elements</text>
</g>
<!-- Node7 -->
<g id="node6" class="node"><title>Node7</title>
<g id="a_node6"><a xlink:href="classant_1_1analysis_1_1utils_1_1_fitter.html" target="_top" xlink:title="ant::analysis::utils\l::Fitter">
<polygon fill="white" stroke="black" points="698,-494.5 698,-524.5 800,-524.5 800,-494.5 698,-494.5"/>
<text text-anchor="start" x="706" y="-512.5" font-family="Helvetica,sans-Serif" font-size="10.00">ant::analysis::utils</text>
<text text-anchor="middle" x="749" y="-501.5" font-family="Helvetica,sans-Serif" font-size="10.00">::Fitter</text>
</a>
</g>
</g>
<!-- Node7&#45;&gt;Node6 -->
<g id="edge5" class="edge"><title>Node7&#45;&gt;Node6</title>
<path fill="none" stroke="midnightblue" d="M809.9,-492.687C816.089,-490.471 822.223,-488.069 828,-485.5 859.69,-471.41 870.074,-469.614 895,-445.5 905.633,-435.214 901.437,-426.728 913,-417.5 918.577,-413.049 925.016,-409.35 931.672,-406.285"/>
<polygon fill="midnightblue" stroke="midnightblue" points="808.5,-489.467 800.17,-496.013 810.765,-496.09 808.5,-489.467"/>
</g>
<!-- Node8 -->
<g id="node7" class="node"><title>Node8</title>
<g id="a_node7"><a xlink:href="structant_1_1analysis_1_1utils_1_1_kin_fitter_1_1_target__t.html" target="_top" xlink:title="ant::analysis::utils\l::KinFitter::Target_t">
<polygon fill="white" stroke="black" points="696.5,-445.5 696.5,-475.5 801.5,-475.5 801.5,-445.5 696.5,-445.5"/>
<text text-anchor="start" x="704.5" y="-463.5" font-family="Helvetica,sans-Serif" font-size="10.00">ant::analysis::utils</text>
<text text-anchor="middle" x="749" y="-452.5" font-family="Helvetica,sans-Serif" font-size="10.00">::KinFitter::Target_t</text>
</a>
</g>
</g>
<!-- Node8&#45;&gt;Node6 -->
<g id="edge6" class="edge"><title>Node8&#45;&gt;Node6</title>
<path fill="none" stroke="#9a32cd" stroke-dasharray="5,2" d="M811.029,-442.612C848.645,-431.587 896.293,-417.621 931.728,-407.235"/>
<polygon fill="#9a32cd" stroke="#9a32cd" points="809.812,-439.321 801.201,-445.493 811.781,-446.039 809.812,-439.321"/>
<text text-anchor="middle" x="870.5" y="-433.5" font-family="Helvetica,sans-Serif" font-size="10.00"> Target</text>
</g>
<!-- Node9 -->
<g id="node8" class="node"><title>Node9</title>
<g id="a_node8"><a xlink:href="structant_1_1analysis_1_1utils_1_1_kin_fitter_1_1_beam_e__t.html" target="_top" xlink:title="ant::analysis::utils\l::KinFitter::BeamE_t">
<polygon fill="white" stroke="black" points="694,-396.5 694,-426.5 804,-426.5 804,-396.5 694,-396.5"/>
<text text-anchor="start" x="702" y="-414.5" font-family="Helvetica,sans-Serif" font-size="10.00">ant::analysis::utils</text>
<text text-anchor="middle" x="749" y="-403.5" font-family="Helvetica,sans-Serif" font-size="10.00">::KinFitter::BeamE_t</text>
</a>
</g>
</g>
<!-- Node9&#45;&gt;Node6 -->
<g id="edge7" class="edge"><title>Node9&#45;&gt;Node6</title>
<path fill="none" stroke="#9a32cd" stroke-dasharray="5,2" d="M814.312,-406.233C851.407,-403.195 897.367,-399.431 931.784,-396.612"/>
<polygon fill="#9a32cd" stroke="#9a32cd" points="813.782,-402.765 804.101,-407.069 814.353,-409.741 813.782,-402.765"/>
<text text-anchor="middle" x="870.5" y="-405.5" font-family="Helvetica,sans-Serif" font-size="10.00"> BeamE</text>
</g>
<!-- Node10 -->
<g id="node9" class="node"><title>Node10</title>
<polygon fill="white" stroke="#bfbfbf" points="517,-402 517,-421 573,-421 573,-402 517,-402"/>
<text text-anchor="middle" x="545" y="-409" font-family="Helvetica,sans-Serif" font-size="10.00">V_S_P_t</text>
</g>
<!-- Node10&#45;&gt;Node9 -->
<g id="edge8" class="edge"><title>Node10&#45;&gt;Node9</title>
<path fill="none" stroke="midnightblue" d="M583.622,-411.5C614.65,-411.5 659.07,-411.5 693.913,-411.5"/>
<polygon fill="midnightblue" stroke="midnightblue" points="583.243,-408 573.243,-411.5 583.243,-415 583.243,-408"/>
</g>
<!-- Node11 -->
<g id="node10" class="node"><title>Node11</title>
<polygon fill="white" stroke="#bfbfbf" points="681.5,-358 681.5,-377 816.5,-377 816.5,-358 681.5,-358"/>
<text text-anchor="middle" x="749" y="-365" font-family="Helvetica,sans-Serif" font-size="10.00">std::vector&lt; FitParticle &gt;</text>
</g>
<!-- Node11&#45;&gt;Node6 -->
<g id="edge9" class="edge"><title>Node11&#45;&gt;Node6</title>
<path fill="none" stroke="#9a32cd" stroke-dasharray="5,2" d="M826.86,-375.782C861.42,-379.506 901.231,-383.796 931.87,-387.098"/>
<polygon fill="#9a32cd" stroke="#9a32cd" points="827.11,-372.289 816.793,-374.697 826.36,-379.249 827.11,-372.289"/>
<text text-anchor="middle" x="870.5" y="-385.5" font-family="Helvetica,sans-Serif" font-size="10.00"> Photons</text>
</g>
<!-- Node12 -->
<g id="node11" class="node"><title>Node12</title>
<polygon fill="white" stroke="#bfbfbf" points="913,-224.5 913,-254.5 1053,-254.5 1053,-224.5 913,-224.5"/>
<text text-anchor="start" x="921" y="-242.5" font-family="Helvetica,sans-Serif" font-size="10.00">std::vector&lt; ant::analysis</text>
<text text-anchor="middle" x="983" y="-231.5" font-family="Helvetica,sans-Serif" font-size="10.00">::PromptRandom::Hist2 &gt;</text>
</g>
<!-- Node12&#45;&gt;Node2 -->
<g id="edge10" class="edge"><title>Node12&#45;&gt;Node2</title>
<path fill="none" stroke="#9a32cd" stroke-dasharray="5,2" d="M1063.42,-241.528C1146.78,-243.856 1281.66,-248.185 1398,-254.5 1429.04,-256.185 1463.61,-258.641 1491.93,-260.804"/>
<polygon fill="#9a32cd" stroke="#9a32cd" points="1063.35,-238.025 1053.26,-241.247 1063.16,-245.022 1063.35,-238.025"/>
<text text-anchor="middle" x="1313.5" y="-268.5" font-family="Helvetica,sans-Serif" font-size="10.00"> dEvE_combined</text>
<text text-anchor="middle" x="1313.5" y="-257.5" font-family="Helvetica,sans-Serif" font-size="10.00">dEvE_all</text>
</g>
<!-- Node19 -->
<g id="node18" class="node"><title>Node19</title>
<polygon fill="white" stroke="#bfbfbf" points="1229,-163 1229,-204 1398,-204 1398,-163 1229,-163"/>
<text text-anchor="start" x="1237" y="-192" font-family="Helvetica,sans-Serif" font-size="10.00">std::vector&lt; std::vector</text>
<text text-anchor="start" x="1237" y="-181" font-family="Helvetica,sans-Serif" font-size="10.00">&lt; ant::analysis::PromptRandom</text>
<text text-anchor="middle" x="1313.5" y="-170" font-family="Helvetica,sans-Serif" font-size="10.00">::Hist2 &gt; &gt;</text>
</g>
<!-- Node12&#45;&gt;Node19 -->
<g id="edge20" class="edge"><title>Node12&#45;&gt;Node19</title>
<path fill="none" stroke="#9a32cd" stroke-dasharray="5,2" d="M1043.64,-221.887C1052.75,-219.532 1062.09,-217.31 1071,-215.5 1123.02,-204.931 1182.07,-197.034 1228.76,-191.73"/>
<polygon fill="#9a32cd" stroke="#9a32cd" points="1042.63,-218.533 1033.86,-224.481 1044.43,-225.299 1042.63,-218.533"/>
<text text-anchor="middle" x="1141" y="-218.5" font-family="Helvetica,sans-Serif" font-size="10.00"> elements</text>
</g>
<!-- Node13 -->
<g id="node12" class="node"><title>Node13</title>
<g id="a_node12"><a xlink:href="structant_1_1analysis_1_1_prompt_random_1_1_hist2.html" target="_top" xlink:title="ant::analysis::PromptRandom\l::Hist2">
<polygon fill="white" stroke="black" points="670,-246.5 670,-276.5 828,-276.5 828,-246.5 670,-246.5"/>
<text text-anchor="start" x="678" y="-264.5" font-family="Helvetica,sans-Serif" font-size="10.00">ant::analysis::PromptRandom</text>
<text text-anchor="middle" x="749" y="-253.5" font-family="Helvetica,sans-Serif" font-size="10.00">::Hist2</text>
</a>
</g>
</g>
<!-- Node13&#45;&gt;Node2 -->
<g id="edge16" class="edge"><title>Node13&#45;&gt;Node2</title>
<path fill="none" stroke="#9a32cd" stroke-dasharray="5,2" d="M838.236,-267.147C840.853,-267.272 843.445,-267.39 846,-267.5 1091.14,-278.037 1152.77,-284.558 1398,-276.5 1429.07,-275.479 1463.64,-273.078 1491.95,-270.779"/>
<polygon fill="#9a32cd" stroke="#9a32cd" points="838.216,-263.642 828.052,-266.633 837.863,-270.633 838.216,-263.642"/>
<text text-anchor="middle" x="1141" y="-282.5" font-family="Helvetica,sans-Serif" font-size="10.00"> dEvE_all_combined</text>
</g>
<!-- Node13&#45;&gt;Node12 -->
<g id="edge11" class="edge"><title>Node13&#45;&gt;Node12</title>
<path fill="none" stroke="#9a32cd" stroke-dasharray="5,2" d="M838.287,-253.128C862.915,-250.793 889.312,-248.289 912.677,-246.074"/>
<polygon fill="#9a32cd" stroke="#9a32cd" points="837.846,-249.654 828.221,-254.082 838.507,-256.623 837.846,-249.654"/>
<text text-anchor="middle" x="870.5" y="-255.5" font-family="Helvetica,sans-Serif" font-size="10.00"> elements</text>
</g>
<!-- Node14 -->
<g id="node13" class="node"><title>Node14</title>
<g id="a_node13"><a xlink:href="classant_1_1analysis_1_1_prompt_random_1_1_switch.html" target="_top" xlink:title="ant::analysis::PromptRandom\l::Switch">
<polygon fill="white" stroke="black" points="466,-246.5 466,-276.5 624,-276.5 624,-246.5 466,-246.5"/>
<text text-anchor="start" x="474" y="-264.5" font-family="Helvetica,sans-Serif" font-size="10.00">ant::analysis::PromptRandom</text>
<text text-anchor="middle" x="545" y="-253.5" font-family="Helvetica,sans-Serif" font-size="10.00">::Switch</text>
</a>
</g>
</g>
<!-- Node14&#45;&gt;Node2 -->
<g id="edge17" class="edge"><title>Node14&#45;&gt;Node2</title>
<path fill="none" stroke="#9a32cd" stroke-dasharray="5,2" d="M581.434,-281.245C620.848,-301.324 687.023,-329.5 748,-329.5 748,-329.5 748,-329.5 1314.5,-329.5 1388.86,-329.5 1471.94,-299.422 1516.84,-280.505"/>
<polygon fill="#9a32cd" stroke="#9a32cd" points="582.973,-278.101 572.487,-276.591 579.743,-284.311 582.973,-278.101"/>
<text text-anchor="middle" x="983" y="-332.5" font-family="Helvetica,sans-Serif" font-size="10.00"> prs</text>
</g>
<!-- Node14&#45;&gt;Node13 -->
<g id="edge12" class="edge"><title>Node14&#45;&gt;Node13</title>
<path fill="none" stroke="#9a32cd" stroke-dasharray="5,2" d="M634.378,-261.5C646.163,-261.5 658.181,-261.5 669.776,-261.5"/>
<polygon fill="#9a32cd" stroke="#9a32cd" points="634.099,-258 624.098,-261.5 634.098,-265 634.099,-258"/>
<text text-anchor="middle" x="647" y="-264.5" font-family="Helvetica,sans-Serif" font-size="10.00"> d</text>
</g>
<!-- Node21 -->
<g id="node20" class="node"><title>Node21</title>
<g id="a_node20"><a xlink:href="structant_1_1analysis_1_1_prompt_random_1_1_hist1.html" target="_top" xlink:title="ant::analysis::PromptRandom\l::Hist1">
<polygon fill="white" stroke="black" points="670,-167.5 670,-197.5 828,-197.5 828,-167.5 670,-167.5"/>
<text text-anchor="start" x="678" y="-185.5" font-family="Helvetica,sans-Serif" font-size="10.00">ant::analysis::PromptRandom</text>
<text text-anchor="middle" x="749" y="-174.5" font-family="Helvetica,sans-Serif" font-size="10.00">::Hist1</text>
</a>
</g>
</g>
<!-- Node14&#45;&gt;Node21 -->
<g id="edge23" class="edge"><title>Node14&#45;&gt;Node21</title>
<path fill="none" stroke="#9a32cd" stroke-dasharray="5,2" d="M594.069,-242.701C629.305,-228.92 676.521,-210.455 709.33,-197.624"/>
<polygon fill="#9a32cd" stroke="#9a32cd" points="592.508,-239.553 584.47,-246.455 595.058,-246.072 592.508,-239.553"/>
<text text-anchor="middle" x="647" y="-225.5" font-family="Helvetica,sans-Serif" font-size="10.00"> d</text>
</g>
<!-- Node15 -->
<g id="node14" class="node"><title>Node15</title>
<g id="a_node14"><a xlink:href="classant_1_1_piecewise_interval.html" target="_top" xlink:title="ant::PiecewiseInterval\l\&lt; double \&gt;">
<polygon fill="white" stroke="black" points="265,-246.5 265,-276.5 384,-276.5 384,-246.5 265,-246.5"/>
<text text-anchor="start" x="273" y="-264.5" font-family="Helvetica,sans-Serif" font-size="10.00">ant::PiecewiseInterval</text>
<text text-anchor="middle" x="324.5" y="-253.5" font-family="Helvetica,sans-Serif" font-size="10.00">&lt; double &gt;</text>
</a>
</g>
</g>
<!-- Node15&#45;&gt;Node14 -->
<g id="edge13" class="edge"><title>Node15&#45;&gt;Node14</title>
<path fill="none" stroke="#9a32cd" stroke-dasharray="5,2" d="M394.304,-261.5C417.067,-261.5 442.558,-261.5 465.962,-261.5"/>
<polygon fill="#9a32cd" stroke="#9a32cd" points="394.054,-258 384.054,-261.5 394.054,-265 394.054,-258"/>
<text text-anchor="middle" x="425" y="-275.5" font-family="Helvetica,sans-Serif" font-size="10.00"> promptw</text>
<text text-anchor="middle" x="425" y="-264.5" font-family="Helvetica,sans-Serif" font-size="10.00">randomw</text>
</g>
<!-- Node16 -->
<g id="node15" class="node"><title>Node16</title>
<g id="a_node15"><a xlink:title="STL class. ">
<polygon fill="white" stroke="#bfbfbf" points="114,-246.5 114,-276.5 228,-276.5 228,-246.5 114,-246.5"/>
<text text-anchor="start" x="122" y="-264.5" font-family="Helvetica,sans-Serif" font-size="10.00">std::vector&lt; interval</text>
<text text-anchor="middle" x="171" y="-253.5" font-family="Helvetica,sans-Serif" font-size="10.00">&lt; double &gt; &gt;</text>
</a>
</g>
</g>
<!-- Node16&#45;&gt;Node15 -->
<g id="edge14" class="edge"><title>Node16&#45;&gt;Node15</title>
<path fill="none" stroke="midnightblue" d="M238.554,-261.5C247.282,-261.5 256.175,-261.5 264.76,-261.5"/>
<polygon fill="midnightblue" stroke="midnightblue" points="238.413,-258 228.413,-261.5 238.413,-265 238.413,-258"/>
</g>
<!-- Node17 -->
<g id="node16" class="node"><title>Node17</title>
<polygon fill="white" stroke="#bfbfbf" points="0,-252 0,-271 29,-271 29,-252 0,-252"/>
<text text-anchor="middle" x="14.5" y="-259" font-family="Helvetica,sans-Serif" font-size="10.00">T</text>
</g>
<!-- Node17&#45;&gt;Node16 -->
<g id="edge15" class="edge"><title>Node17&#45;&gt;Node16</title>
<path fill="none" stroke="#9a32cd" stroke-dasharray="5,2" d="M39.4618,-261.5C59.2697,-261.5 88.1942,-261.5 113.785,-261.5"/>
<polygon fill="#9a32cd" stroke="#9a32cd" points="39.2109,-258 29.2108,-261.5 39.2108,-265 39.2109,-258"/>
<text text-anchor="middle" x="71.5" y="-264.5" font-family="Helvetica,sans-Serif" font-size="10.00"> elements</text>
</g>
<!-- Node18 -->
<g id="node17" class="node"><title>Node18</title>
<g id="a_node17"><a xlink:href="classant_1_1analysis_1_1utils_1_1_trigger_simulation.html" target="_top" xlink:title="ant::analysis::utils\l::TriggerSimulation">
<polygon fill="white" stroke="black" points="1261,-0.5 1261,-30.5 1366,-30.5 1366,-0.5 1261,-0.5"/>
<text text-anchor="start" x="1269" y="-18.5" font-family="Helvetica,sans-Serif" font-size="10.00">ant::analysis::utils</text>
<text text-anchor="middle" x="1313.5" y="-7.5" font-family="Helvetica,sans-Serif" font-size="10.00">::TriggerSimulation</text>
</a>
</g>
</g>
<!-- Node18&#45;&gt;Node2 -->
<g id="edge18" class="edge"><title>Node18&#45;&gt;Node2</title>
<path fill="none" stroke="#9a32cd" stroke-dasharray="5,2" d="M1376.42,-11.6163C1408.9,-12.8326 1447.36,-19.8364 1474,-42.5 1538.64,-97.5003 1548.42,-209.848 1549.81,-250.443"/>
<polygon fill="#9a32cd" stroke="#9a32cd" points="1376.18,-8.11088 1366.11,-11.4123 1376.04,-15.1095 1376.18,-8.11088"/>
<text text-anchor="middle" x="1445" y="-45.5" font-family="Helvetica,sans-Serif" font-size="10.00"> triggersimu</text>
</g>
<!-- Node19&#45;&gt;Node2 -->
<g id="edge19" class="edge"><title>Node19&#45;&gt;Node2</title>
<path fill="none" stroke="#9a32cd" stroke-dasharray="5,2" d="M1408.28,-196.09C1430.32,-200.738 1453.39,-207.028 1474,-215.5 1495.18,-224.206 1516.75,-239.09 1531.47,-250.361"/>
<polygon fill="#9a32cd" stroke="#9a32cd" points="1408.73,-192.611 1398.24,-194.068 1407.35,-199.473 1408.73,-192.611"/>
<text text-anchor="middle" x="1445" y="-218.5" font-family="Helvetica,sans-Serif" font-size="10.00"> dEvE</text>
</g>
<!-- Node20 -->
<g id="node19" class="node"><title>Node20</title>
<polygon fill="white" stroke="#bfbfbf" points="1071,-91.5 1071,-121.5 1211,-121.5 1211,-91.5 1071,-91.5"/>
<text text-anchor="start" x="1079" y="-109.5" font-family="Helvetica,sans-Serif" font-size="10.00">std::vector&lt; ant::analysis</text>
<text text-anchor="middle" x="1141" y="-98.5" font-family="Helvetica,sans-Serif" font-size="10.00">::PromptRandom::Hist1 &gt;</text>
</g>
<!-- Node20&#45;&gt;Node2 -->
<g id="edge21" class="edge"><title>Node20&#45;&gt;Node2</title>
<path fill="none" stroke="#9a32cd" stroke-dasharray="5,2" d="M1185.23,-87.7935C1238.09,-67.8938 1329.04,-43.4673 1398,-76.5 1475.85,-113.793 1526.49,-212.555 1543.57,-250.426"/>
<polygon fill="#9a32cd" stroke="#9a32cd" points="1183.87,-84.5647 1175.81,-91.4417 1186.4,-91.0918 1183.87,-84.5647"/>
<text text-anchor="middle" x="1313.5" y="-145.5" font-family="Helvetica,sans-Serif" font-size="10.00"> fit_2</text>
<text text-anchor="middle" x="1313.5" y="-134.5" font-family="Helvetica,sans-Serif" font-size="10.00">raw_pE</text>
<text text-anchor="middle" x="1313.5" y="-123.5" font-family="Helvetica,sans-Serif" font-size="10.00">raw_2</text>
<text text-anchor="middle" x="1313.5" y="-112.5" font-family="Helvetica,sans-Serif" font-size="10.00">fit_pE</text>
<text text-anchor="middle" x="1313.5" y="-101.5" font-family="Helvetica,sans-Serif" font-size="10.00">fit_n</text>
<text text-anchor="middle" x="1313.5" y="-90.5" font-family="Helvetica,sans-Serif" font-size="10.00">raw_mm</text>
<text text-anchor="middle" x="1313.5" y="-79.5" font-family="Helvetica,sans-Serif" font-size="10.00">raw_n</text>
</g>
<!-- Node21&#45;&gt;Node20 -->
<g id="edge22" class="edge"><title>Node21&#45;&gt;Node20</title>
<path fill="none" stroke="#9a32cd" stroke-dasharray="5,2" d="M837.254,-165.497C907.804,-151.748 1005.78,-132.656 1070.95,-119.956"/>
<polygon fill="#9a32cd" stroke="#9a32cd" points="836.197,-162.137 827.051,-167.485 837.536,-169.007 836.197,-162.137"/>
<text text-anchor="middle" x="870.5" y="-166.5" font-family="Helvetica,sans-Serif" font-size="10.00"> elements</text>
</g>
</g>
</svg>
