<?xml version="1.0" encoding="UTF-8" standalone="no"?>
<!DOCTYPE svg PUBLIC "-//W3C//DTD SVG 1.1//EN"
 "http://www.w3.org/Graphics/SVG/1.1/DTD/svg11.dtd">
<!-- Generated by graphviz version 2.38.0 (20140413.2041)
 -->
<!-- Title: ant::analysis::physics::JustParticles Pages: 1 -->
<svg width="1270pt" height="352pt"
 viewBox="0.00 0.00 1270.00 352.00" xmlns="http://www.w3.org/2000/svg" xmlns:xlink="http://www.w3.org/1999/xlink">
<g id="graph0" class="graph" transform="scale(1 1) rotate(0) translate(4 348)">
<title>ant::analysis::physics::JustParticles</title>
<polygon fill="white" stroke="none" points="-4,4 -4,-348 1266,-348 1266,4 -4,4"/>
<!-- Node2 -->
<g id="node1" class="node"><title>Node2</title>
<polygon fill="#bfbfbf" stroke="black" points="1144,-130.5 1144,-160.5 1262,-160.5 1262,-130.5 1144,-130.5"/>
<text text-anchor="start" x="1152" y="-148.5" font-family="Helvetica,sans-Serif" font-size="10.00">ant::analysis::physics</text>
<text text-anchor="middle" x="1203" y="-137.5" font-family="Helvetica,sans-Serif" font-size="10.00">::JustParticles</text>
</g>
<!-- Node3 -->
<g id="node2" class="node"><title>Node3</title>
<g id="a_node2"><a xlink:href="classant_1_1analysis_1_1_physics.html" target="_top" xlink:title="ant::analysis::Physics">
<polygon fill="white" stroke="black" points="894,-255 894,-274 1012,-274 1012,-255 894,-255"/>
<text text-anchor="middle" x="953" y="-262" font-family="Helvetica,sans-Serif" font-size="10.00">ant::analysis::Physics</text>
</a>
</g>
</g>
<!-- Node3&#45;&gt;Node2 -->
<g id="edge1" class="edge"><title>Node3&#45;&gt;Node2</title>
<path fill="none" stroke="midnightblue" d="M1022.2,-252.74C1055.1,-245.104 1094.23,-233.024 1126,-214.5 1150.94,-199.959 1174.75,-176.19 1188.87,-160.695"/>
<polygon fill="midnightblue" stroke="midnightblue" points="1021.2,-249.377 1012.2,-254.97 1022.73,-256.209 1021.2,-249.377"/>
</g>
<!-- Node4 -->
<g id="node3" class="node"><title>Node4</title>
<g id="a_node3"><a xlink:href="classant_1_1analysis_1_1_histogram_factory.html" target="_top" xlink:title="ant::analysis::Histogram\lFactory">
<polygon fill="white" stroke="black" points="581.5,-249.5 581.5,-279.5 714.5,-279.5 714.5,-249.5 581.5,-249.5"/>
<text text-anchor="start" x="589.5" y="-267.5" font-family="Helvetica,sans-Serif" font-size="10.00">ant::analysis::Histogram</text>
<text text-anchor="middle" x="648" y="-256.5" font-family="Helvetica,sans-Serif" font-size="10.00">Factory</text>
</a>
</g>
</g>
<!-- Node4&#45;&gt;Node3 -->
<g id="edge2" class="edge"><title>Node4&#45;&gt;Node3</title>
<path fill="none" stroke="#9a32cd" stroke-dasharray="5,2" d="M724.986,-264.5C777.315,-264.5 845.793,-264.5 893.801,-264.5"/>
<polygon fill="#9a32cd" stroke="#9a32cd" points="724.747,-261 714.746,-264.5 724.746,-268 724.747,-261"/>
<text text-anchor="middle" x="796.5" y="-267.5" font-family="Helvetica,sans-Serif" font-size="10.00"> HistFac</text>
</g>
<!-- Node5 -->
<g id="node4" class="node"><title>Node5</title>
<polygon fill="white" stroke="#bfbfbf" points="887,-195 887,-236 1019,-236 1019,-195 887,-195"/>
<text text-anchor="start" x="895" y="-224" font-family="Helvetica,sans-Serif" font-size="10.00">std::vector&lt; std::unique</text>
<text text-anchor="start" x="895" y="-213" font-family="Helvetica,sans-Serif" font-size="10.00">_ptr&lt; ant::analysis::utils</text>
<text text-anchor="middle" x="953" y="-202" font-family="Helvetica,sans-Serif" font-size="10.00">::KinFitter &gt; &gt;</text>
</g>
<!-- Node5&#45;&gt;Node2 -->
<g id="edge3" class="edge"><title>Node5&#45;&gt;Node2</title>
<path fill="none" stroke="#9a32cd" stroke-dasharray="5,2" d="M1029.49,-203.327C1059.86,-197.495 1094.97,-189.559 1126,-179.5 1141.68,-174.418 1158.46,-167.12 1172.26,-160.587"/>
<polygon fill="#9a32cd" stroke="#9a32cd" points="1028.57,-199.939 1019.38,-205.224 1029.86,-206.819 1028.57,-199.939"/>
<text text-anchor="middle" x="1088" y="-202.5" font-family="Helvetica,sans-Serif" font-size="10.00"> fitters</text>
</g>
<!-- Node6 -->
<g id="node5" class="node"><title>Node6</title>
<polygon fill="white" stroke="#bfbfbf" points="577,-200.5 577,-230.5 719,-230.5 719,-200.5 577,-200.5"/>
<text text-anchor="start" x="585" y="-218.5" font-family="Helvetica,sans-Serif" font-size="10.00">std::unique_ptr&lt; ant</text>
<text text-anchor="middle" x="648" y="-207.5" font-family="Helvetica,sans-Serif" font-size="10.00">::analysis::utils::KinFitter &gt;</text>
</g>
<!-- Node6&#45;&gt;Node5 -->
<g id="edge4" class="edge"><title>Node6&#45;&gt;Node5</title>
<path fill="none" stroke="#9a32cd" stroke-dasharray="5,2" d="M729.557,-215.5C778.702,-215.5 840.71,-215.5 886.766,-215.5"/>
<polygon fill="#9a32cd" stroke="#9a32cd" points="729.276,-212 719.276,-215.5 729.276,-219 729.276,-212"/>
<text text-anchor="middle" x="796.5" y="-218.5" font-family="Helvetica,sans-Serif" font-size="10.00"> elements</text>
</g>
<!-- Node7 -->
<g id="node6" class="node"><title>Node7</title>
<g id="a_node6"><a xlink:href="classant_1_1analysis_1_1utils_1_1_kin_fitter.html" target="_top" xlink:title="ant::analysis::utils\l::KinFitter">
<polygon fill="white" stroke="black" points="319,-215.5 319,-245.5 421,-245.5 421,-215.5 319,-215.5"/>
<text text-anchor="start" x="327" y="-233.5" font-family="Helvetica,sans-Serif" font-size="10.00">ant::analysis::utils</text>
<text text-anchor="middle" x="370" y="-222.5" font-family="Helvetica,sans-Serif" font-size="10.00">::KinFitter</text>
</a>
</g>
</g>
<!-- Node7&#45;&gt;Node6 -->
<g id="edge5" class="edge"><title>Node7&#45;&gt;Node6</title>
<path fill="none" stroke="#9a32cd" stroke-dasharray="5,2" d="M431.31,-227.222C474.169,-224.893 531.858,-221.758 576.79,-219.316"/>
<polygon fill="#9a32cd" stroke="#9a32cd" points="431.097,-223.729 421.302,-227.766 431.477,-230.718 431.097,-223.729"/>
<text text-anchor="middle" x="502" y="-229.5" font-family="Helvetica,sans-Serif" font-size="10.00"> ptr</text>
</g>
<!-- Node8 -->
<g id="node7" class="node"><title>Node8</title>
<g id="a_node7"><a xlink:href="classant_1_1analysis_1_1utils_1_1_fitter.html" target="_top" xlink:title="ant::analysis::utils\l::Fitter">
<polygon fill="white" stroke="black" points="109.5,-313.5 109.5,-343.5 211.5,-343.5 211.5,-313.5 109.5,-313.5"/>
<text text-anchor="start" x="117.5" y="-331.5" font-family="Helvetica,sans-Serif" font-size="10.00">ant::analysis::utils</text>
<text text-anchor="middle" x="160.5" y="-320.5" font-family="Helvetica,sans-Serif" font-size="10.00">::Fitter</text>
</a>
</g>
</g>
<!-- Node8&#45;&gt;Node7 -->
<g id="edge6" class="edge"><title>Node8&#45;&gt;Node7</title>
<path fill="none" stroke="midnightblue" d="M214.205,-309.889C218.887,-308.112 223.54,-306.3 228,-304.5 258.255,-292.287 266.041,-289.529 295,-274.5 312.114,-265.618 330.77,-254.515 345.069,-245.685"/>
<polygon fill="midnightblue" stroke="midnightblue" points="212.749,-306.697 204.605,-313.474 215.198,-313.254 212.749,-306.697"/>
</g>
<!-- Node9 -->
<g id="node8" class="node"><title>Node9</title>
<g id="a_node8"><a xlink:href="structant_1_1analysis_1_1utils_1_1_kin_fitter_1_1_target__t.html" target="_top" xlink:title="ant::analysis::utils\l::KinFitter::Target_t">
<polygon fill="white" stroke="black" points="108,-264.5 108,-294.5 213,-294.5 213,-264.5 108,-264.5"/>
<text text-anchor="start" x="116" y="-282.5" font-family="Helvetica,sans-Serif" font-size="10.00">ant::analysis::utils</text>
<text text-anchor="middle" x="160.5" y="-271.5" font-family="Helvetica,sans-Serif" font-size="10.00">::KinFitter::Target_t</text>
</a>
</g>
</g>
<!-- Node9&#45;&gt;Node7 -->
<g id="edge7" class="edge"><title>Node9&#45;&gt;Node7</title>
<path fill="none" stroke="#9a32cd" stroke-dasharray="5,2" d="M223.159,-264.94C253.66,-257.737 290.005,-249.154 318.782,-242.359"/>
<polygon fill="#9a32cd" stroke="#9a32cd" points="221.987,-261.62 213.059,-267.325 223.595,-268.433 221.987,-261.62"/>
<text text-anchor="middle" x="270.5" y="-262.5" font-family="Helvetica,sans-Serif" font-size="10.00"> Target</text>
</g>
<!-- Node10 -->
<g id="node9" class="node"><title>Node10</title>
<g id="a_node9"><a xlink:href="structant_1_1analysis_1_1utils_1_1_kin_fitter_1_1_beam_e__t.html" target="_top" xlink:title="ant::analysis::utils\l::KinFitter::BeamE_t">
<polygon fill="white" stroke="black" points="105.5,-215.5 105.5,-245.5 215.5,-245.5 215.5,-215.5 105.5,-215.5"/>
<text text-anchor="start" x="113.5" y="-233.5" font-family="Helvetica,sans-Serif" font-size="10.00">ant::analysis::utils</text>
<text text-anchor="middle" x="160.5" y="-222.5" font-family="Helvetica,sans-Serif" font-size="10.00">::KinFitter::BeamE_t</text>
</a>
</g>
</g>
<!-- Node10&#45;&gt;Node7 -->
<g id="edge8" class="edge"><title>Node10&#45;&gt;Node7</title>
<path fill="none" stroke="#9a32cd" stroke-dasharray="5,2" d="M226.106,-230.5C256.051,-230.5 291.093,-230.5 318.982,-230.5"/>
<polygon fill="#9a32cd" stroke="#9a32cd" points="225.747,-227 215.747,-230.5 225.747,-234 225.747,-227"/>
<text text-anchor="middle" x="270.5" y="-233.5" font-family="Helvetica,sans-Serif" font-size="10.00"> BeamE</text>
</g>
<!-- Node11 -->
<g id="node10" class="node"><title>Node11</title>
<polygon fill="white" stroke="#bfbfbf" points="0,-221 0,-240 56,-240 56,-221 0,-221"/>
<text text-anchor="middle" x="28" y="-228" font-family="Helvetica,sans-Serif" font-size="10.00">V_S_P_t</text>
</g>
<!-- Node11&#45;&gt;Node10 -->
<g id="edge9" class="edge"><title>Node11&#45;&gt;Node10</title>
<path fill="none" stroke="midnightblue" d="M66.2548,-230.5C78.4109,-230.5 92.1666,-230.5 105.306,-230.5"/>
<polygon fill="midnightblue" stroke="midnightblue" points="66.0397,-227 56.0397,-230.5 66.0397,-234 66.0397,-227"/>
</g>
<!-- Node12 -->
<g id="node11" class="node"><title>Node12</title>
<polygon fill="white" stroke="#bfbfbf" points="93,-177 93,-196 228,-196 228,-177 93,-177"/>
<text text-anchor="middle" x="160.5" y="-184" font-family="Helvetica,sans-Serif" font-size="10.00">std::vector&lt; FitParticle &gt;</text>
</g>
<!-- Node12&#45;&gt;Node7 -->
<g id="edge10" class="edge"><title>Node12&#45;&gt;Node7</title>
<path fill="none" stroke="#9a32cd" stroke-dasharray="5,2" d="M216.552,-198.174C248.357,-204.918 288.059,-213.337 318.973,-219.892"/>
<polygon fill="#9a32cd" stroke="#9a32cd" points="217.033,-194.698 206.524,-196.047 215.581,-201.546 217.033,-194.698"/>
<text text-anchor="middle" x="270.5" y="-217.5" font-family="Helvetica,sans-Serif" font-size="10.00"> Photons</text>
</g>
<!-- Node13 -->
<g id="node12" class="node"><title>Node13</title>
<g id="a_node12"><a xlink:href="classant_1_1_piecewise_interval.html" target="_top" xlink:title="ant::PiecewiseInterval\l\&lt; unsigned \&gt;">
<polygon fill="white" stroke="black" points="737,-149.5 737,-179.5 856,-179.5 856,-149.5 737,-149.5"/>
<text text-anchor="start" x="745" y="-167.5" font-family="Helvetica,sans-Serif" font-size="10.00">ant::PiecewiseInterval</text>
<text text-anchor="middle" x="796.5" y="-156.5" font-family="Helvetica,sans-Serif" font-size="10.00">&lt; unsigned &gt;</text>
</a>
</g>
</g>
<!-- Node13&#45;&gt;Node2 -->
<g id="edge11" class="edge"><title>Node13&#45;&gt;Node2</title>
<path fill="none" stroke="#9a32cd" stroke-dasharray="5,2" d="M866.615,-162.019C933.107,-159.522 1036.46,-155.353 1126,-150.5 1131.81,-150.185 1137.87,-149.831 1143.92,-149.46"/>
<polygon fill="#9a32cd" stroke="#9a32cd" points="866.13,-158.534 856.267,-162.405 866.391,-165.529 866.13,-158.534"/>
<text text-anchor="middle" x="953" y="-165.5" font-family="Helvetica,sans-Serif" font-size="10.00"> multiplicities</text>
</g>
<!-- Node14 -->
<g id="node13" class="node"><title>Node14</title>
<g id="a_node13"><a xlink:title="STL class. ">
<polygon fill="white" stroke="#bfbfbf" points="445,-143.5 445,-173.5 559,-173.5 559,-143.5 445,-143.5"/>
<text text-anchor="start" x="453" y="-161.5" font-family="Helvetica,sans-Serif" font-size="10.00">std::vector&lt; interval</text>
<text text-anchor="middle" x="502" y="-150.5" font-family="Helvetica,sans-Serif" font-size="10.00">&lt; unsigned &gt; &gt;</text>
</a>
</g>
</g>
<!-- Node14&#45;&gt;Node13 -->
<g id="edge12" class="edge"><title>Node14&#45;&gt;Node13</title>
<path fill="none" stroke="midnightblue" d="M569.201,-159.858C619.635,-160.893 688.425,-162.304 736.882,-163.298"/>
<polygon fill="midnightblue" stroke="midnightblue" points="569.121,-156.356 559.051,-159.65 568.977,-163.354 569.121,-156.356"/>
</g>
<!-- Node15 -->
<g id="node14" class="node"><title>Node15</title>
<polygon fill="white" stroke="#bfbfbf" points="146,-124 146,-143 175,-143 175,-124 146,-124"/>
<text text-anchor="middle" x="160.5" y="-131" font-family="Helvetica,sans-Serif" font-size="10.00">T</text>
</g>
<!-- Node15&#45;&gt;Node14 -->
<g id="edge13" class="edge"><title>Node15&#45;&gt;Node14</title>
<path fill="none" stroke="#9a32cd" stroke-dasharray="5,2" d="M185.426,-135.262C238.91,-139.2 369.356,-148.806 444.729,-154.356"/>
<polygon fill="#9a32cd" stroke="#9a32cd" points="185.459,-131.755 175.229,-134.511 184.945,-138.736 185.459,-131.755"/>
<text text-anchor="middle" x="270.5" y="-146.5" font-family="Helvetica,sans-Serif" font-size="10.00"> elements</text>
</g>
<!-- Node21 -->
<g id="node20" class="node"><title>Node21</title>
<g id="a_node20"><a xlink:title="STL class. ">
<polygon fill="white" stroke="#bfbfbf" points="313,-98.5 313,-128.5 427,-128.5 427,-98.5 313,-98.5"/>
<text text-anchor="start" x="321" y="-116.5" font-family="Helvetica,sans-Serif" font-size="10.00">std::vector&lt; interval</text>
<text text-anchor="middle" x="370" y="-105.5" font-family="Helvetica,sans-Serif" font-size="10.00">&lt; double &gt; &gt;</text>
</a>
</g>
</g>
<!-- Node15&#45;&gt;Node21 -->
<g id="edge20" class="edge"><title>Node15&#45;&gt;Node21</title>
<path fill="none" stroke="#9a32cd" stroke-dasharray="5,2" d="M185.363,-130.85C202.282,-128.997 225.524,-126.506 246,-124.5 267.871,-122.357 291.946,-120.167 312.955,-118.311"/>
<polygon fill="#9a32cd" stroke="#9a32cd" points="184.807,-127.39 175.251,-131.963 185.574,-134.347 184.807,-127.39"/>
<text text-anchor="middle" x="270.5" y="-127.5" font-family="Helvetica,sans-Serif" font-size="10.00"> elements</text>
</g>
<!-- Node16 -->
<g id="node15" class="node"><title>Node16</title>
<g id="a_node15"><a xlink:href="structant_1_1analysis_1_1physics_1_1_just_particles_1_1_tree__t.html" target="_top" xlink:title="ant::analysis::physics\l::JustParticles::Tree_t">
<polygon fill="white" stroke="black" points="894,-49.5 894,-79.5 1012,-79.5 1012,-49.5 894,-49.5"/>
<text text-anchor="start" x="902" y="-67.5" font-family="Helvetica,sans-Serif" font-size="10.00">ant::analysis::physics</text>
<text text-anchor="middle" x="953" y="-56.5" font-family="Helvetica,sans-Serif" font-size="10.00">::JustParticles::Tree_t</text>
</a>
</g>
</g>
<!-- Node16&#45;&gt;Node2 -->
<g id="edge14" class="edge"><title>Node16&#45;&gt;Node2</title>
<path fill="none" stroke="#9a32cd" stroke-dasharray="5,2" d="M1022.02,-81.1763C1053.91,-89.5798 1092.24,-100.524 1126,-112.5 1140.64,-117.694 1156.46,-124.379 1169.85,-130.372"/>
<polygon fill="#9a32cd" stroke="#9a32cd" points="1022.91,-77.7891 1012.35,-78.6515 1021.14,-84.5624 1022.91,-77.7891"/>
<text text-anchor="middle" x="1088" y="-115.5" font-family="Helvetica,sans-Serif" font-size="10.00"> t</text>
</g>
<!-- Node17 -->
<g id="node16" class="node"><title>Node17</title>
<g id="a_node16"><a xlink:href="classant_1_1_wrap_t_tree.html" target="_top" xlink:title="The WrapTTree struct simplifies TTree handling in physics classes. ">
<polygon fill="white" stroke="black" points="605,-55 605,-74 691,-74 691,-55 605,-55"/>
<text text-anchor="middle" x="648" y="-62" font-family="Helvetica,sans-Serif" font-size="10.00">ant::WrapTTree</text>
</a>
</g>
</g>
<!-- Node17&#45;&gt;Node16 -->
<g id="edge15" class="edge"><title>Node17&#45;&gt;Node16</title>
<path fill="none" stroke="midnightblue" d="M701.452,-64.5C755.109,-64.5 838.275,-64.5 893.898,-64.5"/>
<polygon fill="midnightblue" stroke="midnightblue" points="701.131,-61.0001 691.131,-64.5 701.131,-68.0001 701.131,-61.0001"/>
</g>
<!-- Node18 -->
<g id="node17" class="node"><title>Node18</title>
<g id="a_node17"><a xlink:href="classant_1_1analysis_1_1utils_1_1_trigger_simulation.html" target="_top" xlink:title="ant::analysis::utils\l::TriggerSimulation">
<polygon fill="white" stroke="black" points="900.5,-0.5 900.5,-30.5 1005.5,-30.5 1005.5,-0.5 900.5,-0.5"/>
<text text-anchor="start" x="908.5" y="-18.5" font-family="Helvetica,sans-Serif" font-size="10.00">ant::analysis::utils</text>
<text text-anchor="middle" x="953" y="-7.5" font-family="Helvetica,sans-Serif" font-size="10.00">::TriggerSimulation</text>
</a>
</g>
</g>
<!-- Node18&#45;&gt;Node2 -->
<g id="edge16" class="edge"><title>Node18&#45;&gt;Node2</title>
<path fill="none" stroke="#9a32cd" stroke-dasharray="5,2" d="M1015.43,-29.3895C1049.63,-38.8381 1092.03,-53.4914 1126,-74.5 1151.03,-89.9819 1175,-114.533 1189.11,-130.327"/>
<polygon fill="#9a32cd" stroke="#9a32cd" points="1016.12,-25.9515 1005.56,-26.7424 1014.31,-32.7127 1016.12,-25.9515"/>
<text text-anchor="middle" x="1088" y="-77.5" font-family="Helvetica,sans-Serif" font-size="10.00"> triggersimu</text>
</g>
<!-- Node19 -->
<g id="node18" class="node"><title>Node19</title>
<g id="a_node18"><a xlink:href="classant_1_1analysis_1_1_prompt_random_1_1_switch.html" target="_top" xlink:title="ant::analysis::PromptRandom\l::Switch">
<polygon fill="white" stroke="black" points="874,-98.5 874,-128.5 1032,-128.5 1032,-98.5 874,-98.5"/>
<text text-anchor="start" x="882" y="-116.5" font-family="Helvetica,sans-Serif" font-size="10.00">ant::analysis::PromptRandom</text>
<text text-anchor="middle" x="953" y="-105.5" font-family="Helvetica,sans-Serif" font-size="10.00">::Switch</text>
</a>
</g>
</g>
<!-- Node19&#45;&gt;Node2 -->
<g id="edge17" class="edge"><title>Node19&#45;&gt;Node2</title>
<path fill="none" stroke="#9a32cd" stroke-dasharray="5,2" d="M1042.46,-124.914C1076.18,-129.265 1113.74,-134.111 1143.93,-138.007"/>
<polygon fill="#9a32cd" stroke="#9a32cd" points="1042.49,-121.39 1032.13,-123.581 1041.6,-128.332 1042.49,-121.39"/>
<text text-anchor="middle" x="1088" y="-138.5" font-family="Helvetica,sans-Serif" font-size="10.00"> promptrandom</text>
</g>
<!-- Node20 -->
<g id="node19" class="node"><title>Node20</title>
<g id="a_node19"><a xlink:href="classant_1_1_piecewise_interval.html" target="_top" xlink:title="ant::PiecewiseInterval\l\&lt; double \&gt;">
<polygon fill="white" stroke="black" points="588.5,-98.5 588.5,-128.5 707.5,-128.5 707.5,-98.5 588.5,-98.5"/>
<text text-anchor="start" x="596.5" y="-116.5" font-family="Helvetica,sans-Serif" font-size="10.00">ant::PiecewiseInterval</text>
<text text-anchor="middle" x="648" y="-105.5" font-family="Helvetica,sans-Serif" font-size="10.00">&lt; double &gt;</text>
</a>
</g>
</g>
<!-- Node20&#45;&gt;Node19 -->
<g id="edge18" class="edge"><title>Node20&#45;&gt;Node19</title>
<path fill="none" stroke="#9a32cd" stroke-dasharray="5,2" d="M718.043,-113.5C764.447,-113.5 825.694,-113.5 873.882,-113.5"/>
<polygon fill="#9a32cd" stroke="#9a32cd" points="717.781,-110 707.781,-113.5 717.781,-117 717.781,-110"/>
<text text-anchor="middle" x="796.5" y="-127.5" font-family="Helvetica,sans-Serif" font-size="10.00"> promptw</text>
<text text-anchor="middle" x="796.5" y="-116.5" font-family="Helvetica,sans-Serif" font-size="10.00">randomw</text>
</g>
<!-- Node21&#45;&gt;Node20 -->
<g id="edge19" class="edge"><title>Node21&#45;&gt;Node20</title>
<path fill="none" stroke="midnightblue" d="M437.338,-113.5C483.25,-113.5 543.81,-113.5 588.034,-113.5"/>
<polygon fill="midnightblue" stroke="midnightblue" points="437.185,-110 427.185,-113.5 437.185,-117 437.185,-110"/>
</g>
</g>
</svg>
