<?xml version="1.0" encoding="UTF-8" standalone="no"?>
<!DOCTYPE svg PUBLIC "-//W3C//DTD SVG 1.1//EN"
 "http://www.w3.org/Graphics/SVG/1.1/DTD/svg11.dtd">
<!-- Generated by graphviz version 2.38.0 (20140413.2041)
 -->
<!-- Title: ant::calibration::Time Pages: 1 -->
<svg width="858pt" height="138pt"
 viewBox="0.00 0.00 858.00 137.50" xmlns="http://www.w3.org/2000/svg" xmlns:xlink="http://www.w3.org/1999/xlink">
<g id="graph0" class="graph" transform="scale(1 1) rotate(0) translate(4 133.5)">
<title>ant::calibration::Time</title>
<polygon fill="white" stroke="none" points="-4,4 -4,-133.5 854,-133.5 854,4 -4,4"/>
<!-- Node0 -->
<g id="node1" class="node"><title>Node0</title>
<polygon fill="#bfbfbf" stroke="black" points="523,-38.5 523,-57.5 640,-57.5 640,-38.5 523,-38.5"/>
<text text-anchor="middle" x="581.5" y="-45.5" font-family="Helvetica,sans-Serif" font-size="10.00">ant::calibration::Time</text>
</g>
<!-- Node7 -->
<g id="node8" class="node"><title>Node7</title>
<g id="a_node8"><a xlink:href="classant_1_1calibration_1_1_new_tagger___time.html" target="_top" xlink:title="ant::calibration::NewTagger_Time">
<polygon fill="white" stroke="black" points="676,-76.5 676,-95.5 850,-95.5 850,-76.5 676,-76.5"/>
<text text-anchor="middle" x="763" y="-83.5" font-family="Helvetica,sans-Serif" font-size="10.00">ant::calibration::NewTagger_Time</text>
</a>
</g>
</g>
<!-- Node0&#45;&gt;Node7 -->
<g id="edge7" class="edge"><title>Node0&#45;&gt;Node7</title>
<path fill="none" stroke="midnightblue" d="M637.677,-59.681C663.133,-65.0699 692.968,-71.3861 717.03,-76.4799"/>
<polygon fill="midnightblue" stroke="midnightblue" points="638.304,-56.2361 627.795,-57.589 636.854,-63.0843 638.304,-56.2361"/>
</g>
<!-- Node8 -->
<g id="node9" class="node"><title>Node8</title>
<g id="a_node9"><a xlink:href="classant_1_1calibration_1_1_t_a_p_s___time.html" target="_top" xlink:title="ant::calibration::TAPS_Time">
<polygon fill="white" stroke="black" points="690,-38.5 690,-57.5 836,-57.5 836,-38.5 690,-38.5"/>
<text text-anchor="middle" x="763" y="-45.5" font-family="Helvetica,sans-Serif" font-size="10.00">ant::calibration::TAPS_Time</text>
</a>
</g>
</g>
<!-- Node0&#45;&gt;Node8 -->
<g id="edge8" class="edge"><title>Node0&#45;&gt;Node8</title>
<path fill="none" stroke="midnightblue" d="M650.451,-48C663.328,-48 676.842,-48 689.843,-48"/>
<polygon fill="midnightblue" stroke="midnightblue" points="650.283,-44.5001 640.283,-48 650.283,-51.5001 650.283,-44.5001"/>
</g>
<!-- Node9 -->
<g id="node10" class="node"><title>Node9</title>
<g id="a_node10"><a xlink:href="classant_1_1calibration_1_1_t_a_p_s_veto___time.html" target="_top" xlink:title="ant::calibration::TAPSVeto_Time">
<polygon fill="white" stroke="black" points="679,-0.5 679,-19.5 847,-19.5 847,-0.5 679,-0.5"/>
<text text-anchor="middle" x="763" y="-7.5" font-family="Helvetica,sans-Serif" font-size="10.00">ant::calibration::TAPSVeto_Time</text>
</a>
</g>
</g>
<!-- Node0&#45;&gt;Node9 -->
<g id="edge9" class="edge"><title>Node0&#45;&gt;Node9</title>
<path fill="none" stroke="midnightblue" d="M637.677,-36.319C663.133,-30.9301 692.968,-24.6139 717.03,-19.5201"/>
<polygon fill="midnightblue" stroke="midnightblue" points="636.854,-32.9157 627.795,-38.411 638.304,-39.7639 636.854,-32.9157"/>
</g>
<!-- Node1 -->
<g id="node2" class="node"><title>Node1</title>
<g id="a_node2"><a xlink:href="classant_1_1_calibration_1_1_module.html" target="_top" xlink:title="The Module class is typically used for calibrations. ">
<polygon fill="white" stroke="black" points="357,-60.5 357,-79.5 487,-79.5 487,-60.5 357,-60.5"/>
<text text-anchor="middle" x="422" y="-67.5" font-family="Helvetica,sans-Serif" font-size="10.00">ant::Calibration::Module</text>
</a>
</g>
</g>
<!-- Node1&#45;&gt;Node0 -->
<g id="edge1" class="edge"><title>Node1&#45;&gt;Node0</title>
<path fill="none" stroke="midnightblue" d="M497.134,-59.6448C505.764,-58.4393 514.469,-57.2234 522.831,-56.0554"/>
<polygon fill="midnightblue" stroke="midnightblue" points="496.481,-56.2019 487.061,-61.0518 497.449,-63.1346 496.481,-56.2019"/>
</g>
<!-- Node2 -->
<g id="node3" class="node"><title>Node2</title>
<g id="a_node3"><a xlink:href="classant_1_1_calibration_1_1_physics_module.html" target="_top" xlink:title="The PhysicsModule class gives the modules the ability to create histograms from events as well as fit...">
<polygon fill="white" stroke="black" points="190,-99 190,-129 321,-129 321,-99 190,-99"/>
<text text-anchor="start" x="198" y="-117" font-family="Helvetica,sans-Serif" font-size="10.00">ant::Calibration::Physics</text>
<text text-anchor="middle" x="255.5" y="-106" font-family="Helvetica,sans-Serif" font-size="10.00">Module</text>
</a>
</g>
</g>
<!-- Node2&#45;&gt;Node1 -->
<g id="edge2" class="edge"><title>Node2&#45;&gt;Node1</title>
<path fill="none" stroke="midnightblue" d="M322.372,-96.3806C343.815,-90.6453 366.805,-84.4959 385.19,-79.5783"/>
<polygon fill="midnightblue" stroke="midnightblue" points="321.407,-93.0156 312.651,-98.9808 323.216,-99.7779 321.407,-93.0156"/>
</g>
<!-- Node3 -->
<g id="node4" class="node"><title>Node3</title>
<g id="a_node4"><a xlink:href="classant_1_1_calibration_1_1_base_module.html" target="_top" xlink:title="The BaseModule class provides a name for identification. ">
<polygon fill="white" stroke="black" points="0,-104.5 0,-123.5 154,-123.5 154,-104.5 0,-104.5"/>
<text text-anchor="middle" x="77" y="-111.5" font-family="Helvetica,sans-Serif" font-size="10.00">ant::Calibration::BaseModule</text>
</a>
</g>
</g>
<!-- Node3&#45;&gt;Node2 -->
<g id="edge3" class="edge"><title>Node3&#45;&gt;Node2</title>
<path fill="none" stroke="midnightblue" d="M164.261,-114C172.915,-114 181.595,-114 189.968,-114"/>
<polygon fill="midnightblue" stroke="midnightblue" points="164.133,-110.5 154.133,-114 164.132,-117.5 164.133,-110.5"/>
</g>
<!-- Node4 -->
<g id="node5" class="node"><title>Node4</title>
<g id="a_node5"><a xlink:href="structant_1_1_updateable__traits.html" target="_top" xlink:title="The Updateable_traits class used by the UpdateableManager. ">
<polygon fill="white" stroke="black" points="193.5,-60.5 193.5,-79.5 317.5,-79.5 317.5,-60.5 193.5,-60.5"/>
<text text-anchor="middle" x="255.5" y="-67.5" font-family="Helvetica,sans-Serif" font-size="10.00">ant::Updateable_traits</text>
</a>
</g>
</g>
<!-- Node4&#45;&gt;Node1 -->
<g id="edge4" class="edge"><title>Node4&#45;&gt;Node1</title>
<path fill="none" stroke="midnightblue" d="M327.766,-70C337.469,-70 347.379,-70 356.944,-70"/>
<polygon fill="midnightblue" stroke="midnightblue" points="327.754,-66.5001 317.754,-70 327.754,-73.5001 327.754,-66.5001"/>
</g>
<!-- Node5 -->
<g id="node6" class="node"><title>Node5</title>
<g id="a_node6"><a xlink:href="structant_1_1_reconstruct_hook_1_1_detector_read_hits.html" target="_top" xlink:title="The DetectorReadHits struct instances are applied before hit matching. ">
<polygon fill="white" stroke="black" points="362.5,-11 362.5,-41 481.5,-41 481.5,-11 362.5,-11"/>
<text text-anchor="start" x="370.5" y="-29" font-family="Helvetica,sans-Serif" font-size="10.00">ant::ReconstructHook</text>
<text text-anchor="middle" x="422" y="-18" font-family="Helvetica,sans-Serif" font-size="10.00">::DetectorReadHits</text>
</a>
</g>
</g>
<!-- Node5&#45;&gt;Node0 -->
<g id="edge5" class="edge"><title>Node5&#45;&gt;Node0</title>
<path fill="none" stroke="midnightblue" d="M491.557,-35.5762C501.995,-37.0343 512.677,-38.5264 522.852,-39.9476"/>
<polygon fill="midnightblue" stroke="midnightblue" points="492.035,-32.1091 481.647,-34.192 491.067,-39.0418 492.035,-32.1091"/>
</g>
<!-- Node6 -->
<g id="node7" class="node"><title>Node6</title>
<g id="a_node7"><a xlink:href="structant_1_1_reconstruct_hook_1_1_base.html" target="_top" xlink:title="The Base struct just defines some useful types. ">
<polygon fill="white" stroke="black" points="196,-11 196,-41 315,-41 315,-11 196,-11"/>
<text text-anchor="start" x="204" y="-29" font-family="Helvetica,sans-Serif" font-size="10.00">ant::ReconstructHook</text>
<text text-anchor="middle" x="255.5" y="-18" font-family="Helvetica,sans-Serif" font-size="10.00">::Base</text>
</a>
</g>
</g>
<!-- Node6&#45;&gt;Node5 -->
<g id="edge6" class="edge"><title>Node6&#45;&gt;Node5</title>
<path fill="none" stroke="midnightblue" d="M325.61,-26C337.879,-26 350.548,-26 362.488,-26"/>
<polygon fill="midnightblue" stroke="midnightblue" points="325.424,-22.5001 315.424,-26 325.424,-29.5001 325.424,-22.5001"/>
</g>
</g>
</svg>
