<?xml version="1.0" encoding="UTF-8" standalone="no"?>
<!DOCTYPE svg PUBLIC "-//W3C//DTD SVG 1.1//EN"
 "http://www.w3.org/Graphics/SVG/1.1/DTD/svg11.dtd">
<!-- Generated by graphviz version 2.38.0 (20140413.2041)
 -->
<!-- Title: ant::std_ext::circit&lt; T &gt; Pages: 1 -->
<svg width="167pt" height="106pt"
 viewBox="0.00 0.00 166.50 106.00" xmlns="http://www.w3.org/2000/svg" xmlns:xlink="http://www.w3.org/1999/xlink">
<g id="graph0" class="graph" transform="scale(1 1) rotate(0) translate(4 102)">
<title>ant::std_ext::circit&lt; T &gt;</title>
<polygon fill="white" stroke="none" points="-4,4 -4,-102 162.5,-102 162.5,4 -4,4"/>
<!-- Node2 -->
<g id="node1" class="node"><title>Node2</title>
<polygon fill="#bfbfbf" stroke="black" points="28.5,-0.5 28.5,-19.5 158.5,-19.5 158.5,-0.5 28.5,-0.5"/>
<text text-anchor="middle" x="93.5" y="-7.5" font-family="Helvetica,sans-Serif" font-size="10.00">ant::std_ext::circit&lt; T &gt;</text>
</g>
<!-- Node3 -->
<g id="node2" class="node"><title>Node3</title>
<polygon fill="white" stroke="#bfbfbf" points="0,-67.5 0,-97.5 103,-97.5 103,-67.5 0,-67.5"/>
<text text-anchor="start" x="8" y="-85.5" font-family="Helvetica,sans-Serif" font-size="10.00">std::iterator_traits</text>
<text text-anchor="middle" x="51.5" y="-74.5" font-family="Helvetica,sans-Serif" font-size="10.00">&lt; T::value_type &gt;</text>
</g>
<!-- Node3&#45;&gt;Node2 -->
<g id="edge1" class="edge"><title>Node3&#45;&gt;Node2</title>
<path fill="none" stroke="midnightblue" d="M65.1271,-58.6259C72.992,-45.4241 82.4373,-29.5696 88.202,-19.8932"/>
<polygon fill="midnightblue" stroke="midnightblue" points="62.1106,-56.8509 59.9993,-67.2333 68.1243,-60.4336 62.1106,-56.8509"/>
</g>
<!-- Node4 -->
<g id="node3" class="node"><title>Node4</title>
<polygon fill="white" stroke="#bfbfbf" points="121,-73 121,-92 150,-92 150,-73 121,-73"/>
<text text-anchor="middle" x="135.5" y="-80" font-family="Helvetica,sans-Serif" font-size="10.00">T</text>
</g>
<!-- Node4&#45;&gt;Node2 -->
<g id="edge2" class="edge"><title>Node4&#45;&gt;Node2</title>
<path fill="none" stroke="#9a32cd" stroke-dasharray="5,2" d="M125.128,-64.09C116.734,-49.9995 105.263,-30.7445 98.6921,-19.7154"/>
<polygon fill="#9a32cd" stroke="#9a32cd" points="122.225,-66.0556 130.35,-72.8553 128.239,-62.473 122.225,-66.0556"/>
<text text-anchor="middle" x="126" y="-41" font-family="Helvetica,sans-Serif" font-size="10.00"> pos</text>
</g>
</g>
</svg>
