<?xml version="1.0" encoding="UTF-8" standalone="no"?>
<!DOCTYPE svg PUBLIC "-//W3C//DTD SVG 1.1//EN"
 "http://www.w3.org/Graphics/SVG/1.1/DTD/svg11.dtd">
<!-- Generated by graphviz version 2.38.0 (20140413.2041)
 -->
<!-- Title: ant::analysis::physics::JustPi0 Pages: 1 -->
<svg width="2348pt" height="478pt"
 viewBox="0.00 0.00 2348.00 477.50" xmlns="http://www.w3.org/2000/svg" xmlns:xlink="http://www.w3.org/1999/xlink">
<g id="graph0" class="graph" transform="scale(1 1) rotate(0) translate(4 473.5)">
<title>ant::analysis::physics::JustPi0</title>
<polygon fill="white" stroke="none" points="-4,4 -4,-473.5 2344,-473.5 2344,4 -4,4"/>
<!-- Node2 -->
<g id="node1" class="node"><title>Node2</title>
<polygon fill="#bfbfbf" stroke="black" points="2222,-183.5 2222,-213.5 2340,-213.5 2340,-183.5 2222,-183.5"/>
<text text-anchor="start" x="2230" y="-201.5" font-family="Helvetica,sans-Serif" font-size="10.00">ant::analysis::physics</text>
<text text-anchor="middle" x="2281" y="-190.5" font-family="Helvetica,sans-Serif" font-size="10.00">::JustPi0</text>
</g>
<!-- Node3 -->
<g id="node2" class="node"><title>Node3</title>
<g id="a_node2"><a xlink:href="classant_1_1analysis_1_1_physics.html" target="_top" xlink:title="ant::analysis::Physics">
<polygon fill="white" stroke="black" points="1659,-369 1659,-388 1777,-388 1777,-369 1659,-369"/>
<text text-anchor="middle" x="1718" y="-376" font-family="Helvetica,sans-Serif" font-size="10.00">ant::analysis::Physics</text>
</a>
</g>
</g>
<!-- Node3&#45;&gt;Node2 -->
<g id="edge1" class="edge"><title>Node3&#45;&gt;Node2</title>
<path fill="none" stroke="midnightblue" d="M1758.54,-365.815C1859.15,-333.531 2124.61,-248.359 2232.94,-213.598"/>
<polygon fill="midnightblue" stroke="midnightblue" points="1757.22,-362.562 1748.77,-368.95 1759.36,-369.227 1757.22,-362.562"/>
</g>
<!-- Node4 -->
<g id="node3" class="node"><title>Node4</title>
<g id="a_node3"><a xlink:href="classant_1_1analysis_1_1_histogram_factory.html" target="_top" xlink:title="ant::analysis::Histogram\lFactory">
<polygon fill="white" stroke="black" points="1263,-383.5 1263,-413.5 1396,-413.5 1396,-383.5 1263,-383.5"/>
<text text-anchor="start" x="1271" y="-401.5" font-family="Helvetica,sans-Serif" font-size="10.00">ant::analysis::Histogram</text>
<text text-anchor="middle" x="1329.5" y="-390.5" font-family="Helvetica,sans-Serif" font-size="10.00">Factory</text>
</a>
</g>
</g>
<!-- Node4&#45;&gt;Node3 -->
<g id="edge2" class="edge"><title>Node4&#45;&gt;Node3</title>
<path fill="none" stroke="#9a32cd" stroke-dasharray="5,2" d="M1406.25,-394.58C1480.27,-390.75 1591.34,-385.002 1658.71,-381.516"/>
<polygon fill="#9a32cd" stroke="#9a32cd" points="1405.87,-391.095 1396.06,-395.107 1406.23,-398.086 1405.87,-391.095"/>
<text text-anchor="middle" x="1466" y="-395.5" font-family="Helvetica,sans-Serif" font-size="10.00"> HistFac</text>
</g>
<!-- Node7 -->
<g id="node6" class="node"><title>Node7</title>
<g id="a_node6"><a xlink:href="structant_1_1analysis_1_1physics_1_1_just_pi0_1_1_multi_pi0.html" target="_top" xlink:title="ant::analysis::physics\l::JustPi0::MultiPi0">
<polygon fill="white" stroke="black" points="1523,-183.5 1523,-213.5 1641,-213.5 1641,-183.5 1523,-183.5"/>
<text text-anchor="start" x="1531" y="-201.5" font-family="Helvetica,sans-Serif" font-size="10.00">ant::analysis::physics</text>
<text text-anchor="middle" x="1582" y="-190.5" font-family="Helvetica,sans-Serif" font-size="10.00">::JustPi0::MultiPi0</text>
</a>
</g>
</g>
<!-- Node4&#45;&gt;Node7 -->
<g id="edge35" class="edge"><title>Node4&#45;&gt;Node7</title>
<path fill="none" stroke="#9a32cd" stroke-dasharray="5,2" d="M1404.07,-381C1449.84,-369.871 1500.79,-356.929 1505,-353.5 1550.54,-316.397 1570.9,-245.25 1577.94,-213.938"/>
<polygon fill="#9a32cd" stroke="#9a32cd" points="1403,-377.659 1394.1,-383.416 1404.65,-384.463 1403,-377.659"/>
<text text-anchor="middle" x="1466" y="-377.5" font-family="Helvetica,sans-Serif" font-size="10.00"> HistFac</text>
</g>
<!-- Node5 -->
<g id="node4" class="node"><title>Node5</title>
<polygon fill="white" stroke="#bfbfbf" points="1996,-178 1996,-219 2144,-219 2144,-178 1996,-178"/>
<text text-anchor="start" x="2004" y="-207" font-family="Helvetica,sans-Serif" font-size="10.00">std::vector&lt; std::unique</text>
<text text-anchor="start" x="2004" y="-196" font-family="Helvetica,sans-Serif" font-size="10.00">_ptr&lt; ant::analysis::physics</text>
<text text-anchor="middle" x="2070" y="-185" font-family="Helvetica,sans-Serif" font-size="10.00">::JustPi0::MultiPi0 &gt; &gt;</text>
</g>
<!-- Node5&#45;&gt;Node2 -->
<g id="edge3" class="edge"><title>Node5&#45;&gt;Node2</title>
<path fill="none" stroke="#9a32cd" stroke-dasharray="5,2" d="M2154.36,-198.5C2176.93,-198.5 2200.88,-198.5 2221.75,-198.5"/>
<polygon fill="#9a32cd" stroke="#9a32cd" points="2154.1,-195 2144.1,-198.5 2154.1,-202 2154.1,-195"/>
<text text-anchor="middle" x="2183" y="-201.5" font-family="Helvetica,sans-Serif" font-size="10.00"> multiPi0</text>
</g>
<!-- Node6 -->
<g id="node5" class="node"><title>Node6</title>
<polygon fill="white" stroke="#bfbfbf" points="1795,-178 1795,-219 1911,-219 1911,-178 1795,-178"/>
<text text-anchor="start" x="1803" y="-207" font-family="Helvetica,sans-Serif" font-size="10.00">std::unique_ptr&lt; ant</text>
<text text-anchor="start" x="1803" y="-196" font-family="Helvetica,sans-Serif" font-size="10.00">::analysis::physics::</text>
<text text-anchor="middle" x="1853" y="-185" font-family="Helvetica,sans-Serif" font-size="10.00">JustPi0::MultiPi0 &gt;</text>
</g>
<!-- Node6&#45;&gt;Node5 -->
<g id="edge4" class="edge"><title>Node6&#45;&gt;Node5</title>
<path fill="none" stroke="#9a32cd" stroke-dasharray="5,2" d="M1921.34,-198.5C1945.01,-198.5 1971.71,-198.5 1995.84,-198.5"/>
<polygon fill="#9a32cd" stroke="#9a32cd" points="1921.05,-195 1911.05,-198.5 1921.05,-202 1921.05,-195"/>
<text text-anchor="middle" x="1953.5" y="-201.5" font-family="Helvetica,sans-Serif" font-size="10.00"> elements</text>
</g>
<!-- Node7&#45;&gt;Node6 -->
<g id="edge5" class="edge"><title>Node7&#45;&gt;Node6</title>
<path fill="none" stroke="#9a32cd" stroke-dasharray="5,2" d="M1651.18,-198.5C1695.63,-198.5 1752.97,-198.5 1794.99,-198.5"/>
<polygon fill="#9a32cd" stroke="#9a32cd" points="1651.04,-195 1641.04,-198.5 1651.04,-202 1651.04,-195"/>
<text text-anchor="middle" x="1718" y="-201.5" font-family="Helvetica,sans-Serif" font-size="10.00"> ptr</text>
</g>
<!-- Node8 -->
<g id="node7" class="node"><title>Node8</title>
<polygon fill="white" stroke="#bfbfbf" points="1250.5,-155 1250.5,-196 1408.5,-196 1408.5,-155 1250.5,-155"/>
<text text-anchor="start" x="1258.5" y="-184" font-family="Helvetica,sans-Serif" font-size="10.00">std::vector&lt; std::pair</text>
<text text-anchor="start" x="1258.5" y="-173" font-family="Helvetica,sans-Serif" font-size="10.00">&lt; utils::TreeFitter::tree</text>
<text text-anchor="middle" x="1329.5" y="-162" font-family="Helvetica,sans-Serif" font-size="10.00">_t, utils::TreeFitter::tree_t &gt; &gt;</text>
</g>
<!-- Node8&#45;&gt;Node7 -->
<g id="edge6" class="edge"><title>Node8&#45;&gt;Node7</title>
<path fill="none" stroke="#9a32cd" stroke-dasharray="5,2" d="M1418.83,-180.281C1446.46,-182.124 1477.03,-184.519 1505,-187.5 1510.83,-188.122 1516.91,-188.855 1522.96,-189.642"/>
<polygon fill="#9a32cd" stroke="#9a32cd" points="1419,-176.785 1408.79,-179.627 1418.54,-183.77 1419,-176.785"/>
<text text-anchor="middle" x="1466" y="-190.5" font-family="Helvetica,sans-Serif" font-size="10.00"> pions</text>
</g>
<!-- Node9 -->
<g id="node8" class="node"><title>Node9</title>
<g id="a_node8"><a xlink:href="structant_1_1analysis_1_1_prompt_random_1_1_hist1.html" target="_top" xlink:title="ant::analysis::PromptRandom\l::Hist1">
<polygon fill="white" stroke="black" points="1250.5,-58.5 1250.5,-88.5 1408.5,-88.5 1408.5,-58.5 1250.5,-58.5"/>
<text text-anchor="start" x="1258.5" y="-76.5" font-family="Helvetica,sans-Serif" font-size="10.00">ant::analysis::PromptRandom</text>
<text text-anchor="middle" x="1329.5" y="-65.5" font-family="Helvetica,sans-Serif" font-size="10.00">::Hist1</text>
</a>
</g>
</g>
<!-- Node9&#45;&gt;Node7 -->
<g id="edge7" class="edge"><title>Node9&#45;&gt;Node7</title>
<path fill="none" stroke="#9a32cd" stroke-dasharray="5,2" d="M1413.97,-57.7172C1444.34,-56.0289 1477.85,-59.1951 1505,-74.5 1547.01,-98.1834 1568.64,-155.552 1576.91,-183.158"/>
<polygon fill="#9a32cd" stroke="#9a32cd" points="1413.52,-54.2408 1403.81,-58.4654 1414.04,-61.2219 1413.52,-54.2408"/>
<text text-anchor="middle" x="1466" y="-121.5" font-family="Helvetica,sans-Serif" font-size="10.00"> h_missingmass</text>
<text text-anchor="middle" x="1466" y="-110.5" font-family="Helvetica,sans-Serif" font-size="10.00">h_fitprobability</text>
<text text-anchor="middle" x="1466" y="-99.5" font-family="Helvetica,sans-Serif" font-size="10.00">IM_2g_fitted</text>
<text text-anchor="middle" x="1466" y="-88.5" font-family="Helvetica,sans-Serif" font-size="10.00">IM_2g_byMM</text>
<text text-anchor="middle" x="1466" y="-77.5" font-family="Helvetica,sans-Serif" font-size="10.00">IM_2g_byFit</text>
</g>
<!-- Node10 -->
<g id="node9" class="node"><title>Node10</title>
<g id="a_node9"><a xlink:href="classant_1_1analysis_1_1_prompt_random_1_1_switch.html" target="_top" xlink:title="ant::analysis::PromptRandom\l::Switch">
<polygon fill="white" stroke="black" points="961,-75.5 961,-105.5 1119,-105.5 1119,-75.5 961,-75.5"/>
<text text-anchor="start" x="969" y="-93.5" font-family="Helvetica,sans-Serif" font-size="10.00">ant::analysis::PromptRandom</text>
<text text-anchor="middle" x="1040" y="-82.5" font-family="Helvetica,sans-Serif" font-size="10.00">::Switch</text>
</a>
</g>
</g>
<!-- Node10&#45;&gt;Node7 -->
<g id="edge33" class="edge"><title>Node10&#45;&gt;Node7</title>
<path fill="none" stroke="#9a32cd" stroke-dasharray="5,2" d="M1129.39,-98.6357C1220.95,-107.499 1357.69,-122.073 1409,-134.5 1458.7,-146.537 1513.69,-168.637 1547.8,-183.451"/>
<polygon fill="#9a32cd" stroke="#9a32cd" points="1129.58,-95.1378 1119.29,-97.6635 1128.91,-102.106 1129.58,-95.1378"/>
<text text-anchor="middle" x="1329.5" y="-137.5" font-family="Helvetica,sans-Serif" font-size="10.00"> promptrandom</text>
</g>
<!-- Node10&#45;&gt;Node9 -->
<g id="edge8" class="edge"><title>Node10&#45;&gt;Node9</title>
<path fill="none" stroke="#9a32cd" stroke-dasharray="5,2" d="M1129.38,-85.2742C1168.01,-82.9899 1212.94,-80.3331 1250.33,-78.1219"/>
<polygon fill="#9a32cd" stroke="#9a32cd" points="1128.96,-81.7929 1119.18,-85.8771 1129.37,-88.7807 1128.96,-81.7929"/>
<text text-anchor="middle" x="1189" y="-87.5" font-family="Helvetica,sans-Serif" font-size="10.00"> d</text>
</g>
<!-- Node11 -->
<g id="node10" class="node"><title>Node11</title>
<g id="a_node10"><a xlink:href="classant_1_1_piecewise_interval.html" target="_top" xlink:title="ant::PiecewiseInterval\l\&lt; double \&gt;">
<polygon fill="white" stroke="black" points="631,-101.5 631,-131.5 750,-131.5 750,-101.5 631,-101.5"/>
<text text-anchor="start" x="639" y="-119.5" font-family="Helvetica,sans-Serif" font-size="10.00">ant::PiecewiseInterval</text>
<text text-anchor="middle" x="690.5" y="-108.5" font-family="Helvetica,sans-Serif" font-size="10.00">&lt; double &gt;</text>
</a>
</g>
</g>
<!-- Node11&#45;&gt;Node10 -->
<g id="edge9" class="edge"><title>Node11&#45;&gt;Node10</title>
<path fill="none" stroke="#9a32cd" stroke-dasharray="5,2" d="M760.189,-111.361C817.992,-107.036 900.635,-100.853 960.934,-96.3409"/>
<polygon fill="#9a32cd" stroke="#9a32cd" points="759.767,-107.882 750.056,-112.119 760.289,-114.863 759.767,-107.882"/>
<text text-anchor="middle" x="855" y="-124.5" font-family="Helvetica,sans-Serif" font-size="10.00"> promptw</text>
<text text-anchor="middle" x="855" y="-113.5" font-family="Helvetica,sans-Serif" font-size="10.00">randomw</text>
</g>
<!-- Node12 -->
<g id="node11" class="node"><title>Node12</title>
<g id="a_node11"><a xlink:title="STL class. ">
<polygon fill="white" stroke="#bfbfbf" points="411.5,-105.5 411.5,-135.5 525.5,-135.5 525.5,-105.5 411.5,-105.5"/>
<text text-anchor="start" x="419.5" y="-123.5" font-family="Helvetica,sans-Serif" font-size="10.00">std::vector&lt; interval</text>
<text text-anchor="middle" x="468.5" y="-112.5" font-family="Helvetica,sans-Serif" font-size="10.00">&lt; double &gt; &gt;</text>
</a>
</g>
</g>
<!-- Node12&#45;&gt;Node11 -->
<g id="edge10" class="edge"><title>Node12&#45;&gt;Node11</title>
<path fill="none" stroke="midnightblue" d="M535.635,-119.298C565.919,-118.747 601.509,-118.1 630.827,-117.567"/>
<polygon fill="midnightblue" stroke="midnightblue" points="535.519,-115.799 525.585,-119.48 535.647,-122.798 535.519,-115.799"/>
</g>
<!-- Node13 -->
<g id="node12" class="node"><title>Node13</title>
<polygon fill="white" stroke="#bfbfbf" points="243.5,-133 243.5,-152 272.5,-152 272.5,-133 243.5,-133"/>
<text text-anchor="middle" x="258" y="-140" font-family="Helvetica,sans-Serif" font-size="10.00">T</text>
</g>
<!-- Node13&#45;&gt;Node12 -->
<g id="edge11" class="edge"><title>Node13&#45;&gt;Node12</title>
<path fill="none" stroke="#9a32cd" stroke-dasharray="5,2" d="M282.555,-136.717C296.783,-133.461 315.33,-129.631 332,-127.5 357.936,-124.185 386.855,-122.428 411.294,-121.502"/>
<polygon fill="#9a32cd" stroke="#9a32cd" points="281.551,-133.358 272.62,-139.058 283.156,-140.172 281.551,-133.358"/>
<text text-anchor="middle" x="356.5" y="-130.5" font-family="Helvetica,sans-Serif" font-size="10.00"> elements</text>
</g>
<!-- Node31 -->
<g id="node30" class="node"><title>Node31</title>
<g id="a_node30"><a xlink:title="STL class. ">
<polygon fill="white" stroke="#bfbfbf" points="421,-156 421,-175 516,-175 516,-156 421,-156"/>
<text text-anchor="middle" x="468.5" y="-163" font-family="Helvetica,sans-Serif" font-size="10.00">std::vector&lt; T &gt;</text>
</a>
</g>
</g>
<!-- Node13&#45;&gt;Node31 -->
<g id="edge30" class="edge"><title>Node13&#45;&gt;Node31</title>
<path fill="none" stroke="#9a32cd" stroke-dasharray="5,2" d="M282.892,-145.136C316.377,-148.829 377.957,-155.622 420.741,-160.342"/>
<polygon fill="#9a32cd" stroke="#9a32cd" points="283.004,-141.627 272.68,-144.009 282.236,-148.585 283.004,-141.627"/>
<text text-anchor="middle" x="356.5" y="-158.5" font-family="Helvetica,sans-Serif" font-size="10.00"> elements</text>
</g>
<!-- Node14 -->
<g id="node13" class="node"><title>Node14</title>
<g id="a_node13"><a xlink:href="structant_1_1analysis_1_1physics_1_1_just_pi0_1_1_multi_pi0_1_1_multi_pi0_tree.html" target="_top" xlink:title="ant::analysis::physics\l::JustPi0::MultiPi0::MultiPi0Tree">
<polygon fill="white" stroke="black" points="1250,-214.5 1250,-244.5 1409,-244.5 1409,-214.5 1250,-214.5"/>
<text text-anchor="start" x="1258" y="-232.5" font-family="Helvetica,sans-Serif" font-size="10.00">ant::analysis::physics</text>
<text text-anchor="middle" x="1329.5" y="-221.5" font-family="Helvetica,sans-Serif" font-size="10.00">::JustPi0::MultiPi0::MultiPi0Tree</text>
</a>
</g>
</g>
<!-- Node14&#45;&gt;Node7 -->
<g id="edge12" class="edge"><title>Node14&#45;&gt;Node7</title>
<path fill="none" stroke="#9a32cd" stroke-dasharray="5,2" d="M1419.15,-218.529C1453.63,-214.262 1492.16,-209.494 1522.98,-205.68"/>
<polygon fill="#9a32cd" stroke="#9a32cd" points="1418.57,-215.075 1409.07,-219.776 1419.43,-222.022 1418.57,-215.075"/>
<text text-anchor="middle" x="1466" y="-220.5" font-family="Helvetica,sans-Serif" font-size="10.00"> t</text>
</g>
<!-- Node15 -->
<g id="node14" class="node"><title>Node15</title>
<g id="a_node14"><a xlink:href="classant_1_1_wrap_t_tree.html" target="_top" xlink:title="The WrapTTree struct simplifies TTree handling in physics classes. ">
<polygon fill="white" stroke="black" points="997,-125 997,-144 1083,-144 1083,-125 997,-125"/>
<text text-anchor="middle" x="1040" y="-132" font-family="Helvetica,sans-Serif" font-size="10.00">ant::WrapTTree</text>
</a>
</g>
</g>
<!-- Node15&#45;&gt;Node14 -->
<g id="edge13" class="edge"><title>Node15&#45;&gt;Node14</title>
<path fill="none" stroke="midnightblue" d="M1093.22,-137.131C1142.15,-140.568 1210.84,-148.196 1232,-164.5 1247.76,-176.646 1235.13,-192.275 1250,-205.5 1253.83,-208.909 1258.14,-211.835 1262.71,-214.344"/>
<polygon fill="midnightblue" stroke="midnightblue" points="1093.31,-133.63 1083.1,-136.46 1092.85,-140.614 1093.31,-133.63"/>
</g>
<!-- Node16 -->
<g id="node15" class="node"><title>Node16</title>
<g id="a_node15"><a xlink:href="classant_1_1analysis_1_1utils_1_1_tree_fitter.html" target="_top" xlink:title="ant::analysis::utils\l::TreeFitter">
<polygon fill="white" stroke="black" points="1278.5,-263.5 1278.5,-293.5 1380.5,-293.5 1380.5,-263.5 1278.5,-263.5"/>
<text text-anchor="start" x="1286.5" y="-281.5" font-family="Helvetica,sans-Serif" font-size="10.00">ant::analysis::utils</text>
<text text-anchor="middle" x="1329.5" y="-270.5" font-family="Helvetica,sans-Serif" font-size="10.00">::TreeFitter</text>
</a>
</g>
</g>
<!-- Node16&#45;&gt;Node7 -->
<g id="edge14" class="edge"><title>Node16&#45;&gt;Node7</title>
<path fill="none" stroke="#9a32cd" stroke-dasharray="5,2" d="M1390.58,-265.222C1424.57,-257.076 1467.62,-245.688 1505,-232.5 1520.27,-227.113 1536.72,-219.932 1550.4,-213.558"/>
<polygon fill="#9a32cd" stroke="#9a32cd" points="1389.72,-261.829 1380.8,-267.538 1391.33,-268.64 1389.72,-261.829"/>
<text text-anchor="middle" x="1466" y="-258.5" font-family="Helvetica,sans-Serif" font-size="10.00"> treefitter</text>
</g>
<!-- Node17 -->
<g id="node16" class="node"><title>Node17</title>
<g id="a_node16"><a xlink:href="classant_1_1analysis_1_1utils_1_1_kin_fitter.html" target="_top" xlink:title="ant::analysis::utils\l::KinFitter">
<polygon fill="white" stroke="black" points="989,-335.5 989,-365.5 1091,-365.5 1091,-335.5 989,-335.5"/>
<text text-anchor="start" x="997" y="-353.5" font-family="Helvetica,sans-Serif" font-size="10.00">ant::analysis::utils</text>
<text text-anchor="middle" x="1040" y="-342.5" font-family="Helvetica,sans-Serif" font-size="10.00">::KinFitter</text>
</a>
</g>
</g>
<!-- Node17&#45;&gt;Node7 -->
<g id="edge32" class="edge"><title>Node17&#45;&gt;Node7</title>
<path fill="none" stroke="#9a32cd" stroke-dasharray="5,2" d="M1101.17,-353.454C1194.46,-355.259 1376.6,-347.475 1505,-270.5 1530.57,-255.173 1554.57,-229.935 1568.51,-213.775"/>
<polygon fill="#9a32cd" stroke="#9a32cd" points="1101.14,-349.953 1091.06,-353.214 1100.97,-356.951 1101.14,-349.953"/>
<text text-anchor="middle" x="1329.5" y="-349.5" font-family="Helvetica,sans-Serif" font-size="10.00"> fitter</text>
</g>
<!-- Node17&#45;&gt;Node16 -->
<g id="edge15" class="edge"><title>Node17&#45;&gt;Node16</title>
<path fill="none" stroke="midnightblue" d="M1101.1,-335.909C1138.74,-326.723 1188.23,-314.554 1232,-303.5 1247.1,-299.686 1263.51,-295.464 1278.44,-291.592"/>
<polygon fill="midnightblue" stroke="midnightblue" points="1100.2,-332.528 1091.31,-338.298 1101.85,-339.329 1100.2,-332.528"/>
</g>
<!-- Node18 -->
<g id="node17" class="node"><title>Node18</title>
<g id="a_node17"><a xlink:href="classant_1_1analysis_1_1utils_1_1_fitter.html" target="_top" xlink:title="ant::analysis::utils\l::Fitter">
<polygon fill="white" stroke="black" points="639.5,-384.5 639.5,-414.5 741.5,-414.5 741.5,-384.5 639.5,-384.5"/>
<text text-anchor="start" x="647.5" y="-402.5" font-family="Helvetica,sans-Serif" font-size="10.00">ant::analysis::utils</text>
<text text-anchor="middle" x="690.5" y="-391.5" font-family="Helvetica,sans-Serif" font-size="10.00">::Fitter</text>
</a>
</g>
</g>
<!-- Node18&#45;&gt;Node17 -->
<g id="edge16" class="edge"><title>Node18&#45;&gt;Node17</title>
<path fill="none" stroke="midnightblue" d="M751.791,-391.091C800.86,-384.237 871.91,-374.288 934,-365.5 951.868,-362.971 971.443,-360.18 988.8,-357.699"/>
<polygon fill="midnightblue" stroke="midnightblue" points="751.084,-387.656 741.665,-392.505 752.053,-394.588 751.084,-387.656"/>
</g>
<!-- Node19 -->
<g id="node18" class="node"><title>Node19</title>
<g id="a_node18"><a xlink:href="structant_1_1analysis_1_1utils_1_1_kin_fitter_1_1_target__t.html" target="_top" xlink:title="ant::analysis::utils\l::KinFitter::Target_t">
<polygon fill="white" stroke="black" points="638,-335.5 638,-365.5 743,-365.5 743,-335.5 638,-335.5"/>
<text text-anchor="start" x="646" y="-353.5" font-family="Helvetica,sans-Serif" font-size="10.00">ant::analysis::utils</text>
<text text-anchor="middle" x="690.5" y="-342.5" font-family="Helvetica,sans-Serif" font-size="10.00">::KinFitter::Target_t</text>
</a>
</g>
</g>
<!-- Node19&#45;&gt;Node17 -->
<g id="edge17" class="edge"><title>Node19&#45;&gt;Node17</title>
<path fill="none" stroke="#9a32cd" stroke-dasharray="5,2" d="M753.173,-350.5C820.335,-350.5 926.473,-350.5 988.762,-350.5"/>
<polygon fill="#9a32cd" stroke="#9a32cd" points="753.149,-347 743.149,-350.5 753.149,-354 753.149,-347"/>
<text text-anchor="middle" x="855" y="-353.5" font-family="Helvetica,sans-Serif" font-size="10.00"> Target</text>
</g>
<!-- Node20 -->
<g id="node19" class="node"><title>Node20</title>
<g id="a_node19"><a xlink:href="structant_1_1analysis_1_1utils_1_1_kin_fitter_1_1_beam_e__t.html" target="_top" xlink:title="ant::analysis::utils\l::KinFitter::BeamE_t">
<polygon fill="white" stroke="black" points="635.5,-286.5 635.5,-316.5 745.5,-316.5 745.5,-286.5 635.5,-286.5"/>
<text text-anchor="start" x="643.5" y="-304.5" font-family="Helvetica,sans-Serif" font-size="10.00">ant::analysis::utils</text>
<text text-anchor="middle" x="690.5" y="-293.5" font-family="Helvetica,sans-Serif" font-size="10.00">::KinFitter::BeamE_t</text>
</a>
</g>
</g>
<!-- Node20&#45;&gt;Node17 -->
<g id="edge18" class="edge"><title>Node20&#45;&gt;Node17</title>
<path fill="none" stroke="#9a32cd" stroke-dasharray="5,2" d="M756.036,-310.502C804.9,-317.329 873.678,-326.963 934,-335.5 951.868,-338.029 971.443,-340.82 988.8,-343.301"/>
<polygon fill="#9a32cd" stroke="#9a32cd" points="756.31,-307.006 745.922,-309.089 755.341,-313.939 756.31,-307.006"/>
<text text-anchor="middle" x="855" y="-338.5" font-family="Helvetica,sans-Serif" font-size="10.00"> BeamE</text>
</g>
<!-- Node21 -->
<g id="node20" class="node"><title>Node21</title>
<polygon fill="white" stroke="#bfbfbf" points="440.5,-292 440.5,-311 496.5,-311 496.5,-292 440.5,-292"/>
<text text-anchor="middle" x="468.5" y="-299" font-family="Helvetica,sans-Serif" font-size="10.00">V_S_P_t</text>
</g>
<!-- Node21&#45;&gt;Node20 -->
<g id="edge19" class="edge"><title>Node21&#45;&gt;Node20</title>
<path fill="none" stroke="midnightblue" d="M507.242,-301.5C542.448,-301.5 595.364,-301.5 635.123,-301.5"/>
<polygon fill="midnightblue" stroke="midnightblue" points="506.918,-298 496.918,-301.5 506.918,-305 506.918,-298"/>
</g>
<!-- Node22 -->
<g id="node21" class="node"><title>Node22</title>
<polygon fill="white" stroke="#bfbfbf" points="623,-248 623,-267 758,-267 758,-248 623,-248"/>
<text text-anchor="middle" x="690.5" y="-255" font-family="Helvetica,sans-Serif" font-size="10.00">std::vector&lt; FitParticle &gt;</text>
</g>
<!-- Node22&#45;&gt;Node17 -->
<g id="edge20" class="edge"><title>Node22&#45;&gt;Node17</title>
<path fill="none" stroke="#9a32cd" stroke-dasharray="5,2" d="M768.459,-255.885C819.08,-258.238 884.814,-268.086 934,-299.5 945.845,-307.065 940.582,-317.305 952,-325.5 962.852,-333.289 976.089,-338.662 988.931,-342.364"/>
<polygon fill="#9a32cd" stroke="#9a32cd" points="768.346,-252.378 758.222,-255.501 768.084,-259.374 768.346,-252.378"/>
<text text-anchor="middle" x="855" y="-302.5" font-family="Helvetica,sans-Serif" font-size="10.00"> Photons</text>
</g>
<!-- Node23 -->
<g id="node22" class="node"><title>Node23</title>
<polygon fill="white" stroke="#bfbfbf" points="980.5,-163 980.5,-182 1099.5,-182 1099.5,-163 980.5,-163"/>
<text text-anchor="middle" x="1040" y="-170" font-family="Helvetica,sans-Serif" font-size="10.00">std::vector&lt; tree_t &gt;</text>
</g>
<!-- Node23&#45;&gt;Node16 -->
<g id="edge21" class="edge"><title>Node23&#45;&gt;Node16</title>
<path fill="none" stroke="#9a32cd" stroke-dasharray="5,2" d="M1109.89,-162.592C1149.82,-160.753 1198.63,-165.711 1232,-193.5 1253.39,-211.317 1230.48,-233.648 1250,-253.5 1257.72,-261.353 1267.9,-266.744 1278.36,-270.443"/>
<polygon fill="#9a32cd" stroke="#9a32cd" points="1109.45,-159.112 1099.68,-163.216 1109.87,-166.099 1109.45,-159.112"/>
<text text-anchor="middle" x="1189" y="-196.5" font-family="Helvetica,sans-Serif" font-size="10.00"> tree_leaves</text>
</g>
<!-- Node24 -->
<g id="node23" class="node"><title>Node24</title>
<polygon fill="white" stroke="#bfbfbf" points="961,-407.5 961,-437.5 1119,-437.5 1119,-407.5 961,-407.5"/>
<text text-anchor="start" x="969" y="-425.5" font-family="Helvetica,sans-Serif" font-size="10.00">std::list&lt; ant::analysis</text>
<text text-anchor="middle" x="1040" y="-414.5" font-family="Helvetica,sans-Serif" font-size="10.00">::utils::TreeFitter::iteration_t &gt;</text>
</g>
<!-- Node24&#45;&gt;Node16 -->
<g id="edge22" class="edge"><title>Node24&#45;&gt;Node16</title>
<path fill="none" stroke="#9a32cd" stroke-dasharray="5,2" d="M1081.57,-402.834C1120.32,-383.982 1180.3,-354.612 1232,-328.5 1254.91,-316.931 1280.71,-303.543 1299.87,-293.533"/>
<polygon fill="#9a32cd" stroke="#9a32cd" points="1079.66,-399.872 1072.2,-407.392 1082.72,-406.168 1079.66,-399.872"/>
<text text-anchor="middle" x="1189" y="-372.5" font-family="Helvetica,sans-Serif" font-size="10.00"> iterations</text>
</g>
<!-- Node25 -->
<g id="node24" class="node"><title>Node25</title>
<g id="a_node24"><a xlink:href="structant_1_1analysis_1_1utils_1_1_tree_fitter_1_1iteration__t.html" target="_top" xlink:title="ant::analysis::utils\l::TreeFitter::iteration_t">
<polygon fill="white" stroke="black" points="630,-433.5 630,-463.5 751,-463.5 751,-433.5 630,-433.5"/>
<text text-anchor="start" x="638" y="-451.5" font-family="Helvetica,sans-Serif" font-size="10.00">ant::analysis::utils</text>
<text text-anchor="middle" x="690.5" y="-440.5" font-family="Helvetica,sans-Serif" font-size="10.00">::TreeFitter::iteration_t</text>
</a>
</g>
</g>
<!-- Node25&#45;&gt;Node24 -->
<g id="edge23" class="edge"><title>Node25&#45;&gt;Node24</title>
<path fill="none" stroke="#9a32cd" stroke-dasharray="5,2" d="M761.361,-443.273C819.074,-438.955 900.951,-432.829 960.836,-428.348"/>
<polygon fill="#9a32cd" stroke="#9a32cd" points="760.948,-439.794 751.237,-444.03 761.471,-446.774 760.948,-439.794"/>
<text text-anchor="middle" x="855" y="-444.5" font-family="Helvetica,sans-Serif" font-size="10.00"> elements</text>
</g>
<!-- Node26 -->
<g id="node25" class="node"><title>Node26</title>
<polygon fill="white" stroke="#bfbfbf" points="399,-428 399,-469 538,-469 538,-428 399,-428"/>
<text text-anchor="start" x="407" y="-457" font-family="Helvetica,sans-Serif" font-size="10.00">std::vector&lt; ant::analysis</text>
<text text-anchor="start" x="407" y="-446" font-family="Helvetica,sans-Serif" font-size="10.00">::utils::TreeFitter::iteration</text>
<text text-anchor="middle" x="468.5" y="-435" font-family="Helvetica,sans-Serif" font-size="10.00">_t::photon_t &gt;</text>
</g>
<!-- Node26&#45;&gt;Node25 -->
<g id="edge24" class="edge"><title>Node26&#45;&gt;Node25</title>
<path fill="none" stroke="#9a32cd" stroke-dasharray="5,2" d="M548.35,-448.5C575.204,-448.5 604.758,-448.5 629.853,-448.5"/>
<polygon fill="#9a32cd" stroke="#9a32cd" points="548.204,-445 538.204,-448.5 548.204,-452 548.204,-445"/>
<text text-anchor="middle" x="580.5" y="-451.5" font-family="Helvetica,sans-Serif" font-size="10.00"> Photons</text>
</g>
<!-- Node27 -->
<g id="node26" class="node"><title>Node27</title>
<g id="a_node26"><a xlink:href="structant_1_1analysis_1_1utils_1_1_tree_fitter_1_1iteration__t_1_1photon__t.html" target="_top" xlink:title="ant::analysis::utils\l::TreeFitter::iteration\l_t::photon_t">
<polygon fill="white" stroke="black" points="202,-428 202,-469 314,-469 314,-428 202,-428"/>
<text text-anchor="start" x="210" y="-457" font-family="Helvetica,sans-Serif" font-size="10.00">ant::analysis::utils</text>
<text text-anchor="start" x="210" y="-446" font-family="Helvetica,sans-Serif" font-size="10.00">::TreeFitter::iteration</text>
<text text-anchor="middle" x="258" y="-435" font-family="Helvetica,sans-Serif" font-size="10.00">_t::photon_t</text>
</a>
</g>
</g>
<!-- Node27&#45;&gt;Node26 -->
<g id="edge25" class="edge"><title>Node27&#45;&gt;Node26</title>
<path fill="none" stroke="#9a32cd" stroke-dasharray="5,2" d="M324.329,-448.5C347.978,-448.5 374.748,-448.5 398.688,-448.5"/>
<polygon fill="#9a32cd" stroke="#9a32cd" points="324.054,-445 314.054,-448.5 324.054,-452 324.054,-445"/>
<text text-anchor="middle" x="356.5" y="-451.5" font-family="Helvetica,sans-Serif" font-size="10.00"> elements</text>
</g>
<!-- Node28 -->
<g id="node27" class="node"><title>Node28</title>
<g id="a_node27"><a xlink:href="structant_1_1std__ext_1_1cc__shared__ptr.html" target="_top" xlink:title="ant::std_ext::cc_shared\l_ptr\&lt; TParticle \&gt;">
<polygon fill="white" stroke="black" points="0,-433.5 0,-463.5 128,-463.5 128,-433.5 0,-433.5"/>
<text text-anchor="start" x="8" y="-451.5" font-family="Helvetica,sans-Serif" font-size="10.00">ant::std_ext::cc_shared</text>
<text text-anchor="middle" x="64" y="-440.5" font-family="Helvetica,sans-Serif" font-size="10.00">_ptr&lt; TParticle &gt;</text>
</a>
</g>
</g>
<!-- Node28&#45;&gt;Node27 -->
<g id="edge26" class="edge"><title>Node28&#45;&gt;Node27</title>
<path fill="none" stroke="#9a32cd" stroke-dasharray="5,2" d="M138.349,-448.5C159.45,-448.5 182.099,-448.5 201.895,-448.5"/>
<polygon fill="#9a32cd" stroke="#9a32cd" points="138.134,-445 128.134,-448.5 138.134,-452 138.134,-445"/>
<text text-anchor="middle" x="165" y="-451.5" font-family="Helvetica,sans-Serif" font-size="10.00"> Particle</text>
</g>
<!-- Node29 -->
<g id="node28" class="node"><title>Node29</title>
<polygon fill="white" stroke="#bfbfbf" points="971,-286.5 971,-316.5 1109,-316.5 1109,-286.5 971,-286.5"/>
<text text-anchor="start" x="979" y="-304.5" font-family="Helvetica,sans-Serif" font-size="10.00">std::vector&lt; std::function</text>
<text text-anchor="middle" x="1040" y="-293.5" font-family="Helvetica,sans-Serif" font-size="10.00">&lt; void()&gt; &gt;</text>
</g>
<!-- Node29&#45;&gt;Node16 -->
<g id="edge27" class="edge"><title>Node29&#45;&gt;Node16</title>
<path fill="none" stroke="#9a32cd" stroke-dasharray="5,2" d="M1119.21,-294.719C1128.24,-293.959 1137.32,-293.205 1146,-292.5 1190.66,-288.873 1241.49,-284.994 1278.14,-282.242"/>
<polygon fill="#9a32cd" stroke="#9a32cd" points="1118.72,-291.247 1109.05,-295.577 1119.31,-298.222 1118.72,-291.247"/>
<text text-anchor="middle" x="1189" y="-295.5" font-family="Helvetica,sans-Serif" font-size="10.00"> sum_daughters</text>
</g>
<!-- Node30 -->
<g id="node29" class="node"><title>Node30</title>
<polygon fill="white" stroke="#bfbfbf" points="776,-167 776,-186 934,-186 934,-167 776,-167"/>
<text text-anchor="middle" x="855" y="-174" font-family="Helvetica,sans-Serif" font-size="10.00">std::vector&lt; permutation_t &gt;</text>
</g>
<!-- Node30&#45;&gt;Node16 -->
<g id="edge28" class="edge"><title>Node30&#45;&gt;Node16</title>
<path fill="none" stroke="#9a32cd" stroke-dasharray="5,2" d="M924.975,-187.699C1000.78,-200.557 1125.89,-223.403 1232,-250.5 1247.38,-254.428 1264.02,-259.101 1279.08,-263.494"/>
<polygon fill="#9a32cd" stroke="#9a32cd" points="925.512,-184.24 915.069,-186.028 924.347,-191.143 925.512,-184.24"/>
<text text-anchor="middle" x="1040" y="-228.5" font-family="Helvetica,sans-Serif" font-size="10.00"> permutations</text>
</g>
<!-- Node31&#45;&gt;Node30 -->
<g id="edge29" class="edge"><title>Node31&#45;&gt;Node30</title>
<path fill="none" stroke="#9a32cd" stroke-dasharray="5,2" d="M526.491,-167.13C592.612,-169.022 701.996,-172.151 775.976,-174.268"/>
<polygon fill="#9a32cd" stroke="#9a32cd" points="526.359,-163.625 516.263,-166.838 526.159,-170.622 526.359,-163.625"/>
<text text-anchor="middle" x="580.5" y="-172.5" font-family="Helvetica,sans-Serif" font-size="10.00"> elements</text>
</g>
<!-- Node32 -->
<g id="node31" class="node"><title>Node32</title>
<polygon fill="white" stroke="#bfbfbf" points="952,-248 952,-267 1128,-267 1128,-248 952,-248"/>
<text text-anchor="middle" x="1040" y="-255" font-family="Helvetica,sans-Serif" font-size="10.00">std::vector&lt; node_constraint_t &gt;</text>
</g>
<!-- Node32&#45;&gt;Node16 -->
<g id="edge31" class="edge"><title>Node32&#45;&gt;Node16</title>
<path fill="none" stroke="#9a32cd" stroke-dasharray="5,2" d="M1138.28,-254.276C1168.39,-254.28 1201.63,-255.306 1232,-258.5 1247.14,-260.093 1263.42,-262.996 1278.21,-266.105"/>
<polygon fill="#9a32cd" stroke="#9a32cd" points="1138.19,-250.776 1128.2,-254.313 1138.21,-257.776 1138.19,-250.776"/>
<text text-anchor="middle" x="1189" y="-261.5" font-family="Helvetica,sans-Serif" font-size="10.00"> node_constraints</text>
</g>
<!-- Node33 -->
<g id="node32" class="node"><title>Node33</title>
<g id="a_node32"><a xlink:href="classant_1_1analysis_1_1utils_1_1_trigger_simulation.html" target="_top" xlink:title="ant::analysis::utils\l::TriggerSimulation">
<polygon fill="white" stroke="black" points="1277,-0.5 1277,-30.5 1382,-30.5 1382,-0.5 1277,-0.5"/>
<text text-anchor="start" x="1285" y="-18.5" font-family="Helvetica,sans-Serif" font-size="10.00">ant::analysis::utils</text>
<text text-anchor="middle" x="1329.5" y="-7.5" font-family="Helvetica,sans-Serif" font-size="10.00">::TriggerSimulation</text>
</a>
</g>
</g>
<!-- Node33&#45;&gt;Node2 -->
<g id="edge36" class="edge"><title>Node33&#45;&gt;Node2</title>
<path fill="none" stroke="#9a32cd" stroke-dasharray="5,2" d="M1392.43,-12.0367C1443.12,-9.5006 1516.67,-6.5 1581,-6.5 1581,-6.5 1581,-6.5 2071,-6.5 2175.46,-6.5 2250.24,-138.172 2272.86,-183.434"/>
<polygon fill="#9a32cd" stroke="#9a32cd" points="1392.1,-8.54883 1382.29,-12.5531 1392.46,-15.5398 1392.1,-8.54883"/>
<text text-anchor="middle" x="1853" y="-9.5" font-family="Helvetica,sans-Serif" font-size="10.00"> triggersimu</text>
</g>
<!-- Node33&#45;&gt;Node7 -->
<g id="edge34" class="edge"><title>Node33&#45;&gt;Node7</title>
<path fill="none" stroke="#9a32cd" stroke-dasharray="5,2" d="M1392.14,-19.0306C1434.95,-22.5864 1487.36,-29.4867 1505,-42.5 1552.76,-77.7276 1572.02,-151.118 1578.36,-183.075"/>
<polygon fill="#9a32cd" stroke="#9a32cd" points="1392.3,-15.5321 1382.05,-18.2385 1391.75,-22.5106 1392.3,-15.5321"/>
<text text-anchor="middle" x="1466" y="-45.5" font-family="Helvetica,sans-Serif" font-size="10.00"> triggersimu</text>
</g>
</g>
</svg>
