<?xml version="1.0" encoding="UTF-8" standalone="no"?>
<!DOCTYPE svg PUBLIC "-//W3C//DTD SVG 1.1//EN"
 "http://www.w3.org/Graphics/SVG/1.1/DTD/svg11.dtd">
<!-- Generated by graphviz version 2.38.0 (20140413.2041)
 -->
<!-- Title: ant::analysis::physics::scratch_lheijken_InterpolatedPulls_pi0eeg Pages: 1 -->
<svg width="983pt" height="374pt"
 viewBox="0.00 0.00 983.00 374.00" xmlns="http://www.w3.org/2000/svg" xmlns:xlink="http://www.w3.org/1999/xlink">
<g id="graph0" class="graph" transform="scale(1 1) rotate(0) translate(4 370)">
<title>ant::analysis::physics::scratch_lheijken_InterpolatedPulls_pi0eeg</title>
<polygon fill="white" stroke="none" points="-4,4 -4,-370 979,-370 979,4 -4,4"/>
<!-- Node2 -->
<g id="node1" class="node"><title>Node2</title>
<polygon fill="#bfbfbf" stroke="black" points="813,-133 813,-174 975,-174 975,-133 813,-133"/>
<text text-anchor="start" x="821" y="-162" font-family="Helvetica,sans-Serif" font-size="10.00">ant::analysis::physics</text>
<text text-anchor="start" x="821" y="-151" font-family="Helvetica,sans-Serif" font-size="10.00">::scratch_lheijken_Interpolated</text>
<text text-anchor="middle" x="894" y="-140" font-family="Helvetica,sans-Serif" font-size="10.00">Pulls_pi0eeg</text>
</g>
<!-- Node3 -->
<g id="node2" class="node"><title>Node3</title>
<g id="a_node2"><a xlink:href="classant_1_1analysis_1_1_physics.html" target="_top" xlink:title="ant::analysis::Physics">
<polygon fill="white" stroke="black" points="549.5,-334 549.5,-353 667.5,-353 667.5,-334 549.5,-334"/>
<text text-anchor="middle" x="608.5" y="-341" font-family="Helvetica,sans-Serif" font-size="10.00">ant::analysis::Physics</text>
</a>
</g>
</g>
<!-- Node3&#45;&gt;Node2 -->
<g id="edge1" class="edge"><title>Node3&#45;&gt;Node2</title>
<path fill="none" stroke="midnightblue" d="M646.232,-330.297C663.279,-323.656 683.58,-315.001 701,-305.5 769.49,-268.145 838.442,-206.245 872.004,-174.18"/>
<polygon fill="midnightblue" stroke="midnightblue" points="644.712,-327.131 636.617,-333.966 647.208,-333.671 644.712,-327.131"/>
</g>
<!-- Node4 -->
<g id="node3" class="node"><title>Node4</title>
<g id="a_node3"><a xlink:href="classant_1_1analysis_1_1_histogram_factory.html" target="_top" xlink:title="ant::analysis::Histogram\lFactory">
<polygon fill="white" stroke="black" points="273,-335.5 273,-365.5 406,-365.5 406,-335.5 273,-335.5"/>
<text text-anchor="start" x="281" y="-353.5" font-family="Helvetica,sans-Serif" font-size="10.00">ant::analysis::Histogram</text>
<text text-anchor="middle" x="339.5" y="-342.5" font-family="Helvetica,sans-Serif" font-size="10.00">Factory</text>
</a>
</g>
</g>
<!-- Node4&#45;&gt;Node3 -->
<g id="edge2" class="edge"><title>Node4&#45;&gt;Node3</title>
<path fill="none" stroke="#9a32cd" stroke-dasharray="5,2" d="M416.397,-348.51C458.629,-347.403 510.376,-346.046 549.367,-345.024"/>
<polygon fill="#9a32cd" stroke="#9a32cd" points="416.062,-345.018 406.158,-348.779 416.246,-352.015 416.062,-345.018"/>
<text text-anchor="middle" x="465" y="-350.5" font-family="Helvetica,sans-Serif" font-size="10.00"> HistFac</text>
</g>
<!-- Node5 -->
<g id="node4" class="node"><title>Node5</title>
<g id="a_node4"><a xlink:href="structant_1_1analysis_1_1physics_1_1scratch__lheijken___interpolated_pulls__pi0eeg_1_1_tree__t.html" target="_top" xlink:title="ant::analysis::physics\l::scratch_lheijken_Interpolated\lPulls_pi0eeg::Tree_t">
<polygon fill="white" stroke="black" points="527.5,-255 527.5,-296 689.5,-296 689.5,-255 527.5,-255"/>
<text text-anchor="start" x="535.5" y="-284" font-family="Helvetica,sans-Serif" font-size="10.00">ant::analysis::physics</text>
<text text-anchor="start" x="535.5" y="-273" font-family="Helvetica,sans-Serif" font-size="10.00">::scratch_lheijken_Interpolated</text>
<text text-anchor="middle" x="608.5" y="-262" font-family="Helvetica,sans-Serif" font-size="10.00">Pulls_pi0eeg::Tree_t</text>
</a>
</g>
</g>
<!-- Node5&#45;&gt;Node2 -->
<g id="edge3" class="edge"><title>Node5&#45;&gt;Node2</title>
<path fill="none" stroke="#9a32cd" stroke-dasharray="5,2" d="M666.76,-250.859C719.15,-228.314 795.788,-195.334 845.033,-174.142"/>
<polygon fill="#9a32cd" stroke="#9a32cd" points="665.073,-247.774 657.271,-254.942 667.84,-254.204 665.073,-247.774"/>
<text text-anchor="middle" x="757" y="-228.5" font-family="Helvetica,sans-Serif" font-size="10.00"> t</text>
</g>
<!-- Node6 -->
<g id="node5" class="node"><title>Node6</title>
<g id="a_node5"><a xlink:href="classant_1_1_wrap_t_tree.html" target="_top" xlink:title="The WrapTTree struct simplifies TTree handling in physics classes. ">
<polygon fill="white" stroke="black" points="296.5,-297 296.5,-316 382.5,-316 382.5,-297 296.5,-297"/>
<text text-anchor="middle" x="339.5" y="-304" font-family="Helvetica,sans-Serif" font-size="10.00">ant::WrapTTree</text>
</a>
</g>
</g>
<!-- Node6&#45;&gt;Node5 -->
<g id="edge4" class="edge"><title>Node6&#45;&gt;Node5</title>
<path fill="none" stroke="midnightblue" d="M392.907,-300.415C431.177,-295.972 483.76,-289.867 527.295,-284.812"/>
<polygon fill="midnightblue" stroke="midnightblue" points="392.042,-296.992 382.512,-301.622 392.849,-303.945 392.042,-296.992"/>
</g>
<!-- Node7 -->
<g id="node6" class="node"><title>Node7</title>
<g id="a_node6"><a xlink:href="classant_1_1analysis_1_1utils_1_1_kin_fitter.html" target="_top" xlink:title="ant::analysis::utils\l::KinFitter">
<polygon fill="white" stroke="black" points="557.5,-169.5 557.5,-199.5 659.5,-199.5 659.5,-169.5 557.5,-169.5"/>
<text text-anchor="start" x="565.5" y="-187.5" font-family="Helvetica,sans-Serif" font-size="10.00">ant::analysis::utils</text>
<text text-anchor="middle" x="608.5" y="-176.5" font-family="Helvetica,sans-Serif" font-size="10.00">::KinFitter</text>
</a>
</g>
</g>
<!-- Node7&#45;&gt;Node2 -->
<g id="edge5" class="edge"><title>Node7&#45;&gt;Node2</title>
<path fill="none" stroke="#9a32cd" stroke-dasharray="5,2" d="M669.551,-177.934C711.297,-173.369 767.396,-167.234 812.94,-162.254"/>
<polygon fill="#9a32cd" stroke="#9a32cd" points="669.092,-174.463 659.532,-179.029 669.853,-181.421 669.092,-174.463"/>
<text text-anchor="middle" x="757" y="-175.5" font-family="Helvetica,sans-Serif" font-size="10.00"> fitter</text>
</g>
<!-- Node8 -->
<g id="node7" class="node"><title>Node8</title>
<g id="a_node7"><a xlink:href="classant_1_1analysis_1_1utils_1_1_fitter.html" target="_top" xlink:title="ant::analysis::utils\l::Fitter">
<polygon fill="white" stroke="black" points="288.5,-247.5 288.5,-277.5 390.5,-277.5 390.5,-247.5 288.5,-247.5"/>
<text text-anchor="start" x="296.5" y="-265.5" font-family="Helvetica,sans-Serif" font-size="10.00">ant::analysis::utils</text>
<text text-anchor="middle" x="339.5" y="-254.5" font-family="Helvetica,sans-Serif" font-size="10.00">::Fitter</text>
</a>
</g>
</g>
<!-- Node8&#45;&gt;Node7 -->
<g id="edge6" class="edge"><title>Node8&#45;&gt;Node7</title>
<path fill="none" stroke="midnightblue" d="M400.339,-246.217C429.805,-238.088 465.827,-227.987 498,-218.5 518.43,-212.476 540.911,-205.548 560.159,-199.524"/>
<polygon fill="midnightblue" stroke="midnightblue" points="399.325,-242.866 390.612,-248.894 401.183,-249.615 399.325,-242.866"/>
</g>
<!-- Node9 -->
<g id="node8" class="node"><title>Node9</title>
<g id="a_node8"><a xlink:href="structant_1_1analysis_1_1utils_1_1_kin_fitter_1_1_target__t.html" target="_top" xlink:title="ant::analysis::utils\l::KinFitter::Target_t">
<polygon fill="white" stroke="black" points="287,-198.5 287,-228.5 392,-228.5 392,-198.5 287,-198.5"/>
<text text-anchor="start" x="295" y="-216.5" font-family="Helvetica,sans-Serif" font-size="10.00">ant::analysis::utils</text>
<text text-anchor="middle" x="339.5" y="-205.5" font-family="Helvetica,sans-Serif" font-size="10.00">::KinFitter::Target_t</text>
</a>
</g>
</g>
<!-- Node9&#45;&gt;Node7 -->
<g id="edge7" class="edge"><title>Node9&#45;&gt;Node7</title>
<path fill="none" stroke="#9a32cd" stroke-dasharray="5,2" d="M402.364,-206.781C449.399,-201.672 513.29,-194.733 557.205,-189.963"/>
<polygon fill="#9a32cd" stroke="#9a32cd" points="401.86,-203.315 392.297,-207.874 402.616,-210.274 401.86,-203.315"/>
<text text-anchor="middle" x="465" y="-206.5" font-family="Helvetica,sans-Serif" font-size="10.00"> Target</text>
</g>
<!-- Node10 -->
<g id="node9" class="node"><title>Node10</title>
<g id="a_node9"><a xlink:href="structant_1_1analysis_1_1utils_1_1_kin_fitter_1_1_beam_e__t.html" target="_top" xlink:title="ant::analysis::utils\l::KinFitter::BeamE_t">
<polygon fill="white" stroke="black" points="284.5,-149.5 284.5,-179.5 394.5,-179.5 394.5,-149.5 284.5,-149.5"/>
<text text-anchor="start" x="292.5" y="-167.5" font-family="Helvetica,sans-Serif" font-size="10.00">ant::analysis::utils</text>
<text text-anchor="middle" x="339.5" y="-156.5" font-family="Helvetica,sans-Serif" font-size="10.00">::KinFitter::BeamE_t</text>
</a>
</g>
</g>
<!-- Node10&#45;&gt;Node7 -->
<g id="edge8" class="edge"><title>Node10&#45;&gt;Node7</title>
<path fill="none" stroke="#9a32cd" stroke-dasharray="5,2" d="M404.564,-169.299C451.36,-172.804 513.929,-177.491 557.162,-180.729"/>
<polygon fill="#9a32cd" stroke="#9a32cd" points="404.765,-165.804 394.531,-168.547 404.242,-172.785 404.765,-165.804"/>
<text text-anchor="middle" x="465" y="-179.5" font-family="Helvetica,sans-Serif" font-size="10.00"> BeamE</text>
</g>
<!-- Node11 -->
<g id="node10" class="node"><title>Node11</title>
<polygon fill="white" stroke="#bfbfbf" points="143,-155 143,-174 199,-174 199,-155 143,-155"/>
<text text-anchor="middle" x="171" y="-162" font-family="Helvetica,sans-Serif" font-size="10.00">V_S_P_t</text>
</g>
<!-- Node11&#45;&gt;Node10 -->
<g id="edge9" class="edge"><title>Node11&#45;&gt;Node10</title>
<path fill="none" stroke="midnightblue" d="M209.131,-164.5C231.295,-164.5 259.829,-164.5 284.458,-164.5"/>
<polygon fill="midnightblue" stroke="midnightblue" points="209.122,-161 199.122,-164.5 209.122,-168 209.122,-161"/>
</g>
<!-- Node12 -->
<g id="node11" class="node"><title>Node12</title>
<polygon fill="white" stroke="#bfbfbf" points="272,-111 272,-130 407,-130 407,-111 272,-111"/>
<text text-anchor="middle" x="339.5" y="-118" font-family="Helvetica,sans-Serif" font-size="10.00">std::vector&lt; FitParticle &gt;</text>
</g>
<!-- Node12&#45;&gt;Node7 -->
<g id="edge10" class="edge"><title>Node12&#45;&gt;Node7</title>
<path fill="none" stroke="#9a32cd" stroke-dasharray="5,2" d="M391.73,-132.385C422.548,-139.571 462.548,-148.965 498,-157.5 517.417,-162.174 538.744,-167.41 557.377,-172.018"/>
<polygon fill="#9a32cd" stroke="#9a32cd" points="392.184,-128.897 381.65,-130.036 390.596,-135.714 392.184,-128.897"/>
<text text-anchor="middle" x="465" y="-160.5" font-family="Helvetica,sans-Serif" font-size="10.00"> Photons</text>
</g>
<!-- Node13 -->
<g id="node12" class="node"><title>Node13</title>
<g id="a_node12"><a xlink:href="classant_1_1analysis_1_1utils_1_1_pulls_writer.html" target="_top" xlink:title="ant::analysis::utils\l::PullsWriter\&lt; ant::analysis\l::physics::scratch_lheijken\l_InterpolatedPulls_pi0eeg::Tree_t \&gt;">
<polygon fill="white" stroke="black" points="516,-98.5 516,-150.5 701,-150.5 701,-98.5 516,-98.5"/>
<text text-anchor="start" x="524" y="-138.5" font-family="Helvetica,sans-Serif" font-size="10.00">ant::analysis::utils</text>
<text text-anchor="start" x="524" y="-127.5" font-family="Helvetica,sans-Serif" font-size="10.00">::PullsWriter&lt; ant::analysis</text>
<text text-anchor="start" x="524" y="-116.5" font-family="Helvetica,sans-Serif" font-size="10.00">::physics::scratch_lheijken</text>
<text text-anchor="middle" x="608.5" y="-105.5" font-family="Helvetica,sans-Serif" font-size="10.00">_InterpolatedPulls_pi0eeg::Tree_t &gt;</text>
</a>
</g>
</g>
<!-- Node13&#45;&gt;Node2 -->
<g id="edge11" class="edge"><title>Node13&#45;&gt;Node2</title>
<path fill="none" stroke="#9a32cd" stroke-dasharray="5,2" d="M711.374,-134.921C744.67,-138.327 781.161,-142.06 812.644,-145.28"/>
<polygon fill="#9a32cd" stroke="#9a32cd" points="711.457,-131.411 701.153,-133.875 710.745,-138.375 711.457,-131.411"/>
<text text-anchor="middle" x="757" y="-146.5" font-family="Helvetica,sans-Serif" font-size="10.00"> pullswriter</text>
</g>
<!-- Node14 -->
<g id="node13" class="node"><title>Node14</title>
<g id="a_node13"><a xlink:href="structant_1_1analysis_1_1utils_1_1_pulls_writer_1_1_pull_tree__t.html" target="_top" xlink:title="ant::analysis::utils\l::PullsWriter\&lt; AddWrapTTree\l \&gt;::PullTree_t">
<polygon fill="white" stroke="black" points="265,-51 265,-92 414,-92 414,-51 265,-51"/>
<text text-anchor="start" x="273" y="-80" font-family="Helvetica,sans-Serif" font-size="10.00">ant::analysis::utils</text>
<text text-anchor="start" x="273" y="-69" font-family="Helvetica,sans-Serif" font-size="10.00">::PullsWriter&lt; AddWrapTTree</text>
<text text-anchor="middle" x="339.5" y="-58" font-family="Helvetica,sans-Serif" font-size="10.00"> &gt;::PullTree_t</text>
</a>
</g>
</g>
<!-- Node14&#45;&gt;Node13 -->
<g id="edge12" class="edge"><title>Node14&#45;&gt;Node13</title>
<path fill="none" stroke="#9a32cd" stroke-dasharray="5,2" d="M424.561,-61.0904C448.92,-60.9586 475.104,-63.7118 498,-72.5 507.993,-76.3356 506.879,-82.8986 516,-88.5 521.819,-92.0734 528.053,-95.409 534.431,-98.4939"/>
<polygon fill="#9a32cd" stroke="#9a32cd" points="424.17,-57.598 414.248,-61.3144 424.322,-64.5963 424.17,-57.598"/>
<text text-anchor="middle" x="465" y="-108.5" font-family="Helvetica,sans-Serif" font-size="10.00"> proton_cb</text>
<text text-anchor="middle" x="465" y="-97.5" font-family="Helvetica,sans-Serif" font-size="10.00">proton_taps</text>
<text text-anchor="middle" x="465" y="-86.5" font-family="Helvetica,sans-Serif" font-size="10.00">photons_taps</text>
<text text-anchor="middle" x="465" y="-75.5" font-family="Helvetica,sans-Serif" font-size="10.00">photons_cb</text>
</g>
<!-- Node15 -->
<g id="node14" class="node"><title>Node15</title>
<polygon fill="white" stroke="#bfbfbf" points="129.5,-62 129.5,-81 212.5,-81 212.5,-62 129.5,-62"/>
<text text-anchor="middle" x="171" y="-69" font-family="Helvetica,sans-Serif" font-size="10.00">AddWrapTTree</text>
</g>
<!-- Node15&#45;&gt;Node14 -->
<g id="edge13" class="edge"><title>Node15&#45;&gt;Node14</title>
<path fill="none" stroke="midnightblue" d="M222.997,-71.5C236.18,-71.5 250.638,-71.5 264.729,-71.5"/>
<polygon fill="midnightblue" stroke="midnightblue" points="222.731,-68.0001 212.73,-71.5 222.73,-75.0001 222.731,-68.0001"/>
</g>
<!-- Node16 -->
<g id="node15" class="node"><title>Node16</title>
<g id="a_node15"><a xlink:href="classant_1_1analysis_1_1_prompt_random_1_1_switch.html" target="_top" xlink:title="ant::analysis::PromptRandom\l::Switch">
<polygon fill="white" stroke="black" points="529.5,-49.5 529.5,-79.5 687.5,-79.5 687.5,-49.5 529.5,-49.5"/>
<text text-anchor="start" x="537.5" y="-67.5" font-family="Helvetica,sans-Serif" font-size="10.00">ant::analysis::PromptRandom</text>
<text text-anchor="middle" x="608.5" y="-56.5" font-family="Helvetica,sans-Serif" font-size="10.00">::Switch</text>
</a>
</g>
</g>
<!-- Node16&#45;&gt;Node2 -->
<g id="edge14" class="edge"><title>Node16&#45;&gt;Node2</title>
<path fill="none" stroke="#9a32cd" stroke-dasharray="5,2" d="M678.989,-82.1812C686.44,-84.2393 693.891,-86.3671 701,-88.5 746.673,-102.203 797.787,-119.61 835.786,-132.961"/>
<polygon fill="#9a32cd" stroke="#9a32cd" points="679.793,-78.7725 669.224,-79.5213 677.953,-85.5264 679.793,-78.7725"/>
<text text-anchor="middle" x="757" y="-120.5" font-family="Helvetica,sans-Serif" font-size="10.00"> promptrandom</text>
</g>
<!-- Node17 -->
<g id="node16" class="node"><title>Node17</title>
<g id="a_node16"><a xlink:href="classant_1_1_piecewise_interval.html" target="_top" xlink:title="ant::PiecewiseInterval\l\&lt; double \&gt;">
<polygon fill="white" stroke="black" points="280,-2.5 280,-32.5 399,-32.5 399,-2.5 280,-2.5"/>
<text text-anchor="start" x="288" y="-20.5" font-family="Helvetica,sans-Serif" font-size="10.00">ant::PiecewiseInterval</text>
<text text-anchor="middle" x="339.5" y="-9.5" font-family="Helvetica,sans-Serif" font-size="10.00">&lt; double &gt;</text>
</a>
</g>
</g>
<!-- Node17&#45;&gt;Node16 -->
<g id="edge15" class="edge"><title>Node17&#45;&gt;Node16</title>
<path fill="none" stroke="#9a32cd" stroke-dasharray="5,2" d="M409.282,-14.1651C437.426,-14.7597 469.91,-18.0132 498,-27.5 507.109,-30.5765 507.25,-35.515 516,-39.5 524.243,-43.2539 533.167,-46.5488 542.1,-49.4086"/>
<polygon fill="#9a32cd" stroke="#9a32cd" points="409.161,-10.6637 399.125,-14.0596 409.089,-17.6633 409.161,-10.6637"/>
<text text-anchor="middle" x="465" y="-41.5" font-family="Helvetica,sans-Serif" font-size="10.00"> promptw</text>
<text text-anchor="middle" x="465" y="-30.5" font-family="Helvetica,sans-Serif" font-size="10.00">randomw</text>
</g>
<!-- Node18 -->
<g id="node17" class="node"><title>Node18</title>
<g id="a_node17"><a xlink:title="STL class. ">
<polygon fill="white" stroke="#bfbfbf" points="114,-2.5 114,-32.5 228,-32.5 228,-2.5 114,-2.5"/>
<text text-anchor="start" x="122" y="-20.5" font-family="Helvetica,sans-Serif" font-size="10.00">std::vector&lt; interval</text>
<text text-anchor="middle" x="171" y="-9.5" font-family="Helvetica,sans-Serif" font-size="10.00">&lt; double &gt; &gt;</text>
</a>
</g>
</g>
<!-- Node18&#45;&gt;Node17 -->
<g id="edge16" class="edge"><title>Node18&#45;&gt;Node17</title>
<path fill="none" stroke="midnightblue" d="M238.66,-17.5C252.308,-17.5 266.576,-17.5 279.915,-17.5"/>
<polygon fill="midnightblue" stroke="midnightblue" points="238.369,-14.0001 228.369,-17.5 238.369,-21.0001 238.369,-14.0001"/>
</g>
<!-- Node19 -->
<g id="node18" class="node"><title>Node19</title>
<polygon fill="white" stroke="#bfbfbf" points="0,-8 0,-27 29,-27 29,-8 0,-8"/>
<text text-anchor="middle" x="14.5" y="-15" font-family="Helvetica,sans-Serif" font-size="10.00">T</text>
</g>
<!-- Node19&#45;&gt;Node18 -->
<g id="edge17" class="edge"><title>Node19&#45;&gt;Node18</title>
<path fill="none" stroke="#9a32cd" stroke-dasharray="5,2" d="M39.4618,-17.5C59.2697,-17.5 88.1942,-17.5 113.785,-17.5"/>
<polygon fill="#9a32cd" stroke="#9a32cd" points="39.2109,-14.0001 29.2108,-17.5 39.2108,-21.0001 39.2109,-14.0001"/>
<text text-anchor="middle" x="71.5" y="-20.5" font-family="Helvetica,sans-Serif" font-size="10.00"> elements</text>
</g>
<!-- Node20 -->
<g id="node19" class="node"><title>Node20</title>
<g id="a_node19"><a xlink:href="classant_1_1analysis_1_1utils_1_1_trigger_simulation.html" target="_top" xlink:title="ant::analysis::utils\l::TriggerSimulation">
<polygon fill="white" stroke="black" points="556,-0.5 556,-30.5 661,-30.5 661,-0.5 556,-0.5"/>
<text text-anchor="start" x="564" y="-18.5" font-family="Helvetica,sans-Serif" font-size="10.00">ant::analysis::utils</text>
<text text-anchor="middle" x="608.5" y="-7.5" font-family="Helvetica,sans-Serif" font-size="10.00">::TriggerSimulation</text>
</a>
</g>
</g>
<!-- Node20&#45;&gt;Node2 -->
<g id="edge18" class="edge"><title>Node20&#45;&gt;Node2</title>
<path fill="none" stroke="#9a32cd" stroke-dasharray="5,2" d="M671.171,-30.2779C681.22,-33.0851 691.458,-36.1899 701,-39.5 744.062,-54.4378 755.577,-57.6253 795,-80.5 821.608,-95.9387 849.514,-117.308 868.711,-132.936"/>
<polygon fill="#9a32cd" stroke="#9a32cd" points="671.785,-26.8181 661.217,-27.5735 669.95,-33.5732 671.785,-26.8181"/>
<text text-anchor="middle" x="757" y="-83.5" font-family="Helvetica,sans-Serif" font-size="10.00"> triggersimu</text>
</g>
</g>
</svg>
