<?xml version="1.0" encoding="UTF-8" standalone="no"?>
<!DOCTYPE svg PUBLIC "-//W3C//DTD SVG 1.1//EN"
 "http://www.w3.org/Graphics/SVG/1.1/DTD/svg11.dtd">
<!-- Generated by graphviz version 2.38.0 (20140413.2041)
 -->
<!-- Title: ant::analysis::physics::EventFilter Pages: 1 -->
<svg width="551pt" height="122pt"
 viewBox="0.00 0.00 551.00 121.50" xmlns="http://www.w3.org/2000/svg" xmlns:xlink="http://www.w3.org/1999/xlink">
<g id="graph0" class="graph" transform="scale(1 1) rotate(0) translate(4 117.5)">
<title>ant::analysis::physics::EventFilter</title>
<polygon fill="white" stroke="none" points="-4,4 -4,-117.5 547,-117.5 547,4 -4,4"/>
<!-- Node2 -->
<g id="node1" class="node"><title>Node2</title>
<polygon fill="#bfbfbf" stroke="black" points="425,-39 425,-69 543,-69 543,-39 425,-39"/>
<text text-anchor="start" x="433" y="-57" font-family="Helvetica,sans-Serif" font-size="10.00">ant::analysis::physics</text>
<text text-anchor="middle" x="484" y="-46" font-family="Helvetica,sans-Serif" font-size="10.00">::EventFilter</text>
</g>
<!-- Node3 -->
<g id="node2" class="node"><title>Node3</title>
<g id="a_node2"><a xlink:href="classant_1_1analysis_1_1_physics.html" target="_top" xlink:title="ant::analysis::Physics">
<polygon fill="white" stroke="black" points="210,-88.5 210,-107.5 328,-107.5 328,-88.5 210,-88.5"/>
<text text-anchor="middle" x="269" y="-95.5" font-family="Helvetica,sans-Serif" font-size="10.00">ant::analysis::Physics</text>
</a>
</g>
</g>
<!-- Node3&#45;&gt;Node2 -->
<g id="edge1" class="edge"><title>Node3&#45;&gt;Node2</title>
<path fill="none" stroke="midnightblue" d="M326.222,-86.3861C356.579,-80.1152 394.009,-72.3832 424.682,-66.0468"/>
<polygon fill="midnightblue" stroke="midnightblue" points="325.303,-83.0019 316.218,-88.4527 326.719,-89.8572 325.303,-83.0019"/>
</g>
<!-- Node4 -->
<g id="node3" class="node"><title>Node4</title>
<g id="a_node3"><a xlink:href="classant_1_1analysis_1_1_histogram_factory.html" target="_top" xlink:title="ant::analysis::Histogram\lFactory">
<polygon fill="white" stroke="black" points="0,-83 0,-113 133,-113 133,-83 0,-83"/>
<text text-anchor="start" x="8" y="-101" font-family="Helvetica,sans-Serif" font-size="10.00">ant::analysis::Histogram</text>
<text text-anchor="middle" x="66.5" y="-90" font-family="Helvetica,sans-Serif" font-size="10.00">Factory</text>
</a>
</g>
</g>
<!-- Node4&#45;&gt;Node3 -->
<g id="edge2" class="edge"><title>Node4&#45;&gt;Node3</title>
<path fill="none" stroke="#9a32cd" stroke-dasharray="5,2" d="M143.179,-98C165.301,-98 189.125,-98 209.969,-98"/>
<polygon fill="#9a32cd" stroke="#9a32cd" points="143.151,-94.5001 133.151,-98 143.151,-101.5 143.151,-94.5001"/>
<text text-anchor="middle" x="170" y="-101" font-family="Helvetica,sans-Serif" font-size="10.00"> HistFac</text>
</g>
<!-- Node5 -->
<g id="node4" class="node"><title>Node5</title>
<g id="a_node4"><a xlink:href="classant_1_1analysis_1_1utils_1_1_trigger_simulation.html" target="_top" xlink:title="ant::analysis::utils\l::TriggerSimulation">
<polygon fill="white" stroke="black" points="216.5,-39 216.5,-69 321.5,-69 321.5,-39 216.5,-39"/>
<text text-anchor="start" x="224.5" y="-57" font-family="Helvetica,sans-Serif" font-size="10.00">ant::analysis::utils</text>
<text text-anchor="middle" x="269" y="-46" font-family="Helvetica,sans-Serif" font-size="10.00">::TriggerSimulation</text>
</a>
</g>
</g>
<!-- Node5&#45;&gt;Node2 -->
<g id="edge3" class="edge"><title>Node5&#45;&gt;Node2</title>
<path fill="none" stroke="#9a32cd" stroke-dasharray="5,2" d="M331.687,-54C361.019,-54 395.9,-54 424.775,-54"/>
<polygon fill="#9a32cd" stroke="#9a32cd" points="331.561,-50.5001 321.561,-54 331.561,-57.5001 331.561,-50.5001"/>
<text text-anchor="middle" x="378" y="-57" font-family="Helvetica,sans-Serif" font-size="10.00"> triggersimu</text>
</g>
<!-- Node6 -->
<g id="node5" class="node"><title>Node6</title>
<g id="a_node5"><a xlink:href="classant_1_1interval.html" target="_top" xlink:title="ant::interval\&lt; size_t \&gt;">
<polygon fill="white" stroke="black" points="207,-0.5 207,-19.5 331,-19.5 331,-0.5 207,-0.5"/>
<text text-anchor="middle" x="269" y="-7.5" font-family="Helvetica,sans-Serif" font-size="10.00">ant::interval&lt; size_t &gt;</text>
</a>
</g>
</g>
<!-- Node6&#45;&gt;Node2 -->
<g id="edge4" class="edge"><title>Node6&#45;&gt;Node2</title>
<path fill="none" stroke="#9a32cd" stroke-dasharray="5,2" d="M326.222,-21.6139C356.579,-27.8848 394.009,-35.6168 424.682,-41.9532"/>
<polygon fill="#9a32cd" stroke="#9a32cd" points="326.719,-18.1428 316.218,-19.5473 325.303,-24.9981 326.719,-18.1428"/>
<text text-anchor="middle" x="378" y="-41" font-family="Helvetica,sans-Serif" font-size="10.00"> nCands</text>
</g>
</g>
</svg>
