<?xml version="1.0" encoding="UTF-8" standalone="no"?>
<!DOCTYPE svg PUBLIC "-//W3C//DTD SVG 1.1//EN"
 "http://www.w3.org/Graphics/SVG/1.1/DTD/svg11.dtd">
<!-- Generated by graphviz version 2.38.0 (20140413.2041)
 -->
<!-- Title: ant::calibration::PID_Energy Pages: 1 -->
<svg width="804pt" height="160pt"
 viewBox="0.00 0.00 804.00 160.00" xmlns="http://www.w3.org/2000/svg" xmlns:xlink="http://www.w3.org/1999/xlink">
<g id="graph0" class="graph" transform="scale(1 1) rotate(0) translate(4 156)">
<title>ant::calibration::PID_Energy</title>
<polygon fill="white" stroke="none" points="-4,4 -4,-156 800,-156 800,4 -4,4"/>
<!-- Node0 -->
<g id="node1" class="node"><title>Node0</title>
<polygon fill="#bfbfbf" stroke="black" points="686,-22.5 686,-52.5 796,-52.5 796,-22.5 686,-22.5"/>
<text text-anchor="start" x="694" y="-40.5" font-family="Helvetica,sans-Serif" font-size="10.00">ant::calibration::PID</text>
<text text-anchor="middle" x="741" y="-29.5" font-family="Helvetica,sans-Serif" font-size="10.00">_Energy</text>
</g>
<!-- Node1 -->
<g id="node2" class="node"><title>Node1</title>
<g id="a_node2"><a xlink:href="classant_1_1calibration_1_1_energy.html" target="_top" xlink:title="ant::calibration::Energy">
<polygon fill="white" stroke="black" points="523,-50 523,-69 650,-69 650,-50 523,-50"/>
<text text-anchor="middle" x="586.5" y="-57" font-family="Helvetica,sans-Serif" font-size="10.00">ant::calibration::Energy</text>
</a>
</g>
</g>
<!-- Node1&#45;&gt;Node0 -->
<g id="edge1" class="edge"><title>Node1&#45;&gt;Node0</title>
<path fill="none" stroke="midnightblue" d="M660.455,-48.9753C669.058,-47.7343 677.717,-46.4851 685.993,-45.2912"/>
<polygon fill="midnightblue" stroke="midnightblue" points="659.806,-45.5327 650.408,-50.4247 660.805,-52.461 659.806,-45.5327"/>
</g>
<!-- Node2 -->
<g id="node3" class="node"><title>Node2</title>
<g id="a_node3"><a xlink:href="classant_1_1_calibration_1_1_module.html" target="_top" xlink:title="The Module class is typically used for calibrations. ">
<polygon fill="white" stroke="black" points="357,-94 357,-113 487,-113 487,-94 357,-94"/>
<text text-anchor="middle" x="422" y="-101" font-family="Helvetica,sans-Serif" font-size="10.00">ant::Calibration::Module</text>
</a>
</g>
</g>
<!-- Node2&#45;&gt;Node1 -->
<g id="edge2" class="edge"><title>Node2&#45;&gt;Node1</title>
<path fill="none" stroke="midnightblue" d="M468.234,-91.2522C494.177,-84.2276 526.262,-75.54 550.309,-69.0287"/>
<polygon fill="midnightblue" stroke="midnightblue" points="466.998,-87.9607 458.26,-93.9527 468.827,-94.7174 466.998,-87.9607"/>
</g>
<!-- Node3 -->
<g id="node4" class="node"><title>Node3</title>
<g id="a_node4"><a xlink:href="classant_1_1_calibration_1_1_physics_module.html" target="_top" xlink:title="The PhysicsModule class gives the modules the ability to create histograms from events as well as fit...">
<polygon fill="white" stroke="black" points="190,-121.5 190,-151.5 321,-151.5 321,-121.5 190,-121.5"/>
<text text-anchor="start" x="198" y="-139.5" font-family="Helvetica,sans-Serif" font-size="10.00">ant::Calibration::Physics</text>
<text text-anchor="middle" x="255.5" y="-128.5" font-family="Helvetica,sans-Serif" font-size="10.00">Module</text>
</a>
</g>
</g>
<!-- Node3&#45;&gt;Node2 -->
<g id="edge3" class="edge"><title>Node3&#45;&gt;Node2</title>
<path fill="none" stroke="midnightblue" d="M330.961,-121.563C345.394,-118.667 360.149,-115.707 373.428,-113.043"/>
<polygon fill="midnightblue" stroke="midnightblue" points="330.159,-118.154 321.043,-123.552 331.536,-125.017 330.159,-118.154"/>
</g>
<!-- Node4 -->
<g id="node5" class="node"><title>Node4</title>
<g id="a_node5"><a xlink:href="classant_1_1_calibration_1_1_base_module.html" target="_top" xlink:title="The BaseModule class provides a name for identification. ">
<polygon fill="white" stroke="black" points="0,-127 0,-146 154,-146 154,-127 0,-127"/>
<text text-anchor="middle" x="77" y="-134" font-family="Helvetica,sans-Serif" font-size="10.00">ant::Calibration::BaseModule</text>
</a>
</g>
</g>
<!-- Node4&#45;&gt;Node3 -->
<g id="edge4" class="edge"><title>Node4&#45;&gt;Node3</title>
<path fill="none" stroke="midnightblue" d="M164.261,-136.5C172.915,-136.5 181.595,-136.5 189.968,-136.5"/>
<polygon fill="midnightblue" stroke="midnightblue" points="164.133,-133 154.133,-136.5 164.132,-140 164.133,-133"/>
</g>
<!-- Node5 -->
<g id="node6" class="node"><title>Node5</title>
<g id="a_node6"><a xlink:href="structant_1_1_updateable__traits.html" target="_top" xlink:title="The Updateable_traits class used by the UpdateableManager. ">
<polygon fill="white" stroke="black" points="193.5,-83 193.5,-102 317.5,-102 317.5,-83 193.5,-83"/>
<text text-anchor="middle" x="255.5" y="-90" font-family="Helvetica,sans-Serif" font-size="10.00">ant::Updateable_traits</text>
</a>
</g>
</g>
<!-- Node5&#45;&gt;Node2 -->
<g id="edge5" class="edge"><title>Node5&#45;&gt;Node2</title>
<path fill="none" stroke="midnightblue" d="M327.766,-97.2655C337.469,-97.9143 347.379,-98.577 356.944,-99.2166"/>
<polygon fill="midnightblue" stroke="midnightblue" points="327.965,-93.7711 317.754,-96.596 327.498,-100.755 327.965,-93.7711"/>
</g>
<!-- Node6 -->
<g id="node7" class="node"><title>Node6</title>
<g id="a_node7"><a xlink:href="structant_1_1_reconstruct_hook_1_1_detector_read_hits.html" target="_top" xlink:title="The DetectorReadHits struct instances are applied before hit matching. ">
<polygon fill="white" stroke="black" points="362.5,-44.5 362.5,-74.5 481.5,-74.5 481.5,-44.5 362.5,-44.5"/>
<text text-anchor="start" x="370.5" y="-62.5" font-family="Helvetica,sans-Serif" font-size="10.00">ant::ReconstructHook</text>
<text text-anchor="middle" x="422" y="-51.5" font-family="Helvetica,sans-Serif" font-size="10.00">::DetectorReadHits</text>
</a>
</g>
</g>
<!-- Node6&#45;&gt;Node1 -->
<g id="edge6" class="edge"><title>Node6&#45;&gt;Node1</title>
<path fill="none" stroke="midnightblue" d="M491.83,-59.5C502.109,-59.5 512.661,-59.5 522.804,-59.5"/>
<polygon fill="midnightblue" stroke="midnightblue" points="491.666,-56.0001 481.666,-59.5 491.666,-63.0001 491.666,-56.0001"/>
</g>
<!-- Node7 -->
<g id="node8" class="node"><title>Node7</title>
<g id="a_node8"><a xlink:href="structant_1_1_reconstruct_hook_1_1_base.html" target="_top" xlink:title="The Base struct just defines some useful types. ">
<polygon fill="white" stroke="black" points="196,-11.5 196,-41.5 315,-41.5 315,-11.5 196,-11.5"/>
<text text-anchor="start" x="204" y="-29.5" font-family="Helvetica,sans-Serif" font-size="10.00">ant::ReconstructHook</text>
<text text-anchor="middle" x="255.5" y="-18.5" font-family="Helvetica,sans-Serif" font-size="10.00">::Base</text>
</a>
</g>
</g>
<!-- Node7&#45;&gt;Node6 -->
<g id="edge7" class="edge"><title>Node7&#45;&gt;Node6</title>
<path fill="none" stroke="midnightblue" d="M325.242,-40.2903C337.626,-42.7745 350.429,-45.3429 362.488,-47.762"/>
<polygon fill="midnightblue" stroke="midnightblue" points="325.917,-36.8559 315.424,-38.3205 324.54,-43.7192 325.917,-36.8559"/>
</g>
<!-- Node8 -->
<g id="node9" class="node"><title>Node8</title>
<g id="a_node9"><a xlink:href="structant_1_1_reconstruct_hook_1_1_event_data.html" target="_top" xlink:title="The EventData struct instances are applied after candidate building. ">
<polygon fill="white" stroke="black" points="527,-0.5 527,-30.5 646,-30.5 646,-0.5 527,-0.5"/>
<text text-anchor="start" x="535" y="-18.5" font-family="Helvetica,sans-Serif" font-size="10.00">ant::ReconstructHook</text>
<text text-anchor="middle" x="586.5" y="-7.5" font-family="Helvetica,sans-Serif" font-size="10.00">::EventData</text>
</a>
</g>
</g>
<!-- Node7&#45;&gt;Node8 -->
<g id="edge9" class="edge"><title>Node7&#45;&gt;Node8</title>
<path fill="none" stroke="midnightblue" d="M325.407,-24.1961C385.087,-22.2008 470.471,-19.3459 526.914,-17.4588"/>
<polygon fill="midnightblue" stroke="midnightblue" points="325.196,-20.7011 315.319,-24.5334 325.43,-27.6972 325.196,-20.7011"/>
</g>
<!-- Node8&#45;&gt;Node0 -->
<g id="edge8" class="edge"><title>Node8&#45;&gt;Node0</title>
<path fill="none" stroke="midnightblue" d="M655.964,-25.3768C665.991,-26.8233 676.199,-28.2959 685.885,-29.6933"/>
<polygon fill="midnightblue" stroke="midnightblue" points="656.422,-21.9066 646.024,-23.9429 655.422,-28.8349 656.422,-21.9066"/>
</g>
</g>
</svg>
