<?xml version="1.0" encoding="UTF-8" standalone="no"?>
<!DOCTYPE svg PUBLIC "-//W3C//DTD SVG 1.1//EN"
 "http://www.w3.org/Graphics/SVG/1.1/DTD/svg11.dtd">
<!-- Generated by graphviz version 2.38.0 (20140413.2041)
 -->
<!-- Title: ant::calibration::gui::KnobsTF1::ParameterKnob Pages: 1 -->
<svg width="777pt" height="88pt"
 viewBox="0.00 0.00 777.00 88.00" xmlns="http://www.w3.org/2000/svg" xmlns:xlink="http://www.w3.org/1999/xlink">
<g id="graph0" class="graph" transform="scale(1 1) rotate(0) translate(4 84)">
<title>ant::calibration::gui::KnobsTF1::ParameterKnob</title>
<polygon fill="white" stroke="none" points="-4,4 -4,-84 773,-84 773,4 -4,4"/>
<!-- Node0 -->
<g id="node1" class="node"><title>Node0</title>
<polygon fill="#bfbfbf" stroke="black" points="144,-24.5 144,-54.5 293,-54.5 293,-24.5 144,-24.5"/>
<text text-anchor="start" x="152" y="-42.5" font-family="Helvetica,sans-Serif" font-size="10.00">ant::calibration::gui</text>
<text text-anchor="middle" x="218.5" y="-31.5" font-family="Helvetica,sans-Serif" font-size="10.00">::KnobsTF1::ParameterKnob</text>
</g>
<!-- Node2 -->
<g id="node3" class="node"><title>Node2</title>
<g id="a_node3"><a xlink:href="classant_1_1calibration_1_1gui_1_1_knobs_t_f1_1_1_ranged_parameter_knob.html" target="_top" xlink:title="ant::calibration::gui\l::KnobsTF1::RangedParameterKnob">
<polygon fill="white" stroke="black" points="340.5,-49.5 340.5,-79.5 525.5,-79.5 525.5,-49.5 340.5,-49.5"/>
<text text-anchor="start" x="348.5" y="-67.5" font-family="Helvetica,sans-Serif" font-size="10.00">ant::calibration::gui</text>
<text text-anchor="middle" x="433" y="-56.5" font-family="Helvetica,sans-Serif" font-size="10.00">::KnobsTF1::RangedParameterKnob</text>
</a>
</g>
</g>
<!-- Node0&#45;&gt;Node2 -->
<g id="edge2" class="edge"><title>Node0&#45;&gt;Node2</title>
<path fill="none" stroke="midnightblue" d="M303.343,-49.3639C315.52,-50.7965 328.109,-52.2776 340.429,-53.727"/>
<polygon fill="midnightblue" stroke="midnightblue" points="303.566,-45.8661 293.226,-48.1736 302.748,-52.8182 303.566,-45.8661"/>
</g>
<!-- Node3 -->
<g id="node4" class="node"><title>Node3</title>
<g id="a_node4"><a xlink:href="classant_1_1calibration_1_1gui_1_1_knobs_t_f1_1_1_transformed_parameter_knob.html" target="_top" xlink:title="ant::calibration::gui\l::KnobsTF1::TransformedParameterKnob">
<polygon fill="white" stroke="black" points="329,-0.5 329,-30.5 537,-30.5 537,-0.5 329,-0.5"/>
<text text-anchor="start" x="337" y="-18.5" font-family="Helvetica,sans-Serif" font-size="10.00">ant::calibration::gui</text>
<text text-anchor="middle" x="433" y="-7.5" font-family="Helvetica,sans-Serif" font-size="10.00">::KnobsTF1::TransformedParameterKnob</text>
</a>
</g>
</g>
<!-- Node0&#45;&gt;Node3 -->
<g id="edge3" class="edge"><title>Node0&#45;&gt;Node3</title>
<path fill="none" stroke="midnightblue" d="M303.332,-30.032C311.708,-29.0859 320.279,-28.1179 328.824,-27.1529"/>
<polygon fill="midnightblue" stroke="midnightblue" points="302.77,-26.5731 293.226,-31.1733 303.555,-33.5288 302.77,-26.5731"/>
</g>
<!-- Node1 -->
<g id="node2" class="node"><title>Node1</title>
<g id="a_node2"><a xlink:href="classant_1_1calibration_1_1gui_1_1_indicator_knob.html" target="_top" xlink:title="ant::calibration::gui\l::IndicatorKnob">
<polygon fill="white" stroke="black" points="0,-24.5 0,-54.5 108,-54.5 108,-24.5 0,-24.5"/>
<text text-anchor="start" x="8" y="-42.5" font-family="Helvetica,sans-Serif" font-size="10.00">ant::calibration::gui</text>
<text text-anchor="middle" x="54" y="-31.5" font-family="Helvetica,sans-Serif" font-size="10.00">::IndicatorKnob</text>
</a>
</g>
</g>
<!-- Node1&#45;&gt;Node0 -->
<g id="edge1" class="edge"><title>Node1&#45;&gt;Node0</title>
<path fill="none" stroke="midnightblue" d="M118.266,-39.5C126.641,-39.5 135.285,-39.5 143.817,-39.5"/>
<polygon fill="midnightblue" stroke="midnightblue" points="118.209,-36.0001 108.209,-39.5 118.209,-43.0001 118.209,-36.0001"/>
</g>
<!-- Node4 -->
<g id="node5" class="node"><title>Node4</title>
<g id="a_node5"><a xlink:href="classant_1_1calibration_1_1gui_1_1_knobs_t_f1_1_1_reference_parameter_knob.html" target="_top" xlink:title="ant::calibration::gui\l::KnobsTF1::ReferenceParameterKnob">
<polygon fill="white" stroke="black" points="573,-0.5 573,-30.5 769,-30.5 769,-0.5 573,-0.5"/>
<text text-anchor="start" x="581" y="-18.5" font-family="Helvetica,sans-Serif" font-size="10.00">ant::calibration::gui</text>
<text text-anchor="middle" x="671" y="-7.5" font-family="Helvetica,sans-Serif" font-size="10.00">::KnobsTF1::ReferenceParameterKnob</text>
</a>
</g>
</g>
<!-- Node3&#45;&gt;Node4 -->
<g id="edge4" class="edge"><title>Node3&#45;&gt;Node4</title>
<path fill="none" stroke="midnightblue" d="M547.426,-15.5C555.857,-15.5 564.319,-15.5 572.64,-15.5"/>
<polygon fill="midnightblue" stroke="midnightblue" points="547.17,-12.0001 537.17,-15.5 547.17,-19.0001 547.17,-12.0001"/>
</g>
</g>
</svg>
