<?xml version="1.0" encoding="UTF-8" standalone="no"?>
<!DOCTYPE svg PUBLIC "-//W3C//DTD SVG 1.1//EN"
 "http://www.w3.org/Graphics/SVG/1.1/DTD/svg11.dtd">
<!-- Generated by graphviz version 2.38.0 (20140413.2041)
 -->
<!-- Title: ant::VarBinSettings Pages: 1 -->
<svg width="276pt" height="95pt"
 viewBox="0.00 0.00 276.00 95.00" xmlns="http://www.w3.org/2000/svg" xmlns:xlink="http://www.w3.org/1999/xlink">
<g id="graph0" class="graph" transform="scale(1 1) rotate(0) translate(4 91)">
<title>ant::VarBinSettings</title>
<polygon fill="white" stroke="none" points="-4,4 -4,-91 272,-91 272,4 -4,4"/>
<!-- Node3 -->
<g id="node1" class="node"><title>Node3</title>
<polygon fill="#bfbfbf" stroke="black" points="80.5,-0.5 80.5,-19.5 189.5,-19.5 189.5,-0.5 80.5,-0.5"/>
<text text-anchor="middle" x="135" y="-7.5" font-family="Helvetica,sans-Serif" font-size="10.00">ant::VarBinSettings</text>
</g>
<!-- Node4 -->
<g id="node2" class="node"><title>Node4</title>
<g id="a_node2"><a xlink:href="classant_1_1interval.html" target="_top" xlink:title="ant::interval\&lt; double \&gt;">
<polygon fill="white" stroke="black" points="0,-67.5 0,-86.5 128,-86.5 128,-67.5 0,-67.5"/>
<text text-anchor="middle" x="64" y="-74.5" font-family="Helvetica,sans-Serif" font-size="10.00">ant::interval&lt; double &gt;</text>
</a>
</g>
</g>
<!-- Node4&#45;&gt;Node3 -->
<g id="edge1" class="edge"><title>Node4&#45;&gt;Node3</title>
<path fill="none" stroke="midnightblue" d="M81.0877,-60.3564C95.0459,-47.5777 114.255,-29.9915 125.576,-19.6273"/>
<polygon fill="midnightblue" stroke="midnightblue" points="78.5879,-57.8997 73.5754,-67.2338 83.3147,-63.0628 78.5879,-57.8997"/>
</g>
<!-- Node5 -->
<g id="node3" class="node"><title>Node5</title>
<polygon fill="white" stroke="#bfbfbf" points="146,-67.5 146,-86.5 268,-86.5 268,-67.5 146,-67.5"/>
<text text-anchor="middle" x="207" y="-74.5" font-family="Helvetica,sans-Serif" font-size="10.00">std::vector&lt; double &gt;</text>
</g>
<!-- Node5&#45;&gt;Node3 -->
<g id="edge2" class="edge"><title>Node5&#45;&gt;Node3</title>
<path fill="none" stroke="#9a32cd" stroke-dasharray="5,2" d="M189.672,-60.3564C175.517,-47.5777 156.037,-29.9915 144.556,-19.6273"/>
<polygon fill="#9a32cd" stroke="#9a32cd" points="187.522,-63.1307 197.29,-67.2338 192.212,-57.9348 187.522,-63.1307"/>
<text text-anchor="middle" x="201" y="-41" font-family="Helvetica,sans-Serif" font-size="10.00"> bin_edges</text>
</g>
</g>
</svg>
