<?xml version="1.0" encoding="UTF-8" standalone="no"?>
<!DOCTYPE svg PUBLIC "-//W3C//DTD SVG 1.1//EN"
 "http://www.w3.org/Graphics/SVG/1.1/DTD/svg11.dtd">
<!-- Generated by graphviz version 2.38.0 (20140413.2041)
 -->
<!-- Title: ant::calibration::gui::Manager Pages: 1 -->
<svg width="1125pt" height="295pt"
 viewBox="0.00 0.00 1125.00 294.50" xmlns="http://www.w3.org/2000/svg" xmlns:xlink="http://www.w3.org/1999/xlink">
<g id="graph0" class="graph" transform="scale(1 1) rotate(0) translate(4 290.5)">
<title>ant::calibration::gui::Manager</title>
<polygon fill="white" stroke="none" points="-4,4 -4,-290.5 1121,-290.5 1121,4 -4,4"/>
<!-- Node1 -->
<g id="node1" class="node"><title>Node1</title>
<polygon fill="#bfbfbf" stroke="black" points="1009,-134 1009,-164 1117,-164 1117,-134 1009,-134"/>
<text text-anchor="start" x="1017" y="-152" font-family="Helvetica,sans-Serif" font-size="10.00">ant::calibration::gui</text>
<text text-anchor="middle" x="1063" y="-141" font-family="Helvetica,sans-Serif" font-size="10.00">::Manager</text>
</g>
<!-- Node2 -->
<g id="node2" class="node"><title>Node2</title>
<g id="a_node2"><a xlink:href="classant_1_1calibration_1_1gui_1_1_manager_window_g_u_i__traits.html" target="_top" xlink:title="ant::calibration::gui\l::ManagerWindowGUI_traits">
<polygon fill="white" stroke="black" points="781.5,-256 781.5,-286 928.5,-286 928.5,-256 781.5,-256"/>
<text text-anchor="start" x="789.5" y="-274" font-family="Helvetica,sans-Serif" font-size="10.00">ant::calibration::gui</text>
<text text-anchor="middle" x="855" y="-263" font-family="Helvetica,sans-Serif" font-size="10.00">::ManagerWindowGUI_traits</text>
</a>
</g>
</g>
<!-- Node2&#45;&gt;Node1 -->
<g id="edge1" class="edge"><title>Node2&#45;&gt;Node1</title>
<path fill="none" stroke="#9a32cd" stroke-dasharray="5,2" d="M938.402,-261.413C956.675,-256.81 975.267,-250.017 991,-240 1020.92,-220.951 1043.41,-184.741 1054.44,-164.207"/>
<polygon fill="#9a32cd" stroke="#9a32cd" points="937.548,-258.018 928.598,-263.689 939.131,-264.837 937.548,-258.018"/>
<text text-anchor="middle" x="971" y="-260" font-family="Helvetica,sans-Serif" font-size="10.00"> window</text>
</g>
<!-- Node3 -->
<g id="node3" class="node"><title>Node3</title>
<g id="a_node3"><a xlink:href="classant_1_1calibration_1_1gui_1_1_manager_window__traits.html" target="_top" xlink:title="ant::calibration::gui\l::ManagerWindow_traits">
<polygon fill="white" stroke="black" points="571,-256 571,-286 701,-286 701,-256 571,-256"/>
<text text-anchor="start" x="579" y="-274" font-family="Helvetica,sans-Serif" font-size="10.00">ant::calibration::gui</text>
<text text-anchor="middle" x="636" y="-263" font-family="Helvetica,sans-Serif" font-size="10.00">::ManagerWindow_traits</text>
</a>
</g>
</g>
<!-- Node3&#45;&gt;Node2 -->
<g id="edge2" class="edge"><title>Node3&#45;&gt;Node2</title>
<path fill="none" stroke="midnightblue" d="M711.421,-271C733.981,-271 758.727,-271 781.18,-271"/>
<polygon fill="midnightblue" stroke="midnightblue" points="711.226,-267.5 701.226,-271 711.226,-274.5 711.226,-267.5"/>
</g>
<!-- Node4 -->
<g id="node4" class="node"><title>Node4</title>
<g id="a_node4"><a xlink:title="STL class. ">
<polygon fill="white" stroke="#bfbfbf" points="188,-132.5 188,-151.5 253,-151.5 253,-132.5 188,-132.5"/>
<text text-anchor="middle" x="220.5" y="-139.5" font-family="Helvetica,sans-Serif" font-size="10.00">std::string</text>
</a>
</g>
</g>
<!-- Node4&#45;&gt;Node1 -->
<g id="edge3" class="edge"><title>Node4&#45;&gt;Node1</title>
<path fill="none" stroke="#9a32cd" stroke-dasharray="5,2" d="M263.465,-137.835C302.033,-134.369 360.809,-130 412,-130 412,-130 412,-130 856,-130 908.078,-130 967.249,-136.096 1008.77,-141.381"/>
<polygon fill="#9a32cd" stroke="#9a32cd" points="262.784,-134.383 253.146,-138.784 263.425,-141.353 262.784,-134.383"/>
<text text-anchor="middle" x="636" y="-133" font-family="Helvetica,sans-Serif" font-size="10.00"> SetupName</text>
</g>
<!-- Node8 -->
<g id="node8" class="node"><title>Node8</title>
<g id="a_node8"><a xlink:href="structant_1_1calibration_1_1gui_1_1_manager_1_1input__file__t.html" target="_top" xlink:title="ant::calibration::gui\l::Manager::input_file_t">
<polygon fill="white" stroke="black" points="352,-171 352,-201 474,-201 474,-171 352,-171"/>
<text text-anchor="start" x="360" y="-189" font-family="Helvetica,sans-Serif" font-size="10.00">ant::calibration::gui</text>
<text text-anchor="middle" x="413" y="-178" font-family="Helvetica,sans-Serif" font-size="10.00">::Manager::input_file_t</text>
</a>
</g>
</g>
<!-- Node4&#45;&gt;Node8 -->
<g id="edge8" class="edge"><title>Node4&#45;&gt;Node8</title>
<path fill="none" stroke="#9a32cd" stroke-dasharray="5,2" d="M263.281,-151.65C289.246,-157.647 323.052,-165.456 351.871,-172.112"/>
<polygon fill="#9a32cd" stroke="#9a32cd" points="263.917,-148.205 253.385,-149.365 262.341,-155.025 263.917,-148.205"/>
<text text-anchor="middle" x="311.5" y="-171" font-family="Helvetica,sans-Serif" font-size="10.00"> filename</text>
</g>
<!-- Node5 -->
<g id="node5" class="node"><title>Node5</title>
<g id="a_node5"><a xlink:title="STL class. ">
<polygon fill="white" stroke="#bfbfbf" points="0,-127 0,-157 103,-157 103,-127 0,-127"/>
<text text-anchor="start" x="8" y="-145" font-family="Helvetica,sans-Serif" font-size="10.00">std::basic_string&lt;</text>
<text text-anchor="middle" x="51.5" y="-134" font-family="Helvetica,sans-Serif" font-size="10.00"> char &gt;</text>
</a>
</g>
</g>
<!-- Node5&#45;&gt;Node4 -->
<g id="edge4" class="edge"><title>Node5&#45;&gt;Node4</title>
<path fill="none" stroke="midnightblue" d="M113.292,-142C138.527,-142 166.756,-142 187.765,-142"/>
<polygon fill="midnightblue" stroke="midnightblue" points="113.059,-138.5 103.059,-142 113.059,-145.5 113.059,-138.5"/>
</g>
<!-- Node6 -->
<g id="node6" class="node"><title>Node6</title>
<g id="a_node6"><a xlink:href="structant_1_1calibration_1_1gui_1_1_manager_1_1state__t.html" target="_top" xlink:title="ant::calibration::gui\l::Manager::state_t">
<polygon fill="white" stroke="black" points="801,-159 801,-189 909,-189 909,-159 801,-159"/>
<text text-anchor="start" x="809" y="-177" font-family="Helvetica,sans-Serif" font-size="10.00">ant::calibration::gui</text>
<text text-anchor="middle" x="855" y="-166" font-family="Helvetica,sans-Serif" font-size="10.00">::Manager::state_t</text>
</a>
</g>
</g>
<!-- Node6&#45;&gt;Node1 -->
<g id="edge5" class="edge"><title>Node6&#45;&gt;Node1</title>
<path fill="none" stroke="#9a32cd" stroke-dasharray="5,2" d="M918.985,-166.356C947.705,-162.871 981.339,-158.789 1008.77,-155.46"/>
<polygon fill="#9a32cd" stroke="#9a32cd" points="918.556,-162.883 909.05,-167.562 919.399,-169.832 918.556,-162.883"/>
<text text-anchor="middle" x="971" y="-166" font-family="Helvetica,sans-Serif" font-size="10.00"> state</text>
</g>
<!-- Node7 -->
<g id="node7" class="node"><title>Node7</title>
<polygon fill="white" stroke="#bfbfbf" points="559,-171 559,-201 713,-201 713,-171 559,-171"/>
<text text-anchor="start" x="567" y="-189" font-family="Helvetica,sans-Serif" font-size="10.00">std::list&lt; ant::calibration</text>
<text text-anchor="middle" x="636" y="-178" font-family="Helvetica,sans-Serif" font-size="10.00">::gui::Manager::input_file_t &gt;</text>
</g>
<!-- Node7&#45;&gt;Node1 -->
<g id="edge13" class="edge"><title>Node7&#45;&gt;Node1</title>
<path fill="none" stroke="#9a32cd" stroke-dasharray="5,2" d="M723.107,-199.557C782.513,-206.531 863.075,-211.269 933,-199 968.842,-192.711 1007.44,-176.355 1032.98,-164.049"/>
<polygon fill="#9a32cd" stroke="#9a32cd" points="723.365,-196.062 713.015,-198.327 722.519,-203.011 723.365,-196.062"/>
<text text-anchor="middle" x="855" y="-209" font-family="Helvetica,sans-Serif" font-size="10.00"> input_files</text>
</g>
<!-- Node7&#45;&gt;Node6 -->
<g id="edge6" class="edge"><title>Node7&#45;&gt;Node6</title>
<path fill="none" stroke="#9a32cd" stroke-dasharray="5,2" d="M723.5,-181.217C749.636,-179.771 777.55,-178.228 800.826,-176.94"/>
<polygon fill="#9a32cd" stroke="#9a32cd" points="722.992,-177.739 713.201,-181.786 723.379,-184.729 722.992,-177.739"/>
<text text-anchor="middle" x="745" y="-183" font-family="Helvetica,sans-Serif" font-size="10.00"> it_file</text>
</g>
<!-- Node8&#45;&gt;Node7 -->
<g id="edge7" class="edge"><title>Node8&#45;&gt;Node7</title>
<path fill="none" stroke="#9a32cd" stroke-dasharray="5,2" d="M484.401,-186C508.07,-186 534.579,-186 558.681,-186"/>
<polygon fill="#9a32cd" stroke="#9a32cd" points="484.097,-182.5 474.097,-186 484.097,-189.5 484.097,-182.5"/>
<text text-anchor="middle" x="516.5" y="-189" font-family="Helvetica,sans-Serif" font-size="10.00"> elements</text>
</g>
<!-- Node9 -->
<g id="node9" class="node"><title>Node9</title>
<g id="a_node9"><a xlink:href="classant_1_1interval.html" target="_top" xlink:title="ant::interval\&lt; ant\l::TID \&gt;">
<polygon fill="white" stroke="black" points="170,-182 170,-212 271,-212 271,-182 170,-182"/>
<text text-anchor="start" x="178" y="-200" font-family="Helvetica,sans-Serif" font-size="10.00">ant::interval&lt; ant</text>
<text text-anchor="middle" x="220.5" y="-189" font-family="Helvetica,sans-Serif" font-size="10.00">::TID &gt;</text>
</a>
</g>
</g>
<!-- Node9&#45;&gt;Node8 -->
<g id="edge9" class="edge"><title>Node9&#45;&gt;Node8</title>
<path fill="none" stroke="#9a32cd" stroke-dasharray="5,2" d="M281.156,-193.555C303.663,-192.256 329.268,-190.777 351.823,-189.475"/>
<polygon fill="#9a32cd" stroke="#9a32cd" points="280.836,-190.068 271.054,-194.139 281.24,-197.056 280.836,-190.068"/>
<text text-anchor="middle" x="311.5" y="-195" font-family="Helvetica,sans-Serif" font-size="10.00"> range</text>
</g>
<!-- Node10 -->
<g id="node10" class="node"><title>Node10</title>
<g id="a_node10"><a xlink:href="structant_1_1_t_i_d.html" target="_top" xlink:title="ant::TID">
<polygon fill="white" stroke="black" points="25,-187.5 25,-206.5 78,-206.5 78,-187.5 25,-187.5"/>
<text text-anchor="middle" x="51.5" y="-194.5" font-family="Helvetica,sans-Serif" font-size="10.00">ant::TID</text>
</a>
</g>
</g>
<!-- Node10&#45;&gt;Node9 -->
<g id="edge10" class="edge"><title>Node10&#45;&gt;Node9</title>
<path fill="none" stroke="#9a32cd" stroke-dasharray="5,2" d="M88.2371,-197C112.033,-197 143.627,-197 169.855,-197"/>
<polygon fill="#9a32cd" stroke="#9a32cd" points="88.2278,-193.5 78.2278,-197 88.2277,-200.5 88.2278,-193.5"/>
<text text-anchor="middle" x="136.5" y="-211" font-family="Helvetica,sans-Serif" font-size="10.00"> _start</text>
<text text-anchor="middle" x="136.5" y="-200" font-family="Helvetica,sans-Serif" font-size="10.00">_stop</text>
</g>
<!-- Node11 -->
<g id="node11" class="node"><title>Node11</title>
<polygon fill="white" stroke="#bfbfbf" points="783,-60.5 783,-101.5 927,-101.5 927,-60.5 783,-60.5"/>
<text text-anchor="start" x="791" y="-89.5" font-family="Helvetica,sans-Serif" font-size="10.00">std::unique_ptr&lt; ant</text>
<text text-anchor="start" x="791" y="-78.5" font-family="Helvetica,sans-Serif" font-size="10.00">::calibration::gui::AvgBuffer</text>
<text text-anchor="middle" x="855" y="-67.5" font-family="Helvetica,sans-Serif" font-size="10.00">_traits&lt; TH1 &gt; &gt;</text>
</g>
<!-- Node11&#45;&gt;Node1 -->
<g id="edge11" class="edge"><title>Node11&#45;&gt;Node1</title>
<path fill="none" stroke="#9a32cd" stroke-dasharray="5,2" d="M937.052,-90.2739C955.162,-93.7499 974.022,-98.5054 991,-105 1009.56,-112.098 1028.58,-124.2 1042.27,-133.918"/>
<polygon fill="#9a32cd" stroke="#9a32cd" points="937.549,-86.807 927.086,-88.4715 936.303,-93.6952 937.549,-86.807"/>
<text text-anchor="middle" x="971" y="-108" font-family="Helvetica,sans-Serif" font-size="10.00"> buffer</text>
</g>
<!-- Node12 -->
<g id="node12" class="node"><title>Node12</title>
<g id="a_node12"><a xlink:href="classant_1_1calibration_1_1gui_1_1_avg_buffer__traits.html" target="_top" xlink:title="ant::calibration::gui\l::AvgBuffer_traits\&lt; TH1 \&gt;">
<polygon fill="white" stroke="black" points="566,-63 566,-93 706,-93 706,-63 566,-63"/>
<text text-anchor="start" x="574" y="-81" font-family="Helvetica,sans-Serif" font-size="10.00">ant::calibration::gui</text>
<text text-anchor="middle" x="636" y="-70" font-family="Helvetica,sans-Serif" font-size="10.00">::AvgBuffer_traits&lt; TH1 &gt;</text>
</a>
</g>
</g>
<!-- Node12&#45;&gt;Node11 -->
<g id="edge12" class="edge"><title>Node12&#45;&gt;Node11</title>
<path fill="none" stroke="#9a32cd" stroke-dasharray="5,2" d="M716.436,-79.0982C738.158,-79.3985 761.558,-79.722 782.79,-80.0155"/>
<polygon fill="#9a32cd" stroke="#9a32cd" points="716.304,-75.5961 706.257,-78.9575 716.207,-82.5955 716.304,-75.5961"/>
<text text-anchor="middle" x="745" y="-83" font-family="Helvetica,sans-Serif" font-size="10.00"> ptr</text>
</g>
<!-- Node13 -->
<g id="node13" class="node"><title>Node13</title>
<polygon fill="white" stroke="#bfbfbf" points="777,-0.5 777,-41.5 933,-41.5 933,-0.5 777,-0.5"/>
<text text-anchor="start" x="785" y="-29.5" font-family="Helvetica,sans-Serif" font-size="10.00">std::unique_ptr&lt; ant</text>
<text text-anchor="start" x="785" y="-18.5" font-family="Helvetica,sans-Serif" font-size="10.00">::calibration::gui::CalibModule</text>
<text text-anchor="middle" x="855" y="-7.5" font-family="Helvetica,sans-Serif" font-size="10.00">_traits &gt;</text>
</g>
<!-- Node13&#45;&gt;Node1 -->
<g id="edge14" class="edge"><title>Node13&#45;&gt;Node1</title>
<path fill="none" stroke="#9a32cd" stroke-dasharray="5,2" d="M927.983,-45.4198C949.254,-54.3161 971.93,-65.557 991,-79 1013.78,-95.0571 1035.99,-118.604 1049.33,-133.869"/>
<polygon fill="#9a32cd" stroke="#9a32cd" points="929.23,-42.1487 918.648,-41.6248 926.594,-48.6333 929.23,-42.1487"/>
<text text-anchor="middle" x="971" y="-82" font-family="Helvetica,sans-Serif" font-size="10.00"> module</text>
</g>
<!-- Node14 -->
<g id="node14" class="node"><title>Node14</title>
<g id="a_node14"><a xlink:href="classant_1_1calibration_1_1gui_1_1_calib_module__traits.html" target="_top" xlink:title="ant::calibration::gui\l::CalibModule_traits">
<polygon fill="white" stroke="black" points="581,-6 581,-36 691,-36 691,-6 581,-6"/>
<text text-anchor="start" x="589" y="-24" font-family="Helvetica,sans-Serif" font-size="10.00">ant::calibration::gui</text>
<text text-anchor="middle" x="636" y="-13" font-family="Helvetica,sans-Serif" font-size="10.00">::CalibModule_traits</text>
</a>
</g>
</g>
<!-- Node14&#45;&gt;Node13 -->
<g id="edge15" class="edge"><title>Node14&#45;&gt;Node13</title>
<path fill="none" stroke="#9a32cd" stroke-dasharray="5,2" d="M701.457,-21C725.104,-21 752.112,-21 776.766,-21"/>
<polygon fill="#9a32cd" stroke="#9a32cd" points="701.199,-17.5001 691.198,-21 701.198,-24.5001 701.199,-17.5001"/>
<text text-anchor="middle" x="745" y="-24" font-family="Helvetica,sans-Serif" font-size="10.00"> ptr</text>
</g>
</g>
</svg>
