<?xml version="1.0" encoding="UTF-8" standalone="no"?>
<!DOCTYPE svg PUBLIC "-//W3C//DTD SVG 1.1//EN"
 "http://www.w3.org/Graphics/SVG/1.1/DTD/svg11.dtd">
<!-- Generated by graphviz version 2.38.0 (20140413.2041)
 -->
<!-- Title: ant::calibration::gui::HorizontalIndicatorLine Pages: 1 -->
<svg width="181pt" height="240pt"
 viewBox="0.00 0.00 180.50 240.00" xmlns="http://www.w3.org/2000/svg" xmlns:xlink="http://www.w3.org/1999/xlink">
<g id="graph0" class="graph" transform="scale(1 1) rotate(0) translate(4 236)">
<title>ant::calibration::gui::HorizontalIndicatorLine</title>
<polygon fill="white" stroke="none" points="-4,4 -4,-236 176.5,-236 176.5,4 -4,4"/>
<!-- Node0 -->
<g id="node1" class="node"><title>Node0</title>
<polygon fill="#bfbfbf" stroke="black" points="0.5,-0.5 0.5,-30.5 132.5,-30.5 132.5,-0.5 0.5,-0.5"/>
<text text-anchor="start" x="8.5" y="-18.5" font-family="Helvetica,sans-Serif" font-size="10.00">ant::calibration::gui</text>
<text text-anchor="middle" x="66.5" y="-7.5" font-family="Helvetica,sans-Serif" font-size="10.00">::HorizontalIndicatorLine</text>
</g>
<!-- Node1 -->
<g id="node2" class="node"><title>Node1</title>
<g id="a_node2"><a xlink:href="classant_1_1calibration_1_1gui_1_1_indicator_line.html" target="_top" xlink:title="ant::calibration::gui\l::IndicatorLine">
<polygon fill="white" stroke="black" points="12.5,-67.5 12.5,-97.5 120.5,-97.5 120.5,-67.5 12.5,-67.5"/>
<text text-anchor="start" x="20.5" y="-85.5" font-family="Helvetica,sans-Serif" font-size="10.00">ant::calibration::gui</text>
<text text-anchor="middle" x="66.5" y="-74.5" font-family="Helvetica,sans-Serif" font-size="10.00">::IndicatorLine</text>
</a>
</g>
</g>
<!-- Node1&#45;&gt;Node0 -->
<g id="edge1" class="edge"><title>Node1&#45;&gt;Node0</title>
<path fill="none" stroke="midnightblue" d="M66.5,-57.1081C66.5,-48.1539 66.5,-38.3227 66.5,-30.5765"/>
<polygon fill="midnightblue" stroke="midnightblue" points="63.0001,-57.3959 66.5,-67.396 70.0001,-57.396 63.0001,-57.3959"/>
</g>
<!-- Node2 -->
<g id="node3" class="node"><title>Node2</title>
<polygon fill="white" stroke="#bfbfbf" points="0,-140 0,-159 41,-159 41,-140 0,-140"/>
<text text-anchor="middle" x="20.5" y="-147" font-family="Helvetica,sans-Serif" font-size="10.00">TLine</text>
</g>
<!-- Node2&#45;&gt;Node1 -->
<g id="edge2" class="edge"><title>Node2&#45;&gt;Node1</title>
<path fill="none" stroke="midnightblue" d="M32.6336,-131.355C40.0858,-120.824 49.5142,-107.502 56.5293,-97.589"/>
<polygon fill="midnightblue" stroke="midnightblue" points="29.6235,-129.549 26.7038,-139.734 35.3374,-133.593 29.6235,-129.549"/>
</g>
<!-- Node3 -->
<g id="node4" class="node"><title>Node3</title>
<g id="a_node4"><a xlink:href="classant_1_1calibration_1_1gui_1_1_indicator.html" target="_top" xlink:title="ant::calibration::gui\l::Indicator">
<polygon fill="white" stroke="black" points="59.5,-134.5 59.5,-164.5 167.5,-164.5 167.5,-134.5 59.5,-134.5"/>
<text text-anchor="start" x="67.5" y="-152.5" font-family="Helvetica,sans-Serif" font-size="10.00">ant::calibration::gui</text>
<text text-anchor="middle" x="113.5" y="-141.5" font-family="Helvetica,sans-Serif" font-size="10.00">::Indicator</text>
</a>
</g>
</g>
<!-- Node3&#45;&gt;Node1 -->
<g id="edge3" class="edge"><title>Node3&#45;&gt;Node1</title>
<path fill="none" stroke="midnightblue" d="M97.3446,-126.157C90.4908,-116.679 82.7103,-105.919 76.6784,-97.5765"/>
<polygon fill="midnightblue" stroke="midnightblue" points="94.606,-128.343 103.302,-134.396 100.278,-124.242 94.606,-128.343"/>
</g>
<!-- Node4 -->
<g id="node5" class="node"><title>Node4</title>
<g id="a_node5"><a xlink:href="classant_1_1calibration_1_1gui_1_1update__notify__traits.html" target="_top" xlink:title="ant::calibration::gui\l::update_notify_traits">
<polygon fill="white" stroke="black" points="54.5,-201.5 54.5,-231.5 172.5,-231.5 172.5,-201.5 54.5,-201.5"/>
<text text-anchor="start" x="62.5" y="-219.5" font-family="Helvetica,sans-Serif" font-size="10.00">ant::calibration::gui</text>
<text text-anchor="middle" x="113.5" y="-208.5" font-family="Helvetica,sans-Serif" font-size="10.00">::update_notify_traits</text>
</a>
</g>
</g>
<!-- Node4&#45;&gt;Node3 -->
<g id="edge4" class="edge"><title>Node4&#45;&gt;Node3</title>
<path fill="none" stroke="midnightblue" d="M113.5,-191.108C113.5,-182.154 113.5,-172.323 113.5,-164.577"/>
<polygon fill="midnightblue" stroke="midnightblue" points="110,-191.396 113.5,-201.396 117,-191.396 110,-191.396"/>
</g>
</g>
</svg>
