<?xml version="1.0" encoding="UTF-8" standalone="no"?>
<!DOCTYPE svg PUBLIC "-//W3C//DTD SVG 1.1//EN"
 "http://www.w3.org/Graphics/SVG/1.1/DTD/svg11.dtd">
<!-- Generated by graphviz version 2.38.0 (20140413.2041)
 -->
<!-- Title: ant::ParticleTypeDatabase Pages: 1 -->
<svg width="449pt" height="362pt"
 viewBox="0.00 0.00 448.50 362.00" xmlns="http://www.w3.org/2000/svg" xmlns:xlink="http://www.w3.org/1999/xlink">
<g id="graph0" class="graph" transform="scale(1 1) rotate(0) translate(4 358)">
<title>ant::ParticleTypeDatabase</title>
<polygon fill="white" stroke="none" points="-4,4 -4,-358 444.5,-358 444.5,4 -4,4"/>
<!-- Node1 -->
<g id="node1" class="node"><title>Node1</title>
<polygon fill="#bfbfbf" stroke="black" points="94.5,-0.5 94.5,-19.5 234.5,-19.5 234.5,-0.5 94.5,-0.5"/>
<text text-anchor="middle" x="164.5" y="-7.5" font-family="Helvetica,sans-Serif" font-size="10.00">ant::ParticleTypeDatabase</text>
</g>
<!-- Node2 -->
<g id="node2" class="node"><title>Node2</title>
<g id="a_node2"><a xlink:title="STL class. ">
<polygon fill="white" stroke="#bfbfbf" points="0,-183 0,-202 99,-202 99,-183 0,-183"/>
<text text-anchor="middle" x="49.5" y="-190" font-family="Helvetica,sans-Serif" font-size="10.00">std::map&lt; K, T &gt;</text>
</a>
</g>
</g>
<!-- Node2&#45;&gt;Node1 -->
<g id="edge1" class="edge"><title>Node2&#45;&gt;Node1</title>
<path fill="none" stroke="#9a32cd" stroke-dasharray="5,2" d="M50.0134,-172.865C51.8715,-141.164 60.0753,-76.4489 95.5,-38 103.345,-29.4856 114.202,-23.6208 124.983,-19.595"/>
<polygon fill="#9a32cd" stroke="#9a32cd" points="46.5131,-172.798 49.5773,-182.94 53.5066,-173.101 46.5131,-172.798"/>
<text text-anchor="middle" x="128" y="-101.5" font-family="Helvetica,sans-Serif" font-size="10.00"> types</text>
<text text-anchor="middle" x="128" y="-90.5" font-family="Helvetica,sans-Serif" font-size="10.00">pluto_id_map</text>
</g>
<!-- Node3 -->
<g id="node3" class="node"><title>Node3</title>
<polygon fill="white" stroke="#bfbfbf" points="30,-266.5 30,-285.5 59,-285.5 59,-266.5 30,-266.5"/>
<text text-anchor="middle" x="44.5" y="-273.5" font-family="Helvetica,sans-Serif" font-size="10.00">K</text>
</g>
<!-- Node3&#45;&gt;Node2 -->
<g id="edge2" class="edge"><title>Node3&#45;&gt;Node2</title>
<path fill="none" stroke="#9a32cd" stroke-dasharray="5,2" d="M44.4365,-256.066C44.5208,-246.965 44.7912,-235.906 45.5,-226 46.0843,-217.835 47.2769,-208.572 48.2085,-202.03"/>
<polygon fill="#9a32cd" stroke="#9a32cd" points="40.936,-256.304 44.4101,-266.313 47.9359,-256.323 40.936,-256.304"/>
<text text-anchor="middle" x="58" y="-234.5" font-family="Helvetica,sans-Serif" font-size="10.00"> keys</text>
</g>
<!-- Node4 -->
<g id="node4" class="node"><title>Node4</title>
<polygon fill="white" stroke="#bfbfbf" points="114,-266.5 114,-285.5 143,-285.5 143,-266.5 114,-266.5"/>
<text text-anchor="middle" x="128.5" y="-273.5" font-family="Helvetica,sans-Serif" font-size="10.00">T</text>
</g>
<!-- Node4&#45;&gt;Node2 -->
<g id="edge3" class="edge"><title>Node4&#45;&gt;Node2</title>
<path fill="none" stroke="#9a32cd" stroke-dasharray="5,2" d="M105.522,-260.973C99.9938,-257.103 94.3035,-252.673 89.5,-248 74.8616,-233.76 61.6433,-213.7 54.6772,-202.31"/>
<polygon fill="#9a32cd" stroke="#9a32cd" points="103.656,-263.935 113.924,-266.547 107.526,-258.102 103.656,-263.935"/>
<text text-anchor="middle" x="114" y="-234.5" font-family="Helvetica,sans-Serif" font-size="10.00"> elements</text>
</g>
<!-- Node8 -->
<g id="node8" class="node"><title>Node8</title>
<g id="a_node8"><a xlink:title="STL class. ">
<polygon fill="white" stroke="#bfbfbf" points="117,-183 117,-202 212,-202 212,-183 117,-183"/>
<text text-anchor="middle" x="164.5" y="-190" font-family="Helvetica,sans-Serif" font-size="10.00">std::vector&lt; T &gt;</text>
</a>
</g>
</g>
<!-- Node4&#45;&gt;Node8 -->
<g id="edge9" class="edge"><title>Node4&#45;&gt;Node8</title>
<path fill="none" stroke="#9a32cd" stroke-dasharray="5,2" d="M138.078,-257.108C139.606,-254.092 141.132,-250.974 142.5,-248 149.832,-232.055 157.243,-212.934 161.317,-202.102"/>
<polygon fill="#9a32cd" stroke="#9a32cd" points="134.906,-255.621 133.382,-266.105 141.112,-258.86 134.906,-255.621"/>
<text text-anchor="middle" x="176" y="-234.5" font-family="Helvetica,sans-Serif" font-size="10.00"> elements</text>
</g>
<!-- Node5 -->
<g id="node5" class="node"><title>Node5</title>
<g id="a_node5"><a xlink:href="classant_1_1_particle_type_database_1_1_type.html" target="_top" xlink:title="ant::ParticleTypeDatabase\l::Type">
<polygon fill="white" stroke="black" points="230.5,-177.5 230.5,-207.5 370.5,-207.5 370.5,-177.5 230.5,-177.5"/>
<text text-anchor="start" x="238.5" y="-195.5" font-family="Helvetica,sans-Serif" font-size="10.00">ant::ParticleTypeDatabase</text>
<text text-anchor="middle" x="300.5" y="-184.5" font-family="Helvetica,sans-Serif" font-size="10.00">::Type</text>
</a>
</g>
</g>
<!-- Node5&#45;&gt;Node1 -->
<g id="edge4" class="edge"><title>Node5&#45;&gt;Node1</title>
<path fill="none" stroke="#9a32cd" stroke-dasharray="5,2" d="M299.084,-167.15C295.823,-133.532 285.056,-73.0893 249.5,-38 240.794,-29.408 229.366,-23.5476 217.726,-19.5512"/>
<polygon fill="#9a32cd" stroke="#9a32cd" points="295.623,-167.766 299.927,-177.447 302.599,-167.195 295.623,-167.766"/>
<text text-anchor="middle" x="332.5" y="-151" font-family="Helvetica,sans-Serif" font-size="10.00"> PiPlus</text>
<text text-anchor="middle" x="332.5" y="-140" font-family="Helvetica,sans-Serif" font-size="10.00">MuCharged</text>
<text text-anchor="middle" x="332.5" y="-129" font-family="Helvetica,sans-Serif" font-size="10.00">Rho</text>
<text text-anchor="middle" x="332.5" y="-118" font-family="Helvetica,sans-Serif" font-size="10.00">Proton</text>
<text text-anchor="middle" x="332.5" y="-107" font-family="Helvetica,sans-Serif" font-size="10.00">EtaPrime</text>
<text text-anchor="middle" x="332.5" y="-96" font-family="Helvetica,sans-Serif" font-size="10.00">K0s</text>
<text text-anchor="middle" x="332.5" y="-85" font-family="Helvetica,sans-Serif" font-size="10.00">Pi0</text>
<text text-anchor="middle" x="332.5" y="-74" font-family="Helvetica,sans-Serif" font-size="10.00">SigmaPlus</text>
<text text-anchor="middle" x="332.5" y="-63" font-family="Helvetica,sans-Serif" font-size="10.00">ParticleGun</text>
<text text-anchor="middle" x="332.5" y="-52" font-family="Helvetica,sans-Serif" font-size="10.00">BeamNeutron</text>
<text text-anchor="middle" x="332.5" y="-41" font-family="Helvetica,sans-Serif" font-size="10.00">...</text>
</g>
<!-- Node5&#45;&gt;Node5 -->
<g id="edge7" class="edge"><title>Node5&#45;&gt;Node5</title>
<path fill="none" stroke="#9a32cd" stroke-dasharray="5,2" d="M380.578,-198.258C385.524,-196.897 388.5,-194.977 388.5,-192.5 388.5,-188.633 381.249,-186.125 370.571,-184.977"/>
<polygon fill="#9a32cd" stroke="#9a32cd" points="379.811,-194.839 370.571,-200.023 381.027,-201.733 379.811,-194.839"/>
<text text-anchor="middle" x="414.5" y="-190" font-family="Helvetica,sans-Serif" font-size="10.00"> sametype</text>
</g>
<!-- Node6 -->
<g id="node6" class="node"><title>Node6</title>
<g id="a_node6"><a xlink:title="STL class. ">
<polygon fill="white" stroke="#bfbfbf" points="268,-266.5 268,-285.5 333,-285.5 333,-266.5 268,-266.5"/>
<text text-anchor="middle" x="300.5" y="-273.5" font-family="Helvetica,sans-Serif" font-size="10.00">std::string</text>
</a>
</g>
</g>
<!-- Node6&#45;&gt;Node5 -->
<g id="edge5" class="edge"><title>Node6&#45;&gt;Node5</title>
<path fill="none" stroke="#9a32cd" stroke-dasharray="5,2" d="M300.5,-256.229C300.5,-241.408 300.5,-221.051 300.5,-207.597"/>
<polygon fill="#9a32cd" stroke="#9a32cd" points="297,-256.278 300.5,-266.278 304,-256.278 297,-256.278"/>
<text text-anchor="middle" x="329.5" y="-240" font-family="Helvetica,sans-Serif" font-size="10.00"> print_name</text>
<text text-anchor="middle" x="329.5" y="-229" font-family="Helvetica,sans-Serif" font-size="10.00">name</text>
</g>
<!-- Node7 -->
<g id="node7" class="node"><title>Node7</title>
<g id="a_node7"><a xlink:title="STL class. ">
<polygon fill="white" stroke="#bfbfbf" points="249,-323.5 249,-353.5 352,-353.5 352,-323.5 249,-323.5"/>
<text text-anchor="start" x="257" y="-341.5" font-family="Helvetica,sans-Serif" font-size="10.00">std::basic_string&lt;</text>
<text text-anchor="middle" x="300.5" y="-330.5" font-family="Helvetica,sans-Serif" font-size="10.00"> char &gt;</text>
</a>
</g>
</g>
<!-- Node7&#45;&gt;Node6 -->
<g id="edge6" class="edge"><title>Node7&#45;&gt;Node6</title>
<path fill="none" stroke="midnightblue" d="M300.5,-313.352C300.5,-303.513 300.5,-292.775 300.5,-285.54"/>
<polygon fill="midnightblue" stroke="midnightblue" points="297,-313.468 300.5,-323.468 304,-313.468 297,-313.468"/>
</g>
<!-- Node8&#45;&gt;Node1 -->
<g id="edge8" class="edge"><title>Node8&#45;&gt;Node1</title>
<path fill="none" stroke="#9a32cd" stroke-dasharray="5,2" d="M164.5,-172.428C164.5,-133.702 164.5,-47.1919 164.5,-19.6185"/>
<polygon fill="#9a32cd" stroke="#9a32cd" points="161,-172.794 164.5,-182.794 168,-172.794 161,-172.794"/>
<text text-anchor="middle" x="205" y="-107" font-family="Helvetica,sans-Serif" font-size="10.00"> neutral_mesons</text>
<text text-anchor="middle" x="205" y="-96" font-family="Helvetica,sans-Serif" font-size="10.00">mc_finalstate</text>
<text text-anchor="middle" x="205" y="-85" font-family="Helvetica,sans-Serif" font-size="10.00">detectables</text>
</g>
</g>
</svg>
