<?xml version="1.0" encoding="UTF-8" standalone="no"?>
<!DOCTYPE svg PUBLIC "-//W3C//DTD SVG 1.1//EN"
 "http://www.w3.org/Graphics/SVG/1.1/DTD/svg11.dtd">
<!-- Generated by graphviz version 2.38.0 (20140413.2041)
 -->
<!-- Title: ant::analysis::physics::CB_Energy Pages: 1 -->
<svg width="254pt" height="241pt"
 viewBox="0.00 0.00 254.00 241.00" xmlns="http://www.w3.org/2000/svg" xmlns:xlink="http://www.w3.org/1999/xlink">
<g id="graph0" class="graph" transform="scale(1 1) rotate(0) translate(4 237)">
<title>ant::analysis::physics::CB_Energy</title>
<polygon fill="white" stroke="none" points="-4,4 -4,-237 250,-237 250,4 -4,4"/>
<!-- Node2 -->
<g id="node1" class="node"><title>Node2</title>
<polygon fill="#bfbfbf" stroke="black" points="79.5,-0.5 79.5,-30.5 197.5,-30.5 197.5,-0.5 79.5,-0.5"/>
<text text-anchor="start" x="87.5" y="-18.5" font-family="Helvetica,sans-Serif" font-size="10.00">ant::analysis::physics</text>
<text text-anchor="middle" x="138.5" y="-7.5" font-family="Helvetica,sans-Serif" font-size="10.00">::CB_Energy</text>
</g>
<!-- Node3 -->
<g id="node2" class="node"><title>Node3</title>
<g id="a_node2"><a xlink:href="classant_1_1analysis_1_1_physics.html" target="_top" xlink:title="ant::analysis::Physics">
<polygon fill="white" stroke="black" points="12.5,-78.5 12.5,-97.5 130.5,-97.5 130.5,-78.5 12.5,-78.5"/>
<text text-anchor="middle" x="71.5" y="-85.5" font-family="Helvetica,sans-Serif" font-size="10.00">ant::analysis::Physics</text>
</a>
</g>
</g>
<!-- Node3&#45;&gt;Node2 -->
<g id="edge1" class="edge"><title>Node3&#45;&gt;Node2</title>
<path fill="none" stroke="midnightblue" d="M86.6169,-71.0934C98.1908,-58.9149 114.005,-42.2742 125.123,-30.5762"/>
<polygon fill="midnightblue" stroke="midnightblue" points="84.0673,-68.6955 79.7155,-78.3553 89.1415,-73.5177 84.0673,-68.6955"/>
</g>
<!-- Node4 -->
<g id="node3" class="node"><title>Node4</title>
<g id="a_node3"><a xlink:href="classant_1_1analysis_1_1_histogram_factory.html" target="_top" xlink:title="ant::analysis::Histogram\lFactory">
<polygon fill="white" stroke="black" points="0,-145.5 0,-175.5 133,-175.5 133,-145.5 0,-145.5"/>
<text text-anchor="start" x="8" y="-163.5" font-family="Helvetica,sans-Serif" font-size="10.00">ant::analysis::Histogram</text>
<text text-anchor="middle" x="66.5" y="-152.5" font-family="Helvetica,sans-Serif" font-size="10.00">Factory</text>
</a>
</g>
</g>
<!-- Node4&#45;&gt;Node3 -->
<g id="edge2" class="edge"><title>Node4&#45;&gt;Node3</title>
<path fill="none" stroke="#9a32cd" stroke-dasharray="5,2" d="M68.2311,-135.091C69.1444,-122.214 70.2094,-107.197 70.8693,-97.8932"/>
<polygon fill="#9a32cd" stroke="#9a32cd" points="64.7281,-135.011 67.5118,-145.233 71.7106,-135.506 64.7281,-135.011"/>
<text text-anchor="middle" x="88.5" y="-119" font-family="Helvetica,sans-Serif" font-size="10.00"> HistFac</text>
</g>
<!-- Node5 -->
<g id="node4" class="node"><title>Node5</title>
<g id="a_node4"><a xlink:href="classant_1_1_t_h2_c_b.html" target="_top" xlink:title="The TH2CB class. ">
<polygon fill="white" stroke="black" points="151,-78.5 151,-97.5 222,-97.5 222,-78.5 151,-78.5"/>
<text text-anchor="middle" x="186.5" y="-85.5" font-family="Helvetica,sans-Serif" font-size="10.00">ant::TH2CB</text>
</a>
</g>
</g>
<!-- Node5&#45;&gt;Node2 -->
<g id="edge3" class="edge"><title>Node5&#45;&gt;Node2</title>
<path fill="none" stroke="#9a32cd" stroke-dasharray="5,2" d="M174.952,-70.0389C166.734,-57.968 155.821,-41.94 148.084,-30.5762"/>
<polygon fill="#9a32cd" stroke="#9a32cd" points="172.093,-72.0591 180.614,-78.3553 177.879,-68.1195 172.093,-72.0591"/>
<text text-anchor="middle" x="196" y="-52" font-family="Helvetica,sans-Serif" font-size="10.00"> h_cbdisplay</text>
</g>
<!-- Node6 -->
<g id="node5" class="node"><title>Node6</title>
<g id="a_node5"><a xlink:href="classant_1_1_t_h2_crystals.html" target="_top" xlink:title="Base class for A2 Calorimeter display classes. ">
<polygon fill="white" stroke="black" points="151,-151 151,-170 246,-170 246,-151 151,-151"/>
<text text-anchor="middle" x="198.5" y="-158" font-family="Helvetica,sans-Serif" font-size="10.00">ant::TH2Crystals</text>
</a>
</g>
</g>
<!-- Node6&#45;&gt;Node5 -->
<g id="edge4" class="edge"><title>Node6&#45;&gt;Node5</title>
<path fill="none" stroke="midnightblue" d="M195.327,-140.858C192.95,-126.895 189.807,-108.426 187.983,-97.7154"/>
<polygon fill="midnightblue" stroke="midnightblue" points="191.9,-141.584 197.029,-150.855 198.801,-140.41 191.9,-141.584"/>
</g>
<!-- Node7 -->
<g id="node6" class="node"><title>Node7</title>
<polygon fill="white" stroke="#bfbfbf" points="171,-213.5 171,-232.5 226,-232.5 226,-213.5 171,-213.5"/>
<text text-anchor="middle" x="198.5" y="-220.5" font-family="Helvetica,sans-Serif" font-size="10.00">TH2Poly</text>
</g>
<!-- Node7&#45;&gt;Node6 -->
<g id="edge5" class="edge"><title>Node7&#45;&gt;Node6</title>
<path fill="none" stroke="midnightblue" d="M198.5,-203.003C198.5,-192 198.5,-178.682 198.5,-170.152"/>
<polygon fill="midnightblue" stroke="midnightblue" points="195,-203.332 198.5,-213.332 202,-203.332 195,-203.332"/>
</g>
</g>
</svg>
