<?xml version="1.0" encoding="UTF-8" standalone="no"?>
<!DOCTYPE svg PUBLIC "-//W3C//DTD SVG 1.1//EN"
 "http://www.w3.org/Graphics/SVG/1.1/DTD/svg11.dtd">
<!-- Generated by graphviz version 2.38.0 (20140413.2041)
 -->
<!-- Title: ant::analysis::physics::Pi0Dalitz Pages: 1 -->
<svg width="878pt" height="313pt"
 viewBox="0.00 0.00 878.00 313.00" xmlns="http://www.w3.org/2000/svg" xmlns:xlink="http://www.w3.org/1999/xlink">
<g id="graph0" class="graph" transform="scale(1 1) rotate(0) translate(4 309)">
<title>ant::analysis::physics::Pi0Dalitz</title>
<polygon fill="white" stroke="none" points="-4,4 -4,-309 874,-309 874,4 -4,4"/>
<!-- Node2 -->
<g id="node1" class="node"><title>Node2</title>
<polygon fill="#bfbfbf" stroke="black" points="752,-137.5 752,-167.5 870,-167.5 870,-137.5 752,-137.5"/>
<text text-anchor="start" x="760" y="-155.5" font-family="Helvetica,sans-Serif" font-size="10.00">ant::analysis::physics</text>
<text text-anchor="middle" x="811" y="-144.5" font-family="Helvetica,sans-Serif" font-size="10.00">::Pi0Dalitz</text>
</g>
<!-- Node3 -->
<g id="node2" class="node"><title>Node3</title>
<g id="a_node2"><a xlink:href="classant_1_1analysis_1_1_physics.html" target="_top" xlink:title="ant::analysis::Physics">
<polygon fill="white" stroke="black" points="502,-269 502,-288 620,-288 620,-269 502,-269"/>
<text text-anchor="middle" x="561" y="-276" font-family="Helvetica,sans-Serif" font-size="10.00">ant::analysis::Physics</text>
</a>
</g>
</g>
<!-- Node3&#45;&gt;Node2 -->
<g id="edge1" class="edge"><title>Node3&#45;&gt;Node2</title>
<path fill="none" stroke="midnightblue" d="M602.606,-265.741C638.399,-253.682 691.339,-233.835 734,-209.5 755.346,-197.324 777.59,-180.012 792.455,-167.668"/>
<polygon fill="midnightblue" stroke="midnightblue" points="601.377,-262.461 592.989,-268.933 603.582,-269.105 601.377,-262.461"/>
</g>
<!-- Node4 -->
<g id="node3" class="node"><title>Node4</title>
<g id="a_node3"><a xlink:href="classant_1_1analysis_1_1_histogram_factory.html" target="_top" xlink:title="ant::analysis::Histogram\lFactory">
<polygon fill="white" stroke="black" points="266,-274.5 266,-304.5 399,-304.5 399,-274.5 266,-274.5"/>
<text text-anchor="start" x="274" y="-292.5" font-family="Helvetica,sans-Serif" font-size="10.00">ant::analysis::Histogram</text>
<text text-anchor="middle" x="332.5" y="-281.5" font-family="Helvetica,sans-Serif" font-size="10.00">Factory</text>
</a>
</g>
</g>
<!-- Node4&#45;&gt;Node3 -->
<g id="edge2" class="edge"><title>Node4&#45;&gt;Node3</title>
<path fill="none" stroke="#9a32cd" stroke-dasharray="5,2" d="M409.11,-285.828C439.383,-284.358 473.705,-282.691 501.958,-281.319"/>
<polygon fill="#9a32cd" stroke="#9a32cd" points="408.832,-282.337 399.013,-286.318 409.171,-289.329 408.832,-282.337"/>
<text text-anchor="middle" x="441" y="-287.5" font-family="Helvetica,sans-Serif" font-size="10.00"> HistFac</text>
</g>
<!-- Node5 -->
<g id="node4" class="node"><title>Node5</title>
<g id="a_node4"><a xlink:href="structant_1_1analysis_1_1physics_1_1_pi0_dalitz_1_1_t_f_f_tree__t.html" target="_top" xlink:title="ant::analysis::physics\l::Pi0Dalitz::TFFTree_t">
<polygon fill="white" stroke="black" points="502,-208.5 502,-238.5 620,-238.5 620,-208.5 502,-208.5"/>
<text text-anchor="start" x="510" y="-226.5" font-family="Helvetica,sans-Serif" font-size="10.00">ant::analysis::physics</text>
<text text-anchor="middle" x="561" y="-215.5" font-family="Helvetica,sans-Serif" font-size="10.00">::Pi0Dalitz::TFFTree_t</text>
</a>
</g>
</g>
<!-- Node5&#45;&gt;Node2 -->
<g id="edge3" class="edge"><title>Node5&#45;&gt;Node2</title>
<path fill="none" stroke="#9a32cd" stroke-dasharray="5,2" d="M624.227,-205.685C665.307,-193.924 718.537,-178.685 757.481,-167.536"/>
<polygon fill="#9a32cd" stroke="#9a32cd" points="623.245,-202.326 614.594,-208.443 625.172,-209.055 623.245,-202.326"/>
<text text-anchor="middle" x="696" y="-197.5" font-family="Helvetica,sans-Serif" font-size="10.00"> TFFTree</text>
</g>
<!-- Node6 -->
<g id="node5" class="node"><title>Node6</title>
<g id="a_node5"><a xlink:href="classant_1_1_wrap_t_tree.html" target="_top" xlink:title="The WrapTTree struct simplifies TTree handling in physics classes. ">
<polygon fill="white" stroke="black" points="289.5,-236 289.5,-255 375.5,-255 375.5,-236 289.5,-236"/>
<text text-anchor="middle" x="332.5" y="-243" font-family="Helvetica,sans-Serif" font-size="10.00">ant::WrapTTree</text>
</a>
</g>
</g>
<!-- Node6&#45;&gt;Node5 -->
<g id="edge4" class="edge"><title>Node6&#45;&gt;Node5</title>
<path fill="none" stroke="midnightblue" d="M385.967,-240.404C420.655,-237.035 466.154,-232.615 501.93,-229.14"/>
<polygon fill="midnightblue" stroke="midnightblue" points="385.187,-236.963 375.572,-241.414 385.864,-243.93 385.187,-236.963"/>
</g>
<!-- Node7 -->
<g id="node6" class="node"><title>Node7</title>
<g id="a_node6"><a xlink:href="classant_1_1analysis_1_1utils_1_1_kin_fitter.html" target="_top" xlink:title="ant::analysis::utils\l::KinFitter">
<polygon fill="white" stroke="black" points="510,-137.5 510,-167.5 612,-167.5 612,-137.5 510,-137.5"/>
<text text-anchor="start" x="518" y="-155.5" font-family="Helvetica,sans-Serif" font-size="10.00">ant::analysis::utils</text>
<text text-anchor="middle" x="561" y="-144.5" font-family="Helvetica,sans-Serif" font-size="10.00">::KinFitter</text>
</a>
</g>
</g>
<!-- Node7&#45;&gt;Node2 -->
<g id="edge5" class="edge"><title>Node7&#45;&gt;Node2</title>
<path fill="none" stroke="#9a32cd" stroke-dasharray="5,2" d="M622.427,-152.5C661.734,-152.5 712.722,-152.5 751.615,-152.5"/>
<polygon fill="#9a32cd" stroke="#9a32cd" points="622.187,-149 612.187,-152.5 622.186,-156 622.187,-149"/>
<text text-anchor="middle" x="696" y="-155.5" font-family="Helvetica,sans-Serif" font-size="10.00"> fitter</text>
</g>
<!-- Node8 -->
<g id="node7" class="node"><title>Node8</title>
<g id="a_node7"><a xlink:href="classant_1_1analysis_1_1utils_1_1_fitter.html" target="_top" xlink:title="ant::analysis::utils\l::Fitter">
<polygon fill="white" stroke="black" points="281.5,-186.5 281.5,-216.5 383.5,-216.5 383.5,-186.5 281.5,-186.5"/>
<text text-anchor="start" x="289.5" y="-204.5" font-family="Helvetica,sans-Serif" font-size="10.00">ant::analysis::utils</text>
<text text-anchor="middle" x="332.5" y="-193.5" font-family="Helvetica,sans-Serif" font-size="10.00">::Fitter</text>
</a>
</g>
</g>
<!-- Node8&#45;&gt;Node7 -->
<g id="edge6" class="edge"><title>Node8&#45;&gt;Node7</title>
<path fill="none" stroke="midnightblue" d="M393.727,-188.471C429.98,-180.628 475.594,-170.76 509.873,-163.344"/>
<polygon fill="midnightblue" stroke="midnightblue" points="392.802,-185.09 383.768,-190.625 394.282,-191.932 392.802,-185.09"/>
</g>
<!-- Node9 -->
<g id="node8" class="node"><title>Node9</title>
<g id="a_node8"><a xlink:href="structant_1_1analysis_1_1utils_1_1_kin_fitter_1_1_target__t.html" target="_top" xlink:title="ant::analysis::utils\l::KinFitter::Target_t">
<polygon fill="white" stroke="black" points="280,-137.5 280,-167.5 385,-167.5 385,-137.5 280,-137.5"/>
<text text-anchor="start" x="288" y="-155.5" font-family="Helvetica,sans-Serif" font-size="10.00">ant::analysis::utils</text>
<text text-anchor="middle" x="332.5" y="-144.5" font-family="Helvetica,sans-Serif" font-size="10.00">::KinFitter::Target_t</text>
</a>
</g>
</g>
<!-- Node9&#45;&gt;Node7 -->
<g id="edge7" class="edge"><title>Node9&#45;&gt;Node7</title>
<path fill="none" stroke="#9a32cd" stroke-dasharray="5,2" d="M395.536,-152.5C431.431,-152.5 476.02,-152.5 509.711,-152.5"/>
<polygon fill="#9a32cd" stroke="#9a32cd" points="395.18,-149 385.18,-152.5 395.18,-156 395.18,-149"/>
<text text-anchor="middle" x="441" y="-155.5" font-family="Helvetica,sans-Serif" font-size="10.00"> Target</text>
</g>
<!-- Node10 -->
<g id="node9" class="node"><title>Node10</title>
<g id="a_node9"><a xlink:href="structant_1_1analysis_1_1utils_1_1_kin_fitter_1_1_beam_e__t.html" target="_top" xlink:title="ant::analysis::utils\l::KinFitter::BeamE_t">
<polygon fill="white" stroke="black" points="277.5,-88.5 277.5,-118.5 387.5,-118.5 387.5,-88.5 277.5,-88.5"/>
<text text-anchor="start" x="285.5" y="-106.5" font-family="Helvetica,sans-Serif" font-size="10.00">ant::analysis::utils</text>
<text text-anchor="middle" x="332.5" y="-95.5" font-family="Helvetica,sans-Serif" font-size="10.00">::KinFitter::BeamE_t</text>
</a>
</g>
</g>
<!-- Node10&#45;&gt;Node7 -->
<g id="edge8" class="edge"><title>Node10&#45;&gt;Node7</title>
<path fill="none" stroke="#9a32cd" stroke-dasharray="5,2" d="M397.545,-117.355C433.071,-125.041 476.616,-134.461 509.678,-141.614"/>
<polygon fill="#9a32cd" stroke="#9a32cd" points="398.266,-113.93 387.752,-115.237 396.786,-120.772 398.266,-113.93"/>
<text text-anchor="middle" x="441" y="-134.5" font-family="Helvetica,sans-Serif" font-size="10.00"> BeamE</text>
</g>
<!-- Node11 -->
<g id="node10" class="node"><title>Node11</title>
<polygon fill="white" stroke="#bfbfbf" points="143,-94 143,-113 199,-113 199,-94 143,-94"/>
<text text-anchor="middle" x="171" y="-101" font-family="Helvetica,sans-Serif" font-size="10.00">V_S_P_t</text>
</g>
<!-- Node11&#45;&gt;Node10 -->
<g id="edge9" class="edge"><title>Node11&#45;&gt;Node10</title>
<path fill="none" stroke="midnightblue" d="M209.159,-103.5C229.468,-103.5 254.994,-103.5 277.468,-103.5"/>
<polygon fill="midnightblue" stroke="midnightblue" points="209.057,-100 199.057,-103.5 209.057,-107 209.057,-100"/>
</g>
<!-- Node12 -->
<g id="node11" class="node"><title>Node12</title>
<polygon fill="white" stroke="#bfbfbf" points="265,-50 265,-69 400,-69 400,-50 265,-50"/>
<text text-anchor="middle" x="332.5" y="-57" font-family="Helvetica,sans-Serif" font-size="10.00">std::vector&lt; FitParticle &gt;</text>
</g>
<!-- Node12&#45;&gt;Node7 -->
<g id="edge10" class="edge"><title>Node12&#45;&gt;Node7</title>
<path fill="none" stroke="#9a32cd" stroke-dasharray="5,2" d="M380.372,-71.9525C387.012,-73.9883 393.714,-76.1922 400,-78.5 429.315,-89.2631 438.798,-89.0587 464,-107.5 473.651,-114.562 471.958,-121.006 482,-127.5 490.478,-132.983 500.253,-137.348 509.953,-140.792"/>
<polygon fill="#9a32cd" stroke="#9a32cd" points="381.327,-68.5851 370.745,-69.0975 379.337,-75.2963 381.327,-68.5851"/>
<text text-anchor="middle" x="441" y="-110.5" font-family="Helvetica,sans-Serif" font-size="10.00"> Photons</text>
</g>
<!-- Node13 -->
<g id="node12" class="node"><title>Node13</title>
<g id="a_node12"><a xlink:href="classant_1_1analysis_1_1utils_1_1_trigger_simulation.html" target="_top" xlink:title="ant::analysis::utils\l::TriggerSimulation">
<polygon fill="white" stroke="black" points="508.5,-88.5 508.5,-118.5 613.5,-118.5 613.5,-88.5 508.5,-88.5"/>
<text text-anchor="start" x="516.5" y="-106.5" font-family="Helvetica,sans-Serif" font-size="10.00">ant::analysis::utils</text>
<text text-anchor="middle" x="561" y="-95.5" font-family="Helvetica,sans-Serif" font-size="10.00">::TriggerSimulation</text>
</a>
</g>
</g>
<!-- Node13&#45;&gt;Node2 -->
<g id="edge11" class="edge"><title>Node13&#45;&gt;Node2</title>
<path fill="none" stroke="#9a32cd" stroke-dasharray="5,2" d="M623.659,-115.683C662.88,-123.432 713.347,-133.403 751.867,-141.014"/>
<polygon fill="#9a32cd" stroke="#9a32cd" points="624.176,-112.217 613.687,-113.712 622.819,-119.084 624.176,-112.217"/>
<text text-anchor="middle" x="696" y="-140.5" font-family="Helvetica,sans-Serif" font-size="10.00"> triggersimu</text>
</g>
<!-- Node14 -->
<g id="node13" class="node"><title>Node14</title>
<g id="a_node13"><a xlink:href="classant_1_1analysis_1_1_prompt_random_1_1_switch.html" target="_top" xlink:title="ant::analysis::PromptRandom\l::Switch">
<polygon fill="white" stroke="black" points="482,-20.5 482,-50.5 640,-50.5 640,-20.5 482,-20.5"/>
<text text-anchor="start" x="490" y="-38.5" font-family="Helvetica,sans-Serif" font-size="10.00">ant::analysis::PromptRandom</text>
<text text-anchor="middle" x="561" y="-27.5" font-family="Helvetica,sans-Serif" font-size="10.00">::Switch</text>
</a>
</g>
</g>
<!-- Node14&#45;&gt;Node2 -->
<g id="edge12" class="edge"><title>Node14&#45;&gt;Node2</title>
<path fill="none" stroke="#9a32cd" stroke-dasharray="5,2" d="M609.584,-54.3442C644.47,-68.5512 692.743,-89.029 734,-109.5 751.383,-118.125 770.383,-128.875 785.037,-137.469"/>
<polygon fill="#9a32cd" stroke="#9a32cd" points="610.698,-51.0195 600.116,-50.5086 608.07,-57.5074 610.698,-51.0195"/>
<text text-anchor="middle" x="696" y="-112.5" font-family="Helvetica,sans-Serif" font-size="10.00"> promptrandom</text>
</g>
<!-- Node15 -->
<g id="node14" class="node"><title>Node15</title>
<g id="a_node14"><a xlink:href="classant_1_1_piecewise_interval.html" target="_top" xlink:title="ant::PiecewiseInterval\l\&lt; double \&gt;">
<polygon fill="white" stroke="black" points="273,-0.5 273,-30.5 392,-30.5 392,-0.5 273,-0.5"/>
<text text-anchor="start" x="281" y="-18.5" font-family="Helvetica,sans-Serif" font-size="10.00">ant::PiecewiseInterval</text>
<text text-anchor="middle" x="332.5" y="-7.5" font-family="Helvetica,sans-Serif" font-size="10.00">&lt; double &gt;</text>
</a>
</g>
</g>
<!-- Node15&#45;&gt;Node14 -->
<g id="edge13" class="edge"><title>Node15&#45;&gt;Node14</title>
<path fill="none" stroke="#9a32cd" stroke-dasharray="5,2" d="M402.333,-13.6138C422.269,-13.72 444.038,-14.4663 464,-16.5 473.212,-17.4385 482.852,-18.8385 492.322,-20.461"/>
<polygon fill="#9a32cd" stroke="#9a32cd" points="402.094,-10.1139 392.094,-13.6132 402.094,-17.1139 402.094,-10.1139"/>
<text text-anchor="middle" x="441" y="-30.5" font-family="Helvetica,sans-Serif" font-size="10.00"> promptw</text>
<text text-anchor="middle" x="441" y="-19.5" font-family="Helvetica,sans-Serif" font-size="10.00">randomw</text>
</g>
<!-- Node16 -->
<g id="node15" class="node"><title>Node16</title>
<g id="a_node15"><a xlink:title="STL class. ">
<polygon fill="white" stroke="#bfbfbf" points="114,-0.5 114,-30.5 228,-30.5 228,-0.5 114,-0.5"/>
<text text-anchor="start" x="122" y="-18.5" font-family="Helvetica,sans-Serif" font-size="10.00">std::vector&lt; interval</text>
<text text-anchor="middle" x="171" y="-7.5" font-family="Helvetica,sans-Serif" font-size="10.00">&lt; double &gt; &gt;</text>
</a>
</g>
</g>
<!-- Node16&#45;&gt;Node15 -->
<g id="edge14" class="edge"><title>Node16&#45;&gt;Node15</title>
<path fill="none" stroke="midnightblue" d="M238.545,-15.5C249.917,-15.5 261.656,-15.5 272.804,-15.5"/>
<polygon fill="midnightblue" stroke="midnightblue" points="238.234,-12.0001 228.234,-15.5 238.234,-19.0001 238.234,-12.0001"/>
</g>
<!-- Node17 -->
<g id="node16" class="node"><title>Node17</title>
<polygon fill="white" stroke="#bfbfbf" points="0,-6 0,-25 29,-25 29,-6 0,-6"/>
<text text-anchor="middle" x="14.5" y="-13" font-family="Helvetica,sans-Serif" font-size="10.00">T</text>
</g>
<!-- Node17&#45;&gt;Node16 -->
<g id="edge15" class="edge"><title>Node17&#45;&gt;Node16</title>
<path fill="none" stroke="#9a32cd" stroke-dasharray="5,2" d="M39.4618,-15.5C59.2697,-15.5 88.1942,-15.5 113.785,-15.5"/>
<polygon fill="#9a32cd" stroke="#9a32cd" points="39.2109,-12.0001 29.2108,-15.5 39.2108,-19.0001 39.2109,-12.0001"/>
<text text-anchor="middle" x="71.5" y="-18.5" font-family="Helvetica,sans-Serif" font-size="10.00"> elements</text>
</g>
</g>
</svg>
