<?xml version="1.0" encoding="UTF-8" standalone="no"?>
<!DOCTYPE svg PUBLIC "-//W3C//DTD SVG 1.1//EN"
 "http://www.w3.org/Graphics/SVG/1.1/DTD/svg11.dtd">
<!-- Generated by graphviz version 2.38.0 (20140413.2041)
 -->
<!-- Title: ant::unpacker::acqu::FileFormatMk1 Pages: 1 -->
<svg width="166pt" height="162pt"
 viewBox="0.00 0.00 166.00 162.00" xmlns="http://www.w3.org/2000/svg" xmlns:xlink="http://www.w3.org/1999/xlink">
<g id="graph0" class="graph" transform="scale(1 1) rotate(0) translate(4 158)">
<title>ant::unpacker::acqu::FileFormatMk1</title>
<polygon fill="white" stroke="none" points="-4,4 -4,-158 162,-158 162,4 -4,4"/>
<!-- Node0 -->
<g id="node1" class="node"><title>Node0</title>
<polygon fill="#bfbfbf" stroke="black" points="23,-0.5 23,-30.5 135,-30.5 135,-0.5 23,-0.5"/>
<text text-anchor="start" x="31" y="-18.5" font-family="Helvetica,sans-Serif" font-size="10.00">ant::unpacker::acqu</text>
<text text-anchor="middle" x="79" y="-7.5" font-family="Helvetica,sans-Serif" font-size="10.00">::FileFormatMk1</text>
</g>
<!-- Node1 -->
<g id="node2" class="node"><title>Node1</title>
<g id="a_node2"><a xlink:href="classant_1_1unpacker_1_1acqu_1_1_file_format_base.html" target="_top" xlink:title="ant::unpacker::acqu\l::FileFormatBase">
<polygon fill="white" stroke="black" points="23,-67.5 23,-97.5 135,-97.5 135,-67.5 23,-67.5"/>
<text text-anchor="start" x="31" y="-85.5" font-family="Helvetica,sans-Serif" font-size="10.00">ant::unpacker::acqu</text>
<text text-anchor="middle" x="79" y="-74.5" font-family="Helvetica,sans-Serif" font-size="10.00">::FileFormatBase</text>
</a>
</g>
</g>
<!-- Node1&#45;&gt;Node0 -->
<g id="edge1" class="edge"><title>Node1&#45;&gt;Node0</title>
<path fill="none" stroke="midnightblue" d="M79,-57.1081C79,-48.1539 79,-38.3227 79,-30.5765"/>
<polygon fill="midnightblue" stroke="midnightblue" points="75.5001,-57.3959 79,-67.396 82.5001,-57.396 75.5001,-57.3959"/>
</g>
<!-- Node2 -->
<g id="node3" class="node"><title>Node2</title>
<g id="a_node3"><a xlink:href="classant_1_1_unpacker_acqu_file_format.html" target="_top" xlink:title="ant::UnpackerAcquFileFormat">
<polygon fill="white" stroke="black" points="-1.42109e-14,-134.5 -1.42109e-14,-153.5 158,-153.5 158,-134.5 -1.42109e-14,-134.5"/>
<text text-anchor="middle" x="79" y="-141.5" font-family="Helvetica,sans-Serif" font-size="10.00">ant::UnpackerAcquFileFormat</text>
</a>
</g>
</g>
<!-- Node2&#45;&gt;Node1 -->
<g id="edge2" class="edge"><title>Node2&#45;&gt;Node1</title>
<path fill="none" stroke="midnightblue" d="M79,-124.235C79,-115.586 79,-105.497 79,-97.523"/>
<polygon fill="midnightblue" stroke="midnightblue" points="75.5001,-124.475 79,-134.475 82.5001,-124.475 75.5001,-124.475"/>
</g>
</g>
</svg>
