<?xml version="1.0" encoding="UTF-8" standalone="no"?>
<!DOCTYPE svg PUBLIC "-//W3C//DTD SVG 1.1//EN"
 "http://www.w3.org/Graphics/SVG/1.1/DTD/svg11.dtd">
<!-- Generated by graphviz version 2.38.0 (20140413.2041)
 -->
<!-- Title: progs Pages: 1 -->
<svg width="94pt" height="204pt"
 viewBox="0.00 0.00 94.00 204.00" xmlns="http://www.w3.org/2000/svg" xmlns:xlink="http://www.w3.org/1999/xlink">
<g id="graph0" class="graph" transform="scale(1 1) rotate(0) translate(4 200)">
<title>progs</title>
<polygon fill="white" stroke="none" points="-4,4 -4,-200 90,-200 90,4 -4,4"/>
<g id="clust1" class="cluster"><title>clusterdir_5add7565d6526ad7ae75529accba553c</title>
<g id="a_clust1"><a xlink:href="dir_5add7565d6526ad7ae75529accba553c.html" target="_top">
<polygon fill="#eeeeff" stroke="black" points="8,-64 8,-188 78,-188 78,-64 8,-64"/>
</a>
</g>
</g>
<!-- dir_5add7565d6526ad7ae75529accba553c -->
<g id="node1" class="node"><title>dir_5add7565d6526ad7ae75529accba553c</title>
<text text-anchor="middle" x="43" y="-159.5" font-family="Helvetica,sans-Serif" font-size="10.00">progs</text>
</g>
<!-- dir_df4b3a50ef37b6dffaa88137e64ba8b2 -->
<g id="node2" class="node"><title>dir_df4b3a50ef37b6dffaa88137e64ba8b2</title>
<g id="a_node2"><a xlink:href="dir_df4b3a50ef37b6dffaa88137e64ba8b2.html" target="_top" xlink:title="detail">
<polygon fill="white" stroke="black" points="70,-108 16,-108 16,-72 70,-72 70,-108"/>
<text text-anchor="middle" x="43" y="-87.5" font-family="Helvetica,sans-Serif" font-size="10.00">detail</text>
</a>
</g>
</g>
<!-- dir_5add7565d6526ad7ae75529accba553c&#45;&gt;dir_df4b3a50ef37b6dffaa88137e64ba8b2 -->
<g id="edge2" class="edge"><title>dir_5add7565d6526ad7ae75529accba553c&#45;&gt;dir_df4b3a50ef37b6dffaa88137e64ba8b2</title>
<path fill="none" stroke="black" d="M43,-143.697C43,-135.983 43,-126.712 43,-118.112"/>
<polygon fill="black" stroke="black" points="46.5001,-118.104 43,-108.104 39.5001,-118.104 46.5001,-118.104"/>
<g id="a_edge2&#45;headlabel"><a xlink:href="dir_000000_000001.html" target="_top" xlink:title="16">
<text text-anchor="middle" x="49.3393" y="-119.199" font-family="Helvetica,sans-Serif" font-size="10.00">16</text>
</a>
</g>
</g>
<!-- dir_68267d1309a1af8e8297ef4c3efbcdba -->
<g id="node3" class="node"><title>dir_68267d1309a1af8e8297ef4c3efbcdba</title>
<g id="a_node3"><a xlink:href="dir_68267d1309a1af8e8297ef4c3efbcdba.html" target="_top" xlink:title="src">
<polygon fill="white" stroke="red" points="70,-36 16,-36 16,-0 70,-0 70,-36"/>
<text text-anchor="middle" x="43" y="-15.5" font-family="Helvetica,sans-Serif" font-size="10.00">src</text>
</a>
</g>
</g>
<!-- dir_df4b3a50ef37b6dffaa88137e64ba8b2&#45;&gt;dir_68267d1309a1af8e8297ef4c3efbcdba -->
<g id="edge1" class="edge"><title>dir_df4b3a50ef37b6dffaa88137e64ba8b2&#45;&gt;dir_68267d1309a1af8e8297ef4c3efbcdba</title>
<path fill="none" stroke="black" d="M43,-71.6966C43,-63.9827 43,-54.7125 43,-46.1124"/>
<polygon fill="black" stroke="black" points="46.5001,-46.1043 43,-36.1043 39.5001,-46.1044 46.5001,-46.1043"/>
<g id="a_edge1&#45;headlabel"><a xlink:href="dir_000001_000002.html" target="_top" xlink:title="28">
<text text-anchor="middle" x="49.3393" y="-47.199" font-family="Helvetica,sans-Serif" font-size="10.00">28</text>
</a>
</g>
</g>
</g>
</svg>
