<?xml version="1.0" encoding="UTF-8" standalone="no"?>
<!DOCTYPE svg PUBLIC "-//W3C//DTD SVG 1.1//EN"
 "http://www.w3.org/Graphics/SVG/1.1/DTD/svg11.dtd">
<!-- Generated by graphviz version 2.38.0 (20140413.2041)
 -->
<!-- Title: src/unpacker/detail Pages: 1 -->
<svg width="141pt" height="295pt"
 viewBox="0.00 0.00 141.00 295.00" xmlns="http://www.w3.org/2000/svg" xmlns:xlink="http://www.w3.org/1999/xlink">
<g id="graph0" class="graph" transform="scale(1 1) rotate(0) translate(4 291)">
<title>src/unpacker/detail</title>
<polygon fill="white" stroke="none" points="-4,4 -4,-291 137,-291 137,4 -4,4"/>
<g id="clust1" class="cluster"><title>clusterdir_da9e88029a658bab9ad39bb8696ef9bc</title>
<g id="a_clust1"><a xlink:href="dir_da9e88029a658bab9ad39bb8696ef9bc.html" target="_top" xlink:title="unpacker">
<polygon fill="#ddddee" stroke="black" points="8,-208 8,-279 78,-279 78,-208 8,-208"/>
<text text-anchor="middle" x="43" y="-267" font-family="Helvetica,sans-Serif" font-size="10.00">unpacker</text>
</a>
</g>
</g>
<!-- dir_567e523e8ffcef81078570749a0749e1 -->
<g id="node1" class="node"><title>dir_567e523e8ffcef81078570749a0749e1</title>
<g id="a_node1"><a xlink:href="dir_567e523e8ffcef81078570749a0749e1.html" target="_top" xlink:title="detail">
<polygon fill="#eeeeff" stroke="black" points="70,-252 16,-252 16,-216 70,-216 70,-252"/>
<text text-anchor="middle" x="43" y="-231.5" font-family="Helvetica,sans-Serif" font-size="10.00">detail</text>
</a>
</g>
</g>
<!-- dir_0af1587c8378955de40f48b4bd1869f0 -->
<g id="node2" class="node"><title>dir_0af1587c8378955de40f48b4bd1869f0</title>
<g id="a_node2"><a xlink:href="dir_0af1587c8378955de40f48b4bd1869f0.html" target="_top" xlink:title="base">
<polygon fill="white" stroke="red" points="81,-36 27,-36 27,-0 81,-0 81,-36"/>
<text text-anchor="middle" x="54" y="-15.5" font-family="Helvetica,sans-Serif" font-size="10.00">base</text>
</a>
</g>
</g>
<!-- dir_567e523e8ffcef81078570749a0749e1&#45;&gt;dir_0af1587c8378955de40f48b4bd1869f0 -->
<g id="edge4" class="edge"><title>dir_567e523e8ffcef81078570749a0749e1&#45;&gt;dir_0af1587c8378955de40f48b4bd1869f0</title>
<path fill="none" stroke="black" d="M35.3368,-215.715C23.179,-185.831 2.36957,-122.829 18,-72 21.0089,-62.2153 26.507,-52.6161 32.3157,-44.3336"/>
<polygon fill="black" stroke="black" points="35.1948,-46.3279 38.3901,-36.2264 29.5928,-42.1306 35.1948,-46.3279"/>
<g id="a_edge4&#45;headlabel"><a xlink:href="dir_000063_000018.html" target="_top" xlink:title="5">
<text text-anchor="middle" x="35.3117" y="-48.4071" font-family="Helvetica,sans-Serif" font-size="10.00">5</text>
</a>
</g>
</g>
<!-- dir_c44c95bf3b41c3321c6014770d618ac8 -->
<g id="node3" class="node"><title>dir_c44c95bf3b41c3321c6014770d618ac8</title>
<g id="a_node3"><a xlink:href="dir_c44c95bf3b41c3321c6014770d618ac8.html" target="_top" xlink:title="tree">
<polygon fill="none" stroke="black" points="81,-108 27,-108 27,-72 81,-72 81,-108"/>
<text text-anchor="middle" x="54" y="-87.5" font-family="Helvetica,sans-Serif" font-size="10.00">tree</text>
</a>
</g>
</g>
<!-- dir_567e523e8ffcef81078570749a0749e1&#45;&gt;dir_c44c95bf3b41c3321c6014770d618ac8 -->
<g id="edge5" class="edge"><title>dir_567e523e8ffcef81078570749a0749e1&#45;&gt;dir_c44c95bf3b41c3321c6014770d618ac8</title>
<path fill="none" stroke="black" d="M44.3269,-215.871C46.2016,-191.67 49.6456,-147.211 51.878,-118.393"/>
<polygon fill="black" stroke="black" points="55.3856,-118.43 52.6684,-108.189 48.4065,-117.889 55.3856,-118.43"/>
<g id="a_edge5&#45;headlabel"><a xlink:href="dir_000063_000061.html" target="_top" xlink:title="7">
<text text-anchor="middle" x="57.9388" y="-119.733" font-family="Helvetica,sans-Serif" font-size="10.00">7</text>
</a>
</g>
</g>
<!-- dir_c4f4646ab0f4a2967be5b6215a500c22 -->
<g id="node4" class="node"><title>dir_c4f4646ab0f4a2967be5b6215a500c22</title>
<g id="a_node4"><a xlink:href="dir_c4f4646ab0f4a2967be5b6215a500c22.html" target="_top" xlink:title="expconfig">
<polygon fill="white" stroke="red" points="133,-180 71,-180 71,-144 133,-144 133,-180"/>
<text text-anchor="middle" x="102" y="-159.5" font-family="Helvetica,sans-Serif" font-size="10.00">expconfig</text>
</a>
</g>
</g>
<!-- dir_567e523e8ffcef81078570749a0749e1&#45;&gt;dir_c4f4646ab0f4a2967be5b6215a500c22 -->
<g id="edge6" class="edge"><title>dir_567e523e8ffcef81078570749a0749e1&#45;&gt;dir_c4f4646ab0f4a2967be5b6215a500c22</title>
<path fill="none" stroke="black" d="M57.5843,-215.697C64.6576,-207.305 73.2834,-197.07 81.0454,-187.861"/>
<polygon fill="black" stroke="black" points="83.8149,-190.006 87.5835,-180.104 78.4625,-185.495 83.8149,-190.006"/>
<g id="a_edge6&#45;headlabel"><a xlink:href="dir_000063_000040.html" target="_top" xlink:title="1">
<text text-anchor="middle" x="83.6693" y="-192.085" font-family="Helvetica,sans-Serif" font-size="10.00">1</text>
</a>
</g>
</g>
<!-- dir_c44c95bf3b41c3321c6014770d618ac8&#45;&gt;dir_0af1587c8378955de40f48b4bd1869f0 -->
<g id="edge1" class="edge"><title>dir_c44c95bf3b41c3321c6014770d618ac8&#45;&gt;dir_0af1587c8378955de40f48b4bd1869f0</title>
<path fill="none" stroke="black" d="M54,-71.6966C54,-63.9827 54,-54.7125 54,-46.1124"/>
<polygon fill="black" stroke="black" points="57.5001,-46.1043 54,-36.1043 50.5001,-46.1044 57.5001,-46.1043"/>
<g id="a_edge1&#45;headlabel"><a xlink:href="dir_000061_000018.html" target="_top" xlink:title="25">
<text text-anchor="middle" x="60.3393" y="-47.199" font-family="Helvetica,sans-Serif" font-size="10.00">25</text>
</a>
</g>
</g>
<!-- dir_c4f4646ab0f4a2967be5b6215a500c22&#45;&gt;dir_0af1587c8378955de40f48b4bd1869f0 -->
<g id="edge2" class="edge"><title>dir_c4f4646ab0f4a2967be5b6215a500c22&#45;&gt;dir_0af1587c8378955de40f48b4bd1869f0</title>
<path fill="none" stroke="black" d="M101.994,-143.695C101.462,-125.328 99.0795,-95.7364 90,-72 86.3427,-62.4387 80.6624,-52.9023 74.8863,-44.6086"/>
<polygon fill="black" stroke="black" points="77.6503,-42.4591 68.913,-36.4665 72.0062,-46.5998 77.6503,-42.4591"/>
<g id="a_edge2&#45;headlabel"><a xlink:href="dir_000040_000018.html" target="_top" xlink:title="47">
<text text-anchor="middle" x="82.0658" y="-41.178" font-family="Helvetica,sans-Serif" font-size="10.00">47</text>
</a>
</g>
</g>
<!-- dir_c4f4646ab0f4a2967be5b6215a500c22&#45;&gt;dir_c44c95bf3b41c3321c6014770d618ac8 -->
<g id="edge3" class="edge"><title>dir_c4f4646ab0f4a2967be5b6215a500c22&#45;&gt;dir_c44c95bf3b41c3321c6014770d618ac8</title>
<path fill="none" stroke="black" d="M90.1348,-143.697C84.4965,-135.474 77.6457,-125.483 71.4313,-116.421"/>
<polygon fill="black" stroke="black" points="74.2706,-114.372 65.7287,-108.104 68.4975,-118.331 74.2706,-114.372"/>
<g id="a_edge3&#45;headlabel"><a xlink:href="dir_000040_000061.html" target="_top" xlink:title="10">
<text text-anchor="middle" x="78.645" y="-113.231" font-family="Helvetica,sans-Serif" font-size="10.00">10</text>
</a>
</g>
</g>
</g>
</svg>
