<?xml version="1.0" encoding="UTF-8" standalone="no"?>
<!DOCTYPE svg PUBLIC "-//W3C//DTD SVG 1.1//EN"
 "http://www.w3.org/Graphics/SVG/1.1/DTD/svg11.dtd">
<!-- Generated by graphviz version 2.38.0 (20140413.2041)
 -->
<!-- Title: src/analysis/input Pages: 1 -->
<svg width="519pt" height="447pt"
 viewBox="0.00 0.00 519.00 447.00" xmlns="http://www.w3.org/2000/svg" xmlns:xlink="http://www.w3.org/1999/xlink">
<g id="graph0" class="graph" transform="scale(1 1) rotate(0) translate(4 443)">
<title>src/analysis/input</title>
<polygon fill="white" stroke="none" points="-4,4 -4,-443 515,-443 515,4 -4,4"/>
<g id="clust1" class="cluster"><title>clusterdir_2eec376824a17f48dc36b4bd0c810e01</title>
<g id="a_clust1"><a xlink:href="dir_2eec376824a17f48dc36b4bd0c810e01.html" target="_top" xlink:title="analysis">
<polygon fill="#ddddee" stroke="black" points="164,-344 164,-431 466,-431 466,-344 164,-344"/>
<text text-anchor="middle" x="315" y="-419" font-family="Helvetica,sans-Serif" font-size="10.00">analysis</text>
</a>
</g>
</g>
<g id="clust2" class="cluster"><title>clusterdir_4d4314fec0337faafb4fd99dc7917bfa</title>
<g id="a_clust2"><a xlink:href="dir_4d4314fec0337faafb4fd99dc7917bfa.html" target="_top">
<polygon fill="#eeeeff" stroke="black" points="172,-352 172,-404 458,-404 458,-352 172,-352"/>
</a>
</g>
</g>
<!-- dir_4d4314fec0337faafb4fd99dc7917bfa -->
<g id="node1" class="node"><title>dir_4d4314fec0337faafb4fd99dc7917bfa</title>
<text text-anchor="middle" x="423" y="-375.5" font-family="Helvetica,sans-Serif" font-size="10.00">input</text>
</g>
<!-- dir_0dfa530d699612f2413b2376f341aa41 -->
<g id="node2" class="node"><title>dir_0dfa530d699612f2413b2376f341aa41</title>
<g id="a_node2"><a xlink:href="dir_0dfa530d699612f2413b2376f341aa41.html" target="_top" xlink:title="ant">
<polygon fill="white" stroke="black" points="378,-396 324,-396 324,-360 378,-360 378,-396"/>
<text text-anchor="middle" x="351" y="-375.5" font-family="Helvetica,sans-Serif" font-size="10.00">ant</text>
</a>
</g>
</g>
<!-- dir_0af1587c8378955de40f48b4bd1869f0 -->
<g id="node6" class="node"><title>dir_0af1587c8378955de40f48b4bd1869f0</title>
<g id="a_node6"><a xlink:href="dir_0af1587c8378955de40f48b4bd1869f0.html" target="_top" xlink:title="base">
<polygon fill="white" stroke="red" points="280,-36 226,-36 226,-0 280,-0 280,-36"/>
<text text-anchor="middle" x="253" y="-15.5" font-family="Helvetica,sans-Serif" font-size="10.00">base</text>
</a>
</g>
</g>
<!-- dir_0dfa530d699612f2413b2376f341aa41&#45;&gt;dir_0af1587c8378955de40f48b4bd1869f0 -->
<g id="edge4" class="edge"><title>dir_0dfa530d699612f2413b2376f341aa41&#45;&gt;dir_0af1587c8378955de40f48b4bd1869f0</title>
<path fill="none" stroke="black" d="M368.933,-359.77C374.586,-354.555 380.94,-348.911 387,-344 444.005,-297.799 511,-308.376 511,-235 511,-235 511,-235 511,-161 511,-61.3447 361.436,-31.1231 290.059,-22.3745"/>
<polygon fill="black" stroke="black" points="290.457,-18.8973 280.123,-21.2339 289.658,-25.8516 290.457,-18.8973"/>
<g id="a_edge4&#45;headlabel"><a xlink:href="dir_000010_000018.html" target="_top" xlink:title="3">
<text text-anchor="middle" x="294.352" y="-13.9864" font-family="Helvetica,sans-Serif" font-size="10.00">3</text>
</a>
</g>
</g>
<!-- dir_c44c95bf3b41c3321c6014770d618ac8 -->
<g id="node7" class="node"><title>dir_c44c95bf3b41c3321c6014770d618ac8</title>
<g id="a_node7"><a xlink:href="dir_c44c95bf3b41c3321c6014770d618ac8.html" target="_top" xlink:title="tree">
<polygon fill="none" stroke="black" points="253,-108 199,-108 199,-72 253,-72 253,-108"/>
<text text-anchor="middle" x="226" y="-87.5" font-family="Helvetica,sans-Serif" font-size="10.00">tree</text>
</a>
</g>
</g>
<!-- dir_0dfa530d699612f2413b2376f341aa41&#45;&gt;dir_c44c95bf3b41c3321c6014770d618ac8 -->
<g id="edge5" class="edge"><title>dir_0dfa530d699612f2413b2376f341aa41&#45;&gt;dir_c44c95bf3b41c3321c6014770d618ac8</title>
<path fill="none" stroke="black" d="M362.73,-359.843C389.459,-318.422 448.851,-211.41 399,-144 367.901,-101.946 304.071,-92.1762 263.243,-90.4846"/>
<polygon fill="black" stroke="black" points="263.232,-86.9831 253.141,-90.2105 263.042,-93.9805 263.232,-86.9831"/>
<g id="a_edge5&#45;headlabel"><a xlink:href="dir_000010_000061.html" target="_top" xlink:title="2">
<text text-anchor="middle" x="266.902" y="-81.7423" font-family="Helvetica,sans-Serif" font-size="10.00">2</text>
</a>
</g>
</g>
<!-- dir_da9e88029a658bab9ad39bb8696ef9bc -->
<g id="node8" class="node"><title>dir_da9e88029a658bab9ad39bb8696ef9bc</title>
<g id="a_node8"><a xlink:href="dir_da9e88029a658bab9ad39bb8696ef9bc.html" target="_top" xlink:title="unpacker">
<polygon fill="white" stroke="red" points="368.5,-180 307.5,-180 307.5,-144 368.5,-144 368.5,-180"/>
<text text-anchor="middle" x="338" y="-159.5" font-family="Helvetica,sans-Serif" font-size="10.00">unpacker</text>
</a>
</g>
</g>
<!-- dir_0dfa530d699612f2413b2376f341aa41&#45;&gt;dir_da9e88029a658bab9ad39bb8696ef9bc -->
<g id="edge6" class="edge"><title>dir_0dfa530d699612f2413b2376f341aa41&#45;&gt;dir_da9e88029a658bab9ad39bb8696ef9bc</title>
<path fill="none" stroke="black" d="M349.958,-359.849C347.709,-322.832 342.385,-235.181 339.664,-190.386"/>
<polygon fill="black" stroke="black" points="343.147,-190.002 339.047,-180.232 336.16,-190.426 343.147,-190.002"/>
<g id="a_edge6&#45;headlabel"><a xlink:href="dir_000010_000062.html" target="_top" xlink:title="1">
<text text-anchor="middle" x="346.199" y="-190.918" font-family="Helvetica,sans-Serif" font-size="10.00">1</text>
</a>
</g>
</g>
<!-- dir_5eb03804bf445589bf35c6aa84fb9a34 -->
<g id="node10" class="node"><title>dir_5eb03804bf445589bf35c6aa84fb9a34</title>
<g id="a_node10"><a xlink:href="dir_5eb03804bf445589bf35c6aa84fb9a34.html" target="_top" xlink:title="reconstruct">
<polygon fill="white" stroke="red" points="289.5,-180 218.5,-180 218.5,-144 289.5,-144 289.5,-180"/>
<text text-anchor="middle" x="254" y="-159.5" font-family="Helvetica,sans-Serif" font-size="10.00">reconstruct</text>
</a>
</g>
</g>
<!-- dir_0dfa530d699612f2413b2376f341aa41&#45;&gt;dir_5eb03804bf445589bf35c6aa84fb9a34 -->
<g id="edge7" class="edge"><title>dir_0dfa530d699612f2413b2376f341aa41&#45;&gt;dir_5eb03804bf445589bf35c6aa84fb9a34</title>
<path fill="none" stroke="black" d="M344.831,-359.732C333.966,-329.875 310.169,-266.911 285,-216 280.559,-207.018 275.2,-197.486 270.196,-189.019"/>
<polygon fill="black" stroke="black" points="273.12,-187.09 264.965,-180.326 267.122,-190.699 273.12,-187.09"/>
<g id="a_edge7&#45;headlabel"><a xlink:href="dir_000010_000057.html" target="_top" xlink:title="1">
<text text-anchor="middle" x="277.406" y="-186.206" font-family="Helvetica,sans-Serif" font-size="10.00">1</text>
</a>
</g>
</g>
<!-- dir_3d86aa9b1cc13bb0c6c0b306061fba4a -->
<g id="node3" class="node"><title>dir_3d86aa9b1cc13bb0c6c0b306061fba4a</title>
<g id="a_node3"><a xlink:href="dir_3d86aa9b1cc13bb0c6c0b306061fba4a.html" target="_top" xlink:title="goat">
<polygon fill="white" stroke="black" points="306,-396 252,-396 252,-360 306,-360 306,-396"/>
<text text-anchor="middle" x="279" y="-375.5" font-family="Helvetica,sans-Serif" font-size="10.00">goat</text>
</a>
</g>
</g>
<!-- dir_3d86aa9b1cc13bb0c6c0b306061fba4a&#45;&gt;dir_0af1587c8378955de40f48b4bd1869f0 -->
<g id="edge23" class="edge"><title>dir_3d86aa9b1cc13bb0c6c0b306061fba4a&#45;&gt;dir_0af1587c8378955de40f48b4bd1869f0</title>
<path fill="none" stroke="black" d="M295.653,-359.703C301.451,-354.253 308.211,-348.49 315,-344 332.917,-332.151 340.628,-335.131 359,-324 413.975,-290.691 473,-299.279 473,-235 473,-235 473,-235 473,-161 473,-75.0907 353.113,-38.6365 290.34,-25.4372"/>
<polygon fill="black" stroke="black" points="290.912,-21.9822 280.418,-23.4445 289.533,-28.8451 290.912,-21.9822"/>
<g id="a_edge23&#45;headlabel"><a xlink:href="dir_000012_000018.html" target="_top" xlink:title="5">
<text text-anchor="middle" x="294.995" y="-17.4062" font-family="Helvetica,sans-Serif" font-size="10.00">5</text>
</a>
</g>
</g>
<!-- dir_3d86aa9b1cc13bb0c6c0b306061fba4a&#45;&gt;dir_c44c95bf3b41c3321c6014770d618ac8 -->
<g id="edge24" class="edge"><title>dir_3d86aa9b1cc13bb0c6c0b306061fba4a&#45;&gt;dir_c44c95bf3b41c3321c6014770d618ac8</title>
<path fill="none" stroke="black" d="M297.084,-359.926C337.609,-319.58 428.262,-216.32 377,-144 351.337,-107.794 298.912,-96.1359 263.112,-92.4878"/>
<polygon fill="black" stroke="black" points="263.301,-88.9912 253.038,-91.6257 262.704,-95.9657 263.301,-88.9912"/>
<g id="a_edge24&#45;headlabel"><a xlink:href="dir_000012_000061.html" target="_top" xlink:title="2">
<text text-anchor="middle" x="267.124" y="-83.9687" font-family="Helvetica,sans-Serif" font-size="10.00">2</text>
</a>
</g>
</g>
<!-- dir_c4f4646ab0f4a2967be5b6215a500c22 -->
<g id="node9" class="node"><title>dir_c4f4646ab0f4a2967be5b6215a500c22</title>
<g id="a_node9"><a xlink:href="dir_c4f4646ab0f4a2967be5b6215a500c22.html" target="_top" xlink:title="expconfig">
<polygon fill="white" stroke="red" points="276,-252 214,-252 214,-216 276,-216 276,-252"/>
<text text-anchor="middle" x="245" y="-231.5" font-family="Helvetica,sans-Serif" font-size="10.00">expconfig</text>
</a>
</g>
</g>
<!-- dir_3d86aa9b1cc13bb0c6c0b306061fba4a&#45;&gt;dir_c4f4646ab0f4a2967be5b6215a500c22 -->
<g id="edge25" class="edge"><title>dir_3d86aa9b1cc13bb0c6c0b306061fba4a&#45;&gt;dir_c4f4646ab0f4a2967be5b6215a500c22</title>
<path fill="none" stroke="black" d="M274.899,-359.871C269.079,-335.564 258.365,-290.819 251.468,-262.013"/>
<polygon fill="black" stroke="black" points="254.848,-261.099 249.116,-252.189 248.041,-262.729 254.848,-261.099"/>
<g id="a_edge25&#45;headlabel"><a xlink:href="dir_000012_000040.html" target="_top" xlink:title="2">
<text text-anchor="middle" x="258.446" y="-261.434" font-family="Helvetica,sans-Serif" font-size="10.00">2</text>
</a>
</g>
</g>
<!-- dir_afb7c24399562c2231a021453aaf5419 -->
<g id="node4" class="node"><title>dir_afb7c24399562c2231a021453aaf5419</title>
<g id="a_node4"><a xlink:href="dir_afb7c24399562c2231a021453aaf5419.html" target="_top" xlink:title="pluto">
<polygon fill="white" stroke="red" points="234,-396 180,-396 180,-360 234,-360 234,-396"/>
<text text-anchor="middle" x="207" y="-375.5" font-family="Helvetica,sans-Serif" font-size="10.00">pluto</text>
</a>
</g>
</g>
<!-- dir_0a0aa297e888439a92fbcfd5e567f128 -->
<g id="node5" class="node"><title>dir_0a0aa297e888439a92fbcfd5e567f128</title>
<g id="a_node5"><a xlink:href="dir_0a0aa297e888439a92fbcfd5e567f128.html" target="_top" xlink:title="utils">
<polygon fill="white" stroke="red" points="160,-324 106,-324 106,-288 160,-288 160,-324"/>
<text text-anchor="middle" x="133" y="-303.5" font-family="Helvetica,sans-Serif" font-size="10.00">utils</text>
</a>
</g>
</g>
<!-- dir_afb7c24399562c2231a021453aaf5419&#45;&gt;dir_0a0aa297e888439a92fbcfd5e567f128 -->
<g id="edge12" class="edge"><title>dir_afb7c24399562c2231a021453aaf5419&#45;&gt;dir_0a0aa297e888439a92fbcfd5e567f128</title>
<path fill="none" stroke="black" d="M188.708,-359.697C179.567,-351.05 168.36,-340.449 158.4,-331.027"/>
<polygon fill="black" stroke="black" points="160.752,-328.434 151.082,-324.104 155.941,-333.519 160.752,-328.434"/>
<g id="a_edge12&#45;headlabel"><a xlink:href="dir_000013_000036.html" target="_top" xlink:title="2">
<text text-anchor="middle" x="165.314" y="-326.341" font-family="Helvetica,sans-Serif" font-size="10.00">2</text>
</a>
</g>
</g>
<!-- dir_afb7c24399562c2231a021453aaf5419&#45;&gt;dir_0af1587c8378955de40f48b4bd1869f0 -->
<g id="edge13" class="edge"><title>dir_afb7c24399562c2231a021453aaf5419&#45;&gt;dir_0af1587c8378955de40f48b4bd1869f0</title>
<path fill="none" stroke="black" d="M179.938,-371.724C123.829,-359.045 0,-321.289 0,-235 0,-235 0,-235 0,-161 0,-63.2643 145.351,-32.1085 215.711,-22.7524"/>
<polygon fill="black" stroke="black" points="216.435,-26.1893 225.925,-21.4778 215.568,-19.2432 216.435,-26.1893"/>
<g id="a_edge13&#45;headlabel"><a xlink:href="dir_000013_000018.html" target="_top" xlink:title="6">
<text text-anchor="middle" x="213.22" y="-26.9518" font-family="Helvetica,sans-Serif" font-size="10.00">6</text>
</a>
</g>
</g>
<!-- dir_afb7c24399562c2231a021453aaf5419&#45;&gt;dir_c44c95bf3b41c3321c6014770d618ac8 -->
<g id="edge14" class="edge"><title>dir_afb7c24399562c2231a021453aaf5419&#45;&gt;dir_c44c95bf3b41c3321c6014770d618ac8</title>
<path fill="none" stroke="black" d="M179.807,-372.347C153.5,-366.243 115.042,-352.72 97,-324 88.4888,-310.452 92.7055,-303.413 97,-288 116.403,-218.364 170.547,-150.938 202.182,-115.893"/>
<polygon fill="black" stroke="black" points="205.147,-117.839 209.327,-108.104 199.988,-113.107 205.147,-117.839"/>
<g id="a_edge14&#45;headlabel"><a xlink:href="dir_000013_000061.html" target="_top" xlink:title="2">
<text text-anchor="middle" x="204.809" y="-119.907" font-family="Helvetica,sans-Serif" font-size="10.00">2</text>
</a>
</g>
</g>
<!-- dir_afb7c24399562c2231a021453aaf5419&#45;&gt;dir_c4f4646ab0f4a2967be5b6215a500c22 -->
<g id="edge15" class="edge"><title>dir_afb7c24399562c2231a021453aaf5419&#45;&gt;dir_c4f4646ab0f4a2967be5b6215a500c22</title>
<path fill="none" stroke="black" d="M211.584,-359.871C218.089,-335.564 230.063,-290.819 237.771,-262.013"/>
<polygon fill="black" stroke="black" points="241.196,-262.754 240.4,-252.189 234.434,-260.945 241.196,-262.754"/>
<g id="a_edge15&#45;headlabel"><a xlink:href="dir_000013_000040.html" target="_top" xlink:title="1">
<text text-anchor="middle" x="243.01" y="-264.461" font-family="Helvetica,sans-Serif" font-size="10.00">1</text>
</a>
</g>
</g>
<!-- dir_0a0aa297e888439a92fbcfd5e567f128&#45;&gt;dir_0af1587c8378955de40f48b4bd1869f0 -->
<g id="edge1" class="edge"><title>dir_0a0aa297e888439a92fbcfd5e567f128&#45;&gt;dir_0af1587c8378955de40f48b4bd1869f0</title>
<path fill="none" stroke="black" d="M131.912,-287.882C130.154,-247.002 130.684,-141.892 176,-72 185.87,-56.7766 201.805,-44.7418 216.624,-36.0138"/>
<polygon fill="black" stroke="black" points="218.598,-38.9212 225.643,-31.0079 215.201,-32.8007 218.598,-38.9212"/>
<g id="a_edge1&#45;headlabel"><a xlink:href="dir_000036_000018.html" target="_top" xlink:title="64">
<text text-anchor="middle" x="216.833" y="-40.6481" font-family="Helvetica,sans-Serif" font-size="10.00">64</text>
</a>
</g>
</g>
<!-- dir_0a0aa297e888439a92fbcfd5e567f128&#45;&gt;dir_c44c95bf3b41c3321c6014770d618ac8 -->
<g id="edge2" class="edge"><title>dir_0a0aa297e888439a92fbcfd5e567f128&#45;&gt;dir_c44c95bf3b41c3321c6014770d618ac8</title>
<path fill="none" stroke="black" d="M140.453,-287.849C156.642,-250.597 195.116,-162.067 214.467,-117.539"/>
<polygon fill="black" stroke="black" points="217.735,-118.799 218.511,-108.232 211.315,-116.009 217.735,-118.799"/>
<g id="a_edge2&#45;headlabel"><a xlink:href="dir_000036_000061.html" target="_top" xlink:title="19">
<text text-anchor="middle" x="218.907" y="-120.727" font-family="Helvetica,sans-Serif" font-size="10.00">19</text>
</a>
</g>
</g>
<!-- dir_0a0aa297e888439a92fbcfd5e567f128&#45;&gt;dir_c4f4646ab0f4a2967be5b6215a500c22 -->
<g id="edge3" class="edge"><title>dir_0a0aa297e888439a92fbcfd5e567f128&#45;&gt;dir_c4f4646ab0f4a2967be5b6215a500c22</title>
<path fill="none" stroke="black" d="M160.112,-288.055C174.861,-278.837 193.29,-267.319 209.206,-257.371"/>
<polygon fill="black" stroke="black" points="211.124,-260.3 217.749,-252.032 207.414,-254.364 211.124,-260.3"/>
<g id="a_edge3&#45;headlabel"><a xlink:href="dir_000036_000040.html" target="_top" xlink:title="19">
<text text-anchor="middle" x="209.581" y="-262.112" font-family="Helvetica,sans-Serif" font-size="10.00">19</text>
</a>
</g>
</g>
<!-- dir_c44c95bf3b41c3321c6014770d618ac8&#45;&gt;dir_0af1587c8378955de40f48b4bd1869f0 -->
<g id="edge8" class="edge"><title>dir_c44c95bf3b41c3321c6014770d618ac8&#45;&gt;dir_0af1587c8378955de40f48b4bd1869f0</title>
<path fill="none" stroke="black" d="M232.674,-71.6966C235.715,-63.8132 239.383,-54.3042 242.761,-45.5464"/>
<polygon fill="black" stroke="black" points="246.069,-46.6939 246.403,-36.1043 239.538,-44.1748 246.069,-46.6939"/>
<g id="a_edge8&#45;headlabel"><a xlink:href="dir_000061_000018.html" target="_top" xlink:title="25">
<text text-anchor="middle" x="247.425" y="-48.5695" font-family="Helvetica,sans-Serif" font-size="10.00">25</text>
</a>
</g>
</g>
<!-- dir_da9e88029a658bab9ad39bb8696ef9bc&#45;&gt;dir_0af1587c8378955de40f48b4bd1869f0 -->
<g id="edge9" class="edge"><title>dir_da9e88029a658bab9ad39bb8696ef9bc&#45;&gt;dir_0af1587c8378955de40f48b4bd1869f0</title>
<path fill="none" stroke="black" d="M327.747,-143.871C313.005,-119.244 285.706,-73.6377 268.494,-44.8845"/>
<polygon fill="black" stroke="black" points="271.429,-42.9719 263.289,-36.1893 265.422,-46.5672 271.429,-42.9719"/>
<g id="a_edge9&#45;headlabel"><a xlink:href="dir_000062_000018.html" target="_top" xlink:title="15">
<text text-anchor="middle" x="275.711" y="-42.0979" font-family="Helvetica,sans-Serif" font-size="10.00">15</text>
</a>
</g>
</g>
<!-- dir_da9e88029a658bab9ad39bb8696ef9bc&#45;&gt;dir_c44c95bf3b41c3321c6014770d618ac8 -->
<g id="edge10" class="edge"><title>dir_da9e88029a658bab9ad39bb8696ef9bc&#45;&gt;dir_c44c95bf3b41c3321c6014770d618ac8</title>
<path fill="none" stroke="black" d="M310.602,-143.876C295.848,-134.655 277.475,-123.172 261.623,-113.265"/>
<polygon fill="black" stroke="black" points="263.45,-110.279 253.115,-107.947 259.74,-116.215 263.45,-110.279"/>
<g id="a_edge10&#45;headlabel"><a xlink:href="dir_000062_000061.html" target="_top" xlink:title="10">
<text text-anchor="middle" x="268.003" y="-107.277" font-family="Helvetica,sans-Serif" font-size="10.00">10</text>
</a>
</g>
</g>
<!-- dir_da9e88029a658bab9ad39bb8696ef9bc&#45;&gt;dir_c4f4646ab0f4a2967be5b6215a500c22 -->
<g id="edge11" class="edge"><title>dir_da9e88029a658bab9ad39bb8696ef9bc&#45;&gt;dir_c4f4646ab0f4a2967be5b6215a500c22</title>
<path fill="none" stroke="black" d="M321.066,-180.19C310.054,-189.183 295.423,-200.316 281.89,-210.037"/>
<polygon fill="black" stroke="black" points="279.784,-207.239 273.647,-215.876 283.831,-212.951 279.784,-207.239"/>
<g id="a_edge11&#45;headlabel"><a xlink:href="dir_000062_000040.html" target="_top" xlink:title="4">
<text text-anchor="middle" x="281.076" y="-200.345" font-family="Helvetica,sans-Serif" font-size="10.00">4</text>
</a>
</g>
</g>
<!-- dir_c4f4646ab0f4a2967be5b6215a500c22&#45;&gt;dir_0af1587c8378955de40f48b4bd1869f0 -->
<g id="edge16" class="edge"><title>dir_c4f4646ab0f4a2967be5b6215a500c22&#45;&gt;dir_0af1587c8378955de40f48b4bd1869f0</title>
<path fill="none" stroke="black" d="M227.797,-215.84C219.036,-206.116 208.994,-193.267 203,-180 183.093,-135.942 169.596,-115.83 190,-72 195.961,-59.196 206.706,-48.3801 217.654,-39.9252"/>
<polygon fill="black" stroke="black" points="219.918,-42.6082 225.99,-33.926 215.829,-36.9266 219.918,-42.6082"/>
<g id="a_edge16&#45;headlabel"><a xlink:href="dir_000040_000018.html" target="_top" xlink:title="47">
<text text-anchor="middle" x="218.659" y="-44.5124" font-family="Helvetica,sans-Serif" font-size="10.00">47</text>
</a>
</g>
</g>
<!-- dir_c4f4646ab0f4a2967be5b6215a500c22&#45;&gt;dir_c44c95bf3b41c3321c6014770d618ac8 -->
<g id="edge17" class="edge"><title>dir_c4f4646ab0f4a2967be5b6215a500c22&#45;&gt;dir_c44c95bf3b41c3321c6014770d618ac8</title>
<path fill="none" stroke="black" d="M229.39,-215.774C221.627,-206.03 213.054,-193.184 209,-180 202.709,-159.543 207.907,-135.692 214.158,-117.833"/>
<polygon fill="black" stroke="black" points="217.488,-118.925 217.777,-108.334 210.946,-116.433 217.488,-118.925"/>
<g id="a_edge17&#45;headlabel"><a xlink:href="dir_000040_000061.html" target="_top" xlink:title="10">
<text text-anchor="middle" x="218.861" y="-120.795" font-family="Helvetica,sans-Serif" font-size="10.00">10</text>
</a>
</g>
</g>
<!-- dir_c4f4646ab0f4a2967be5b6215a500c22&#45;&gt;dir_da9e88029a658bab9ad39bb8696ef9bc -->
<g id="edge18" class="edge"><title>dir_c4f4646ab0f4a2967be5b6215a500c22&#45;&gt;dir_da9e88029a658bab9ad39bb8696ef9bc</title>
<path fill="none" stroke="black" d="M262.073,-215.697C273.084,-206.711 287.673,-195.614 301.164,-185.924"/>
<polygon fill="black" stroke="black" points="303.243,-188.741 309.381,-180.104 299.197,-183.028 303.243,-188.741"/>
<g id="a_edge18&#45;headlabel"><a xlink:href="dir_000040_000062.html" target="_top" xlink:title="12">
<text text-anchor="middle" x="301.951" y="-190.635" font-family="Helvetica,sans-Serif" font-size="10.00">12</text>
</a>
</g>
</g>
<!-- dir_c4f4646ab0f4a2967be5b6215a500c22&#45;&gt;dir_5eb03804bf445589bf35c6aa84fb9a34 -->
<g id="edge19" class="edge"><title>dir_c4f4646ab0f4a2967be5b6215a500c22&#45;&gt;dir_5eb03804bf445589bf35c6aa84fb9a34</title>
<path fill="none" stroke="black" d="M241.309,-215.697C241.505,-207.983 242.47,-198.712 243.919,-190.112"/>
<polygon fill="black" stroke="black" points="247.391,-190.595 245.906,-180.104 240.525,-189.231 247.391,-190.595"/>
<g id="a_edge19&#45;headlabel"><a xlink:href="dir_000040_000057.html" target="_top" xlink:title="2">
<text text-anchor="middle" x="249.476" y="-192.173" font-family="Helvetica,sans-Serif" font-size="10.00">2</text>
</a>
</g>
</g>
<!-- dir_5eb03804bf445589bf35c6aa84fb9a34&#45;&gt;dir_0af1587c8378955de40f48b4bd1869f0 -->
<g id="edge20" class="edge"><title>dir_5eb03804bf445589bf35c6aa84fb9a34&#45;&gt;dir_0af1587c8378955de40f48b4bd1869f0</title>
<path fill="none" stroke="black" d="M257.248,-143.888C259.046,-133.542 261.095,-120.063 262,-108 263.197,-92.0449 263.344,-87.9434 262,-72 261.283,-63.4991 259.931,-54.3119 258.488,-46.0122"/>
<polygon fill="black" stroke="black" points="261.914,-45.2892 256.654,-36.0925 255.031,-46.5623 261.914,-45.2892"/>
<g id="a_edge20&#45;headlabel"><a xlink:href="dir_000057_000018.html" target="_top" xlink:title="11">
<text text-anchor="middle" x="265.36" y="-45.8075" font-family="Helvetica,sans-Serif" font-size="10.00">11</text>
</a>
</g>
</g>
<!-- dir_5eb03804bf445589bf35c6aa84fb9a34&#45;&gt;dir_c44c95bf3b41c3321c6014770d618ac8 -->
<g id="edge21" class="edge"><title>dir_5eb03804bf445589bf35c6aa84fb9a34&#45;&gt;dir_c44c95bf3b41c3321c6014770d618ac8</title>
<path fill="none" stroke="black" d="M247.079,-143.697C243.925,-135.813 240.122,-126.304 236.619,-117.546"/>
<polygon fill="black" stroke="black" points="239.805,-116.089 232.842,-108.104 233.306,-118.689 239.805,-116.089"/>
<g id="a_edge21&#45;headlabel"><a xlink:href="dir_000057_000061.html" target="_top" xlink:title="7">
<text text-anchor="middle" x="243.777" y="-115.872" font-family="Helvetica,sans-Serif" font-size="10.00">7</text>
</a>
</g>
</g>
<!-- dir_5eb03804bf445589bf35c6aa84fb9a34&#45;&gt;dir_c4f4646ab0f4a2967be5b6215a500c22 -->
<g id="edge22" class="edge"><title>dir_5eb03804bf445589bf35c6aa84fb9a34&#45;&gt;dir_c4f4646ab0f4a2967be5b6215a500c22</title>
<path fill="none" stroke="black" d="M257.696,-180.104C257.513,-187.791 256.559,-197.054 255.118,-205.665"/>
<polygon fill="black" stroke="black" points="251.641,-205.208 253.14,-215.697 258.509,-206.563 251.641,-205.208"/>
<g id="a_edge22&#45;headlabel"><a xlink:href="dir_000057_000040.html" target="_top" xlink:title="7">
<text text-anchor="middle" x="249.551" y="-198.632" font-family="Helvetica,sans-Serif" font-size="10.00">7</text>
</a>
</g>
</g>
</g>
</svg>
