<?xml version="1.0" encoding="UTF-8" standalone="no"?>
<!DOCTYPE svg PUBLIC "-//W3C//DTD SVG 1.1//EN"
 "http://www.w3.org/Graphics/SVG/1.1/DTD/svg11.dtd">
<!-- Generated by graphviz version 2.38.0 (20140413.2041)
 -->
<!-- Title: src/base Pages: 1 -->
<svg width="220pt" height="183pt"
 viewBox="0.00 0.00 220.00 183.00" xmlns="http://www.w3.org/2000/svg" xmlns:xlink="http://www.w3.org/1999/xlink">
<g id="graph0" class="graph" transform="scale(1 1) rotate(0) translate(4 179)">
<title>src/base</title>
<polygon fill="white" stroke="none" points="-4,4 -4,-179 216,-179 216,4 -4,4"/>
<g id="clust1" class="cluster"><title>clusterdir_68267d1309a1af8e8297ef4c3efbcdba</title>
<g id="a_clust1"><a xlink:href="dir_68267d1309a1af8e8297ef4c3efbcdba.html" target="_top" xlink:title="src">
<polygon fill="#ddddee" stroke="black" points="8,-8 8,-167 204,-167 204,-8 8,-8"/>
<text text-anchor="middle" x="106" y="-155" font-family="Helvetica,sans-Serif" font-size="10.00">src</text>
</a>
</g>
</g>
<g id="clust2" class="cluster"><title>clusterdir_0af1587c8378955de40f48b4bd1869f0</title>
<g id="a_clust2"><a xlink:href="dir_0af1587c8378955de40f48b4bd1869f0.html" target="_top">
<polygon fill="#eeeeff" stroke="black" points="16,-16 16,-140 196,-140 196,-16 16,-16"/>
</a>
</g>
</g>
<!-- dir_0af1587c8378955de40f48b4bd1869f0 -->
<g id="node1" class="node"><title>dir_0af1587c8378955de40f48b4bd1869f0</title>
<text text-anchor="middle" x="161" y="-111.5" font-family="Helvetica,sans-Serif" font-size="10.00">base</text>
</g>
<!-- dir_2785e539dc2185bb77968109a302f52f -->
<g id="node3" class="node"><title>dir_2785e539dc2185bb77968109a302f52f</title>
<g id="a_node3"><a xlink:href="dir_2785e539dc2185bb77968109a302f52f.html" target="_top" xlink:title="std_ext">
<polygon fill="white" stroke="black" points="188,-60 134,-60 134,-24 188,-24 188,-60"/>
<text text-anchor="middle" x="161" y="-39.5" font-family="Helvetica,sans-Serif" font-size="10.00">std_ext</text>
</a>
</g>
</g>
<!-- dir_0af1587c8378955de40f48b4bd1869f0&#45;&gt;dir_2785e539dc2185bb77968109a302f52f -->
<g id="edge2" class="edge"><title>dir_0af1587c8378955de40f48b4bd1869f0&#45;&gt;dir_2785e539dc2185bb77968109a302f52f</title>
<path fill="none" stroke="black" d="M161,-95.6966C161,-87.9827 161,-78.7125 161,-70.1124"/>
<polygon fill="black" stroke="black" points="164.5,-70.1043 161,-60.1043 157.5,-70.1044 164.5,-70.1043"/>
<g id="a_edge2&#45;headlabel"><a xlink:href="dir_000018_000019.html" target="_top" xlink:title="28">
<text text-anchor="middle" x="167.339" y="-71.199" font-family="Helvetica,sans-Serif" font-size="10.00">28</text>
</a>
</g>
</g>
<!-- dir_51a458f6079ce8ac5ea64f4b81b15b20 -->
<g id="node4" class="node"><title>dir_51a458f6079ce8ac5ea64f4b81b15b20</title>
<g id="a_node4"><a xlink:href="dir_51a458f6079ce8ac5ea64f4b81b15b20.html" target="_top" xlink:title="vec">
<polygon fill="white" stroke="black" points="106,-60 52,-60 52,-24 106,-24 106,-60"/>
<text text-anchor="middle" x="79" y="-39.5" font-family="Helvetica,sans-Serif" font-size="10.00">vec</text>
</a>
</g>
</g>
<!-- dir_0af1587c8378955de40f48b4bd1869f0&#45;&gt;dir_51a458f6079ce8ac5ea64f4b81b15b20 -->
<g id="edge1" class="edge"><title>dir_0af1587c8378955de40f48b4bd1869f0&#45;&gt;dir_51a458f6079ce8ac5ea64f4b81b15b20</title>
<path fill="none" stroke="black" d="M140.73,-95.6966C130.502,-86.9655 117.939,-76.2405 106.822,-66.7503"/>
<polygon fill="black" stroke="black" points="108.915,-63.935 99.0365,-60.1043 104.37,-69.259 108.915,-63.935"/>
<g id="a_edge1&#45;headlabel"><a xlink:href="dir_000018_000045.html" target="_top" xlink:title="2">
<text text-anchor="middle" x="113.492" y="-61.6094" font-family="Helvetica,sans-Serif" font-size="10.00">2</text>
</a>
</g>
</g>
<!-- dir_1dcc89ce9e65763eefd0d2df6658684c -->
<g id="node2" class="node"><title>dir_1dcc89ce9e65763eefd0d2df6658684c</title>
<g id="a_node2"><a xlink:href="dir_1dcc89ce9e65763eefd0d2df6658684c.html" target="_top" xlink:title="math_functions">
<polygon fill="white" stroke="black" points="115.5,-132 24.5,-132 24.5,-96 115.5,-96 115.5,-132"/>
<text text-anchor="middle" x="70" y="-111.5" font-family="Helvetica,sans-Serif" font-size="10.00">math_functions</text>
</a>
</g>
</g>
<!-- dir_1dcc89ce9e65763eefd0d2df6658684c&#45;&gt;dir_51a458f6079ce8ac5ea64f4b81b15b20 -->
<g id="edge3" class="edge"><title>dir_1dcc89ce9e65763eefd0d2df6658684c&#45;&gt;dir_51a458f6079ce8ac5ea64f4b81b15b20</title>
<path fill="none" stroke="black" d="M72.2247,-95.6966C73.2165,-87.9827 74.4084,-78.7125 75.5141,-70.1124"/>
<polygon fill="black" stroke="black" points="78.997,-70.469 76.8009,-60.1043 72.0541,-69.5763 78.997,-70.469"/>
<g id="a_edge3&#45;headlabel"><a xlink:href="dir_000044_000045.html" target="_top" xlink:title="1">
<text text-anchor="middle" x="81.3548" y="-71.8964" font-family="Helvetica,sans-Serif" font-size="10.00">1</text>
</a>
</g>
</g>
</g>
</svg>
