<?xml version="1.0" encoding="UTF-8" standalone="no"?>
<!DOCTYPE svg PUBLIC "-//W3C//DTD SVG 1.1//EN"
 "http://www.w3.org/Graphics/SVG/1.1/DTD/svg11.dtd">
<!-- Generated by graphviz version 2.38.0 (20140413.2041)
 -->
<!-- Title: src/analysis/physics/scratch/lheijken Pages: 1 -->
<svg width="338pt" height="439pt"
 viewBox="0.00 0.00 338.00 439.00" xmlns="http://www.w3.org/2000/svg" xmlns:xlink="http://www.w3.org/1999/xlink">
<g id="graph0" class="graph" transform="scale(1 1) rotate(0) translate(4 435)">
<title>src/analysis/physics/scratch/lheijken</title>
<polygon fill="white" stroke="none" points="-4,4 -4,-435 334,-435 334,4 -4,4"/>
<g id="clust1" class="cluster"><title>clusterdir_15cb7383784026d829002226dc1288d7</title>
<g id="a_clust1"><a xlink:href="dir_15cb7383784026d829002226dc1288d7.html" target="_top" xlink:title="scratch">
<polygon fill="#ddddee" stroke="black" points="109,-352 109,-423 179,-423 179,-352 109,-352"/>
<text text-anchor="middle" x="144" y="-411" font-family="Helvetica,sans-Serif" font-size="10.00">scratch</text>
</a>
</g>
</g>
<!-- dir_716105908d65503d9b432afdeae049d0 -->
<g id="node1" class="node"><title>dir_716105908d65503d9b432afdeae049d0</title>
<g id="a_node1"><a xlink:href="dir_716105908d65503d9b432afdeae049d0.html" target="_top" xlink:title="lheijken">
<polygon fill="#eeeeff" stroke="black" points="171,-396 117,-396 117,-360 171,-360 171,-396"/>
<text text-anchor="middle" x="144" y="-375.5" font-family="Helvetica,sans-Serif" font-size="10.00">lheijken</text>
</a>
</g>
</g>
<!-- dir_0a0aa297e888439a92fbcfd5e567f128 -->
<g id="node2" class="node"><title>dir_0a0aa297e888439a92fbcfd5e567f128</title>
<g id="a_node2"><a xlink:href="dir_0a0aa297e888439a92fbcfd5e567f128.html" target="_top" xlink:title="utils">
<polygon fill="white" stroke="red" points="142,-324 88,-324 88,-288 142,-288 142,-324"/>
<text text-anchor="middle" x="115" y="-303.5" font-family="Helvetica,sans-Serif" font-size="10.00">utils</text>
</a>
</g>
</g>
<!-- dir_716105908d65503d9b432afdeae049d0&#45;&gt;dir_0a0aa297e888439a92fbcfd5e567f128 -->
<g id="edge4" class="edge"><title>dir_716105908d65503d9b432afdeae049d0&#45;&gt;dir_0a0aa297e888439a92fbcfd5e567f128</title>
<path fill="none" stroke="black" d="M136.831,-359.697C133.565,-351.813 129.626,-342.304 125.998,-333.546"/>
<polygon fill="black" stroke="black" points="129.147,-332.003 122.086,-324.104 122.68,-334.683 129.147,-332.003"/>
<g id="a_edge4&#45;headlabel"><a xlink:href="dir_000029_000036.html" target="_top" xlink:title="37">
<text text-anchor="middle" x="133.146" y="-331.738" font-family="Helvetica,sans-Serif" font-size="10.00">37</text>
</a>
</g>
</g>
<!-- dir_0af1587c8378955de40f48b4bd1869f0 -->
<g id="node3" class="node"><title>dir_0af1587c8378955de40f48b4bd1869f0</title>
<g id="a_node3"><a xlink:href="dir_0af1587c8378955de40f48b4bd1869f0.html" target="_top" xlink:title="base">
<polygon fill="white" stroke="red" points="189,-36 135,-36 135,-0 189,-0 189,-36"/>
<text text-anchor="middle" x="162" y="-15.5" font-family="Helvetica,sans-Serif" font-size="10.00">base</text>
</a>
</g>
</g>
<!-- dir_716105908d65503d9b432afdeae049d0&#45;&gt;dir_0af1587c8378955de40f48b4bd1869f0 -->
<g id="edge5" class="edge"><title>dir_716105908d65503d9b432afdeae049d0&#45;&gt;dir_0af1587c8378955de40f48b4bd1869f0</title>
<path fill="none" stroke="black" d="M116.915,-365.28C75.2014,-345.187 0,-299.955 0,-235 0,-235 0,-235 0,-161 0,-94.6946 77.6935,-52.1237 125.471,-32.2132"/>
<polygon fill="black" stroke="black" points="126.917,-35.404 134.885,-28.4204 124.301,-28.9112 126.917,-35.404"/>
<g id="a_edge5&#45;headlabel"><a xlink:href="dir_000029_000018.html" target="_top" xlink:title="28">
<text text-anchor="middle" x="124.644" y="-36.8808" font-family="Helvetica,sans-Serif" font-size="10.00">28</text>
</a>
</g>
</g>
<!-- dir_f1b881a94df93d2a183c4d8f47373448 -->
<g id="node4" class="node"><title>dir_f1b881a94df93d2a183c4d8f47373448</title>
<g id="a_node4"><a xlink:href="dir_f1b881a94df93d2a183c4d8f47373448.html" target="_top" xlink:title="calibration">
<polygon fill="white" stroke="red" points="284,-180 218,-180 218,-144 284,-144 284,-180"/>
<text text-anchor="middle" x="251" y="-159.5" font-family="Helvetica,sans-Serif" font-size="10.00">calibration</text>
</a>
</g>
</g>
<!-- dir_716105908d65503d9b432afdeae049d0&#45;&gt;dir_f1b881a94df93d2a183c4d8f47373448 -->
<g id="edge6" class="edge"><title>dir_716105908d65503d9b432afdeae049d0&#45;&gt;dir_f1b881a94df93d2a183c4d8f47373448</title>
<path fill="none" stroke="black" d="M154.16,-359.901C168.14,-336.092 193.76,-291.431 213,-252 223.024,-231.457 233.126,-207.611 240.393,-189.776"/>
<polygon fill="black" stroke="black" points="243.723,-190.876 244.22,-180.293 237.232,-188.256 243.723,-190.876"/>
<g id="a_edge6&#45;headlabel"><a xlink:href="dir_000029_000016.html" target="_top" xlink:title="4">
<text text-anchor="middle" x="245.011" y="-192.772" font-family="Helvetica,sans-Serif" font-size="10.00">4</text>
</a>
</g>
</g>
<!-- dir_c4f4646ab0f4a2967be5b6215a500c22 -->
<g id="node5" class="node"><title>dir_c4f4646ab0f4a2967be5b6215a500c22</title>
<g id="a_node5"><a xlink:href="dir_c4f4646ab0f4a2967be5b6215a500c22.html" target="_top" xlink:title="expconfig">
<polygon fill="white" stroke="red" points="204,-252 142,-252 142,-216 204,-216 204,-252"/>
<text text-anchor="middle" x="173" y="-231.5" font-family="Helvetica,sans-Serif" font-size="10.00">expconfig</text>
</a>
</g>
</g>
<!-- dir_716105908d65503d9b432afdeae049d0&#45;&gt;dir_c4f4646ab0f4a2967be5b6215a500c22 -->
<g id="edge7" class="edge"><title>dir_716105908d65503d9b432afdeae049d0&#45;&gt;dir_c4f4646ab0f4a2967be5b6215a500c22</title>
<path fill="none" stroke="black" d="M147.498,-359.871C152.462,-335.564 161.6,-290.819 167.483,-262.013"/>
<polygon fill="black" stroke="black" points="170.918,-262.687 169.49,-252.189 164.059,-261.287 170.918,-262.687"/>
<g id="a_edge7&#45;headlabel"><a xlink:href="dir_000029_000040.html" target="_top" xlink:title="19">
<text text-anchor="middle" x="172.98" y="-264.277" font-family="Helvetica,sans-Serif" font-size="10.00">19</text>
</a>
</g>
</g>
<!-- dir_8f68c37b22d514b4289e3a1255795d80 -->
<g id="node6" class="node"><title>dir_8f68c37b22d514b4289e3a1255795d80</title>
<g id="a_node6"><a xlink:href="dir_8f68c37b22d514b4289e3a1255795d80.html" target="_top" xlink:title="plot">
<polygon fill="none" stroke="black" points="162,-108 108,-108 108,-72 162,-72 162,-108"/>
<text text-anchor="middle" x="135" y="-87.5" font-family="Helvetica,sans-Serif" font-size="10.00">plot</text>
</a>
</g>
</g>
<!-- dir_716105908d65503d9b432afdeae049d0&#45;&gt;dir_8f68c37b22d514b4289e3a1255795d80 -->
<g id="edge8" class="edge"><title>dir_716105908d65503d9b432afdeae049d0&#45;&gt;dir_8f68c37b22d514b4289e3a1255795d80</title>
<path fill="none" stroke="black" d="M116.827,-362.7C102.739,-353.671 86.8704,-340.572 79,-324 45.5091,-253.479 91.2066,-161.15 117.995,-116.876"/>
<polygon fill="black" stroke="black" points="121.09,-118.526 123.389,-108.183 115.142,-114.835 121.09,-118.526"/>
<g id="a_edge8&#45;headlabel"><a xlink:href="dir_000029_000037.html" target="_top" xlink:title="12">
<text text-anchor="middle" x="121.608" y="-120.577" font-family="Helvetica,sans-Serif" font-size="10.00">12</text>
</a>
</g>
</g>
<!-- dir_f7cc278301683119f8719a92f4ffdd26 -->
<g id="node7" class="node"><title>dir_f7cc278301683119f8719a92f4ffdd26</title>
<g id="a_node7"><a xlink:href="dir_f7cc278301683119f8719a92f4ffdd26.html" target="_top" xlink:title="slowcontrol">
<polygon fill="white" stroke="red" points="330,-324 260,-324 260,-288 330,-288 330,-324"/>
<text text-anchor="middle" x="295" y="-303.5" font-family="Helvetica,sans-Serif" font-size="10.00">slowcontrol</text>
</a>
</g>
</g>
<!-- dir_716105908d65503d9b432afdeae049d0&#45;&gt;dir_f7cc278301683119f8719a92f4ffdd26 -->
<g id="edge9" class="edge"><title>dir_716105908d65503d9b432afdeae049d0&#45;&gt;dir_f7cc278301683119f8719a92f4ffdd26</title>
<path fill="none" stroke="black" d="M171.345,-364.324C193.447,-354.077 224.999,-339.451 250.699,-327.537"/>
<polygon fill="black" stroke="black" points="252.274,-330.665 259.874,-323.284 249.329,-324.314 252.274,-330.665"/>
<g id="a_edge9&#45;headlabel"><a xlink:href="dir_000029_000011.html" target="_top" xlink:title="1">
<text text-anchor="middle" x="250.206" y="-332.253" font-family="Helvetica,sans-Serif" font-size="10.00">1</text>
</a>
</g>
</g>
<!-- dir_0a0aa297e888439a92fbcfd5e567f128&#45;&gt;dir_0af1587c8378955de40f48b4bd1869f0 -->
<g id="edge1" class="edge"><title>dir_0a0aa297e888439a92fbcfd5e567f128&#45;&gt;dir_0af1587c8378955de40f48b4bd1869f0</title>
<path fill="none" stroke="black" d="M108.445,-287.887C94.2311,-247.89 64.5186,-146.069 99,-72 104.961,-59.196 115.706,-48.3801 126.654,-39.9252"/>
<polygon fill="black" stroke="black" points="128.918,-42.6082 134.99,-33.926 124.829,-36.9266 128.918,-42.6082"/>
<g id="a_edge1&#45;headlabel"><a xlink:href="dir_000036_000018.html" target="_top" xlink:title="64">
<text text-anchor="middle" x="127.659" y="-44.5124" font-family="Helvetica,sans-Serif" font-size="10.00">64</text>
</a>
</g>
</g>
<!-- dir_0a0aa297e888439a92fbcfd5e567f128&#45;&gt;dir_c4f4646ab0f4a2967be5b6215a500c22 -->
<g id="edge2" class="edge"><title>dir_0a0aa297e888439a92fbcfd5e567f128&#45;&gt;dir_c4f4646ab0f4a2967be5b6215a500c22</title>
<path fill="none" stroke="black" d="M129.337,-287.697C136.291,-279.305 144.77,-269.07 152.401,-259.861"/>
<polygon fill="black" stroke="black" points="155.143,-262.038 158.828,-252.104 149.753,-257.571 155.143,-262.038"/>
<g id="a_edge2&#45;headlabel"><a xlink:href="dir_000036_000040.html" target="_top" xlink:title="19">
<text text-anchor="middle" x="155.036" y="-264.117" font-family="Helvetica,sans-Serif" font-size="10.00">19</text>
</a>
</g>
</g>
<!-- dir_0a0aa297e888439a92fbcfd5e567f128&#45;&gt;dir_8f68c37b22d514b4289e3a1255795d80 -->
<g id="edge3" class="edge"><title>dir_0a0aa297e888439a92fbcfd5e567f128&#45;&gt;dir_8f68c37b22d514b4289e3a1255795d80</title>
<path fill="none" stroke="black" d="M116.603,-287.849C120.062,-250.832 128.254,-163.181 132.441,-118.386"/>
<polygon fill="black" stroke="black" points="135.944,-118.515 133.389,-108.232 128.974,-117.863 135.944,-118.515"/>
<g id="a_edge3&#45;headlabel"><a xlink:href="dir_000036_000037.html" target="_top" xlink:title="2">
<text text-anchor="middle" x="138.436" y="-119.858" font-family="Helvetica,sans-Serif" font-size="10.00">2</text>
</a>
</g>
</g>
<!-- dir_f1b881a94df93d2a183c4d8f47373448&#45;&gt;dir_0af1587c8378955de40f48b4bd1869f0 -->
<g id="edge10" class="edge"><title>dir_f1b881a94df93d2a183c4d8f47373448&#45;&gt;dir_0af1587c8378955de40f48b4bd1869f0</title>
<path fill="none" stroke="black" d="M243.059,-143.742C234.36,-125.414 219.561,-95.8554 204,-72 197.778,-62.4618 190.241,-52.5426 183.279,-43.9004"/>
<polygon fill="black" stroke="black" points="185.893,-41.568 176.842,-36.0601 180.483,-46.0099 185.893,-41.568"/>
<g id="a_edge10&#45;headlabel"><a xlink:href="dir_000016_000018.html" target="_top" xlink:title="111">
<text text-anchor="middle" x="190.368" y="-40.0445" font-family="Helvetica,sans-Serif" font-size="10.00">111</text>
</a>
</g>
</g>
<!-- dir_f1b881a94df93d2a183c4d8f47373448&#45;&gt;dir_c4f4646ab0f4a2967be5b6215a500c22 -->
<g id="edge11" class="edge"><title>dir_f1b881a94df93d2a183c4d8f47373448&#45;&gt;dir_c4f4646ab0f4a2967be5b6215a500c22</title>
<path fill="none" stroke="black" d="M237.836,-180.104C229.053,-188.805 217.291,-199.524 206.149,-209.033"/>
<polygon fill="black" stroke="black" points="203.613,-206.591 198.197,-215.697 208.109,-211.956 203.613,-206.591"/>
<g id="a_edge11&#45;headlabel"><a xlink:href="dir_000016_000040.html" target="_top" xlink:title="12">
<text text-anchor="middle" x="204.545" y="-199.606" font-family="Helvetica,sans-Serif" font-size="10.00">12</text>
</a>
</g>
</g>
<!-- dir_f1b881a94df93d2a183c4d8f47373448&#45;&gt;dir_8f68c37b22d514b4289e3a1255795d80 -->
<g id="edge12" class="edge"><title>dir_f1b881a94df93d2a183c4d8f47373448&#45;&gt;dir_8f68c37b22d514b4289e3a1255795d80</title>
<path fill="none" stroke="black" d="M222.623,-143.876C207.117,-134.519 187.748,-122.831 171.168,-112.825"/>
<polygon fill="black" stroke="black" points="172.655,-109.635 162.285,-107.465 169.039,-115.628 172.655,-109.635"/>
<g id="a_edge12&#45;headlabel"><a xlink:href="dir_000016_000037.html" target="_top" xlink:title="1">
<text text-anchor="middle" x="177.2" y="-106.561" font-family="Helvetica,sans-Serif" font-size="10.00">1</text>
</a>
</g>
</g>
<!-- dir_c4f4646ab0f4a2967be5b6215a500c22&#45;&gt;dir_0af1587c8378955de40f48b4bd1869f0 -->
<g id="edge13" class="edge"><title>dir_c4f4646ab0f4a2967be5b6215a500c22&#45;&gt;dir_0af1587c8378955de40f48b4bd1869f0</title>
<path fill="none" stroke="black" d="M173.67,-215.562C174.609,-185.971 175.715,-124.06 171,-72 170.231,-63.5037 168.863,-54.3178 167.423,-46.018"/>
<polygon fill="black" stroke="black" points="170.85,-45.2996 165.599,-36.0973 163.965,-46.5653 170.85,-45.2996"/>
<g id="a_edge13&#45;headlabel"><a xlink:href="dir_000040_000018.html" target="_top" xlink:title="47">
<text text-anchor="middle" x="174.292" y="-45.8217" font-family="Helvetica,sans-Serif" font-size="10.00">47</text>
</a>
</g>
</g>
<!-- dir_c4f4646ab0f4a2967be5b6215a500c22&#45;&gt;dir_f1b881a94df93d2a183c4d8f47373448 -->
<g id="edge14" class="edge"><title>dir_c4f4646ab0f4a2967be5b6215a500c22&#45;&gt;dir_f1b881a94df93d2a183c4d8f47373448</title>
<path fill="none" stroke="black" d="M186.365,-215.697C195.194,-206.965 206.973,-196.24 218.105,-186.75"/>
<polygon fill="black" stroke="black" points="220.624,-189.207 226.046,-180.104 216.131,-183.839 220.624,-189.207"/>
<g id="a_edge14&#45;headlabel"><a xlink:href="dir_000040_000016.html" target="_top" xlink:title="287">
<text text-anchor="middle" x="219.69" y="-191.191" font-family="Helvetica,sans-Serif" font-size="10.00">287</text>
</a>
</g>
</g>
<!-- dir_8f68c37b22d514b4289e3a1255795d80&#45;&gt;dir_0af1587c8378955de40f48b4bd1869f0 -->
<g id="edge15" class="edge"><title>dir_8f68c37b22d514b4289e3a1255795d80&#45;&gt;dir_0af1587c8378955de40f48b4bd1869f0</title>
<path fill="none" stroke="black" d="M141.674,-71.6966C144.715,-63.8132 148.383,-54.3042 151.761,-45.5464"/>
<polygon fill="black" stroke="black" points="155.069,-46.6939 155.403,-36.1043 148.538,-44.1748 155.069,-46.6939"/>
<g id="a_edge15&#45;headlabel"><a xlink:href="dir_000037_000018.html" target="_top" xlink:title="10">
<text text-anchor="middle" x="156.425" y="-48.5695" font-family="Helvetica,sans-Serif" font-size="10.00">10</text>
</a>
</g>
</g>
<!-- dir_8f68c37b22d514b4289e3a1255795d80&#45;&gt;dir_c4f4646ab0f4a2967be5b6215a500c22 -->
<g id="edge16" class="edge"><title>dir_8f68c37b22d514b4289e3a1255795d80&#45;&gt;dir_c4f4646ab0f4a2967be5b6215a500c22</title>
<path fill="none" stroke="black" d="M139.6,-108.189C146.114,-132.531 158.089,-177.28 165.79,-206.059"/>
<polygon fill="black" stroke="black" points="162.45,-207.116 168.416,-215.871 169.212,-205.307 162.45,-207.116"/>
<g id="a_edge16&#45;headlabel"><a xlink:href="dir_000037_000040.html" target="_top" xlink:title="1">
<text text-anchor="middle" x="158.778" y="-201.878" font-family="Helvetica,sans-Serif" font-size="10.00">1</text>
</a>
</g>
</g>
<!-- dir_f7cc278301683119f8719a92f4ffdd26&#45;&gt;dir_0af1587c8378955de40f48b4bd1869f0 -->
<g id="edge17" class="edge"><title>dir_f7cc278301683119f8719a92f4ffdd26&#45;&gt;dir_0af1587c8378955de40f48b4bd1869f0</title>
<path fill="none" stroke="black" d="M298.582,-287.812C304.078,-257.542 312.082,-193.266 293,-144 275.201,-98.0475 230.079,-61.5014 197.771,-40.0727"/>
<polygon fill="black" stroke="black" points="199.332,-36.9146 189.031,-34.4343 195.537,-42.7967 199.332,-36.9146"/>
<g id="a_edge17&#45;headlabel"><a xlink:href="dir_000011_000018.html" target="_top" xlink:title="13">
<text text-anchor="middle" x="203.892" y="-33.9774" font-family="Helvetica,sans-Serif" font-size="10.00">13</text>
</a>
</g>
</g>
<!-- dir_f7cc278301683119f8719a92f4ffdd26&#45;&gt;dir_f1b881a94df93d2a183c4d8f47373448 -->
<g id="edge18" class="edge"><title>dir_f7cc278301683119f8719a92f4ffdd26&#45;&gt;dir_f1b881a94df93d2a183c4d8f47373448</title>
<path fill="none" stroke="black" d="M289.693,-287.871C282.161,-263.564 268.296,-218.819 259.37,-190.013"/>
<polygon fill="black" stroke="black" points="262.629,-188.705 256.326,-180.189 255.943,-190.777 262.629,-188.705"/>
<g id="a_edge18&#45;headlabel"><a xlink:href="dir_000011_000016.html" target="_top" xlink:title="1">
<text text-anchor="middle" x="266.405" y="-188.799" font-family="Helvetica,sans-Serif" font-size="10.00">1</text>
</a>
</g>
</g>
<!-- dir_f7cc278301683119f8719a92f4ffdd26&#45;&gt;dir_c4f4646ab0f4a2967be5b6215a500c22 -->
<g id="edge19" class="edge"><title>dir_f7cc278301683119f8719a92f4ffdd26&#45;&gt;dir_c4f4646ab0f4a2967be5b6215a500c22</title>
<path fill="none" stroke="black" d="M265.155,-287.876C249.056,-278.639 228.999,-267.131 211.712,-257.212"/>
<polygon fill="black" stroke="black" points="213.375,-254.131 202.959,-252.19 209.891,-260.202 213.375,-254.131"/>
<g id="a_edge19&#45;headlabel"><a xlink:href="dir_000011_000040.html" target="_top" xlink:title="12">
<text text-anchor="middle" x="217.906" y="-250.957" font-family="Helvetica,sans-Serif" font-size="10.00">12</text>
</a>
</g>
</g>
</g>
</svg>
