<?xml version="1.0" encoding="UTF-8" standalone="no"?>
<!DOCTYPE svg PUBLIC "-//W3C//DTD SVG 1.1//EN"
 "http://www.w3.org/Graphics/SVG/1.1/DTD/svg11.dtd">
<!-- Generated by graphviz version 2.38.0 (20140413.2041)
 -->
<!-- Title: src/analysis/physics/scratch/wettig Pages: 1 -->
<svg width="122pt" height="223pt"
 viewBox="0.00 0.00 121.50 223.00" xmlns="http://www.w3.org/2000/svg" xmlns:xlink="http://www.w3.org/1999/xlink">
<g id="graph0" class="graph" transform="scale(1 1) rotate(0) translate(4 219)">
<title>src/analysis/physics/scratch/wettig</title>
<polygon fill="white" stroke="none" points="-4,4 -4,-219 117.5,-219 117.5,4 -4,4"/>
<g id="clust1" class="cluster"><title>clusterdir_15cb7383784026d829002226dc1288d7</title>
<g id="a_clust1"><a xlink:href="dir_15cb7383784026d829002226dc1288d7.html" target="_top" xlink:title="scratch">
<polygon fill="#ddddee" stroke="black" points="8,-136 8,-207 78,-207 78,-136 8,-136"/>
<text text-anchor="middle" x="43" y="-195" font-family="Helvetica,sans-Serif" font-size="10.00">scratch</text>
</a>
</g>
</g>
<!-- dir_0912667c704c31c26b609c11495d99fd -->
<g id="node1" class="node"><title>dir_0912667c704c31c26b609c11495d99fd</title>
<g id="a_node1"><a xlink:href="dir_0912667c704c31c26b609c11495d99fd.html" target="_top" xlink:title="wettig">
<polygon fill="#eeeeff" stroke="black" points="70,-180 16,-180 16,-144 70,-144 70,-180"/>
<text text-anchor="middle" x="43" y="-159.5" font-family="Helvetica,sans-Serif" font-size="10.00">wettig</text>
</a>
</g>
</g>
<!-- dir_0af1587c8378955de40f48b4bd1869f0 -->
<g id="node2" class="node"><title>dir_0af1587c8378955de40f48b4bd1869f0</title>
<g id="a_node2"><a xlink:href="dir_0af1587c8378955de40f48b4bd1869f0.html" target="_top" xlink:title="base">
<polygon fill="white" stroke="red" points="70,-36 16,-36 16,-0 70,-0 70,-36"/>
<text text-anchor="middle" x="43" y="-15.5" font-family="Helvetica,sans-Serif" font-size="10.00">base</text>
</a>
</g>
</g>
<!-- dir_0912667c704c31c26b609c11495d99fd&#45;&gt;dir_0af1587c8378955de40f48b4bd1869f0 -->
<g id="edge1" class="edge"><title>dir_0912667c704c31c26b609c11495d99fd&#45;&gt;dir_0af1587c8378955de40f48b4bd1869f0</title>
<path fill="none" stroke="black" d="M37.5912,-143.529C34.705,-133.289 31.455,-120.039 30,-108 28.0804,-92.1156 28.0804,-87.8844 30,-72 31.023,-63.5349 32.9335,-54.4712 34.9809,-46.2761"/>
<polygon fill="black" stroke="black" points="38.4009,-47.0344 37.5912,-36.4705 31.6365,-45.2336 38.4009,-47.0344"/>
<g id="a_edge1&#45;headlabel"><a xlink:href="dir_000032_000018.html" target="_top" xlink:title="2">
<text text-anchor="middle" x="40.22" y="-48.7384" font-family="Helvetica,sans-Serif" font-size="10.00">2</text>
</a>
</g>
</g>
<!-- dir_ebac6f698c8ed4b70faacb8ef35cbe0d -->
<g id="node3" class="node"><title>dir_ebac6f698c8ed4b70faacb8ef35cbe0d</title>
<g id="a_node3"><a xlink:href="dir_ebac6f698c8ed4b70faacb8ef35cbe0d.html" target="_top" xlink:title="root&#45;addons">
<polygon fill="white" stroke="red" points="113.5,-108 38.5,-108 38.5,-72 113.5,-72 113.5,-108"/>
<text text-anchor="middle" x="76" y="-87.5" font-family="Helvetica,sans-Serif" font-size="10.00">root&#45;addons</text>
</a>
</g>
</g>
<!-- dir_0912667c704c31c26b609c11495d99fd&#45;&gt;dir_ebac6f698c8ed4b70faacb8ef35cbe0d -->
<g id="edge2" class="edge"><title>dir_0912667c704c31c26b609c11495d99fd&#45;&gt;dir_ebac6f698c8ed4b70faacb8ef35cbe0d</title>
<path fill="none" stroke="black" d="M51.1573,-143.697C54.9138,-135.728 59.4531,-126.1 63.6183,-117.264"/>
<polygon fill="black" stroke="black" points="66.8381,-118.642 67.9365,-108.104 60.5064,-115.657 66.8381,-118.642"/>
<g id="a_edge2&#45;headlabel"><a xlink:href="dir_000032_000022.html" target="_top" xlink:title="1">
<text text-anchor="middle" x="67.8736" y="-120.604" font-family="Helvetica,sans-Serif" font-size="10.00">1</text>
</a>
</g>
</g>
<!-- dir_ebac6f698c8ed4b70faacb8ef35cbe0d&#45;&gt;dir_0af1587c8378955de40f48b4bd1869f0 -->
<g id="edge3" class="edge"><title>dir_ebac6f698c8ed4b70faacb8ef35cbe0d&#45;&gt;dir_0af1587c8378955de40f48b4bd1869f0</title>
<path fill="none" stroke="black" d="M67.8427,-71.6966C64.0862,-63.7284 59.5469,-54.0995 55.3817,-45.2641"/>
<polygon fill="black" stroke="black" points="58.4936,-43.6571 51.0635,-36.1043 52.1619,-46.6421 58.4936,-43.6571"/>
<g id="a_edge3&#45;headlabel"><a xlink:href="dir_000022_000018.html" target="_top" xlink:title="66">
<text text-anchor="middle" x="62.5945" y="-43.1978" font-family="Helvetica,sans-Serif" font-size="10.00">66</text>
</a>
</g>
</g>
</g>
</svg>
