<?xml version="1.0" encoding="UTF-8" standalone="no"?>
<!DOCTYPE svg PUBLIC "-//W3C//DTD SVG 1.1//EN"
 "http://www.w3.org/Graphics/SVG/1.1/DTD/svg11.dtd">
<!-- Generated by graphviz version 2.38.0 (20140413.2041)
 -->
<!-- Title: src/analysis/slowcontrol/variables Pages: 1 -->
<svg width="204pt" height="295pt"
 viewBox="0.00 0.00 203.52 295.00" xmlns="http://www.w3.org/2000/svg" xmlns:xlink="http://www.w3.org/1999/xlink">
<g id="graph0" class="graph" transform="scale(1 1) rotate(0) translate(4 291)">
<title>src/analysis/slowcontrol/variables</title>
<polygon fill="white" stroke="none" points="-4,4 -4,-291 199.52,-291 199.52,4 -4,4"/>
<g id="clust1" class="cluster"><title>clusterdir_f7cc278301683119f8719a92f4ffdd26</title>
<g id="a_clust1"><a xlink:href="dir_f7cc278301683119f8719a92f4ffdd26.html" target="_top" xlink:title="slowcontrol">
<polygon fill="#ddddee" stroke="black" points="86.5,-208 86.5,-279 162.5,-279 162.5,-208 86.5,-208"/>
<text text-anchor="middle" x="124.5" y="-267" font-family="Helvetica,sans-Serif" font-size="10.00">slowcontrol</text>
</a>
</g>
</g>
<!-- dir_97d7ae7e922b766f0c3724741ecf7645 -->
<g id="node1" class="node"><title>dir_97d7ae7e922b766f0c3724741ecf7645</title>
<g id="a_node1"><a xlink:href="dir_97d7ae7e922b766f0c3724741ecf7645.html" target="_top" xlink:title="variables">
<polygon fill="#eeeeff" stroke="black" points="154,-252 95,-252 95,-216 154,-216 154,-252"/>
<text text-anchor="middle" x="124.5" y="-231.5" font-family="Helvetica,sans-Serif" font-size="10.00">variables</text>
</a>
</g>
</g>
<!-- dir_4454ae6065d7630381486b11e7157943 -->
<g id="node2" class="node"><title>dir_4454ae6065d7630381486b11e7157943</title>
<g id="a_node2"><a xlink:href="dir_4454ae6065d7630381486b11e7157943.html" target="_top" xlink:title="processors">
<polygon fill="none" stroke="black" points="69,-180 0,-180 0,-144 69,-144 69,-180"/>
<text text-anchor="middle" x="34.5" y="-159.5" font-family="Helvetica,sans-Serif" font-size="10.00">processors</text>
</a>
</g>
</g>
<!-- dir_97d7ae7e922b766f0c3724741ecf7645&#45;&gt;dir_4454ae6065d7630381486b11e7157943 -->
<g id="edge4" class="edge"><title>dir_97d7ae7e922b766f0c3724741ecf7645&#45;&gt;dir_4454ae6065d7630381486b11e7157943</title>
<path fill="none" stroke="black" d="M102.253,-215.697C90.9181,-206.881 76.9698,-196.032 64.6811,-186.474"/>
<polygon fill="black" stroke="black" points="66.5336,-183.481 56.4913,-180.104 62.236,-189.007 66.5336,-183.481"/>
<g id="a_edge4&#45;headlabel"><a xlink:href="dir_000039_000038.html" target="_top" xlink:title="1">
<text text-anchor="middle" x="71.1142" y="-180.947" font-family="Helvetica,sans-Serif" font-size="10.00">1</text>
</a>
</g>
</g>
<!-- dir_0af1587c8378955de40f48b4bd1869f0 -->
<g id="node3" class="node"><title>dir_0af1587c8378955de40f48b4bd1869f0</title>
<g id="a_node3"><a xlink:href="dir_0af1587c8378955de40f48b4bd1869f0.html" target="_top" xlink:title="base">
<polygon fill="white" stroke="red" points="152.5,-36 98.5,-36 98.5,-0 152.5,-0 152.5,-36"/>
<text text-anchor="middle" x="125.5" y="-15.5" font-family="Helvetica,sans-Serif" font-size="10.00">base</text>
</a>
</g>
</g>
<!-- dir_97d7ae7e922b766f0c3724741ecf7645&#45;&gt;dir_0af1587c8378955de40f48b4bd1869f0 -->
<g id="edge5" class="edge"><title>dir_97d7ae7e922b766f0c3724741ecf7645&#45;&gt;dir_0af1587c8378955de40f48b4bd1869f0</title>
<path fill="none" stroke="black" d="M154.262,-216.602C167.332,-207.657 181.317,-195.274 188.5,-180 210.543,-133.125 174.236,-76.2825 148.232,-44.2141"/>
<polygon fill="black" stroke="black" points="150.658,-41.6592 141.557,-36.2353 145.289,-46.151 150.658,-41.6592"/>
<g id="a_edge5&#45;headlabel"><a xlink:href="dir_000039_000018.html" target="_top" xlink:title="10">
<text text-anchor="middle" x="155.142" y="-40.0942" font-family="Helvetica,sans-Serif" font-size="10.00">10</text>
</a>
</g>
</g>
<!-- dir_c4f4646ab0f4a2967be5b6215a500c22 -->
<g id="node4" class="node"><title>dir_c4f4646ab0f4a2967be5b6215a500c22</title>
<g id="a_node4"><a xlink:href="dir_c4f4646ab0f4a2967be5b6215a500c22.html" target="_top" xlink:title="expconfig">
<polygon fill="white" stroke="red" points="127.5,-108 65.5,-108 65.5,-72 127.5,-72 127.5,-108"/>
<text text-anchor="middle" x="96.5" y="-87.5" font-family="Helvetica,sans-Serif" font-size="10.00">expconfig</text>
</a>
</g>
</g>
<!-- dir_97d7ae7e922b766f0c3724741ecf7645&#45;&gt;dir_c4f4646ab0f4a2967be5b6215a500c22 -->
<g id="edge6" class="edge"><title>dir_97d7ae7e922b766f0c3724741ecf7645&#45;&gt;dir_c4f4646ab0f4a2967be5b6215a500c22</title>
<path fill="none" stroke="black" d="M121.123,-215.871C116.329,-191.564 107.507,-146.819 101.827,-118.013"/>
<polygon fill="black" stroke="black" points="105.258,-117.323 99.8894,-108.189 98.3902,-118.677 105.258,-117.323"/>
<g id="a_edge6&#45;headlabel"><a xlink:href="dir_000039_000040.html" target="_top" xlink:title="5">
<text text-anchor="middle" x="108.739" y="-117.801" font-family="Helvetica,sans-Serif" font-size="10.00">5</text>
</a>
</g>
</g>
<!-- dir_4d4314fec0337faafb4fd99dc7917bfa -->
<g id="node5" class="node"><title>dir_4d4314fec0337faafb4fd99dc7917bfa</title>
<g id="a_node5"><a xlink:href="dir_4d4314fec0337faafb4fd99dc7917bfa.html" target="_top" xlink:title="input">
<polygon fill="white" stroke="red" points="179.5,-180 125.5,-180 125.5,-144 179.5,-144 179.5,-180"/>
<text text-anchor="middle" x="152.5" y="-159.5" font-family="Helvetica,sans-Serif" font-size="10.00">input</text>
</a>
</g>
</g>
<!-- dir_97d7ae7e922b766f0c3724741ecf7645&#45;&gt;dir_4d4314fec0337faafb4fd99dc7917bfa -->
<g id="edge7" class="edge"><title>dir_97d7ae7e922b766f0c3724741ecf7645&#45;&gt;dir_4d4314fec0337faafb4fd99dc7917bfa</title>
<path fill="none" stroke="black" d="M131.421,-215.697C134.575,-207.813 138.378,-198.304 141.881,-189.546"/>
<polygon fill="black" stroke="black" points="145.194,-190.689 145.658,-180.104 138.695,-188.089 145.194,-190.689"/>
<g id="a_edge7&#45;headlabel"><a xlink:href="dir_000039_000009.html" target="_top" xlink:title="1">
<text text-anchor="middle" x="146.495" y="-192.581" font-family="Helvetica,sans-Serif" font-size="10.00">1</text>
</a>
</g>
</g>
<!-- dir_4454ae6065d7630381486b11e7157943&#45;&gt;dir_0af1587c8378955de40f48b4bd1869f0 -->
<g id="edge1" class="edge"><title>dir_4454ae6065d7630381486b11e7157943&#45;&gt;dir_0af1587c8378955de40f48b4bd1869f0</title>
<path fill="none" stroke="black" d="M35.3843,-143.934C37.0832,-124.971 42.0411,-94.1139 56.5,-72 64.9625,-59.0571 77.6913,-47.9902 89.9208,-39.3686"/>
<polygon fill="black" stroke="black" points="91.8833,-42.2667 98.2491,-33.7975 87.9912,-36.4485 91.8833,-42.2667"/>
<g id="a_edge1&#45;headlabel"><a xlink:href="dir_000038_000018.html" target="_top" xlink:title="2">
<text text-anchor="middle" x="90.4742" y="-44.1253" font-family="Helvetica,sans-Serif" font-size="10.00">2</text>
</a>
</g>
</g>
<!-- dir_4454ae6065d7630381486b11e7157943&#45;&gt;dir_c4f4646ab0f4a2967be5b6215a500c22 -->
<g id="edge2" class="edge"><title>dir_4454ae6065d7630381486b11e7157943&#45;&gt;dir_c4f4646ab0f4a2967be5b6215a500c22</title>
<path fill="none" stroke="black" d="M49.8258,-143.697C57.2588,-135.305 66.3233,-125.07 74.48,-115.861"/>
<polygon fill="black" stroke="black" points="77.3401,-117.911 81.3504,-108.104 72.1,-113.27 77.3401,-117.911"/>
<g id="a_edge2&#45;headlabel"><a xlink:href="dir_000038_000040.html" target="_top" xlink:title="7">
<text text-anchor="middle" x="77.0822" y="-119.984" font-family="Helvetica,sans-Serif" font-size="10.00">7</text>
</a>
</g>
</g>
<!-- dir_c4f4646ab0f4a2967be5b6215a500c22&#45;&gt;dir_0af1587c8378955de40f48b4bd1869f0 -->
<g id="edge3" class="edge"><title>dir_c4f4646ab0f4a2967be5b6215a500c22&#45;&gt;dir_0af1587c8378955de40f48b4bd1869f0</title>
<path fill="none" stroke="black" d="M103.669,-71.6966C106.935,-63.8132 110.874,-54.3042 114.502,-45.5464"/>
<polygon fill="black" stroke="black" points="117.82,-46.6825 118.414,-36.1043 111.353,-44.0033 117.82,-46.6825"/>
<g id="a_edge3&#45;headlabel"><a xlink:href="dir_000040_000018.html" target="_top" xlink:title="47">
<text text-anchor="middle" x="119.067" y="-48.5901" font-family="Helvetica,sans-Serif" font-size="10.00">47</text>
</a>
</g>
</g>
<!-- dir_4d4314fec0337faafb4fd99dc7917bfa&#45;&gt;dir_0af1587c8378955de40f48b4bd1869f0 -->
<g id="edge8" class="edge"><title>dir_4d4314fec0337faafb4fd99dc7917bfa&#45;&gt;dir_0af1587c8378955de40f48b4bd1869f0</title>
<path fill="none" stroke="black" d="M149.568,-143.913C146.458,-125.977 141.335,-96.9688 136.5,-72 134.867,-63.5667 132.998,-54.3989 131.269,-46.0961"/>
<polygon fill="black" stroke="black" points="134.664,-45.2297 129.183,-36.1624 127.813,-46.6683 134.664,-45.2297"/>
<g id="a_edge8&#45;headlabel"><a xlink:href="dir_000009_000018.html" target="_top" xlink:title="17">
<text text-anchor="middle" x="138.181" y="-45.6641" font-family="Helvetica,sans-Serif" font-size="10.00">17</text>
</a>
</g>
</g>
<!-- dir_4d4314fec0337faafb4fd99dc7917bfa&#45;&gt;dir_c4f4646ab0f4a2967be5b6215a500c22 -->
<g id="edge9" class="edge"><title>dir_4d4314fec0337faafb4fd99dc7917bfa&#45;&gt;dir_c4f4646ab0f4a2967be5b6215a500c22</title>
<path fill="none" stroke="black" d="M138.657,-143.697C132.011,-135.389 123.922,-125.277 116.613,-116.141"/>
<polygon fill="black" stroke="black" points="119.164,-113.727 110.183,-108.104 113.697,-118.099 119.164,-113.727"/>
<g id="a_edge9&#45;headlabel"><a xlink:href="dir_000009_000040.html" target="_top" xlink:title="3">
<text text-anchor="middle" x="123.626" y="-112.26" font-family="Helvetica,sans-Serif" font-size="10.00">3</text>
</a>
</g>
</g>
</g>
</svg>
