<?xml version="1.0" encoding="UTF-8" standalone="no"?>
<!DOCTYPE svg PUBLIC "-//W3C//DTD SVG 1.1//EN"
 "http://www.w3.org/Graphics/SVG/1.1/DTD/svg11.dtd">
<!-- Generated by graphviz version 2.38.0 (20140413.2041)
 -->
<!-- Title: src/analysis/utils Pages: 1 -->
<svg width="313pt" height="375pt"
 viewBox="0.00 0.00 313.45 375.00" xmlns="http://www.w3.org/2000/svg" xmlns:xlink="http://www.w3.org/1999/xlink">
<g id="graph0" class="graph" transform="scale(1 1) rotate(0) translate(4 371)">
<title>src/analysis/utils</title>
<polygon fill="white" stroke="none" points="-4,4 -4,-371 309.449,-371 309.449,4 -4,4"/>
<g id="clust1" class="cluster"><title>clusterdir_2eec376824a17f48dc36b4bd0c810e01</title>
<g id="a_clust1"><a xlink:href="dir_2eec376824a17f48dc36b4bd0c810e01.html" target="_top" xlink:title="analysis">
<polygon fill="#ddddee" stroke="black" points="8,-200 8,-359 191,-359 191,-200 8,-200"/>
<text text-anchor="middle" x="99.5" y="-347" font-family="Helvetica,sans-Serif" font-size="10.00">analysis</text>
</a>
</g>
</g>
<g id="clust2" class="cluster"><title>clusterdir_0a0aa297e888439a92fbcfd5e567f128</title>
<g id="a_clust2"><a xlink:href="dir_0a0aa297e888439a92fbcfd5e567f128.html" target="_top">
<polygon fill="#eeeeff" stroke="black" points="16,-208 16,-332 183,-332 183,-208 16,-208"/>
</a>
</g>
</g>
<!-- dir_0a0aa297e888439a92fbcfd5e567f128 -->
<g id="node1" class="node"><title>dir_0a0aa297e888439a92fbcfd5e567f128</title>
<text text-anchor="middle" x="51" y="-303.5" font-family="Helvetica,sans-Serif" font-size="10.00">utils</text>
</g>
<!-- dir_ee22f567f4fcc06e1b310db0dd9c5c54 -->
<g id="node2" class="node"><title>dir_ee22f567f4fcc06e1b310db0dd9c5c54</title>
<g id="a_node2"><a xlink:href="dir_ee22f567f4fcc06e1b310db0dd9c5c54.html" target="_top" xlink:title="fitter">
<polygon fill="white" stroke="black" points="163,-252 109,-252 109,-216 163,-216 163,-252"/>
<text text-anchor="middle" x="136" y="-231.5" font-family="Helvetica,sans-Serif" font-size="10.00">fitter</text>
</a>
</g>
</g>
<!-- dir_0a0aa297e888439a92fbcfd5e567f128&#45;&gt;dir_ee22f567f4fcc06e1b310db0dd9c5c54 -->
<g id="edge2" class="edge"><title>dir_0a0aa297e888439a92fbcfd5e567f128&#45;&gt;dir_ee22f567f4fcc06e1b310db0dd9c5c54</title>
<path fill="none" stroke="black" d="M72.0112,-287.697C82.7163,-278.881 95.8897,-268.032 107.496,-258.474"/>
<polygon fill="black" stroke="black" points="109.736,-261.163 115.23,-252.104 105.286,-255.76 109.736,-261.163"/>
<g id="a_edge2&#45;headlabel"><a xlink:href="dir_000036_000042.html" target="_top" xlink:title="1">
<text text-anchor="middle" x="108.766" y="-263.14" font-family="Helvetica,sans-Serif" font-size="10.00">1</text>
</a>
</g>
</g>
<!-- dir_8f68c37b22d514b4289e3a1255795d80 -->
<g id="node7" class="node"><title>dir_8f68c37b22d514b4289e3a1255795d80</title>
<g id="a_node7"><a xlink:href="dir_8f68c37b22d514b4289e3a1255795d80.html" target="_top" xlink:title="plot">
<polygon fill="none" stroke="black" points="253,-252 199,-252 199,-216 253,-216 253,-252"/>
<text text-anchor="middle" x="226" y="-231.5" font-family="Helvetica,sans-Serif" font-size="10.00">plot</text>
</a>
</g>
</g>
<!-- dir_0a0aa297e888439a92fbcfd5e567f128&#45;&gt;dir_8f68c37b22d514b4289e3a1255795d80 -->
<g id="edge1" class="edge"><title>dir_0a0aa297e888439a92fbcfd5e567f128&#45;&gt;dir_8f68c37b22d514b4289e3a1255795d80</title>
<path fill="none" stroke="black" d="M78.0024,-291.91C81.0198,-290.548 84.0634,-289.219 87,-288 130.629,-269.894 143.103,-269.447 187,-252 187.841,-251.666 188.69,-251.325 189.546,-250.978"/>
<polygon fill="black" stroke="black" points="190.933,-254.192 198.82,-247.118 188.243,-247.729 190.933,-254.192"/>
<g id="a_edge1&#45;headlabel"><a xlink:href="dir_000036_000037.html" target="_top" xlink:title="2">
<text text-anchor="middle" x="188.705" y="-255.694" font-family="Helvetica,sans-Serif" font-size="10.00">2</text>
</a>
</g>
</g>
<!-- dir_0af1587c8378955de40f48b4bd1869f0 -->
<g id="node4" class="node"><title>dir_0af1587c8378955de40f48b4bd1869f0</title>
<g id="a_node4"><a xlink:href="dir_0af1587c8378955de40f48b4bd1869f0.html" target="_top" xlink:title="base">
<polygon fill="white" stroke="red" points="266,-36 212,-36 212,-0 266,-0 266,-36"/>
<text text-anchor="middle" x="239" y="-15.5" font-family="Helvetica,sans-Serif" font-size="10.00">base</text>
</a>
</g>
</g>
<!-- dir_ee22f567f4fcc06e1b310db0dd9c5c54&#45;&gt;dir_0af1587c8378955de40f48b4bd1869f0 -->
<g id="edge10" class="edge"><title>dir_ee22f567f4fcc06e1b310db0dd9c5c54&#45;&gt;dir_0af1587c8378955de40f48b4bd1869f0</title>
<path fill="none" stroke="black" d="M132.438,-215.911C126.905,-184.671 119.613,-117.389 148,-72 160.33,-52.2848 182.871,-39.0774 202.432,-30.7776"/>
<polygon fill="black" stroke="black" points="203.731,-34.028 211.738,-27.0904 201.152,-27.5202 203.731,-34.028"/>
<g id="a_edge10&#45;headlabel"><a xlink:href="dir_000042_000018.html" target="_top" xlink:title="10">
<text text-anchor="middle" x="201.435" y="-35.4917" font-family="Helvetica,sans-Serif" font-size="10.00">10</text>
</a>
</g>
</g>
<!-- dir_c44c95bf3b41c3321c6014770d618ac8 -->
<g id="node5" class="node"><title>dir_c44c95bf3b41c3321c6014770d618ac8</title>
<g id="a_node5"><a xlink:href="dir_c44c95bf3b41c3321c6014770d618ac8.html" target="_top" xlink:title="tree">
<polygon fill="none" stroke="black" points="211,-108 157,-108 157,-72 211,-72 211,-108"/>
<text text-anchor="middle" x="184" y="-87.5" font-family="Helvetica,sans-Serif" font-size="10.00">tree</text>
</a>
</g>
</g>
<!-- dir_ee22f567f4fcc06e1b310db0dd9c5c54&#45;&gt;dir_c44c95bf3b41c3321c6014770d618ac8 -->
<g id="edge11" class="edge"><title>dir_ee22f567f4fcc06e1b310db0dd9c5c54&#45;&gt;dir_c44c95bf3b41c3321c6014770d618ac8</title>
<path fill="none" stroke="black" d="M141.79,-215.871C150.007,-191.564 165.132,-146.819 174.869,-118.013"/>
<polygon fill="black" stroke="black" points="178.303,-118.783 178.19,-108.189 171.672,-116.542 178.303,-118.783"/>
<g id="a_edge11&#45;headlabel"><a xlink:href="dir_000042_000061.html" target="_top" xlink:title="1">
<text text-anchor="middle" x="179.842" y="-120.598" font-family="Helvetica,sans-Serif" font-size="10.00">1</text>
</a>
</g>
</g>
<!-- dir_c4f4646ab0f4a2967be5b6215a500c22 -->
<g id="node6" class="node"><title>dir_c4f4646ab0f4a2967be5b6215a500c22</title>
<g id="a_node6"><a xlink:href="dir_c4f4646ab0f4a2967be5b6215a500c22.html" target="_top" xlink:title="expconfig">
<polygon fill="white" stroke="red" points="253,-180 191,-180 191,-144 253,-144 253,-180"/>
<text text-anchor="middle" x="222" y="-159.5" font-family="Helvetica,sans-Serif" font-size="10.00">expconfig</text>
</a>
</g>
</g>
<!-- dir_ee22f567f4fcc06e1b310db0dd9c5c54&#45;&gt;dir_c4f4646ab0f4a2967be5b6215a500c22 -->
<g id="edge12" class="edge"><title>dir_ee22f567f4fcc06e1b310db0dd9c5c54&#45;&gt;dir_c4f4646ab0f4a2967be5b6215a500c22</title>
<path fill="none" stroke="black" d="M157.258,-215.697C168.089,-206.881 181.418,-196.032 193.16,-186.474"/>
<polygon fill="black" stroke="black" points="195.44,-189.132 200.986,-180.104 191.021,-183.703 195.44,-189.132"/>
<g id="a_edge12&#45;headlabel"><a xlink:href="dir_000042_000040.html" target="_top" xlink:title="3">
<text text-anchor="middle" x="194.444" y="-191.103" font-family="Helvetica,sans-Serif" font-size="10.00">3</text>
</a>
</g>
</g>
<!-- dir_50df10fe516cd8e46a541517311404f2 -->
<g id="node3" class="node"><title>dir_50df10fe516cd8e46a541517311404f2</title>
<g id="a_node3"><a xlink:href="dir_50df10fe516cd8e46a541517311404f2.html" target="_top" xlink:title="uncertainties">
<polygon fill="white" stroke="black" points="175.5,-324 96.5,-324 96.5,-288 175.5,-288 175.5,-324"/>
<text text-anchor="middle" x="136" y="-303.5" font-family="Helvetica,sans-Serif" font-size="10.00">uncertainties</text>
</a>
</g>
</g>
<!-- dir_50df10fe516cd8e46a541517311404f2&#45;&gt;dir_0af1587c8378955de40f48b4bd1869f0 -->
<g id="edge8" class="edge"><title>dir_50df10fe516cd8e46a541517311404f2&#45;&gt;dir_0af1587c8378955de40f48b4bd1869f0</title>
<path fill="none" stroke="black" d="M175.518,-302.444C209.494,-297.912 256.606,-285.539 280,-252 325.786,-186.36 300.111,-147.989 275,-72 271.788,-62.28 266.233,-52.699 260.434,-44.4133"/>
<polygon fill="black" stroke="black" points="263.171,-42.2274 254.392,-36.296 257.556,-46.4074 263.171,-42.2274"/>
<g id="a_edge8&#45;headlabel"><a xlink:href="dir_000043_000018.html" target="_top" xlink:title="14">
<text text-anchor="middle" x="267.594" y="-40.9154" font-family="Helvetica,sans-Serif" font-size="10.00">14</text>
</a>
</g>
</g>
<!-- dir_50df10fe516cd8e46a541517311404f2&#45;&gt;dir_c4f4646ab0f4a2967be5b6215a500c22 -->
<g id="edge9" class="edge"><title>dir_50df10fe516cd8e46a541517311404f2&#45;&gt;dir_c4f4646ab0f4a2967be5b6215a500c22</title>
<path fill="none" stroke="black" d="M175.785,-299.915C205.067,-293.86 242.961,-280.664 262,-252 274.787,-232.749 271.258,-221.176 262,-200 260.02,-195.471 257.182,-191.25 253.918,-187.399"/>
<polygon fill="black" stroke="black" points="256.241,-184.767 246.761,-180.035 251.221,-189.645 256.241,-184.767"/>
<g id="a_edge9&#45;headlabel"><a xlink:href="dir_000043_000040.html" target="_top" xlink:title="7">
<text text-anchor="middle" x="260.782" y="-182.865" font-family="Helvetica,sans-Serif" font-size="10.00">7</text>
</a>
</g>
</g>
<!-- dir_c44c95bf3b41c3321c6014770d618ac8&#45;&gt;dir_0af1587c8378955de40f48b4bd1869f0 -->
<g id="edge3" class="edge"><title>dir_c44c95bf3b41c3321c6014770d618ac8&#45;&gt;dir_0af1587c8378955de40f48b4bd1869f0</title>
<path fill="none" stroke="black" d="M197.596,-71.6966C204.123,-63.3893 212.068,-53.2771 219.247,-44.1407"/>
<polygon fill="black" stroke="black" points="222.135,-46.1299 225.561,-36.1043 216.631,-41.8051 222.135,-46.1299"/>
<g id="a_edge3&#45;headlabel"><a xlink:href="dir_000061_000018.html" target="_top" xlink:title="25">
<text text-anchor="middle" x="222.147" y="-48.2106" font-family="Helvetica,sans-Serif" font-size="10.00">25</text>
</a>
</g>
</g>
<!-- dir_c4f4646ab0f4a2967be5b6215a500c22&#45;&gt;dir_0af1587c8378955de40f48b4bd1869f0 -->
<g id="edge4" class="edge"><title>dir_c4f4646ab0f4a2967be5b6215a500c22&#45;&gt;dir_0af1587c8378955de40f48b4bd1869f0</title>
<path fill="none" stroke="black" d="M224.051,-143.871C226.948,-119.67 232.271,-75.2108 235.721,-46.3932"/>
<polygon fill="black" stroke="black" points="239.229,-46.5344 236.942,-36.1893 232.278,-45.7023 239.229,-46.5344"/>
<g id="a_edge4&#45;headlabel"><a xlink:href="dir_000040_000018.html" target="_top" xlink:title="47">
<text text-anchor="middle" x="241.62" y="-47.941" font-family="Helvetica,sans-Serif" font-size="10.00">47</text>
</a>
</g>
</g>
<!-- dir_c4f4646ab0f4a2967be5b6215a500c22&#45;&gt;dir_c44c95bf3b41c3321c6014770d618ac8 -->
<g id="edge5" class="edge"><title>dir_c4f4646ab0f4a2967be5b6215a500c22&#45;&gt;dir_c44c95bf3b41c3321c6014770d618ac8</title>
<path fill="none" stroke="black" d="M212.607,-143.697C208.235,-135.644 202.943,-125.894 198.105,-116.982"/>
<polygon fill="black" stroke="black" points="201.132,-115.223 193.285,-108.104 194.98,-118.563 201.132,-115.223"/>
<g id="a_edge5&#45;headlabel"><a xlink:href="dir_000040_000061.html" target="_top" xlink:title="10">
<text text-anchor="middle" x="205.342" y="-114.528" font-family="Helvetica,sans-Serif" font-size="10.00">10</text>
</a>
</g>
</g>
<!-- dir_8f68c37b22d514b4289e3a1255795d80&#45;&gt;dir_0af1587c8378955de40f48b4bd1869f0 -->
<g id="edge6" class="edge"><title>dir_8f68c37b22d514b4289e3a1255795d80&#45;&gt;dir_0af1587c8378955de40f48b4bd1869f0</title>
<path fill="none" stroke="black" d="M241.61,-215.774C249.373,-206.03 257.946,-193.184 262,-180 276.078,-134.217 261.399,-78.4135 249.893,-45.9736"/>
<polygon fill="black" stroke="black" points="253.066,-44.4647 246.309,-36.3045 246.502,-46.8975 253.066,-44.4647"/>
<g id="a_edge6&#45;headlabel"><a xlink:href="dir_000037_000018.html" target="_top" xlink:title="10">
<text text-anchor="middle" x="256.978" y="-44.3485" font-family="Helvetica,sans-Serif" font-size="10.00">10</text>
</a>
</g>
</g>
<!-- dir_8f68c37b22d514b4289e3a1255795d80&#45;&gt;dir_c4f4646ab0f4a2967be5b6215a500c22 -->
<g id="edge7" class="edge"><title>dir_8f68c37b22d514b4289e3a1255795d80&#45;&gt;dir_c4f4646ab0f4a2967be5b6215a500c22</title>
<path fill="none" stroke="black" d="M225.011,-215.697C224.57,-207.983 224.041,-198.712 223.549,-190.112"/>
<polygon fill="black" stroke="black" points="227.042,-189.888 222.977,-180.104 220.054,-190.288 227.042,-189.888"/>
<g id="a_edge7&#45;headlabel"><a xlink:href="dir_000037_000040.html" target="_top" xlink:title="1">
<text text-anchor="middle" x="230.082" y="-190.815" font-family="Helvetica,sans-Serif" font-size="10.00">1</text>
</a>
</g>
</g>
</g>
</svg>
