<?xml version="1.0" encoding="UTF-8" standalone="no"?>
<!DOCTYPE svg PUBLIC "-//W3C//DTD SVG 1.1//EN"
 "http://www.w3.org/Graphics/SVG/1.1/DTD/svg11.dtd">
<!-- Generated by graphviz version 2.38.0 (20140413.2041)
 -->
<!-- Title: src/expconfig/detectors Pages: 1 -->
<svg width="332pt" height="303pt"
 viewBox="0.00 0.00 331.50 303.00" xmlns="http://www.w3.org/2000/svg" xmlns:xlink="http://www.w3.org/1999/xlink">
<g id="graph0" class="graph" transform="scale(1 1) rotate(0) translate(4 299)">
<title>src/expconfig/detectors</title>
<polygon fill="white" stroke="none" points="-4,4 -4,-299 327.5,-299 327.5,4 -4,4"/>
<g id="clust1" class="cluster"><title>clusterdir_c4f4646ab0f4a2967be5b6215a500c22</title>
<g id="a_clust1"><a xlink:href="dir_c4f4646ab0f4a2967be5b6215a500c22.html" target="_top" xlink:title="expconfig">
<polygon fill="#ddddee" stroke="black" points="8,-128 8,-287 102,-287 102,-128 8,-128"/>
<text text-anchor="middle" x="55" y="-275" font-family="Helvetica,sans-Serif" font-size="10.00">expconfig</text>
</a>
</g>
</g>
<g id="clust2" class="cluster"><title>clusterdir_f0b5461fe6d76f238177302312df4359</title>
<g id="a_clust2"><a xlink:href="dir_f0b5461fe6d76f238177302312df4359.html" target="_top">
<polygon fill="#eeeeff" stroke="black" points="16,-136 16,-260 94,-260 94,-136 16,-136"/>
</a>
</g>
</g>
<!-- dir_f0b5461fe6d76f238177302312df4359 -->
<g id="node1" class="node"><title>dir_f0b5461fe6d76f238177302312df4359</title>
<text text-anchor="middle" x="55" y="-231.5" font-family="Helvetica,sans-Serif" font-size="10.00">detectors</text>
</g>
<!-- dir_acf476544cbdcf3c3983a909a511b60e -->
<g id="node2" class="node"><title>dir_acf476544cbdcf3c3983a909a511b60e</title>
<g id="a_node2"><a xlink:href="dir_acf476544cbdcf3c3983a909a511b60e.html" target="_top" xlink:title="detail">
<polygon fill="white" stroke="black" points="78,-180 24,-180 24,-144 78,-144 78,-180"/>
<text text-anchor="middle" x="51" y="-159.5" font-family="Helvetica,sans-Serif" font-size="10.00">detail</text>
</a>
</g>
</g>
<!-- dir_f0b5461fe6d76f238177302312df4359&#45;&gt;dir_acf476544cbdcf3c3983a909a511b60e -->
<g id="edge3" class="edge"><title>dir_f0b5461fe6d76f238177302312df4359&#45;&gt;dir_acf476544cbdcf3c3983a909a511b60e</title>
<path fill="none" stroke="black" d="M54.0112,-215.697C53.5704,-207.983 53.0407,-198.712 52.5493,-190.112"/>
<polygon fill="black" stroke="black" points="56.0423,-189.888 51.9774,-180.104 49.0537,-190.288 56.0423,-189.888"/>
<g id="a_edge3&#45;headlabel"><a xlink:href="dir_000041_000050.html" target="_top" xlink:title="32">
<text text-anchor="middle" x="59.0819" y="-190.815" font-family="Helvetica,sans-Serif" font-size="10.00">32</text>
</a>
</g>
</g>
<!-- dir_0af1587c8378955de40f48b4bd1869f0 -->
<g id="node3" class="node"><title>dir_0af1587c8378955de40f48b4bd1869f0</title>
<g id="a_node3"><a xlink:href="dir_0af1587c8378955de40f48b4bd1869f0.html" target="_top" xlink:title="base">
<polygon fill="white" stroke="red" points="221,-36 167,-36 167,-0 221,-0 221,-36"/>
<text text-anchor="middle" x="194" y="-15.5" font-family="Helvetica,sans-Serif" font-size="10.00">base</text>
</a>
</g>
</g>
<!-- dir_f0b5461fe6d76f238177302312df4359&#45;&gt;dir_0af1587c8378955de40f48b4bd1869f0 -->
<g id="edge1" class="edge"><title>dir_f0b5461fe6d76f238177302312df4359&#45;&gt;dir_0af1587c8378955de40f48b4bd1869f0</title>
<path fill="none" stroke="black" d="M66.14,-215.849C90.4891,-178.362 148.566,-88.9491 177.305,-44.7025"/>
<polygon fill="black" stroke="black" points="180.295,-46.5252 182.807,-36.2325 174.425,-42.7122 180.295,-46.5252"/>
<g id="a_edge1&#45;headlabel"><a xlink:href="dir_000041_000018.html" target="_top" xlink:title="11">
<text text-anchor="middle" x="180.718" y="-48.5863" font-family="Helvetica,sans-Serif" font-size="10.00">11</text>
</a>
</g>
</g>
<!-- dir_c44c95bf3b41c3321c6014770d618ac8 -->
<g id="node4" class="node"><title>dir_c44c95bf3b41c3321c6014770d618ac8</title>
<g id="a_node4"><a xlink:href="dir_c44c95bf3b41c3321c6014770d618ac8.html" target="_top" xlink:title="tree">
<polygon fill="none" stroke="black" points="250,-108 196,-108 196,-72 250,-72 250,-108"/>
<text text-anchor="middle" x="223" y="-87.5" font-family="Helvetica,sans-Serif" font-size="10.00">tree</text>
</a>
</g>
</g>
<!-- dir_f0b5461fe6d76f238177302312df4359&#45;&gt;dir_c44c95bf3b41c3321c6014770d618ac8 -->
<g id="edge2" class="edge"><title>dir_f0b5461fe6d76f238177302312df4359&#45;&gt;dir_c44c95bf3b41c3321c6014770d618ac8</title>
<path fill="none" stroke="black" d="M86.1597,-230.663C120.227,-226.384 173.958,-214.274 204,-180 218.762,-163.158 223.002,-137.68 223.846,-118.294"/>
<polygon fill="black" stroke="black" points="227.346,-118.3 224.01,-108.244 220.347,-118.185 227.346,-118.3"/>
<g id="a_edge2&#45;headlabel"><a xlink:href="dir_000041_000061.html" target="_top" xlink:title="8">
<text text-anchor="middle" x="230.126" y="-119.44" font-family="Helvetica,sans-Serif" font-size="10.00">8</text>
</a>
</g>
</g>
<!-- dir_da9e88029a658bab9ad39bb8696ef9bc -->
<g id="node5" class="node"><title>dir_da9e88029a658bab9ad39bb8696ef9bc</title>
<g id="a_node5"><a xlink:href="dir_da9e88029a658bab9ad39bb8696ef9bc.html" target="_top" xlink:title="unpacker">
<polygon fill="white" stroke="red" points="195.5,-180 134.5,-180 134.5,-144 195.5,-144 195.5,-180"/>
<text text-anchor="middle" x="165" y="-159.5" font-family="Helvetica,sans-Serif" font-size="10.00">unpacker</text>
</a>
</g>
</g>
<!-- dir_f0b5461fe6d76f238177302312df4359&#45;&gt;dir_da9e88029a658bab9ad39bb8696ef9bc -->
<g id="edge4" class="edge"><title>dir_f0b5461fe6d76f238177302312df4359&#45;&gt;dir_da9e88029a658bab9ad39bb8696ef9bc</title>
<path fill="none" stroke="black" d="M81.909,-215.876C96.1584,-206.808 113.846,-195.552 129.236,-185.759"/>
<polygon fill="black" stroke="black" points="131.43,-188.511 137.988,-180.19 127.672,-182.606 131.43,-188.511"/>
<g id="a_edge4&#45;headlabel"><a xlink:href="dir_000041_000062.html" target="_top" xlink:title="8">
<text text-anchor="middle" x="129.922" y="-190.337" font-family="Helvetica,sans-Serif" font-size="10.00">8</text>
</a>
</g>
</g>
<!-- dir_5eb03804bf445589bf35c6aa84fb9a34 -->
<g id="node6" class="node"><title>dir_5eb03804bf445589bf35c6aa84fb9a34</title>
<g id="a_node6"><a xlink:href="dir_5eb03804bf445589bf35c6aa84fb9a34.html" target="_top" xlink:title="reconstruct">
<polygon fill="white" stroke="red" points="323.5,-180 252.5,-180 252.5,-144 323.5,-144 323.5,-180"/>
<text text-anchor="middle" x="288" y="-159.5" font-family="Helvetica,sans-Serif" font-size="10.00">reconstruct</text>
</a>
</g>
</g>
<!-- dir_f0b5461fe6d76f238177302312df4359&#45;&gt;dir_5eb03804bf445589bf35c6aa84fb9a34 -->
<g id="edge5" class="edge"><title>dir_f0b5461fe6d76f238177302312df4359&#45;&gt;dir_5eb03804bf445589bf35c6aa84fb9a34</title>
<path fill="none" stroke="black" d="M86.1204,-222.541C121.124,-212.197 179.148,-195.685 229,-180 233.466,-178.595 238.139,-177.074 242.832,-175.539"/>
<polygon fill="black" stroke="black" points="244.011,-178.836 252.429,-172.403 241.836,-172.183 244.011,-178.836"/>
<g id="a_edge5&#45;headlabel"><a xlink:href="dir_000041_000057.html" target="_top" xlink:title="1">
<text text-anchor="middle" x="241.476" y="-180.152" font-family="Helvetica,sans-Serif" font-size="10.00">1</text>
</a>
</g>
</g>
<!-- dir_c44c95bf3b41c3321c6014770d618ac8&#45;&gt;dir_0af1587c8378955de40f48b4bd1869f0 -->
<g id="edge6" class="edge"><title>dir_c44c95bf3b41c3321c6014770d618ac8&#45;&gt;dir_0af1587c8378955de40f48b4bd1869f0</title>
<path fill="none" stroke="black" d="M215.831,-71.6966C212.565,-63.8132 208.626,-54.3042 204.998,-45.5464"/>
<polygon fill="black" stroke="black" points="208.147,-44.0033 201.086,-36.1043 201.68,-46.6825 208.147,-44.0033"/>
<g id="a_edge6&#45;headlabel"><a xlink:href="dir_000061_000018.html" target="_top" xlink:title="25">
<text text-anchor="middle" x="212.146" y="-43.7375" font-family="Helvetica,sans-Serif" font-size="10.00">25</text>
</a>
</g>
</g>
<!-- dir_da9e88029a658bab9ad39bb8696ef9bc&#45;&gt;dir_0af1587c8378955de40f48b4bd1869f0 -->
<g id="edge7" class="edge"><title>dir_da9e88029a658bab9ad39bb8696ef9bc&#45;&gt;dir_0af1587c8378955de40f48b4bd1869f0</title>
<path fill="none" stroke="black" d="M168.498,-143.871C173.462,-119.564 182.6,-74.8187 188.483,-46.0132"/>
<polygon fill="black" stroke="black" points="191.918,-46.6874 190.49,-36.1893 185.059,-45.2867 191.918,-46.6874"/>
<g id="a_edge7&#45;headlabel"><a xlink:href="dir_000062_000018.html" target="_top" xlink:title="15">
<text text-anchor="middle" x="193.98" y="-48.2774" font-family="Helvetica,sans-Serif" font-size="10.00">15</text>
</a>
</g>
</g>
<!-- dir_da9e88029a658bab9ad39bb8696ef9bc&#45;&gt;dir_c44c95bf3b41c3321c6014770d618ac8 -->
<g id="edge8" class="edge"><title>dir_da9e88029a658bab9ad39bb8696ef9bc&#45;&gt;dir_c44c95bf3b41c3321c6014770d618ac8</title>
<path fill="none" stroke="black" d="M179.337,-143.697C186.291,-135.305 194.77,-125.07 202.401,-115.861"/>
<polygon fill="black" stroke="black" points="205.143,-118.038 208.828,-108.104 199.753,-113.571 205.143,-118.038"/>
<g id="a_edge8&#45;headlabel"><a xlink:href="dir_000062_000061.html" target="_top" xlink:title="10">
<text text-anchor="middle" x="205.036" y="-120.117" font-family="Helvetica,sans-Serif" font-size="10.00">10</text>
</a>
</g>
</g>
<!-- dir_5eb03804bf445589bf35c6aa84fb9a34&#45;&gt;dir_f0b5461fe6d76f238177302312df4359 -->
<g id="edge9" class="edge"><title>dir_5eb03804bf445589bf35c6aa84fb9a34&#45;&gt;dir_f0b5461fe6d76f238177302312df4359</title>
<path fill="none" stroke="black" d="M252.323,-178.302C250.53,-178.882 248.749,-179.45 247,-180 195.481,-196.209 135.232,-213.303 96.0147,-223.559"/>
<polygon fill="black" stroke="black" points="95.0773,-220.186 86.2708,-226.076 96.8285,-226.963 95.0773,-220.186"/>
<g id="a_edge9&#45;headlabel"><a xlink:href="dir_000057_000041.html" target="_top" xlink:title="4">
<text text-anchor="middle" x="97.8473" y="-214.038" font-family="Helvetica,sans-Serif" font-size="10.00">4</text>
</a>
</g>
</g>
<!-- dir_5eb03804bf445589bf35c6aa84fb9a34&#45;&gt;dir_0af1587c8378955de40f48b4bd1869f0 -->
<g id="edge10" class="edge"><title>dir_5eb03804bf445589bf35c6aa84fb9a34&#45;&gt;dir_0af1587c8378955de40f48b4bd1869f0</title>
<path fill="none" stroke="black" d="M285.422,-143.985C281.917,-125.068 274.251,-94.2515 259,-72 251.128,-60.5152 240.068,-50.2154 229.299,-41.8177"/>
<polygon fill="black" stroke="black" points="231.292,-38.9378 221.179,-35.7786 227.115,-44.5547 231.292,-38.9378"/>
<g id="a_edge10&#45;headlabel"><a xlink:href="dir_000057_000018.html" target="_top" xlink:title="11">
<text text-anchor="middle" x="235.871" y="-36.3047" font-family="Helvetica,sans-Serif" font-size="10.00">11</text>
</a>
</g>
</g>
<!-- dir_5eb03804bf445589bf35c6aa84fb9a34&#45;&gt;dir_c44c95bf3b41c3321c6014770d618ac8 -->
<g id="edge11" class="edge"><title>dir_5eb03804bf445589bf35c6aa84fb9a34&#45;&gt;dir_c44c95bf3b41c3321c6014770d618ac8</title>
<path fill="none" stroke="black" d="M271.933,-143.697C264.061,-135.22 254.445,-124.864 245.827,-115.583"/>
<polygon fill="black" stroke="black" points="248.252,-113.051 238.883,-108.104 243.122,-117.814 248.252,-113.051"/>
<g id="a_edge11&#45;headlabel"><a xlink:href="dir_000057_000061.html" target="_top" xlink:title="7">
<text text-anchor="middle" x="252.778" y="-111.253" font-family="Helvetica,sans-Serif" font-size="10.00">7</text>
</a>
</g>
</g>
</g>
</svg>
