<?xml version="1.0" encoding="UTF-8" standalone="no"?>
<!DOCTYPE svg PUBLIC "-//W3C//DTD SVG 1.1//EN"
 "http://www.w3.org/Graphics/SVG/1.1/DTD/svg11.dtd">
<!-- Generated by graphviz version 2.38.0 (20140413.2041)
 -->
<!-- Title: test/analysis_codes Pages: 1 -->
<svg width="128pt" height="151pt"
 viewBox="0.00 0.00 128.00 151.00" xmlns="http://www.w3.org/2000/svg" xmlns:xlink="http://www.w3.org/1999/xlink">
<g id="graph0" class="graph" transform="scale(1 1) rotate(0) translate(4 147)">
<title>test/analysis_codes</title>
<polygon fill="white" stroke="none" points="-4,4 -4,-147 124,-147 124,4 -4,4"/>
<g id="clust1" class="cluster"><title>clusterdir_13e138d54eb8818da29c3992edef070a</title>
<g id="a_clust1"><a xlink:href="dir_13e138d54eb8818da29c3992edef070a.html" target="_top" xlink:title="test">
<polygon fill="#ddddee" stroke="black" points="8,-64 8,-135 112,-135 112,-64 8,-64"/>
<text text-anchor="middle" x="60" y="-123" font-family="Helvetica,sans-Serif" font-size="10.00">test</text>
</a>
</g>
</g>
<!-- dir_b237cd20fd2bd5dd71675b4573f46992 -->
<g id="node1" class="node"><title>dir_b237cd20fd2bd5dd71675b4573f46992</title>
<g id="a_node1"><a xlink:href="dir_b237cd20fd2bd5dd71675b4573f46992.html" target="_top" xlink:title="analysis_codes">
<polygon fill="#eeeeff" stroke="black" points="104.5,-108 15.5,-108 15.5,-72 104.5,-72 104.5,-108"/>
<text text-anchor="middle" x="60" y="-87.5" font-family="Helvetica,sans-Serif" font-size="10.00">analysis_codes</text>
</a>
</g>
</g>
<!-- dir_68267d1309a1af8e8297ef4c3efbcdba -->
<g id="node2" class="node"><title>dir_68267d1309a1af8e8297ef4c3efbcdba</title>
<g id="a_node2"><a xlink:href="dir_68267d1309a1af8e8297ef4c3efbcdba.html" target="_top" xlink:title="src">
<polygon fill="white" stroke="red" points="87,-36 33,-36 33,-0 87,-0 87,-36"/>
<text text-anchor="middle" x="60" y="-15.5" font-family="Helvetica,sans-Serif" font-size="10.00">src</text>
</a>
</g>
</g>
<!-- dir_b237cd20fd2bd5dd71675b4573f46992&#45;&gt;dir_68267d1309a1af8e8297ef4c3efbcdba -->
<g id="edge1" class="edge"><title>dir_b237cd20fd2bd5dd71675b4573f46992&#45;&gt;dir_68267d1309a1af8e8297ef4c3efbcdba</title>
<path fill="none" stroke="black" d="M60,-71.6966C60,-63.9827 60,-54.7125 60,-46.1124"/>
<polygon fill="black" stroke="black" points="63.5001,-46.1043 60,-36.1043 56.5001,-46.1044 63.5001,-46.1043"/>
<g id="a_edge1&#45;headlabel"><a xlink:href="dir_000066_000002.html" target="_top" xlink:title="4">
<text text-anchor="middle" x="66.3393" y="-47.199" font-family="Helvetica,sans-Serif" font-size="10.00">4</text>
</a>
</g>
</g>
</g>
</svg>
