<?xml version="1.0" encoding="UTF-8" standalone="no"?>
<!DOCTYPE svg PUBLIC "-//W3C//DTD SVG 1.1//EN"
 "http://www.w3.org/Graphics/SVG/1.1/DTD/svg11.dtd">
<!-- Generated by graphviz version 2.38.0 (20140413.2041)
 -->
<!-- Title: src/mc/pluto Pages: 1 -->
<svg width="207pt" height="231pt"
 viewBox="0.00 0.00 207.00 231.00" xmlns="http://www.w3.org/2000/svg" xmlns:xlink="http://www.w3.org/1999/xlink">
<g id="graph0" class="graph" transform="scale(1 1) rotate(0) translate(4 227)">
<title>src/mc/pluto</title>
<polygon fill="white" stroke="none" points="-4,4 -4,-227 203,-227 203,4 -4,4"/>
<g id="clust1" class="cluster"><title>clusterdir_23ddac1b85988572e153cbc2f1d45e89</title>
<g id="a_clust1"><a xlink:href="dir_23ddac1b85988572e153cbc2f1d45e89.html" target="_top" xlink:title="mc">
<polygon fill="#ddddee" stroke="black" points="8,-128 8,-215 166,-215 166,-128 8,-128"/>
<text text-anchor="middle" x="87" y="-203" font-family="Helvetica,sans-Serif" font-size="10.00">mc</text>
</a>
</g>
</g>
<g id="clust2" class="cluster"><title>clusterdir_d1811c65c1b162f25a62e035dae64b7f</title>
<g id="a_clust2"><a xlink:href="dir_d1811c65c1b162f25a62e035dae64b7f.html" target="_top">
<polygon fill="#eeeeff" stroke="black" points="16,-136 16,-188 158,-188 158,-136 16,-136"/>
</a>
</g>
</g>
<!-- dir_d1811c65c1b162f25a62e035dae64b7f -->
<g id="node1" class="node"><title>dir_d1811c65c1b162f25a62e035dae64b7f</title>
<text text-anchor="middle" x="51" y="-159.5" font-family="Helvetica,sans-Serif" font-size="10.00">pluto</text>
</g>
<!-- dir_0af1587c8378955de40f48b4bd1869f0 -->
<g id="node3" class="node"><title>dir_0af1587c8378955de40f48b4bd1869f0</title>
<g id="a_node3"><a xlink:href="dir_0af1587c8378955de40f48b4bd1869f0.html" target="_top" xlink:title="base">
<polygon fill="white" stroke="red" points="114,-36 60,-36 60,-0 114,-0 114,-36"/>
<text text-anchor="middle" x="87" y="-15.5" font-family="Helvetica,sans-Serif" font-size="10.00">base</text>
</a>
</g>
</g>
<!-- dir_d1811c65c1b162f25a62e035dae64b7f&#45;&gt;dir_0af1587c8378955de40f48b4bd1869f0 -->
<g id="edge4" class="edge"><title>dir_d1811c65c1b162f25a62e035dae64b7f&#45;&gt;dir_0af1587c8378955de40f48b4bd1869f0</title>
<path fill="none" stroke="black" d="M36.3976,-143.836C22.751,-125.587 6.12552,-96.0941 18,-72 25.1073,-57.5787 38.2324,-45.9874 51.1425,-37.3659"/>
<polygon fill="black" stroke="black" points="53.3281,-40.1282 59.9694,-31.8733 49.6298,-34.1849 53.3281,-40.1282"/>
<g id="a_edge4&#45;headlabel"><a xlink:href="dir_000055_000018.html" target="_top" xlink:title="6">
<text text-anchor="middle" x="51.7762" y="-41.938" font-family="Helvetica,sans-Serif" font-size="10.00">6</text>
</a>
</g>
</g>
<!-- dir_d3257a9dc10c94c91caec5e6c2201c68 -->
<g id="node5" class="node"><title>dir_d3257a9dc10c94c91caec5e6c2201c68</title>
<g id="a_node5"><a xlink:href="dir_d3257a9dc10c94c91caec5e6c2201c68.html" target="_top" xlink:title="database">
<polygon fill="white" stroke="red" points="89,-108 27,-108 27,-72 89,-72 89,-108"/>
<text text-anchor="middle" x="58" y="-87.5" font-family="Helvetica,sans-Serif" font-size="10.00">database</text>
</a>
</g>
</g>
<!-- dir_d1811c65c1b162f25a62e035dae64b7f&#45;&gt;dir_d3257a9dc10c94c91caec5e6c2201c68 -->
<g id="edge5" class="edge"><title>dir_d1811c65c1b162f25a62e035dae64b7f&#45;&gt;dir_d3257a9dc10c94c91caec5e6c2201c68</title>
<path fill="none" stroke="black" d="M52.7303,-143.697C53.5017,-135.983 54.4288,-126.712 55.2888,-118.112"/>
<polygon fill="black" stroke="black" points="58.7771,-118.403 56.2896,-108.104 51.8118,-117.706 58.7771,-118.403"/>
<g id="a_edge5&#45;headlabel"><a xlink:href="dir_000055_000053.html" target="_top" xlink:title="2">
<text text-anchor="middle" x="61.2447" y="-119.762" font-family="Helvetica,sans-Serif" font-size="10.00">2</text>
</a>
</g>
</g>
<!-- dir_8322514a73a3c238a61ca5e81e3ba616 -->
<g id="node2" class="node"><title>dir_8322514a73a3c238a61ca5e81e3ba616</title>
<g id="a_node2"><a xlink:href="dir_8322514a73a3c238a61ca5e81e3ba616.html" target="_top" xlink:title="utils">
<polygon fill="white" stroke="black" points="150,-180 96,-180 96,-144 150,-144 150,-180"/>
<text text-anchor="middle" x="123" y="-159.5" font-family="Helvetica,sans-Serif" font-size="10.00">utils</text>
</a>
</g>
</g>
<!-- dir_8322514a73a3c238a61ca5e81e3ba616&#45;&gt;dir_0af1587c8378955de40f48b4bd1869f0 -->
<g id="edge2" class="edge"><title>dir_8322514a73a3c238a61ca5e81e3ba616&#45;&gt;dir_0af1587c8378955de40f48b4bd1869f0</title>
<path fill="none" stroke="black" d="M118.658,-143.871C112.495,-119.564 101.151,-74.8187 93.8484,-46.0132"/>
<polygon fill="black" stroke="black" points="97.2081,-45.0225 91.3578,-36.1893 90.4227,-46.7427 97.2081,-45.0225"/>
<g id="a_edge2&#45;headlabel"><a xlink:href="dir_000056_000018.html" target="_top" xlink:title="2">
<text text-anchor="middle" x="100.844" y="-45.3091" font-family="Helvetica,sans-Serif" font-size="10.00">2</text>
</a>
</g>
</g>
<!-- dir_c44c95bf3b41c3321c6014770d618ac8 -->
<g id="node4" class="node"><title>dir_c44c95bf3b41c3321c6014770d618ac8</title>
<g id="a_node4"><a xlink:href="dir_c44c95bf3b41c3321c6014770d618ac8.html" target="_top" xlink:title="tree">
<polygon fill="none" stroke="black" points="199,-108 145,-108 145,-72 199,-72 199,-108"/>
<text text-anchor="middle" x="172" y="-87.5" font-family="Helvetica,sans-Serif" font-size="10.00">tree</text>
</a>
</g>
</g>
<!-- dir_8322514a73a3c238a61ca5e81e3ba616&#45;&gt;dir_c44c95bf3b41c3321c6014770d618ac8 -->
<g id="edge3" class="edge"><title>dir_8322514a73a3c238a61ca5e81e3ba616&#45;&gt;dir_c44c95bf3b41c3321c6014770d618ac8</title>
<path fill="none" stroke="black" d="M135.112,-143.697C140.868,-135.474 147.862,-125.483 154.206,-116.421"/>
<polygon fill="black" stroke="black" points="157.16,-118.304 160.027,-108.104 151.425,-114.29 157.16,-118.304"/>
<g id="a_edge3&#45;headlabel"><a xlink:href="dir_000056_000061.html" target="_top" xlink:title="1">
<text text-anchor="middle" x="157.424" y="-120.377" font-family="Helvetica,sans-Serif" font-size="10.00">1</text>
</a>
</g>
</g>
<!-- dir_c44c95bf3b41c3321c6014770d618ac8&#45;&gt;dir_0af1587c8378955de40f48b4bd1869f0 -->
<g id="edge1" class="edge"><title>dir_c44c95bf3b41c3321c6014770d618ac8&#45;&gt;dir_0af1587c8378955de40f48b4bd1869f0</title>
<path fill="none" stroke="black" d="M150.989,-71.6966C140.284,-62.8807 127.11,-52.0321 115.504,-42.4742"/>
<polygon fill="black" stroke="black" points="117.714,-39.7597 107.77,-36.1043 113.264,-45.1632 117.714,-39.7597"/>
<g id="a_edge1&#45;headlabel"><a xlink:href="dir_000061_000018.html" target="_top" xlink:title="25">
<text text-anchor="middle" x="122.294" y="-37.3531" font-family="Helvetica,sans-Serif" font-size="10.00">25</text>
</a>
</g>
</g>
<!-- dir_d3257a9dc10c94c91caec5e6c2201c68&#45;&gt;dir_0af1587c8378955de40f48b4bd1869f0 -->
<g id="edge6" class="edge"><title>dir_d3257a9dc10c94c91caec5e6c2201c68&#45;&gt;dir_0af1587c8378955de40f48b4bd1869f0</title>
<path fill="none" stroke="black" d="M65.1685,-71.6966C68.4345,-63.8132 72.374,-54.3042 76.0022,-45.5464"/>
<polygon fill="black" stroke="black" points="79.32,-46.6825 79.9139,-36.1043 72.853,-44.0033 79.32,-46.6825"/>
<g id="a_edge6&#45;headlabel"><a xlink:href="dir_000053_000018.html" target="_top" xlink:title="4">
<text text-anchor="middle" x="80.5673" y="-48.5901" font-family="Helvetica,sans-Serif" font-size="10.00">4</text>
</a>
</g>
</g>
</g>
</svg>
