<?xml version="1.0" encoding="UTF-8" standalone="no"?>
<!DOCTYPE svg PUBLIC "-//W3C//DTD SVG 1.1//EN"
 "http://www.w3.org/Graphics/SVG/1.1/DTD/svg11.dtd">
<!-- Generated by graphviz version 2.38.0 (20140413.2041)
 -->
<!-- Title: src/calibration/fitfunctions Pages: 1 -->
<svg width="166pt" height="151pt"
 viewBox="0.00 0.00 166.00 151.00" xmlns="http://www.w3.org/2000/svg" xmlns:xlink="http://www.w3.org/1999/xlink">
<g id="graph0" class="graph" transform="scale(1 1) rotate(0) translate(4 147)">
<title>src/calibration/fitfunctions</title>
<polygon fill="white" stroke="none" points="-4,4 -4,-147 162,-147 162,4 -4,4"/>
<g id="clust1" class="cluster"><title>clusterdir_f1b881a94df93d2a183c4d8f47373448</title>
<g id="a_clust1"><a xlink:href="dir_f1b881a94df93d2a183c4d8f47373448.html" target="_top" xlink:title="calibration">
<polygon fill="#ddddee" stroke="black" points="8,-64 8,-135 94,-135 94,-64 8,-64"/>
<text text-anchor="middle" x="51" y="-123" font-family="Helvetica,sans-Serif" font-size="10.00">calibration</text>
</a>
</g>
</g>
<!-- dir_47eae98cac04703c45f6b4e608e28f25 -->
<g id="node1" class="node"><title>dir_47eae98cac04703c45f6b4e608e28f25</title>
<g id="a_node1"><a xlink:href="dir_47eae98cac04703c45f6b4e608e28f25.html" target="_top" xlink:title="fitfunctions">
<polygon fill="#eeeeff" stroke="black" points="85.5,-108 16.5,-108 16.5,-72 85.5,-72 85.5,-108"/>
<text text-anchor="middle" x="51" y="-87.5" font-family="Helvetica,sans-Serif" font-size="10.00">fitfunctions</text>
</a>
</g>
</g>
<!-- dir_0af1587c8378955de40f48b4bd1869f0 -->
<g id="node2" class="node"><title>dir_0af1587c8378955de40f48b4bd1869f0</title>
<g id="a_node2"><a xlink:href="dir_0af1587c8378955de40f48b4bd1869f0.html" target="_top" xlink:title="base">
<polygon fill="white" stroke="red" points="118,-36 64,-36 64,-0 118,-0 118,-36"/>
<text text-anchor="middle" x="91" y="-15.5" font-family="Helvetica,sans-Serif" font-size="10.00">base</text>
</a>
</g>
</g>
<!-- dir_47eae98cac04703c45f6b4e608e28f25&#45;&gt;dir_0af1587c8378955de40f48b4bd1869f0 -->
<g id="edge3" class="edge"><title>dir_47eae98cac04703c45f6b4e608e28f25&#45;&gt;dir_0af1587c8378955de40f48b4bd1869f0</title>
<path fill="none" stroke="black" d="M60.8876,-71.6966C65.4893,-63.6436 71.0603,-53.8945 76.1529,-44.9824"/>
<polygon fill="black" stroke="black" points="79.3035,-46.5233 81.2261,-36.1043 73.2258,-43.0503 79.3035,-46.5233"/>
<g id="a_edge3&#45;headlabel"><a xlink:href="dir_000047_000018.html" target="_top" xlink:title="33">
<text text-anchor="middle" x="79.9853" y="-48.5529" font-family="Helvetica,sans-Serif" font-size="10.00">33</text>
</a>
</g>
</g>
<!-- dir_4584aed4c24fbdfe1cf1a414e4d4a562 -->
<g id="node3" class="node"><title>dir_4584aed4c24fbdfe1cf1a414e4d4a562</title>
<g id="a_node3"><a xlink:href="dir_4584aed4c24fbdfe1cf1a414e4d4a562.html" target="_top" xlink:title="gui">
<polygon fill="none" stroke="black" points="158,-108 104,-108 104,-72 158,-72 158,-108"/>
<text text-anchor="middle" x="131" y="-87.5" font-family="Helvetica,sans-Serif" font-size="10.00">gui</text>
</a>
</g>
</g>
<!-- dir_47eae98cac04703c45f6b4e608e28f25&#45;&gt;dir_4584aed4c24fbdfe1cf1a414e4d4a562 -->
<g id="edge4" class="edge"><title>dir_47eae98cac04703c45f6b4e608e28f25&#45;&gt;dir_4584aed4c24fbdfe1cf1a414e4d4a562</title>
<path fill="none" stroke="black" d="M85.6875,-90C88.3204,-90 90.9533,-90 93.5862,-90"/>
<polygon fill="black" stroke="black" points="93.7417,-93.5001 103.742,-90 93.7417,-86.5001 93.7417,-93.5001"/>
<g id="a_edge4&#45;headlabel"><a xlink:href="dir_000047_000048.html" target="_top" xlink:title="2">
<text text-anchor="middle" x="90.1471" y="-93.8393" font-family="Helvetica,sans-Serif" font-size="10.00">2</text>
</a>
</g>
</g>
<!-- dir_4584aed4c24fbdfe1cf1a414e4d4a562&#45;&gt;dir_47eae98cac04703c45f6b4e608e28f25 -->
<g id="edge2" class="edge"><title>dir_4584aed4c24fbdfe1cf1a414e4d4a562&#45;&gt;dir_47eae98cac04703c45f6b4e608e28f25</title>
<path fill="none" stroke="black" d="M103.742,-90C101.109,-90 98.4759,-90 95.843,-90"/>
<polygon fill="black" stroke="black" points="95.6875,-86.5001 85.6875,-90 95.6875,-93.5001 95.6875,-86.5001"/>
<g id="a_edge2&#45;headlabel"><a xlink:href="dir_000048_000047.html" target="_top" xlink:title="2">
<text text-anchor="middle" x="99.2821" y="-81.1607" font-family="Helvetica,sans-Serif" font-size="10.00">2</text>
</a>
</g>
</g>
<!-- dir_4584aed4c24fbdfe1cf1a414e4d4a562&#45;&gt;dir_0af1587c8378955de40f48b4bd1869f0 -->
<g id="edge1" class="edge"><title>dir_4584aed4c24fbdfe1cf1a414e4d4a562&#45;&gt;dir_0af1587c8378955de40f48b4bd1869f0</title>
<path fill="none" stroke="black" d="M121.112,-71.6966C116.511,-63.6436 110.94,-53.8945 105.847,-44.9824"/>
<polygon fill="black" stroke="black" points="108.774,-43.0503 100.774,-36.1043 102.696,-46.5233 108.774,-43.0503"/>
<g id="a_edge1&#45;headlabel"><a xlink:href="dir_000048_000018.html" target="_top" xlink:title="15">
<text text-anchor="middle" x="113.023" y="-42.2626" font-family="Helvetica,sans-Serif" font-size="10.00">15</text>
</a>
</g>
</g>
</g>
</svg>
