<?xml version="1.0" encoding="UTF-8" standalone="no"?>
<!DOCTYPE svg PUBLIC "-//W3C//DTD SVG 1.1//EN"
 "http://www.w3.org/Graphics/SVG/1.1/DTD/svg11.dtd">
<!-- Generated by graphviz version 2.38.0 (20140413.2041)
 -->
<!-- Title: src/reconstruct Pages: 1 -->
<svg width="204pt" height="303pt"
 viewBox="0.00 0.00 204.00 303.00" xmlns="http://www.w3.org/2000/svg" xmlns:xlink="http://www.w3.org/1999/xlink">
<g id="graph0" class="graph" transform="scale(1 1) rotate(0) translate(4 299)">
<title>src/reconstruct</title>
<polygon fill="white" stroke="none" points="-4,4 -4,-299 200,-299 200,4 -4,4"/>
<g id="clust1" class="cluster"><title>clusterdir_68267d1309a1af8e8297ef4c3efbcdba</title>
<g id="a_clust1"><a xlink:href="dir_68267d1309a1af8e8297ef4c3efbcdba.html" target="_top" xlink:title="src">
<polygon fill="#ddddee" stroke="black" points="8,-128 8,-287 112,-287 112,-128 8,-128"/>
<text text-anchor="middle" x="60" y="-275" font-family="Helvetica,sans-Serif" font-size="10.00">src</text>
</a>
</g>
</g>
<g id="clust2" class="cluster"><title>clusterdir_5eb03804bf445589bf35c6aa84fb9a34</title>
<g id="a_clust2"><a xlink:href="dir_5eb03804bf445589bf35c6aa84fb9a34.html" target="_top">
<polygon fill="#eeeeff" stroke="black" points="16,-136 16,-260 104,-260 104,-136 16,-136"/>
</a>
</g>
</g>
<!-- dir_5eb03804bf445589bf35c6aa84fb9a34 -->
<g id="node1" class="node"><title>dir_5eb03804bf445589bf35c6aa84fb9a34</title>
<text text-anchor="middle" x="60" y="-231.5" font-family="Helvetica,sans-Serif" font-size="10.00">reconstruct</text>
</g>
<!-- dir_db013cc40b3425694a26a249f1fa7e93 -->
<g id="node2" class="node"><title>dir_db013cc40b3425694a26a249f1fa7e93</title>
<g id="a_node2"><a xlink:href="dir_db013cc40b3425694a26a249f1fa7e93.html" target="_top" xlink:title="detail">
<polygon fill="white" stroke="black" points="78,-180 24,-180 24,-144 78,-144 78,-180"/>
<text text-anchor="middle" x="51" y="-159.5" font-family="Helvetica,sans-Serif" font-size="10.00">detail</text>
</a>
</g>
</g>
<!-- dir_5eb03804bf445589bf35c6aa84fb9a34&#45;&gt;dir_db013cc40b3425694a26a249f1fa7e93 -->
<g id="edge5" class="edge"><title>dir_5eb03804bf445589bf35c6aa84fb9a34&#45;&gt;dir_db013cc40b3425694a26a249f1fa7e93</title>
<path fill="none" stroke="black" d="M57.7753,-215.697C56.7835,-207.983 55.5916,-198.712 54.4859,-190.112"/>
<polygon fill="black" stroke="black" points="57.9459,-189.576 53.1991,-180.104 51.003,-190.469 57.9459,-189.576"/>
<g id="a_edge5&#45;headlabel"><a xlink:href="dir_000057_000058.html" target="_top" xlink:title="1">
<text text-anchor="middle" x="61.2203" y="-190.28" font-family="Helvetica,sans-Serif" font-size="10.00">1</text>
</a>
</g>
</g>
<!-- dir_c44c95bf3b41c3321c6014770d618ac8 -->
<g id="node4" class="node"><title>dir_c44c95bf3b41c3321c6014770d618ac8</title>
<g id="a_node4"><a xlink:href="dir_c44c95bf3b41c3321c6014770d618ac8.html" target="_top" xlink:title="tree">
<polygon fill="none" stroke="black" points="134,-108 80,-108 80,-72 134,-72 134,-108"/>
<text text-anchor="middle" x="107" y="-87.5" font-family="Helvetica,sans-Serif" font-size="10.00">tree</text>
</a>
</g>
</g>
<!-- dir_5eb03804bf445589bf35c6aa84fb9a34&#45;&gt;dir_c44c95bf3b41c3321c6014770d618ac8 -->
<g id="edge6" class="edge"><title>dir_5eb03804bf445589bf35c6aa84fb9a34&#45;&gt;dir_c44c95bf3b41c3321c6014770d618ac8</title>
<path fill="none" stroke="black" d="M70.137,-215.826C75.7659,-205.684 82.5159,-192.434 87,-180 94.2861,-159.796 99.4654,-136.02 102.725,-118.128"/>
<polygon fill="black" stroke="black" points="106.206,-118.54 104.466,-108.089 99.309,-117.344 106.206,-118.54"/>
<g id="a_edge6&#45;headlabel"><a xlink:href="dir_000057_000061.html" target="_top" xlink:title="7">
<text text-anchor="middle" x="108.389" y="-120.067" font-family="Helvetica,sans-Serif" font-size="10.00">7</text>
</a>
</g>
</g>
<!-- dir_c4f4646ab0f4a2967be5b6215a500c22 -->
<g id="node5" class="node"><title>dir_c4f4646ab0f4a2967be5b6215a500c22</title>
<g id="a_node5"><a xlink:href="dir_c4f4646ab0f4a2967be5b6215a500c22.html" target="_top" xlink:title="expconfig">
<polygon fill="white" stroke="red" points="196,-180 134,-180 134,-144 196,-144 196,-180"/>
<text text-anchor="middle" x="165" y="-159.5" font-family="Helvetica,sans-Serif" font-size="10.00">expconfig</text>
</a>
</g>
</g>
<!-- dir_5eb03804bf445589bf35c6aa84fb9a34&#45;&gt;dir_c4f4646ab0f4a2967be5b6215a500c22 -->
<g id="edge7" class="edge"><title>dir_5eb03804bf445589bf35c6aa84fb9a34&#45;&gt;dir_c4f4646ab0f4a2967be5b6215a500c22</title>
<path fill="none" stroke="black" d="M85.6859,-215.876C99.2875,-206.808 116.172,-195.552 130.861,-185.759"/>
<polygon fill="black" stroke="black" points="132.836,-188.649 139.215,-180.19 128.953,-182.825 132.836,-188.649"/>
<g id="a_edge7&#45;headlabel"><a xlink:href="dir_000057_000040.html" target="_top" xlink:title="7">
<text text-anchor="middle" x="131.42" y="-190.505" font-family="Helvetica,sans-Serif" font-size="10.00">7</text>
</a>
</g>
</g>
<!-- dir_0af1587c8378955de40f48b4bd1869f0 -->
<g id="node3" class="node"><title>dir_0af1587c8378955de40f48b4bd1869f0</title>
<g id="a_node3"><a xlink:href="dir_0af1587c8378955de40f48b4bd1869f0.html" target="_top" xlink:title="base">
<polygon fill="white" stroke="red" points="134,-36 80,-36 80,-0 134,-0 134,-36"/>
<text text-anchor="middle" x="107" y="-15.5" font-family="Helvetica,sans-Serif" font-size="10.00">base</text>
</a>
</g>
</g>
<!-- dir_db013cc40b3425694a26a249f1fa7e93&#45;&gt;dir_0af1587c8378955de40f48b4bd1869f0 -->
<g id="edge1" class="edge"><title>dir_db013cc40b3425694a26a249f1fa7e93&#45;&gt;dir_0af1587c8378955de40f48b4bd1869f0</title>
<path fill="none" stroke="black" d="M52.9375,-143.675C55.4354,-125.291 60.7375,-95.6862 71,-72 75.1354,-62.4553 81.0534,-52.8116 86.8998,-44.4147"/>
<polygon fill="black" stroke="black" points="89.8421,-46.3195 92.8887,-36.1721 84.1791,-42.2048 89.8421,-46.3195"/>
<g id="a_edge1&#45;headlabel"><a xlink:href="dir_000058_000018.html" target="_top" xlink:title="1">
<text text-anchor="middle" x="90.0262" y="-48.3965" font-family="Helvetica,sans-Serif" font-size="10.00">1</text>
</a>
</g>
</g>
<!-- dir_c44c95bf3b41c3321c6014770d618ac8&#45;&gt;dir_0af1587c8378955de40f48b4bd1869f0 -->
<g id="edge2" class="edge"><title>dir_c44c95bf3b41c3321c6014770d618ac8&#45;&gt;dir_0af1587c8378955de40f48b4bd1869f0</title>
<path fill="none" stroke="black" d="M107,-71.6966C107,-63.9827 107,-54.7125 107,-46.1124"/>
<polygon fill="black" stroke="black" points="110.5,-46.1043 107,-36.1043 103.5,-46.1044 110.5,-46.1043"/>
<g id="a_edge2&#45;headlabel"><a xlink:href="dir_000061_000018.html" target="_top" xlink:title="25">
<text text-anchor="middle" x="113.339" y="-47.199" font-family="Helvetica,sans-Serif" font-size="10.00">25</text>
</a>
</g>
</g>
<!-- dir_c4f4646ab0f4a2967be5b6215a500c22&#45;&gt;dir_0af1587c8378955de40f48b4bd1869f0 -->
<g id="edge3" class="edge"><title>dir_c4f4646ab0f4a2967be5b6215a500c22&#45;&gt;dir_0af1587c8378955de40f48b4bd1869f0</title>
<path fill="none" stroke="black" d="M162.583,-143.678C159.597,-125.297 153.567,-95.6943 143,-72 138.763,-62.4999 132.818,-52.8681 126.978,-44.4686"/>
<polygon fill="black" stroke="black" points="129.705,-42.2666 121.006,-36.2186 124.034,-46.3713 129.705,-42.2666"/>
<g id="a_edge3&#45;headlabel"><a xlink:href="dir_000040_000018.html" target="_top" xlink:title="47">
<text text-anchor="middle" x="134.112" y="-41.0135" font-family="Helvetica,sans-Serif" font-size="10.00">47</text>
</a>
</g>
</g>
<!-- dir_c4f4646ab0f4a2967be5b6215a500c22&#45;&gt;dir_c44c95bf3b41c3321c6014770d618ac8 -->
<g id="edge4" class="edge"><title>dir_c4f4646ab0f4a2967be5b6215a500c22&#45;&gt;dir_c44c95bf3b41c3321c6014770d618ac8</title>
<path fill="none" stroke="black" d="M150.663,-143.697C143.709,-135.305 135.23,-125.07 127.599,-115.861"/>
<polygon fill="black" stroke="black" points="130.247,-113.571 121.172,-108.104 124.857,-118.038 130.247,-113.571"/>
<g id="a_edge4&#45;headlabel"><a xlink:href="dir_000040_000061.html" target="_top" xlink:title="10">
<text text-anchor="middle" x="134.727" y="-112.028" font-family="Helvetica,sans-Serif" font-size="10.00">10</text>
</a>
</g>
</g>
</g>
</svg>
