<?xml version="1.0" encoding="UTF-8" standalone="no"?>
<!DOCTYPE svg PUBLIC "-//W3C//DTD SVG 1.1//EN"
 "http://www.w3.org/Graphics/SVG/1.1/DTD/svg11.dtd">
<!-- Generated by graphviz version 2.38.0 (20140413.2041)
 -->
<!-- Title: src/root&#45;addons/analysis_codes Pages: 1 -->
<svg width="508pt" height="511pt"
 viewBox="0.00 0.00 507.50 511.00" xmlns="http://www.w3.org/2000/svg" xmlns:xlink="http://www.w3.org/1999/xlink">
<g id="graph0" class="graph" transform="scale(1 1) rotate(0) translate(4 507)">
<title>src/root&#45;addons/analysis_codes</title>
<polygon fill="white" stroke="none" points="-4,4 -4,-507 503.5,-507 503.5,4 -4,4"/>
<g id="clust1" class="cluster"><title>clusterdir_ebac6f698c8ed4b70faacb8ef35cbe0d</title>
<g id="a_clust1"><a xlink:href="dir_ebac6f698c8ed4b70faacb8ef35cbe0d.html" target="_top" xlink:title="root&#45;addons">
<polygon fill="#ddddee" stroke="black" points="62,-424 62,-495 166,-495 166,-424 62,-424"/>
<text text-anchor="middle" x="114" y="-483" font-family="Helvetica,sans-Serif" font-size="10.00">root&#45;addons</text>
</a>
</g>
</g>
<!-- dir_10d61e73231c9ac3a444e6ed8c0ef6ad -->
<g id="node1" class="node"><title>dir_10d61e73231c9ac3a444e6ed8c0ef6ad</title>
<g id="a_node1"><a xlink:href="dir_10d61e73231c9ac3a444e6ed8c0ef6ad.html" target="_top" xlink:title="analysis_codes">
<polygon fill="#eeeeff" stroke="black" points="158.5,-468 69.5,-468 69.5,-432 158.5,-432 158.5,-468"/>
<text text-anchor="middle" x="114" y="-447.5" font-family="Helvetica,sans-Serif" font-size="10.00">analysis_codes</text>
</a>
</g>
</g>
<!-- dir_0af1587c8378955de40f48b4bd1869f0 -->
<g id="node2" class="node"><title>dir_0af1587c8378955de40f48b4bd1869f0</title>
<g id="a_node2"><a xlink:href="dir_0af1587c8378955de40f48b4bd1869f0.html" target="_top" xlink:title="base">
<polygon fill="white" stroke="red" points="276,-36 222,-36 222,-0 276,-0 276,-36"/>
<text text-anchor="middle" x="249" y="-15.5" font-family="Helvetica,sans-Serif" font-size="10.00">base</text>
</a>
</g>
</g>
<!-- dir_10d61e73231c9ac3a444e6ed8c0ef6ad&#45;&gt;dir_0af1587c8378955de40f48b4bd1869f0 -->
<g id="edge1" class="edge"><title>dir_10d61e73231c9ac3a444e6ed8c0ef6ad&#45;&gt;dir_0af1587c8378955de40f48b4bd1869f0</title>
<path fill="none" stroke="black" d="M86.9836,-431.964C53.2722,-408.367 0,-362.325 0,-307 0,-307 0,-307 0,-161 0,-64.6738 142.353,-32.8323 211.791,-23.0304"/>
<polygon fill="black" stroke="black" points="212.427,-26.4766 221.879,-21.6893 211.505,-19.5377 212.427,-26.4766"/>
<g id="a_edge1&#45;headlabel"><a xlink:href="dir_000023_000018.html" target="_top" xlink:title="63">
<text text-anchor="middle" x="209.238" y="-27.2647" font-family="Helvetica,sans-Serif" font-size="10.00">63</text>
</a>
</g>
</g>
<!-- dir_c44c95bf3b41c3321c6014770d618ac8 -->
<g id="node3" class="node"><title>dir_c44c95bf3b41c3321c6014770d618ac8</title>
<g id="a_node3"><a xlink:href="dir_c44c95bf3b41c3321c6014770d618ac8.html" target="_top" xlink:title="tree">
<polygon fill="none" stroke="black" points="276,-108 222,-108 222,-72 276,-72 276,-108"/>
<text text-anchor="middle" x="249" y="-87.5" font-family="Helvetica,sans-Serif" font-size="10.00">tree</text>
</a>
</g>
</g>
<!-- dir_10d61e73231c9ac3a444e6ed8c0ef6ad&#45;&gt;dir_c44c95bf3b41c3321c6014770d618ac8 -->
<g id="edge2" class="edge"><title>dir_10d61e73231c9ac3a444e6ed8c0ef6ad&#45;&gt;dir_c44c95bf3b41c3321c6014770d618ac8</title>
<path fill="none" stroke="black" d="M97.5091,-431.772C75.1569,-406.534 38,-357.051 38,-307 38,-307 38,-307 38,-233 38,-188.268 50.7509,-172.775 85,-144 121.386,-113.43 175.747,-100.392 211.775,-94.8982"/>
<polygon fill="black" stroke="black" points="212.456,-98.337 221.873,-93.4823 211.484,-91.4048 212.456,-98.337"/>
<g id="a_edge2&#45;headlabel"><a xlink:href="dir_000023_000061.html" target="_top" xlink:title="11">
<text text-anchor="middle" x="209.291" y="-99.1478" font-family="Helvetica,sans-Serif" font-size="10.00">11</text>
</a>
</g>
</g>
<!-- dir_f1b881a94df93d2a183c4d8f47373448 -->
<g id="node4" class="node"><title>dir_f1b881a94df93d2a183c4d8f47373448</title>
<g id="a_node4"><a xlink:href="dir_f1b881a94df93d2a183c4d8f47373448.html" target="_top" xlink:title="calibration">
<polygon fill="white" stroke="red" points="289,-396 223,-396 223,-360 289,-360 289,-396"/>
<text text-anchor="middle" x="256" y="-375.5" font-family="Helvetica,sans-Serif" font-size="10.00">calibration</text>
</a>
</g>
</g>
<!-- dir_10d61e73231c9ac3a444e6ed8c0ef6ad&#45;&gt;dir_f1b881a94df93d2a183c4d8f47373448 -->
<g id="edge3" class="edge"><title>dir_10d61e73231c9ac3a444e6ed8c0ef6ad&#45;&gt;dir_f1b881a94df93d2a183c4d8f47373448</title>
<path fill="none" stroke="black" d="M148.737,-431.876C168.247,-422.259 192.749,-410.18 213.409,-399.995"/>
<polygon fill="black" stroke="black" points="215.178,-403.026 222.599,-395.465 212.082,-396.747 215.178,-403.026"/>
<g id="a_edge3&#45;headlabel"><a xlink:href="dir_000023_000016.html" target="_top" xlink:title="1">
<text text-anchor="middle" x="213.209" y="-404.662" font-family="Helvetica,sans-Serif" font-size="10.00">1</text>
</a>
</g>
</g>
<!-- dir_c4f4646ab0f4a2967be5b6215a500c22 -->
<g id="node5" class="node"><title>dir_c4f4646ab0f4a2967be5b6215a500c22</title>
<g id="a_node5"><a xlink:href="dir_c4f4646ab0f4a2967be5b6215a500c22.html" target="_top" xlink:title="expconfig">
<polygon fill="white" stroke="red" points="204,-252 142,-252 142,-216 204,-216 204,-252"/>
<text text-anchor="middle" x="173" y="-231.5" font-family="Helvetica,sans-Serif" font-size="10.00">expconfig</text>
</a>
</g>
</g>
<!-- dir_10d61e73231c9ac3a444e6ed8c0ef6ad&#45;&gt;dir_c4f4646ab0f4a2967be5b6215a500c22 -->
<g id="edge4" class="edge"><title>dir_10d61e73231c9ac3a444e6ed8c0ef6ad&#45;&gt;dir_c4f4646ab0f4a2967be5b6215a500c22</title>
<path fill="none" stroke="black" d="M118.728,-431.849C128.956,-394.753 153.202,-306.81 165.528,-262.103"/>
<polygon fill="black" stroke="black" points="168.965,-262.803 168.249,-252.232 162.217,-260.943 168.965,-262.803"/>
<g id="a_edge4&#45;headlabel"><a xlink:href="dir_000023_000040.html" target="_top" xlink:title="6">
<text text-anchor="middle" x="170.747" y="-264.523" font-family="Helvetica,sans-Serif" font-size="10.00">6</text>
</a>
</g>
</g>
<!-- dir_5eb03804bf445589bf35c6aa84fb9a34 -->
<g id="node6" class="node"><title>dir_5eb03804bf445589bf35c6aa84fb9a34</title>
<g id="a_node6"><a xlink:href="dir_5eb03804bf445589bf35c6aa84fb9a34.html" target="_top" xlink:title="reconstruct">
<polygon fill="white" stroke="red" points="165.5,-180 94.5,-180 94.5,-144 165.5,-144 165.5,-180"/>
<text text-anchor="middle" x="130" y="-159.5" font-family="Helvetica,sans-Serif" font-size="10.00">reconstruct</text>
</a>
</g>
</g>
<!-- dir_10d61e73231c9ac3a444e6ed8c0ef6ad&#45;&gt;dir_5eb03804bf445589bf35c6aa84fb9a34 -->
<g id="edge5" class="edge"><title>dir_10d61e73231c9ac3a444e6ed8c0ef6ad&#45;&gt;dir_5eb03804bf445589bf35c6aa84fb9a34</title>
<path fill="none" stroke="black" d="M113.912,-431.711C113.865,-392.993 114.576,-296.406 122,-216 122.782,-207.53 124.025,-198.352 125.301,-190.051"/>
<polygon fill="black" stroke="black" points="128.765,-190.554 126.902,-180.125 121.854,-189.44 128.765,-190.554"/>
<g id="a_edge5&#45;headlabel"><a xlink:href="dir_000023_000057.html" target="_top" xlink:title="1">
<text text-anchor="middle" x="130.996" y="-192.055" font-family="Helvetica,sans-Serif" font-size="10.00">1</text>
</a>
</g>
</g>
<!-- dir_e7a58db5f0cefd26704296bdd4a65e45 -->
<g id="node7" class="node"><title>dir_e7a58db5f0cefd26704296bdd4a65e45</title>
<g id="a_node7"><a xlink:href="dir_e7a58db5f0cefd26704296bdd4a65e45.html" target="_top" xlink:title="cbtaps_display">
<polygon fill="none" stroke="black" points="499.5,-252 412.5,-252 412.5,-216 499.5,-216 499.5,-252"/>
<text text-anchor="middle" x="456" y="-231.5" font-family="Helvetica,sans-Serif" font-size="10.00">cbtaps_display</text>
</a>
</g>
</g>
<!-- dir_10d61e73231c9ac3a444e6ed8c0ef6ad&#45;&gt;dir_e7a58db5f0cefd26704296bdd4a65e45 -->
<g id="edge6" class="edge"><title>dir_10d61e73231c9ac3a444e6ed8c0ef6ad&#45;&gt;dir_e7a58db5f0cefd26704296bdd4a65e45</title>
<path fill="none" stroke="black" d="M158.675,-442.115C201.621,-434.456 267.686,-419.903 321,-396 373.303,-372.55 393.693,-369.919 428,-324 441.516,-305.909 448.615,-281.127 452.277,-262.307"/>
<polygon fill="black" stroke="black" points="455.756,-262.73 454.018,-252.279 448.859,-261.533 455.756,-262.73"/>
<g id="a_edge6&#45;headlabel"><a xlink:href="dir_000023_000059.html" target="_top" xlink:title="8">
<text text-anchor="middle" x="457.939" y="-264.257" font-family="Helvetica,sans-Serif" font-size="10.00">8</text>
</a>
</g>
</g>
<!-- dir_2eec376824a17f48dc36b4bd0c810e01 -->
<g id="node8" class="node"><title>dir_2eec376824a17f48dc36b4bd0c810e01</title>
<g id="a_node8"><a xlink:href="dir_2eec376824a17f48dc36b4bd0c810e01.html" target="_top" xlink:title="analysis">
<polygon fill="white" stroke="red" points="344.5,-324 289.5,-324 289.5,-288 344.5,-288 344.5,-324"/>
<text text-anchor="middle" x="317" y="-303.5" font-family="Helvetica,sans-Serif" font-size="10.00">analysis</text>
</a>
</g>
</g>
<!-- dir_10d61e73231c9ac3a444e6ed8c0ef6ad&#45;&gt;dir_2eec376824a17f48dc36b4bd0c810e01 -->
<g id="edge7" class="edge"><title>dir_10d61e73231c9ac3a444e6ed8c0ef6ad&#45;&gt;dir_2eec376824a17f48dc36b4bd0c810e01</title>
<path fill="none" stroke="black" d="M158.503,-448.536C200.489,-445.604 262.185,-434.419 298,-396 313.362,-379.521 317.506,-353.787 318.162,-334.221"/>
<polygon fill="black" stroke="black" points="321.662,-334.102 318.217,-324.083 314.663,-334.064 321.662,-334.102"/>
<g id="a_edge7&#45;headlabel"><a xlink:href="dir_000023_000003.html" target="_top" xlink:title="29">
<text text-anchor="middle" x="324.482" y="-335.212" font-family="Helvetica,sans-Serif" font-size="10.00">29</text>
</a>
</g>
</g>
<!-- dir_c44c95bf3b41c3321c6014770d618ac8&#45;&gt;dir_0af1587c8378955de40f48b4bd1869f0 -->
<g id="edge8" class="edge"><title>dir_c44c95bf3b41c3321c6014770d618ac8&#45;&gt;dir_0af1587c8378955de40f48b4bd1869f0</title>
<path fill="none" stroke="black" d="M249,-71.6966C249,-63.9827 249,-54.7125 249,-46.1124"/>
<polygon fill="black" stroke="black" points="252.5,-46.1043 249,-36.1043 245.5,-46.1044 252.5,-46.1043"/>
<g id="a_edge8&#45;headlabel"><a xlink:href="dir_000061_000018.html" target="_top" xlink:title="25">
<text text-anchor="middle" x="255.339" y="-47.199" font-family="Helvetica,sans-Serif" font-size="10.00">25</text>
</a>
</g>
</g>
<!-- dir_f1b881a94df93d2a183c4d8f47373448&#45;&gt;dir_0af1587c8378955de40f48b4bd1869f0 -->
<g id="edge9" class="edge"><title>dir_f1b881a94df93d2a183c4d8f47373448&#45;&gt;dir_0af1587c8378955de40f48b4bd1869f0</title>
<path fill="none" stroke="black" d="M289.301,-365.919C310.193,-357.423 336.252,-343.765 353,-324 380.078,-292.043 384,-276.886 384,-235 384,-235 384,-235 384,-161 384,-103.565 325.272,-60.1209 285.286,-37.1973"/>
<polygon fill="black" stroke="black" points="286.761,-34.013 276.319,-32.2171 283.362,-40.1324 286.761,-34.013"/>
<g id="a_edge9&#45;headlabel"><a xlink:href="dir_000016_000018.html" target="_top" xlink:title="111">
<text text-anchor="middle" x="291.282" y="-30.7763" font-family="Helvetica,sans-Serif" font-size="10.00">111</text>
</a>
</g>
</g>
<!-- dir_f1b881a94df93d2a183c4d8f47373448&#45;&gt;dir_c44c95bf3b41c3321c6014770d618ac8 -->
<g id="edge10" class="edge"><title>dir_f1b881a94df93d2a183c4d8f47373448&#45;&gt;dir_c44c95bf3b41c3321c6014770d618ac8</title>
<path fill="none" stroke="black" d="M255.583,-359.966C254.416,-312.291 251.109,-177.185 249.676,-118.63"/>
<polygon fill="black" stroke="black" points="253.167,-118.218 249.424,-108.306 246.169,-118.389 253.167,-118.218"/>
<g id="a_edge10&#45;headlabel"><a xlink:href="dir_000016_000061.html" target="_top" xlink:title="30">
<text text-anchor="middle" x="256.094" y="-119.242" font-family="Helvetica,sans-Serif" font-size="10.00">30</text>
</a>
</g>
</g>
<!-- dir_f1b881a94df93d2a183c4d8f47373448&#45;&gt;dir_c4f4646ab0f4a2967be5b6215a500c22 -->
<g id="edge11" class="edge"><title>dir_f1b881a94df93d2a183c4d8f47373448&#45;&gt;dir_c4f4646ab0f4a2967be5b6215a500c22</title>
<path fill="none" stroke="black" d="M241.404,-359.871C224.479,-335.35 197.725,-290.032 182.969,-261.259"/>
<polygon fill="black" stroke="black" points="186.045,-259.583 178.456,-252.189 179.778,-262.701 186.045,-259.583"/>
<g id="a_edge11&#45;headlabel"><a xlink:href="dir_000016_000040.html" target="_top" xlink:title="12">
<text text-anchor="middle" x="190.188" y="-259.037" font-family="Helvetica,sans-Serif" font-size="10.00">12</text>
</a>
</g>
</g>
<!-- dir_f1b881a94df93d2a183c4d8f47373448&#45;&gt;dir_5eb03804bf445589bf35c6aa84fb9a34 -->
<g id="edge12" class="edge"><title>dir_f1b881a94df93d2a183c4d8f47373448&#45;&gt;dir_5eb03804bf445589bf35c6aa84fb9a34</title>
<path fill="none" stroke="black" d="M229.903,-359.955C200.07,-338.752 152.812,-299.486 133,-252 124.839,-232.439 124.558,-208.305 126.058,-190.106"/>
<polygon fill="black" stroke="black" points="129.54,-190.466 127.101,-180.155 122.578,-189.736 129.54,-190.466"/>
<g id="a_edge12&#45;headlabel"><a xlink:href="dir_000016_000057.html" target="_top" xlink:title="3">
<text text-anchor="middle" x="131.989" y="-191.837" font-family="Helvetica,sans-Serif" font-size="10.00">3</text>
</a>
</g>
</g>
<!-- dir_f1b881a94df93d2a183c4d8f47373448&#45;&gt;dir_e7a58db5f0cefd26704296bdd4a65e45 -->
<g id="edge13" class="edge"><title>dir_f1b881a94df93d2a183c4d8f47373448&#45;&gt;dir_e7a58db5f0cefd26704296bdd4a65e45</title>
<path fill="none" stroke="black" d="M289.111,-370.87C319.944,-363.817 365.855,-349.742 398,-324 418.908,-307.257 434.76,-280.866 444.564,-261.163"/>
<polygon fill="black" stroke="black" points="447.741,-262.633 448.887,-252.1 441.423,-259.619 447.741,-262.633"/>
<g id="a_edge13&#45;headlabel"><a xlink:href="dir_000016_000059.html" target="_top" xlink:title="4">
<text text-anchor="middle" x="448.756" y="-264.599" font-family="Helvetica,sans-Serif" font-size="10.00">4</text>
</a>
</g>
</g>
<!-- dir_f1b881a94df93d2a183c4d8f47373448&#45;&gt;dir_2eec376824a17f48dc36b4bd0c810e01 -->
<g id="edge14" class="edge"><title>dir_f1b881a94df93d2a183c4d8f47373448&#45;&gt;dir_2eec376824a17f48dc36b4bd0c810e01</title>
<path fill="none" stroke="black" d="M265.163,-359.697C271.675,-351.22 280.513,-340.864 289.101,-331.583"/>
<polygon fill="black" stroke="black" points="291.854,-333.767 296.2,-324.104 286.777,-328.947 291.854,-333.767"/>
<g id="a_edge14&#45;headlabel"><a xlink:href="dir_000016_000003.html" target="_top" xlink:title="1">
<text text-anchor="middle" x="291.438" y="-335.829" font-family="Helvetica,sans-Serif" font-size="10.00">1</text>
</a>
</g>
</g>
<!-- dir_c4f4646ab0f4a2967be5b6215a500c22&#45;&gt;dir_0af1587c8378955de40f48b4bd1869f0 -->
<g id="edge15" class="edge"><title>dir_c4f4646ab0f4a2967be5b6215a500c22&#45;&gt;dir_0af1587c8378955de40f48b4bd1869f0</title>
<path fill="none" stroke="black" d="M175.223,-215.902C179.577,-185.77 190.8,-121.701 213,-72 217.242,-62.5024 223.189,-52.8713 229.029,-44.4716"/>
<polygon fill="black" stroke="black" points="231.973,-46.3742 235,-36.2212 226.302,-42.2701 231.973,-46.3742"/>
<g id="a_edge15&#45;headlabel"><a xlink:href="dir_000040_000018.html" target="_top" xlink:title="47">
<text text-anchor="middle" x="232.165" y="-48.4508" font-family="Helvetica,sans-Serif" font-size="10.00">47</text>
</a>
</g>
</g>
<!-- dir_c4f4646ab0f4a2967be5b6215a500c22&#45;&gt;dir_c44c95bf3b41c3321c6014770d618ac8 -->
<g id="edge16" class="edge"><title>dir_c4f4646ab0f4a2967be5b6215a500c22&#45;&gt;dir_c44c95bf3b41c3321c6014770d618ac8</title>
<path fill="none" stroke="black" d="M185.354,-215.751C192.389,-205.584 201.139,-192.334 208,-180 219.374,-159.554 230.361,-135.389 238.093,-117.403"/>
<polygon fill="black" stroke="black" points="241.352,-118.682 242.036,-108.109 234.908,-115.948 241.352,-118.682"/>
<g id="a_edge16&#45;headlabel"><a xlink:href="dir_000040_000061.html" target="_top" xlink:title="10">
<text text-anchor="middle" x="242.562" y="-120.6" font-family="Helvetica,sans-Serif" font-size="10.00">10</text>
</a>
</g>
</g>
<!-- dir_c4f4646ab0f4a2967be5b6215a500c22&#45;&gt;dir_f1b881a94df93d2a183c4d8f47373448 -->
<g id="edge17" class="edge"><title>dir_c4f4646ab0f4a2967be5b6215a500c22&#45;&gt;dir_f1b881a94df93d2a183c4d8f47373448</title>
<path fill="none" stroke="black" d="M187.638,-252.189C204.579,-276.745 231.331,-322.066 246.067,-350.812"/>
<polygon fill="black" stroke="black" points="242.986,-352.476 250.573,-359.871 249.254,-349.359 242.986,-352.476"/>
<g id="a_edge17&#45;headlabel"><a xlink:href="dir_000040_000016.html" target="_top" xlink:title="287">
<text text-anchor="middle" x="238.843" y="-348.022" font-family="Helvetica,sans-Serif" font-size="10.00">287</text>
</a>
</g>
</g>
<!-- dir_c4f4646ab0f4a2967be5b6215a500c22&#45;&gt;dir_5eb03804bf445589bf35c6aa84fb9a34 -->
<g id="edge18" class="edge"><title>dir_c4f4646ab0f4a2967be5b6215a500c22&#45;&gt;dir_5eb03804bf445589bf35c6aa84fb9a34</title>
<path fill="none" stroke="black" d="M156.455,-215.697C150.678,-207.644 144.478,-197.894 139.414,-188.982"/>
<polygon fill="black" stroke="black" points="142.448,-187.235 134.612,-180.104 136.291,-190.565 142.448,-187.235"/>
<g id="a_edge18&#45;headlabel"><a xlink:href="dir_000040_000057.html" target="_top" xlink:title="2">
<text text-anchor="middle" x="146.655" y="-186.546" font-family="Helvetica,sans-Serif" font-size="10.00">2</text>
</a>
</g>
</g>
<!-- dir_5eb03804bf445589bf35c6aa84fb9a34&#45;&gt;dir_0af1587c8378955de40f48b4bd1869f0 -->
<g id="edge19" class="edge"><title>dir_5eb03804bf445589bf35c6aa84fb9a34&#45;&gt;dir_0af1587c8378955de40f48b4bd1869f0</title>
<path fill="none" stroke="black" d="M137.052,-143.98C145.433,-125.058 160.738,-94.2373 180,-72 189.709,-60.7913 202.119,-50.3852 213.73,-41.8144"/>
<polygon fill="black" stroke="black" points="215.89,-44.5727 221.993,-35.9126 211.822,-38.8763 215.89,-44.5727"/>
<g id="a_edge19&#45;headlabel"><a xlink:href="dir_000057_000018.html" target="_top" xlink:title="11">
<text text-anchor="middle" x="214.615" y="-46.4723" font-family="Helvetica,sans-Serif" font-size="10.00">11</text>
</a>
</g>
</g>
<!-- dir_5eb03804bf445589bf35c6aa84fb9a34&#45;&gt;dir_c44c95bf3b41c3321c6014770d618ac8 -->
<g id="edge20" class="edge"><title>dir_5eb03804bf445589bf35c6aa84fb9a34&#45;&gt;dir_c44c95bf3b41c3321c6014770d618ac8</title>
<path fill="none" stroke="black" d="M159.111,-143.876C175.4,-134.294 195.843,-122.269 213.116,-112.108"/>
<polygon fill="black" stroke="black" points="214.977,-115.074 221.821,-106.987 211.427,-109.041 214.977,-115.074"/>
<g id="a_edge20&#45;headlabel"><a xlink:href="dir_000057_000061.html" target="_top" xlink:title="7">
<text text-anchor="middle" x="213.318" y="-116.844" font-family="Helvetica,sans-Serif" font-size="10.00">7</text>
</a>
</g>
</g>
<!-- dir_5eb03804bf445589bf35c6aa84fb9a34&#45;&gt;dir_c4f4646ab0f4a2967be5b6215a500c22 -->
<g id="edge21" class="edge"><title>dir_5eb03804bf445589bf35c6aa84fb9a34&#45;&gt;dir_c4f4646ab0f4a2967be5b6215a500c22</title>
<path fill="none" stroke="black" d="M146.402,-180.104C152.172,-188.129 158.377,-197.871 163.461,-206.797"/>
<polygon fill="black" stroke="black" points="160.443,-208.574 168.287,-215.697 166.596,-205.237 160.443,-208.574"/>
<g id="a_edge21&#45;headlabel"><a xlink:href="dir_000057_000040.html" target="_top" xlink:title="7">
<text text-anchor="middle" x="156.234" y="-204.268" font-family="Helvetica,sans-Serif" font-size="10.00">7</text>
</a>
</g>
</g>
<!-- dir_e7a58db5f0cefd26704296bdd4a65e45&#45;&gt;dir_0af1587c8378955de40f48b4bd1869f0 -->
<g id="edge22" class="edge"><title>dir_e7a58db5f0cefd26704296bdd4a65e45&#45;&gt;dir_0af1587c8378955de40f48b4bd1869f0</title>
<path fill="none" stroke="black" d="M454.572,-215.899C450.962,-183.424 438.627,-112.464 398,-72 367.896,-42.0167 319.74,-28.916 286.358,-23.2432"/>
<polygon fill="black" stroke="black" points="286.498,-19.7233 276.08,-21.6505 285.426,-26.6407 286.498,-19.7233"/>
<g id="a_edge22&#45;headlabel"><a xlink:href="dir_000059_000018.html" target="_top" xlink:title="3">
<text text-anchor="middle" x="290.485" y="-14.9679" font-family="Helvetica,sans-Serif" font-size="10.00">3</text>
</a>
</g>
</g>
<!-- dir_2eec376824a17f48dc36b4bd0c810e01&#45;&gt;dir_0af1587c8378955de40f48b4bd1869f0 -->
<g id="edge23" class="edge"><title>dir_2eec376824a17f48dc36b4bd0c810e01&#45;&gt;dir_0af1587c8378955de40f48b4bd1869f0</title>
<path fill="none" stroke="black" d="M320.138,-287.877C322.967,-269.911 326.227,-240.88 323,-216 314.485,-150.359 312.433,-132.239 285,-72 280.689,-62.5334 274.724,-52.9106 268.888,-44.509"/>
<polygon fill="black" stroke="black" points="271.619,-42.3129 262.928,-36.2535 265.944,-46.4102 271.619,-42.3129"/>
<g id="a_edge23&#45;headlabel"><a xlink:href="dir_000003_000018.html" target="_top" xlink:title="366">
<text text-anchor="middle" x="276.025" y="-41.0655" font-family="Helvetica,sans-Serif" font-size="10.00">366</text>
</a>
</g>
</g>
<!-- dir_2eec376824a17f48dc36b4bd0c810e01&#45;&gt;dir_c44c95bf3b41c3321c6014770d618ac8 -->
<g id="edge24" class="edge"><title>dir_2eec376824a17f48dc36b4bd0c810e01&#45;&gt;dir_c44c95bf3b41c3321c6014770d618ac8</title>
<path fill="none" stroke="black" d="M315.645,-287.926C312.794,-257.831 304.647,-193.817 284,-144 280.052,-134.474 274.318,-124.835 268.629,-116.437"/>
<polygon fill="black" stroke="black" points="271.428,-114.333 262.795,-108.192 265.714,-118.376 271.428,-114.333"/>
<g id="a_edge24&#45;headlabel"><a xlink:href="dir_000003_000061.html" target="_top" xlink:title="58">
<text text-anchor="middle" x="275.822" y="-113.127" font-family="Helvetica,sans-Serif" font-size="10.00">58</text>
</a>
</g>
</g>
<!-- dir_2eec376824a17f48dc36b4bd0c810e01&#45;&gt;dir_f1b881a94df93d2a183c4d8f47373448 -->
<g id="edge25" class="edge"><title>dir_2eec376824a17f48dc36b4bd0c810e01&#45;&gt;dir_f1b881a94df93d2a183c4d8f47373448</title>
<path fill="none" stroke="black" d="M307.99,-324.104C301.514,-332.552 292.693,-342.901 284.101,-352.199"/>
<polygon fill="black" stroke="black" points="281.333,-350.031 276.994,-359.697 286.414,-354.846 281.333,-350.031"/>
<g id="a_edge25&#45;headlabel"><a xlink:href="dir_000003_000016.html" target="_top" xlink:title="9">
<text text-anchor="middle" x="281.745" y="-342.969" font-family="Helvetica,sans-Serif" font-size="10.00">9</text>
</a>
</g>
</g>
<!-- dir_2eec376824a17f48dc36b4bd0c810e01&#45;&gt;dir_c4f4646ab0f4a2967be5b6215a500c22 -->
<g id="edge26" class="edge"><title>dir_2eec376824a17f48dc36b4bd0c810e01&#45;&gt;dir_c4f4646ab0f4a2967be5b6215a500c22</title>
<path fill="none" stroke="black" d="M289.235,-291.503C267.735,-281.051 237.641,-266.423 213.462,-254.669"/>
<polygon fill="black" stroke="black" points="214.703,-251.381 204.179,-250.157 211.643,-257.676 214.703,-251.381"/>
<g id="a_edge26&#45;headlabel"><a xlink:href="dir_000003_000040.html" target="_top" xlink:title="137">
<text text-anchor="middle" x="219.177" y="-247.899" font-family="Helvetica,sans-Serif" font-size="10.00">137</text>
</a>
</g>
</g>
<!-- dir_2eec376824a17f48dc36b4bd0c810e01&#45;&gt;dir_5eb03804bf445589bf35c6aa84fb9a34 -->
<g id="edge27" class="edge"><title>dir_2eec376824a17f48dc36b4bd0c810e01&#45;&gt;dir_5eb03804bf445589bf35c6aa84fb9a34</title>
<path fill="none" stroke="black" d="M298.489,-287.773C278.183,-269.211 244.306,-239.214 213,-216 198.67,-205.374 182.233,-194.605 167.787,-185.575"/>
<polygon fill="black" stroke="black" points="169.432,-182.477 159.086,-180.194 165.75,-188.431 169.432,-182.477"/>
<g id="a_edge27&#45;headlabel"><a xlink:href="dir_000003_000057.html" target="_top" xlink:title="1">
<text text-anchor="middle" x="173.983" y="-179.453" font-family="Helvetica,sans-Serif" font-size="10.00">1</text>
</a>
</g>
</g>
<!-- dir_2eec376824a17f48dc36b4bd0c810e01&#45;&gt;dir_e7a58db5f0cefd26704296bdd4a65e45 -->
<g id="edge28" class="edge"><title>dir_2eec376824a17f48dc36b4bd0c810e01&#45;&gt;dir_e7a58db5f0cefd26704296bdd4a65e45</title>
<path fill="none" stroke="black" d="M344.795,-291.003C364.274,-281.193 390.69,-267.89 412.889,-256.711"/>
<polygon fill="black" stroke="black" points="414.754,-259.69 422.111,-252.066 411.606,-253.438 414.754,-259.69"/>
<g id="a_edge28&#45;headlabel"><a xlink:href="dir_000003_000059.html" target="_top" xlink:title="15">
<text text-anchor="middle" x="412.821" y="-261.343" font-family="Helvetica,sans-Serif" font-size="10.00">15</text>
</a>
</g>
</g>
</g>
</svg>
