<?xml version="1.0" encoding="UTF-8" standalone="no"?>
<!DOCTYPE svg PUBLIC "-//W3C//DTD SVG 1.1//EN"
 "http://www.w3.org/Graphics/SVG/1.1/DTD/svg11.dtd">
<!-- Generated by graphviz version 2.38.0 (20140413.2041)
 -->
<!-- Title: src/mc/database/detail/gp_pOmega.h Pages: 1 -->
<svg width="1157pt" height="319pt"
 viewBox="0.00 0.00 1156.50 319.00" xmlns="http://www.w3.org/2000/svg" xmlns:xlink="http://www.w3.org/1999/xlink">
<g id="graph0" class="graph" transform="scale(1 1) rotate(0) translate(4 315)">
<title>src/mc/database/detail/gp_pOmega.h</title>
<polygon fill="white" stroke="none" points="-4,4 -4,-315 1152.5,-315 1152.5,4 -4,4"/>
<!-- Node0 -->
<g id="node1" class="node"><title>Node0</title>
<polygon fill="#bfbfbf" stroke="black" points="409,-280.5 409,-310.5 535,-310.5 535,-280.5 409,-280.5"/>
<text text-anchor="start" x="417" y="-298.5" font-family="Helvetica,sans-Serif" font-size="10.00">src/mc/database/detail</text>
<text text-anchor="middle" x="472" y="-287.5" font-family="Helvetica,sans-Serif" font-size="10.00">/gp_pOmega.h</text>
</g>
<!-- Node1 -->
<g id="node2" class="node"><title>Node1</title>
<g id="a_node2"><a xlink:href="_production_data_base_8h.html" target="_top" xlink:title="ProductionDataBase.h">
<polygon fill="white" stroke="black" points="410,-224.5 410,-243.5 534,-243.5 534,-224.5 410,-224.5"/>
<text text-anchor="middle" x="472" y="-231.5" font-family="Helvetica,sans-Serif" font-size="10.00">ProductionDataBase.h</text>
</a>
</g>
</g>
<!-- Node0&#45;&gt;Node1 -->
<g id="edge1" class="edge"><title>Node0&#45;&gt;Node1</title>
<path fill="none" stroke="midnightblue" d="M472,-280.399C472,-272.466 472,-262.458 472,-253.858"/>
<polygon fill="midnightblue" stroke="midnightblue" points="475.5,-253.658 472,-243.658 468.5,-253.658 475.5,-253.658"/>
</g>
<!-- Node2 -->
<g id="node3" class="node"><title>Node2</title>
<polygon fill="white" stroke="#bfbfbf" points="469.5,-56.5 469.5,-75.5 516.5,-75.5 516.5,-56.5 469.5,-56.5"/>
<text text-anchor="middle" x="493" y="-63.5" font-family="Helvetica,sans-Serif" font-size="10.00">vector</text>
</g>
<!-- Node1&#45;&gt;Node2 -->
<g id="edge2" class="edge"><title>Node1&#45;&gt;Node2</title>
<path fill="none" stroke="midnightblue" d="M473.129,-224.075C476.435,-197.945 486.142,-121.211 490.65,-85.577"/>
<polygon fill="midnightblue" stroke="midnightblue" points="494.133,-85.9283 491.916,-75.5681 487.189,-85.0497 494.133,-85.9283"/>
</g>
<!-- Node3 -->
<g id="node4" class="node"><title>Node3</title>
<g id="a_node4"><a xlink:href="_particle_type_tree_8h.html" target="_top" xlink:title="base/ParticleTypeTree.h">
<polygon fill="white" stroke="black" points="274.5,-168.5 274.5,-187.5 401.5,-187.5 401.5,-168.5 274.5,-168.5"/>
<text text-anchor="middle" x="338" y="-175.5" font-family="Helvetica,sans-Serif" font-size="10.00">base/ParticleTypeTree.h</text>
</a>
</g>
</g>
<!-- Node1&#45;&gt;Node3 -->
<g id="edge3" class="edge"><title>Node1&#45;&gt;Node3</title>
<path fill="none" stroke="midnightblue" d="M450.767,-224.444C428.616,-215.517 393.681,-201.439 368.564,-191.317"/>
<polygon fill="midnightblue" stroke="midnightblue" points="369.717,-188.008 359.133,-187.516 367.1,-194.501 369.717,-188.008"/>
</g>
<!-- Node27 -->
<g id="node28" class="node"><title>Node27</title>
<polygon fill="white" stroke="#bfbfbf" points="500.5,-168.5 500.5,-187.5 607.5,-187.5 607.5,-168.5 500.5,-168.5"/>
<text text-anchor="middle" x="554" y="-175.5" font-family="Helvetica,sans-Serif" font-size="10.00">Math/Interpolator.h</text>
</g>
<!-- Node1&#45;&gt;Node27 -->
<g id="edge32" class="edge"><title>Node1&#45;&gt;Node27</title>
<path fill="none" stroke="midnightblue" d="M485.175,-224.324C497.847,-215.979 517.233,-203.212 532.206,-193.352"/>
<polygon fill="midnightblue" stroke="midnightblue" points="534.431,-196.078 540.858,-187.655 530.581,-190.231 534.431,-196.078"/>
</g>
<!-- Node4 -->
<g id="node5" class="node"><title>Node4</title>
<g id="a_node5"><a xlink:href="_particle_type_8h.html" target="_top" xlink:title="ParticleType.h">
<polygon fill="white" stroke="black" points="276.5,-112.5 276.5,-131.5 357.5,-131.5 357.5,-112.5 276.5,-112.5"/>
<text text-anchor="middle" x="317" y="-119.5" font-family="Helvetica,sans-Serif" font-size="10.00">ParticleType.h</text>
</a>
</g>
</g>
<!-- Node3&#45;&gt;Node4 -->
<g id="edge4" class="edge"><title>Node3&#45;&gt;Node4</title>
<path fill="none" stroke="midnightblue" d="M334.532,-168.083C331.688,-160.77 327.571,-150.181 324.04,-141.103"/>
<polygon fill="midnightblue" stroke="midnightblue" points="327.29,-139.803 320.403,-131.751 320.766,-142.34 327.29,-139.803"/>
</g>
<!-- Node15 -->
<g id="node16" class="node"><title>Node15</title>
<polygon fill="white" stroke="#bfbfbf" points="61,-56.5 61,-75.5 99,-75.5 99,-56.5 61,-56.5"/>
<text text-anchor="middle" x="80" y="-63.5" font-family="Helvetica,sans-Serif" font-size="10.00">map</text>
</g>
<!-- Node3&#45;&gt;Node15 -->
<g id="edge31" class="edge"><title>Node3&#45;&gt;Node15</title>
<path fill="none" stroke="midnightblue" d="M317.755,-168.368C272.111,-148.908 161.073,-101.566 108.499,-79.1508"/>
<polygon fill="midnightblue" stroke="midnightblue" points="109.667,-75.8441 99.0958,-75.1416 106.922,-82.2832 109.667,-75.8441"/>
</g>
<!-- Node17 -->
<g id="node18" class="node"><title>Node17</title>
<g id="a_node18"><a xlink:href="_tree_8h.html" target="_top" xlink:title="Tree.h">
<polygon fill="white" stroke="black" points="698.5,-112.5 698.5,-131.5 743.5,-131.5 743.5,-112.5 698.5,-112.5"/>
<text text-anchor="middle" x="721" y="-119.5" font-family="Helvetica,sans-Serif" font-size="10.00">Tree.h</text>
</a>
</g>
</g>
<!-- Node3&#45;&gt;Node17 -->
<g id="edge19" class="edge"><title>Node3&#45;&gt;Node17</title>
<path fill="none" stroke="midnightblue" d="M398.687,-168.444C480.808,-156.865 624.404,-136.619 688.5,-127.582"/>
<polygon fill="midnightblue" stroke="midnightblue" points="689.028,-131.042 698.442,-126.181 688.051,-124.111 689.028,-131.042"/>
</g>
<!-- Node4&#45;&gt;Node2 -->
<g id="edge18" class="edge"><title>Node4&#45;&gt;Node2</title>
<path fill="none" stroke="midnightblue" d="M344.888,-112.444C376.071,-102.876 426.546,-87.3894 459.755,-77.2001"/>
<polygon fill="midnightblue" stroke="midnightblue" points="460.934,-80.4997 469.467,-74.2203 458.88,-73.8076 460.934,-80.4997"/>
</g>
<!-- Node5 -->
<g id="node6" class="node"><title>Node5</title>
<g id="a_node6"><a xlink:href="types_8h.html" target="_top" xlink:title="base/types.h">
<polygon fill="white" stroke="black" points="0,-0.5 0,-19.5 78,-19.5 78,-0.5 0,-0.5"/>
<text text-anchor="middle" x="39" y="-7.5" font-family="Helvetica,sans-Serif" font-size="10.00">base/types.h</text>
</a>
</g>
</g>
<!-- Node4&#45;&gt;Node5 -->
<g id="edge5" class="edge"><title>Node4&#45;&gt;Node5</title>
<path fill="none" stroke="midnightblue" d="M276.18,-113.715C240.836,-106.602 188.807,-94.18 146,-76 128.82,-68.7037 86.5308,-41.9408 60.5567,-25.1155"/>
<polygon fill="midnightblue" stroke="midnightblue" points="62.4089,-22.1451 52.1177,-19.6269 58.5924,-28.0131 62.4089,-22.1451"/>
</g>
<!-- Node6 -->
<g id="node7" class="node"><title>Node6</title>
<g id="a_node7"><a xlink:href="interval_8h.html" target="_top" xlink:title="base/interval.h">
<polygon fill="white" stroke="black" points="155.5,-56.5 155.5,-75.5 242.5,-75.5 242.5,-56.5 155.5,-56.5"/>
<text text-anchor="middle" x="199" y="-63.5" font-family="Helvetica,sans-Serif" font-size="10.00">base/interval.h</text>
</a>
</g>
</g>
<!-- Node4&#45;&gt;Node6 -->
<g id="edge6" class="edge"><title>Node4&#45;&gt;Node6</title>
<path fill="none" stroke="midnightblue" d="M298.303,-112.444C279.056,-103.636 248.848,-89.8116 226.8,-79.722"/>
<polygon fill="midnightblue" stroke="midnightblue" points="228.16,-76.4951 217.61,-75.5164 225.247,-82.8603 228.16,-76.4951"/>
</g>
<!-- Node13 -->
<g id="node14" class="node"><title>Node13</title>
<polygon fill="white" stroke="#bfbfbf" points="261,-56.5 261,-75.5 305,-75.5 305,-56.5 261,-56.5"/>
<text text-anchor="middle" x="283" y="-63.5" font-family="Helvetica,sans-Serif" font-size="10.00">string</text>
</g>
<!-- Node4&#45;&gt;Node13 -->
<g id="edge14" class="edge"><title>Node4&#45;&gt;Node13</title>
<path fill="none" stroke="midnightblue" d="M311.386,-112.083C306.633,-104.534 299.682,-93.4948 293.848,-84.2298"/>
<polygon fill="midnightblue" stroke="midnightblue" points="296.8,-82.3486 288.51,-75.7511 290.876,-86.0783 296.8,-82.3486"/>
</g>
<!-- Node14 -->
<g id="node15" class="node"><title>Node14</title>
<polygon fill="white" stroke="#bfbfbf" points="323.5,-56.5 323.5,-75.5 380.5,-75.5 380.5,-56.5 323.5,-56.5"/>
<text text-anchor="middle" x="352" y="-63.5" font-family="Helvetica,sans-Serif" font-size="10.00">ostream</text>
</g>
<!-- Node4&#45;&gt;Node14 -->
<g id="edge15" class="edge"><title>Node4&#45;&gt;Node14</title>
<path fill="none" stroke="midnightblue" d="M322.78,-112.083C327.672,-104.534 334.827,-93.4948 340.833,-84.2298"/>
<polygon fill="midnightblue" stroke="midnightblue" points="343.826,-86.0463 346.328,-75.7511 337.952,-82.239 343.826,-86.0463"/>
</g>
<!-- Node4&#45;&gt;Node15 -->
<g id="edge16" class="edge"><title>Node4&#45;&gt;Node15</title>
<path fill="none" stroke="midnightblue" d="M276.223,-112.621C234.944,-103.994 169.342,-89.8884 113,-76 111.735,-75.6882 110.445,-75.3638 109.142,-75.0311"/>
<polygon fill="midnightblue" stroke="midnightblue" points="109.715,-71.5626 99.1534,-72.3947 107.929,-78.3308 109.715,-71.5626"/>
</g>
<!-- Node16 -->
<g id="node17" class="node"><title>Node16</title>
<polygon fill="white" stroke="#bfbfbf" points="399,-56.5 399,-75.5 451,-75.5 451,-56.5 399,-56.5"/>
<text text-anchor="middle" x="425" y="-63.5" font-family="Helvetica,sans-Serif" font-size="10.00">iterator</text>
</g>
<!-- Node4&#45;&gt;Node16 -->
<g id="edge17" class="edge"><title>Node4&#45;&gt;Node16</title>
<path fill="none" stroke="midnightblue" d="M334.352,-112.324C351.672,-103.664 378.515,-90.2424 398.502,-80.249"/>
<polygon fill="midnightblue" stroke="midnightblue" points="400.312,-83.2572 407.691,-75.6545 397.181,-76.9962 400.312,-83.2572"/>
</g>
<!-- Node6&#45;&gt;Node5 -->
<g id="edge7" class="edge"><title>Node6&#45;&gt;Node5</title>
<path fill="none" stroke="midnightblue" d="M173.648,-56.4435C146.731,-47.3591 104.004,-32.9388 73.913,-22.7831"/>
<polygon fill="midnightblue" stroke="midnightblue" points="74.828,-19.3981 64.2339,-19.5164 72.5895,-26.0305 74.828,-19.3981"/>
</g>
<!-- Node7 -->
<g id="node8" class="node"><title>Node7</title>
<polygon fill="white" stroke="#bfbfbf" points="621,-0.5 621,-19.5 683,-19.5 683,-0.5 621,-0.5"/>
<text text-anchor="middle" x="652" y="-7.5" font-family="Helvetica,sans-Serif" font-size="10.00">algorithm</text>
</g>
<!-- Node6&#45;&gt;Node7 -->
<g id="edge8" class="edge"><title>Node6&#45;&gt;Node7</title>
<path fill="none" stroke="midnightblue" d="M242.643,-57.3893C245.806,-56.8989 248.95,-56.4301 252,-56 382.589,-37.5815 538.017,-21.8639 610.696,-14.8744"/>
<polygon fill="midnightblue" stroke="midnightblue" points="611.184,-18.3437 620.806,-13.9072 610.518,-11.3755 611.184,-18.3437"/>
</g>
<!-- Node8 -->
<g id="node9" class="node"><title>Node8</title>
<polygon fill="white" stroke="#bfbfbf" points="96,-0.5 96,-19.5 160,-19.5 160,-0.5 96,-0.5"/>
<text text-anchor="middle" x="128" y="-7.5" font-family="Helvetica,sans-Serif" font-size="10.00">stdexcept</text>
</g>
<!-- Node6&#45;&gt;Node8 -->
<g id="edge9" class="edge"><title>Node6&#45;&gt;Node8</title>
<path fill="none" stroke="midnightblue" d="M187.593,-56.324C176.891,-48.1849 160.659,-35.8395 147.837,-26.0874"/>
<polygon fill="midnightblue" stroke="midnightblue" points="149.693,-23.1018 139.615,-19.8339 145.456,-28.6734 149.693,-23.1018"/>
</g>
<!-- Node9 -->
<g id="node10" class="node"><title>Node9</title>
<polygon fill="white" stroke="#bfbfbf" points="178,-0.5 178,-19.5 220,-19.5 220,-0.5 178,-0.5"/>
<text text-anchor="middle" x="199" y="-7.5" font-family="Helvetica,sans-Serif" font-size="10.00">limits</text>
</g>
<!-- Node6&#45;&gt;Node9 -->
<g id="edge10" class="edge"><title>Node6&#45;&gt;Node9</title>
<path fill="none" stroke="midnightblue" d="M199,-56.083C199,-49.0059 199,-38.8611 199,-29.9865"/>
<polygon fill="midnightblue" stroke="midnightblue" points="202.5,-29.751 199,-19.7511 195.5,-29.7511 202.5,-29.751"/>
</g>
<!-- Node10 -->
<g id="node11" class="node"><title>Node10</title>
<polygon fill="white" stroke="#bfbfbf" points="238.5,-0.5 238.5,-19.5 291.5,-19.5 291.5,-0.5 238.5,-0.5"/>
<text text-anchor="middle" x="265" y="-7.5" font-family="Helvetica,sans-Serif" font-size="10.00">istream</text>
</g>
<!-- Node6&#45;&gt;Node10 -->
<g id="edge11" class="edge"><title>Node6&#45;&gt;Node10</title>
<path fill="none" stroke="midnightblue" d="M209.604,-56.324C219.456,-48.2631 234.351,-36.0765 246.215,-26.3695"/>
<polygon fill="midnightblue" stroke="midnightblue" points="248.68,-28.8752 254.203,-19.8339 244.247,-23.4575 248.68,-28.8752"/>
</g>
<!-- Node11 -->
<g id="node12" class="node"><title>Node11</title>
<polygon fill="white" stroke="#bfbfbf" points="310,-0.5 310,-19.5 366,-19.5 366,-0.5 310,-0.5"/>
<text text-anchor="middle" x="338" y="-7.5" font-family="Helvetica,sans-Serif" font-size="10.00">sstream</text>
</g>
<!-- Node6&#45;&gt;Node11 -->
<g id="edge12" class="edge"><title>Node6&#45;&gt;Node11</title>
<path fill="none" stroke="midnightblue" d="M221.025,-56.4435C244.104,-47.4776 280.562,-33.314 306.641,-23.1827"/>
<polygon fill="midnightblue" stroke="midnightblue" points="308.024,-26.4002 316.078,-19.5164 305.489,-19.8753 308.024,-26.4002"/>
</g>
<!-- Node12 -->
<g id="node13" class="node"><title>Node12</title>
<polygon fill="white" stroke="#bfbfbf" points="384.5,-0.5 384.5,-19.5 431.5,-19.5 431.5,-0.5 384.5,-0.5"/>
<text text-anchor="middle" x="408" y="-7.5" font-family="Helvetica,sans-Serif" font-size="10.00">cmath</text>
</g>
<!-- Node6&#45;&gt;Node12 -->
<g id="edge13" class="edge"><title>Node6&#45;&gt;Node12</title>
<path fill="none" stroke="midnightblue" d="M233.111,-56.4497C266.588,-48.0203 319.35,-34.6351 374.301,-20.1537"/>
<polygon fill="midnightblue" stroke="midnightblue" points="375.444,-23.4719 384.219,-17.5343 373.657,-16.7039 375.444,-23.4719"/>
</g>
<!-- Node17&#45;&gt;Node2 -->
<g id="edge26" class="edge"><title>Node17&#45;&gt;Node2</title>
<path fill="none" stroke="midnightblue" d="M698.411,-116.091C663.716,-108.486 595.005,-93.1686 526.816,-76.1273"/>
<polygon fill="midnightblue" stroke="midnightblue" points="527.315,-72.6439 516.764,-73.6013 525.609,-79.4329 527.315,-72.6439"/>
</g>
<!-- Node17&#45;&gt;Node7 -->
<g id="edge27" class="edge"><title>Node17&#45;&gt;Node7</title>
<path fill="none" stroke="midnightblue" d="M743.558,-114.281C774.398,-103.926 823.768,-82.4689 804,-56 778.669,-22.0833 728.904,-12.6783 693.212,-10.574"/>
<polygon fill="midnightblue" stroke="midnightblue" points="693.229,-7.07166 683.09,-10.1476 692.934,-14.0655 693.229,-7.07166"/>
</g>
<!-- Node18 -->
<g id="node19" class="node"><title>Node18</title>
<polygon fill="white" stroke="#bfbfbf" points="851.5,-56.5 851.5,-75.5 954.5,-75.5 954.5,-56.5 851.5,-56.5"/>
<text text-anchor="middle" x="903" y="-63.5" font-family="Helvetica,sans-Serif" font-size="10.00">cereal/access.hpp</text>
</g>
<!-- Node17&#45;&gt;Node18 -->
<g id="edge20" class="edge"><title>Node17&#45;&gt;Node18</title>
<path fill="none" stroke="midnightblue" d="M743.682,-114.27C773.906,-105.303 827.825,-89.3048 864.481,-78.4286"/>
<polygon fill="midnightblue" stroke="midnightblue" points="865.737,-81.7069 874.329,-75.5069 863.746,-74.996 865.737,-81.7069"/>
</g>
<!-- Node19 -->
<g id="node20" class="node"><title>Node19</title>
<g id="a_node20"><a xlink:href="variadic_8h.html" target="_top" xlink:title="std_ext/variadic.h">
<polygon fill="white" stroke="black" points="972.5,-56.5 972.5,-75.5 1073.5,-75.5 1073.5,-56.5 972.5,-56.5"/>
<text text-anchor="middle" x="1023" y="-63.5" font-family="Helvetica,sans-Serif" font-size="10.00">std_ext/variadic.h</text>
</a>
</g>
</g>
<!-- Node17&#45;&gt;Node19 -->
<g id="edge21" class="edge"><title>Node17&#45;&gt;Node19</title>
<path fill="none" stroke="midnightblue" d="M743.699,-116.941C790.345,-108.601 898.229,-89.3101 965.433,-77.2934"/>
<polygon fill="midnightblue" stroke="midnightblue" points="966.22,-80.7083 975.448,-75.5027 964.988,-73.8176 966.22,-80.7083"/>
</g>
<!-- Node22 -->
<g id="node23" class="node"><title>Node22</title>
<polygon fill="white" stroke="#bfbfbf" points="1091.5,-56.5 1091.5,-75.5 1148.5,-75.5 1148.5,-56.5 1091.5,-56.5"/>
<text text-anchor="middle" x="1120" y="-63.5" font-family="Helvetica,sans-Serif" font-size="10.00">memory</text>
</g>
<!-- Node17&#45;&gt;Node22 -->
<g id="edge24" class="edge"><title>Node17&#45;&gt;Node22</title>
<path fill="none" stroke="midnightblue" d="M743.589,-119.102C799.347,-114.225 948.104,-100.047 1081.41,-76.1189"/>
<polygon fill="midnightblue" stroke="midnightblue" points="1082.17,-79.5372 1091.39,-74.3041 1080.92,-72.6502 1082.17,-79.5372"/>
</g>
<!-- Node23 -->
<g id="node24" class="node"><title>Node23</title>
<polygon fill="white" stroke="#bfbfbf" points="535,-56.5 535,-75.5 565,-75.5 565,-56.5 535,-56.5"/>
<text text-anchor="middle" x="550" y="-63.5" font-family="Helvetica,sans-Serif" font-size="10.00">list</text>
</g>
<!-- Node17&#45;&gt;Node23 -->
<g id="edge25" class="edge"><title>Node17&#45;&gt;Node23</title>
<path fill="none" stroke="midnightblue" d="M698.448,-114.566C671.231,-106.701 623.898,-92.7012 574.713,-76.0973"/>
<polygon fill="midnightblue" stroke="midnightblue" points="575.779,-72.7632 565.185,-72.8555 573.524,-79.3901 575.779,-72.7632"/>
</g>
<!-- Node24 -->
<g id="node25" class="node"><title>Node24</title>
<polygon fill="white" stroke="#bfbfbf" points="583,-56.5 583,-75.5 635,-75.5 635,-56.5 583,-56.5"/>
<text text-anchor="middle" x="609" y="-63.5" font-family="Helvetica,sans-Serif" font-size="10.00">cassert</text>
</g>
<!-- Node17&#45;&gt;Node24 -->
<g id="edge28" class="edge"><title>Node17&#45;&gt;Node24</title>
<path fill="none" stroke="midnightblue" d="M703.005,-112.324C684.962,-103.625 656.953,-90.1202 636.197,-80.113"/>
<polygon fill="midnightblue" stroke="midnightblue" points="637.478,-76.8449 626.95,-75.6545 634.438,-83.1502 637.478,-76.8449"/>
</g>
<!-- Node25 -->
<g id="node26" class="node"><title>Node25</title>
<polygon fill="white" stroke="#bfbfbf" points="653,-56.5 653,-75.5 709,-75.5 709,-56.5 653,-56.5"/>
<text text-anchor="middle" x="681" y="-63.5" font-family="Helvetica,sans-Serif" font-size="10.00">numeric</text>
</g>
<!-- Node17&#45;&gt;Node25 -->
<g id="edge29" class="edge"><title>Node17&#45;&gt;Node25</title>
<path fill="none" stroke="midnightblue" d="M714.395,-112.083C708.745,-104.455 700.455,-93.2645 693.549,-83.9408"/>
<polygon fill="midnightblue" stroke="midnightblue" points="696.247,-81.7034 687.482,-75.7511 690.622,-85.87 696.247,-81.7034"/>
</g>
<!-- Node26 -->
<g id="node27" class="node"><title>Node26</title>
<polygon fill="white" stroke="#bfbfbf" points="727,-56.5 727,-75.5 795,-75.5 795,-56.5 727,-56.5"/>
<text text-anchor="middle" x="761" y="-63.5" font-family="Helvetica,sans-Serif" font-size="10.00">type_traits</text>
</g>
<!-- Node17&#45;&gt;Node26 -->
<g id="edge30" class="edge"><title>Node17&#45;&gt;Node26</title>
<path fill="none" stroke="midnightblue" d="M727.605,-112.083C733.255,-104.455 741.545,-93.2645 748.451,-83.9408"/>
<polygon fill="midnightblue" stroke="midnightblue" points="751.378,-85.87 754.518,-75.7511 745.753,-81.7034 751.378,-85.87"/>
</g>
<!-- Node20 -->
<g id="node21" class="node"><title>Node20</title>
<polygon fill="white" stroke="#bfbfbf" points="964,-0.5 964,-19.5 1016,-19.5 1016,-0.5 964,-0.5"/>
<text text-anchor="middle" x="990" y="-7.5" font-family="Helvetica,sans-Serif" font-size="10.00">cstddef</text>
</g>
<!-- Node19&#45;&gt;Node20 -->
<g id="edge22" class="edge"><title>Node19&#45;&gt;Node20</title>
<path fill="none" stroke="midnightblue" d="M1017.55,-56.083C1012.99,-48.6127 1006.33,-37.7244 1000.71,-28.5199"/>
<polygon fill="midnightblue" stroke="midnightblue" points="1003.55,-26.4588 995.348,-19.7511 997.576,-30.109 1003.55,-26.4588"/>
</g>
<!-- Node21 -->
<g id="node22" class="node"><title>Node21</title>
<polygon fill="white" stroke="#bfbfbf" points="1034.5,-0.5 1034.5,-19.5 1075.5,-19.5 1075.5,-0.5 1034.5,-0.5"/>
<text text-anchor="middle" x="1055" y="-7.5" font-family="Helvetica,sans-Serif" font-size="10.00">tuple</text>
</g>
<!-- Node19&#45;&gt;Node21 -->
<g id="edge23" class="edge"><title>Node19&#45;&gt;Node21</title>
<path fill="none" stroke="midnightblue" d="M1028.28,-56.083C1032.71,-48.6127 1039.16,-37.7244 1044.62,-28.5199"/>
<polygon fill="midnightblue" stroke="midnightblue" points="1047.73,-30.1383 1049.81,-19.7511 1041.71,-26.5697 1047.73,-30.1383"/>
</g>
</g>
</svg>
