<?xml version="1.0" encoding="UTF-8" standalone="no"?>
<!DOCTYPE svg PUBLIC "-//W3C//DTD SVG 1.1//EN"
 "http://www.w3.org/Graphics/SVG/1.1/DTD/svg11.dtd">
<!-- Generated by graphviz version 2.38.0 (20140413.2041)
 -->
<!-- Title: src/root&#45;addons/analysis_codes/histtools.h Pages: 1 -->
<svg width="298pt" height="106pt"
 viewBox="0.00 0.00 297.50 106.00" xmlns="http://www.w3.org/2000/svg" xmlns:xlink="http://www.w3.org/1999/xlink">
<g id="graph0" class="graph" transform="scale(1 1) rotate(0) translate(4 102)">
<title>src/root&#45;addons/analysis_codes/histtools.h</title>
<polygon fill="white" stroke="none" points="-4,4 -4,-102 293.5,-102 293.5,4 -4,4"/>
<!-- Node2 -->
<g id="node1" class="node"><title>Node2</title>
<polygon fill="#bfbfbf" stroke="black" points="77,-67.5 77,-97.5 211,-97.5 211,-67.5 77,-67.5"/>
<text text-anchor="start" x="85" y="-85.5" font-family="Helvetica,sans-Serif" font-size="10.00">src/root&#45;addons/analysis</text>
<text text-anchor="middle" x="144" y="-74.5" font-family="Helvetica,sans-Serif" font-size="10.00">_codes/histtools.h</text>
</g>
<!-- Node3 -->
<g id="node2" class="node"><title>Node3</title>
<g id="a_node2"><a xlink:href="histtools_8cc.html" target="_top" xlink:title="src/root&#45;addons/analysis\l_codes/histtools.cc">
<polygon fill="white" stroke="black" points="0,-0.5 0,-30.5 134,-30.5 134,-0.5 0,-0.5"/>
<text text-anchor="start" x="8" y="-18.5" font-family="Helvetica,sans-Serif" font-size="10.00">src/root&#45;addons/analysis</text>
<text text-anchor="middle" x="67" y="-7.5" font-family="Helvetica,sans-Serif" font-size="10.00">_codes/histtools.cc</text>
</a>
</g>
</g>
<!-- Node2&#45;&gt;Node3 -->
<g id="edge1" class="edge"><title>Node2&#45;&gt;Node3</title>
<path fill="none" stroke="midnightblue" d="M119.577,-60.8832C107.876,-51.0054 94.1624,-39.4293 83.6752,-30.5765"/>
<polygon fill="midnightblue" stroke="midnightblue" points="117.393,-63.6199 127.292,-67.396 121.908,-58.2709 117.393,-63.6199"/>
</g>
<!-- Node4 -->
<g id="node3" class="node"><title>Node4</title>
<g id="a_node3"><a xlink:href="_theta_c_b_toy_m_c_8cc.html" target="_top" xlink:title="src/root&#45;addons/analysis\l_codes/ThetaCBToyMC.cc">
<polygon fill="white" stroke="black" points="152.5,-0.5 152.5,-30.5 289.5,-30.5 289.5,-0.5 152.5,-0.5"/>
<text text-anchor="start" x="160.5" y="-18.5" font-family="Helvetica,sans-Serif" font-size="10.00">src/root&#45;addons/analysis</text>
<text text-anchor="middle" x="221" y="-7.5" font-family="Helvetica,sans-Serif" font-size="10.00">_codes/ThetaCBToyMC.cc</text>
</a>
</g>
</g>
<!-- Node2&#45;&gt;Node4 -->
<g id="edge2" class="edge"><title>Node2&#45;&gt;Node4</title>
<path fill="none" stroke="midnightblue" d="M168.423,-60.8832C180.124,-51.0054 193.838,-39.4293 204.325,-30.5765"/>
<polygon fill="midnightblue" stroke="midnightblue" points="166.092,-58.2709 160.708,-67.396 170.607,-63.6199 166.092,-58.2709"/>
</g>
</g>
</svg>
