<?xml version="1.0" encoding="UTF-8" standalone="no"?>
<!DOCTYPE svg PUBLIC "-//W3C//DTD SVG 1.1//EN"
 "http://www.w3.org/Graphics/SVG/1.1/DTD/svg11.dtd">
<!-- Generated by graphviz version 2.38.0 (20140413.2041)
 -->
<!-- Title: src/root&#45;addons/analysis_codes/hstack.h Pages: 1 -->
<svg width="748pt" height="263pt"
 viewBox="0.00 0.00 747.96 263.00" xmlns="http://www.w3.org/2000/svg" xmlns:xlink="http://www.w3.org/1999/xlink">
<g id="graph0" class="graph" transform="scale(1 1) rotate(0) translate(4 259)">
<title>src/root&#45;addons/analysis_codes/hstack.h</title>
<polygon fill="white" stroke="none" points="-4,4 -4,-259 743.957,-259 743.957,4 -4,4"/>
<!-- Node0 -->
<g id="node1" class="node"><title>Node0</title>
<polygon fill="#bfbfbf" stroke="black" points="322.957,-224.5 322.957,-254.5 456.957,-254.5 456.957,-224.5 322.957,-224.5"/>
<text text-anchor="start" x="330.957" y="-242.5" font-family="Helvetica,sans-Serif" font-size="10.00">src/root&#45;addons/analysis</text>
<text text-anchor="middle" x="389.957" y="-231.5" font-family="Helvetica,sans-Serif" font-size="10.00">_codes/hstack.h</text>
</g>
<!-- Node1 -->
<g id="node2" class="node"><title>Node1</title>
<polygon fill="white" stroke="#bfbfbf" points="29.9574,-112.5 29.9574,-131.5 87.9574,-131.5 87.9574,-112.5 29.9574,-112.5"/>
<text text-anchor="middle" x="58.9574" y="-119.5" font-family="Helvetica,sans-Serif" font-size="10.00">Rtypes.h</text>
</g>
<!-- Node0&#45;&gt;Node1 -->
<g id="edge1" class="edge"><title>Node0&#45;&gt;Node1</title>
<path fill="none" stroke="midnightblue" d="M322.712,-234.438C217.942,-227.416 25.5481,-211.468 4.9574,-188 -10.282,-170.631 13.6699,-150.031 34.3578,-136.749"/>
<polygon fill="midnightblue" stroke="midnightblue" points="36.1875,-139.733 42.9004,-131.536 32.5411,-133.758 36.1875,-139.733"/>
</g>
<!-- Node2 -->
<g id="node3" class="node"><title>Node2</title>
<polygon fill="white" stroke="#bfbfbf" points="14.4574,-168.5 14.4574,-187.5 79.4574,-187.5 79.4574,-168.5 14.4574,-168.5"/>
<text text-anchor="middle" x="46.9574" y="-175.5" font-family="Helvetica,sans-Serif" font-size="10.00">THStack.h</text>
</g>
<!-- Node0&#45;&gt;Node2 -->
<g id="edge2" class="edge"><title>Node0&#45;&gt;Node2</title>
<path fill="none" stroke="midnightblue" d="M322.881,-227.453C262.843,-217.471 172.443,-202.208 93.9574,-188 92.5012,-187.736 91.0201,-187.466 89.5246,-187.191"/>
<polygon fill="midnightblue" stroke="midnightblue" points="90.0299,-183.725 79.5576,-185.331 88.7459,-190.606 90.0299,-183.725"/>
</g>
<!-- Node3 -->
<g id="node4" class="node"><title>Node3</title>
<polygon fill="white" stroke="#bfbfbf" points="105.957,-112.5 105.957,-131.5 149.957,-131.5 149.957,-112.5 105.957,-112.5"/>
<text text-anchor="middle" x="127.957" y="-119.5" font-family="Helvetica,sans-Serif" font-size="10.00">string</text>
</g>
<!-- Node0&#45;&gt;Node3 -->
<g id="edge3" class="edge"><title>Node0&#45;&gt;Node3</title>
<path fill="none" stroke="midnightblue" d="M322.832,-235.079C253.273,-229.963 151.352,-217.525 126.957,-188 116.417,-175.243 118.279,-155.776 121.794,-141.471"/>
<polygon fill="midnightblue" stroke="midnightblue" points="125.193,-142.313 124.626,-131.734 118.472,-140.358 125.193,-142.313"/>
</g>
<!-- Node4 -->
<g id="node5" class="node"><title>Node4</title>
<polygon fill="white" stroke="#bfbfbf" points="561.457,-56.5 561.457,-75.5 608.457,-75.5 608.457,-56.5 561.457,-56.5"/>
<text text-anchor="middle" x="584.957" y="-63.5" font-family="Helvetica,sans-Serif" font-size="10.00">vector</text>
</g>
<!-- Node0&#45;&gt;Node4 -->
<g id="edge4" class="edge"><title>Node0&#45;&gt;Node4</title>
<path fill="none" stroke="midnightblue" d="M443.065,-224.396C465.792,-216.437 491.514,-204.666 510.957,-188 544.642,-159.126 567.568,-110.958 578.193,-84.9579"/>
<polygon fill="midnightblue" stroke="midnightblue" points="581.477,-86.169 581.88,-75.5819 574.963,-83.6071 581.477,-86.169"/>
</g>
<!-- Node5 -->
<g id="node6" class="node"><title>Node5</title>
<g id="a_node6"><a xlink:href="_root_draw_8h.html" target="_top" xlink:title="analysis/plot/RootDraw.h">
<polygon fill="white" stroke="black" points="323.957,-168.5 323.957,-187.5 455.957,-187.5 455.957,-168.5 323.957,-168.5"/>
<text text-anchor="middle" x="389.957" y="-175.5" font-family="Helvetica,sans-Serif" font-size="10.00">analysis/plot/RootDraw.h</text>
</a>
</g>
</g>
<!-- Node0&#45;&gt;Node5 -->
<g id="edge5" class="edge"><title>Node0&#45;&gt;Node5</title>
<path fill="none" stroke="midnightblue" d="M389.957,-224.399C389.957,-216.466 389.957,-206.458 389.957,-197.858"/>
<polygon fill="midnightblue" stroke="midnightblue" points="393.458,-197.658 389.957,-187.658 386.458,-197.658 393.458,-197.658"/>
</g>
<!-- Node7 -->
<g id="node8" class="node"><title>Node7</title>
<polygon fill="white" stroke="#bfbfbf" points="461.457,-112.5 461.457,-131.5 518.457,-131.5 518.457,-112.5 461.457,-112.5"/>
<text text-anchor="middle" x="489.957" y="-119.5" font-family="Helvetica,sans-Serif" font-size="10.00">memory</text>
</g>
<!-- Node0&#45;&gt;Node7 -->
<g id="edge34" class="edge"><title>Node0&#45;&gt;Node7</title>
<path fill="none" stroke="midnightblue" d="M419.171,-224.419C434.563,-215.747 452.731,-203.347 464.957,-188 475.776,-174.419 482.324,-155.62 485.988,-141.732"/>
<polygon fill="midnightblue" stroke="midnightblue" points="489.432,-142.377 488.335,-131.839 482.621,-140.761 489.432,-142.377"/>
</g>
<!-- Node8 -->
<g id="node9" class="node"><title>Node8</title>
<polygon fill="white" stroke="#bfbfbf" points="168.457,-112.5 168.457,-131.5 231.457,-131.5 231.457,-112.5 168.457,-112.5"/>
<text text-anchor="middle" x="199.957" y="-119.5" font-family="Helvetica,sans-Serif" font-size="10.00">functional</text>
</g>
<!-- Node0&#45;&gt;Node8 -->
<g id="edge36" class="edge"><title>Node0&#45;&gt;Node8</title>
<path fill="none" stroke="midnightblue" d="M367.325,-224.326C344.379,-209.997 307.811,-187.277 275.957,-168 258.358,-157.349 238.333,-145.503 223.258,-136.64"/>
<polygon fill="midnightblue" stroke="midnightblue" points="224.973,-133.588 214.577,-131.544 221.429,-139.625 224.973,-133.588"/>
</g>
<!-- Node10 -->
<g id="node11" class="node"><title>Node10</title>
<g id="a_node11"><a xlink:href="interval_8h.html" target="_top" xlink:title="base/interval.h">
<polygon fill="white" stroke="black" points="456.457,-56.5 456.457,-75.5 543.457,-75.5 543.457,-56.5 456.457,-56.5"/>
<text text-anchor="middle" x="499.957" y="-63.5" font-family="Helvetica,sans-Serif" font-size="10.00">base/interval.h</text>
</a>
</g>
</g>
<!-- Node0&#45;&gt;Node10 -->
<g id="edge29" class="edge"><title>Node0&#45;&gt;Node10</title>
<path fill="none" stroke="midnightblue" d="M426.217,-224.396C461.387,-208.274 511.619,-178.014 526.957,-132 532.546,-115.234 523.203,-96.6666 514.015,-83.6838"/>
<polygon fill="midnightblue" stroke="midnightblue" points="516.733,-81.4763 507.865,-75.6788 511.182,-85.741 516.733,-81.4763"/>
</g>
<!-- Node19 -->
<g id="node20" class="node"><title>Node19</title>
<g id="a_node20"><a xlink:href="_hist_style_8h.html" target="_top" xlink:title="analysis/plot/HistStyle.h">
<polygon fill="white" stroke="black" points="136.457,-168.5 136.457,-187.5 267.457,-187.5 267.457,-168.5 136.457,-168.5"/>
<text text-anchor="middle" x="201.957" y="-175.5" font-family="Helvetica,sans-Serif" font-size="10.00">analysis/plot/HistStyle.h</text>
</a>
</g>
</g>
<!-- Node0&#45;&gt;Node19 -->
<g id="edge25" class="edge"><title>Node0&#45;&gt;Node19</title>
<path fill="none" stroke="midnightblue" d="M345.404,-224.399C312.918,-214.118 269.418,-200.351 238.868,-190.682"/>
<polygon fill="midnightblue" stroke="midnightblue" points="239.629,-187.252 229.039,-187.571 237.516,-193.925 239.629,-187.252"/>
</g>
<!-- Node20 -->
<g id="node21" class="node"><title>Node20</title>
<g id="a_node21"><a xlink:href="base_2std__ext_2math_8h.html" target="_top" xlink:title="base/std_ext/math.h">
<polygon fill="white" stroke="black" points="612.957,-112.5 612.957,-131.5 728.957,-131.5 728.957,-112.5 612.957,-112.5"/>
<text text-anchor="middle" x="670.957" y="-119.5" font-family="Helvetica,sans-Serif" font-size="10.00">base/std_ext/math.h</text>
</a>
</g>
</g>
<!-- Node0&#45;&gt;Node20 -->
<g id="edge30" class="edge"><title>Node0&#45;&gt;Node20</title>
<path fill="none" stroke="midnightblue" d="M456.976,-230.934C499.532,-224.093 554.722,-211.352 598.957,-188 622.113,-175.776 643.701,-154.423 657.084,-139.54"/>
<polygon fill="midnightblue" stroke="midnightblue" points="660.034,-141.481 663.965,-131.642 654.757,-136.882 660.034,-141.481"/>
</g>
<!-- Node21 -->
<g id="node22" class="node"><title>Node21</title>
<polygon fill="white" stroke="#bfbfbf" points="650.957,-168.5 650.957,-187.5 688.957,-187.5 688.957,-168.5 650.957,-168.5"/>
<text text-anchor="middle" x="669.957" y="-175.5" font-family="Helvetica,sans-Serif" font-size="10.00">map</text>
</g>
<!-- Node0&#45;&gt;Node21 -->
<g id="edge35" class="edge"><title>Node0&#45;&gt;Node21</title>
<path fill="none" stroke="midnightblue" d="M457.046,-225.999C506.871,-216.42 576.392,-202.434 636.957,-188 638.225,-187.698 639.517,-187.382 640.821,-187.056"/>
<polygon fill="midnightblue" stroke="midnightblue" points="642.025,-190.359 650.816,-184.445 640.256,-183.586 642.025,-190.359"/>
</g>
<!-- Node5&#45;&gt;Node1 -->
<g id="edge24" class="edge"><title>Node5&#45;&gt;Node1</title>
<path fill="none" stroke="midnightblue" d="M324.529,-168.482C267.246,-160.675 181.578,-148.159 98.2502,-132.131"/>
<polygon fill="midnightblue" stroke="midnightblue" points="98.8493,-128.682 88.3654,-130.211 97.5144,-135.554 98.8493,-128.682"/>
</g>
<!-- Node5&#45;&gt;Node3 -->
<g id="edge6" class="edge"><title>Node5&#45;&gt;Node3</title>
<path fill="none" stroke="midnightblue" d="M339.203,-168.471C294.412,-160.638 227.178,-148.139 160.132,-132.12"/>
<polygon fill="midnightblue" stroke="midnightblue" points="160.786,-128.677 150.244,-129.731 159.142,-135.481 160.786,-128.677"/>
</g>
<!-- Node5&#45;&gt;Node4 -->
<g id="edge8" class="edge"><title>Node5&#45;&gt;Node4</title>
<path fill="none" stroke="midnightblue" d="M396.17,-168.128C406.319,-154.257 427.763,-127.428 451.957,-112 468.675,-101.34 517.849,-86.0577 551.482,-76.3314"/>
<polygon fill="midnightblue" stroke="midnightblue" points="552.716,-79.6188 561.367,-73.5026 550.79,-72.8889 552.716,-79.6188"/>
</g>
<!-- Node6 -->
<g id="node7" class="node"><title>Node6</title>
<polygon fill="white" stroke="#bfbfbf" points="249.957,-112.5 249.957,-131.5 279.957,-131.5 279.957,-112.5 249.957,-112.5"/>
<text text-anchor="middle" x="264.957" y="-119.5" font-family="Helvetica,sans-Serif" font-size="10.00">list</text>
</g>
<!-- Node5&#45;&gt;Node6 -->
<g id="edge7" class="edge"><title>Node5&#45;&gt;Node6</title>
<path fill="none" stroke="midnightblue" d="M370.151,-168.444C348.225,-158.972 312.871,-143.699 289.28,-133.507"/>
<polygon fill="midnightblue" stroke="midnightblue" points="290.532,-130.235 279.963,-129.483 287.755,-136.661 290.532,-130.235"/>
</g>
<!-- Node5&#45;&gt;Node7 -->
<g id="edge9" class="edge"><title>Node5&#45;&gt;Node7</title>
<path fill="none" stroke="midnightblue" d="M406.024,-168.324C421.915,-159.743 446.465,-146.486 464.916,-136.522"/>
<polygon fill="midnightblue" stroke="midnightblue" points="466.795,-139.486 473.931,-131.655 463.468,-133.326 466.795,-139.486"/>
</g>
<!-- Node5&#45;&gt;Node8 -->
<g id="edge10" class="edge"><title>Node5&#45;&gt;Node8</title>
<path fill="none" stroke="midnightblue" d="M359.851,-168.444C327.332,-159.201 275.379,-144.436 239.566,-134.257"/>
<polygon fill="midnightblue" stroke="midnightblue" points="240.499,-130.884 229.923,-131.516 238.585,-137.617 240.499,-130.884"/>
</g>
<!-- Node9 -->
<g id="node10" class="node"><title>Node9</title>
<g id="a_node10"><a xlink:href="_bin_settings_8h.html" target="_top" xlink:title="base/BinSettings.h">
<polygon fill="white" stroke="black" points="297.457,-112.5 297.457,-131.5 404.457,-131.5 404.457,-112.5 297.457,-112.5"/>
<text text-anchor="middle" x="350.957" y="-119.5" font-family="Helvetica,sans-Serif" font-size="10.00">base/BinSettings.h</text>
</a>
</g>
</g>
<!-- Node5&#45;&gt;Node9 -->
<g id="edge11" class="edge"><title>Node5&#45;&gt;Node9</title>
<path fill="none" stroke="midnightblue" d="M383.517,-168.083C378.009,-160.455 369.926,-149.264 363.192,-139.941"/>
<polygon fill="midnightblue" stroke="midnightblue" points="365.97,-137.809 357.278,-131.751 360.295,-141.907 365.97,-137.809"/>
</g>
<!-- Node9&#45;&gt;Node4 -->
<g id="edge20" class="edge"><title>Node9&#45;&gt;Node4</title>
<path fill="none" stroke="midnightblue" d="M391.51,-112.494C430.131,-104.266 490.12,-91.1546 551.362,-76.0592"/>
<polygon fill="midnightblue" stroke="midnightblue" points="552.335,-79.424 561.198,-73.6199 550.65,-72.6298 552.335,-79.424"/>
</g>
<!-- Node9&#45;&gt;Node10 -->
<g id="edge12" class="edge"><title>Node9&#45;&gt;Node10</title>
<path fill="none" stroke="midnightblue" d="M374.567,-112.444C399.415,-103.438 438.732,-89.1891 466.711,-79.049"/>
<polygon fill="midnightblue" stroke="midnightblue" points="468.249,-82.2144 476.458,-75.5164 465.864,-75.6332 468.249,-82.2144"/>
</g>
<!-- Node13 -->
<g id="node14" class="node"><title>Node13</title>
<polygon fill="white" stroke="#bfbfbf" points="253.957,-0.5 253.957,-19.5 317.957,-19.5 317.957,-0.5 253.957,-0.5"/>
<text text-anchor="middle" x="285.957" y="-7.5" font-family="Helvetica,sans-Serif" font-size="10.00">stdexcept</text>
</g>
<!-- Node9&#45;&gt;Node13 -->
<g id="edge21" class="edge"><title>Node9&#45;&gt;Node13</title>
<path fill="none" stroke="midnightblue" d="M345.857,-112.368C335.178,-94.2957 310.289,-52.1764 296.184,-28.3074"/>
<polygon fill="midnightblue" stroke="midnightblue" points="299.135,-26.4201 291.034,-19.5914 293.108,-29.9813 299.135,-26.4201"/>
</g>
<!-- Node15 -->
<g id="node16" class="node"><title>Node15</title>
<polygon fill="white" stroke="#bfbfbf" points="336.457,-0.5 336.457,-19.5 389.457,-19.5 389.457,-0.5 336.457,-0.5"/>
<text text-anchor="middle" x="362.957" y="-7.5" font-family="Helvetica,sans-Serif" font-size="10.00">istream</text>
</g>
<!-- Node9&#45;&gt;Node15 -->
<g id="edge22" class="edge"><title>Node9&#45;&gt;Node15</title>
<path fill="none" stroke="midnightblue" d="M351.899,-112.368C353.836,-94.617 358.303,-53.6664 360.929,-29.5974"/>
<polygon fill="midnightblue" stroke="midnightblue" points="364.415,-29.912 362.02,-19.5914 357.456,-29.1528 364.415,-29.912"/>
</g>
<!-- Node18 -->
<g id="node19" class="node"><title>Node18</title>
<polygon fill="white" stroke="#bfbfbf" points="239.457,-56.5 239.457,-75.5 296.457,-75.5 296.457,-56.5 239.457,-56.5"/>
<text text-anchor="middle" x="267.957" y="-63.5" font-family="Helvetica,sans-Serif" font-size="10.00">ostream</text>
</g>
<!-- Node9&#45;&gt;Node18 -->
<g id="edge23" class="edge"><title>Node9&#45;&gt;Node18</title>
<path fill="none" stroke="midnightblue" d="M337.622,-112.324C324.795,-103.979 305.172,-91.2122 290.018,-81.3524"/>
<polygon fill="midnightblue" stroke="midnightblue" points="291.551,-78.1742 281.26,-75.6545 287.733,-84.0417 291.551,-78.1742"/>
</g>
<!-- Node11 -->
<g id="node12" class="node"><title>Node11</title>
<g id="a_node12"><a xlink:href="types_8h.html" target="_top" xlink:title="types.h">
<polygon fill="white" stroke="black" points="407.957,-0.5 407.957,-19.5 459.957,-19.5 459.957,-0.5 407.957,-0.5"/>
<text text-anchor="middle" x="433.957" y="-7.5" font-family="Helvetica,sans-Serif" font-size="10.00">types.h</text>
</a>
</g>
</g>
<!-- Node10&#45;&gt;Node11 -->
<g id="edge13" class="edge"><title>Node10&#45;&gt;Node11</title>
<path fill="none" stroke="midnightblue" d="M489.353,-56.324C479.501,-48.2631 464.606,-36.0765 452.742,-26.3695"/>
<polygon fill="midnightblue" stroke="midnightblue" points="454.71,-23.4575 444.754,-19.8339 450.278,-28.8752 454.71,-23.4575"/>
</g>
<!-- Node12 -->
<g id="node13" class="node"><title>Node12</title>
<polygon fill="white" stroke="#bfbfbf" points="477.957,-0.5 477.957,-19.5 539.957,-19.5 539.957,-0.5 477.957,-0.5"/>
<text text-anchor="middle" x="508.957" y="-7.5" font-family="Helvetica,sans-Serif" font-size="10.00">algorithm</text>
</g>
<!-- Node10&#45;&gt;Node12 -->
<g id="edge14" class="edge"><title>Node10&#45;&gt;Node12</title>
<path fill="none" stroke="midnightblue" d="M501.444,-56.083C502.636,-48.9272 504.352,-38.6353 505.842,-29.6911"/>
<polygon fill="midnightblue" stroke="midnightblue" points="509.307,-30.1904 507.499,-19.7511 502.402,-29.0396 509.307,-30.1904"/>
</g>
<!-- Node10&#45;&gt;Node13 -->
<g id="edge15" class="edge"><title>Node10&#45;&gt;Node13</title>
<path fill="none" stroke="midnightblue" d="M466.048,-56.4435C428.565,-46.985 368.158,-31.7421 327.771,-21.551"/>
<polygon fill="midnightblue" stroke="midnightblue" points="328.513,-18.1286 317.96,-19.0755 326.8,-24.9158 328.513,-18.1286"/>
</g>
<!-- Node14 -->
<g id="node15" class="node"><title>Node14</title>
<polygon fill="white" stroke="#bfbfbf" points="697.957,-0.5 697.957,-19.5 739.957,-19.5 739.957,-0.5 697.957,-0.5"/>
<text text-anchor="middle" x="718.957" y="-7.5" font-family="Helvetica,sans-Serif" font-size="10.00">limits</text>
</g>
<!-- Node10&#45;&gt;Node14 -->
<g id="edge16" class="edge"><title>Node10&#45;&gt;Node14</title>
<path fill="none" stroke="midnightblue" d="M538.853,-56.4291C575.084,-48.2921 630.815,-35.3873 687.797,-20.2017"/>
<polygon fill="midnightblue" stroke="midnightblue" points="688.945,-23.5175 697.695,-17.5438 687.13,-16.757 688.945,-23.5175"/>
</g>
<!-- Node10&#45;&gt;Node15 -->
<g id="edge17" class="edge"><title>Node10&#45;&gt;Node15</title>
<path fill="none" stroke="midnightblue" d="M478.249,-56.4435C455.603,-47.5171 419.885,-33.4387 394.206,-23.3168"/>
<polygon fill="midnightblue" stroke="midnightblue" points="395.151,-19.9273 384.564,-19.5164 392.584,-26.4397 395.151,-19.9273"/>
</g>
<!-- Node16 -->
<g id="node17" class="node"><title>Node16</title>
<polygon fill="white" stroke="#bfbfbf" points="557.957,-0.5 557.957,-19.5 613.957,-19.5 613.957,-0.5 557.957,-0.5"/>
<text text-anchor="middle" x="585.957" y="-7.5" font-family="Helvetica,sans-Serif" font-size="10.00">sstream</text>
</g>
<!-- Node10&#45;&gt;Node16 -->
<g id="edge18" class="edge"><title>Node10&#45;&gt;Node16</title>
<path fill="none" stroke="midnightblue" d="M513.775,-56.324C527.19,-47.9002 547.782,-34.9709 563.543,-25.0741"/>
<polygon fill="midnightblue" stroke="midnightblue" points="565.567,-27.9364 572.174,-19.6545 561.844,-22.0081 565.567,-27.9364"/>
</g>
<!-- Node17 -->
<g id="node18" class="node"><title>Node17</title>
<polygon fill="white" stroke="#bfbfbf" points="632.457,-0.5 632.457,-19.5 679.457,-19.5 679.457,-0.5 632.457,-0.5"/>
<text text-anchor="middle" x="655.957" y="-7.5" font-family="Helvetica,sans-Serif" font-size="10.00">cmath</text>
</g>
<!-- Node10&#45;&gt;Node17 -->
<g id="edge19" class="edge"><title>Node10&#45;&gt;Node17</title>
<path fill="none" stroke="midnightblue" d="M524.676,-56.4435C551.113,-47.2922 593.193,-32.726 622.563,-22.5594"/>
<polygon fill="midnightblue" stroke="midnightblue" points="624.071,-25.7416 632.376,-19.1629 621.781,-19.1267 624.071,-25.7416"/>
</g>
<!-- Node19&#45;&gt;Node1 -->
<g id="edge26" class="edge"><title>Node19&#45;&gt;Node1</title>
<path fill="none" stroke="midnightblue" d="M179.299,-168.444C155.555,-159.478 118.048,-145.314 91.219,-135.183"/>
<polygon fill="midnightblue" stroke="midnightblue" points="92.1019,-131.775 81.5102,-131.516 89.6289,-138.324 92.1019,-131.775"/>
</g>
<!-- Node19&#45;&gt;Node3 -->
<g id="edge27" class="edge"><title>Node19&#45;&gt;Node3</title>
<path fill="none" stroke="midnightblue" d="M190.068,-168.324C178.807,-160.107 161.671,-147.602 148.248,-137.807"/>
<polygon fill="midnightblue" stroke="midnightblue" points="150.204,-134.901 140.063,-131.834 146.078,-140.556 150.204,-134.901"/>
</g>
<!-- Node19&#45;&gt;Node8 -->
<g id="edge28" class="edge"><title>Node19&#45;&gt;Node8</title>
<path fill="none" stroke="midnightblue" d="M201.627,-168.083C201.365,-161.006 200.989,-150.861 200.661,-141.986"/>
<polygon fill="midnightblue" stroke="midnightblue" points="204.149,-141.615 200.282,-131.751 197.154,-141.874 204.149,-141.615"/>
</g>
<!-- Node20&#45;&gt;Node4 -->
<g id="edge33" class="edge"><title>Node20&#45;&gt;Node4</title>
<path fill="none" stroke="midnightblue" d="M657.14,-112.324C643.724,-103.9 623.133,-90.9709 607.372,-81.0741"/>
<polygon fill="midnightblue" stroke="midnightblue" points="609.071,-78.0081 598.741,-75.6545 605.348,-83.9364 609.071,-78.0081"/>
</g>
<!-- Node20&#45;&gt;Node14 -->
<g id="edge32" class="edge"><title>Node20&#45;&gt;Node14</title>
<path fill="none" stroke="midnightblue" d="M674.724,-112.368C682.54,-94.4563 700.664,-52.9233 711.125,-28.9482"/>
<polygon fill="midnightblue" stroke="midnightblue" points="714.417,-30.1566 715.208,-19.5914 708.001,-27.357 714.417,-30.1566"/>
</g>
<!-- Node20&#45;&gt;Node17 -->
<g id="edge31" class="edge"><title>Node20&#45;&gt;Node17</title>
<path fill="none" stroke="midnightblue" d="M669.78,-112.368C667.36,-94.617 661.776,-53.6664 658.493,-29.5974"/>
<polygon fill="midnightblue" stroke="midnightblue" points="661.948,-29.0268 657.129,-19.5914 655.012,-29.9726 661.948,-29.0268"/>
</g>
</g>
</svg>
