<?xml version="1.0" encoding="UTF-8" standalone="no"?>
<!DOCTYPE svg PUBLIC "-//W3C//DTD SVG 1.1//EN"
 "http://www.w3.org/Graphics/SVG/1.1/DTD/svg11.dtd">
<!-- Generated by graphviz version 2.38.0 (20140413.2041)
 -->
<!-- Title: src/root&#45;addons/analysis_codes/hstack.h Pages: 1 -->
<svg width="2111pt" height="184pt"
 viewBox="0.00 0.00 2111.00 184.00" xmlns="http://www.w3.org/2000/svg" xmlns:xlink="http://www.w3.org/1999/xlink">
<g id="graph0" class="graph" transform="scale(1 1) rotate(0) translate(4 180)">
<title>src/root&#45;addons/analysis_codes/hstack.h</title>
<polygon fill="white" stroke="none" points="-4,4 -4,-180 2107,-180 2107,4 -4,4"/>
<!-- Node22 -->
<g id="node1" class="node"><title>Node22</title>
<polygon fill="#bfbfbf" stroke="black" points="744,-145.5 744,-175.5 878,-175.5 878,-145.5 744,-145.5"/>
<text text-anchor="start" x="752" y="-163.5" font-family="Helvetica,sans-Serif" font-size="10.00">src/root&#45;addons/analysis</text>
<text text-anchor="middle" x="811" y="-152.5" font-family="Helvetica,sans-Serif" font-size="10.00">_codes/hstack.h</text>
</g>
<!-- Node23 -->
<g id="node2" class="node"><title>Node23</title>
<g id="a_node2"><a xlink:href="_ant-mcdatabase-viewer_8cc.html" target="_top" xlink:title="progs/Ant&#45;mcdatabase\l&#45;viewer.cc">
<polygon fill="white" stroke="black" points="63.5,-78.5 63.5,-108.5 190.5,-108.5 190.5,-78.5 63.5,-78.5"/>
<text text-anchor="start" x="71.5" y="-96.5" font-family="Helvetica,sans-Serif" font-size="10.00">progs/Ant&#45;mcdatabase</text>
<text text-anchor="middle" x="127" y="-85.5" font-family="Helvetica,sans-Serif" font-size="10.00">&#45;viewer.cc</text>
</a>
</g>
</g>
<!-- Node22&#45;&gt;Node23 -->
<g id="edge1" class="edge"><title>Node22&#45;&gt;Node23</title>
<path fill="none" stroke="midnightblue" d="M733.596,-155.926C617.315,-149.921 390.826,-135.75 200,-109 196.929,-108.57 193.792,-108.092 190.629,-107.581"/>
<polygon fill="midnightblue" stroke="midnightblue" points="733.654,-159.434 743.82,-156.448 734.011,-152.443 733.654,-159.434"/>
</g>
<!-- Node24 -->
<g id="node3" class="node"><title>Node24</title>
<g id="a_node3"><a xlink:href="process_etap_tree_8cc.html" target="_top" xlink:title="progs/processEtapTree.cc">
<polygon fill="white" stroke="black" points="208.5,-84 208.5,-103 347.5,-103 347.5,-84 208.5,-84"/>
<text text-anchor="middle" x="278" y="-91" font-family="Helvetica,sans-Serif" font-size="10.00">progs/processEtapTree.cc</text>
</a>
</g>
</g>
<!-- Node22&#45;&gt;Node24 -->
<g id="edge2" class="edge"><title>Node22&#45;&gt;Node24</title>
<path fill="none" stroke="midnightblue" d="M733.709,-152.583C643.188,-144.093 488.832,-128.406 357,-109 345.412,-107.294 332.922,-105.147 321.371,-103.031"/>
<polygon fill="midnightblue" stroke="midnightblue" points="733.603,-156.088 743.885,-153.532 734.253,-149.118 733.603,-156.088"/>
</g>
<!-- Node25 -->
<g id="node4" class="node"><title>Node25</title>
<g id="a_node4"><a xlink:href="_m_c_clustering_check_8h.html" target="_top" xlink:title="src/analysis/physics\l/check/MCClusteringCheck.h">
<polygon fill="white" stroke="black" points="366,-78.5 366,-108.5 518,-108.5 518,-78.5 366,-78.5"/>
<text text-anchor="start" x="374" y="-96.5" font-family="Helvetica,sans-Serif" font-size="10.00">src/analysis/physics</text>
<text text-anchor="middle" x="442" y="-85.5" font-family="Helvetica,sans-Serif" font-size="10.00">/check/MCClusteringCheck.h</text>
</a>
</g>
</g>
<!-- Node22&#45;&gt;Node25 -->
<g id="edge3" class="edge"><title>Node22&#45;&gt;Node25</title>
<path fill="none" stroke="midnightblue" d="M733.804,-145.902C670.404,-134.734 581.094,-119.002 518.018,-107.891"/>
<polygon fill="midnightblue" stroke="midnightblue" points="733.293,-149.366 743.749,-147.654 734.508,-142.472 733.293,-149.366"/>
</g>
<!-- Node27 -->
<g id="node6" class="node"><title>Node27</title>
<g id="a_node6"><a xlink:href="_m_c_reconstruct_check_8cc.html" target="_top" xlink:title="src/analysis/physics\l/check/MCReconstructCheck.cc">
<polygon fill="white" stroke="black" points="536,-78.5 536,-108.5 700,-108.5 700,-78.5 536,-78.5"/>
<text text-anchor="start" x="544" y="-96.5" font-family="Helvetica,sans-Serif" font-size="10.00">src/analysis/physics</text>
<text text-anchor="middle" x="618" y="-85.5" font-family="Helvetica,sans-Serif" font-size="10.00">/check/MCReconstructCheck.cc</text>
</a>
</g>
</g>
<!-- Node22&#45;&gt;Node27 -->
<g id="edge5" class="edge"><title>Node22&#45;&gt;Node27</title>
<path fill="none" stroke="midnightblue" d="M759.311,-142.092C728.155,-131.599 688.989,-118.408 659.796,-108.577"/>
<polygon fill="midnightblue" stroke="midnightblue" points="758.528,-145.521 769.122,-145.396 760.762,-138.887 758.528,-145.521"/>
</g>
<!-- Node28 -->
<g id="node7" class="node"><title>Node28</title>
<g id="a_node7"><a xlink:href="_omega___eta_g_8cc.html" target="_top" xlink:title="src/analysis/physics\l/omega/Omega_EtaG.cc">
<polygon fill="white" stroke="black" points="174,-6 174,-36 308,-36 308,-6 174,-6"/>
<text text-anchor="start" x="182" y="-24" font-family="Helvetica,sans-Serif" font-size="10.00">src/analysis/physics</text>
<text text-anchor="middle" x="241" y="-13" font-family="Helvetica,sans-Serif" font-size="10.00">/omega/Omega_EtaG.cc</text>
</a>
</g>
</g>
<!-- Node22&#45;&gt;Node28 -->
<g id="edge6" class="edge"><title>Node22&#45;&gt;Node28</title>
<path fill="none" stroke="midnightblue" d="M784.971,-139.117C773.321,-129.954 759.437,-118.978 747,-109 730,-95.36 729.175,-86.2473 709,-78 547.463,-11.9665 489.909,-72.035 318,-42 308.884,-40.4074 299.266,-38.2784 290.032,-36.003"/>
<polygon fill="midnightblue" stroke="midnightblue" points="782.981,-142.004 793.007,-145.429 787.305,-136.499 782.981,-142.004"/>
</g>
<!-- Node29 -->
<g id="node8" class="node"><title>Node29</title>
<g id="a_node8"><a xlink:href="pi0eta_8cc.html" target="_top" xlink:title="src/analysis/physics\l/omega/pi0eta.cc">
<polygon fill="white" stroke="black" points="756,-78.5 756,-108.5 866,-108.5 866,-78.5 756,-78.5"/>
<text text-anchor="start" x="764" y="-96.5" font-family="Helvetica,sans-Serif" font-size="10.00">src/analysis/physics</text>
<text text-anchor="middle" x="811" y="-85.5" font-family="Helvetica,sans-Serif" font-size="10.00">/omega/pi0eta.cc</text>
</a>
</g>
</g>
<!-- Node22&#45;&gt;Node29 -->
<g id="edge7" class="edge"><title>Node22&#45;&gt;Node29</title>
<path fill="none" stroke="midnightblue" d="M811,-135.108C811,-126.154 811,-116.323 811,-108.577"/>
<polygon fill="midnightblue" stroke="midnightblue" points="807.5,-135.396 811,-145.396 814.5,-135.396 807.5,-135.396"/>
</g>
<!-- Node30 -->
<g id="node9" class="node"><title>Node30</title>
<g id="a_node9"><a xlink:href="_cut_tree_8h.html" target="_top" xlink:title="src/analysis/plot/CutTree.h">
<polygon fill="white" stroke="black" points="884.5,-84 884.5,-103 1025.5,-103 1025.5,-84 884.5,-84"/>
<text text-anchor="middle" x="955" y="-91" font-family="Helvetica,sans-Serif" font-size="10.00">src/analysis/plot/CutTree.h</text>
</a>
</g>
</g>
<!-- Node22&#45;&gt;Node30 -->
<g id="edge8" class="edge"><title>Node22&#45;&gt;Node30</title>
<path fill="none" stroke="midnightblue" d="M851.693,-141.131C879.41,-128.62 914.813,-112.64 936.154,-103.007"/>
<polygon fill="midnightblue" stroke="midnightblue" points="849.92,-138.092 842.246,-145.396 852.8,-144.472 849.92,-138.092"/>
</g>
<!-- Node42 -->
<g id="node21" class="node"><title>Node42</title>
<g id="a_node21"><a xlink:href="hadd_8cc.html" target="_top" xlink:title="src/root&#45;addons/analysis\l_codes/hadd.cc">
<polygon fill="white" stroke="black" points="1044,-78.5 1044,-108.5 1178,-108.5 1178,-78.5 1044,-78.5"/>
<text text-anchor="start" x="1052" y="-96.5" font-family="Helvetica,sans-Serif" font-size="10.00">src/root&#45;addons/analysis</text>
<text text-anchor="middle" x="1111" y="-85.5" font-family="Helvetica,sans-Serif" font-size="10.00">_codes/hadd.cc</text>
</a>
</g>
</g>
<!-- Node22&#45;&gt;Node42 -->
<g id="edge21" class="edge"><title>Node22&#45;&gt;Node42</title>
<path fill="none" stroke="midnightblue" d="M885.697,-143.316C935.002,-132.633 998.962,-118.775 1046.13,-108.555"/>
<polygon fill="midnightblue" stroke="midnightblue" points="884.758,-139.938 875.726,-145.476 886.241,-146.779 884.758,-139.938"/>
</g>
<!-- Node43 -->
<g id="node22" class="node"><title>Node43</title>
<g id="a_node22"><a xlink:href="hstack_8cc.html" target="_top" xlink:title="src/root&#45;addons/analysis\l_codes/hstack.cc">
<polygon fill="white" stroke="black" points="1196,-78.5 1196,-108.5 1330,-108.5 1330,-78.5 1196,-78.5"/>
<text text-anchor="start" x="1204" y="-96.5" font-family="Helvetica,sans-Serif" font-size="10.00">src/root&#45;addons/analysis</text>
<text text-anchor="middle" x="1263" y="-85.5" font-family="Helvetica,sans-Serif" font-size="10.00">_codes/hstack.cc</text>
</a>
</g>
</g>
<!-- Node22&#45;&gt;Node43 -->
<g id="edge22" class="edge"><title>Node22&#45;&gt;Node43</title>
<path fill="none" stroke="midnightblue" d="M888.051,-150.41C964.182,-141.132 1083.87,-125.75 1187,-109 1189.92,-108.526 1192.89,-108.027 1195.9,-107.51"/>
<polygon fill="midnightblue" stroke="midnightblue" points="887.571,-146.942 878.066,-151.622 888.415,-153.891 887.571,-146.942"/>
</g>
<!-- Node44 -->
<g id="node23" class="node"><title>Node44</title>
<g id="a_node23"><a xlink:href="_omega_8cc.html" target="_top" xlink:title="src/root&#45;addons/analysis\l_codes/Omega.cc">
<polygon fill="white" stroke="black" points="1348,-78.5 1348,-108.5 1482,-108.5 1482,-78.5 1348,-78.5"/>
<text text-anchor="start" x="1356" y="-96.5" font-family="Helvetica,sans-Serif" font-size="10.00">src/root&#45;addons/analysis</text>
<text text-anchor="middle" x="1415" y="-85.5" font-family="Helvetica,sans-Serif" font-size="10.00">_codes/Omega.cc</text>
</a>
</g>
</g>
<!-- Node22&#45;&gt;Node44 -->
<g id="edge23" class="edge"><title>Node22&#45;&gt;Node44</title>
<path fill="none" stroke="midnightblue" d="M888.349,-154.369C991.475,-147.012 1179.54,-131.787 1339,-109 1341.93,-108.582 1344.91,-108.129 1347.92,-107.649"/>
<polygon fill="midnightblue" stroke="midnightblue" points="888.061,-150.881 878.333,-155.078 888.555,-157.863 888.061,-150.881"/>
</g>
<!-- Node45 -->
<g id="node24" class="node"><title>Node45</title>
<g id="a_node24"><a xlink:href="pi0_8cc.html" target="_top" xlink:title="src/root&#45;addons/analysis\l_codes/pi0.cc">
<polygon fill="white" stroke="black" points="1500,-78.5 1500,-108.5 1634,-108.5 1634,-78.5 1500,-78.5"/>
<text text-anchor="start" x="1508" y="-96.5" font-family="Helvetica,sans-Serif" font-size="10.00">src/root&#45;addons/analysis</text>
<text text-anchor="middle" x="1567" y="-85.5" font-family="Helvetica,sans-Serif" font-size="10.00">_codes/pi0.cc</text>
</a>
</g>
</g>
<!-- Node22&#45;&gt;Node45 -->
<g id="edge24" class="edge"><title>Node22&#45;&gt;Node45</title>
<path fill="none" stroke="midnightblue" d="M888.703,-156.623C1015.32,-151.287 1273.83,-137.686 1491,-109 1493.93,-108.613 1496.92,-108.185 1499.93,-107.727"/>
<polygon fill="midnightblue" stroke="midnightblue" points="888.187,-153.142 878.341,-157.054 888.478,-160.136 888.187,-153.142"/>
</g>
<!-- Node26 -->
<g id="node5" class="node"><title>Node26</title>
<g id="a_node5"><a xlink:href="_m_c_clustering_check_8cc.html" target="_top" xlink:title="src/analysis/physics\l/check/MCClusteringCheck.cc">
<polygon fill="white" stroke="black" points="0,-6 0,-36 156,-36 156,-6 0,-6"/>
<text text-anchor="start" x="8" y="-24" font-family="Helvetica,sans-Serif" font-size="10.00">src/analysis/physics</text>
<text text-anchor="middle" x="78" y="-13" font-family="Helvetica,sans-Serif" font-size="10.00">/check/MCClusteringCheck.cc</text>
</a>
</g>
</g>
<!-- Node25&#45;&gt;Node26 -->
<g id="edge4" class="edge"><title>Node25&#45;&gt;Node26</title>
<path fill="none" stroke="midnightblue" d="M355.78,-77.2245C288.486,-65.2191 200.635,-49.3403 165,-42 156.044,-40.1552 146.595,-38.0984 137.356,-36.0254"/>
<polygon fill="midnightblue" stroke="midnightblue" points="355.512,-80.7319 365.971,-79.0411 356.741,-73.8405 355.512,-80.7319"/>
</g>
<!-- Node30&#45;&gt;Node28 -->
<g id="edge14" class="edge"><title>Node30&#45;&gt;Node28</title>
<path fill="none" stroke="midnightblue" d="M903.216,-82.2196C893.853,-80.6163 884.157,-79.122 875,-78 628.769,-47.8292 562.93,-81.3592 318,-42 308.591,-40.488 298.66,-38.3381 289.172,-36.004"/>
<polygon fill="midnightblue" stroke="midnightblue" points="902.746,-85.6908 913.203,-83.9896 903.968,-78.7982 902.746,-85.6908"/>
</g>
<!-- Node31 -->
<g id="node10" class="node"><title>Node31</title>
<g id="a_node10"><a xlink:href="_p_i_d_efficiency_check_8cc.html" target="_top" xlink:title="src/analysis/physics\l/check/PIDEfficiencyCheck.cc">
<polygon fill="white" stroke="black" points="326.5,-6 326.5,-36 479.5,-36 479.5,-6 326.5,-6"/>
<text text-anchor="start" x="334.5" y="-24" font-family="Helvetica,sans-Serif" font-size="10.00">src/analysis/physics</text>
<text text-anchor="middle" x="403" y="-13" font-family="Helvetica,sans-Serif" font-size="10.00">/check/PIDEfficiencyCheck.cc</text>
</a>
</g>
</g>
<!-- Node30&#45;&gt;Node31 -->
<g id="edge9" class="edge"><title>Node30&#45;&gt;Node31</title>
<path fill="none" stroke="midnightblue" d="M901.951,-82.2219C892.977,-80.6737 883.738,-79.1971 875,-78 704.294,-54.6139 659.079,-69.5774 489,-42 479.013,-40.3807 468.46,-38.267 458.296,-36.0215"/>
<polygon fill="midnightblue" stroke="midnightblue" points="901.472,-85.6916 911.93,-83.9894 902.693,-78.7989 901.472,-85.6916"/>
</g>
<!-- Node32 -->
<g id="node11" class="node"><title>Node32</title>
<g id="a_node11"><a xlink:href="_meson_dalitz_decays__plot_8cc.html" target="_top" xlink:title="src/analysis/physics\l/common/MesonDalitzDecays\l_plot.cc">
<polygon fill="white" stroke="black" points="497.5,-0.5 497.5,-41.5 656.5,-41.5 656.5,-0.5 497.5,-0.5"/>
<text text-anchor="start" x="505.5" y="-29.5" font-family="Helvetica,sans-Serif" font-size="10.00">src/analysis/physics</text>
<text text-anchor="start" x="505.5" y="-18.5" font-family="Helvetica,sans-Serif" font-size="10.00">/common/MesonDalitzDecays</text>
<text text-anchor="middle" x="577" y="-7.5" font-family="Helvetica,sans-Serif" font-size="10.00">_plot.cc</text>
</a>
</g>
</g>
<!-- Node30&#45;&gt;Node32 -->
<g id="edge10" class="edge"><title>Node30&#45;&gt;Node32</title>
<path fill="none" stroke="midnightblue" d="M898.562,-82.207C890.652,-80.7829 882.623,-79.3474 875,-78 782.182,-61.5948 758.456,-60.3388 666,-42 662.893,-41.3838 659.729,-40.7417 656.534,-40.0817"/>
<polygon fill="midnightblue" stroke="midnightblue" points="898.017,-85.665 908.479,-83.9973 899.26,-78.7764 898.017,-85.665"/>
</g>
<!-- Node33 -->
<g id="node12" class="node"><title>Node33</title>
<g id="a_node12"><a xlink:href="_etap_dalitz__plot_8cc.html" target="_top" xlink:title="src/analysis/physics\l/etaprime/EtapDalitz\l_plot.cc">
<polygon fill="white" stroke="black" points="674.5,-0.5 674.5,-41.5 789.5,-41.5 789.5,-0.5 674.5,-0.5"/>
<text text-anchor="start" x="682.5" y="-29.5" font-family="Helvetica,sans-Serif" font-size="10.00">src/analysis/physics</text>
<text text-anchor="start" x="682.5" y="-18.5" font-family="Helvetica,sans-Serif" font-size="10.00">/etaprime/EtapDalitz</text>
<text text-anchor="middle" x="732" y="-7.5" font-family="Helvetica,sans-Serif" font-size="10.00">_plot.cc</text>
</a>
</g>
</g>
<!-- Node30&#45;&gt;Node33 -->
<g id="edge11" class="edge"><title>Node30&#45;&gt;Node33</title>
<path fill="none" stroke="midnightblue" d="M918.332,-80.9077C883.454,-69.8813 830.434,-53.1191 789.856,-40.2909"/>
<polygon fill="midnightblue" stroke="midnightblue" points="917.511,-84.3188 928.101,-83.9961 919.621,-77.6444 917.511,-84.3188"/>
</g>
<!-- Node34 -->
<g id="node13" class="node"><title>Node34</title>
<g id="a_node13"><a xlink:href="_etap_omega_g__plot_8cc.html" target="_top" xlink:title="src/analysis/physics\l/etaprime/EtapOmegaG\l_plot.cc">
<polygon fill="white" stroke="black" points="807.5,-0.5 807.5,-41.5 938.5,-41.5 938.5,-0.5 807.5,-0.5"/>
<text text-anchor="start" x="815.5" y="-29.5" font-family="Helvetica,sans-Serif" font-size="10.00">src/analysis/physics</text>
<text text-anchor="start" x="815.5" y="-18.5" font-family="Helvetica,sans-Serif" font-size="10.00">/etaprime/EtapOmegaG</text>
<text text-anchor="middle" x="873" y="-7.5" font-family="Helvetica,sans-Serif" font-size="10.00">_plot.cc</text>
</a>
</g>
</g>
<!-- Node30&#45;&gt;Node34 -->
<g id="edge12" class="edge"><title>Node30&#45;&gt;Node34</title>
<path fill="none" stroke="midnightblue" d="M937.288,-77.2717C925.161,-66.8461 908.969,-52.9245 895.869,-41.6616"/>
<polygon fill="midnightblue" stroke="midnightblue" points="935.081,-79.9899 944.945,-83.8553 939.644,-74.682 935.081,-79.9899"/>
</g>
<!-- Node35 -->
<g id="node14" class="node"><title>Node35</title>
<g id="a_node14"><a xlink:href="_omega___ep_em__plot_8cc.html" target="_top" xlink:title="src/analysis/physics\l/omega/Omega_EpEm_plot.cc">
<polygon fill="white" stroke="black" points="956.5,-6 956.5,-36 1117.5,-36 1117.5,-6 956.5,-6"/>
<text text-anchor="start" x="964.5" y="-24" font-family="Helvetica,sans-Serif" font-size="10.00">src/analysis/physics</text>
<text text-anchor="middle" x="1037" y="-13" font-family="Helvetica,sans-Serif" font-size="10.00">/omega/Omega_EpEm_plot.cc</text>
</a>
</g>
</g>
<!-- Node30&#45;&gt;Node35 -->
<g id="edge13" class="edge"><title>Node30&#45;&gt;Node35</title>
<path fill="none" stroke="midnightblue" d="M972.698,-77.2844C986.927,-65.0506 1006.76,-47.997 1020.63,-36.0762"/>
<polygon fill="midnightblue" stroke="midnightblue" points="970.356,-74.682 965.055,-83.8553 974.919,-79.9899 970.356,-74.682"/>
</g>
<!-- Node36 -->
<g id="node15" class="node"><title>Node36</title>
<g id="a_node15"><a xlink:href="sigma_plus_8cc.html" target="_top" xlink:title="src/analysis/physics\l/production/sigmaPlus.cc">
<polygon fill="white" stroke="black" points="1136,-6 1136,-36 1272,-36 1272,-6 1136,-6"/>
<text text-anchor="start" x="1144" y="-24" font-family="Helvetica,sans-Serif" font-size="10.00">src/analysis/physics</text>
<text text-anchor="middle" x="1204" y="-13" font-family="Helvetica,sans-Serif" font-size="10.00">/production/sigmaPlus.cc</text>
</a>
</g>
</g>
<!-- Node30&#45;&gt;Node36 -->
<g id="edge15" class="edge"><title>Node30&#45;&gt;Node36</title>
<path fill="none" stroke="midnightblue" d="M994.672,-81.2676C1038.05,-68.9859 1107.62,-49.2873 1154.53,-36.0059"/>
<polygon fill="midnightblue" stroke="midnightblue" points="993.703,-77.9041 985.035,-83.9961 995.611,-84.6394 993.703,-77.9041"/>
</g>
<!-- Node37 -->
<g id="node16" class="node"><title>Node37</title>
<g id="a_node16"><a xlink:href="sigma_plus_plots_8cc.html" target="_top" xlink:title="src/analysis/physics\l/production/sigmaPlusPlots.cc">
<polygon fill="white" stroke="black" points="1290.5,-6 1290.5,-36 1449.5,-36 1449.5,-6 1290.5,-6"/>
<text text-anchor="start" x="1298.5" y="-24" font-family="Helvetica,sans-Serif" font-size="10.00">src/analysis/physics</text>
<text text-anchor="middle" x="1370" y="-13" font-family="Helvetica,sans-Serif" font-size="10.00">/production/sigmaPlusPlots.cc</text>
</a>
</g>
</g>
<!-- Node30&#45;&gt;Node37 -->
<g id="edge16" class="edge"><title>Node30&#45;&gt;Node37</title>
<path fill="none" stroke="midnightblue" d="M1010.53,-82.1838C1018.73,-80.7338 1027.08,-79.2973 1035,-78 1144.05,-60.1441 1172.35,-62.1278 1281,-42 1290.5,-40.2403 1300.52,-38.1837 1310.29,-36.0715"/>
<polygon fill="midnightblue" stroke="midnightblue" points="1009.87,-78.7456 1000.64,-83.9505 1011.1,-85.6364 1009.87,-78.7456"/>
</g>
<!-- Node38 -->
<g id="node17" class="node"><title>Node38</title>
<g id="a_node17"><a xlink:href="single_pi0_plots_8cc.html" target="_top" xlink:title="src/analysis/physics\l/production/singlePi0Plots.cc">
<polygon fill="white" stroke="black" points="1468,-6 1468,-36 1620,-36 1620,-6 1468,-6"/>
<text text-anchor="start" x="1476" y="-24" font-family="Helvetica,sans-Serif" font-size="10.00">src/analysis/physics</text>
<text text-anchor="middle" x="1544" y="-13" font-family="Helvetica,sans-Serif" font-size="10.00">/production/singlePi0Plots.cc</text>
</a>
</g>
</g>
<!-- Node30&#45;&gt;Node38 -->
<g id="edge17" class="edge"><title>Node30&#45;&gt;Node38</title>
<path fill="none" stroke="midnightblue" d="M1007.73,-82.2136C1016.8,-80.6528 1026.16,-79.1744 1035,-78 1222.48,-53.1077 1272.23,-71.7379 1459,-42 1468.88,-40.4267 1479.32,-38.3353 1489.36,-36.0975"/>
<polygon fill="midnightblue" stroke="midnightblue" points="1006.88,-78.8088 997.646,-83.9989 1008.1,-85.7016 1006.88,-78.8088"/>
</g>
<!-- Node39 -->
<g id="node18" class="node"><title>Node39</title>
<g id="a_node18"><a xlink:href="triple_pi0_8cc.html" target="_top" xlink:title="src/analysis/physics\l/production/triplePi0.cc">
<polygon fill="white" stroke="black" points="1638.5,-6 1638.5,-36 1763.5,-36 1763.5,-6 1638.5,-6"/>
<text text-anchor="start" x="1646.5" y="-24" font-family="Helvetica,sans-Serif" font-size="10.00">src/analysis/physics</text>
<text text-anchor="middle" x="1701" y="-13" font-family="Helvetica,sans-Serif" font-size="10.00">/production/triplePi0.cc</text>
</a>
</g>
</g>
<!-- Node30&#45;&gt;Node39 -->
<g id="edge18" class="edge"><title>Node30&#45;&gt;Node39</title>
<path fill="none" stroke="midnightblue" d="M1006.78,-82.189C1016.14,-80.5889 1025.84,-79.1037 1035,-78 1297.59,-46.3596 1368.14,-85.6351 1629,-42 1637.83,-40.5232 1647.13,-38.3895 1656.01,-36.0603"/>
<polygon fill="midnightblue" stroke="midnightblue" points="1006.03,-78.7675 996.793,-83.9577 1007.25,-85.6603 1006.03,-78.7675"/>
</g>
<!-- Node40 -->
<g id="node19" class="node"><title>Node40</title>
<g id="a_node19"><a xlink:href="triple_pi0_plots_8cc.html" target="_top" xlink:title="src/analysis/physics\l/production/triplePi0Plots.cc">
<polygon fill="white" stroke="black" points="1781.5,-6 1781.5,-36 1930.5,-36 1930.5,-6 1781.5,-6"/>
<text text-anchor="start" x="1789.5" y="-24" font-family="Helvetica,sans-Serif" font-size="10.00">src/analysis/physics</text>
<text text-anchor="middle" x="1856" y="-13" font-family="Helvetica,sans-Serif" font-size="10.00">/production/triplePi0Plots.cc</text>
</a>
</g>
</g>
<!-- Node30&#45;&gt;Node40 -->
<g id="edge19" class="edge"><title>Node30&#45;&gt;Node40</title>
<path fill="none" stroke="midnightblue" d="M1006.45,-82.1528C1015.92,-80.5413 1025.73,-79.0614 1035,-78 1361.26,-40.6372 1447.94,-88.6695 1773,-42 1783.12,-40.5465 1793.82,-38.4236 1804.04,-36.0978"/>
<polygon fill="midnightblue" stroke="midnightblue" points="1005.6,-78.7487 996.369,-83.9395 1006.83,-85.6414 1005.6,-78.7487"/>
</g>
<!-- Node41 -->
<g id="node20" class="node"><title>Node41</title>
<g id="a_node20"><a xlink:href="physics_2tunings_2_trigger_simulation_8cc.html" target="_top" xlink:title="src/analysis/physics\l/tunings/TriggerSimulation.cc">
<polygon fill="white" stroke="black" points="1949,-6 1949,-36 2103,-36 2103,-6 1949,-6"/>
<text text-anchor="start" x="1957" y="-24" font-family="Helvetica,sans-Serif" font-size="10.00">src/analysis/physics</text>
<text text-anchor="middle" x="2026" y="-13" font-family="Helvetica,sans-Serif" font-size="10.00">/tunings/TriggerSimulation.cc</text>
</a>
</g>
</g>
<!-- Node30&#45;&gt;Node41 -->
<g id="edge20" class="edge"><title>Node30&#45;&gt;Node41</title>
<path fill="none" stroke="midnightblue" d="M1005.83,-82.1895C1015.48,-80.5436 1025.52,-79.0421 1035,-78 1435.13,-33.9976 1541.08,-95.8299 1940,-42 1950.63,-40.5651 1961.88,-38.4195 1972.61,-36.0592"/>
<polygon fill="midnightblue" stroke="midnightblue" points="1005.18,-78.749 995.949,-83.9439 1006.41,-85.6412 1005.18,-78.749"/>
</g>
</g>
</svg>
