<?xml version="1.0" encoding="UTF-8" standalone="no"?>
<!DOCTYPE svg PUBLIC "-//W3C//DTD SVG 1.1//EN"
 "http://www.w3.org/Graphics/SVG/1.1/DTD/svg11.dtd">
<!-- Generated by graphviz version 2.38.0 (20140413.2041)
 -->
<!-- Title: Graphical Class Hierarchy Pages: 1 -->
<svg width="833pt" height="565pt"
 viewBox="0.00 0.00 833.00 564.50" xmlns="http://www.w3.org/2000/svg" xmlns:xlink="http://www.w3.org/1999/xlink">
<g id="graph0" class="graph" transform="scale(1 1) rotate(0) translate(4 560.5)">
<title>Graphical Class Hierarchy</title>
<polygon fill="white" stroke="none" points="-4,4 -4,-560.5 829,-560.5 829,4 -4,4"/>
<!-- Node748 -->
<g id="node1" class="node"><title>Node748</title>
<g id="a_node1"><a xlink:href="classant_1_1calibration_1_1gui_1_1_manager_window__traits.html" target="_top" xlink:title="ant::calibration::gui\l::ManagerWindow_traits">
<polygon fill="white" stroke="black" points="0,-509.5 0,-539.5 130,-539.5 130,-509.5 0,-509.5"/>
<text text-anchor="start" x="8" y="-527.5" font-family="Helvetica,sans-Serif" font-size="10.00">ant::calibration::gui</text>
<text text-anchor="middle" x="65" y="-516.5" font-family="Helvetica,sans-Serif" font-size="10.00">::ManagerWindow_traits</text>
</a>
</g>
</g>
<!-- Node749 -->
<g id="node2" class="node"><title>Node749</title>
<g id="a_node2"><a xlink:href="classant_1_1calibration_1_1gui_1_1_manager_window_g_u_i__traits.html" target="_top" xlink:title="ant::calibration::gui\l::ManagerWindowGUI_traits">
<polygon fill="white" stroke="black" points="166,-509.5 166,-539.5 313,-539.5 313,-509.5 166,-509.5"/>
<text text-anchor="start" x="174" y="-527.5" font-family="Helvetica,sans-Serif" font-size="10.00">ant::calibration::gui</text>
<text text-anchor="middle" x="239.5" y="-516.5" font-family="Helvetica,sans-Serif" font-size="10.00">::ManagerWindowGUI_traits</text>
</a>
</g>
</g>
<!-- Node748&#45;&gt;Node749 -->
<g id="edge1" class="edge"><title>Node748&#45;&gt;Node749</title>
<path fill="none" stroke="midnightblue" d="M140.404,-524.5C148.824,-524.5 157.396,-524.5 165.794,-524.5"/>
<polygon fill="midnightblue" stroke="midnightblue" points="140.233,-521 130.233,-524.5 140.233,-528 140.233,-521"/>
</g>
<!-- Node332 -->
<g id="node3" class="node"><title>Node332</title>
<g id="a_node3"><a xlink:href="classant_1_1calibration_1_1gui_1_1_manager_window.html" target="_top" xlink:title="ant::calibration::gui\l::ManagerWindow">
<polygon fill="white" stroke="black" points="377,-487.5 377,-517.5 485,-517.5 485,-487.5 377,-487.5"/>
<text text-anchor="start" x="385" y="-505.5" font-family="Helvetica,sans-Serif" font-size="10.00">ant::calibration::gui</text>
<text text-anchor="middle" x="431" y="-494.5" font-family="Helvetica,sans-Serif" font-size="10.00">::ManagerWindow</text>
</a>
</g>
</g>
<!-- Node749&#45;&gt;Node332 -->
<g id="edge2" class="edge"><title>Node749&#45;&gt;Node332</title>
<path fill="none" stroke="midnightblue" d="M323.252,-514.893C341.446,-512.781 360.239,-510.599 376.891,-508.666"/>
<polygon fill="midnightblue" stroke="midnightblue" points="322.753,-511.427 313.224,-516.057 323.561,-518.381 322.753,-511.427"/>
</g>
<!-- Node750 -->
<g id="node4" class="node"><title>Node750</title>
<g id="a_node4"><a xlink:href="struct_manager_window_test.html" target="_top" xlink:title="ManagerWindowTest">
<polygon fill="white" stroke="black" points="374.5,-537 374.5,-556 487.5,-556 487.5,-537 374.5,-537"/>
<text text-anchor="middle" x="431" y="-544" font-family="Helvetica,sans-Serif" font-size="10.00">ManagerWindowTest</text>
</a>
</g>
</g>
<!-- Node749&#45;&gt;Node750 -->
<g id="edge3" class="edge"><title>Node749&#45;&gt;Node750</title>
<path fill="none" stroke="midnightblue" d="M323.287,-534.111C340.514,-536.111 358.277,-538.173 374.249,-540.028"/>
<polygon fill="midnightblue" stroke="midnightblue" points="323.561,-530.619 313.224,-532.943 322.753,-537.573 323.561,-530.619"/>
</g>
<!-- Node349 -->
<g id="node5" class="node"><title>Node349</title>
<polygon fill="white" stroke="#bfbfbf" points="211.5,-195 211.5,-214 267.5,-214 267.5,-195 211.5,-195"/>
<text text-anchor="middle" x="239.5" y="-202" font-family="Helvetica,sans-Serif" font-size="10.00">TCanvas</text>
</g>
<!-- Node350 -->
<g id="node6" class="node"><title>Node350</title>
<g id="a_node6"><a xlink:href="classant_1_1_browse_histograms_canvas.html" target="_top" xlink:title="ant::BrowseHistogramsCanvas">
<polygon fill="white" stroke="black" points="349,-214 349,-233 513,-233 513,-214 349,-214"/>
<text text-anchor="middle" x="431" y="-221" font-family="Helvetica,sans-Serif" font-size="10.00">ant::BrowseHistogramsCanvas</text>
</a>
</g>
</g>
<!-- Node349&#45;&gt;Node350 -->
<g id="edge4" class="edge"><title>Node349&#45;&gt;Node350</title>
<path fill="none" stroke="midnightblue" d="M277.721,-208.232C298.039,-210.269 324.035,-212.876 348.776,-215.356"/>
<polygon fill="midnightblue" stroke="midnightblue" points="277.95,-204.737 267.651,-207.222 277.252,-211.703 277.95,-204.737"/>
</g>
<!-- Node1 -->
<g id="node7" class="node"><title>Node1</title>
<g id="a_node7"><a xlink:href="classant_1_1calibration_1_1gui_1_1_cal_canvas.html" target="_top" xlink:title="ant::calibration::gui\l::CalCanvas">
<polygon fill="white" stroke="black" points="377,-252.5 377,-282.5 485,-282.5 485,-252.5 377,-252.5"/>
<text text-anchor="start" x="385" y="-270.5" font-family="Helvetica,sans-Serif" font-size="10.00">ant::calibration::gui</text>
<text text-anchor="middle" x="431" y="-259.5" font-family="Helvetica,sans-Serif" font-size="10.00">::CalCanvas</text>
</a>
</g>
</g>
<!-- Node349&#45;&gt;Node1 -->
<g id="edge5" class="edge"><title>Node349&#45;&gt;Node1</title>
<path fill="none" stroke="midnightblue" d="M276.667,-217.548C297.709,-225.044 324.779,-234.524 349,-242.5 359.065,-245.814 369.875,-249.242 380.216,-252.457"/>
<polygon fill="midnightblue" stroke="midnightblue" points="277.753,-214.22 267.158,-214.15 275.397,-220.811 277.753,-214.22"/>
</g>
<!-- Node2 -->
<g id="node8" class="node"><title>Node2</title>
<g id="a_node8"><a xlink:href="classant_1_1calibration_1_1gui_1_1_editor_canvas.html" target="_top" xlink:title="ant::calibration::gui\l::EditorCanvas">
<polygon fill="white" stroke="black" points="377,-301.5 377,-331.5 485,-331.5 485,-301.5 377,-301.5"/>
<text text-anchor="start" x="385" y="-319.5" font-family="Helvetica,sans-Serif" font-size="10.00">ant::calibration::gui</text>
<text text-anchor="middle" x="431" y="-308.5" font-family="Helvetica,sans-Serif" font-size="10.00">::EditorCanvas</text>
</a>
</g>
</g>
<!-- Node349&#45;&gt;Node2 -->
<g id="edge6" class="edge"><title>Node349&#45;&gt;Node2</title>
<path fill="none" stroke="midnightblue" d="M256.833,-221.29C276.854,-240.976 312.626,-273.343 349,-292.5 357.695,-297.079 367.386,-300.905 376.958,-304.059"/>
<polygon fill="midnightblue" stroke="midnightblue" points="259.273,-218.78 249.728,-214.181 254.322,-223.728 259.273,-218.78"/>
</g>
<!-- Node351 -->
<g id="node9" class="node"><title>Node351</title>
<g id="a_node9"><a xlink:href="structant_1_1_display_clustering.html" target="_top" xlink:title="ant::DisplayClustering">
<polygon fill="white" stroke="black" points="370.5,-176 370.5,-195 491.5,-195 491.5,-176 370.5,-176"/>
<text text-anchor="middle" x="431" y="-183" font-family="Helvetica,sans-Serif" font-size="10.00">ant::DisplayClustering</text>
</a>
</g>
</g>
<!-- Node349&#45;&gt;Node351 -->
<g id="edge7" class="edge"><title>Node349&#45;&gt;Node351</title>
<path fill="none" stroke="midnightblue" d="M277.622,-200.778C304.028,-198.13 340.063,-194.517 370.462,-191.47"/>
<polygon fill="midnightblue" stroke="midnightblue" points="277.252,-197.297 267.651,-201.778 277.95,-204.263 277.252,-197.297"/>
</g>
<!-- Node352 -->
<g id="node10" class="node"><title>Node352</title>
<g id="a_node10"><a xlink:href="classant_1_1_t_bin_graph_canvas.html" target="_top" xlink:title="ant::TBinGraphCanvas">
<polygon fill="white" stroke="black" points="369.5,-88 369.5,-107 492.5,-107 492.5,-88 369.5,-88"/>
<text text-anchor="middle" x="431" y="-95" font-family="Helvetica,sans-Serif" font-size="10.00">ant::TBinGraphCanvas</text>
</a>
</g>
</g>
<!-- Node349&#45;&gt;Node352 -->
<g id="edge8" class="edge"><title>Node349&#45;&gt;Node352</title>
<path fill="none" stroke="midnightblue" d="M256.34,-187.66C276.121,-167.651 311.897,-134.695 349,-116.5 356.911,-112.621 365.651,-109.511 374.375,-107.025"/>
<polygon fill="midnightblue" stroke="midnightblue" points="253.79,-185.263 249.343,-194.879 258.816,-190.135 253.79,-185.263"/>
</g>
<!-- Node353 -->
<g id="node11" class="node"><title>Node353</title>
<g id="a_node11"><a xlink:href="class_inspector_canvas.html" target="_top" xlink:title="InspectorCanvas">
<polygon fill="white" stroke="black" points="383,-50 383,-69 479,-69 479,-50 383,-50"/>
<text text-anchor="middle" x="431" y="-57" font-family="Helvetica,sans-Serif" font-size="10.00">InspectorCanvas</text>
</a>
</g>
</g>
<!-- Node349&#45;&gt;Node353 -->
<g id="edge9" class="edge"><title>Node349&#45;&gt;Node353</title>
<path fill="none" stroke="midnightblue" d="M251.06,-186.053C267.998,-158.213 303.957,-105.816 349,-78.5 359.127,-72.3583 371.078,-68.2017 382.644,-65.3886"/>
<polygon fill="midnightblue" stroke="midnightblue" points="247.967,-184.409 245.879,-194.796 253.988,-187.978 247.967,-184.409"/>
</g>
<!-- Node331 -->
<g id="node12" class="node"><title>Node331</title>
<polygon fill="white" stroke="#bfbfbf" points="198.5,-457 198.5,-476 280.5,-476 280.5,-457 198.5,-457"/>
<text text-anchor="middle" x="239.5" y="-464" font-family="Helvetica,sans-Serif" font-size="10.00">TGMainFrame</text>
</g>
<!-- Node331&#45;&gt;Node332 -->
<g id="edge11" class="edge"><title>Node331&#45;&gt;Node332</title>
<path fill="none" stroke="midnightblue" d="M290.562,-476.01C317.166,-481.065 349.868,-487.277 376.914,-492.415"/>
<polygon fill="midnightblue" stroke="midnightblue" points="291.166,-472.563 280.688,-474.135 289.859,-479.44 291.166,-472.563"/>
</g>
<!-- Node3 -->
<g id="node13" class="node"><title>Node3</title>
<g id="a_node13"><a xlink:href="classant_1_1calibration_1_1gui_1_1_editor_window.html" target="_top" xlink:title="ant::calibration::gui\l::EditorWindow">
<polygon fill="white" stroke="black" points="377,-438.5 377,-468.5 485,-468.5 485,-438.5 377,-438.5"/>
<text text-anchor="start" x="385" y="-456.5" font-family="Helvetica,sans-Serif" font-size="10.00">ant::calibration::gui</text>
<text text-anchor="middle" x="431" y="-445.5" font-family="Helvetica,sans-Serif" font-size="10.00">::EditorWindow</text>
</a>
</g>
</g>
<!-- Node331&#45;&gt;Node3 -->
<g id="edge10" class="edge"><title>Node331&#45;&gt;Node3</title>
<path fill="none" stroke="midnightblue" d="M290.914,-463.042C317.454,-461.221 349.987,-458.989 376.914,-457.142"/>
<polygon fill="midnightblue" stroke="midnightblue" points="290.425,-459.567 280.688,-463.743 290.904,-466.55 290.425,-459.567"/>
</g>
<!-- Node301 -->
<g id="node14" class="node"><title>Node301</title>
<polygon fill="white" stroke="#bfbfbf" points="410.5,-400 410.5,-419 451.5,-419 451.5,-400 410.5,-400"/>
<text text-anchor="middle" x="431" y="-407" font-family="Helvetica,sans-Serif" font-size="10.00">TLine</text>
</g>
<!-- Node6 -->
<g id="node15" class="node"><title>Node6</title>
<g id="a_node15"><a xlink:href="classant_1_1calibration_1_1gui_1_1_indicator_line.html" target="_top" xlink:title="ant::calibration::gui\l::IndicatorLine">
<polygon fill="white" stroke="black" points="549,-372.5 549,-402.5 657,-402.5 657,-372.5 549,-372.5"/>
<text text-anchor="start" x="557" y="-390.5" font-family="Helvetica,sans-Serif" font-size="10.00">ant::calibration::gui</text>
<text text-anchor="middle" x="603" y="-379.5" font-family="Helvetica,sans-Serif" font-size="10.00">::IndicatorLine</text>
</a>
</g>
</g>
<!-- Node301&#45;&gt;Node6 -->
<g id="edge12" class="edge"><title>Node301&#45;&gt;Node6</title>
<path fill="none" stroke="midnightblue" d="M461.727,-405.653C485.692,-402.552 520.008,-398.111 548.699,-394.398"/>
<polygon fill="midnightblue" stroke="midnightblue" points="460.969,-402.222 451.501,-406.976 461.868,-409.164 460.969,-402.222"/>
</g>
<!-- Node7 -->
<g id="node16" class="node"><title>Node7</title>
<g id="a_node16"><a xlink:href="classant_1_1calibration_1_1gui_1_1_horizontal_indicator_line.html" target="_top" xlink:title="ant::calibration::gui\l::HorizontalIndicatorLine">
<polygon fill="white" stroke="black" points="693,-397.5 693,-427.5 825,-427.5 825,-397.5 693,-397.5"/>
<text text-anchor="start" x="701" y="-415.5" font-family="Helvetica,sans-Serif" font-size="10.00">ant::calibration::gui</text>
<text text-anchor="middle" x="759" y="-404.5" font-family="Helvetica,sans-Serif" font-size="10.00">::HorizontalIndicatorLine</text>
</a>
</g>
</g>
<!-- Node6&#45;&gt;Node7 -->
<g id="edge13" class="edge"><title>Node6&#45;&gt;Node7</title>
<path fill="none" stroke="midnightblue" d="M667.539,-397.815C675.94,-399.179 684.561,-400.578 692.987,-401.946"/>
<polygon fill="midnightblue" stroke="midnightblue" points="667.861,-394.321 657.43,-396.174 666.739,-401.231 667.861,-394.321"/>
</g>
<!-- Node8 -->
<g id="node17" class="node"><title>Node8</title>
<g id="a_node17"><a xlink:href="classant_1_1calibration_1_1gui_1_1_vertical_indicator_line.html" target="_top" xlink:title="ant::calibration::gui\l::VerticalIndicatorLine">
<polygon fill="white" stroke="black" points="699.5,-348.5 699.5,-378.5 818.5,-378.5 818.5,-348.5 699.5,-348.5"/>
<text text-anchor="start" x="707.5" y="-366.5" font-family="Helvetica,sans-Serif" font-size="10.00">ant::calibration::gui</text>
<text text-anchor="middle" x="759" y="-355.5" font-family="Helvetica,sans-Serif" font-size="10.00">::VerticalIndicatorLine</text>
</a>
</g>
</g>
<!-- Node6&#45;&gt;Node8 -->
<g id="edge14" class="edge"><title>Node6&#45;&gt;Node8</title>
<path fill="none" stroke="midnightblue" d="M667.439,-377.613C678.019,-375.965 688.952,-374.261 699.405,-372.632"/>
<polygon fill="midnightblue" stroke="midnightblue" points="666.771,-374.175 657.43,-379.173 667.849,-381.092 666.771,-374.175"/>
</g>
<!-- Node261 -->
<g id="node18" class="node"><title>Node261</title>
<polygon fill="white" stroke="#bfbfbf" points="174.5,-69 174.5,-88 304.5,-88 304.5,-69 174.5,-69"/>
<text text-anchor="middle" x="239.5" y="-76" font-family="Helvetica,sans-Serif" font-size="10.00">TRootEmbeddedCanvas</text>
</g>
<!-- Node262 -->
<g id="node19" class="node"><title>Node262</title>
<g id="a_node19"><a xlink:href="classant_1_1calibration_1_1gui_1_1_embedded_canvas.html" target="_top" xlink:title="ant::calibration::gui\l::EmbeddedCanvas">
<polygon fill="white" stroke="black" points="376,-0.5 376,-30.5 486,-30.5 486,-0.5 376,-0.5"/>
<text text-anchor="start" x="384" y="-18.5" font-family="Helvetica,sans-Serif" font-size="10.00">ant::calibration::gui</text>
<text text-anchor="middle" x="431" y="-7.5" font-family="Helvetica,sans-Serif" font-size="10.00">::EmbeddedCanvas</text>
</a>
</g>
</g>
<!-- Node261&#45;&gt;Node262 -->
<g id="edge15" class="edge"><title>Node261&#45;&gt;Node262</title>
<path fill="none" stroke="midnightblue" d="M276.667,-65.4518C297.709,-57.956 324.779,-48.4761 349,-40.5 359.065,-37.1856 369.875,-33.7581 380.216,-30.5431"/>
<polygon fill="midnightblue" stroke="midnightblue" points="275.397,-62.1888 267.158,-68.8501 277.753,-68.7805 275.397,-62.1888"/>
</g>
<!-- Node4 -->
<g id="node20" class="node"><title>Node4</title>
<g id="a_node20"><a xlink:href="classant_1_1calibration_1_1gui_1_1_embedded_editor_canvas.html" target="_top" xlink:title="ant::calibration::gui\l::EmbeddedEditorCanvas">
<polygon fill="white" stroke="black" points="362.5,-126.5 362.5,-156.5 499.5,-156.5 499.5,-126.5 362.5,-126.5"/>
<text text-anchor="start" x="370.5" y="-144.5" font-family="Helvetica,sans-Serif" font-size="10.00">ant::calibration::gui</text>
<text text-anchor="middle" x="431" y="-133.5" font-family="Helvetica,sans-Serif" font-size="10.00">::EmbeddedEditorCanvas</text>
</a>
</g>
</g>
<!-- Node261&#45;&gt;Node4 -->
<g id="edge16" class="edge"><title>Node261&#45;&gt;Node4</title>
<path fill="none" stroke="midnightblue" d="M276.667,-91.5482C297.709,-99.044 324.779,-108.524 349,-116.5 359.065,-119.814 369.875,-123.242 380.216,-126.457"/>
<polygon fill="midnightblue" stroke="midnightblue" points="277.753,-88.2195 267.158,-88.1499 275.397,-94.8112 277.753,-88.2195"/>
</g>
<!-- Node0 -->
<g id="node21" class="node"><title>Node0</title>
<g id="a_node21"><a xlink:href="classant_1_1calibration_1_1gui_1_1update__notify__traits.html" target="_top" xlink:title="ant::calibration::gui\l::update_notify_traits">
<polygon fill="white" stroke="black" points="180.5,-301.5 180.5,-331.5 298.5,-331.5 298.5,-301.5 180.5,-301.5"/>
<text text-anchor="start" x="188.5" y="-319.5" font-family="Helvetica,sans-Serif" font-size="10.00">ant::calibration::gui</text>
<text text-anchor="middle" x="239.5" y="-308.5" font-family="Helvetica,sans-Serif" font-size="10.00">::update_notify_traits</text>
</a>
</g>
</g>
<!-- Node0&#45;&gt;Node1 -->
<g id="edge17" class="edge"><title>Node0&#45;&gt;Node1</title>
<path fill="none" stroke="midnightblue" d="M308.46,-298.927C330.935,-293.116 355.602,-286.738 376.806,-281.255"/>
<polygon fill="midnightblue" stroke="midnightblue" points="307.449,-295.573 298.644,-301.465 309.202,-302.35 307.449,-295.573"/>
</g>
<!-- Node0&#45;&gt;Node2 -->
<g id="edge18" class="edge"><title>Node0&#45;&gt;Node2</title>
<path fill="none" stroke="midnightblue" d="M308.762,-316.5C331.156,-316.5 355.697,-316.5 376.806,-316.5"/>
<polygon fill="midnightblue" stroke="midnightblue" points="308.644,-313 298.644,-316.5 308.644,-320 308.644,-313"/>
</g>
<!-- Node0&#45;&gt;Node3 -->
<g id="edge19" class="edge"><title>Node0&#45;&gt;Node3</title>
<path fill="none" stroke="midnightblue" d="M257.278,-339.815C276.657,-365.13 310.813,-405.071 349,-428.5 357.53,-433.734 367.244,-437.951 376.91,-441.322"/>
<polygon fill="midnightblue" stroke="midnightblue" points="259.858,-337.422 251.057,-331.522 254.258,-341.622 259.858,-337.422"/>
</g>
<!-- Node0&#45;&gt;Node4 -->
<g id="edge20" class="edge"><title>Node0&#45;&gt;Node4</title>
<path fill="none" stroke="midnightblue" d="M259.462,-293.499C274.486,-274.966 295.745,-248.045 313,-223.5 330.232,-198.988 325.209,-184.715 349,-166.5 354.025,-162.653 359.647,-159.393 365.524,-156.631"/>
<polygon fill="midnightblue" stroke="midnightblue" points="256.639,-291.422 253.034,-301.385 262.065,-295.844 256.639,-291.422"/>
</g>
<!-- Node5 -->
<g id="node22" class="node"><title>Node5</title>
<g id="a_node22"><a xlink:href="classant_1_1calibration_1_1gui_1_1_indicator.html" target="_top" xlink:title="ant::calibration::gui\l::Indicator">
<polygon fill="white" stroke="black" points="377,-350.5 377,-380.5 485,-380.5 485,-350.5 377,-350.5"/>
<text text-anchor="start" x="385" y="-368.5" font-family="Helvetica,sans-Serif" font-size="10.00">ant::calibration::gui</text>
<text text-anchor="middle" x="431" y="-357.5" font-family="Helvetica,sans-Serif" font-size="10.00">::Indicator</text>
</a>
</g>
</g>
<!-- Node0&#45;&gt;Node5 -->
<g id="edge21" class="edge"><title>Node0&#45;&gt;Node5</title>
<path fill="none" stroke="midnightblue" d="M308.46,-334.073C330.935,-339.884 355.602,-346.262 376.806,-351.745"/>
<polygon fill="midnightblue" stroke="midnightblue" points="309.202,-330.65 298.644,-331.535 307.449,-337.427 309.202,-330.65"/>
</g>
<!-- Node5&#45;&gt;Node6 -->
<g id="edge22" class="edge"><title>Node5&#45;&gt;Node6</title>
<path fill="none" stroke="midnightblue" d="M495.493,-373.717C513.065,-375.991 531.95,-378.435 548.867,-380.624"/>
<polygon fill="midnightblue" stroke="midnightblue" points="495.689,-370.213 485.323,-372.401 494.791,-377.155 495.689,-370.213"/>
</g>
</g>
</svg>
