<?xml version="1.0" encoding="UTF-8" standalone="no"?>
<!DOCTYPE svg PUBLIC "-//W3C//DTD SVG 1.1//EN"
 "http://www.w3.org/Graphics/SVG/1.1/DTD/svg11.dtd">
<!-- Generated by graphviz version 2.38.0 (20140413.2041)
 -->
<!-- Title: Graphical Class Hierarchy Pages: 1 -->
<svg width="241pt" height="66pt"
 viewBox="0.00 0.00 241.00 66.00" xmlns="http://www.w3.org/2000/svg" xmlns:xlink="http://www.w3.org/1999/xlink">
<g id="graph0" class="graph" transform="scale(1 1) rotate(0) translate(4 62)">
<title>Graphical Class Hierarchy</title>
<polygon fill="white" stroke="none" points="-4,4 -4,-62 237,-62 237,4 -4,4"/>
<!-- Node0 -->
<g id="node1" class="node"><title>Node0</title>
<g id="a_node1"><a xlink:href="classant_1_1_wrap_t_file.html" target="_top" xlink:title="ant::WrapTFile">
<polygon fill="white" stroke="black" points="0,-19.5 0,-38.5 82,-38.5 82,-19.5 0,-19.5"/>
<text text-anchor="middle" x="41" y="-26.5" font-family="Helvetica,sans-Serif" font-size="10.00">ant::WrapTFile</text>
</a>
</g>
</g>
<!-- Node1 -->
<g id="node2" class="node"><title>Node1</title>
<g id="a_node2"><a xlink:href="classant_1_1_wrap_t_file_input.html" target="_top" xlink:title="ant::WrapTFileInput">
<polygon fill="white" stroke="black" points="122.5,-38.5 122.5,-57.5 228.5,-57.5 228.5,-38.5 122.5,-38.5"/>
<text text-anchor="middle" x="175.5" y="-45.5" font-family="Helvetica,sans-Serif" font-size="10.00">ant::WrapTFileInput</text>
</a>
</g>
</g>
<!-- Node0&#45;&gt;Node1 -->
<g id="edge1" class="edge"><title>Node0&#45;&gt;Node1</title>
<path fill="none" stroke="midnightblue" d="M92.1553,-36.1921C102.004,-37.6044 112.359,-39.0892 122.274,-40.5109"/>
<polygon fill="midnightblue" stroke="midnightblue" points="92.5095,-32.7072 82.1139,-34.7522 91.5159,-39.6363 92.5095,-32.7072"/>
</g>
<!-- Node2 -->
<g id="node3" class="node"><title>Node2</title>
<g id="a_node3"><a xlink:href="classant_1_1_wrap_t_file_output.html" target="_top" xlink:title="ant::WrapTFileOutput">
<polygon fill="white" stroke="black" points="118,-0.5 118,-19.5 233,-19.5 233,-0.5 118,-0.5"/>
<text text-anchor="middle" x="175.5" y="-7.5" font-family="Helvetica,sans-Serif" font-size="10.00">ant::WrapTFileOutput</text>
</a>
</g>
</g>
<!-- Node0&#45;&gt;Node2 -->
<g id="edge2" class="edge"><title>Node0&#45;&gt;Node2</title>
<path fill="none" stroke="midnightblue" d="M92.1515,-21.8085C100.563,-20.6023 109.343,-19.3433 117.903,-18.1158"/>
<polygon fill="midnightblue" stroke="midnightblue" points="91.5159,-18.3637 82.1139,-23.2478 92.5095,-25.2928 91.5159,-18.3637"/>
</g>
</g>
</svg>
