<?xml version="1.0" encoding="UTF-8" standalone="no"?>
<!DOCTYPE svg PUBLIC "-//W3C//DTD SVG 1.1//EN"
 "http://www.w3.org/Graphics/SVG/1.1/DTD/svg11.dtd">
<!-- Generated by graphviz version 2.38.0 (20140413.2041)
 -->
<!-- Title: Graphical Class Hierarchy Pages: 1 -->
<svg width="391pt" height="66pt"
 viewBox="0.00 0.00 391.00 66.00" xmlns="http://www.w3.org/2000/svg" xmlns:xlink="http://www.w3.org/1999/xlink">
<g id="graph0" class="graph" transform="scale(1 1) rotate(0) translate(4 62)">
<title>Graphical Class Hierarchy</title>
<polygon fill="white" stroke="none" points="-4,4 -4,-62 387,-62 387,4 -4,4"/>
<!-- Node533 -->
<g id="node1" class="node"><title>Node533</title>
<polygon fill="white" stroke="#bfbfbf" points="0,-19.5 0,-38.5 48,-38.5 48,-19.5 0,-19.5"/>
<text text-anchor="middle" x="24" y="-26.5" font-family="Helvetica,sans-Serif" font-size="10.00">Plotter</text>
</g>
<!-- Node0 -->
<g id="node2" class="node"><title>Node0</title>
<g id="a_node2"><a xlink:href="struct_etap_dalitz__plot.html" target="_top" xlink:title="EtapDalitz_plot\&lt; RefHist_t \&gt;">
<polygon fill="white" stroke="black" points="84.5,-38.5 84.5,-57.5 237.5,-57.5 237.5,-38.5 84.5,-38.5"/>
<text text-anchor="middle" x="161" y="-45.5" font-family="Helvetica,sans-Serif" font-size="10.00">EtapDalitz_plot&lt; RefHist_t &gt;</text>
</a>
</g>
</g>
<!-- Node533&#45;&gt;Node0 -->
<g id="edge1" class="edge"><title>Node533&#45;&gt;Node0</title>
<path fill="none" stroke="midnightblue" d="M58.4169,-33.7031C68.7766,-35.1611 80.5884,-36.8236 92.4042,-38.4865"/>
<polygon fill="midnightblue" stroke="midnightblue" points="58.5976,-30.1941 48.2073,-32.2662 57.6219,-37.1258 58.5976,-30.1941"/>
</g>
<!-- Node536 -->
<g id="node4" class="node"><title>Node536</title>
<g id="a_node4"><a xlink:href="struct_etap_dalitz__plot.html" target="_top" xlink:title="EtapDalitz_plot\&lt; SigHist_t \&gt;">
<polygon fill="white" stroke="black" points="84,-0.5 84,-19.5 238,-19.5 238,-0.5 84,-0.5"/>
<text text-anchor="middle" x="161" y="-7.5" font-family="Helvetica,sans-Serif" font-size="10.00">EtapDalitz_plot&lt; SigHist_t &gt;</text>
</a>
</g>
</g>
<!-- Node533&#45;&gt;Node536 -->
<g id="edge3" class="edge"><title>Node533&#45;&gt;Node536</title>
<path fill="none" stroke="midnightblue" d="M58.4169,-24.2969C68.7766,-22.8389 80.5884,-21.1764 92.4042,-19.5135"/>
<polygon fill="midnightblue" stroke="midnightblue" points="57.6219,-20.8742 48.2073,-25.7338 58.5976,-27.8059 57.6219,-20.8742"/>
</g>
<!-- Node1 -->
<g id="node3" class="node"><title>Node1</title>
<g id="a_node3"><a xlink:href="struct_etap_dalitz__plot___ref.html" target="_top" xlink:title="EtapDalitz_plot_Ref">
<polygon fill="white" stroke="black" points="274.5,-38.5 274.5,-57.5 382.5,-57.5 382.5,-38.5 274.5,-38.5"/>
<text text-anchor="middle" x="328.5" y="-45.5" font-family="Helvetica,sans-Serif" font-size="10.00">EtapDalitz_plot_Ref</text>
</a>
</g>
</g>
<!-- Node0&#45;&gt;Node1 -->
<g id="edge2" class="edge"><title>Node0&#45;&gt;Node1</title>
<path fill="none" stroke="midnightblue" d="M248.029,-48C256.94,-48 265.8,-48 274.195,-48"/>
<polygon fill="midnightblue" stroke="midnightblue" points="247.969,-44.5001 237.969,-48 247.969,-51.5001 247.969,-44.5001"/>
</g>
<!-- Node537 -->
<g id="node5" class="node"><title>Node537</title>
<g id="a_node5"><a xlink:href="struct_etap_dalitz__plot___sig.html" target="_top" xlink:title="EtapDalitz_plot_Sig">
<polygon fill="white" stroke="black" points="274,-0.5 274,-19.5 383,-19.5 383,-0.5 274,-0.5"/>
<text text-anchor="middle" x="328.5" y="-7.5" font-family="Helvetica,sans-Serif" font-size="10.00">EtapDalitz_plot_Sig</text>
</a>
</g>
</g>
<!-- Node536&#45;&gt;Node537 -->
<g id="edge4" class="edge"><title>Node536&#45;&gt;Node537</title>
<path fill="none" stroke="midnightblue" d="M248.476,-10C257.013,-10 265.497,-10 273.563,-10"/>
<polygon fill="midnightblue" stroke="midnightblue" points="248.452,-6.5001 238.452,-10 248.452,-13.5001 248.452,-6.5001"/>
</g>
</g>
</svg>
