<?xml version="1.0" encoding="UTF-8" standalone="no"?>
<!DOCTYPE svg PUBLIC "-//W3C//DTD SVG 1.1//EN"
 "http://www.w3.org/Graphics/SVG/1.1/DTD/svg11.dtd">
<!-- Generated by graphviz version 2.38.0 (20140413.2041)
 -->
<!-- Title: Graphical Class Hierarchy Pages: 1 -->
<svg width="394pt" height="176pt"
 viewBox="0.00 0.00 394.00 176.00" xmlns="http://www.w3.org/2000/svg" xmlns:xlink="http://www.w3.org/1999/xlink">
<g id="graph0" class="graph" transform="scale(1 1) rotate(0) translate(4 172)">
<title>Graphical Class Hierarchy</title>
<polygon fill="white" stroke="none" points="-4,4 -4,-172 390,-172 390,4 -4,4"/>
<!-- Node1059 -->
<g id="node1" class="node"><title>Node1059</title>
<g id="a_node1"><a xlink:href="struct_common_hist__t.html" target="_top" xlink:title="CommonHist_t">
<polygon fill="white" stroke="black" points="28.5,-99 28.5,-118 117.5,-118 117.5,-99 28.5,-99"/>
<text text-anchor="middle" x="73" y="-106" font-family="Helvetica,sans-Serif" font-size="10.00">CommonHist_t</text>
</a>
</g>
</g>
<!-- Node853 -->
<g id="node2" class="node"><title>Node853</title>
<g id="a_node2"><a xlink:href="struct_ref_hist__t.html" target="_top" xlink:title="RefHist_t">
<polygon fill="white" stroke="black" points="182,-121 182,-140 241,-140 241,-121 182,-121"/>
<text text-anchor="middle" x="211.5" y="-128" font-family="Helvetica,sans-Serif" font-size="10.00">RefHist_t</text>
</a>
</g>
</g>
<!-- Node1059&#45;&gt;Node853 -->
<g id="edge1" class="edge"><title>Node1059&#45;&gt;Node853</title>
<path fill="none" stroke="midnightblue" d="M127.668,-117.15C146.199,-120.137 166.235,-123.366 181.959,-125.9"/>
<polygon fill="midnightblue" stroke="midnightblue" points="127.994,-113.657 117.565,-115.521 126.88,-120.568 127.994,-113.657"/>
</g>
<!-- Node1 -->
<g id="node3" class="node"><title>Node1</title>
<g id="a_node3"><a xlink:href="struct_sig_hist__t.html" target="_top" xlink:title="SigHist_t">
<polygon fill="white" stroke="black" points="182,-55 182,-74 241,-74 241,-55 182,-55"/>
<text text-anchor="middle" x="211.5" y="-62" font-family="Helvetica,sans-Serif" font-size="10.00">SigHist_t</text>
</a>
</g>
</g>
<!-- Node1059&#45;&gt;Node1 -->
<g id="edge2" class="edge"><title>Node1059&#45;&gt;Node1</title>
<path fill="none" stroke="midnightblue" d="M123.362,-96.2572C130.983,-94.1416 138.733,-91.8591 146,-89.5 160.05,-84.9391 175.489,-78.9896 187.738,-74.0389"/>
<polygon fill="midnightblue" stroke="midnightblue" points="122.207,-92.9439 113.468,-98.9345 124.035,-99.7009 122.207,-92.9439"/>
</g>
<!-- Node2 -->
<g id="node4" class="node"><title>Node2</title>
<g id="a_node4"><a xlink:href="struct_sig_omega_pi0_hist__t.html" target="_top" xlink:title="SigOmegaPi0Hist_t">
<polygon fill="white" stroke="black" points="277,-74 277,-93 386,-93 386,-74 277,-74"/>
<text text-anchor="middle" x="331.5" y="-81" font-family="Helvetica,sans-Serif" font-size="10.00">SigOmegaPi0Hist_t</text>
</a>
</g>
</g>
<!-- Node1&#45;&gt;Node2 -->
<g id="edge3" class="edge"><title>Node1&#45;&gt;Node2</title>
<path fill="none" stroke="midnightblue" d="M251.099,-70.7151C259.32,-72.0389 268.144,-73.4597 276.814,-74.8557"/>
<polygon fill="midnightblue" stroke="midnightblue" points="251.494,-67.2337 241.065,-69.0994 250.381,-74.1446 251.494,-67.2337"/>
</g>
<!-- Node3 -->
<g id="node5" class="node"><title>Node3</title>
<g id="a_node5"><a xlink:href="struct_sig_pi0_hist__t.html" target="_top" xlink:title="SigPi0Hist_t">
<polygon fill="white" stroke="black" points="294.5,-36 294.5,-55 368.5,-55 368.5,-36 294.5,-36"/>
<text text-anchor="middle" x="331.5" y="-43" font-family="Helvetica,sans-Serif" font-size="10.00">SigPi0Hist_t</text>
</a>
</g>
</g>
<!-- Node1&#45;&gt;Node3 -->
<g id="edge4" class="edge"><title>Node1&#45;&gt;Node3</title>
<path fill="none" stroke="midnightblue" d="M251.238,-58.2626C265.049,-56.0388 280.545,-53.5436 294.148,-51.3532"/>
<polygon fill="midnightblue" stroke="midnightblue" points="250.381,-54.8554 241.065,-59.9006 251.494,-61.7663 250.381,-54.8554"/>
</g>
<!-- Node852 -->
<g id="node6" class="node"><title>Node852</title>
<g id="a_node6"><a xlink:href="struct_hist__t.html" target="_top" xlink:title="Hist_t\&lt; physics::EtapDalitz\l::RefTree_t \&gt;">
<polygon fill="white" stroke="black" points="0,-137.5 0,-167.5 146,-167.5 146,-137.5 0,-137.5"/>
<text text-anchor="start" x="8" y="-155.5" font-family="Helvetica,sans-Serif" font-size="10.00">Hist_t&lt; physics::EtapDalitz</text>
<text text-anchor="middle" x="73" y="-144.5" font-family="Helvetica,sans-Serif" font-size="10.00">::RefTree_t &gt;</text>
</a>
</g>
</g>
<!-- Node852&#45;&gt;Node853 -->
<g id="edge5" class="edge"><title>Node852&#45;&gt;Node853</title>
<path fill="none" stroke="midnightblue" d="M156.265,-139.241C165.401,-137.769 174.187,-136.353 181.929,-135.105"/>
<polygon fill="midnightblue" stroke="midnightblue" points="155.563,-135.809 146.247,-140.856 156.677,-142.72 155.563,-135.809"/>
</g>
<!-- Node851 -->
<g id="node7" class="node"><title>Node851</title>
<g id="a_node7"><a xlink:href="struct_hist__t.html" target="_top" xlink:title="Hist_t\&lt; physics::EtapDalitz\l::SigTree_t \&gt;">
<polygon fill="white" stroke="black" points="0,-49.5 0,-79.5 146,-79.5 146,-49.5 0,-49.5"/>
<text text-anchor="start" x="8" y="-67.5" font-family="Helvetica,sans-Serif" font-size="10.00">Hist_t&lt; physics::EtapDalitz</text>
<text text-anchor="middle" x="73" y="-56.5" font-family="Helvetica,sans-Serif" font-size="10.00">::SigTree_t &gt;</text>
</a>
</g>
</g>
<!-- Node851&#45;&gt;Node1 -->
<g id="edge6" class="edge"><title>Node851&#45;&gt;Node1</title>
<path fill="none" stroke="midnightblue" d="M156.265,-64.5C165.401,-64.5 174.187,-64.5 181.929,-64.5"/>
<polygon fill="midnightblue" stroke="midnightblue" points="156.247,-61.0001 146.247,-64.5 156.247,-68.0001 156.247,-61.0001"/>
</g>
<!-- Node0 -->
<g id="node8" class="node"><title>Node0</title>
<g id="a_node8"><a xlink:href="structq2_hist__var__t.html" target="_top" xlink:title="q2Hist_var_t\&lt; physics\l::EtapDalitz::SigTree_t \&gt;">
<polygon fill="white" stroke="black" points="7,-0.5 7,-30.5 139,-30.5 139,-0.5 7,-0.5"/>
<text text-anchor="start" x="15" y="-18.5" font-family="Helvetica,sans-Serif" font-size="10.00">q2Hist_var_t&lt; physics</text>
<text text-anchor="middle" x="73" y="-7.5" font-family="Helvetica,sans-Serif" font-size="10.00">::EtapDalitz::SigTree_t &gt;</text>
</a>
</g>
</g>
<!-- Node0&#45;&gt;Node1 -->
<g id="edge7" class="edge"><title>Node0&#45;&gt;Node1</title>
<path fill="none" stroke="midnightblue" d="M127.555,-33.9492C133.781,-36.1372 140.035,-38.3549 146,-40.5 158.93,-45.1496 173.259,-50.4649 185.121,-54.9097"/>
<polygon fill="midnightblue" stroke="midnightblue" points="128.436,-30.5491 117.841,-30.5499 126.124,-37.1563 128.436,-30.5491"/>
</g>
</g>
</svg>
