<?xml version="1.0" encoding="UTF-8" standalone="no"?>
<!DOCTYPE svg PUBLIC "-//W3C//DTD SVG 1.1//EN"
 "http://www.w3.org/Graphics/SVG/1.1/DTD/svg11.dtd">
<!-- Generated by graphviz version 2.38.0 (20140413.2041)
 -->
<!-- Title: Graphical Class Hierarchy Pages: 1 -->
<svg width="310pt" height="313pt"
 viewBox="0.00 0.00 310.00 312.50" xmlns="http://www.w3.org/2000/svg" xmlns:xlink="http://www.w3.org/1999/xlink">
<g id="graph0" class="graph" transform="scale(1 1) rotate(0) translate(4 308.5)">
<title>Graphical Class Hierarchy</title>
<polygon fill="white" stroke="none" points="-4,4 -4,-308.5 306,-308.5 306,4 -4,4"/>
<!-- Node98 -->
<g id="node1" class="node"><title>Node98</title>
<g id="a_node1"><a xlink:title="STL class. ">
<polygon fill="white" stroke="#bfbfbf" points="0,-153 0,-172 95,-172 95,-153 0,-153"/>
<text text-anchor="middle" x="47.5" y="-160" font-family="Helvetica,sans-Serif" font-size="10.00">std::vector&lt; T &gt;</text>
</a>
</g>
</g>
<!-- Node0 -->
<g id="node2" class="node"><title>Node0</title>
<g id="a_node2"><a xlink:href="classant_1_1_piecewise_interval.html" target="_top" xlink:title="ant::PiecewiseInterval\&lt; T \&gt;">
<polygon fill="white" stroke="black" points="143,-285 143,-304 290,-304 290,-285 143,-285"/>
<text text-anchor="middle" x="216.5" y="-292" font-family="Helvetica,sans-Serif" font-size="10.00">ant::PiecewiseInterval&lt; T &gt;</text>
</a>
</g>
</g>
<!-- Node98&#45;&gt;Node0 -->
<g id="edge1" class="edge"><title>Node98&#45;&gt;Node0</title>
<path fill="none" stroke="midnightblue" d="M57.0226,-181.551C69.4742,-207.097 95.1222,-251.96 131,-275.5 136.909,-279.377 143.496,-282.471 150.314,-284.938"/>
<polygon fill="midnightblue" stroke="midnightblue" points="60.0508,-179.765 52.6352,-172.198 53.7134,-182.737 60.0508,-179.765"/>
</g>
<!-- Node100 -->
<g id="node3" class="node"><title>Node100</title>
<g id="a_node3"><a xlink:href="structant_1_1reconstruct_1_1clustering_1_1cluster__t.html" target="_top" xlink:title="ant::reconstruct::clustering\l::cluster_t">
<polygon fill="white" stroke="black" points="143.5,-235.5 143.5,-265.5 289.5,-265.5 289.5,-235.5 143.5,-235.5"/>
<text text-anchor="start" x="151.5" y="-253.5" font-family="Helvetica,sans-Serif" font-size="10.00">ant::reconstruct::clustering</text>
<text text-anchor="middle" x="216.5" y="-242.5" font-family="Helvetica,sans-Serif" font-size="10.00">::cluster_t</text>
</a>
</g>
</g>
<!-- Node98&#45;&gt;Node100 -->
<g id="edge2" class="edge"><title>Node98&#45;&gt;Node100</title>
<path fill="none" stroke="midnightblue" d="M66.3243,-179.221C82.2074,-193.322 106.644,-213.131 131,-225.5 138.366,-229.241 146.384,-232.516 154.452,-235.355"/>
<polygon fill="midnightblue" stroke="midnightblue" points="68.6025,-176.562 58.8439,-172.436 63.8998,-181.747 68.6025,-176.562"/>
</g>
<!-- Node101 -->
<g id="node4" class="node"><title>Node101</title>
<g id="a_node4"><a xlink:href="structant_1_1_wrap_t_tree_1_1_r_o_o_t_array.html" target="_top" xlink:title="ant::WrapTTree::ROOTArray\&lt; T \&gt;">
<polygon fill="white" stroke="black" points="131,-197 131,-216 302,-216 302,-197 131,-197"/>
<text text-anchor="middle" x="216.5" y="-204" font-family="Helvetica,sans-Serif" font-size="10.00">ant::WrapTTree::ROOTArray&lt; T &gt;</text>
</a>
</g>
</g>
<!-- Node98&#45;&gt;Node101 -->
<g id="edge3" class="edge"><title>Node98&#45;&gt;Node101</title>
<path fill="none" stroke="midnightblue" d="M87.7076,-175.02C101.349,-179.206 116.793,-183.755 131,-187.5 143.65,-190.834 157.461,-194.096 170.183,-196.951"/>
<polygon fill="midnightblue" stroke="midnightblue" points="88.7239,-171.671 78.136,-172.053 86.6513,-178.357 88.7239,-171.671"/>
</g>
<!-- Node102 -->
<g id="node5" class="node"><title>Node102</title>
<g id="a_node5"><a xlink:href="struct_data__t_1_1_variable_manager__t.html" target="_top" xlink:title="Data_t\&lt; Tree_t \&gt;::Variable\lManager_t\&lt; Variable_t \&gt;">
<polygon fill="white" stroke="black" points="144.5,-147.5 144.5,-177.5 288.5,-177.5 288.5,-147.5 144.5,-147.5"/>
<text text-anchor="start" x="152.5" y="-165.5" font-family="Helvetica,sans-Serif" font-size="10.00">Data_t&lt; Tree_t &gt;::Variable</text>
<text text-anchor="middle" x="216.5" y="-154.5" font-family="Helvetica,sans-Serif" font-size="10.00">Manager_t&lt; Variable_t &gt;</text>
</a>
</g>
</g>
<!-- Node98&#45;&gt;Node102 -->
<g id="edge4" class="edge"><title>Node98&#45;&gt;Node102</title>
<path fill="none" stroke="midnightblue" d="M105.293,-162.5C117.809,-162.5 131.22,-162.5 144.227,-162.5"/>
<polygon fill="midnightblue" stroke="midnightblue" points="105.019,-159 95.0188,-162.5 105.019,-166 105.019,-159"/>
</g>
<!-- Node103 -->
<g id="node6" class="node"><title>Node103</title>
<g id="a_node6"><a xlink:href="classant_1_1_piecewise_interval.html" target="_top" xlink:title="ant::PiecewiseInterval\l\&lt; double \&gt;">
<polygon fill="white" stroke="black" points="157,-98.5 157,-128.5 276,-128.5 276,-98.5 157,-98.5"/>
<text text-anchor="start" x="165" y="-116.5" font-family="Helvetica,sans-Serif" font-size="10.00">ant::PiecewiseInterval</text>
<text text-anchor="middle" x="216.5" y="-105.5" font-family="Helvetica,sans-Serif" font-size="10.00">&lt; double &gt;</text>
</a>
</g>
</g>
<!-- Node98&#45;&gt;Node103 -->
<g id="edge5" class="edge"><title>Node98&#45;&gt;Node103</title>
<path fill="none" stroke="midnightblue" d="M90.9455,-150.046C113.252,-143.501 140.763,-135.429 164.252,-128.537"/>
<polygon fill="midnightblue" stroke="midnightblue" points="89.7058,-146.762 81.0957,-152.936 91.6766,-153.479 89.7058,-146.762"/>
</g>
<!-- Node104 -->
<g id="node7" class="node"><title>Node104</title>
<g id="a_node7"><a xlink:href="classant_1_1_piecewise_interval.html" target="_top" xlink:title="ant::PiecewiseInterval\l\&lt; unsigned \&gt;">
<polygon fill="white" stroke="black" points="157,-49.5 157,-79.5 276,-79.5 276,-49.5 157,-49.5"/>
<text text-anchor="start" x="165" y="-67.5" font-family="Helvetica,sans-Serif" font-size="10.00">ant::PiecewiseInterval</text>
<text text-anchor="middle" x="216.5" y="-56.5" font-family="Helvetica,sans-Serif" font-size="10.00">&lt; unsigned &gt;</text>
</a>
</g>
</g>
<!-- Node98&#45;&gt;Node104 -->
<g id="edge6" class="edge"><title>Node98&#45;&gt;Node104</title>
<path fill="none" stroke="midnightblue" d="M63.7793,-145.158C79.2133,-128.641 104.504,-104.183 131,-89.5 139.029,-85.0509 147.936,-81.314 156.869,-78.1998"/>
<polygon fill="midnightblue" stroke="midnightblue" points="60.8018,-143.23 56.6526,-152.978 65.9755,-147.945 60.8018,-143.23"/>
</g>
<!-- Node105 -->
<g id="node8" class="node"><title>Node105</title>
<g id="a_node8"><a xlink:href="struct_data__t_1_1_variable_manager__t.html" target="_top" xlink:title="Data_t\&lt; Tree_t \&gt;::Variable\lManager_t\&lt; double \&gt;">
<polygon fill="white" stroke="black" points="144.5,-0.5 144.5,-30.5 288.5,-30.5 288.5,-0.5 144.5,-0.5"/>
<text text-anchor="start" x="152.5" y="-18.5" font-family="Helvetica,sans-Serif" font-size="10.00">Data_t&lt; Tree_t &gt;::Variable</text>
<text text-anchor="middle" x="216.5" y="-7.5" font-family="Helvetica,sans-Serif" font-size="10.00">Manager_t&lt; double &gt;</text>
</a>
</g>
</g>
<!-- Node98&#45;&gt;Node105 -->
<g id="edge7" class="edge"><title>Node98&#45;&gt;Node105</title>
<path fill="none" stroke="midnightblue" d="M56.3356,-143.461C68.3892,-116.525 94.0266,-67.5671 131,-40.5 136.308,-36.6141 142.217,-33.3283 148.375,-30.5506"/>
<polygon fill="midnightblue" stroke="midnightblue" points="53.0024,-142.351 52.2588,-152.92 59.4309,-145.122 53.0024,-142.351"/>
</g>
</g>
</svg>
