<?xml version="1.0" encoding="UTF-8" standalone="no"?>
<!DOCTYPE svg PUBLIC "-//W3C//DTD SVG 1.1//EN"
 "http://www.w3.org/Graphics/SVG/1.1/DTD/svg11.dtd">
<!-- Generated by graphviz version 2.38.0 (20140413.2041)
 -->
<!-- Title: Graphical Class Hierarchy Pages: 1 -->
<svg width="610pt" height="480pt"
 viewBox="0.00 0.00 610.00 480.00" xmlns="http://www.w3.org/2000/svg" xmlns:xlink="http://www.w3.org/1999/xlink">
<g id="graph0" class="graph" transform="scale(1 1) rotate(0) translate(4 476)">
<title>Graphical Class Hierarchy</title>
<polygon fill="white" stroke="none" points="-4,4 -4,-476 606,-476 606,4 -4,4"/>
<!-- Node0 -->
<g id="node1" class="node"><title>Node0</title>
<g id="a_node1"><a xlink:href="classant_1_1calibration_1_1gui_1_1_fit_function.html" target="_top" xlink:title="ant::calibration::gui\l::FitFunction">
<polygon fill="white" stroke="black" points="0,-245.5 0,-275.5 108,-275.5 108,-245.5 0,-245.5"/>
<text text-anchor="start" x="8" y="-263.5" font-family="Helvetica,sans-Serif" font-size="10.00">ant::calibration::gui</text>
<text text-anchor="middle" x="54" y="-252.5" font-family="Helvetica,sans-Serif" font-size="10.00">::FitFunction</text>
</a>
</g>
</g>
<!-- Node1 -->
<g id="node2" class="node"><title>Node1</title>
<g id="a_node2"><a xlink:href="classant_1_1calibration_1_1gui_1_1_fit_timewalk.html" target="_top" xlink:title="ant::calibration::gui\l::FitTimewalk">
<polygon fill="white" stroke="black" points="145,-294.5 145,-324.5 253,-324.5 253,-294.5 145,-294.5"/>
<text text-anchor="start" x="153" y="-312.5" font-family="Helvetica,sans-Serif" font-size="10.00">ant::calibration::gui</text>
<text text-anchor="middle" x="199" y="-301.5" font-family="Helvetica,sans-Serif" font-size="10.00">::FitTimewalk</text>
</a>
</g>
</g>
<!-- Node0&#45;&gt;Node1 -->
<g id="edge1" class="edge"><title>Node0&#45;&gt;Node1</title>
<path fill="none" stroke="midnightblue" d="M108.668,-278.89C123.557,-283.992 139.548,-289.471 153.828,-294.364"/>
<polygon fill="midnightblue" stroke="midnightblue" points="109.666,-275.532 99.0715,-275.601 107.397,-282.154 109.666,-275.532"/>
</g>
<!-- Node2 -->
<g id="node3" class="node"><title>Node2</title>
<g id="a_node3"><a xlink:href="classant_1_1calibration_1_1gui_1_1_fit_veto_band.html" target="_top" xlink:title="ant::calibration::gui\l::FitVetoBand">
<polygon fill="white" stroke="black" points="145,-245.5 145,-275.5 253,-275.5 253,-245.5 145,-245.5"/>
<text text-anchor="start" x="153" y="-263.5" font-family="Helvetica,sans-Serif" font-size="10.00">ant::calibration::gui</text>
<text text-anchor="middle" x="199" y="-252.5" font-family="Helvetica,sans-Serif" font-size="10.00">::FitVetoBand</text>
</a>
</g>
</g>
<!-- Node0&#45;&gt;Node2 -->
<g id="edge2" class="edge"><title>Node0&#45;&gt;Node2</title>
<path fill="none" stroke="midnightblue" d="M118.438,-260.5C127.209,-260.5 136.145,-260.5 144.708,-260.5"/>
<polygon fill="midnightblue" stroke="midnightblue" points="118.248,-257 108.248,-260.5 118.248,-264 118.248,-257"/>
</g>
<!-- Node3 -->
<g id="node4" class="node"><title>Node3</title>
<g id="a_node4"><a xlink:href="classant_1_1calibration_1_1gui_1_1_peaking_fit_function.html" target="_top" xlink:title="Fit functions describing peak shapes, like Gaus or Lorentz with optional background function...">
<polygon fill="white" stroke="black" points="144,-196.5 144,-226.5 254,-226.5 254,-196.5 144,-196.5"/>
<text text-anchor="start" x="152" y="-214.5" font-family="Helvetica,sans-Serif" font-size="10.00">ant::calibration::gui</text>
<text text-anchor="middle" x="199" y="-203.5" font-family="Helvetica,sans-Serif" font-size="10.00">::PeakingFitFunction</text>
</a>
</g>
</g>
<!-- Node0&#45;&gt;Node3 -->
<g id="edge3" class="edge"><title>Node0&#45;&gt;Node3</title>
<path fill="none" stroke="midnightblue" d="M108.668,-242.11C123.557,-237.008 139.548,-231.529 153.828,-226.636"/>
<polygon fill="midnightblue" stroke="midnightblue" points="107.397,-238.846 99.0715,-245.399 109.666,-245.468 107.397,-238.846"/>
</g>
<!-- Node4 -->
<g id="node5" class="node"><title>Node4</title>
<g id="a_node5"><a xlink:href="classant_1_1calibration_1_1gui_1_1_fit_gaus.html" target="_top" xlink:title="ant::calibration::gui\l::FitGaus">
<polygon fill="white" stroke="black" points="296.5,-392.5 296.5,-422.5 404.5,-422.5 404.5,-392.5 296.5,-392.5"/>
<text text-anchor="start" x="304.5" y="-410.5" font-family="Helvetica,sans-Serif" font-size="10.00">ant::calibration::gui</text>
<text text-anchor="middle" x="350.5" y="-399.5" font-family="Helvetica,sans-Serif" font-size="10.00">::FitGaus</text>
</a>
</g>
</g>
<!-- Node3&#45;&gt;Node4 -->
<g id="edge4" class="edge"><title>Node3&#45;&gt;Node4</title>
<path fill="none" stroke="midnightblue" d="M250.847,-233.072C251.96,-234.161 253.015,-235.304 254,-236.5 296.748,-288.433 245.962,-332.656 290,-383.5 292.99,-386.952 296.548,-389.914 300.416,-392.454"/>
<polygon fill="midnightblue" stroke="midnightblue" points="252.769,-230.127 242.775,-226.61 248.395,-235.592 252.769,-230.127"/>
</g>
<!-- Node7 -->
<g id="node8" class="node"><title>Node7</title>
<g id="a_node8"><a xlink:href="classant_1_1calibration_1_1gui_1_1_fit_gausexpo.html" target="_top" xlink:title="ant::calibration::gui\l::FitGausexpo">
<polygon fill="white" stroke="black" points="296.5,-343.5 296.5,-373.5 404.5,-373.5 404.5,-343.5 296.5,-343.5"/>
<text text-anchor="start" x="304.5" y="-361.5" font-family="Helvetica,sans-Serif" font-size="10.00">ant::calibration::gui</text>
<text text-anchor="middle" x="350.5" y="-350.5" font-family="Helvetica,sans-Serif" font-size="10.00">::FitGausexpo</text>
</a>
</g>
</g>
<!-- Node3&#45;&gt;Node7 -->
<g id="edge7" class="edge"><title>Node3&#45;&gt;Node7</title>
<path fill="none" stroke="midnightblue" d="M250.161,-232.768C251.511,-233.951 252.797,-235.194 254,-236.5 285.446,-270.621 257.708,-301.179 290,-334.5 293.333,-337.939 297.225,-340.901 301.395,-343.447"/>
<polygon fill="midnightblue" stroke="midnightblue" points="251.953,-229.742 241.825,-226.633 247.804,-235.379 251.953,-229.742"/>
</g>
<!-- Node8 -->
<g id="node9" class="node"><title>Node8</title>
<g id="a_node9"><a xlink:href="classant_1_1calibration_1_1gui_1_1_fit_gaus_pol0.html" target="_top" xlink:title="ant::calibration::gui\l::FitGausPol0">
<polygon fill="white" stroke="black" points="296.5,-294.5 296.5,-324.5 404.5,-324.5 404.5,-294.5 296.5,-294.5"/>
<text text-anchor="start" x="304.5" y="-312.5" font-family="Helvetica,sans-Serif" font-size="10.00">ant::calibration::gui</text>
<text text-anchor="middle" x="350.5" y="-301.5" font-family="Helvetica,sans-Serif" font-size="10.00">::FitGausPol0</text>
</a>
</g>
</g>
<!-- Node3&#45;&gt;Node8 -->
<g id="edge8" class="edge"><title>Node3&#45;&gt;Node8</title>
<path fill="none" stroke="midnightblue" d="M247.688,-231.849C249.887,-233.319 252.005,-234.869 254,-236.5 274.921,-253.605 268.656,-268.925 290,-285.5 294.311,-288.848 299.151,-291.793 304.161,-294.367"/>
<polygon fill="midnightblue" stroke="midnightblue" points="249.273,-228.718 238.897,-226.577 245.673,-234.722 249.273,-228.718"/>
</g>
<!-- Node12 -->
<g id="node13" class="node"><title>Node12</title>
<g id="a_node13"><a xlink:href="classant_1_1calibration_1_1gui_1_1_fit_gaus_pol1.html" target="_top" xlink:title="ant::calibration::gui\l::FitGausPol1">
<polygon fill="white" stroke="black" points="296.5,-245.5 296.5,-275.5 404.5,-275.5 404.5,-245.5 296.5,-245.5"/>
<text text-anchor="start" x="304.5" y="-263.5" font-family="Helvetica,sans-Serif" font-size="10.00">ant::calibration::gui</text>
<text text-anchor="middle" x="350.5" y="-252.5" font-family="Helvetica,sans-Serif" font-size="10.00">::FitGausPol1</text>
</a>
</g>
</g>
<!-- Node3&#45;&gt;Node12 -->
<g id="edge12" class="edge"><title>Node3&#45;&gt;Node12</title>
<path fill="none" stroke="midnightblue" d="M255.709,-229.759C271.477,-234.927 288.456,-240.492 303.577,-245.448"/>
<polygon fill="midnightblue" stroke="midnightblue" points="256.668,-226.39 246.075,-226.601 254.487,-233.042 256.668,-226.39"/>
</g>
<!-- Node13 -->
<g id="node14" class="node"><title>Node13</title>
<g id="a_node14"><a xlink:href="classant_1_1calibration_1_1gui_1_1_fit_gaus_pol3.html" target="_top" xlink:title="ant::calibration::gui\l::FitGausPol3">
<polygon fill="white" stroke="black" points="296.5,-196.5 296.5,-226.5 404.5,-226.5 404.5,-196.5 296.5,-196.5"/>
<text text-anchor="start" x="304.5" y="-214.5" font-family="Helvetica,sans-Serif" font-size="10.00">ant::calibration::gui</text>
<text text-anchor="middle" x="350.5" y="-203.5" font-family="Helvetica,sans-Serif" font-size="10.00">::FitGausPol3</text>
</a>
</g>
</g>
<!-- Node3&#45;&gt;Node13 -->
<g id="edge13" class="edge"><title>Node3&#45;&gt;Node13</title>
<path fill="none" stroke="midnightblue" d="M264.489,-211.5C275.136,-211.5 286.067,-211.5 296.394,-211.5"/>
<polygon fill="midnightblue" stroke="midnightblue" points="264.396,-208 254.396,-211.5 264.396,-215 264.396,-208"/>
</g>
<!-- Node15 -->
<g id="node16" class="node"><title>Node15</title>
<g id="a_node16"><a xlink:href="classant_1_1calibration_1_1gui_1_1_fit_landau.html" target="_top" xlink:title="ant::calibration::gui\l::FitLandau">
<polygon fill="white" stroke="black" points="296.5,-147.5 296.5,-177.5 404.5,-177.5 404.5,-147.5 296.5,-147.5"/>
<text text-anchor="start" x="304.5" y="-165.5" font-family="Helvetica,sans-Serif" font-size="10.00">ant::calibration::gui</text>
<text text-anchor="middle" x="350.5" y="-154.5" font-family="Helvetica,sans-Serif" font-size="10.00">::FitLandau</text>
</a>
</g>
</g>
<!-- Node3&#45;&gt;Node15 -->
<g id="edge15" class="edge"><title>Node3&#45;&gt;Node15</title>
<path fill="none" stroke="midnightblue" d="M255.709,-193.241C271.477,-188.073 288.456,-182.508 303.577,-177.552"/>
<polygon fill="midnightblue" stroke="midnightblue" points="254.487,-189.958 246.075,-196.399 256.668,-196.61 254.487,-189.958"/>
</g>
<!-- Node16 -->
<g id="node17" class="node"><title>Node16</title>
<g id="a_node17"><a xlink:href="classant_1_1calibration_1_1gui_1_1_fit_landau_expo.html" target="_top" xlink:title="ant::calibration::gui\l::FitLandauExpo">
<polygon fill="white" stroke="black" points="296.5,-98.5 296.5,-128.5 404.5,-128.5 404.5,-98.5 296.5,-98.5"/>
<text text-anchor="start" x="304.5" y="-116.5" font-family="Helvetica,sans-Serif" font-size="10.00">ant::calibration::gui</text>
<text text-anchor="middle" x="350.5" y="-105.5" font-family="Helvetica,sans-Serif" font-size="10.00">::FitLandauExpo</text>
</a>
</g>
</g>
<!-- Node3&#45;&gt;Node16 -->
<g id="edge16" class="edge"><title>Node3&#45;&gt;Node16</title>
<path fill="none" stroke="midnightblue" d="M223.305,-189.482C240.709,-173.844 265.603,-153.112 290,-138.5 296.056,-134.873 302.735,-131.517 309.363,-128.519"/>
<polygon fill="midnightblue" stroke="midnightblue" points="220.894,-186.944 215.864,-196.269 225.611,-192.116 220.894,-186.944"/>
</g>
<!-- Node17 -->
<g id="node18" class="node"><title>Node17</title>
<g id="a_node18"><a xlink:href="classant_1_1calibration_1_1gui_1_1_fit_landau_pol0.html" target="_top" xlink:title="ant::calibration::gui\l::FitLandauPol0">
<polygon fill="white" stroke="black" points="296.5,-49.5 296.5,-79.5 404.5,-79.5 404.5,-49.5 296.5,-49.5"/>
<text text-anchor="start" x="304.5" y="-67.5" font-family="Helvetica,sans-Serif" font-size="10.00">ant::calibration::gui</text>
<text text-anchor="middle" x="350.5" y="-56.5" font-family="Helvetica,sans-Serif" font-size="10.00">::FitLandauPol0</text>
</a>
</g>
</g>
<!-- Node3&#45;&gt;Node17 -->
<g id="edge17" class="edge"><title>Node3&#45;&gt;Node17</title>
<path fill="none" stroke="midnightblue" d="M212.468,-187.504C227.586,-160.457 255.394,-116.719 290,-89.5 294.756,-85.7594 300.152,-82.4845 305.708,-79.6452"/>
<polygon fill="midnightblue" stroke="midnightblue" points="209.375,-185.866 207.659,-196.321 215.52,-189.217 209.375,-185.866"/>
</g>
<!-- Node18 -->
<g id="node19" class="node"><title>Node18</title>
<g id="a_node19"><a xlink:href="classant_1_1calibration_1_1gui_1_1_fit_weibull_landau_pol1.html" target="_top" xlink:title="ant::calibration::gui\l::FitWeibullLandauPol1">
<polygon fill="white" stroke="black" points="290,-0.5 290,-30.5 411,-30.5 411,-0.5 290,-0.5"/>
<text text-anchor="start" x="298" y="-18.5" font-family="Helvetica,sans-Serif" font-size="10.00">ant::calibration::gui</text>
<text text-anchor="middle" x="350.5" y="-7.5" font-family="Helvetica,sans-Serif" font-size="10.00">::FitWeibullLandauPol1</text>
</a>
</g>
</g>
<!-- Node3&#45;&gt;Node18 -->
<g id="edge18" class="edge"><title>Node3&#45;&gt;Node18</title>
<path fill="none" stroke="midnightblue" d="M207.277,-186.155C219.015,-149.43 245.437,-81.3571 290,-40.5 294.129,-36.714 298.916,-33.4532 303.944,-30.6569"/>
<polygon fill="midnightblue" stroke="midnightblue" points="203.825,-185.47 204.226,-196.057 210.515,-187.531 203.825,-185.47"/>
</g>
<!-- Node5 -->
<g id="node6" class="node"><title>Node5</title>
<g id="a_node6"><a xlink:href="classant_1_1calibration_1_1gui_1_1_c_b_peak_function.html" target="_top" xlink:title="ant::calibration::gui\l::CBPeakFunction">
<polygon fill="white" stroke="black" points="470.5,-441.5 470.5,-471.5 578.5,-471.5 578.5,-441.5 470.5,-441.5"/>
<text text-anchor="start" x="478.5" y="-459.5" font-family="Helvetica,sans-Serif" font-size="10.00">ant::calibration::gui</text>
<text text-anchor="middle" x="524.5" y="-448.5" font-family="Helvetica,sans-Serif" font-size="10.00">::CBPeakFunction</text>
</a>
</g>
</g>
<!-- Node4&#45;&gt;Node5 -->
<g id="edge5" class="edge"><title>Node4&#45;&gt;Node5</title>
<path fill="none" stroke="midnightblue" d="M414.312,-425.394C432.812,-430.664 452.859,-436.376 470.666,-441.448"/>
<polygon fill="midnightblue" stroke="midnightblue" points="415.085,-421.975 404.509,-422.601 413.168,-428.707 415.085,-421.975"/>
</g>
<!-- Node6 -->
<g id="node7" class="node"><title>Node6</title>
<g id="a_node7"><a xlink:href="class_p_i_d___phi_angle_1_1_the_g_u_i_1_1___fit_gauss.html" target="_top" xlink:title="The PID_PhiAngle::TheGUI::_FitGauss: override the SetDefaults for PID phi angle fits. ">
<polygon fill="white" stroke="black" points="447,-392.5 447,-422.5 602,-422.5 602,-392.5 447,-392.5"/>
<text text-anchor="start" x="455" y="-410.5" font-family="Helvetica,sans-Serif" font-size="10.00">ant::calibration::PID</text>
<text text-anchor="middle" x="524.5" y="-399.5" font-family="Helvetica,sans-Serif" font-size="10.00">_PhiAngle::TheGUI::_FitGauss</text>
</a>
</g>
</g>
<!-- Node4&#45;&gt;Node6 -->
<g id="edge6" class="edge"><title>Node4&#45;&gt;Node6</title>
<path fill="none" stroke="midnightblue" d="M414.789,-407.5C425.255,-407.5 436.205,-407.5 446.955,-407.5"/>
<polygon fill="midnightblue" stroke="midnightblue" points="414.509,-404 404.509,-407.5 414.509,-411 414.509,-404"/>
</g>
<!-- Node9 -->
<g id="node10" class="node"><title>Node9</title>
<g id="a_node10"><a xlink:href="structant_1_1expconfig_1_1setup_1_1_improved_time_fct2007.html" target="_top" xlink:title="ant::expconfig::setup\l::ImprovedTimeFct2007">
<polygon fill="white" stroke="black" points="460,-343.5 460,-373.5 589,-373.5 589,-343.5 460,-343.5"/>
<text text-anchor="start" x="468" y="-361.5" font-family="Helvetica,sans-Serif" font-size="10.00">ant::expconfig::setup</text>
<text text-anchor="middle" x="524.5" y="-350.5" font-family="Helvetica,sans-Serif" font-size="10.00">::ImprovedTimeFct2007</text>
</a>
</g>
</g>
<!-- Node8&#45;&gt;Node9 -->
<g id="edge9" class="edge"><title>Node8&#45;&gt;Node9</title>
<path fill="none" stroke="midnightblue" d="M414.312,-327.394C432.812,-332.664 452.859,-338.376 470.666,-343.448"/>
<polygon fill="midnightblue" stroke="midnightblue" points="415.085,-323.975 404.509,-324.601 413.168,-330.707 415.085,-323.975"/>
</g>
<!-- Node10 -->
<g id="node11" class="node"><title>Node10</title>
<g id="a_node11"><a xlink:href="structant_1_1expconfig_1_1setup_1_1_improved_time_fct2015.html" target="_top" xlink:title="Ant Setup for Rare Pion Test Beamtime in January 2015 &amp; MC studies totally work in progress! ...">
<polygon fill="white" stroke="black" points="460,-294.5 460,-324.5 589,-324.5 589,-294.5 460,-294.5"/>
<text text-anchor="start" x="468" y="-312.5" font-family="Helvetica,sans-Serif" font-size="10.00">ant::expconfig::setup</text>
<text text-anchor="middle" x="524.5" y="-301.5" font-family="Helvetica,sans-Serif" font-size="10.00">::ImprovedTimeFct2015</text>
</a>
</g>
</g>
<!-- Node8&#45;&gt;Node10 -->
<g id="edge10" class="edge"><title>Node8&#45;&gt;Node10</title>
<path fill="none" stroke="midnightblue" d="M414.539,-309.5C429.285,-309.5 445.002,-309.5 459.777,-309.5"/>
<polygon fill="midnightblue" stroke="midnightblue" points="414.509,-306 404.509,-309.5 414.509,-313 414.509,-306"/>
</g>
<!-- Node11 -->
<g id="node12" class="node"><title>Node11</title>
<g id="a_node12"><a xlink:href="class_t_a_p_s_time_function.html" target="_top" xlink:title="TAPSTimeFunction">
<polygon fill="white" stroke="black" points="472.5,-256 472.5,-275 576.5,-275 576.5,-256 472.5,-256"/>
<text text-anchor="middle" x="524.5" y="-263" font-family="Helvetica,sans-Serif" font-size="10.00">TAPSTimeFunction</text>
</a>
</g>
</g>
<!-- Node8&#45;&gt;Node11 -->
<g id="edge11" class="edge"><title>Node8&#45;&gt;Node11</title>
<path fill="none" stroke="midnightblue" d="M414.313,-293.432C438.448,-287.257 465.217,-280.41 486.208,-275.04"/>
<polygon fill="midnightblue" stroke="midnightblue" points="413.33,-290.07 404.509,-295.94 415.065,-296.852 413.33,-290.07"/>
</g>
<!-- Node14 -->
<g id="node15" class="node"><title>Node14</title>
<g id="a_node15"><a xlink:href="struct_fit_t_a_p_s___energy.html" target="_top" xlink:title="FitTAPS_Energy">
<polygon fill="white" stroke="black" points="480,-202 480,-221 569,-221 569,-202 480,-202"/>
<text text-anchor="middle" x="524.5" y="-209" font-family="Helvetica,sans-Serif" font-size="10.00">FitTAPS_Energy</text>
</a>
</g>
</g>
<!-- Node13&#45;&gt;Node14 -->
<g id="edge14" class="edge"><title>Node13&#45;&gt;Node14</title>
<path fill="none" stroke="midnightblue" d="M414.634,-211.5C436.326,-211.5 460.112,-211.5 479.902,-211.5"/>
<polygon fill="midnightblue" stroke="midnightblue" points="414.509,-208 404.509,-211.5 414.509,-215 414.509,-208"/>
</g>
</g>
</svg>
