<?xml version="1.0" encoding="UTF-8" standalone="no"?>
<!DOCTYPE svg PUBLIC "-//W3C//DTD SVG 1.1//EN"
 "http://www.w3.org/Graphics/SVG/1.1/DTD/svg11.dtd">
<!-- Generated by graphviz version 2.38.0 (20140413.2041)
 -->
<!-- Title: Graphical Class Hierarchy Pages: 1 -->
<svg width="385pt" height="99pt"
 viewBox="0.00 0.00 385.00 98.50" xmlns="http://www.w3.org/2000/svg" xmlns:xlink="http://www.w3.org/1999/xlink">
<g id="graph0" class="graph" transform="scale(1 1) rotate(0) translate(4 94.5)">
<title>Graphical Class Hierarchy</title>
<polygon fill="white" stroke="none" points="-4,4 -4,-94.5 381,-94.5 381,4 -4,4"/>
<!-- Node0 -->
<g id="node1" class="node"><title>Node0</title>
<g id="a_node1"><a xlink:href="classant_1_1calibration_1_1gui_1_1_avg_buffer__traits.html" target="_top" xlink:title="ant::calibration::gui\l::AvgBuffer_traits\&lt; AvgBuffer\lItem \&gt;">
<polygon fill="white" stroke="black" points="0,-22 0,-63 155,-63 155,-22 0,-22"/>
<text text-anchor="start" x="8" y="-51" font-family="Helvetica,sans-Serif" font-size="10.00">ant::calibration::gui</text>
<text text-anchor="start" x="8" y="-40" font-family="Helvetica,sans-Serif" font-size="10.00">::AvgBuffer_traits&lt; AvgBuffer</text>
<text text-anchor="middle" x="77.5" y="-29" font-family="Helvetica,sans-Serif" font-size="10.00">Item &gt;</text>
</a>
</g>
</g>
<!-- Node1 -->
<g id="node2" class="node"><title>Node1</title>
<g id="a_node2"><a xlink:href="classant_1_1calibration_1_1gui_1_1_avg_buffer___savitzky_golay.html" target="_top" xlink:title="ant::calibration::gui\l::AvgBuffer_SavitzkyGolay\l\&lt; AvgBufferItem \&gt;">
<polygon fill="white" stroke="black" points="214,-49 214,-90 354,-90 354,-49 214,-49"/>
<text text-anchor="start" x="222" y="-78" font-family="Helvetica,sans-Serif" font-size="10.00">ant::calibration::gui</text>
<text text-anchor="start" x="222" y="-67" font-family="Helvetica,sans-Serif" font-size="10.00">::AvgBuffer_SavitzkyGolay</text>
<text text-anchor="middle" x="284" y="-56" font-family="Helvetica,sans-Serif" font-size="10.00">&lt; AvgBufferItem &gt;</text>
</a>
</g>
</g>
<!-- Node0&#45;&gt;Node1 -->
<g id="edge1" class="edge"><title>Node0&#45;&gt;Node1</title>
<path fill="none" stroke="midnightblue" d="M165.264,-53.9554C181.514,-56.1009 198.299,-58.3169 213.924,-60.3799"/>
<polygon fill="midnightblue" stroke="midnightblue" points="165.602,-50.4698 155.23,-52.6306 164.686,-57.4095 165.602,-50.4698"/>
</g>
<!-- Node2 -->
<g id="node3" class="node"><title>Node2</title>
<g id="a_node3"><a xlink:href="classant_1_1calibration_1_1gui_1_1_avg_buffer___sum.html" target="_top" xlink:title="ant::calibration::gui\l::AvgBuffer_Sum\&lt; AvgBufferItem \&gt;">
<polygon fill="white" stroke="black" points="191,-0.5 191,-30.5 377,-30.5 377,-0.5 191,-0.5"/>
<text text-anchor="start" x="199" y="-18.5" font-family="Helvetica,sans-Serif" font-size="10.00">ant::calibration::gui</text>
<text text-anchor="middle" x="284" y="-7.5" font-family="Helvetica,sans-Serif" font-size="10.00">::AvgBuffer_Sum&lt; AvgBufferItem &gt;</text>
</a>
</g>
</g>
<!-- Node0&#45;&gt;Node2 -->
<g id="edge2" class="edge"><title>Node0&#45;&gt;Node2</title>
<path fill="none" stroke="midnightblue" d="M165.356,-31.0325C173.727,-29.9272 182.24,-28.8033 190.661,-27.6914"/>
<polygon fill="midnightblue" stroke="midnightblue" points="164.686,-27.5905 155.23,-32.3694 165.602,-34.5302 164.686,-27.5905"/>
</g>
</g>
</svg>
