<?xml version="1.0" encoding="UTF-8" standalone="no"?>
<!DOCTYPE svg PUBLIC "-//W3C//DTD SVG 1.1//EN"
 "http://www.w3.org/Graphics/SVG/1.1/DTD/svg11.dtd">
<!-- Generated by graphviz version 2.38.0 (20140413.2041)
 -->
<!-- Title: Graphical Class Hierarchy Pages: 1 -->
<svg width="253pt" height="66pt"
 viewBox="0.00 0.00 253.00 66.00" xmlns="http://www.w3.org/2000/svg" xmlns:xlink="http://www.w3.org/1999/xlink">
<g id="graph0" class="graph" transform="scale(1 1) rotate(0) translate(4 62)">
<title>Graphical Class Hierarchy</title>
<polygon fill="white" stroke="none" points="-4,4 -4,-62 249,-62 249,4 -4,4"/>
<!-- Node433 -->
<g id="node1" class="node"><title>Node433</title>
<polygon fill="white" stroke="#bfbfbf" points="0,-19.5 0,-38.5 67,-38.5 67,-19.5 0,-19.5"/>
<text text-anchor="middle" x="33.5" y="-26.5" font-family="Helvetica,sans-Serif" font-size="10.00">RooAbsPdf</text>
</g>
<!-- Node0 -->
<g id="node2" class="node"><title>Node0</title>
<g id="a_node2"><a xlink:href="class_roo_gauss_double_sided_exp.html" target="_top" xlink:title="RooGaussDoubleSidedExp">
<polygon fill="white" stroke="black" points="103,-38.5 103,-57.5 245,-57.5 245,-38.5 103,-38.5"/>
<text text-anchor="middle" x="174" y="-45.5" font-family="Helvetica,sans-Serif" font-size="10.00">RooGaussDoubleSidedExp</text>
</a>
</g>
</g>
<!-- Node433&#45;&gt;Node0 -->
<g id="edge1" class="edge"><title>Node433&#45;&gt;Node0</title>
<path fill="none" stroke="midnightblue" d="M77.4885,-34.8973C85.7993,-36.0375 94.7026,-37.2588 103.609,-38.4806"/>
<polygon fill="midnightblue" stroke="midnightblue" points="77.7055,-31.3944 67.3226,-33.5027 76.7541,-38.3295 77.7055,-31.3944"/>
</g>
<!-- Node435 -->
<g id="node3" class="node"><title>Node435</title>
<g id="a_node3"><a xlink:href="class_roo_gauss_exp.html" target="_top" xlink:title="RooGaussExp">
<polygon fill="white" stroke="black" points="133.5,-0.5 133.5,-19.5 214.5,-19.5 214.5,-0.5 133.5,-0.5"/>
<text text-anchor="middle" x="174" y="-7.5" font-family="Helvetica,sans-Serif" font-size="10.00">RooGaussExp</text>
</a>
</g>
</g>
<!-- Node433&#45;&gt;Node435 -->
<g id="edge2" class="edge"><title>Node433&#45;&gt;Node435</title>
<path fill="none" stroke="midnightblue" d="M77.4501,-23.1079C95.2602,-20.6647 115.796,-17.8474 133.255,-15.4524"/>
<polygon fill="midnightblue" stroke="midnightblue" points="76.7541,-19.6705 67.3226,-24.4973 77.7055,-26.6056 76.7541,-19.6705"/>
</g>
</g>
</svg>
