<?xml version="1.0" encoding="UTF-8" standalone="no"?>
<!DOCTYPE svg PUBLIC "-//W3C//DTD SVG 1.1//EN"
 "http://www.w3.org/Graphics/SVG/1.1/DTD/svg11.dtd">
<!-- Generated by graphviz version 2.38.0 (20140413.2041)
 -->
<!-- Title: Graphical Class Hierarchy Pages: 1 -->
<svg width="276pt" height="50pt"
 viewBox="0.00 0.00 276.00 50.00" xmlns="http://www.w3.org/2000/svg" xmlns:xlink="http://www.w3.org/1999/xlink">
<g id="graph0" class="graph" transform="scale(1 1) rotate(0) translate(4 46)">
<title>Graphical Class Hierarchy</title>
<polygon fill="white" stroke="none" points="-4,4 -4,-46 272,-46 272,4 -4,4"/>
<!-- Node1152 -->
<g id="node1" class="node"><title>Node1152</title>
<polygon fill="white" stroke="#bfbfbf" points="0,-11.5 0,-30.5 83,-30.5 83,-11.5 0,-11.5"/>
<text text-anchor="middle" x="41.5" y="-18.5" font-family="Helvetica,sans-Serif" font-size="10.00">AddWrapTTree</text>
</g>
<!-- Node0 -->
<g id="node2" class="node"><title>Node0</title>
<g id="a_node2"><a xlink:href="structant_1_1analysis_1_1utils_1_1_pulls_writer_1_1_pull_tree__t.html" target="_top" xlink:title="ant::analysis::utils\l::PullsWriter\&lt; AddWrapTTree\l \&gt;::PullTree_t">
<polygon fill="white" stroke="black" points="119,-0.5 119,-41.5 268,-41.5 268,-0.5 119,-0.5"/>
<text text-anchor="start" x="127" y="-29.5" font-family="Helvetica,sans-Serif" font-size="10.00">ant::analysis::utils</text>
<text text-anchor="start" x="127" y="-18.5" font-family="Helvetica,sans-Serif" font-size="10.00">::PullsWriter&lt; AddWrapTTree</text>
<text text-anchor="middle" x="193.5" y="-7.5" font-family="Helvetica,sans-Serif" font-size="10.00"> &gt;::PullTree_t</text>
</a>
</g>
</g>
<!-- Node1152&#45;&gt;Node0 -->
<g id="edge1" class="edge"><title>Node1152&#45;&gt;Node0</title>
<path fill="none" stroke="midnightblue" d="M93.2881,-21C101.55,-21 110.252,-21 118.928,-21"/>
<polygon fill="midnightblue" stroke="midnightblue" points="93.0922,-17.5001 83.0922,-21 93.0921,-24.5001 93.0922,-17.5001"/>
</g>
</g>
</svg>
