<?xml version="1.0" encoding="UTF-8" standalone="no"?>
<!DOCTYPE svg PUBLIC "-//W3C//DTD SVG 1.1//EN"
 "http://www.w3.org/Graphics/SVG/1.1/DTD/svg11.dtd">
<!-- Generated by graphviz version 2.38.0 (20140413.2041)
 -->
<!-- Title: Graphical Class Hierarchy Pages: 1 -->
<svg width="335pt" height="88pt"
 viewBox="0.00 0.00 335.00 88.00" xmlns="http://www.w3.org/2000/svg" xmlns:xlink="http://www.w3.org/1999/xlink">
<g id="graph0" class="graph" transform="scale(1 1) rotate(0) translate(4 84)">
<title>Graphical Class Hierarchy</title>
<polygon fill="white" stroke="none" points="-4,4 -4,-84 331,-84 331,4 -4,4"/>
<!-- Node1056 -->
<g id="node1" class="node"><title>Node1056</title>
<g id="a_node1"><a xlink:title="STL iterator class. ">
<polygon fill="white" stroke="#bfbfbf" points="0,-24.5 0,-54.5 131,-54.5 131,-24.5 0,-24.5"/>
<text text-anchor="start" x="8" y="-42.5" font-family="Helvetica,sans-Serif" font-size="10.00">std::map&lt; K, T &gt;::const</text>
<text text-anchor="middle" x="65.5" y="-31.5" font-family="Helvetica,sans-Serif" font-size="10.00">_iterator</text>
</a>
</g>
</g>
<!-- Node0 -->
<g id="node2" class="node"><title>Node0</title>
<g id="a_node2"><a xlink:href="classant_1_1_particle_type_database_1_1const__iterator.html" target="_top" xlink:title="ant::ParticleTypeDatabase\l::const_iterator">
<polygon fill="white" stroke="black" points="177,-49.5 177,-79.5 317,-79.5 317,-49.5 177,-49.5"/>
<text text-anchor="start" x="185" y="-67.5" font-family="Helvetica,sans-Serif" font-size="10.00">ant::ParticleTypeDatabase</text>
<text text-anchor="middle" x="247" y="-56.5" font-family="Helvetica,sans-Serif" font-size="10.00">::const_iterator</text>
</a>
</g>
</g>
<!-- Node1056&#45;&gt;Node0 -->
<g id="edge1" class="edge"><title>Node1056&#45;&gt;Node0</title>
<path fill="none" stroke="midnightblue" d="M141.294,-49.917C153.079,-51.5584 165.218,-53.2491 176.867,-54.8715"/>
<polygon fill="midnightblue" stroke="midnightblue" points="141.437,-46.4032 131.05,-48.4903 140.472,-53.3363 141.437,-46.4032"/>
</g>
<!-- Node1058 -->
<g id="node3" class="node"><title>Node1058</title>
<g id="a_node3"><a xlink:href="classant_1_1_particle_type_tree_database_1_1const__iterator.html" target="_top" xlink:title="ant::ParticleTypeTreeDatabase\l::const_iterator">
<polygon fill="white" stroke="black" points="167,-0.5 167,-30.5 327,-30.5 327,-0.5 167,-0.5"/>
<text text-anchor="start" x="175" y="-18.5" font-family="Helvetica,sans-Serif" font-size="10.00">ant::ParticleTypeTreeDatabase</text>
<text text-anchor="middle" x="247" y="-7.5" font-family="Helvetica,sans-Serif" font-size="10.00">::const_iterator</text>
</a>
</g>
</g>
<!-- Node1056&#45;&gt;Node1058 -->
<g id="edge2" class="edge"><title>Node1056&#45;&gt;Node1058</title>
<path fill="none" stroke="midnightblue" d="M141.205,-29.5116C149.621,-28.3863 158.219,-27.2368 166.691,-26.1041"/>
<polygon fill="midnightblue" stroke="midnightblue" points="140.498,-26.0749 131.05,-30.8694 141.426,-33.0131 140.498,-26.0749"/>
</g>
</g>
</svg>
