<?xml version="1.0" encoding="UTF-8" standalone="no"?>
<!DOCTYPE svg PUBLIC "-//W3C//DTD SVG 1.1//EN"
 "http://www.w3.org/Graphics/SVG/1.1/DTD/svg11.dtd">
<!-- Generated by graphviz version 2.38.0 (20140413.2041)
 -->
<!-- Title: Graphical Class Hierarchy Pages: 1 -->
<svg width="494pt" height="154pt"
 viewBox="0.00 0.00 494.00 153.50" xmlns="http://www.w3.org/2000/svg" xmlns:xlink="http://www.w3.org/1999/xlink">
<g id="graph0" class="graph" transform="scale(1 1) rotate(0) translate(4 149.5)">
<title>Graphical Class Hierarchy</title>
<polygon fill="white" stroke="none" points="-4,4 -4,-149.5 490,-149.5 490,4 -4,4"/>
<!-- Node0 -->
<g id="node1" class="node"><title>Node0</title>
<g id="a_node1"><a xlink:href="classant_1_1interval.html" target="_top" xlink:title="ant::interval\&lt; double \&gt;">
<polygon fill="white" stroke="black" points="0,-50 0,-69 128,-69 128,-50 0,-50"/>
<text text-anchor="middle" x="64" y="-57" font-family="Helvetica,sans-Serif" font-size="10.00">ant::interval&lt; double &gt;</text>
</a>
</g>
</g>
<!-- Node1 -->
<g id="node2" class="node"><title>Node1</title>
<g id="a_node2"><a xlink:href="classant_1_1_bin_settings.html" target="_top" xlink:title="ant::BinSettings">
<polygon fill="white" stroke="black" points="204,-88 204,-107 297,-107 297,-88 204,-88"/>
<text text-anchor="middle" x="250.5" y="-95" font-family="Helvetica,sans-Serif" font-size="10.00">ant::BinSettings</text>
</a>
</g>
</g>
<!-- Node0&#45;&gt;Node1 -->
<g id="edge1" class="edge"><title>Node0&#45;&gt;Node1</title>
<path fill="none" stroke="midnightblue" d="M121.444,-71.1253C147.892,-76.5727 178.989,-82.9774 203.915,-88.1113"/>
<polygon fill="midnightblue" stroke="midnightblue" points="122.058,-67.6783 111.557,-69.089 120.645,-74.5344 122.058,-67.6783"/>
</g>
<!-- Node4 -->
<g id="node5" class="node"><title>Node4</title>
<g id="a_node5"><a xlink:href="classant_1_1_var_bin_settings.html" target="_top" xlink:title="ant::VarBinSettings">
<polygon fill="white" stroke="black" points="196,-50 196,-69 305,-69 305,-50 196,-50"/>
<text text-anchor="middle" x="250.5" y="-57" font-family="Helvetica,sans-Serif" font-size="10.00">ant::VarBinSettings</text>
</a>
</g>
</g>
<!-- Node0&#45;&gt;Node4 -->
<g id="edge4" class="edge"><title>Node0&#45;&gt;Node4</title>
<path fill="none" stroke="midnightblue" d="M138.446,-59.5C157.624,-59.5 177.934,-59.5 195.867,-59.5"/>
<polygon fill="midnightblue" stroke="midnightblue" points="138.236,-56.0001 128.236,-59.5 138.236,-63.0001 138.236,-56.0001"/>
</g>
<!-- Node6 -->
<g id="node7" class="node"><title>Node6</title>
<g id="a_node7"><a xlink:href="struct_omega_eta_g___plot_1_1_omega_hist__t_1_1_tree_cuts_1_1cos_theta_c_m_omega.html" target="_top" xlink:title="OmegaEtaG_Plot::OmegaHist\l_t::TreeCuts::cosThetaCMOmega">
<polygon fill="white" stroke="black" points="164,-0.5 164,-30.5 337,-30.5 337,-0.5 164,-0.5"/>
<text text-anchor="start" x="172" y="-18.5" font-family="Helvetica,sans-Serif" font-size="10.00">OmegaEtaG_Plot::OmegaHist</text>
<text text-anchor="middle" x="250.5" y="-7.5" font-family="Helvetica,sans-Serif" font-size="10.00">_t::TreeCuts::cosThetaCMOmega</text>
</a>
</g>
</g>
<!-- Node0&#45;&gt;Node6 -->
<g id="edge6" class="edge"><title>Node0&#45;&gt;Node6</title>
<path fill="none" stroke="midnightblue" d="M114.832,-47.616C136.842,-42.3669 162.97,-36.1358 186.328,-30.5654"/>
<polygon fill="midnightblue" stroke="midnightblue" points="113.949,-44.2283 105.034,-49.9527 115.573,-51.0373 113.949,-44.2283"/>
</g>
<!-- Node2 -->
<g id="node3" class="node"><title>Node2</title>
<g id="a_node3"><a xlink:href="classant_1_1_axis_settings.html" target="_top" xlink:title="ant::AxisSettings">
<polygon fill="white" stroke="black" points="380.5,-126 380.5,-145 478.5,-145 478.5,-126 380.5,-126"/>
<text text-anchor="middle" x="429.5" y="-133" font-family="Helvetica,sans-Serif" font-size="10.00">ant::AxisSettings</text>
</a>
</g>
</g>
<!-- Node1&#45;&gt;Node2 -->
<g id="edge2" class="edge"><title>Node1&#45;&gt;Node2</title>
<path fill="none" stroke="midnightblue" d="M306.242,-109.253C331.27,-114.626 360.535,-120.909 384.157,-125.98"/>
<polygon fill="midnightblue" stroke="midnightblue" points="306.676,-105.766 296.165,-107.089 305.207,-112.61 306.676,-105.766"/>
</g>
<!-- Node3 -->
<g id="node4" class="node"><title>Node3</title>
<g id="a_node4"><a xlink:href="struct_t_c_l_a_p_bin_settings.html" target="_top" xlink:title="TCLAPBinSettings">
<polygon fill="white" stroke="black" points="379,-88 379,-107 480,-107 480,-88 379,-88"/>
<text text-anchor="middle" x="429.5" y="-95" font-family="Helvetica,sans-Serif" font-size="10.00">TCLAPBinSettings</text>
</a>
</g>
</g>
<!-- Node1&#45;&gt;Node3 -->
<g id="edge3" class="edge"><title>Node1&#45;&gt;Node3</title>
<path fill="none" stroke="midnightblue" d="M307.332,-97.5C330.219,-97.5 356.496,-97.5 378.717,-97.5"/>
<polygon fill="midnightblue" stroke="midnightblue" points="307.082,-94.0001 297.082,-97.5 307.082,-101 307.082,-94.0001"/>
</g>
<!-- Node5 -->
<g id="node6" class="node"><title>Node5</title>
<g id="a_node6"><a xlink:href="classant_1_1_var_axis_settings.html" target="_top" xlink:title="ant::VarAxisSettings">
<polygon fill="white" stroke="black" points="373,-50 373,-69 486,-69 486,-50 373,-50"/>
<text text-anchor="middle" x="429.5" y="-57" font-family="Helvetica,sans-Serif" font-size="10.00">ant::VarAxisSettings</text>
</a>
</g>
</g>
<!-- Node4&#45;&gt;Node5 -->
<g id="edge5" class="edge"><title>Node4&#45;&gt;Node5</title>
<path fill="none" stroke="midnightblue" d="M315.103,-59.5C334.02,-59.5 354.589,-59.5 372.95,-59.5"/>
<polygon fill="midnightblue" stroke="midnightblue" points="315.086,-56.0001 305.086,-59.5 315.086,-63.0001 315.086,-56.0001"/>
</g>
</g>
</svg>
