<?xml version="1.0" encoding="UTF-8" standalone="no"?>
<!DOCTYPE svg PUBLIC "-//W3C//DTD SVG 1.1//EN"
 "http://www.w3.org/Graphics/SVG/1.1/DTD/svg11.dtd">
<!-- Generated by graphviz version 2.38.0 (20140413.2041)
 -->
<!-- Title: src/analysis/input/event_t.h Pages: 1 -->
<svg width="1901pt" height="240pt"
 viewBox="0.00 0.00 1901.00 240.00" xmlns="http://www.w3.org/2000/svg" xmlns:xlink="http://www.w3.org/1999/xlink">
<g id="graph0" class="graph" transform="scale(1 1) rotate(0) translate(4 236)">
<title>src/analysis/input/event_t.h</title>
<polygon fill="white" stroke="none" points="-4,4 -4,-236 1897,-236 1897,4 -4,4"/>
<!-- Node5 -->
<g id="node1" class="node"><title>Node5</title>
<polygon fill="#bfbfbf" stroke="black" points="1363,-201.5 1363,-231.5 1462,-231.5 1462,-201.5 1363,-201.5"/>
<text text-anchor="start" x="1371" y="-219.5" font-family="Helvetica,sans-Serif" font-size="10.00">src/analysis/input</text>
<text text-anchor="middle" x="1412.5" y="-208.5" font-family="Helvetica,sans-Serif" font-size="10.00">/event_t.h</text>
</g>
<!-- Node6 -->
<g id="node2" class="node"><title>Node6</title>
<g id="a_node2"><a xlink:href="_data_reader_8h.html" target="_top" xlink:title="src/analysis/input\l/DataReader.h">
<polygon fill="white" stroke="black" points="844,-134.5 844,-164.5 943,-164.5 943,-134.5 844,-134.5"/>
<text text-anchor="start" x="852" y="-152.5" font-family="Helvetica,sans-Serif" font-size="10.00">src/analysis/input</text>
<text text-anchor="middle" x="893.5" y="-141.5" font-family="Helvetica,sans-Serif" font-size="10.00">/DataReader.h</text>
</a>
</g>
</g>
<!-- Node5&#45;&gt;Node6 -->
<g id="edge1" class="edge"><title>Node5&#45;&gt;Node6</title>
<path fill="none" stroke="midnightblue" d="M1352.77,-208.02C1249.39,-195.073 1039,-168.722 943.113,-156.714"/>
<polygon fill="midnightblue" stroke="midnightblue" points="1352.38,-211.498 1362.74,-209.268 1353.25,-204.552 1352.38,-211.498"/>
</g>
<!-- Node22 -->
<g id="node18" class="node"><title>Node22</title>
<g id="a_node18"><a xlink:href="event__t_8cc.html" target="_top" xlink:title="src/analysis/input\l/event_t.cc">
<polygon fill="white" stroke="black" points="1495,-134.5 1495,-164.5 1594,-164.5 1594,-134.5 1495,-134.5"/>
<text text-anchor="start" x="1503" y="-152.5" font-family="Helvetica,sans-Serif" font-size="10.00">src/analysis/input</text>
<text text-anchor="middle" x="1544.5" y="-141.5" font-family="Helvetica,sans-Serif" font-size="10.00">/event_t.cc</text>
</a>
</g>
</g>
<!-- Node5&#45;&gt;Node22 -->
<g id="edge22" class="edge"><title>Node5&#45;&gt;Node22</title>
<path fill="none" stroke="midnightblue" d="M1450.37,-196.853C1471.24,-186.576 1496.73,-174.025 1515.91,-164.577"/>
<polygon fill="midnightblue" stroke="midnightblue" points="1448.57,-193.838 1441.14,-201.396 1451.66,-200.118 1448.57,-193.838"/>
</g>
<!-- Node23 -->
<g id="node19" class="node"><title>Node23</title>
<g id="a_node19"><a xlink:href="slowcontrol_2event__t_8h.html" target="_top" xlink:title="src/analysis/slowcontrol\l/event_t.h">
<polygon fill="white" stroke="black" points="1348.5,-134.5 1348.5,-164.5 1476.5,-164.5 1476.5,-134.5 1348.5,-134.5"/>
<text text-anchor="start" x="1356.5" y="-152.5" font-family="Helvetica,sans-Serif" font-size="10.00">src/analysis/slowcontrol</text>
<text text-anchor="middle" x="1412.5" y="-141.5" font-family="Helvetica,sans-Serif" font-size="10.00">/event_t.h</text>
</a>
</g>
</g>
<!-- Node5&#45;&gt;Node23 -->
<g id="edge23" class="edge"><title>Node5&#45;&gt;Node23</title>
<path fill="none" stroke="midnightblue" d="M1412.5,-191.108C1412.5,-182.154 1412.5,-172.323 1412.5,-164.577"/>
<polygon fill="midnightblue" stroke="midnightblue" points="1409,-191.396 1412.5,-201.396 1416,-191.396 1409,-191.396"/>
</g>
<!-- Node7 -->
<g id="node3" class="node"><title>Node7</title>
<g id="a_node3"><a xlink:href="_ant_8cc.html" target="_top" xlink:title="Main Ant executable. ">
<polygon fill="white" stroke="black" points="316,-6 316,-25 393,-25 393,-6 316,-6"/>
<text text-anchor="middle" x="354.5" y="-13" font-family="Helvetica,sans-Serif" font-size="10.00">progs/Ant.cc</text>
</a>
</g>
</g>
<!-- Node6&#45;&gt;Node7 -->
<g id="edge2" class="edge"><title>Node6&#45;&gt;Node7</title>
<path fill="none" stroke="midnightblue" d="M833.832,-137.368C783.866,-127.78 710.774,-113.13 647.5,-98 537.708,-71.7472 510.986,-62.2138 402.5,-31 395.975,-29.1225 388.97,-27.043 382.383,-25.0589"/>
<polygon fill="midnightblue" stroke="midnightblue" points="833.339,-140.837 843.819,-139.277 834.653,-133.962 833.339,-140.837"/>
</g>
<!-- Node8 -->
<g id="node4" class="node"><title>Node8</title>
<g id="a_node4"><a xlink:href="_ant_reader_8h.html" target="_top" xlink:title="src/analysis/input\l/ant/AntReader.h">
<polygon fill="white" stroke="black" points="1026,-67.5 1026,-97.5 1125,-97.5 1125,-67.5 1026,-67.5"/>
<text text-anchor="start" x="1034" y="-85.5" font-family="Helvetica,sans-Serif" font-size="10.00">src/analysis/input</text>
<text text-anchor="middle" x="1075.5" y="-74.5" font-family="Helvetica,sans-Serif" font-size="10.00">/ant/AntReader.h</text>
</a>
</g>
</g>
<!-- Node6&#45;&gt;Node8 -->
<g id="edge3" class="edge"><title>Node6&#45;&gt;Node8</title>
<path fill="none" stroke="midnightblue" d="M942.625,-130.955C971.943,-120.485 1008.68,-107.366 1036.09,-97.5765"/>
<polygon fill="midnightblue" stroke="midnightblue" points="941.232,-127.736 932.991,-134.396 943.586,-134.329 941.232,-127.736"/>
</g>
<!-- Node14 -->
<g id="node10" class="node"><title>Node14</title>
<g id="a_node10"><a xlink:href="_goat_reader_8h.html" target="_top" xlink:title="src/analysis/input\l/goat/GoatReader.h">
<polygon fill="white" stroke="black" points="300,-67.5 300,-97.5 409,-97.5 409,-67.5 300,-67.5"/>
<text text-anchor="start" x="308" y="-85.5" font-family="Helvetica,sans-Serif" font-size="10.00">src/analysis/input</text>
<text text-anchor="middle" x="354.5" y="-74.5" font-family="Helvetica,sans-Serif" font-size="10.00">/goat/GoatReader.h</text>
</a>
</g>
</g>
<!-- Node6&#45;&gt;Node14 -->
<g id="edge10" class="edge"><title>Node6&#45;&gt;Node14</title>
<path fill="none" stroke="midnightblue" d="M833.606,-141.277C728.179,-128.563 511.011,-102.374 409.305,-90.1091"/>
<polygon fill="midnightblue" stroke="midnightblue" points="833.411,-144.779 843.758,-142.501 834.249,-137.829 833.411,-144.779"/>
</g>
<!-- Node17 -->
<g id="node13" class="node"><title>Node17</title>
<g id="a_node13"><a xlink:href="_pluto_reader_8h.html" target="_top" xlink:title="src/analysis/input\l/pluto/PlutoReader.h">
<polygon fill="white" stroke="black" points="656.5,-67.5 656.5,-97.5 768.5,-97.5 768.5,-67.5 656.5,-67.5"/>
<text text-anchor="start" x="664.5" y="-85.5" font-family="Helvetica,sans-Serif" font-size="10.00">src/analysis/input</text>
<text text-anchor="middle" x="712.5" y="-74.5" font-family="Helvetica,sans-Serif" font-size="10.00">/pluto/PlutoReader.h</text>
</a>
</g>
</g>
<!-- Node6&#45;&gt;Node17 -->
<g id="edge15" class="edge"><title>Node6&#45;&gt;Node17</title>
<path fill="none" stroke="midnightblue" d="M844.645,-130.955C815.488,-120.485 778.957,-107.366 751.698,-97.5765"/>
<polygon fill="midnightblue" stroke="midnightblue" points="843.631,-134.31 854.226,-134.396 845.997,-127.722 843.631,-134.31"/>
</g>
<!-- Node21 -->
<g id="node17" class="node"><title>Node21</title>
<g id="a_node17"><a xlink:href="_physics_manager_8cc.html" target="_top" xlink:title="src/analysis/physics\l/PhysicsManager.cc">
<polygon fill="white" stroke="black" points="1633.5,-0.5 1633.5,-30.5 1743.5,-30.5 1743.5,-0.5 1633.5,-0.5"/>
<text text-anchor="start" x="1641.5" y="-18.5" font-family="Helvetica,sans-Serif" font-size="10.00">src/analysis/physics</text>
<text text-anchor="middle" x="1688.5" y="-7.5" font-family="Helvetica,sans-Serif" font-size="10.00">/PhysicsManager.cc</text>
</a>
</g>
</g>
<!-- Node6&#45;&gt;Node21 -->
<g id="edge21" class="edge"><title>Node6&#45;&gt;Node21</title>
<path fill="none" stroke="midnightblue" d="M953.371,-140.104C1078.32,-122.309 1375.8,-78.5177 1623.5,-31 1626.68,-30.3901 1629.94,-29.7401 1633.23,-29.0661"/>
<polygon fill="midnightblue" stroke="midnightblue" points="952.656,-136.67 943.247,-141.542 953.64,-143.601 952.656,-136.67"/>
</g>
<!-- Node8&#45;&gt;Node7 -->
<g id="edge5" class="edge"><title>Node8&#45;&gt;Node7</title>
<path fill="none" stroke="midnightblue" d="M1015.26,-78.6695C872.968,-71.7101 519.23,-52.7401 402.5,-31 394.798,-29.5655 386.578,-27.3475 379.158,-25.0742"/>
<polygon fill="midnightblue" stroke="midnightblue" points="1015.38,-82.1794 1025.54,-79.1693 1015.72,-75.1876 1015.38,-82.1794"/>
</g>
<!-- Node9 -->
<g id="node5" class="node"><title>Node9</title>
<g id="a_node5"><a xlink:href="_ant-fake_raw_8cc.html" target="_top" xlink:title="progs/Ant&#45;fakeRaw.cc">
<polygon fill="white" stroke="black" points="1323,-6 1323,-25 1442,-25 1442,-6 1323,-6"/>
<text text-anchor="middle" x="1382.5" y="-13" font-family="Helvetica,sans-Serif" font-size="10.00">progs/Ant&#45;fakeRaw.cc</text>
</a>
</g>
</g>
<!-- Node8&#45;&gt;Node9 -->
<g id="edge4" class="edge"><title>Node8&#45;&gt;Node9</title>
<path fill="none" stroke="midnightblue" d="M1135.05,-68.8921C1196.09,-55.9685 1289.34,-36.2254 1342.21,-25.0294"/>
<polygon fill="midnightblue" stroke="midnightblue" points="1134.22,-65.4889 1125.17,-70.9844 1135.67,-72.3371 1134.22,-65.4889"/>
</g>
<!-- Node10 -->
<g id="node6" class="node"><title>Node10</title>
<g id="a_node6"><a xlink:href="_ant_reader_8cc.html" target="_top" xlink:title="src/analysis/input\l/ant/AntReader.cc">
<polygon fill="white" stroke="black" points="1025,-0.5 1025,-30.5 1126,-30.5 1126,-0.5 1025,-0.5"/>
<text text-anchor="start" x="1033" y="-18.5" font-family="Helvetica,sans-Serif" font-size="10.00">src/analysis/input</text>
<text text-anchor="middle" x="1075.5" y="-7.5" font-family="Helvetica,sans-Serif" font-size="10.00">/ant/AntReader.cc</text>
</a>
</g>
</g>
<!-- Node8&#45;&gt;Node10 -->
<g id="edge6" class="edge"><title>Node8&#45;&gt;Node10</title>
<path fill="none" stroke="midnightblue" d="M1075.5,-57.1081C1075.5,-48.1539 1075.5,-38.3227 1075.5,-30.5765"/>
<polygon fill="midnightblue" stroke="midnightblue" points="1072,-57.3959 1075.5,-67.396 1079,-57.396 1072,-57.3959"/>
</g>
<!-- Node11 -->
<g id="node7" class="node"><title>Node11</title>
<g id="a_node7"><a xlink:href="_test_ant_reader_8cc.html" target="_top" xlink:title="test/analysis/TestAntReader.cc">
<polygon fill="white" stroke="black" points="1144,-6 1144,-25 1305,-25 1305,-6 1144,-6"/>
<text text-anchor="middle" x="1224.5" y="-13" font-family="Helvetica,sans-Serif" font-size="10.00">test/analysis/TestAntReader.cc</text>
</a>
</g>
</g>
<!-- Node8&#45;&gt;Node11 -->
<g id="edge7" class="edge"><title>Node8&#45;&gt;Node11</title>
<path fill="none" stroke="midnightblue" d="M1117.23,-63.2952C1145.97,-50.7602 1182.82,-34.682 1205,-25.007"/>
<polygon fill="midnightblue" stroke="midnightblue" points="1115.6,-60.1894 1107.83,-67.396 1118.4,-66.6054 1115.6,-60.1894"/>
</g>
<!-- Node12 -->
<g id="node8" class="node"><title>Node12</title>
<g id="a_node8"><a xlink:href="_test_physics_manager_8cc.html" target="_top" xlink:title="test/analysis/TestPhysics\lManager.cc">
<polygon fill="white" stroke="black" points="411.5,-0.5 411.5,-30.5 545.5,-30.5 545.5,-0.5 411.5,-0.5"/>
<text text-anchor="start" x="419.5" y="-18.5" font-family="Helvetica,sans-Serif" font-size="10.00">test/analysis/TestPhysics</text>
<text text-anchor="middle" x="478.5" y="-7.5" font-family="Helvetica,sans-Serif" font-size="10.00">Manager.cc</text>
</a>
</g>
</g>
<!-- Node8&#45;&gt;Node12 -->
<g id="edge8" class="edge"><title>Node8&#45;&gt;Node12</title>
<path fill="none" stroke="midnightblue" d="M1015.54,-77.4878C918.393,-70.5839 720.704,-54.8586 554.5,-31 551.575,-30.5801 548.591,-30.1253 545.581,-29.6446"/>
<polygon fill="midnightblue" stroke="midnightblue" points="1015.53,-80.9958 1025.75,-78.2073 1016.02,-74.0131 1015.53,-80.9958"/>
</g>
<!-- Node13 -->
<g id="node9" class="node"><title>Node13</title>
<g id="a_node9"><a xlink:href="_test_slow_control_manager_8cc.html" target="_top" xlink:title="test/analysis/TestSlowControl\lManager.cc">
<polygon fill="white" stroke="black" points="1460,-0.5 1460,-30.5 1615,-30.5 1615,-0.5 1460,-0.5"/>
<text text-anchor="start" x="1468" y="-18.5" font-family="Helvetica,sans-Serif" font-size="10.00">test/analysis/TestSlowControl</text>
<text text-anchor="middle" x="1537.5" y="-7.5" font-family="Helvetica,sans-Serif" font-size="10.00">Manager.cc</text>
</a>
</g>
</g>
<!-- Node8&#45;&gt;Node13 -->
<g id="edge9" class="edge"><title>Node8&#45;&gt;Node13</title>
<path fill="none" stroke="midnightblue" d="M1135.08,-74.0613C1209.12,-64.6823 1339.29,-47.7512 1450.5,-31 1453.53,-30.5438 1456.61,-30.0705 1459.73,-29.5853"/>
<polygon fill="midnightblue" stroke="midnightblue" points="1134.49,-70.6073 1125.01,-75.3338 1135.37,-77.5521 1134.49,-70.6073"/>
</g>
<!-- Node14&#45;&gt;Node7 -->
<g id="edge11" class="edge"><title>Node14&#45;&gt;Node7</title>
<path fill="none" stroke="midnightblue" d="M354.5,-57.2495C354.5,-46.017 354.5,-33.3767 354.5,-25.1945"/>
<polygon fill="midnightblue" stroke="midnightblue" points="351,-57.3959 354.5,-67.396 358,-57.396 351,-57.3959"/>
</g>
<!-- Node14&#45;&gt;Node12 -->
<g id="edge14" class="edge"><title>Node14&#45;&gt;Node12</title>
<path fill="none" stroke="midnightblue" d="M390.337,-62.7143C409.894,-52.4631 433.702,-39.9826 451.646,-30.5765"/>
<polygon fill="midnightblue" stroke="midnightblue" points="388.638,-59.6533 381.406,-67.396 391.888,-65.8531 388.638,-59.6533"/>
</g>
<!-- Node15 -->
<g id="node11" class="node"><title>Node15</title>
<g id="a_node11"><a xlink:href="_goat_reader_8cc.html" target="_top" xlink:title="src/analysis/input\l/goat/GoatReader.cc">
<polygon fill="white" stroke="black" points="0,-0.5 0,-30.5 113,-30.5 113,-0.5 0,-0.5"/>
<text text-anchor="start" x="8" y="-18.5" font-family="Helvetica,sans-Serif" font-size="10.00">src/analysis/input</text>
<text text-anchor="middle" x="56.5" y="-7.5" font-family="Helvetica,sans-Serif" font-size="10.00">/goat/GoatReader.cc</text>
</a>
</g>
</g>
<!-- Node14&#45;&gt;Node15 -->
<g id="edge12" class="edge"><title>Node14&#45;&gt;Node15</title>
<path fill="none" stroke="midnightblue" d="M289.872,-67.6024C243.096,-57.5168 178.369,-43.5057 121.5,-31 118.79,-30.404 116.017,-29.7924 113.216,-29.1732"/>
<polygon fill="midnightblue" stroke="midnightblue" points="289.356,-71.0714 299.869,-69.757 290.831,-64.2285 289.356,-71.0714"/>
</g>
<!-- Node16 -->
<g id="node12" class="node"><title>Node16</title>
<g id="a_node12"><a xlink:href="_test_goat_reader_8cc.html" target="_top" xlink:title="test/analysis/TestGoatReader.cc">
<polygon fill="white" stroke="black" points="131,-6 131,-25 298,-25 298,-6 131,-6"/>
<text text-anchor="middle" x="214.5" y="-13" font-family="Helvetica,sans-Serif" font-size="10.00">test/analysis/TestGoatReader.cc</text>
</a>
</g>
</g>
<!-- Node14&#45;&gt;Node16 -->
<g id="edge13" class="edge"><title>Node14&#45;&gt;Node16</title>
<path fill="none" stroke="midnightblue" d="M314.937,-63.1315C287.99,-50.6205 253.571,-34.6399 232.823,-25.007"/>
<polygon fill="midnightblue" stroke="midnightblue" points="313.578,-66.3593 324.122,-67.396 316.526,-60.0103 313.578,-66.3593"/>
</g>
<!-- Node17&#45;&gt;Node7 -->
<g id="edge16" class="edge"><title>Node17&#45;&gt;Node7</title>
<path fill="none" stroke="midnightblue" d="M646.134,-73.2695C583.027,-64.8366 485.659,-50.2455 402.5,-31 395.291,-29.3316 387.578,-27.1726 380.489,-25.0327"/>
<polygon fill="midnightblue" stroke="midnightblue" points="645.974,-76.7788 656.347,-74.6204 646.892,-69.8392 645.974,-76.7788"/>
</g>
<!-- Node17&#45;&gt;Node12 -->
<g id="edge19" class="edge"><title>Node17&#45;&gt;Node12</title>
<path fill="none" stroke="midnightblue" d="M652.074,-64.7149C613.994,-54.1373 565.385,-40.6348 529.299,-30.6109"/>
<polygon fill="midnightblue" stroke="midnightblue" points="651.442,-68.1718 662.014,-67.476 653.315,-61.4272 651.442,-68.1718"/>
</g>
<!-- Node18 -->
<g id="node14" class="node"><title>Node18</title>
<g id="a_node14"><a xlink:href="_pluto_reader_8cc.html" target="_top" xlink:title="src/analysis/input\l/pluto/PlutoReader.cc">
<polygon fill="white" stroke="black" points="890.5,-0.5 890.5,-30.5 1006.5,-30.5 1006.5,-0.5 890.5,-0.5"/>
<text text-anchor="start" x="898.5" y="-18.5" font-family="Helvetica,sans-Serif" font-size="10.00">src/analysis/input</text>
<text text-anchor="middle" x="948.5" y="-7.5" font-family="Helvetica,sans-Serif" font-size="10.00">/pluto/PlutoReader.cc</text>
</a>
</g>
</g>
<!-- Node17&#45;&gt;Node18 -->
<g id="edge17" class="edge"><title>Node17&#45;&gt;Node18</title>
<path fill="none" stroke="midnightblue" d="M773.443,-64.7149C811.848,-54.1373 860.872,-40.6348 897.267,-30.6109"/>
<polygon fill="midnightblue" stroke="midnightblue" points="772.13,-61.4462 763.418,-67.476 773.988,-68.1949 772.13,-61.4462"/>
</g>
<!-- Node19 -->
<g id="node15" class="node"><title>Node19</title>
<g id="a_node15"><a xlink:href="_test_fitter_8cc.html" target="_top" xlink:title="test/analysis/TestFitter.cc">
<polygon fill="white" stroke="black" points="564,-6 564,-25 699,-25 699,-6 564,-6"/>
<text text-anchor="middle" x="631.5" y="-13" font-family="Helvetica,sans-Serif" font-size="10.00">test/analysis/TestFitter.cc</text>
</a>
</g>
</g>
<!-- Node17&#45;&gt;Node19 -->
<g id="edge18" class="edge"><title>Node17&#45;&gt;Node19</title>
<path fill="none" stroke="midnightblue" d="M686.964,-61.008C671.927,-48.9412 653.687,-34.3046 642.335,-25.1945"/>
<polygon fill="midnightblue" stroke="midnightblue" points="684.934,-63.867 694.924,-67.396 689.315,-58.4075 684.934,-63.867"/>
</g>
<!-- Node20 -->
<g id="node16" class="node"><title>Node20</title>
<g id="a_node16"><a xlink:href="_test_tree_fitter_8cc.html" target="_top" xlink:title="test/analysis/TestTreeFitter.cc">
<polygon fill="white" stroke="black" points="717,-6 717,-25 872,-25 872,-6 717,-6"/>
<text text-anchor="middle" x="794.5" y="-13" font-family="Helvetica,sans-Serif" font-size="10.00">test/analysis/TestTreeFitter.cc</text>
</a>
</g>
</g>
<!-- Node17&#45;&gt;Node20 -->
<g id="edge20" class="edge"><title>Node17&#45;&gt;Node20</title>
<path fill="none" stroke="midnightblue" d="M738.351,-61.008C753.574,-48.9412 772.039,-34.3046 783.532,-25.1945"/>
<polygon fill="midnightblue" stroke="midnightblue" points="735.955,-58.4412 730.293,-67.396 740.304,-63.9268 735.955,-58.4412"/>
</g>
<!-- Node24 -->
<g id="node20" class="node"><title>Node24</title>
<g id="a_node20"><a xlink:href="_slow_control_manager_8h.html" target="_top" xlink:title="src/analysis/slowcontrol\l/SlowControlManager.h">
<polygon fill="white" stroke="black" points="1548.5,-67.5 1548.5,-97.5 1676.5,-97.5 1676.5,-67.5 1548.5,-67.5"/>
<text text-anchor="start" x="1556.5" y="-85.5" font-family="Helvetica,sans-Serif" font-size="10.00">src/analysis/slowcontrol</text>
<text text-anchor="middle" x="1612.5" y="-74.5" font-family="Helvetica,sans-Serif" font-size="10.00">/SlowControlManager.h</text>
</a>
</g>
</g>
<!-- Node23&#45;&gt;Node24 -->
<g id="edge24" class="edge"><title>Node23&#45;&gt;Node24</title>
<path fill="none" stroke="midnightblue" d="M1465.65,-131.228C1498,-120.713 1538.81,-107.451 1569.19,-97.5765"/>
<polygon fill="midnightblue" stroke="midnightblue" points="1464.33,-127.976 1455.9,-134.396 1466.49,-134.634 1464.33,-127.976"/>
</g>
<!-- Node24&#45;&gt;Node13 -->
<g id="edge27" class="edge"><title>Node24&#45;&gt;Node13</title>
<path fill="none" stroke="midnightblue" d="M1588.38,-60.5978C1577.06,-50.7831 1563.86,-39.3442 1553.74,-30.5765"/>
<polygon fill="midnightblue" stroke="midnightblue" points="1586.38,-63.4915 1596.23,-67.396 1590.96,-58.2017 1586.38,-63.4915"/>
</g>
<!-- Node24&#45;&gt;Node21 -->
<g id="edge25" class="edge"><title>Node24&#45;&gt;Node21</title>
<path fill="none" stroke="midnightblue" d="M1636.61,-60.8832C1648.16,-51.0054 1661.69,-39.4293 1672.04,-30.5765"/>
<polygon fill="midnightblue" stroke="midnightblue" points="1634.32,-58.2364 1628.99,-67.396 1638.87,-63.5561 1634.32,-58.2364"/>
</g>
<!-- Node25 -->
<g id="node21" class="node"><title>Node25</title>
<g id="a_node21"><a xlink:href="_slow_control_manager_8cc.html" target="_top" xlink:title="src/analysis/slowcontrol\l/SlowControlManager.cc">
<polygon fill="white" stroke="black" points="1762,-0.5 1762,-30.5 1893,-30.5 1893,-0.5 1762,-0.5"/>
<text text-anchor="start" x="1770" y="-18.5" font-family="Helvetica,sans-Serif" font-size="10.00">src/analysis/slowcontrol</text>
<text text-anchor="middle" x="1827.5" y="-7.5" font-family="Helvetica,sans-Serif" font-size="10.00">/SlowControlManager.cc</text>
</a>
</g>
</g>
<!-- Node24&#45;&gt;Node25 -->
<g id="edge26" class="edge"><title>Node24&#45;&gt;Node25</title>
<path fill="none" stroke="midnightblue" d="M1668.47,-64.5797C1703.39,-54.0225 1747.81,-40.5921 1780.83,-30.6109"/>
<polygon fill="midnightblue" stroke="midnightblue" points="1667.45,-61.2318 1658.89,-67.476 1669.47,-67.9323 1667.45,-61.2318"/>
</g>
</g>
</svg>
