<?xml version="1.0" encoding="UTF-8" standalone="no"?>
<!DOCTYPE svg PUBLIC "-//W3C//DTD SVG 1.1//EN"
 "http://www.w3.org/Graphics/SVG/1.1/DTD/svg11.dtd">
<!-- Generated by graphviz version 2.38.0 (20140413.2041)
 -->
<!-- Title: src/base/interval_algo.h Pages: 1 -->
<svg width="494pt" height="140pt"
 viewBox="0.00 0.00 493.50 140.00" xmlns="http://www.w3.org/2000/svg" xmlns:xlink="http://www.w3.org/1999/xlink">
<g id="graph0" class="graph" transform="scale(1 1) rotate(0) translate(4 136)">
<title>src/base/interval_algo.h</title>
<polygon fill="white" stroke="none" points="-4,4 -4,-136 489.5,-136 489.5,4 -4,4"/>
<!-- Node0 -->
<g id="node1" class="node"><title>Node0</title>
<polygon fill="#bfbfbf" stroke="black" points="291,-112.5 291,-131.5 421,-131.5 421,-112.5 291,-112.5"/>
<text text-anchor="middle" x="356" y="-119.5" font-family="Helvetica,sans-Serif" font-size="10.00">src/base/interval_algo.h</text>
</g>
<!-- Node1 -->
<g id="node2" class="node"><title>Node1</title>
<g id="a_node2"><a xlink:href="interval_8h.html" target="_top" xlink:title="base/interval.h">
<polygon fill="white" stroke="black" points="242.5,-56.5 242.5,-75.5 329.5,-75.5 329.5,-56.5 242.5,-56.5"/>
<text text-anchor="middle" x="286" y="-63.5" font-family="Helvetica,sans-Serif" font-size="10.00">base/interval.h</text>
</a>
</g>
</g>
<!-- Node0&#45;&gt;Node1 -->
<g id="edge1" class="edge"><title>Node0&#45;&gt;Node1</title>
<path fill="none" stroke="midnightblue" d="M344.753,-112.324C334.203,-104.185 318.199,-91.8395 305.558,-82.0874"/>
<polygon fill="midnightblue" stroke="midnightblue" points="307.507,-79.1707 297.451,-75.8339 303.231,-84.7132 307.507,-79.1707"/>
</g>
<!-- Node8 -->
<g id="node9" class="node"><title>Node8</title>
<polygon fill="white" stroke="#bfbfbf" points="438.5,-0.5 438.5,-19.5 485.5,-19.5 485.5,-0.5 438.5,-0.5"/>
<text text-anchor="middle" x="462" y="-7.5" font-family="Helvetica,sans-Serif" font-size="10.00">cmath</text>
</g>
<!-- Node0&#45;&gt;Node8 -->
<g id="edge9" class="edge"><title>Node0&#45;&gt;Node8</title>
<path fill="none" stroke="midnightblue" d="M364.318,-112.368C382.043,-93.9744 423.771,-50.6712 446.532,-27.0519"/>
<polygon fill="midnightblue" stroke="midnightblue" points="449.302,-29.2209 453.721,-19.5914 444.262,-24.3636 449.302,-29.2209"/>
</g>
<!-- Node2 -->
<g id="node3" class="node"><title>Node2</title>
<g id="a_node3"><a xlink:href="types_8h.html" target="_top" xlink:title="types.h">
<polygon fill="white" stroke="black" points="0,-0.5 0,-19.5 52,-19.5 52,-0.5 0,-0.5"/>
<text text-anchor="middle" x="26" y="-7.5" font-family="Helvetica,sans-Serif" font-size="10.00">types.h</text>
</a>
</g>
</g>
<!-- Node1&#45;&gt;Node2 -->
<g id="edge2" class="edge"><title>Node1&#45;&gt;Node2</title>
<path fill="none" stroke="midnightblue" d="M242.296,-56.9873C198.982,-48.8836 130.515,-35.64 62.3829,-20.2251"/>
<polygon fill="midnightblue" stroke="midnightblue" points="62.8637,-16.745 52.336,-17.9354 61.3082,-23.57 62.8637,-16.745"/>
</g>
<!-- Node3 -->
<g id="node4" class="node"><title>Node3</title>
<polygon fill="white" stroke="#bfbfbf" points="70,-0.5 70,-19.5 132,-19.5 132,-0.5 70,-0.5"/>
<text text-anchor="middle" x="101" y="-7.5" font-family="Helvetica,sans-Serif" font-size="10.00">algorithm</text>
</g>
<!-- Node1&#45;&gt;Node3 -->
<g id="edge3" class="edge"><title>Node1&#45;&gt;Node3</title>
<path fill="none" stroke="midnightblue" d="M256.686,-56.4435C225.158,-47.2406 174.869,-32.5617 140.014,-22.3879"/>
<polygon fill="midnightblue" stroke="midnightblue" points="140.757,-18.9587 130.177,-19.5164 138.795,-25.6783 140.757,-18.9587"/>
</g>
<!-- Node4 -->
<g id="node5" class="node"><title>Node4</title>
<polygon fill="white" stroke="#bfbfbf" points="150,-0.5 150,-19.5 214,-19.5 214,-0.5 150,-0.5"/>
<text text-anchor="middle" x="182" y="-7.5" font-family="Helvetica,sans-Serif" font-size="10.00">stdexcept</text>
</g>
<!-- Node1&#45;&gt;Node4 -->
<g id="edge4" class="edge"><title>Node1&#45;&gt;Node4</title>
<path fill="none" stroke="midnightblue" d="M269.291,-56.324C252.688,-47.7034 226.998,-34.3643 207.78,-24.3855"/>
<polygon fill="midnightblue" stroke="midnightblue" points="209.156,-21.1565 198.668,-19.6545 205.93,-27.3689 209.156,-21.1565"/>
</g>
<!-- Node5 -->
<g id="node6" class="node"><title>Node5</title>
<polygon fill="white" stroke="#bfbfbf" points="232,-0.5 232,-19.5 274,-19.5 274,-0.5 232,-0.5"/>
<text text-anchor="middle" x="253" y="-7.5" font-family="Helvetica,sans-Serif" font-size="10.00">limits</text>
</g>
<!-- Node1&#45;&gt;Node5 -->
<g id="edge5" class="edge"><title>Node1&#45;&gt;Node5</title>
<path fill="none" stroke="midnightblue" d="M280.551,-56.083C275.986,-48.6127 269.332,-37.7244 263.707,-28.5199"/>
<polygon fill="midnightblue" stroke="midnightblue" points="266.549,-26.4588 258.348,-19.7511 260.576,-30.109 266.549,-26.4588"/>
</g>
<!-- Node6 -->
<g id="node7" class="node"><title>Node6</title>
<polygon fill="white" stroke="#bfbfbf" points="292.5,-0.5 292.5,-19.5 345.5,-19.5 345.5,-0.5 292.5,-0.5"/>
<text text-anchor="middle" x="319" y="-7.5" font-family="Helvetica,sans-Serif" font-size="10.00">istream</text>
</g>
<!-- Node1&#45;&gt;Node6 -->
<g id="edge6" class="edge"><title>Node1&#45;&gt;Node6</title>
<path fill="none" stroke="midnightblue" d="M291.449,-56.083C296.014,-48.6127 302.668,-37.7244 308.293,-28.5199"/>
<polygon fill="midnightblue" stroke="midnightblue" points="311.424,-30.109 313.652,-19.7511 305.451,-26.4588 311.424,-30.109"/>
</g>
<!-- Node7 -->
<g id="node8" class="node"><title>Node7</title>
<polygon fill="white" stroke="#bfbfbf" points="364,-0.5 364,-19.5 420,-19.5 420,-0.5 364,-0.5"/>
<text text-anchor="middle" x="392" y="-7.5" font-family="Helvetica,sans-Serif" font-size="10.00">sstream</text>
</g>
<!-- Node1&#45;&gt;Node7 -->
<g id="edge7" class="edge"><title>Node1&#45;&gt;Node7</title>
<path fill="none" stroke="midnightblue" d="M303.031,-56.324C320.03,-47.6641 346.376,-34.2424 365.993,-24.249"/>
<polygon fill="midnightblue" stroke="midnightblue" points="367.69,-27.3125 375.012,-19.6545 364.512,-21.0752 367.69,-27.3125"/>
</g>
<!-- Node1&#45;&gt;Node8 -->
<g id="edge8" class="edge"><title>Node1&#45;&gt;Node8</title>
<path fill="none" stroke="midnightblue" d="M313.888,-56.4435C345.071,-46.8758 395.546,-31.3894 428.755,-21.2001"/>
<polygon fill="midnightblue" stroke="midnightblue" points="429.934,-24.4997 438.467,-18.2203 427.88,-17.8076 429.934,-24.4997"/>
</g>
</g>
</svg>
