<?xml version="1.0" encoding="UTF-8" standalone="no"?>
<!DOCTYPE svg PUBLIC "-//W3C//DTD SVG 1.1//EN"
 "http://www.w3.org/Graphics/SVG/1.1/DTD/svg11.dtd">
<!-- Generated by graphviz version 2.38.0 (20140413.2041)
 -->
<!-- Title: src/base/piecewise_interval.h Pages: 1 -->
<svg width="712pt" height="207pt"
 viewBox="0.00 0.00 711.90 207.00" xmlns="http://www.w3.org/2000/svg" xmlns:xlink="http://www.w3.org/1999/xlink">
<g id="graph0" class="graph" transform="scale(1 1) rotate(0) translate(4 203)">
<title>src/base/piecewise_interval.h</title>
<polygon fill="white" stroke="none" points="-4,4 -4,-203 707.902,-203 707.902,4 -4,4"/>
<!-- Node0 -->
<g id="node1" class="node"><title>Node0</title>
<polygon fill="#bfbfbf" stroke="black" points="531,-168.5 531,-198.5 637,-198.5 637,-168.5 531,-168.5"/>
<text text-anchor="start" x="539" y="-186.5" font-family="Helvetica,sans-Serif" font-size="10.00">src/base/piecewise</text>
<text text-anchor="middle" x="584" y="-175.5" font-family="Helvetica,sans-Serif" font-size="10.00">_interval.h</text>
</g>
<!-- Node1 -->
<g id="node2" class="node"><title>Node1</title>
<g id="a_node2"><a xlink:href="interval_8h.html" target="_top" xlink:title="interval.h">
<polygon fill="white" stroke="black" points="213.5,-112.5 213.5,-131.5 274.5,-131.5 274.5,-112.5 213.5,-112.5"/>
<text text-anchor="middle" x="244" y="-119.5" font-family="Helvetica,sans-Serif" font-size="10.00">interval.h</text>
</a>
</g>
</g>
<!-- Node0&#45;&gt;Node1 -->
<g id="edge1" class="edge"><title>Node0&#45;&gt;Node1</title>
<path fill="none" stroke="midnightblue" d="M530.875,-173.203C462.902,-161.308 346.611,-140.957 285.04,-130.182"/>
<polygon fill="midnightblue" stroke="midnightblue" points="285.377,-126.688 274.923,-128.412 284.17,-133.583 285.377,-126.688"/>
</g>
<!-- Node9 -->
<g id="node10" class="node"><title>Node9</title>
<g id="a_node10"><a xlink:href="printable_8h.html" target="_top" xlink:title="base/std_ext/printable.h">
<polygon fill="white" stroke="black" points="518,-112.5 518,-131.5 650,-131.5 650,-112.5 518,-112.5"/>
<text text-anchor="middle" x="584" y="-119.5" font-family="Helvetica,sans-Serif" font-size="10.00">base/std_ext/printable.h</text>
</a>
</g>
</g>
<!-- Node0&#45;&gt;Node9 -->
<g id="edge9" class="edge"><title>Node0&#45;&gt;Node9</title>
<path fill="none" stroke="midnightblue" d="M584,-168.399C584,-160.466 584,-150.458 584,-141.858"/>
<polygon fill="midnightblue" stroke="midnightblue" points="587.5,-141.658 584,-131.658 580.5,-141.658 587.5,-141.658"/>
</g>
<!-- Node11 -->
<g id="node12" class="node"><title>Node11</title>
<polygon fill="white" stroke="#bfbfbf" points="651.5,-0.5 651.5,-19.5 698.5,-19.5 698.5,-0.5 651.5,-0.5"/>
<text text-anchor="middle" x="675" y="-7.5" font-family="Helvetica,sans-Serif" font-size="10.00">vector</text>
</g>
<!-- Node0&#45;&gt;Node11 -->
<g id="edge17" class="edge"><title>Node0&#45;&gt;Node11</title>
<path fill="none" stroke="midnightblue" d="M612.036,-168.35C642.026,-151.279 687.268,-119.376 702,-76 707.683,-59.2663 698.328,-40.6944 689.112,-27.7019"/>
<polygon fill="midnightblue" stroke="midnightblue" points="691.815,-25.4762 682.94,-19.6897 686.27,-29.7478 691.815,-25.4762"/>
</g>
<!-- Node2 -->
<g id="node3" class="node"><title>Node2</title>
<g id="a_node3"><a xlink:href="types_8h.html" target="_top" xlink:title="types.h">
<polygon fill="white" stroke="black" points="0,-56.5 0,-75.5 52,-75.5 52,-56.5 0,-56.5"/>
<text text-anchor="middle" x="26" y="-63.5" font-family="Helvetica,sans-Serif" font-size="10.00">types.h</text>
</a>
</g>
</g>
<!-- Node1&#45;&gt;Node2 -->
<g id="edge2" class="edge"><title>Node1&#45;&gt;Node2</title>
<path fill="none" stroke="midnightblue" d="M213.228,-113.378C173.436,-103.521 104.244,-86.3814 62.0378,-75.9268"/>
<polygon fill="midnightblue" stroke="midnightblue" points="62.7281,-72.4921 52.1799,-73.4849 61.045,-79.2867 62.7281,-72.4921"/>
</g>
<!-- Node3 -->
<g id="node4" class="node"><title>Node3</title>
<polygon fill="white" stroke="#bfbfbf" points="219,-0.5 219,-19.5 281,-19.5 281,-0.5 219,-0.5"/>
<text text-anchor="middle" x="250" y="-7.5" font-family="Helvetica,sans-Serif" font-size="10.00">algorithm</text>
</g>
<!-- Node1&#45;&gt;Node3 -->
<g id="edge3" class="edge"><title>Node1&#45;&gt;Node3</title>
<path fill="none" stroke="midnightblue" d="M213.405,-118.605C162.22,-113.392 67.7555,-97.9136 99,-56 124.073,-22.3655 173.296,-12.88 208.736,-10.6805"/>
<polygon fill="midnightblue" stroke="midnightblue" points="208.96,-14.1741 218.792,-10.226 208.644,-7.18122 208.96,-14.1741"/>
</g>
<!-- Node4 -->
<g id="node5" class="node"><title>Node4</title>
<polygon fill="white" stroke="#bfbfbf" points="108,-56.5 108,-75.5 172,-75.5 172,-56.5 108,-56.5"/>
<text text-anchor="middle" x="140" y="-63.5" font-family="Helvetica,sans-Serif" font-size="10.00">stdexcept</text>
</g>
<!-- Node1&#45;&gt;Node4 -->
<g id="edge4" class="edge"><title>Node1&#45;&gt;Node4</title>
<path fill="none" stroke="midnightblue" d="M227.291,-112.324C210.688,-103.703 184.998,-90.3643 165.78,-80.3855"/>
<polygon fill="midnightblue" stroke="midnightblue" points="167.156,-77.1565 156.668,-75.6545 163.93,-83.3689 167.156,-77.1565"/>
</g>
<!-- Node5 -->
<g id="node6" class="node"><title>Node5</title>
<polygon fill="white" stroke="#bfbfbf" points="190,-56.5 190,-75.5 232,-75.5 232,-56.5 190,-56.5"/>
<text text-anchor="middle" x="211" y="-63.5" font-family="Helvetica,sans-Serif" font-size="10.00">limits</text>
</g>
<!-- Node1&#45;&gt;Node5 -->
<g id="edge5" class="edge"><title>Node1&#45;&gt;Node5</title>
<path fill="none" stroke="midnightblue" d="M238.551,-112.083C233.986,-104.613 227.332,-93.7244 221.707,-84.5199"/>
<polygon fill="midnightblue" stroke="midnightblue" points="224.549,-82.4588 216.348,-75.7511 218.576,-86.109 224.549,-82.4588"/>
</g>
<!-- Node6 -->
<g id="node7" class="node"><title>Node6</title>
<polygon fill="white" stroke="#bfbfbf" points="250.5,-56.5 250.5,-75.5 303.5,-75.5 303.5,-56.5 250.5,-56.5"/>
<text text-anchor="middle" x="277" y="-63.5" font-family="Helvetica,sans-Serif" font-size="10.00">istream</text>
</g>
<!-- Node1&#45;&gt;Node6 -->
<g id="edge6" class="edge"><title>Node1&#45;&gt;Node6</title>
<path fill="none" stroke="midnightblue" d="M249.449,-112.083C254.014,-104.613 260.668,-93.7244 266.293,-84.5199"/>
<polygon fill="midnightblue" stroke="midnightblue" points="269.424,-86.109 271.652,-75.7511 263.451,-82.4588 269.424,-86.109"/>
</g>
<!-- Node7 -->
<g id="node8" class="node"><title>Node7</title>
<polygon fill="white" stroke="#bfbfbf" points="322,-56.5 322,-75.5 378,-75.5 378,-56.5 322,-56.5"/>
<text text-anchor="middle" x="350" y="-63.5" font-family="Helvetica,sans-Serif" font-size="10.00">sstream</text>
</g>
<!-- Node1&#45;&gt;Node7 -->
<g id="edge7" class="edge"><title>Node1&#45;&gt;Node7</title>
<path fill="none" stroke="midnightblue" d="M261.031,-112.324C278.03,-103.664 304.376,-90.2424 323.993,-80.249"/>
<polygon fill="midnightblue" stroke="midnightblue" points="325.69,-83.3125 333.012,-75.6545 322.512,-77.0752 325.69,-83.3125"/>
</g>
<!-- Node8 -->
<g id="node9" class="node"><title>Node8</title>
<polygon fill="white" stroke="#bfbfbf" points="396.5,-56.5 396.5,-75.5 443.5,-75.5 443.5,-56.5 396.5,-56.5"/>
<text text-anchor="middle" x="420" y="-63.5" font-family="Helvetica,sans-Serif" font-size="10.00">cmath</text>
</g>
<!-- Node1&#45;&gt;Node8 -->
<g id="edge8" class="edge"><title>Node1&#45;&gt;Node8</title>
<path fill="none" stroke="midnightblue" d="M271.888,-112.444C303.071,-102.876 353.546,-87.3894 386.755,-77.2001"/>
<polygon fill="midnightblue" stroke="midnightblue" points="387.934,-80.4997 396.467,-74.2203 385.88,-73.8076 387.934,-80.4997"/>
</g>
<!-- Node10 -->
<g id="node11" class="node"><title>Node10</title>
<g id="a_node11"><a xlink:href="container_8h.html" target="_top" xlink:title="container.h">
<polygon fill="white" stroke="black" points="462,-56.5 462,-75.5 532,-75.5 532,-56.5 462,-56.5"/>
<text text-anchor="middle" x="497" y="-63.5" font-family="Helvetica,sans-Serif" font-size="10.00">container.h</text>
</a>
</g>
</g>
<!-- Node9&#45;&gt;Node10 -->
<g id="edge10" class="edge"><title>Node9&#45;&gt;Node10</title>
<path fill="none" stroke="midnightblue" d="M570.022,-112.324C556.45,-103.9 535.62,-90.9709 519.675,-81.0741"/>
<polygon fill="midnightblue" stroke="midnightblue" points="521.286,-77.9544 510.943,-75.6545 517.594,-83.9019 521.286,-77.9544"/>
</g>
<!-- Node14 -->
<g id="node15" class="node"><title>Node14</title>
<polygon fill="white" stroke="#bfbfbf" points="550,-56.5 550,-75.5 618,-75.5 618,-56.5 550,-56.5"/>
<text text-anchor="middle" x="584" y="-63.5" font-family="Helvetica,sans-Serif" font-size="10.00">type_traits</text>
</g>
<!-- Node9&#45;&gt;Node14 -->
<g id="edge15" class="edge"><title>Node9&#45;&gt;Node14</title>
<path fill="none" stroke="midnightblue" d="M584,-112.083C584,-105.006 584,-94.8611 584,-85.9865"/>
<polygon fill="midnightblue" stroke="midnightblue" points="587.5,-85.751 584,-75.7511 580.5,-85.7511 587.5,-85.751"/>
</g>
<!-- Node15 -->
<g id="node16" class="node"><title>Node15</title>
<polygon fill="white" stroke="#bfbfbf" points="636.5,-56.5 636.5,-75.5 693.5,-75.5 693.5,-56.5 636.5,-56.5"/>
<text text-anchor="middle" x="665" y="-63.5" font-family="Helvetica,sans-Serif" font-size="10.00">ostream</text>
</g>
<!-- Node9&#45;&gt;Node15 -->
<g id="edge16" class="edge"><title>Node9&#45;&gt;Node15</title>
<path fill="none" stroke="midnightblue" d="M597.014,-112.324C609.532,-103.979 628.682,-91.2122 643.471,-81.3524"/>
<polygon fill="midnightblue" stroke="midnightblue" points="645.639,-84.1137 652.018,-75.6545 641.756,-78.2894 645.639,-84.1137"/>
</g>
<!-- Node10&#45;&gt;Node3 -->
<g id="edge12" class="edge"><title>Node10&#45;&gt;Node3</title>
<path fill="none" stroke="midnightblue" d="M461.873,-57.3205C416.831,-47.4732 338.854,-30.4256 291.102,-19.9858"/>
<polygon fill="midnightblue" stroke="midnightblue" points="291.62,-16.5166 281.103,-17.7999 290.125,-23.355 291.62,-16.5166"/>
</g>
<!-- Node10&#45;&gt;Node11 -->
<g id="edge11" class="edge"><title>Node10&#45;&gt;Node11</title>
<path fill="none" stroke="midnightblue" d="M525.205,-56.4435C556.831,-46.8489 608.078,-31.3021 641.661,-21.1141"/>
<polygon fill="midnightblue" stroke="midnightblue" points="642.922,-24.3892 651.475,-18.1368 640.889,-17.6907 642.922,-24.3892"/>
</g>
<!-- Node12 -->
<g id="node13" class="node"><title>Node12</title>
<polygon fill="white" stroke="#bfbfbf" points="435,-0.5 435,-19.5 491,-19.5 491,-0.5 435,-0.5"/>
<text text-anchor="middle" x="463" y="-7.5" font-family="Helvetica,sans-Serif" font-size="10.00">numeric</text>
</g>
<!-- Node10&#45;&gt;Node12 -->
<g id="edge13" class="edge"><title>Node10&#45;&gt;Node12</title>
<path fill="none" stroke="midnightblue" d="M491.386,-56.083C486.633,-48.5341 479.682,-37.4948 473.848,-28.2298"/>
<polygon fill="midnightblue" stroke="midnightblue" points="476.8,-26.3486 468.51,-19.7511 470.876,-30.0783 476.8,-26.3486"/>
</g>
<!-- Node13 -->
<g id="node14" class="node"><title>Node13</title>
<polygon fill="white" stroke="#bfbfbf" points="509,-0.5 509,-19.5 553,-19.5 553,-0.5 509,-0.5"/>
<text text-anchor="middle" x="531" y="-7.5" font-family="Helvetica,sans-Serif" font-size="10.00">string</text>
</g>
<!-- Node10&#45;&gt;Node13 -->
<g id="edge14" class="edge"><title>Node10&#45;&gt;Node13</title>
<path fill="none" stroke="midnightblue" d="M502.614,-56.083C507.367,-48.5341 514.318,-37.4948 520.152,-28.2298"/>
<polygon fill="midnightblue" stroke="midnightblue" points="523.124,-30.0783 525.49,-19.7511 517.2,-26.3486 523.124,-30.0783"/>
</g>
</g>
</svg>
