<?xml version="1.0" encoding="UTF-8" standalone="no"?>
<!DOCTYPE svg PUBLIC "-//W3C//DTD SVG 1.1//EN"
 "http://www.w3.org/Graphics/SVG/1.1/DTD/svg11.dtd">
<!-- Generated by graphviz version 2.38.0 (20140413.2041)
 -->
<!-- Title: src/root&#45;addons/analysis_codes/Math.h Pages: 1 -->
<svg width="1682pt" height="117pt"
 viewBox="0.00 0.00 1682.00 117.00" xmlns="http://www.w3.org/2000/svg" xmlns:xlink="http://www.w3.org/1999/xlink">
<g id="graph0" class="graph" transform="scale(1 1) rotate(0) translate(4 113)">
<title>src/root&#45;addons/analysis_codes/Math.h</title>
<polygon fill="white" stroke="none" points="-4,4 -4,-113 1678,-113 1678,4 -4,4"/>
<!-- Node24 -->
<g id="node1" class="node"><title>Node24</title>
<polygon fill="#bfbfbf" stroke="black" points="762.5,-78.5 762.5,-108.5 896.5,-108.5 896.5,-78.5 762.5,-78.5"/>
<text text-anchor="start" x="770.5" y="-96.5" font-family="Helvetica,sans-Serif" font-size="10.00">src/root&#45;addons/analysis</text>
<text text-anchor="middle" x="829.5" y="-85.5" font-family="Helvetica,sans-Serif" font-size="10.00">_codes/Math.h</text>
</g>
<!-- Node25 -->
<g id="node2" class="node"><title>Node25</title>
<g id="a_node2"><a xlink:href="_ant-mc-omegagun_8cc.html" target="_top" xlink:title="progs/Ant&#45;mc&#45;omegagun.cc">
<polygon fill="white" stroke="black" points="0,-11.5 0,-30.5 151,-30.5 151,-11.5 0,-11.5"/>
<text text-anchor="middle" x="75.5" y="-18.5" font-family="Helvetica,sans-Serif" font-size="10.00">progs/Ant&#45;mc&#45;omegagun.cc</text>
</a>
</g>
</g>
<!-- Node24&#45;&gt;Node25 -->
<g id="edge1" class="edge"><title>Node24&#45;&gt;Node25</title>
<path fill="none" stroke="midnightblue" d="M751.792,-90.6363C626.464,-86.7367 372.226,-75.1274 159.5,-42 141.725,-39.2319 122.157,-34.6644 106.383,-30.5926"/>
<polygon fill="midnightblue" stroke="midnightblue" points="751.951,-94.1426 762.052,-90.9472 752.163,-87.1458 751.951,-94.1426"/>
</g>
<!-- Node26 -->
<g id="node3" class="node"><title>Node26</title>
<g id="a_node3"><a xlink:href="_ant-mc-pi0gun_8cc.html" target="_top" xlink:title="progs/Ant&#45;mc&#45;pi0gun.cc">
<polygon fill="white" stroke="black" points="169,-11.5 169,-30.5 300,-30.5 300,-11.5 169,-11.5"/>
<text text-anchor="middle" x="234.5" y="-18.5" font-family="Helvetica,sans-Serif" font-size="10.00">progs/Ant&#45;mc&#45;pi0gun.cc</text>
</a>
</g>
</g>
<!-- Node24&#45;&gt;Node26 -->
<g id="edge2" class="edge"><title>Node24&#45;&gt;Node26</title>
<path fill="none" stroke="midnightblue" d="M752.155,-89.0509C649.921,-83.5709 464.513,-70.4372 308.5,-42 292.789,-39.1363 275.547,-34.5628 261.662,-30.5116"/>
<polygon fill="midnightblue" stroke="midnightblue" points="752.219,-92.559 762.389,-89.5887 752.586,-85.5686 752.219,-92.559"/>
</g>
<!-- Node27 -->
<g id="node4" class="node"><title>Node27</title>
<g id="a_node4"><a xlink:href="_etap_omega_g__fit_8cc.html" target="_top" xlink:title="progs/EtapOmegaG_fit.cc">
<polygon fill="white" stroke="black" points="318,-11.5 318,-30.5 457,-30.5 457,-11.5 318,-11.5"/>
<text text-anchor="middle" x="387.5" y="-18.5" font-family="Helvetica,sans-Serif" font-size="10.00">progs/EtapOmegaG_fit.cc</text>
</a>
</g>
</g>
<!-- Node24&#45;&gt;Node27 -->
<g id="edge3" class="edge"><title>Node24&#45;&gt;Node27</title>
<path fill="none" stroke="midnightblue" d="M752.205,-84.3462C678.23,-75.9379 563.698,-61.3368 465.5,-42 449.589,-38.8669 432.082,-34.4667 417.693,-30.591"/>
<polygon fill="midnightblue" stroke="midnightblue" points="752.039,-87.8496 762.368,-85.4914 752.822,-80.8936 752.039,-87.8496"/>
</g>
<!-- Node28 -->
<g id="node5" class="node"><title>Node28</title>
<g id="a_node5"><a xlink:href="_omega_eta_g__fit_8cc.html" target="_top" xlink:title="progs/OmegaEtaG_fit.cc">
<polygon fill="white" stroke="black" points="475,-11.5 475,-30.5 608,-30.5 608,-11.5 475,-11.5"/>
<text text-anchor="middle" x="541.5" y="-18.5" font-family="Helvetica,sans-Serif" font-size="10.00">progs/OmegaEtaG_fit.cc</text>
</a>
</g>
</g>
<!-- Node24&#45;&gt;Node28 -->
<g id="edge4" class="edge"><title>Node24&#45;&gt;Node28</title>
<path fill="none" stroke="midnightblue" d="M758.684,-76.0695C717.435,-66.3896 664.458,-53.7698 617.5,-42 602.942,-38.3512 586.863,-34.1454 573.258,-30.5351"/>
<polygon fill="midnightblue" stroke="midnightblue" points="758.103,-79.5282 768.638,-78.4018 759.7,-72.7127 758.103,-79.5282"/>
</g>
<!-- Node29 -->
<g id="node6" class="node"><title>Node29</title>
<g id="a_node6"><a xlink:href="_single_pi0__fit_8cc.html" target="_top" xlink:title="progs/SinglePi0_fit.cc">
<polygon fill="white" stroke="black" points="626.5,-11.5 626.5,-30.5 744.5,-30.5 744.5,-11.5 626.5,-11.5"/>
<text text-anchor="middle" x="685.5" y="-18.5" font-family="Helvetica,sans-Serif" font-size="10.00">progs/SinglePi0_fit.cc</text>
</a>
</g>
</g>
<!-- Node24&#45;&gt;Node29 -->
<g id="edge5" class="edge"><title>Node24&#45;&gt;Node29</title>
<path fill="none" stroke="midnightblue" d="M791.373,-73.8339C762.698,-59.7948 724.738,-41.2102 702.93,-30.5336"/>
<polygon fill="midnightblue" stroke="midnightblue" points="790.185,-77.149 800.706,-78.4027 793.263,-70.862 790.185,-77.149"/>
</g>
<!-- Node30 -->
<g id="node7" class="node"><title>Node30</title>
<g id="a_node7"><a xlink:href="_fits_8cc.html" target="_top" xlink:title="src/root&#45;addons/analysis\l_codes/Fits.cc">
<polygon fill="white" stroke="black" points="762.5,-6 762.5,-36 896.5,-36 896.5,-6 762.5,-6"/>
<text text-anchor="start" x="770.5" y="-24" font-family="Helvetica,sans-Serif" font-size="10.00">src/root&#45;addons/analysis</text>
<text text-anchor="middle" x="829.5" y="-13" font-family="Helvetica,sans-Serif" font-size="10.00">_codes/Fits.cc</text>
</a>
</g>
</g>
<!-- Node24&#45;&gt;Node30 -->
<g id="edge6" class="edge"><title>Node24&#45;&gt;Node30</title>
<path fill="none" stroke="midnightblue" d="M829.5,-68.2317C829.5,-57.5679 829.5,-45.4145 829.5,-36.2455"/>
<polygon fill="midnightblue" stroke="midnightblue" points="826,-68.2332 829.5,-78.2333 833,-68.2333 826,-68.2332"/>
</g>
<!-- Node31 -->
<g id="node8" class="node"><title>Node31</title>
<g id="a_node8"><a xlink:href="root-addons_2analysis__codes_2math_8cc.html" target="_top" xlink:title="src/root&#45;addons/analysis\l_codes/Math.cc">
<polygon fill="white" stroke="black" points="914.5,-6 914.5,-36 1048.5,-36 1048.5,-6 914.5,-6"/>
<text text-anchor="start" x="922.5" y="-24" font-family="Helvetica,sans-Serif" font-size="10.00">src/root&#45;addons/analysis</text>
<text text-anchor="middle" x="981.5" y="-13" font-family="Helvetica,sans-Serif" font-size="10.00">_codes/Math.cc</text>
</a>
</g>
</g>
<!-- Node24&#45;&gt;Node31 -->
<g id="edge7" class="edge"><title>Node24&#45;&gt;Node31</title>
<path fill="none" stroke="midnightblue" d="M868.984,-74.1868C894.633,-62.2903 927.561,-47.0175 951.159,-36.0729"/>
<polygon fill="midnightblue" stroke="midnightblue" points="867.493,-71.0199 859.894,-78.4027 870.439,-77.3702 867.493,-71.0199"/>
</g>
<!-- Node32 -->
<g id="node9" class="node"><title>Node32</title>
<g id="a_node9"><a xlink:href="_omega_8cc.html" target="_top" xlink:title="src/root&#45;addons/analysis\l_codes/Omega.cc">
<polygon fill="white" stroke="black" points="1066.5,-6 1066.5,-36 1200.5,-36 1200.5,-6 1066.5,-6"/>
<text text-anchor="start" x="1074.5" y="-24" font-family="Helvetica,sans-Serif" font-size="10.00">src/root&#45;addons/analysis</text>
<text text-anchor="middle" x="1133.5" y="-13" font-family="Helvetica,sans-Serif" font-size="10.00">_codes/Omega.cc</text>
</a>
</g>
</g>
<!-- Node24&#45;&gt;Node32 -->
<g id="edge8" class="edge"><title>Node24&#45;&gt;Node32</title>
<path fill="none" stroke="midnightblue" d="M905.848,-76.375C950.214,-66.8088 1007.13,-54.2009 1057.5,-42 1065.19,-40.1371 1073.3,-38.0917 1081.24,-36.0421"/>
<polygon fill="midnightblue" stroke="midnightblue" points="905.046,-72.9673 896.005,-78.4918 906.518,-79.8109 905.046,-72.9673"/>
</g>
<!-- Node33 -->
<g id="node10" class="node"><title>Node33</title>
<g id="a_node10"><a xlink:href="pi0_8cc.html" target="_top" xlink:title="src/root&#45;addons/analysis\l_codes/pi0.cc">
<polygon fill="white" stroke="black" points="1218.5,-6 1218.5,-36 1352.5,-36 1352.5,-6 1218.5,-6"/>
<text text-anchor="start" x="1226.5" y="-24" font-family="Helvetica,sans-Serif" font-size="10.00">src/root&#45;addons/analysis</text>
<text text-anchor="middle" x="1285.5" y="-13" font-family="Helvetica,sans-Serif" font-size="10.00">_codes/pi0.cc</text>
</a>
</g>
</g>
<!-- Node24&#45;&gt;Node33 -->
<g id="edge9" class="edge"><title>Node24&#45;&gt;Node33</title>
<path fill="none" stroke="midnightblue" d="M906.956,-85.0785C984.075,-77.0165 1105.61,-62.4889 1209.5,-42 1218.07,-40.3104 1227.1,-38.2156 1235.83,-36.0238"/>
<polygon fill="midnightblue" stroke="midnightblue" points="906.429,-81.6143 896.842,-86.1253 907.15,-88.5771 906.429,-81.6143"/>
</g>
<!-- Node34 -->
<g id="node11" class="node"><title>Node34</title>
<g id="a_node11"><a xlink:href="pi0__true__calib_8cc.html" target="_top" xlink:title="src/root&#45;addons/analysis\l_codes/pi0_true_calib.cc">
<polygon fill="white" stroke="black" points="1370.5,-6 1370.5,-36 1504.5,-36 1504.5,-6 1370.5,-6"/>
<text text-anchor="start" x="1378.5" y="-24" font-family="Helvetica,sans-Serif" font-size="10.00">src/root&#45;addons/analysis</text>
<text text-anchor="middle" x="1437.5" y="-13" font-family="Helvetica,sans-Serif" font-size="10.00">_codes/pi0_true_calib.cc</text>
</a>
</g>
</g>
<!-- Node24&#45;&gt;Node34 -->
<g id="edge10" class="edge"><title>Node24&#45;&gt;Node34</title>
<path fill="none" stroke="midnightblue" d="M906.838,-89.1076C1010.85,-83.6478 1201.28,-70.4914 1361.5,-42 1370.37,-40.4235 1379.71,-38.3305 1388.7,-36.0922"/>
<polygon fill="midnightblue" stroke="midnightblue" points="906.546,-85.618 896.739,-89.6278 906.906,-92.6087 906.546,-85.618"/>
</g>
<!-- Node35 -->
<g id="node12" class="node"><title>Node35</title>
<g id="a_node12"><a xlink:href="_two_pi0___m_c_smearing__tools_8cc.html" target="_top" xlink:title="src/root&#45;addons/analysis\l_codes/TwoPi0_MCSmearing\l_tools.cc">
<polygon fill="white" stroke="black" points="1523,-0.5 1523,-41.5 1674,-41.5 1674,-0.5 1523,-0.5"/>
<text text-anchor="start" x="1531" y="-29.5" font-family="Helvetica,sans-Serif" font-size="10.00">src/root&#45;addons/analysis</text>
<text text-anchor="start" x="1531" y="-18.5" font-family="Helvetica,sans-Serif" font-size="10.00">_codes/TwoPi0_MCSmearing</text>
<text text-anchor="middle" x="1598.5" y="-7.5" font-family="Helvetica,sans-Serif" font-size="10.00">_tools.cc</text>
</a>
</g>
</g>
<!-- Node24&#45;&gt;Node35 -->
<g id="edge11" class="edge"><title>Node24&#45;&gt;Node35</title>
<path fill="none" stroke="midnightblue" d="M906.927,-90.7472C1034.18,-86.9807 1295.21,-75.5266 1513.5,-42 1516.5,-41.5397 1519.54,-41.0293 1522.62,-40.4794"/>
<polygon fill="midnightblue" stroke="midnightblue" points="906.782,-87.2498 896.887,-91.0366 906.983,-94.2469 906.782,-87.2498"/>
</g>
</g>
</svg>
