<?xml version="1.0" encoding="UTF-8" standalone="no"?>
<!DOCTYPE svg PUBLIC "-//W3C//DTD SVG 1.1//EN"
 "http://www.w3.org/Graphics/SVG/1.1/DTD/svg11.dtd">
<!-- Generated by graphviz version 2.38.0 (20140413.2041)
 -->
<!-- Title: src/root&#45;addons/analysis_codes/Math.h Pages: 1 -->
<svg width="961pt" height="263pt"
 viewBox="0.00 0.00 960.72 263.00" xmlns="http://www.w3.org/2000/svg" xmlns:xlink="http://www.w3.org/1999/xlink">
<g id="graph0" class="graph" transform="scale(1 1) rotate(0) translate(4 259)">
<title>src/root&#45;addons/analysis_codes/Math.h</title>
<polygon fill="white" stroke="none" points="-4,4 -4,-259 956.723,-259 956.723,4 -4,4"/>
<!-- Node0 -->
<g id="node1" class="node"><title>Node0</title>
<polygon fill="#bfbfbf" stroke="black" points="566,-224.5 566,-254.5 700,-254.5 700,-224.5 566,-224.5"/>
<text text-anchor="start" x="574" y="-242.5" font-family="Helvetica,sans-Serif" font-size="10.00">src/root&#45;addons/analysis</text>
<text text-anchor="middle" x="633" y="-231.5" font-family="Helvetica,sans-Serif" font-size="10.00">_codes/Math.h</text>
</g>
<!-- Node1 -->
<g id="node2" class="node"><title>Node1</title>
<polygon fill="white" stroke="#bfbfbf" points="634,-112.5 634,-131.5 664,-131.5 664,-112.5 634,-112.5"/>
<text text-anchor="middle" x="649" y="-119.5" font-family="Helvetica,sans-Serif" font-size="10.00">list</text>
</g>
<!-- Node0&#45;&gt;Node1 -->
<g id="edge1" class="edge"><title>Node0&#45;&gt;Node1</title>
<path fill="none" stroke="midnightblue" d="M634.962,-224.337C637.845,-203.527 643.228,-164.663 646.426,-141.583"/>
<polygon fill="midnightblue" stroke="midnightblue" points="649.894,-142.055 647.799,-131.669 642.96,-141.095 649.894,-142.055"/>
</g>
<!-- Node2 -->
<g id="node3" class="node"><title>Node2</title>
<g id="a_node3"><a xlink:href="interval_8h.html" target="_top" xlink:title="base/interval.h">
<polygon fill="white" stroke="black" points="184.5,-56.5 184.5,-75.5 271.5,-75.5 271.5,-56.5 184.5,-56.5"/>
<text text-anchor="middle" x="228" y="-63.5" font-family="Helvetica,sans-Serif" font-size="10.00">base/interval.h</text>
</a>
</g>
</g>
<!-- Node0&#45;&gt;Node2 -->
<g id="edge2" class="edge"><title>Node0&#45;&gt;Node2</title>
<path fill="none" stroke="midnightblue" d="M565.932,-232.35C488.75,-222.378 361.306,-196.745 273,-132 256.272,-119.735 243.612,-99.2993 236.047,-84.6135"/>
<polygon fill="midnightblue" stroke="midnightblue" points="239.154,-83.0007 231.636,-75.5362 232.858,-86.0602 239.154,-83.0007"/>
</g>
<!-- Node10 -->
<g id="node11" class="node"><title>Node10</title>
<g id="a_node11"><a xlink:href="piecewise__interval_8h.html" target="_top" xlink:title="base/piecewise_interval.h">
<polygon fill="white" stroke="black" points="463,-168.5 463,-187.5 601,-187.5 601,-168.5 463,-168.5"/>
<text text-anchor="middle" x="532" y="-175.5" font-family="Helvetica,sans-Serif" font-size="10.00">base/piecewise_interval.h</text>
</a>
</g>
</g>
<!-- Node0&#45;&gt;Node10 -->
<g id="edge10" class="edge"><title>Node0&#45;&gt;Node10</title>
<path fill="none" stroke="midnightblue" d="M609.064,-224.399C592.875,-214.862 571.593,-202.325 555.497,-192.842"/>
<polygon fill="midnightblue" stroke="midnightblue" points="557.089,-189.718 546.696,-187.658 553.536,-195.749 557.089,-189.718"/>
</g>
<!-- Node18 -->
<g id="node19" class="node"><title>Node18</title>
<g id="a_node19"><a xlink:href="_root_draw_8h.html" target="_top" xlink:title="analysis/plot/RootDraw.h">
<polygon fill="white" stroke="black" points="661,-168.5 661,-187.5 793,-187.5 793,-168.5 661,-168.5"/>
<text text-anchor="middle" x="727" y="-175.5" font-family="Helvetica,sans-Serif" font-size="10.00">analysis/plot/RootDraw.h</text>
</a>
</g>
</g>
<!-- Node0&#45;&gt;Node18 -->
<g id="edge21" class="edge"><title>Node0&#45;&gt;Node18</title>
<path fill="none" stroke="midnightblue" d="M655.277,-224.399C670.203,-214.951 689.781,-202.559 704.71,-193.109"/>
<polygon fill="midnightblue" stroke="midnightblue" points="706.745,-195.964 713.322,-187.658 703.001,-190.049 706.745,-195.964"/>
</g>
<!-- Node23 -->
<g id="node24" class="node"><title>Node23</title>
<polygon fill="white" stroke="#bfbfbf" points="811,-168.5 811,-187.5 853,-187.5 853,-168.5 811,-168.5"/>
<text text-anchor="middle" x="832" y="-175.5" font-family="Helvetica,sans-Serif" font-size="10.00">TF1.h</text>
</g>
<!-- Node0&#45;&gt;Node23 -->
<g id="edge34" class="edge"><title>Node0&#45;&gt;Node23</title>
<path fill="none" stroke="midnightblue" d="M679.992,-224.473C711.718,-214.999 754.794,-202.13 801.085,-188.272"/>
<polygon fill="midnightblue" stroke="midnightblue" points="802.12,-191.616 810.696,-185.394 800.112,-184.91 802.12,-191.616"/>
</g>
<!-- Node3 -->
<g id="node4" class="node"><title>Node3</title>
<g id="a_node4"><a xlink:href="types_8h.html" target="_top" xlink:title="types.h">
<polygon fill="white" stroke="black" points="140,-0.5 140,-19.5 192,-19.5 192,-0.5 140,-0.5"/>
<text text-anchor="middle" x="166" y="-7.5" font-family="Helvetica,sans-Serif" font-size="10.00">types.h</text>
</a>
</g>
</g>
<!-- Node2&#45;&gt;Node3 -->
<g id="edge3" class="edge"><title>Node2&#45;&gt;Node3</title>
<path fill="none" stroke="midnightblue" d="M218.039,-56.324C208.873,-48.3414 195.063,-36.3128 183.972,-26.6529"/>
<polygon fill="midnightblue" stroke="midnightblue" points="185.982,-23.7624 176.143,-19.8339 181.385,-29.041 185.982,-23.7624"/>
</g>
<!-- Node4 -->
<g id="node5" class="node"><title>Node4</title>
<polygon fill="white" stroke="#bfbfbf" points="455,-0.5 455,-19.5 517,-19.5 517,-0.5 455,-0.5"/>
<text text-anchor="middle" x="486" y="-7.5" font-family="Helvetica,sans-Serif" font-size="10.00">algorithm</text>
</g>
<!-- Node2&#45;&gt;Node4 -->
<g id="edge4" class="edge"><title>Node2&#45;&gt;Node4</title>
<path fill="none" stroke="midnightblue" d="M268.881,-56.4435C317.034,-46.365 396.565,-29.719 444.839,-19.6151"/>
<polygon fill="midnightblue" stroke="midnightblue" points="445.572,-23.0375 454.643,-17.5631 444.138,-16.186 445.572,-23.0375"/>
</g>
<!-- Node5 -->
<g id="node6" class="node"><title>Node5</title>
<polygon fill="white" stroke="#bfbfbf" points="342,-0.5 342,-19.5 406,-19.5 406,-0.5 342,-0.5"/>
<text text-anchor="middle" x="374" y="-7.5" font-family="Helvetica,sans-Serif" font-size="10.00">stdexcept</text>
</g>
<!-- Node2&#45;&gt;Node5 -->
<g id="edge5" class="edge"><title>Node2&#45;&gt;Node5</title>
<path fill="none" stroke="midnightblue" d="M251.134,-56.4435C275.482,-47.4381 314.007,-33.1891 341.423,-23.049"/>
<polygon fill="midnightblue" stroke="midnightblue" points="342.809,-26.2681 350.974,-19.5164 340.381,-19.7028 342.809,-26.2681"/>
</g>
<!-- Node6 -->
<g id="node7" class="node"><title>Node6</title>
<polygon fill="white" stroke="#bfbfbf" points="210,-0.5 210,-19.5 252,-19.5 252,-0.5 210,-0.5"/>
<text text-anchor="middle" x="231" y="-7.5" font-family="Helvetica,sans-Serif" font-size="10.00">limits</text>
</g>
<!-- Node2&#45;&gt;Node6 -->
<g id="edge6" class="edge"><title>Node2&#45;&gt;Node6</title>
<path fill="none" stroke="midnightblue" d="M228.495,-56.083C228.889,-49.0059 229.452,-38.8611 229.945,-29.9865"/>
<polygon fill="midnightblue" stroke="midnightblue" points="233.454,-29.9299 230.514,-19.7511 226.464,-29.5415 233.454,-29.9299"/>
</g>
<!-- Node7 -->
<g id="node8" class="node"><title>Node7</title>
<polygon fill="white" stroke="#bfbfbf" points="270.5,-0.5 270.5,-19.5 323.5,-19.5 323.5,-0.5 270.5,-0.5"/>
<text text-anchor="middle" x="297" y="-7.5" font-family="Helvetica,sans-Serif" font-size="10.00">istream</text>
</g>
<!-- Node2&#45;&gt;Node7 -->
<g id="edge7" class="edge"><title>Node2&#45;&gt;Node7</title>
<path fill="none" stroke="midnightblue" d="M239.086,-56.324C249.486,-48.1849 265.261,-35.8395 277.722,-26.0874"/>
<polygon fill="midnightblue" stroke="midnightblue" points="279.994,-28.7533 285.712,-19.8339 275.68,-23.2407 279.994,-28.7533"/>
</g>
<!-- Node8 -->
<g id="node9" class="node"><title>Node8</title>
<polygon fill="white" stroke="#bfbfbf" points="0,-0.5 0,-19.5 56,-19.5 56,-0.5 0,-0.5"/>
<text text-anchor="middle" x="28" y="-7.5" font-family="Helvetica,sans-Serif" font-size="10.00">sstream</text>
</g>
<!-- Node2&#45;&gt;Node8 -->
<g id="edge8" class="edge"><title>Node2&#45;&gt;Node8</title>
<path fill="none" stroke="midnightblue" d="M196.309,-56.4435C161.071,-46.9293 104.156,-31.5622 66.4121,-21.3713"/>
<polygon fill="midnightblue" stroke="midnightblue" points="66.8753,-17.8711 56.3086,-18.6433 65.0506,-24.6291 66.8753,-17.8711"/>
</g>
<!-- Node9 -->
<g id="node10" class="node"><title>Node9</title>
<polygon fill="white" stroke="#bfbfbf" points="74.5,-0.5 74.5,-19.5 121.5,-19.5 121.5,-0.5 74.5,-0.5"/>
<text text-anchor="middle" x="98" y="-7.5" font-family="Helvetica,sans-Serif" font-size="10.00">cmath</text>
</g>
<!-- Node2&#45;&gt;Node9 -->
<g id="edge9" class="edge"><title>Node2&#45;&gt;Node9</title>
<path fill="none" stroke="midnightblue" d="M207.401,-56.4435C186.007,-47.5566 152.319,-33.5632 127.976,-23.4514"/>
<polygon fill="midnightblue" stroke="midnightblue" points="129.08,-20.1203 118.503,-19.5164 126.395,-26.5848 129.08,-20.1203"/>
</g>
<!-- Node10&#45;&gt;Node2 -->
<g id="edge11" class="edge"><title>Node10&#45;&gt;Node2</title>
<path fill="none" stroke="midnightblue" d="M462.907,-171.792C417.191,-166.296 356.891,-155.034 308,-132 282.594,-120.03 258.272,-98.3085 243.254,-83.2896"/>
<polygon fill="midnightblue" stroke="midnightblue" points="245.398,-80.4737 235.919,-75.74 240.377,-85.3514 245.398,-80.4737"/>
</g>
<!-- Node11 -->
<g id="node12" class="node"><title>Node11</title>
<g id="a_node12"><a xlink:href="printable_8h.html" target="_top" xlink:title="base/std_ext/printable.h">
<polygon fill="white" stroke="black" points="446,-112.5 446,-131.5 578,-131.5 578,-112.5 446,-112.5"/>
<text text-anchor="middle" x="512" y="-119.5" font-family="Helvetica,sans-Serif" font-size="10.00">base/std_ext/printable.h</text>
</a>
</g>
</g>
<!-- Node10&#45;&gt;Node11 -->
<g id="edge12" class="edge"><title>Node10&#45;&gt;Node11</title>
<path fill="none" stroke="midnightblue" d="M528.697,-168.083C526.018,-160.849 522.151,-150.409 518.814,-141.397"/>
<polygon fill="midnightblue" stroke="midnightblue" points="521.996,-139.913 515.241,-131.751 515.432,-142.344 521.996,-139.913"/>
</g>
<!-- Node13 -->
<g id="node14" class="node"><title>Node13</title>
<polygon fill="white" stroke="#bfbfbf" points="640.5,-0.5 640.5,-19.5 687.5,-19.5 687.5,-0.5 640.5,-0.5"/>
<text text-anchor="middle" x="664" y="-7.5" font-family="Helvetica,sans-Serif" font-size="10.00">vector</text>
</g>
<!-- Node10&#45;&gt;Node13 -->
<g id="edge20" class="edge"><title>Node10&#45;&gt;Node13</title>
<path fill="none" stroke="midnightblue" d="M546.267,-168.368C570.465,-152.96 619.412,-118.335 645,-76 653.647,-61.6933 658.55,-43.2272 661.2,-29.6355"/>
<polygon fill="midnightblue" stroke="midnightblue" points="664.687,-30.0113 662.93,-19.5633 657.788,-28.8269 664.687,-30.0113"/>
</g>
<!-- Node12 -->
<g id="node13" class="node"><title>Node12</title>
<g id="a_node13"><a xlink:href="container_8h.html" target="_top" xlink:title="container.h">
<polygon fill="white" stroke="black" points="566,-56.5 566,-75.5 636,-75.5 636,-56.5 566,-56.5"/>
<text text-anchor="middle" x="601" y="-63.5" font-family="Helvetica,sans-Serif" font-size="10.00">container.h</text>
</a>
</g>
</g>
<!-- Node11&#45;&gt;Node12 -->
<g id="edge13" class="edge"><title>Node11&#45;&gt;Node12</title>
<path fill="none" stroke="midnightblue" d="M526.299,-112.324C540.183,-103.9 561.492,-90.9709 577.804,-81.0741"/>
<polygon fill="midnightblue" stroke="midnightblue" points="580.002,-83.8341 586.736,-75.6545 576.371,-77.8495 580.002,-83.8341"/>
</g>
<!-- Node16 -->
<g id="node17" class="node"><title>Node16</title>
<polygon fill="white" stroke="#bfbfbf" points="480,-56.5 480,-75.5 548,-75.5 548,-56.5 480,-56.5"/>
<text text-anchor="middle" x="514" y="-63.5" font-family="Helvetica,sans-Serif" font-size="10.00">type_traits</text>
</g>
<!-- Node11&#45;&gt;Node16 -->
<g id="edge18" class="edge"><title>Node11&#45;&gt;Node16</title>
<path fill="none" stroke="midnightblue" d="M512.33,-112.083C512.592,-105.006 512.968,-94.8611 513.297,-85.9865"/>
<polygon fill="midnightblue" stroke="midnightblue" points="516.803,-85.8738 513.676,-75.7511 509.808,-85.6147 516.803,-85.8738"/>
</g>
<!-- Node17 -->
<g id="node18" class="node"><title>Node17</title>
<polygon fill="white" stroke="#bfbfbf" points="404.5,-56.5 404.5,-75.5 461.5,-75.5 461.5,-56.5 404.5,-56.5"/>
<text text-anchor="middle" x="433" y="-63.5" font-family="Helvetica,sans-Serif" font-size="10.00">ostream</text>
</g>
<!-- Node11&#45;&gt;Node17 -->
<g id="edge19" class="edge"><title>Node11&#45;&gt;Node17</title>
<path fill="none" stroke="midnightblue" d="M499.307,-112.324C487.099,-103.979 468.422,-91.2122 453.997,-81.3524"/>
<polygon fill="midnightblue" stroke="midnightblue" points="455.892,-78.4082 445.661,-75.6545 451.942,-84.1871 455.892,-78.4082"/>
</g>
<!-- Node12&#45;&gt;Node4 -->
<g id="edge15" class="edge"><title>Node12&#45;&gt;Node4</title>
<path fill="none" stroke="midnightblue" d="M582.778,-56.4435C564.104,-47.6751 534.844,-33.9355 513.383,-23.8579"/>
<polygon fill="midnightblue" stroke="midnightblue" points="514.676,-20.5988 504.137,-19.5164 511.701,-26.935 514.676,-20.5988"/>
</g>
<!-- Node12&#45;&gt;Node13 -->
<g id="edge14" class="edge"><title>Node12&#45;&gt;Node13</title>
<path fill="none" stroke="midnightblue" d="M611.122,-56.324C620.526,-48.2631 634.744,-36.0765 646.069,-26.3695"/>
<polygon fill="midnightblue" stroke="midnightblue" points="648.379,-28.9993 653.694,-19.8339 643.823,-23.6844 648.379,-28.9993"/>
</g>
<!-- Node14 -->
<g id="node15" class="node"><title>Node14</title>
<polygon fill="white" stroke="#bfbfbf" points="566,-0.5 566,-19.5 622,-19.5 622,-0.5 566,-0.5"/>
<text text-anchor="middle" x="594" y="-7.5" font-family="Helvetica,sans-Serif" font-size="10.00">numeric</text>
</g>
<!-- Node12&#45;&gt;Node14 -->
<g id="edge16" class="edge"><title>Node12&#45;&gt;Node14</title>
<path fill="none" stroke="midnightblue" d="M599.844,-56.083C598.916,-48.9272 597.582,-38.6353 596.423,-29.6911"/>
<polygon fill="midnightblue" stroke="midnightblue" points="599.891,-29.2181 595.134,-19.7511 592.949,-30.1181 599.891,-29.2181"/>
</g>
<!-- Node15 -->
<g id="node16" class="node"><title>Node15</title>
<polygon fill="white" stroke="#bfbfbf" points="823,-0.5 823,-19.5 867,-19.5 867,-0.5 823,-0.5"/>
<text text-anchor="middle" x="845" y="-7.5" font-family="Helvetica,sans-Serif" font-size="10.00">string</text>
</g>
<!-- Node12&#45;&gt;Node15 -->
<g id="edge17" class="edge"><title>Node12&#45;&gt;Node15</title>
<path fill="none" stroke="midnightblue" d="M636.219,-57.2056C683.602,-46.7191 767.196,-28.2188 812.917,-18.1004"/>
<polygon fill="midnightblue" stroke="midnightblue" points="813.869,-21.4745 822.876,-15.8963 812.356,-14.6398 813.869,-21.4745"/>
</g>
<!-- Node18&#45;&gt;Node1 -->
<g id="edge23" class="edge"><title>Node18&#45;&gt;Node1</title>
<path fill="none" stroke="midnightblue" d="M714.468,-168.324C702.414,-159.979 683.973,-147.212 669.731,-137.352"/>
<polygon fill="midnightblue" stroke="midnightblue" points="671.715,-134.469 661.501,-131.655 667.731,-140.224 671.715,-134.469"/>
</g>
<!-- Node18&#45;&gt;Node13 -->
<g id="edge24" class="edge"><title>Node18&#45;&gt;Node13</title>
<path fill="none" stroke="midnightblue" d="M733.907,-168.123C742.792,-155.565 756.267,-131.922 749,-112 735.884,-76.0463 703.711,-44.022 682.924,-26.0994"/>
<polygon fill="midnightblue" stroke="midnightblue" points="684.976,-23.2529 675.06,-19.5211 680.485,-28.622 684.976,-23.2529"/>
</g>
<!-- Node18&#45;&gt;Node15 -->
<g id="edge22" class="edge"><title>Node18&#45;&gt;Node15</title>
<path fill="none" stroke="midnightblue" d="M787.075,-168.482C847.786,-159.262 934.042,-144.235 944,-132 975.803,-92.9253 909.439,-46.901 870.545,-24.5479"/>
<polygon fill="midnightblue" stroke="midnightblue" points="872.221,-21.4749 861.786,-19.6441 868.802,-27.5829 872.221,-21.4749"/>
</g>
<!-- Node19 -->
<g id="node20" class="node"><title>Node19</title>
<polygon fill="white" stroke="#bfbfbf" points="796.5,-112.5 796.5,-131.5 853.5,-131.5 853.5,-112.5 796.5,-112.5"/>
<text text-anchor="middle" x="825" y="-119.5" font-family="Helvetica,sans-Serif" font-size="10.00">memory</text>
</g>
<!-- Node18&#45;&gt;Node19 -->
<g id="edge25" class="edge"><title>Node18&#45;&gt;Node19</title>
<path fill="none" stroke="midnightblue" d="M742.745,-168.324C758.319,-159.743 782.377,-146.486 800.459,-136.522"/>
<polygon fill="midnightblue" stroke="midnightblue" points="802.224,-139.546 809.294,-131.655 798.846,-133.415 802.224,-139.546"/>
</g>
<!-- Node20 -->
<g id="node21" class="node"><title>Node20</title>
<polygon fill="white" stroke="#bfbfbf" points="871.5,-112.5 871.5,-131.5 934.5,-131.5 934.5,-112.5 871.5,-112.5"/>
<text text-anchor="middle" x="903" y="-119.5" font-family="Helvetica,sans-Serif" font-size="10.00">functional</text>
</g>
<!-- Node18&#45;&gt;Node20 -->
<g id="edge26" class="edge"><title>Node18&#45;&gt;Node20</title>
<path fill="none" stroke="midnightblue" d="M754.888,-168.444C784.754,-159.28 832.315,-144.688 865.456,-134.519"/>
<polygon fill="midnightblue" stroke="midnightblue" points="866.709,-137.796 875.243,-131.516 864.656,-131.104 866.709,-137.796"/>
</g>
<!-- Node21 -->
<g id="node22" class="node"><title>Node21</title>
<g id="a_node22"><a xlink:href="_bin_settings_8h.html" target="_top" xlink:title="base/BinSettings.h">
<polygon fill="white" stroke="black" points="317.5,-112.5 317.5,-131.5 424.5,-131.5 424.5,-112.5 317.5,-112.5"/>
<text text-anchor="middle" x="371" y="-119.5" font-family="Helvetica,sans-Serif" font-size="10.00">base/BinSettings.h</text>
</a>
</g>
</g>
<!-- Node18&#45;&gt;Node21 -->
<g id="edge27" class="edge"><title>Node18&#45;&gt;Node21</title>
<path fill="none" stroke="midnightblue" d="M670.591,-168.444C606.346,-158.699 501.623,-142.814 434.548,-132.639"/>
<polygon fill="midnightblue" stroke="midnightblue" points="434.938,-129.159 424.526,-131.119 433.888,-136.079 434.938,-129.159"/>
</g>
<!-- Node22 -->
<g id="node23" class="node"><title>Node22</title>
<polygon fill="white" stroke="#bfbfbf" points="682,-112.5 682,-131.5 740,-131.5 740,-112.5 682,-112.5"/>
<text text-anchor="middle" x="711" y="-119.5" font-family="Helvetica,sans-Serif" font-size="10.00">Rtypes.h</text>
</g>
<!-- Node18&#45;&gt;Node22 -->
<g id="edge33" class="edge"><title>Node18&#45;&gt;Node22</title>
<path fill="none" stroke="midnightblue" d="M724.358,-168.083C722.214,-160.849 719.121,-150.409 716.451,-141.397"/>
<polygon fill="midnightblue" stroke="midnightblue" points="719.79,-140.345 713.593,-131.751 713.078,-142.333 719.79,-140.345"/>
</g>
<!-- Node21&#45;&gt;Node2 -->
<g id="edge28" class="edge"><title>Node21&#45;&gt;Node2</title>
<path fill="none" stroke="midnightblue" d="M348.341,-112.444C324.598,-103.478 287.091,-89.314 260.262,-79.1827"/>
<polygon fill="midnightblue" stroke="midnightblue" points="261.144,-75.7749 250.553,-75.5164 258.671,-82.3235 261.144,-75.7749"/>
</g>
<!-- Node21&#45;&gt;Node5 -->
<g id="edge30" class="edge"><title>Node21&#45;&gt;Node5</title>
<path fill="none" stroke="midnightblue" d="M368.269,-112.174C364.746,-99.6773 359.365,-76.1065 362,-56 363.156,-47.1813 365.534,-37.6328 367.87,-29.6098"/>
<polygon fill="midnightblue" stroke="midnightblue" points="371.285,-30.4151 370.912,-19.8268 364.601,-28.3366 371.285,-30.4151"/>
</g>
<!-- Node21&#45;&gt;Node7 -->
<g id="edge31" class="edge"><title>Node21&#45;&gt;Node7</title>
<path fill="none" stroke="midnightblue" d="M365.193,-112.368C352.981,-94.2153 324.448,-51.8015 308.43,-27.9902"/>
<polygon fill="midnightblue" stroke="midnightblue" points="311.266,-25.935 302.78,-19.5914 305.457,-29.8423 311.266,-25.935"/>
</g>
<!-- Node21&#45;&gt;Node13 -->
<g id="edge29" class="edge"><title>Node21&#45;&gt;Node13</title>
<path fill="none" stroke="midnightblue" d="M371.513,-112.25C372.849,-98.0473 377.662,-70.1426 395,-56 474.73,9.03478 524.147,-38.8924 630.187,-19.8063"/>
<polygon fill="midnightblue" stroke="midnightblue" points="631.151,-23.1837 640.286,-17.8174 629.799,-16.3156 631.151,-23.1837"/>
</g>
<!-- Node21&#45;&gt;Node17 -->
<g id="edge32" class="edge"><title>Node21&#45;&gt;Node17</title>
<path fill="none" stroke="midnightblue" d="M380.961,-112.324C390.127,-104.341 403.937,-92.3128 415.028,-82.6529"/>
<polygon fill="midnightblue" stroke="midnightblue" points="417.615,-85.041 422.857,-75.8339 413.018,-79.7624 417.615,-85.041"/>
</g>
</g>
</svg>
