<?xml version="1.0" encoding="UTF-8" standalone="no"?>
<!DOCTYPE svg PUBLIC "-//W3C//DTD SVG 1.1//EN"
 "http://www.w3.org/Graphics/SVG/1.1/DTD/svg11.dtd">
<!-- Generated by graphviz version 2.38.0 (20140413.2041)
 -->
<!-- Title: progs/simulate_livetime.cc Pages: 1 -->
<svg width="1051pt" height="252pt"
 viewBox="0.00 0.00 1051.00 252.00" xmlns="http://www.w3.org/2000/svg" xmlns:xlink="http://www.w3.org/1999/xlink">
<g id="graph0" class="graph" transform="scale(1 1) rotate(0) translate(4 248)">
<title>progs/simulate_livetime.cc</title>
<polygon fill="white" stroke="none" points="-4,4 -4,-248 1047,-248 1047,4 -4,4"/>
<!-- Node0 -->
<g id="node1" class="node"><title>Node0</title>
<polygon fill="#bfbfbf" stroke="black" points="571.5,-224.5 571.5,-243.5 715.5,-243.5 715.5,-224.5 571.5,-224.5"/>
<text text-anchor="middle" x="643.5" y="-231.5" font-family="Helvetica,sans-Serif" font-size="10.00">progs/simulate_livetime.cc</text>
</g>
<!-- Node1 -->
<g id="node2" class="node"><title>Node1</title>
<g id="a_node2"><a xlink:href="_logger_8h.html" target="_top" xlink:title="base/Logger.h">
<polygon fill="white" stroke="black" points="7.5,-168.5 7.5,-187.5 91.5,-187.5 91.5,-168.5 7.5,-168.5"/>
<text text-anchor="middle" x="49.5" y="-175.5" font-family="Helvetica,sans-Serif" font-size="10.00">base/Logger.h</text>
</a>
</g>
</g>
<!-- Node0&#45;&gt;Node1 -->
<g id="edge1" class="edge"><title>Node0&#45;&gt;Node1</title>
<path fill="none" stroke="midnightblue" d="M571.253,-229.133C468.978,-223.187 275.952,-210.234 101.871,-188.067"/>
<polygon fill="midnightblue" stroke="midnightblue" points="102.12,-184.57 91.7549,-186.765 101.227,-191.513 102.12,-184.57"/>
</g>
<!-- Node3 -->
<g id="node4" class="node"><title>Node3</title>
<polygon fill="white" stroke="#bfbfbf" points="109.5,-168.5 109.5,-187.5 203.5,-187.5 203.5,-168.5 109.5,-168.5"/>
<text text-anchor="middle" x="156.5" y="-175.5" font-family="Helvetica,sans-Serif" font-size="10.00">tclap/CmdLine.h</text>
</g>
<!-- Node0&#45;&gt;Node3 -->
<g id="edge3" class="edge"><title>Node0&#45;&gt;Node3</title>
<path fill="none" stroke="midnightblue" d="M571.412,-226.3C486.611,-218.206 341.637,-203.707 217.5,-188 216.245,-187.841 214.977,-187.678 213.698,-187.511"/>
<polygon fill="midnightblue" stroke="midnightblue" points="214.141,-184.039 203.762,-186.17 213.204,-190.976 214.141,-184.039"/>
</g>
<!-- Node4 -->
<g id="node5" class="node"><title>Node4</title>
<g id="a_node5"><a xlink:href="base_2std__ext_2math_8h.html" target="_top" xlink:title="base/std_ext/math.h">
<polygon fill="white" stroke="black" points="259.5,-112.5 259.5,-131.5 375.5,-131.5 375.5,-112.5 259.5,-112.5"/>
<text text-anchor="middle" x="317.5" y="-119.5" font-family="Helvetica,sans-Serif" font-size="10.00">base/std_ext/math.h</text>
</a>
</g>
</g>
<!-- Node0&#45;&gt;Node4 -->
<g id="edge4" class="edge"><title>Node0&#45;&gt;Node4</title>
<path fill="none" stroke="midnightblue" d="M618.191,-224.46C560.419,-204.966 418.735,-157.159 352.586,-134.839"/>
<polygon fill="midnightblue" stroke="midnightblue" points="353.612,-131.491 343.018,-131.61 351.374,-138.124 353.612,-131.491"/>
</g>
<!-- Node5 -->
<g id="node6" class="node"><title>Node5</title>
<polygon fill="white" stroke="#bfbfbf" points="262,-0.5 262,-19.5 309,-19.5 309,-0.5 262,-0.5"/>
<text text-anchor="middle" x="285.5" y="-7.5" font-family="Helvetica,sans-Serif" font-size="10.00">cmath</text>
</g>
<!-- Node0&#45;&gt;Node5 -->
<g id="edge9" class="edge"><title>Node0&#45;&gt;Node5</title>
<path fill="none" stroke="midnightblue" d="M571.113,-225.065C468.477,-212.134 288.82,-182.732 250.5,-132 226.553,-100.296 254.226,-52.6465 272.311,-27.6541"/>
<polygon fill="midnightblue" stroke="midnightblue" points="275.201,-29.6349 278.426,-19.5429 269.611,-25.4207 275.201,-29.6349"/>
</g>
<!-- Node8 -->
<g id="node9" class="node"><title>Node8</title>
<polygon fill="white" stroke="#bfbfbf" points="851.5,-168.5 851.5,-187.5 905.5,-187.5 905.5,-168.5 851.5,-168.5"/>
<text text-anchor="middle" x="878.5" y="-175.5" font-family="Helvetica,sans-Serif" font-size="10.00">random</text>
</g>
<!-- Node0&#45;&gt;Node8 -->
<g id="edge8" class="edge"><title>Node0&#45;&gt;Node8</title>
<path fill="none" stroke="midnightblue" d="M680.736,-224.444C724.709,-214.339 797.409,-197.634 841.345,-187.538"/>
<polygon fill="midnightblue" stroke="midnightblue" points="842.366,-190.894 851.328,-185.244 840.798,-184.072 842.366,-190.894"/>
</g>
<!-- Node9 -->
<g id="node10" class="node"><title>Node9</title>
<polygon fill="white" stroke="#bfbfbf" points="815,-56.5 815,-75.5 872,-75.5 872,-56.5 815,-56.5"/>
<text text-anchor="middle" x="843.5" y="-63.5" font-family="Helvetica,sans-Serif" font-size="10.00">ostream</text>
</g>
<!-- Node0&#45;&gt;Node9 -->
<g id="edge10" class="edge"><title>Node0&#45;&gt;Node9</title>
<path fill="none" stroke="midnightblue" d="M676.617,-224.424C738.221,-207.729 866.465,-169.227 891.5,-132 903.475,-114.193 884.001,-94.4588 866.386,-81.4581"/>
<polygon fill="midnightblue" stroke="midnightblue" points="868.243,-78.4867 858.034,-75.6549 864.249,-84.2353 868.243,-78.4867"/>
</g>
<!-- Node10 -->
<g id="node11" class="node"><title>Node10</title>
<polygon fill="white" stroke="#bfbfbf" points="923.5,-168.5 923.5,-187.5 975.5,-187.5 975.5,-168.5 923.5,-168.5"/>
<text text-anchor="middle" x="949.5" y="-175.5" font-family="Helvetica,sans-Serif" font-size="10.00">TH1D.h</text>
</g>
<!-- Node0&#45;&gt;Node10 -->
<g id="edge11" class="edge"><title>Node0&#45;&gt;Node10</title>
<path fill="none" stroke="midnightblue" d="M704.058,-224.489C756.906,-216.71 835.838,-204.25 913.261,-188.119"/>
<polygon fill="midnightblue" stroke="midnightblue" points="914.121,-191.515 923.185,-186.029 912.678,-184.665 914.121,-191.515"/>
</g>
<!-- Node11 -->
<g id="node12" class="node"><title>Node11</title>
<polygon fill="white" stroke="#bfbfbf" points="994,-168.5 994,-187.5 1043,-187.5 1043,-168.5 994,-168.5"/>
<text text-anchor="middle" x="1018.5" y="-175.5" font-family="Helvetica,sans-Serif" font-size="10.00">TRint.h</text>
</g>
<!-- Node0&#45;&gt;Node11 -->
<g id="edge12" class="edge"><title>Node0&#45;&gt;Node11</title>
<path fill="none" stroke="midnightblue" d="M715.783,-226.165C782.806,-219.213 885.433,-207.009 983.605,-187.944"/>
<polygon fill="midnightblue" stroke="midnightblue" points="984.568,-191.322 993.703,-185.955 983.215,-184.453 984.568,-191.322"/>
</g>
<!-- Node12 -->
<g id="node13" class="node"><title>Node12</title>
<g id="a_node13"><a xlink:href="_root_draw_8h.html" target="_top" xlink:title="analysis/plot/RootDraw.h">
<polygon fill="white" stroke="black" points="577.5,-168.5 577.5,-187.5 709.5,-187.5 709.5,-168.5 577.5,-168.5"/>
<text text-anchor="middle" x="643.5" y="-175.5" font-family="Helvetica,sans-Serif" font-size="10.00">analysis/plot/RootDraw.h</text>
</a>
</g>
</g>
<!-- Node0&#45;&gt;Node12 -->
<g id="edge13" class="edge"><title>Node0&#45;&gt;Node12</title>
<path fill="none" stroke="midnightblue" d="M643.5,-224.083C643.5,-217.006 643.5,-206.861 643.5,-197.986"/>
<polygon fill="midnightblue" stroke="midnightblue" points="647,-197.751 643.5,-187.751 640,-197.751 647,-197.751"/>
</g>
<!-- Node2 -->
<g id="node3" class="node"><title>Node2</title>
<polygon fill="white" stroke="#bfbfbf" points="0,-112.5 0,-131.5 99,-131.5 99,-112.5 0,-112.5"/>
<text text-anchor="middle" x="49.5" y="-119.5" font-family="Helvetica,sans-Serif" font-size="10.00">easylogging++.h</text>
</g>
<!-- Node1&#45;&gt;Node2 -->
<g id="edge2" class="edge"><title>Node1&#45;&gt;Node2</title>
<path fill="none" stroke="midnightblue" d="M49.5,-168.083C49.5,-161.006 49.5,-150.861 49.5,-141.986"/>
<polygon fill="midnightblue" stroke="midnightblue" points="53.0001,-141.751 49.5,-131.751 46.0001,-141.751 53.0001,-141.751"/>
</g>
<!-- Node4&#45;&gt;Node5 -->
<g id="edge5" class="edge"><title>Node4&#45;&gt;Node5</title>
<path fill="none" stroke="midnightblue" d="M314.989,-112.368C309.802,-94.5366 297.804,-53.2953 290.815,-29.2717"/>
<polygon fill="midnightblue" stroke="midnightblue" points="294.153,-28.2157 287.999,-19.5914 287.432,-30.1711 294.153,-28.2157"/>
</g>
<!-- Node6 -->
<g id="node7" class="node"><title>Node6</title>
<polygon fill="white" stroke="#bfbfbf" points="327.5,-0.5 327.5,-19.5 369.5,-19.5 369.5,-0.5 327.5,-0.5"/>
<text text-anchor="middle" x="348.5" y="-7.5" font-family="Helvetica,sans-Serif" font-size="10.00">limits</text>
</g>
<!-- Node4&#45;&gt;Node6 -->
<g id="edge6" class="edge"><title>Node4&#45;&gt;Node6</title>
<path fill="none" stroke="midnightblue" d="M319.933,-112.368C324.958,-94.5366 336.58,-53.2953 343.351,-29.2717"/>
<polygon fill="midnightblue" stroke="midnightblue" points="346.735,-30.1659 346.079,-19.5914 339.997,-28.2671 346.735,-30.1659"/>
</g>
<!-- Node7 -->
<g id="node8" class="node"><title>Node7</title>
<polygon fill="white" stroke="#bfbfbf" points="457,-56.5 457,-75.5 504,-75.5 504,-56.5 457,-56.5"/>
<text text-anchor="middle" x="480.5" y="-63.5" font-family="Helvetica,sans-Serif" font-size="10.00">vector</text>
</g>
<!-- Node4&#45;&gt;Node7 -->
<g id="edge7" class="edge"><title>Node4&#45;&gt;Node7</title>
<path fill="none" stroke="midnightblue" d="M343.328,-112.444C371.395,-103.145 416.335,-88.2572 447.074,-78.0735"/>
<polygon fill="midnightblue" stroke="midnightblue" points="448.518,-81.2824 456.91,-74.8151 446.317,-74.6375 448.518,-81.2824"/>
</g>
<!-- Node12&#45;&gt;Node7 -->
<g id="edge16" class="edge"><title>Node12&#45;&gt;Node7</title>
<path fill="none" stroke="midnightblue" d="M630.71,-168.368C602.739,-149.492 535.898,-104.385 501.596,-81.2367"/>
<polygon fill="midnightblue" stroke="midnightblue" points="503.478,-78.2841 493.231,-75.5914 499.562,-84.0865 503.478,-78.2841"/>
</g>
<!-- Node13 -->
<g id="node14" class="node"><title>Node13</title>
<polygon fill="white" stroke="#bfbfbf" points="714.5,-112.5 714.5,-131.5 758.5,-131.5 758.5,-112.5 714.5,-112.5"/>
<text text-anchor="middle" x="736.5" y="-119.5" font-family="Helvetica,sans-Serif" font-size="10.00">string</text>
</g>
<!-- Node12&#45;&gt;Node13 -->
<g id="edge14" class="edge"><title>Node12&#45;&gt;Node13</title>
<path fill="none" stroke="midnightblue" d="M658.442,-168.324C673.085,-159.822 695.634,-146.729 712.738,-136.797"/>
<polygon fill="midnightblue" stroke="midnightblue" points="714.705,-139.703 721.595,-131.655 711.19,-133.649 714.705,-139.703"/>
</g>
<!-- Node14 -->
<g id="node15" class="node"><title>Node14</title>
<polygon fill="white" stroke="#bfbfbf" points="776.5,-112.5 776.5,-131.5 806.5,-131.5 806.5,-112.5 776.5,-112.5"/>
<text text-anchor="middle" x="791.5" y="-119.5" font-family="Helvetica,sans-Serif" font-size="10.00">list</text>
</g>
<!-- Node12&#45;&gt;Node14 -->
<g id="edge15" class="edge"><title>Node12&#45;&gt;Node14</title>
<path fill="none" stroke="midnightblue" d="M667.299,-168.448C690.477,-160.101 726.933,-146.924 766.88,-132.204"/>
<polygon fill="midnightblue" stroke="midnightblue" points="768.104,-135.483 776.274,-128.738 765.68,-128.916 768.104,-135.483"/>
</g>
<!-- Node15 -->
<g id="node16" class="node"><title>Node15</title>
<polygon fill="white" stroke="#bfbfbf" points="825,-112.5 825,-131.5 882,-131.5 882,-112.5 825,-112.5"/>
<text text-anchor="middle" x="853.5" y="-119.5" font-family="Helvetica,sans-Serif" font-size="10.00">memory</text>
</g>
<!-- Node12&#45;&gt;Node15 -->
<g id="edge17" class="edge"><title>Node12&#45;&gt;Node15</title>
<path fill="none" stroke="midnightblue" d="M676.775,-168.444C714.331,-158.786 775.338,-143.099 814.941,-132.915"/>
<polygon fill="midnightblue" stroke="midnightblue" points="815.954,-136.269 824.767,-130.388 814.211,-129.489 815.954,-136.269"/>
</g>
<!-- Node16 -->
<g id="node17" class="node"><title>Node16</title>
<polygon fill="white" stroke="#bfbfbf" points="394,-112.5 394,-131.5 457,-131.5 457,-112.5 394,-112.5"/>
<text text-anchor="middle" x="425.5" y="-119.5" font-family="Helvetica,sans-Serif" font-size="10.00">functional</text>
</g>
<!-- Node12&#45;&gt;Node16 -->
<g id="edge18" class="edge"><title>Node12&#45;&gt;Node16</title>
<path fill="none" stroke="midnightblue" d="M608.957,-168.444C570.359,-158.883 507.901,-143.411 466.765,-133.222"/>
<polygon fill="midnightblue" stroke="midnightblue" points="467.598,-129.822 457.05,-130.815 465.915,-136.617 467.598,-129.822"/>
</g>
<!-- Node17 -->
<g id="node18" class="node"><title>Node17</title>
<g id="a_node18"><a xlink:href="_bin_settings_8h.html" target="_top" xlink:title="base/BinSettings.h">
<polygon fill="white" stroke="black" points="590,-112.5 590,-131.5 697,-131.5 697,-112.5 590,-112.5"/>
<text text-anchor="middle" x="643.5" y="-119.5" font-family="Helvetica,sans-Serif" font-size="10.00">base/BinSettings.h</text>
</a>
</g>
</g>
<!-- Node12&#45;&gt;Node17 -->
<g id="edge19" class="edge"><title>Node12&#45;&gt;Node17</title>
<path fill="none" stroke="midnightblue" d="M643.5,-168.083C643.5,-161.006 643.5,-150.861 643.5,-141.986"/>
<polygon fill="midnightblue" stroke="midnightblue" points="647,-141.751 643.5,-131.751 640,-141.751 647,-141.751"/>
</g>
<!-- Node24 -->
<g id="node25" class="node"><title>Node24</title>
<polygon fill="white" stroke="#bfbfbf" points="475.5,-112.5 475.5,-131.5 533.5,-131.5 533.5,-112.5 475.5,-112.5"/>
<text text-anchor="middle" x="504.5" y="-119.5" font-family="Helvetica,sans-Serif" font-size="10.00">Rtypes.h</text>
</g>
<!-- Node12&#45;&gt;Node24 -->
<g id="edge32" class="edge"><title>Node12&#45;&gt;Node24</title>
<path fill="none" stroke="midnightblue" d="M621.475,-168.444C598.396,-159.478 561.938,-145.314 535.859,-135.183"/>
<polygon fill="midnightblue" stroke="midnightblue" points="537.011,-131.875 526.422,-131.516 534.476,-138.4 537.011,-131.875"/>
</g>
<!-- Node17&#45;&gt;Node7 -->
<g id="edge28" class="edge"><title>Node17&#45;&gt;Node7</title>
<path fill="none" stroke="midnightblue" d="M617.672,-112.444C589.605,-103.145 544.665,-88.2572 513.926,-78.0735"/>
<polygon fill="midnightblue" stroke="midnightblue" points="514.683,-74.6375 504.09,-74.8151 512.482,-81.2824 514.683,-74.6375"/>
</g>
<!-- Node17&#45;&gt;Node9 -->
<g id="edge31" class="edge"><title>Node17&#45;&gt;Node9</title>
<path fill="none" stroke="midnightblue" d="M675.191,-112.444C710.328,-102.956 767.019,-87.65 804.764,-77.4588"/>
<polygon fill="midnightblue" stroke="midnightblue" points="806.132,-80.7148 814.874,-74.729 804.307,-73.9568 806.132,-80.7148"/>
</g>
<!-- Node18 -->
<g id="node19" class="node"><title>Node18</title>
<g id="a_node19"><a xlink:href="interval_8h.html" target="_top" xlink:title="base/interval.h">
<polygon fill="white" stroke="black" points="522,-56.5 522,-75.5 609,-75.5 609,-56.5 522,-56.5"/>
<text text-anchor="middle" x="565.5" y="-63.5" font-family="Helvetica,sans-Serif" font-size="10.00">base/interval.h</text>
</a>
</g>
</g>
<!-- Node17&#45;&gt;Node18 -->
<g id="edge20" class="edge"><title>Node17&#45;&gt;Node18</title>
<path fill="none" stroke="midnightblue" d="M630.968,-112.324C618.914,-103.979 600.473,-91.2122 586.231,-81.3524"/>
<polygon fill="midnightblue" stroke="midnightblue" points="588.215,-78.469 578.001,-75.6545 584.231,-84.2243 588.215,-78.469"/>
</g>
<!-- Node21 -->
<g id="node22" class="node"><title>Node21</title>
<polygon fill="white" stroke="#bfbfbf" points="611.5,-0.5 611.5,-19.5 675.5,-19.5 675.5,-0.5 611.5,-0.5"/>
<text text-anchor="middle" x="643.5" y="-7.5" font-family="Helvetica,sans-Serif" font-size="10.00">stdexcept</text>
</g>
<!-- Node17&#45;&gt;Node21 -->
<g id="edge29" class="edge"><title>Node17&#45;&gt;Node21</title>
<path fill="none" stroke="midnightblue" d="M643.5,-112.368C643.5,-94.617 643.5,-53.6664 643.5,-29.5974"/>
<polygon fill="midnightblue" stroke="midnightblue" points="647,-29.5914 643.5,-19.5914 640,-29.5915 647,-29.5914"/>
</g>
<!-- Node22 -->
<g id="node23" class="node"><title>Node22</title>
<polygon fill="white" stroke="#bfbfbf" points="694,-0.5 694,-19.5 747,-19.5 747,-0.5 694,-0.5"/>
<text text-anchor="middle" x="720.5" y="-7.5" font-family="Helvetica,sans-Serif" font-size="10.00">istream</text>
</g>
<!-- Node17&#45;&gt;Node22 -->
<g id="edge30" class="edge"><title>Node17&#45;&gt;Node22</title>
<path fill="none" stroke="midnightblue" d="M649.542,-112.368C662.249,-94.2153 691.939,-51.8015 708.607,-27.9902"/>
<polygon fill="midnightblue" stroke="midnightblue" points="711.619,-29.7909 714.486,-19.5914 705.884,-25.7766 711.619,-29.7909"/>
</g>
<!-- Node18&#45;&gt;Node5 -->
<g id="edge27" class="edge"><title>Node18&#45;&gt;Node5</title>
<path fill="none" stroke="midnightblue" d="M521.978,-57.5361C465.726,-47.8141 369.884,-30.9778 319.066,-19.931"/>
<polygon fill="midnightblue" stroke="midnightblue" points="319.754,-16.4986 309.232,-17.7345 318.228,-23.3303 319.754,-16.4986"/>
</g>
<!-- Node18&#45;&gt;Node6 -->
<g id="edge24" class="edge"><title>Node18&#45;&gt;Node6</title>
<path fill="none" stroke="midnightblue" d="M527.379,-56.4769C491.552,-48.3223 436.224,-35.3602 379.6,-20.1916"/>
<polygon fill="midnightblue" stroke="midnightblue" points="380.33,-16.7635 369.764,-17.5374 378.507,-23.5218 380.33,-16.7635"/>
</g>
<!-- Node19 -->
<g id="node20" class="node"><title>Node19</title>
<g id="a_node20"><a xlink:href="types_8h.html" target="_top" xlink:title="types.h">
<polygon fill="white" stroke="black" points="387.5,-0.5 387.5,-19.5 439.5,-19.5 439.5,-0.5 387.5,-0.5"/>
<text text-anchor="middle" x="413.5" y="-7.5" font-family="Helvetica,sans-Serif" font-size="10.00">types.h</text>
</a>
</g>
</g>
<!-- Node18&#45;&gt;Node19 -->
<g id="edge21" class="edge"><title>Node18&#45;&gt;Node19</title>
<path fill="none" stroke="midnightblue" d="M541.415,-56.4435C515.955,-47.3986 475.606,-33.064 447.041,-22.9158"/>
<polygon fill="midnightblue" stroke="midnightblue" points="448.067,-19.5661 437.472,-19.5164 445.723,-26.1622 448.067,-19.5661"/>
</g>
<!-- Node20 -->
<g id="node21" class="node"><title>Node20</title>
<polygon fill="white" stroke="#bfbfbf" points="457.5,-0.5 457.5,-19.5 519.5,-19.5 519.5,-0.5 457.5,-0.5"/>
<text text-anchor="middle" x="488.5" y="-7.5" font-family="Helvetica,sans-Serif" font-size="10.00">algorithm</text>
</g>
<!-- Node18&#45;&gt;Node20 -->
<g id="edge22" class="edge"><title>Node18&#45;&gt;Node20</title>
<path fill="none" stroke="midnightblue" d="M553.129,-56.324C541.342,-48.0577 523.368,-35.4527 509.364,-25.6322"/>
<polygon fill="midnightblue" stroke="midnightblue" points="511.038,-22.5307 500.841,-19.6545 507.018,-28.2619 511.038,-22.5307"/>
</g>
<!-- Node18&#45;&gt;Node21 -->
<g id="edge23" class="edge"><title>Node18&#45;&gt;Node21</title>
<path fill="none" stroke="midnightblue" d="M578.032,-56.324C590.086,-47.979 608.527,-35.2122 622.769,-25.3524"/>
<polygon fill="midnightblue" stroke="midnightblue" points="624.769,-28.2243 630.999,-19.6545 620.785,-22.469 624.769,-28.2243"/>
</g>
<!-- Node18&#45;&gt;Node22 -->
<g id="edge25" class="edge"><title>Node18&#45;&gt;Node22</title>
<path fill="none" stroke="midnightblue" d="M590.06,-56.4435C616.023,-47.3986 657.168,-33.064 686.297,-22.9158"/>
<polygon fill="midnightblue" stroke="midnightblue" points="687.763,-26.1116 696.055,-19.5164 685.46,-19.5013 687.763,-26.1116"/>
</g>
<!-- Node23 -->
<g id="node24" class="node"><title>Node23</title>
<polygon fill="white" stroke="#bfbfbf" points="537.5,-0.5 537.5,-19.5 593.5,-19.5 593.5,-0.5 537.5,-0.5"/>
<text text-anchor="middle" x="565.5" y="-7.5" font-family="Helvetica,sans-Serif" font-size="10.00">sstream</text>
</g>
<!-- Node18&#45;&gt;Node23 -->
<g id="edge26" class="edge"><title>Node18&#45;&gt;Node23</title>
<path fill="none" stroke="midnightblue" d="M565.5,-56.083C565.5,-49.0059 565.5,-38.8611 565.5,-29.9865"/>
<polygon fill="midnightblue" stroke="midnightblue" points="569,-29.751 565.5,-19.7511 562,-29.7511 569,-29.751"/>
</g>
</g>
</svg>
