<?xml version="1.0" encoding="UTF-8" standalone="no"?>
<!DOCTYPE svg PUBLIC "-//W3C//DTD SVG 1.1//EN"
 "http://www.w3.org/Graphics/SVG/1.1/DTD/svg11.dtd">
<!-- Generated by graphviz version 2.38.0 (20140413.2041)
 -->
<!-- Title: src/analysis/physics/scratch/wolfes/tools/tools.h Pages: 1 -->
<svg width="1120pt" height="206pt"
 viewBox="0.00 0.00 1120.00 206.00" xmlns="http://www.w3.org/2000/svg" xmlns:xlink="http://www.w3.org/1999/xlink">
<g id="graph0" class="graph" transform="scale(1 1) rotate(0) translate(4 202)">
<title>src/analysis/physics/scratch/wolfes/tools/tools.h</title>
<polygon fill="white" stroke="none" points="-4,4 -4,-202 1116,-202 1116,4 -4,4"/>
<!-- Node86 -->
<g id="node1" class="node"><title>Node86</title>
<polygon fill="#bfbfbf" stroke="black" points="621.5,-156.5 621.5,-197.5 734.5,-197.5 734.5,-156.5 621.5,-156.5"/>
<text text-anchor="start" x="629.5" y="-185.5" font-family="Helvetica,sans-Serif" font-size="10.00">src/analysis/physics</text>
<text text-anchor="start" x="629.5" y="-174.5" font-family="Helvetica,sans-Serif" font-size="10.00">/scratch/wolfes/tools</text>
<text text-anchor="middle" x="678" y="-163.5" font-family="Helvetica,sans-Serif" font-size="10.00">/tools.h</text>
</g>
<!-- Node87 -->
<g id="node2" class="node"><title>Node87</title>
<g id="a_node2"><a xlink:href="sigma_plus_8h.html" target="_top" xlink:title="src/analysis/physics\l/production/sigmaPlus.h">
<polygon fill="white" stroke="black" points="168.5,-84 168.5,-114 299.5,-114 299.5,-84 168.5,-84"/>
<text text-anchor="start" x="176.5" y="-102" font-family="Helvetica,sans-Serif" font-size="10.00">src/analysis/physics</text>
<text text-anchor="middle" x="234" y="-91" font-family="Helvetica,sans-Serif" font-size="10.00">/production/sigmaPlus.h</text>
</a>
</g>
</g>
<!-- Node86&#45;&gt;Node87 -->
<g id="edge1" class="edge"><title>Node86&#45;&gt;Node87</title>
<path fill="none" stroke="midnightblue" d="M611.361,-164.593C527.233,-150.193 383.414,-125.575 299.723,-111.25"/>
<polygon fill="midnightblue" stroke="midnightblue" points="610.869,-168.06 621.316,-166.297 612.05,-161.16 610.869,-168.06"/>
</g>
<!-- Node90 -->
<g id="node5" class="node"><title>Node90</title>
<g id="a_node5"><a xlink:href="single_pi0_8h.html" target="_top" xlink:title="src/analysis/physics\l/production/singlePi0.h">
<polygon fill="white" stroke="black" points="480.5,-84 480.5,-114 605.5,-114 605.5,-84 480.5,-84"/>
<text text-anchor="start" x="488.5" y="-102" font-family="Helvetica,sans-Serif" font-size="10.00">src/analysis/physics</text>
<text text-anchor="middle" x="543" y="-91" font-family="Helvetica,sans-Serif" font-size="10.00">/production/singlePi0.h</text>
</a>
</g>
</g>
<!-- Node86&#45;&gt;Node90 -->
<g id="edge4" class="edge"><title>Node86&#45;&gt;Node90</title>
<path fill="none" stroke="midnightblue" d="M634.443,-151.479C612.574,-139.167 586.852,-124.687 568.269,-114.225"/>
<polygon fill="midnightblue" stroke="midnightblue" points="632.803,-154.572 643.234,-156.428 636.237,-148.472 632.803,-154.572"/>
</g>
<!-- Node92 -->
<g id="node7" class="node"><title>Node92</title>
<g id="a_node7"><a xlink:href="single_pi0_plots_8cc.html" target="_top" xlink:title="src/analysis/physics\l/production/singlePi0Plots.cc">
<polygon fill="white" stroke="black" points="479,-6 479,-36 631,-36 631,-6 479,-6"/>
<text text-anchor="start" x="487" y="-24" font-family="Helvetica,sans-Serif" font-size="10.00">src/analysis/physics</text>
<text text-anchor="middle" x="555" y="-13" font-family="Helvetica,sans-Serif" font-size="10.00">/production/singlePi0Plots.cc</text>
</a>
</g>
</g>
<!-- Node86&#45;&gt;Node92 -->
<g id="edge7" class="edge"><title>Node86&#45;&gt;Node92</title>
<path fill="none" stroke="midnightblue" d="M661.834,-147.539C649.772,-127.3 632.281,-99.9259 614,-78 601.067,-62.4892 584.173,-46.8333 571.779,-36.0343"/>
<polygon fill="midnightblue" stroke="midnightblue" points="658.893,-149.443 666.977,-156.291 664.928,-145.896 658.893,-149.443"/>
</g>
<!-- Node93 -->
<g id="node8" class="node"><title>Node93</title>
<g id="a_node8"><a xlink:href="triple_pi0_8h.html" target="_top" xlink:title="src/analysis/physics\l/production/triplePi0.h">
<polygon fill="white" stroke="black" points="662.5,-84 662.5,-114 783.5,-114 783.5,-84 662.5,-84"/>
<text text-anchor="start" x="670.5" y="-102" font-family="Helvetica,sans-Serif" font-size="10.00">src/analysis/physics</text>
<text text-anchor="middle" x="723" y="-91" font-family="Helvetica,sans-Serif" font-size="10.00">/production/triplePi0.h</text>
</a>
</g>
</g>
<!-- Node86&#45;&gt;Node93 -->
<g id="edge8" class="edge"><title>Node86&#45;&gt;Node93</title>
<path fill="none" stroke="midnightblue" d="M694.791,-147.642C701.537,-136.249 709.016,-123.618 714.577,-114.225"/>
<polygon fill="midnightblue" stroke="midnightblue" points="691.672,-146.04 689.589,-156.428 697.695,-149.607 691.672,-146.04"/>
</g>
<!-- Node96 -->
<g id="node11" class="node"><title>Node96</title>
<g id="a_node11"><a xlink:href="_proton_vertex_test_8cc.html" target="_top" xlink:title="src/analysis/physics\l/scratch/wolfes/ProtonVertex\lTest.cc">
<polygon fill="white" stroke="black" points="960,-0.5 960,-41.5 1112,-41.5 1112,-0.5 960,-0.5"/>
<text text-anchor="start" x="968" y="-29.5" font-family="Helvetica,sans-Serif" font-size="10.00">src/analysis/physics</text>
<text text-anchor="start" x="968" y="-18.5" font-family="Helvetica,sans-Serif" font-size="10.00">/scratch/wolfes/ProtonVertex</text>
<text text-anchor="middle" x="1036" y="-7.5" font-family="Helvetica,sans-Serif" font-size="10.00">Test.cc</text>
</a>
</g>
</g>
<!-- Node86&#45;&gt;Node96 -->
<g id="edge12" class="edge"><title>Node86&#45;&gt;Node96</title>
<path fill="none" stroke="midnightblue" d="M736.542,-152.108C755.078,-143.293 775.12,-132.39 792,-120 812.781,-104.747 809.875,-91.2278 832,-78 843.368,-71.2036 906.696,-54.2861 959.818,-40.8114"/>
<polygon fill="midnightblue" stroke="midnightblue" points="734.898,-149.012 727.298,-156.394 737.843,-155.363 734.898,-149.012"/>
</g>
<!-- Node97 -->
<g id="node12" class="node"><title>Node97</title>
<g id="a_node12"><a xlink:href="tools_8cc.html" target="_top" xlink:title="src/analysis/physics\l/scratch/wolfes/tools\l/tools.cc">
<polygon fill="white" stroke="black" points="840.5,-78.5 840.5,-119.5 953.5,-119.5 953.5,-78.5 840.5,-78.5"/>
<text text-anchor="start" x="848.5" y="-107.5" font-family="Helvetica,sans-Serif" font-size="10.00">src/analysis/physics</text>
<text text-anchor="start" x="848.5" y="-96.5" font-family="Helvetica,sans-Serif" font-size="10.00">/scratch/wolfes/tools</text>
<text text-anchor="middle" x="897" y="-85.5" font-family="Helvetica,sans-Serif" font-size="10.00">/tools.cc</text>
</a>
</g>
</g>
<!-- Node86&#45;&gt;Node97 -->
<g id="edge13" class="edge"><title>Node86&#45;&gt;Node97</title>
<path fill="none" stroke="midnightblue" d="M744.2,-153.026C775.03,-142.328 811.318,-129.734 840.793,-119.506"/>
<polygon fill="midnightblue" stroke="midnightblue" points="742.698,-149.843 734.398,-156.428 744.993,-156.456 742.698,-149.843"/>
</g>
<!-- Node88 -->
<g id="node3" class="node"><title>Node88</title>
<g id="a_node3"><a xlink:href="sigma_plus_8cc.html" target="_top" xlink:title="src/analysis/physics\l/production/sigmaPlus.cc">
<polygon fill="white" stroke="black" points="0,-6 0,-36 136,-36 136,-6 0,-6"/>
<text text-anchor="start" x="8" y="-24" font-family="Helvetica,sans-Serif" font-size="10.00">src/analysis/physics</text>
<text text-anchor="middle" x="68" y="-13" font-family="Helvetica,sans-Serif" font-size="10.00">/production/sigmaPlus.cc</text>
</a>
</g>
</g>
<!-- Node87&#45;&gt;Node88 -->
<g id="edge2" class="edge"><title>Node87&#45;&gt;Node88</title>
<path fill="none" stroke="midnightblue" d="M194.027,-79.6989C164.721,-66.2817 125.523,-48.3359 98.6692,-36.0413"/>
<polygon fill="midnightblue" stroke="midnightblue" points="192.616,-82.9026 203.166,-83.8831 195.53,-76.5379 192.616,-82.9026"/>
</g>
<!-- Node89 -->
<g id="node4" class="node"><title>Node89</title>
<g id="a_node4"><a xlink:href="sigma_plus_plots_8cc.html" target="_top" xlink:title="src/analysis/physics\l/production/sigmaPlusPlots.cc">
<polygon fill="white" stroke="black" points="154.5,-6 154.5,-36 313.5,-36 313.5,-6 154.5,-6"/>
<text text-anchor="start" x="162.5" y="-24" font-family="Helvetica,sans-Serif" font-size="10.00">src/analysis/physics</text>
<text text-anchor="middle" x="234" y="-13" font-family="Helvetica,sans-Serif" font-size="10.00">/production/sigmaPlusPlots.cc</text>
</a>
</g>
</g>
<!-- Node87&#45;&gt;Node89 -->
<g id="edge3" class="edge"><title>Node87&#45;&gt;Node89</title>
<path fill="none" stroke="midnightblue" d="M234,-73.5898C234,-61.2565 234,-46.7237 234,-36.2309"/>
<polygon fill="midnightblue" stroke="midnightblue" points="230.5,-73.7049 234,-83.705 237.5,-73.705 230.5,-73.7049"/>
</g>
<!-- Node91 -->
<g id="node6" class="node"><title>Node91</title>
<g id="a_node6"><a xlink:href="single_pi0_8cc.html" target="_top" xlink:title="src/analysis/physics\l/production/singlePi0.cc">
<polygon fill="white" stroke="black" points="331.5,-6 331.5,-36 460.5,-36 460.5,-6 331.5,-6"/>
<text text-anchor="start" x="339.5" y="-24" font-family="Helvetica,sans-Serif" font-size="10.00">src/analysis/physics</text>
<text text-anchor="middle" x="396" y="-13" font-family="Helvetica,sans-Serif" font-size="10.00">/production/singlePi0.cc</text>
</a>
</g>
</g>
<!-- Node90&#45;&gt;Node91 -->
<g id="edge5" class="edge"><title>Node90&#45;&gt;Node91</title>
<path fill="none" stroke="midnightblue" d="M506.586,-79.1739C480.75,-65.8166 446.63,-48.1762 423.159,-36.0413"/>
<polygon fill="midnightblue" stroke="midnightblue" points="505.204,-82.3995 515.695,-83.8831 508.419,-76.1814 505.204,-82.3995"/>
</g>
<!-- Node90&#45;&gt;Node92 -->
<g id="edge6" class="edge"><title>Node90&#45;&gt;Node92</title>
<path fill="none" stroke="midnightblue" d="M546.854,-73.5898C548.802,-61.2565 551.096,-46.7237 552.753,-36.2309"/>
<polygon fill="midnightblue" stroke="midnightblue" points="543.36,-73.2815 545.257,-83.705 550.274,-74.3732 543.36,-73.2815"/>
</g>
<!-- Node94 -->
<g id="node9" class="node"><title>Node94</title>
<g id="a_node9"><a xlink:href="triple_pi0_8cc.html" target="_top" xlink:title="src/analysis/physics\l/production/triplePi0.cc">
<polygon fill="white" stroke="black" points="649.5,-6 649.5,-36 774.5,-36 774.5,-6 649.5,-6"/>
<text text-anchor="start" x="657.5" y="-24" font-family="Helvetica,sans-Serif" font-size="10.00">src/analysis/physics</text>
<text text-anchor="middle" x="712" y="-13" font-family="Helvetica,sans-Serif" font-size="10.00">/production/triplePi0.cc</text>
</a>
</g>
</g>
<!-- Node93&#45;&gt;Node94 -->
<g id="edge9" class="edge"><title>Node93&#45;&gt;Node94</title>
<path fill="none" stroke="midnightblue" d="M719.467,-73.5898C717.682,-61.2565 715.578,-46.7237 714.06,-36.2309"/>
<polygon fill="midnightblue" stroke="midnightblue" points="716.035,-74.3095 720.931,-83.705 722.962,-73.3067 716.035,-74.3095"/>
</g>
<!-- Node95 -->
<g id="node10" class="node"><title>Node95</title>
<g id="a_node10"><a xlink:href="triple_pi0_plots_8cc.html" target="_top" xlink:title="src/analysis/physics\l/production/triplePi0Plots.cc">
<polygon fill="white" stroke="black" points="792.5,-6 792.5,-36 941.5,-36 941.5,-6 792.5,-6"/>
<text text-anchor="start" x="800.5" y="-24" font-family="Helvetica,sans-Serif" font-size="10.00">src/analysis/physics</text>
<text text-anchor="middle" x="867" y="-13" font-family="Helvetica,sans-Serif" font-size="10.00">/production/triplePi0Plots.cc</text>
</a>
</g>
</g>
<!-- Node93&#45;&gt;Node95 -->
<g id="edge10" class="edge"><title>Node93&#45;&gt;Node95</title>
<path fill="none" stroke="midnightblue" d="M758.671,-79.1739C783.979,-65.8166 817.403,-48.1762 840.395,-36.0413"/>
<polygon fill="midnightblue" stroke="midnightblue" points="756.958,-76.1201 749.748,-83.8831 760.225,-82.3108 756.958,-76.1201"/>
</g>
<!-- Node93&#45;&gt;Node96 -->
<g id="edge11" class="edge"><title>Node93&#45;&gt;Node96</title>
<path fill="none" stroke="midnightblue" d="M784.783,-81.3702C789.252,-80.2147 793.693,-79.0808 798,-78 798.512,-77.8715 890.486,-56.2324 959.933,-39.8947"/>
<polygon fill="midnightblue" stroke="midnightblue" points="783.789,-78.0122 774.995,-83.9219 785.555,-84.7858 783.789,-78.0122"/>
</g>
</g>
</svg>
