<?xml version="1.0" encoding="UTF-8" standalone="no"?>
<!DOCTYPE svg PUBLIC "-//W3C//DTD SVG 1.1//EN"
 "http://www.w3.org/Graphics/SVG/1.1/DTD/svg11.dtd">
<!-- Generated by graphviz version 2.38.0 (20140413.2041)
 -->
<!-- Title: ant::analysis::physics::EtapDalitz::common_tree Pages: 1 -->
<svg width="432pt" height="88pt"
 viewBox="0.00 0.00 432.00 88.00" xmlns="http://www.w3.org/2000/svg" xmlns:xlink="http://www.w3.org/1999/xlink">
<g id="graph0" class="graph" transform="scale(1 1) rotate(0) translate(4 84)">
<title>ant::analysis::physics::EtapDalitz::common_tree</title>
<polygon fill="white" stroke="none" points="-4,4 -4,-84 428,-84 428,4 -4,4"/>
<!-- Node0 -->
<g id="node1" class="node"><title>Node0</title>
<polygon fill="#bfbfbf" stroke="black" points="122,-24.5 122,-54.5 267,-54.5 267,-24.5 122,-24.5"/>
<text text-anchor="start" x="130" y="-42.5" font-family="Helvetica,sans-Serif" font-size="10.00">ant::analysis::physics</text>
<text text-anchor="middle" x="194.5" y="-31.5" font-family="Helvetica,sans-Serif" font-size="10.00">::EtapDalitz::common_tree</text>
</g>
<!-- Node2 -->
<g id="node3" class="node"><title>Node2</title>
<g id="a_node3"><a xlink:href="structant_1_1analysis_1_1physics_1_1_etap_dalitz_1_1_ref_tree__t.html" target="_top" xlink:title="ant::analysis::physics\l::EtapDalitz::RefTree_t">
<polygon fill="white" stroke="black" points="303.5,-49.5 303.5,-79.5 423.5,-79.5 423.5,-49.5 303.5,-49.5"/>
<text text-anchor="start" x="311.5" y="-67.5" font-family="Helvetica,sans-Serif" font-size="10.00">ant::analysis::physics</text>
<text text-anchor="middle" x="363.5" y="-56.5" font-family="Helvetica,sans-Serif" font-size="10.00">::EtapDalitz::RefTree_t</text>
</a>
</g>
</g>
<!-- Node0&#45;&gt;Node2 -->
<g id="edge2" class="edge"><title>Node0&#45;&gt;Node2</title>
<path fill="none" stroke="midnightblue" d="M277.208,-51.7317C286.019,-53.0507 294.857,-54.3737 303.328,-55.642"/>
<polygon fill="midnightblue" stroke="midnightblue" points="277.7,-48.2665 267.292,-50.2473 276.664,-55.1894 277.7,-48.2665"/>
</g>
<!-- Node3 -->
<g id="node4" class="node"><title>Node3</title>
<g id="a_node4"><a xlink:href="structant_1_1analysis_1_1physics_1_1_etap_dalitz_1_1_sig_tree__t.html" target="_top" xlink:title="ant::analysis::physics\l::EtapDalitz::SigTree_t">
<polygon fill="white" stroke="black" points="303,-0.5 303,-30.5 424,-30.5 424,-0.5 303,-0.5"/>
<text text-anchor="start" x="311" y="-18.5" font-family="Helvetica,sans-Serif" font-size="10.00">ant::analysis::physics</text>
<text text-anchor="middle" x="363.5" y="-7.5" font-family="Helvetica,sans-Serif" font-size="10.00">::EtapDalitz::SigTree_t</text>
</a>
</g>
</g>
<!-- Node0&#45;&gt;Node3 -->
<g id="edge3" class="edge"><title>Node0&#45;&gt;Node3</title>
<path fill="none" stroke="midnightblue" d="M277.342,-27.7383C285.93,-26.5041 294.542,-25.2664 302.813,-24.0777"/>
<polygon fill="midnightblue" stroke="midnightblue" points="276.693,-24.2956 267.292,-29.1826 277.688,-31.2244 276.693,-24.2956"/>
</g>
<!-- Node1 -->
<g id="node2" class="node"><title>Node1</title>
<g id="a_node2"><a xlink:href="classant_1_1_wrap_t_tree.html" target="_top" xlink:title="The WrapTTree struct simplifies TTree handling in physics classes. ">
<polygon fill="white" stroke="black" points="0,-30 0,-49 86,-49 86,-30 0,-30"/>
<text text-anchor="middle" x="43" y="-37" font-family="Helvetica,sans-Serif" font-size="10.00">ant::WrapTTree</text>
</a>
</g>
</g>
<!-- Node1&#45;&gt;Node0 -->
<g id="edge1" class="edge"><title>Node1&#45;&gt;Node0</title>
<path fill="none" stroke="midnightblue" d="M96.2492,-39.5C104.505,-39.5 113.165,-39.5 121.772,-39.5"/>
<polygon fill="midnightblue" stroke="midnightblue" points="96.042,-36.0001 86.0419,-39.5 96.0419,-43.0001 96.042,-36.0001"/>
</g>
</g>
</svg>
