<?xml version="1.0" encoding="UTF-8" standalone="no"?>
<!DOCTYPE svg PUBLIC "-//W3C//DTD SVG 1.1//EN"
 "http://www.w3.org/Graphics/SVG/1.1/DTD/svg11.dtd">
<!-- Generated by graphviz version 2.38.0 (20140413.2041)
 -->
<!-- Title: ant::expconfig::detector::TAPSVeto Pages: 1 -->
<svg width="480pt" height="235pt"
 viewBox="0.00 0.00 480.00 235.00" xmlns="http://www.w3.org/2000/svg" xmlns:xlink="http://www.w3.org/1999/xlink">
<g id="graph0" class="graph" transform="scale(1 1) rotate(0) translate(4 231)">
<title>ant::expconfig::detector::TAPSVeto</title>
<polygon fill="white" stroke="none" points="-4,4 -4,-231 476,-231 476,4 -4,4"/>
<!-- Node0 -->
<g id="node1" class="node"><title>Node0</title>
<polygon fill="#bfbfbf" stroke="black" points="174,-98.5 174,-128.5 305,-128.5 305,-98.5 174,-98.5"/>
<text text-anchor="start" x="182" y="-116.5" font-family="Helvetica,sans-Serif" font-size="10.00">ant::expconfig::detector</text>
<text text-anchor="middle" x="239.5" y="-105.5" font-family="Helvetica,sans-Serif" font-size="10.00">::TAPSVeto</text>
</g>
<!-- Node3 -->
<g id="node4" class="node"><title>Node3</title>
<g id="a_node4"><a xlink:href="structant_1_1expconfig_1_1detector_1_1_t_a_p_s_veto__2007.html" target="_top" xlink:title="ant::expconfig::detector\l::TAPSVeto_2007">
<polygon fill="white" stroke="black" points="341,-196.5 341,-226.5 472,-226.5 472,-196.5 341,-196.5"/>
<text text-anchor="start" x="349" y="-214.5" font-family="Helvetica,sans-Serif" font-size="10.00">ant::expconfig::detector</text>
<text text-anchor="middle" x="406.5" y="-203.5" font-family="Helvetica,sans-Serif" font-size="10.00">::TAPSVeto_2007</text>
</a>
</g>
</g>
<!-- Node0&#45;&gt;Node3 -->
<g id="edge3" class="edge"><title>Node0&#45;&gt;Node3</title>
<path fill="none" stroke="midnightblue" d="M265.819,-135.248C285.38,-151.256 313.646,-172.717 341,-187.5 346.991,-190.738 353.512,-193.724 360.03,-196.409"/>
<polygon fill="midnightblue" stroke="midnightblue" points="267.928,-132.449 257.997,-128.756 263.458,-137.836 267.928,-132.449"/>
</g>
<!-- Node4 -->
<g id="node5" class="node"><title>Node4</title>
<g id="a_node5"><a xlink:href="structant_1_1expconfig_1_1detector_1_1_t_a_p_s_veto__2009__03.html" target="_top" xlink:title="ant::expconfig::detector\l::TAPSVeto_2009_03">
<polygon fill="white" stroke="black" points="341,-147.5 341,-177.5 472,-177.5 472,-147.5 341,-147.5"/>
<text text-anchor="start" x="349" y="-165.5" font-family="Helvetica,sans-Serif" font-size="10.00">ant::expconfig::detector</text>
<text text-anchor="middle" x="406.5" y="-154.5" font-family="Helvetica,sans-Serif" font-size="10.00">::TAPSVeto_2009_03</text>
</a>
</g>
</g>
<!-- Node0&#45;&gt;Node4 -->
<g id="edge4" class="edge"><title>Node0&#45;&gt;Node4</title>
<path fill="none" stroke="midnightblue" d="M301.001,-131.467C318.68,-136.717 337.813,-142.399 354.816,-147.448"/>
<polygon fill="midnightblue" stroke="midnightblue" points="301.934,-128.093 291.352,-128.601 299.942,-134.804 301.934,-128.093"/>
</g>
<!-- Node5 -->
<g id="node6" class="node"><title>Node5</title>
<g id="a_node6"><a xlink:href="structant_1_1expconfig_1_1detector_1_1_t_a_p_s_veto__2013__11.html" target="_top" xlink:title="ant::expconfig::detector\l::TAPSVeto_2013_11">
<polygon fill="white" stroke="black" points="341,-98.5 341,-128.5 472,-128.5 472,-98.5 341,-98.5"/>
<text text-anchor="start" x="349" y="-116.5" font-family="Helvetica,sans-Serif" font-size="10.00">ant::expconfig::detector</text>
<text text-anchor="middle" x="406.5" y="-105.5" font-family="Helvetica,sans-Serif" font-size="10.00">::TAPSVeto_2013_11</text>
</a>
</g>
</g>
<!-- Node0&#45;&gt;Node5 -->
<g id="edge5" class="edge"><title>Node0&#45;&gt;Node5</title>
<path fill="none" stroke="midnightblue" d="M315.239,-113.5C323.821,-113.5 332.516,-113.5 340.948,-113.5"/>
<polygon fill="midnightblue" stroke="midnightblue" points="315.239,-110 305.239,-113.5 315.239,-117 315.239,-110"/>
</g>
<!-- Node6 -->
<g id="node7" class="node"><title>Node6</title>
<g id="a_node7"><a xlink:href="structant_1_1expconfig_1_1detector_1_1_t_a_p_s_veto__2014.html" target="_top" xlink:title="ant::expconfig::detector\l::TAPSVeto_2014">
<polygon fill="white" stroke="black" points="341,-49.5 341,-79.5 472,-79.5 472,-49.5 341,-49.5"/>
<text text-anchor="start" x="349" y="-67.5" font-family="Helvetica,sans-Serif" font-size="10.00">ant::expconfig::detector</text>
<text text-anchor="middle" x="406.5" y="-56.5" font-family="Helvetica,sans-Serif" font-size="10.00">::TAPSVeto_2014</text>
</a>
</g>
</g>
<!-- Node0&#45;&gt;Node6 -->
<g id="edge6" class="edge"><title>Node0&#45;&gt;Node6</title>
<path fill="none" stroke="midnightblue" d="M301.001,-95.533C318.68,-90.283 337.813,-84.6011 354.816,-79.5516"/>
<polygon fill="midnightblue" stroke="midnightblue" points="299.942,-92.1965 291.352,-98.3986 301.934,-98.9069 299.942,-92.1965"/>
</g>
<!-- Node7 -->
<g id="node8" class="node"><title>Node7</title>
<g id="a_node8"><a xlink:href="structant_1_1expconfig_1_1detector_1_1_t_a_p_s_veto__2019.html" target="_top" xlink:title="ant::expconfig::detector\l::TAPSVeto_2019">
<polygon fill="white" stroke="black" points="341,-0.5 341,-30.5 472,-30.5 472,-0.5 341,-0.5"/>
<text text-anchor="start" x="349" y="-18.5" font-family="Helvetica,sans-Serif" font-size="10.00">ant::expconfig::detector</text>
<text text-anchor="middle" x="406.5" y="-7.5" font-family="Helvetica,sans-Serif" font-size="10.00">::TAPSVeto_2019</text>
</a>
</g>
</g>
<!-- Node0&#45;&gt;Node7 -->
<g id="edge7" class="edge"><title>Node0&#45;&gt;Node7</title>
<path fill="none" stroke="midnightblue" d="M265.819,-91.7522C285.38,-75.7442 313.646,-54.2825 341,-39.5 346.991,-36.2621 353.512,-33.2763 360.03,-30.5908"/>
<polygon fill="midnightblue" stroke="midnightblue" points="263.458,-89.164 257.997,-98.2435 267.928,-94.5507 263.458,-89.164"/>
</g>
<!-- Node1 -->
<g id="node2" class="node"><title>Node1</title>
<g id="a_node2"><a xlink:href="structant_1_1_detector__t.html" target="_top" xlink:title="The Detector_t struct is the minimal base class for all detectors. ">
<polygon fill="white" stroke="black" points="24.5,-123 24.5,-142 113.5,-142 113.5,-123 24.5,-123"/>
<text text-anchor="middle" x="69" y="-130" font-family="Helvetica,sans-Serif" font-size="10.00">ant::Detector_t</text>
</a>
</g>
</g>
<!-- Node1&#45;&gt;Node0 -->
<g id="edge1" class="edge"><title>Node1&#45;&gt;Node0</title>
<path fill="none" stroke="midnightblue" d="M124.009,-126.41C139.903,-124.618 157.453,-122.639 173.937,-120.78"/>
<polygon fill="midnightblue" stroke="midnightblue" points="123.376,-122.959 113.832,-127.558 124.161,-129.915 123.376,-122.959"/>
</g>
<!-- Node2 -->
<g id="node3" class="node"><title>Node2</title>
<g id="a_node3"><a xlink:href="classant_1_1_unpacker_acqu_config.html" target="_top" xlink:title="ant::UnpackerAcquConfig">
<polygon fill="white" stroke="black" points="0,-85 0,-104 138,-104 138,-85 0,-85"/>
<text text-anchor="middle" x="69" y="-92" font-family="Helvetica,sans-Serif" font-size="10.00">ant::UnpackerAcquConfig</text>
</a>
</g>
</g>
<!-- Node2&#45;&gt;Node0 -->
<g id="edge2" class="edge"><title>Node2&#45;&gt;Node0</title>
<path fill="none" stroke="midnightblue" d="M148.074,-103.304C156.665,-104.272 165.343,-105.251 173.746,-106.198"/>
<polygon fill="midnightblue" stroke="midnightblue" points="148.379,-99.8159 138.05,-102.173 147.595,-106.772 148.379,-99.8159"/>
</g>
</g>
</svg>
