<?xml version="1.0" encoding="UTF-8" standalone="no"?>
<!DOCTYPE svg PUBLIC "-//W3C//DTD SVG 1.1//EN"
 "http://www.w3.org/Graphics/SVG/1.1/DTD/svg11.dtd">
<!-- Generated by graphviz version 2.38.0 (20140413.2041)
 -->
<!-- Title: ant::analysis::physics::EtapDalitzTools Pages: 1 -->
<svg width="485pt" height="333pt"
 viewBox="0.00 0.00 485.00 333.00" xmlns="http://www.w3.org/2000/svg" xmlns:xlink="http://www.w3.org/1999/xlink">
<g id="graph0" class="graph" transform="scale(1 1) rotate(0) translate(4 329)">
<title>ant::analysis::physics::EtapDalitzTools</title>
<polygon fill="white" stroke="none" points="-4,4 -4,-329 481,-329 481,4 -4,4"/>
<!-- Node0 -->
<g id="node1" class="node"><title>Node0</title>
<polygon fill="#bfbfbf" stroke="black" points="0,-147.5 0,-177.5 118,-177.5 118,-147.5 0,-147.5"/>
<text text-anchor="start" x="8" y="-165.5" font-family="Helvetica,sans-Serif" font-size="10.00">ant::analysis::physics</text>
<text text-anchor="middle" x="59" y="-154.5" font-family="Helvetica,sans-Serif" font-size="10.00">::EtapDalitzTools</text>
</g>
<!-- Node1 -->
<g id="node2" class="node"><title>Node1</title>
<g id="a_node2"><a xlink:href="classant_1_1analysis_1_1physics_1_1_etap2g.html" target="_top" xlink:title="ant::analysis::physics\l::Etap2g">
<polygon fill="white" stroke="black" points="178,-294.5 178,-324.5 296,-324.5 296,-294.5 178,-294.5"/>
<text text-anchor="start" x="186" y="-312.5" font-family="Helvetica,sans-Serif" font-size="10.00">ant::analysis::physics</text>
<text text-anchor="middle" x="237" y="-301.5" font-family="Helvetica,sans-Serif" font-size="10.00">::Etap2g</text>
</a>
</g>
</g>
<!-- Node0&#45;&gt;Node1 -->
<g id="edge1" class="edge"><title>Node0&#45;&gt;Node1</title>
<path fill="none" stroke="midnightblue" d="M72.4418,-186.967C87.8647,-214.87 116.735,-259.924 154,-285.5 161.216,-290.452 169.461,-294.397 177.878,-297.535"/>
<polygon fill="midnightblue" stroke="midnightblue" points="75.3717,-185.025 67.5556,-177.873 69.2053,-188.339 75.3717,-185.025"/>
</g>
<!-- Node2 -->
<g id="node3" class="node"><title>Node2</title>
<g id="a_node3"><a xlink:href="classant_1_1analysis_1_1physics_1_1_etap2g_m_c.html" target="_top" xlink:title="ant::analysis::physics\l::Etap2gMC">
<polygon fill="white" stroke="black" points="178,-245.5 178,-275.5 296,-275.5 296,-245.5 178,-245.5"/>
<text text-anchor="start" x="186" y="-263.5" font-family="Helvetica,sans-Serif" font-size="10.00">ant::analysis::physics</text>
<text text-anchor="middle" x="237" y="-252.5" font-family="Helvetica,sans-Serif" font-size="10.00">::Etap2gMC</text>
</a>
</g>
</g>
<!-- Node0&#45;&gt;Node2 -->
<g id="edge2" class="edge"><title>Node0&#45;&gt;Node2</title>
<path fill="none" stroke="midnightblue" d="M82.9849,-184.748C101.012,-201.113 127.423,-222.805 154,-236.5 161.384,-240.305 169.461,-243.594 177.575,-246.41"/>
<polygon fill="midnightblue" stroke="midnightblue" points="85.0368,-181.878 75.3214,-177.652 80.2808,-187.014 85.0368,-181.878"/>
</g>
<!-- Node3 -->
<g id="node4" class="node"><title>Node3</title>
<g id="a_node4"><a xlink:href="classant_1_1analysis_1_1physics_1_1_etap_dalitz.html" target="_top" xlink:title="ant::analysis::physics\l::EtapDalitz">
<polygon fill="white" stroke="black" points="178,-196.5 178,-226.5 296,-226.5 296,-196.5 178,-196.5"/>
<text text-anchor="start" x="186" y="-214.5" font-family="Helvetica,sans-Serif" font-size="10.00">ant::analysis::physics</text>
<text text-anchor="middle" x="237" y="-203.5" font-family="Helvetica,sans-Serif" font-size="10.00">::EtapDalitz</text>
</a>
</g>
</g>
<!-- Node0&#45;&gt;Node3 -->
<g id="edge3" class="edge"><title>Node0&#45;&gt;Node3</title>
<path fill="none" stroke="midnightblue" d="M124.011,-180.321C143.014,-185.612 163.632,-191.352 181.937,-196.448"/>
<polygon fill="midnightblue" stroke="midnightblue" points="124.814,-176.912 114.242,-177.601 122.937,-183.655 124.814,-176.912"/>
</g>
<!-- Node4 -->
<g id="node5" class="node"><title>Node4</title>
<g id="a_node5"><a xlink:href="structant_1_1analysis_1_1physics_1_1_etap_dalitz_1_1photon__tree.html" target="_top" xlink:title="ant::analysis::physics\l::EtapDalitz::photon_tree\&lt; N \&gt;">
<polygon fill="white" stroke="black" points="154,-147.5 154,-177.5 320,-177.5 320,-147.5 154,-147.5"/>
<text text-anchor="start" x="162" y="-165.5" font-family="Helvetica,sans-Serif" font-size="10.00">ant::analysis::physics</text>
<text text-anchor="middle" x="237" y="-154.5" font-family="Helvetica,sans-Serif" font-size="10.00">::EtapDalitz::photon_tree&lt; N &gt;</text>
</a>
</g>
</g>
<!-- Node0&#45;&gt;Node4 -->
<g id="edge4" class="edge"><title>Node0&#45;&gt;Node4</title>
<path fill="none" stroke="midnightblue" d="M128.184,-162.5C136.558,-162.5 145.185,-162.5 153.739,-162.5"/>
<polygon fill="midnightblue" stroke="midnightblue" points="128.117,-159 118.117,-162.5 128.117,-166 128.117,-159"/>
</g>
<!-- Node5 -->
<g id="node6" class="node"><title>Node5</title>
<g id="a_node6"><a xlink:href="classant_1_1analysis_1_1physics_1_1_etap_dalitz_m_c.html" target="_top" xlink:title="ant::analysis::physics\l::EtapDalitzMC">
<polygon fill="white" stroke="black" points="178,-98.5 178,-128.5 296,-128.5 296,-98.5 178,-98.5"/>
<text text-anchor="start" x="186" y="-116.5" font-family="Helvetica,sans-Serif" font-size="10.00">ant::analysis::physics</text>
<text text-anchor="middle" x="237" y="-105.5" font-family="Helvetica,sans-Serif" font-size="10.00">::EtapDalitzMC</text>
</a>
</g>
</g>
<!-- Node0&#45;&gt;Node5 -->
<g id="edge5" class="edge"><title>Node0&#45;&gt;Node5</title>
<path fill="none" stroke="midnightblue" d="M124.011,-144.679C143.014,-139.388 163.632,-133.648 181.937,-128.552"/>
<polygon fill="midnightblue" stroke="midnightblue" points="122.937,-141.345 114.242,-147.399 124.814,-148.088 122.937,-141.345"/>
</g>
<!-- Node6 -->
<g id="node7" class="node"><title>Node6</title>
<g id="a_node7"><a xlink:href="structant_1_1analysis_1_1physics_1_1_etap_dalitz_1_1photon__tree.html" target="_top" xlink:title="ant::analysis::physics\l::EtapDalitz::photon_tree\&lt; 2 \&gt;">
<polygon fill="white" stroke="black" points="155,-49.5 155,-79.5 319,-79.5 319,-49.5 155,-49.5"/>
<text text-anchor="start" x="163" y="-67.5" font-family="Helvetica,sans-Serif" font-size="10.00">ant::analysis::physics</text>
<text text-anchor="middle" x="237" y="-56.5" font-family="Helvetica,sans-Serif" font-size="10.00">::EtapDalitz::photon_tree&lt; 2 &gt;</text>
</a>
</g>
</g>
<!-- Node0&#45;&gt;Node6 -->
<g id="edge6" class="edge"><title>Node0&#45;&gt;Node6</title>
<path fill="none" stroke="midnightblue" d="M83.4092,-140.362C101.478,-124.305 127.75,-103.103 154,-89.5 161.268,-85.7337 169.198,-82.4318 177.17,-79.5686"/>
<polygon fill="midnightblue" stroke="midnightblue" points="80.7763,-138.025 75.714,-147.332 85.4755,-143.213 80.7763,-138.025"/>
</g>
<!-- Node8 -->
<g id="node9" class="node"><title>Node8</title>
<g id="a_node9"><a xlink:href="structant_1_1analysis_1_1physics_1_1_etap_dalitz_1_1photon__tree.html" target="_top" xlink:title="ant::analysis::physics\l::EtapDalitz::photon_tree\&lt; 3 \&gt;">
<polygon fill="white" stroke="black" points="155,-0.5 155,-30.5 319,-30.5 319,-0.5 155,-0.5"/>
<text text-anchor="start" x="163" y="-18.5" font-family="Helvetica,sans-Serif" font-size="10.00">ant::analysis::physics</text>
<text text-anchor="middle" x="237" y="-7.5" font-family="Helvetica,sans-Serif" font-size="10.00">::EtapDalitz::photon_tree&lt; 3 &gt;</text>
</a>
</g>
</g>
<!-- Node0&#45;&gt;Node8 -->
<g id="edge8" class="edge"><title>Node0&#45;&gt;Node8</title>
<path fill="none" stroke="midnightblue" d="M72.5419,-138.306C88.0593,-110.7 117.018,-66.0795 154,-40.5 159.631,-36.6055 165.885,-33.3034 172.358,-30.5065"/>
<polygon fill="midnightblue" stroke="midnightblue" points="69.3497,-136.849 67.6226,-147.302 75.4914,-140.207 69.3497,-136.849"/>
</g>
<!-- Node7 -->
<g id="node8" class="node"><title>Node7</title>
<g id="a_node8"><a xlink:href="structant_1_1analysis_1_1physics_1_1_etap_dalitz_1_1_ref_tree__t.html" target="_top" xlink:title="ant::analysis::physics\l::EtapDalitz::RefTree_t">
<polygon fill="white" stroke="black" points="356.5,-49.5 356.5,-79.5 476.5,-79.5 476.5,-49.5 356.5,-49.5"/>
<text text-anchor="start" x="364.5" y="-67.5" font-family="Helvetica,sans-Serif" font-size="10.00">ant::analysis::physics</text>
<text text-anchor="middle" x="416.5" y="-56.5" font-family="Helvetica,sans-Serif" font-size="10.00">::EtapDalitz::RefTree_t</text>
</a>
</g>
</g>
<!-- Node6&#45;&gt;Node7 -->
<g id="edge7" class="edge"><title>Node6&#45;&gt;Node7</title>
<path fill="none" stroke="midnightblue" d="M329.501,-64.5C338.613,-64.5 347.686,-64.5 356.336,-64.5"/>
<polygon fill="midnightblue" stroke="midnightblue" points="329.218,-61.0001 319.218,-64.5 329.218,-68.0001 329.218,-61.0001"/>
</g>
<!-- Node9 -->
<g id="node10" class="node"><title>Node9</title>
<g id="a_node10"><a xlink:href="structant_1_1analysis_1_1physics_1_1_etap_dalitz_1_1_sig_tree__t.html" target="_top" xlink:title="ant::analysis::physics\l::EtapDalitz::SigTree_t">
<polygon fill="white" stroke="black" points="356,-0.5 356,-30.5 477,-30.5 477,-0.5 356,-0.5"/>
<text text-anchor="start" x="364" y="-18.5" font-family="Helvetica,sans-Serif" font-size="10.00">ant::analysis::physics</text>
<text text-anchor="middle" x="416.5" y="-7.5" font-family="Helvetica,sans-Serif" font-size="10.00">::EtapDalitz::SigTree_t</text>
</a>
</g>
</g>
<!-- Node8&#45;&gt;Node9 -->
<g id="edge9" class="edge"><title>Node8&#45;&gt;Node9</title>
<path fill="none" stroke="midnightblue" d="M329.351,-15.5C338.33,-15.5 347.274,-15.5 355.814,-15.5"/>
<polygon fill="midnightblue" stroke="midnightblue" points="329.218,-12.0001 319.218,-15.5 329.218,-19.0001 329.218,-12.0001"/>
</g>
</g>
</svg>
