<?xml version="1.0" encoding="UTF-8" standalone="no"?>
<!DOCTYPE svg PUBLIC "-//W3C//DTD SVG 1.1//EN"
 "http://www.w3.org/Graphics/SVG/1.1/DTD/svg11.dtd">
<!-- Generated by graphviz version 2.38.0 (20140413.2041)
 -->
<!-- Title: ant::TTree_drawable Pages: 1 -->
<svg width="217pt" height="229pt"
 viewBox="0.00 0.00 216.50 229.00" xmlns="http://www.w3.org/2000/svg" xmlns:xlink="http://www.w3.org/1999/xlink">
<g id="graph0" class="graph" transform="scale(1 1) rotate(0) translate(4 225)">
<title>ant::TTree_drawable</title>
<polygon fill="white" stroke="none" points="-4,4 -4,-225 212.5,-225 212.5,4 -4,4"/>
<!-- Node2 -->
<g id="node1" class="node"><title>Node2</title>
<polygon fill="#bfbfbf" stroke="black" points="31.5,-0.5 31.5,-19.5 142.5,-19.5 142.5,-0.5 31.5,-0.5"/>
<text text-anchor="middle" x="87" y="-7.5" font-family="Helvetica,sans-Serif" font-size="10.00">ant::TTree_drawable</text>
</g>
<!-- Node3 -->
<g id="node2" class="node"><title>Node3</title>
<g id="a_node2"><a xlink:href="structant_1_1root__drawable__traits.html" target="_top" xlink:title="ant::root_drawable\l_traits">
<polygon fill="white" stroke="black" points="0,-122.5 0,-152.5 106,-152.5 106,-122.5 0,-122.5"/>
<text text-anchor="start" x="8" y="-140.5" font-family="Helvetica,sans-Serif" font-size="10.00">ant::root_drawable</text>
<text text-anchor="middle" x="53" y="-129.5" font-family="Helvetica,sans-Serif" font-size="10.00">_traits</text>
</a>
</g>
</g>
<!-- Node3&#45;&gt;Node2 -->
<g id="edge1" class="edge"><title>Node3&#45;&gt;Node2</title>
<path fill="none" stroke="midnightblue" d="M59.5934,-112.163C67.2728,-83.8167 79.5569,-38.4737 84.6597,-19.6385"/>
<polygon fill="midnightblue" stroke="midnightblue" points="56.137,-111.536 56.9002,-122.104 62.8934,-113.367 56.137,-111.536"/>
</g>
<!-- Node4 -->
<g id="node3" class="node"><title>Node4</title>
<g id="a_node3"><a xlink:title="STL class. ">
<polygon fill="white" stroke="#bfbfbf" points="124.5,-128 124.5,-147 189.5,-147 189.5,-128 124.5,-128"/>
<text text-anchor="middle" x="157" y="-135" font-family="Helvetica,sans-Serif" font-size="10.00">std::string</text>
</a>
</g>
</g>
<!-- Node4&#45;&gt;Node2 -->
<g id="edge2" class="edge"><title>Node4&#45;&gt;Node2</title>
<path fill="none" stroke="#9a32cd" stroke-dasharray="5,2" d="M147.263,-119.042C132.066,-91.7964 103.268,-40.1671 91.8451,-19.6865"/>
<polygon fill="#9a32cd" stroke="#9a32cd" points="144.261,-120.845 152.189,-127.874 150.374,-117.436 144.261,-120.845"/>
<text text-anchor="middle" x="159.5" y="-96" font-family="Helvetica,sans-Serif" font-size="10.00"> Formula</text>
<text text-anchor="middle" x="159.5" y="-85" font-family="Helvetica,sans-Serif" font-size="10.00">Title</text>
<text text-anchor="middle" x="159.5" y="-74" font-family="Helvetica,sans-Serif" font-size="10.00">Ylabel</text>
<text text-anchor="middle" x="159.5" y="-63" font-family="Helvetica,sans-Serif" font-size="10.00">Xlabel</text>
<text text-anchor="middle" x="159.5" y="-52" font-family="Helvetica,sans-Serif" font-size="10.00">Name</text>
<text text-anchor="middle" x="159.5" y="-41" font-family="Helvetica,sans-Serif" font-size="10.00">Cut</text>
</g>
<!-- Node5 -->
<g id="node4" class="node"><title>Node5</title>
<g id="a_node4"><a xlink:title="STL class. ">
<polygon fill="white" stroke="#bfbfbf" points="105.5,-190.5 105.5,-220.5 208.5,-220.5 208.5,-190.5 105.5,-190.5"/>
<text text-anchor="start" x="113.5" y="-208.5" font-family="Helvetica,sans-Serif" font-size="10.00">std::basic_string&lt;</text>
<text text-anchor="middle" x="157" y="-197.5" font-family="Helvetica,sans-Serif" font-size="10.00"> char &gt;</text>
</a>
</g>
</g>
<!-- Node5&#45;&gt;Node4 -->
<g id="edge3" class="edge"><title>Node5&#45;&gt;Node4</title>
<path fill="none" stroke="midnightblue" d="M157,-179.876C157,-168.471 157,-155.636 157,-147.328"/>
<polygon fill="midnightblue" stroke="midnightblue" points="153.5,-180.179 157,-190.179 160.5,-180.179 153.5,-180.179"/>
</g>
</g>
</svg>
