<?xml version="1.0" encoding="UTF-8" standalone="no"?>
<!DOCTYPE svg PUBLIC "-//W3C//DTD SVG 1.1//EN"
 "http://www.w3.org/Graphics/SVG/1.1/DTD/svg11.dtd">
<!-- Generated by graphviz version 2.38.0 (20140413.2041)
 -->
<!-- Title: ant::calibration::converter::MultiHitReference&lt; T &gt; Pages: 1 -->
<svg width="288pt" height="173pt"
 viewBox="0.00 0.00 288.00 173.00" xmlns="http://www.w3.org/2000/svg" xmlns:xlink="http://www.w3.org/1999/xlink">
<g id="graph0" class="graph" transform="scale(1 1) rotate(0) translate(4 169)">
<title>ant::calibration::converter::MultiHitReference&lt; T &gt;</title>
<polygon fill="white" stroke="none" points="-4,4 -4,-169 284,-169 284,4 -4,4"/>
<!-- Node0 -->
<g id="node1" class="node"><title>Node0</title>
<polygon fill="#bfbfbf" stroke="black" points="75.5,-0.5 75.5,-30.5 215.5,-30.5 215.5,-0.5 75.5,-0.5"/>
<text text-anchor="start" x="83.5" y="-18.5" font-family="Helvetica,sans-Serif" font-size="10.00">ant::calibration::converter</text>
<text text-anchor="middle" x="145.5" y="-7.5" font-family="Helvetica,sans-Serif" font-size="10.00">::MultiHitReference&lt; T &gt;</text>
</g>
<!-- Node1 -->
<g id="node2" class="node"><title>Node1</title>
<g id="a_node2"><a xlink:href="structant_1_1calibration_1_1converter_1_1_multi_hit.html" target="_top" xlink:title="ant::calibration::converter\l::MultiHit\&lt; T \&gt;">
<polygon fill="white" stroke="black" points="1.5,-67.5 1.5,-97.5 141.5,-97.5 141.5,-67.5 1.5,-67.5"/>
<text text-anchor="start" x="9.5" y="-85.5" font-family="Helvetica,sans-Serif" font-size="10.00">ant::calibration::converter</text>
<text text-anchor="middle" x="71.5" y="-74.5" font-family="Helvetica,sans-Serif" font-size="10.00">::MultiHit&lt; T &gt;</text>
</a>
</g>
</g>
<!-- Node1&#45;&gt;Node0 -->
<g id="edge1" class="edge"><title>Node1&#45;&gt;Node0</title>
<path fill="none" stroke="midnightblue" d="M95.2964,-60.5978C106.47,-50.7831 119.493,-39.3442 129.474,-30.5765"/>
<polygon fill="midnightblue" stroke="midnightblue" points="92.7603,-58.1669 87.5569,-67.396 97.3799,-63.4261 92.7603,-58.1669"/>
</g>
<!-- Node2 -->
<g id="node3" class="node"><title>Node2</title>
<g id="a_node3"><a xlink:href="structant_1_1_calibration_1_1_converter.html" target="_top" xlink:title="The Converter struct handles the transition from raw bytes to somewhat meaningful values (not necessa...">
<polygon fill="white" stroke="black" points="0,-140 0,-159 143,-159 143,-140 0,-140"/>
<text text-anchor="middle" x="71.5" y="-147" font-family="Helvetica,sans-Serif" font-size="10.00">ant::Calibration::Converter</text>
</a>
</g>
</g>
<!-- Node2&#45;&gt;Node1 -->
<g id="edge2" class="edge"><title>Node2&#45;&gt;Node1</title>
<path fill="none" stroke="midnightblue" d="M71.5,-129.411C71.5,-119.222 71.5,-106.901 71.5,-97.589"/>
<polygon fill="midnightblue" stroke="midnightblue" points="68.0001,-129.734 71.5,-139.734 75.0001,-129.734 68.0001,-129.734"/>
</g>
<!-- Node3 -->
<g id="node4" class="node"><title>Node3</title>
<g id="a_node4"><a xlink:href="structant_1_1_reconstruct_hook_1_1_detector_read_hits.html" target="_top" xlink:title="The DetectorReadHits struct instances are applied before hit matching. ">
<polygon fill="white" stroke="black" points="160,-67.5 160,-97.5 279,-97.5 279,-67.5 160,-67.5"/>
<text text-anchor="start" x="168" y="-85.5" font-family="Helvetica,sans-Serif" font-size="10.00">ant::ReconstructHook</text>
<text text-anchor="middle" x="219.5" y="-74.5" font-family="Helvetica,sans-Serif" font-size="10.00">::DetectorReadHits</text>
</a>
</g>
</g>
<!-- Node3&#45;&gt;Node0 -->
<g id="edge3" class="edge"><title>Node3&#45;&gt;Node0</title>
<path fill="none" stroke="midnightblue" d="M195.704,-60.5978C184.53,-50.7831 171.507,-39.3442 161.526,-30.5765"/>
<polygon fill="midnightblue" stroke="midnightblue" points="193.62,-63.4261 203.443,-67.396 198.24,-58.1669 193.62,-63.4261"/>
</g>
<!-- Node4 -->
<g id="node5" class="node"><title>Node4</title>
<g id="a_node5"><a xlink:href="structant_1_1_reconstruct_hook_1_1_base.html" target="_top" xlink:title="The Base struct just defines some useful types. ">
<polygon fill="white" stroke="black" points="161,-134.5 161,-164.5 280,-164.5 280,-134.5 161,-134.5"/>
<text text-anchor="start" x="169" y="-152.5" font-family="Helvetica,sans-Serif" font-size="10.00">ant::ReconstructHook</text>
<text text-anchor="middle" x="220.5" y="-141.5" font-family="Helvetica,sans-Serif" font-size="10.00">::Base</text>
</a>
</g>
</g>
<!-- Node4&#45;&gt;Node3 -->
<g id="edge4" class="edge"><title>Node4&#45;&gt;Node3</title>
<path fill="none" stroke="midnightblue" d="M220.125,-124.108C219.987,-115.154 219.836,-105.323 219.717,-97.5765"/>
<polygon fill="midnightblue" stroke="midnightblue" points="216.63,-124.451 220.283,-134.396 223.629,-124.343 216.63,-124.451"/>
</g>
</g>
</svg>
