<?xml version="1.0" encoding="UTF-8" standalone="no"?>
<!DOCTYPE svg PUBLIC "-//W3C//DTD SVG 1.1//EN"
 "http://www.w3.org/Graphics/SVG/1.1/DTD/svg11.dtd">
<!-- Generated by graphviz version 2.38.0 (20140413.2041)
 -->
<!-- Title: singlePi0_Plot::SinglePi0Hist_t::HistMgr&lt; Hist &gt; Pages: 1 -->
<svg width="139pt" height="106pt"
 viewBox="0.00 0.00 139.00 106.00" xmlns="http://www.w3.org/2000/svg" xmlns:xlink="http://www.w3.org/1999/xlink">
<g id="graph0" class="graph" transform="scale(1 1) rotate(0) translate(4 102)">
<title>singlePi0_Plot::SinglePi0Hist_t::HistMgr&lt; Hist &gt;</title>
<polygon fill="white" stroke="none" points="-4,4 -4,-102 135,-102 135,4 -4,4"/>
<!-- Node0 -->
<g id="node1" class="node"><title>Node0</title>
<polygon fill="#bfbfbf" stroke="black" points="0,-0.5 0,-30.5 131,-30.5 131,-0.5 0,-0.5"/>
<text text-anchor="start" x="8" y="-18.5" font-family="Helvetica,sans-Serif" font-size="10.00">singlePi0_Plot::SinglePi0</text>
<text text-anchor="middle" x="65.5" y="-7.5" font-family="Helvetica,sans-Serif" font-size="10.00">Hist_t::HistMgr&lt; Hist &gt;</text>
</g>
<!-- Node1 -->
<g id="node2" class="node"><title>Node1</title>
<g id="a_node2"><a xlink:title="STL class. ">
<polygon fill="white" stroke="#bfbfbf" points="14.5,-67.5 14.5,-97.5 116.5,-97.5 116.5,-67.5 14.5,-67.5"/>
<text text-anchor="start" x="22.5" y="-85.5" font-family="Helvetica,sans-Serif" font-size="10.00">std::list&lt; HistFiller</text>
<text text-anchor="middle" x="65.5" y="-74.5" font-family="Helvetica,sans-Serif" font-size="10.00">_t&lt; Hist &gt; &gt;</text>
</a>
</g>
</g>
<!-- Node1&#45;&gt;Node0 -->
<g id="edge1" class="edge"><title>Node1&#45;&gt;Node0</title>
<path fill="none" stroke="midnightblue" d="M65.5,-57.1081C65.5,-48.1539 65.5,-38.3227 65.5,-30.5765"/>
<polygon fill="midnightblue" stroke="midnightblue" points="62.0001,-57.3959 65.5,-67.396 69.0001,-57.396 62.0001,-57.3959"/>
</g>
</g>
</svg>
