<?xml version="1.0" encoding="UTF-8" standalone="no"?>
<!DOCTYPE svg PUBLIC "-//W3C//DTD SVG 1.1//EN"
 "http://www.w3.org/Graphics/SVG/1.1/DTD/svg11.dtd">
<!-- Generated by graphviz version 2.38.0 (20140413.2041)
 -->
<!-- Title: GunAction Pages: 1 -->
<svg width="230pt" height="252pt"
 viewBox="0.00 0.00 229.50 252.00" xmlns="http://www.w3.org/2000/svg" xmlns:xlink="http://www.w3.org/1999/xlink">
<g id="graph0" class="graph" transform="scale(1 1) rotate(0) translate(4 248)">
<title>GunAction</title>
<polygon fill="white" stroke="none" points="-4,4 -4,-248 225.5,-248 225.5,4 -4,4"/>
<!-- Node2 -->
<g id="node1" class="node"><title>Node2</title>
<polygon fill="#bfbfbf" stroke="black" points="99.5,-0.5 99.5,-19.5 165.5,-19.5 165.5,-0.5 99.5,-0.5"/>
<text text-anchor="middle" x="132.5" y="-7.5" font-family="Helvetica,sans-Serif" font-size="10.00">GunAction</text>
</g>
<!-- Node3 -->
<g id="node2" class="node"><title>Node3</title>
<g id="a_node2"><a xlink:href="struct_mc_action.html" target="_top" xlink:title="McAction">
<polygon fill="white" stroke="black" points="21.5,-78.5 21.5,-97.5 81.5,-97.5 81.5,-78.5 21.5,-78.5"/>
<text text-anchor="middle" x="51.5" y="-85.5" font-family="Helvetica,sans-Serif" font-size="10.00">McAction</text>
</a>
</g>
</g>
<!-- Node3&#45;&gt;Node2 -->
<g id="edge1" class="edge"><title>Node3&#45;&gt;Node2</title>
<path fill="none" stroke="midnightblue" d="M68.2286,-71.3041C84.9208,-55.6422 109.952,-32.1562 123.317,-19.6165"/>
<polygon fill="midnightblue" stroke="midnightblue" points="65.6895,-68.887 60.7917,-78.2818 70.4792,-73.9918 65.6895,-68.887"/>
</g>
<!-- Node4 -->
<g id="node3" class="node"><title>Node4</title>
<g id="a_node3"><a xlink:title="STL class. ">
<polygon fill="white" stroke="#bfbfbf" points="19,-156.5 19,-175.5 84,-175.5 84,-156.5 19,-156.5"/>
<text text-anchor="middle" x="51.5" y="-163.5" font-family="Helvetica,sans-Serif" font-size="10.00">std::string</text>
</a>
</g>
</g>
<!-- Node4&#45;&gt;Node3 -->
<g id="edge2" class="edge"><title>Node4&#45;&gt;Node3</title>
<path fill="none" stroke="#9a32cd" stroke-dasharray="5,2" d="M51.5,-146.224C51.5,-130.697 51.5,-109.358 51.5,-97.6165"/>
<polygon fill="#9a32cd" stroke="#9a32cd" points="48.0001,-146.282 51.5,-156.282 55.0001,-146.282 48.0001,-146.282"/>
<text text-anchor="middle" x="68" y="-130" font-family="Helvetica,sans-Serif" font-size="10.00"> outfile</text>
</g>
<!-- Node5 -->
<g id="node4" class="node"><title>Node5</title>
<g id="a_node4"><a xlink:title="STL class. ">
<polygon fill="white" stroke="#bfbfbf" points="0,-213.5 0,-243.5 103,-243.5 103,-213.5 0,-213.5"/>
<text text-anchor="start" x="8" y="-231.5" font-family="Helvetica,sans-Serif" font-size="10.00">std::basic_string&lt;</text>
<text text-anchor="middle" x="51.5" y="-220.5" font-family="Helvetica,sans-Serif" font-size="10.00"> char &gt;</text>
</a>
</g>
</g>
<!-- Node5&#45;&gt;Node4 -->
<g id="edge3" class="edge"><title>Node5&#45;&gt;Node4</title>
<path fill="none" stroke="midnightblue" d="M51.5,-203.352C51.5,-193.513 51.5,-182.775 51.5,-175.54"/>
<polygon fill="midnightblue" stroke="midnightblue" points="48.0001,-203.468 51.5,-213.468 55.0001,-203.468 48.0001,-203.468"/>
</g>
<!-- Node6 -->
<g id="node5" class="node"><title>Node6</title>
<polygon fill="white" stroke="#bfbfbf" points="99.5,-67.5 99.5,-108.5 221.5,-108.5 221.5,-67.5 99.5,-67.5"/>
<text text-anchor="start" x="107.5" y="-96.5" font-family="Helvetica,sans-Serif" font-size="10.00">std::vector&lt; const</text>
<text text-anchor="start" x="107.5" y="-85.5" font-family="Helvetica,sans-Serif" font-size="10.00"> ParticleTypeDatabase</text>
<text text-anchor="middle" x="160.5" y="-74.5" font-family="Helvetica,sans-Serif" font-size="10.00">::Type * &gt;</text>
</g>
<!-- Node6&#45;&gt;Node2 -->
<g id="edge4" class="edge"><title>Node6&#45;&gt;Node2</title>
<path fill="none" stroke="#9a32cd" stroke-dasharray="5,2" d="M149.761,-57.8505C144.714,-44.1523 139.069,-28.8294 135.651,-19.552"/>
<polygon fill="#9a32cd" stroke="#9a32cd" points="146.548,-59.2547 153.289,-67.4281 153.116,-56.8347 146.548,-59.2547"/>
<text text-anchor="middle" x="168.5" y="-41" font-family="Helvetica,sans-Serif" font-size="10.00"> particles</text>
</g>
</g>
</svg>
