<?xml version="1.0" encoding="UTF-8" standalone="no"?>
<!DOCTYPE svg PUBLIC "-//W3C//DTD SVG 1.1//EN"
 "http://www.w3.org/Graphics/SVG/1.1/DTD/svg11.dtd">
<!-- Generated by graphviz version 2.38.0 (20140413.2041)
 -->
<!-- Title: ant::expconfig::detector::CB::Element_t Pages: 1 -->
<svg width="304pt" height="330pt"
 viewBox="0.00 0.00 304.00 330.00" xmlns="http://www.w3.org/2000/svg" xmlns:xlink="http://www.w3.org/1999/xlink">
<g id="graph0" class="graph" transform="scale(1 1) rotate(0) translate(4 326)">
<title>ant::expconfig::detector::CB::Element_t</title>
<polygon fill="white" stroke="none" points="-4,4 -4,-326 300,-326 300,4 -4,4"/>
<!-- Node3 -->
<g id="node1" class="node"><title>Node3</title>
<polygon fill="#bfbfbf" stroke="black" points="123.5,-0.5 123.5,-30.5 254.5,-30.5 254.5,-0.5 123.5,-0.5"/>
<text text-anchor="start" x="131.5" y="-18.5" font-family="Helvetica,sans-Serif" font-size="10.00">ant::expconfig::detector</text>
<text text-anchor="middle" x="189" y="-7.5" font-family="Helvetica,sans-Serif" font-size="10.00">::CB::Element_t</text>
</g>
<!-- Node4 -->
<g id="node2" class="node"><title>Node4</title>
<g id="a_node2"><a xlink:href="structant_1_1_cluster_detector__t_1_1_element__t.html" target="_top" xlink:title="ant::ClusterDetector\l_t::Element_t">
<polygon fill="white" stroke="black" points="132,-68.5 132,-98.5 246,-98.5 246,-68.5 132,-68.5"/>
<text text-anchor="start" x="140" y="-86.5" font-family="Helvetica,sans-Serif" font-size="10.00">ant::ClusterDetector</text>
<text text-anchor="middle" x="189" y="-75.5" font-family="Helvetica,sans-Serif" font-size="10.00">_t::Element_t</text>
</a>
</g>
</g>
<!-- Node4&#45;&gt;Node3 -->
<g id="edge1" class="edge"><title>Node4&#45;&gt;Node3</title>
<path fill="none" stroke="midnightblue" d="M189,-58.0322C189,-48.8606 189,-38.7449 189,-30.7931"/>
<polygon fill="midnightblue" stroke="midnightblue" points="185.5,-58.1789 189,-68.179 192.5,-58.179 185.5,-58.1789"/>
</g>
<!-- Node5 -->
<g id="node3" class="node"><title>Node5</title>
<g id="a_node3"><a xlink:href="structant_1_1_detector__t_1_1_element__t.html" target="_top" xlink:title="ant::Detector_t::Element_t">
<polygon fill="white" stroke="black" points="0,-146.5 0,-165.5 144,-165.5 144,-146.5 0,-146.5"/>
<text text-anchor="middle" x="72" y="-153.5" font-family="Helvetica,sans-Serif" font-size="10.00">ant::Detector_t::Element_t</text>
</a>
</g>
</g>
<!-- Node5&#45;&gt;Node4 -->
<g id="edge2" class="edge"><title>Node5&#45;&gt;Node4</title>
<path fill="none" stroke="midnightblue" d="M95.0088,-141.136C115.426,-128.833 145.116,-110.943 165.64,-98.5762"/>
<polygon fill="midnightblue" stroke="midnightblue" points="93.1053,-138.196 86.3465,-146.355 96.7181,-144.192 93.1053,-138.196"/>
</g>
<!-- Node6 -->
<g id="node4" class="node"><title>Node6</title>
<g id="a_node4"><a xlink:href="structant_1_1vec3.html" target="_top" xlink:title="ant::vec3">
<polygon fill="white" stroke="black" points="9.5,-219 9.5,-238 70.5,-238 70.5,-219 9.5,-219"/>
<text text-anchor="middle" x="40" y="-226" font-family="Helvetica,sans-Serif" font-size="10.00">ant::vec3</text>
</a>
</g>
</g>
<!-- Node6&#45;&gt;Node5 -->
<g id="edge3" class="edge"><title>Node6&#45;&gt;Node5</title>
<path fill="none" stroke="#9a32cd" stroke-dasharray="5,2" d="M48.0875,-209.682C54.4658,-195.63 63.0861,-176.638 68.0441,-165.715"/>
<polygon fill="#9a32cd" stroke="#9a32cd" points="44.87,-208.303 43.9238,-218.855 51.2441,-211.196 44.87,-208.303"/>
<text text-anchor="middle" x="79.5" y="-187" font-family="Helvetica,sans-Serif" font-size="10.00"> Position</text>
</g>
<!-- Node7 -->
<g id="node5" class="node"><title>Node7</title>
<g id="a_node5"><a xlink:href="classant_1_1bitflag.html" target="_top" xlink:title="ant::bitflag\&lt; ElementFlag\l_t, 16 \&gt;">
<polygon fill="white" stroke="black" points="89,-213.5 89,-243.5 227,-243.5 227,-213.5 89,-213.5"/>
<text text-anchor="start" x="97" y="-231.5" font-family="Helvetica,sans-Serif" font-size="10.00">ant::bitflag&lt; ElementFlag</text>
<text text-anchor="middle" x="158" y="-220.5" font-family="Helvetica,sans-Serif" font-size="10.00">_t, 16 &gt;</text>
</a>
</g>
</g>
<!-- Node7&#45;&gt;Node5 -->
<g id="edge4" class="edge"><title>Node7&#45;&gt;Node5</title>
<path fill="none" stroke="#9a32cd" stroke-dasharray="5,2" d="M132.85,-206.883C116.249,-193.274 95.3332,-176.128 82.8484,-165.893"/>
<polygon fill="#9a32cd" stroke="#9a32cd" points="130.644,-209.6 140.597,-213.233 135.082,-204.187 130.644,-209.6"/>
<text text-anchor="middle" x="132" y="-187" font-family="Helvetica,sans-Serif" font-size="10.00"> Flags</text>
</g>
<!-- Node8 -->
<g id="node6" class="node"><title>Node8</title>
<polygon fill="white" stroke="#bfbfbf" points="101.5,-291.5 101.5,-321.5 214.5,-321.5 214.5,-291.5 101.5,-291.5"/>
<text text-anchor="start" x="109.5" y="-309.5" font-family="Helvetica,sans-Serif" font-size="10.00">std::bitset&lt; number</text>
<text text-anchor="middle" x="158" y="-298.5" font-family="Helvetica,sans-Serif" font-size="10.00">_of_bits &gt;</text>
</g>
<!-- Node8&#45;&gt;Node7 -->
<g id="edge5" class="edge"><title>Node8&#45;&gt;Node7</title>
<path fill="none" stroke="#9a32cd" stroke-dasharray="5,2" d="M158,-281.09C158,-268.757 158,-254.224 158,-243.731"/>
<polygon fill="#9a32cd" stroke="#9a32cd" points="154.5,-281.205 158,-291.205 161.5,-281.205 154.5,-281.205"/>
<text text-anchor="middle" x="168.5" y="-265" font-family="Helvetica,sans-Serif" font-size="10.00"> bits</text>
</g>
<!-- Node9 -->
<g id="node7" class="node"><title>Node9</title>
<polygon fill="white" stroke="#bfbfbf" points="162,-146.5 162,-165.5 296,-165.5 296,-146.5 162,-146.5"/>
<text text-anchor="middle" x="229" y="-153.5" font-family="Helvetica,sans-Serif" font-size="10.00">std::vector&lt; unsigned &gt;</text>
</g>
<!-- Node9&#45;&gt;Node4 -->
<g id="edge6" class="edge"><title>Node9&#45;&gt;Node4</title>
<path fill="none" stroke="#9a32cd" stroke-dasharray="5,2" d="M218.971,-137.324C212.172,-125.341 203.308,-109.717 196.986,-98.5762"/>
<polygon fill="#9a32cd" stroke="#9a32cd" points="216.116,-139.385 224.095,-146.355 222.205,-135.931 216.116,-139.385"/>
<text text-anchor="middle" x="242" y="-120" font-family="Helvetica,sans-Serif" font-size="10.00"> Neighbours</text>
</g>
</g>
</svg>
