<?xml version="1.0" encoding="UTF-8" standalone="no"?>
<!DOCTYPE svg PUBLIC "-//W3C//DTD SVG 1.1//EN"
 "http://www.w3.org/Graphics/SVG/1.1/DTD/svg11.dtd">
<!-- Generated by graphviz version 2.38.0 (20140413.2041)
 -->
<!-- Title: TAPS_Thresholds Pages: 1 -->
<svg width="141pt" height="231pt"
 viewBox="0.00 0.00 141.00 231.00" xmlns="http://www.w3.org/2000/svg" xmlns:xlink="http://www.w3.org/1999/xlink">
<g id="graph0" class="graph" transform="scale(1 1) rotate(0) translate(4 227)">
<title>TAPS_Thresholds</title>
<polygon fill="white" stroke="none" points="-4,4 -4,-227 137,-227 137,4 -4,4"/>
<!-- Node3 -->
<g id="node1" class="node"><title>Node3</title>
<polygon fill="#bfbfbf" stroke="black" points="17.5,-0.5 17.5,-19.5 115.5,-19.5 115.5,-0.5 17.5,-0.5"/>
<text text-anchor="middle" x="66.5" y="-7.5" font-family="Helvetica,sans-Serif" font-size="10.00">TAPS_Thresholds</text>
</g>
<!-- Node4 -->
<g id="node2" class="node"><title>Node4</title>
<g id="a_node2"><a xlink:href="classant_1_1analysis_1_1physics_1_1_thresholds.html" target="_top" xlink:title="ant::analysis::physics\l::Thresholds">
<polygon fill="white" stroke="black" points="7.5,-57.5 7.5,-87.5 125.5,-87.5 125.5,-57.5 7.5,-57.5"/>
<text text-anchor="start" x="15.5" y="-75.5" font-family="Helvetica,sans-Serif" font-size="10.00">ant::analysis::physics</text>
<text text-anchor="middle" x="66.5" y="-64.5" font-family="Helvetica,sans-Serif" font-size="10.00">::Thresholds</text>
</a>
</g>
</g>
<!-- Node4&#45;&gt;Node3 -->
<g id="edge1" class="edge"><title>Node4&#45;&gt;Node3</title>
<path fill="none" stroke="midnightblue" d="M66.5,-47.3524C66.5,-37.5132 66.5,-26.7753 66.5,-19.5399"/>
<polygon fill="midnightblue" stroke="midnightblue" points="63.0001,-47.468 66.5,-57.468 70.0001,-47.4681 63.0001,-47.468"/>
</g>
<!-- Node5 -->
<g id="node3" class="node"><title>Node5</title>
<g id="a_node3"><a xlink:href="classant_1_1analysis_1_1_physics.html" target="_top" xlink:title="ant::analysis::Physics">
<polygon fill="white" stroke="black" points="7.5,-125.5 7.5,-144.5 125.5,-144.5 125.5,-125.5 7.5,-125.5"/>
<text text-anchor="middle" x="66.5" y="-132.5" font-family="Helvetica,sans-Serif" font-size="10.00">ant::analysis::Physics</text>
</a>
</g>
</g>
<!-- Node5&#45;&gt;Node4 -->
<g id="edge2" class="edge"><title>Node5&#45;&gt;Node4</title>
<path fill="none" stroke="midnightblue" d="M66.5,-115.215C66.5,-106.356 66.5,-95.9577 66.5,-87.7587"/>
<polygon fill="midnightblue" stroke="midnightblue" points="63.0001,-115.332 66.5,-125.332 70.0001,-115.332 63.0001,-115.332"/>
</g>
<!-- Node6 -->
<g id="node4" class="node"><title>Node6</title>
<g id="a_node4"><a xlink:href="classant_1_1analysis_1_1_histogram_factory.html" target="_top" xlink:title="ant::analysis::Histogram\lFactory">
<polygon fill="white" stroke="black" points="0,-192.5 0,-222.5 133,-222.5 133,-192.5 0,-192.5"/>
<text text-anchor="start" x="8" y="-210.5" font-family="Helvetica,sans-Serif" font-size="10.00">ant::analysis::Histogram</text>
<text text-anchor="middle" x="66.5" y="-199.5" font-family="Helvetica,sans-Serif" font-size="10.00">Factory</text>
</a>
</g>
</g>
<!-- Node6&#45;&gt;Node5 -->
<g id="edge3" class="edge"><title>Node6&#45;&gt;Node5</title>
<path fill="none" stroke="#9a32cd" stroke-dasharray="5,2" d="M66.5,-182.091C66.5,-169.214 66.5,-154.197 66.5,-144.893"/>
<polygon fill="#9a32cd" stroke="#9a32cd" points="63.0001,-182.233 66.5,-192.233 70.0001,-182.233 63.0001,-182.233"/>
<text text-anchor="middle" x="85.5" y="-166" font-family="Helvetica,sans-Serif" font-size="10.00"> HistFac</text>
</g>
</g>
</svg>
