<?xml version="1.0" encoding="UTF-8" standalone="no"?>
<!DOCTYPE svg PUBLIC "-//W3C//DTD SVG 1.1//EN"
 "http://www.w3.org/Graphics/SVG/1.1/DTD/svg11.dtd">
<!-- Generated by graphviz version 2.38.0 (20140413.2041)
 -->
<!-- Title: ant::analysis::physics::scratch_lheijken_gpwppi0g::str_recocand Pages: 1 -->
<svg width="441pt" height="305pt"
 viewBox="0.00 0.00 440.50 305.00" xmlns="http://www.w3.org/2000/svg" xmlns:xlink="http://www.w3.org/1999/xlink">
<g id="graph0" class="graph" transform="scale(1 1) rotate(0) translate(4 301)">
<title>ant::analysis::physics::scratch_lheijken_gpwppi0g::str_recocand</title>
<polygon fill="white" stroke="none" points="-4,4 -4,-301 436.5,-301 436.5,4 -4,4"/>
<!-- Node1 -->
<g id="node1" class="node"><title>Node1</title>
<polygon fill="#bfbfbf" stroke="black" points="156,-0.5 156,-41.5 305,-41.5 305,-0.5 156,-0.5"/>
<text text-anchor="start" x="164" y="-29.5" font-family="Helvetica,sans-Serif" font-size="10.00">ant::analysis::physics</text>
<text text-anchor="start" x="164" y="-18.5" font-family="Helvetica,sans-Serif" font-size="10.00">::scratch_lheijken_gpwppi0g</text>
<text text-anchor="middle" x="230.5" y="-7.5" font-family="Helvetica,sans-Serif" font-size="10.00">::str_recocand</text>
</g>
<!-- Node2 -->
<g id="node2" class="node"><title>Node2</title>
<polygon fill="white" stroke="#bfbfbf" points="0,-199.5 0,-218.5 157,-218.5 157,-199.5 0,-199.5"/>
<text text-anchor="middle" x="78.5" y="-206.5" font-family="Helvetica,sans-Serif" font-size="10.00">std::vector&lt; TCandidatePtr &gt;</text>
</g>
<!-- Node2&#45;&gt;Node1 -->
<g id="edge1" class="edge"><title>Node2&#45;&gt;Node1</title>
<path fill="none" stroke="#9a32cd" stroke-dasharray="5,2" d="M89.299,-190.644C107.539,-161.964 146.401,-103.528 186.5,-60 192.381,-53.6158 199.277,-47.2325 205.841,-41.5701"/>
<polygon fill="#9a32cd" stroke="#9a32cd" points="86.1056,-189.147 83.7389,-199.474 92.0291,-192.877 86.1056,-189.147"/>
<text text-anchor="middle" x="206.5" y="-123.5" font-family="Helvetica,sans-Serif" font-size="10.00"> neutral</text>
<text text-anchor="middle" x="206.5" y="-112.5" font-family="Helvetica,sans-Serif" font-size="10.00">charged</text>
</g>
<!-- Node3 -->
<g id="node3" class="node"><title>Node3</title>
<g id="a_node3"><a xlink:href="structant_1_1std__ext_1_1cc__shared__ptr.html" target="_top" xlink:title="ant::std_ext::cc_shared\l_ptr\&lt; TCandidate \&gt;">
<polygon fill="white" stroke="black" points="14.5,-266.5 14.5,-296.5 142.5,-296.5 142.5,-266.5 14.5,-266.5"/>
<text text-anchor="start" x="22.5" y="-284.5" font-family="Helvetica,sans-Serif" font-size="10.00">ant::std_ext::cc_shared</text>
<text text-anchor="middle" x="78.5" y="-273.5" font-family="Helvetica,sans-Serif" font-size="10.00">_ptr&lt; TCandidate &gt;</text>
</a>
</g>
</g>
<!-- Node3&#45;&gt;Node2 -->
<g id="edge2" class="edge"><title>Node3&#45;&gt;Node2</title>
<path fill="none" stroke="#9a32cd" stroke-dasharray="5,2" d="M78.5,-256.091C78.5,-243.214 78.5,-228.197 78.5,-218.893"/>
<polygon fill="#9a32cd" stroke="#9a32cd" points="75.0001,-256.233 78.5,-266.233 82.0001,-256.233 75.0001,-256.233"/>
<text text-anchor="middle" x="103" y="-240" font-family="Helvetica,sans-Serif" font-size="10.00"> elements</text>
</g>
<!-- Node4 -->
<g id="node4" class="node"><title>Node4</title>
<polygon fill="white" stroke="#bfbfbf" points="175.5,-199.5 175.5,-218.5 285.5,-218.5 285.5,-199.5 175.5,-199.5"/>
<text text-anchor="middle" x="230.5" y="-206.5" font-family="Helvetica,sans-Serif" font-size="10.00">std::vector&lt; bool &gt;</text>
</g>
<!-- Node4&#45;&gt;Node1 -->
<g id="edge3" class="edge"><title>Node4&#45;&gt;Node1</title>
<path fill="none" stroke="#9a32cd" stroke-dasharray="5,2" d="M230.5,-188.582C230.5,-152.931 230.5,-77.4238 230.5,-41.6222"/>
<polygon fill="#9a32cd" stroke="#9a32cd" points="227,-189.029 230.5,-199.029 234,-189.029 227,-189.029"/>
<text text-anchor="middle" x="262" y="-129" font-family="Helvetica,sans-Serif" font-size="10.00"> ChaCanInCB</text>
<text text-anchor="middle" x="262" y="-118" font-family="Helvetica,sans-Serif" font-size="10.00">ChaCanInPID</text>
<text text-anchor="middle" x="262" y="-107" font-family="Helvetica,sans-Serif" font-size="10.00">NeuCanInCB</text>
</g>
<!-- Node5 -->
<g id="node5" class="node"><title>Node5</title>
<polygon fill="white" stroke="#bfbfbf" points="303.5,-199.5 303.5,-218.5 425.5,-218.5 425.5,-199.5 303.5,-199.5"/>
<text text-anchor="middle" x="364.5" y="-206.5" font-family="Helvetica,sans-Serif" font-size="10.00">std::vector&lt; double &gt;</text>
</g>
<!-- Node5&#45;&gt;Node1 -->
<g id="edge4" class="edge"><title>Node5&#45;&gt;Node1</title>
<path fill="none" stroke="#9a32cd" stroke-dasharray="5,2" d="M360.059,-189.214C352.073,-158.875 332.745,-98.6004 297.5,-60 291.008,-52.8897 282.868,-46.7731 274.52,-41.6537"/>
<polygon fill="#9a32cd" stroke="#9a32cd" points="356.751,-190.416 362.573,-199.268 363.542,-188.717 356.751,-190.416"/>
<text text-anchor="middle" x="395.5" y="-173" font-family="Helvetica,sans-Serif" font-size="10.00"> NeuCanTheta</text>
<text text-anchor="middle" x="395.5" y="-162" font-family="Helvetica,sans-Serif" font-size="10.00">ChaCanPhi</text>
<text text-anchor="middle" x="395.5" y="-151" font-family="Helvetica,sans-Serif" font-size="10.00">ChaCanTime</text>
<text text-anchor="middle" x="395.5" y="-140" font-family="Helvetica,sans-Serif" font-size="10.00">NeuCanCluSize</text>
<text text-anchor="middle" x="395.5" y="-129" font-family="Helvetica,sans-Serif" font-size="10.00">NeuCanTime</text>
<text text-anchor="middle" x="395.5" y="-118" font-family="Helvetica,sans-Serif" font-size="10.00">NeuCanCaloE</text>
<text text-anchor="middle" x="395.5" y="-107" font-family="Helvetica,sans-Serif" font-size="10.00">ChaCanCluSize</text>
<text text-anchor="middle" x="395.5" y="-96" font-family="Helvetica,sans-Serif" font-size="10.00">ChaCanTheta</text>
<text text-anchor="middle" x="395.5" y="-85" font-family="Helvetica,sans-Serif" font-size="10.00">NeuCanPhi</text>
<text text-anchor="middle" x="395.5" y="-74" font-family="Helvetica,sans-Serif" font-size="10.00">ChaCanCaloE</text>
<text text-anchor="middle" x="395.5" y="-63" font-family="Helvetica,sans-Serif" font-size="10.00">...</text>
</g>
</g>
</svg>
