<?xml version="1.0" encoding="UTF-8" standalone="no"?>
<!DOCTYPE svg PUBLIC "-//W3C//DTD SVG 1.1//EN"
 "http://www.w3.org/Graphics/SVG/1.1/DTD/svg11.dtd">
<!-- Generated by graphviz version 2.38.0 (20140413.2041)
 -->
<!-- Title: ant::Detector_t::Any_t Pages: 1 -->
<svg width="230pt" height="198pt"
 viewBox="0.00 0.00 230.00 198.00" xmlns="http://www.w3.org/2000/svg" xmlns:xlink="http://www.w3.org/1999/xlink">
<g id="graph0" class="graph" transform="scale(1 1) rotate(0) translate(4 194)">
<title>ant::Detector_t::Any_t</title>
<polygon fill="white" stroke="none" points="-4,4 -4,-194 226,-194 226,4 -4,4"/>
<!-- Node2 -->
<g id="node1" class="node"><title>Node2</title>
<polygon fill="#bfbfbf" stroke="black" points="0,-23.5 0,-42.5 122,-42.5 122,-23.5 0,-23.5"/>
<text text-anchor="middle" x="61" y="-30.5" font-family="Helvetica,sans-Serif" font-size="10.00">ant::Detector_t::Any_t</text>
</g>
<!-- Node2&#45;&gt;Node2 -->
<g id="edge3" class="edge"><title>Node2&#45;&gt;Node2</title>
<path fill="none" stroke="#9a32cd" stroke-dasharray="5,2" d="M132.132,-39.7956C137.023,-38.2368 140,-35.9716 140,-33 140,-28.3613 132.747,-25.444 122.279,-24.2481"/>
<polygon fill="#9a32cd" stroke="#9a32cd" points="131.406,-36.3713 122.279,-41.7519 132.769,-43.2373 131.406,-36.3713"/>
<text text-anchor="middle" x="181" y="-58" font-family="Helvetica,sans-Serif" font-size="10.00"> TAPS_Apparatus</text>
<text text-anchor="middle" x="181" y="-47" font-family="Helvetica,sans-Serif" font-size="10.00">CB_Apparatus</text>
<text text-anchor="middle" x="181" y="-36" font-family="Helvetica,sans-Serif" font-size="10.00">None</text>
<text text-anchor="middle" x="181" y="-25" font-family="Helvetica,sans-Serif" font-size="10.00">Veto</text>
<text text-anchor="middle" x="181" y="-14" font-family="Helvetica,sans-Serif" font-size="10.00">Tracker</text>
<text text-anchor="middle" x="181" y="-3" font-family="Helvetica,sans-Serif" font-size="10.00">Calo</text>
</g>
<!-- Node3 -->
<g id="node2" class="node"><title>Node3</title>
<g id="a_node2"><a xlink:href="classant_1_1bitflag.html" target="_top" xlink:title="ant::bitflag\&lt; Type_t \&gt;">
<polygon fill="white" stroke="black" points="1,-103.5 1,-122.5 121,-122.5 121,-103.5 1,-103.5"/>
<text text-anchor="middle" x="61" y="-110.5" font-family="Helvetica,sans-Serif" font-size="10.00">ant::bitflag&lt; Type_t &gt;</text>
</a>
</g>
</g>
<!-- Node3&#45;&gt;Node2 -->
<g id="edge1" class="edge"><title>Node3&#45;&gt;Node2</title>
<path fill="none" stroke="midnightblue" d="M61,-93.0719C61,-77.1448 61,-55.0781 61,-42.9238"/>
<polygon fill="midnightblue" stroke="midnightblue" points="57.5001,-93.3546 61,-103.355 64.5001,-93.3546 57.5001,-93.3546"/>
</g>
<!-- Node4 -->
<g id="node3" class="node"><title>Node4</title>
<polygon fill="white" stroke="#bfbfbf" points="11.5,-170.5 11.5,-189.5 110.5,-189.5 110.5,-170.5 11.5,-170.5"/>
<text text-anchor="middle" x="61" y="-177.5" font-family="Helvetica,sans-Serif" font-size="10.00">std::bitset&lt; 32 &gt;</text>
</g>
<!-- Node4&#45;&gt;Node3 -->
<g id="edge2" class="edge"><title>Node4&#45;&gt;Node3</title>
<path fill="none" stroke="#9a32cd" stroke-dasharray="5,2" d="M61,-160.037C61,-147.67 61,-132.12 61,-122.627"/>
<polygon fill="#9a32cd" stroke="#9a32cd" points="57.5001,-160.234 61,-170.234 64.5001,-160.234 57.5001,-160.234"/>
<text text-anchor="middle" x="71.5" y="-144" font-family="Helvetica,sans-Serif" font-size="10.00"> bits</text>
</g>
</g>
</svg>
