<?xml version="1.0" encoding="UTF-8" standalone="no"?>
<!DOCTYPE svg PUBLIC "-//W3C//DTD SVG 1.1//EN"
 "http://www.w3.org/Graphics/SVG/1.1/DTD/svg11.dtd">
<!-- Generated by graphviz version 2.38.0 (20140413.2041)
 -->
<!-- Title: ant::analysis::physics::Tagger_Time Pages: 1 -->
<svg width="257pt" height="263pt"
 viewBox="0.00 0.00 257.00 263.00" xmlns="http://www.w3.org/2000/svg" xmlns:xlink="http://www.w3.org/1999/xlink">
<g id="graph0" class="graph" transform="scale(1 1) rotate(0) translate(4 259)">
<title>ant::analysis::physics::Tagger_Time</title>
<polygon fill="white" stroke="none" points="-4,4 -4,-259 253,-259 253,4 -4,4"/>
<!-- Node3 -->
<g id="node1" class="node"><title>Node3</title>
<polygon fill="#bfbfbf" stroke="black" points="104.5,-0.5 104.5,-30.5 222.5,-30.5 222.5,-0.5 104.5,-0.5"/>
<text text-anchor="start" x="112.5" y="-18.5" font-family="Helvetica,sans-Serif" font-size="10.00">ant::analysis::physics</text>
<text text-anchor="middle" x="163.5" y="-7.5" font-family="Helvetica,sans-Serif" font-size="10.00">::Tagger_Time</text>
</g>
<!-- Node4 -->
<g id="node2" class="node"><title>Node4</title>
<g id="a_node2"><a xlink:href="classant_1_1analysis_1_1physics_1_1_time.html" target="_top" xlink:title="ant::analysis::physics\l::Time">
<polygon fill="white" stroke="black" points="104.5,-68.5 104.5,-98.5 222.5,-98.5 222.5,-68.5 104.5,-68.5"/>
<text text-anchor="start" x="112.5" y="-86.5" font-family="Helvetica,sans-Serif" font-size="10.00">ant::analysis::physics</text>
<text text-anchor="middle" x="163.5" y="-75.5" font-family="Helvetica,sans-Serif" font-size="10.00">::Time</text>
</a>
</g>
</g>
<!-- Node4&#45;&gt;Node3 -->
<g id="edge1" class="edge"><title>Node4&#45;&gt;Node3</title>
<path fill="none" stroke="midnightblue" d="M163.5,-58.0322C163.5,-48.8606 163.5,-38.7449 163.5,-30.7931"/>
<polygon fill="midnightblue" stroke="midnightblue" points="160,-58.1789 163.5,-68.179 167,-58.179 160,-58.1789"/>
</g>
<!-- Node5 -->
<g id="node3" class="node"><title>Node5</title>
<g id="a_node3"><a xlink:href="classant_1_1analysis_1_1_physics.html" target="_top" xlink:title="ant::analysis::Physics">
<polygon fill="white" stroke="black" points="7.5,-152 7.5,-171 125.5,-171 125.5,-152 7.5,-152"/>
<text text-anchor="middle" x="66.5" y="-159" font-family="Helvetica,sans-Serif" font-size="10.00">ant::analysis::Physics</text>
</a>
</g>
</g>
<!-- Node5&#45;&gt;Node4 -->
<g id="edge2" class="edge"><title>Node5&#45;&gt;Node4</title>
<path fill="none" stroke="midnightblue" d="M85.9242,-145.281C103.338,-131.637 128.678,-111.783 145.606,-98.5198"/>
<polygon fill="midnightblue" stroke="midnightblue" points="83.3402,-142.859 77.6271,-151.782 87.6574,-148.369 83.3402,-142.859"/>
</g>
<!-- Node6 -->
<g id="node4" class="node"><title>Node6</title>
<g id="a_node4"><a xlink:href="classant_1_1analysis_1_1_histogram_factory.html" target="_top" xlink:title="ant::analysis::Histogram\lFactory">
<polygon fill="white" stroke="black" points="0,-224.5 0,-254.5 133,-254.5 133,-224.5 0,-224.5"/>
<text text-anchor="start" x="8" y="-242.5" font-family="Helvetica,sans-Serif" font-size="10.00">ant::analysis::Histogram</text>
<text text-anchor="middle" x="66.5" y="-231.5" font-family="Helvetica,sans-Serif" font-size="10.00">Factory</text>
</a>
</g>
</g>
<!-- Node6&#45;&gt;Node5 -->
<g id="edge3" class="edge"><title>Node6&#45;&gt;Node5</title>
<path fill="none" stroke="#9a32cd" stroke-dasharray="5,2" d="M66.5,-214.165C66.5,-199.396 66.5,-181.448 66.5,-171.064"/>
<polygon fill="#9a32cd" stroke="#9a32cd" points="63.0001,-214.205 66.5,-224.205 70.0001,-214.205 63.0001,-214.205"/>
<text text-anchor="middle" x="85.5" y="-198" font-family="Helvetica,sans-Serif" font-size="10.00"> HistFac</text>
</g>
<!-- Node7 -->
<g id="node5" class="node"><title>Node7</title>
<g id="a_node5"><a xlink:href="classant_1_1analysis_1_1utils_1_1_trigger_simulation.html" target="_top" xlink:title="ant::analysis::utils\l::TriggerSimulation">
<polygon fill="white" stroke="black" points="144,-146.5 144,-176.5 249,-176.5 249,-146.5 144,-146.5"/>
<text text-anchor="start" x="152" y="-164.5" font-family="Helvetica,sans-Serif" font-size="10.00">ant::analysis::utils</text>
<text text-anchor="middle" x="196.5" y="-153.5" font-family="Helvetica,sans-Serif" font-size="10.00">::TriggerSimulation</text>
</a>
</g>
</g>
<!-- Node7&#45;&gt;Node4 -->
<g id="edge4" class="edge"><title>Node7&#45;&gt;Node4</title>
<path fill="none" stroke="#9a32cd" stroke-dasharray="5,2" d="M186.224,-136.834C180.801,-124.345 174.327,-109.436 169.679,-98.7309"/>
<polygon fill="#9a32cd" stroke="#9a32cd" points="183.1,-138.426 190.293,-146.205 189.52,-135.638 183.1,-138.426"/>
<text text-anchor="middle" x="211.5" y="-120" font-family="Helvetica,sans-Serif" font-size="10.00"> triggersimu</text>
</g>
</g>
</svg>
