<?xml version="1.0" encoding="UTF-8" standalone="no"?>
<!DOCTYPE svg PUBLIC "-//W3C//DTD SVG 1.1//EN"
 "http://www.w3.org/Graphics/SVG/1.1/DTD/svg11.dtd">
<!-- Generated by graphviz version 2.38.0 (20140413.2041)
 -->
<!-- Title: EtapDalitz_plot_Sig Pages: 1 -->
<svg width="162pt" height="140pt"
 viewBox="0.00 0.00 162.00 140.00" xmlns="http://www.w3.org/2000/svg" xmlns:xlink="http://www.w3.org/1999/xlink">
<g id="graph0" class="graph" transform="scale(1 1) rotate(0) translate(4 136)">
<title>EtapDalitz_plot_Sig</title>
<polygon fill="white" stroke="none" points="-4,4 -4,-136 158,-136 158,4 -4,4"/>
<!-- Node3 -->
<g id="node1" class="node"><title>Node3</title>
<polygon fill="#bfbfbf" stroke="black" points="22.5,-0.5 22.5,-19.5 131.5,-19.5 131.5,-0.5 22.5,-0.5"/>
<text text-anchor="middle" x="77" y="-7.5" font-family="Helvetica,sans-Serif" font-size="10.00">EtapDalitz_plot_Sig</text>
</g>
<!-- Node4 -->
<g id="node2" class="node"><title>Node4</title>
<g id="a_node2"><a xlink:href="struct_etap_dalitz__plot.html" target="_top" xlink:title="EtapDalitz_plot\&lt; SigHist_t \&gt;">
<polygon fill="white" stroke="black" points="0,-56.5 0,-75.5 154,-75.5 154,-56.5 0,-56.5"/>
<text text-anchor="middle" x="77" y="-63.5" font-family="Helvetica,sans-Serif" font-size="10.00">EtapDalitz_plot&lt; SigHist_t &gt;</text>
</a>
</g>
</g>
<!-- Node4&#45;&gt;Node3 -->
<g id="edge1" class="edge"><title>Node4&#45;&gt;Node3</title>
<path fill="none" stroke="midnightblue" d="M77,-45.8045C77,-36.9102 77,-26.7798 77,-19.7511"/>
<polygon fill="midnightblue" stroke="midnightblue" points="73.5001,-46.083 77,-56.083 80.5001,-46.083 73.5001,-46.083"/>
</g>
<!-- Node5 -->
<g id="node3" class="node"><title>Node5</title>
<polygon fill="white" stroke="#bfbfbf" points="53,-112.5 53,-131.5 101,-131.5 101,-112.5 53,-112.5"/>
<text text-anchor="middle" x="77" y="-119.5" font-family="Helvetica,sans-Serif" font-size="10.00">Plotter</text>
</g>
<!-- Node5&#45;&gt;Node4 -->
<g id="edge2" class="edge"><title>Node5&#45;&gt;Node4</title>
<path fill="none" stroke="midnightblue" d="M77,-101.805C77,-92.9102 77,-82.7798 77,-75.7511"/>
<polygon fill="midnightblue" stroke="midnightblue" points="73.5001,-102.083 77,-112.083 80.5001,-102.083 73.5001,-102.083"/>
</g>
</g>
</svg>
