<?xml version="1.0" encoding="UTF-8" standalone="no"?>
<!DOCTYPE svg PUBLIC "-//W3C//DTD SVG 1.1//EN"
 "http://www.w3.org/Graphics/SVG/1.1/DTD/svg11.dtd">
<!-- Generated by graphviz version 2.38.0 (20140413.2041)
 -->
<!-- Title: ant::calibration::energy::GUI_HEP Pages: 1 -->
<svg width="1633pt" height="494pt"
 viewBox="0.00 0.00 1633.00 494.00" xmlns="http://www.w3.org/2000/svg" xmlns:xlink="http://www.w3.org/1999/xlink">
<g id="graph0" class="graph" transform="scale(1 1) rotate(0) translate(4 490)">
<title>ant::calibration::energy::GUI_HEP</title>
<polygon fill="white" stroke="none" points="-4,4 -4,-490 1629,-490 1629,4 -4,4"/>
<!-- Node3 -->
<g id="node1" class="node"><title>Node3</title>
<polygon fill="#bfbfbf" stroke="black" points="1498,-179.5 1498,-209.5 1625,-209.5 1625,-179.5 1498,-179.5"/>
<text text-anchor="start" x="1506" y="-197.5" font-family="Helvetica,sans-Serif" font-size="10.00">ant::calibration::energy</text>
<text text-anchor="middle" x="1561.5" y="-186.5" font-family="Helvetica,sans-Serif" font-size="10.00">::GUI_HEP</text>
</g>
<!-- Node4 -->
<g id="node2" class="node"><title>Node4</title>
<g id="a_node2"><a xlink:href="structant_1_1calibration_1_1_g_u_i___calib_type.html" target="_top" xlink:title="The GUI_CalibType struct is an abstract base class for handling the data storage for a provided Calib...">
<polygon fill="white" stroke="black" points="635,-91.5 635,-121.5 746,-121.5 746,-91.5 635,-91.5"/>
<text text-anchor="start" x="643" y="-109.5" font-family="Helvetica,sans-Serif" font-size="10.00">ant::calibration::GUI</text>
<text text-anchor="middle" x="690.5" y="-98.5" font-family="Helvetica,sans-Serif" font-size="10.00">_CalibType</text>
</a>
</g>
</g>
<!-- Node4&#45;&gt;Node3 -->
<g id="edge1" class="edge"><title>Node4&#45;&gt;Node3</title>
<path fill="none" stroke="midnightblue" d="M756.143,-115.914C800.01,-121.5 859.379,-127.5 912,-127.5 912,-127.5 912,-127.5 1372,-127.5 1433.65,-127.5 1500.43,-159.71 1535.59,-179.464"/>
<polygon fill="midnightblue" stroke="midnightblue" points="756.553,-112.438 746.185,-114.619 755.65,-119.379 756.553,-112.438"/>
</g>
<!-- Node5 -->
<g id="node3" class="node"><title>Node5</title>
<g id="a_node3"><a xlink:href="classant_1_1calibration_1_1gui_1_1_calib_module__traits.html" target="_top" xlink:title="ant::calibration::gui\l::CalibModule_traits">
<polygon fill="white" stroke="black" points="392,-135.5 392,-165.5 502,-165.5 502,-135.5 392,-135.5"/>
<text text-anchor="start" x="400" y="-153.5" font-family="Helvetica,sans-Serif" font-size="10.00">ant::calibration::gui</text>
<text text-anchor="middle" x="447" y="-142.5" font-family="Helvetica,sans-Serif" font-size="10.00">::CalibModule_traits</text>
</a>
</g>
</g>
<!-- Node5&#45;&gt;Node4 -->
<g id="edge2" class="edge"><title>Node5&#45;&gt;Node4</title>
<path fill="none" stroke="midnightblue" d="M512.18,-138.807C550.346,-131.853 598.254,-123.125 634.648,-116.494"/>
<polygon fill="midnightblue" stroke="midnightblue" points="511.408,-135.39 502.197,-140.626 512.663,-142.276 511.408,-135.39"/>
</g>
<!-- Node6 -->
<g id="node4" class="node"><title>Node6</title>
<g id="a_node4"><a xlink:href="structant_1_1calibration_1_1_calib_type.html" target="_top" xlink:title="The CalibType struct stores the data for the Updateable interface and for the GUI. ">
<polygon fill="white" stroke="black" points="378,-97 378,-116 516,-116 516,-97 378,-97"/>
<text text-anchor="middle" x="447" y="-104" font-family="Helvetica,sans-Serif" font-size="10.00">ant::calibration::CalibType</text>
</a>
</g>
</g>
<!-- Node6&#45;&gt;Node4 -->
<g id="edge3" class="edge"><title>Node6&#45;&gt;Node4</title>
<path fill="none" stroke="#9a32cd" stroke-dasharray="5,2" d="M526.538,-106.5C561.921,-106.5 602.835,-106.5 634.816,-106.5"/>
<polygon fill="#9a32cd" stroke="#9a32cd" points="526.236,-103 516.236,-106.5 526.236,-110 526.236,-103"/>
<text text-anchor="middle" x="568" y="-109.5" font-family="Helvetica,sans-Serif" font-size="10.00"> calibType</text>
</g>
<!-- Node7 -->
<g id="node5" class="node"><title>Node7</title>
<g id="a_node5"><a xlink:title="STL class. ">
<polygon fill="white" stroke="#bfbfbf" points="168.5,-208 168.5,-227 233.5,-227 233.5,-208 168.5,-208"/>
<text text-anchor="middle" x="201" y="-215" font-family="Helvetica,sans-Serif" font-size="10.00">std::string</text>
</a>
</g>
</g>
<!-- Node7&#45;&gt;Node3 -->
<g id="edge10" class="edge"><title>Node7&#45;&gt;Node3</title>
<path fill="none" stroke="#9a32cd" stroke-dasharray="5,2" d="M244.003,-211.121C292.533,-204.315 374.846,-194.5 446,-194.5 446,-194.5 446,-194.5 1372,-194.5 1413.89,-194.5 1461.01,-194.5 1497.67,-194.5"/>
<polygon fill="#9a32cd" stroke="#9a32cd" points="243.289,-207.688 233.884,-212.566 244.278,-214.617 243.289,-207.688"/>
<text text-anchor="middle" x="913" y="-197.5" font-family="Helvetica,sans-Serif" font-size="10.00"> full_hist_name</text>
</g>
<!-- Node7&#45;&gt;Node6 -->
<g id="edge4" class="edge"><title>Node7&#45;&gt;Node6</title>
<path fill="none" stroke="#9a32cd" stroke-dasharray="5,2" d="M219.918,-201.259C235.032,-188.248 257.708,-170.282 280,-158.5 320.633,-137.025 334.076,-139.022 378,-125.5 388.544,-122.254 400.078,-118.942 410.604,-116.012"/>
<polygon fill="#9a32cd" stroke="#9a32cd" points="217.554,-198.678 212.35,-207.907 222.173,-203.937 217.554,-198.678"/>
<text text-anchor="middle" x="320" y="-172.5" font-family="Helvetica,sans-Serif" font-size="10.00"> Name</text>
<text text-anchor="middle" x="320" y="-161.5" font-family="Helvetica,sans-Serif" font-size="10.00">HistogramName</text>
</g>
<!-- Node20 -->
<g id="node18" class="node"><title>Node20</title>
<g id="a_node18"><a xlink:href="classant_1_1calibration_1_1gui_1_1_fit_function.html" target="_top" xlink:title="ant::calibration::gui\l::FitFunction">
<polygon fill="white" stroke="black" points="1086,-231.5 1086,-261.5 1194,-261.5 1194,-231.5 1086,-231.5"/>
<text text-anchor="start" x="1094" y="-249.5" font-family="Helvetica,sans-Serif" font-size="10.00">ant::calibration::gui</text>
<text text-anchor="middle" x="1140" y="-238.5" font-family="Helvetica,sans-Serif" font-size="10.00">::FitFunction</text>
</a>
</g>
</g>
<!-- Node7&#45;&gt;Node20 -->
<g id="edge27" class="edge"><title>Node7&#45;&gt;Node20</title>
<path fill="none" stroke="#9a32cd" stroke-dasharray="5,2" d="M244.003,-223.879C292.533,-230.685 374.846,-240.5 446,-240.5 446,-240.5 446,-240.5 914,-240.5 972.81,-240.5 1040.24,-242.574 1085.82,-244.283"/>
<polygon fill="#9a32cd" stroke="#9a32cd" points="244.278,-220.383 233.884,-222.434 243.289,-227.312 244.278,-220.383"/>
<text text-anchor="middle" x="690.5" y="-243.5" font-family="Helvetica,sans-Serif" font-size="10.00"> AdditionalFitArgs</text>
</g>
<!-- Node23 -->
<g id="node21" class="node"><title>Node23</title>
<g id="a_node21"><a xlink:href="classant_1_1calibration_1_1gui_1_1_indicator_knob.html" target="_top" xlink:title="ant::calibration::gui\l::IndicatorKnob">
<polygon fill="white" stroke="black" points="393,-270.5 393,-300.5 501,-300.5 501,-270.5 393,-270.5"/>
<text text-anchor="start" x="401" y="-288.5" font-family="Helvetica,sans-Serif" font-size="10.00">ant::calibration::gui</text>
<text text-anchor="middle" x="447" y="-277.5" font-family="Helvetica,sans-Serif" font-size="10.00">::IndicatorKnob</text>
</a>
</g>
</g>
<!-- Node7&#45;&gt;Node23 -->
<g id="edge25" class="edge"><title>Node7&#45;&gt;Node23</title>
<path fill="none" stroke="#9a32cd" stroke-dasharray="5,2" d="M230.251,-231.52C244.829,-238.313 263.064,-246.14 280,-251.5 317.021,-263.218 359.999,-271.891 392.947,-277.544"/>
<polygon fill="#9a32cd" stroke="#9a32cd" points="231.338,-228.161 220.805,-227.025 228.331,-234.482 231.338,-228.161"/>
<text text-anchor="middle" x="320" y="-273.5" font-family="Helvetica,sans-Serif" font-size="10.00"> name</text>
</g>
<!-- Node8 -->
<g id="node6" class="node"><title>Node8</title>
<g id="a_node6"><a xlink:title="STL class. ">
<polygon fill="white" stroke="#bfbfbf" points="0,-202.5 0,-232.5 103,-232.5 103,-202.5 0,-202.5"/>
<text text-anchor="start" x="8" y="-220.5" font-family="Helvetica,sans-Serif" font-size="10.00">std::basic_string&lt;</text>
<text text-anchor="middle" x="51.5" y="-209.5" font-family="Helvetica,sans-Serif" font-size="10.00"> char &gt;</text>
</a>
</g>
</g>
<!-- Node8&#45;&gt;Node7 -->
<g id="edge5" class="edge"><title>Node8&#45;&gt;Node7</title>
<path fill="none" stroke="midnightblue" d="M113.519,-217.5C132.251,-217.5 152.112,-217.5 168.071,-217.5"/>
<polygon fill="midnightblue" stroke="midnightblue" points="113.261,-214 103.261,-217.5 113.261,-221 113.261,-214"/>
</g>
<!-- Node9 -->
<g id="node7" class="node"><title>Node9</title>
<polygon fill="white" stroke="#bfbfbf" points="140,-58 140,-77 262,-77 262,-58 140,-58"/>
<text text-anchor="middle" x="201" y="-65" font-family="Helvetica,sans-Serif" font-size="10.00">std::vector&lt; double &gt;</text>
</g>
<!-- Node9&#45;&gt;Node4 -->
<g id="edge9" class="edge"><title>Node9&#45;&gt;Node4</title>
<path fill="none" stroke="#9a32cd" stroke-dasharray="5,2" d="M272.403,-66.6566C336.162,-66.5721 432.599,-68.1374 516,-76.5 555.997,-80.5105 600.683,-88.3166 634.687,-94.9607"/>
<polygon fill="#9a32cd" stroke="#9a32cd" points="272.057,-63.1574 262.067,-66.6851 272.076,-70.1574 272.057,-63.1574"/>
<text text-anchor="middle" x="447" y="-79.5" font-family="Helvetica,sans-Serif" font-size="10.00"> previousValues</text>
</g>
<!-- Node9&#45;&gt;Node6 -->
<g id="edge6" class="edge"><title>Node9&#45;&gt;Node6</title>
<path fill="none" stroke="#9a32cd" stroke-dasharray="5,2" d="M264.225,-78.8305C269.558,-79.7523 274.871,-80.6537 280,-81.5 312.781,-86.9093 349.285,-92.4585 379.695,-96.9504"/>
<polygon fill="#9a32cd" stroke="#9a32cd" points="264.444,-75.3158 253.991,-77.0416 263.239,-82.2112 264.444,-75.3158"/>
<text text-anchor="middle" x="320" y="-97.5" font-family="Helvetica,sans-Serif" font-size="10.00"> Values</text>
</g>
<!-- Node10 -->
<g id="node8" class="node"><title>Node10</title>
<polygon fill="white" stroke="#bfbfbf" points="378.5,-0.5 378.5,-30.5 515.5,-30.5 515.5,-0.5 378.5,-0.5"/>
<text text-anchor="start" x="386.5" y="-18.5" font-family="Helvetica,sans-Serif" font-size="10.00">std::map&lt; unsigned,</text>
<text text-anchor="middle" x="447" y="-7.5" font-family="Helvetica,sans-Serif" font-size="10.00"> std::vector&lt; double &gt; &gt;</text>
</g>
<!-- Node9&#45;&gt;Node10 -->
<g id="edge8" class="edge"><title>Node9&#45;&gt;Node10</title>
<path fill="none" stroke="#9a32cd" stroke-dasharray="5,2" d="M238.03,-54.7157C251.125,-50.3988 266.117,-45.8343 280,-42.5 311.94,-34.8291 347.865,-28.686 378.105,-24.2093"/>
<polygon fill="#9a32cd" stroke="#9a32cd" points="236.798,-51.4376 228.436,-57.944 239.03,-58.0721 236.798,-51.4376"/>
<text text-anchor="middle" x="320" y="-45.5" font-family="Helvetica,sans-Serif" font-size="10.00"> elements</text>
</g>
<!-- Node10&#45;&gt;Node4 -->
<g id="edge7" class="edge"><title>Node10&#45;&gt;Node4</title>
<path fill="none" stroke="#9a32cd" stroke-dasharray="5,2" d="M526.027,-22.1281C550.995,-26.0858 578.294,-32.4063 602,-42.5 629.706,-54.2969 656.959,-76.3477 673.503,-91.2268"/>
<polygon fill="#9a32cd" stroke="#9a32cd" points="526.26,-18.6245 515.855,-20.6231 525.235,-25.5491 526.26,-18.6245"/>
<text text-anchor="middle" x="568" y="-45.5" font-family="Helvetica,sans-Serif" font-size="10.00"> fitParameters</text>
</g>
<!-- Node11 -->
<g id="node9" class="node"><title>Node11</title>
<g id="a_node9"><a xlink:href="classant_1_1calibration_1_1gui_1_1_cal_canvas.html" target="_top" xlink:title="ant::calibration::gui\l::CalCanvas">
<polygon fill="white" stroke="black" points="1317,-324.5 1317,-354.5 1425,-354.5 1425,-324.5 1317,-324.5"/>
<text text-anchor="start" x="1325" y="-342.5" font-family="Helvetica,sans-Serif" font-size="10.00">ant::calibration::gui</text>
<text text-anchor="middle" x="1371" y="-331.5" font-family="Helvetica,sans-Serif" font-size="10.00">::CalCanvas</text>
</a>
</g>
</g>
<!-- Node11&#45;&gt;Node3 -->
<g id="edge11" class="edge"><title>Node11&#45;&gt;Node3</title>
<path fill="none" stroke="#9a32cd" stroke-dasharray="5,2" d="M1400.04,-317.927C1438.7,-288.189 1507.39,-235.355 1540.95,-209.539"/>
<polygon fill="#9a32cd" stroke="#9a32cd" points="1397.61,-315.385 1391.82,-324.257 1401.88,-320.934 1397.61,-315.385"/>
<text text-anchor="middle" x="1461.5" y="-286.5" font-family="Helvetica,sans-Serif" font-size="10.00"> canvas</text>
</g>
<!-- Node12 -->
<g id="node10" class="node"><title>Node12</title>
<polygon fill="white" stroke="#bfbfbf" points="1112,-330 1112,-349 1168,-349 1168,-330 1112,-330"/>
<text text-anchor="middle" x="1140" y="-337" font-family="Helvetica,sans-Serif" font-size="10.00">TCanvas</text>
</g>
<!-- Node12&#45;&gt;Node11 -->
<g id="edge12" class="edge"><title>Node12&#45;&gt;Node11</title>
<path fill="none" stroke="midnightblue" d="M1178.19,-339.5C1215.8,-339.5 1274.28,-339.5 1316.79,-339.5"/>
<polygon fill="midnightblue" stroke="midnightblue" points="1178.17,-336 1168.17,-339.5 1178.17,-343 1178.17,-336"/>
</g>
<!-- Node13 -->
<g id="node11" class="node"><title>Node13</title>
<g id="a_node11"><a xlink:href="classant_1_1calibration_1_1gui_1_1update__notify__traits.html" target="_top" xlink:title="ant::calibration::gui\l::update_notify_traits">
<polygon fill="white" stroke="black" points="631.5,-345.5 631.5,-375.5 749.5,-375.5 749.5,-345.5 631.5,-345.5"/>
<text text-anchor="start" x="639.5" y="-363.5" font-family="Helvetica,sans-Serif" font-size="10.00">ant::calibration::gui</text>
<text text-anchor="middle" x="690.5" y="-352.5" font-family="Helvetica,sans-Serif" font-size="10.00">::update_notify_traits</text>
</a>
</g>
</g>
<!-- Node13&#45;&gt;Node11 -->
<g id="edge13" class="edge"><title>Node13&#45;&gt;Node11</title>
<path fill="none" stroke="midnightblue" d="M759.884,-361.48C859.87,-362.631 1051.82,-363.774 1215,-358.5 1252.38,-357.292 1261.9,-358.24 1299,-353.5 1304.73,-352.768 1310.7,-351.846 1316.63,-350.828"/>
<polygon fill="midnightblue" stroke="midnightblue" points="759.66,-357.977 749.62,-361.358 759.577,-364.977 759.66,-357.977"/>
</g>
<!-- Node15 -->
<g id="node13" class="node"><title>Node15</title>
<g id="a_node13"><a xlink:href="classant_1_1calibration_1_1gui_1_1_indicator.html" target="_top" xlink:title="ant::calibration::gui\l::Indicator">
<polygon fill="white" stroke="black" points="859,-318.5 859,-348.5 967,-348.5 967,-318.5 859,-318.5"/>
<text text-anchor="start" x="867" y="-336.5" font-family="Helvetica,sans-Serif" font-size="10.00">ant::calibration::gui</text>
<text text-anchor="middle" x="913" y="-325.5" font-family="Helvetica,sans-Serif" font-size="10.00">::Indicator</text>
</a>
</g>
</g>
<!-- Node13&#45;&gt;Node15 -->
<g id="edge16" class="edge"><title>Node13&#45;&gt;Node15</title>
<path fill="none" stroke="midnightblue" d="M759.854,-352.13C791.704,-348.23 829.033,-343.659 858.746,-340.021"/>
<polygon fill="midnightblue" stroke="midnightblue" points="759.223,-348.681 749.722,-353.371 760.073,-355.629 759.223,-348.681"/>
</g>
<!-- Node14 -->
<g id="node12" class="node"><title>Node14</title>
<polygon fill="white" stroke="#bfbfbf" points="1073,-280.5 1073,-310.5 1207,-310.5 1207,-280.5 1073,-280.5"/>
<text text-anchor="start" x="1081" y="-298.5" font-family="Helvetica,sans-Serif" font-size="10.00">std::list&lt; ant::calibration</text>
<text text-anchor="middle" x="1140" y="-287.5" font-family="Helvetica,sans-Serif" font-size="10.00">::gui::Indicator *&gt;</text>
</g>
<!-- Node14&#45;&gt;Node11 -->
<g id="edge14" class="edge"><title>Node14&#45;&gt;Node11</title>
<path fill="none" stroke="#9a32cd" stroke-dasharray="5,2" d="M1217.34,-309.087C1243.28,-313.817 1272.43,-319.256 1299,-324.5 1304.81,-325.647 1310.88,-326.878 1316.92,-328.124"/>
<polygon fill="#9a32cd" stroke="#9a32cd" points="1217.65,-305.587 1207.19,-307.242 1216.4,-312.474 1217.65,-305.587"/>
<text text-anchor="middle" x="1266" y="-327.5" font-family="Helvetica,sans-Serif" font-size="10.00"> indicators</text>
</g>
<!-- Node15&#45;&gt;Node14 -->
<g id="edge15" class="edge"><title>Node15&#45;&gt;Node14</title>
<path fill="none" stroke="#9a32cd" stroke-dasharray="5,2" d="M976.911,-322.875C1006.73,-317.838 1042.37,-311.82 1072.62,-306.711"/>
<polygon fill="#9a32cd" stroke="#9a32cd" points="976.314,-319.426 967.037,-324.543 977.48,-326.328 976.314,-319.426"/>
<text text-anchor="middle" x="1022.5" y="-321.5" font-family="Helvetica,sans-Serif" font-size="10.00"> elements</text>
</g>
<!-- Node16 -->
<g id="node14" class="node"><title>Node16</title>
<polygon fill="white" stroke="#bfbfbf" points="1077.5,-455.5 1077.5,-485.5 1202.5,-485.5 1202.5,-455.5 1077.5,-455.5"/>
<text text-anchor="start" x="1085.5" y="-473.5" font-family="Helvetica,sans-Serif" font-size="10.00">std::stack&lt; FitFunction</text>
<text text-anchor="middle" x="1140" y="-462.5" font-family="Helvetica,sans-Serif" font-size="10.00">::SavedState_t &gt;</text>
</g>
<!-- Node16&#45;&gt;Node11 -->
<g id="edge17" class="edge"><title>Node16&#45;&gt;Node11</title>
<path fill="none" stroke="#9a32cd" stroke-dasharray="5,2" d="M1212.68,-459.633C1241.19,-452.958 1273.27,-442.324 1299,-425.5 1327.2,-407.064 1349.86,-373.96 1361.49,-354.644"/>
<polygon fill="#9a32cd" stroke="#9a32cd" points="1211.76,-456.25 1202.76,-461.832 1213.28,-463.085 1211.76,-456.25"/>
<text text-anchor="middle" x="1266" y="-456.5" font-family="Helvetica,sans-Serif" font-size="10.00"> UndoStack</text>
</g>
<!-- Node17 -->
<g id="node15" class="node"><title>Node17</title>
<g id="a_node15"><a xlink:title="STL class. ">
<polygon fill="white" stroke="#bfbfbf" points="865.5,-461 865.5,-480 960.5,-480 960.5,-461 865.5,-461"/>
<text text-anchor="middle" x="913" y="-468" font-family="Helvetica,sans-Serif" font-size="10.00">std::vector&lt; T &gt;</text>
</a>
</g>
</g>
<!-- Node17&#45;&gt;Node16 -->
<g id="edge18" class="edge"><title>Node17&#45;&gt;Node16</title>
<path fill="none" stroke="#9a32cd" stroke-dasharray="5,2" d="M970.87,-470.5C1003.4,-470.5 1044.22,-470.5 1077.49,-470.5"/>
<polygon fill="#9a32cd" stroke="#9a32cd" points="970.62,-467 960.62,-470.5 970.62,-474 970.62,-467"/>
<text text-anchor="middle" x="1022.5" y="-473.5" font-family="Helvetica,sans-Serif" font-size="10.00"> elements</text>
</g>
<!-- Node18 -->
<g id="node16" class="node"><title>Node18</title>
<polygon fill="white" stroke="#bfbfbf" points="676,-461 676,-480 705,-480 705,-461 676,-461"/>
<text text-anchor="middle" x="690.5" y="-468" font-family="Helvetica,sans-Serif" font-size="10.00">T</text>
</g>
<!-- Node18&#45;&gt;Node17 -->
<g id="edge19" class="edge"><title>Node18&#45;&gt;Node17</title>
<path fill="none" stroke="#9a32cd" stroke-dasharray="5,2" d="M715.756,-470.5C751.663,-470.5 819.636,-470.5 865.383,-470.5"/>
<polygon fill="#9a32cd" stroke="#9a32cd" points="715.293,-467 705.293,-470.5 715.293,-474 715.293,-467"/>
<text text-anchor="middle" x="803.5" y="-473.5" font-family="Helvetica,sans-Serif" font-size="10.00"> elements</text>
</g>
<!-- Node19 -->
<g id="node17" class="node"><title>Node19</title>
<g id="a_node17"><a xlink:href="structant_1_1calibration_1_1gui_1_1_cal_canvas_1_1axis__settings__t.html" target="_top" xlink:title="ant::calibration::gui\l::CalCanvas::axis_settings_t">
<polygon fill="white" stroke="black" points="1065,-406.5 1065,-436.5 1215,-436.5 1215,-406.5 1065,-406.5"/>
<text text-anchor="start" x="1073" y="-424.5" font-family="Helvetica,sans-Serif" font-size="10.00">ant::calibration::gui</text>
<text text-anchor="middle" x="1140" y="-413.5" font-family="Helvetica,sans-Serif" font-size="10.00">::CalCanvas::axis_settings_t</text>
</a>
</g>
</g>
<!-- Node19&#45;&gt;Node11 -->
<g id="edge20" class="edge"><title>Node19&#45;&gt;Node11</title>
<path fill="none" stroke="#9a32cd" stroke-dasharray="5,2" d="M1225.36,-412.596C1249.79,-408.142 1276.04,-401.475 1299,-391.5 1319.74,-382.489 1340.23,-366.517 1353.83,-354.644"/>
<polygon fill="#9a32cd" stroke="#9a32cd" points="1224.64,-409.168 1215.38,-414.314 1225.83,-416.066 1224.64,-409.168"/>
<text text-anchor="middle" x="1266" y="-413.5" font-family="Helvetica,sans-Serif" font-size="10.00"> axis_settings</text>
</g>
<!-- Node20&#45;&gt;Node11 -->
<g id="edge21" class="edge"><title>Node20&#45;&gt;Node11</title>
<path fill="none" stroke="#9a32cd" stroke-dasharray="5,2" d="M1203.88,-262.667C1233.37,-271.186 1268.63,-282.735 1299,-296.5 1316.19,-304.293 1334.38,-315.37 1348.05,-324.33"/>
<polygon fill="#9a32cd" stroke="#9a32cd" points="1204.69,-259.259 1194.11,-259.895 1202.78,-265.993 1204.69,-259.259"/>
<text text-anchor="middle" x="1266" y="-299.5" font-family="Helvetica,sans-Serif" font-size="10.00"> func</text>
</g>
<!-- Node21 -->
<g id="node19" class="node"><title>Node21</title>
<polygon fill="white" stroke="#bfbfbf" points="846,-269.5 846,-299.5 980,-299.5 980,-269.5 846,-269.5"/>
<text text-anchor="start" x="854" y="-287.5" font-family="Helvetica,sans-Serif" font-size="10.00">std::list&lt; std::unique</text>
<text text-anchor="middle" x="913" y="-276.5" font-family="Helvetica,sans-Serif" font-size="10.00">_ptr&lt; IndicatorKnob &gt; &gt;</text>
</g>
<!-- Node21&#45;&gt;Node20 -->
<g id="edge22" class="edge"><title>Node21&#45;&gt;Node20</title>
<path fill="none" stroke="#9a32cd" stroke-dasharray="5,2" d="M990.342,-271.607C1021.8,-266.294 1057.48,-260.268 1086,-255.451"/>
<polygon fill="#9a32cd" stroke="#9a32cd" points="989.568,-268.188 980.29,-273.304 990.734,-275.09 989.568,-268.188"/>
<text text-anchor="middle" x="1022.5" y="-272.5" font-family="Helvetica,sans-Serif" font-size="10.00"> knobs</text>
</g>
<!-- Node22 -->
<g id="node20" class="node"><title>Node22</title>
<polygon fill="white" stroke="#bfbfbf" points="620,-270.5 620,-300.5 761,-300.5 761,-270.5 620,-270.5"/>
<text text-anchor="start" x="628" y="-288.5" font-family="Helvetica,sans-Serif" font-size="10.00">std::unique_ptr&lt; Indicator</text>
<text text-anchor="middle" x="690.5" y="-277.5" font-family="Helvetica,sans-Serif" font-size="10.00">Knob &gt;</text>
</g>
<!-- Node22&#45;&gt;Node21 -->
<g id="edge23" class="edge"><title>Node22&#45;&gt;Node21</title>
<path fill="none" stroke="#9a32cd" stroke-dasharray="5,2" d="M771.554,-285.137C795.895,-285.027 822.363,-284.907 845.693,-284.801"/>
<polygon fill="#9a32cd" stroke="#9a32cd" points="771.252,-281.638 761.268,-285.184 771.283,-288.638 771.252,-281.638"/>
<text text-anchor="middle" x="803.5" y="-287.5" font-family="Helvetica,sans-Serif" font-size="10.00"> elements</text>
</g>
<!-- Node23&#45;&gt;Node22 -->
<g id="edge24" class="edge"><title>Node23&#45;&gt;Node22</title>
<path fill="none" stroke="#9a32cd" stroke-dasharray="5,2" d="M511.378,-285.5C544.699,-285.5 585.613,-285.5 619.822,-285.5"/>
<polygon fill="#9a32cd" stroke="#9a32cd" points="511.297,-282 501.297,-285.5 511.297,-289 511.297,-282"/>
<text text-anchor="middle" x="568" y="-288.5" font-family="Helvetica,sans-Serif" font-size="10.00"> ptr</text>
</g>
<!-- Node24 -->
<g id="node22" class="node"><title>Node24</title>
<g id="a_node22"><a xlink:href="structant_1_1calibration_1_1gui_1_1_indicator_properties.html" target="_top" xlink:title="ant::calibration::gui\l::IndicatorProperties">
<polygon fill="white" stroke="black" points="144.5,-292.5 144.5,-322.5 257.5,-322.5 257.5,-292.5 144.5,-292.5"/>
<text text-anchor="start" x="152.5" y="-310.5" font-family="Helvetica,sans-Serif" font-size="10.00">ant::calibration::gui</text>
<text text-anchor="middle" x="201" y="-299.5" font-family="Helvetica,sans-Serif" font-size="10.00">::IndicatorProperties</text>
</a>
</g>
</g>
<!-- Node24&#45;&gt;Node23 -->
<g id="edge26" class="edge"><title>Node24&#45;&gt;Node23</title>
<path fill="none" stroke="#9a32cd" stroke-dasharray="5,2" d="M267.909,-301.557C307.028,-298.03 355.983,-293.616 392.661,-290.309"/>
<polygon fill="#9a32cd" stroke="#9a32cd" points="267.318,-298.096 257.673,-302.48 267.947,-305.068 267.318,-298.096"/>
<text text-anchor="middle" x="320" y="-302.5" font-family="Helvetica,sans-Serif" font-size="10.00"> gui</text>
</g>
</g>
</svg>
