<?xml version="1.0" encoding="UTF-8" standalone="no"?>
<!DOCTYPE svg PUBLIC "-//W3C//DTD SVG 1.1//EN"
 "http://www.w3.org/Graphics/SVG/1.1/DTD/svg11.dtd">
<!-- Generated by graphviz version 2.38.0 (20140413.2041)
 -->
<!-- Title: ant::analysis::slowcontrol::processor::Beam Pages: 1 -->
<svg width="779pt" height="66pt"
 viewBox="0.00 0.00 779.00 66.00" xmlns="http://www.w3.org/2000/svg" xmlns:xlink="http://www.w3.org/1999/xlink">
<g id="graph0" class="graph" transform="scale(1 1) rotate(0) translate(4 62)">
<title>ant::analysis::slowcontrol::processor::Beam</title>
<polygon fill="white" stroke="none" points="-4,4 -4,-62 775,-62 775,4 -4,4"/>
<!-- Node2 -->
<g id="node1" class="node"><title>Node2</title>
<polygon fill="#bfbfbf" stroke="black" points="635,-23.5 635,-53.5 771,-53.5 771,-23.5 635,-23.5"/>
<text text-anchor="start" x="643" y="-41.5" font-family="Helvetica,sans-Serif" font-size="10.00">ant::analysis::slowcontrol</text>
<text text-anchor="middle" x="703" y="-30.5" font-family="Helvetica,sans-Serif" font-size="10.00">::processor::Beam</text>
</g>
<!-- Node3 -->
<g id="node2" class="node"><title>Node3</title>
<g id="a_node2"><a xlink:href="structant_1_1analysis_1_1slowcontrol_1_1_processor.html" target="_top" xlink:title="ant::analysis::slowcontrol\l::Processor">
<polygon fill="white" stroke="black" points="0,-27.5 0,-57.5 136,-57.5 136,-27.5 0,-27.5"/>
<text text-anchor="start" x="8" y="-45.5" font-family="Helvetica,sans-Serif" font-size="10.00">ant::analysis::slowcontrol</text>
<text text-anchor="middle" x="68" y="-34.5" font-family="Helvetica,sans-Serif" font-size="10.00">::Processor</text>
</a>
</g>
</g>
<!-- Node3&#45;&gt;Node2 -->
<g id="edge1" class="edge"><title>Node3&#45;&gt;Node2</title>
<path fill="none" stroke="midnightblue" d="M146.336,-44.3888C148.921,-44.4299 151.482,-44.4672 154,-44.5 329.541,-46.7871 373.444,-45.2778 549,-45.5 579.222,-45.5383 586.803,-46.7413 617,-45.5 622.77,-45.2628 628.754,-44.9354 634.754,-44.5509"/>
<polygon fill="midnightblue" stroke="midnightblue" points="146.334,-40.8883 136.275,-44.2132 146.212,-47.8872 146.334,-40.8883"/>
</g>
<!-- Node5 -->
<g id="node4" class="node"><title>Node5</title>
<g id="a_node4"><a xlink:href="structant_1_1analysis_1_1slowcontrol_1_1processor_1_1_acqu_scaler_vector.html" target="_top" xlink:title="ant::analysis::slowcontrol\l::processor::AcquScalerVector">
<polygon fill="white" stroke="black" points="173,-0.5 173,-30.5 334,-30.5 334,-0.5 173,-0.5"/>
<text text-anchor="start" x="181" y="-18.5" font-family="Helvetica,sans-Serif" font-size="10.00">ant::analysis::slowcontrol</text>
<text text-anchor="middle" x="253.5" y="-7.5" font-family="Helvetica,sans-Serif" font-size="10.00">::processor::AcquScalerVector</text>
</a>
</g>
</g>
<!-- Node3&#45;&gt;Node5 -->
<g id="edge4" class="edge"><title>Node3&#45;&gt;Node5</title>
<path fill="none" stroke="midnightblue" d="M145.971,-31.1746C154.866,-29.8657 163.952,-28.5288 172.882,-27.2149"/>
<polygon fill="midnightblue" stroke="midnightblue" points="145.411,-27.7193 136.027,-32.6378 146.43,-34.6447 145.411,-27.7193"/>
</g>
<!-- Node4 -->
<g id="node3" class="node"><title>Node4</title>
<g id="a_node3"><a xlink:href="structant_1_1analysis_1_1slowcontrol_1_1processor_1_1_acqu_scaler_scalar.html" target="_top" xlink:title="ant::analysis::slowcontrol\l::processor::AcquScalerScalar">
<polygon fill="white" stroke="black" points="371,-0.5 371,-30.5 531,-30.5 531,-0.5 371,-0.5"/>
<text text-anchor="start" x="379" y="-18.5" font-family="Helvetica,sans-Serif" font-size="10.00">ant::analysis::slowcontrol</text>
<text text-anchor="middle" x="451" y="-7.5" font-family="Helvetica,sans-Serif" font-size="10.00">::processor::AcquScalerScalar</text>
</a>
</g>
</g>
<!-- Node4&#45;&gt;Node2 -->
<g id="edge2" class="edge"><title>Node4&#45;&gt;Node2</title>
<path fill="none" stroke="#9a32cd" stroke-dasharray="5,2" d="M541.108,-17.76C565.743,-18.9448 592.451,-20.7499 617,-23.5 622.808,-24.1506 628.819,-24.9511 634.836,-25.8408"/>
<polygon fill="#9a32cd" stroke="#9a32cd" points="541.202,-14.2608 531.054,-17.3048 540.886,-21.2537 541.202,-14.2608"/>
<text text-anchor="middle" x="583" y="-37.5" font-family="Helvetica,sans-Serif" font-size="10.00"> PairSpecGate</text>
<text text-anchor="middle" x="583" y="-26.5" font-family="Helvetica,sans-Serif" font-size="10.00">IonChamber</text>
</g>
<!-- Node5&#45;&gt;Node4 -->
<g id="edge3" class="edge"><title>Node5&#45;&gt;Node4</title>
<path fill="none" stroke="midnightblue" d="M344.061,-15.5C353.006,-15.5 362.043,-15.5 370.87,-15.5"/>
<polygon fill="midnightblue" stroke="midnightblue" points="344.017,-12.0001 334.017,-15.5 344.017,-19.0001 344.017,-12.0001"/>
</g>
</g>
</svg>
