<?xml version="1.0" encoding="UTF-8" standalone="no"?>
<!DOCTYPE svg PUBLIC "-//W3C//DTD SVG 1.1//EN"
 "http://www.w3.org/Graphics/SVG/1.1/DTD/svg11.dtd">
<!-- Generated by graphviz version 2.38.0 (20140413.2041)
 -->
<!-- Title: McAction Pages: 1 -->
<svg width="164pt" height="84pt"
 viewBox="0.00 0.00 163.50 84.00" xmlns="http://www.w3.org/2000/svg" xmlns:xlink="http://www.w3.org/1999/xlink">
<g id="graph0" class="graph" transform="scale(1 1) rotate(0) translate(4 80)">
<title>McAction</title>
<polygon fill="white" stroke="none" points="-4,4 -4,-80 159.5,-80 159.5,4 -4,4"/>
<!-- Node0 -->
<g id="node1" class="node"><title>Node0</title>
<polygon fill="#bfbfbf" stroke="black" points="46,-56.5 46,-75.5 106,-75.5 106,-56.5 46,-56.5"/>
<text text-anchor="middle" x="76" y="-63.5" font-family="Helvetica,sans-Serif" font-size="10.00">McAction</text>
</g>
<!-- Node1 -->
<g id="node2" class="node"><title>Node1</title>
<g id="a_node2"><a xlink:href="struct_gun_action.html" target="_top" xlink:title="GunAction">
<polygon fill="white" stroke="black" points="0,-0.5 0,-19.5 66,-19.5 66,-0.5 0,-0.5"/>
<text text-anchor="middle" x="33" y="-7.5" font-family="Helvetica,sans-Serif" font-size="10.00">GunAction</text>
</a>
</g>
</g>
<!-- Node0&#45;&gt;Node1 -->
<g id="edge1" class="edge"><title>Node0&#45;&gt;Node1</title>
<path fill="none" stroke="midnightblue" d="M62.5776,-48.144C55.0858,-38.7357 46.0629,-27.4046 39.9685,-19.7511"/>
<polygon fill="midnightblue" stroke="midnightblue" points="59.9321,-50.4404 68.8994,-56.083 65.4081,-46.0799 59.9321,-50.4404"/>
</g>
<!-- Node2 -->
<g id="node3" class="node"><title>Node2</title>
<g id="a_node3"><a xlink:href="struct_pluto_action.html" target="_top" xlink:title="PlutoAction">
<polygon fill="white" stroke="black" points="84.5,-0.5 84.5,-19.5 155.5,-19.5 155.5,-0.5 84.5,-0.5"/>
<text text-anchor="middle" x="120" y="-7.5" font-family="Helvetica,sans-Serif" font-size="10.00">PlutoAction</text>
</a>
</g>
</g>
<!-- Node0&#45;&gt;Node2 -->
<g id="edge2" class="edge"><title>Node0&#45;&gt;Node2</title>
<path fill="none" stroke="midnightblue" d="M89.7345,-48.144C97.4005,-38.7357 106.633,-27.4046 112.869,-19.7511"/>
<polygon fill="midnightblue" stroke="midnightblue" points="86.8691,-46.1198 83.2657,-56.083 92.2958,-50.5415 86.8691,-46.1198"/>
</g>
</g>
</svg>
