<?xml version="1.0" encoding="UTF-8" standalone="no"?>
<!DOCTYPE svg PUBLIC "-//W3C//DTD SVG 1.1//EN"
 "http://www.w3.org/Graphics/SVG/1.1/DTD/svg11.dtd">
<!-- Generated by graphviz version 2.38.0 (20140413.2041)
 -->
<!-- Title: ant::UnpackerAcquConfig::scaler_mapping_t::entry_t Pages: 1 -->
<svg width="180pt" height="117pt"
 viewBox="0.00 0.00 180.00 117.00" xmlns="http://www.w3.org/2000/svg" xmlns:xlink="http://www.w3.org/1999/xlink">
<g id="graph0" class="graph" transform="scale(1 1) rotate(0) translate(4 113)">
<title>ant::UnpackerAcquConfig::scaler_mapping_t::entry_t</title>
<polygon fill="white" stroke="none" points="-4,4 -4,-113 176,-113 176,4 -4,4"/>
<!-- Node1 -->
<g id="node1" class="node"><title>Node1</title>
<polygon fill="#bfbfbf" stroke="black" points="12.5,-0.5 12.5,-30.5 159.5,-30.5 159.5,-0.5 12.5,-0.5"/>
<text text-anchor="start" x="20.5" y="-18.5" font-family="Helvetica,sans-Serif" font-size="10.00">ant::UnpackerAcquConfig</text>
<text text-anchor="middle" x="86" y="-7.5" font-family="Helvetica,sans-Serif" font-size="10.00">::scaler_mapping_t::entry_t</text>
</g>
<!-- Node2 -->
<g id="node2" class="node"><title>Node2</title>
<g id="a_node2"><a xlink:href="structant_1_1_unpacker_acqu_config_1_1_raw_channel__t.html" target="_top" xlink:title="ant::UnpackerAcquConfig\l::RawChannel_t\&lt; std::uint32_t \&gt;">
<polygon fill="white" stroke="black" points="0,-78.5 0,-108.5 172,-108.5 172,-78.5 0,-78.5"/>
<text text-anchor="start" x="8" y="-96.5" font-family="Helvetica,sans-Serif" font-size="10.00">ant::UnpackerAcquConfig</text>
<text text-anchor="middle" x="86" y="-85.5" font-family="Helvetica,sans-Serif" font-size="10.00">::RawChannel_t&lt; std::uint32_t &gt;</text>
</a>
</g>
</g>
<!-- Node2&#45;&gt;Node1 -->
<g id="edge1" class="edge"><title>Node2&#45;&gt;Node1</title>
<path fill="none" stroke="#9a32cd" stroke-dasharray="5,2" d="M86,-68.0898C86,-55.7565 86,-41.2237 86,-30.7309"/>
<polygon fill="#9a32cd" stroke="#9a32cd" points="82.5001,-68.2049 86,-78.205 89.5001,-68.205 82.5001,-68.2049"/>
<text text-anchor="middle" x="116.5" y="-52" font-family="Helvetica,sans-Serif" font-size="10.00"> RawChannel</text>
</g>
</g>
</svg>
