<?xml version="1.0" encoding="UTF-8" standalone="no"?>
<!DOCTYPE svg PUBLIC "-//W3C//DTD SVG 1.1//EN"
 "http://www.w3.org/Graphics/SVG/1.1/DTD/svg11.dtd">
<!-- Generated by graphviz version 2.38.0 (20140413.2041)
 -->
<!-- Title: FileInfo_t Pages: 1 -->
<svg width="311pt" height="274pt"
 viewBox="0.00 0.00 310.50 274.00" xmlns="http://www.w3.org/2000/svg" xmlns:xlink="http://www.w3.org/1999/xlink">
<g id="graph0" class="graph" transform="scale(1 1) rotate(0) translate(4 270)">
<title>FileInfo_t</title>
<polygon fill="white" stroke="none" points="-4,4 -4,-270 306.5,-270 306.5,4 -4,4"/>
<!-- Node1 -->
<g id="node1" class="node"><title>Node1</title>
<polygon fill="#bfbfbf" stroke="black" points="159.5,-0.5 159.5,-19.5 217.5,-19.5 217.5,-0.5 159.5,-0.5"/>
<text text-anchor="middle" x="188.5" y="-7.5" font-family="Helvetica,sans-Serif" font-size="10.00">FileInfo_t</text>
</g>
<!-- Node2 -->
<g id="node2" class="node"><title>Node2</title>
<g id="a_node2"><a xlink:href="structant_1_1_t_ant_header.html" target="_top" xlink:title="The TAntHeader class holds information about the histogram file. ">
<polygon fill="white" stroke="black" points="65,-67.5 65,-86.5 160,-86.5 160,-67.5 65,-67.5"/>
<text text-anchor="middle" x="112.5" y="-74.5" font-family="Helvetica,sans-Serif" font-size="10.00">ant::TAntHeader</text>
</a>
</g>
</g>
<!-- Node2&#45;&gt;Node1 -->
<g id="edge1" class="edge"><title>Node2&#45;&gt;Node1</title>
<path fill="none" stroke="#9a32cd" stroke-dasharray="5,2" d="M130.374,-60.7134C145.347,-47.907 166.181,-30.0884 178.413,-19.6273"/>
<polygon fill="#9a32cd" stroke="#9a32cd" points="128.074,-58.0742 122.75,-67.2338 132.624,-63.394 128.074,-58.0742"/>
<text text-anchor="middle" x="183" y="-41" font-family="Helvetica,sans-Serif" font-size="10.00"> AntHeader</text>
</g>
<!-- Node3 -->
<g id="node3" class="node"><title>Node3</title>
<polygon fill="white" stroke="#bfbfbf" points="0,-178.5 0,-197.5 57,-197.5 57,-178.5 0,-178.5"/>
<text text-anchor="middle" x="28.5" y="-185.5" font-family="Helvetica,sans-Serif" font-size="10.00">TNamed</text>
</g>
<!-- Node3&#45;&gt;Node2 -->
<g id="edge2" class="edge"><title>Node3&#45;&gt;Node2</title>
<path fill="none" stroke="midnightblue" d="M41.2737,-170.425C59.4317,-146.862 92.043,-104.545 105.939,-86.5133"/>
<polygon fill="midnightblue" stroke="midnightblue" points="38.4232,-168.39 35.0913,-178.447 43.9678,-172.663 38.4232,-168.39"/>
</g>
<!-- Node4 -->
<g id="node4" class="node"><title>Node4</title>
<g id="a_node4"><a xlink:href="structant_1_1_t_i_d.html" target="_top" xlink:title="ant::TID">
<polygon fill="white" stroke="black" points="75,-178.5 75,-197.5 128,-197.5 128,-178.5 75,-178.5"/>
<text text-anchor="middle" x="101.5" y="-185.5" font-family="Helvetica,sans-Serif" font-size="10.00">ant::TID</text>
</a>
</g>
</g>
<!-- Node4&#45;&gt;Node2 -->
<g id="edge3" class="edge"><title>Node4&#45;&gt;Node2</title>
<path fill="none" stroke="#9a32cd" stroke-dasharray="5,2" d="M99.9208,-168.178C98.9439,-151.442 98.5328,-126.382 102.5,-105 103.667,-98.7091 106.167,-91.9591 108.375,-86.7818"/>
<polygon fill="#9a32cd" stroke="#9a32cd" points="96.4391,-168.561 100.641,-178.287 103.421,-168.064 96.4391,-168.561"/>
<text text-anchor="middle" x="119.5" y="-135.5" font-family="Helvetica,sans-Serif" font-size="10.00"> LastID</text>
<text text-anchor="middle" x="119.5" y="-124.5" font-family="Helvetica,sans-Serif" font-size="10.00">FirstID</text>
</g>
<!-- Node5 -->
<g id="node5" class="node"><title>Node5</title>
<g id="a_node5"><a xlink:title="STL class. ">
<polygon fill="white" stroke="#bfbfbf" points="188,-178.5 188,-197.5 253,-197.5 253,-178.5 188,-178.5"/>
<text text-anchor="middle" x="220.5" y="-185.5" font-family="Helvetica,sans-Serif" font-size="10.00">std::string</text>
</a>
</g>
</g>
<!-- Node5&#45;&gt;Node2 -->
<g id="edge4" class="edge"><title>Node5&#45;&gt;Node2</title>
<path fill="none" stroke="#9a32cd" stroke-dasharray="5,2" d="M178.33,-175.58C169.923,-171.734 161.766,-166.661 155.5,-160 137.78,-141.163 149.566,-127.319 136.5,-105 132.571,-98.2886 126.817,-91.7442 121.929,-86.7796"/>
<polygon fill="#9a32cd" stroke="#9a32cd" points="177.258,-178.921 187.841,-179.419 179.878,-172.43 177.258,-178.921"/>
<text text-anchor="middle" x="196" y="-152" font-family="Helvetica,sans-Serif" font-size="10.00"> GitInfoDatabase</text>
<text text-anchor="middle" x="196" y="-141" font-family="Helvetica,sans-Serif" font-size="10.00">GitInfo</text>
<text text-anchor="middle" x="196" y="-130" font-family="Helvetica,sans-Serif" font-size="10.00">CmdLine</text>
<text text-anchor="middle" x="196" y="-119" font-family="Helvetica,sans-Serif" font-size="10.00">WorkingDir</text>
<text text-anchor="middle" x="196" y="-108" font-family="Helvetica,sans-Serif" font-size="10.00">SetupName</text>
</g>
<!-- Node7 -->
<g id="node7" class="node"><title>Node7</title>
<polygon fill="white" stroke="#bfbfbf" points="200.5,-67.5 200.5,-86.5 302.5,-86.5 302.5,-67.5 200.5,-67.5"/>
<text text-anchor="middle" x="251.5" y="-74.5" font-family="Helvetica,sans-Serif" font-size="10.00">std::set&lt; string &gt;</text>
</g>
<!-- Node5&#45;&gt;Node7 -->
<g id="edge7" class="edge"><title>Node5&#45;&gt;Node7</title>
<path fill="none" stroke="#9a32cd" stroke-dasharray="5,2" d="M235.013,-170.047C237.148,-166.87 239.098,-163.456 240.5,-160 250.653,-134.978 251.826,-102.484 251.733,-86.9868"/>
<polygon fill="#9a32cd" stroke="#9a32cd" points="232.069,-168.136 228.799,-178.214 237.64,-172.374 232.069,-168.136"/>
<text text-anchor="middle" x="263" y="-130" font-family="Helvetica,sans-Serif" font-size="10.00"> keys</text>
</g>
<!-- Node6 -->
<g id="node6" class="node"><title>Node6</title>
<g id="a_node6"><a xlink:title="STL class. ">
<polygon fill="white" stroke="#bfbfbf" points="169,-235.5 169,-265.5 272,-265.5 272,-235.5 169,-235.5"/>
<text text-anchor="start" x="177" y="-253.5" font-family="Helvetica,sans-Serif" font-size="10.00">std::basic_string&lt;</text>
<text text-anchor="middle" x="220.5" y="-242.5" font-family="Helvetica,sans-Serif" font-size="10.00"> char &gt;</text>
</a>
</g>
</g>
<!-- Node6&#45;&gt;Node5 -->
<g id="edge5" class="edge"><title>Node6&#45;&gt;Node5</title>
<path fill="none" stroke="midnightblue" d="M220.5,-225.352C220.5,-215.513 220.5,-204.775 220.5,-197.54"/>
<polygon fill="midnightblue" stroke="midnightblue" points="217,-225.468 220.5,-235.468 224,-225.468 217,-225.468"/>
</g>
<!-- Node7&#45;&gt;Node1 -->
<g id="edge6" class="edge"><title>Node7&#45;&gt;Node1</title>
<path fill="none" stroke="#9a32cd" stroke-dasharray="5,2" d="M235.989,-59.9968C223.634,-47.2496 206.813,-29.8947 196.862,-19.6273"/>
<polygon fill="#9a32cd" stroke="#9a32cd" points="233.531,-62.489 243.004,-67.2338 238.557,-57.6172 233.531,-62.489"/>
<text text-anchor="middle" x="252.5" y="-41" font-family="Helvetica,sans-Serif" font-size="10.00"> TreeNames</text>
</g>
</g>
</svg>
