<?xml version="1.0" encoding="UTF-8" standalone="no"?>
<!DOCTYPE svg PUBLIC "-//W3C//DTD SVG 1.1//EN"
 "http://www.w3.org/Graphics/SVG/1.1/DTD/svg11.dtd">
<!-- Generated by graphviz version 2.38.0 (20140413.2041)
 -->
<!-- Title: Hist_t&lt; Tree_t &gt;::HistMgr&lt; Hist &gt; Pages: 1 -->
<svg width="146pt" height="106pt"
 viewBox="0.00 0.00 146.00 106.00" xmlns="http://www.w3.org/2000/svg" xmlns:xlink="http://www.w3.org/1999/xlink">
<g id="graph0" class="graph" transform="scale(1 1) rotate(0) translate(4 102)">
<title>Hist_t&lt; Tree_t &gt;::HistMgr&lt; Hist &gt;</title>
<polygon fill="white" stroke="none" points="-4,4 -4,-102 142,-102 142,4 -4,4"/>
<!-- Node0 -->
<g id="node1" class="node"><title>Node0</title>
<polygon fill="#bfbfbf" stroke="black" points="0,-0.5 0,-30.5 138,-30.5 138,-0.5 0,-0.5"/>
<text text-anchor="start" x="8" y="-18.5" font-family="Helvetica,sans-Serif" font-size="10.00">Hist_t&lt; Tree_t &gt;::HistMgr</text>
<text text-anchor="middle" x="69" y="-7.5" font-family="Helvetica,sans-Serif" font-size="10.00">&lt; Hist &gt;</text>
</g>
<!-- Node1 -->
<g id="node2" class="node"><title>Node1</title>
<g id="a_node2"><a xlink:title="STL class. ">
<polygon fill="white" stroke="#bfbfbf" points="18,-67.5 18,-97.5 120,-97.5 120,-67.5 18,-67.5"/>
<text text-anchor="start" x="26" y="-85.5" font-family="Helvetica,sans-Serif" font-size="10.00">std::list&lt; HistFiller</text>
<text text-anchor="middle" x="69" y="-74.5" font-family="Helvetica,sans-Serif" font-size="10.00">_t&lt; Hist &gt; &gt;</text>
</a>
</g>
</g>
<!-- Node1&#45;&gt;Node0 -->
<g id="edge1" class="edge"><title>Node1&#45;&gt;Node0</title>
<path fill="none" stroke="midnightblue" d="M62.4547,-57.4029C62.0055,-48.3703 62.2957,-38.4078 63.3252,-30.5765"/>
<polygon fill="midnightblue" stroke="midnightblue" points="58.9703,-57.7359 63.3216,-67.396 65.9441,-57.1309 58.9703,-57.7359"/>
</g>
<!-- Node1&#45;&gt;Node0 -->
<g id="edge2" class="edge"><title>Node1&#45;&gt;Node0</title>
<path fill="none" stroke="midnightblue" d="M75.5453,-57.4029C75.9945,-48.3703 75.7043,-38.4078 74.6748,-30.5765"/>
<polygon fill="midnightblue" stroke="midnightblue" points="72.0559,-57.1309 74.6784,-67.396 79.0297,-57.7359 72.0559,-57.1309"/>
</g>
</g>
</svg>
