<?xml version="1.0" encoding="UTF-8" standalone="no"?>
<!DOCTYPE svg PUBLIC "-//W3C//DTD SVG 1.1//EN"
 "http://www.w3.org/Graphics/SVG/1.1/DTD/svg11.dtd">
<!-- Generated by graphviz version 2.38.0 (20140413.2041)
 -->
<!-- Title: ant::analysis::utils::ProtonPhotonCombs::Combinations_t Pages: 1 -->
<svg width="136pt" height="174pt"
 viewBox="0.00 0.00 136.00 174.00" xmlns="http://www.w3.org/2000/svg" xmlns:xlink="http://www.w3.org/1999/xlink">
<g id="graph0" class="graph" transform="scale(1 1) rotate(0) translate(4 170)">
<title>ant::analysis::utils::ProtonPhotonCombs::Combinations_t</title>
<polygon fill="white" stroke="none" points="-4,4 -4,-170 132,-170 132,4 -4,4"/>
<!-- Node2 -->
<g id="node1" class="node"><title>Node2</title>
<polygon fill="#bfbfbf" stroke="black" points="0,-0.5 0,-41.5 128,-41.5 128,-0.5 0,-0.5"/>
<text text-anchor="start" x="8" y="-29.5" font-family="Helvetica,sans-Serif" font-size="10.00">ant::analysis::utils</text>
<text text-anchor="start" x="8" y="-18.5" font-family="Helvetica,sans-Serif" font-size="10.00">::ProtonPhotonCombs::</text>
<text text-anchor="middle" x="64" y="-7.5" font-family="Helvetica,sans-Serif" font-size="10.00">Combinations_t</text>
</g>
<!-- Node3 -->
<g id="node2" class="node"><title>Node3</title>
<g id="a_node2"><a xlink:title="STL class. ">
<polygon fill="white" stroke="#bfbfbf" points="9,-79.5 9,-98.5 119,-98.5 119,-79.5 9,-79.5"/>
<text text-anchor="middle" x="64" y="-86.5" font-family="Helvetica,sans-Serif" font-size="10.00">std::list&lt; comb_t &gt;</text>
</a>
</g>
</g>
<!-- Node3&#45;&gt;Node2 -->
<g id="edge1" class="edge"><title>Node3&#45;&gt;Node2</title>
<path fill="none" stroke="midnightblue" d="M64,-69.2462C64,-60.647 64,-50.4506 64,-41.7351"/>
<polygon fill="midnightblue" stroke="midnightblue" points="60.5001,-69.3716 64,-79.3717 67.5001,-69.3717 60.5001,-69.3716"/>
</g>
<!-- Node4 -->
<g id="node3" class="node"><title>Node4</title>
<polygon fill="white" stroke="#bfbfbf" points="49.5,-146.5 49.5,-165.5 78.5,-165.5 78.5,-146.5 49.5,-146.5"/>
<text text-anchor="middle" x="64" y="-153.5" font-family="Helvetica,sans-Serif" font-size="10.00">T</text>
</g>
<!-- Node4&#45;&gt;Node3 -->
<g id="edge2" class="edge"><title>Node4&#45;&gt;Node3</title>
<path fill="none" stroke="#9a32cd" stroke-dasharray="5,2" d="M64,-136.037C64,-123.67 64,-108.12 64,-98.6273"/>
<polygon fill="#9a32cd" stroke="#9a32cd" points="60.5001,-136.234 64,-146.234 67.5001,-136.234 60.5001,-136.234"/>
<text text-anchor="middle" x="88.5" y="-120" font-family="Helvetica,sans-Serif" font-size="10.00"> elements</text>
</g>
</g>
</svg>
