<?xml version="1.0" encoding="UTF-8" standalone="no"?>
<!DOCTYPE svg PUBLIC "-//W3C//DTD SVG 1.1//EN"
 "http://www.w3.org/Graphics/SVG/1.1/DTD/svg11.dtd">
<!-- Generated by graphviz version 2.38.0 (20140413.2041)
 -->
<!-- Title: ant::WrapTTree::Branch_Opt_t&lt; T &gt; Pages: 1 -->
<svg width="134pt" height="242pt"
 viewBox="0.00 0.00 134.00 242.00" xmlns="http://www.w3.org/2000/svg" xmlns:xlink="http://www.w3.org/1999/xlink">
<g id="graph0" class="graph" transform="scale(1 1) rotate(0) translate(4 238)">
<title>ant::WrapTTree::Branch_Opt_t&lt; T &gt;</title>
<polygon fill="white" stroke="none" points="-4,4 -4,-238 130,-238 130,4 -4,4"/>
<!-- Node2 -->
<g id="node1" class="node"><title>Node2</title>
<polygon fill="#bfbfbf" stroke="black" points="0,-0.5 0,-30.5 126,-30.5 126,-0.5 0,-0.5"/>
<text text-anchor="start" x="8" y="-18.5" font-family="Helvetica,sans-Serif" font-size="10.00">ant::WrapTTree::Branch</text>
<text text-anchor="middle" x="63" y="-7.5" font-family="Helvetica,sans-Serif" font-size="10.00">_Opt_t&lt; T &gt;</text>
</g>
<!-- Node3 -->
<g id="node2" class="node"><title>Node3</title>
<g id="a_node2"><a xlink:href="structant_1_1_wrap_t_tree_1_1_branch__t.html" target="_top" xlink:title="ant::WrapTTree::Branch\l_t\&lt; T \&gt;">
<polygon fill="white" stroke="black" points="0,-68.5 0,-98.5 126,-98.5 126,-68.5 0,-68.5"/>
<text text-anchor="start" x="8" y="-86.5" font-family="Helvetica,sans-Serif" font-size="10.00">ant::WrapTTree::Branch</text>
<text text-anchor="middle" x="63" y="-75.5" font-family="Helvetica,sans-Serif" font-size="10.00">_t&lt; T &gt;</text>
</a>
</g>
</g>
<!-- Node3&#45;&gt;Node2 -->
<g id="edge1" class="edge"><title>Node3&#45;&gt;Node2</title>
<path fill="none" stroke="midnightblue" d="M63,-58.0322C63,-48.8606 63,-38.7449 63,-30.7931"/>
<polygon fill="midnightblue" stroke="midnightblue" points="59.5001,-58.1789 63,-68.179 66.5001,-58.179 59.5001,-58.1789"/>
</g>
<!-- Node4 -->
<g id="node3" class="node"><title>Node4</title>
<g id="a_node3"><a xlink:title="STL class. ">
<polygon fill="white" stroke="#bfbfbf" points="30.5,-146.5 30.5,-165.5 95.5,-165.5 95.5,-146.5 30.5,-146.5"/>
<text text-anchor="middle" x="63" y="-153.5" font-family="Helvetica,sans-Serif" font-size="10.00">std::string</text>
</a>
</g>
</g>
<!-- Node4&#45;&gt;Node3 -->
<g id="edge2" class="edge"><title>Node4&#45;&gt;Node3</title>
<path fill="none" stroke="#9a32cd" stroke-dasharray="5,2" d="M63,-136.236C63,-124.408 63,-109.383 63,-98.5762"/>
<polygon fill="#9a32cd" stroke="#9a32cd" points="59.5001,-136.355 63,-146.355 66.5001,-136.355 59.5001,-136.355"/>
<text text-anchor="middle" x="79.5" y="-120" font-family="Helvetica,sans-Serif" font-size="10.00"> Name</text>
</g>
<!-- Node5 -->
<g id="node4" class="node"><title>Node5</title>
<g id="a_node4"><a xlink:title="STL class. ">
<polygon fill="white" stroke="#bfbfbf" points="11.5,-203.5 11.5,-233.5 114.5,-233.5 114.5,-203.5 11.5,-203.5"/>
<text text-anchor="start" x="19.5" y="-221.5" font-family="Helvetica,sans-Serif" font-size="10.00">std::basic_string&lt;</text>
<text text-anchor="middle" x="63" y="-210.5" font-family="Helvetica,sans-Serif" font-size="10.00"> char &gt;</text>
</a>
</g>
</g>
<!-- Node5&#45;&gt;Node4 -->
<g id="edge3" class="edge"><title>Node5&#45;&gt;Node4</title>
<path fill="none" stroke="midnightblue" d="M63,-193.352C63,-183.513 63,-172.775 63,-165.54"/>
<polygon fill="midnightblue" stroke="midnightblue" points="59.5001,-193.468 63,-203.468 66.5001,-193.468 59.5001,-193.468"/>
</g>
</g>
</svg>
