<?xml version="1.0" encoding="UTF-8" standalone="no"?>
<!DOCTYPE svg PUBLIC "-//W3C//DTD SVG 1.1//EN"
 "http://www.w3.org/Graphics/SVG/1.1/DTD/svg11.dtd">
<!-- Generated by graphviz version 2.38.0 (20140413.2041)
 -->
<!-- Title: RefHist_t Pages: 1 -->
<svg width="781pt" height="351pt"
 viewBox="0.00 0.00 781.00 350.50" xmlns="http://www.w3.org/2000/svg" xmlns:xlink="http://www.w3.org/1999/xlink">
<g id="graph0" class="graph" transform="scale(1 1) rotate(0) translate(4 346.5)">
<title>RefHist_t</title>
<polygon fill="white" stroke="none" points="-4,4 -4,-346.5 777,-346.5 777,4 -4,4"/>
<!-- Node3 -->
<g id="node1" class="node"><title>Node3</title>
<polygon fill="#bfbfbf" stroke="black" points="714,-46.5 714,-65.5 773,-65.5 773,-46.5 714,-46.5"/>
<text text-anchor="middle" x="743.5" y="-53.5" font-family="Helvetica,sans-Serif" font-size="10.00">RefHist_t</text>
</g>
<!-- Node4 -->
<g id="node2" class="node"><title>Node4</title>
<g id="a_node2"><a xlink:href="struct_common_hist__t.html" target="_top" xlink:title="CommonHist_t">
<polygon fill="white" stroke="black" points="559.5,-0.5 559.5,-19.5 648.5,-19.5 648.5,-0.5 559.5,-0.5"/>
<text text-anchor="middle" x="604" y="-7.5" font-family="Helvetica,sans-Serif" font-size="10.00">CommonHist_t</text>
</a>
</g>
</g>
<!-- Node4&#45;&gt;Node3 -->
<g id="edge1" class="edge"><title>Node4&#45;&gt;Node3</title>
<path fill="none" stroke="midnightblue" d="M643.387,-22.7778C654.255,-26.4001 666.094,-30.3508 677,-34 689.172,-38.0729 702.612,-42.5844 714.133,-46.4564"/>
<polygon fill="midnightblue" stroke="midnightblue" points="644.328,-19.4021 633.734,-19.5614 642.115,-26.0431 644.328,-19.4021"/>
</g>
<!-- Node5 -->
<g id="node3" class="node"><title>Node5</title>
<g id="a_node3"><a xlink:href="classant_1_1_bin_settings.html" target="_top" xlink:title="ant::BinSettings">
<polygon fill="white" stroke="black" points="301.5,-46.5 301.5,-65.5 394.5,-65.5 394.5,-46.5 301.5,-46.5"/>
<text text-anchor="middle" x="348" y="-53.5" font-family="Helvetica,sans-Serif" font-size="10.00">ant::BinSettings</text>
</a>
</g>
</g>
<!-- Node5&#45;&gt;Node3 -->
<g id="edge15" class="edge"><title>Node5&#45;&gt;Node3</title>
<path fill="none" stroke="#9a32cd" stroke-dasharray="5,2" d="M404.777,-56C489.911,-56 649.203,-56 713.994,-56"/>
<polygon fill="#9a32cd" stroke="#9a32cd" points="404.524,-52.5001 394.524,-56 404.524,-59.5001 404.524,-52.5001"/>
<text text-anchor="middle" x="604" y="-114" font-family="Helvetica,sans-Serif" font-size="10.00"> etapBins</text>
<text text-anchor="middle" x="604" y="-103" font-family="Helvetica,sans-Serif" font-size="10.00">Chi2Bins</text>
<text text-anchor="middle" x="604" y="-92" font-family="Helvetica,sans-Serif" font-size="10.00">zVertex</text>
<text text-anchor="middle" x="604" y="-81" font-family="Helvetica,sans-Serif" font-size="10.00">TaggChBins</text>
<text text-anchor="middle" x="604" y="-70" font-family="Helvetica,sans-Serif" font-size="10.00">probbins</text>
<text text-anchor="middle" x="604" y="-59" font-family="Helvetica,sans-Serif" font-size="10.00">IMbins</text>
</g>
<!-- Node5&#45;&gt;Node4 -->
<g id="edge2" class="edge"><title>Node5&#45;&gt;Node4</title>
<path fill="none" stroke="#9a32cd" stroke-dasharray="5,2" d="M375.941,-41.9516C392.509,-34.0217 414.439,-24.7698 435,-20 476.413,-10.3931 525.02,-8.47619 559.267,-8.61129"/>
<polygon fill="#9a32cd" stroke="#9a32cd" points="374.282,-38.8671 366.856,-46.424 377.374,-45.1473 374.282,-38.8671"/>
<text text-anchor="middle" x="474" y="-34" font-family="Helvetica,sans-Serif" font-size="10.00"> bins_LogFitProb</text>
<text text-anchor="middle" x="474" y="-23" font-family="Helvetica,sans-Serif" font-size="10.00">bins_FitProb</text>
</g>
<!-- Node7 -->
<g id="node5" class="node"><title>Node7</title>
<g id="a_node5"><a xlink:href="struct_hist__t.html" target="_top" xlink:title="Hist_t\&lt; physics::EtapDalitz\l::RefTree_t \&gt;">
<polygon fill="white" stroke="black" points="531,-218 531,-248 677,-248 677,-218 531,-218"/>
<text text-anchor="start" x="539" y="-236" font-family="Helvetica,sans-Serif" font-size="10.00">Hist_t&lt; physics::EtapDalitz</text>
<text text-anchor="middle" x="604" y="-225" font-family="Helvetica,sans-Serif" font-size="10.00">::RefTree_t &gt;</text>
</a>
</g>
</g>
<!-- Node5&#45;&gt;Node7 -->
<g id="edge14" class="edge"><title>Node5&#45;&gt;Node7</title>
<path fill="none" stroke="#9a32cd" stroke-dasharray="5,2" d="M404.862,-63.2379C438.654,-69.7914 481.205,-82.1008 513,-105 523.967,-112.898 572.267,-185.863 593.232,-217.963"/>
<polygon fill="#9a32cd" stroke="#9a32cd" points="405.143,-59.7316 394.678,-61.3835 403.889,-66.6184 405.143,-59.7316"/>
<text text-anchor="middle" x="474" y="-218" font-family="Helvetica,sans-Serif" font-size="10.00"> vetoEbins</text>
<text text-anchor="middle" x="474" y="-207" font-family="Helvetica,sans-Serif" font-size="10.00">TaggTime</text>
<text text-anchor="middle" x="474" y="-196" font-family="Helvetica,sans-Serif" font-size="10.00">pEbins</text>
<text text-anchor="middle" x="474" y="-185" font-family="Helvetica,sans-Serif" font-size="10.00">Chi2Bins</text>
<text text-anchor="middle" x="474" y="-174" font-family="Helvetica,sans-Serif" font-size="10.00">pThetaBins</text>
<text text-anchor="middle" x="474" y="-163" font-family="Helvetica,sans-Serif" font-size="10.00">CoplBins</text>
<text text-anchor="middle" x="474" y="-152" font-family="Helvetica,sans-Serif" font-size="10.00">MMbins</text>
<text text-anchor="middle" x="474" y="-141" font-family="Helvetica,sans-Serif" font-size="10.00">zVertex</text>
<text text-anchor="middle" x="474" y="-130" font-family="Helvetica,sans-Serif" font-size="10.00">TaggChBins</text>
<text text-anchor="middle" x="474" y="-119" font-family="Helvetica,sans-Serif" font-size="10.00">PSARBins</text>
<text text-anchor="middle" x="474" y="-108" font-family="Helvetica,sans-Serif" font-size="10.00">...</text>
</g>
<!-- Node6 -->
<g id="node4" class="node"><title>Node6</title>
<g id="a_node4"><a xlink:href="classant_1_1interval.html" target="_top" xlink:title="ant::interval\&lt; double \&gt;">
<polygon fill="white" stroke="black" points="114,-46.5 114,-65.5 242,-65.5 242,-46.5 114,-46.5"/>
<text text-anchor="middle" x="178" y="-53.5" font-family="Helvetica,sans-Serif" font-size="10.00">ant::interval&lt; double &gt;</text>
</a>
</g>
</g>
<!-- Node6&#45;&gt;Node5 -->
<g id="edge3" class="edge"><title>Node6&#45;&gt;Node5</title>
<path fill="none" stroke="midnightblue" d="M252.335,-56C269.034,-56 286.305,-56 301.45,-56"/>
<polygon fill="midnightblue" stroke="midnightblue" points="252.035,-52.5001 242.035,-56 252.035,-59.5001 252.035,-52.5001"/>
</g>
<!-- Node7&#45;&gt;Node3 -->
<g id="edge4" class="edge"><title>Node7&#45;&gt;Node3</title>
<path fill="none" stroke="midnightblue" d="M623.105,-209.695C653.623,-170.409 714.036,-92.6406 735.071,-65.5633"/>
<polygon fill="midnightblue" stroke="midnightblue" points="620.094,-207.865 616.723,-217.909 625.622,-212.159 620.094,-207.865"/>
</g>
<!-- Node8 -->
<g id="node6" class="node"><title>Node8</title>
<g id="a_node6"><a xlink:href="struct_hist__t_1_1_hist_mgr.html" target="_top" xlink:title="Hist_t\&lt; Tree_t \&gt;::HistMgr\l\&lt; TH1D \&gt;">
<polygon fill="white" stroke="black" points="279,-312 279,-342 417,-342 417,-312 279,-312"/>
<text text-anchor="start" x="287" y="-330" font-family="Helvetica,sans-Serif" font-size="10.00">Hist_t&lt; Tree_t &gt;::HistMgr</text>
<text text-anchor="middle" x="348" y="-319" font-family="Helvetica,sans-Serif" font-size="10.00">&lt; TH1D &gt;</text>
</a>
</g>
</g>
<!-- Node8&#45;&gt;Node7 -->
<g id="edge5" class="edge"><title>Node8&#45;&gt;Node7</title>
<path fill="none" stroke="#9a32cd" stroke-dasharray="5,2" d="M416.25,-309.111C446.24,-300.468 481.774,-289.303 513,-277 534.36,-268.584 557.62,-257.149 575.143,-248.046"/>
<polygon fill="#9a32cd" stroke="#9a32cd" points="414.965,-305.838 406.307,-311.943 416.883,-312.57 414.965,-305.838"/>
<text text-anchor="middle" x="474" y="-305" font-family="Helvetica,sans-Serif" font-size="10.00"> h1</text>
</g>
<!-- Node9 -->
<g id="node7" class="node"><title>Node9</title>
<g id="a_node7"><a xlink:title="STL class. ">
<polygon fill="white" stroke="#bfbfbf" points="127,-312 127,-342 229,-342 229,-312 127,-312"/>
<text text-anchor="start" x="135" y="-330" font-family="Helvetica,sans-Serif" font-size="10.00">std::list&lt; HistFiller</text>
<text text-anchor="middle" x="178" y="-319" font-family="Helvetica,sans-Serif" font-size="10.00">_t&lt; TH1D &gt; &gt;</text>
</a>
</g>
</g>
<!-- Node9&#45;&gt;Node8 -->
<g id="edge6" class="edge"><title>Node9&#45;&gt;Node8</title>
<path fill="none" stroke="midnightblue" d="M239.473,-320.491C252.27,-320.222 265.859,-320.178 278.916,-320.359"/>
<polygon fill="midnightblue" stroke="midnightblue" points="239.31,-316.994 229.406,-320.755 239.494,-323.992 239.31,-316.994"/>
</g>
<!-- Node9&#45;&gt;Node8 -->
<g id="edge8" class="edge"><title>Node9&#45;&gt;Node8</title>
<path fill="none" stroke="midnightblue" d="M239.473,-333.509C252.27,-333.778 265.859,-333.822 278.916,-333.641"/>
<polygon fill="midnightblue" stroke="midnightblue" points="239.494,-330.008 229.406,-333.245 239.31,-337.006 239.494,-330.008"/>
</g>
<!-- Node10 -->
<g id="node8" class="node"><title>Node10</title>
<polygon fill="white" stroke="#bfbfbf" points="0,-294.5 0,-313.5 29,-313.5 29,-294.5 0,-294.5"/>
<text text-anchor="middle" x="14.5" y="-301.5" font-family="Helvetica,sans-Serif" font-size="10.00">T</text>
</g>
<!-- Node10&#45;&gt;Node9 -->
<g id="edge7" class="edge"><title>Node10&#45;&gt;Node9</title>
<path fill="none" stroke="#9a32cd" stroke-dasharray="5,2" d="M39.4341,-307.409C62.3259,-310.669 97.5663,-315.687 126.648,-319.829"/>
<polygon fill="#9a32cd" stroke="#9a32cd" points="39.663,-303.906 29.2694,-305.961 38.676,-310.836 39.663,-303.906"/>
<text text-anchor="middle" x="71.5" y="-317" font-family="Helvetica,sans-Serif" font-size="10.00"> elements</text>
</g>
<!-- Node12 -->
<g id="node10" class="node"><title>Node12</title>
<g id="a_node10"><a xlink:title="STL class. ">
<polygon fill="white" stroke="#bfbfbf" points="127,-263 127,-293 229,-293 229,-263 127,-263"/>
<text text-anchor="start" x="135" y="-281" font-family="Helvetica,sans-Serif" font-size="10.00">std::list&lt; HistFiller</text>
<text text-anchor="middle" x="178" y="-270" font-family="Helvetica,sans-Serif" font-size="10.00">_t&lt; TH2D &gt; &gt;</text>
</a>
</g>
</g>
<!-- Node10&#45;&gt;Node12 -->
<g id="edge11" class="edge"><title>Node10&#45;&gt;Node12</title>
<path fill="none" stroke="#9a32cd" stroke-dasharray="5,2" d="M38.7203,-295.248C41.485,-294.398 44.2881,-293.622 47,-293 73.0197,-287.033 102.541,-283.384 126.868,-281.181"/>
<polygon fill="#9a32cd" stroke="#9a32cd" points="37.4516,-291.982 29.1064,-298.51 39.7007,-298.611 37.4516,-291.982"/>
<text text-anchor="middle" x="71.5" y="-296" font-family="Helvetica,sans-Serif" font-size="10.00"> elements</text>
</g>
<!-- Node11 -->
<g id="node9" class="node"><title>Node11</title>
<g id="a_node9"><a xlink:href="struct_hist__t_1_1_hist_mgr.html" target="_top" xlink:title="Hist_t\&lt; Tree_t \&gt;::HistMgr\l\&lt; TH2D \&gt;">
<polygon fill="white" stroke="black" points="279,-263 279,-293 417,-293 417,-263 279,-263"/>
<text text-anchor="start" x="287" y="-281" font-family="Helvetica,sans-Serif" font-size="10.00">Hist_t&lt; Tree_t &gt;::HistMgr</text>
<text text-anchor="middle" x="348" y="-270" font-family="Helvetica,sans-Serif" font-size="10.00">&lt; TH2D &gt;</text>
</a>
</g>
</g>
<!-- Node11&#45;&gt;Node7 -->
<g id="edge9" class="edge"><title>Node11&#45;&gt;Node7</title>
<path fill="none" stroke="#9a32cd" stroke-dasharray="5,2" d="M427.137,-264.157C460.159,-258.306 498.383,-251.535 530.742,-245.802"/>
<polygon fill="#9a32cd" stroke="#9a32cd" points="426.303,-260.75 417.067,-265.941 427.525,-267.643 426.303,-260.75"/>
<text text-anchor="middle" x="474" y="-265" font-family="Helvetica,sans-Serif" font-size="10.00"> h2</text>
</g>
<!-- Node12&#45;&gt;Node11 -->
<g id="edge10" class="edge"><title>Node12&#45;&gt;Node11</title>
<path fill="none" stroke="midnightblue" d="M239.473,-271.491C252.27,-271.222 265.859,-271.178 278.916,-271.359"/>
<polygon fill="midnightblue" stroke="midnightblue" points="239.31,-267.994 229.406,-271.755 239.494,-274.992 239.31,-267.994"/>
</g>
<!-- Node12&#45;&gt;Node11 -->
<g id="edge12" class="edge"><title>Node12&#45;&gt;Node11</title>
<path fill="none" stroke="midnightblue" d="M239.473,-284.509C252.27,-284.778 265.859,-284.822 278.916,-284.641"/>
<polygon fill="midnightblue" stroke="midnightblue" points="239.494,-281.008 229.406,-284.245 239.31,-288.006 239.494,-281.008"/>
</g>
<!-- Node13 -->
<g id="node11" class="node"><title>Node13</title>
<g id="a_node11"><a xlink:href="classant_1_1analysis_1_1_histogram_factory.html" target="_top" xlink:title="ant::analysis::Histogram\lFactory">
<polygon fill="white" stroke="black" points="281.5,-214 281.5,-244 414.5,-244 414.5,-214 281.5,-214"/>
<text text-anchor="start" x="289.5" y="-232" font-family="Helvetica,sans-Serif" font-size="10.00">ant::analysis::Histogram</text>
<text text-anchor="middle" x="348" y="-221" font-family="Helvetica,sans-Serif" font-size="10.00">Factory</text>
</a>
</g>
</g>
<!-- Node13&#45;&gt;Node7 -->
<g id="edge13" class="edge"><title>Node13&#45;&gt;Node7</title>
<path fill="none" stroke="#9a32cd" stroke-dasharray="5,2" d="M424.955,-230.196C458.498,-230.724 497.74,-231.342 530.834,-231.864"/>
<polygon fill="#9a32cd" stroke="#9a32cd" points="424.796,-226.693 414.742,-230.035 424.685,-233.692 424.796,-226.693"/>
<text text-anchor="middle" x="474" y="-234" font-family="Helvetica,sans-Serif" font-size="10.00"> HistFac</text>
</g>
</g>
</svg>
