<?xml version="1.0" encoding="UTF-8" standalone="no"?>
<!DOCTYPE svg PUBLIC "-//W3C//DTD SVG 1.1//EN"
 "http://www.w3.org/Graphics/SVG/1.1/DTD/svg11.dtd">
<!-- Generated by graphviz version 2.38.0 (20140413.2041)
 -->
<!-- Title: sigmaPlus_Plot::MCTrue_Splitter&lt; Hist_t &gt; Pages: 1 -->
<svg width="137pt" height="117pt"
 viewBox="0.00 0.00 137.00 117.00" xmlns="http://www.w3.org/2000/svg" xmlns:xlink="http://www.w3.org/1999/xlink">
<g id="graph0" class="graph" transform="scale(1 1) rotate(0) translate(4 113)">
<title>sigmaPlus_Plot::MCTrue_Splitter&lt; Hist_t &gt;</title>
<polygon fill="white" stroke="none" points="-4,4 -4,-113 133,-113 133,4 -4,4"/>
<!-- Node2 -->
<g id="node1" class="node"><title>Node2</title>
<polygon fill="#bfbfbf" stroke="black" points="0,-0.5 0,-30.5 129,-30.5 129,-0.5 0,-0.5"/>
<text text-anchor="start" x="8" y="-18.5" font-family="Helvetica,sans-Serif" font-size="10.00">sigmaPlus_Plot::MCTrue</text>
<text text-anchor="middle" x="64.5" y="-7.5" font-family="Helvetica,sans-Serif" font-size="10.00">_Splitter&lt; Hist_t &gt;</text>
</g>
<!-- Node3 -->
<g id="node2" class="node"><title>Node3</title>
<g id="a_node2"><a xlink:href="structant_1_1analysis_1_1plot_1_1cuttree_1_1_stacked_hists__t.html" target="_top" xlink:title="ant::analysis::plot\l::cuttree::StackedHists\l_t\&lt; Hist_t \&gt;">
<polygon fill="white" stroke="black" points="1.5,-67.5 1.5,-108.5 127.5,-108.5 127.5,-67.5 1.5,-67.5"/>
<text text-anchor="start" x="9.5" y="-96.5" font-family="Helvetica,sans-Serif" font-size="10.00">ant::analysis::plot</text>
<text text-anchor="start" x="9.5" y="-85.5" font-family="Helvetica,sans-Serif" font-size="10.00">::cuttree::StackedHists</text>
<text text-anchor="middle" x="64.5" y="-74.5" font-family="Helvetica,sans-Serif" font-size="10.00">_t&lt; Hist_t &gt;</text>
</a>
</g>
</g>
<!-- Node3&#45;&gt;Node2 -->
<g id="edge1" class="edge"><title>Node3&#45;&gt;Node2</title>
<path fill="none" stroke="midnightblue" d="M64.5,-57.08C64.5,-48.0061 64.5,-38.4498 64.5,-30.8916"/>
<polygon fill="midnightblue" stroke="midnightblue" points="61.0001,-57.3618 64.5,-67.3618 68.0001,-57.3619 61.0001,-57.3618"/>
</g>
</g>
</svg>
