<?xml version="1.0" encoding="UTF-8" standalone="no"?>
<!DOCTYPE svg PUBLIC "-//W3C//DTD SVG 1.1//EN"
 "http://www.w3.org/Graphics/SVG/1.1/DTD/svg11.dtd">
<!-- Generated by graphviz version 2.38.0 (20140413.2041)
 -->
<!-- Title: ant::TCluster Pages: 1 -->
<svg width="230pt" height="385pt"
 viewBox="0.00 0.00 229.50 385.00" xmlns="http://www.w3.org/2000/svg" xmlns:xlink="http://www.w3.org/1999/xlink">
<g id="graph0" class="graph" transform="scale(1 1) rotate(0) translate(4 381)">
<title>ant::TCluster</title>
<polygon fill="white" stroke="none" points="-4,4 -4,-381 225.5,-381 225.5,4 -4,4"/>
<!-- Node1 -->
<g id="node1" class="node"><title>Node1</title>
<polygon fill="#bfbfbf" stroke="black" points="38,-0.5 38,-19.5 115,-19.5 115,-0.5 38,-0.5"/>
<text text-anchor="middle" x="76.5" y="-7.5" font-family="Helvetica,sans-Serif" font-size="10.00">ant::TCluster</text>
</g>
<!-- Node2 -->
<g id="node2" class="node"><title>Node2</title>
<g id="a_node2"><a xlink:href="structant_1_1vec3.html" target="_top" xlink:title="ant::vec3">
<polygon fill="white" stroke="black" points="0,-67.5 0,-86.5 61,-86.5 61,-67.5 0,-67.5"/>
<text text-anchor="middle" x="30.5" y="-74.5" font-family="Helvetica,sans-Serif" font-size="10.00">ant::vec3</text>
</a>
</g>
</g>
<!-- Node2&#45;&gt;Node1 -->
<g id="edge1" class="edge"><title>Node2&#45;&gt;Node1</title>
<path fill="none" stroke="#9a32cd" stroke-dasharray="5,2" d="M42.5989,-58.9037C51.5376,-46.2729 63.334,-29.6041 70.3945,-19.6273"/>
<polygon fill="#9a32cd" stroke="#9a32cd" points="39.6235,-57.0492 36.7038,-67.2338 45.3375,-61.0929 39.6235,-57.0492"/>
<text text-anchor="middle" x="77" y="-41" font-family="Helvetica,sans-Serif" font-size="10.00"> Position</text>
</g>
<!-- Node3 -->
<g id="node3" class="node"><title>Node3</title>
<polygon fill="white" stroke="#bfbfbf" points="79.5,-67.5 79.5,-86.5 221.5,-86.5 221.5,-67.5 79.5,-67.5"/>
<text text-anchor="middle" x="150.5" y="-74.5" font-family="Helvetica,sans-Serif" font-size="10.00">std::vector&lt; TClusterHit &gt;</text>
</g>
<!-- Node3&#45;&gt;Node1 -->
<g id="edge2" class="edge"><title>Node3&#45;&gt;Node1</title>
<path fill="none" stroke="#9a32cd" stroke-dasharray="5,2" d="M132.69,-60.3564C118.142,-47.5777 98.1211,-29.9915 86.3219,-19.6273"/>
<polygon fill="#9a32cd" stroke="#9a32cd" points="130.697,-63.264 140.52,-67.2338 135.317,-58.0047 130.697,-63.264"/>
<text text-anchor="middle" x="128.5" y="-41" font-family="Helvetica,sans-Serif" font-size="10.00"> Hits</text>
</g>
<!-- Node4 -->
<g id="node4" class="node"><title>Node4</title>
<g id="a_node4"><a xlink:href="structant_1_1_t_cluster_hit.html" target="_top" xlink:title="ant::TClusterHit">
<polygon fill="white" stroke="black" points="105.5,-134.5 105.5,-153.5 195.5,-153.5 195.5,-134.5 105.5,-134.5"/>
<text text-anchor="middle" x="150.5" y="-141.5" font-family="Helvetica,sans-Serif" font-size="10.00">ant::TClusterHit</text>
</a>
</g>
</g>
<!-- Node4&#45;&gt;Node3 -->
<g id="edge3" class="edge"><title>Node4&#45;&gt;Node3</title>
<path fill="none" stroke="#9a32cd" stroke-dasharray="5,2" d="M150.5,-124.037C150.5,-111.67 150.5,-96.1198 150.5,-86.6273"/>
<polygon fill="#9a32cd" stroke="#9a32cd" points="147,-124.234 150.5,-134.234 154,-124.234 147,-124.234"/>
<text text-anchor="middle" x="175" y="-108" font-family="Helvetica,sans-Serif" font-size="10.00"> elements</text>
</g>
<!-- Node5 -->
<g id="node5" class="node"><title>Node5</title>
<polygon fill="white" stroke="#bfbfbf" points="81,-201.5 81,-231.5 220,-231.5 220,-201.5 81,-201.5"/>
<text text-anchor="start" x="89" y="-219.5" font-family="Helvetica,sans-Serif" font-size="10.00">std::vector&lt; ant::TCluster</text>
<text text-anchor="middle" x="150.5" y="-208.5" font-family="Helvetica,sans-Serif" font-size="10.00">Hit::Datum &gt;</text>
</g>
<!-- Node5&#45;&gt;Node4 -->
<g id="edge4" class="edge"><title>Node5&#45;&gt;Node4</title>
<path fill="none" stroke="#9a32cd" stroke-dasharray="5,2" d="M150.5,-191.091C150.5,-178.214 150.5,-163.197 150.5,-153.893"/>
<polygon fill="#9a32cd" stroke="#9a32cd" points="147,-191.233 150.5,-201.233 154,-191.233 147,-191.233"/>
<text text-anchor="middle" x="164" y="-175" font-family="Helvetica,sans-Serif" font-size="10.00"> Data</text>
</g>
<!-- Node6 -->
<g id="node6" class="node"><title>Node6</title>
<g id="a_node6"><a xlink:href="structant_1_1_t_cluster_hit_1_1_datum.html" target="_top" xlink:title="ant::TClusterHit::Datum">
<polygon fill="white" stroke="black" points="86,-279.5 86,-298.5 215,-298.5 215,-279.5 86,-279.5"/>
<text text-anchor="middle" x="150.5" y="-286.5" font-family="Helvetica,sans-Serif" font-size="10.00">ant::TClusterHit::Datum</text>
</a>
</g>
</g>
<!-- Node6&#45;&gt;Node5 -->
<g id="edge5" class="edge"><title>Node6&#45;&gt;Node5</title>
<path fill="none" stroke="#9a32cd" stroke-dasharray="5,2" d="M150.5,-269.236C150.5,-257.408 150.5,-242.383 150.5,-231.576"/>
<polygon fill="#9a32cd" stroke="#9a32cd" points="147,-269.355 150.5,-279.355 154,-269.355 147,-269.355"/>
<text text-anchor="middle" x="175" y="-253" font-family="Helvetica,sans-Serif" font-size="10.00"> elements</text>
</g>
<!-- Node7 -->
<g id="node7" class="node"><title>Node7</title>
<g id="a_node7"><a xlink:href="structant_1_1_t_detector_read_hit_1_1_value__t.html" target="_top" xlink:title="ant::TDetectorReadHit\l::Value_t">
<polygon fill="white" stroke="black" points="89.5,-346.5 89.5,-376.5 211.5,-376.5 211.5,-346.5 89.5,-346.5"/>
<text text-anchor="start" x="97.5" y="-364.5" font-family="Helvetica,sans-Serif" font-size="10.00">ant::TDetectorReadHit</text>
<text text-anchor="middle" x="150.5" y="-353.5" font-family="Helvetica,sans-Serif" font-size="10.00">::Value_t</text>
</a>
</g>
</g>
<!-- Node7&#45;&gt;Node6 -->
<g id="edge6" class="edge"><title>Node7&#45;&gt;Node6</title>
<path fill="none" stroke="#9a32cd" stroke-dasharray="5,2" d="M150.5,-336.091C150.5,-323.214 150.5,-308.197 150.5,-298.893"/>
<polygon fill="#9a32cd" stroke="#9a32cd" points="147,-336.233 150.5,-346.233 154,-336.233 147,-336.233"/>
<text text-anchor="middle" x="165.5" y="-320" font-family="Helvetica,sans-Serif" font-size="10.00"> Value</text>
</g>
</g>
</svg>
