<?xml version="1.0" encoding="UTF-8" standalone="no"?>
<!DOCTYPE svg PUBLIC "-//W3C//DTD SVG 1.1//EN"
 "http://www.w3.org/Graphics/SVG/1.1/DTD/svg11.dtd">
<!-- Generated by graphviz version 2.38.0 (20140413.2041)
 -->
<!-- Title: ant::calibration::gui::Manager::input_file_t Pages: 1 -->
<svg width="211pt" height="206pt"
 viewBox="0.00 0.00 211.00 206.00" xmlns="http://www.w3.org/2000/svg" xmlns:xlink="http://www.w3.org/1999/xlink">
<g id="graph0" class="graph" transform="scale(1 1) rotate(0) translate(4 202)">
<title>ant::calibration::gui::Manager::input_file_t</title>
<polygon fill="white" stroke="none" points="-4,4 -4,-202 207,-202 207,4 -4,4"/>
<!-- Node1 -->
<g id="node1" class="node"><title>Node1</title>
<polygon fill="#bfbfbf" stroke="black" points="44.5,-0.5 44.5,-30.5 166.5,-30.5 166.5,-0.5 44.5,-0.5"/>
<text text-anchor="start" x="52.5" y="-18.5" font-family="Helvetica,sans-Serif" font-size="10.00">ant::calibration::gui</text>
<text text-anchor="middle" x="105.5" y="-7.5" font-family="Helvetica,sans-Serif" font-size="10.00">::Manager::input_file_t</text>
</g>
<!-- Node2 -->
<g id="node2" class="node"><title>Node2</title>
<g id="a_node2"><a xlink:title="STL class. ">
<polygon fill="white" stroke="#bfbfbf" points="19,-84 19,-103 84,-103 84,-84 19,-84"/>
<text text-anchor="middle" x="51.5" y="-91" font-family="Helvetica,sans-Serif" font-size="10.00">std::string</text>
</a>
</g>
</g>
<!-- Node2&#45;&gt;Node1 -->
<g id="edge1" class="edge"><title>Node2&#45;&gt;Node1</title>
<path fill="none" stroke="#9a32cd" stroke-dasharray="5,2" d="M60.5433,-74.8768C64.9813,-66.7548 70.6296,-57.1351 76.5,-49 81.1021,-42.6225 86.7511,-36.063 91.8369,-30.5218"/>
<polygon fill="#9a32cd" stroke="#9a32cd" points="57.3834,-73.3652 55.7968,-83.8406 63.5696,-76.641 57.3834,-73.3652"/>
<text text-anchor="middle" x="99" y="-52" font-family="Helvetica,sans-Serif" font-size="10.00"> filename</text>
</g>
<!-- Node3 -->
<g id="node3" class="node"><title>Node3</title>
<g id="a_node3"><a xlink:title="STL class. ">
<polygon fill="white" stroke="#bfbfbf" points="0,-167.5 0,-197.5 103,-197.5 103,-167.5 0,-167.5"/>
<text text-anchor="start" x="8" y="-185.5" font-family="Helvetica,sans-Serif" font-size="10.00">std::basic_string&lt;</text>
<text text-anchor="middle" x="51.5" y="-174.5" font-family="Helvetica,sans-Serif" font-size="10.00"> char &gt;</text>
</a>
</g>
</g>
<!-- Node3&#45;&gt;Node2 -->
<g id="edge2" class="edge"><title>Node3&#45;&gt;Node2</title>
<path fill="none" stroke="midnightblue" d="M51.5,-157.063C51.5,-139.127 51.5,-115.8 51.5,-103.311"/>
<polygon fill="midnightblue" stroke="midnightblue" points="48.0001,-157.134 51.5,-167.134 55.0001,-157.134 48.0001,-157.134"/>
</g>
<!-- Node4 -->
<g id="node4" class="node"><title>Node4</title>
<g id="a_node4"><a xlink:href="classant_1_1interval.html" target="_top" xlink:title="ant::interval\&lt; ant\l::TID \&gt;">
<polygon fill="white" stroke="black" points="102,-78.5 102,-108.5 203,-108.5 203,-78.5 102,-78.5"/>
<text text-anchor="start" x="110" y="-96.5" font-family="Helvetica,sans-Serif" font-size="10.00">ant::interval&lt; ant</text>
<text text-anchor="middle" x="152.5" y="-85.5" font-family="Helvetica,sans-Serif" font-size="10.00">::TID &gt;</text>
</a>
</g>
</g>
<!-- Node4&#45;&gt;Node1 -->
<g id="edge3" class="edge"><title>Node4&#45;&gt;Node1</title>
<path fill="none" stroke="#9a32cd" stroke-dasharray="5,2" d="M138.322,-69.5735C130.507,-56.9375 121.052,-41.6476 114.301,-30.7309"/>
<polygon fill="#9a32cd" stroke="#9a32cd" points="135.423,-71.5408 143.66,-78.205 141.377,-67.859 135.423,-71.5408"/>
<text text-anchor="middle" x="147" y="-52" font-family="Helvetica,sans-Serif" font-size="10.00"> range</text>
</g>
<!-- Node5 -->
<g id="node5" class="node"><title>Node5</title>
<g id="a_node5"><a xlink:href="structant_1_1_t_i_d.html" target="_top" xlink:title="ant::TID">
<polygon fill="white" stroke="black" points="126,-173 126,-192 179,-192 179,-173 126,-173"/>
<text text-anchor="middle" x="152.5" y="-180" font-family="Helvetica,sans-Serif" font-size="10.00">ant::TID</text>
</a>
</g>
</g>
<!-- Node5&#45;&gt;Node4 -->
<g id="edge4" class="edge"><title>Node5&#45;&gt;Node4</title>
<path fill="none" stroke="#9a32cd" stroke-dasharray="5,2" d="M152.5,-162.406C152.5,-146.148 152.5,-123.165 152.5,-108.548"/>
<polygon fill="#9a32cd" stroke="#9a32cd" points="149,-162.84 152.5,-172.84 156,-162.84 149,-162.84"/>
<text text-anchor="middle" x="168" y="-141" font-family="Helvetica,sans-Serif" font-size="10.00"> _start</text>
<text text-anchor="middle" x="168" y="-130" font-family="Helvetica,sans-Serif" font-size="10.00">_stop</text>
</g>
</g>
</svg>
