<?xml version="1.0" encoding="UTF-8" standalone="no"?>
<!DOCTYPE svg PUBLIC "-//W3C//DTD SVG 1.1//EN"
 "http://www.w3.org/Graphics/SVG/1.1/DTD/svg11.dtd">
<!-- Generated by graphviz version 2.38.0 (20140413.2041)
 -->
<!-- Title: ant::progs::taggeff::treeLoader_t Pages: 1 -->
<svg width="917pt" height="127pt"
 viewBox="0.00 0.00 917.00 127.00" xmlns="http://www.w3.org/2000/svg" xmlns:xlink="http://www.w3.org/1999/xlink">
<g id="graph0" class="graph" transform="scale(1 1) rotate(0) translate(4 123)">
<title>ant::progs::taggeff::treeLoader_t</title>
<polygon fill="white" stroke="none" points="-4,4 -4,-123 913,-123 913,4 -4,4"/>
<!-- Node1 -->
<g id="node1" class="node"><title>Node1</title>
<polygon fill="#bfbfbf" stroke="black" points="804,-44.5 804,-74.5 909,-74.5 909,-44.5 804,-44.5"/>
<text text-anchor="start" x="812" y="-62.5" font-family="Helvetica,sans-Serif" font-size="10.00">ant::progs::taggeff</text>
<text text-anchor="middle" x="856.5" y="-51.5" font-family="Helvetica,sans-Serif" font-size="10.00">::treeLoader_t</text>
</g>
<!-- Node2 -->
<g id="node2" class="node"><title>Node2</title>
<g id="a_node2"><a xlink:href="structant_1_1analysis_1_1physics_1_1_process_tagg_eff_1_1_tree_scalar_reads.html" target="_top" xlink:title="ant::analysis::physics\l::ProcessTaggEff::TreeScalarReads">
<polygon fill="white" stroke="black" points="530,-88.5 530,-118.5 708,-118.5 708,-88.5 530,-88.5"/>
<text text-anchor="start" x="538" y="-106.5" font-family="Helvetica,sans-Serif" font-size="10.00">ant::analysis::physics</text>
<text text-anchor="middle" x="619" y="-95.5" font-family="Helvetica,sans-Serif" font-size="10.00">::ProcessTaggEff::TreeScalarReads</text>
</a>
</g>
</g>
<!-- Node2&#45;&gt;Node1 -->
<g id="edge1" class="edge"><title>Node2&#45;&gt;Node1</title>
<path fill="none" stroke="#9a32cd" stroke-dasharray="5,2" d="M718.536,-86.9488C740.756,-83.0321 764.212,-78.7526 786,-74.5 791.815,-73.365 797.893,-72.1282 803.931,-70.8678"/>
<polygon fill="#9a32cd" stroke="#9a32cd" points="717.669,-83.5473 708.423,-88.7215 718.878,-90.4421 717.669,-83.5473"/>
<text text-anchor="middle" x="756" y="-87.5" font-family="Helvetica,sans-Serif" font-size="10.00"> wrapTree</text>
</g>
<!-- Node3 -->
<g id="node3" class="node"><title>Node3</title>
<g id="a_node3"><a xlink:href="classant_1_1_wrap_t_tree.html" target="_top" xlink:title="The WrapTTree struct simplifies TTree handling in physics classes. ">
<polygon fill="white" stroke="black" points="398.5,-94 398.5,-113 484.5,-113 484.5,-94 398.5,-94"/>
<text text-anchor="middle" x="441.5" y="-101" font-family="Helvetica,sans-Serif" font-size="10.00">ant::WrapTTree</text>
</a>
</g>
</g>
<!-- Node3&#45;&gt;Node2 -->
<g id="edge2" class="edge"><title>Node3&#45;&gt;Node2</title>
<path fill="none" stroke="midnightblue" d="M494.817,-103.5C505.856,-103.5 517.795,-103.5 529.747,-103.5"/>
<polygon fill="midnightblue" stroke="midnightblue" points="494.537,-100 484.537,-103.5 494.537,-107 494.537,-100"/>
</g>
<!-- Node4 -->
<g id="node4" class="node"><title>Node4</title>
<g id="a_node4"><a xlink:title="STL class. ">
<polygon fill="white" stroke="#bfbfbf" points="586.5,-50 586.5,-69 651.5,-69 651.5,-50 586.5,-50"/>
<text text-anchor="middle" x="619" y="-57" font-family="Helvetica,sans-Serif" font-size="10.00">std::string</text>
</a>
</g>
</g>
<!-- Node4&#45;&gt;Node1 -->
<g id="edge3" class="edge"><title>Node4&#45;&gt;Node1</title>
<path fill="none" stroke="#9a32cd" stroke-dasharray="5,2" d="M661.869,-59.5C701.453,-59.5 760.967,-59.5 803.559,-59.5"/>
<polygon fill="#9a32cd" stroke="#9a32cd" points="661.761,-56.0001 651.761,-59.5 661.761,-63.0001 661.761,-56.0001"/>
<text text-anchor="middle" x="756" y="-62.5" font-family="Helvetica,sans-Serif" font-size="10.00"> setupName</text>
</g>
<!-- Node5 -->
<g id="node5" class="node"><title>Node5</title>
<g id="a_node5"><a xlink:title="STL class. ">
<polygon fill="white" stroke="#bfbfbf" points="390,-44.5 390,-74.5 493,-74.5 493,-44.5 390,-44.5"/>
<text text-anchor="start" x="398" y="-62.5" font-family="Helvetica,sans-Serif" font-size="10.00">std::basic_string&lt;</text>
<text text-anchor="middle" x="441.5" y="-51.5" font-family="Helvetica,sans-Serif" font-size="10.00"> char &gt;</text>
</a>
</g>
</g>
<!-- Node5&#45;&gt;Node4 -->
<g id="edge4" class="edge"><title>Node5&#45;&gt;Node4</title>
<path fill="none" stroke="midnightblue" d="M503.358,-59.5C531.322,-59.5 563.32,-59.5 586.391,-59.5"/>
<polygon fill="midnightblue" stroke="midnightblue" points="503.262,-56.0001 493.262,-59.5 503.262,-63.0001 503.262,-56.0001"/>
</g>
<!-- Node6 -->
<g id="node6" class="node"><title>Node6</title>
<g id="a_node6"><a xlink:href="classant_1_1_wrap_t_file_input.html" target="_top" xlink:title="ant::WrapTFileInput">
<polygon fill="white" stroke="black" points="566,-11 566,-30 672,-30 672,-11 566,-11"/>
<text text-anchor="middle" x="619" y="-18" font-family="Helvetica,sans-Serif" font-size="10.00">ant::WrapTFileInput</text>
</a>
</g>
</g>
<!-- Node6&#45;&gt;Node1 -->
<g id="edge5" class="edge"><title>Node6&#45;&gt;Node1</title>
<path fill="none" stroke="#9a32cd" stroke-dasharray="5,2" d="M682.405,-28.4853C713.601,-32.7404 751.884,-38.3597 786,-44.5 791.831,-45.5495 797.919,-46.7328 803.963,-47.9628"/>
<polygon fill="#9a32cd" stroke="#9a32cd" points="682.491,-24.9653 672.113,-27.0957 681.554,-31.9023 682.491,-24.9653"/>
<text text-anchor="middle" x="756" y="-47.5" font-family="Helvetica,sans-Serif" font-size="10.00"> wrapFile</text>
</g>
<!-- Node7 -->
<g id="node7" class="node"><title>Node7</title>
<g id="a_node7"><a xlink:href="classant_1_1_wrap_t_file.html" target="_top" xlink:title="ant::WrapTFile">
<polygon fill="white" stroke="black" points="400.5,-6 400.5,-25 482.5,-25 482.5,-6 400.5,-6"/>
<text text-anchor="middle" x="441.5" y="-13" font-family="Helvetica,sans-Serif" font-size="10.00">ant::WrapTFile</text>
</a>
</g>
</g>
<!-- Node7&#45;&gt;Node6 -->
<g id="edge6" class="edge"><title>Node7&#45;&gt;Node6</title>
<path fill="none" stroke="midnightblue" d="M492.952,-16.9374C515.829,-17.5891 542.86,-18.3593 565.927,-19.0164"/>
<polygon fill="midnightblue" stroke="midnightblue" points="492.859,-13.4334 482.763,-16.6471 492.659,-20.4306 492.859,-13.4334"/>
</g>
<!-- Node8 -->
<g id="node8" class="node"><title>Node8</title>
<polygon fill="white" stroke="#bfbfbf" points="216,-0.5 216,-30.5 332,-30.5 332,-0.5 216,-0.5"/>
<text text-anchor="start" x="224" y="-18.5" font-family="Helvetica,sans-Serif" font-size="10.00">std::list&lt; std::unique</text>
<text text-anchor="middle" x="274" y="-7.5" font-family="Helvetica,sans-Serif" font-size="10.00">_ptr&lt; TFile &gt; &gt;</text>
</g>
<!-- Node8&#45;&gt;Node7 -->
<g id="edge7" class="edge"><title>Node8&#45;&gt;Node7</title>
<path fill="none" stroke="#9a32cd" stroke-dasharray="5,2" d="M342.554,-15.5C362.187,-15.5 383.002,-15.5 400.371,-15.5"/>
<polygon fill="#9a32cd" stroke="#9a32cd" points="342.419,-12.0001 332.419,-15.5 342.419,-19.0001 342.419,-12.0001"/>
<text text-anchor="middle" x="361" y="-18.5" font-family="Helvetica,sans-Serif" font-size="10.00"> files</text>
</g>
<!-- Node9 -->
<g id="node9" class="node"><title>Node9</title>
<polygon fill="white" stroke="#bfbfbf" points="0,-6 0,-25 131,-25 131,-6 0,-6"/>
<text text-anchor="middle" x="65.5" y="-13" font-family="Helvetica,sans-Serif" font-size="10.00">std::unique_ptr&lt; TFile &gt;</text>
</g>
<!-- Node9&#45;&gt;Node8 -->
<g id="edge8" class="edge"><title>Node9&#45;&gt;Node8</title>
<path fill="none" stroke="#9a32cd" stroke-dasharray="5,2" d="M141.276,-15.5C165.843,-15.5 192.742,-15.5 215.792,-15.5"/>
<polygon fill="#9a32cd" stroke="#9a32cd" points="141.271,-12.0001 131.271,-15.5 141.271,-19.0001 141.271,-12.0001"/>
<text text-anchor="middle" x="173.5" y="-18.5" font-family="Helvetica,sans-Serif" font-size="10.00"> elements</text>
</g>
</g>
</svg>
