<?xml version="1.0" encoding="UTF-8" standalone="no"?>
<!DOCTYPE svg PUBLIC "-//W3C//DTD SVG 1.1//EN"
 "http://www.w3.org/Graphics/SVG/1.1/DTD/svg11.dtd">
<!-- Generated by graphviz version 2.38.0 (20140413.2041)
 -->
<!-- Title: ant::analysis::slowcontrol::processor::ExpTrigger Pages: 1 -->
<svg width="791pt" height="78pt"
 viewBox="0.00 0.00 791.00 78.00" xmlns="http://www.w3.org/2000/svg" xmlns:xlink="http://www.w3.org/1999/xlink">
<g id="graph0" class="graph" transform="scale(1 1) rotate(0) translate(4 74)">
<title>ant::analysis::slowcontrol::processor::ExpTrigger</title>
<polygon fill="white" stroke="none" points="-4,4 -4,-74 787,-74 787,4 -4,4"/>
<!-- Node2 -->
<g id="node1" class="node"><title>Node2</title>
<polygon fill="#bfbfbf" stroke="black" points="647,-27.5 647,-57.5 783,-57.5 783,-27.5 647,-27.5"/>
<text text-anchor="start" x="655" y="-45.5" font-family="Helvetica,sans-Serif" font-size="10.00">ant::analysis::slowcontrol</text>
<text text-anchor="middle" x="715" y="-34.5" font-family="Helvetica,sans-Serif" font-size="10.00">::processor::ExpTrigger</text>
</g>
<!-- Node3 -->
<g id="node2" class="node"><title>Node3</title>
<g id="a_node2"><a xlink:href="structant_1_1analysis_1_1slowcontrol_1_1_processor.html" target="_top" xlink:title="ant::analysis::slowcontrol\l::Processor">
<polygon fill="white" stroke="black" points="0,-39.5 0,-69.5 136,-69.5 136,-39.5 0,-39.5"/>
<text text-anchor="start" x="8" y="-57.5" font-family="Helvetica,sans-Serif" font-size="10.00">ant::analysis::slowcontrol</text>
<text text-anchor="middle" x="68" y="-46.5" font-family="Helvetica,sans-Serif" font-size="10.00">::Processor</text>
</a>
</g>
</g>
<!-- Node3&#45;&gt;Node2 -->
<g id="edge1" class="edge"><title>Node3&#45;&gt;Node2</title>
<path fill="none" stroke="midnightblue" d="M146.337,-55.4236C148.922,-55.4501 151.482,-55.4756 154,-55.5 329.552,-57.1993 373.441,-57.8333 549,-58.5 584.555,-58.635 593.598,-61.8029 629,-58.5 634.831,-57.956 640.858,-57.2064 646.886,-56.3265"/>
<polygon fill="midnightblue" stroke="midnightblue" points="146.313,-51.9232 136.277,-55.3174 146.239,-58.9228 146.313,-51.9232"/>
</g>
<!-- Node5 -->
<g id="node4" class="node"><title>Node5</title>
<g id="a_node4"><a xlink:href="structant_1_1analysis_1_1slowcontrol_1_1processor_1_1_acqu_scaler_vector.html" target="_top" xlink:title="ant::analysis::slowcontrol\l::processor::AcquScalerVector">
<polygon fill="white" stroke="black" points="173,-11.5 173,-41.5 334,-41.5 334,-11.5 173,-11.5"/>
<text text-anchor="start" x="181" y="-29.5" font-family="Helvetica,sans-Serif" font-size="10.00">ant::analysis::slowcontrol</text>
<text text-anchor="middle" x="253.5" y="-18.5" font-family="Helvetica,sans-Serif" font-size="10.00">::processor::AcquScalerVector</text>
</a>
</g>
</g>
<!-- Node3&#45;&gt;Node5 -->
<g id="edge4" class="edge"><title>Node3&#45;&gt;Node5</title>
<path fill="none" stroke="midnightblue" d="M145.971,-42.7552C154.866,-41.3978 163.952,-40.0114 172.882,-38.6488"/>
<polygon fill="midnightblue" stroke="midnightblue" points="145.384,-39.304 136.027,-44.2725 146.44,-46.2239 145.384,-39.304"/>
</g>
<!-- Node4 -->
<g id="node3" class="node"><title>Node4</title>
<g id="a_node3"><a xlink:href="structant_1_1analysis_1_1slowcontrol_1_1processor_1_1_acqu_scaler_scalar.html" target="_top" xlink:title="ant::analysis::slowcontrol\l::processor::AcquScalerScalar">
<polygon fill="white" stroke="black" points="371,-0.5 371,-30.5 531,-30.5 531,-0.5 371,-0.5"/>
<text text-anchor="start" x="379" y="-18.5" font-family="Helvetica,sans-Serif" font-size="10.00">ant::analysis::slowcontrol</text>
<text text-anchor="middle" x="451" y="-7.5" font-family="Helvetica,sans-Serif" font-size="10.00">::processor::AcquScalerScalar</text>
</a>
</g>
</g>
<!-- Node4&#45;&gt;Node2 -->
<g id="edge2" class="edge"><title>Node4&#45;&gt;Node2</title>
<path fill="none" stroke="#9a32cd" stroke-dasharray="5,2" d="M541.511,-9.29398C569.66,-8.86426 600.761,-9.96864 629,-14.5 645.108,-17.0847 662.302,-22.2596 676.981,-27.465"/>
<polygon fill="#9a32cd" stroke="#9a32cd" points="541.206,-5.79975 531.285,-9.51821 541.359,-12.7981 541.206,-5.79975"/>
<text text-anchor="middle" x="589" y="-50.5" font-family="Helvetica,sans-Serif" font-size="10.00"> L1Trigger</text>
<text text-anchor="middle" x="589" y="-39.5" font-family="Helvetica,sans-Serif" font-size="10.00">Trigger</text>
<text text-anchor="middle" x="589" y="-28.5" font-family="Helvetica,sans-Serif" font-size="10.00">LiveCounter</text>
<text text-anchor="middle" x="589" y="-17.5" font-family="Helvetica,sans-Serif" font-size="10.00">Reference_1MHz</text>
</g>
<!-- Node5&#45;&gt;Node4 -->
<g id="edge3" class="edge"><title>Node5&#45;&gt;Node4</title>
<path fill="none" stroke="midnightblue" d="M344.061,-21.4607C353.006,-20.9574 362.043,-20.449 370.87,-19.9523"/>
<polygon fill="midnightblue" stroke="midnightblue" points="343.805,-17.9695 334.017,-22.0259 344.198,-24.9585 343.805,-17.9695"/>
</g>
</g>
</svg>
