<?xml version="1.0" encoding="UTF-8" standalone="no"?>
<!DOCTYPE svg PUBLIC "-//W3C//DTD SVG 1.1//EN"
 "http://www.w3.org/Graphics/SVG/1.1/DTD/svg11.dtd">
<!-- Generated by graphviz version 2.38.0 (20140413.2041)
 -->
<!-- Title: ant::analysis::physics::OmegaEtaG2::DebugCounters Pages: 1 -->
<svg width="176pt" height="128pt"
 viewBox="0.00 0.00 176.00 128.00" xmlns="http://www.w3.org/2000/svg" xmlns:xlink="http://www.w3.org/1999/xlink">
<g id="graph0" class="graph" transform="scale(1 1) rotate(0) translate(4 124)">
<title>ant::analysis::physics::OmegaEtaG2::DebugCounters</title>
<polygon fill="white" stroke="none" points="-4,4 -4,-124 172,-124 172,4 -4,4"/>
<!-- Node1 -->
<g id="node1" class="node"><title>Node1</title>
<polygon fill="#bfbfbf" stroke="black" points="-1.42109e-14,-0.5 -1.42109e-14,-30.5 168,-30.5 168,-0.5 -1.42109e-14,-0.5"/>
<text text-anchor="start" x="8" y="-18.5" font-family="Helvetica,sans-Serif" font-size="10.00">ant::analysis::physics</text>
<text text-anchor="middle" x="84" y="-7.5" font-family="Helvetica,sans-Serif" font-size="10.00">::OmegaEtaG2::DebugCounters</text>
</g>
<!-- Node2 -->
<g id="node2" class="node"><title>Node2</title>
<g id="a_node2"><a xlink:href="structant_1_1analysis_1_1physics_1_1_omega_eta_g2_1_1_debug_counters_1_1_values.html" target="_top" xlink:title="ant::analysis::physics\l::OmegaEtaG2::DebugCounters\l::Values">
<polygon fill="white" stroke="black" points="-1.42109e-14,-78.5 -1.42109e-14,-119.5 168,-119.5 168,-78.5 -1.42109e-14,-78.5"/>
<text text-anchor="start" x="8" y="-107.5" font-family="Helvetica,sans-Serif" font-size="10.00">ant::analysis::physics</text>
<text text-anchor="start" x="8" y="-96.5" font-family="Helvetica,sans-Serif" font-size="10.00">::OmegaEtaG2::DebugCounters</text>
<text text-anchor="middle" x="84" y="-85.5" font-family="Helvetica,sans-Serif" font-size="10.00">::Values</text>
</a>
</g>
</g>
<!-- Node2&#45;&gt;Node1 -->
<g id="edge1" class="edge"><title>Node2&#45;&gt;Node1</title>
<path fill="none" stroke="#9a32cd" stroke-dasharray="5,2" d="M84,-68.0254C84,-55.258 84,-40.9702 84,-30.6846"/>
<polygon fill="#9a32cd" stroke="#9a32cd" points="80.5001,-68.2711 84,-78.2711 87.5001,-68.2712 80.5001,-68.2711"/>
<text text-anchor="middle" x="88.5" y="-52" font-family="Helvetica,sans-Serif" font-size="10.00"> v</text>
</g>
</g>
</svg>
