<?xml version="1.0" encoding="UTF-8" standalone="no"?>
<!DOCTYPE svg PUBLIC "-//W3C//DTD SVG 1.1//EN"
 "http://www.w3.org/Graphics/SVG/1.1/DTD/svg11.dtd">
<!-- Generated by graphviz version 2.38.0 (20140413.2041)
 -->
<!-- Title: ant::TCandidate Pages: 1 -->
<svg width="394pt" height="265pt"
 viewBox="0.00 0.00 394.00 265.00" xmlns="http://www.w3.org/2000/svg" xmlns:xlink="http://www.w3.org/1999/xlink">
<g id="graph0" class="graph" transform="scale(1 1) rotate(0) translate(4 261)">
<title>ant::TCandidate</title>
<polygon fill="white" stroke="none" points="-4,4 -4,-261 390,-261 390,4 -4,4"/>
<!-- Node1 -->
<g id="node1" class="node"><title>Node1</title>
<polygon fill="#bfbfbf" stroke="black" points="81,-0.5 81,-19.5 173,-19.5 173,-0.5 81,-0.5"/>
<text text-anchor="middle" x="127" y="-7.5" font-family="Helvetica,sans-Serif" font-size="10.00">ant::TCandidate</text>
</g>
<!-- Node2 -->
<g id="node2" class="node"><title>Node2</title>
<g id="a_node2"><a xlink:href="classant_1_1std__ext_1_1shared__ptr__container.html" target="_top" xlink:title="ant::std_ext::shared\l_ptr_container\&lt; TCluster \&gt;">
<polygon fill="white" stroke="black" points="0,-85 0,-115 146,-115 146,-85 0,-85"/>
<text text-anchor="start" x="8" y="-103" font-family="Helvetica,sans-Serif" font-size="10.00">ant::std_ext::shared</text>
<text text-anchor="middle" x="73" y="-92" font-family="Helvetica,sans-Serif" font-size="10.00">_ptr_container&lt; TCluster &gt;</text>
</a>
</g>
</g>
<!-- Node2&#45;&gt;Node1 -->
<g id="edge1" class="edge"><title>Node2&#45;&gt;Node1</title>
<path fill="none" stroke="#9a32cd" stroke-dasharray="5,2" d="M87.0436,-76.1141C98.423,-57.57 113.827,-32.4675 121.775,-19.5153"/>
<polygon fill="#9a32cd" stroke="#9a32cd" points="83.9231,-74.5075 81.676,-84.8613 89.8894,-78.1686 83.9231,-74.5075"/>
<text text-anchor="middle" x="130.5" y="-41" font-family="Helvetica,sans-Serif" font-size="10.00"> Clusters</text>
</g>
<!-- Node3 -->
<g id="node3" class="node"><title>Node3</title>
<g id="a_node3"><a xlink:href="structant_1_1_detector__t_1_1_any__t.html" target="_top" xlink:title="ant::Detector_t::Any_t">
<polygon fill="white" stroke="black" points="164,-90.5 164,-109.5 286,-109.5 286,-90.5 164,-90.5"/>
<text text-anchor="middle" x="225" y="-97.5" font-family="Helvetica,sans-Serif" font-size="10.00">ant::Detector_t::Any_t</text>
</a>
</g>
</g>
<!-- Node3&#45;&gt;Node1 -->
<g id="edge2" class="edge"><title>Node3&#45;&gt;Node1</title>
<path fill="none" stroke="#9a32cd" stroke-dasharray="5,2" d="M207.798,-83.5531C187.158,-65.0199 153.271,-34.5905 136.715,-19.7241"/>
<polygon fill="#9a32cd" stroke="#9a32cd" points="205.466,-86.1634 215.245,-90.2405 210.143,-80.955 205.466,-86.1634"/>
<text text-anchor="middle" x="190" y="-41" font-family="Helvetica,sans-Serif" font-size="10.00"> Detector</text>
</g>
<!-- Node3&#45;&gt;Node3 -->
<g id="edge5" class="edge"><title>Node3&#45;&gt;Node3</title>
<path fill="none" stroke="#9a32cd" stroke-dasharray="5,2" d="M296.132,-106.796C301.023,-105.237 304,-102.972 304,-100 304,-95.3613 296.747,-92.444 286.279,-91.2481"/>
<polygon fill="#9a32cd" stroke="#9a32cd" points="295.406,-103.371 286.279,-108.752 296.769,-110.237 295.406,-103.371"/>
<text text-anchor="middle" x="345" y="-125" font-family="Helvetica,sans-Serif" font-size="10.00"> TAPS_Apparatus</text>
<text text-anchor="middle" x="345" y="-114" font-family="Helvetica,sans-Serif" font-size="10.00">CB_Apparatus</text>
<text text-anchor="middle" x="345" y="-103" font-family="Helvetica,sans-Serif" font-size="10.00">None</text>
<text text-anchor="middle" x="345" y="-92" font-family="Helvetica,sans-Serif" font-size="10.00">Veto</text>
<text text-anchor="middle" x="345" y="-81" font-family="Helvetica,sans-Serif" font-size="10.00">Tracker</text>
<text text-anchor="middle" x="345" y="-70" font-family="Helvetica,sans-Serif" font-size="10.00">Calo</text>
</g>
<!-- Node4 -->
<g id="node4" class="node"><title>Node4</title>
<g id="a_node4"><a xlink:href="classant_1_1bitflag.html" target="_top" xlink:title="ant::bitflag\&lt; Type_t \&gt;">
<polygon fill="white" stroke="black" points="165,-170.5 165,-189.5 285,-189.5 285,-170.5 165,-170.5"/>
<text text-anchor="middle" x="225" y="-177.5" font-family="Helvetica,sans-Serif" font-size="10.00">ant::bitflag&lt; Type_t &gt;</text>
</a>
</g>
</g>
<!-- Node4&#45;&gt;Node3 -->
<g id="edge3" class="edge"><title>Node4&#45;&gt;Node3</title>
<path fill="none" stroke="midnightblue" d="M225,-160.072C225,-144.145 225,-122.078 225,-109.924"/>
<polygon fill="midnightblue" stroke="midnightblue" points="221.5,-160.355 225,-170.355 228.5,-160.355 221.5,-160.355"/>
</g>
<!-- Node5 -->
<g id="node5" class="node"><title>Node5</title>
<polygon fill="white" stroke="#bfbfbf" points="175.5,-237.5 175.5,-256.5 274.5,-256.5 274.5,-237.5 175.5,-237.5"/>
<text text-anchor="middle" x="225" y="-244.5" font-family="Helvetica,sans-Serif" font-size="10.00">std::bitset&lt; 32 &gt;</text>
</g>
<!-- Node5&#45;&gt;Node4 -->
<g id="edge4" class="edge"><title>Node5&#45;&gt;Node4</title>
<path fill="none" stroke="#9a32cd" stroke-dasharray="5,2" d="M225,-227.037C225,-214.67 225,-199.12 225,-189.627"/>
<polygon fill="#9a32cd" stroke="#9a32cd" points="221.5,-227.234 225,-237.234 228.5,-227.234 221.5,-227.234"/>
<text text-anchor="middle" x="235.5" y="-211" font-family="Helvetica,sans-Serif" font-size="10.00"> bits</text>
</g>
</g>
</svg>
