<?xml version="1.0" encoding="UTF-8" standalone="no"?>
<!DOCTYPE svg PUBLIC "-//W3C//DTD SVG 1.1//EN"
 "http://www.w3.org/Graphics/SVG/1.1/DTD/svg11.dtd">
<!-- Generated by graphviz version 2.38.0 (20140413.2041)
 -->
<!-- Title: SIGMA::LumiFitter_t::result_t Pages: 1 -->
<svg width="240pt" height="241pt"
 viewBox="0.00 0.00 239.50 241.00" xmlns="http://www.w3.org/2000/svg" xmlns:xlink="http://www.w3.org/1999/xlink">
<g id="graph0" class="graph" transform="scale(1 1) rotate(0) translate(4 237)">
<title>SIGMA::LumiFitter_t::result_t</title>
<polygon fill="white" stroke="none" points="-4,4 -4,-237 235.5,-237 235.5,4 -4,4"/>
<!-- Node1 -->
<g id="node1" class="node"><title>Node1</title>
<polygon fill="#bfbfbf" stroke="black" points="0,-0.5 0,-30.5 110,-30.5 110,-0.5 0,-0.5"/>
<text text-anchor="start" x="8" y="-18.5" font-family="Helvetica,sans-Serif" font-size="10.00">SIGMA::LumiFitter_t</text>
<text text-anchor="middle" x="55" y="-7.5" font-family="Helvetica,sans-Serif" font-size="10.00">::result_t</text>
</g>
<!-- Node2 -->
<g id="node2" class="node"><title>Node2</title>
<g id="a_node2"><a xlink:href="struct_s_i_g_m_a_1_1_lumi_fitter__t_1_1_value__t.html" target="_top" xlink:title="SIGMA::LumiFitter_t\l::Value_t">
<polygon fill="white" stroke="black" points="24,-202.5 24,-232.5 134,-232.5 134,-202.5 24,-202.5"/>
<text text-anchor="start" x="32" y="-220.5" font-family="Helvetica,sans-Serif" font-size="10.00">SIGMA::LumiFitter_t</text>
<text text-anchor="middle" x="79" y="-209.5" font-family="Helvetica,sans-Serif" font-size="10.00">::Value_t</text>
</a>
</g>
</g>
<!-- Node2&#45;&gt;Node1 -->
<g id="edge1" class="edge"><title>Node2&#45;&gt;Node1</title>
<path fill="none" stroke="#9a32cd" stroke-dasharray="5,2" d="M64.4356,-193.042C58.3809,-181.947 52.0594,-168.25 49,-155 38.7661,-110.678 46.9136,-56.3096 51.8792,-30.8869"/>
<polygon fill="#9a32cd" stroke="#9a32cd" points="61.588,-195.112 69.599,-202.045 67.6604,-191.629 61.588,-195.112"/>
<text text-anchor="middle" x="70.5" y="-147" font-family="Helvetica,sans-Serif" font-size="10.00"> c1</text>
<text text-anchor="middle" x="70.5" y="-136" font-family="Helvetica,sans-Serif" font-size="10.00">c2</text>
<text text-anchor="middle" x="70.5" y="-125" font-family="Helvetica,sans-Serif" font-size="10.00">c3</text>
<text text-anchor="middle" x="70.5" y="-114" font-family="Helvetica,sans-Serif" font-size="10.00">c4</text>
<text text-anchor="middle" x="70.5" y="-103" font-family="Helvetica,sans-Serif" font-size="10.00">c5</text>
<text text-anchor="middle" x="70.5" y="-92" font-family="Helvetica,sans-Serif" font-size="10.00">Intercept</text>
</g>
<!-- Node3 -->
<g id="node3" class="node"><title>Node3</title>
<polygon fill="white" stroke="#bfbfbf" points="100.5,-107 100.5,-137 231.5,-137 231.5,-107 100.5,-107"/>
<text text-anchor="start" x="108.5" y="-125" font-family="Helvetica,sans-Serif" font-size="10.00">std::vector&lt; SIGMA</text>
<text text-anchor="middle" x="166" y="-114" font-family="Helvetica,sans-Serif" font-size="10.00">::LumiFitter_t::Value_t &gt;</text>
</g>
<!-- Node2&#45;&gt;Node3 -->
<g id="edge3" class="edge"><title>Node2&#45;&gt;Node3</title>
<path fill="none" stroke="#9a32cd" stroke-dasharray="5,2" d="M99.3195,-194.662C115.872,-176.873 138.75,-152.286 152.947,-137.028"/>
<polygon fill="#9a32cd" stroke="#9a32cd" points="96.4631,-192.594 92.2134,-202.299 101.588,-197.363 96.4631,-192.594"/>
<text text-anchor="middle" x="141.5" y="-176" font-family="Helvetica,sans-Serif" font-size="10.00"> elements</text>
</g>
<!-- Node3&#45;&gt;Node1 -->
<g id="edge2" class="edge"><title>Node3&#45;&gt;Node1</title>
<path fill="none" stroke="#9a32cd" stroke-dasharray="5,2" d="M143.502,-99.8196C121.628,-79.226 89.012,-48.5203 70.0873,-30.7038"/>
<polygon fill="#9a32cd" stroke="#9a32cd" points="141.35,-102.6 151.03,-106.907 146.148,-97.5036 141.35,-102.6"/>
<text text-anchor="middle" x="142" y="-63" font-family="Helvetica,sans-Serif" font-size="10.00"> Fitted_Lumis</text>
<text text-anchor="middle" x="142" y="-52" font-family="Helvetica,sans-Serif" font-size="10.00">Fitted_Egs</text>
</g>
</g>
</svg>
