<?xml version="1.0" encoding="UTF-8" standalone="no"?>
<!DOCTYPE svg PUBLIC "-//W3C//DTD SVG 1.1//EN"
 "http://www.w3.org/Graphics/SVG/1.1/DTD/svg11.dtd">
<!-- Generated by graphviz version 2.38.0 (20140413.2041)
 -->
<!-- Title: ant::expconfig::detector::PID::Element_t Pages: 1 -->
<svg width="226pt" height="252pt"
 viewBox="0.00 0.00 225.50 252.00" xmlns="http://www.w3.org/2000/svg" xmlns:xlink="http://www.w3.org/1999/xlink">
<g id="graph0" class="graph" transform="scale(1 1) rotate(0) translate(4 248)">
<title>ant::expconfig::detector::PID::Element_t</title>
<polygon fill="white" stroke="none" points="-4,4 -4,-248 221.5,-248 221.5,4 -4,4"/>
<!-- Node2 -->
<g id="node1" class="node"><title>Node2</title>
<polygon fill="#bfbfbf" stroke="black" points="10,-0.5 10,-30.5 141,-30.5 141,-0.5 10,-0.5"/>
<text text-anchor="start" x="18" y="-18.5" font-family="Helvetica,sans-Serif" font-size="10.00">ant::expconfig::detector</text>
<text text-anchor="middle" x="75.5" y="-7.5" font-family="Helvetica,sans-Serif" font-size="10.00">::PID::Element_t</text>
</g>
<!-- Node3 -->
<g id="node2" class="node"><title>Node3</title>
<g id="a_node2"><a xlink:href="structant_1_1_detector__t_1_1_element__t.html" target="_top" xlink:title="ant::Detector_t::Element_t">
<polygon fill="white" stroke="black" points="3.5,-68.5 3.5,-87.5 147.5,-87.5 147.5,-68.5 3.5,-68.5"/>
<text text-anchor="middle" x="75.5" y="-75.5" font-family="Helvetica,sans-Serif" font-size="10.00">ant::Detector_t::Element_t</text>
</a>
</g>
</g>
<!-- Node3&#45;&gt;Node2 -->
<g id="edge1" class="edge"><title>Node3&#45;&gt;Node2</title>
<path fill="none" stroke="midnightblue" d="M75.5,-58.2154C75.5,-49.3565 75.5,-38.9577 75.5,-30.7587"/>
<polygon fill="midnightblue" stroke="midnightblue" points="72.0001,-58.3318 75.5,-68.3318 79.0001,-58.3319 72.0001,-58.3318"/>
</g>
<!-- Node4 -->
<g id="node3" class="node"><title>Node4</title>
<g id="a_node3"><a xlink:href="structant_1_1vec3.html" target="_top" xlink:title="ant::vec3">
<polygon fill="white" stroke="black" points="0,-141 0,-160 61,-160 61,-141 0,-141"/>
<text text-anchor="middle" x="30.5" y="-148" font-family="Helvetica,sans-Serif" font-size="10.00">ant::vec3</text>
</a>
</g>
</g>
<!-- Node4&#45;&gt;Node3 -->
<g id="edge2" class="edge"><title>Node4&#45;&gt;Node3</title>
<path fill="none" stroke="#9a32cd" stroke-dasharray="5,2" d="M41.6128,-132.09C50.6067,-117.999 62.8971,-98.7445 69.937,-87.7154"/>
<polygon fill="#9a32cd" stroke="#9a32cd" points="38.448,-130.543 36.0179,-140.855 44.3485,-134.309 38.448,-130.543"/>
<text text-anchor="middle" x="78" y="-109" font-family="Helvetica,sans-Serif" font-size="10.00"> Position</text>
</g>
<!-- Node5 -->
<g id="node4" class="node"><title>Node5</title>
<g id="a_node4"><a xlink:href="classant_1_1bitflag.html" target="_top" xlink:title="ant::bitflag\&lt; ElementFlag\l_t, 16 \&gt;">
<polygon fill="white" stroke="black" points="79.5,-135.5 79.5,-165.5 217.5,-165.5 217.5,-135.5 79.5,-135.5"/>
<text text-anchor="start" x="87.5" y="-153.5" font-family="Helvetica,sans-Serif" font-size="10.00">ant::bitflag&lt; ElementFlag</text>
<text text-anchor="middle" x="148.5" y="-142.5" font-family="Helvetica,sans-Serif" font-size="10.00">_t, 16 &gt;</text>
</a>
</g>
</g>
<!-- Node5&#45;&gt;Node3 -->
<g id="edge3" class="edge"><title>Node5&#45;&gt;Node3</title>
<path fill="none" stroke="#9a32cd" stroke-dasharray="5,2" d="M126.379,-128.137C112.417,-114.653 95.1134,-97.9417 84.7085,-87.8932"/>
<polygon fill="#9a32cd" stroke="#9a32cd" points="124.103,-130.804 133.727,-135.233 128.966,-125.769 124.103,-130.804"/>
<text text-anchor="middle" x="127.5" y="-109" font-family="Helvetica,sans-Serif" font-size="10.00"> Flags</text>
</g>
<!-- Node6 -->
<g id="node5" class="node"><title>Node6</title>
<polygon fill="white" stroke="#bfbfbf" points="92,-213.5 92,-243.5 205,-243.5 205,-213.5 92,-213.5"/>
<text text-anchor="start" x="100" y="-231.5" font-family="Helvetica,sans-Serif" font-size="10.00">std::bitset&lt; number</text>
<text text-anchor="middle" x="148.5" y="-220.5" font-family="Helvetica,sans-Serif" font-size="10.00">_of_bits &gt;</text>
</g>
<!-- Node6&#45;&gt;Node5 -->
<g id="edge4" class="edge"><title>Node6&#45;&gt;Node5</title>
<path fill="none" stroke="#9a32cd" stroke-dasharray="5,2" d="M148.5,-203.09C148.5,-190.757 148.5,-176.224 148.5,-165.731"/>
<polygon fill="#9a32cd" stroke="#9a32cd" points="145,-203.205 148.5,-213.205 152,-203.205 145,-203.205"/>
<text text-anchor="middle" x="159" y="-187" font-family="Helvetica,sans-Serif" font-size="10.00"> bits</text>
</g>
</g>
</svg>
