<?xml version="1.0" encoding="UTF-8" standalone="no"?>
<!DOCTYPE svg PUBLIC "-//W3C//DTD SVG 1.1//EN"
 "http://www.w3.org/Graphics/SVG/1.1/DTD/svg11.dtd">
<!-- Generated by graphviz version 2.38.0 (20140413.2041)
 -->
<!-- Title: ant::analysis::physics::triplePi0::settings_t Pages: 1 -->
<svg width="583pt" height="187pt"
 viewBox="0.00 0.00 583.00 187.00" xmlns="http://www.w3.org/2000/svg" xmlns:xlink="http://www.w3.org/1999/xlink">
<g id="graph0" class="graph" transform="scale(1 1) rotate(0) translate(4 183)">
<title>ant::analysis::physics::triplePi0::settings_t</title>
<polygon fill="white" stroke="none" points="-4,4 -4,-183 579,-183 579,4 -4,4"/>
<!-- Node1 -->
<g id="node1" class="node"><title>Node1</title>
<polygon fill="#bfbfbf" stroke="black" points="457,-58 457,-88 575,-88 575,-58 457,-58"/>
<text text-anchor="start" x="465" y="-76" font-family="Helvetica,sans-Serif" font-size="10.00">ant::analysis::physics</text>
<text text-anchor="middle" x="516" y="-65" font-family="Helvetica,sans-Serif" font-size="10.00">::triplePi0::settings_t</text>
</g>
<!-- Node2 -->
<g id="node2" class="node"><title>Node2</title>
<polygon fill="white" stroke="#bfbfbf" points="218,-77 218,-107 332,-107 332,-77 218,-77"/>
<text text-anchor="start" x="226" y="-95" font-family="Helvetica,sans-Serif" font-size="10.00">std::vector&lt; interval</text>
<text text-anchor="middle" x="275" y="-84" font-family="Helvetica,sans-Serif" font-size="10.00">&lt; double &gt; &gt;</text>
</g>
<!-- Node2&#45;&gt;Node1 -->
<g id="edge1" class="edge"><title>Node2&#45;&gt;Node1</title>
<path fill="none" stroke="#9a32cd" stroke-dasharray="5,2" d="M342.418,-86.7199C378.329,-83.8651 422.266,-80.3722 456.821,-77.6251"/>
<polygon fill="#9a32cd" stroke="#9a32cd" points="341.726,-83.2638 332.035,-87.5453 342.281,-90.2418 341.726,-83.2638"/>
<text text-anchor="middle" x="397" y="-89" font-family="Helvetica,sans-Serif" font-size="10.00"> Ranges_Random</text>
</g>
<!-- Node3 -->
<g id="node3" class="node"><title>Node3</title>
<g id="a_node3"><a xlink:href="classant_1_1interval.html" target="_top" xlink:title="ant::interval\&lt; double \&gt;">
<polygon fill="white" stroke="black" points="0,-108.5 0,-127.5 128,-127.5 128,-108.5 0,-108.5"/>
<text text-anchor="middle" x="64" y="-115.5" font-family="Helvetica,sans-Serif" font-size="10.00">ant::interval&lt; double &gt;</text>
</a>
</g>
</g>
<!-- Node3&#45;&gt;Node1 -->
<g id="edge3" class="edge"><title>Node3&#45;&gt;Node1</title>
<path fill="none" stroke="#9a32cd" stroke-dasharray="5,2" d="M138.005,-123.325C214.333,-126.901 336.978,-126.996 439,-101 452.217,-97.6321 466.33,-92.7965 478.761,-88.0889"/>
<polygon fill="#9a32cd" stroke="#9a32cd" points="138.173,-119.829 128.01,-122.824 137.822,-126.82 138.173,-119.829"/>
<text text-anchor="middle" x="275" y="-171" font-family="Helvetica,sans-Serif" font-size="10.00"> Range_Prompt</text>
<text text-anchor="middle" x="275" y="-160" font-family="Helvetica,sans-Serif" font-size="10.00">Cut_EMB_prob</text>
<text text-anchor="middle" x="275" y="-149" font-family="Helvetica,sans-Serif" font-size="10.00">Cut_MMAngle</text>
<text text-anchor="middle" x="275" y="-138" font-family="Helvetica,sans-Serif" font-size="10.00">Cut_MM</text>
<text text-anchor="middle" x="275" y="-127" font-family="Helvetica,sans-Serif" font-size="10.00">Cut_ProtonCopl</text>
</g>
<!-- Node3&#45;&gt;Node2 -->
<g id="edge2" class="edge"><title>Node3&#45;&gt;Node2</title>
<path fill="none" stroke="#9a32cd" stroke-dasharray="5,2" d="M138.468,-108.86C164.483,-105.624 193.32,-102.037 217.684,-99.0059"/>
<polygon fill="#9a32cd" stroke="#9a32cd" points="137.765,-105.421 128.274,-110.129 138.63,-112.367 137.765,-105.421"/>
<text text-anchor="middle" x="170.5" y="-111" font-family="Helvetica,sans-Serif" font-size="10.00"> elements</text>
</g>
<!-- Node4 -->
<g id="node4" class="node"><title>Node4</title>
<g id="a_node4"><a xlink:title="STL class. ">
<polygon fill="white" stroke="#bfbfbf" points="242.5,-38.5 242.5,-57.5 307.5,-57.5 307.5,-38.5 242.5,-38.5"/>
<text text-anchor="middle" x="275" y="-45.5" font-family="Helvetica,sans-Serif" font-size="10.00">std::string</text>
</a>
</g>
</g>
<!-- Node4&#45;&gt;Node1 -->
<g id="edge4" class="edge"><title>Node4&#45;&gt;Node1</title>
<path fill="none" stroke="#9a32cd" stroke-dasharray="5,2" d="M317.722,-52.3403C350.655,-55.7689 397.763,-60.6792 439,-65 444.806,-65.6083 450.861,-66.2439 456.908,-66.8793"/>
<polygon fill="#9a32cd" stroke="#9a32cd" points="317.862,-48.836 307.554,-51.2818 317.137,-55.7984 317.862,-48.836"/>
<text text-anchor="middle" x="397" y="-68" font-family="Helvetica,sans-Serif" font-size="10.00"> Tree_Name</text>
</g>
<!-- Node5 -->
<g id="node5" class="node"><title>Node5</title>
<g id="a_node5"><a xlink:title="STL class. ">
<polygon fill="white" stroke="#bfbfbf" points="12.5,-33 12.5,-63 115.5,-63 115.5,-33 12.5,-33"/>
<text text-anchor="start" x="20.5" y="-51" font-family="Helvetica,sans-Serif" font-size="10.00">std::basic_string&lt;</text>
<text text-anchor="middle" x="64" y="-40" font-family="Helvetica,sans-Serif" font-size="10.00"> char &gt;</text>
</a>
</g>
</g>
<!-- Node5&#45;&gt;Node4 -->
<g id="edge5" class="edge"><title>Node5&#45;&gt;Node4</title>
<path fill="none" stroke="midnightblue" d="M126.07,-48C164.172,-48 211.645,-48 242.374,-48"/>
<polygon fill="midnightblue" stroke="midnightblue" points="125.593,-44.5001 115.593,-48 125.593,-51.5001 125.593,-44.5001"/>
</g>
<!-- Node6 -->
<g id="node6" class="node"><title>Node6</title>
<g id="a_node6"><a xlink:href="classant_1_1interval.html" target="_top" xlink:title="ant::interval\&lt; size_t \&gt;">
<polygon fill="white" stroke="black" points="213,-0.5 213,-19.5 337,-19.5 337,-0.5 213,-0.5"/>
<text text-anchor="middle" x="275" y="-7.5" font-family="Helvetica,sans-Serif" font-size="10.00">ant::interval&lt; size_t &gt;</text>
</a>
</g>
</g>
<!-- Node6&#45;&gt;Node1 -->
<g id="edge6" class="edge"><title>Node6&#45;&gt;Node1</title>
<path fill="none" stroke="#9a32cd" stroke-dasharray="5,2" d="M347.252,-13.3409C376.259,-16.1934 409.772,-21.4277 439,-31 458.341,-37.3342 478.418,-48.6676 493.076,-57.9662"/>
<polygon fill="#9a32cd" stroke="#9a32cd" points="347.469,-9.84634 337.194,-12.4281 346.836,-16.8177 347.469,-9.84634"/>
<text text-anchor="middle" x="397" y="-45" font-family="Helvetica,sans-Serif" font-size="10.00"> Cut_NCands</text>
<text text-anchor="middle" x="397" y="-34" font-family="Helvetica,sans-Serif" font-size="10.00">Cut_NNeutr</text>
</g>
</g>
</svg>
