<?xml version="1.0" encoding="UTF-8" standalone="no"?>
<!DOCTYPE svg PUBLIC "-//W3C//DTD SVG 1.1//EN"
 "http://www.w3.org/Graphics/SVG/1.1/DTD/svg11.dtd">
<!-- Generated by graphviz version 2.38.0 (20140413.2041)
 -->
<!-- Title: ant::expconfig::detector::TAPS Pages: 1 -->
<svg width="605pt" height="137pt"
 viewBox="0.00 0.00 605.00 137.00" xmlns="http://www.w3.org/2000/svg" xmlns:xlink="http://www.w3.org/1999/xlink">
<g id="graph0" class="graph" transform="scale(1 1) rotate(0) translate(4 133)">
<title>ant::expconfig::detector::TAPS</title>
<polygon fill="white" stroke="none" points="-4,4 -4,-133 601,-133 601,4 -4,4"/>
<!-- Node0 -->
<g id="node1" class="node"><title>Node0</title>
<polygon fill="#bfbfbf" stroke="black" points="299,-49.5 299,-79.5 430,-79.5 430,-49.5 299,-49.5"/>
<text text-anchor="start" x="307" y="-67.5" font-family="Helvetica,sans-Serif" font-size="10.00">ant::expconfig::detector</text>
<text text-anchor="middle" x="364.5" y="-56.5" font-family="Helvetica,sans-Serif" font-size="10.00">::TAPS</text>
</g>
<!-- Node4 -->
<g id="node5" class="node"><title>Node4</title>
<g id="a_node5"><a xlink:href="structant_1_1expconfig_1_1detector_1_1_t_a_p_s__2007.html" target="_top" xlink:title="ant::expconfig::detector\l::TAPS_2007">
<polygon fill="white" stroke="black" points="466,-98.5 466,-128.5 597,-128.5 597,-98.5 466,-98.5"/>
<text text-anchor="start" x="474" y="-116.5" font-family="Helvetica,sans-Serif" font-size="10.00">ant::expconfig::detector</text>
<text text-anchor="middle" x="531.5" y="-105.5" font-family="Helvetica,sans-Serif" font-size="10.00">::TAPS_2007</text>
</a>
</g>
</g>
<!-- Node0&#45;&gt;Node4 -->
<g id="edge4" class="edge"><title>Node0&#45;&gt;Node4</title>
<path fill="none" stroke="midnightblue" d="M426.001,-82.467C443.68,-87.717 462.813,-93.3989 479.816,-98.4484"/>
<polygon fill="midnightblue" stroke="midnightblue" points="426.934,-79.0931 416.352,-79.6014 424.942,-85.8035 426.934,-79.0931"/>
</g>
<!-- Node5 -->
<g id="node6" class="node"><title>Node5</title>
<g id="a_node6"><a xlink:href="structant_1_1expconfig_1_1detector_1_1_t_a_p_s__2009__03.html" target="_top" xlink:title="ant::expconfig::detector\l::TAPS_2009_03">
<polygon fill="white" stroke="black" points="466,-49.5 466,-79.5 597,-79.5 597,-49.5 466,-49.5"/>
<text text-anchor="start" x="474" y="-67.5" font-family="Helvetica,sans-Serif" font-size="10.00">ant::expconfig::detector</text>
<text text-anchor="middle" x="531.5" y="-56.5" font-family="Helvetica,sans-Serif" font-size="10.00">::TAPS_2009_03</text>
</a>
</g>
</g>
<!-- Node0&#45;&gt;Node5 -->
<g id="edge5" class="edge"><title>Node0&#45;&gt;Node5</title>
<path fill="none" stroke="midnightblue" d="M440.239,-64.5C448.821,-64.5 457.516,-64.5 465.948,-64.5"/>
<polygon fill="midnightblue" stroke="midnightblue" points="440.239,-61.0001 430.239,-64.5 440.239,-68.0001 440.239,-61.0001"/>
</g>
<!-- Node6 -->
<g id="node7" class="node"><title>Node6</title>
<g id="a_node7"><a xlink:href="structant_1_1expconfig_1_1detector_1_1_t_a_p_s__2013__11.html" target="_top" xlink:title="ant::expconfig::detector\l::TAPS_2013_11">
<polygon fill="white" stroke="black" points="466,-0.5 466,-30.5 597,-30.5 597,-0.5 466,-0.5"/>
<text text-anchor="start" x="474" y="-18.5" font-family="Helvetica,sans-Serif" font-size="10.00">ant::expconfig::detector</text>
<text text-anchor="middle" x="531.5" y="-7.5" font-family="Helvetica,sans-Serif" font-size="10.00">::TAPS_2013_11</text>
</a>
</g>
</g>
<!-- Node0&#45;&gt;Node6 -->
<g id="edge6" class="edge"><title>Node0&#45;&gt;Node6</title>
<path fill="none" stroke="midnightblue" d="M426.001,-46.533C443.68,-41.283 462.813,-35.6011 479.816,-30.5516"/>
<polygon fill="midnightblue" stroke="midnightblue" points="424.942,-43.1965 416.352,-49.3986 426.934,-49.9069 424.942,-43.1965"/>
</g>
<!-- Node1 -->
<g id="node2" class="node"><title>Node1</title>
<g id="a_node2"><a xlink:href="structant_1_1_cluster_detector__t.html" target="_top" xlink:title="ant::ClusterDetector_t">
<polygon fill="white" stroke="black" points="132.5,-74 132.5,-93 255.5,-93 255.5,-74 132.5,-74"/>
<text text-anchor="middle" x="194" y="-81" font-family="Helvetica,sans-Serif" font-size="10.00">ant::ClusterDetector_t</text>
</a>
</g>
</g>
<!-- Node1&#45;&gt;Node0 -->
<g id="edge1" class="edge"><title>Node1&#45;&gt;Node0</title>
<path fill="none" stroke="midnightblue" d="M265.773,-75.5196C276.717,-74.2856 287.973,-73.0164 298.775,-71.7983"/>
<polygon fill="midnightblue" stroke="midnightblue" points="265.377,-72.042 255.832,-76.6406 266.162,-78.9979 265.377,-72.042"/>
</g>
<!-- Node2 -->
<g id="node3" class="node"><title>Node2</title>
<g id="a_node3"><a xlink:href="structant_1_1_detector__t.html" target="_top" xlink:title="The Detector_t struct is the minimal base class for all detectors. ">
<polygon fill="white" stroke="black" points="0,-74 0,-93 89,-93 89,-74 0,-74"/>
<text text-anchor="middle" x="44.5" y="-81" font-family="Helvetica,sans-Serif" font-size="10.00">ant::Detector_t</text>
</a>
</g>
</g>
<!-- Node2&#45;&gt;Node1 -->
<g id="edge2" class="edge"><title>Node2&#45;&gt;Node1</title>
<path fill="none" stroke="midnightblue" d="M99.4162,-83.5C110.137,-83.5 121.461,-83.5 132.388,-83.5"/>
<polygon fill="midnightblue" stroke="midnightblue" points="99.3555,-80.0001 89.3555,-83.5 99.3555,-87.0001 99.3555,-80.0001"/>
</g>
<!-- Node3 -->
<g id="node4" class="node"><title>Node3</title>
<g id="a_node4"><a xlink:href="classant_1_1_unpacker_acqu_config.html" target="_top" xlink:title="ant::UnpackerAcquConfig">
<polygon fill="white" stroke="black" points="125,-36 125,-55 263,-55 263,-36 125,-36"/>
<text text-anchor="middle" x="194" y="-43" font-family="Helvetica,sans-Serif" font-size="10.00">ant::UnpackerAcquConfig</text>
</a>
</g>
</g>
<!-- Node3&#45;&gt;Node0 -->
<g id="edge3" class="edge"><title>Node3&#45;&gt;Node0</title>
<path fill="none" stroke="midnightblue" d="M273.074,-54.3036C281.665,-55.2723 290.343,-56.2508 298.746,-57.1984"/>
<polygon fill="midnightblue" stroke="midnightblue" points="273.379,-50.8159 263.05,-53.1733 272.595,-57.7718 273.379,-50.8159"/>
</g>
</g>
</svg>
