<?xml version="1.0" encoding="UTF-8" standalone="no"?>
<!DOCTYPE svg PUBLIC "-//W3C//DTD SVG 1.1//EN"
 "http://www.w3.org/Graphics/SVG/1.1/DTD/svg11.dtd">
<!-- Generated by graphviz version 2.38.0 (20140413.2041)
 -->
<!-- Title: ant::TTaggerHit Pages: 1 -->
<svg width="151pt" height="173pt"
 viewBox="0.00 0.00 151.00 173.00" xmlns="http://www.w3.org/2000/svg" xmlns:xlink="http://www.w3.org/1999/xlink">
<g id="graph0" class="graph" transform="scale(1 1) rotate(0) translate(4 169)">
<title>ant::TTaggerHit</title>
<polygon fill="white" stroke="none" points="-4,4 -4,-169 147,-169 147,4 -4,4"/>
<!-- Node1 -->
<g id="node1" class="node"><title>Node1</title>
<polygon fill="#bfbfbf" stroke="black" points="27,-0.5 27,-19.5 116,-19.5 116,-0.5 27,-0.5"/>
<text text-anchor="middle" x="71.5" y="-7.5" font-family="Helvetica,sans-Serif" font-size="10.00">ant::TTaggerHit</text>
</g>
<!-- Node2 -->
<g id="node2" class="node"><title>Node2</title>
<polygon fill="white" stroke="#bfbfbf" points="3,-67.5 3,-97.5 140,-97.5 140,-67.5 3,-67.5"/>
<text text-anchor="start" x="11" y="-85.5" font-family="Helvetica,sans-Serif" font-size="10.00">std::vector&lt; ant::TTagger</text>
<text text-anchor="middle" x="71.5" y="-74.5" font-family="Helvetica,sans-Serif" font-size="10.00">Hit::Electron_t &gt;</text>
</g>
<!-- Node2&#45;&gt;Node1 -->
<g id="edge1" class="edge"><title>Node2&#45;&gt;Node1</title>
<path fill="none" stroke="#9a32cd" stroke-dasharray="5,2" d="M71.5,-57.0913C71.5,-44.2136 71.5,-29.1974 71.5,-19.8932"/>
<polygon fill="#9a32cd" stroke="#9a32cd" points="68.0001,-57.2332 71.5,-67.2333 75.0001,-57.2333 68.0001,-57.2332"/>
<text text-anchor="middle" x="95.5" y="-41" font-family="Helvetica,sans-Serif" font-size="10.00"> Electrons</text>
</g>
<!-- Node3 -->
<g id="node3" class="node"><title>Node3</title>
<g id="a_node3"><a xlink:href="structant_1_1_t_tagger_hit_1_1_electron__t.html" target="_top" xlink:title="ant::TTaggerHit::Electron_t">
<polygon fill="white" stroke="black" points="0,-145.5 0,-164.5 143,-164.5 143,-145.5 0,-145.5"/>
<text text-anchor="middle" x="71.5" y="-152.5" font-family="Helvetica,sans-Serif" font-size="10.00">ant::TTaggerHit::Electron_t</text>
</a>
</g>
</g>
<!-- Node3&#45;&gt;Node2 -->
<g id="edge2" class="edge"><title>Node3&#45;&gt;Node2</title>
<path fill="none" stroke="#9a32cd" stroke-dasharray="5,2" d="M71.5,-135.236C71.5,-123.408 71.5,-108.383 71.5,-97.5762"/>
<polygon fill="#9a32cd" stroke="#9a32cd" points="68.0001,-135.355 71.5,-145.355 75.0001,-135.355 68.0001,-135.355"/>
<text text-anchor="middle" x="96" y="-119" font-family="Helvetica,sans-Serif" font-size="10.00"> elements</text>
</g>
</g>
</svg>
