<?xml version="1.0" encoding="UTF-8" standalone="no"?>
<!DOCTYPE svg PUBLIC "-//W3C//DTD SVG 1.1//EN"
 "http://www.w3.org/Graphics/SVG/1.1/DTD/svg11.dtd">
<!-- Generated by graphviz version 2.38.0 (20140413.2041)
 -->
<!-- Title: ant::WrapTTree::ROOTArray&lt; T &gt; Pages: 1 -->
<svg width="264pt" height="95pt"
 viewBox="0.00 0.00 264.00 95.00" xmlns="http://www.w3.org/2000/svg" xmlns:xlink="http://www.w3.org/1999/xlink">
<g id="graph0" class="graph" transform="scale(1 1) rotate(0) translate(4 91)">
<title>ant::WrapTTree::ROOTArray&lt; T &gt;</title>
<polygon fill="white" stroke="none" points="-4,4 -4,-91 260,-91 260,4 -4,4"/>
<!-- Node0 -->
<g id="node1" class="node"><title>Node0</title>
<polygon fill="#bfbfbf" stroke="black" points="30,-0.5 30,-19.5 201,-19.5 201,-0.5 30,-0.5"/>
<text text-anchor="middle" x="115.5" y="-7.5" font-family="Helvetica,sans-Serif" font-size="10.00">ant::WrapTTree::ROOTArray&lt; T &gt;</text>
</g>
<!-- Node1 -->
<g id="node2" class="node"><title>Node1</title>
<g id="a_node2"><a xlink:title="STL class. ">
<polygon fill="white" stroke="#bfbfbf" points="0,-62 0,-81 95,-81 95,-62 0,-62"/>
<text text-anchor="middle" x="47.5" y="-69" font-family="Helvetica,sans-Serif" font-size="10.00">std::vector&lt; T &gt;</text>
</a>
</g>
</g>
<!-- Node1&#45;&gt;Node0 -->
<g id="edge1" class="edge"><title>Node1&#45;&gt;Node0</title>
<path fill="none" stroke="midnightblue" d="M65.0433,-55.1496C78.0076,-43.8058 95.1788,-28.7811 105.775,-19.5091"/>
<polygon fill="midnightblue" stroke="midnightblue" points="62.4638,-52.756 57.2427,-61.9751 67.0733,-58.024 62.4638,-52.756"/>
</g>
<!-- Node2 -->
<g id="node3" class="node"><title>Node2</title>
<polygon fill="white" stroke="#bfbfbf" points="113,-56.5 113,-86.5 256,-86.5 256,-56.5 113,-56.5"/>
<text text-anchor="start" x="121" y="-74.5" font-family="Helvetica,sans-Serif" font-size="10.00">ant::WrapTTree::ROOTArray</text>
<text text-anchor="middle" x="184.5" y="-63.5" font-family="Helvetica,sans-Serif" font-size="10.00">_traits</text>
</g>
<!-- Node2&#45;&gt;Node0 -->
<g id="edge2" class="edge"><title>Node2&#45;&gt;Node0</title>
<path fill="none" stroke="midnightblue" d="M160.26,-49.5972C148.336,-39.3153 134.614,-27.4824 125.54,-19.6578"/>
<polygon fill="midnightblue" stroke="midnightblue" points="158.289,-52.5194 168.148,-56.3993 162.86,-47.2182 158.289,-52.5194"/>
</g>
</g>
</svg>
