<?xml version="1.0" encoding="UTF-8" standalone="no"?>
<!DOCTYPE svg PUBLIC "-//W3C//DTD SVG 1.1//EN"
 "http://www.w3.org/Graphics/SVG/1.1/DTD/svg11.dtd">
<!-- Generated by graphviz version 2.38.0 (20140413.2041)
 -->
<!-- Title: ant::analysis::utils::UncertaintyModels::ConstantRelativeE Pages: 1 -->
<svg width="126pt" height="195pt"
 viewBox="0.00 0.00 126.00 195.00" xmlns="http://www.w3.org/2000/svg" xmlns:xlink="http://www.w3.org/1999/xlink">
<g id="graph0" class="graph" transform="scale(1 1) rotate(0) translate(4 191)">
<title>ant::analysis::utils::UncertaintyModels::ConstantRelativeE</title>
<polygon fill="white" stroke="none" points="-4,4 -4,-191 122,-191 122,4 -4,4"/>
<!-- Node0 -->
<g id="node1" class="node"><title>Node0</title>
<polygon fill="#bfbfbf" stroke="black" points="0,-0.5 0,-41.5 118,-41.5 118,-0.5 0,-0.5"/>
<text text-anchor="start" x="8" y="-29.5" font-family="Helvetica,sans-Serif" font-size="10.00">ant::analysis::utils</text>
<text text-anchor="start" x="8" y="-18.5" font-family="Helvetica,sans-Serif" font-size="10.00">::UncertaintyModels::</text>
<text text-anchor="middle" x="59" y="-7.5" font-family="Helvetica,sans-Serif" font-size="10.00">ConstantRelativeE</text>
</g>
<!-- Node1 -->
<g id="node2" class="node"><title>Node1</title>
<g id="a_node2"><a xlink:href="structant_1_1analysis_1_1utils_1_1_uncertainty_models_1_1_constant.html" target="_top" xlink:title="Constant/static kin fitter uncertainty model. has a fixed value for {cb,taps}{photon,proton}{E,theta,phi}. ">
<polygon fill="white" stroke="black" points="0,-78.5 0,-119.5 118,-119.5 118,-78.5 0,-78.5"/>
<text text-anchor="start" x="8" y="-107.5" font-family="Helvetica,sans-Serif" font-size="10.00">ant::analysis::utils</text>
<text text-anchor="start" x="8" y="-96.5" font-family="Helvetica,sans-Serif" font-size="10.00">::UncertaintyModels::</text>
<text text-anchor="middle" x="59" y="-85.5" font-family="Helvetica,sans-Serif" font-size="10.00">Constant</text>
</a>
</g>
</g>
<!-- Node1&#45;&gt;Node0 -->
<g id="edge1" class="edge"><title>Node1&#45;&gt;Node0</title>
<path fill="none" stroke="midnightblue" d="M59,-68.2965C59,-59.3009 59,-49.6532 59,-41.5056"/>
<polygon fill="midnightblue" stroke="midnightblue" points="55.5001,-68.4281 59,-78.4281 62.5001,-68.4281 55.5001,-68.4281"/>
</g>
<!-- Node2 -->
<g id="node3" class="node"><title>Node2</title>
<g id="a_node3"><a xlink:href="classant_1_1analysis_1_1utils_1_1_uncertainty_model.html" target="_top" xlink:title="Virtual base class for different Uncertainty Models for fitter. Implement at least the GetSigmas() me...">
<polygon fill="white" stroke="black" points="5.5,-156.5 5.5,-186.5 112.5,-186.5 112.5,-156.5 5.5,-156.5"/>
<text text-anchor="start" x="13.5" y="-174.5" font-family="Helvetica,sans-Serif" font-size="10.00">ant::analysis::utils</text>
<text text-anchor="middle" x="59" y="-163.5" font-family="Helvetica,sans-Serif" font-size="10.00">::UncertaintyModel</text>
</a>
</g>
</g>
<!-- Node2&#45;&gt;Node1 -->
<g id="edge2" class="edge"><title>Node2&#45;&gt;Node1</title>
<path fill="none" stroke="midnightblue" d="M59,-145.982C59,-137.347 59,-127.762 59,-119.588"/>
<polygon fill="midnightblue" stroke="midnightblue" points="55.5001,-146.233 59,-156.233 62.5001,-146.233 55.5001,-146.233"/>
</g>
</g>
</svg>
