<?xml version="1.0" encoding="UTF-8" standalone="no"?>
<!DOCTYPE svg PUBLIC "-//W3C//DTD SVG 1.1//EN"
 "http://www.w3.org/Graphics/SVG/1.1/DTD/svg11.dtd">
<!-- Generated by graphviz version 2.38.0 (20140413.2041)
 -->
<!-- Title: DataMC_Splitter Pages: 1 -->
<svg width="134pt" height="106pt"
 viewBox="0.00 0.00 134.00 106.00" xmlns="http://www.w3.org/2000/svg" xmlns:xlink="http://www.w3.org/1999/xlink">
<g id="graph0" class="graph" transform="scale(1 1) rotate(0) translate(4 102)">
<title>DataMC_Splitter</title>
<polygon fill="white" stroke="none" points="-4,4 -4,-102 130,-102 130,4 -4,4"/>
<!-- Node2 -->
<g id="node1" class="node"><title>Node2</title>
<polygon fill="#bfbfbf" stroke="black" points="15.5,-0.5 15.5,-19.5 110.5,-19.5 110.5,-0.5 15.5,-0.5"/>
<text text-anchor="middle" x="63" y="-7.5" font-family="Helvetica,sans-Serif" font-size="10.00">DataMC_Splitter</text>
</g>
<!-- Node3 -->
<g id="node2" class="node"><title>Node3</title>
<g id="a_node2"><a xlink:href="structant_1_1analysis_1_1plot_1_1cuttree_1_1_stacked_hists__t.html" target="_top" xlink:title="ant::analysis::plot\l::cuttree::StackedHists\l_t\&lt; Hist_t \&gt;">
<polygon fill="white" stroke="black" points="0,-56.5 0,-97.5 126,-97.5 126,-56.5 0,-56.5"/>
<text text-anchor="start" x="8" y="-85.5" font-family="Helvetica,sans-Serif" font-size="10.00">ant::analysis::plot</text>
<text text-anchor="start" x="8" y="-74.5" font-family="Helvetica,sans-Serif" font-size="10.00">::cuttree::StackedHists</text>
<text text-anchor="middle" x="63" y="-63.5" font-family="Helvetica,sans-Serif" font-size="10.00">_t&lt; Hist_t &gt;</text>
</a>
</g>
</g>
<!-- Node3&#45;&gt;Node2 -->
<g id="edge1" class="edge"><title>Node3&#45;&gt;Node2</title>
<path fill="none" stroke="midnightblue" d="M63,-46.2632C63,-36.5592 63,-26.5242 63,-19.6525"/>
<polygon fill="midnightblue" stroke="midnightblue" points="59.5001,-46.4978 63,-56.4979 66.5001,-46.4979 59.5001,-46.4978"/>
</g>
</g>
</svg>
