<?xml version="1.0" encoding="UTF-8" standalone="no"?>
<!DOCTYPE svg PUBLIC "-//W3C//DTD SVG 1.1//EN"
 "http://www.w3.org/Graphics/SVG/1.1/DTD/svg11.dtd">
<!-- Generated by graphviz version 2.38.0 (20140413.2041)
 -->
<!-- Title: ant::analysis::slowcontrol::processor::AcquScalerScalar Pages: 1 -->
<svg width="709pt" height="88pt"
 viewBox="0.00 0.00 709.00 88.00" xmlns="http://www.w3.org/2000/svg" xmlns:xlink="http://www.w3.org/1999/xlink">
<g id="graph0" class="graph" transform="scale(1 1) rotate(0) translate(4 84)">
<title>ant::analysis::slowcontrol::processor::AcquScalerScalar</title>
<polygon fill="white" stroke="none" points="-4,4 -4,-84 705,-84 705,4 -4,4"/>
<!-- Node0 -->
<g id="node1" class="node"><title>Node0</title>
<polygon fill="#bfbfbf" stroke="black" points="369,-24.5 369,-54.5 529,-54.5 529,-24.5 369,-24.5"/>
<text text-anchor="start" x="377" y="-42.5" font-family="Helvetica,sans-Serif" font-size="10.00">ant::analysis::slowcontrol</text>
<text text-anchor="middle" x="449" y="-31.5" font-family="Helvetica,sans-Serif" font-size="10.00">::processor::AcquScalerScalar</text>
</g>
<!-- Node3 -->
<g id="node4" class="node"><title>Node3</title>
<g id="a_node4"><a xlink:href="structant_1_1analysis_1_1slowcontrol_1_1processor_1_1_e_p_t___or.html" target="_top" xlink:title="ant::analysis::slowcontrol\l::processor::EPT_Or">
<polygon fill="white" stroke="black" points="565,-49.5 565,-79.5 701,-79.5 701,-49.5 565,-49.5"/>
<text text-anchor="start" x="573" y="-67.5" font-family="Helvetica,sans-Serif" font-size="10.00">ant::analysis::slowcontrol</text>
<text text-anchor="middle" x="633" y="-56.5" font-family="Helvetica,sans-Serif" font-size="10.00">::processor::EPT_Or</text>
</a>
</g>
</g>
<!-- Node0&#45;&gt;Node3 -->
<g id="edge3" class="edge"><title>Node0&#45;&gt;Node3</title>
<path fill="none" stroke="midnightblue" d="M539.118,-51.7415C547.733,-52.9248 556.37,-54.1113 564.721,-55.2583"/>
<polygon fill="midnightblue" stroke="midnightblue" points="539.417,-48.2498 529.034,-50.3563 538.464,-55.1847 539.417,-48.2498"/>
</g>
<!-- Node4 -->
<g id="node5" class="node"><title>Node4</title>
<g id="a_node5"><a xlink:href="structant_1_1analysis_1_1slowcontrol_1_1processor_1_1_tagger___or.html" target="_top" xlink:title="ant::analysis::slowcontrol\l::processor::Tagger_Or">
<polygon fill="white" stroke="black" points="565,-0.5 565,-30.5 701,-30.5 701,-0.5 565,-0.5"/>
<text text-anchor="start" x="573" y="-18.5" font-family="Helvetica,sans-Serif" font-size="10.00">ant::analysis::slowcontrol</text>
<text text-anchor="middle" x="633" y="-7.5" font-family="Helvetica,sans-Serif" font-size="10.00">::processor::Tagger_Or</text>
</a>
</g>
</g>
<!-- Node0&#45;&gt;Node4 -->
<g id="edge4" class="edge"><title>Node0&#45;&gt;Node4</title>
<path fill="none" stroke="midnightblue" d="M539.118,-27.7482C547.733,-26.6122 556.37,-25.4732 564.721,-24.372"/>
<polygon fill="midnightblue" stroke="midnightblue" points="538.49,-24.3005 529.034,-29.078 539.406,-31.2405 538.49,-24.3005"/>
</g>
<!-- Node1 -->
<g id="node2" class="node"><title>Node1</title>
<g id="a_node2"><a xlink:href="structant_1_1analysis_1_1slowcontrol_1_1processor_1_1_acqu_scaler_vector.html" target="_top" xlink:title="ant::analysis::slowcontrol\l::processor::AcquScalerVector">
<polygon fill="white" stroke="black" points="172,-24.5 172,-54.5 333,-54.5 333,-24.5 172,-24.5"/>
<text text-anchor="start" x="180" y="-42.5" font-family="Helvetica,sans-Serif" font-size="10.00">ant::analysis::slowcontrol</text>
<text text-anchor="middle" x="252.5" y="-31.5" font-family="Helvetica,sans-Serif" font-size="10.00">::processor::AcquScalerVector</text>
</a>
</g>
</g>
<!-- Node1&#45;&gt;Node0 -->
<g id="edge1" class="edge"><title>Node1&#45;&gt;Node0</title>
<path fill="none" stroke="midnightblue" d="M343.433,-39.5C351.889,-39.5 360.42,-39.5 368.767,-39.5"/>
<polygon fill="midnightblue" stroke="midnightblue" points="343.172,-36.0001 333.172,-39.5 343.172,-43.0001 343.172,-36.0001"/>
</g>
<!-- Node2 -->
<g id="node3" class="node"><title>Node2</title>
<g id="a_node3"><a xlink:href="structant_1_1analysis_1_1slowcontrol_1_1_processor.html" target="_top" xlink:title="ant::analysis::slowcontrol\l::Processor">
<polygon fill="white" stroke="black" points="0,-24.5 0,-54.5 136,-54.5 136,-24.5 0,-24.5"/>
<text text-anchor="start" x="8" y="-42.5" font-family="Helvetica,sans-Serif" font-size="10.00">ant::analysis::slowcontrol</text>
<text text-anchor="middle" x="68" y="-31.5" font-family="Helvetica,sans-Serif" font-size="10.00">::Processor</text>
</a>
</g>
</g>
<!-- Node2&#45;&gt;Node1 -->
<g id="edge2" class="edge"><title>Node2&#45;&gt;Node1</title>
<path fill="none" stroke="midnightblue" d="M146.346,-39.5C154.764,-39.5 163.343,-39.5 171.788,-39.5"/>
<polygon fill="midnightblue" stroke="midnightblue" points="146.179,-36.0001 136.179,-39.5 146.179,-43.0001 146.179,-36.0001"/>
</g>
</g>
</svg>
