<?xml version="1.0" encoding="UTF-8" standalone="no"?>
<!DOCTYPE svg PUBLIC "-//W3C//DTD SVG 1.1//EN"
 "http://www.w3.org/Graphics/SVG/1.1/DTD/svg11.dtd">
<!-- Generated by graphviz version 2.38.0 (20140413.2041)
 -->
<!-- Title: ant::analysis::physics::MCReconstructCheck::histgroup Pages: 1 -->
<svg width="1475pt" height="411pt"
 viewBox="0.00 0.00 1475.00 410.89" xmlns="http://www.w3.org/2000/svg" xmlns:xlink="http://www.w3.org/1999/xlink">
<g id="graph0" class="graph" transform="scale(1 1) rotate(0) translate(4 406.894)">
<title>ant::analysis::physics::MCReconstructCheck::histgroup</title>
<polygon fill="white" stroke="none" points="-4,4 -4,-406.894 1471,-406.894 1471,4 -4,4"/>
<!-- Node1 -->
<g id="node1" class="node"><title>Node1</title>
<polygon fill="#bfbfbf" stroke="black" points="1338,-154.394 1338,-195.394 1467,-195.394 1467,-154.394 1338,-154.394"/>
<text text-anchor="start" x="1346" y="-183.394" font-family="Helvetica,sans-Serif" font-size="10.00">ant::analysis::physics</text>
<text text-anchor="start" x="1346" y="-172.394" font-family="Helvetica,sans-Serif" font-size="10.00">::MCReconstructCheck::</text>
<text text-anchor="middle" x="1402.5" y="-161.394" font-family="Helvetica,sans-Serif" font-size="10.00">histgroup</text>
</g>
<!-- Node2 -->
<g id="node2" class="node"><title>Node2</title>
<g id="a_node2"><a xlink:title="STL class. ">
<polygon fill="white" stroke="#bfbfbf" points="140,-126.394 140,-145.394 205,-145.394 205,-126.394 140,-126.394"/>
<text text-anchor="middle" x="172.5" y="-133.394" font-family="Helvetica,sans-Serif" font-size="10.00">std::string</text>
</a>
</g>
</g>
<!-- Node2&#45;&gt;Node1 -->
<g id="edge1" class="edge"><title>Node2&#45;&gt;Node1</title>
<path fill="none" stroke="#9a32cd" stroke-dasharray="5,2" d="M177.944,-155.713C192.706,-215.807 245.987,-391.894 363.5,-391.894 363.5,-391.894 363.5,-391.894 1149,-391.894 1268.65,-391.894 1359.89,-250.014 1390.44,-195.701"/>
<polygon fill="#9a32cd" stroke="#9a32cd" points="181.265,-154.547 175.563,-145.617 174.452,-156.153 181.265,-154.547"/>
<text text-anchor="middle" x="767" y="-394.894" font-family="Helvetica,sans-Serif" font-size="10.00"> Prefix</text>
</g>
<!-- Node5 -->
<g id="node5" class="node"><title>Node5</title>
<g id="a_node5"><a xlink:href="structant_1_1hstack.html" target="_top" xlink:title="ant::hstack">
<polygon fill="white" stroke="black" points="1113,-165.394 1113,-184.394 1183,-184.394 1183,-165.394 1113,-165.394"/>
<text text-anchor="middle" x="1148" y="-172.394" font-family="Helvetica,sans-Serif" font-size="10.00">ant::hstack</text>
</a>
</g>
</g>
<!-- Node2&#45;&gt;Node5 -->
<g id="edge12" class="edge"><title>Node2&#45;&gt;Node5</title>
<path fill="none" stroke="#9a32cd" stroke-dasharray="5,2" d="M212.425,-123.429C250.515,-112.349 310.387,-97.8942 363.5,-97.8942 363.5,-97.8942 363.5,-97.8942 903,-97.8942 903.692,-97.8942 1051.49,-144.657 1116.69,-165.298"/>
<polygon fill="#9a32cd" stroke="#9a32cd" points="211.343,-120.099 202.756,-126.305 213.339,-126.808 211.343,-120.099"/>
<text text-anchor="middle" x="649" y="-100.894" font-family="Helvetica,sans-Serif" font-size="10.00"> origtitle</text>
</g>
<!-- Node9 -->
<g id="node9" class="node"><title>Node9</title>
<g id="a_node9"><a xlink:href="structant_1_1hstack_1_1hist__t.html" target="_top" xlink:title="ant::hstack::hist_t">
<polygon fill="white" stroke="black" points="598,-4.39417 598,-23.3942 700,-23.3942 700,-4.39417 598,-4.39417"/>
<text text-anchor="middle" x="649" y="-11.3942" font-family="Helvetica,sans-Serif" font-size="10.00">ant::hstack::hist_t</text>
</a>
</g>
</g>
<!-- Node2&#45;&gt;Node9 -->
<g id="edge11" class="edge"><title>Node2&#45;&gt;Node9</title>
<path fill="none" stroke="#9a32cd" stroke-dasharray="5,2" d="M180.346,-116.87C188.084,-97.7267 202.352,-68.453 223,-49.8942 250.823,-24.8862 263.532,-24.2371 300,-15.8942 403.804,7.85382 529.627,-0.150057 597.946,-7.44152"/>
<polygon fill="#9a32cd" stroke="#9a32cd" points="177.031,-115.741 176.72,-126.331 183.567,-118.246 177.031,-115.741"/>
<text text-anchor="middle" x="364.5" y="-18.8942" font-family="Helvetica,sans-Serif" font-size="10.00"> Path</text>
</g>
<!-- Node10 -->
<g id="node10" class="node"><title>Node10</title>
<g id="a_node10"><a xlink:href="structant_1_1analysis_1_1plot_1_1histstyle_1_1_mod_option__t.html" target="_top" xlink:title="ant::analysis::plot\l::histstyle::ModOption_t">
<polygon fill="white" stroke="black" points="300,-36.8942 300,-66.8942 429,-66.8942 429,-36.8942 300,-36.8942"/>
<text text-anchor="start" x="308" y="-54.8942" font-family="Helvetica,sans-Serif" font-size="10.00">ant::analysis::plot</text>
<text text-anchor="middle" x="364.5" y="-43.8942" font-family="Helvetica,sans-Serif" font-size="10.00">::histstyle::ModOption_t</text>
</a>
</g>
</g>
<!-- Node2&#45;&gt;Node10 -->
<g id="edge10" class="edge"><title>Node2&#45;&gt;Node10</title>
<path fill="none" stroke="#9a32cd" stroke-dasharray="5,2" d="M183.015,-117.204C191.462,-102.648 205.218,-83.2321 223,-72.8942 245.921,-59.5688 274.367,-53.7317 299.656,-51.4435"/>
<polygon fill="#9a32cd" stroke="#9a32cd" points="179.75,-115.88 178.031,-126.335 185.895,-119.234 179.75,-115.88"/>
<text text-anchor="middle" x="252.5" y="-75.8942" font-family="Helvetica,sans-Serif" font-size="10.00"> DrawOption</text>
</g>
<!-- Node15 -->
<g id="node15" class="node"><title>Node15</title>
<polygon fill="white" stroke="#bfbfbf" points="588,-165.394 588,-206.394 710,-206.394 710,-165.394 588,-165.394"/>
<text text-anchor="start" x="596" y="-194.394" font-family="Helvetica,sans-Serif" font-size="10.00">std::map&lt; std::string,</text>
<text text-anchor="start" x="596" y="-183.394" font-family="Helvetica,sans-Serif" font-size="10.00"> ant::hstack::options</text>
<text text-anchor="middle" x="649" y="-172.394" font-family="Helvetica,sans-Serif" font-size="10.00">_t::hist_t &gt;</text>
</g>
<!-- Node2&#45;&gt;Node15 -->
<g id="edge21" class="edge"><title>Node2&#45;&gt;Node15</title>
<path fill="none" stroke="#9a32cd" stroke-dasharray="5,2" d="M211.05,-148.175C215.055,-149.214 219.093,-150.15 223,-150.894 351.545,-175.376 505.182,-182.736 587.986,-184.947"/>
<polygon fill="#9a32cd" stroke="#9a32cd" points="211.826,-144.758 201.252,-145.432 209.938,-151.499 211.826,-144.758"/>
<text text-anchor="middle" x="364.5" y="-179.894" font-family="Helvetica,sans-Serif" font-size="10.00"> keys</text>
</g>
<!-- Node16 -->
<g id="node16" class="node"><title>Node16</title>
<g id="a_node16"><a xlink:href="structant_1_1hstack_1_1options__t_1_1hist__t.html" target="_top" xlink:title="ant::hstack::options\l_t::hist_t">
<polygon fill="white" stroke="black" points="309,-211.894 309,-241.894 420,-241.894 420,-211.894 309,-211.894"/>
<text text-anchor="start" x="317" y="-229.894" font-family="Helvetica,sans-Serif" font-size="10.00">ant::hstack::options</text>
<text text-anchor="middle" x="364.5" y="-218.894" font-family="Helvetica,sans-Serif" font-size="10.00">_t::hist_t</text>
</a>
</g>
</g>
<!-- Node2&#45;&gt;Node16 -->
<g id="edge20" class="edge"><title>Node2&#45;&gt;Node16</title>
<path fill="none" stroke="#9a32cd" stroke-dasharray="5,2" d="M183.996,-154.295C192.706,-167.876 206.341,-185.701 223,-195.894 248.675,-211.603 281.309,-219.392 308.662,-223.236"/>
<polygon fill="#9a32cd" stroke="#9a32cd" points="186.964,-152.439 178.775,-145.716 180.984,-156.078 186.964,-152.439"/>
<text text-anchor="middle" x="252.5" y="-221.894" font-family="Helvetica,sans-Serif" font-size="10.00"> AddTo</text>
</g>
<!-- Node19 -->
<g id="node19" class="node"><title>Node19</title>
<polygon fill="white" stroke="#bfbfbf" points="447,-126.394 447,-145.394 569,-145.394 569,-126.394 447,-126.394"/>
<text text-anchor="middle" x="508" y="-133.394" font-family="Helvetica,sans-Serif" font-size="10.00">std::list&lt; std::string &gt;</text>
</g>
<!-- Node2&#45;&gt;Node19 -->
<g id="edge26" class="edge"><title>Node2&#45;&gt;Node19</title>
<path fill="none" stroke="#9a32cd" stroke-dasharray="5,2" d="M215.503,-135.894C273.888,-135.894 379.913,-135.894 446.728,-135.894"/>
<polygon fill="#9a32cd" stroke="#9a32cd" points="215.176,-132.394 205.176,-135.894 215.176,-139.394 215.176,-132.394"/>
<text text-anchor="middle" x="252.5" y="-138.894" font-family="Helvetica,sans-Serif" font-size="10.00"> elements</text>
</g>
<!-- Node3 -->
<g id="node3" class="node"><title>Node3</title>
<g id="a_node3"><a xlink:title="STL class. ">
<polygon fill="white" stroke="#bfbfbf" points="0,-120.894 0,-150.894 103,-150.894 103,-120.894 0,-120.894"/>
<text text-anchor="start" x="8" y="-138.894" font-family="Helvetica,sans-Serif" font-size="10.00">std::basic_string&lt;</text>
<text text-anchor="middle" x="51.5" y="-127.894" font-family="Helvetica,sans-Serif" font-size="10.00"> char &gt;</text>
</a>
</g>
</g>
<!-- Node3&#45;&gt;Node2 -->
<g id="edge2" class="edge"><title>Node3&#45;&gt;Node2</title>
<path fill="none" stroke="midnightblue" d="M113.539,-135.894C122.619,-135.894 131.651,-135.894 139.788,-135.894"/>
<polygon fill="midnightblue" stroke="midnightblue" points="113.312,-132.394 103.312,-135.894 113.312,-139.394 113.312,-132.394"/>
</g>
<!-- Node4 -->
<g id="node4" class="node"><title>Node4</title>
<polygon fill="white" stroke="#bfbfbf" points="1087,-127.394 1087,-146.394 1209,-146.394 1209,-127.394 1087,-127.394"/>
<text text-anchor="middle" x="1148" y="-134.394" font-family="Helvetica,sans-Serif" font-size="10.00">std::vector&lt; TH1D *&gt;</text>
</g>
<!-- Node4&#45;&gt;Node1 -->
<g id="edge3" class="edge"><title>Node4&#45;&gt;Node1</title>
<path fill="none" stroke="#9a32cd" stroke-dasharray="5,2" d="M1219.49,-145.597C1250.39,-149.612 1287.04,-154.648 1320,-159.894 1325.83,-160.821 1331.88,-161.836 1337.93,-162.887"/>
<polygon fill="#9a32cd" stroke="#9a32cd" points="1219.61,-142.084 1209.25,-144.276 1218.72,-149.026 1219.61,-142.084"/>
<text text-anchor="middle" x="1273.5" y="-162.894" font-family="Helvetica,sans-Serif" font-size="10.00"> mult2_split_angles</text>
</g>
<!-- Node5&#45;&gt;Node1 -->
<g id="edge4" class="edge"><title>Node5&#45;&gt;Node1</title>
<path fill="none" stroke="#9a32cd" stroke-dasharray="5,2" d="M1193.31,-174.894C1233.37,-174.894 1292.82,-174.894 1337.94,-174.894"/>
<polygon fill="#9a32cd" stroke="#9a32cd" points="1193.05,-171.394 1183.05,-174.894 1193.05,-178.394 1193.05,-171.394"/>
<text text-anchor="middle" x="1273.5" y="-177.894" font-family="Helvetica,sans-Serif" font-size="10.00"> mult2_split_stack</text>
</g>
<!-- Node6 -->
<g id="node6" class="node"><title>Node6</title>
<polygon fill="white" stroke="#bfbfbf" points="874,-279.394 874,-298.394 930,-298.394 930,-279.394 874,-279.394"/>
<text text-anchor="middle" x="902" y="-286.394" font-family="Helvetica,sans-Serif" font-size="10.00">THStack</text>
</g>
<!-- Node6&#45;&gt;Node5 -->
<g id="edge5" class="edge"><title>Node6&#45;&gt;Node5</title>
<path fill="none" stroke="midnightblue" d="M940.379,-285.488C975.391,-281.04 1028.28,-271.021 1069,-248.894 1099.67,-232.228 1127.15,-200.425 1139.74,-184.492"/>
<polygon fill="midnightblue" stroke="midnightblue" points="939.642,-282.05 930.12,-286.696 940.461,-289.002 939.642,-282.05"/>
</g>
<!-- Node7 -->
<g id="node7" class="node"><title>Node7</title>
<polygon fill="white" stroke="#bfbfbf" points="823,-241.394 823,-260.394 981,-260.394 981,-241.394 823,-241.394"/>
<text text-anchor="middle" x="902" y="-248.394" font-family="Helvetica,sans-Serif" font-size="10.00">std::unique_ptr&lt; TPaveText &gt;</text>
</g>
<!-- Node7&#45;&gt;Node5 -->
<g id="edge6" class="edge"><title>Node7&#45;&gt;Node5</title>
<path fill="none" stroke="#9a32cd" stroke-dasharray="5,2" d="M975.014,-239.513C1004.62,-233.75 1038.94,-225.652 1069,-214.894 1091.64,-206.791 1116.04,-193.454 1131.41,-184.429"/>
<polygon fill="#9a32cd" stroke="#9a32cd" points="974.341,-236.078 965.168,-241.378 975.644,-242.955 974.341,-236.078"/>
<text text-anchor="middle" x="1034" y="-236.894" font-family="Helvetica,sans-Serif" font-size="10.00"> intellititle</text>
</g>
<!-- Node8 -->
<g id="node8" class="node"><title>Node8</title>
<polygon fill="white" stroke="#bfbfbf" points="844,-4.39417 844,-23.3942 960,-23.3942 960,-4.39417 844,-4.39417"/>
<text text-anchor="middle" x="902" y="-11.3942" font-family="Helvetica,sans-Serif" font-size="10.00">std::vector&lt; hist_t &gt;</text>
</g>
<!-- Node8&#45;&gt;Node5 -->
<g id="edge7" class="edge"><title>Node8&#45;&gt;Node5</title>
<path fill="none" stroke="#9a32cd" stroke-dasharray="5,2" d="M952.79,-2.84252C989.668,2.18693 1038.6,1.72068 1069,-26.8942 1111.15,-66.5712 1049.65,-111.67 1087,-155.894 1093.56,-163.657 1103.27,-168.287 1112.98,-171.036"/>
<polygon fill="#9a32cd" stroke="#9a32cd" points="952.085,0.59042 942.733,-4.38798 953.149,-6.32836 952.085,0.59042"/>
<text text-anchor="middle" x="1034" y="-29.8942" font-family="Helvetica,sans-Serif" font-size="10.00"> hists</text>
</g>
<!-- Node9&#45;&gt;Node8 -->
<g id="edge8" class="edge"><title>Node9&#45;&gt;Node8</title>
<path fill="none" stroke="#9a32cd" stroke-dasharray="5,2" d="M710.217,-13.8942C750.788,-13.8942 803.973,-13.8942 843.88,-13.8942"/>
<polygon fill="#9a32cd" stroke="#9a32cd" points="710.19,-10.3943 700.19,-13.8942 710.19,-17.3943 710.19,-10.3943"/>
<text text-anchor="middle" x="767" y="-16.8942" font-family="Helvetica,sans-Serif" font-size="10.00"> elements</text>
</g>
<!-- Node10&#45;&gt;Node5 -->
<g id="edge13" class="edge"><title>Node10&#45;&gt;Node5</title>
<path fill="none" stroke="#9a32cd" stroke-dasharray="5,2" d="M439.204,-50.3571C609.836,-47.4845 1021.15,-44.754 1069,-83.8942 1094.53,-104.779 1064.41,-131.862 1087,-155.894 1093.81,-163.139 1103.36,-167.633 1112.84,-170.418"/>
<polygon fill="#9a32cd" stroke="#9a32cd" points="438.991,-46.8601 429.053,-50.5329 439.112,-53.8591 438.991,-46.8601"/>
<text text-anchor="middle" x="767" y="-54.8942" font-family="Helvetica,sans-Serif" font-size="10.00"> current_option</text>
</g>
<!-- Node10&#45;&gt;Node9 -->
<g id="edge9" class="edge"><title>Node10&#45;&gt;Node9</title>
<path fill="none" stroke="#9a32cd" stroke-dasharray="5,2" d="M417.64,-33.9368C427.304,-31.1717 437.384,-28.6551 447,-26.8942 497.735,-17.6036 556.733,-14.7033 597.629,-13.9137"/>
<polygon fill="#9a32cd" stroke="#9a32cd" points="416.338,-30.6729 407.757,-36.887 418.34,-37.3804 416.338,-30.6729"/>
<text text-anchor="middle" x="508" y="-29.8942" font-family="Helvetica,sans-Serif" font-size="10.00"> Option</text>
</g>
<!-- Node11 -->
<g id="node11" class="node"><title>Node11</title>
<g id="a_node11"><a xlink:href="structant_1_1hstack_1_1options__t.html" target="_top" xlink:title="ant::hstack::options_t">
<polygon fill="white" stroke="black" points="842,-203.394 842,-222.394 962,-222.394 962,-203.394 842,-203.394"/>
<text text-anchor="middle" x="902" y="-210.394" font-family="Helvetica,sans-Serif" font-size="10.00">ant::hstack::options_t</text>
</a>
</g>
</g>
<!-- Node11&#45;&gt;Node5 -->
<g id="edge14" class="edge"><title>Node11&#45;&gt;Node5</title>
<path fill="none" stroke="#9a32cd" stroke-dasharray="5,2" d="M972.518,-203.38C1002.27,-199.17 1037.37,-194.017 1069,-188.894 1083.4,-186.562 1099.24,-183.761 1112.87,-181.279"/>
<polygon fill="#9a32cd" stroke="#9a32cd" points="971.646,-199.968 962.232,-204.829 972.622,-206.9 971.646,-199.968"/>
<text text-anchor="middle" x="1034" y="-202.894" font-family="Helvetica,sans-Serif" font-size="10.00"> GlobalOptions</text>
</g>
<!-- Node12 -->
<g id="node12" class="node"><title>Node12</title>
<g id="a_node12"><a xlink:href="classant_1_1interval.html" target="_top" xlink:title="ant::interval\&lt; double \&gt;">
<polygon fill="white" stroke="black" points="300.5,-321.394 300.5,-340.394 428.5,-340.394 428.5,-321.394 300.5,-321.394"/>
<text text-anchor="middle" x="364.5" y="-328.394" font-family="Helvetica,sans-Serif" font-size="10.00">ant::interval&lt; double &gt;</text>
</a>
</g>
</g>
<!-- Node12&#45;&gt;Node11 -->
<g id="edge15" class="edge"><title>Node12&#45;&gt;Node11</title>
<path fill="none" stroke="#9a32cd" stroke-dasharray="5,2" d="M439.007,-323.767C547.517,-312.207 744.287,-286.973 805,-250.894 815,-244.952 812.938,-237.731 823,-231.894 829.631,-228.048 837.013,-224.977 844.517,-222.526"/>
<polygon fill="#9a32cd" stroke="#9a32cd" points="438.368,-320.314 428.789,-324.842 439.101,-327.276 438.368,-320.314"/>
<text text-anchor="middle" x="649" y="-307.894" font-family="Helvetica,sans-Serif" font-size="10.00"> YAxisRange</text>
</g>
<!-- Node17 -->
<g id="node17" class="node"><title>Node17</title>
<g id="a_node17"><a xlink:href="classant_1_1interval.html" target="_top" xlink:title="ant::interval\&lt; ant\l::interval\&lt; double \&gt; \&gt;">
<polygon fill="white" stroke="black" points="587,-332.894 587,-362.894 711,-362.894 711,-332.894 587,-332.894"/>
<text text-anchor="start" x="595" y="-350.894" font-family="Helvetica,sans-Serif" font-size="10.00">ant::interval&lt; ant</text>
<text text-anchor="middle" x="649" y="-339.894" font-family="Helvetica,sans-Serif" font-size="10.00">::interval&lt; double &gt; &gt;</text>
</a>
</g>
</g>
<!-- Node12&#45;&gt;Node17 -->
<g id="edge23" class="edge"><title>Node12&#45;&gt;Node17</title>
<path fill="none" stroke="#9a32cd" stroke-dasharray="5,2" d="M438.734,-335.301C484.639,-338.064 543.134,-341.584 586.602,-344.199"/>
<polygon fill="#9a32cd" stroke="#9a32cd" points="438.739,-331.795 428.547,-334.688 438.319,-338.783 438.739,-331.795"/>
<text text-anchor="middle" x="508" y="-356.894" font-family="Helvetica,sans-Serif" font-size="10.00"> _start</text>
<text text-anchor="middle" x="508" y="-345.894" font-family="Helvetica,sans-Serif" font-size="10.00">_stop</text>
</g>
<!-- Node13 -->
<g id="node13" class="node"><title>Node13</title>
<polygon fill="white" stroke="#bfbfbf" points="589.5,-225.394 589.5,-266.394 708.5,-266.394 708.5,-225.394 589.5,-225.394"/>
<text text-anchor="start" x="597.5" y="-254.394" font-family="Helvetica,sans-Serif" font-size="10.00">std::map&lt; TH1 *, ant</text>
<text text-anchor="start" x="597.5" y="-243.394" font-family="Helvetica,sans-Serif" font-size="10.00">::hstack::options_t::</text>
<text text-anchor="middle" x="649" y="-232.394" font-family="Helvetica,sans-Serif" font-size="10.00">scale_t &gt;</text>
</g>
<!-- Node13&#45;&gt;Node11 -->
<g id="edge16" class="edge"><title>Node13&#45;&gt;Node11</title>
<path fill="none" stroke="#9a32cd" stroke-dasharray="5,2" d="M718.653,-236.868C757.274,-231.79 805.002,-225.515 841.94,-220.659"/>
<polygon fill="#9a32cd" stroke="#9a32cd" points="717.99,-233.425 708.532,-238.199 718.903,-240.365 717.99,-233.425"/>
<text text-anchor="middle" x="767" y="-238.894" font-family="Helvetica,sans-Serif" font-size="10.00"> AppliedScale</text>
</g>
<!-- Node14 -->
<g id="node14" class="node"><title>Node14</title>
<g id="a_node14"><a xlink:href="structant_1_1hstack_1_1options__t_1_1scale__t.html" target="_top" xlink:title="ant::hstack::options\l_t::scale_t">
<polygon fill="white" stroke="black" points="309,-260.894 309,-290.894 420,-290.894 420,-260.894 309,-260.894"/>
<text text-anchor="start" x="317" y="-278.894" font-family="Helvetica,sans-Serif" font-size="10.00">ant::hstack::options</text>
<text text-anchor="middle" x="364.5" y="-267.894" font-family="Helvetica,sans-Serif" font-size="10.00">_t::scale_t</text>
</a>
</g>
</g>
<!-- Node14&#45;&gt;Node13 -->
<g id="edge17" class="edge"><title>Node14&#45;&gt;Node13</title>
<path fill="none" stroke="#9a32cd" stroke-dasharray="5,2" d="M430.27,-269.016C478.234,-263.922 543.042,-257.04 589.456,-252.111"/>
<polygon fill="#9a32cd" stroke="#9a32cd" points="429.878,-265.538 420.304,-270.074 430.618,-272.499 429.878,-265.538"/>
<text text-anchor="middle" x="508" y="-270.894" font-family="Helvetica,sans-Serif" font-size="10.00"> elements</text>
</g>
<!-- Node15&#45;&gt;Node11 -->
<g id="edge18" class="edge"><title>Node15&#45;&gt;Node11</title>
<path fill="none" stroke="#9a32cd" stroke-dasharray="5,2" d="M720.169,-193.442C758.47,-197.562 805.366,-202.607 841.803,-206.526"/>
<polygon fill="#9a32cd" stroke="#9a32cd" points="720.438,-189.951 710.121,-192.361 719.689,-196.911 720.438,-189.951"/>
<text text-anchor="middle" x="767" y="-204.894" font-family="Helvetica,sans-Serif" font-size="10.00"> PerHist</text>
</g>
<!-- Node16&#45;&gt;Node15 -->
<g id="edge19" class="edge"><title>Node16&#45;&gt;Node15</title>
<path fill="none" stroke="#9a32cd" stroke-dasharray="5,2" d="M430.467,-217.465C477.902,-210.581 541.733,-201.317 587.973,-194.606"/>
<polygon fill="#9a32cd" stroke="#9a32cd" points="429.697,-214.04 420.304,-218.94 430.703,-220.968 429.697,-214.04"/>
<text text-anchor="middle" x="508" y="-217.894" font-family="Helvetica,sans-Serif" font-size="10.00"> elements</text>
</g>
<!-- Node17&#45;&gt;Node11 -->
<g id="edge22" class="edge"><title>Node17&#45;&gt;Node11</title>
<path fill="none" stroke="#9a32cd" stroke-dasharray="5,2" d="M721.355,-350.002C750.85,-347.111 783.18,-338.469 805,-316.894 832.459,-289.743 796.111,-259.609 823,-231.894 828.241,-226.492 834.741,-222.524 841.737,-219.625"/>
<polygon fill="#9a32cd" stroke="#9a32cd" points="720.763,-346.537 711.062,-350.796 721.302,-353.516 720.763,-346.537"/>
<text text-anchor="middle" x="767" y="-351.894" font-family="Helvetica,sans-Serif" font-size="10.00"> LegendPosition</text>
</g>
<!-- Node18 -->
<g id="node18" class="node"><title>Node18</title>
<polygon fill="white" stroke="#bfbfbf" points="826,-165.394 826,-184.394 978,-184.394 978,-165.394 826,-165.394"/>
<text text-anchor="middle" x="902" y="-172.394" font-family="Helvetica,sans-Serif" font-size="10.00">std::unique_ptr&lt; TLegend &gt;</text>
</g>
<!-- Node18&#45;&gt;Node5 -->
<g id="edge24" class="edge"><title>Node18&#45;&gt;Node5</title>
<path fill="none" stroke="#9a32cd" stroke-dasharray="5,2" d="M988.36,-174.894C1031.19,-174.894 1080.66,-174.894 1112.82,-174.894"/>
<polygon fill="#9a32cd" stroke="#9a32cd" points="988.199,-171.394 978.199,-174.894 988.199,-178.394 988.199,-171.394"/>
<text text-anchor="middle" x="1034" y="-177.894" font-family="Helvetica,sans-Serif" font-size="10.00"> intellilegend</text>
</g>
<!-- Node19&#45;&gt;Node5 -->
<g id="edge25" class="edge"><title>Node19&#45;&gt;Node5</title>
<path fill="none" stroke="#9a32cd" stroke-dasharray="5,2" d="M579.117,-137.298C671.382,-139.504 838.545,-144.738 981,-155.894 1026.69,-159.473 1079.22,-165.871 1112.73,-170.246"/>
<polygon fill="#9a32cd" stroke="#9a32cd" points="579.141,-133.797 569.062,-137.062 578.977,-140.795 579.141,-133.797"/>
<text text-anchor="middle" x="767" y="-148.894" font-family="Helvetica,sans-Serif" font-size="10.00"> cutnames</text>
</g>
</g>
</svg>
