<?xml version="1.0" encoding="UTF-8" standalone="no"?>
<!DOCTYPE svg PUBLIC "-//W3C//DTD SVG 1.1//EN"
 "http://www.w3.org/Graphics/SVG/1.1/DTD/svg11.dtd">
<!-- Generated by graphviz version 2.38.0 (20140413.2041)
 -->
<!-- Title: RefHist_t::Fill_t Pages: 1 -->
<svg width="1555pt" height="339pt"
 viewBox="0.00 0.00 1555.00 338.50" xmlns="http://www.w3.org/2000/svg" xmlns:xlink="http://www.w3.org/1999/xlink">
<g id="graph0" class="graph" transform="scale(1 1) rotate(0) translate(4 334.5)">
<title>RefHist_t::Fill_t</title>
<polygon fill="white" stroke="none" points="-4,4 -4,-334.5 1551,-334.5 1551,4 -4,4"/>
<!-- Node2 -->
<g id="node1" class="node"><title>Node2</title>
<polygon fill="#bfbfbf" stroke="black" points="1462,-182.5 1462,-201.5 1547,-201.5 1547,-182.5 1462,-182.5"/>
<text text-anchor="middle" x="1504.5" y="-189.5" font-family="Helvetica,sans-Serif" font-size="10.00">RefHist_t::Fill_t</text>
</g>
<!-- Node3 -->
<g id="node2" class="node"><title>Node3</title>
<g id="a_node2"><a xlink:href="struct_common_hist__t_1_1_fill__t.html" target="_top" xlink:title="CommonHist_t::Fill_t">
<polygon fill="white" stroke="black" points="1285.5,-231.5 1285.5,-250.5 1400.5,-250.5 1400.5,-231.5 1285.5,-231.5"/>
<text text-anchor="middle" x="1343" y="-238.5" font-family="Helvetica,sans-Serif" font-size="10.00">CommonHist_t::Fill_t</text>
</a>
</g>
</g>
<!-- Node3&#45;&gt;Node2 -->
<g id="edge1" class="edge"><title>Node3&#45;&gt;Node2</title>
<path fill="none" stroke="midnightblue" d="M1384.79,-228.47C1412.08,-220.086 1447.44,-209.223 1472.45,-201.54"/>
<polygon fill="midnightblue" stroke="midnightblue" points="1383.66,-225.154 1375.13,-231.436 1385.72,-231.845 1383.66,-225.154"/>
</g>
<!-- Node4 -->
<g id="node3" class="node"><title>Node4</title>
<g id="a_node3"><a xlink:href="structant_1_1analysis_1_1physics_1_1_etap_omega_g_1_1_proton_photon_tree__t.html" target="_top" xlink:title="ant::analysis::physics\l::EtapOmegaG::ProtonPhotonTree_t">
<polygon fill="white" stroke="black" points="991,-251 991,-281 1178,-281 1178,-251 991,-251"/>
<text text-anchor="start" x="999" y="-269" font-family="Helvetica,sans-Serif" font-size="10.00">ant::analysis::physics</text>
<text text-anchor="middle" x="1084.5" y="-258" font-family="Helvetica,sans-Serif" font-size="10.00">::EtapOmegaG::ProtonPhotonTree_t</text>
</a>
</g>
</g>
<!-- Node4&#45;&gt;Node3 -->
<g id="edge2" class="edge"><title>Node4&#45;&gt;Node3</title>
<path fill="none" stroke="#9a32cd" stroke-dasharray="5,2" d="M1188.29,-255.982C1221.39,-252.756 1256.84,-249.3 1285.35,-246.521"/>
<polygon fill="#9a32cd" stroke="#9a32cd" points="1187.72,-252.521 1178.1,-256.974 1188.39,-259.488 1187.72,-252.521"/>
<text text-anchor="middle" x="1230.5" y="-257" font-family="Helvetica,sans-Serif" font-size="10.00"> ProtonPhoton</text>
</g>
<!-- Node5 -->
<g id="node4" class="node"><title>Node5</title>
<g id="a_node4"><a xlink:href="classant_1_1_wrap_t_tree.html" target="_top" xlink:title="The WrapTTree struct simplifies TTree handling in physics classes. ">
<polygon fill="white" stroke="black" points="852,-158.5 852,-177.5 938,-177.5 938,-158.5 852,-158.5"/>
<text text-anchor="middle" x="895" y="-165.5" font-family="Helvetica,sans-Serif" font-size="10.00">ant::WrapTTree</text>
</a>
</g>
</g>
<!-- Node5&#45;&gt;Node4 -->
<g id="edge3" class="edge"><title>Node5&#45;&gt;Node4</title>
<path fill="none" stroke="midnightblue" d="M913.039,-184.469C931.04,-201.01 960.931,-226.118 991,-241 998.753,-244.837 1007.17,-248.147 1015.67,-250.985"/>
<polygon fill="midnightblue" stroke="midnightblue" points="915.336,-181.826 905.647,-177.54 910.549,-186.933 915.336,-181.826"/>
</g>
<!-- Node6 -->
<g id="node5" class="node"><title>Node6</title>
<g id="a_node5"><a xlink:href="structant_1_1analysis_1_1utils_1_1_m_c_weighting_1_1tree__t.html" target="_top" xlink:title="ant::analysis::utils\l::MCWeighting::tree_t">
<polygon fill="white" stroke="black" points="1025.5,-202 1025.5,-232 1143.5,-232 1143.5,-202 1025.5,-202"/>
<text text-anchor="start" x="1033.5" y="-220" font-family="Helvetica,sans-Serif" font-size="10.00">ant::analysis::utils</text>
<text text-anchor="middle" x="1084.5" y="-209" font-family="Helvetica,sans-Serif" font-size="10.00">::MCWeighting::tree_t</text>
</a>
</g>
</g>
<!-- Node5&#45;&gt;Node6 -->
<g id="edge5" class="edge"><title>Node5&#45;&gt;Node6</title>
<path fill="none" stroke="midnightblue" d="M942.308,-180.102C967.587,-186.708 999.114,-194.947 1025.96,-201.963"/>
<polygon fill="midnightblue" stroke="midnightblue" points="943.157,-176.706 932.597,-177.564 941.387,-183.479 943.157,-176.706"/>
</g>
<!-- Node7 -->
<g id="node6" class="node"><title>Node7</title>
<g id="a_node6"><a xlink:href="structant_1_1analysis_1_1physics_1_1_etap_omega_g_1_1_tree_common.html" target="_top" xlink:title="ant::analysis::physics\l::EtapOmegaG::TreeCommon">
<polygon fill="white" stroke="black" points="1006,-300 1006,-330 1163,-330 1163,-300 1006,-300"/>
<text text-anchor="start" x="1014" y="-318" font-family="Helvetica,sans-Serif" font-size="10.00">ant::analysis::physics</text>
<text text-anchor="middle" x="1084.5" y="-307" font-family="Helvetica,sans-Serif" font-size="10.00">::EtapOmegaG::TreeCommon</text>
</a>
</g>
</g>
<!-- Node5&#45;&gt;Node7 -->
<g id="edge7" class="edge"><title>Node5&#45;&gt;Node7</title>
<path fill="none" stroke="midnightblue" d="M905.238,-186.649C919.698,-213.86 950.289,-264.123 991,-291 996.261,-294.473 1002,-297.445 1007.96,-299.986"/>
<polygon fill="midnightblue" stroke="midnightblue" points="908.345,-185.037 900.652,-177.753 902.123,-188.245 908.345,-185.037"/>
</g>
<!-- Node9 -->
<g id="node8" class="node"><title>Node9</title>
<g id="a_node8"><a xlink:href="structant_1_1analysis_1_1physics_1_1_etap_dalitz_1_1common__tree.html" target="_top" xlink:title="ant::analysis::physics\l::EtapDalitz::common_tree">
<polygon fill="white" stroke="black" points="1012,-104 1012,-134 1157,-134 1157,-104 1012,-104"/>
<text text-anchor="start" x="1020" y="-122" font-family="Helvetica,sans-Serif" font-size="10.00">ant::analysis::physics</text>
<text text-anchor="middle" x="1084.5" y="-111" font-family="Helvetica,sans-Serif" font-size="10.00">::EtapDalitz::common_tree</text>
</a>
</g>
</g>
<!-- Node5&#45;&gt;Node9 -->
<g id="edge10" class="edge"><title>Node5&#45;&gt;Node9</title>
<path fill="none" stroke="midnightblue" d="M941.994,-155.862C957.552,-151.765 975.028,-147.174 991,-143 1002.08,-140.106 1013.9,-137.028 1025.27,-134.076"/>
<polygon fill="midnightblue" stroke="midnightblue" points="940.86,-152.541 932.081,-158.474 942.643,-159.31 940.86,-152.541"/>
</g>
<!-- Node10 -->
<g id="node9" class="node"><title>Node10</title>
<g id="a_node9"><a xlink:href="structant_1_1analysis_1_1physics_1_1_etap_dalitz_1_1proton__tree.html" target="_top" xlink:title="ant::analysis::physics\l::EtapDalitz::proton_tree">
<polygon fill="white" stroke="black" points="1017.5,-55 1017.5,-85 1151.5,-85 1151.5,-55 1017.5,-55"/>
<text text-anchor="start" x="1025.5" y="-73" font-family="Helvetica,sans-Serif" font-size="10.00">ant::analysis::physics</text>
<text text-anchor="middle" x="1084.5" y="-62" font-family="Helvetica,sans-Serif" font-size="10.00">::EtapDalitz::proton_tree</text>
</a>
</g>
</g>
<!-- Node5&#45;&gt;Node10 -->
<g id="edge12" class="edge"><title>Node5&#45;&gt;Node10</title>
<path fill="none" stroke="midnightblue" d="M912.965,-151.231C930.907,-134.404 960.751,-108.904 991,-94 999.185,-89.9669 1008.12,-86.5589 1017.11,-83.6937"/>
<polygon fill="midnightblue" stroke="midnightblue" points="910.403,-148.838 905.6,-158.282 915.244,-153.894 910.403,-148.838"/>
</g>
<!-- Node11 -->
<g id="node10" class="node"><title>Node11</title>
<g id="a_node10"><a xlink:href="structant_1_1analysis_1_1physics_1_1_etap_dalitz_1_1photon__tree.html" target="_top" xlink:title="ant::analysis::physics\l::EtapDalitz::photon_tree\&lt; 2 \&gt;">
<polygon fill="white" stroke="black" points="1002.5,-6 1002.5,-36 1166.5,-36 1166.5,-6 1002.5,-6"/>
<text text-anchor="start" x="1010.5" y="-24" font-family="Helvetica,sans-Serif" font-size="10.00">ant::analysis::physics</text>
<text text-anchor="middle" x="1084.5" y="-13" font-family="Helvetica,sans-Serif" font-size="10.00">::EtapDalitz::photon_tree&lt; 2 &gt;</text>
</a>
</g>
</g>
<!-- Node5&#45;&gt;Node11 -->
<g id="edge14" class="edge"><title>Node5&#45;&gt;Node11</title>
<path fill="none" stroke="midnightblue" d="M905.238,-149.351C919.698,-122.14 950.289,-71.8766 991,-45 996.261,-41.5266 1002,-38.5555 1007.96,-36.0142"/>
<polygon fill="midnightblue" stroke="midnightblue" points="902.123,-147.755 900.652,-158.247 908.345,-150.963 902.123,-147.755"/>
</g>
<!-- Node17 -->
<g id="node16" class="node"><title>Node17</title>
<g id="a_node16"><a xlink:href="structant_1_1analysis_1_1physics_1_1_etap_dalitz_1_1fit__tree.html" target="_top" xlink:title="ant::analysis::physics\l::EtapDalitz::fit_tree\&lt; 2 \&gt;">
<polygon fill="white" stroke="black" points="1014.5,-153 1014.5,-183 1154.5,-183 1154.5,-153 1014.5,-153"/>
<text text-anchor="start" x="1022.5" y="-171" font-family="Helvetica,sans-Serif" font-size="10.00">ant::analysis::physics</text>
<text text-anchor="middle" x="1084.5" y="-160" font-family="Helvetica,sans-Serif" font-size="10.00">::EtapDalitz::fit_tree&lt; 2 &gt;</text>
</a>
</g>
</g>
<!-- Node5&#45;&gt;Node17 -->
<g id="edge21" class="edge"><title>Node5&#45;&gt;Node17</title>
<path fill="none" stroke="midnightblue" d="M948.152,-168C968.637,-168 992.445,-168 1014.33,-168"/>
<polygon fill="midnightblue" stroke="midnightblue" points="948.079,-164.5 938.079,-168 948.079,-171.5 948.079,-164.5"/>
</g>
<!-- Node6&#45;&gt;Node3 -->
<g id="edge4" class="edge"><title>Node6&#45;&gt;Node3</title>
<path fill="none" stroke="#9a32cd" stroke-dasharray="5,2" d="M1153.97,-220.162C1187.5,-222.071 1228.43,-224.936 1265,-229 1271.59,-229.732 1278.48,-230.624 1285.31,-231.587"/>
<polygon fill="#9a32cd" stroke="#9a32cd" points="1154,-216.658 1143.82,-219.6 1153.61,-223.648 1154,-216.658"/>
<text text-anchor="middle" x="1230.5" y="-232" font-family="Helvetica,sans-Serif" font-size="10.00"> MCWeighting</text>
</g>
<!-- Node7&#45;&gt;Node3 -->
<g id="edge6" class="edge"><title>Node7&#45;&gt;Node3</title>
<path fill="none" stroke="#9a32cd" stroke-dasharray="5,2" d="M1160.57,-297.501C1192.91,-289.516 1231.02,-279.505 1265,-269 1282.8,-263.496 1302.55,-256.293 1317.59,-250.571"/>
<polygon fill="#9a32cd" stroke="#9a32cd" points="1159.61,-294.132 1150.74,-299.912 1161.28,-300.931 1159.61,-294.132"/>
<text text-anchor="middle" x="1230.5" y="-291" font-family="Helvetica,sans-Serif" font-size="10.00"> Common</text>
</g>
<!-- Node8 -->
<g id="node7" class="node"><title>Node8</title>
<g id="a_node7"><a xlink:href="structant_1_1analysis_1_1physics_1_1_etap_dalitz_1_1_ref_tree__t.html" target="_top" xlink:title="ant::analysis::physics\l::EtapDalitz::RefTree_t">
<polygon fill="white" stroke="black" points="1283,-104 1283,-134 1403,-134 1403,-104 1283,-104"/>
<text text-anchor="start" x="1291" y="-122" font-family="Helvetica,sans-Serif" font-size="10.00">ant::analysis::physics</text>
<text text-anchor="middle" x="1343" y="-111" font-family="Helvetica,sans-Serif" font-size="10.00">::EtapDalitz::RefTree_t</text>
</a>
</g>
</g>
<!-- Node8&#45;&gt;Node2 -->
<g id="edge8" class="edge"><title>Node8&#45;&gt;Node2</title>
<path fill="none" stroke="#9a32cd" stroke-dasharray="5,2" d="M1386.35,-138.384C1417.44,-152.612 1458.33,-171.325 1482.66,-182.464"/>
<polygon fill="#9a32cd" stroke="#9a32cd" points="1387.6,-135.105 1377.05,-134.126 1384.68,-141.47 1387.6,-135.105"/>
<text text-anchor="middle" x="1432.5" y="-168" font-family="Helvetica,sans-Serif" font-size="10.00"> Tree</text>
</g>
<!-- Node9&#45;&gt;Node8 -->
<g id="edge9" class="edge"><title>Node9&#45;&gt;Node8</title>
<path fill="none" stroke="midnightblue" d="M1167.68,-119C1205.12,-119 1248.61,-119 1282.78,-119"/>
<polygon fill="midnightblue" stroke="midnightblue" points="1167.29,-115.5 1157.29,-119 1167.29,-122.5 1167.29,-115.5"/>
</g>
<!-- Node10&#45;&gt;Node8 -->
<g id="edge11" class="edge"><title>Node10&#45;&gt;Node8</title>
<path fill="none" stroke="midnightblue" d="M1161.74,-84.5635C1200.44,-91.9568 1246.75,-100.804 1282.74,-107.679"/>
<polygon fill="midnightblue" stroke="midnightblue" points="1162.03,-81.0574 1151.56,-82.6187 1160.72,-87.933 1162.03,-81.0574"/>
</g>
<!-- Node11&#45;&gt;Node8 -->
<g id="edge13" class="edge"><title>Node11&#45;&gt;Node8</title>
<path fill="none" stroke="midnightblue" d="M1159.52,-39.0021C1165.81,-40.8953 1172.04,-42.9008 1178,-45 1226.46,-62.0809 1280.36,-87.7653 1312.7,-103.943"/>
<polygon fill="midnightblue" stroke="midnightblue" points="1160.2,-35.5536 1149.62,-36.1219 1158.25,-42.2751 1160.2,-35.5536"/>
</g>
<!-- Node12 -->
<g id="node11" class="node"><title>Node12</title>
<g id="a_node11"><a xlink:href="structant_1_1analysis_1_1physics_1_1_etap_dalitz_tools.html" target="_top" xlink:title="ant::analysis::physics\l::EtapDalitzTools">
<polygon fill="white" stroke="black" points="836,-6 836,-36 954,-36 954,-6 836,-6"/>
<text text-anchor="start" x="844" y="-24" font-family="Helvetica,sans-Serif" font-size="10.00">ant::analysis::physics</text>
<text text-anchor="middle" x="895" y="-13" font-family="Helvetica,sans-Serif" font-size="10.00">::EtapDalitzTools</text>
</a>
</g>
</g>
<!-- Node12&#45;&gt;Node11 -->
<g id="edge15" class="edge"><title>Node12&#45;&gt;Node11</title>
<path fill="none" stroke="midnightblue" d="M964.257,-21C976.622,-21 989.627,-21 1002.32,-21"/>
<polygon fill="midnightblue" stroke="midnightblue" points="964.042,-17.5001 954.042,-21 964.042,-24.5001 964.042,-17.5001"/>
</g>
<!-- Node13 -->
<g id="node12" class="node"><title>Node13</title>
<g id="a_node12"><a xlink:href="structant_1_1analysis_1_1utils_1_1_cluster_tools.html" target="_top" xlink:title="ant::analysis::utils\l::ClusterTools">
<polygon fill="white" stroke="black" points="639,-6 639,-36 741,-36 741,-6 639,-6"/>
<text text-anchor="start" x="647" y="-24" font-family="Helvetica,sans-Serif" font-size="10.00">ant::analysis::utils</text>
<text text-anchor="middle" x="690" y="-13" font-family="Helvetica,sans-Serif" font-size="10.00">::ClusterTools</text>
</a>
</g>
</g>
<!-- Node13&#45;&gt;Node12 -->
<g id="edge16" class="edge"><title>Node13&#45;&gt;Node12</title>
<path fill="none" stroke="#9a32cd" stroke-dasharray="5,2" d="M751.181,-21C777.916,-21 809.264,-21 835.769,-21"/>
<polygon fill="#9a32cd" stroke="#9a32cd" points="751.18,-17.5001 741.18,-21 751.18,-24.5001 751.18,-17.5001"/>
<text text-anchor="middle" x="788.5" y="-24" font-family="Helvetica,sans-Serif" font-size="10.00"> clustertools</text>
</g>
<!-- Node14 -->
<g id="node13" class="node"><title>Node14</title>
<polygon fill="white" stroke="#bfbfbf" points="369,-0.5 369,-41.5 516,-41.5 516,-0.5 369,-0.5"/>
<text text-anchor="start" x="377" y="-29.5" font-family="Helvetica,sans-Serif" font-size="10.00">std::map&lt; Detector</text>
<text text-anchor="start" x="377" y="-18.5" font-family="Helvetica,sans-Serif" font-size="10.00">_t::Type_t, ant::analysis</text>
<text text-anchor="middle" x="442.5" y="-7.5" font-family="Helvetica,sans-Serif" font-size="10.00">::utils::ClusterTools::det_t &gt;</text>
</g>
<!-- Node14&#45;&gt;Node13 -->
<g id="edge17" class="edge"><title>Node14&#45;&gt;Node13</title>
<path fill="none" stroke="#9a32cd" stroke-dasharray="5,2" d="M526.503,-21C563.73,-21 606.423,-21 638.704,-21"/>
<polygon fill="#9a32cd" stroke="#9a32cd" points="526.162,-17.5001 516.162,-21 526.162,-24.5001 526.162,-17.5001"/>
<text text-anchor="middle" x="577.5" y="-24" font-family="Helvetica,sans-Serif" font-size="10.00"> cluster_detectors</text>
</g>
<!-- Node15 -->
<g id="node14" class="node"><title>Node15</title>
<g id="a_node14"><a xlink:href="structant_1_1analysis_1_1utils_1_1_cluster_tools_1_1det__t.html" target="_top" xlink:title="ant::analysis::utils\l::ClusterTools::det_t">
<polygon fill="white" stroke="black" points="174,-6 174,-36 284,-36 284,-6 174,-6"/>
<text text-anchor="start" x="182" y="-24" font-family="Helvetica,sans-Serif" font-size="10.00">ant::analysis::utils</text>
<text text-anchor="middle" x="229" y="-13" font-family="Helvetica,sans-Serif" font-size="10.00">::ClusterTools::det_t</text>
</a>
</g>
</g>
<!-- Node15&#45;&gt;Node14 -->
<g id="edge18" class="edge"><title>Node15&#45;&gt;Node14</title>
<path fill="none" stroke="#9a32cd" stroke-dasharray="5,2" d="M294.381,-21C317.852,-21 344.55,-21 368.701,-21"/>
<polygon fill="#9a32cd" stroke="#9a32cd" points="294.192,-17.5001 284.192,-21 294.192,-24.5001 294.192,-17.5001"/>
<text text-anchor="middle" x="326.5" y="-24" font-family="Helvetica,sans-Serif" font-size="10.00"> elements</text>
</g>
<!-- Node16 -->
<g id="node15" class="node"><title>Node16</title>
<polygon fill="white" stroke="#bfbfbf" points="0,-11.5 0,-30.5 122,-30.5 122,-11.5 0,-11.5"/>
<text text-anchor="middle" x="61" y="-18.5" font-family="Helvetica,sans-Serif" font-size="10.00">std::vector&lt; double &gt;</text>
</g>
<!-- Node16&#45;&gt;Node15 -->
<g id="edge19" class="edge"><title>Node16&#45;&gt;Node15</title>
<path fill="none" stroke="#9a32cd" stroke-dasharray="5,2" d="M132.417,-21C146.322,-21 160.71,-21 173.97,-21"/>
<polygon fill="#9a32cd" stroke="#9a32cd" points="132.399,-17.5001 122.399,-21 132.399,-24.5001 132.399,-17.5001"/>
<text text-anchor="middle" x="148" y="-24" font-family="Helvetica,sans-Serif" font-size="10.00"> R0</text>
</g>
<!-- Node17&#45;&gt;Node8 -->
<g id="edge20" class="edge"><title>Node17&#45;&gt;Node8</title>
<path fill="none" stroke="midnightblue" d="M1164.62,-152.885C1202.75,-145.601 1247.71,-137.013 1282.82,-130.306"/>
<polygon fill="midnightblue" stroke="midnightblue" points="1163.74,-149.49 1154.57,-154.804 1165.05,-156.366 1163.74,-149.49"/>
</g>
</g>
</svg>
