<?xml version="1.0" encoding="UTF-8" standalone="no"?>
<!DOCTYPE svg PUBLIC "-//W3C//DTD SVG 1.1//EN"
 "http://www.w3.org/Graphics/SVG/1.1/DTD/svg11.dtd">
<!-- Generated by graphviz version 2.38.0 (20140413.2041)
 -->
<!-- Title: ant::expconfig::detector::PID_2009_06 Pages: 1 -->
<svg width="352pt" height="163pt"
 viewBox="0.00 0.00 352.00 163.00" xmlns="http://www.w3.org/2000/svg" xmlns:xlink="http://www.w3.org/1999/xlink">
<g id="graph0" class="graph" transform="scale(1 1) rotate(0) translate(4 159)">
<title>ant::expconfig::detector::PID_2009_06</title>
<polygon fill="white" stroke="none" points="-4,4 -4,-159 348,-159 348,4 -4,4"/>
<!-- Node4 -->
<g id="node1" class="node"><title>Node4</title>
<polygon fill="#bfbfbf" stroke="black" points="168,-0.5 168,-30.5 299,-30.5 299,-0.5 168,-0.5"/>
<text text-anchor="start" x="176" y="-18.5" font-family="Helvetica,sans-Serif" font-size="10.00">ant::expconfig::detector</text>
<text text-anchor="middle" x="233.5" y="-7.5" font-family="Helvetica,sans-Serif" font-size="10.00">::PID_2009_06</text>
</g>
<!-- Node5 -->
<g id="node2" class="node"><title>Node5</title>
<g id="a_node2"><a xlink:href="structant_1_1expconfig_1_1detector_1_1_p_i_d.html" target="_top" xlink:title="ant::expconfig::detector::PID">
<polygon fill="white" stroke="black" points="34.5,-78.5 34.5,-97.5 186.5,-97.5 186.5,-78.5 34.5,-78.5"/>
<text text-anchor="middle" x="110.5" y="-85.5" font-family="Helvetica,sans-Serif" font-size="10.00">ant::expconfig::detector::PID</text>
</a>
</g>
</g>
<!-- Node5&#45;&gt;Node4 -->
<g id="edge1" class="edge"><title>Node5&#45;&gt;Node4</title>
<path fill="none" stroke="midnightblue" d="M134.399,-73.3016C155.872,-60.9941 187.269,-42.9984 208.942,-30.5762"/>
<polygon fill="midnightblue" stroke="midnightblue" points="132.518,-70.3459 125.582,-78.3553 135.999,-76.4191 132.518,-70.3459"/>
</g>
<!-- Node6 -->
<g id="node3" class="node"><title>Node6</title>
<g id="a_node3"><a xlink:href="structant_1_1_detector__t.html" target="_top" xlink:title="The Detector_t struct is the minimal base class for all detectors. ">
<polygon fill="white" stroke="black" points="0,-135.5 0,-154.5 89,-154.5 89,-135.5 0,-135.5"/>
<text text-anchor="middle" x="44.5" y="-142.5" font-family="Helvetica,sans-Serif" font-size="10.00">ant::Detector_t</text>
</a>
</g>
</g>
<!-- Node6&#45;&gt;Node5 -->
<g id="edge2" class="edge"><title>Node6&#45;&gt;Node5</title>
<path fill="none" stroke="midnightblue" d="M62.5021,-128.998C74.5458,-118.962 89.9747,-106.104 100.042,-97.7149"/>
<polygon fill="midnightblue" stroke="midnightblue" points="60.2541,-126.316 54.8125,-135.406 64.7354,-131.693 60.2541,-126.316"/>
</g>
<!-- Node7 -->
<g id="node4" class="node"><title>Node7</title>
<g id="a_node4"><a xlink:href="classant_1_1_unpacker_acqu_config.html" target="_top" xlink:title="ant::UnpackerAcquConfig">
<polygon fill="white" stroke="black" points="107.5,-135.5 107.5,-154.5 245.5,-154.5 245.5,-135.5 107.5,-135.5"/>
<text text-anchor="middle" x="176.5" y="-142.5" font-family="Helvetica,sans-Serif" font-size="10.00">ant::UnpackerAcquConfig</text>
</a>
</g>
</g>
<!-- Node7&#45;&gt;Node5 -->
<g id="edge3" class="edge"><title>Node7&#45;&gt;Node5</title>
<path fill="none" stroke="midnightblue" d="M158.498,-128.998C146.454,-118.962 131.025,-106.104 120.958,-97.7149"/>
<polygon fill="midnightblue" stroke="midnightblue" points="156.265,-131.693 166.188,-135.406 160.746,-126.316 156.265,-131.693"/>
</g>
<!-- Node8 -->
<g id="node5" class="node"><title>Node8</title>
<polygon fill="white" stroke="#bfbfbf" points="205,-78.5 205,-97.5 344,-97.5 344,-78.5 205,-78.5"/>
<text text-anchor="middle" x="274.5" y="-85.5" font-family="Helvetica,sans-Serif" font-size="10.00">std::vector&lt; Element_t &gt;</text>
</g>
<!-- Node8&#45;&gt;Node4 -->
<g id="edge4" class="edge"><title>Node8&#45;&gt;Node4</title>
<path fill="none" stroke="#9a32cd" stroke-dasharray="5,2" d="M264.429,-69.6827C257.434,-57.6542 248.23,-41.8286 241.686,-30.5762"/>
<polygon fill="#9a32cd" stroke="#9a32cd" points="261.42,-71.4704 269.473,-78.3553 267.471,-67.9513 261.42,-71.4704"/>
<text text-anchor="middle" x="292.5" y="-52" font-family="Helvetica,sans-Serif" font-size="10.00"> elements_init</text>
</g>
</g>
</svg>
