<?xml version="1.0" encoding="UTF-8" standalone="no"?>
<!DOCTYPE svg PUBLIC "-//W3C//DTD SVG 1.1//EN"
 "http://www.w3.org/Graphics/SVG/1.1/DTD/svg11.dtd">
<!-- Generated by graphviz version 2.38.0 (20140413.2041)
 -->
<!-- Title: ant::expconfig::detector::TAPSVeto::PbWO4_Element_t Pages: 1 -->
<svg width="231pt" height="252pt"
 viewBox="0.00 0.00 231.00 252.00" xmlns="http://www.w3.org/2000/svg" xmlns:xlink="http://www.w3.org/1999/xlink">
<g id="graph0" class="graph" transform="scale(1 1) rotate(0) translate(4 248)">
<title>ant::expconfig::detector::TAPSVeto::PbWO4_Element_t</title>
<polygon fill="white" stroke="none" points="-4,4 -4,-248 227,-248 227,4 -4,4"/>
<!-- Node2 -->
<g id="node1" class="node"><title>Node2</title>
<polygon fill="#bfbfbf" stroke="black" points="0,-0.5 0,-30.5 162,-30.5 162,-0.5 0,-0.5"/>
<text text-anchor="start" x="8" y="-18.5" font-family="Helvetica,sans-Serif" font-size="10.00">ant::expconfig::detector</text>
<text text-anchor="middle" x="81" y="-7.5" font-family="Helvetica,sans-Serif" font-size="10.00">::TAPSVeto::PbWO4_Element_t</text>
</g>
<!-- Node3 -->
<g id="node2" class="node"><title>Node3</title>
<g id="a_node2"><a xlink:href="structant_1_1_detector__t_1_1_element__t.html" target="_top" xlink:title="TAPSVeto_Element_t">
<polygon fill="white" stroke="black" points="23,-68.5 23,-87.5 139,-87.5 139,-68.5 23,-68.5"/>
<text text-anchor="middle" x="81" y="-75.5" font-family="Helvetica,sans-Serif" font-size="10.00">TAPSVeto_Element_t</text>
</a>
</g>
</g>
<!-- Node3&#45;&gt;Node2 -->
<g id="edge1" class="edge"><title>Node3&#45;&gt;Node2</title>
<path fill="none" stroke="midnightblue" d="M81,-58.2154C81,-49.3565 81,-38.9577 81,-30.7587"/>
<polygon fill="midnightblue" stroke="midnightblue" points="77.5001,-58.3318 81,-68.3318 84.5001,-58.3319 77.5001,-58.3318"/>
</g>
<!-- Node4 -->
<g id="node3" class="node"><title>Node4</title>
<g id="a_node3"><a xlink:href="structant_1_1vec3.html" target="_top" xlink:title="ant::vec3">
<polygon fill="white" stroke="black" points="5.5,-141 5.5,-160 66.5,-160 66.5,-141 5.5,-141"/>
<text text-anchor="middle" x="36" y="-148" font-family="Helvetica,sans-Serif" font-size="10.00">ant::vec3</text>
</a>
</g>
</g>
<!-- Node4&#45;&gt;Node3 -->
<g id="edge2" class="edge"><title>Node4&#45;&gt;Node3</title>
<path fill="none" stroke="#9a32cd" stroke-dasharray="5,2" d="M47.1128,-132.09C56.1067,-117.999 68.3971,-98.7445 75.437,-87.7154"/>
<polygon fill="#9a32cd" stroke="#9a32cd" points="43.948,-130.543 41.5179,-140.855 49.8485,-134.309 43.948,-130.543"/>
<text text-anchor="middle" x="83.5" y="-109" font-family="Helvetica,sans-Serif" font-size="10.00"> Position</text>
</g>
<!-- Node5 -->
<g id="node4" class="node"><title>Node5</title>
<g id="a_node4"><a xlink:href="classant_1_1bitflag.html" target="_top" xlink:title="ant::bitflag\&lt; ElementFlag\l_t, 16 \&gt;">
<polygon fill="white" stroke="black" points="85,-135.5 85,-165.5 223,-165.5 223,-135.5 85,-135.5"/>
<text text-anchor="start" x="93" y="-153.5" font-family="Helvetica,sans-Serif" font-size="10.00">ant::bitflag&lt; ElementFlag</text>
<text text-anchor="middle" x="154" y="-142.5" font-family="Helvetica,sans-Serif" font-size="10.00">_t, 16 &gt;</text>
</a>
</g>
</g>
<!-- Node5&#45;&gt;Node3 -->
<g id="edge3" class="edge"><title>Node5&#45;&gt;Node3</title>
<path fill="none" stroke="#9a32cd" stroke-dasharray="5,2" d="M131.879,-128.137C117.917,-114.653 100.613,-97.9417 90.2085,-87.8932"/>
<polygon fill="#9a32cd" stroke="#9a32cd" points="129.603,-130.804 139.227,-135.233 134.466,-125.769 129.603,-130.804"/>
<text text-anchor="middle" x="133" y="-109" font-family="Helvetica,sans-Serif" font-size="10.00"> Flags</text>
</g>
<!-- Node6 -->
<g id="node5" class="node"><title>Node6</title>
<polygon fill="white" stroke="#bfbfbf" points="97.5,-213.5 97.5,-243.5 210.5,-243.5 210.5,-213.5 97.5,-213.5"/>
<text text-anchor="start" x="105.5" y="-231.5" font-family="Helvetica,sans-Serif" font-size="10.00">std::bitset&lt; number</text>
<text text-anchor="middle" x="154" y="-220.5" font-family="Helvetica,sans-Serif" font-size="10.00">_of_bits &gt;</text>
</g>
<!-- Node6&#45;&gt;Node5 -->
<g id="edge4" class="edge"><title>Node6&#45;&gt;Node5</title>
<path fill="none" stroke="#9a32cd" stroke-dasharray="5,2" d="M154,-203.09C154,-190.757 154,-176.224 154,-165.731"/>
<polygon fill="#9a32cd" stroke="#9a32cd" points="150.5,-203.205 154,-213.205 157.5,-203.205 150.5,-203.205"/>
<text text-anchor="middle" x="164.5" y="-187" font-family="Helvetica,sans-Serif" font-size="10.00"> bits</text>
</g>
</g>
</svg>
