<?xml version="1.0" encoding="UTF-8" standalone="no"?>
<!DOCTYPE svg PUBLIC "-//W3C//DTD SVG 1.1//EN"
 "http://www.w3.org/Graphics/SVG/1.1/DTD/svg11.dtd">
<!-- Generated by graphviz version 2.38.0 (20140413.2041)
 -->
<!-- Title: ant::analysis::physics::EtapDalitz::RefTree_t Pages: 1 -->
<svg width="1320pt" height="192pt"
 viewBox="0.00 0.00 1320.00 191.50" xmlns="http://www.w3.org/2000/svg" xmlns:xlink="http://www.w3.org/1999/xlink">
<g id="graph0" class="graph" transform="scale(1 1) rotate(0) translate(4 187.5)">
<title>ant::analysis::physics::EtapDalitz::RefTree_t</title>
<polygon fill="white" stroke="none" points="-4,4 -4,-187.5 1316,-187.5 1316,4 -4,4"/>
<!-- Node7 -->
<g id="node1" class="node"><title>Node7</title>
<polygon fill="#bfbfbf" stroke="black" points="1192,-73 1192,-103 1312,-103 1312,-73 1192,-73"/>
<text text-anchor="start" x="1200" y="-91" font-family="Helvetica,sans-Serif" font-size="10.00">ant::analysis::physics</text>
<text text-anchor="middle" x="1252" y="-80" font-family="Helvetica,sans-Serif" font-size="10.00">::EtapDalitz::RefTree_t</text>
</g>
<!-- Node8 -->
<g id="node2" class="node"><title>Node8</title>
<g id="a_node2"><a xlink:href="structant_1_1analysis_1_1physics_1_1_etap_dalitz_1_1common__tree.html" target="_top" xlink:title="ant::analysis::physics\l::EtapDalitz::common_tree">
<polygon fill="white" stroke="black" points="1000.5,-104 1000.5,-134 1145.5,-134 1145.5,-104 1000.5,-104"/>
<text text-anchor="start" x="1008.5" y="-122" font-family="Helvetica,sans-Serif" font-size="10.00">ant::analysis::physics</text>
<text text-anchor="middle" x="1073" y="-111" font-family="Helvetica,sans-Serif" font-size="10.00">::EtapDalitz::common_tree</text>
</a>
</g>
</g>
<!-- Node8&#45;&gt;Node7 -->
<g id="edge1" class="edge"><title>Node8&#45;&gt;Node7</title>
<path fill="none" stroke="midnightblue" d="M1155.88,-104.66C1168.02,-102.533 1180.34,-100.376 1191.89,-98.3522"/>
<polygon fill="midnightblue" stroke="midnightblue" points="1154.98,-101.263 1145.74,-106.436 1156.19,-108.158 1154.98,-101.263"/>
</g>
<!-- Node9 -->
<g id="node3" class="node"><title>Node9</title>
<g id="a_node3"><a xlink:href="classant_1_1_wrap_t_tree.html" target="_top" xlink:title="The WrapTTree struct simplifies TTree handling in physics classes. ">
<polygon fill="white" stroke="black" points="852,-92.5 852,-111.5 938,-111.5 938,-92.5 852,-92.5"/>
<text text-anchor="middle" x="895" y="-99.5" font-family="Helvetica,sans-Serif" font-size="10.00">ant::WrapTTree</text>
</a>
</g>
</g>
<!-- Node9&#45;&gt;Node8 -->
<g id="edge2" class="edge"><title>Node9&#45;&gt;Node8</title>
<path fill="none" stroke="midnightblue" d="M948.527,-107.074C964.777,-108.643 982.965,-110.4 1000.28,-112.073"/>
<polygon fill="midnightblue" stroke="midnightblue" points="948.447,-103.55 938.156,-106.072 947.774,-110.517 948.447,-103.55"/>
</g>
<!-- Node10 -->
<g id="node4" class="node"><title>Node10</title>
<g id="a_node4"><a xlink:href="structant_1_1analysis_1_1physics_1_1_etap_dalitz_1_1proton__tree.html" target="_top" xlink:title="ant::analysis::physics\l::EtapDalitz::proton_tree">
<polygon fill="white" stroke="black" points="1006,-55 1006,-85 1140,-85 1140,-55 1006,-55"/>
<text text-anchor="start" x="1014" y="-73" font-family="Helvetica,sans-Serif" font-size="10.00">ant::analysis::physics</text>
<text text-anchor="middle" x="1073" y="-62" font-family="Helvetica,sans-Serif" font-size="10.00">::EtapDalitz::proton_tree</text>
</a>
</g>
</g>
<!-- Node9&#45;&gt;Node10 -->
<g id="edge4" class="edge"><title>Node9&#45;&gt;Node10</title>
<path fill="none" stroke="midnightblue" d="M948.198,-92.5094C966.261,-89.2253 986.749,-85.5001 1005.79,-82.0389"/>
<polygon fill="midnightblue" stroke="midnightblue" points="947.369,-89.1027 938.156,-94.3352 948.621,-95.9898 947.369,-89.1027"/>
</g>
<!-- Node11 -->
<g id="node5" class="node"><title>Node11</title>
<g id="a_node5"><a xlink:href="structant_1_1analysis_1_1physics_1_1_etap_dalitz_1_1photon__tree.html" target="_top" xlink:title="ant::analysis::physics\l::EtapDalitz::photon_tree\&lt; 2 \&gt;">
<polygon fill="white" stroke="black" points="991,-6 991,-36 1155,-36 1155,-6 991,-6"/>
<text text-anchor="start" x="999" y="-24" font-family="Helvetica,sans-Serif" font-size="10.00">ant::analysis::physics</text>
<text text-anchor="middle" x="1073" y="-13" font-family="Helvetica,sans-Serif" font-size="10.00">::EtapDalitz::photon_tree&lt; 2 &gt;</text>
</a>
</g>
</g>
<!-- Node9&#45;&gt;Node11 -->
<g id="edge6" class="edge"><title>Node9&#45;&gt;Node11</title>
<path fill="none" stroke="midnightblue" d="M917.966,-86.6301C936.688,-74.0761 964.672,-56.576 991,-45 998.519,-41.6942 1006.62,-38.6862 1014.7,-36.004"/>
<polygon fill="midnightblue" stroke="midnightblue" points="915.864,-83.8273 909.567,-92.3481 919.803,-89.6137 915.864,-83.8273"/>
</g>
<!-- Node17 -->
<g id="node11" class="node"><title>Node17</title>
<g id="a_node11"><a xlink:href="structant_1_1analysis_1_1physics_1_1_etap_dalitz_1_1fit__tree.html" target="_top" xlink:title="ant::analysis::physics\l::EtapDalitz::fit_tree\&lt; 2 \&gt;">
<polygon fill="white" stroke="black" points="1003,-153 1003,-183 1143,-183 1143,-153 1003,-153"/>
<text text-anchor="start" x="1011" y="-171" font-family="Helvetica,sans-Serif" font-size="10.00">ant::analysis::physics</text>
<text text-anchor="middle" x="1073" y="-160" font-family="Helvetica,sans-Serif" font-size="10.00">::EtapDalitz::fit_tree&lt; 2 &gt;</text>
</a>
</g>
</g>
<!-- Node9&#45;&gt;Node17 -->
<g id="edge13" class="edge"><title>Node9&#45;&gt;Node17</title>
<path fill="none" stroke="midnightblue" d="M925.619,-115.765C944.194,-124.151 968.755,-134.794 991,-143 1000.39,-146.464 1010.51,-149.851 1020.3,-152.958"/>
<polygon fill="midnightblue" stroke="midnightblue" points="927.047,-112.569 916.495,-111.61 924.146,-118.94 927.047,-112.569"/>
</g>
<!-- Node10&#45;&gt;Node7 -->
<g id="edge3" class="edge"><title>Node10&#45;&gt;Node7</title>
<path fill="none" stroke="midnightblue" d="M1150.23,-77.752C1164.18,-79.1711 1178.55,-80.6324 1191.91,-81.9912"/>
<polygon fill="midnightblue" stroke="midnightblue" points="1150.46,-74.2579 1140.16,-76.7281 1149.75,-81.222 1150.46,-74.2579"/>
</g>
<!-- Node11&#45;&gt;Node7 -->
<g id="edge5" class="edge"><title>Node11&#45;&gt;Node7</title>
<path fill="none" stroke="midnightblue" d="M1138.06,-39.115C1143.82,-41.0046 1149.54,-42.9774 1155,-45 1177.26,-53.2429 1201.67,-64.2027 1220.31,-72.9944"/>
<polygon fill="midnightblue" stroke="midnightblue" points="1138.95,-35.7251 1128.36,-36.0193 1136.82,-42.3938 1138.95,-35.7251"/>
</g>
<!-- Node12 -->
<g id="node6" class="node"><title>Node12</title>
<g id="a_node6"><a xlink:href="structant_1_1analysis_1_1physics_1_1_etap_dalitz_tools.html" target="_top" xlink:title="ant::analysis::physics\l::EtapDalitzTools">
<polygon fill="white" stroke="black" points="836,-6 836,-36 954,-36 954,-6 836,-6"/>
<text text-anchor="start" x="844" y="-24" font-family="Helvetica,sans-Serif" font-size="10.00">ant::analysis::physics</text>
<text text-anchor="middle" x="895" y="-13" font-family="Helvetica,sans-Serif" font-size="10.00">::EtapDalitzTools</text>
</a>
</g>
</g>
<!-- Node12&#45;&gt;Node11 -->
<g id="edge7" class="edge"><title>Node12&#45;&gt;Node11</title>
<path fill="none" stroke="midnightblue" d="M964.17,-21C972.858,-21 981.819,-21 990.688,-21"/>
<polygon fill="midnightblue" stroke="midnightblue" points="964.117,-17.5001 954.117,-21 964.117,-24.5001 964.117,-17.5001"/>
</g>
<!-- Node13 -->
<g id="node7" class="node"><title>Node13</title>
<g id="a_node7"><a xlink:href="structant_1_1analysis_1_1utils_1_1_cluster_tools.html" target="_top" xlink:title="ant::analysis::utils\l::ClusterTools">
<polygon fill="white" stroke="black" points="639,-6 639,-36 741,-36 741,-6 639,-6"/>
<text text-anchor="start" x="647" y="-24" font-family="Helvetica,sans-Serif" font-size="10.00">ant::analysis::utils</text>
<text text-anchor="middle" x="690" y="-13" font-family="Helvetica,sans-Serif" font-size="10.00">::ClusterTools</text>
</a>
</g>
</g>
<!-- Node13&#45;&gt;Node12 -->
<g id="edge8" class="edge"><title>Node13&#45;&gt;Node12</title>
<path fill="none" stroke="#9a32cd" stroke-dasharray="5,2" d="M751.181,-21C777.916,-21 809.264,-21 835.769,-21"/>
<polygon fill="#9a32cd" stroke="#9a32cd" points="751.18,-17.5001 741.18,-21 751.18,-24.5001 751.18,-17.5001"/>
<text text-anchor="middle" x="788.5" y="-24" font-family="Helvetica,sans-Serif" font-size="10.00"> clustertools</text>
</g>
<!-- Node14 -->
<g id="node8" class="node"><title>Node14</title>
<polygon fill="white" stroke="#bfbfbf" points="369,-0.5 369,-41.5 516,-41.5 516,-0.5 369,-0.5"/>
<text text-anchor="start" x="377" y="-29.5" font-family="Helvetica,sans-Serif" font-size="10.00">std::map&lt; Detector</text>
<text text-anchor="start" x="377" y="-18.5" font-family="Helvetica,sans-Serif" font-size="10.00">_t::Type_t, ant::analysis</text>
<text text-anchor="middle" x="442.5" y="-7.5" font-family="Helvetica,sans-Serif" font-size="10.00">::utils::ClusterTools::det_t &gt;</text>
</g>
<!-- Node14&#45;&gt;Node13 -->
<g id="edge9" class="edge"><title>Node14&#45;&gt;Node13</title>
<path fill="none" stroke="#9a32cd" stroke-dasharray="5,2" d="M526.503,-21C563.73,-21 606.423,-21 638.704,-21"/>
<polygon fill="#9a32cd" stroke="#9a32cd" points="526.162,-17.5001 516.162,-21 526.162,-24.5001 526.162,-17.5001"/>
<text text-anchor="middle" x="577.5" y="-24" font-family="Helvetica,sans-Serif" font-size="10.00"> cluster_detectors</text>
</g>
<!-- Node15 -->
<g id="node9" class="node"><title>Node15</title>
<g id="a_node9"><a xlink:href="structant_1_1analysis_1_1utils_1_1_cluster_tools_1_1det__t.html" target="_top" xlink:title="ant::analysis::utils\l::ClusterTools::det_t">
<polygon fill="white" stroke="black" points="174,-6 174,-36 284,-36 284,-6 174,-6"/>
<text text-anchor="start" x="182" y="-24" font-family="Helvetica,sans-Serif" font-size="10.00">ant::analysis::utils</text>
<text text-anchor="middle" x="229" y="-13" font-family="Helvetica,sans-Serif" font-size="10.00">::ClusterTools::det_t</text>
</a>
</g>
</g>
<!-- Node15&#45;&gt;Node14 -->
<g id="edge10" class="edge"><title>Node15&#45;&gt;Node14</title>
<path fill="none" stroke="#9a32cd" stroke-dasharray="5,2" d="M294.381,-21C317.852,-21 344.55,-21 368.701,-21"/>
<polygon fill="#9a32cd" stroke="#9a32cd" points="294.192,-17.5001 284.192,-21 294.192,-24.5001 294.192,-17.5001"/>
<text text-anchor="middle" x="326.5" y="-24" font-family="Helvetica,sans-Serif" font-size="10.00"> elements</text>
</g>
<!-- Node16 -->
<g id="node10" class="node"><title>Node16</title>
<polygon fill="white" stroke="#bfbfbf" points="0,-11.5 0,-30.5 122,-30.5 122,-11.5 0,-11.5"/>
<text text-anchor="middle" x="61" y="-18.5" font-family="Helvetica,sans-Serif" font-size="10.00">std::vector&lt; double &gt;</text>
</g>
<!-- Node16&#45;&gt;Node15 -->
<g id="edge11" class="edge"><title>Node16&#45;&gt;Node15</title>
<path fill="none" stroke="#9a32cd" stroke-dasharray="5,2" d="M132.417,-21C146.322,-21 160.71,-21 173.97,-21"/>
<polygon fill="#9a32cd" stroke="#9a32cd" points="132.399,-17.5001 122.399,-21 132.399,-24.5001 132.399,-17.5001"/>
<text text-anchor="middle" x="148" y="-24" font-family="Helvetica,sans-Serif" font-size="10.00"> R0</text>
</g>
<!-- Node17&#45;&gt;Node7 -->
<g id="edge12" class="edge"><title>Node17&#45;&gt;Node7</title>
<path fill="none" stroke="midnightblue" d="M1138.28,-149.606C1143.99,-147.537 1149.64,-145.329 1155,-143 1181.07,-131.673 1209.09,-115.06 1228.08,-103.059"/>
<polygon fill="midnightblue" stroke="midnightblue" points="1136.93,-146.368 1128.63,-152.952 1139.22,-152.981 1136.93,-146.368"/>
</g>
</g>
</svg>
