<?xml version="1.0" encoding="UTF-8" standalone="no"?>
<!DOCTYPE svg PUBLIC "-//W3C//DTD SVG 1.1//EN"
 "http://www.w3.org/Graphics/SVG/1.1/DTD/svg11.dtd">
<!-- Generated by graphviz version 2.38.0 (20140413.2041)
 -->
<!-- Title: ant::ClusterDetector_t Pages: 1 -->
<svg width="609pt" height="137pt"
 viewBox="0.00 0.00 609.00 137.00" xmlns="http://www.w3.org/2000/svg" xmlns:xlink="http://www.w3.org/1999/xlink">
<g id="graph0" class="graph" transform="scale(1 1) rotate(0) translate(4 133)">
<title>ant::ClusterDetector_t</title>
<polygon fill="white" stroke="none" points="-4,4 -4,-133 605,-133 605,4 -4,4"/>
<!-- Node0 -->
<g id="node1" class="node"><title>Node0</title>
<polygon fill="#bfbfbf" stroke="black" points="125,-77 125,-96 248,-96 248,-77 125,-77"/>
<text text-anchor="middle" x="186.5" y="-84" font-family="Helvetica,sans-Serif" font-size="10.00">ant::ClusterDetector_t</text>
</g>
<!-- Node2 -->
<g id="node3" class="node"><title>Node2</title>
<g id="a_node3"><a xlink:href="structant_1_1expconfig_1_1detector_1_1_c_b.html" target="_top" xlink:title="ant::expconfig::detector::CB">
<polygon fill="white" stroke="black" points="284,-99 284,-118 434,-118 434,-99 284,-99"/>
<text text-anchor="middle" x="359" y="-106" font-family="Helvetica,sans-Serif" font-size="10.00">ant::expconfig::detector::CB</text>
</a>
</g>
</g>
<!-- Node0&#45;&gt;Node2 -->
<g id="edge2" class="edge"><title>Node0&#45;&gt;Node2</title>
<path fill="none" stroke="midnightblue" d="M258.083,-95.6075C266.693,-96.7185 275.509,-97.856 284.165,-98.9729"/>
<polygon fill="midnightblue" stroke="midnightblue" points="258.458,-92.1269 248.092,-94.3183 257.562,-99.0693 258.458,-92.1269"/>
</g>
<!-- Node3 -->
<g id="node4" class="node"><title>Node3</title>
<g id="a_node4"><a xlink:href="structant_1_1expconfig_1_1detector_1_1_t_a_p_s.html" target="_top" xlink:title="ant::expconfig::detector\l::TAPS">
<polygon fill="white" stroke="black" points="293.5,-49.5 293.5,-79.5 424.5,-79.5 424.5,-49.5 293.5,-49.5"/>
<text text-anchor="start" x="301.5" y="-67.5" font-family="Helvetica,sans-Serif" font-size="10.00">ant::expconfig::detector</text>
<text text-anchor="middle" x="359" y="-56.5" font-family="Helvetica,sans-Serif" font-size="10.00">::TAPS</text>
</a>
</g>
</g>
<!-- Node0&#45;&gt;Node3 -->
<g id="edge3" class="edge"><title>Node0&#45;&gt;Node3</title>
<path fill="none" stroke="midnightblue" d="M258.187,-77.3791C269.808,-75.8796 281.802,-74.332 293.27,-72.8523"/>
<polygon fill="midnightblue" stroke="midnightblue" points="257.562,-73.9307 248.092,-78.6817 258.458,-80.8731 257.562,-73.9307"/>
</g>
<!-- Node1 -->
<g id="node2" class="node"><title>Node1</title>
<g id="a_node2"><a xlink:href="structant_1_1_detector__t.html" target="_top" xlink:title="The Detector_t struct is the minimal base class for all detectors. ">
<polygon fill="white" stroke="black" points="0,-77 0,-96 89,-96 89,-77 0,-77"/>
<text text-anchor="middle" x="44.5" y="-84" font-family="Helvetica,sans-Serif" font-size="10.00">ant::Detector_t</text>
</a>
</g>
</g>
<!-- Node1&#45;&gt;Node0 -->
<g id="edge1" class="edge"><title>Node1&#45;&gt;Node0</title>
<path fill="none" stroke="midnightblue" d="M99.0804,-86.5C107.485,-86.5 116.225,-86.5 124.776,-86.5"/>
<polygon fill="midnightblue" stroke="midnightblue" points="99.0295,-83.0001 89.0295,-86.5 99.0294,-90.0001 99.0295,-83.0001"/>
</g>
<!-- Node4 -->
<g id="node5" class="node"><title>Node4</title>
<g id="a_node5"><a xlink:href="structant_1_1expconfig_1_1detector_1_1_t_a_p_s__2007.html" target="_top" xlink:title="ant::expconfig::detector\l::TAPS_2007">
<polygon fill="white" stroke="black" points="470,-98.5 470,-128.5 601,-128.5 601,-98.5 470,-98.5"/>
<text text-anchor="start" x="478" y="-116.5" font-family="Helvetica,sans-Serif" font-size="10.00">ant::expconfig::detector</text>
<text text-anchor="middle" x="535.5" y="-105.5" font-family="Helvetica,sans-Serif" font-size="10.00">::TAPS_2007</text>
</a>
</g>
</g>
<!-- Node3&#45;&gt;Node4 -->
<g id="edge4" class="edge"><title>Node3&#45;&gt;Node4</title>
<path fill="none" stroke="midnightblue" d="M423.465,-82.3212C442.306,-87.6118 462.749,-93.3522 480.898,-98.4484"/>
<polygon fill="midnightblue" stroke="midnightblue" points="424.353,-78.9353 413.78,-79.6014 422.461,-85.6746 424.353,-78.9353"/>
</g>
<!-- Node5 -->
<g id="node6" class="node"><title>Node5</title>
<g id="a_node6"><a xlink:href="structant_1_1expconfig_1_1detector_1_1_t_a_p_s__2009__03.html" target="_top" xlink:title="ant::expconfig::detector\l::TAPS_2009_03">
<polygon fill="white" stroke="black" points="470,-49.5 470,-79.5 601,-79.5 601,-49.5 470,-49.5"/>
<text text-anchor="start" x="478" y="-67.5" font-family="Helvetica,sans-Serif" font-size="10.00">ant::expconfig::detector</text>
<text text-anchor="middle" x="535.5" y="-56.5" font-family="Helvetica,sans-Serif" font-size="10.00">::TAPS_2009_03</text>
</a>
</g>
</g>
<!-- Node3&#45;&gt;Node5 -->
<g id="edge5" class="edge"><title>Node3&#45;&gt;Node5</title>
<path fill="none" stroke="midnightblue" d="M435.039,-64.5C446.599,-64.5 458.45,-64.5 469.759,-64.5"/>
<polygon fill="midnightblue" stroke="midnightblue" points="434.977,-61.0001 424.977,-64.5 434.977,-68.0001 434.977,-61.0001"/>
</g>
<!-- Node6 -->
<g id="node7" class="node"><title>Node6</title>
<g id="a_node7"><a xlink:href="structant_1_1expconfig_1_1detector_1_1_t_a_p_s__2013__11.html" target="_top" xlink:title="ant::expconfig::detector\l::TAPS_2013_11">
<polygon fill="white" stroke="black" points="470,-0.5 470,-30.5 601,-30.5 601,-0.5 470,-0.5"/>
<text text-anchor="start" x="478" y="-18.5" font-family="Helvetica,sans-Serif" font-size="10.00">ant::expconfig::detector</text>
<text text-anchor="middle" x="535.5" y="-7.5" font-family="Helvetica,sans-Serif" font-size="10.00">::TAPS_2013_11</text>
</a>
</g>
</g>
<!-- Node3&#45;&gt;Node6 -->
<g id="edge6" class="edge"><title>Node3&#45;&gt;Node6</title>
<path fill="none" stroke="midnightblue" d="M423.465,-46.6788C442.306,-41.3882 462.749,-35.6478 480.898,-30.5516"/>
<polygon fill="midnightblue" stroke="midnightblue" points="422.461,-43.3254 413.78,-49.3986 424.353,-50.0647 422.461,-43.3254"/>
</g>
</g>
</svg>
