<?xml version="1.0" encoding="UTF-8" standalone="no"?>
<!DOCTYPE svg PUBLIC "-//W3C//DTD SVG 1.1//EN"
 "http://www.w3.org/Graphics/SVG/1.1/DTD/svg11.dtd">
<!-- Generated by graphviz version 2.38.0 (20140413.2041)
 -->
<!-- Title: ant::padoption Pages: 1 -->
<svg width="176pt" height="120pt"
 viewBox="0.00 0.00 176.00 120.00" xmlns="http://www.w3.org/2000/svg" xmlns:xlink="http://www.w3.org/1999/xlink">
<g id="graph0" class="graph" transform="scale(1 1) rotate(0) translate(4 116)">
<title>ant::padoption</title>
<polygon fill="white" stroke="none" points="-4,4 -4,-116 172,-116 172,4 -4,4"/>
<!-- Node2 -->
<g id="node1" class="node"><title>Node2</title>
<polygon fill="#bfbfbf" stroke="black" points="0,-18 0,-37 86,-37 86,-18 0,-18"/>
<text text-anchor="middle" x="43" y="-25" font-family="Helvetica,sans-Serif" font-size="10.00">ant::padoption</text>
</g>
<!-- Node2&#45;&gt;Node2 -->
<g id="edge2" class="edge"><title>Node2&#45;&gt;Node2</title>
<path fill="none" stroke="#9a32cd" stroke-dasharray="5,2" d="M96.2545,-34.3157C101.013,-32.8884 104,-30.6165 104,-27.5 104,-22.5137 96.3545,-19.6894 86.0361,-19.0271"/>
<polygon fill="#9a32cd" stroke="#9a32cd" points="95.3468,-30.9171 86.0361,-35.9729 96.4675,-37.8268 95.3468,-30.9171"/>
<text text-anchor="middle" x="136" y="-47" font-family="Helvetica,sans-Serif" font-size="10.00"> MakeSquare</text>
<text text-anchor="middle" x="136" y="-36" font-family="Helvetica,sans-Serif" font-size="10.00">LogX</text>
<text text-anchor="middle" x="136" y="-25" font-family="Helvetica,sans-Serif" font-size="10.00">LogY</text>
<text text-anchor="middle" x="136" y="-14" font-family="Helvetica,sans-Serif" font-size="10.00">LogZ</text>
<text text-anchor="middle" x="136" y="-3" font-family="Helvetica,sans-Serif" font-size="10.00">Legend</text>
</g>
<!-- Node3 -->
<g id="node2" class="node"><title>Node3</title>
<polygon fill="white" stroke="#bfbfbf" points="1.5,-92.5 1.5,-111.5 84.5,-111.5 84.5,-92.5 1.5,-92.5"/>
<text text-anchor="middle" x="43" y="-99.5" font-family="Helvetica,sans-Serif" font-size="10.00">padmodifier_t</text>
</g>
<!-- Node3&#45;&gt;Node2 -->
<g id="edge1" class="edge"><title>Node3&#45;&gt;Node2</title>
<path fill="none" stroke="midnightblue" d="M43,-82.0253C43,-67.4812 43,-48.0945 43,-37.0902"/>
<polygon fill="midnightblue" stroke="midnightblue" points="39.5001,-82.3986 43,-92.3986 46.5001,-82.3986 39.5001,-82.3986"/>
</g>
</g>
</svg>
