<?xml version="1.0" encoding="UTF-8" standalone="no"?>
<!DOCTYPE svg PUBLIC "-//W3C//DTD SVG 1.1//EN"
 "http://www.w3.org/Graphics/SVG/1.1/DTD/svg11.dtd">
<!-- Generated by graphviz version 2.38.0 (20140413.2041)
 -->
<!-- Title: ant::analysis::physics::scratch_wagner_MCGunChecks::Tree_t Pages: 1 -->
<svg width="180pt" height="106pt"
 viewBox="0.00 0.00 180.00 106.00" xmlns="http://www.w3.org/2000/svg" xmlns:xlink="http://www.w3.org/1999/xlink">
<g id="graph0" class="graph" transform="scale(1 1) rotate(0) translate(4 102)">
<title>ant::analysis::physics::scratch_wagner_MCGunChecks::Tree_t</title>
<polygon fill="white" stroke="none" points="-4,4 -4,-102 176,-102 176,4 -4,4"/>
<!-- Node2 -->
<g id="node1" class="node"><title>Node2</title>
<polygon fill="#bfbfbf" stroke="black" points="0,-0.5 0,-41.5 172,-41.5 172,-0.5 0,-0.5"/>
<text text-anchor="start" x="8" y="-29.5" font-family="Helvetica,sans-Serif" font-size="10.00">ant::analysis::physics</text>
<text text-anchor="start" x="8" y="-18.5" font-family="Helvetica,sans-Serif" font-size="10.00">::scratch_wagner_MCGunChecks</text>
<text text-anchor="middle" x="86" y="-7.5" font-family="Helvetica,sans-Serif" font-size="10.00">::Tree_t</text>
</g>
<!-- Node3 -->
<g id="node2" class="node"><title>Node3</title>
<g id="a_node2"><a xlink:href="classant_1_1_wrap_t_tree.html" target="_top" xlink:title="The WrapTTree struct simplifies TTree handling in physics classes. ">
<polygon fill="white" stroke="black" points="43,-78.5 43,-97.5 129,-97.5 129,-78.5 43,-78.5"/>
<text text-anchor="middle" x="86" y="-85.5" font-family="Helvetica,sans-Serif" font-size="10.00">ant::WrapTTree</text>
</a>
</g>
</g>
<!-- Node3&#45;&gt;Node2 -->
<g id="edge1" class="edge"><title>Node3&#45;&gt;Node2</title>
<path fill="none" stroke="midnightblue" d="M86,-68.037C86,-59.7084 86,-49.9358 86,-41.5421"/>
<polygon fill="midnightblue" stroke="midnightblue" points="82.5001,-68.2338 86,-78.2338 89.5001,-68.2338 82.5001,-68.2338"/>
</g>
</g>
</svg>
