<?xml version="1.0" encoding="UTF-8" standalone="no"?>
<!DOCTYPE svg PUBLIC "-//W3C//DTD SVG 1.1//EN"
 "http://www.w3.org/Graphics/SVG/1.1/DTD/svg11.dtd">
<!-- Generated by graphviz version 2.38.0 (20140413.2041)
 -->
<!-- Title: ant::analysis::utils::UncertaintyModels::MCSmearingAdlarson Pages: 1 -->
<svg width="290pt" height="128pt"
 viewBox="0.00 0.00 289.50 128.00" xmlns="http://www.w3.org/2000/svg" xmlns:xlink="http://www.w3.org/1999/xlink">
<g id="graph0" class="graph" transform="scale(1 1) rotate(0) translate(4 124)">
<title>ant::analysis::utils::UncertaintyModels::MCSmearingAdlarson</title>
<polygon fill="white" stroke="none" points="-4,4 -4,-124 285.5,-124 285.5,4 -4,4"/>
<!-- Node2 -->
<g id="node1" class="node"><title>Node2</title>
<polygon fill="#bfbfbf" stroke="black" points="68.5,-0.5 68.5,-41.5 188.5,-41.5 188.5,-0.5 68.5,-0.5"/>
<text text-anchor="start" x="76.5" y="-29.5" font-family="Helvetica,sans-Serif" font-size="10.00">ant::analysis::utils</text>
<text text-anchor="start" x="76.5" y="-18.5" font-family="Helvetica,sans-Serif" font-size="10.00">::UncertaintyModels::</text>
<text text-anchor="middle" x="128.5" y="-7.5" font-family="Helvetica,sans-Serif" font-size="10.00">MCSmearingAdlarson</text>
</g>
<!-- Node3 -->
<g id="node2" class="node"><title>Node3</title>
<g id="a_node2"><a xlink:href="classant_1_1analysis_1_1utils_1_1_uncertainty_model.html" target="_top" xlink:title="Virtual base class for different Uncertainty Models for fitter. Implement at least the GetSigmas() me...">
<polygon fill="white" stroke="black" points="0,-89.5 0,-119.5 107,-119.5 107,-89.5 0,-89.5"/>
<text text-anchor="start" x="8" y="-107.5" font-family="Helvetica,sans-Serif" font-size="10.00">ant::analysis::utils</text>
<text text-anchor="middle" x="53.5" y="-96.5" font-family="Helvetica,sans-Serif" font-size="10.00">::UncertaintyModel</text>
</a>
</g>
</g>
<!-- Node3&#45;&gt;Node2 -->
<g id="edge1" class="edge"><title>Node3&#45;&gt;Node2</title>
<path fill="none" stroke="midnightblue" d="M73.6515,-81.6021C85.1427,-69.115 99.4217,-53.5984 110.53,-41.5278"/>
<polygon fill="midnightblue" stroke="midnightblue" points="70.7601,-79.5753 66.564,-89.3038 75.911,-84.3154 70.7601,-79.5753"/>
</g>
<!-- Node4 -->
<g id="node3" class="node"><title>Node4</title>
<polygon fill="white" stroke="#bfbfbf" points="125.5,-95 125.5,-114 281.5,-114 281.5,-95 125.5,-95"/>
<text text-anchor="middle" x="203.5" y="-102" font-family="Helvetica,sans-Serif" font-size="10.00">std::unique_ptr&lt; TRandom &gt;</text>
</g>
<!-- Node4&#45;&gt;Node2 -->
<g id="edge2" class="edge"><title>Node4&#45;&gt;Node2</title>
<path fill="none" stroke="#9a32cd" stroke-dasharray="5,2" d="M188.698,-87.4156C176.644,-74.316 159.572,-55.7646 146.685,-41.7614"/>
<polygon fill="#9a32cd" stroke="#9a32cd" points="186.127,-89.7897 195.474,-94.7781 191.278,-85.0496 186.127,-89.7897"/>
<text text-anchor="middle" x="183" y="-63" font-family="Helvetica,sans-Serif" font-size="10.00"> rng</text>
</g>
</g>
</svg>
