<?xml version="1.0" encoding="UTF-8" standalone="no"?>
<!DOCTYPE svg PUBLIC "-//W3C//DTD SVG 1.1//EN"
 "http://www.w3.org/Graphics/SVG/1.1/DTD/svg11.dtd">
<!-- Generated by graphviz version 2.38.0 (20140413.2041)
 -->
<!-- Title: ant::analysis::input::GoatReader::treeDetectorHitInput_t::treeCluster_t Pages: 1 -->
<svg width="168pt" height="262pt"
 viewBox="0.00 0.00 168.00 262.00" xmlns="http://www.w3.org/2000/svg" xmlns:xlink="http://www.w3.org/1999/xlink">
<g id="graph0" class="graph" transform="scale(1 1) rotate(0) translate(4 258)">
<title>ant::analysis::input::GoatReader::treeDetectorHitInput_t::treeCluster_t</title>
<polygon fill="white" stroke="none" points="-4,4 -4,-258 164,-258 164,4 -4,4"/>
<!-- Node4 -->
<g id="node1" class="node"><title>Node4</title>
<polygon fill="#bfbfbf" stroke="black" points="0,-0.5 0,-41.5 160,-41.5 160,-0.5 0,-0.5"/>
<text text-anchor="start" x="8" y="-29.5" font-family="Helvetica,sans-Serif" font-size="10.00">ant::analysis::input</text>
<text text-anchor="start" x="8" y="-18.5" font-family="Helvetica,sans-Serif" font-size="10.00">::GoatReader::treeDetectorHit</text>
<text text-anchor="middle" x="80" y="-7.5" font-family="Helvetica,sans-Serif" font-size="10.00">Input_t::treeCluster_t</text>
</g>
<!-- Node5 -->
<g id="node2" class="node"><title>Node5</title>
<g id="a_node2"><a xlink:href="structant_1_1analysis_1_1input_1_1_goat_reader_1_1tree_detector_hit_input__t_1_1tree_energy_time__t.html" target="_top" xlink:title="ant::analysis::input\l::GoatReader::treeDetectorHit\lInput_t::treeEnergyTime_t">
<polygon fill="white" stroke="black" points="0,-78.5 0,-119.5 160,-119.5 160,-78.5 0,-78.5"/>
<text text-anchor="start" x="8" y="-107.5" font-family="Helvetica,sans-Serif" font-size="10.00">ant::analysis::input</text>
<text text-anchor="start" x="8" y="-96.5" font-family="Helvetica,sans-Serif" font-size="10.00">::GoatReader::treeDetectorHit</text>
<text text-anchor="middle" x="80" y="-85.5" font-family="Helvetica,sans-Serif" font-size="10.00">Input_t::treeEnergyTime_t</text>
</a>
</g>
</g>
<!-- Node5&#45;&gt;Node4 -->
<g id="edge1" class="edge"><title>Node5&#45;&gt;Node4</title>
<path fill="none" stroke="midnightblue" d="M80,-68.2965C80,-59.3009 80,-49.6532 80,-41.5056"/>
<polygon fill="midnightblue" stroke="midnightblue" points="76.5001,-68.4281 80,-78.4281 83.5001,-68.4281 76.5001,-68.4281"/>
</g>
<!-- Node6 -->
<g id="node3" class="node"><title>Node6</title>
<g id="a_node3"><a xlink:href="structant_1_1analysis_1_1input_1_1_goat_reader_1_1tree_detector_hit_input__t_1_1tree_hits__t.html" target="_top" xlink:title="ant::analysis::input\l::GoatReader::treeDetectorHit\lInput_t::treeHits_t">
<polygon fill="white" stroke="black" points="0,-156.5 0,-197.5 160,-197.5 160,-156.5 0,-156.5"/>
<text text-anchor="start" x="8" y="-185.5" font-family="Helvetica,sans-Serif" font-size="10.00">ant::analysis::input</text>
<text text-anchor="start" x="8" y="-174.5" font-family="Helvetica,sans-Serif" font-size="10.00">::GoatReader::treeDetectorHit</text>
<text text-anchor="middle" x="80" y="-163.5" font-family="Helvetica,sans-Serif" font-size="10.00">Input_t::treeHits_t</text>
</a>
</g>
</g>
<!-- Node6&#45;&gt;Node5 -->
<g id="edge2" class="edge"><title>Node6&#45;&gt;Node5</title>
<path fill="none" stroke="midnightblue" d="M80,-146.297C80,-137.301 80,-127.653 80,-119.506"/>
<polygon fill="midnightblue" stroke="midnightblue" points="76.5001,-146.428 80,-156.428 83.5001,-146.428 76.5001,-146.428"/>
</g>
<!-- Node7 -->
<g id="node4" class="node"><title>Node7</title>
<g id="a_node4"><a xlink:href="classant_1_1_wrap_t_tree.html" target="_top" xlink:title="The WrapTTree struct simplifies TTree handling in physics classes. ">
<polygon fill="white" stroke="black" points="37,-234.5 37,-253.5 123,-253.5 123,-234.5 37,-234.5"/>
<text text-anchor="middle" x="80" y="-241.5" font-family="Helvetica,sans-Serif" font-size="10.00">ant::WrapTTree</text>
</a>
</g>
</g>
<!-- Node7&#45;&gt;Node6 -->
<g id="edge3" class="edge"><title>Node7&#45;&gt;Node6</title>
<path fill="none" stroke="midnightblue" d="M80,-224.037C80,-215.708 80,-205.936 80,-197.542"/>
<polygon fill="midnightblue" stroke="midnightblue" points="76.5001,-224.234 80,-234.234 83.5001,-224.234 76.5001,-224.234"/>
</g>
</g>
</svg>
