<?xml version="1.0" encoding="UTF-8" standalone="no"?>
<!DOCTYPE svg PUBLIC "-//W3C//DTD SVG 1.1//EN"
 "http://www.w3.org/Graphics/SVG/1.1/DTD/svg11.dtd">
<!-- Generated by graphviz version 2.38.0 (20140413.2041)
 -->
<!-- Title: ant::analysis::physics::debugTaggEff Pages: 1 -->
<svg width="307pt" height="195pt"
 viewBox="0.00 0.00 307.00 195.00" xmlns="http://www.w3.org/2000/svg" xmlns:xlink="http://www.w3.org/1999/xlink">
<g id="graph0" class="graph" transform="scale(1 1) rotate(0) translate(4 191)">
<title>ant::analysis::physics::debugTaggEff</title>
<polygon fill="white" stroke="none" points="-4,4 -4,-191 303,-191 303,4 -4,4"/>
<!-- Node2 -->
<g id="node1" class="node"><title>Node2</title>
<polygon fill="#bfbfbf" stroke="black" points="99.5,-0.5 99.5,-30.5 217.5,-30.5 217.5,-0.5 99.5,-0.5"/>
<text text-anchor="start" x="107.5" y="-18.5" font-family="Helvetica,sans-Serif" font-size="10.00">ant::analysis::physics</text>
<text text-anchor="middle" x="158.5" y="-7.5" font-family="Helvetica,sans-Serif" font-size="10.00">::debugTaggEff</text>
</g>
<!-- Node3 -->
<g id="node2" class="node"><title>Node3</title>
<g id="a_node2"><a xlink:href="classant_1_1analysis_1_1_physics.html" target="_top" xlink:title="ant::analysis::Physics">
<polygon fill="white" stroke="black" points="7.5,-84 7.5,-103 125.5,-103 125.5,-84 7.5,-84"/>
<text text-anchor="middle" x="66.5" y="-91" font-family="Helvetica,sans-Serif" font-size="10.00">ant::analysis::Physics</text>
</a>
</g>
</g>
<!-- Node3&#45;&gt;Node2 -->
<g id="edge1" class="edge"><title>Node3&#45;&gt;Node2</title>
<path fill="none" stroke="midnightblue" d="M84.923,-77.281C101.439,-63.6374 125.473,-43.7832 141.529,-30.5198"/>
<polygon fill="midnightblue" stroke="midnightblue" points="82.5341,-74.7146 77.0536,-83.7818 86.9923,-80.1114 82.5341,-74.7146"/>
</g>
<!-- Node4 -->
<g id="node3" class="node"><title>Node4</title>
<g id="a_node3"><a xlink:href="classant_1_1analysis_1_1_histogram_factory.html" target="_top" xlink:title="ant::analysis::Histogram\lFactory">
<polygon fill="white" stroke="black" points="0,-156.5 0,-186.5 133,-186.5 133,-156.5 0,-156.5"/>
<text text-anchor="start" x="8" y="-174.5" font-family="Helvetica,sans-Serif" font-size="10.00">ant::analysis::Histogram</text>
<text text-anchor="middle" x="66.5" y="-163.5" font-family="Helvetica,sans-Serif" font-size="10.00">Factory</text>
</a>
</g>
</g>
<!-- Node4&#45;&gt;Node3 -->
<g id="edge2" class="edge"><title>Node4&#45;&gt;Node3</title>
<path fill="none" stroke="#9a32cd" stroke-dasharray="5,2" d="M66.5,-146.165C66.5,-131.396 66.5,-113.448 66.5,-103.064"/>
<polygon fill="#9a32cd" stroke="#9a32cd" points="63.0001,-146.205 66.5,-156.205 70.0001,-146.205 63.0001,-146.205"/>
<text text-anchor="middle" x="85.5" y="-130" font-family="Helvetica,sans-Serif" font-size="10.00"> HistFac</text>
</g>
<!-- Node5 -->
<g id="node4" class="node"><title>Node5</title>
<g id="a_node4"><a xlink:href="structant_1_1analysis_1_1physics_1_1debug_tagg_eff_1_1tagg_eff_tree__t.html" target="_top" xlink:title="ant::analysis::physics\l::debugTaggEff::taggEffTree_t">
<polygon fill="white" stroke="black" points="144,-78.5 144,-108.5 299,-108.5 299,-78.5 144,-78.5"/>
<text text-anchor="start" x="152" y="-96.5" font-family="Helvetica,sans-Serif" font-size="10.00">ant::analysis::physics</text>
<text text-anchor="middle" x="221.5" y="-85.5" font-family="Helvetica,sans-Serif" font-size="10.00">::debugTaggEff::taggEffTree_t</text>
</a>
</g>
</g>
<!-- Node5&#45;&gt;Node2 -->
<g id="edge3" class="edge"><title>Node5&#45;&gt;Node2</title>
<path fill="none" stroke="#9a32cd" stroke-dasharray="5,2" d="M203.103,-70.3065C192.514,-57.5329 179.522,-41.8596 170.297,-30.7309"/>
<polygon fill="#9a32cd" stroke="#9a32cd" points="200.574,-72.7398 209.65,-78.205 205.963,-68.2725 200.574,-72.7398"/>
<text text-anchor="middle" x="223" y="-52" font-family="Helvetica,sans-Serif" font-size="10.00"> TaggEffTree</text>
</g>
<!-- Node6 -->
<g id="node5" class="node"><title>Node6</title>
<g id="a_node5"><a xlink:href="classant_1_1_wrap_t_tree.html" target="_top" xlink:title="The WrapTTree struct simplifies TTree handling in physics classes. ">
<polygon fill="white" stroke="black" points="178.5,-162 178.5,-181 264.5,-181 264.5,-162 178.5,-162"/>
<text text-anchor="middle" x="221.5" y="-169" font-family="Helvetica,sans-Serif" font-size="10.00">ant::WrapTTree</text>
</a>
</g>
</g>
<!-- Node6&#45;&gt;Node5 -->
<g id="edge4" class="edge"><title>Node6&#45;&gt;Node5</title>
<path fill="none" stroke="midnightblue" d="M221.5,-151.782C221.5,-138.404 221.5,-120.688 221.5,-108.52"/>
<polygon fill="midnightblue" stroke="midnightblue" points="218,-151.782 221.5,-161.782 225,-151.782 218,-151.782"/>
</g>
</g>
</svg>
