<?xml version="1.0" encoding="UTF-8" standalone="no"?>
<!DOCTYPE svg PUBLIC "-//W3C//DTD SVG 1.1//EN"
 "http://www.w3.org/Graphics/SVG/1.1/DTD/svg11.dtd">
<!-- Generated by graphviz version 2.38.0 (20140413.2041)
 -->
<!-- Title: ant::analysis::physics::EtapDalitzTools Pages: 1 -->
<svg width="169pt" height="351pt"
 viewBox="0.00 0.00 168.50 351.00" xmlns="http://www.w3.org/2000/svg" xmlns:xlink="http://www.w3.org/1999/xlink">
<g id="graph0" class="graph" transform="scale(1 1) rotate(0) translate(4 347)">
<title>ant::analysis::physics::EtapDalitzTools</title>
<polygon fill="white" stroke="none" points="-4,4 -4,-347 164.5,-347 164.5,4 -4,4"/>
<!-- Node10 -->
<g id="node1" class="node"><title>Node10</title>
<polygon fill="#bfbfbf" stroke="black" points="14.5,-0.5 14.5,-30.5 132.5,-30.5 132.5,-0.5 14.5,-0.5"/>
<text text-anchor="start" x="22.5" y="-18.5" font-family="Helvetica,sans-Serif" font-size="10.00">ant::analysis::physics</text>
<text text-anchor="middle" x="73.5" y="-7.5" font-family="Helvetica,sans-Serif" font-size="10.00">::EtapDalitzTools</text>
</g>
<!-- Node11 -->
<g id="node2" class="node"><title>Node11</title>
<g id="a_node2"><a xlink:href="structant_1_1analysis_1_1utils_1_1_cluster_tools.html" target="_top" xlink:title="ant::analysis::utils\l::ClusterTools">
<polygon fill="white" stroke="black" points="22.5,-78.5 22.5,-108.5 124.5,-108.5 124.5,-78.5 22.5,-78.5"/>
<text text-anchor="start" x="30.5" y="-96.5" font-family="Helvetica,sans-Serif" font-size="10.00">ant::analysis::utils</text>
<text text-anchor="middle" x="73.5" y="-85.5" font-family="Helvetica,sans-Serif" font-size="10.00">::ClusterTools</text>
</a>
</g>
</g>
<!-- Node11&#45;&gt;Node10 -->
<g id="edge1" class="edge"><title>Node11&#45;&gt;Node10</title>
<path fill="none" stroke="#9a32cd" stroke-dasharray="5,2" d="M73.5,-68.0898C73.5,-55.7565 73.5,-41.2237 73.5,-30.7309"/>
<polygon fill="#9a32cd" stroke="#9a32cd" points="70.0001,-68.2049 73.5,-78.205 77.0001,-68.205 70.0001,-68.2049"/>
<text text-anchor="middle" x="103" y="-52" font-family="Helvetica,sans-Serif" font-size="10.00"> clustertools</text>
</g>
<!-- Node12 -->
<g id="node3" class="node"><title>Node12</title>
<polygon fill="white" stroke="#bfbfbf" points="0,-156.5 0,-197.5 147,-197.5 147,-156.5 0,-156.5"/>
<text text-anchor="start" x="8" y="-185.5" font-family="Helvetica,sans-Serif" font-size="10.00">std::map&lt; Detector</text>
<text text-anchor="start" x="8" y="-174.5" font-family="Helvetica,sans-Serif" font-size="10.00">_t::Type_t, ant::analysis</text>
<text text-anchor="middle" x="73.5" y="-163.5" font-family="Helvetica,sans-Serif" font-size="10.00">::utils::ClusterTools::det_t &gt;</text>
</g>
<!-- Node12&#45;&gt;Node11 -->
<g id="edge2" class="edge"><title>Node12&#45;&gt;Node11</title>
<path fill="none" stroke="#9a32cd" stroke-dasharray="5,2" d="M73.5,-146.025C73.5,-133.258 73.5,-118.97 73.5,-108.685"/>
<polygon fill="#9a32cd" stroke="#9a32cd" points="70.0001,-146.271 73.5,-156.271 77.0001,-146.271 70.0001,-146.271"/>
<text text-anchor="middle" x="117" y="-130" font-family="Helvetica,sans-Serif" font-size="10.00"> cluster_detectors</text>
</g>
<!-- Node13 -->
<g id="node4" class="node"><title>Node13</title>
<g id="a_node4"><a xlink:href="structant_1_1analysis_1_1utils_1_1_cluster_tools_1_1det__t.html" target="_top" xlink:title="ant::analysis::utils\l::ClusterTools::det_t">
<polygon fill="white" stroke="black" points="18.5,-245.5 18.5,-275.5 128.5,-275.5 128.5,-245.5 18.5,-245.5"/>
<text text-anchor="start" x="26.5" y="-263.5" font-family="Helvetica,sans-Serif" font-size="10.00">ant::analysis::utils</text>
<text text-anchor="middle" x="73.5" y="-252.5" font-family="Helvetica,sans-Serif" font-size="10.00">::ClusterTools::det_t</text>
</a>
</g>
</g>
<!-- Node13&#45;&gt;Node12 -->
<g id="edge3" class="edge"><title>Node13&#45;&gt;Node12</title>
<path fill="none" stroke="#9a32cd" stroke-dasharray="5,2" d="M73.5,-235.066C73.5,-223.061 73.5,-208.794 73.5,-197.528"/>
<polygon fill="#9a32cd" stroke="#9a32cd" points="70.0001,-235.304 73.5,-245.304 77.0001,-235.304 70.0001,-235.304"/>
<text text-anchor="middle" x="98" y="-219" font-family="Helvetica,sans-Serif" font-size="10.00"> elements</text>
</g>
<!-- Node14 -->
<g id="node5" class="node"><title>Node14</title>
<polygon fill="white" stroke="#bfbfbf" points="12.5,-323.5 12.5,-342.5 134.5,-342.5 134.5,-323.5 12.5,-323.5"/>
<text text-anchor="middle" x="73.5" y="-330.5" font-family="Helvetica,sans-Serif" font-size="10.00">std::vector&lt; double &gt;</text>
</g>
<!-- Node14&#45;&gt;Node13 -->
<g id="edge4" class="edge"><title>Node14&#45;&gt;Node13</title>
<path fill="none" stroke="#9a32cd" stroke-dasharray="5,2" d="M73.5,-313.236C73.5,-301.408 73.5,-286.383 73.5,-275.576"/>
<polygon fill="#9a32cd" stroke="#9a32cd" points="70.0001,-313.355 73.5,-323.355 77.0001,-313.355 70.0001,-313.355"/>
<text text-anchor="middle" x="81.5" y="-297" font-family="Helvetica,sans-Serif" font-size="10.00"> R0</text>
</g>
</g>
</svg>
