<?xml version="1.0" encoding="UTF-8" standalone="no"?>
<!DOCTYPE svg PUBLIC "-//W3C//DTD SVG 1.1//EN"
 "http://www.w3.org/Graphics/SVG/1.1/DTD/svg11.dtd">
<!-- Generated by graphviz version 2.38.0 (20140413.2041)
 -->
<!-- Title: ant::analysis::physics::sigmaPlus::settings_t Pages: 1 -->
<svg width="590pt" height="187pt"
 viewBox="0.00 0.00 590.00 187.00" xmlns="http://www.w3.org/2000/svg" xmlns:xlink="http://www.w3.org/1999/xlink">
<g id="graph0" class="graph" transform="scale(1 1) rotate(0) translate(4 183)">
<title>ant::analysis::physics::sigmaPlus::settings_t</title>
<polygon fill="white" stroke="none" points="-4,4 -4,-183 586,-183 586,4 -4,4"/>
<!-- Node1 -->
<g id="node1" class="node"><title>Node1</title>
<polygon fill="#bfbfbf" stroke="black" points="457,-58 457,-88 582,-88 582,-58 457,-58"/>
<text text-anchor="start" x="465" y="-76" font-family="Helvetica,sans-Serif" font-size="10.00">ant::analysis::physics</text>
<text text-anchor="middle" x="519.5" y="-65" font-family="Helvetica,sans-Serif" font-size="10.00">::sigmaPlus::settings_t</text>
</g>
<!-- Node2 -->
<g id="node2" class="node"><title>Node2</title>
<polygon fill="white" stroke="#bfbfbf" points="218,-77 218,-107 332,-107 332,-77 218,-77"/>
<text text-anchor="start" x="226" y="-95" font-family="Helvetica,sans-Serif" font-size="10.00">std::vector&lt; interval</text>
<text text-anchor="middle" x="275" y="-84" font-family="Helvetica,sans-Serif" font-size="10.00">&lt; double &gt; &gt;</text>
</g>
<!-- Node2&#45;&gt;Node1 -->
<g id="edge1" class="edge"><title>Node2&#45;&gt;Node1</title>
<path fill="none" stroke="#9a32cd" stroke-dasharray="5,2" d="M342.54,-86.7865C378.149,-83.9966 421.723,-80.5825 456.601,-77.8498"/>
<polygon fill="#9a32cd" stroke="#9a32cd" points="341.94,-83.3228 332.244,-87.5933 342.487,-90.3014 341.94,-83.3228"/>
<text text-anchor="middle" x="397" y="-89" font-family="Helvetica,sans-Serif" font-size="10.00"> Ranges_Random</text>
</g>
<!-- Node3 -->
<g id="node3" class="node"><title>Node3</title>
<g id="a_node3"><a xlink:href="classant_1_1interval.html" target="_top" xlink:title="ant::interval\&lt; double \&gt;">
<polygon fill="white" stroke="black" points="0,-108.5 0,-127.5 128,-127.5 128,-108.5 0,-108.5"/>
<text text-anchor="middle" x="64" y="-115.5" font-family="Helvetica,sans-Serif" font-size="10.00">ant::interval&lt; double &gt;</text>
</a>
</g>
</g>
<!-- Node3&#45;&gt;Node1 -->
<g id="edge3" class="edge"><title>Node3&#45;&gt;Node1</title>
<path fill="none" stroke="#9a32cd" stroke-dasharray="5,2" d="M138.269,-123.043C214.56,-126.363 336.945,-126.226 439,-101 452.779,-97.594 467.53,-92.7491 480.538,-88.0448"/>
<polygon fill="#9a32cd" stroke="#9a32cd" points="138.43,-119.547 128.278,-122.577 138.104,-126.539 138.43,-119.547"/>
<text text-anchor="middle" x="275" y="-171" font-family="Helvetica,sans-Serif" font-size="10.00"> Range_Prompt</text>
<text text-anchor="middle" x="275" y="-160" font-family="Helvetica,sans-Serif" font-size="10.00">Cut_EMB_prob</text>
<text text-anchor="middle" x="275" y="-149" font-family="Helvetica,sans-Serif" font-size="10.00">Cut_MMAngle</text>
<text text-anchor="middle" x="275" y="-138" font-family="Helvetica,sans-Serif" font-size="10.00">Cut_MM</text>
<text text-anchor="middle" x="275" y="-127" font-family="Helvetica,sans-Serif" font-size="10.00">Cut_ProtonCopl</text>
</g>
<!-- Node3&#45;&gt;Node2 -->
<g id="edge2" class="edge"><title>Node3&#45;&gt;Node2</title>
<path fill="none" stroke="#9a32cd" stroke-dasharray="5,2" d="M138.468,-108.86C164.483,-105.624 193.32,-102.037 217.684,-99.0059"/>
<polygon fill="#9a32cd" stroke="#9a32cd" points="137.765,-105.421 128.274,-110.129 138.63,-112.367 137.765,-105.421"/>
<text text-anchor="middle" x="170.5" y="-111" font-family="Helvetica,sans-Serif" font-size="10.00"> elements</text>
</g>
<!-- Node4 -->
<g id="node4" class="node"><title>Node4</title>
<g id="a_node4"><a xlink:title="STL class. ">
<polygon fill="white" stroke="#bfbfbf" points="242.5,-38.5 242.5,-57.5 307.5,-57.5 307.5,-38.5 242.5,-38.5"/>
<text text-anchor="middle" x="275" y="-45.5" font-family="Helvetica,sans-Serif" font-size="10.00">std::string</text>
</a>
</g>
</g>
<!-- Node4&#45;&gt;Node1 -->
<g id="edge4" class="edge"><title>Node4&#45;&gt;Node1</title>
<path fill="none" stroke="#9a32cd" stroke-dasharray="5,2" d="M317.986,-52.3285C356.31,-56.2794 413.439,-62.1689 456.925,-66.652"/>
<polygon fill="#9a32cd" stroke="#9a32cd" points="318.009,-48.8123 307.703,-51.2683 317.291,-55.7754 318.009,-48.8123"/>
<text text-anchor="middle" x="397" y="-68" font-family="Helvetica,sans-Serif" font-size="10.00"> Tree_Name</text>
</g>
<!-- Node5 -->
<g id="node5" class="node"><title>Node5</title>
<g id="a_node5"><a xlink:title="STL class. ">
<polygon fill="white" stroke="#bfbfbf" points="12.5,-33 12.5,-63 115.5,-63 115.5,-33 12.5,-33"/>
<text text-anchor="start" x="20.5" y="-51" font-family="Helvetica,sans-Serif" font-size="10.00">std::basic_string&lt;</text>
<text text-anchor="middle" x="64" y="-40" font-family="Helvetica,sans-Serif" font-size="10.00"> char &gt;</text>
</a>
</g>
</g>
<!-- Node5&#45;&gt;Node4 -->
<g id="edge5" class="edge"><title>Node5&#45;&gt;Node4</title>
<path fill="none" stroke="midnightblue" d="M126.07,-48C164.172,-48 211.645,-48 242.374,-48"/>
<polygon fill="midnightblue" stroke="midnightblue" points="125.593,-44.5001 115.593,-48 125.593,-51.5001 125.593,-44.5001"/>
</g>
<!-- Node6 -->
<g id="node6" class="node"><title>Node6</title>
<g id="a_node6"><a xlink:href="classant_1_1interval.html" target="_top" xlink:title="ant::interval\&lt; size_t \&gt;">
<polygon fill="white" stroke="black" points="213,-0.5 213,-19.5 337,-19.5 337,-0.5 213,-0.5"/>
<text text-anchor="middle" x="275" y="-7.5" font-family="Helvetica,sans-Serif" font-size="10.00">ant::interval&lt; size_t &gt;</text>
</a>
</g>
</g>
<!-- Node6&#45;&gt;Node1 -->
<g id="edge6" class="edge"><title>Node6&#45;&gt;Node1</title>
<path fill="none" stroke="#9a32cd" stroke-dasharray="5,2" d="M347.162,-13.618C376.156,-16.5125 409.683,-21.7033 439,-31 459.087,-37.3699 480.097,-48.7014 495.47,-57.9902"/>
<polygon fill="#9a32cd" stroke="#9a32cd" points="347.39,-10.1242 337.11,-12.687 346.745,-17.0944 347.39,-10.1242"/>
<text text-anchor="middle" x="397" y="-45" font-family="Helvetica,sans-Serif" font-size="10.00"> Cut_NCands</text>
<text text-anchor="middle" x="397" y="-34" font-family="Helvetica,sans-Serif" font-size="10.00">Cut_NNeutr</text>
</g>
</g>
</svg>
