<?xml version="1.0" encoding="UTF-8" standalone="no"?>
<!DOCTYPE svg PUBLIC "-//W3C//DTD SVG 1.1//EN"
 "http://www.w3.org/Graphics/SVG/1.1/DTD/svg11.dtd">
<!-- Generated by graphviz version 2.38.0 (20140413.2041)
 -->
<!-- Title: ant::analysis::physics::MesonDalitzDecays::ReactionChannelList_t Pages: 1 -->
<svg width="995pt" height="50pt"
 viewBox="0.00 0.00 995.00 50.00" xmlns="http://www.w3.org/2000/svg" xmlns:xlink="http://www.w3.org/1999/xlink">
<g id="graph0" class="graph" transform="scale(1 1) rotate(0) translate(4 46)">
<title>ant::analysis::physics::MesonDalitzDecays::ReactionChannelList_t</title>
<polygon fill="white" stroke="none" points="-4,4 -4,-46 991,-46 991,4 -4,4"/>
<!-- Node1 -->
<g id="node1" class="node"><title>Node1</title>
<polygon fill="#bfbfbf" stroke="black" points="824,-0.5 824,-41.5 987,-41.5 987,-0.5 824,-0.5"/>
<text text-anchor="start" x="832" y="-29.5" font-family="Helvetica,sans-Serif" font-size="10.00">ant::analysis::physics</text>
<text text-anchor="start" x="832" y="-18.5" font-family="Helvetica,sans-Serif" font-size="10.00">::MesonDalitzDecays::Reaction</text>
<text text-anchor="middle" x="905.5" y="-7.5" font-family="Helvetica,sans-Serif" font-size="10.00">ChannelList_t</text>
</g>
<!-- Node2 -->
<g id="node2" class="node"><title>Node2</title>
<polygon fill="white" stroke="#bfbfbf" points="520,-0.5 520,-41.5 742,-41.5 742,-0.5 520,-0.5"/>
<text text-anchor="start" x="528" y="-29.5" font-family="Helvetica,sans-Serif" font-size="10.00">std::map&lt; unsigned,</text>
<text text-anchor="start" x="528" y="-18.5" font-family="Helvetica,sans-Serif" font-size="10.00"> ant::analysis::physics</text>
<text text-anchor="middle" x="631" y="-7.5" font-family="Helvetica,sans-Serif" font-size="10.00">::MesonDalitzDecays::ReactionChannel_t &gt;</text>
</g>
<!-- Node2&#45;&gt;Node1 -->
<g id="edge1" class="edge"><title>Node2&#45;&gt;Node1</title>
<path fill="none" stroke="#9a32cd" stroke-dasharray="5,2" d="M752.358,-21C776.525,-21 801.369,-21 823.791,-21"/>
<polygon fill="#9a32cd" stroke="#9a32cd" points="752.051,-17.5001 742.051,-21 752.051,-24.5001 752.051,-17.5001"/>
<text text-anchor="middle" x="783" y="-24" font-family="Helvetica,sans-Serif" font-size="10.00"> channels</text>
</g>
<!-- Node3 -->
<g id="node3" class="node"><title>Node3</title>
<g id="a_node3"><a xlink:href="structant_1_1analysis_1_1physics_1_1_meson_dalitz_decays_1_1_reaction_channel__t.html" target="_top" xlink:title="ant::analysis::physics\l::MesonDalitzDecays::Reaction\lChannel_t">
<polygon fill="white" stroke="black" points="272,-0.5 272,-41.5 435,-41.5 435,-0.5 272,-0.5"/>
<text text-anchor="start" x="280" y="-29.5" font-family="Helvetica,sans-Serif" font-size="10.00">ant::analysis::physics</text>
<text text-anchor="start" x="280" y="-18.5" font-family="Helvetica,sans-Serif" font-size="10.00">::MesonDalitzDecays::Reaction</text>
<text text-anchor="middle" x="353.5" y="-7.5" font-family="Helvetica,sans-Serif" font-size="10.00">Channel_t</text>
</a>
</g>
</g>
<!-- Node3&#45;&gt;Node2 -->
<g id="edge2" class="edge"><title>Node3&#45;&gt;Node2</title>
<path fill="none" stroke="#9a32cd" stroke-dasharray="5,2" d="M445.36,-21C469.166,-21 495.094,-21 519.79,-21"/>
<polygon fill="#9a32cd" stroke="#9a32cd" points="445.298,-17.5001 435.298,-21 445.298,-24.5001 445.298,-17.5001"/>
<text text-anchor="middle" x="477.5" y="-24" font-family="Helvetica,sans-Serif" font-size="10.00"> elements</text>
</g>
<!-- Node4 -->
<g id="node4" class="node"><title>Node4</title>
<g id="a_node4"><a xlink:title="STL class. ">
<polygon fill="white" stroke="#bfbfbf" points="140,-11.5 140,-30.5 205,-30.5 205,-11.5 140,-11.5"/>
<text text-anchor="middle" x="172.5" y="-18.5" font-family="Helvetica,sans-Serif" font-size="10.00">std::string</text>
</a>
</g>
</g>
<!-- Node4&#45;&gt;Node3 -->
<g id="edge3" class="edge"><title>Node4&#45;&gt;Node3</title>
<path fill="none" stroke="#9a32cd" stroke-dasharray="5,2" d="M215.146,-21C232.019,-21 252.107,-21 271.64,-21"/>
<polygon fill="#9a32cd" stroke="#9a32cd" points="215.09,-17.5001 205.09,-21 215.09,-24.5001 215.09,-17.5001"/>
<text text-anchor="middle" x="238.5" y="-24" font-family="Helvetica,sans-Serif" font-size="10.00"> name</text>
</g>
<!-- Node5 -->
<g id="node5" class="node"><title>Node5</title>
<g id="a_node5"><a xlink:title="STL class. ">
<polygon fill="white" stroke="#bfbfbf" points="0,-6 0,-36 103,-36 103,-6 0,-6"/>
<text text-anchor="start" x="8" y="-24" font-family="Helvetica,sans-Serif" font-size="10.00">std::basic_string&lt;</text>
<text text-anchor="middle" x="51.5" y="-13" font-family="Helvetica,sans-Serif" font-size="10.00"> char &gt;</text>
</a>
</g>
</g>
<!-- Node5&#45;&gt;Node4 -->
<g id="edge4" class="edge"><title>Node5&#45;&gt;Node4</title>
<path fill="none" stroke="midnightblue" d="M113.539,-21C122.619,-21 131.651,-21 139.788,-21"/>
<polygon fill="midnightblue" stroke="midnightblue" points="113.312,-17.5001 103.312,-21 113.312,-24.5001 113.312,-17.5001"/>
</g>
</g>
</svg>
