<?xml version="1.0" encoding="UTF-8" standalone="no"?>
<!DOCTYPE svg PUBLIC "-//W3C//DTD SVG 1.1//EN"
 "http://www.w3.org/Graphics/SVG/1.1/DTD/svg11.dtd">
<!-- Generated by graphviz version 2.38.0 (20140413.2041)
 -->
<!-- Title: ant::analysis::input::detail::AntReaderInternal Pages: 1 -->
<svg width="318pt" height="88pt"
 viewBox="0.00 0.00 318.00 88.00" xmlns="http://www.w3.org/2000/svg" xmlns:xlink="http://www.w3.org/1999/xlink">
<g id="graph0" class="graph" transform="scale(1 1) rotate(0) translate(4 84)">
<title>ant::analysis::input::detail::AntReaderInternal</title>
<polygon fill="white" stroke="none" points="-4,4 -4,-84 314,-84 314,4 -4,4"/>
<!-- Node0 -->
<g id="node1" class="node"><title>Node0</title>
<polygon fill="#bfbfbf" stroke="black" points="0,-24.5 0,-54.5 140,-54.5 140,-24.5 0,-24.5"/>
<text text-anchor="start" x="8" y="-42.5" font-family="Helvetica,sans-Serif" font-size="10.00">ant::analysis::input</text>
<text text-anchor="middle" x="70" y="-31.5" font-family="Helvetica,sans-Serif" font-size="10.00">::detail::AntReaderInternal</text>
</g>
<!-- Node1 -->
<g id="node2" class="node"><title>Node1</title>
<g id="a_node2"><a xlink:href="structant_1_1analysis_1_1input_1_1detail_1_1_tree_reader.html" target="_top" xlink:title="ant::analysis::input\l::detail::TreeReader">
<polygon fill="white" stroke="black" points="189.5,-49.5 189.5,-79.5 296.5,-79.5 296.5,-49.5 189.5,-49.5"/>
<text text-anchor="start" x="197.5" y="-67.5" font-family="Helvetica,sans-Serif" font-size="10.00">ant::analysis::input</text>
<text text-anchor="middle" x="243" y="-56.5" font-family="Helvetica,sans-Serif" font-size="10.00">::detail::TreeReader</text>
</a>
</g>
</g>
<!-- Node0&#45;&gt;Node1 -->
<g id="edge1" class="edge"><title>Node0&#45;&gt;Node1</title>
<path fill="none" stroke="midnightblue" d="M150.14,-51.0701C163.402,-53.0091 176.869,-54.978 189.256,-56.7889"/>
<polygon fill="midnightblue" stroke="midnightblue" points="150.461,-47.5799 140.059,-49.5964 149.448,-54.5063 150.461,-47.5799"/>
</g>
<!-- Node2 -->
<g id="node3" class="node"><title>Node2</title>
<g id="a_node3"><a xlink:href="structant_1_1analysis_1_1input_1_1detail_1_1_unpacker_reader.html" target="_top" xlink:title="ant::analysis::input\l::detail::UnpackerReader">
<polygon fill="white" stroke="black" points="176,-0.5 176,-30.5 310,-30.5 310,-0.5 176,-0.5"/>
<text text-anchor="start" x="184" y="-18.5" font-family="Helvetica,sans-Serif" font-size="10.00">ant::analysis::input</text>
<text text-anchor="middle" x="243" y="-7.5" font-family="Helvetica,sans-Serif" font-size="10.00">::detail::UnpackerReader</text>
</a>
</g>
</g>
<!-- Node0&#45;&gt;Node2 -->
<g id="edge2" class="edge"><title>Node0&#45;&gt;Node2</title>
<path fill="none" stroke="midnightblue" d="M150.074,-28.4019C158.656,-27.1974 167.325,-25.9806 175.733,-24.8006"/>
<polygon fill="midnightblue" stroke="midnightblue" points="149.476,-24.9515 140.059,-29.8075 150.449,-31.8835 149.476,-24.9515"/>
</g>
</g>
</svg>
