<?xml version="1.0" encoding="UTF-8" standalone="no"?>
<!DOCTYPE svg PUBLIC "-//W3C//DTD SVG 1.1//EN"
 "http://www.w3.org/Graphics/SVG/1.1/DTD/svg11.dtd">
<!-- Generated by graphviz version 2.38.0 (20140413.2041)
 -->
<!-- Title: ant::ReconstructHook::Clusters Pages: 1 -->
<svg width="774pt" height="186pt"
 viewBox="0.00 0.00 774.00 186.00" xmlns="http://www.w3.org/2000/svg" xmlns:xlink="http://www.w3.org/1999/xlink">
<g id="graph0" class="graph" transform="scale(1 1) rotate(0) translate(4 182)">
<title>ant::ReconstructHook::Clusters</title>
<polygon fill="white" stroke="none" points="-4,4 -4,-182 770,-182 770,4 -4,4"/>
<!-- Node0 -->
<g id="node1" class="node"><title>Node0</title>
<polygon fill="#bfbfbf" stroke="black" points="155,-24.5 155,-54.5 274,-54.5 274,-24.5 155,-24.5"/>
<text text-anchor="start" x="163" y="-42.5" font-family="Helvetica,sans-Serif" font-size="10.00">ant::ReconstructHook</text>
<text text-anchor="middle" x="214.5" y="-31.5" font-family="Helvetica,sans-Serif" font-size="10.00">::Clusters</text>
</g>
<!-- Node2 -->
<g id="node3" class="node"><title>Node2</title>
<g id="a_node3"><a xlink:href="classant_1_1calibration_1_1_cluster_correction.html" target="_top" xlink:title="ant::calibration::Cluster\lCorrection">
<polygon fill="white" stroke="black" points="310,-49.5 310,-79.5 438,-79.5 438,-49.5 310,-49.5"/>
<text text-anchor="start" x="318" y="-67.5" font-family="Helvetica,sans-Serif" font-size="10.00">ant::calibration::Cluster</text>
<text text-anchor="middle" x="374" y="-56.5" font-family="Helvetica,sans-Serif" font-size="10.00">Correction</text>
</a>
</g>
</g>
<!-- Node0&#45;&gt;Node2 -->
<g id="edge2" class="edge"><title>Node0&#45;&gt;Node2</title>
<path fill="none" stroke="midnightblue" d="M284.086,-50.3867C292.637,-51.744 301.351,-53.1271 309.814,-54.4705"/>
<polygon fill="midnightblue" stroke="midnightblue" points="284.572,-46.9201 274.147,-48.8091 283.475,-53.8336 284.572,-46.9201"/>
</g>
<!-- Node9 -->
<g id="node10" class="node"><title>Node9</title>
<g id="a_node10"><a xlink:href="classant_1_1calibration_1_1_t_a_p_s___shower_correction.html" target="_top" xlink:title="ant::calibration::TAPS\l_ShowerCorrection">
<polygon fill="white" stroke="black" points="315,-0.5 315,-30.5 433,-30.5 433,-0.5 315,-0.5"/>
<text text-anchor="start" x="323" y="-18.5" font-family="Helvetica,sans-Serif" font-size="10.00">ant::calibration::TAPS</text>
<text text-anchor="middle" x="374" y="-7.5" font-family="Helvetica,sans-Serif" font-size="10.00">_ShowerCorrection</text>
</a>
</g>
</g>
<!-- Node0&#45;&gt;Node9 -->
<g id="edge9" class="edge"><title>Node0&#45;&gt;Node9</title>
<path fill="none" stroke="midnightblue" d="M284.245,-29.0245C294.445,-27.4703 304.873,-25.8813 314.828,-24.3643"/>
<polygon fill="midnightblue" stroke="midnightblue" points="283.506,-25.5967 274.147,-30.5633 284.56,-32.5168 283.506,-25.5967"/>
</g>
<!-- Node1 -->
<g id="node2" class="node"><title>Node1</title>
<g id="a_node2"><a xlink:href="structant_1_1_reconstruct_hook_1_1_base.html" target="_top" xlink:title="The Base struct just defines some useful types. ">
<polygon fill="white" stroke="black" points="0,-24.5 0,-54.5 119,-54.5 119,-24.5 0,-24.5"/>
<text text-anchor="start" x="8" y="-42.5" font-family="Helvetica,sans-Serif" font-size="10.00">ant::ReconstructHook</text>
<text text-anchor="middle" x="59.5" y="-31.5" font-family="Helvetica,sans-Serif" font-size="10.00">::Base</text>
</a>
</g>
</g>
<!-- Node1&#45;&gt;Node0 -->
<g id="edge1" class="edge"><title>Node1&#45;&gt;Node0</title>
<path fill="none" stroke="midnightblue" d="M129.493,-39.5C137.993,-39.5 146.617,-39.5 154.941,-39.5"/>
<polygon fill="midnightblue" stroke="midnightblue" points="129.216,-36.0001 119.216,-39.5 129.216,-43.0001 129.216,-36.0001"/>
</g>
<!-- Node3 -->
<g id="node4" class="node"><title>Node3</title>
<g id="a_node4"><a xlink:href="classant_1_1calibration_1_1_cluster_correction_manual.html" target="_top" xlink:title="ant::calibration::Cluster\lCorrectionManual">
<polygon fill="white" stroke="black" points="474,-98.5 474,-128.5 602,-128.5 602,-98.5 474,-98.5"/>
<text text-anchor="start" x="482" y="-116.5" font-family="Helvetica,sans-Serif" font-size="10.00">ant::calibration::Cluster</text>
<text text-anchor="middle" x="538" y="-105.5" font-family="Helvetica,sans-Serif" font-size="10.00">CorrectionManual</text>
</a>
</g>
</g>
<!-- Node2&#45;&gt;Node3 -->
<g id="edge3" class="edge"><title>Node2&#45;&gt;Node3</title>
<path fill="none" stroke="midnightblue" d="M434.884,-82.6129C452.106,-87.8222 470.698,-93.4457 487.238,-98.4484"/>
<polygon fill="midnightblue" stroke="midnightblue" points="435.512,-79.1466 424.927,-79.6014 433.486,-85.8468 435.512,-79.1466"/>
</g>
<!-- Node7 -->
<g id="node8" class="node"><title>Node7</title>
<g id="a_node8"><a xlink:href="classant_1_1calibration_1_1_cluster_e_corr.html" target="_top" xlink:title="Cluster energy correction based on energy and cluster size. ">
<polygon fill="white" stroke="black" points="474,-49.5 474,-79.5 602,-79.5 602,-49.5 474,-49.5"/>
<text text-anchor="start" x="482" y="-67.5" font-family="Helvetica,sans-Serif" font-size="10.00">ant::calibration::Cluster</text>
<text text-anchor="middle" x="538" y="-56.5" font-family="Helvetica,sans-Serif" font-size="10.00">ECorr</text>
</a>
</g>
</g>
<!-- Node2&#45;&gt;Node7 -->
<g id="edge7" class="edge"><title>Node2&#45;&gt;Node7</title>
<path fill="none" stroke="midnightblue" d="M448.374,-64.5C456.865,-64.5 465.469,-64.5 473.808,-64.5"/>
<polygon fill="midnightblue" stroke="midnightblue" points="448.097,-61.0001 438.097,-64.5 448.097,-68.0001 448.097,-61.0001"/>
</g>
<!-- Node8 -->
<g id="node9" class="node"><title>Node8</title>
<g id="a_node9"><a xlink:href="classant_1_1calibration_1_1_cluster_smearing.html" target="_top" xlink:title="Cluster energy smearing based on energy and cos(theta) ">
<polygon fill="white" stroke="black" points="474,-0.5 474,-30.5 602,-30.5 602,-0.5 474,-0.5"/>
<text text-anchor="start" x="482" y="-18.5" font-family="Helvetica,sans-Serif" font-size="10.00">ant::calibration::Cluster</text>
<text text-anchor="middle" x="538" y="-7.5" font-family="Helvetica,sans-Serif" font-size="10.00">Smearing</text>
</a>
</g>
</g>
<!-- Node2&#45;&gt;Node8 -->
<g id="edge8" class="edge"><title>Node2&#45;&gt;Node8</title>
<path fill="none" stroke="midnightblue" d="M434.884,-46.3871C452.106,-41.1778 470.698,-35.5543 487.238,-30.5516"/>
<polygon fill="midnightblue" stroke="midnightblue" points="433.486,-43.1532 424.927,-49.3986 435.512,-49.8534 433.486,-43.1532"/>
</g>
<!-- Node4 -->
<g id="node5" class="node"><title>Node4</title>
<g id="a_node5"><a xlink:href="classant_1_1calibration_1_1_cluster_corr_factor.html" target="_top" xlink:title="Manually set additional cluster energy correction factor. ">
<polygon fill="white" stroke="black" points="638,-147.5 638,-177.5 766,-177.5 766,-147.5 638,-147.5"/>
<text text-anchor="start" x="646" y="-165.5" font-family="Helvetica,sans-Serif" font-size="10.00">ant::calibration::Cluster</text>
<text text-anchor="middle" x="702" y="-154.5" font-family="Helvetica,sans-Serif" font-size="10.00">CorrFactor</text>
</a>
</g>
</g>
<!-- Node3&#45;&gt;Node4 -->
<g id="edge4" class="edge"><title>Node3&#45;&gt;Node4</title>
<path fill="none" stroke="midnightblue" d="M598.884,-131.613C616.106,-136.822 634.698,-142.446 651.238,-147.448"/>
<polygon fill="midnightblue" stroke="midnightblue" points="599.512,-128.147 588.927,-128.601 597.486,-134.847 599.512,-128.147"/>
</g>
<!-- Node5 -->
<g id="node6" class="node"><title>Node5</title>
<g id="a_node6"><a xlink:href="classant_1_1calibration_1_1_cluster_corr_offset.html" target="_top" xlink:title="Manually set cluster energy offset. ">
<polygon fill="white" stroke="black" points="638,-98.5 638,-128.5 766,-128.5 766,-98.5 638,-98.5"/>
<text text-anchor="start" x="646" y="-116.5" font-family="Helvetica,sans-Serif" font-size="10.00">ant::calibration::Cluster</text>
<text text-anchor="middle" x="702" y="-105.5" font-family="Helvetica,sans-Serif" font-size="10.00">CorrOffset</text>
</a>
</g>
</g>
<!-- Node3&#45;&gt;Node5 -->
<g id="edge5" class="edge"><title>Node3&#45;&gt;Node5</title>
<path fill="none" stroke="midnightblue" d="M612.374,-113.5C620.865,-113.5 629.469,-113.5 637.808,-113.5"/>
<polygon fill="midnightblue" stroke="midnightblue" points="612.097,-110 602.097,-113.5 612.097,-117 612.097,-110"/>
</g>
<!-- Node6 -->
<g id="node7" class="node"><title>Node6</title>
<g id="a_node7"><a xlink:href="classant_1_1calibration_1_1_cluster_corr_smearing.html" target="_top" xlink:title="Manually add an additional cluster energy smearing. ">
<polygon fill="white" stroke="black" points="638,-49.5 638,-79.5 766,-79.5 766,-49.5 638,-49.5"/>
<text text-anchor="start" x="646" y="-67.5" font-family="Helvetica,sans-Serif" font-size="10.00">ant::calibration::Cluster</text>
<text text-anchor="middle" x="702" y="-56.5" font-family="Helvetica,sans-Serif" font-size="10.00">CorrSmearing</text>
</a>
</g>
</g>
<!-- Node3&#45;&gt;Node6 -->
<g id="edge6" class="edge"><title>Node3&#45;&gt;Node6</title>
<path fill="none" stroke="midnightblue" d="M598.884,-95.3871C616.106,-90.1778 634.698,-84.5543 651.238,-79.5516"/>
<polygon fill="midnightblue" stroke="midnightblue" points="597.486,-92.1532 588.927,-98.3986 599.512,-98.8534 597.486,-92.1532"/>
</g>
</g>
</svg>
