<?xml version="1.0" encoding="UTF-8" standalone="no"?>
<!DOCTYPE svg PUBLIC "-//W3C//DTD SVG 1.1//EN"
 "http://www.w3.org/Graphics/SVG/1.1/DTD/svg11.dtd">
<!-- Generated by graphviz version 2.38.0 (20140413.2041)
 -->
<!-- Title: ant::analysis::physics::MCClusteringCheck::opening_angle_t Pages: 1 -->
<svg width="194pt" height="117pt"
 viewBox="0.00 0.00 193.50 117.00" xmlns="http://www.w3.org/2000/svg" xmlns:xlink="http://www.w3.org/1999/xlink">
<g id="graph0" class="graph" transform="scale(1 1) rotate(0) translate(4 113)">
<title>ant::analysis::physics::MCClusteringCheck::opening_angle_t</title>
<polygon fill="white" stroke="none" points="-4,4 -4,-113 189.5,-113 189.5,4 -4,4"/>
<!-- Node1 -->
<g id="node1" class="node"><title>Node1</title>
<polygon fill="#bfbfbf" stroke="black" points="-1.42109e-14,-0.5 -1.42109e-14,-41.5 159,-41.5 159,-0.5 -1.42109e-14,-0.5"/>
<text text-anchor="start" x="8" y="-29.5" font-family="Helvetica,sans-Serif" font-size="10.00">ant::analysis::physics</text>
<text text-anchor="start" x="8" y="-18.5" font-family="Helvetica,sans-Serif" font-size="10.00">::MCClusteringCheck::opening</text>
<text text-anchor="middle" x="79.5" y="-7.5" font-family="Helvetica,sans-Serif" font-size="10.00">_angle_t</text>
</g>
<!-- Node2 -->
<g id="node2" class="node"><title>Node2</title>
<g id="a_node2"><a xlink:href="classant_1_1interval.html" target="_top" xlink:title="ant::interval\&lt; double \&gt;">
<polygon fill="white" stroke="black" points="15.5,-89.5 15.5,-108.5 143.5,-108.5 143.5,-89.5 15.5,-89.5"/>
<text text-anchor="middle" x="79.5" y="-96.5" font-family="Helvetica,sans-Serif" font-size="10.00">ant::interval&lt; double &gt;</text>
</a>
</g>
</g>
<!-- Node2&#45;&gt;Node1 -->
<g id="edge1" class="edge"><title>Node2&#45;&gt;Node1</title>
<path fill="none" stroke="#9a32cd" stroke-dasharray="5,2" d="M79.5,-79.1372C79.5,-67.7291 79.5,-53.2071 79.5,-41.6584"/>
<polygon fill="#9a32cd" stroke="#9a32cd" points="76.0001,-79.2818 79.5,-89.2818 83.0001,-79.2819 76.0001,-79.2818"/>
<text text-anchor="middle" x="132.5" y="-63" font-family="Helvetica,sans-Serif" font-size="10.00"> opening_angle_range</text>
</g>
</g>
</svg>
