<?xml version="1.0" encoding="UTF-8" standalone="no"?>
<!DOCTYPE svg PUBLIC "-//W3C//DTD SVG 1.1//EN"
 "http://www.w3.org/Graphics/SVG/1.1/DTD/svg11.dtd">
<!-- Generated by graphviz version 2.38.0 (20140413.2041)
 -->
<!-- Title: CommonHist_t::Fill_t Pages: 1 -->
<svg width="538pt" height="137pt"
 viewBox="0.00 0.00 538.00 137.00" xmlns="http://www.w3.org/2000/svg" xmlns:xlink="http://www.w3.org/1999/xlink">
<g id="graph0" class="graph" transform="scale(1 1) rotate(0) translate(4 133)">
<title>CommonHist_t::Fill_t</title>
<polygon fill="white" stroke="none" points="-4,4 -4,-133 534,-133 534,4 -4,4"/>
<!-- Node5 -->
<g id="node1" class="node"><title>Node5</title>
<polygon fill="#bfbfbf" stroke="black" points="415,-55 415,-74 530,-74 530,-55 415,-55"/>
<text text-anchor="middle" x="472.5" y="-62" font-family="Helvetica,sans-Serif" font-size="10.00">CommonHist_t::Fill_t</text>
</g>
<!-- Node6 -->
<g id="node2" class="node"><title>Node6</title>
<g id="a_node2"><a xlink:href="structant_1_1analysis_1_1physics_1_1_etap_omega_g_1_1_proton_photon_tree__t.html" target="_top" xlink:title="ant::analysis::physics\l::EtapOmegaG::ProtonPhotonTree_t">
<polygon fill="white" stroke="black" points="123,-98.5 123,-128.5 310,-128.5 310,-98.5 123,-98.5"/>
<text text-anchor="start" x="131" y="-116.5" font-family="Helvetica,sans-Serif" font-size="10.00">ant::analysis::physics</text>
<text text-anchor="middle" x="216.5" y="-105.5" font-family="Helvetica,sans-Serif" font-size="10.00">::EtapOmegaG::ProtonPhotonTree_t</text>
</a>
</g>
</g>
<!-- Node6&#45;&gt;Node5 -->
<g id="edge1" class="edge"><title>Node6&#45;&gt;Node5</title>
<path fill="none" stroke="#9a32cd" stroke-dasharray="5,2" d="M307.906,-96.5855C336.424,-91.1937 368.041,-85.1579 397,-79.5 405.935,-77.7544 415.465,-75.8601 424.621,-74.0241"/>
<polygon fill="#9a32cd" stroke="#9a32cd" points="307.134,-93.1693 297.957,-98.4642 308.433,-100.048 307.134,-93.1693"/>
<text text-anchor="middle" x="362.5" y="-94.5" font-family="Helvetica,sans-Serif" font-size="10.00"> ProtonPhoton</text>
</g>
<!-- Node7 -->
<g id="node3" class="node"><title>Node7</title>
<g id="a_node3"><a xlink:href="classant_1_1_wrap_t_tree.html" target="_top" xlink:title="The WrapTTree struct simplifies TTree handling in physics classes. ">
<polygon fill="white" stroke="black" points="0,-55 0,-74 86,-74 86,-55 0,-55"/>
<text text-anchor="middle" x="43" y="-62" font-family="Helvetica,sans-Serif" font-size="10.00">ant::WrapTTree</text>
</a>
</g>
</g>
<!-- Node7&#45;&gt;Node6 -->
<g id="edge2" class="edge"><title>Node7&#45;&gt;Node6</title>
<path fill="none" stroke="midnightblue" d="M82.6614,-77.1817C95.4583,-81.2596 109.801,-85.702 123,-89.5 133.523,-92.5279 144.768,-95.5897 155.664,-98.4668"/>
<polygon fill="midnightblue" stroke="midnightblue" points="83.3726,-73.7341 72.7813,-74.0087 81.2322,-80.3988 83.3726,-73.7341"/>
</g>
<!-- Node8 -->
<g id="node4" class="node"><title>Node8</title>
<g id="a_node4"><a xlink:href="structant_1_1analysis_1_1utils_1_1_m_c_weighting_1_1tree__t.html" target="_top" xlink:title="ant::analysis::utils\l::MCWeighting::tree_t">
<polygon fill="white" stroke="black" points="157.5,-49.5 157.5,-79.5 275.5,-79.5 275.5,-49.5 157.5,-49.5"/>
<text text-anchor="start" x="165.5" y="-67.5" font-family="Helvetica,sans-Serif" font-size="10.00">ant::analysis::utils</text>
<text text-anchor="middle" x="216.5" y="-56.5" font-family="Helvetica,sans-Serif" font-size="10.00">::MCWeighting::tree_t</text>
</a>
</g>
</g>
<!-- Node7&#45;&gt;Node8 -->
<g id="edge4" class="edge"><title>Node7&#45;&gt;Node8</title>
<path fill="none" stroke="midnightblue" d="M96.4984,-64.5C115.769,-64.5 137.691,-64.5 157.423,-64.5"/>
<polygon fill="midnightblue" stroke="midnightblue" points="96.3933,-61.0001 86.3933,-64.5 96.3932,-68.0001 96.3933,-61.0001"/>
</g>
<!-- Node9 -->
<g id="node5" class="node"><title>Node9</title>
<g id="a_node5"><a xlink:href="structant_1_1analysis_1_1physics_1_1_etap_omega_g_1_1_tree_common.html" target="_top" xlink:title="ant::analysis::physics\l::EtapOmegaG::TreeCommon">
<polygon fill="white" stroke="black" points="138,-0.5 138,-30.5 295,-30.5 295,-0.5 138,-0.5"/>
<text text-anchor="start" x="146" y="-18.5" font-family="Helvetica,sans-Serif" font-size="10.00">ant::analysis::physics</text>
<text text-anchor="middle" x="216.5" y="-7.5" font-family="Helvetica,sans-Serif" font-size="10.00">::EtapOmegaG::TreeCommon</text>
</a>
</g>
</g>
<!-- Node7&#45;&gt;Node9 -->
<g id="edge6" class="edge"><title>Node7&#45;&gt;Node9</title>
<path fill="none" stroke="midnightblue" d="M84.3083,-51.9915C96.6964,-48.2181 110.389,-44.1189 123,-40.5 134.513,-37.1963 146.866,-33.7734 158.677,-30.5597"/>
<polygon fill="midnightblue" stroke="midnightblue" points="83.2365,-48.6592 74.6985,-54.9324 85.285,-55.3528 83.2365,-48.6592"/>
</g>
<!-- Node8&#45;&gt;Node5 -->
<g id="edge3" class="edge"><title>Node8&#45;&gt;Node5</title>
<path fill="none" stroke="#9a32cd" stroke-dasharray="5,2" d="M285.802,-64.5C326.163,-64.5 376.665,-64.5 414.81,-64.5"/>
<polygon fill="#9a32cd" stroke="#9a32cd" points="285.773,-61.0001 275.773,-64.5 285.773,-68.0001 285.773,-61.0001"/>
<text text-anchor="middle" x="362.5" y="-67.5" font-family="Helvetica,sans-Serif" font-size="10.00"> MCWeighting</text>
</g>
<!-- Node9&#45;&gt;Node5 -->
<g id="edge5" class="edge"><title>Node9&#45;&gt;Node5</title>
<path fill="none" stroke="#9a32cd" stroke-dasharray="5,2" d="M305.446,-31.9495C334.598,-37.4578 367.205,-43.6789 397,-49.5 405.935,-51.2456 415.465,-53.1399 424.621,-54.9759"/>
<polygon fill="#9a32cd" stroke="#9a32cd" points="305.764,-28.4479 295.289,-30.0327 304.466,-35.3265 305.764,-28.4479"/>
<text text-anchor="middle" x="362.5" y="-52.5" font-family="Helvetica,sans-Serif" font-size="10.00"> Common</text>
</g>
</g>
</svg>
