<?xml version="1.0" encoding="UTF-8" standalone="no"?>
<!DOCTYPE svg PUBLIC "-//W3C//DTD SVG 1.1//EN"
 "http://www.w3.org/Graphics/SVG/1.1/DTD/svg11.dtd">
<!-- Generated by graphviz version 2.38.0 (20140413.2041)
 -->
<!-- Title: ant::ForLoopCounter&lt; T &gt;::iterator Pages: 1 -->
<svg width="347pt" height="117pt"
 viewBox="0.00 0.00 347.00 117.00" xmlns="http://www.w3.org/2000/svg" xmlns:xlink="http://www.w3.org/1999/xlink">
<g id="graph0" class="graph" transform="scale(1 1) rotate(0) translate(4 113)">
<title>ant::ForLoopCounter&lt; T &gt;::iterator</title>
<polygon fill="white" stroke="none" points="-4,4 -4,-113 343,-113 343,4 -4,4"/>
<!-- Node2 -->
<g id="node1" class="node"><title>Node2</title>
<polygon fill="#bfbfbf" stroke="black" points="163,-0.5 163,-30.5 278,-30.5 278,-0.5 163,-0.5"/>
<text text-anchor="start" x="171" y="-18.5" font-family="Helvetica,sans-Serif" font-size="10.00">ant::ForLoopCounter</text>
<text text-anchor="middle" x="220.5" y="-7.5" font-family="Helvetica,sans-Serif" font-size="10.00">&lt; T &gt;::iterator</text>
</g>
<!-- Node3 -->
<g id="node2" class="node"><title>Node3</title>
<polygon fill="white" stroke="#bfbfbf" points="0,-89.5 0,-108.5 131,-108.5 131,-89.5 0,-89.5"/>
<text text-anchor="middle" x="65.5" y="-96.5" font-family="Helvetica,sans-Serif" font-size="10.00">std::iterator_traits&lt; T &gt;</text>
</g>
<!-- Node3&#45;&gt;Node2 -->
<g id="edge1" class="edge"><title>Node3&#45;&gt;Node2</title>
<path fill="none" stroke="midnightblue" d="M90.6889,-84.7555C119.043,-69.847 164.916,-45.7264 193.854,-30.5107"/>
<polygon fill="midnightblue" stroke="midnightblue" points="89.0169,-81.6803 81.7948,-89.4321 92.2747,-87.876 89.0169,-81.6803"/>
</g>
<!-- Node4 -->
<g id="node3" class="node"><title>Node4</title>
<g id="a_node3"><a xlink:href="structant_1_1_for_loop_counter.html" target="_top" xlink:title="ant::ForLoopCounter\&lt; T \&gt;">
<polygon fill="white" stroke="black" points="149,-89.5 149,-108.5 292,-108.5 292,-89.5 149,-89.5"/>
<text text-anchor="middle" x="220.5" y="-96.5" font-family="Helvetica,sans-Serif" font-size="10.00">ant::ForLoopCounter&lt; T &gt;</text>
</a>
</g>
</g>
<!-- Node4&#45;&gt;Node2 -->
<g id="edge2" class="edge"><title>Node4&#45;&gt;Node2</title>
<path fill="none" stroke="#9a32cd" stroke-dasharray="5,2" d="M220.5,-79.229C220.5,-64.4075 220.5,-44.0505 220.5,-30.5974"/>
<polygon fill="#9a32cd" stroke="#9a32cd" points="217,-79.278 220.5,-89.2781 224,-79.2781 217,-79.278"/>
<text text-anchor="middle" x="240.5" y="-57.5" font-family="Helvetica,sans-Serif" font-size="10.00"> counter</text>
</g>
<!-- Node5 -->
<g id="node4" class="node"><title>Node5</title>
<polygon fill="white" stroke="#bfbfbf" points="310,-89.5 310,-108.5 339,-108.5 339,-89.5 310,-89.5"/>
<text text-anchor="middle" x="324.5" y="-96.5" font-family="Helvetica,sans-Serif" font-size="10.00">T</text>
</g>
<!-- Node5&#45;&gt;Node2 -->
<g id="edge3" class="edge"><title>Node5&#45;&gt;Node2</title>
<path fill="none" stroke="#9a32cd" stroke-dasharray="5,2" d="M306.193,-82.662C294.404,-72.8824 278.687,-60.0217 264.5,-49 256.551,-42.824 247.641,-36.1904 239.928,-30.5371"/>
<polygon fill="#9a32cd" stroke="#9a32cd" points="304.08,-85.4576 314.004,-89.1683 308.56,-80.0789 304.08,-85.4576"/>
<text text-anchor="middle" x="299.5" y="-63" font-family="Helvetica,sans-Serif" font-size="10.00"> i</text>
<text text-anchor="middle" x="299.5" y="-52" font-family="Helvetica,sans-Serif" font-size="10.00">last</text>
</g>
</g>
</svg>
