<?xml version="1.0" encoding="UTF-8" standalone="no"?>
<!DOCTYPE svg PUBLIC "-//W3C//DTD SVG 1.1//EN"
 "http://www.w3.org/Graphics/SVG/1.1/DTD/svg11.dtd">
<!-- Generated by graphviz version 2.38.0 (20140413.2041)
 -->
<!-- Title: ant::WrapTTree::Branch_t&lt; T &gt; Pages: 1 -->
<svg width="134pt" height="106pt"
 viewBox="0.00 0.00 134.00 106.00" xmlns="http://www.w3.org/2000/svg" xmlns:xlink="http://www.w3.org/1999/xlink">
<g id="graph0" class="graph" transform="scale(1 1) rotate(0) translate(4 102)">
<title>ant::WrapTTree::Branch_t&lt; T &gt;</title>
<polygon fill="white" stroke="none" points="-4,4 -4,-102 130,-102 130,4 -4,4"/>
<!-- Node0 -->
<g id="node1" class="node"><title>Node0</title>
<polygon fill="#bfbfbf" stroke="black" points="0,-67.5 0,-97.5 126,-97.5 126,-67.5 0,-67.5"/>
<text text-anchor="start" x="8" y="-85.5" font-family="Helvetica,sans-Serif" font-size="10.00">ant::WrapTTree::Branch</text>
<text text-anchor="middle" x="63" y="-74.5" font-family="Helvetica,sans-Serif" font-size="10.00">_t&lt; T &gt;</text>
</g>
<!-- Node1 -->
<g id="node2" class="node"><title>Node1</title>
<g id="a_node2"><a xlink:href="structant_1_1_wrap_t_tree_1_1_branch___opt__t.html" target="_top" xlink:title="ant::WrapTTree::Branch\l_Opt_t\&lt; T \&gt;">
<polygon fill="white" stroke="black" points="0,-0.5 0,-30.5 126,-30.5 126,-0.5 0,-0.5"/>
<text text-anchor="start" x="8" y="-18.5" font-family="Helvetica,sans-Serif" font-size="10.00">ant::WrapTTree::Branch</text>
<text text-anchor="middle" x="63" y="-7.5" font-family="Helvetica,sans-Serif" font-size="10.00">_Opt_t&lt; T &gt;</text>
</a>
</g>
</g>
<!-- Node0&#45;&gt;Node1 -->
<g id="edge1" class="edge"><title>Node0&#45;&gt;Node1</title>
<path fill="none" stroke="midnightblue" d="M63,-57.1081C63,-48.1539 63,-38.3227 63,-30.5765"/>
<polygon fill="midnightblue" stroke="midnightblue" points="59.5001,-57.3959 63,-67.396 66.5001,-57.396 59.5001,-57.3959"/>
</g>
</g>
</svg>
