<?xml version="1.0" encoding="UTF-8" standalone="no"?>
<!DOCTYPE svg PUBLIC "-//W3C//DTD SVG 1.1//EN"
 "http://www.w3.org/Graphics/SVG/1.1/DTD/svg11.dtd">
<!-- Generated by graphviz version 2.38.0 (20140413.2041)
 -->
<!-- Title: ant::analysis::SlowControlManager::processor_t Pages: 1 -->
<svg width="166pt" height="173pt"
 viewBox="0.00 0.00 165.50 173.00" xmlns="http://www.w3.org/2000/svg" xmlns:xlink="http://www.w3.org/1999/xlink">
<g id="graph0" class="graph" transform="scale(1 1) rotate(0) translate(4 169)">
<title>ant::analysis::SlowControlManager::processor_t</title>
<polygon fill="white" stroke="none" points="-4,4 -4,-169 161.5,-169 161.5,4 -4,4"/>
<!-- Node1 -->
<g id="node1" class="node"><title>Node1</title>
<polygon fill="#bfbfbf" stroke="black" points="0,-0.5 0,-30.5 139,-30.5 139,-0.5 0,-0.5"/>
<text text-anchor="start" x="8" y="-18.5" font-family="Helvetica,sans-Serif" font-size="10.00">ant::analysis::SlowControl</text>
<text text-anchor="middle" x="69.5" y="-7.5" font-family="Helvetica,sans-Serif" font-size="10.00">Manager::processor_t</text>
</g>
<!-- Node2 -->
<g id="node2" class="node"><title>Node2</title>
<polygon fill="white" stroke="#bfbfbf" points="14.5,-78.5 14.5,-97.5 124.5,-97.5 124.5,-78.5 14.5,-78.5"/>
<text text-anchor="middle" x="69.5" y="-85.5" font-family="Helvetica,sans-Serif" font-size="10.00">std::list&lt; ant::TID &gt;</text>
</g>
<!-- Node2&#45;&gt;Node1 -->
<g id="edge1" class="edge"><title>Node2&#45;&gt;Node1</title>
<path fill="none" stroke="#9a32cd" stroke-dasharray="5,2" d="M69.5,-68.2362C69.5,-56.4079 69.5,-41.3829 69.5,-30.5762"/>
<polygon fill="#9a32cd" stroke="#9a32cd" points="66.0001,-68.3553 69.5,-78.3553 73.0001,-68.3554 66.0001,-68.3553"/>
<text text-anchor="middle" x="113.5" y="-52" font-family="Helvetica,sans-Serif" font-size="10.00"> CompletionPoints</text>
</g>
<!-- Node3 -->
<g id="node3" class="node"><title>Node3</title>
<g id="a_node3"><a xlink:href="structant_1_1_t_i_d.html" target="_top" xlink:title="ant::TID">
<polygon fill="white" stroke="black" points="43,-145.5 43,-164.5 96,-164.5 96,-145.5 43,-145.5"/>
<text text-anchor="middle" x="69.5" y="-152.5" font-family="Helvetica,sans-Serif" font-size="10.00">ant::TID</text>
</a>
</g>
</g>
<!-- Node3&#45;&gt;Node2 -->
<g id="edge2" class="edge"><title>Node3&#45;&gt;Node2</title>
<path fill="none" stroke="#9a32cd" stroke-dasharray="5,2" d="M69.5,-135.037C69.5,-122.67 69.5,-107.12 69.5,-97.6273"/>
<polygon fill="#9a32cd" stroke="#9a32cd" points="66.0001,-135.234 69.5,-145.234 73.0001,-135.234 66.0001,-135.234"/>
<text text-anchor="middle" x="94" y="-119" font-family="Helvetica,sans-Serif" font-size="10.00"> elements</text>
</g>
</g>
</svg>
