<?xml version="1.0" encoding="UTF-8" standalone="no"?>
<!DOCTYPE svg PUBLIC "-//W3C//DTD SVG 1.1//EN"
 "http://www.w3.org/Graphics/SVG/1.1/DTD/svg11.dtd">
<!-- Generated by graphviz version 2.38.0 (20140413.2041)
 -->
<!-- Title: ant::analysis::physics::triplePi0 Pages: 1 -->
<svg width="1645pt" height="858pt"
 viewBox="0.00 0.00 1645.00 858.00" xmlns="http://www.w3.org/2000/svg" xmlns:xlink="http://www.w3.org/1999/xlink">
<g id="graph0" class="graph" transform="scale(1 1) rotate(0) translate(4 854)">
<title>ant::analysis::physics::triplePi0</title>
<polygon fill="white" stroke="none" points="-4,4 -4,-854 1641,-854 1641,4 -4,4"/>
<!-- Node2 -->
<g id="node1" class="node"><title>Node2</title>
<polygon fill="#bfbfbf" stroke="black" points="1519,-500.5 1519,-530.5 1637,-530.5 1637,-500.5 1519,-500.5"/>
<text text-anchor="start" x="1527" y="-518.5" font-family="Helvetica,sans-Serif" font-size="10.00">ant::analysis::physics</text>
<text text-anchor="middle" x="1578" y="-507.5" font-family="Helvetica,sans-Serif" font-size="10.00">::triplePi0</text>
</g>
<!-- Node3 -->
<g id="node2" class="node"><title>Node3</title>
<g id="a_node2"><a xlink:href="classant_1_1analysis_1_1_physics.html" target="_top" xlink:title="ant::analysis::Physics">
<polygon fill="white" stroke="black" points="1241,-823 1241,-842 1359,-842 1359,-823 1241,-823"/>
<text text-anchor="middle" x="1300" y="-830" font-family="Helvetica,sans-Serif" font-size="10.00">ant::analysis::Physics</text>
</a>
</g>
</g>
<!-- Node3&#45;&gt;Node2 -->
<g id="edge1" class="edge"><title>Node3&#45;&gt;Node2</title>
<path fill="none" stroke="midnightblue" d="M1369.35,-841.123C1412.13,-842.612 1465.65,-836.774 1501,-805.5 1543.39,-767.993 1568.61,-584.886 1575.24,-530.659"/>
<polygon fill="midnightblue" stroke="midnightblue" points="1369.44,-837.623 1359.28,-840.633 1369.1,-844.615 1369.44,-837.623"/>
</g>
<!-- Node4 -->
<g id="node3" class="node"><title>Node4</title>
<g id="a_node3"><a xlink:href="classant_1_1analysis_1_1_histogram_factory.html" target="_top" xlink:title="ant::analysis::Histogram\lFactory">
<polygon fill="white" stroke="black" points="902.5,-819.5 902.5,-849.5 1035.5,-849.5 1035.5,-819.5 902.5,-819.5"/>
<text text-anchor="start" x="910.5" y="-837.5" font-family="Helvetica,sans-Serif" font-size="10.00">ant::analysis::Histogram</text>
<text text-anchor="middle" x="969" y="-826.5" font-family="Helvetica,sans-Serif" font-size="10.00">Factory</text>
</a>
</g>
</g>
<!-- Node4&#45;&gt;Node3 -->
<g id="edge2" class="edge"><title>Node4&#45;&gt;Node3</title>
<path fill="none" stroke="#9a32cd" stroke-dasharray="5,2" d="M1045.86,-834.039C1105.19,-833.678 1186.48,-833.184 1240.76,-832.854"/>
<polygon fill="#9a32cd" stroke="#9a32cd" points="1045.77,-830.539 1035.79,-834.1 1045.81,-837.539 1045.77,-830.539"/>
<text text-anchor="middle" x="1139" y="-836.5" font-family="Helvetica,sans-Serif" font-size="10.00"> HistFac</text>
</g>
<!-- Node5 -->
<g id="node4" class="node"><title>Node5</title>
<g id="a_node4"><a xlink:href="structant_1_1analysis_1_1physics_1_1triple_pi0_1_1settings__t.html" target="_top" xlink:title="ant::analysis::physics\l::triplePi0::settings_t">
<polygon fill="white" stroke="black" points="910,-710.5 910,-740.5 1028,-740.5 1028,-710.5 910,-710.5"/>
<text text-anchor="start" x="918" y="-728.5" font-family="Helvetica,sans-Serif" font-size="10.00">ant::analysis::physics</text>
<text text-anchor="middle" x="969" y="-717.5" font-family="Helvetica,sans-Serif" font-size="10.00">::triplePi0::settings_t</text>
</a>
</g>
</g>
<!-- Node5&#45;&gt;Node2 -->
<g id="edge3" class="edge"><title>Node5&#45;&gt;Node2</title>
<path fill="none" stroke="#9a32cd" stroke-dasharray="5,2" d="M1038.37,-730.544C1165.36,-738.446 1431.1,-747.636 1501,-692.5 1553.78,-650.872 1570.53,-565.498 1575.29,-530.735"/>
<polygon fill="#9a32cd" stroke="#9a32cd" points="1038.57,-727.05 1028.36,-729.906 1038.12,-734.035 1038.57,-727.05"/>
<text text-anchor="middle" x="1300" y="-740.5" font-family="Helvetica,sans-Serif" font-size="10.00"> phSettings</text>
</g>
<!-- Node6 -->
<g id="node5" class="node"><title>Node6</title>
<polygon fill="white" stroke="#bfbfbf" points="636.5,-768.5 636.5,-798.5 750.5,-798.5 750.5,-768.5 636.5,-768.5"/>
<text text-anchor="start" x="644.5" y="-786.5" font-family="Helvetica,sans-Serif" font-size="10.00">std::vector&lt; interval</text>
<text text-anchor="middle" x="693.5" y="-775.5" font-family="Helvetica,sans-Serif" font-size="10.00">&lt; double &gt; &gt;</text>
</g>
<!-- Node6&#45;&gt;Node5 -->
<g id="edge4" class="edge"><title>Node6&#45;&gt;Node5</title>
<path fill="none" stroke="#9a32cd" stroke-dasharray="5,2" d="M760.555,-769.952C791.656,-763.529 829.251,-755.701 863,-748.5 878.239,-745.248 894.708,-741.671 909.983,-738.326"/>
<polygon fill="#9a32cd" stroke="#9a32cd" points="759.785,-766.537 750.699,-771.985 761.2,-773.393 759.785,-766.537"/>
<text text-anchor="middle" x="821" y="-769.5" font-family="Helvetica,sans-Serif" font-size="10.00"> Ranges_Random</text>
</g>
<!-- Node40 -->
<g id="node39" class="node"><title>Node40</title>
<g id="a_node39"><a xlink:href="classant_1_1_piecewise_interval.html" target="_top" xlink:title="ant::PiecewiseInterval\l\&lt; double \&gt;">
<polygon fill="white" stroke="black" points="909.5,-770.5 909.5,-800.5 1028.5,-800.5 1028.5,-770.5 909.5,-770.5"/>
<text text-anchor="start" x="917.5" y="-788.5" font-family="Helvetica,sans-Serif" font-size="10.00">ant::PiecewiseInterval</text>
<text text-anchor="middle" x="969" y="-777.5" font-family="Helvetica,sans-Serif" font-size="10.00">&lt; double &gt;</text>
</a>
</g>
</g>
<!-- Node6&#45;&gt;Node40 -->
<g id="edge46" class="edge"><title>Node6&#45;&gt;Node40</title>
<path fill="none" stroke="midnightblue" d="M760.536,-783.983C805.881,-784.314 865.535,-784.751 909.233,-785.07"/>
<polygon fill="midnightblue" stroke="midnightblue" points="760.532,-780.483 750.507,-783.91 760.481,-787.483 760.532,-780.483"/>
</g>
<!-- Node7 -->
<g id="node6" class="node"><title>Node7</title>
<g id="a_node6"><a xlink:href="classant_1_1interval.html" target="_top" xlink:title="ant::interval\&lt; double \&gt;">
<polygon fill="white" stroke="black" points="404.5,-663 404.5,-682 532.5,-682 532.5,-663 404.5,-663"/>
<text text-anchor="middle" x="468.5" y="-670" font-family="Helvetica,sans-Serif" font-size="10.00">ant::interval&lt; double &gt;</text>
</a>
</g>
</g>
<!-- Node7&#45;&gt;Node5 -->
<g id="edge6" class="edge"><title>Node7&#45;&gt;Node5</title>
<path fill="none" stroke="#9a32cd" stroke-dasharray="5,2" d="M542.916,-668.538C569.126,-667.303 598.875,-666.106 626,-665.5 685.985,-664.159 701.596,-657.064 761,-665.5 820.828,-673.996 887.552,-695.651 928.661,-710.481"/>
<polygon fill="#9a32cd" stroke="#9a32cd" points="542.501,-665.054 532.681,-669.03 542.837,-672.046 542.501,-665.054"/>
<text text-anchor="middle" x="693.5" y="-712.5" font-family="Helvetica,sans-Serif" font-size="10.00"> Range_Prompt</text>
<text text-anchor="middle" x="693.5" y="-701.5" font-family="Helvetica,sans-Serif" font-size="10.00">Cut_EMB_prob</text>
<text text-anchor="middle" x="693.5" y="-690.5" font-family="Helvetica,sans-Serif" font-size="10.00">Cut_MMAngle</text>
<text text-anchor="middle" x="693.5" y="-679.5" font-family="Helvetica,sans-Serif" font-size="10.00">Cut_MM</text>
<text text-anchor="middle" x="693.5" y="-668.5" font-family="Helvetica,sans-Serif" font-size="10.00">Cut_ProtonCopl</text>
</g>
<!-- Node7&#45;&gt;Node6 -->
<g id="edge5" class="edge"><title>Node7&#45;&gt;Node6</title>
<path fill="none" stroke="#9a32cd" stroke-dasharray="5,2" d="M493.723,-687.232C524.012,-705.318 577.756,-736.314 626,-758.5 633.508,-761.953 641.641,-765.311 649.558,-768.387"/>
<polygon fill="#9a32cd" stroke="#9a32cd" points="495.484,-684.207 485.109,-682.058 491.879,-690.207 495.484,-684.207"/>
<text text-anchor="middle" x="582" y="-751.5" font-family="Helvetica,sans-Serif" font-size="10.00"> elements</text>
</g>
<!-- Node8 -->
<g id="node7" class="node"><title>Node8</title>
<g id="a_node7"><a xlink:title="STL class. ">
<polygon fill="white" stroke="#bfbfbf" points="661,-594 661,-613 726,-613 726,-594 661,-594"/>
<text text-anchor="middle" x="693.5" y="-601" font-family="Helvetica,sans-Serif" font-size="10.00">std::string</text>
</a>
</g>
</g>
<!-- Node8&#45;&gt;Node5 -->
<g id="edge7" class="edge"><title>Node8&#45;&gt;Node5</title>
<path fill="none" stroke="#9a32cd" stroke-dasharray="5,2" d="M736.385,-607.756C778.814,-612.546 841.203,-621.04 863,-631.5 902.485,-650.448 938.088,-688.856 955.933,-710.246"/>
<polygon fill="#9a32cd" stroke="#9a32cd" points="736.654,-604.265 726.331,-606.648 735.887,-611.223 736.654,-604.265"/>
<text text-anchor="middle" x="821" y="-634.5" font-family="Helvetica,sans-Serif" font-size="10.00"> Tree_Name</text>
</g>
<!-- Node43 -->
<g id="node42" class="node"><title>Node43</title>
<g id="a_node42"><a xlink:href="structant_1_1analysis_1_1physics_1_1triple_pi0_1_1named__channel__t.html" target="_top" xlink:title="ant::analysis::physics\l::triplePi0::named_channel_t">
<polygon fill="white" stroke="black" points="893,-581.5 893,-611.5 1045,-611.5 1045,-581.5 893,-581.5"/>
<text text-anchor="start" x="901" y="-599.5" font-family="Helvetica,sans-Serif" font-size="10.00">ant::analysis::physics</text>
<text text-anchor="middle" x="969" y="-588.5" font-family="Helvetica,sans-Serif" font-size="10.00">::triplePi0::named_channel_t</text>
</a>
</g>
</g>
<!-- Node8&#45;&gt;Node43 -->
<g id="edge50" class="edge"><title>Node8&#45;&gt;Node43</title>
<path fill="none" stroke="#9a32cd" stroke-dasharray="5,2" d="M736.235,-599.991C749.858,-598.992 765.064,-598.031 779,-597.5 816.38,-596.076 857.947,-595.721 892.561,-595.767"/>
<polygon fill="#9a32cd" stroke="#9a32cd" points="735.879,-596.508 726.173,-600.757 736.409,-603.488 735.879,-596.508"/>
<text text-anchor="middle" x="821" y="-600.5" font-family="Helvetica,sans-Serif" font-size="10.00"> Name</text>
</g>
<!-- Node9 -->
<g id="node8" class="node"><title>Node9</title>
<g id="a_node8"><a xlink:title="STL class. ">
<polygon fill="white" stroke="#bfbfbf" points="417,-588.5 417,-618.5 520,-618.5 520,-588.5 417,-588.5"/>
<text text-anchor="start" x="425" y="-606.5" font-family="Helvetica,sans-Serif" font-size="10.00">std::basic_string&lt;</text>
<text text-anchor="middle" x="468.5" y="-595.5" font-family="Helvetica,sans-Serif" font-size="10.00"> char &gt;</text>
</a>
</g>
</g>
<!-- Node9&#45;&gt;Node8 -->
<g id="edge8" class="edge"><title>Node9&#45;&gt;Node8</title>
<path fill="none" stroke="midnightblue" d="M530.256,-603.5C572.395,-603.5 626.825,-603.5 660.698,-603.5"/>
<polygon fill="midnightblue" stroke="midnightblue" points="530.102,-600 520.102,-603.5 530.102,-607 530.102,-600"/>
</g>
<!-- Node10 -->
<g id="node9" class="node"><title>Node10</title>
<g id="a_node9"><a xlink:href="classant_1_1interval.html" target="_top" xlink:title="ant::interval\&lt; size_t \&gt;">
<polygon fill="white" stroke="black" points="631.5,-730 631.5,-749 755.5,-749 755.5,-730 631.5,-730"/>
<text text-anchor="middle" x="693.5" y="-737" font-family="Helvetica,sans-Serif" font-size="10.00">ant::interval&lt; size_t &gt;</text>
</a>
</g>
</g>
<!-- Node10&#45;&gt;Node5 -->
<g id="edge9" class="edge"><title>Node10&#45;&gt;Node5</title>
<path fill="none" stroke="#9a32cd" stroke-dasharray="5,2" d="M758.508,-728.639C765.408,-727.771 772.339,-727.027 779,-726.5 822.669,-723.044 872.19,-722.921 909.585,-723.594"/>
<polygon fill="#9a32cd" stroke="#9a32cd" points="757.901,-725.189 748.455,-729.988 758.832,-732.126 757.901,-725.189"/>
<text text-anchor="middle" x="821" y="-740.5" font-family="Helvetica,sans-Serif" font-size="10.00"> Cut_NCands</text>
<text text-anchor="middle" x="821" y="-729.5" font-family="Helvetica,sans-Serif" font-size="10.00">Cut_NNeutr</text>
</g>
<!-- Node11 -->
<g id="node10" class="node"><title>Node11</title>
<g id="a_node10"><a xlink:href="structant_1_1analysis_1_1physics_1_1triple_pi0_1_1_pion_prod_tree.html" target="_top" xlink:title="ant::analysis::physics\l::triplePi0::PionProdTree">
<polygon fill="white" stroke="black" points="1075,-498.5 1075,-528.5 1203,-528.5 1203,-498.5 1075,-498.5"/>
<text text-anchor="start" x="1083" y="-516.5" font-family="Helvetica,sans-Serif" font-size="10.00">ant::analysis::physics</text>
<text text-anchor="middle" x="1139" y="-505.5" font-family="Helvetica,sans-Serif" font-size="10.00">::triplePi0::PionProdTree</text>
</a>
</g>
</g>
<!-- Node11&#45;&gt;Node2 -->
<g id="edge10" class="edge"><title>Node11&#45;&gt;Node2</title>
<path fill="none" stroke="#9a32cd" stroke-dasharray="5,2" d="M1213.28,-513.835C1299.24,-514.229 1440,-514.873 1518.83,-515.234"/>
<polygon fill="#9a32cd" stroke="#9a32cd" points="1213.09,-510.335 1203.08,-513.789 1213.06,-517.335 1213.09,-510.335"/>
<text text-anchor="middle" x="1300" y="-518.5" font-family="Helvetica,sans-Serif" font-size="10.00"> tree</text>
</g>
<!-- Node12 -->
<g id="node11" class="node"><title>Node12</title>
<g id="a_node11"><a xlink:href="classant_1_1_wrap_t_tree.html" target="_top" xlink:title="The WrapTTree struct simplifies TTree handling in physics classes. ">
<polygon fill="white" stroke="black" points="650.5,-484 650.5,-503 736.5,-503 736.5,-484 650.5,-484"/>
<text text-anchor="middle" x="693.5" y="-491" font-family="Helvetica,sans-Serif" font-size="10.00">ant::WrapTTree</text>
</a>
</g>
</g>
<!-- Node12&#45;&gt;Node11 -->
<g id="edge11" class="edge"><title>Node12&#45;&gt;Node11</title>
<path fill="none" stroke="midnightblue" d="M746.697,-495.854C828.567,-499.546 986.899,-506.686 1074.99,-510.658"/>
<polygon fill="midnightblue" stroke="midnightblue" points="746.771,-492.354 736.623,-495.4 746.455,-499.347 746.771,-492.354"/>
</g>
<!-- Node37 -->
<g id="node36" class="node"><title>Node37</title>
<g id="a_node36"><a xlink:href="structant_1_1analysis_1_1physics_1_1triple_pi0_1_1eff_tree__t.html" target="_top" xlink:title="ant::analysis::physics\l::triplePi0::effTree_t">
<polygon fill="white" stroke="black" points="910,-450.5 910,-480.5 1028,-480.5 1028,-450.5 910,-450.5"/>
<text text-anchor="start" x="918" y="-468.5" font-family="Helvetica,sans-Serif" font-size="10.00">ant::analysis::physics</text>
<text text-anchor="middle" x="969" y="-457.5" font-family="Helvetica,sans-Serif" font-size="10.00">::triplePi0::effTree_t</text>
</a>
</g>
</g>
<!-- Node12&#45;&gt;Node37 -->
<g id="edge41" class="edge"><title>Node12&#45;&gt;Node37</title>
<path fill="none" stroke="midnightblue" d="M746.822,-488.143C793.424,-483.373 861.515,-476.402 909.817,-471.457"/>
<polygon fill="midnightblue" stroke="midnightblue" points="746.227,-484.686 736.635,-489.186 746.939,-491.65 746.227,-484.686"/>
</g>
<!-- Node13 -->
<g id="node12" class="node"><title>Node13</title>
<g id="a_node12"><a xlink:href="classant_1_1_tree.html" target="_top" xlink:title="ant::Tree\&lt; node_t \&gt;">
<polygon fill="white" stroke="black" points="1243.5,-361 1243.5,-380 1356.5,-380 1356.5,-361 1243.5,-361"/>
<text text-anchor="middle" x="1300" y="-368" font-family="Helvetica,sans-Serif" font-size="10.00">ant::Tree&lt; node_t &gt;</text>
</a>
</g>
</g>
<!-- Node13&#45;&gt;Node2 -->
<g id="edge12" class="edge"><title>Node13&#45;&gt;Node2</title>
<path fill="none" stroke="#9a32cd" stroke-dasharray="5,2" d="M1366.54,-368.073C1408.03,-369.5 1461.17,-377.046 1501,-402.5 1538.25,-426.309 1561.63,-475.63 1571.53,-500.487"/>
<polygon fill="#9a32cd" stroke="#9a32cd" points="1366.6,-364.574 1356.52,-367.839 1366.44,-371.572 1366.6,-364.574"/>
<text text-anchor="middle" x="1449" y="-416.5" font-family="Helvetica,sans-Serif" font-size="10.00"> kaonFitterSigmaPlus</text>
<text text-anchor="middle" x="1449" y="-405.5" font-family="Helvetica,sans-Serif" font-size="10.00">sigmaFitterSigmaPlus</text>
</g>
<!-- Node14 -->
<g id="node13" class="node"><title>Node14</title>
<polygon fill="white" stroke="#bfbfbf" points="415,-392 415,-411 522,-411 522,-392 415,-392"/>
<text text-anchor="middle" x="468.5" y="-399" font-family="Helvetica,sans-Serif" font-size="10.00">std::list&lt; node_t &gt;</text>
</g>
<!-- Node14&#45;&gt;Node13 -->
<g id="edge13" class="edge"><title>Node14&#45;&gt;Node13</title>
<path fill="none" stroke="#9a32cd" stroke-dasharray="5,2" d="M532.387,-401.612C556.088,-401.624 583.284,-401.604 608,-401.5 872.451,-400.389 943.288,-446.353 1203,-396.5 1211.43,-394.882 1212.81,-392.077 1221,-389.5 1232.03,-386.027 1244.11,-382.809 1255.4,-380.045"/>
<polygon fill="#9a32cd" stroke="#9a32cd" points="532.117,-398.111 522.114,-401.604 532.111,-405.111 532.117,-398.111"/>
<text text-anchor="middle" x="821" y="-417.5" font-family="Helvetica,sans-Serif" font-size="10.00"> daughters</text>
</g>
<!-- Node16 -->
<g id="node15" class="node"><title>Node16</title>
<g id="a_node15"><a xlink:href="classant_1_1_tree.html" target="_top" xlink:title="ant::Tree\&lt; T \&gt;">
<polygon fill="white" stroke="black" points="650.5,-354 650.5,-373 736.5,-373 736.5,-354 650.5,-354"/>
<text text-anchor="middle" x="693.5" y="-361" font-family="Helvetica,sans-Serif" font-size="10.00">ant::Tree&lt; T &gt;</text>
</a>
</g>
</g>
<!-- Node14&#45;&gt;Node16 -->
<g id="edge16" class="edge"><title>Node14&#45;&gt;Node16</title>
<path fill="none" stroke="#9a32cd" stroke-dasharray="5,2" d="M531.957,-390.857C569.754,-384.416 616.941,-376.375 650.351,-370.682"/>
<polygon fill="#9a32cd" stroke="#9a32cd" points="531.335,-387.412 522.066,-392.543 532.511,-394.313 531.335,-387.412"/>
<text text-anchor="middle" x="582" y="-389.5" font-family="Helvetica,sans-Serif" font-size="10.00"> daughters</text>
</g>
<!-- Node15 -->
<g id="node14" class="node"><title>Node15</title>
<polygon fill="white" stroke="#bfbfbf" points="908,-361 908,-380 1030,-380 1030,-361 908,-361"/>
<text text-anchor="middle" x="969" y="-368" font-family="Helvetica,sans-Serif" font-size="10.00">std::weak_ptr&lt; Tree &gt;</text>
</g>
<!-- Node15&#45;&gt;Node13 -->
<g id="edge14" class="edge"><title>Node15&#45;&gt;Node13</title>
<path fill="none" stroke="#9a32cd" stroke-dasharray="5,2" d="M1040.61,-370.5C1101.28,-370.5 1187.56,-370.5 1243.42,-370.5"/>
<polygon fill="#9a32cd" stroke="#9a32cd" points="1040.34,-367 1030.34,-370.5 1040.34,-374 1040.34,-367"/>
<text text-anchor="middle" x="1139" y="-384.5" font-family="Helvetica,sans-Serif" font-size="10.00"> parent</text>
<text text-anchor="middle" x="1139" y="-373.5" font-family="Helvetica,sans-Serif" font-size="10.00">self</text>
</g>
<!-- Node15&#45;&gt;Node16 -->
<g id="edge17" class="edge"><title>Node15&#45;&gt;Node16</title>
<path fill="none" stroke="#9a32cd" stroke-dasharray="5,2" d="M897.507,-368.696C846.57,-367.392 779.461,-365.675 736.635,-364.578"/>
<polygon fill="#9a32cd" stroke="#9a32cd" points="897.705,-372.202 907.791,-368.959 897.884,-365.204 897.705,-372.202"/>
<text text-anchor="middle" x="821" y="-382.5" font-family="Helvetica,sans-Serif" font-size="10.00"> parent</text>
<text text-anchor="middle" x="821" y="-371.5" font-family="Helvetica,sans-Serif" font-size="10.00">self</text>
</g>
<!-- Node16&#45;&gt;Node15 -->
<g id="edge15" class="edge"><title>Node16&#45;&gt;Node15</title>
<path fill="none" stroke="#9a32cd" stroke-dasharray="5,2" d="M728.338,-350.554C743.576,-345.389 761.942,-340.065 779,-337.5 815.918,-331.949 827.687,-325.384 863,-337.5 872.586,-340.789 871.822,-347.201 881,-351.5 889.4,-355.435 898.642,-358.568 907.869,-361.061"/>
<polygon fill="#9a32cd" stroke="#9a32cd" points="727.098,-347.281 718.822,-353.896 729.417,-353.885 727.098,-347.281"/>
<text text-anchor="middle" x="821" y="-340.5" font-family="Helvetica,sans-Serif" font-size="10.00"> ptr</text>
</g>
<!-- Node17 -->
<g id="node16" class="node"><title>Node17</title>
<polygon fill="white" stroke="#bfbfbf" points="454,-317 454,-336 483,-336 483,-317 454,-317"/>
<text text-anchor="middle" x="468.5" y="-324" font-family="Helvetica,sans-Serif" font-size="10.00">T</text>
</g>
<!-- Node17&#45;&gt;Node16 -->
<g id="edge18" class="edge"><title>Node17&#45;&gt;Node16</title>
<path fill="none" stroke="#9a32cd" stroke-dasharray="5,2" d="M493.052,-330.408C530.359,-336.598 603.581,-348.747 650.17,-356.477"/>
<polygon fill="#9a32cd" stroke="#9a32cd" points="493.552,-326.943 483.114,-328.759 492.406,-333.849 493.552,-326.943"/>
<text text-anchor="middle" x="582" y="-352.5" font-family="Helvetica,sans-Serif" font-size="10.00"> data</text>
</g>
<!-- Node34 -->
<g id="node33" class="node"><title>Node34</title>
<g id="a_node33"><a xlink:title="STL class. ">
<polygon fill="white" stroke="#bfbfbf" points="646,-302 646,-321 741,-321 741,-302 646,-302"/>
<text text-anchor="middle" x="693.5" y="-309" font-family="Helvetica,sans-Serif" font-size="10.00">std::vector&lt; T &gt;</text>
</a>
</g>
</g>
<!-- Node17&#45;&gt;Node34 -->
<g id="edge36" class="edge"><title>Node17&#45;&gt;Node34</title>
<path fill="none" stroke="#9a32cd" stroke-dasharray="5,2" d="M493.569,-322.802C510.888,-320.297 534.829,-317.152 556,-315.5 585.782,-313.176 619.314,-312.17 645.69,-311.749"/>
<polygon fill="#9a32cd" stroke="#9a32cd" points="492.619,-319.404 483.24,-324.333 493.646,-326.329 492.619,-319.404"/>
<text text-anchor="middle" x="582" y="-318.5" font-family="Helvetica,sans-Serif" font-size="10.00"> elements</text>
</g>
<!-- Node18 -->
<g id="node17" class="node"><title>Node18</title>
<polygon fill="white" stroke="#bfbfbf" points="1244,-614.5 1244,-644.5 1356,-644.5 1356,-614.5 1244,-614.5"/>
<text text-anchor="start" x="1252" y="-632.5" font-family="Helvetica,sans-Serif" font-size="10.00">std::vector&lt; utils</text>
<text text-anchor="middle" x="1300" y="-621.5" font-family="Helvetica,sans-Serif" font-size="10.00">::TreeFitter::tree_t &gt;</text>
</g>
<!-- Node18&#45;&gt;Node2 -->
<g id="edge19" class="edge"><title>Node18&#45;&gt;Node2</title>
<path fill="none" stroke="#9a32cd" stroke-dasharray="5,2" d="M1366.26,-619.34C1406.6,-611.358 1458.58,-597.923 1501,-576.5 1524.56,-564.601 1547.63,-544.552 1562.05,-530.705"/>
<polygon fill="#9a32cd" stroke="#9a32cd" points="1365.43,-615.935 1356.27,-621.253 1366.75,-622.81 1365.43,-615.935"/>
<text text-anchor="middle" x="1449" y="-626.5" font-family="Helvetica,sans-Serif" font-size="10.00"> pionsFitterSigmaPlus</text>
<text text-anchor="middle" x="1449" y="-615.5" font-family="Helvetica,sans-Serif" font-size="10.00">pionsFitterSig</text>
</g>
<!-- Node19 -->
<g id="node18" class="node"><title>Node19</title>
<g id="a_node18"><a xlink:href="classant_1_1analysis_1_1utils_1_1_tree_fitter.html" target="_top" xlink:title="ant::analysis::utils\l::TreeFitter">
<polygon fill="white" stroke="black" points="1249,-235.5 1249,-265.5 1351,-265.5 1351,-235.5 1249,-235.5"/>
<text text-anchor="start" x="1257" y="-253.5" font-family="Helvetica,sans-Serif" font-size="10.00">ant::analysis::utils</text>
<text text-anchor="middle" x="1300" y="-242.5" font-family="Helvetica,sans-Serif" font-size="10.00">::TreeFitter</text>
</a>
</g>
</g>
<!-- Node19&#45;&gt;Node2 -->
<g id="edge20" class="edge"><title>Node19&#45;&gt;Node2</title>
<path fill="none" stroke="#9a32cd" stroke-dasharray="5,2" d="M1361.31,-249.582C1405.09,-252.1 1463.07,-262.462 1501,-296.5 1562.85,-352.009 1574.37,-460.463 1576.51,-500.329"/>
<polygon fill="#9a32cd" stroke="#9a32cd" points="1361.22,-246.075 1351.07,-249.12 1360.9,-253.068 1361.22,-246.075"/>
<text text-anchor="middle" x="1449" y="-310.5" font-family="Helvetica,sans-Serif" font-size="10.00"> fitterSigmaPlus</text>
<text text-anchor="middle" x="1449" y="-299.5" font-family="Helvetica,sans-Serif" font-size="10.00">fitterSig</text>
</g>
<!-- Node20 -->
<g id="node19" class="node"><title>Node20</title>
<g id="a_node19"><a xlink:href="classant_1_1analysis_1_1utils_1_1_kin_fitter.html" target="_top" xlink:title="ant::analysis::utils\l::KinFitter">
<polygon fill="white" stroke="black" points="918,-98.5 918,-128.5 1020,-128.5 1020,-98.5 918,-98.5"/>
<text text-anchor="start" x="926" y="-116.5" font-family="Helvetica,sans-Serif" font-size="10.00">ant::analysis::utils</text>
<text text-anchor="middle" x="969" y="-105.5" font-family="Helvetica,sans-Serif" font-size="10.00">::KinFitter</text>
</a>
</g>
</g>
<!-- Node20&#45;&gt;Node2 -->
<g id="edge38" class="edge"><title>Node20&#45;&gt;Node2</title>
<path fill="none" stroke="#9a32cd" stroke-dasharray="5,2" d="M1030.12,-109.351C1141.39,-105.288 1379.19,-114.198 1501,-250.5 1568.14,-325.621 1576.25,-456.375 1577.01,-500.481"/>
<polygon fill="#9a32cd" stroke="#9a32cd" points="1029.92,-105.856 1020.08,-109.766 1030.21,-112.85 1029.92,-105.856"/>
<text text-anchor="middle" x="1300" y="-166.5" font-family="Helvetica,sans-Serif" font-size="10.00"> fitterEMB</text>
</g>
<!-- Node20&#45;&gt;Node19 -->
<g id="edge21" class="edge"><title>Node20&#45;&gt;Node19</title>
<path fill="none" stroke="midnightblue" d="M1030.15,-119.755C1078.86,-126.646 1148.15,-140.681 1203,-168.5 1236.62,-185.553 1268.4,-216.707 1285.64,-235.316"/>
<polygon fill="midnightblue" stroke="midnightblue" points="1030.46,-116.265 1020.08,-118.39 1029.52,-123.202 1030.46,-116.265"/>
</g>
<!-- Node21 -->
<g id="node20" class="node"><title>Node21</title>
<g id="a_node20"><a xlink:href="classant_1_1analysis_1_1utils_1_1_fitter.html" target="_top" xlink:title="ant::analysis::utils\l::Fitter">
<polygon fill="white" stroke="black" points="642.5,-98.5 642.5,-128.5 744.5,-128.5 744.5,-98.5 642.5,-98.5"/>
<text text-anchor="start" x="650.5" y="-116.5" font-family="Helvetica,sans-Serif" font-size="10.00">ant::analysis::utils</text>
<text text-anchor="middle" x="693.5" y="-105.5" font-family="Helvetica,sans-Serif" font-size="10.00">::Fitter</text>
</a>
</g>
</g>
<!-- Node21&#45;&gt;Node20 -->
<g id="edge22" class="edge"><title>Node21&#45;&gt;Node20</title>
<path fill="none" stroke="midnightblue" d="M754.786,-113.5C803.653,-113.5 871.718,-113.5 917.692,-113.5"/>
<polygon fill="midnightblue" stroke="midnightblue" points="754.664,-110 744.664,-113.5 754.664,-117 754.664,-110"/>
</g>
<!-- Node22 -->
<g id="node21" class="node"><title>Node22</title>
<g id="a_node21"><a xlink:href="structant_1_1analysis_1_1utils_1_1_kin_fitter_1_1_target__t.html" target="_top" xlink:title="ant::analysis::utils\l::KinFitter::Target_t">
<polygon fill="white" stroke="black" points="641,-49.5 641,-79.5 746,-79.5 746,-49.5 641,-49.5"/>
<text text-anchor="start" x="649" y="-67.5" font-family="Helvetica,sans-Serif" font-size="10.00">ant::analysis::utils</text>
<text text-anchor="middle" x="693.5" y="-56.5" font-family="Helvetica,sans-Serif" font-size="10.00">::KinFitter::Target_t</text>
</a>
</g>
</g>
<!-- Node22&#45;&gt;Node20 -->
<g id="edge23" class="edge"><title>Node22&#45;&gt;Node20</title>
<path fill="none" stroke="#9a32cd" stroke-dasharray="5,2" d="M756.384,-75.587C805.178,-84.329 872.355,-96.3644 917.832,-104.512"/>
<polygon fill="#9a32cd" stroke="#9a32cd" points="756.725,-72.0926 746.265,-73.7741 755.491,-78.9829 756.725,-72.0926"/>
<text text-anchor="middle" x="821" y="-96.5" font-family="Helvetica,sans-Serif" font-size="10.00"> Target</text>
</g>
<!-- Node23 -->
<g id="node22" class="node"><title>Node23</title>
<g id="a_node22"><a xlink:href="structant_1_1analysis_1_1utils_1_1_kin_fitter_1_1_beam_e__t.html" target="_top" xlink:title="ant::analysis::utils\l::KinFitter::BeamE_t">
<polygon fill="white" stroke="black" points="638.5,-0.5 638.5,-30.5 748.5,-30.5 748.5,-0.5 638.5,-0.5"/>
<text text-anchor="start" x="646.5" y="-18.5" font-family="Helvetica,sans-Serif" font-size="10.00">ant::analysis::utils</text>
<text text-anchor="middle" x="693.5" y="-7.5" font-family="Helvetica,sans-Serif" font-size="10.00">::KinFitter::BeamE_t</text>
</a>
</g>
</g>
<!-- Node23&#45;&gt;Node20 -->
<g id="edge24" class="edge"><title>Node23&#45;&gt;Node20</title>
<path fill="none" stroke="#9a32cd" stroke-dasharray="5,2" d="M758.682,-32.2589C790.421,-41.1223 829.096,-52.7918 863,-65.5 888.901,-75.2082 917.389,-88.398 938.149,-98.4947"/>
<polygon fill="#9a32cd" stroke="#9a32cd" points="759.206,-28.7727 748.635,-29.482 757.341,-35.5197 759.206,-28.7727"/>
<text text-anchor="middle" x="821" y="-68.5" font-family="Helvetica,sans-Serif" font-size="10.00"> BeamE</text>
</g>
<!-- Node24 -->
<g id="node23" class="node"><title>Node24</title>
<polygon fill="white" stroke="#bfbfbf" points="440.5,-6 440.5,-25 496.5,-25 496.5,-6 440.5,-6"/>
<text text-anchor="middle" x="468.5" y="-13" font-family="Helvetica,sans-Serif" font-size="10.00">V_S_P_t</text>
</g>
<!-- Node24&#45;&gt;Node23 -->
<g id="edge25" class="edge"><title>Node24&#45;&gt;Node23</title>
<path fill="none" stroke="midnightblue" d="M506.924,-15.5C542.928,-15.5 597.749,-15.5 638.482,-15.5"/>
<polygon fill="midnightblue" stroke="midnightblue" points="506.844,-12.0001 496.844,-15.5 506.844,-19.0001 506.844,-12.0001"/>
</g>
<!-- Node25 -->
<g id="node24" class="node"><title>Node25</title>
<polygon fill="white" stroke="#bfbfbf" points="626,-148 626,-167 761,-167 761,-148 626,-148"/>
<text text-anchor="middle" x="693.5" y="-155" font-family="Helvetica,sans-Serif" font-size="10.00">std::vector&lt; FitParticle &gt;</text>
</g>
<!-- Node25&#45;&gt;Node20 -->
<g id="edge26" class="edge"><title>Node25&#45;&gt;Node20</title>
<path fill="none" stroke="#9a32cd" stroke-dasharray="5,2" d="M763.86,-146.342C811.901,-138.613 874.737,-128.504 917.935,-121.554"/>
<polygon fill="#9a32cd" stroke="#9a32cd" points="763.163,-142.909 753.845,-147.953 764.274,-149.82 763.163,-142.909"/>
<text text-anchor="middle" x="821" y="-146.5" font-family="Helvetica,sans-Serif" font-size="10.00"> Photons</text>
</g>
<!-- Node26 -->
<g id="node25" class="node"><title>Node26</title>
<polygon fill="white" stroke="#bfbfbf" points="909.5,-285 909.5,-304 1028.5,-304 1028.5,-285 909.5,-285"/>
<text text-anchor="middle" x="969" y="-292" font-family="Helvetica,sans-Serif" font-size="10.00">std::vector&lt; tree_t &gt;</text>
</g>
<!-- Node26&#45;&gt;Node19 -->
<g id="edge27" class="edge"><title>Node26&#45;&gt;Node19</title>
<path fill="none" stroke="#9a32cd" stroke-dasharray="5,2" d="M1038.91,-286.495C1085.33,-280.962 1147.9,-273.231 1203,-265.5 1217.87,-263.414 1234,-260.965 1248.72,-258.658"/>
<polygon fill="#9a32cd" stroke="#9a32cd" points="1038.48,-283.021 1028.96,-287.676 1039.3,-289.972 1038.48,-283.021"/>
<text text-anchor="middle" x="1139" y="-285.5" font-family="Helvetica,sans-Serif" font-size="10.00"> tree_leaves</text>
</g>
<!-- Node27 -->
<g id="node26" class="node"><title>Node27</title>
<polygon fill="white" stroke="#bfbfbf" points="890,-186.5 890,-216.5 1048,-216.5 1048,-186.5 890,-186.5"/>
<text text-anchor="start" x="898" y="-204.5" font-family="Helvetica,sans-Serif" font-size="10.00">std::list&lt; ant::analysis</text>
<text text-anchor="middle" x="969" y="-193.5" font-family="Helvetica,sans-Serif" font-size="10.00">::utils::TreeFitter::iteration_t &gt;</text>
</g>
<!-- Node27&#45;&gt;Node19 -->
<g id="edge28" class="edge"><title>Node27&#45;&gt;Node19</title>
<path fill="none" stroke="#9a32cd" stroke-dasharray="5,2" d="M1058.23,-214.16C1101.81,-220.469 1155.19,-228.276 1203,-235.5 1217.84,-237.743 1233.97,-240.239 1248.69,-242.542"/>
<polygon fill="#9a32cd" stroke="#9a32cd" points="1058.63,-210.681 1048.23,-212.714 1057.62,-217.609 1058.63,-210.681"/>
<text text-anchor="middle" x="1139" y="-238.5" font-family="Helvetica,sans-Serif" font-size="10.00"> iterations</text>
</g>
<!-- Node28 -->
<g id="node27" class="node"><title>Node28</title>
<g id="a_node27"><a xlink:href="structant_1_1analysis_1_1utils_1_1_tree_fitter_1_1iteration__t.html" target="_top" xlink:title="ant::analysis::utils\l::TreeFitter::iteration_t">
<polygon fill="white" stroke="black" points="633,-186.5 633,-216.5 754,-216.5 754,-186.5 633,-186.5"/>
<text text-anchor="start" x="641" y="-204.5" font-family="Helvetica,sans-Serif" font-size="10.00">ant::analysis::utils</text>
<text text-anchor="middle" x="693.5" y="-193.5" font-family="Helvetica,sans-Serif" font-size="10.00">::TreeFitter::iteration_t</text>
</a>
</g>
</g>
<!-- Node28&#45;&gt;Node27 -->
<g id="edge29" class="edge"><title>Node28&#45;&gt;Node27</title>
<path fill="none" stroke="#9a32cd" stroke-dasharray="5,2" d="M764.237,-201.5C802.625,-201.5 850.372,-201.5 889.995,-201.5"/>
<polygon fill="#9a32cd" stroke="#9a32cd" points="764.183,-198 754.183,-201.5 764.183,-205 764.183,-198"/>
<text text-anchor="middle" x="821" y="-204.5" font-family="Helvetica,sans-Serif" font-size="10.00"> elements</text>
</g>
<!-- Node29 -->
<g id="node28" class="node"><title>Node29</title>
<polygon fill="white" stroke="#bfbfbf" points="399,-181 399,-222 538,-222 538,-181 399,-181"/>
<text text-anchor="start" x="407" y="-210" font-family="Helvetica,sans-Serif" font-size="10.00">std::vector&lt; ant::analysis</text>
<text text-anchor="start" x="407" y="-199" font-family="Helvetica,sans-Serif" font-size="10.00">::utils::TreeFitter::iteration</text>
<text text-anchor="middle" x="468.5" y="-188" font-family="Helvetica,sans-Serif" font-size="10.00">_t::photon_t &gt;</text>
</g>
<!-- Node29&#45;&gt;Node28 -->
<g id="edge30" class="edge"><title>Node29&#45;&gt;Node28</title>
<path fill="none" stroke="#9a32cd" stroke-dasharray="5,2" d="M548.3,-201.5C576.043,-201.5 606.749,-201.5 632.671,-201.5"/>
<polygon fill="#9a32cd" stroke="#9a32cd" points="548.227,-198 538.227,-201.5 548.227,-205 548.227,-198"/>
<text text-anchor="middle" x="582" y="-204.5" font-family="Helvetica,sans-Serif" font-size="10.00"> Photons</text>
</g>
<!-- Node30 -->
<g id="node29" class="node"><title>Node30</title>
<g id="a_node29"><a xlink:href="structant_1_1analysis_1_1utils_1_1_tree_fitter_1_1iteration__t_1_1photon__t.html" target="_top" xlink:title="ant::analysis::utils\l::TreeFitter::iteration\l_t::photon_t">
<polygon fill="white" stroke="black" points="202,-181 202,-222 314,-222 314,-181 202,-181"/>
<text text-anchor="start" x="210" y="-210" font-family="Helvetica,sans-Serif" font-size="10.00">ant::analysis::utils</text>
<text text-anchor="start" x="210" y="-199" font-family="Helvetica,sans-Serif" font-size="10.00">::TreeFitter::iteration</text>
<text text-anchor="middle" x="258" y="-188" font-family="Helvetica,sans-Serif" font-size="10.00">_t::photon_t</text>
</a>
</g>
</g>
<!-- Node30&#45;&gt;Node29 -->
<g id="edge31" class="edge"><title>Node30&#45;&gt;Node29</title>
<path fill="none" stroke="#9a32cd" stroke-dasharray="5,2" d="M324.329,-201.5C347.978,-201.5 374.748,-201.5 398.688,-201.5"/>
<polygon fill="#9a32cd" stroke="#9a32cd" points="324.054,-198 314.054,-201.5 324.054,-205 324.054,-198"/>
<text text-anchor="middle" x="356.5" y="-204.5" font-family="Helvetica,sans-Serif" font-size="10.00"> elements</text>
</g>
<!-- Node31 -->
<g id="node30" class="node"><title>Node31</title>
<g id="a_node30"><a xlink:href="structant_1_1std__ext_1_1cc__shared__ptr.html" target="_top" xlink:title="ant::std_ext::cc_shared\l_ptr\&lt; TParticle \&gt;">
<polygon fill="white" stroke="black" points="0,-186.5 0,-216.5 128,-216.5 128,-186.5 0,-186.5"/>
<text text-anchor="start" x="8" y="-204.5" font-family="Helvetica,sans-Serif" font-size="10.00">ant::std_ext::cc_shared</text>
<text text-anchor="middle" x="64" y="-193.5" font-family="Helvetica,sans-Serif" font-size="10.00">_ptr&lt; TParticle &gt;</text>
</a>
</g>
</g>
<!-- Node31&#45;&gt;Node30 -->
<g id="edge32" class="edge"><title>Node31&#45;&gt;Node30</title>
<path fill="none" stroke="#9a32cd" stroke-dasharray="5,2" d="M138.349,-201.5C159.45,-201.5 182.099,-201.5 201.895,-201.5"/>
<polygon fill="#9a32cd" stroke="#9a32cd" points="138.134,-198 128.134,-201.5 138.134,-205 138.134,-198"/>
<text text-anchor="middle" x="165" y="-204.5" font-family="Helvetica,sans-Serif" font-size="10.00"> Particle</text>
</g>
<!-- Node32 -->
<g id="node31" class="node"><title>Node32</title>
<polygon fill="white" stroke="#bfbfbf" points="900,-235.5 900,-265.5 1038,-265.5 1038,-235.5 900,-235.5"/>
<text text-anchor="start" x="908" y="-253.5" font-family="Helvetica,sans-Serif" font-size="10.00">std::vector&lt; std::function</text>
<text text-anchor="middle" x="969" y="-242.5" font-family="Helvetica,sans-Serif" font-size="10.00">&lt; void()&gt; &gt;</text>
</g>
<!-- Node32&#45;&gt;Node19 -->
<g id="edge33" class="edge"><title>Node32&#45;&gt;Node19</title>
<path fill="none" stroke="#9a32cd" stroke-dasharray="5,2" d="M1048.33,-250.5C1110.51,-250.5 1195.57,-250.5 1248.89,-250.5"/>
<polygon fill="#9a32cd" stroke="#9a32cd" points="1048.17,-247 1038.17,-250.5 1048.17,-254 1048.17,-247"/>
<text text-anchor="middle" x="1139" y="-253.5" font-family="Helvetica,sans-Serif" font-size="10.00"> sum_daughters</text>
</g>
<!-- Node33 -->
<g id="node32" class="node"><title>Node33</title>
<polygon fill="white" stroke="#bfbfbf" points="890,-323 890,-342 1048,-342 1048,-323 890,-323"/>
<text text-anchor="middle" x="969" y="-330" font-family="Helvetica,sans-Serif" font-size="10.00">std::vector&lt; permutation_t &gt;</text>
</g>
<!-- Node33&#45;&gt;Node19 -->
<g id="edge34" class="edge"><title>Node33&#45;&gt;Node19</title>
<path fill="none" stroke="#9a32cd" stroke-dasharray="5,2" d="M1058.34,-325.661C1102.51,-320.633 1156.35,-312.041 1203,-297.5 1227.98,-289.713 1254.57,-276.246 1273.41,-265.718"/>
<polygon fill="#9a32cd" stroke="#9a32cd" points="1057.77,-322.203 1048.21,-326.772 1058.53,-329.161 1057.77,-322.203"/>
<text text-anchor="middle" x="1139" y="-326.5" font-family="Helvetica,sans-Serif" font-size="10.00"> permutations</text>
</g>
<!-- Node34&#45;&gt;Node33 -->
<g id="edge35" class="edge"><title>Node34&#45;&gt;Node33</title>
<path fill="none" stroke="#9a32cd" stroke-dasharray="5,2" d="M751.362,-311.47C784.074,-311.882 825.916,-313.137 863,-316.5 879.62,-318.007 897.611,-320.448 913.927,-322.975"/>
<polygon fill="#9a32cd" stroke="#9a32cd" points="751.115,-307.967 741.079,-311.364 751.043,-314.967 751.115,-307.967"/>
<text text-anchor="middle" x="821" y="-319.5" font-family="Helvetica,sans-Serif" font-size="10.00"> elements</text>
</g>
<!-- Node35 -->
<g id="node34" class="node"><title>Node35</title>
<polygon fill="white" stroke="#bfbfbf" points="881,-148 881,-167 1057,-167 1057,-148 881,-148"/>
<text text-anchor="middle" x="969" y="-155" font-family="Helvetica,sans-Serif" font-size="10.00">std::vector&lt; node_constraint_t &gt;</text>
</g>
<!-- Node35&#45;&gt;Node19 -->
<g id="edge37" class="edge"><title>Node35&#45;&gt;Node19</title>
<path fill="none" stroke="#9a32cd" stroke-dasharray="5,2" d="M1057.08,-168.542C1101.5,-175.616 1155.94,-186.527 1203,-202.5 1228.06,-211.004 1254.85,-224.843 1273.75,-235.481"/>
<polygon fill="#9a32cd" stroke="#9a32cd" points="1057.6,-165.081 1047.18,-167.003 1056.52,-171.998 1057.6,-165.081"/>
<text text-anchor="middle" x="1139" y="-205.5" font-family="Helvetica,sans-Serif" font-size="10.00"> node_constraints</text>
</g>
<!-- Node36 -->
<g id="node35" class="node"><title>Node36</title>
<g id="a_node35"><a xlink:href="structant_1_1analysis_1_1physics_1_1triple_pi0_1_1_seen_tree.html" target="_top" xlink:title="ant::analysis::physics\l::triplePi0::SeenTree">
<polygon fill="white" stroke="black" points="1241,-399.5 1241,-429.5 1359,-429.5 1359,-399.5 1241,-399.5"/>
<text text-anchor="start" x="1249" y="-417.5" font-family="Helvetica,sans-Serif" font-size="10.00">ant::analysis::physics</text>
<text text-anchor="middle" x="1300" y="-406.5" font-family="Helvetica,sans-Serif" font-size="10.00">::triplePi0::SeenTree</text>
</a>
</g>
</g>
<!-- Node36&#45;&gt;Node2 -->
<g id="edge39" class="edge"><title>Node36&#45;&gt;Node2</title>
<path fill="none" stroke="#9a32cd" stroke-dasharray="5,2" d="M1369.24,-422.156C1409.02,-428.393 1459.38,-439.411 1501,-458.5 1523.94,-469.02 1546.6,-487.325 1561.13,-500.352"/>
<polygon fill="#9a32cd" stroke="#9a32cd" points="1369.52,-418.658 1359.11,-420.634 1368.48,-425.581 1369.52,-418.658"/>
<text text-anchor="middle" x="1449" y="-461.5" font-family="Helvetica,sans-Serif" font-size="10.00"> seenSignal</text>
</g>
<!-- Node37&#45;&gt;Node36 -->
<g id="edge40" class="edge"><title>Node37&#45;&gt;Node36</title>
<path fill="none" stroke="midnightblue" d="M1038.18,-454.931C1098.09,-445.644 1184.3,-432.28 1240.97,-423.496"/>
<polygon fill="midnightblue" stroke="midnightblue" points="1037.41,-451.509 1028.06,-456.5 1038.48,-458.426 1037.41,-451.509"/>
</g>
<!-- Node38 -->
<g id="node37" class="node"><title>Node38</title>
<g id="a_node37"><a xlink:href="structant_1_1analysis_1_1physics_1_1triple_pi0_1_1_rec_tree.html" target="_top" xlink:title="ant::analysis::physics\l::triplePi0::RecTree">
<polygon fill="white" stroke="black" points="1241,-448.5 1241,-478.5 1359,-478.5 1359,-448.5 1241,-448.5"/>
<text text-anchor="start" x="1249" y="-466.5" font-family="Helvetica,sans-Serif" font-size="10.00">ant::analysis::physics</text>
<text text-anchor="middle" x="1300" y="-455.5" font-family="Helvetica,sans-Serif" font-size="10.00">::triplePi0::RecTree</text>
</a>
</g>
</g>
<!-- Node37&#45;&gt;Node38 -->
<g id="edge43" class="edge"><title>Node37&#45;&gt;Node38</title>
<path fill="none" stroke="midnightblue" d="M1038.18,-465.086C1098.09,-464.721 1184.3,-464.197 1240.97,-463.853"/>
<polygon fill="midnightblue" stroke="midnightblue" points="1038.04,-461.586 1028.06,-465.147 1038.08,-468.586 1038.04,-461.586"/>
</g>
<!-- Node38&#45;&gt;Node2 -->
<g id="edge42" class="edge"><title>Node38&#45;&gt;Node2</title>
<path fill="none" stroke="#9a32cd" stroke-dasharray="5,2" d="M1369.43,-469.595C1408.32,-473.84 1457.74,-480.554 1501,-490.5 1512.51,-493.146 1524.75,-496.79 1535.97,-500.479"/>
<polygon fill="#9a32cd" stroke="#9a32cd" points="1369.58,-466.092 1359.27,-468.516 1368.84,-473.052 1369.58,-466.092"/>
<text text-anchor="middle" x="1449" y="-493.5" font-family="Helvetica,sans-Serif" font-size="10.00"> recSignal</text>
</g>
<!-- Node39 -->
<g id="node38" class="node"><title>Node39</title>
<g id="a_node38"><a xlink:href="classant_1_1analysis_1_1_prompt_random_1_1_switch.html" target="_top" xlink:title="ant::analysis::PromptRandom\l::Switch">
<polygon fill="white" stroke="black" points="1221,-770.5 1221,-800.5 1379,-800.5 1379,-770.5 1221,-770.5"/>
<text text-anchor="start" x="1229" y="-788.5" font-family="Helvetica,sans-Serif" font-size="10.00">ant::analysis::PromptRandom</text>
<text text-anchor="middle" x="1300" y="-777.5" font-family="Helvetica,sans-Serif" font-size="10.00">::Switch</text>
</a>
</g>
</g>
<!-- Node39&#45;&gt;Node2 -->
<g id="edge44" class="edge"><title>Node39&#45;&gt;Node2</title>
<path fill="none" stroke="#9a32cd" stroke-dasharray="5,2" d="M1389.44,-791.512C1427.72,-789.53 1470.63,-780.52 1501,-754.5 1570.11,-695.298 1577.03,-573.464 1577.24,-530.723"/>
<polygon fill="#9a32cd" stroke="#9a32cd" points="1389.16,-788.02 1379.29,-791.882 1389.42,-795.015 1389.16,-788.02"/>
<text text-anchor="middle" x="1449" y="-793.5" font-family="Helvetica,sans-Serif" font-size="10.00"> promptrandom</text>
</g>
<!-- Node40&#45;&gt;Node39 -->
<g id="edge45" class="edge"><title>Node40&#45;&gt;Node39</title>
<path fill="none" stroke="#9a32cd" stroke-dasharray="5,2" d="M1038.83,-785.5C1091.98,-785.5 1165.55,-785.5 1220.89,-785.5"/>
<polygon fill="#9a32cd" stroke="#9a32cd" points="1038.82,-782 1028.82,-785.5 1038.82,-789 1038.82,-782"/>
<text text-anchor="middle" x="1139" y="-799.5" font-family="Helvetica,sans-Serif" font-size="10.00"> promptw</text>
<text text-anchor="middle" x="1139" y="-788.5" font-family="Helvetica,sans-Serif" font-size="10.00">randomw</text>
</g>
<!-- Node41 -->
<g id="node40" class="node"><title>Node41</title>
<g id="a_node40"><a xlink:href="classant_1_1analysis_1_1utils_1_1_trigger_simulation.html" target="_top" xlink:title="ant::analysis::utils\l::TriggerSimulation">
<polygon fill="white" stroke="black" points="1247.5,-311.5 1247.5,-341.5 1352.5,-341.5 1352.5,-311.5 1247.5,-311.5"/>
<text text-anchor="start" x="1255.5" y="-329.5" font-family="Helvetica,sans-Serif" font-size="10.00">ant::analysis::utils</text>
<text text-anchor="middle" x="1300" y="-318.5" font-family="Helvetica,sans-Serif" font-size="10.00">::TriggerSimulation</text>
</a>
</g>
</g>
<!-- Node41&#45;&gt;Node2 -->
<g id="edge47" class="edge"><title>Node41&#45;&gt;Node2</title>
<path fill="none" stroke="#9a32cd" stroke-dasharray="5,2" d="M1362.82,-321.001C1405.53,-320.415 1461.53,-326.38 1501,-355.5 1550,-391.651 1568.66,-467.594 1574.61,-500.15"/>
<polygon fill="#9a32cd" stroke="#9a32cd" points="1362.73,-317.502 1352.82,-321.259 1362.91,-324.5 1362.73,-317.502"/>
<text text-anchor="middle" x="1449" y="-358.5" font-family="Helvetica,sans-Serif" font-size="10.00"> triggersimu</text>
</g>
<!-- Node42 -->
<g id="node41" class="node"><title>Node42</title>
<polygon fill="white" stroke="#bfbfbf" points="1229,-663 1229,-704 1371,-704 1371,-663 1229,-663"/>
<text text-anchor="start" x="1237" y="-692" font-family="Helvetica,sans-Serif" font-size="10.00">std::vector&lt; ant::analysis</text>
<text text-anchor="start" x="1237" y="-681" font-family="Helvetica,sans-Serif" font-size="10.00">::physics::triplePi0::named</text>
<text text-anchor="middle" x="1300" y="-670" font-family="Helvetica,sans-Serif" font-size="10.00">_channel_t &gt;</text>
</g>
<!-- Node42&#45;&gt;Node2 -->
<g id="edge48" class="edge"><title>Node42&#45;&gt;Node2</title>
<path fill="none" stroke="#9a32cd" stroke-dasharray="5,2" d="M1381.57,-679.798C1420.62,-674.602 1466.42,-663.154 1501,-638.5 1539.63,-610.961 1562.65,-557.043 1572.05,-530.706"/>
<polygon fill="#9a32cd" stroke="#9a32cd" points="1380.78,-676.367 1371.28,-681.046 1381.63,-683.316 1380.78,-676.367"/>
<text text-anchor="middle" x="1449" y="-680.5" font-family="Helvetica,sans-Serif" font-size="10.00"> otherBackgrounds</text>
</g>
<!-- Node43&#45;&gt;Node2 -->
<g id="edge51" class="edge"><title>Node43&#45;&gt;Node2</title>
<path fill="none" stroke="#9a32cd" stroke-dasharray="5,2" d="M1055.61,-587.21C1160.74,-575.453 1344.38,-553.786 1501,-529.5 1506.83,-528.595 1512.91,-527.588 1518.97,-526.54"/>
<polygon fill="#9a32cd" stroke="#9a32cd" points="1054.92,-583.764 1045.37,-588.351 1055.7,-590.721 1054.92,-583.764"/>
<text text-anchor="middle" x="1300" y="-592.5" font-family="Helvetica,sans-Serif" font-size="10.00"> signal</text>
<text text-anchor="middle" x="1300" y="-581.5" font-family="Helvetica,sans-Serif" font-size="10.00">mainBackground</text>
<text text-anchor="middle" x="1300" y="-570.5" font-family="Helvetica,sans-Serif" font-size="10.00">sigmaBackground</text>
</g>
<!-- Node43&#45;&gt;Node42 -->
<g id="edge49" class="edge"><title>Node43&#45;&gt;Node42</title>
<path fill="none" stroke="#9a32cd" stroke-dasharray="5,2" d="M1036.72,-614.144C1092.55,-628.907 1171.96,-649.907 1228.76,-664.925"/>
<polygon fill="#9a32cd" stroke="#9a32cd" points="1037.49,-610.728 1026.93,-611.555 1035.7,-617.495 1037.49,-610.728"/>
<text text-anchor="middle" x="1139" y="-661.5" font-family="Helvetica,sans-Serif" font-size="10.00"> elements</text>
</g>
</g>
</svg>
