<?xml version="1.0" encoding="UTF-8" standalone="no"?>
<!DOCTYPE svg PUBLIC "-//W3C//DTD SVG 1.1//EN"
 "http://www.w3.org/Graphics/SVG/1.1/DTD/svg11.dtd">
<!-- Generated by graphviz version 2.38.0 (20140413.2041)
 -->
<!-- Title: ant::calibration::converter::CATCH_TDC Pages: 1 -->
<svg width="781pt" height="165pt"
 viewBox="0.00 0.00 781.00 164.50" xmlns="http://www.w3.org/2000/svg" xmlns:xlink="http://www.w3.org/1999/xlink">
<g id="graph0" class="graph" transform="scale(1 1) rotate(0) translate(4 160.5)">
<title>ant::calibration::converter::CATCH_TDC</title>
<polygon fill="white" stroke="none" points="-4,4 -4,-160.5 777,-160.5 777,4 -4,4"/>
<!-- Node6 -->
<g id="node1" class="node"><title>Node6</title>
<polygon fill="#bfbfbf" stroke="black" points="633,-50 633,-80 773,-80 773,-50 633,-50"/>
<text text-anchor="start" x="641" y="-68" font-family="Helvetica,sans-Serif" font-size="10.00">ant::calibration::converter</text>
<text text-anchor="middle" x="703" y="-57" font-family="Helvetica,sans-Serif" font-size="10.00">::CATCH_TDC</text>
</g>
<!-- Node7 -->
<g id="node2" class="node"><title>Node7</title>
<g id="a_node2"><a xlink:href="structant_1_1calibration_1_1converter_1_1_multi_hit_reference.html" target="_top" xlink:title="ant::calibration::converter\l::MultiHitReference\&lt; std\l::uint16_t \&gt;">
<polygon fill="white" stroke="black" points="456,-44.5 456,-85.5 596,-85.5 596,-44.5 456,-44.5"/>
<text text-anchor="start" x="464" y="-73.5" font-family="Helvetica,sans-Serif" font-size="10.00">ant::calibration::converter</text>
<text text-anchor="start" x="464" y="-62.5" font-family="Helvetica,sans-Serif" font-size="10.00">::MultiHitReference&lt; std</text>
<text text-anchor="middle" x="526" y="-51.5" font-family="Helvetica,sans-Serif" font-size="10.00">::uint16_t &gt;</text>
</a>
</g>
</g>
<!-- Node7&#45;&gt;Node6 -->
<g id="edge1" class="edge"><title>Node7&#45;&gt;Node6</title>
<path fill="none" stroke="midnightblue" d="M606.415,-65C615.208,-65 624.111,-65 632.765,-65"/>
<polygon fill="midnightblue" stroke="midnightblue" points="606.165,-61.5001 596.165,-65 606.165,-68.5001 606.165,-61.5001"/>
</g>
<!-- Node8 -->
<g id="node3" class="node"><title>Node8</title>
<g id="a_node3"><a xlink:href="structant_1_1calibration_1_1converter_1_1_multi_hit.html" target="_top" xlink:title="ant::calibration::converter\l::MultiHit\&lt; std::uint16_t \&gt;">
<polygon fill="white" stroke="black" points="184.5,-126 184.5,-156 325.5,-156 325.5,-126 184.5,-126"/>
<text text-anchor="start" x="192.5" y="-144" font-family="Helvetica,sans-Serif" font-size="10.00">ant::calibration::converter</text>
<text text-anchor="middle" x="255" y="-133" font-family="Helvetica,sans-Serif" font-size="10.00">::MultiHit&lt; std::uint16_t &gt;</text>
</a>
</g>
</g>
<!-- Node8&#45;&gt;Node7 -->
<g id="edge2" class="edge"><title>Node8&#45;&gt;Node7</title>
<path fill="none" stroke="midnightblue" d="M326.286,-123.399C360.168,-114.676 401.319,-103.731 438,-93 445.919,-90.6832 454.21,-88.1524 462.396,-85.59"/>
<polygon fill="midnightblue" stroke="midnightblue" points="325.293,-120.04 316.476,-125.915 327.032,-126.821 325.293,-120.04"/>
</g>
<!-- Node9 -->
<g id="node4" class="node"><title>Node9</title>
<g id="a_node4"><a xlink:href="structant_1_1_calibration_1_1_converter.html" target="_top" xlink:title="The Converter struct handles the transition from raw bytes to somewhat meaningful values (not necessa...">
<polygon fill="white" stroke="black" points="0,-131.5 0,-150.5 143,-150.5 143,-131.5 0,-131.5"/>
<text text-anchor="middle" x="71.5" y="-138.5" font-family="Helvetica,sans-Serif" font-size="10.00">ant::Calibration::Converter</text>
</a>
</g>
</g>
<!-- Node9&#45;&gt;Node8 -->
<g id="edge3" class="edge"><title>Node9&#45;&gt;Node8</title>
<path fill="none" stroke="midnightblue" d="M153.442,-141C163.77,-141 174.268,-141 184.395,-141"/>
<polygon fill="midnightblue" stroke="midnightblue" points="153.192,-137.5 143.192,-141 153.192,-144.5 153.192,-137.5"/>
</g>
<!-- Node10 -->
<g id="node5" class="node"><title>Node10</title>
<g id="a_node5"><a xlink:href="structant_1_1_reconstruct_hook_1_1_detector_read_hits.html" target="_top" xlink:title="The DetectorReadHits struct instances are applied before hit matching. ">
<polygon fill="white" stroke="black" points="195.5,-77 195.5,-107 314.5,-107 314.5,-77 195.5,-77"/>
<text text-anchor="start" x="203.5" y="-95" font-family="Helvetica,sans-Serif" font-size="10.00">ant::ReconstructHook</text>
<text text-anchor="middle" x="255" y="-84" font-family="Helvetica,sans-Serif" font-size="10.00">::DetectorReadHits</text>
</a>
</g>
</g>
<!-- Node10&#45;&gt;Node7 -->
<g id="edge4" class="edge"><title>Node10&#45;&gt;Node7</title>
<path fill="none" stroke="midnightblue" d="M324.697,-85.1047C364.951,-81.0643 415.64,-75.9766 455.954,-71.9302"/>
<polygon fill="midnightblue" stroke="midnightblue" points="324.301,-81.6268 314.701,-86.1081 325,-88.5918 324.301,-81.6268"/>
</g>
<!-- Node11 -->
<g id="node6" class="node"><title>Node11</title>
<g id="a_node6"><a xlink:href="structant_1_1_reconstruct_hook_1_1_base.html" target="_top" xlink:title="The Base struct just defines some useful types. ">
<polygon fill="white" stroke="black" points="12,-77 12,-107 131,-107 131,-77 12,-77"/>
<text text-anchor="start" x="20" y="-95" font-family="Helvetica,sans-Serif" font-size="10.00">ant::ReconstructHook</text>
<text text-anchor="middle" x="71.5" y="-84" font-family="Helvetica,sans-Serif" font-size="10.00">::Base</text>
</a>
</g>
</g>
<!-- Node11&#45;&gt;Node10 -->
<g id="edge5" class="edge"><title>Node11&#45;&gt;Node10</title>
<path fill="none" stroke="midnightblue" d="M141.451,-92C159.168,-92 178.064,-92 195.214,-92"/>
<polygon fill="midnightblue" stroke="midnightblue" points="141.177,-88.5001 131.177,-92 141.177,-95.5001 141.177,-88.5001"/>
</g>
<!-- Node12 -->
<g id="node7" class="node"><title>Node12</title>
<g id="a_node7"><a xlink:href="structant_1_1_logical_channel__t.html" target="_top" xlink:title="The LogicalChannel_t struct uniquely identifies detector element within setup. ">
<polygon fill="white" stroke="black" points="195.5,-38.5 195.5,-57.5 314.5,-57.5 314.5,-38.5 195.5,-38.5"/>
<text text-anchor="middle" x="255" y="-45.5" font-family="Helvetica,sans-Serif" font-size="10.00">ant::LogicalChannel_t</text>
</a>
</g>
</g>
<!-- Node12&#45;&gt;Node7 -->
<g id="edge6" class="edge"><title>Node12&#45;&gt;Node7</title>
<path fill="none" stroke="#9a32cd" stroke-dasharray="5,2" d="M324.935,-51.3743C358.978,-53.146 400.66,-55.4724 438,-58 443.745,-58.3889 449.701,-58.8166 455.68,-59.2629"/>
<polygon fill="#9a32cd" stroke="#9a32cd" points="324.795,-47.8625 314.628,-50.8427 324.434,-54.8532 324.795,-47.8625"/>
<text text-anchor="middle" x="393" y="-61" font-family="Helvetica,sans-Serif" font-size="10.00"> ReferenceChannel</text>
</g>
<!-- Node13 -->
<g id="node8" class="node"><title>Node13</title>
<polygon fill="white" stroke="#bfbfbf" points="180,-0.5 180,-19.5 330,-19.5 330,-0.5 180,-0.5"/>
<text text-anchor="middle" x="255" y="-7.5" font-family="Helvetica,sans-Serif" font-size="10.00">std::vector&lt; std::uint16_t &gt;</text>
</g>
<!-- Node13&#45;&gt;Node7 -->
<g id="edge7" class="edge"><title>Node13&#45;&gt;Node7</title>
<path fill="none" stroke="#9a32cd" stroke-dasharray="5,2" d="M340.697,-20.3698C371.521,-24.8416 406.515,-30.7347 438,-38 446.013,-39.8491 454.361,-42.061 462.576,-44.412"/>
<polygon fill="#9a32cd" stroke="#9a32cd" points="340.808,-16.8504 330.415,-18.9078 339.822,-23.7807 340.808,-16.8504"/>
<text text-anchor="middle" x="393" y="-41" font-family="Helvetica,sans-Serif" font-size="10.00"> ReferenceHits</text>
</g>
</g>
</svg>
