<?xml version="1.0" encoding="UTF-8" standalone="no"?>
<!DOCTYPE svg PUBLIC "-//W3C//DTD SVG 1.1//EN"
 "http://www.w3.org/Graphics/SVG/1.1/DTD/svg11.dtd">
<!-- Generated by graphviz version 2.38.0 (20140413.2041)
 -->
<!-- Title: triplePi0_Plot::TriplePi0Hist_t::HistMgr&lt; Hist &gt; Pages: 1 -->
<svg width="136pt" height="106pt"
 viewBox="0.00 0.00 136.00 106.00" xmlns="http://www.w3.org/2000/svg" xmlns:xlink="http://www.w3.org/1999/xlink">
<g id="graph0" class="graph" transform="scale(1 1) rotate(0) translate(4 102)">
<title>triplePi0_Plot::TriplePi0Hist_t::HistMgr&lt; Hist &gt;</title>
<polygon fill="white" stroke="none" points="-4,4 -4,-102 132,-102 132,4 -4,4"/>
<!-- Node0 -->
<g id="node1" class="node"><title>Node0</title>
<polygon fill="#bfbfbf" stroke="black" points="0,-0.5 0,-30.5 128,-30.5 128,-0.5 0,-0.5"/>
<text text-anchor="start" x="8" y="-18.5" font-family="Helvetica,sans-Serif" font-size="10.00">triplePi0_Plot::TriplePi0</text>
<text text-anchor="middle" x="64" y="-7.5" font-family="Helvetica,sans-Serif" font-size="10.00">Hist_t::HistMgr&lt; Hist &gt;</text>
</g>
<!-- Node1 -->
<g id="node2" class="node"><title>Node1</title>
<g id="a_node2"><a xlink:title="STL class. ">
<polygon fill="white" stroke="#bfbfbf" points="13,-67.5 13,-97.5 115,-97.5 115,-67.5 13,-67.5"/>
<text text-anchor="start" x="21" y="-85.5" font-family="Helvetica,sans-Serif" font-size="10.00">std::list&lt; HistFiller</text>
<text text-anchor="middle" x="64" y="-74.5" font-family="Helvetica,sans-Serif" font-size="10.00">_t&lt; Hist &gt; &gt;</text>
</a>
</g>
</g>
<!-- Node1&#45;&gt;Node0 -->
<g id="edge1" class="edge"><title>Node1&#45;&gt;Node0</title>
<path fill="none" stroke="midnightblue" d="M64,-57.1081C64,-48.1539 64,-38.3227 64,-30.5765"/>
<polygon fill="midnightblue" stroke="midnightblue" points="60.5001,-57.3959 64,-67.396 67.5001,-57.396 60.5001,-57.3959"/>
</g>
</g>
</svg>
