<?xml version="1.0" encoding="UTF-8" standalone="no"?>
<!DOCTYPE svg PUBLIC "-//W3C//DTD SVG 1.1//EN"
 "http://www.w3.org/Graphics/SVG/1.1/DTD/svg11.dtd">
<!-- Generated by graphviz version 2.38.0 (20140413.2041)
 -->
<!-- Title: ant::Reconstruct::sorted_detectors_t Pages: 1 -->
<svg width="139pt" height="185pt"
 viewBox="0.00 0.00 139.00 185.00" xmlns="http://www.w3.org/2000/svg" xmlns:xlink="http://www.w3.org/1999/xlink">
<g id="graph0" class="graph" transform="scale(1 1) rotate(0) translate(4 181)">
<title>ant::Reconstruct::sorted_detectors_t</title>
<polygon fill="white" stroke="none" points="-4,4 -4,-181 135,-181 135,4 -4,4"/>
<!-- Node2 -->
<g id="node1" class="node"><title>Node2</title>
<polygon fill="#bfbfbf" stroke="black" points="0,-0.5 0,-30.5 131,-30.5 131,-0.5 0,-0.5"/>
<text text-anchor="start" x="8" y="-18.5" font-family="Helvetica,sans-Serif" font-size="10.00">ant::Reconstruct::sorted</text>
<text text-anchor="middle" x="65.5" y="-7.5" font-family="Helvetica,sans-Serif" font-size="10.00">_detectors_t</text>
</g>
<!-- Node3 -->
<g id="node2" class="node"><title>Node3</title>
<g id="a_node2"><a xlink:title="STL class. ">
<polygon fill="white" stroke="#bfbfbf" points="9,-68.5 9,-109.5 122,-109.5 122,-68.5 9,-68.5"/>
<text text-anchor="start" x="17" y="-97.5" font-family="Helvetica,sans-Serif" font-size="10.00">std::map&lt; Detector</text>
<text text-anchor="start" x="17" y="-86.5" font-family="Helvetica,sans-Serif" font-size="10.00">_t::Type_t, detector</text>
<text text-anchor="middle" x="65.5" y="-75.5" font-family="Helvetica,sans-Serif" font-size="10.00">_ptr_t &gt;</text>
</a>
</g>
</g>
<!-- Node3&#45;&gt;Node2 -->
<g id="edge1" class="edge"><title>Node3&#45;&gt;Node2</title>
<path fill="none" stroke="midnightblue" d="M65.5,-58.1581C65.5,-48.6872 65.5,-38.6473 65.5,-30.7972"/>
<polygon fill="midnightblue" stroke="midnightblue" points="62.0001,-58.4623 65.5,-68.4623 69.0001,-58.4623 62.0001,-58.4623"/>
</g>
<!-- Node4 -->
<g id="node3" class="node"><title>Node4</title>
<polygon fill="white" stroke="#bfbfbf" points="27,-157.5 27,-176.5 56,-176.5 56,-157.5 27,-157.5"/>
<text text-anchor="middle" x="41.5" y="-164.5" font-family="Helvetica,sans-Serif" font-size="10.00">K</text>
</g>
<!-- Node4&#45;&gt;Node3 -->
<g id="edge2" class="edge"><title>Node4&#45;&gt;Node3</title>
<path fill="none" stroke="#9a32cd" stroke-dasharray="5,2" d="M40.0938,-147.196C40.1275,-140.979 40.7123,-134.095 42.5,-128 44.3665,-121.636 47.5746,-115.26 51.0122,-109.597"/>
<polygon fill="#9a32cd" stroke="#9a32cd" points="36.6027,-147.497 40.4875,-157.354 43.5975,-147.226 36.6027,-147.497"/>
<text text-anchor="middle" x="55" y="-131" font-family="Helvetica,sans-Serif" font-size="10.00"> keys</text>
</g>
<!-- Node5 -->
<g id="node4" class="node"><title>Node5</title>
<polygon fill="white" stroke="#bfbfbf" points="75,-157.5 75,-176.5 104,-176.5 104,-157.5 75,-157.5"/>
<text text-anchor="middle" x="89.5" y="-164.5" font-family="Helvetica,sans-Serif" font-size="10.00">T</text>
</g>
<!-- Node5&#45;&gt;Node3 -->
<g id="edge3" class="edge"><title>Node5&#45;&gt;Node3</title>
<path fill="none" stroke="#9a32cd" stroke-dasharray="5,2" d="M83.6556,-147.493C80.0364,-136.032 75.3929,-121.327 71.7079,-109.658"/>
<polygon fill="#9a32cd" stroke="#9a32cd" points="80.398,-148.8 86.7469,-157.282 87.0731,-146.692 80.398,-148.8"/>
<text text-anchor="middle" x="104" y="-131" font-family="Helvetica,sans-Serif" font-size="10.00"> elements</text>
</g>
</g>
</svg>
