<?xml version="1.0" encoding="UTF-8" standalone="no"?>
<!DOCTYPE svg PUBLIC "-//W3C//DTD SVG 1.1//EN"
 "http://www.w3.org/Graphics/SVG/1.1/DTD/svg11.dtd">
<!-- Generated by graphviz version 2.38.0 (20140413.2041)
 -->
<!-- Title: sigmaPlus_Plot::SigmaK0Hist_t::Fill_t Pages: 1 -->
<svg width="762pt" height="84pt"
 viewBox="0.00 0.00 762.00 84.00" xmlns="http://www.w3.org/2000/svg" xmlns:xlink="http://www.w3.org/1999/xlink">
<g id="graph0" class="graph" transform="scale(1 1) rotate(0) translate(4 80)">
<title>sigmaPlus_Plot::SigmaK0Hist_t::Fill_t</title>
<polygon fill="white" stroke="none" points="-4,4 -4,-80 758,-80 758,4 -4,4"/>
<!-- Node1 -->
<g id="node1" class="node"><title>Node1</title>
<polygon fill="#bfbfbf" stroke="black" points="598,-19.5 598,-49.5 754,-49.5 754,-19.5 598,-19.5"/>
<text text-anchor="start" x="606" y="-37.5" font-family="Helvetica,sans-Serif" font-size="10.00">sigmaPlus_Plot::SigmaK0Hist</text>
<text text-anchor="middle" x="676" y="-26.5" font-family="Helvetica,sans-Serif" font-size="10.00">_t::Fill_t</text>
</g>
<!-- Node2 -->
<g id="node2" class="node"><title>Node2</title>
<g id="a_node2"><a xlink:href="structant_1_1analysis_1_1physics_1_1sigma_plus_1_1_rec_tree.html" target="_top" xlink:title="ant::analysis::physics\l::sigmaPlus::RecTree">
<polygon fill="white" stroke="black" points="416,-45.5 416,-75.5 534,-75.5 534,-45.5 416,-45.5"/>
<text text-anchor="start" x="424" y="-63.5" font-family="Helvetica,sans-Serif" font-size="10.00">ant::analysis::physics</text>
<text text-anchor="middle" x="475" y="-52.5" font-family="Helvetica,sans-Serif" font-size="10.00">::sigmaPlus::RecTree</text>
</a>
</g>
</g>
<!-- Node2&#45;&gt;Node1 -->
<g id="edge1" class="edge"><title>Node2&#45;&gt;Node1</title>
<path fill="none" stroke="#9a32cd" stroke-dasharray="5,2" d="M544.119,-51.6C561.455,-49.3351 580.206,-46.8851 597.952,-44.5665"/>
<polygon fill="#9a32cd" stroke="#9a32cd" points="543.556,-48.1437 534.094,-52.9098 544.463,-55.0847 543.556,-48.1437"/>
<text text-anchor="middle" x="566" y="-52.5" font-family="Helvetica,sans-Serif" font-size="10.00"> RTree</text>
</g>
<!-- Node3 -->
<g id="node3" class="node"><title>Node3</title>
<g id="a_node3"><a xlink:href="structant_1_1analysis_1_1physics_1_1sigma_plus_1_1eff_tree__t.html" target="_top" xlink:title="ant::analysis::physics\l::sigmaPlus::effTree_t">
<polygon fill="white" stroke="black" points="123,-44.5 123,-74.5 241,-74.5 241,-44.5 123,-44.5"/>
<text text-anchor="start" x="131" y="-62.5" font-family="Helvetica,sans-Serif" font-size="10.00">ant::analysis::physics</text>
<text text-anchor="middle" x="182" y="-51.5" font-family="Helvetica,sans-Serif" font-size="10.00">::sigmaPlus::effTree_t</text>
</a>
</g>
</g>
<!-- Node3&#45;&gt;Node2 -->
<g id="edge2" class="edge"><title>Node3&#45;&gt;Node2</title>
<path fill="none" stroke="midnightblue" d="M251.271,-59.7346C301.291,-59.9065 368.457,-60.1373 415.912,-60.3004"/>
<polygon fill="midnightblue" stroke="midnightblue" points="251.201,-56.2344 241.189,-59.7 251.177,-63.2344 251.201,-56.2344"/>
</g>
<!-- Node4 -->
<g id="node4" class="node"><title>Node4</title>
<g id="a_node4"><a xlink:href="classant_1_1_wrap_t_tree.html" target="_top" xlink:title="The WrapTTree struct simplifies TTree handling in physics classes. ">
<polygon fill="white" stroke="black" points="0,-23 0,-42 86,-42 86,-23 0,-23"/>
<text text-anchor="middle" x="43" y="-30" font-family="Helvetica,sans-Serif" font-size="10.00">ant::WrapTTree</text>
</a>
</g>
</g>
<!-- Node4&#45;&gt;Node3 -->
<g id="edge3" class="edge"><title>Node4&#45;&gt;Node3</title>
<path fill="none" stroke="midnightblue" d="M96.2168,-42.7909C104.907,-44.5035 113.967,-46.2892 122.795,-48.0289"/>
<polygon fill="midnightblue" stroke="midnightblue" points="96.7105,-39.3209 86.2224,-40.8212 95.3569,-46.1888 96.7105,-39.3209"/>
</g>
<!-- Node5 -->
<g id="node5" class="node"><title>Node5</title>
<g id="a_node5"><a xlink:href="structant_1_1analysis_1_1physics_1_1sigma_plus_1_1_pion_prod_tree.html" target="_top" xlink:title="ant::analysis::physics\l::sigmaPlus::PionProdTree">
<polygon fill="white" stroke="black" points="259,-0.5 259,-30.5 398,-30.5 398,-0.5 259,-0.5"/>
<text text-anchor="start" x="267" y="-18.5" font-family="Helvetica,sans-Serif" font-size="10.00">ant::analysis::physics</text>
<text text-anchor="middle" x="328.5" y="-7.5" font-family="Helvetica,sans-Serif" font-size="10.00">::sigmaPlus::PionProdTree</text>
</a>
</g>
</g>
<!-- Node4&#45;&gt;Node5 -->
<g id="edge5" class="edge"><title>Node4&#45;&gt;Node5</title>
<path fill="none" stroke="midnightblue" d="M96.1469,-29.373C141.937,-26.6272 208.871,-22.6135 258.977,-19.6089"/>
<polygon fill="midnightblue" stroke="midnightblue" points="95.9092,-25.8809 86.1367,-29.9733 96.3283,-32.8683 95.9092,-25.8809"/>
</g>
<!-- Node5&#45;&gt;Node1 -->
<g id="edge4" class="edge"><title>Node5&#45;&gt;Node1</title>
<path fill="none" stroke="#9a32cd" stroke-dasharray="5,2" d="M408.619,-19.0942C446.555,-20.8877 492.639,-23.1688 534,-25.5 554.694,-26.6664 577.089,-28.0433 597.807,-29.3647"/>
<polygon fill="#9a32cd" stroke="#9a32cd" points="408.3,-15.5754 398.147,-18.6016 407.971,-22.5676 408.3,-15.5754"/>
<text text-anchor="middle" x="475" y="-28.5" font-family="Helvetica,sans-Serif" font-size="10.00"> Tree</text>
</g>
</g>
</svg>
