<?xml version="1.0" encoding="UTF-8" standalone="no"?>
<!DOCTYPE svg PUBLIC "-//W3C//DTD SVG 1.1//EN"
 "http://www.w3.org/Graphics/SVG/1.1/DTD/svg11.dtd">
<!-- Generated by graphviz version 2.38.0 (20140413.2041)
 -->
<!-- Title: EtapOmegaG_plot Pages: 1 -->
<svg width="596pt" height="132pt"
 viewBox="0.00 0.00 596.00 132.00" xmlns="http://www.w3.org/2000/svg" xmlns:xlink="http://www.w3.org/1999/xlink">
<g id="graph0" class="graph" transform="scale(1 1) rotate(0) translate(4 128)">
<title>EtapOmegaG_plot</title>
<polygon fill="white" stroke="none" points="-4,4 -4,-128 592,-128 592,4 -4,4"/>
<!-- Node4 -->
<g id="node1" class="node"><title>Node4</title>
<polygon fill="#bfbfbf" stroke="black" points="484,-55 484,-74 588,-74 588,-55 484,-55"/>
<text text-anchor="middle" x="536" y="-62" font-family="Helvetica,sans-Serif" font-size="10.00">EtapOmegaG_plot</text>
</g>
<!-- Node5 -->
<g id="node2" class="node"><title>Node5</title>
<g id="a_node2"><a xlink:href="classant_1_1analysis_1_1_plotter.html" target="_top" xlink:title="ant::analysis::Plotter">
<polygon fill="white" stroke="black" points="228.5,-99 228.5,-118 342.5,-118 342.5,-99 228.5,-99"/>
<text text-anchor="middle" x="285.5" y="-106" font-family="Helvetica,sans-Serif" font-size="10.00">ant::analysis::Plotter</text>
</a>
</g>
</g>
<!-- Node5&#45;&gt;Node4 -->
<g id="edge1" class="edge"><title>Node5&#45;&gt;Node4</title>
<path fill="none" stroke="midnightblue" d="M353.074,-98.6191C386.959,-93.3683 428.756,-86.5515 466,-79.5 474.672,-77.858 483.925,-75.9531 492.744,-74.0631"/>
<polygon fill="midnightblue" stroke="midnightblue" points="352.177,-95.2159 342.826,-100.197 353.242,-102.134 352.177,-95.2159"/>
</g>
<!-- Node6 -->
<g id="node3" class="node"><title>Node6</title>
<g id="a_node3"><a xlink:href="classant_1_1analysis_1_1_histogram_factory.html" target="_top" xlink:title="ant::analysis::Histogram\lFactory">
<polygon fill="white" stroke="black" points="0,-93.5 0,-123.5 133,-123.5 133,-93.5 0,-93.5"/>
<text text-anchor="start" x="8" y="-111.5" font-family="Helvetica,sans-Serif" font-size="10.00">ant::analysis::Histogram</text>
<text text-anchor="middle" x="66.5" y="-100.5" font-family="Helvetica,sans-Serif" font-size="10.00">Factory</text>
</a>
</g>
</g>
<!-- Node6&#45;&gt;Node5 -->
<g id="edge2" class="edge"><title>Node6&#45;&gt;Node5</title>
<path fill="none" stroke="#9a32cd" stroke-dasharray="5,2" d="M143.317,-108.5C171.222,-108.5 202.309,-108.5 228.193,-108.5"/>
<polygon fill="#9a32cd" stroke="#9a32cd" points="143.196,-105 133.196,-108.5 143.196,-112 143.196,-105"/>
<text text-anchor="middle" x="170" y="-111.5" font-family="Helvetica,sans-Serif" font-size="10.00"> HistFac</text>
</g>
<!-- Node7 -->
<g id="node4" class="node"><title>Node7</title>
<g id="a_node4"><a xlink:href="structant_1_1analysis_1_1utils_1_1_m_c_weighting_1_1tree__t.html" target="_top" xlink:title="ant::analysis::utils\l::MCWeighting::tree_t">
<polygon fill="white" stroke="black" points="226.5,-49.5 226.5,-79.5 344.5,-79.5 344.5,-49.5 226.5,-49.5"/>
<text text-anchor="start" x="234.5" y="-67.5" font-family="Helvetica,sans-Serif" font-size="10.00">ant::analysis::utils</text>
<text text-anchor="middle" x="285.5" y="-56.5" font-family="Helvetica,sans-Serif" font-size="10.00">::MCWeighting::tree_t</text>
</a>
</g>
</g>
<!-- Node7&#45;&gt;Node4 -->
<g id="edge3" class="edge"><title>Node7&#45;&gt;Node4</title>
<path fill="none" stroke="#9a32cd" stroke-dasharray="5,2" d="M354.894,-64.5C395.663,-64.5 446.563,-64.5 483.843,-64.5"/>
<polygon fill="#9a32cd" stroke="#9a32cd" points="354.762,-61.0001 344.762,-64.5 354.762,-68.0001 354.762,-61.0001"/>
<text text-anchor="middle" x="424" y="-67.5" font-family="Helvetica,sans-Serif" font-size="10.00"> treeMCWeighting</text>
</g>
<!-- Node8 -->
<g id="node5" class="node"><title>Node8</title>
<g id="a_node5"><a xlink:href="classant_1_1_wrap_t_tree.html" target="_top" xlink:title="The WrapTTree struct simplifies TTree handling in physics classes. ">
<polygon fill="white" stroke="black" points="23.5,-37 23.5,-56 109.5,-56 109.5,-37 23.5,-37"/>
<text text-anchor="middle" x="66.5" y="-44" font-family="Helvetica,sans-Serif" font-size="10.00">ant::WrapTTree</text>
</a>
</g>
</g>
<!-- Node8&#45;&gt;Node7 -->
<g id="edge4" class="edge"><title>Node8&#45;&gt;Node7</title>
<path fill="none" stroke="midnightblue" d="M119.673,-50.8277C151.759,-53.4892 192.937,-56.905 226.109,-59.6565"/>
<polygon fill="midnightblue" stroke="midnightblue" points="119.852,-47.3306 109.597,-49.9919 119.273,-54.3067 119.852,-47.3306"/>
</g>
<!-- Node9 -->
<g id="node6" class="node"><title>Node9</title>
<g id="a_node6"><a xlink:href="structant_1_1analysis_1_1physics_1_1_etap_omega_g_1_1_tree_common.html" target="_top" xlink:title="ant::analysis::physics\l::EtapOmegaG::TreeCommon">
<polygon fill="white" stroke="black" points="207,-0.5 207,-30.5 364,-30.5 364,-0.5 207,-0.5"/>
<text text-anchor="start" x="215" y="-18.5" font-family="Helvetica,sans-Serif" font-size="10.00">ant::analysis::physics</text>
<text text-anchor="middle" x="285.5" y="-7.5" font-family="Helvetica,sans-Serif" font-size="10.00">::EtapOmegaG::TreeCommon</text>
</a>
</g>
</g>
<!-- Node8&#45;&gt;Node9 -->
<g id="edge6" class="edge"><title>Node8&#45;&gt;Node9</title>
<path fill="none" stroke="midnightblue" d="M119.665,-39.0478C145.804,-35.3137 177.979,-30.7173 206.943,-26.5795"/>
<polygon fill="midnightblue" stroke="midnightblue" points="119.002,-35.607 109.597,-40.4861 119.992,-42.5367 119.002,-35.607"/>
</g>
<!-- Node9&#45;&gt;Node4 -->
<g id="edge5" class="edge"><title>Node9&#45;&gt;Node4</title>
<path fill="none" stroke="#9a32cd" stroke-dasharray="5,2" d="M374.499,-31.6803C403.655,-37.1712 436.251,-43.45 466,-49.5 474.409,-51.2101 483.379,-53.1065 491.973,-54.9595"/>
<polygon fill="#9a32cd" stroke="#9a32cd" points="374.815,-28.1785 364.341,-29.7727 373.523,-35.0582 374.815,-28.1785"/>
<text text-anchor="middle" x="424" y="-52.5" font-family="Helvetica,sans-Serif" font-size="10.00"> treeCommon</text>
</g>
</g>
</svg>
