<?xml version="1.0" encoding="UTF-8" standalone="no"?>
<!DOCTYPE svg PUBLIC "-//W3C//DTD SVG 1.1//EN"
 "http://www.w3.org/Graphics/SVG/1.1/DTD/svg11.dtd">
<!-- Generated by graphviz version 2.38.0 (20140413.2041)
 -->
<!-- Title: ant::hstack Pages: 1 -->
<svg width="1165pt" height="406pt"
 viewBox="0.00 0.00 1165.00 406.12" xmlns="http://www.w3.org/2000/svg" xmlns:xlink="http://www.w3.org/1999/xlink">
<g id="graph0" class="graph" transform="scale(1 1) rotate(0) translate(4 402.12)">
<title>ant::hstack</title>
<polygon fill="white" stroke="none" points="-4,4 -4,-402.12 1161,-402.12 1161,4 -4,4"/>
<!-- Node2 -->
<g id="node1" class="node"><title>Node2</title>
<polygon fill="#bfbfbf" stroke="black" points="1087,-157.62 1087,-176.62 1157,-176.62 1157,-157.62 1087,-157.62"/>
<text text-anchor="middle" x="1122" y="-164.62" font-family="Helvetica,sans-Serif" font-size="10.00">ant::hstack</text>
</g>
<!-- Node3 -->
<g id="node2" class="node"><title>Node3</title>
<polygon fill="white" stroke="#bfbfbf" points="874,-300.62 874,-319.62 930,-319.62 930,-300.62 874,-300.62"/>
<text text-anchor="middle" x="902" y="-307.62" font-family="Helvetica,sans-Serif" font-size="10.00">THStack</text>
</g>
<!-- Node3&#45;&gt;Node2 -->
<g id="edge1" class="edge"><title>Node3&#45;&gt;Node2</title>
<path fill="none" stroke="midnightblue" d="M940.379,-311.591C976.854,-311.097 1032.1,-304.99 1069,-276.12 1102.03,-250.283 1115.19,-198.288 1119.37,-176.777"/>
<polygon fill="midnightblue" stroke="midnightblue" points="940.162,-308.091 930.162,-311.59 940.161,-315.091 940.162,-308.091"/>
</g>
<!-- Node4 -->
<g id="node3" class="node"><title>Node4</title>
<polygon fill="white" stroke="#bfbfbf" points="823,-262.62 823,-281.62 981,-281.62 981,-262.62 823,-262.62"/>
<text text-anchor="middle" x="902" y="-269.62" font-family="Helvetica,sans-Serif" font-size="10.00">std::unique_ptr&lt; TPaveText &gt;</text>
</g>
<!-- Node4&#45;&gt;Node2 -->
<g id="edge2" class="edge"><title>Node4&#45;&gt;Node2</title>
<path fill="none" stroke="#9a32cd" stroke-dasharray="5,2" d="M991.241,-262.748C1017.73,-257.035 1045.86,-247.857 1069,-233.12 1091.39,-218.858 1108.23,-191.516 1116.09,-176.901"/>
<polygon fill="#9a32cd" stroke="#9a32cd" points="990.298,-259.367 981.185,-264.772 991.679,-266.23 990.298,-259.367"/>
<text text-anchor="middle" x="1034" y="-264.12" font-family="Helvetica,sans-Serif" font-size="10.00"> intellititle</text>
</g>
<!-- Node5 -->
<g id="node4" class="node"><title>Node5</title>
<polygon fill="white" stroke="#bfbfbf" points="844,-134.62 844,-153.62 960,-153.62 960,-134.62 844,-134.62"/>
<text text-anchor="middle" x="902" y="-141.62" font-family="Helvetica,sans-Serif" font-size="10.00">std::vector&lt; hist_t &gt;</text>
</g>
<!-- Node5&#45;&gt;Node2 -->
<g id="edge3" class="edge"><title>Node5&#45;&gt;Node2</title>
<path fill="none" stroke="#9a32cd" stroke-dasharray="5,2" d="M970.337,-149.243C1000.55,-151.789 1036.61,-155.17 1069,-159.12 1074.8,-159.828 1080.95,-160.682 1086.92,-161.565"/>
<polygon fill="#9a32cd" stroke="#9a32cd" points="970.584,-145.752 960.328,-148.412 970.005,-152.728 970.584,-145.752"/>
<text text-anchor="middle" x="1034" y="-162.12" font-family="Helvetica,sans-Serif" font-size="10.00"> hists</text>
</g>
<!-- Node6 -->
<g id="node5" class="node"><title>Node6</title>
<g id="a_node5"><a xlink:href="structant_1_1hstack_1_1hist__t.html" target="_top" xlink:title="ant::hstack::hist_t">
<polygon fill="white" stroke="black" points="598,-128.62 598,-147.62 700,-147.62 700,-128.62 598,-128.62"/>
<text text-anchor="middle" x="649" y="-135.62" font-family="Helvetica,sans-Serif" font-size="10.00">ant::hstack::hist_t</text>
</a>
</g>
</g>
<!-- Node6&#45;&gt;Node5 -->
<g id="edge4" class="edge"><title>Node6&#45;&gt;Node5</title>
<path fill="none" stroke="#9a32cd" stroke-dasharray="5,2" d="M710.217,-139.56C750.788,-140.53 803.973,-141.801 843.88,-142.755"/>
<polygon fill="#9a32cd" stroke="#9a32cd" points="710.271,-136.06 700.19,-139.32 710.104,-143.058 710.271,-136.06"/>
<text text-anchor="middle" x="767" y="-145.12" font-family="Helvetica,sans-Serif" font-size="10.00"> elements</text>
</g>
<!-- Node7 -->
<g id="node6" class="node"><title>Node7</title>
<g id="a_node6"><a xlink:href="structant_1_1analysis_1_1plot_1_1histstyle_1_1_mod_option__t.html" target="_top" xlink:title="ant::analysis::plot\l::histstyle::ModOption_t">
<polygon fill="white" stroke="black" points="300,-78.1203 300,-108.12 429,-108.12 429,-78.1203 300,-78.1203"/>
<text text-anchor="start" x="308" y="-96.1203" font-family="Helvetica,sans-Serif" font-size="10.00">ant::analysis::plot</text>
<text text-anchor="middle" x="364.5" y="-85.1203" font-family="Helvetica,sans-Serif" font-size="10.00">::histstyle::ModOption_t</text>
</a>
</g>
</g>
<!-- Node7&#45;&gt;Node2 -->
<g id="edge10" class="edge"><title>Node7&#45;&gt;Node2</title>
<path fill="none" stroke="#9a32cd" stroke-dasharray="5,2" d="M439.503,-91.9801C555.619,-91.3088 787.359,-94.4831 981,-125.12 1022.48,-131.683 1068.84,-147.314 1096.43,-157.545"/>
<polygon fill="#9a32cd" stroke="#9a32cd" points="439.286,-88.4815 429.31,-92.0508 439.334,-95.4813 439.286,-88.4815"/>
<text text-anchor="middle" x="767" y="-108.12" font-family="Helvetica,sans-Serif" font-size="10.00"> current_option</text>
</g>
<!-- Node7&#45;&gt;Node6 -->
<g id="edge5" class="edge"><title>Node7&#45;&gt;Node6</title>
<path fill="none" stroke="#9a32cd" stroke-dasharray="5,2" d="M439.531,-101.946C478.217,-106.901 526.281,-113.596 569,-121.12 581.159,-123.262 594.293,-125.94 606.296,-128.532"/>
<polygon fill="#9a32cd" stroke="#9a32cd" points="439.756,-98.4461 429.395,-100.659 438.875,-105.39 439.756,-98.4461"/>
<text text-anchor="middle" x="508" y="-124.12" font-family="Helvetica,sans-Serif" font-size="10.00"> Option</text>
</g>
<!-- Node8 -->
<g id="node7" class="node"><title>Node8</title>
<g id="a_node7"><a xlink:title="STL class. ">
<polygon fill="white" stroke="#bfbfbf" points="140,-154.62 140,-173.62 205,-173.62 205,-154.62 140,-154.62"/>
<text text-anchor="middle" x="172.5" y="-161.62" font-family="Helvetica,sans-Serif" font-size="10.00">std::string</text>
</a>
</g>
</g>
<!-- Node8&#45;&gt;Node2 -->
<g id="edge9" class="edge"><title>Node8&#45;&gt;Node2</title>
<path fill="none" stroke="#9a32cd" stroke-dasharray="5,2" d="M215.611,-171.113C254.025,-176.881 312.414,-184.12 363.5,-184.12 363.5,-184.12 363.5,-184.12 903,-184.12 968.105,-184.12 1043.82,-176.491 1086.71,-171.454"/>
<polygon fill="#9a32cd" stroke="#9a32cd" points="215.745,-167.593 205.329,-169.533 214.681,-174.511 215.745,-167.593"/>
<text text-anchor="middle" x="649" y="-187.12" font-family="Helvetica,sans-Serif" font-size="10.00"> origtitle</text>
</g>
<!-- Node8&#45;&gt;Node6 -->
<g id="edge8" class="edge"><title>Node8&#45;&gt;Node6</title>
<path fill="none" stroke="#9a32cd" stroke-dasharray="5,2" d="M215.046,-161.844C302.19,-157.069 503.782,-146.023 597.903,-140.865"/>
<polygon fill="#9a32cd" stroke="#9a32cd" points="214.794,-158.352 205.001,-162.394 215.177,-165.342 214.794,-158.352"/>
<text text-anchor="middle" x="364.5" y="-160.12" font-family="Helvetica,sans-Serif" font-size="10.00"> Path</text>
</g>
<!-- Node8&#45;&gt;Node7 -->
<g id="edge6" class="edge"><title>Node8&#45;&gt;Node7</title>
<path fill="none" stroke="#9a32cd" stroke-dasharray="5,2" d="M188.324,-147.031C197.402,-137.652 209.788,-126.637 223,-120.12 246.724,-108.418 275.025,-101.779 299.989,-98.0168"/>
<polygon fill="#9a32cd" stroke="#9a32cd" points="185.743,-144.667 181.532,-154.389 190.886,-149.415 185.743,-144.667"/>
<text text-anchor="middle" x="252.5" y="-123.12" font-family="Helvetica,sans-Serif" font-size="10.00"> DrawOption</text>
</g>
<!-- Node14 -->
<g id="node13" class="node"><title>Node14</title>
<polygon fill="white" stroke="#bfbfbf" points="588,-213.62 588,-254.62 710,-254.62 710,-213.62 588,-213.62"/>
<text text-anchor="start" x="596" y="-242.62" font-family="Helvetica,sans-Serif" font-size="10.00">std::map&lt; std::string,</text>
<text text-anchor="start" x="596" y="-231.62" font-family="Helvetica,sans-Serif" font-size="10.00"> ant::hstack::options</text>
<text text-anchor="middle" x="649" y="-220.62" font-family="Helvetica,sans-Serif" font-size="10.00">_t::hist_t &gt;</text>
</g>
<!-- Node8&#45;&gt;Node14 -->
<g id="edge18" class="edge"><title>Node8&#45;&gt;Node14</title>
<path fill="none" stroke="#9a32cd" stroke-dasharray="5,2" d="M182.845,-182.979C191.313,-198.164 205.184,-218.922 223,-231.12 252.269,-251.16 264.842,-247.412 300,-252.12 418.511,-267.991 450.052,-260.293 569,-248.12 575.097,-247.496 581.432,-246.673 587.743,-245.738"/>
<polygon fill="#9a32cd" stroke="#9a32cd" points="185.84,-181.157 178.073,-173.951 179.652,-184.428 185.84,-181.157"/>
<text text-anchor="middle" x="364.5" y="-264.12" font-family="Helvetica,sans-Serif" font-size="10.00"> keys</text>
</g>
<!-- Node15 -->
<g id="node14" class="node"><title>Node15</title>
<g id="a_node14"><a xlink:href="structant_1_1hstack_1_1options__t_1_1hist__t.html" target="_top" xlink:title="ant::hstack::options\l_t::hist_t">
<polygon fill="white" stroke="black" points="309,-213.12 309,-243.12 420,-243.12 420,-213.12 309,-213.12"/>
<text text-anchor="start" x="317" y="-231.12" font-family="Helvetica,sans-Serif" font-size="10.00">ant::hstack::options</text>
<text text-anchor="middle" x="364.5" y="-220.12" font-family="Helvetica,sans-Serif" font-size="10.00">_t::hist_t</text>
</a>
</g>
</g>
<!-- Node8&#45;&gt;Node15 -->
<g id="edge17" class="edge"><title>Node8&#45;&gt;Node15</title>
<path fill="none" stroke="#9a32cd" stroke-dasharray="5,2" d="M192.92,-180.087C201.651,-186.549 212.369,-193.549 223,-198.12 250.153,-209.796 282.272,-217.091 308.943,-221.559"/>
<polygon fill="#9a32cd" stroke="#9a32cd" points="194.981,-177.257 184.928,-173.914 190.702,-182.797 194.981,-177.257"/>
<text text-anchor="middle" x="252.5" y="-219.12" font-family="Helvetica,sans-Serif" font-size="10.00"> AddTo</text>
</g>
<!-- Node18 -->
<g id="node17" class="node"><title>Node18</title>
<polygon fill="white" stroke="#bfbfbf" points="447,-39.6203 447,-58.6203 569,-58.6203 569,-39.6203 447,-39.6203"/>
<text text-anchor="middle" x="508" y="-46.6203" font-family="Helvetica,sans-Serif" font-size="10.00">std::list&lt; std::string &gt;</text>
</g>
<!-- Node8&#45;&gt;Node18 -->
<g id="edge23" class="edge"><title>Node8&#45;&gt;Node18</title>
<path fill="none" stroke="#9a32cd" stroke-dasharray="5,2" d="M180.853,-145.044C188.656,-127.356 202.683,-101.646 223,-87.1203 288.556,-40.2513 384.871,-37.4837 446.763,-41.7704"/>
<polygon fill="#9a32cd" stroke="#9a32cd" points="177.577,-143.808 176.978,-154.386 184.042,-146.49 177.577,-143.808"/>
<text text-anchor="middle" x="252.5" y="-90.1203" font-family="Helvetica,sans-Serif" font-size="10.00"> elements</text>
</g>
<!-- Node9 -->
<g id="node8" class="node"><title>Node9</title>
<g id="a_node8"><a xlink:title="STL class. ">
<polygon fill="white" stroke="#bfbfbf" points="0,-149.12 0,-179.12 103,-179.12 103,-149.12 0,-149.12"/>
<text text-anchor="start" x="8" y="-167.12" font-family="Helvetica,sans-Serif" font-size="10.00">std::basic_string&lt;</text>
<text text-anchor="middle" x="51.5" y="-156.12" font-family="Helvetica,sans-Serif" font-size="10.00"> char &gt;</text>
</a>
</g>
</g>
<!-- Node9&#45;&gt;Node8 -->
<g id="edge7" class="edge"><title>Node9&#45;&gt;Node8</title>
<path fill="none" stroke="midnightblue" d="M113.539,-164.12C122.619,-164.12 131.651,-164.12 139.788,-164.12"/>
<polygon fill="midnightblue" stroke="midnightblue" points="113.312,-160.62 103.312,-164.12 113.312,-167.62 113.312,-160.62"/>
</g>
<!-- Node10 -->
<g id="node9" class="node"><title>Node10</title>
<g id="a_node9"><a xlink:href="structant_1_1hstack_1_1options__t.html" target="_top" xlink:title="ant::hstack::options_t">
<polygon fill="white" stroke="black" points="842,-224.62 842,-243.62 962,-243.62 962,-224.62 842,-224.62"/>
<text text-anchor="middle" x="902" y="-231.62" font-family="Helvetica,sans-Serif" font-size="10.00">ant::hstack::options_t</text>
</a>
</g>
</g>
<!-- Node10&#45;&gt;Node2 -->
<g id="edge11" class="edge"><title>Node10&#45;&gt;Node2</title>
<path fill="none" stroke="#9a32cd" stroke-dasharray="5,2" d="M972.433,-224.241C1002.75,-218.618 1038.31,-210.22 1069,-198.12 1082.88,-192.646 1097.36,-183.707 1107.51,-176.831"/>
<polygon fill="#9a32cd" stroke="#9a32cd" points="971.594,-220.835 962.367,-226.042 972.827,-227.726 971.594,-220.835"/>
<text text-anchor="middle" x="1034" y="-221.12" font-family="Helvetica,sans-Serif" font-size="10.00"> GlobalOptions</text>
</g>
<!-- Node11 -->
<g id="node10" class="node"><title>Node11</title>
<g id="a_node10"><a xlink:href="classant_1_1interval.html" target="_top" xlink:title="ant::interval\&lt; double \&gt;">
<polygon fill="white" stroke="black" points="300.5,-374.62 300.5,-393.62 428.5,-393.62 428.5,-374.62 300.5,-374.62"/>
<text text-anchor="middle" x="364.5" y="-381.62" font-family="Helvetica,sans-Serif" font-size="10.00">ant::interval&lt; double &gt;</text>
</a>
</g>
</g>
<!-- Node11&#45;&gt;Node10 -->
<g id="edge12" class="edge"><title>Node11&#45;&gt;Node10</title>
<path fill="none" stroke="#9a32cd" stroke-dasharray="5,2" d="M438.681,-388.444C509.127,-391.049 618.326,-390.982 711,-373.12 753.804,-364.87 775.695,-377.392 805,-345.12 833.009,-314.276 794.22,-283.247 823,-253.12 828.199,-247.678 834.675,-243.686 841.658,-240.776"/>
<polygon fill="#9a32cd" stroke="#9a32cd" points="438.706,-384.943 428.575,-388.042 438.428,-391.937 438.706,-384.943"/>
<text text-anchor="middle" x="649" y="-390.12" font-family="Helvetica,sans-Serif" font-size="10.00"> YAxisRange</text>
</g>
<!-- Node16 -->
<g id="node15" class="node"><title>Node16</title>
<g id="a_node15"><a xlink:href="classant_1_1interval.html" target="_top" xlink:title="ant::interval\&lt; ant\l::interval\&lt; double \&gt; \&gt;">
<polygon fill="white" stroke="black" points="587,-333.12 587,-363.12 711,-363.12 711,-333.12 587,-333.12"/>
<text text-anchor="start" x="595" y="-351.12" font-family="Helvetica,sans-Serif" font-size="10.00">ant::interval&lt; ant</text>
<text text-anchor="middle" x="649" y="-340.12" font-family="Helvetica,sans-Serif" font-size="10.00">::interval&lt; double &gt; &gt;</text>
</a>
</g>
</g>
<!-- Node11&#45;&gt;Node16 -->
<g id="edge20" class="edge"><title>Node11&#45;&gt;Node16</title>
<path fill="none" stroke="#9a32cd" stroke-dasharray="5,2" d="M408.919,-372.091C421.153,-369.078 434.527,-366.134 447,-364.12 493.482,-356.617 546.604,-352.582 586.559,-350.441"/>
<polygon fill="#9a32cd" stroke="#9a32cd" points="407.787,-368.768 398.955,-374.62 409.509,-375.553 407.787,-368.768"/>
<text text-anchor="middle" x="508" y="-378.12" font-family="Helvetica,sans-Serif" font-size="10.00"> _start</text>
<text text-anchor="middle" x="508" y="-367.12" font-family="Helvetica,sans-Serif" font-size="10.00">_stop</text>
</g>
<!-- Node12 -->
<g id="node11" class="node"><title>Node12</title>
<polygon fill="white" stroke="#bfbfbf" points="589.5,-273.62 589.5,-314.62 708.5,-314.62 708.5,-273.62 589.5,-273.62"/>
<text text-anchor="start" x="597.5" y="-302.62" font-family="Helvetica,sans-Serif" font-size="10.00">std::map&lt; TH1 *, ant</text>
<text text-anchor="start" x="597.5" y="-291.62" font-family="Helvetica,sans-Serif" font-size="10.00">::hstack::options_t::</text>
<text text-anchor="middle" x="649" y="-280.62" font-family="Helvetica,sans-Serif" font-size="10.00">scale_t &gt;</text>
</g>
<!-- Node12&#45;&gt;Node10 -->
<g id="edge13" class="edge"><title>Node12&#45;&gt;Node10</title>
<path fill="none" stroke="#9a32cd" stroke-dasharray="5,2" d="M718.391,-277.772C764.19,-266.824 822.884,-252.793 861.191,-243.636"/>
<polygon fill="#9a32cd" stroke="#9a32cd" points="717.444,-274.4 708.532,-280.129 719.071,-281.208 717.444,-274.4"/>
<text text-anchor="middle" x="767" y="-278.12" font-family="Helvetica,sans-Serif" font-size="10.00"> AppliedScale</text>
</g>
<!-- Node13 -->
<g id="node12" class="node"><title>Node13</title>
<g id="a_node12"><a xlink:href="structant_1_1hstack_1_1options__t_1_1scale__t.html" target="_top" xlink:title="ant::hstack::options\l_t::scale_t">
<polygon fill="white" stroke="black" points="309,-310.12 309,-340.12 420,-340.12 420,-310.12 309,-310.12"/>
<text text-anchor="start" x="317" y="-328.12" font-family="Helvetica,sans-Serif" font-size="10.00">ant::hstack::options</text>
<text text-anchor="middle" x="364.5" y="-317.12" font-family="Helvetica,sans-Serif" font-size="10.00">_t::scale_t</text>
</a>
</g>
</g>
<!-- Node13&#45;&gt;Node12 -->
<g id="edge14" class="edge"><title>Node13&#45;&gt;Node12</title>
<path fill="none" stroke="#9a32cd" stroke-dasharray="5,2" d="M430.27,-318.013C478.234,-312.749 543.042,-305.638 589.456,-300.545"/>
<polygon fill="#9a32cd" stroke="#9a32cd" points="429.862,-314.536 420.304,-319.106 430.626,-321.495 429.862,-314.536"/>
<text text-anchor="middle" x="508" y="-319.12" font-family="Helvetica,sans-Serif" font-size="10.00"> elements</text>
</g>
<!-- Node14&#45;&gt;Node10 -->
<g id="edge15" class="edge"><title>Node14&#45;&gt;Node10</title>
<path fill="none" stroke="#9a32cd" stroke-dasharray="5,2" d="M720.169,-234.12C758.47,-234.12 805.366,-234.12 841.803,-234.12"/>
<polygon fill="#9a32cd" stroke="#9a32cd" points="720.121,-230.62 710.121,-234.12 720.121,-237.62 720.121,-230.62"/>
<text text-anchor="middle" x="767" y="-237.12" font-family="Helvetica,sans-Serif" font-size="10.00"> PerHist</text>
</g>
<!-- Node15&#45;&gt;Node14 -->
<g id="edge16" class="edge"><title>Node15&#45;&gt;Node14</title>
<path fill="none" stroke="#9a32cd" stroke-dasharray="5,2" d="M430.467,-229.5C477.902,-230.508 541.733,-231.863 587.973,-232.845"/>
<polygon fill="#9a32cd" stroke="#9a32cd" points="430.376,-225.997 420.304,-229.284 430.227,-232.996 430.376,-225.997"/>
<text text-anchor="middle" x="508" y="-236.12" font-family="Helvetica,sans-Serif" font-size="10.00"> elements</text>
</g>
<!-- Node16&#45;&gt;Node10 -->
<g id="edge19" class="edge"><title>Node16&#45;&gt;Node10</title>
<path fill="none" stroke="#9a32cd" stroke-dasharray="5,2" d="M720.879,-333.807C749.679,-325.099 781.606,-311.397 805,-290.12 818.529,-277.816 808.763,-264.597 823,-253.12 828.534,-248.659 834.959,-245.221 841.7,-242.576"/>
<polygon fill="#9a32cd" stroke="#9a32cd" points="719.895,-330.448 711.249,-336.573 721.827,-337.177 719.895,-330.448"/>
<text text-anchor="middle" x="767" y="-333.12" font-family="Helvetica,sans-Serif" font-size="10.00"> LegendPosition</text>
</g>
<!-- Node17 -->
<g id="node16" class="node"><title>Node17</title>
<polygon fill="white" stroke="#bfbfbf" points="826,-1.62028 826,-20.6203 978,-20.6203 978,-1.62028 826,-1.62028"/>
<text text-anchor="middle" x="902" y="-8.62028" font-family="Helvetica,sans-Serif" font-size="10.00">std::unique_ptr&lt; TLegend &gt;</text>
</g>
<!-- Node17&#45;&gt;Node2 -->
<g id="edge21" class="edge"><title>Node17&#45;&gt;Node2</title>
<path fill="none" stroke="#9a32cd" stroke-dasharray="5,2" d="M965.175,-0.739241C999.067,1.44232 1039.91,-2.00075 1069,-24.1203 1112.74,-57.3774 1119.73,-130.994 1120.81,-157.431"/>
<polygon fill="#9a32cd" stroke="#9a32cd" points="964.581,2.72386 954.901,-1.5824 965.153,-4.25269 964.581,2.72386"/>
<text text-anchor="middle" x="1034" y="-27.1203" font-family="Helvetica,sans-Serif" font-size="10.00"> intellilegend</text>
</g>
<!-- Node18&#45;&gt;Node2 -->
<g id="edge22" class="edge"><title>Node18&#45;&gt;Node2</title>
<path fill="none" stroke="#9a32cd" stroke-dasharray="5,2" d="M579.232,-43.6077C711.142,-34.6166 989.785,-22.4939 1069,-73.1203 1099.96,-92.9057 1114.06,-137.905 1118.92,-157.596"/>
<polygon fill="#9a32cd" stroke="#9a32cd" points="578.961,-40.1181 569.228,-44.3029 579.446,-47.1012 578.961,-40.1181"/>
<text text-anchor="middle" x="767" y="-40.1203" font-family="Helvetica,sans-Serif" font-size="10.00"> cutnames</text>
</g>
</g>
</svg>
