<?xml version="1.0" encoding="UTF-8" standalone="no"?>
<!DOCTYPE svg PUBLIC "-//W3C//DTD SVG 1.1//EN"
 "http://www.w3.org/Graphics/SVG/1.1/DTD/svg11.dtd">
<!-- Generated by graphviz version 2.38.0 (20140413.2041)
 -->
<!-- Title: RefHist_t Pages: 1 -->
<svg width="262pt" height="95pt"
 viewBox="0.00 0.00 261.50 95.00" xmlns="http://www.w3.org/2000/svg" xmlns:xlink="http://www.w3.org/1999/xlink">
<g id="graph0" class="graph" transform="scale(1 1) rotate(0) translate(4 91)">
<title>RefHist_t</title>
<polygon fill="white" stroke="none" points="-4,4 -4,-91 257.5,-91 257.5,4 -4,4"/>
<!-- Node0 -->
<g id="node1" class="node"><title>Node0</title>
<polygon fill="#bfbfbf" stroke="black" points="83,-0.5 83,-19.5 142,-19.5 142,-0.5 83,-0.5"/>
<text text-anchor="middle" x="112.5" y="-7.5" font-family="Helvetica,sans-Serif" font-size="10.00">RefHist_t</text>
</g>
<!-- Node1 -->
<g id="node2" class="node"><title>Node1</title>
<g id="a_node2"><a xlink:href="struct_common_hist__t.html" target="_top" xlink:title="CommonHist_t">
<polygon fill="white" stroke="black" points="0,-62 0,-81 89,-81 89,-62 0,-62"/>
<text text-anchor="middle" x="44.5" y="-69" font-family="Helvetica,sans-Serif" font-size="10.00">CommonHist_t</text>
</a>
</g>
</g>
<!-- Node1&#45;&gt;Node0 -->
<g id="edge1" class="edge"><title>Node1&#45;&gt;Node0</title>
<path fill="none" stroke="midnightblue" d="M62.0433,-55.1496C75.0076,-43.8058 92.1788,-28.7811 102.775,-19.5091"/>
<polygon fill="midnightblue" stroke="midnightblue" points="59.4638,-52.756 54.2427,-61.9751 64.0733,-58.024 59.4638,-52.756"/>
</g>
<!-- Node2 -->
<g id="node3" class="node"><title>Node2</title>
<g id="a_node3"><a xlink:href="struct_hist__t.html" target="_top" xlink:title="Hist_t\&lt; physics::EtapDalitz\l::RefTree_t \&gt;">
<polygon fill="white" stroke="black" points="107.5,-56.5 107.5,-86.5 253.5,-86.5 253.5,-56.5 107.5,-56.5"/>
<text text-anchor="start" x="115.5" y="-74.5" font-family="Helvetica,sans-Serif" font-size="10.00">Hist_t&lt; physics::EtapDalitz</text>
<text text-anchor="middle" x="180.5" y="-63.5" font-family="Helvetica,sans-Serif" font-size="10.00">::RefTree_t &gt;</text>
</a>
</g>
</g>
<!-- Node2&#45;&gt;Node0 -->
<g id="edge2" class="edge"><title>Node2&#45;&gt;Node0</title>
<path fill="none" stroke="midnightblue" d="M156.611,-49.5972C144.86,-39.3153 131.337,-27.4824 122.395,-19.6578"/>
<polygon fill="midnightblue" stroke="midnightblue" points="154.554,-52.4483 164.385,-56.3993 159.164,-47.1802 154.554,-52.4483"/>
</g>
</g>
</svg>
