<?xml version="1.0" encoding="UTF-8" standalone="no"?>
<!DOCTYPE svg PUBLIC "-//W3C//DTD SVG 1.1//EN"
 "http://www.w3.org/Graphics/SVG/1.1/DTD/svg11.dtd">
<!-- Generated by graphviz version 2.38.0 (20140413.2041)
 -->
<!-- Title: q2Hist_var_t&lt; Tree_t &gt; Pages: 1 -->
<svg width="300pt" height="241pt"
 viewBox="0.00 0.00 299.50 241.00" xmlns="http://www.w3.org/2000/svg" xmlns:xlink="http://www.w3.org/1999/xlink">
<g id="graph0" class="graph" transform="scale(1 1) rotate(0) translate(4 237)">
<title>q2Hist_var_t&lt; Tree_t &gt;</title>
<polygon fill="white" stroke="none" points="-4,4 -4,-237 295.5,-237 295.5,4 -4,4"/>
<!-- Node1 -->
<g id="node1" class="node"><title>Node1</title>
<polygon fill="#bfbfbf" stroke="black" points="122,-0.5 122,-19.5 250,-19.5 250,-0.5 122,-0.5"/>
<text text-anchor="middle" x="186" y="-7.5" font-family="Helvetica,sans-Serif" font-size="10.00">q2Hist_var_t&lt; Tree_t &gt;</text>
</g>
<!-- Node2 -->
<g id="node2" class="node"><title>Node2</title>
<g id="a_node2"><a xlink:href="structq2_hist__var__t_1_1q2_hist_mgr.html" target="_top" xlink:title="q2Hist_var_t\&lt; Tree\l_t \&gt;::q2HistMgr\&lt; TH1D \&gt;">
<polygon fill="white" stroke="black" points="0,-67.5 0,-97.5 140,-97.5 140,-67.5 0,-67.5"/>
<text text-anchor="start" x="8" y="-85.5" font-family="Helvetica,sans-Serif" font-size="10.00">q2Hist_var_t&lt; Tree</text>
<text text-anchor="middle" x="70" y="-74.5" font-family="Helvetica,sans-Serif" font-size="10.00">_t &gt;::q2HistMgr&lt; TH1D &gt;</text>
</a>
</g>
</g>
<!-- Node2&#45;&gt;Node1 -->
<g id="edge1" class="edge"><title>Node2&#45;&gt;Node1</title>
<path fill="none" stroke="#9a32cd" stroke-dasharray="5,2" d="M101.925,-62.0973C124.873,-48.1507 154.697,-30.0245 171.959,-19.5336"/>
<polygon fill="#9a32cd" stroke="#9a32cd" points="99.9233,-59.2181 93.1955,-67.4027 103.559,-65.2 99.9233,-59.2181"/>
<text text-anchor="middle" x="160.5" y="-41" font-family="Helvetica,sans-Serif" font-size="10.00"> q2_hists</text>
</g>
<!-- Node3 -->
<g id="node3" class="node"><title>Node3</title>
<g id="a_node3"><a xlink:title="STL class. ">
<polygon fill="white" stroke="#bfbfbf" points="19,-135.5 19,-165.5 121,-165.5 121,-135.5 19,-135.5"/>
<text text-anchor="start" x="27" y="-153.5" font-family="Helvetica,sans-Serif" font-size="10.00">std::list&lt; HistFiller</text>
<text text-anchor="middle" x="70" y="-142.5" font-family="Helvetica,sans-Serif" font-size="10.00">_t&lt; TH1D &gt; &gt;</text>
</a>
</g>
</g>
<!-- Node3&#45;&gt;Node2 -->
<g id="edge2" class="edge"><title>Node3&#45;&gt;Node2</title>
<path fill="none" stroke="midnightblue" d="M70,-125.032C70,-115.861 70,-105.745 70,-97.7931"/>
<polygon fill="midnightblue" stroke="midnightblue" points="66.5001,-125.179 70,-135.179 73.5001,-125.179 66.5001,-125.179"/>
</g>
<!-- Node4 -->
<g id="node4" class="node"><title>Node4</title>
<polygon fill="white" stroke="#bfbfbf" points="55.5,-213.5 55.5,-232.5 84.5,-232.5 84.5,-213.5 55.5,-213.5"/>
<text text-anchor="middle" x="70" y="-220.5" font-family="Helvetica,sans-Serif" font-size="10.00">T</text>
</g>
<!-- Node4&#45;&gt;Node3 -->
<g id="edge3" class="edge"><title>Node4&#45;&gt;Node3</title>
<path fill="none" stroke="#9a32cd" stroke-dasharray="5,2" d="M70,-203.236C70,-191.408 70,-176.383 70,-165.576"/>
<polygon fill="#9a32cd" stroke="#9a32cd" points="66.5001,-203.355 70,-213.355 73.5001,-203.355 66.5001,-203.355"/>
<text text-anchor="middle" x="94.5" y="-187" font-family="Helvetica,sans-Serif" font-size="10.00"> elements</text>
</g>
<!-- Node5 -->
<g id="node5" class="node"><title>Node5</title>
<g id="a_node5"><a xlink:href="classant_1_1analysis_1_1_histogram_factory.html" target="_top" xlink:title="ant::analysis::Histogram\lFactory">
<polygon fill="white" stroke="black" points="158.5,-67.5 158.5,-97.5 291.5,-97.5 291.5,-67.5 158.5,-67.5"/>
<text text-anchor="start" x="166.5" y="-85.5" font-family="Helvetica,sans-Serif" font-size="10.00">ant::analysis::Histogram</text>
<text text-anchor="middle" x="225" y="-74.5" font-family="Helvetica,sans-Serif" font-size="10.00">Factory</text>
</a>
</g>
</g>
<!-- Node5&#45;&gt;Node1 -->
<g id="edge4" class="edge"><title>Node5&#45;&gt;Node1</title>
<path fill="none" stroke="#9a32cd" stroke-dasharray="5,2" d="M212.135,-58.2443C204.875,-45.1198 196.221,-29.4765 190.92,-19.8932"/>
<polygon fill="#9a32cd" stroke="#9a32cd" points="209.204,-60.1772 217.108,-67.2333 215.33,-56.7887 209.204,-60.1772"/>
<text text-anchor="middle" x="222" y="-41" font-family="Helvetica,sans-Serif" font-size="10.00"> q2_hf</text>
</g>
</g>
</svg>
