<?xml version="1.0" encoding="UTF-8" standalone="no"?>
<!DOCTYPE svg PUBLIC "-//W3C//DTD SVG 1.1//EN"
 "http://www.w3.org/Graphics/SVG/1.1/DTD/svg11.dtd">
<!-- Generated by graphviz version 2.38.0 (20140413.2041)
 -->
<!-- Title: q2_bin_cut_t Pages: 1 -->
<svg width="230pt" height="232pt"
 viewBox="0.00 0.00 230.00 232.00" xmlns="http://www.w3.org/2000/svg" xmlns:xlink="http://www.w3.org/1999/xlink">
<g id="graph0" class="graph" transform="scale(1 1) rotate(0) translate(4 228)">
<title>q2_bin_cut_t</title>
<polygon fill="white" stroke="none" points="-4,4 -4,-228 226,-228 226,4 -4,4"/>
<!-- Node1 -->
<g id="node1" class="node"><title>Node1</title>
<polygon fill="#bfbfbf" stroke="black" points="37,-0.5 37,-19.5 114,-19.5 114,-0.5 37,-0.5"/>
<text text-anchor="middle" x="75.5" y="-7.5" font-family="Helvetica,sans-Serif" font-size="10.00">q2_bin_cut_t</text>
</g>
<!-- Node2 -->
<g id="node2" class="node"><title>Node2</title>
<polygon fill="white" stroke="#bfbfbf" points="105,-68.5 105,-87.5 222,-87.5 222,-68.5 105,-68.5"/>
<text text-anchor="middle" x="163.5" y="-75.5" font-family="Helvetica,sans-Serif" font-size="10.00">std::vector&lt; string &gt;</text>
</g>
<!-- Node2&#45;&gt;Node1 -->
<g id="edge1" class="edge"><title>Node2&#45;&gt;Node1</title>
<path fill="none" stroke="#9a32cd" stroke-dasharray="5,2" d="M143.628,-62.0961C126.168,-49.0012 101.37,-30.4028 87.0073,-19.6305"/>
<polygon fill="#9a32cd" stroke="#9a32cd" points="141.896,-65.1716 151.996,-68.3717 146.096,-59.5716 141.896,-65.1716"/>
<text text-anchor="middle" x="136.5" y="-41" font-family="Helvetica,sans-Serif" font-size="10.00"> cuts</text>
</g>
<!-- Node3 -->
<g id="node3" class="node"><title>Node3</title>
<g id="a_node3"><a xlink:title="STL class. ">
<polygon fill="white" stroke="#bfbfbf" points="19,-136.5 19,-155.5 84,-155.5 84,-136.5 19,-136.5"/>
<text text-anchor="middle" x="51.5" y="-143.5" font-family="Helvetica,sans-Serif" font-size="10.00">std::string</text>
</a>
</g>
</g>
<!-- Node3&#45;&gt;Node1 -->
<g id="edge4" class="edge"><title>Node3&#45;&gt;Node1</title>
<path fill="none" stroke="#9a32cd" stroke-dasharray="5,2" d="M46.6936,-126.014C43.4403,-110.04 40.5515,-86.7164 45.5,-67 50.0644,-48.814 61.7961,-30.0865 69.1632,-19.5563"/>
<polygon fill="#9a32cd" stroke="#9a32cd" points="43.3792,-127.221 49.0201,-136.189 50.2031,-125.661 43.3792,-127.221"/>
<text text-anchor="middle" x="71" y="-81" font-family="Helvetica,sans-Serif" font-size="10.00"> cut_string</text>
<text text-anchor="middle" x="71" y="-70" font-family="Helvetica,sans-Serif" font-size="10.00">q2_bin</text>
</g>
<!-- Node3&#45;&gt;Node2 -->
<g id="edge2" class="edge"><title>Node3&#45;&gt;Node2</title>
<path fill="none" stroke="#9a32cd" stroke-dasharray="5,2" d="M74.9783,-131.165C97.2658,-118.031 130.071,-98.6993 148.854,-87.6305"/>
<polygon fill="#9a32cd" stroke="#9a32cd" points="72.9805,-128.279 66.142,-136.372 76.5344,-134.31 72.9805,-128.279"/>
<text text-anchor="middle" x="138" y="-110" font-family="Helvetica,sans-Serif" font-size="10.00"> elements</text>
</g>
<!-- Node4 -->
<g id="node4" class="node"><title>Node4</title>
<g id="a_node4"><a xlink:title="STL class. ">
<polygon fill="white" stroke="#bfbfbf" points="0,-193.5 0,-223.5 103,-223.5 103,-193.5 0,-193.5"/>
<text text-anchor="start" x="8" y="-211.5" font-family="Helvetica,sans-Serif" font-size="10.00">std::basic_string&lt;</text>
<text text-anchor="middle" x="51.5" y="-200.5" font-family="Helvetica,sans-Serif" font-size="10.00"> char &gt;</text>
</a>
</g>
</g>
<!-- Node4&#45;&gt;Node3 -->
<g id="edge3" class="edge"><title>Node4&#45;&gt;Node3</title>
<path fill="none" stroke="midnightblue" d="M51.5,-183.352C51.5,-173.513 51.5,-162.775 51.5,-155.54"/>
<polygon fill="midnightblue" stroke="midnightblue" points="48.0001,-183.468 51.5,-193.468 55.0001,-183.468 48.0001,-183.468"/>
</g>
</g>
</svg>
