<?xml version="1.0" encoding="UTF-8" standalone="no"?>
<!DOCTYPE svg PUBLIC "-//W3C//DTD SVG 1.1//EN"
 "http://www.w3.org/Graphics/SVG/1.1/DTD/svg11.dtd">
<!-- Generated by graphviz version 2.38.0 (20140413.2041)
 -->
<!-- Title: ant::analysis::physics::Pi0EtaLostG::lostCounter Pages: 1 -->
<svg width="150pt" height="174pt"
 viewBox="0.00 0.00 150.00 174.00" xmlns="http://www.w3.org/2000/svg" xmlns:xlink="http://www.w3.org/1999/xlink">
<g id="graph0" class="graph" transform="scale(1 1) rotate(0) translate(4 170)">
<title>ant::analysis::physics::Pi0EtaLostG::lostCounter</title>
<polygon fill="white" stroke="none" points="-4,4 -4,-170 146,-170 146,4 -4,4"/>
<!-- Node1 -->
<g id="node1" class="node"><title>Node1</title>
<polygon fill="#bfbfbf" stroke="black" points="0,-0.5 0,-30.5 142,-30.5 142,-0.5 0,-0.5"/>
<text text-anchor="start" x="8" y="-18.5" font-family="Helvetica,sans-Serif" font-size="10.00">ant::analysis::physics</text>
<text text-anchor="middle" x="71" y="-7.5" font-family="Helvetica,sans-Serif" font-size="10.00">::Pi0EtaLostG::lostCounter</text>
</g>
<!-- Node2 -->
<g id="node2" class="node"><title>Node2</title>
<g id="a_node2"><a xlink:title="STL class. ">
<polygon fill="white" stroke="#bfbfbf" points="38.5,-78.5 38.5,-97.5 103.5,-97.5 103.5,-78.5 38.5,-78.5"/>
<text text-anchor="middle" x="71" y="-85.5" font-family="Helvetica,sans-Serif" font-size="10.00">std::string</text>
</a>
</g>
</g>
<!-- Node2&#45;&gt;Node1 -->
<g id="edge1" class="edge"><title>Node2&#45;&gt;Node1</title>
<path fill="none" stroke="#9a32cd" stroke-dasharray="5,2" d="M71,-68.2362C71,-56.4079 71,-41.3829 71,-30.5762"/>
<polygon fill="#9a32cd" stroke="#9a32cd" points="67.5001,-68.3553 71,-78.3553 74.5001,-68.3554 67.5001,-68.3553"/>
<text text-anchor="middle" x="86" y="-52" font-family="Helvetica,sans-Serif" font-size="10.00"> prefix</text>
</g>
<!-- Node3 -->
<g id="node3" class="node"><title>Node3</title>
<g id="a_node3"><a xlink:title="STL class. ">
<polygon fill="white" stroke="#bfbfbf" points="19.5,-135.5 19.5,-165.5 122.5,-165.5 122.5,-135.5 19.5,-135.5"/>
<text text-anchor="start" x="27.5" y="-153.5" font-family="Helvetica,sans-Serif" font-size="10.00">std::basic_string&lt;</text>
<text text-anchor="middle" x="71" y="-142.5" font-family="Helvetica,sans-Serif" font-size="10.00"> char &gt;</text>
</a>
</g>
</g>
<!-- Node3&#45;&gt;Node2 -->
<g id="edge2" class="edge"><title>Node3&#45;&gt;Node2</title>
<path fill="none" stroke="midnightblue" d="M71,-125.352C71,-115.513 71,-104.775 71,-97.5399"/>
<polygon fill="midnightblue" stroke="midnightblue" points="67.5001,-125.468 71,-135.468 74.5001,-125.468 67.5001,-125.468"/>
</g>
</g>
</svg>
