<?xml version="1.0" encoding="UTF-8" standalone="no"?>
<!DOCTYPE svg PUBLIC "-//W3C//DTD SVG 1.1//EN"
 "http://www.w3.org/Graphics/SVG/1.1/DTD/svg11.dtd">
<!-- Generated by graphviz version 2.38.0 (20140413.2041)
 -->
<!-- Title: ant::analysis::physics::tools::protonSelection_t Pages: 1 -->
<svg width="614pt" height="201pt"
 viewBox="0.00 0.00 614.00 200.50" xmlns="http://www.w3.org/2000/svg" xmlns:xlink="http://www.w3.org/1999/xlink">
<g id="graph0" class="graph" transform="scale(1 1) rotate(0) translate(4 196.5)">
<title>ant::analysis::physics::tools::protonSelection_t</title>
<polygon fill="white" stroke="none" points="-4,4 -4,-196.5 610,-196.5 610,4 -4,4"/>
<!-- Node1 -->
<g id="node1" class="node"><title>Node1</title>
<polygon fill="#bfbfbf" stroke="black" points="469,-85 469,-115 606,-115 606,-85 469,-85"/>
<text text-anchor="start" x="477" y="-103" font-family="Helvetica,sans-Serif" font-size="10.00">ant::analysis::physics</text>
<text text-anchor="middle" x="537.5" y="-92" font-family="Helvetica,sans-Serif" font-size="10.00">::tools::protonSelection_t</text>
</g>
<!-- Node2 -->
<g id="node2" class="node"><title>Node2</title>
<polygon fill="white" stroke="#bfbfbf" points="213,-134.5 213,-153.5 370,-153.5 370,-134.5 213,-134.5"/>
<text text-anchor="middle" x="291.5" y="-141.5" font-family="Helvetica,sans-Serif" font-size="10.00">std::vector&lt; TCandidatePtr &gt;</text>
</g>
<!-- Node2&#45;&gt;Node1 -->
<g id="edge1" class="edge"><title>Node2&#45;&gt;Node1</title>
<path fill="none" stroke="#9a32cd" stroke-dasharray="5,2" d="M355.468,-132.645C390.197,-126.382 433.336,-118.603 468.791,-112.21"/>
<polygon fill="#9a32cd" stroke="#9a32cd" points="354.664,-129.233 345.444,-134.453 355.907,-136.122 354.664,-129.233"/>
<text text-anchor="middle" x="419.5" y="-129" font-family="Helvetica,sans-Serif" font-size="10.00"> CandsG</text>
</g>
<!-- Node3 -->
<g id="node3" class="node"><title>Node3</title>
<g id="a_node3"><a xlink:href="structant_1_1std__ext_1_1cc__shared__ptr.html" target="_top" xlink:title="ant::std_ext::cc_shared\l_ptr\&lt; TCandidate \&gt;">
<polygon fill="white" stroke="black" points="0,-162 0,-192 128,-192 128,-162 0,-162"/>
<text text-anchor="start" x="8" y="-180" font-family="Helvetica,sans-Serif" font-size="10.00">ant::std_ext::cc_shared</text>
<text text-anchor="middle" x="64" y="-169" font-family="Helvetica,sans-Serif" font-size="10.00">_ptr&lt; TCandidate &gt;</text>
</a>
</g>
</g>
<!-- Node3&#45;&gt;Node1 -->
<g id="edge4" class="edge"><title>Node3&#45;&gt;Node1</title>
<path fill="none" stroke="#9a32cd" stroke-dasharray="5,2" d="M138.452,-181.301C218.023,-183.444 347.465,-179.519 451,-141 470.595,-133.71 491.79,-123.563 508.176,-115.187"/>
<polygon fill="#9a32cd" stroke="#9a32cd" points="138.146,-177.79 128.043,-180.978 137.929,-184.786 138.146,-177.79"/>
<text text-anchor="middle" x="291.5" y="-183" font-family="Helvetica,sans-Serif" font-size="10.00"> CandP</text>
</g>
<!-- Node3&#45;&gt;Node2 -->
<g id="edge2" class="edge"><title>Node3&#45;&gt;Node2</title>
<path fill="none" stroke="#9a32cd" stroke-dasharray="5,2" d="M138.317,-166.129C140.91,-165.747 143.477,-165.37 146,-165 171.709,-161.228 199.996,-157.109 224.675,-153.527"/>
<polygon fill="#9a32cd" stroke="#9a32cd" points="137.613,-162.695 128.23,-167.615 138.633,-169.62 137.613,-162.695"/>
<text text-anchor="middle" x="170.5" y="-168" font-family="Helvetica,sans-Serif" font-size="10.00"> elements</text>
</g>
<!-- Node4 -->
<g id="node4" class="node"><title>Node4</title>
<g id="a_node4"><a xlink:href="structant_1_1std__ext_1_1cc__shared__ptr.html" target="_top" xlink:title="ant::std_ext::cc_shared\l_ptr\&lt; TParticle \&gt;">
<polygon fill="white" stroke="black" points="227.5,-85 227.5,-115 355.5,-115 355.5,-85 227.5,-85"/>
<text text-anchor="start" x="235.5" y="-103" font-family="Helvetica,sans-Serif" font-size="10.00">ant::std_ext::cc_shared</text>
<text text-anchor="middle" x="291.5" y="-92" font-family="Helvetica,sans-Serif" font-size="10.00">_ptr&lt; TParticle &gt;</text>
</a>
</g>
</g>
<!-- Node4&#45;&gt;Node1 -->
<g id="edge3" class="edge"><title>Node4&#45;&gt;Node1</title>
<path fill="none" stroke="#9a32cd" stroke-dasharray="5,2" d="M366.054,-100C398.735,-100 436.953,-100 468.908,-100"/>
<polygon fill="#9a32cd" stroke="#9a32cd" points="365.653,-96.5001 355.653,-100 365.653,-103.5 365.653,-96.5001"/>
<text text-anchor="middle" x="419.5" y="-103" font-family="Helvetica,sans-Serif" font-size="10.00"> Proton</text>
</g>
<!-- Node5 -->
<g id="node5" class="node"><title>Node5</title>
<polygon fill="white" stroke="#bfbfbf" points="220,-46.5 220,-65.5 363,-65.5 363,-46.5 220,-46.5"/>
<text text-anchor="middle" x="291.5" y="-53.5" font-family="Helvetica,sans-Serif" font-size="10.00">std::vector&lt; TParticlePtr &gt;</text>
</g>
<!-- Node5&#45;&gt;Node1 -->
<g id="edge5" class="edge"><title>Node5&#45;&gt;Node1</title>
<path fill="none" stroke="#9a32cd" stroke-dasharray="5,2" d="M355.468,-67.3548C390.197,-73.6176 433.336,-81.3967 468.791,-87.7901"/>
<polygon fill="#9a32cd" stroke="#9a32cd" points="355.907,-63.8776 345.444,-65.5473 354.664,-70.7665 355.907,-63.8776"/>
<text text-anchor="middle" x="419.5" y="-88" font-family="Helvetica,sans-Serif" font-size="10.00"> Photons</text>
</g>
<!-- Node6 -->
<g id="node6" class="node"><title>Node6</title>
<g id="a_node6"><a xlink:href="structant_1_1std__ext_1_1cc__shared__ptr.html" target="_top" xlink:title="ant::std_ext::cc_shared\l_ptr\&lt; T \&gt;">
<polygon fill="white" stroke="black" points="0,-41 0,-71 128,-71 128,-41 0,-41"/>
<text text-anchor="start" x="8" y="-59" font-family="Helvetica,sans-Serif" font-size="10.00">ant::std_ext::cc_shared</text>
<text text-anchor="middle" x="64" y="-48" font-family="Helvetica,sans-Serif" font-size="10.00">_ptr&lt; T &gt;</text>
</a>
</g>
</g>
<!-- Node6&#45;&gt;Node5 -->
<g id="edge6" class="edge"><title>Node6&#45;&gt;Node5</title>
<path fill="none" stroke="#9a32cd" stroke-dasharray="5,2" d="M138.348,-56C164.517,-56 193.925,-56 219.861,-56"/>
<polygon fill="#9a32cd" stroke="#9a32cd" points="138.114,-52.5001 128.114,-56 138.114,-59.5001 138.114,-52.5001"/>
<text text-anchor="middle" x="170.5" y="-59" font-family="Helvetica,sans-Serif" font-size="10.00"> elements</text>
</g>
<!-- Node7 -->
<g id="node7" class="node"><title>Node7</title>
<g id="a_node7"><a xlink:href="structant_1_1_lorentz_vec.html" target="_top" xlink:title="A Lorentz vector (x,y,z,E), diag(&#45;1,&#45;1,&#45;1, 1) ">
<polygon fill="white" stroke="black" points="245.5,-0.5 245.5,-19.5 337.5,-19.5 337.5,-0.5 245.5,-0.5"/>
<text text-anchor="middle" x="291.5" y="-7.5" font-family="Helvetica,sans-Serif" font-size="10.00">ant::LorentzVec</text>
</a>
</g>
</g>
<!-- Node7&#45;&gt;Node1 -->
<g id="edge7" class="edge"><title>Node7&#45;&gt;Node1</title>
<path fill="none" stroke="#9a32cd" stroke-dasharray="5,2" d="M348.028,-13.6354C379.263,-17.1794 418.411,-24.1783 451,-38 477.84,-49.3833 504.322,-70.5434 520.537,-84.9444"/>
<polygon fill="#9a32cd" stroke="#9a32cd" points="348.069,-10.1207 337.759,-12.5611 347.341,-17.0827 348.069,-10.1207"/>
<text text-anchor="middle" x="419.5" y="-63" font-family="Helvetica,sans-Serif" font-size="10.00"> Proton_MM</text>
<text text-anchor="middle" x="419.5" y="-52" font-family="Helvetica,sans-Serif" font-size="10.00">PhotonBeam</text>
<text text-anchor="middle" x="419.5" y="-41" font-family="Helvetica,sans-Serif" font-size="10.00">PhotonSum</text>
</g>
<!-- Node8 -->
<g id="node8" class="node"><title>Node8</title>
<g id="a_node8"><a xlink:href="structant_1_1vec3.html" target="_top" xlink:title="ant::vec3">
<polygon fill="white" stroke="black" points="33.5,-0.5 33.5,-19.5 94.5,-19.5 94.5,-0.5 33.5,-0.5"/>
<text text-anchor="middle" x="64" y="-7.5" font-family="Helvetica,sans-Serif" font-size="10.00">ant::vec3</text>
</a>
</g>
</g>
<!-- Node8&#45;&gt;Node7 -->
<g id="edge8" class="edge"><title>Node8&#45;&gt;Node7</title>
<path fill="none" stroke="#9a32cd" stroke-dasharray="5,2" d="M104.959,-10C144.261,-10 204.172,-10 245.217,-10"/>
<polygon fill="#9a32cd" stroke="#9a32cd" points="104.945,-6.5001 94.9447,-10 104.945,-13.5001 104.945,-6.5001"/>
<text text-anchor="middle" x="170.5" y="-13" font-family="Helvetica,sans-Serif" font-size="10.00"> p</text>
</g>
</g>
</svg>
