<?xml version="1.0" encoding="UTF-8" standalone="no"?>
<!DOCTYPE svg PUBLIC "-//W3C//DTD SVG 1.1//EN"
 "http://www.w3.org/Graphics/SVG/1.1/DTD/svg11.dtd">
<!-- Generated by graphviz version 2.38.0 (20140413.2041)
 -->
<!-- Title: ant::expconfig::detector::Tagger Pages: 1 -->
<svg width="770pt" height="158pt"
 viewBox="0.00 0.00 770.00 157.50" xmlns="http://www.w3.org/2000/svg" xmlns:xlink="http://www.w3.org/1999/xlink">
<g id="graph0" class="graph" transform="scale(1 1) rotate(0) translate(4 153.5)">
<title>ant::expconfig::detector::Tagger</title>
<polygon fill="white" stroke="none" points="-4,4 -4,-153.5 766,-153.5 766,4 -4,4"/>
<!-- Node14 -->
<g id="node1" class="node"><title>Node14</title>
<polygon fill="#bfbfbf" stroke="black" points="631,-70.5 631,-100.5 762,-100.5 762,-70.5 631,-70.5"/>
<text text-anchor="start" x="639" y="-88.5" font-family="Helvetica,sans-Serif" font-size="10.00">ant::expconfig::detector</text>
<text text-anchor="middle" x="696.5" y="-77.5" font-family="Helvetica,sans-Serif" font-size="10.00">::Tagger</text>
</g>
<!-- Node15 -->
<g id="node2" class="node"><title>Node15</title>
<g id="a_node2"><a xlink:href="structant_1_1_tagger_detector__t.html" target="_top" xlink:title="ant::TaggerDetector_t">
<polygon fill="white" stroke="black" points="388,-130 388,-149 509,-149 509,-130 388,-130"/>
<text text-anchor="middle" x="448.5" y="-137" font-family="Helvetica,sans-Serif" font-size="10.00">ant::TaggerDetector_t</text>
</a>
</g>
</g>
<!-- Node15&#45;&gt;Node14 -->
<g id="edge1" class="edge"><title>Node15&#45;&gt;Node14</title>
<path fill="none" stroke="midnightblue" d="M513.109,-128.081C543.454,-122.371 580.21,-115.072 613,-107.5 622.099,-105.399 631.716,-102.999 641.045,-100.576"/>
<polygon fill="midnightblue" stroke="midnightblue" points="512.266,-124.678 503.079,-129.955 513.551,-131.559 512.266,-124.678"/>
</g>
<!-- Node16 -->
<g id="node3" class="node"><title>Node16</title>
<g id="a_node3"><a xlink:href="structant_1_1_detector__t.html" target="_top" xlink:title="The Detector_t struct is the minimal base class for all detectors. ">
<polygon fill="white" stroke="black" points="170,-130 170,-149 259,-149 259,-130 170,-130"/>
<text text-anchor="middle" x="214.5" y="-137" font-family="Helvetica,sans-Serif" font-size="10.00">ant::Detector_t</text>
</a>
</g>
</g>
<!-- Node16&#45;&gt;Node15 -->
<g id="edge2" class="edge"><title>Node16&#45;&gt;Node15</title>
<path fill="none" stroke="midnightblue" d="M269.3,-139.5C304.771,-139.5 351.26,-139.5 387.86,-139.5"/>
<polygon fill="midnightblue" stroke="midnightblue" points="269.137,-136 259.137,-139.5 269.137,-143 269.137,-136"/>
</g>
<!-- Node17 -->
<g id="node4" class="node"><title>Node17</title>
<g id="a_node4"><a xlink:href="classant_1_1_unpacker_acqu_config.html" target="_top" xlink:title="ant::UnpackerAcquConfig">
<polygon fill="white" stroke="black" points="379.5,-92 379.5,-111 517.5,-111 517.5,-92 379.5,-92"/>
<text text-anchor="middle" x="448.5" y="-99" font-family="Helvetica,sans-Serif" font-size="10.00">ant::UnpackerAcquConfig</text>
</a>
</g>
</g>
<!-- Node17&#45;&gt;Node14 -->
<g id="edge3" class="edge"><title>Node17&#45;&gt;Node14</title>
<path fill="none" stroke="midnightblue" d="M527.844,-96.4045C561.099,-94.2416 599.393,-91.7509 630.98,-89.6964"/>
<polygon fill="midnightblue" stroke="midnightblue" points="527.45,-92.9226 517.698,-97.0644 527.904,-99.9078 527.45,-92.9226"/>
</g>
<!-- Node18 -->
<g id="node5" class="node"><title>Node18</title>
<g id="a_node5"><a xlink:title="STL class. ">
<polygon fill="white" stroke="#bfbfbf" points="416,-54 416,-73 481,-73 481,-54 416,-54"/>
<text text-anchor="middle" x="448.5" y="-61" font-family="Helvetica,sans-Serif" font-size="10.00">std::string</text>
</a>
</g>
</g>
<!-- Node18&#45;&gt;Node14 -->
<g id="edge4" class="edge"><title>Node18&#45;&gt;Node14</title>
<path fill="none" stroke="#9a32cd" stroke-dasharray="5,2" d="M491.378,-66.4901C524.427,-68.9318 571.687,-72.605 613,-76.5 618.738,-77.041 624.697,-77.6326 630.667,-78.2459"/>
<polygon fill="#9a32cd" stroke="#9a32cd" points="491.402,-62.9826 481.173,-65.7419 490.89,-69.9639 491.402,-62.9826"/>
<text text-anchor="middle" x="581.5" y="-79.5" font-family="Helvetica,sans-Serif" font-size="10.00"> ScalerName</text>
</g>
<!-- Node19 -->
<g id="node6" class="node"><title>Node19</title>
<g id="a_node6"><a xlink:title="STL class. ">
<polygon fill="white" stroke="#bfbfbf" points="163,-49.5 163,-79.5 266,-79.5 266,-49.5 163,-49.5"/>
<text text-anchor="start" x="171" y="-67.5" font-family="Helvetica,sans-Serif" font-size="10.00">std::basic_string&lt;</text>
<text text-anchor="middle" x="214.5" y="-56.5" font-family="Helvetica,sans-Serif" font-size="10.00"> char &gt;</text>
</a>
</g>
</g>
<!-- Node19&#45;&gt;Node18 -->
<g id="edge5" class="edge"><title>Node19&#45;&gt;Node18</title>
<path fill="none" stroke="midnightblue" d="M276.308,-64.2379C321.066,-64.045 380.117,-63.7904 415.873,-63.6363"/>
<polygon fill="midnightblue" stroke="midnightblue" points="276.111,-60.7386 266.127,-64.2818 276.142,-67.7385 276.111,-60.7386"/>
</g>
<!-- Node20 -->
<g id="node7" class="node"><title>Node20</title>
<polygon fill="white" stroke="#bfbfbf" points="365,-3.5 365,-33.5 532,-33.5 532,-3.5 365,-3.5"/>
<text text-anchor="start" x="373" y="-21.5" font-family="Helvetica,sans-Serif" font-size="10.00">std::vector&lt; ant::expconfig</text>
<text text-anchor="middle" x="448.5" y="-10.5" font-family="Helvetica,sans-Serif" font-size="10.00">::detector::Tagger::Element_t &gt;</text>
</g>
<!-- Node20&#45;&gt;Node14 -->
<g id="edge6" class="edge"><title>Node20&#45;&gt;Node14</title>
<path fill="none" stroke="#9a32cd" stroke-dasharray="5,2" d="M531.835,-35.783C557.946,-41.7578 586.824,-48.8824 613,-56.5 626.994,-60.5725 642.094,-65.6688 655.503,-70.4483"/>
<polygon fill="#9a32cd" stroke="#9a32cd" points="532.501,-32.3453 521.975,-33.5508 530.956,-39.1725 532.501,-32.3453"/>
<text text-anchor="middle" x="581.5" y="-59.5" font-family="Helvetica,sans-Serif" font-size="10.00"> elements</text>
</g>
<!-- Node21 -->
<g id="node8" class="node"><title>Node21</title>
<g id="a_node8"><a xlink:href="structant_1_1expconfig_1_1detector_1_1_tagger_1_1_element__t.html" target="_top" xlink:title="ant::expconfig::detector\l::Tagger::Element_t">
<polygon fill="white" stroke="black" points="149,-0.5 149,-30.5 280,-30.5 280,-0.5 149,-0.5"/>
<text text-anchor="start" x="157" y="-18.5" font-family="Helvetica,sans-Serif" font-size="10.00">ant::expconfig::detector</text>
<text text-anchor="middle" x="214.5" y="-7.5" font-family="Helvetica,sans-Serif" font-size="10.00">::Tagger::Element_t</text>
</a>
</g>
</g>
<!-- Node21&#45;&gt;Node20 -->
<g id="edge7" class="edge"><title>Node21&#45;&gt;Node20</title>
<path fill="none" stroke="#9a32cd" stroke-dasharray="5,2" d="M290.172,-16.4656C314.032,-16.7741 340.575,-17.1173 364.96,-17.4327"/>
<polygon fill="#9a32cd" stroke="#9a32cd" points="290.169,-12.9654 280.125,-16.3357 290.079,-19.9648 290.169,-12.9654"/>
<text text-anchor="middle" x="322.5" y="-20.5" font-family="Helvetica,sans-Serif" font-size="10.00"> elements</text>
</g>
<!-- Node22 -->
<g id="node9" class="node"><title>Node22</title>
<g id="a_node9"><a xlink:href="structant_1_1_tagger_detector__t_1_1_element__t.html" target="_top" xlink:title="ant::TaggerDetector\l_t::Element_t">
<polygon fill="white" stroke="black" points="0,-0.5 0,-30.5 112,-30.5 112,-0.5 0,-0.5"/>
<text text-anchor="start" x="8" y="-18.5" font-family="Helvetica,sans-Serif" font-size="10.00">ant::TaggerDetector</text>
<text text-anchor="middle" x="56" y="-7.5" font-family="Helvetica,sans-Serif" font-size="10.00">_t::Element_t</text>
</a>
</g>
</g>
<!-- Node22&#45;&gt;Node21 -->
<g id="edge8" class="edge"><title>Node22&#45;&gt;Node21</title>
<path fill="none" stroke="midnightblue" d="M122.357,-15.5C131.141,-15.5 140.148,-15.5 148.918,-15.5"/>
<polygon fill="midnightblue" stroke="midnightblue" points="122.176,-12.0001 112.176,-15.5 122.176,-19.0001 122.176,-12.0001"/>
</g>
</g>
</svg>
