<?xml version="1.0" encoding="UTF-8" standalone="no"?>
<!DOCTYPE svg PUBLIC "-//W3C//DTD SVG 1.1//EN"
 "http://www.w3.org/Graphics/SVG/1.1/DTD/svg11.dtd">
<!-- Generated by graphviz version 2.38.0 (20140413.2041)
 -->
<!-- Title: EtapOmegaG_plot_Sig Pages: 1 -->
<svg width="1289pt" height="233pt"
 viewBox="0.00 0.00 1289.00 233.00" xmlns="http://www.w3.org/2000/svg" xmlns:xlink="http://www.w3.org/1999/xlink">
<g id="graph0" class="graph" transform="scale(1 1) rotate(0) translate(4 229)">
<title>EtapOmegaG_plot_Sig</title>
<polygon fill="white" stroke="none" points="-4,4 -4,-229 1285,-229 1285,4 -4,4"/>
<!-- Node3 -->
<g id="node1" class="node"><title>Node3</title>
<polygon fill="#bfbfbf" stroke="black" points="1156,-79 1156,-98 1281,-98 1281,-79 1156,-79"/>
<text text-anchor="middle" x="1218.5" y="-86" font-family="Helvetica,sans-Serif" font-size="10.00">EtapOmegaG_plot_Sig</text>
</g>
<!-- Node4 -->
<g id="node2" class="node"><title>Node4</title>
<g id="a_node2"><a xlink:href="struct_etap_omega_g__plot.html" target="_top" xlink:title="EtapOmegaG_plot">
<polygon fill="white" stroke="black" points="631,-160 631,-179 735,-179 735,-160 631,-160"/>
<text text-anchor="middle" x="683" y="-167" font-family="Helvetica,sans-Serif" font-size="10.00">EtapOmegaG_plot</text>
</a>
</g>
</g>
<!-- Node4&#45;&gt;Node3 -->
<g id="edge1" class="edge"><title>Node4&#45;&gt;Node3</title>
<path fill="none" stroke="midnightblue" d="M745.304,-172.604C834.477,-175.104 1003.94,-172.181 1138,-124.5 1159.27,-116.935 1182.71,-105.98 1198.59,-98.1451"/>
<polygon fill="midnightblue" stroke="midnightblue" points="745.202,-169.1 735.097,-172.285 744.982,-176.096 745.202,-169.1"/>
</g>
<!-- Node5 -->
<g id="node3" class="node"><title>Node5</title>
<g id="a_node3"><a xlink:href="classant_1_1analysis_1_1_plotter.html" target="_top" xlink:title="ant::analysis::Plotter">
<polygon fill="white" stroke="black" points="243.5,-200 243.5,-219 357.5,-219 357.5,-200 243.5,-200"/>
<text text-anchor="middle" x="300.5" y="-207" font-family="Helvetica,sans-Serif" font-size="10.00">ant::analysis::Plotter</text>
</a>
</g>
</g>
<!-- Node5&#45;&gt;Node4 -->
<g id="edge2" class="edge"><title>Node5&#45;&gt;Node4</title>
<path fill="none" stroke="midnightblue" d="M367.781,-205.168C427.974,-200.883 519.134,-193.515 598,-183.5 608.56,-182.159 619.825,-180.465 630.562,-178.722"/>
<polygon fill="midnightblue" stroke="midnightblue" points="367.383,-201.687 357.653,-205.881 367.874,-208.67 367.383,-201.687"/>
</g>
<!-- Node6 -->
<g id="node4" class="node"><title>Node6</title>
<g id="a_node4"><a xlink:href="classant_1_1analysis_1_1_histogram_factory.html" target="_top" xlink:title="ant::analysis::Histogram\lFactory">
<polygon fill="white" stroke="black" points="0,-194.5 0,-224.5 133,-224.5 133,-194.5 0,-194.5"/>
<text text-anchor="start" x="8" y="-212.5" font-family="Helvetica,sans-Serif" font-size="10.00">ant::analysis::Histogram</text>
<text text-anchor="middle" x="66.5" y="-201.5" font-family="Helvetica,sans-Serif" font-size="10.00">Factory</text>
</a>
</g>
</g>
<!-- Node6&#45;&gt;Node5 -->
<g id="edge3" class="edge"><title>Node6&#45;&gt;Node5</title>
<path fill="none" stroke="#9a32cd" stroke-dasharray="5,2" d="M143.418,-209.5C175.91,-209.5 213.186,-209.5 243.161,-209.5"/>
<polygon fill="#9a32cd" stroke="#9a32cd" points="143.052,-206 133.052,-209.5 143.052,-213 143.052,-206"/>
<text text-anchor="middle" x="170" y="-212.5" font-family="Helvetica,sans-Serif" font-size="10.00"> HistFac</text>
</g>
<!-- Node7 -->
<g id="node5" class="node"><title>Node7</title>
<g id="a_node5"><a xlink:href="structant_1_1analysis_1_1utils_1_1_m_c_weighting_1_1tree__t.html" target="_top" xlink:title="ant::analysis::utils\l::MCWeighting::tree_t">
<polygon fill="white" stroke="black" points="241.5,-150.5 241.5,-180.5 359.5,-180.5 359.5,-150.5 241.5,-150.5"/>
<text text-anchor="start" x="249.5" y="-168.5" font-family="Helvetica,sans-Serif" font-size="10.00">ant::analysis::utils</text>
<text text-anchor="middle" x="300.5" y="-157.5" font-family="Helvetica,sans-Serif" font-size="10.00">::MCWeighting::tree_t</text>
</a>
</g>
</g>
<!-- Node7&#45;&gt;Node4 -->
<g id="edge4" class="edge"><title>Node7&#45;&gt;Node4</title>
<path fill="none" stroke="#9a32cd" stroke-dasharray="5,2" d="M369.986,-166.22C444.975,-167.008 563.494,-168.254 630.816,-168.962"/>
<polygon fill="#9a32cd" stroke="#9a32cd" points="369.74,-162.717 359.704,-166.112 369.667,-169.717 369.74,-162.717"/>
<text text-anchor="middle" x="505" y="-171.5" font-family="Helvetica,sans-Serif" font-size="10.00"> treeMCWeighting</text>
</g>
<!-- Node8 -->
<g id="node6" class="node"><title>Node8</title>
<g id="a_node6"><a xlink:href="classant_1_1_wrap_t_tree.html" target="_top" xlink:title="The WrapTTree struct simplifies TTree handling in physics classes. ">
<polygon fill="white" stroke="black" points="23.5,-79 23.5,-98 109.5,-98 109.5,-79 23.5,-79"/>
<text text-anchor="middle" x="66.5" y="-86" font-family="Helvetica,sans-Serif" font-size="10.00">ant::WrapTTree</text>
</a>
</g>
</g>
<!-- Node8&#45;&gt;Node7 -->
<g id="edge5" class="edge"><title>Node8&#45;&gt;Node7</title>
<path fill="none" stroke="midnightblue" d="M100.299,-101.71C128.378,-112.782 170.013,-128.636 207,-140.5 217.93,-144.006 229.688,-147.438 241.033,-150.581"/>
<polygon fill="midnightblue" stroke="midnightblue" points="101.548,-98.4404 90.9616,-98.0079 98.9674,-104.947 101.548,-98.4404"/>
</g>
<!-- Node9 -->
<g id="node7" class="node"><title>Node9</title>
<g id="a_node7"><a xlink:href="structant_1_1analysis_1_1physics_1_1_etap_omega_g_1_1_tree_common.html" target="_top" xlink:title="ant::analysis::physics\l::EtapOmegaG::TreeCommon">
<polygon fill="white" stroke="black" points="222,-101.5 222,-131.5 379,-131.5 379,-101.5 222,-101.5"/>
<text text-anchor="start" x="230" y="-119.5" font-family="Helvetica,sans-Serif" font-size="10.00">ant::analysis::physics</text>
<text text-anchor="middle" x="300.5" y="-108.5" font-family="Helvetica,sans-Serif" font-size="10.00">::EtapOmegaG::TreeCommon</text>
</a>
</g>
</g>
<!-- Node8&#45;&gt;Node9 -->
<g id="edge7" class="edge"><title>Node8&#45;&gt;Node9</title>
<path fill="none" stroke="midnightblue" d="M119.776,-94.8091C149.825,-98.4357 188.145,-103.061 221.676,-107.107"/>
<polygon fill="midnightblue" stroke="midnightblue" points="119.861,-91.2941 109.513,-93.5706 119.022,-98.2437 119.861,-91.2941"/>
</g>
<!-- Node12 -->
<g id="node10" class="node"><title>Node12</title>
<g id="a_node10"><a xlink:href="structant_1_1analysis_1_1physics_1_1_etap_omega_g_1_1_proton_photon_tree__t.html" target="_top" xlink:title="ant::analysis::physics\l::EtapOmegaG::ProtonPhotonTree_t">
<polygon fill="white" stroke="black" points="207,-52.5 207,-82.5 394,-82.5 394,-52.5 207,-52.5"/>
<text text-anchor="start" x="215" y="-70.5" font-family="Helvetica,sans-Serif" font-size="10.00">ant::analysis::physics</text>
<text text-anchor="middle" x="300.5" y="-59.5" font-family="Helvetica,sans-Serif" font-size="10.00">::EtapOmegaG::ProtonPhotonTree_t</text>
</a>
</g>
</g>
<!-- Node8&#45;&gt;Node12 -->
<g id="edge11" class="edge"><title>Node8&#45;&gt;Node12</title>
<path fill="none" stroke="midnightblue" d="M119.767,-83.7689C145.461,-81.4432 177.203,-78.57 206.828,-75.8884"/>
<polygon fill="midnightblue" stroke="midnightblue" points="119.157,-80.3097 109.513,-84.6971 119.788,-87.2812 119.157,-80.3097"/>
</g>
<!-- Node14 -->
<g id="node12" class="node"><title>Node14</title>
<g id="a_node12"><a xlink:href="structant_1_1analysis_1_1physics_1_1_etap_omega_g_1_1_sig__t_1_1_shared_tree__t.html" target="_top" xlink:title="ant::analysis::physics\l::EtapOmegaG::Sig_t::SharedTree_t">
<polygon fill="white" stroke="black" points="412,-0.5 412,-30.5 598,-30.5 598,-0.5 412,-0.5"/>
<text text-anchor="start" x="420" y="-18.5" font-family="Helvetica,sans-Serif" font-size="10.00">ant::analysis::physics</text>
<text text-anchor="middle" x="505" y="-7.5" font-family="Helvetica,sans-Serif" font-size="10.00">::EtapOmegaG::Sig_t::SharedTree_t</text>
</a>
</g>
</g>
<!-- Node8&#45;&gt;Node14 -->
<g id="edge15" class="edge"><title>Node8&#45;&gt;Node14</title>
<path fill="none" stroke="midnightblue" d="M100.89,-75.0984C128.789,-64.4852 169.862,-50.206 207,-42.5 274.805,-28.4309 352.83,-21.6928 411.887,-18.4658"/>
<polygon fill="midnightblue" stroke="midnightblue" points="99.3073,-71.9574 91.2386,-78.8237 101.828,-78.4878 99.3073,-71.9574"/>
</g>
<!-- Node9&#45;&gt;Node4 -->
<g id="edge6" class="edge"><title>Node9&#45;&gt;Node4</title>
<path fill="none" stroke="#9a32cd" stroke-dasharray="5,2" d="M389.25,-124.682C448.425,-130.733 528.151,-139.92 598,-151.5 612.125,-153.842 627.469,-156.959 641.131,-159.94"/>
<polygon fill="#9a32cd" stroke="#9a32cd" points="389.494,-121.189 379.192,-123.663 388.789,-128.153 389.494,-121.189"/>
<text text-anchor="middle" x="505" y="-154.5" font-family="Helvetica,sans-Serif" font-size="10.00"> treeCommon</text>
</g>
<!-- Node10 -->
<g id="node8" class="node"><title>Node10</title>
<g id="a_node8"><a xlink:href="structant_1_1analysis_1_1physics_1_1_etap_omega_g_1_1_sig__t_1_1_pi0__t_1_1_tree__t.html" target="_top" xlink:title="ant::analysis::physics\l::EtapOmegaG::Sig_t::Pi0\l_t::Tree_t">
<polygon fill="white" stroke="black" points="877,-102 877,-143 1014,-143 1014,-102 877,-102"/>
<text text-anchor="start" x="885" y="-131" font-family="Helvetica,sans-Serif" font-size="10.00">ant::analysis::physics</text>
<text text-anchor="start" x="885" y="-120" font-family="Helvetica,sans-Serif" font-size="10.00">::EtapOmegaG::Sig_t::Pi0</text>
<text text-anchor="middle" x="945.5" y="-109" font-family="Helvetica,sans-Serif" font-size="10.00">_t::Tree_t</text>
</a>
</g>
</g>
<!-- Node10&#45;&gt;Node3 -->
<g id="edge8" class="edge"><title>Node10&#45;&gt;Node3</title>
<path fill="none" stroke="#9a32cd" stroke-dasharray="5,2" d="M1024.32,-112.737C1066.06,-107.5 1116.77,-101.137 1155.77,-96.2449"/>
<polygon fill="#9a32cd" stroke="#9a32cd" points="1023.67,-109.29 1014.19,-114.008 1024.54,-116.236 1023.67,-109.29"/>
<text text-anchor="middle" x="1094" y="-112.5" font-family="Helvetica,sans-Serif" font-size="10.00"> treeSigPi0</text>
</g>
<!-- Node11 -->
<g id="node9" class="node"><title>Node11</title>
<g id="a_node9"><a xlink:href="structant_1_1analysis_1_1physics_1_1_etap_omega_g_1_1_sig__t_1_1_fit__t_1_1_base_tree__t.html" target="_top" xlink:title="ant::analysis::physics\l::EtapOmegaG::Sig_t::Fit\l_t::BaseTree_t">
<polygon fill="white" stroke="black" points="616,-47 616,-88 750,-88 750,-47 616,-47"/>
<text text-anchor="start" x="624" y="-76" font-family="Helvetica,sans-Serif" font-size="10.00">ant::analysis::physics</text>
<text text-anchor="start" x="624" y="-65" font-family="Helvetica,sans-Serif" font-size="10.00">::EtapOmegaG::Sig_t::Fit</text>
<text text-anchor="middle" x="683" y="-54" font-family="Helvetica,sans-Serif" font-size="10.00">_t::BaseTree_t</text>
</a>
</g>
</g>
<!-- Node11&#45;&gt;Node10 -->
<g id="edge9" class="edge"><title>Node11&#45;&gt;Node10</title>
<path fill="none" stroke="midnightblue" d="M760.27,-83.6031C797.132,-91.3858 841.001,-100.648 876.683,-108.182"/>
<polygon fill="midnightblue" stroke="midnightblue" points="760.579,-80.0913 750.072,-81.4499 759.133,-86.9403 760.579,-80.0913"/>
</g>
<!-- Node13 -->
<g id="node11" class="node"><title>Node13</title>
<g id="a_node11"><a xlink:href="structant_1_1analysis_1_1physics_1_1_etap_omega_g_1_1_sig__t_1_1_omega_pi0__t_1_1_tree__t.html" target="_top" xlink:title="ant::analysis::physics\l::EtapOmegaG::Sig_t::OmegaPi0\l_t::Tree_t">
<polygon fill="white" stroke="black" points="859,-42 859,-83 1032,-83 1032,-42 859,-42"/>
<text text-anchor="start" x="867" y="-71" font-family="Helvetica,sans-Serif" font-size="10.00">ant::analysis::physics</text>
<text text-anchor="start" x="867" y="-60" font-family="Helvetica,sans-Serif" font-size="10.00">::EtapOmegaG::Sig_t::OmegaPi0</text>
<text text-anchor="middle" x="945.5" y="-49" font-family="Helvetica,sans-Serif" font-size="10.00">_t::Tree_t</text>
</a>
</g>
</g>
<!-- Node11&#45;&gt;Node13 -->
<g id="edge13" class="edge"><title>Node11&#45;&gt;Node13</title>
<path fill="none" stroke="midnightblue" d="M760.344,-66.0347C791.226,-65.4419 827.017,-64.7549 858.789,-64.1451"/>
<polygon fill="midnightblue" stroke="midnightblue" points="760.003,-62.5405 750.072,-66.2318 760.137,-69.5392 760.003,-62.5405"/>
</g>
<!-- Node12&#45;&gt;Node11 -->
<g id="edge10" class="edge"><title>Node12&#45;&gt;Node11</title>
<path fill="none" stroke="midnightblue" d="M404.308,-67.5C471.629,-67.5 557.619,-67.5 615.946,-67.5"/>
<polygon fill="midnightblue" stroke="midnightblue" points="404.094,-64.0001 394.094,-67.5 404.094,-71.0001 404.094,-64.0001"/>
</g>
<!-- Node13&#45;&gt;Node3 -->
<g id="edge12" class="edge"><title>Node13&#45;&gt;Node3</title>
<path fill="none" stroke="#9a32cd" stroke-dasharray="5,2" d="M1042.64,-68.0777C1073.18,-70.2375 1107.05,-73.0375 1138,-76.5 1144.38,-77.2138 1151.04,-78.0585 1157.66,-78.964"/>
<polygon fill="#9a32cd" stroke="#9a32cd" points="1042.64,-64.5694 1032.43,-67.3697 1042.16,-71.5526 1042.64,-64.5694"/>
<text text-anchor="middle" x="1094" y="-79.5" font-family="Helvetica,sans-Serif" font-size="10.00"> treeSigOmegaPi0</text>
</g>
<!-- Node14&#45;&gt;Node3 -->
<g id="edge14" class="edge"><title>Node14&#45;&gt;Node3</title>
<path fill="none" stroke="#9a32cd" stroke-dasharray="5,2" d="M608.508,-10.9676C715.078,-8.08261 886.357,-8.5854 1032,-32.5 1091.42,-42.2568 1158.44,-65.7481 1193.38,-78.9969"/>
<polygon fill="#9a32cd" stroke="#9a32cd" points="608.296,-7.47212 598.4,-11.2567 608.496,-14.4693 608.296,-7.47212"/>
<text text-anchor="middle" x="804.5" y="-16.5" font-family="Helvetica,sans-Serif" font-size="10.00"> treeSigShared</text>
</g>
</g>
</svg>
