<?xml version="1.0" encoding="UTF-8" standalone="no"?>
<!DOCTYPE svg PUBLIC "-//W3C//DTD SVG 1.1//EN"
 "http://www.w3.org/Graphics/SVG/1.1/DTD/svg11.dtd">
<!-- Generated by graphviz version 2.38.0 (20140413.2041)
 -->
<!-- Title: ant::analysis::slowcontrol::Variable Pages: 1 -->
<svg width="316pt" height="284pt"
 viewBox="0.00 0.00 316.00 284.00" xmlns="http://www.w3.org/2000/svg" xmlns:xlink="http://www.w3.org/1999/xlink">
<g id="graph0" class="graph" transform="scale(1 1) rotate(0) translate(4 280)">
<title>ant::analysis::slowcontrol::Variable</title>
<polygon fill="white" stroke="none" points="-4,4 -4,-280 312,-280 312,4 -4,4"/>
<!-- Node0 -->
<g id="node1" class="node"><title>Node0</title>
<polygon fill="#bfbfbf" stroke="black" points="0,-122.5 0,-152.5 136,-152.5 136,-122.5 0,-122.5"/>
<text text-anchor="start" x="8" y="-140.5" font-family="Helvetica,sans-Serif" font-size="10.00">ant::analysis::slowcontrol</text>
<text text-anchor="middle" x="68" y="-129.5" font-family="Helvetica,sans-Serif" font-size="10.00">::Variable</text>
</g>
<!-- Node1 -->
<g id="node2" class="node"><title>Node1</title>
<g id="a_node2"><a xlink:href="structant_1_1analysis_1_1slowcontrol_1_1variable_1_1_beam.html" target="_top" xlink:title="ant::analysis::slowcontrol\l::variable::Beam">
<polygon fill="white" stroke="black" points="172,-245.5 172,-275.5 308,-275.5 308,-245.5 172,-245.5"/>
<text text-anchor="start" x="180" y="-263.5" font-family="Helvetica,sans-Serif" font-size="10.00">ant::analysis::slowcontrol</text>
<text text-anchor="middle" x="240" y="-252.5" font-family="Helvetica,sans-Serif" font-size="10.00">::variable::Beam</text>
</a>
</g>
</g>
<!-- Node0&#45;&gt;Node1 -->
<g id="edge1" class="edge"><title>Node0&#45;&gt;Node1</title>
<path fill="none" stroke="midnightblue" d="M87.8191,-160.538C106.974,-182.683 138.537,-215.763 172,-236.5 177.356,-239.819 183.238,-242.769 189.222,-245.364"/>
<polygon fill="midnightblue" stroke="midnightblue" points="90.248,-157.991 81.1071,-152.634 84.9124,-162.522 90.248,-157.991"/>
</g>
<!-- Node2 -->
<g id="node3" class="node"><title>Node2</title>
<g id="a_node3"><a xlink:href="structant_1_1analysis_1_1slowcontrol_1_1variable_1_1_clocks.html" target="_top" xlink:title="ant::analysis::slowcontrol\l::variable::Clocks">
<polygon fill="white" stroke="black" points="172,-196.5 172,-226.5 308,-226.5 308,-196.5 172,-196.5"/>
<text text-anchor="start" x="180" y="-214.5" font-family="Helvetica,sans-Serif" font-size="10.00">ant::analysis::slowcontrol</text>
<text text-anchor="middle" x="240" y="-203.5" font-family="Helvetica,sans-Serif" font-size="10.00">::variable::Clocks</text>
</a>
</g>
</g>
<!-- Node0&#45;&gt;Node2 -->
<g id="edge2" class="edge"><title>Node0&#45;&gt;Node2</title>
<path fill="none" stroke="midnightblue" d="M106.968,-157.147C126.224,-166.798 150.111,-178.298 172,-187.5 179.29,-190.564 187.122,-193.597 194.77,-196.421"/>
<polygon fill="midnightblue" stroke="midnightblue" points="108.421,-153.959 97.9169,-152.576 105.266,-160.208 108.421,-153.959"/>
</g>
<!-- Node3 -->
<g id="node4" class="node"><title>Node3</title>
<g id="a_node4"><a xlink:href="structant_1_1analysis_1_1slowcontrol_1_1variable_1_1_pairspec.html" target="_top" xlink:title="ant::analysis::slowcontrol\l::variable::Pairspec">
<polygon fill="white" stroke="black" points="172,-147.5 172,-177.5 308,-177.5 308,-147.5 172,-147.5"/>
<text text-anchor="start" x="180" y="-165.5" font-family="Helvetica,sans-Serif" font-size="10.00">ant::analysis::slowcontrol</text>
<text text-anchor="middle" x="240" y="-154.5" font-family="Helvetica,sans-Serif" font-size="10.00">::variable::Pairspec</text>
</a>
</g>
</g>
<!-- Node0&#45;&gt;Node3 -->
<g id="edge3" class="edge"><title>Node0&#45;&gt;Node3</title>
<path fill="none" stroke="midnightblue" d="M146.146,-148.845C154.688,-150.101 163.337,-151.373 171.743,-152.609"/>
<polygon fill="midnightblue" stroke="midnightblue" points="146.591,-145.373 136.189,-147.381 145.573,-152.298 146.591,-145.373"/>
</g>
<!-- Node4 -->
<g id="node5" class="node"><title>Node4</title>
<g id="a_node5"><a xlink:href="structant_1_1analysis_1_1slowcontrol_1_1variable_1_1_tagg_eff.html" target="_top" xlink:title="ant::analysis::slowcontrol\l::variable::TaggEff">
<polygon fill="white" stroke="black" points="172,-98.5 172,-128.5 308,-128.5 308,-98.5 172,-98.5"/>
<text text-anchor="start" x="180" y="-116.5" font-family="Helvetica,sans-Serif" font-size="10.00">ant::analysis::slowcontrol</text>
<text text-anchor="middle" x="240" y="-105.5" font-family="Helvetica,sans-Serif" font-size="10.00">::variable::TaggEff</text>
</a>
</g>
</g>
<!-- Node0&#45;&gt;Node4 -->
<g id="edge4" class="edge"><title>Node0&#45;&gt;Node4</title>
<path fill="none" stroke="midnightblue" d="M146.146,-126.609C154.688,-125.403 163.337,-124.182 171.743,-122.995"/>
<polygon fill="midnightblue" stroke="midnightblue" points="145.601,-123.151 136.189,-128.015 146.58,-130.082 145.601,-123.151"/>
</g>
<!-- Node5 -->
<g id="node6" class="node"><title>Node5</title>
<g id="a_node6"><a xlink:href="structant_1_1analysis_1_1slowcontrol_1_1variable_1_1_tagger_scalers.html" target="_top" xlink:title="ant::analysis::slowcontrol\l::variable::TaggerScalers">
<polygon fill="white" stroke="black" points="172,-49.5 172,-79.5 308,-79.5 308,-49.5 172,-49.5"/>
<text text-anchor="start" x="180" y="-67.5" font-family="Helvetica,sans-Serif" font-size="10.00">ant::analysis::slowcontrol</text>
<text text-anchor="middle" x="240" y="-56.5" font-family="Helvetica,sans-Serif" font-size="10.00">::variable::TaggerScalers</text>
</a>
</g>
</g>
<!-- Node0&#45;&gt;Node5 -->
<g id="edge5" class="edge"><title>Node0&#45;&gt;Node5</title>
<path fill="none" stroke="midnightblue" d="M109.034,-117.947C127.968,-108.93 150.985,-98.3014 172,-89.5 180.016,-86.1428 188.658,-82.7524 196.984,-79.5979"/>
<polygon fill="midnightblue" stroke="midnightblue" points="107.322,-114.886 99.8153,-122.362 110.346,-121.199 107.322,-114.886"/>
</g>
<!-- Node6 -->
<g id="node7" class="node"><title>Node6</title>
<g id="a_node7"><a xlink:href="structant_1_1analysis_1_1slowcontrol_1_1variable_1_1_trigger.html" target="_top" xlink:title="ant::analysis::slowcontrol\l::variable::Trigger">
<polygon fill="white" stroke="black" points="172,-0.5 172,-30.5 308,-30.5 308,-0.5 172,-0.5"/>
<text text-anchor="start" x="180" y="-18.5" font-family="Helvetica,sans-Serif" font-size="10.00">ant::analysis::slowcontrol</text>
<text text-anchor="middle" x="240" y="-7.5" font-family="Helvetica,sans-Serif" font-size="10.00">::variable::Trigger</text>
</a>
</g>
</g>
<!-- Node0&#45;&gt;Node6 -->
<g id="edge6" class="edge"><title>Node0&#45;&gt;Node6</title>
<path fill="none" stroke="midnightblue" d="M88.2963,-114.681C107.597,-93.0722 139.075,-60.9713 172,-40.5 178.01,-36.7633 184.665,-33.4512 191.38,-30.5599"/>
<polygon fill="midnightblue" stroke="midnightblue" points="85.4848,-112.578 81.518,-122.402 90.7454,-117.196 85.4848,-112.578"/>
</g>
</g>
</svg>
