<?xml version="1.0" encoding="UTF-8" standalone="no"?>
<!DOCTYPE svg PUBLIC "-//W3C//DTD SVG 1.1//EN"
 "http://www.w3.org/Graphics/SVG/1.1/DTD/svg11.dtd">
<!-- Generated by graphviz version 2.38.0 (20140413.2041)
 -->
<!-- Title: ant::analysis::physics::TAPS_Energy::tree_data_t Pages: 1 -->
<svg width="282pt" height="150pt"
 viewBox="0.00 0.00 282.00 150.00" xmlns="http://www.w3.org/2000/svg" xmlns:xlink="http://www.w3.org/1999/xlink">
<g id="graph0" class="graph" transform="scale(1 1) rotate(0) translate(4 146)">
<title>ant::analysis::physics::TAPS_Energy::tree_data_t</title>
<polygon fill="white" stroke="none" points="-4,4 -4,-146 278,-146 278,4 -4,4"/>
<!-- Node1 -->
<g id="node1" class="node"><title>Node1</title>
<polygon fill="#bfbfbf" stroke="black" points="67,-0.5 67,-30.5 213,-30.5 213,-0.5 67,-0.5"/>
<text text-anchor="start" x="75" y="-18.5" font-family="Helvetica,sans-Serif" font-size="10.00">ant::analysis::physics</text>
<text text-anchor="middle" x="140" y="-7.5" font-family="Helvetica,sans-Serif" font-size="10.00">::TAPS_Energy::tree_data_t</text>
</g>
<!-- Node2 -->
<g id="node2" class="node"><title>Node2</title>
<polygon fill="white" stroke="#bfbfbf" points="0,-122.5 0,-141.5 134,-141.5 134,-122.5 0,-122.5"/>
<text text-anchor="middle" x="67" y="-129.5" font-family="Helvetica,sans-Serif" font-size="10.00">std::vector&lt; unsigned &gt;</text>
</g>
<!-- Node2&#45;&gt;Node1 -->
<g id="edge1" class="edge"><title>Node2&#45;&gt;Node1</title>
<path fill="none" stroke="#9a32cd" stroke-dasharray="5,2" d="M77.9455,-113.832C92.3583,-91.2257 117.44,-51.8847 130.879,-30.8061"/>
<polygon fill="#9a32cd" stroke="#9a32cd" points="74.9116,-112.08 72.4869,-122.394 80.814,-115.843 74.9116,-112.08"/>
<text text-anchor="middle" x="140.5" y="-74" font-family="Helvetica,sans-Serif" font-size="10.00"> Channel</text>
</g>
<!-- Node3 -->
<g id="node3" class="node"><title>Node3</title>
<polygon fill="white" stroke="#bfbfbf" points="152,-122.5 152,-141.5 274,-141.5 274,-122.5 152,-122.5"/>
<text text-anchor="middle" x="213" y="-129.5" font-family="Helvetica,sans-Serif" font-size="10.00">std::vector&lt; double &gt;</text>
</g>
<!-- Node3&#45;&gt;Node1 -->
<g id="edge2" class="edge"><title>Node3&#45;&gt;Node1</title>
<path fill="none" stroke="#9a32cd" stroke-dasharray="5,2" d="M203.627,-112.823C194.648,-95.8786 180.374,-70.1189 166,-49 161.772,-42.7876 156.688,-36.259 152.142,-30.6964"/>
<polygon fill="#9a32cd" stroke="#9a32cd" points="200.751,-114.876 208.487,-122.115 206.953,-111.631 200.751,-114.876"/>
<text text-anchor="middle" x="212" y="-96" font-family="Helvetica,sans-Serif" font-size="10.00"> Ek</text>
<text text-anchor="middle" x="212" y="-85" font-family="Helvetica,sans-Serif" font-size="10.00">VetoE</text>
<text text-anchor="middle" x="212" y="-74" font-family="Helvetica,sans-Serif" font-size="10.00">Theta</text>
<text text-anchor="middle" x="212" y="-63" font-family="Helvetica,sans-Serif" font-size="10.00">Time</text>
<text text-anchor="middle" x="212" y="-52" font-family="Helvetica,sans-Serif" font-size="10.00">Phi</text>
</g>
</g>
</svg>
