<?xml version="1.0" encoding="UTF-8" standalone="no"?>
<!DOCTYPE svg PUBLIC "-//W3C//DTD SVG 1.1//EN"
 "http://www.w3.org/Graphics/SVG/1.1/DTD/svg11.dtd">
<!-- Generated by graphviz version 2.38.0 (20140413.2041)
 -->
<!-- Title: ant::expconfig::detector::Tagger Pages: 1 -->
<svg width="605pt" height="480pt"
 viewBox="0.00 0.00 605.00 480.00" xmlns="http://www.w3.org/2000/svg" xmlns:xlink="http://www.w3.org/1999/xlink">
<g id="graph0" class="graph" transform="scale(1 1) rotate(0) translate(4 476)">
<title>ant::expconfig::detector::Tagger</title>
<polygon fill="white" stroke="none" points="-4,4 -4,-476 601,-476 601,4 -4,4"/>
<!-- Node0 -->
<g id="node1" class="node"><title>Node0</title>
<polygon fill="#bfbfbf" stroke="black" points="299,-220.5 299,-250.5 430,-250.5 430,-220.5 299,-220.5"/>
<text text-anchor="start" x="307" y="-238.5" font-family="Helvetica,sans-Serif" font-size="10.00">ant::expconfig::detector</text>
<text text-anchor="middle" x="364.5" y="-227.5" font-family="Helvetica,sans-Serif" font-size="10.00">::Tagger</text>
</g>
<!-- Node4 -->
<g id="node5" class="node"><title>Node4</title>
<g id="a_node5"><a xlink:href="structant_1_1expconfig_1_1detector_1_1_tagger__2007.html" target="_top" xlink:title="ant::expconfig::detector\l::Tagger_2007">
<polygon fill="white" stroke="black" points="466,-441.5 466,-471.5 597,-471.5 597,-441.5 466,-441.5"/>
<text text-anchor="start" x="474" y="-459.5" font-family="Helvetica,sans-Serif" font-size="10.00">ant::expconfig::detector</text>
<text text-anchor="middle" x="531.5" y="-448.5" font-family="Helvetica,sans-Serif" font-size="10.00">::Tagger_2007</text>
</a>
</g>
</g>
<!-- Node0&#45;&gt;Node4 -->
<g id="edge4" class="edge"><title>Node0&#45;&gt;Node4</title>
<path fill="none" stroke="midnightblue" d="M371.831,-260.482C383.552,-301.869 412.458,-384.812 466,-432.5 469.837,-435.917 474.204,-438.863 478.816,-441.401"/>
<polygon fill="midnightblue" stroke="midnightblue" points="375.162,-259.397 369.155,-250.669 368.409,-261.238 375.162,-259.397"/>
</g>
<!-- Node5 -->
<g id="node6" class="node"><title>Node5</title>
<g id="a_node6"><a xlink:href="structant_1_1expconfig_1_1detector_1_1_tagger__2010__03.html" target="_top" xlink:title="ant::expconfig::detector\l::Tagger_2010_03">
<polygon fill="white" stroke="black" points="466,-392.5 466,-422.5 597,-422.5 597,-392.5 466,-392.5"/>
<text text-anchor="start" x="474" y="-410.5" font-family="Helvetica,sans-Serif" font-size="10.00">ant::expconfig::detector</text>
<text text-anchor="middle" x="531.5" y="-399.5" font-family="Helvetica,sans-Serif" font-size="10.00">::Tagger_2010_03</text>
</a>
</g>
</g>
<!-- Node0&#45;&gt;Node5 -->
<g id="edge5" class="edge"><title>Node0&#45;&gt;Node5</title>
<path fill="none" stroke="midnightblue" d="M376.259,-260.045C391.685,-292.581 423.039,-349.795 466,-383.5 470.324,-386.892 475.177,-389.841 480.229,-392.395"/>
<polygon fill="midnightblue" stroke="midnightblue" points="379.357,-258.405 371.987,-250.794 373.002,-261.34 379.357,-258.405"/>
</g>
<!-- Node6 -->
<g id="node7" class="node"><title>Node6</title>
<g id="a_node7"><a xlink:href="structant_1_1expconfig_1_1detector_1_1_tagger__2015.html" target="_top" xlink:title="ant::expconfig::detector\l::Tagger_2015">
<polygon fill="white" stroke="black" points="466,-343.5 466,-373.5 597,-373.5 597,-343.5 466,-343.5"/>
<text text-anchor="start" x="474" y="-361.5" font-family="Helvetica,sans-Serif" font-size="10.00">ant::expconfig::detector</text>
<text text-anchor="middle" x="531.5" y="-350.5" font-family="Helvetica,sans-Serif" font-size="10.00">::Tagger_2015</text>
</a>
</g>
</g>
<!-- Node0&#45;&gt;Node6 -->
<g id="edge6" class="edge"><title>Node0&#45;&gt;Node6</title>
<path fill="none" stroke="midnightblue" d="M383.802,-258.476C402.447,-280.574 433.21,-313.619 466,-334.5 471.241,-337.837 477.013,-340.809 482.886,-343.426"/>
<polygon fill="midnightblue" stroke="midnightblue" points="386.345,-256.059 377.271,-250.59 380.954,-260.524 386.345,-256.059"/>
</g>
<!-- Node7 -->
<g id="node8" class="node"><title>Node7</title>
<g id="a_node8"><a xlink:href="structant_1_1expconfig_1_1detector_1_1_tagger__2016__06.html" target="_top" xlink:title="ant::expconfig::detector\l::Tagger_2016_06">
<polygon fill="white" stroke="black" points="466,-294.5 466,-324.5 597,-324.5 597,-294.5 466,-294.5"/>
<text text-anchor="start" x="474" y="-312.5" font-family="Helvetica,sans-Serif" font-size="10.00">ant::expconfig::detector</text>
<text text-anchor="middle" x="531.5" y="-301.5" font-family="Helvetica,sans-Serif" font-size="10.00">::Tagger_2016_06</text>
</a>
</g>
</g>
<!-- Node0&#45;&gt;Node7 -->
<g id="edge7" class="edge"><title>Node0&#45;&gt;Node7</title>
<path fill="none" stroke="midnightblue" d="M402.802,-255.231C421.544,-264.843 444.738,-276.286 466,-285.5 473.016,-288.541 480.556,-291.561 487.918,-294.381"/>
<polygon fill="midnightblue" stroke="midnightblue" points="404.204,-252.017 393.714,-250.536 400.991,-258.236 404.204,-252.017"/>
</g>
<!-- Node8 -->
<g id="node9" class="node"><title>Node8</title>
<g id="a_node9"><a xlink:href="structant_1_1expconfig_1_1detector_1_1_tagger__2017__12.html" target="_top" xlink:title="ant::expconfig::detector\l::Tagger_2017_12">
<polygon fill="white" stroke="black" points="466,-245.5 466,-275.5 597,-275.5 597,-245.5 466,-245.5"/>
<text text-anchor="start" x="474" y="-263.5" font-family="Helvetica,sans-Serif" font-size="10.00">ant::expconfig::detector</text>
<text text-anchor="middle" x="531.5" y="-252.5" font-family="Helvetica,sans-Serif" font-size="10.00">::Tagger_2017_12</text>
</a>
</g>
</g>
<!-- Node0&#45;&gt;Node8 -->
<g id="edge8" class="edge"><title>Node0&#45;&gt;Node8</title>
<path fill="none" stroke="midnightblue" d="M440.239,-246.824C448.821,-248.124 457.516,-249.442 465.948,-250.719"/>
<polygon fill="midnightblue" stroke="midnightblue" points="440.65,-243.347 430.239,-245.309 439.602,-250.268 440.65,-243.347"/>
</g>
<!-- Node9 -->
<g id="node10" class="node"><title>Node9</title>
<g id="a_node10"><a xlink:href="structant_1_1expconfig_1_1detector_1_1_tagger__2018__03.html" target="_top" xlink:title="ant::expconfig::detector\l::Tagger_2018_03">
<polygon fill="white" stroke="black" points="466,-196.5 466,-226.5 597,-226.5 597,-196.5 466,-196.5"/>
<text text-anchor="start" x="474" y="-214.5" font-family="Helvetica,sans-Serif" font-size="10.00">ant::expconfig::detector</text>
<text text-anchor="middle" x="531.5" y="-203.5" font-family="Helvetica,sans-Serif" font-size="10.00">::Tagger_2018_03</text>
</a>
</g>
</g>
<!-- Node0&#45;&gt;Node9 -->
<g id="edge9" class="edge"><title>Node0&#45;&gt;Node9</title>
<path fill="none" stroke="midnightblue" d="M440.239,-224.629C448.821,-223.381 457.516,-222.116 465.948,-220.889"/>
<polygon fill="midnightblue" stroke="midnightblue" points="439.631,-221.18 430.239,-226.083 440.638,-228.108 439.631,-221.18"/>
</g>
<!-- Node10 -->
<g id="node11" class="node"><title>Node10</title>
<g id="a_node11"><a xlink:href="structant_1_1expconfig_1_1detector_1_1_tagger__2018__11.html" target="_top" xlink:title="ant::expconfig::detector\l::Tagger_2018_11">
<polygon fill="white" stroke="black" points="466,-147.5 466,-177.5 597,-177.5 597,-147.5 466,-147.5"/>
<text text-anchor="start" x="474" y="-165.5" font-family="Helvetica,sans-Serif" font-size="10.00">ant::expconfig::detector</text>
<text text-anchor="middle" x="531.5" y="-154.5" font-family="Helvetica,sans-Serif" font-size="10.00">::Tagger_2018_11</text>
</a>
</g>
</g>
<!-- Node0&#45;&gt;Node10 -->
<g id="edge10" class="edge"><title>Node0&#45;&gt;Node10</title>
<path fill="none" stroke="midnightblue" d="M403.654,-215.81C422.262,-206.489 445.09,-195.462 466,-186.5 473.138,-183.44 480.81,-180.387 488.283,-177.535"/>
<polygon fill="midnightblue" stroke="midnightblue" points="401.966,-212.742 394.614,-220.371 405.119,-218.992 401.966,-212.742"/>
</g>
<!-- Node11 -->
<g id="node12" class="node"><title>Node11</title>
<g id="a_node12"><a xlink:href="structant_1_1expconfig_1_1detector_1_1_tagger__2019__01.html" target="_top" xlink:title="ant::expconfig::detector\l::Tagger_2019_01">
<polygon fill="white" stroke="black" points="466,-98.5 466,-128.5 597,-128.5 597,-98.5 466,-98.5"/>
<text text-anchor="start" x="474" y="-116.5" font-family="Helvetica,sans-Serif" font-size="10.00">ant::expconfig::detector</text>
<text text-anchor="middle" x="531.5" y="-105.5" font-family="Helvetica,sans-Serif" font-size="10.00">::Tagger_2019_01</text>
</a>
</g>
</g>
<!-- Node0&#45;&gt;Node11 -->
<g id="edge11" class="edge"><title>Node0&#45;&gt;Node11</title>
<path fill="none" stroke="midnightblue" d="M384.164,-212.4C402.875,-190.535 433.503,-158.079 466,-137.5 471.249,-134.176 477.027,-131.212 482.902,-128.599"/>
<polygon fill="midnightblue" stroke="midnightblue" points="381.351,-210.307 377.597,-220.214 386.71,-214.81 381.351,-210.307"/>
</g>
<!-- Node12 -->
<g id="node13" class="node"><title>Node12</title>
<g id="a_node13"><a xlink:href="structant_1_1expconfig_1_1detector_1_1_tagger__2019__06.html" target="_top" xlink:title="ant::expconfig::detector\l::Tagger_2019_06">
<polygon fill="white" stroke="black" points="466,-49.5 466,-79.5 597,-79.5 597,-49.5 466,-49.5"/>
<text text-anchor="start" x="474" y="-67.5" font-family="Helvetica,sans-Serif" font-size="10.00">ant::expconfig::detector</text>
<text text-anchor="middle" x="531.5" y="-56.5" font-family="Helvetica,sans-Serif" font-size="10.00">::Tagger_2019_06</text>
</a>
</g>
</g>
<!-- Node0&#45;&gt;Node12 -->
<g id="edge12" class="edge"><title>Node0&#45;&gt;Node12</title>
<path fill="none" stroke="midnightblue" d="M376.302,-211.122C391.777,-178.808 423.184,-121.982 466,-88.5 470.329,-85.1144 475.186,-82.1705 480.239,-79.6191"/>
<polygon fill="midnightblue" stroke="midnightblue" points="373.071,-209.769 372.016,-220.311 379.415,-212.728 373.071,-209.769"/>
</g>
<!-- Node13 -->
<g id="node14" class="node"><title>Node13</title>
<g id="a_node14"><a xlink:href="structant_1_1expconfig_1_1detector_1_1_tagger__2019__07.html" target="_top" xlink:title="ant::expconfig::detector\l::Tagger_2019_07">
<polygon fill="white" stroke="black" points="466,-0.5 466,-30.5 597,-30.5 597,-0.5 466,-0.5"/>
<text text-anchor="start" x="474" y="-18.5" font-family="Helvetica,sans-Serif" font-size="10.00">ant::expconfig::detector</text>
<text text-anchor="middle" x="531.5" y="-7.5" font-family="Helvetica,sans-Serif" font-size="10.00">::Tagger_2019_07</text>
</a>
</g>
</g>
<!-- Node0&#45;&gt;Node13 -->
<g id="edge13" class="edge"><title>Node0&#45;&gt;Node13</title>
<path fill="none" stroke="midnightblue" d="M371.867,-210.644C383.642,-169.465 412.625,-86.9414 466,-39.5 469.84,-36.0869 474.21,-33.1432 478.823,-30.6076"/>
<polygon fill="midnightblue" stroke="midnightblue" points="368.459,-209.837 369.179,-220.407 375.208,-211.695 368.459,-209.837"/>
</g>
<!-- Node1 -->
<g id="node2" class="node"><title>Node1</title>
<g id="a_node2"><a xlink:href="structant_1_1_tagger_detector__t.html" target="_top" xlink:title="ant::TaggerDetector_t">
<polygon fill="white" stroke="black" points="133.5,-245 133.5,-264 254.5,-264 254.5,-245 133.5,-245"/>
<text text-anchor="middle" x="194" y="-252" font-family="Helvetica,sans-Serif" font-size="10.00">ant::TaggerDetector_t</text>
</a>
</g>
</g>
<!-- Node1&#45;&gt;Node0 -->
<g id="edge1" class="edge"><title>Node1&#45;&gt;Node0</title>
<path fill="none" stroke="midnightblue" d="M265.069,-246.599C276.294,-245.333 287.865,-244.029 298.954,-242.778"/>
<polygon fill="midnightblue" stroke="midnightblue" points="264.426,-243.149 254.881,-247.748 265.21,-250.105 264.426,-243.149"/>
</g>
<!-- Node2 -->
<g id="node3" class="node"><title>Node2</title>
<g id="a_node3"><a xlink:href="structant_1_1_detector__t.html" target="_top" xlink:title="The Detector_t struct is the minimal base class for all detectors. ">
<polygon fill="white" stroke="black" points="0,-245 0,-264 89,-264 89,-245 0,-245"/>
<text text-anchor="middle" x="44.5" y="-252" font-family="Helvetica,sans-Serif" font-size="10.00">ant::Detector_t</text>
</a>
</g>
</g>
<!-- Node2&#45;&gt;Node1 -->
<g id="edge2" class="edge"><title>Node2&#45;&gt;Node1</title>
<path fill="none" stroke="midnightblue" d="M99.6749,-254.5C110.675,-254.5 122.302,-254.5 133.475,-254.5"/>
<polygon fill="midnightblue" stroke="midnightblue" points="99.3555,-251 89.3555,-254.5 99.3555,-258 99.3555,-251"/>
</g>
<!-- Node3 -->
<g id="node4" class="node"><title>Node3</title>
<g id="a_node4"><a xlink:href="classant_1_1_unpacker_acqu_config.html" target="_top" xlink:title="ant::UnpackerAcquConfig">
<polygon fill="white" stroke="black" points="125,-207 125,-226 263,-226 263,-207 125,-207"/>
<text text-anchor="middle" x="194" y="-214" font-family="Helvetica,sans-Serif" font-size="10.00">ant::UnpackerAcquConfig</text>
</a>
</g>
</g>
<!-- Node3&#45;&gt;Node0 -->
<g id="edge3" class="edge"><title>Node3&#45;&gt;Node0</title>
<path fill="none" stroke="midnightblue" d="M273.074,-225.304C281.665,-226.272 290.343,-227.251 298.746,-228.198"/>
<polygon fill="midnightblue" stroke="midnightblue" points="273.379,-221.816 263.05,-224.173 272.595,-228.772 273.379,-221.816"/>
</g>
</g>
</svg>
