<?xml version="1.0" encoding="UTF-8" standalone="no"?>
<!DOCTYPE svg PUBLIC "-//W3C//DTD SVG 1.1//EN"
 "http://www.w3.org/Graphics/SVG/1.1/DTD/svg11.dtd">
<!-- Generated by graphviz version 2.38.0 (20140413.2041)
 -->
<!-- Title: ant::TaggerDetector_t Pages: 1 -->
<svg width="611pt" height="529pt"
 viewBox="0.00 0.00 611.00 529.00" xmlns="http://www.w3.org/2000/svg" xmlns:xlink="http://www.w3.org/1999/xlink">
<g id="graph0" class="graph" transform="scale(1 1) rotate(0) translate(4 525)">
<title>ant::TaggerDetector_t</title>
<polygon fill="white" stroke="none" points="-4,4 -4,-525 607,-525 607,4 -4,4"/>
<!-- Node0 -->
<g id="node1" class="node"><title>Node0</title>
<polygon fill="#bfbfbf" stroke="black" points="125,-273 125,-292 246,-292 246,-273 125,-273"/>
<text text-anchor="middle" x="185.5" y="-280" font-family="Helvetica,sans-Serif" font-size="10.00">ant::TaggerDetector_t</text>
</g>
<!-- Node2 -->
<g id="node3" class="node"><title>Node2</title>
<g id="a_node3"><a xlink:href="structant_1_1expconfig_1_1detector_1_1_e_p_t.html" target="_top" xlink:title="ant::expconfig::detector::EPT">
<polygon fill="white" stroke="black" points="282,-395 282,-414 436,-414 436,-395 282,-395"/>
<text text-anchor="middle" x="359" y="-402" font-family="Helvetica,sans-Serif" font-size="10.00">ant::expconfig::detector::EPT</text>
</a>
</g>
</g>
<!-- Node0&#45;&gt;Node2 -->
<g id="edge2" class="edge"><title>Node0&#45;&gt;Node2</title>
<path fill="none" stroke="midnightblue" d="M208.314,-298.018C244.313,-323.626 315.109,-373.988 344.605,-394.971"/>
<polygon fill="midnightblue" stroke="midnightblue" points="210.135,-295.018 199.957,-292.073 206.077,-300.722 210.135,-295.018"/>
</g>
<!-- Node4 -->
<g id="node5" class="node"><title>Node4</title>
<g id="a_node5"><a xlink:href="structant_1_1expconfig_1_1detector_1_1_tagger.html" target="_top" xlink:title="ant::expconfig::detector\l::Tagger">
<polygon fill="white" stroke="black" points="293.5,-245.5 293.5,-275.5 424.5,-275.5 424.5,-245.5 293.5,-245.5"/>
<text text-anchor="start" x="301.5" y="-263.5" font-family="Helvetica,sans-Serif" font-size="10.00">ant::expconfig::detector</text>
<text text-anchor="middle" x="359" y="-252.5" font-family="Helvetica,sans-Serif" font-size="10.00">::Tagger</text>
</a>
</g>
</g>
<!-- Node0&#45;&gt;Node4 -->
<g id="edge4" class="edge"><title>Node0&#45;&gt;Node4</title>
<path fill="none" stroke="midnightblue" d="M256.186,-273.561C268.466,-271.985 281.202,-270.352 293.337,-268.795"/>
<polygon fill="midnightblue" stroke="midnightblue" points="255.474,-270.123 246.001,-274.867 256.365,-277.066 255.474,-270.123"/>
</g>
<!-- Node1 -->
<g id="node2" class="node"><title>Node1</title>
<g id="a_node2"><a xlink:href="structant_1_1_detector__t.html" target="_top" xlink:title="The Detector_t struct is the minimal base class for all detectors. ">
<polygon fill="white" stroke="black" points="0,-273 0,-292 89,-292 89,-273 0,-273"/>
<text text-anchor="middle" x="44.5" y="-280" font-family="Helvetica,sans-Serif" font-size="10.00">ant::Detector_t</text>
</a>
</g>
</g>
<!-- Node1&#45;&gt;Node0 -->
<g id="edge1" class="edge"><title>Node1&#45;&gt;Node0</title>
<path fill="none" stroke="midnightblue" d="M99.1354,-282.5C107.525,-282.5 116.24,-282.5 124.756,-282.5"/>
<polygon fill="midnightblue" stroke="midnightblue" points="99.0991,-279 89.0991,-282.5 99.0991,-286 99.0991,-279"/>
</g>
<!-- Node3 -->
<g id="node4" class="node"><title>Node3</title>
<g id="a_node4"><a xlink:href="structant_1_1expconfig_1_1detector_1_1_e_p_t__2014.html" target="_top" xlink:title="ant::expconfig::detector\l::EPT_2014">
<polygon fill="white" stroke="black" points="472,-490.5 472,-520.5 603,-520.5 603,-490.5 472,-490.5"/>
<text text-anchor="start" x="480" y="-508.5" font-family="Helvetica,sans-Serif" font-size="10.00">ant::expconfig::detector</text>
<text text-anchor="middle" x="537.5" y="-497.5" font-family="Helvetica,sans-Serif" font-size="10.00">::EPT_2014</text>
</a>
</g>
</g>
<!-- Node2&#45;&gt;Node3 -->
<g id="edge3" class="edge"><title>Node2&#45;&gt;Node3</title>
<path fill="none" stroke="midnightblue" d="M379.901,-420.433C401.586,-437.243 437.771,-463.713 472,-481.5 478.149,-484.695 484.823,-487.675 491.468,-490.372"/>
<polygon fill="midnightblue" stroke="midnightblue" points="381.835,-417.502 371.807,-414.083 377.515,-423.01 381.835,-417.502"/>
</g>
<!-- Node5 -->
<g id="node6" class="node"><title>Node5</title>
<g id="a_node6"><a xlink:href="structant_1_1expconfig_1_1detector_1_1_tagger__2007.html" target="_top" xlink:title="ant::expconfig::detector\l::Tagger_2007">
<polygon fill="white" stroke="black" points="472,-441.5 472,-471.5 603,-471.5 603,-441.5 472,-441.5"/>
<text text-anchor="start" x="480" y="-459.5" font-family="Helvetica,sans-Serif" font-size="10.00">ant::expconfig::detector</text>
<text text-anchor="middle" x="537.5" y="-448.5" font-family="Helvetica,sans-Serif" font-size="10.00">::Tagger_2007</text>
</a>
</g>
</g>
<!-- Node4&#45;&gt;Node5 -->
<g id="edge5" class="edge"><title>Node4&#45;&gt;Node5</title>
<path fill="none" stroke="midnightblue" d="M374.464,-284.495C401.585,-329.209 458.558,-421.743 472,-432.5 476.291,-435.934 481.123,-438.909 486.162,-441.479"/>
<polygon fill="midnightblue" stroke="midnightblue" points="377.329,-282.468 369.157,-275.726 371.341,-286.093 377.329,-282.468"/>
</g>
<!-- Node6 -->
<g id="node7" class="node"><title>Node6</title>
<g id="a_node7"><a xlink:href="structant_1_1expconfig_1_1detector_1_1_tagger__2010__03.html" target="_top" xlink:title="ant::expconfig::detector\l::Tagger_2010_03">
<polygon fill="white" stroke="black" points="472,-392.5 472,-422.5 603,-422.5 603,-392.5 472,-392.5"/>
<text text-anchor="start" x="480" y="-410.5" font-family="Helvetica,sans-Serif" font-size="10.00">ant::expconfig::detector</text>
<text text-anchor="middle" x="537.5" y="-399.5" font-family="Helvetica,sans-Serif" font-size="10.00">::Tagger_2010_03</text>
</a>
</g>
</g>
<!-- Node4&#45;&gt;Node6 -->
<g id="edge6" class="edge"><title>Node4&#45;&gt;Node6</title>
<path fill="none" stroke="midnightblue" d="M376.093,-284.121C395.813,-311.462 431.62,-356.217 472,-383.5 476.95,-386.844 482.427,-389.798 488.036,-392.386"/>
<polygon fill="midnightblue" stroke="midnightblue" points="378.907,-282.038 370.271,-275.9 373.194,-286.084 378.907,-282.038"/>
</g>
<!-- Node7 -->
<g id="node8" class="node"><title>Node7</title>
<g id="a_node8"><a xlink:href="structant_1_1expconfig_1_1detector_1_1_tagger__2015.html" target="_top" xlink:title="ant::expconfig::detector\l::Tagger_2015">
<polygon fill="white" stroke="black" points="472,-343.5 472,-373.5 603,-373.5 603,-343.5 472,-343.5"/>
<text text-anchor="start" x="480" y="-361.5" font-family="Helvetica,sans-Serif" font-size="10.00">ant::expconfig::detector</text>
<text text-anchor="middle" x="537.5" y="-350.5" font-family="Helvetica,sans-Serif" font-size="10.00">::Tagger_2015</text>
</a>
</g>
</g>
<!-- Node4&#45;&gt;Node7 -->
<g id="edge7" class="edge"><title>Node4&#45;&gt;Node7</title>
<path fill="none" stroke="midnightblue" d="M388.523,-281.47C410.583,-297.091 442.279,-318.264 472,-333.5 478.947,-337.061 486.524,-340.425 493.964,-343.464"/>
<polygon fill="midnightblue" stroke="midnightblue" points="390.444,-278.541 380.274,-275.569 386.371,-284.234 390.444,-278.541"/>
</g>
<!-- Node8 -->
<g id="node9" class="node"><title>Node8</title>
<g id="a_node9"><a xlink:href="structant_1_1expconfig_1_1detector_1_1_tagger__2016__06.html" target="_top" xlink:title="ant::expconfig::detector\l::Tagger_2016_06">
<polygon fill="white" stroke="black" points="472,-294.5 472,-324.5 603,-324.5 603,-294.5 472,-294.5"/>
<text text-anchor="start" x="480" y="-312.5" font-family="Helvetica,sans-Serif" font-size="10.00">ant::expconfig::detector</text>
<text text-anchor="middle" x="537.5" y="-301.5" font-family="Helvetica,sans-Serif" font-size="10.00">::Tagger_2016_06</text>
</a>
</g>
</g>
<!-- Node4&#45;&gt;Node8 -->
<g id="edge8" class="edge"><title>Node4&#45;&gt;Node8</title>
<path fill="none" stroke="midnightblue" d="M424.193,-278.321C443.25,-283.612 463.927,-289.352 482.284,-294.448"/>
<polygon fill="midnightblue" stroke="midnightblue" points="424.968,-274.904 414.396,-275.601 423.095,-281.649 424.968,-274.904"/>
</g>
<!-- Node9 -->
<g id="node10" class="node"><title>Node9</title>
<g id="a_node10"><a xlink:href="structant_1_1expconfig_1_1detector_1_1_tagger__2017__12.html" target="_top" xlink:title="ant::expconfig::detector\l::Tagger_2017_12">
<polygon fill="white" stroke="black" points="472,-245.5 472,-275.5 603,-275.5 603,-245.5 472,-245.5"/>
<text text-anchor="start" x="480" y="-263.5" font-family="Helvetica,sans-Serif" font-size="10.00">ant::expconfig::detector</text>
<text text-anchor="middle" x="537.5" y="-252.5" font-family="Helvetica,sans-Serif" font-size="10.00">::Tagger_2017_12</text>
</a>
</g>
</g>
<!-- Node4&#45;&gt;Node9 -->
<g id="edge9" class="edge"><title>Node4&#45;&gt;Node9</title>
<path fill="none" stroke="midnightblue" d="M434.918,-260.5C447.182,-260.5 459.798,-260.5 471.788,-260.5"/>
<polygon fill="midnightblue" stroke="midnightblue" points="434.72,-257 424.72,-260.5 434.72,-264 434.72,-257"/>
</g>
<!-- Node10 -->
<g id="node11" class="node"><title>Node10</title>
<g id="a_node11"><a xlink:href="structant_1_1expconfig_1_1detector_1_1_tagger__2018__03.html" target="_top" xlink:title="ant::expconfig::detector\l::Tagger_2018_03">
<polygon fill="white" stroke="black" points="472,-196.5 472,-226.5 603,-226.5 603,-196.5 472,-196.5"/>
<text text-anchor="start" x="480" y="-214.5" font-family="Helvetica,sans-Serif" font-size="10.00">ant::expconfig::detector</text>
<text text-anchor="middle" x="537.5" y="-203.5" font-family="Helvetica,sans-Serif" font-size="10.00">::Tagger_2018_03</text>
</a>
</g>
</g>
<!-- Node4&#45;&gt;Node10 -->
<g id="edge10" class="edge"><title>Node4&#45;&gt;Node10</title>
<path fill="none" stroke="midnightblue" d="M424.193,-242.679C443.25,-237.388 463.927,-231.648 482.284,-226.552"/>
<polygon fill="midnightblue" stroke="midnightblue" points="423.095,-239.351 414.396,-245.399 424.968,-246.096 423.095,-239.351"/>
</g>
<!-- Node11 -->
<g id="node12" class="node"><title>Node11</title>
<g id="a_node12"><a xlink:href="structant_1_1expconfig_1_1detector_1_1_tagger__2018__11.html" target="_top" xlink:title="ant::expconfig::detector\l::Tagger_2018_11">
<polygon fill="white" stroke="black" points="472,-147.5 472,-177.5 603,-177.5 603,-147.5 472,-147.5"/>
<text text-anchor="start" x="480" y="-165.5" font-family="Helvetica,sans-Serif" font-size="10.00">ant::expconfig::detector</text>
<text text-anchor="middle" x="537.5" y="-154.5" font-family="Helvetica,sans-Serif" font-size="10.00">::Tagger_2018_11</text>
</a>
</g>
</g>
<!-- Node4&#45;&gt;Node11 -->
<g id="edge11" class="edge"><title>Node4&#45;&gt;Node11</title>
<path fill="none" stroke="midnightblue" d="M388.017,-239.388C410.038,-223.448 441.918,-201.783 472,-186.5 478.285,-183.307 485.099,-180.311 491.864,-177.591"/>
<polygon fill="midnightblue" stroke="midnightblue" points="385.798,-236.675 379.795,-245.405 389.932,-242.323 385.798,-236.675"/>
</g>
<!-- Node12 -->
<g id="node13" class="node"><title>Node12</title>
<g id="a_node13"><a xlink:href="structant_1_1expconfig_1_1detector_1_1_tagger__2019__01.html" target="_top" xlink:title="ant::expconfig::detector\l::Tagger_2019_01">
<polygon fill="white" stroke="black" points="472,-98.5 472,-128.5 603,-128.5 603,-98.5 472,-98.5"/>
<text text-anchor="start" x="480" y="-116.5" font-family="Helvetica,sans-Serif" font-size="10.00">ant::expconfig::detector</text>
<text text-anchor="middle" x="537.5" y="-105.5" font-family="Helvetica,sans-Serif" font-size="10.00">::Tagger_2019_01</text>
</a>
</g>
</g>
<!-- Node4&#45;&gt;Node12 -->
<g id="edge12" class="edge"><title>Node4&#45;&gt;Node12</title>
<path fill="none" stroke="midnightblue" d="M376.093,-236.879C395.813,-209.538 431.62,-164.783 472,-137.5 476.95,-134.156 482.427,-131.202 488.036,-128.614"/>
<polygon fill="midnightblue" stroke="midnightblue" points="373.194,-234.916 370.271,-245.1 378.907,-238.962 373.194,-234.916"/>
</g>
<!-- Node13 -->
<g id="node14" class="node"><title>Node13</title>
<g id="a_node14"><a xlink:href="structant_1_1expconfig_1_1detector_1_1_tagger__2019__06.html" target="_top" xlink:title="ant::expconfig::detector\l::Tagger_2019_06">
<polygon fill="white" stroke="black" points="472,-49.5 472,-79.5 603,-79.5 603,-49.5 472,-49.5"/>
<text text-anchor="start" x="480" y="-67.5" font-family="Helvetica,sans-Serif" font-size="10.00">ant::expconfig::detector</text>
<text text-anchor="middle" x="537.5" y="-56.5" font-family="Helvetica,sans-Serif" font-size="10.00">::Tagger_2019_06</text>
</a>
</g>
</g>
<!-- Node4&#45;&gt;Node13 -->
<g id="edge13" class="edge"><title>Node4&#45;&gt;Node13</title>
<path fill="none" stroke="midnightblue" d="M369.999,-235.789C386.157,-198.783 421.393,-129 472,-88.5 476.291,-85.0659 481.123,-82.091 486.162,-79.5212"/>
<polygon fill="midnightblue" stroke="midnightblue" points="366.645,-234.734 365.951,-245.306 373.086,-237.474 366.645,-234.734"/>
</g>
<!-- Node14 -->
<g id="node15" class="node"><title>Node14</title>
<g id="a_node15"><a xlink:href="structant_1_1expconfig_1_1detector_1_1_tagger__2019__07.html" target="_top" xlink:title="ant::expconfig::detector\l::Tagger_2019_07">
<polygon fill="white" stroke="black" points="472,-0.5 472,-30.5 603,-30.5 603,-0.5 472,-0.5"/>
<text text-anchor="start" x="480" y="-18.5" font-family="Helvetica,sans-Serif" font-size="10.00">ant::expconfig::detector</text>
<text text-anchor="middle" x="537.5" y="-7.5" font-family="Helvetica,sans-Serif" font-size="10.00">::Tagger_2019_07</text>
</a>
</g>
</g>
<!-- Node4&#45;&gt;Node14 -->
<g id="edge14" class="edge"><title>Node4&#45;&gt;Node14</title>
<path fill="none" stroke="midnightblue" d="M366.2,-235.371C378.635,-190.02 410.816,-94.1422 472,-39.5 475.832,-36.0778 480.196,-33.1281 484.806,-30.5888"/>
<polygon fill="midnightblue" stroke="midnightblue" points="362.759,-234.694 363.585,-245.256 369.526,-236.484 362.759,-234.694"/>
</g>
</g>
</svg>
