<?xml version="1.0" encoding="UTF-8" standalone="no"?>
<!DOCTYPE svg PUBLIC "-//W3C//DTD SVG 1.1//EN"
 "http://www.w3.org/Graphics/SVG/1.1/DTD/svg11.dtd">
<!-- Generated by graphviz version 2.38.0 (20140413.2041)
 -->
<!-- Title: ant::hstack::options_t Pages: 1 -->
<svg width="850pt" height="234pt"
 viewBox="0.00 0.00 850.00 233.50" xmlns="http://www.w3.org/2000/svg" xmlns:xlink="http://www.w3.org/1999/xlink">
<g id="graph0" class="graph" transform="scale(1 1) rotate(0) translate(4 229.5)">
<title>ant::hstack::options_t</title>
<polygon fill="white" stroke="none" points="-4,4 -4,-229.5 846,-229.5 846,4 -4,4"/>
<!-- Node1 -->
<g id="node1" class="node"><title>Node1</title>
<polygon fill="#bfbfbf" stroke="black" points="722,-134 722,-153 842,-153 842,-134 722,-134"/>
<text text-anchor="middle" x="782" y="-141" font-family="Helvetica,sans-Serif" font-size="10.00">ant::hstack::options_t</text>
</g>
<!-- Node2 -->
<g id="node2" class="node"><title>Node2</title>
<g id="a_node2"><a xlink:href="classant_1_1interval.html" target="_top" xlink:title="ant::interval\&lt; double \&gt;">
<polygon fill="white" stroke="black" points="273,-194 273,-213 401,-213 401,-194 273,-194"/>
<text text-anchor="middle" x="337" y="-201" font-family="Helvetica,sans-Serif" font-size="10.00">ant::interval&lt; double &gt;</text>
</a>
</g>
</g>
<!-- Node2&#45;&gt;Node1 -->
<g id="edge1" class="edge"><title>Node2&#45;&gt;Node1</title>
<path fill="none" stroke="#9a32cd" stroke-dasharray="5,2" d="M411.295,-211.064C413.894,-211.229 416.468,-211.375 419,-211.5 546.359,-217.774 582.684,-217.767 704,-178.5 724.956,-171.717 747.79,-160.867 763.107,-153.044"/>
<polygon fill="#9a32cd" stroke="#9a32cd" points="411.411,-207.564 401.188,-210.347 410.915,-214.546 411.411,-207.564"/>
<text text-anchor="middle" x="548" y="-217.5" font-family="Helvetica,sans-Serif" font-size="10.00"> YAxisRange</text>
</g>
<!-- Node9 -->
<g id="node9" class="node"><title>Node9</title>
<g id="a_node9"><a xlink:href="classant_1_1interval.html" target="_top" xlink:title="ant::interval\&lt; ant\l::interval\&lt; double \&gt; \&gt;">
<polygon fill="white" stroke="black" points="486,-158.5 486,-188.5 610,-188.5 610,-158.5 486,-158.5"/>
<text text-anchor="start" x="494" y="-176.5" font-family="Helvetica,sans-Serif" font-size="10.00">ant::interval&lt; ant</text>
<text text-anchor="middle" x="548" y="-165.5" font-family="Helvetica,sans-Serif" font-size="10.00">::interval&lt; double &gt; &gt;</text>
</a>
</g>
</g>
<!-- Node2&#45;&gt;Node9 -->
<g id="edge10" class="edge"><title>Node2&#45;&gt;Node9</title>
<path fill="none" stroke="#9a32cd" stroke-dasharray="5,2" d="M401.186,-192.285C407.201,-191.306 413.213,-190.361 419,-189.5 440.708,-186.269 464.554,-183.167 485.719,-180.569"/>
<polygon fill="#9a32cd" stroke="#9a32cd" points="400.392,-188.869 391.099,-193.956 401.537,-195.775 400.392,-188.869"/>
<text text-anchor="middle" x="443.5" y="-203.5" font-family="Helvetica,sans-Serif" font-size="10.00"> _start</text>
<text text-anchor="middle" x="443.5" y="-192.5" font-family="Helvetica,sans-Serif" font-size="10.00">_stop</text>
</g>
<!-- Node3 -->
<g id="node3" class="node"><title>Node3</title>
<polygon fill="white" stroke="#bfbfbf" points="488.5,-99 488.5,-140 607.5,-140 607.5,-99 488.5,-99"/>
<text text-anchor="start" x="496.5" y="-128" font-family="Helvetica,sans-Serif" font-size="10.00">std::map&lt; TH1 *, ant</text>
<text text-anchor="start" x="496.5" y="-117" font-family="Helvetica,sans-Serif" font-size="10.00">::hstack::options_t::</text>
<text text-anchor="middle" x="548" y="-106" font-family="Helvetica,sans-Serif" font-size="10.00">scale_t &gt;</text>
</g>
<!-- Node3&#45;&gt;Node1 -->
<g id="edge2" class="edge"><title>Node3&#45;&gt;Node1</title>
<path fill="none" stroke="#9a32cd" stroke-dasharray="5,2" d="M617.749,-122.951C644.7,-124.677 675.854,-127.133 704,-130.5 711.942,-131.45 720.313,-132.653 728.494,-133.941"/>
<polygon fill="#9a32cd" stroke="#9a32cd" points="617.838,-119.45 607.641,-122.325 617.405,-126.437 617.838,-119.45"/>
<text text-anchor="middle" x="666" y="-133.5" font-family="Helvetica,sans-Serif" font-size="10.00"> AppliedScale</text>
</g>
<!-- Node4 -->
<g id="node4" class="node"><title>Node4</title>
<g id="a_node4"><a xlink:href="structant_1_1hstack_1_1options__t_1_1scale__t.html" target="_top" xlink:title="ant::hstack::options\l_t::scale_t">
<polygon fill="white" stroke="black" points="281.5,-104.5 281.5,-134.5 392.5,-134.5 392.5,-104.5 281.5,-104.5"/>
<text text-anchor="start" x="289.5" y="-122.5" font-family="Helvetica,sans-Serif" font-size="10.00">ant::hstack::options</text>
<text text-anchor="middle" x="337" y="-111.5" font-family="Helvetica,sans-Serif" font-size="10.00">_t::scale_t</text>
</a>
</g>
</g>
<!-- Node4&#45;&gt;Node3 -->
<g id="edge3" class="edge"><title>Node4&#45;&gt;Node3</title>
<path fill="none" stroke="#9a32cd" stroke-dasharray="5,2" d="M402.873,-119.5C430.165,-119.5 461.69,-119.5 488.284,-119.5"/>
<polygon fill="#9a32cd" stroke="#9a32cd" points="402.639,-116 392.639,-119.5 402.639,-123 402.639,-116"/>
<text text-anchor="middle" x="443.5" y="-122.5" font-family="Helvetica,sans-Serif" font-size="10.00"> elements</text>
</g>
<!-- Node5 -->
<g id="node5" class="node"><title>Node5</title>
<polygon fill="white" stroke="#bfbfbf" points="487,-39 487,-80 609,-80 609,-39 487,-39"/>
<text text-anchor="start" x="495" y="-68" font-family="Helvetica,sans-Serif" font-size="10.00">std::map&lt; std::string,</text>
<text text-anchor="start" x="495" y="-57" font-family="Helvetica,sans-Serif" font-size="10.00"> ant::hstack::options</text>
<text text-anchor="middle" x="548" y="-46" font-family="Helvetica,sans-Serif" font-size="10.00">_t::hist_t &gt;</text>
</g>
<!-- Node5&#45;&gt;Node1 -->
<g id="edge4" class="edge"><title>Node5&#45;&gt;Node1</title>
<path fill="none" stroke="#9a32cd" stroke-dasharray="5,2" d="M618.821,-80.3293C645.666,-88.7785 676.466,-99.0125 704,-109.5 723.665,-116.99 745.57,-126.812 760.973,-133.972"/>
<polygon fill="#9a32cd" stroke="#9a32cd" points="619.712,-76.9408 609.123,-77.3 617.624,-83.6224 619.712,-76.9408"/>
<text text-anchor="middle" x="666" y="-112.5" font-family="Helvetica,sans-Serif" font-size="10.00"> PerHist</text>
</g>
<!-- Node6 -->
<g id="node6" class="node"><title>Node6</title>
<g id="a_node6"><a xlink:href="structant_1_1hstack_1_1options__t_1_1hist__t.html" target="_top" xlink:title="ant::hstack::options\l_t::hist_t">
<polygon fill="white" stroke="black" points="281.5,-0.5 281.5,-30.5 392.5,-30.5 392.5,-0.5 281.5,-0.5"/>
<text text-anchor="start" x="289.5" y="-18.5" font-family="Helvetica,sans-Serif" font-size="10.00">ant::hstack::options</text>
<text text-anchor="middle" x="337" y="-7.5" font-family="Helvetica,sans-Serif" font-size="10.00">_t::hist_t</text>
</a>
</g>
</g>
<!-- Node6&#45;&gt;Node5 -->
<g id="edge5" class="edge"><title>Node6&#45;&gt;Node5</title>
<path fill="none" stroke="#9a32cd" stroke-dasharray="5,2" d="M402.754,-28.8535C423.592,-33.1763 446.778,-38.0128 468,-42.5 474.039,-43.7769 480.336,-45.1171 486.624,-46.4611"/>
<polygon fill="#9a32cd" stroke="#9a32cd" points="403.234,-25.3787 392.732,-26.7765 401.813,-32.233 403.234,-25.3787"/>
<text text-anchor="middle" x="443.5" y="-45.5" font-family="Helvetica,sans-Serif" font-size="10.00"> elements</text>
</g>
<!-- Node7 -->
<g id="node7" class="node"><title>Node7</title>
<g id="a_node7"><a xlink:title="STL class. ">
<polygon fill="white" stroke="#bfbfbf" points="140,-45 140,-64 205,-64 205,-45 140,-45"/>
<text text-anchor="middle" x="172.5" y="-52" font-family="Helvetica,sans-Serif" font-size="10.00">std::string</text>
</a>
</g>
</g>
<!-- Node7&#45;&gt;Node5 -->
<g id="edge8" class="edge"><title>Node7&#45;&gt;Node5</title>
<path fill="none" stroke="#9a32cd" stroke-dasharray="5,2" d="M215.073,-55.0565C281.192,-55.9417 410.611,-57.6742 486.846,-58.6947"/>
<polygon fill="#9a32cd" stroke="#9a32cd" points="215.068,-51.5563 205.023,-54.922 214.975,-58.5556 215.068,-51.5563"/>
<text text-anchor="middle" x="337" y="-60.5" font-family="Helvetica,sans-Serif" font-size="10.00"> keys</text>
</g>
<!-- Node7&#45;&gt;Node6 -->
<g id="edge6" class="edge"><title>Node7&#45;&gt;Node6</title>
<path fill="none" stroke="#9a32cd" stroke-dasharray="5,2" d="M214.994,-44.4304C217.703,-43.7761 220.39,-43.1282 223,-42.5 242.022,-37.9218 262.852,-32.9366 281.39,-28.5102"/>
<polygon fill="#9a32cd" stroke="#9a32cd" points="214.081,-41.05 205.184,-46.8026 215.727,-47.8539 214.081,-41.05"/>
<text text-anchor="middle" x="239" y="-45.5" font-family="Helvetica,sans-Serif" font-size="10.00"> AddTo</text>
</g>
<!-- Node8 -->
<g id="node8" class="node"><title>Node8</title>
<g id="a_node8"><a xlink:title="STL class. ">
<polygon fill="white" stroke="#bfbfbf" points="0,-39.5 0,-69.5 103,-69.5 103,-39.5 0,-39.5"/>
<text text-anchor="start" x="8" y="-57.5" font-family="Helvetica,sans-Serif" font-size="10.00">std::basic_string&lt;</text>
<text text-anchor="middle" x="51.5" y="-46.5" font-family="Helvetica,sans-Serif" font-size="10.00"> char &gt;</text>
</a>
</g>
</g>
<!-- Node8&#45;&gt;Node7 -->
<g id="edge7" class="edge"><title>Node8&#45;&gt;Node7</title>
<path fill="none" stroke="midnightblue" d="M113.539,-54.5C122.619,-54.5 131.651,-54.5 139.788,-54.5"/>
<polygon fill="midnightblue" stroke="midnightblue" points="113.312,-51.0001 103.312,-54.5 113.312,-58.0001 113.312,-51.0001"/>
</g>
<!-- Node9&#45;&gt;Node1 -->
<g id="edge9" class="edge"><title>Node9&#45;&gt;Node1</title>
<path fill="none" stroke="#9a32cd" stroke-dasharray="5,2" d="M620.591,-164.243C653.053,-160.045 690.981,-155.14 721.804,-151.155"/>
<polygon fill="#9a32cd" stroke="#9a32cd" points="619.727,-160.825 610.259,-165.579 620.625,-167.767 619.727,-160.825"/>
<text text-anchor="middle" x="666" y="-166.5" font-family="Helvetica,sans-Serif" font-size="10.00"> LegendPosition</text>
</g>
</g>
</svg>
