<?xml version="1.0" encoding="UTF-8" standalone="no"?>
<!DOCTYPE svg PUBLIC "-//W3C//DTD SVG 1.1//EN"
 "http://www.w3.org/Graphics/SVG/1.1/DTD/svg11.dtd">
<!-- Generated by graphviz version 2.38.0 (20140413.2041)
 -->
<!-- Title: UpdateableItem Pages: 1 -->
<svg width="363pt" height="95pt"
 viewBox="0.00 0.00 362.50 95.00" xmlns="http://www.w3.org/2000/svg" xmlns:xlink="http://www.w3.org/1999/xlink">
<g id="graph0" class="graph" transform="scale(1 1) rotate(0) translate(4 91)">
<title>UpdateableItem</title>
<polygon fill="white" stroke="none" points="-4,4 -4,-91 358.5,-91 358.5,4 -4,4"/>
<!-- Node2 -->
<g id="node1" class="node"><title>Node2</title>
<polygon fill="#bfbfbf" stroke="black" points="148,-0.5 148,-19.5 242,-19.5 242,-0.5 148,-0.5"/>
<text text-anchor="middle" x="195" y="-7.5" font-family="Helvetica,sans-Serif" font-size="10.00">UpdateableItem</text>
</g>
<!-- Node3 -->
<g id="node2" class="node"><title>Node3</title>
<g id="a_node2"><a xlink:href="structant_1_1_updateable__traits.html" target="_top" xlink:title="The Updateable_traits class used by the UpdateableManager. ">
<polygon fill="white" stroke="black" points="0,-67.5 0,-86.5 124,-86.5 124,-67.5 0,-67.5"/>
<text text-anchor="middle" x="62" y="-74.5" font-family="Helvetica,sans-Serif" font-size="10.00">ant::Updateable_traits</text>
</a>
</g>
</g>
<!-- Node3&#45;&gt;Node2 -->
<g id="edge1" class="edge"><title>Node3&#45;&gt;Node2</title>
<path fill="none" stroke="midnightblue" d="M88.7153,-62.9436C115.059,-50.0691 154.574,-30.7573 177.266,-19.6672"/>
<polygon fill="midnightblue" stroke="midnightblue" points="87.109,-59.833 79.6614,-67.3685 90.1826,-66.1221 87.109,-59.833"/>
</g>
<!-- Node4 -->
<g id="node3" class="node"><title>Node4</title>
<polygon fill="white" stroke="#bfbfbf" points="142.5,-67.5 142.5,-86.5 247.5,-86.5 247.5,-67.5 142.5,-67.5"/>
<text text-anchor="middle" x="195" y="-74.5" font-family="Helvetica,sans-Serif" font-size="10.00">std::vector&lt; TID &gt;</text>
</g>
<!-- Node4&#45;&gt;Node2 -->
<g id="edge2" class="edge"><title>Node4&#45;&gt;Node2</title>
<path fill="none" stroke="#9a32cd" stroke-dasharray="5,2" d="M195,-57.037C195,-44.6703 195,-29.1198 195,-19.6273"/>
<polygon fill="#9a32cd" stroke="#9a32cd" points="191.5,-57.2338 195,-67.2338 198.5,-57.2338 191.5,-57.2338"/>
<text text-anchor="middle" x="229" y="-41" font-family="Helvetica,sans-Serif" font-size="10.00"> UpdatePoints</text>
</g>
<!-- Node5 -->
<g id="node4" class="node"><title>Node5</title>
<polygon fill="white" stroke="#bfbfbf" points="265.5,-67.5 265.5,-86.5 354.5,-86.5 354.5,-67.5 265.5,-67.5"/>
<text text-anchor="middle" x="310" y="-74.5" font-family="Helvetica,sans-Serif" font-size="10.00">std::list&lt; TID &gt;</text>
</g>
<!-- Node5&#45;&gt;Node2 -->
<g id="edge3" class="edge"><title>Node5&#45;&gt;Node2</title>
<path fill="none" stroke="#9a32cd" stroke-dasharray="5,2" d="M294.67,-59.9633C286.914,-52.5312 277.033,-44.0312 267,-38 254.071,-30.2277 238.527,-24.0562 225.196,-19.5867"/>
<polygon fill="#9a32cd" stroke="#9a32cd" points="292.609,-62.8514 302.158,-67.4413 297.556,-57.8983 292.609,-62.8514"/>
<text text-anchor="middle" x="318" y="-41" font-family="Helvetica,sans-Serif" font-size="10.00"> ChangePoints</text>
</g>
</g>
</svg>
