<?xml version="1.0" encoding="UTF-8" standalone="no"?>
<!DOCTYPE svg PUBLIC "-//W3C//DTD SVG 1.1//EN"
 "http://www.w3.org/Graphics/SVG/1.1/DTD/svg11.dtd">
<!-- Generated by graphviz version 2.38.0 (20140413.2041)
 -->
<!-- Title: Constraint_t Pages: 1 -->
<svg width="145pt" height="206pt"
 viewBox="0.00 0.00 145.00 206.00" xmlns="http://www.w3.org/2000/svg" xmlns:xlink="http://www.w3.org/1999/xlink">
<g id="graph0" class="graph" transform="scale(1 1) rotate(0) translate(4 202)">
<title>Constraint_t</title>
<polygon fill="white" stroke="none" points="-4,4 -4,-202 141,-202 141,4 -4,4"/>
<!-- Node1 -->
<g id="node1" class="node"><title>Node1</title>
<polygon fill="#bfbfbf" stroke="black" points="31,-0.5 31,-19.5 106,-19.5 106,-0.5 31,-0.5"/>
<text text-anchor="middle" x="68.5" y="-7.5" font-family="Helvetica,sans-Serif" font-size="10.00">Constraint_t</text>
</g>
<!-- Node2 -->
<g id="node2" class="node"><title>Node2</title>
<g id="a_node2"><a xlink:href="structant_1_1std__ext_1_1_r_m_s__t.html" target="_top" xlink:title="ant::std_ext::RMS_t\&lt; T \&gt;">
<polygon fill="white" stroke="black" points="0,-100.5 0,-119.5 137,-119.5 137,-100.5 0,-100.5"/>
<text text-anchor="middle" x="68.5" y="-107.5" font-family="Helvetica,sans-Serif" font-size="10.00">ant::std_ext::RMS_t&lt; T &gt;</text>
</a>
</g>
</g>
<!-- Node2&#45;&gt;Node1 -->
<g id="edge1" class="edge"><title>Node2&#45;&gt;Node1</title>
<path fill="none" stroke="#9a32cd" stroke-dasharray="5,2" d="M68.5,-90.2203C68.5,-68.9514 68.5,-35.2197 68.5,-19.5374"/>
<polygon fill="#9a32cd" stroke="#9a32cd" points="65.0001,-90.3031 68.5,-100.303 72.0001,-90.3032 65.0001,-90.3031"/>
<text text-anchor="middle" x="74.5" y="-74" font-family="Helvetica,sans-Serif" font-size="10.00"> E</text>
<text text-anchor="middle" x="74.5" y="-63" font-family="Helvetica,sans-Serif" font-size="10.00">px</text>
<text text-anchor="middle" x="74.5" y="-52" font-family="Helvetica,sans-Serif" font-size="10.00">py</text>
<text text-anchor="middle" x="74.5" y="-41" font-family="Helvetica,sans-Serif" font-size="10.00">pz</text>
</g>
<!-- Node3 -->
<g id="node3" class="node"><title>Node3</title>
<polygon fill="white" stroke="#bfbfbf" points="54,-178.5 54,-197.5 83,-197.5 83,-178.5 54,-178.5"/>
<text text-anchor="middle" x="68.5" y="-185.5" font-family="Helvetica,sans-Serif" font-size="10.00">T</text>
</g>
<!-- Node3&#45;&gt;Node2 -->
<g id="edge2" class="edge"><title>Node3&#45;&gt;Node2</title>
<path fill="none" stroke="#9a32cd" stroke-dasharray="5,2" d="M68.5,-168.224C68.5,-152.697 68.5,-131.358 68.5,-119.616"/>
<polygon fill="#9a32cd" stroke="#9a32cd" points="65.0001,-168.282 68.5,-178.282 72.0001,-168.282 65.0001,-168.282"/>
<text text-anchor="middle" x="82.5" y="-152" font-family="Helvetica,sans-Serif" font-size="10.00"> sum</text>
<text text-anchor="middle" x="82.5" y="-141" font-family="Helvetica,sans-Serif" font-size="10.00">sum2</text>
</g>
</g>
</svg>
