<?xml version="1.0" encoding="UTF-8" standalone="no"?>
<!DOCTYPE svg PUBLIC "-//W3C//DTD SVG 1.1//EN"
 "http://www.w3.org/Graphics/SVG/1.1/DTD/svg11.dtd">
<!-- Generated by graphviz version 2.38.0 (20140413.2041)
 -->
<!-- Title: ant::analysis::physics::sigmaPlus::fitRatings_t Pages: 1 -->
<svg width="452pt" height="163pt"
 viewBox="0.00 0.00 451.50 163.00" xmlns="http://www.w3.org/2000/svg" xmlns:xlink="http://www.w3.org/1999/xlink">
<g id="graph0" class="graph" transform="scale(1 1) rotate(0) translate(4 159)">
<title>ant::analysis::physics::sigmaPlus::fitRatings_t</title>
<polygon fill="white" stroke="none" points="-4,4 -4,-159 447.5,-159 447.5,4 -4,4"/>
<!-- Node1 -->
<g id="node1" class="node"><title>Node1</title>
<polygon fill="#bfbfbf" stroke="black" points="167.5,-0.5 167.5,-30.5 298.5,-30.5 298.5,-0.5 167.5,-0.5"/>
<text text-anchor="start" x="175.5" y="-18.5" font-family="Helvetica,sans-Serif" font-size="10.00">ant::analysis::physics</text>
<text text-anchor="middle" x="233" y="-7.5" font-family="Helvetica,sans-Serif" font-size="10.00">::sigmaPlus::fitRatings_t</text>
</g>
<!-- Node2 -->
<g id="node2" class="node"><title>Node2</title>
<polygon fill="white" stroke="#bfbfbf" points="0,-78.5 0,-97.5 134,-97.5 134,-78.5 0,-78.5"/>
<text text-anchor="middle" x="67" y="-85.5" font-family="Helvetica,sans-Serif" font-size="10.00">std::vector&lt; unsigned &gt;</text>
</g>
<!-- Node2&#45;&gt;Node1 -->
<g id="edge1" class="edge"><title>Node2&#45;&gt;Node1</title>
<path fill="none" stroke="#9a32cd" stroke-dasharray="5,2" d="M88.2868,-72.6981C100.435,-64.9666 116.159,-55.6658 131,-49 146.852,-41.8803 164.731,-35.626 181.042,-30.5546"/>
<polygon fill="#9a32cd" stroke="#9a32cd" points="86.2452,-69.8507 79.7679,-78.2349 90.06,-75.72 86.2452,-69.8507"/>
<text text-anchor="middle" x="180" y="-52" font-family="Helvetica,sans-Serif" font-size="10.00"> PhotonCombination</text>
</g>
<!-- Node3 -->
<g id="node3" class="node"><title>Node3</title>
<polygon fill="white" stroke="#bfbfbf" points="152,-78.5 152,-97.5 314,-97.5 314,-78.5 152,-78.5"/>
<text text-anchor="middle" x="233" y="-85.5" font-family="Helvetica,sans-Serif" font-size="10.00">std::vector&lt; TLorentzVector &gt;</text>
</g>
<!-- Node3&#45;&gt;Node1 -->
<g id="edge2" class="edge"><title>Node3&#45;&gt;Node1</title>
<path fill="none" stroke="#9a32cd" stroke-dasharray="5,2" d="M233,-68.2362C233,-56.4079 233,-41.3829 233,-30.5762"/>
<polygon fill="#9a32cd" stroke="#9a32cd" points="229.5,-68.3553 233,-78.3553 236.5,-68.3554 229.5,-68.3553"/>
<text text-anchor="middle" x="268" y="-52" font-family="Helvetica,sans-Serif" font-size="10.00"> Intermediates</text>
</g>
<!-- Node4 -->
<g id="node4" class="node"><title>Node4</title>
<g id="a_node4"><a xlink:href="structant_1_1_t_simple_particle.html" target="_top" xlink:title="Base TSimpleParticle class. ">
<polygon fill="white" stroke="black" points="332.5,-78.5 332.5,-97.5 443.5,-97.5 443.5,-78.5 332.5,-78.5"/>
<text text-anchor="middle" x="388" y="-85.5" font-family="Helvetica,sans-Serif" font-size="10.00">ant::TSimpleParticle</text>
</a>
</g>
</g>
<!-- Node4&#45;&gt;Node1 -->
<g id="edge3" class="edge"><title>Node4&#45;&gt;Node1</title>
<path fill="none" stroke="#9a32cd" stroke-dasharray="5,2" d="M360.905,-74.0834C345.205,-66.6508 325.037,-57.1903 307,-49 293.457,-42.8505 278.442,-36.2215 265.497,-30.5644"/>
<polygon fill="#9a32cd" stroke="#9a32cd" points="359.508,-77.2949 370.043,-78.4197 362.509,-70.9707 359.508,-77.2949"/>
<text text-anchor="middle" x="346.5" y="-52" font-family="Helvetica,sans-Serif" font-size="10.00"> Proton</text>
</g>
<!-- Node5 -->
<g id="node5" class="node"><title>Node5</title>
<polygon fill="white" stroke="#bfbfbf" points="343.5,-135.5 343.5,-154.5 432.5,-154.5 432.5,-135.5 343.5,-135.5"/>
<text text-anchor="middle" x="388" y="-142.5" font-family="Helvetica,sans-Serif" font-size="10.00">TLorentzVector</text>
</g>
<!-- Node5&#45;&gt;Node4 -->
<g id="edge4" class="edge"><title>Node5&#45;&gt;Node4</title>
<path fill="none" stroke="midnightblue" d="M388,-125.117C388,-115.817 388,-105.056 388,-97.7149"/>
<polygon fill="midnightblue" stroke="midnightblue" points="384.5,-125.406 388,-135.406 391.5,-125.406 384.5,-125.406"/>
</g>
</g>
</svg>
