<?xml version="1.0" encoding="UTF-8" standalone="no"?>
<!DOCTYPE svg PUBLIC "-//W3C//DTD SVG 1.1//EN"
 "http://www.w3.org/Graphics/SVG/1.1/DTD/svg11.dtd">
<!-- Generated by graphviz version 2.38.0 (20140413.2041)
 -->
<!-- Title: sigmaPlus_FinalPlot::SigmaK0Hist_t Pages: 1 -->
<svg width="270pt" height="262pt"
 viewBox="0.00 0.00 269.50 262.00" xmlns="http://www.w3.org/2000/svg" xmlns:xlink="http://www.w3.org/1999/xlink">
<g id="graph0" class="graph" transform="scale(1 1) rotate(0) translate(4 258)">
<title>sigmaPlus_FinalPlot::SigmaK0Hist_t</title>
<polygon fill="white" stroke="none" points="-4,4 -4,-258 265.5,-258 265.5,4 -4,4"/>
<!-- Node1 -->
<g id="node1" class="node"><title>Node1</title>
<polygon fill="#bfbfbf" stroke="black" points="59.5,-0.5 59.5,-30.5 169.5,-30.5 169.5,-0.5 59.5,-0.5"/>
<text text-anchor="start" x="67.5" y="-18.5" font-family="Helvetica,sans-Serif" font-size="10.00">sigmaPlus_FinalPlot</text>
<text text-anchor="middle" x="114.5" y="-7.5" font-family="Helvetica,sans-Serif" font-size="10.00">::SigmaK0Hist_t</text>
</g>
<!-- Node2 -->
<g id="node2" class="node"><title>Node2</title>
<g id="a_node2"><a xlink:href="classant_1_1analysis_1_1_histogram_factory.html" target="_top" xlink:title="ant::analysis::Histogram\lFactory">
<polygon fill="white" stroke="black" points="0,-166.5 0,-196.5 133,-196.5 133,-166.5 0,-166.5"/>
<text text-anchor="start" x="8" y="-184.5" font-family="Helvetica,sans-Serif" font-size="10.00">ant::analysis::Histogram</text>
<text text-anchor="middle" x="66.5" y="-173.5" font-family="Helvetica,sans-Serif" font-size="10.00">Factory</text>
</a>
</g>
</g>
<!-- Node2&#45;&gt;Node1 -->
<g id="edge1" class="edge"><title>Node2&#45;&gt;Node1</title>
<path fill="none" stroke="#9a32cd" stroke-dasharray="5,2" d="M72.4683,-156.251C79.1524,-129.724 90.6153,-86.043 102.5,-49 104.448,-42.9292 106.84,-36.3138 108.974,-30.6455"/>
<polygon fill="#9a32cd" stroke="#9a32cd" points="69.0169,-155.626 69.989,-166.176 75.8082,-157.322 69.0169,-155.626"/>
<text text-anchor="middle" x="121.5" y="-96" font-family="Helvetica,sans-Serif" font-size="10.00"> HistFac</text>
</g>
<!-- Node3 -->
<g id="node3" class="node"><title>Node3</title>
<g id="a_node3"><a xlink:href="classant_1_1_bin_settings.html" target="_top" xlink:title="ant::BinSettings">
<polygon fill="white" stroke="black" points="151,-172 151,-191 244,-191 244,-172 151,-172"/>
<text text-anchor="middle" x="197.5" y="-179" font-family="Helvetica,sans-Serif" font-size="10.00">ant::BinSettings</text>
</a>
</g>
</g>
<!-- Node3&#45;&gt;Node1 -->
<g id="edge2" class="edge"><title>Node3&#45;&gt;Node1</title>
<path fill="none" stroke="#9a32cd" stroke-dasharray="5,2" d="M191.289,-162.104C182.082,-135.972 163.407,-87.0521 140.5,-49 136.699,-42.6856 131.799,-36.2435 127.28,-30.7779"/>
<polygon fill="#9a32cd" stroke="#9a32cd" points="188.068,-163.5 194.64,-171.81 194.685,-161.215 188.068,-163.5"/>
<text text-anchor="middle" x="217" y="-140" font-family="Helvetica,sans-Serif" font-size="10.00"> pEbins</text>
<text text-anchor="middle" x="217" y="-129" font-family="Helvetica,sans-Serif" font-size="10.00">Chi2Bins</text>
<text text-anchor="middle" x="217" y="-118" font-family="Helvetica,sans-Serif" font-size="10.00">taggerBins</text>
<text text-anchor="middle" x="217" y="-107" font-family="Helvetica,sans-Serif" font-size="10.00">pThetaBins</text>
<text text-anchor="middle" x="217" y="-96" font-family="Helvetica,sans-Serif" font-size="10.00">IM2g</text>
<text text-anchor="middle" x="217" y="-85" font-family="Helvetica,sans-Serif" font-size="10.00">IMProtonBins</text>
<text text-anchor="middle" x="217" y="-74" font-family="Helvetica,sans-Serif" font-size="10.00">Ebins</text>
<text text-anchor="middle" x="217" y="-63" font-family="Helvetica,sans-Serif" font-size="10.00">probbins</text>
<text text-anchor="middle" x="217" y="-52" font-family="Helvetica,sans-Serif" font-size="10.00">IMbins</text>
</g>
<!-- Node4 -->
<g id="node4" class="node"><title>Node4</title>
<g id="a_node4"><a xlink:href="classant_1_1interval.html" target="_top" xlink:title="ant::interval\&lt; double \&gt;">
<polygon fill="white" stroke="black" points="133.5,-234.5 133.5,-253.5 261.5,-253.5 261.5,-234.5 133.5,-234.5"/>
<text text-anchor="middle" x="197.5" y="-241.5" font-family="Helvetica,sans-Serif" font-size="10.00">ant::interval&lt; double &gt;</text>
</a>
</g>
</g>
<!-- Node4&#45;&gt;Node3 -->
<g id="edge3" class="edge"><title>Node4&#45;&gt;Node3</title>
<path fill="none" stroke="midnightblue" d="M197.5,-224.003C197.5,-213 197.5,-199.682 197.5,-191.152"/>
<polygon fill="midnightblue" stroke="midnightblue" points="194,-224.332 197.5,-234.332 201,-224.332 194,-224.332"/>
</g>
</g>
</svg>
