<?xml version="1.0" encoding="UTF-8" standalone="no"?>
<!DOCTYPE svg PUBLIC "-//W3C//DTD SVG 1.1//EN"
 "http://www.w3.org/Graphics/SVG/1.1/DTD/svg11.dtd">
<!-- Generated by graphviz version 2.38.0 (20140413.2041)
 -->
<!-- Title: ant::analysis::slowcontrol::event_t Pages: 1 -->
<svg width="2360pt" height="640pt"
 viewBox="0.00 0.00 2360.00 640.30" xmlns="http://www.w3.org/2000/svg" xmlns:xlink="http://www.w3.org/1999/xlink">
<g id="graph0" class="graph" transform="scale(1 1) rotate(0) translate(4 636.302)">
<title>ant::analysis::slowcontrol::event_t</title>
<polygon fill="white" stroke="none" points="-4,4 -4,-636.302 2356,-636.302 2356,4 -4,4"/>
<!-- Node1 -->
<g id="node1" class="node"><title>Node1</title>
<polygon fill="#bfbfbf" stroke="black" points="2216,-217.302 2216,-247.302 2352,-247.302 2352,-217.302 2216,-217.302"/>
<text text-anchor="start" x="2224" y="-235.302" font-family="Helvetica,sans-Serif" font-size="10.00">ant::analysis::slowcontrol</text>
<text text-anchor="middle" x="2284" y="-224.302" font-family="Helvetica,sans-Serif" font-size="10.00">::event_t</text>
</g>
<!-- Node2 -->
<g id="node2" class="node"><title>Node2</title>
<polygon fill="white" stroke="#bfbfbf" points="1987,-242.802 1987,-261.802 2099,-261.802 2099,-242.802 1987,-242.802"/>
<text text-anchor="middle" x="2043" y="-249.802" font-family="Helvetica,sans-Serif" font-size="10.00">std::list&lt; action_t &gt;</text>
</g>
<!-- Node2&#45;&gt;Node1 -->
<g id="edge1" class="edge"><title>Node2&#45;&gt;Node1</title>
<path fill="none" stroke="#9a32cd" stroke-dasharray="5,2" d="M2109.16,-246.85C2142.25,-244.08 2182.41,-240.72 2215.79,-237.927"/>
<polygon fill="#9a32cd" stroke="#9a32cd" points="2108.8,-243.367 2099.13,-247.689 2109.39,-250.343 2108.8,-243.367"/>
<text text-anchor="middle" x="2157.5" y="-249.302" font-family="Helvetica,sans-Serif" font-size="10.00"> DeferredActions</text>
</g>
<!-- Node3 -->
<g id="node3" class="node"><title>Node3</title>
<g id="a_node3"><a xlink:href="structant_1_1analysis_1_1input_1_1event__t.html" target="_top" xlink:title="ant::analysis::input\l::event_t">
<polygon fill="white" stroke="black" points="1989.5,-193.302 1989.5,-223.302 2096.5,-223.302 2096.5,-193.302 1989.5,-193.302"/>
<text text-anchor="start" x="1997.5" y="-211.302" font-family="Helvetica,sans-Serif" font-size="10.00">ant::analysis::input</text>
<text text-anchor="middle" x="2043" y="-200.302" font-family="Helvetica,sans-Serif" font-size="10.00">::event_t</text>
</a>
</g>
</g>
<!-- Node3&#45;&gt;Node1 -->
<g id="edge2" class="edge"><title>Node3&#45;&gt;Node1</title>
<path fill="none" stroke="#9a32cd" stroke-dasharray="5,2" d="M2106.89,-214.617C2140.41,-217.984 2181.67,-222.127 2215.82,-225.557"/>
<polygon fill="#9a32cd" stroke="#9a32cd" points="2107.05,-211.116 2096.75,-213.599 2106.35,-218.081 2107.05,-211.116"/>
<text text-anchor="middle" x="2157.5" y="-226.302" font-family="Helvetica,sans-Serif" font-size="10.00"> Event</text>
</g>
<!-- Node4 -->
<g id="node4" class="node"><title>Node4</title>
<g id="a_node4"><a xlink:href="structant_1_1_t_event.html" target="_top" xlink:title="ant::TEvent">
<polygon fill="white" stroke="black" points="1879,-198.802 1879,-217.802 1950,-217.802 1950,-198.802 1879,-198.802"/>
<text text-anchor="middle" x="1914.5" y="-205.802" font-family="Helvetica,sans-Serif" font-size="10.00">ant::TEvent</text>
</a>
</g>
</g>
<!-- Node4&#45;&gt;Node3 -->
<g id="edge3" class="edge"><title>Node4&#45;&gt;Node3</title>
<path fill="none" stroke="midnightblue" d="M1960.08,-208.302C1969.57,-208.302 1979.67,-208.302 1989.43,-208.302"/>
<polygon fill="midnightblue" stroke="midnightblue" points="1960.07,-204.803 1950.07,-208.302 1960.07,-211.803 1960.07,-204.803"/>
</g>
<!-- Node5 -->
<g id="node5" class="node"><title>Node5</title>
<polygon fill="white" stroke="#bfbfbf" points="1657,-193.302 1657,-223.302 1773,-223.302 1773,-193.302 1657,-193.302"/>
<text text-anchor="start" x="1665" y="-211.302" font-family="Helvetica,sans-Serif" font-size="10.00">std::unique_ptr&lt; ant</text>
<text text-anchor="middle" x="1715" y="-200.302" font-family="Helvetica,sans-Serif" font-size="10.00">::TEventData &gt;</text>
</g>
<!-- Node5&#45;&gt;Node4 -->
<g id="edge4" class="edge"><title>Node5&#45;&gt;Node4</title>
<path fill="none" stroke="#9a32cd" stroke-dasharray="5,2" d="M1783.35,-208.302C1815.44,-208.302 1852.47,-208.302 1878.81,-208.302"/>
<polygon fill="#9a32cd" stroke="#9a32cd" points="1783.13,-204.803 1773.13,-208.302 1783.13,-211.803 1783.13,-204.803"/>
<text text-anchor="middle" x="1826" y="-222.302" font-family="Helvetica,sans-Serif" font-size="10.00"> reconstructed</text>
<text text-anchor="middle" x="1826" y="-211.302" font-family="Helvetica,sans-Serif" font-size="10.00">mctrue</text>
</g>
<!-- Node6 -->
<g id="node6" class="node"><title>Node6</title>
<g id="a_node6"><a xlink:href="structant_1_1_t_event_data.html" target="_top" xlink:title="ant::TEventData">
<polygon fill="white" stroke="black" points="1510,-198.802 1510,-217.802 1604,-217.802 1604,-198.802 1510,-198.802"/>
<text text-anchor="middle" x="1557" y="-205.802" font-family="Helvetica,sans-Serif" font-size="10.00">ant::TEventData</text>
</a>
</g>
</g>
<!-- Node6&#45;&gt;Node5 -->
<g id="edge5" class="edge"><title>Node6&#45;&gt;Node5</title>
<path fill="none" stroke="#9a32cd" stroke-dasharray="5,2" d="M1614.65,-208.302C1628.35,-208.302 1643.01,-208.302 1656.74,-208.302"/>
<polygon fill="#9a32cd" stroke="#9a32cd" points="1614.38,-204.803 1604.38,-208.302 1614.38,-211.803 1614.38,-204.803"/>
<text text-anchor="middle" x="1630.5" y="-211.302" font-family="Helvetica,sans-Serif" font-size="10.00"> ptr</text>
</g>
<!-- Node7 -->
<g id="node7" class="node"><title>Node7</title>
<g id="a_node7"><a xlink:href="classant_1_1std__ext_1_1shared__ptr__container.html" target="_top" xlink:title="ant::std_ext::shared\l_ptr_container\&lt; TCandidate \&gt;">
<polygon fill="white" stroke="black" points="1219,-466.302 1219,-496.302 1380,-496.302 1380,-466.302 1219,-466.302"/>
<text text-anchor="start" x="1227" y="-484.302" font-family="Helvetica,sans-Serif" font-size="10.00">ant::std_ext::shared</text>
<text text-anchor="middle" x="1299.5" y="-473.302" font-family="Helvetica,sans-Serif" font-size="10.00">_ptr_container&lt; TCandidate &gt;</text>
</a>
</g>
</g>
<!-- Node7&#45;&gt;Node6 -->
<g id="edge6" class="edge"><title>Node7&#45;&gt;Node6</title>
<path fill="none" stroke="#9a32cd" stroke-dasharray="5,2" d="M1390.48,-472.217C1426.31,-464.28 1465.29,-449.55 1492,-422.302 1550.64,-362.491 1555.89,-251.262 1556.1,-217.963"/>
<polygon fill="#9a32cd" stroke="#9a32cd" points="1389.56,-468.833 1380.47,-474.28 1390.97,-475.689 1389.56,-468.833"/>
<text text-anchor="middle" x="1448" y="-470.302" font-family="Helvetica,sans-Serif" font-size="10.00"> Candidates</text>
</g>
<!-- Node8 -->
<g id="node8" class="node"><title>Node8</title>
<g id="a_node8"><a xlink:href="classant_1_1std__ext_1_1shared__ptr__container.html" target="_top" xlink:title="ant::std_ext::shared\l_ptr_container\&lt; TCluster \&gt;">
<polygon fill="white" stroke="black" points="1226.5,-417.302 1226.5,-447.302 1372.5,-447.302 1372.5,-417.302 1226.5,-417.302"/>
<text text-anchor="start" x="1234.5" y="-435.302" font-family="Helvetica,sans-Serif" font-size="10.00">ant::std_ext::shared</text>
<text text-anchor="middle" x="1299.5" y="-424.302" font-family="Helvetica,sans-Serif" font-size="10.00">_ptr_container&lt; TCluster &gt;</text>
</a>
</g>
</g>
<!-- Node8&#45;&gt;Node6 -->
<g id="edge7" class="edge"><title>Node8&#45;&gt;Node6</title>
<path fill="none" stroke="#9a32cd" stroke-dasharray="5,2" d="M1382.48,-415.358C1420.21,-403.812 1462.94,-384.873 1492,-354.302 1531.28,-312.984 1548.79,-243.624 1554.12,-218.107"/>
<polygon fill="#9a32cd" stroke="#9a32cd" points="1381.12,-412.111 1372.5,-418.279 1383.09,-418.829 1381.12,-412.111"/>
<text text-anchor="middle" x="1448" y="-410.302" font-family="Helvetica,sans-Serif" font-size="10.00"> Clusters</text>
</g>
<!-- Node9 -->
<g id="node9" class="node"><title>Node9</title>
<g id="a_node9"><a xlink:href="classant_1_1_tree.html" target="_top" xlink:title="ant::Tree\&lt; TParticlePtr \&gt;">
<polygon fill="white" stroke="black" points="1232.5,-378.802 1232.5,-397.802 1366.5,-397.802 1366.5,-378.802 1232.5,-378.802"/>
<text text-anchor="middle" x="1299.5" y="-385.802" font-family="Helvetica,sans-Serif" font-size="10.00">ant::Tree&lt; TParticlePtr &gt;</text>
</a>
</g>
</g>
<!-- Node9&#45;&gt;Node6 -->
<g id="edge8" class="edge"><title>Node9&#45;&gt;Node6</title>
<path fill="none" stroke="#9a32cd" stroke-dasharray="5,2" d="M1333.25,-374.767C1373.23,-357.288 1441.73,-324.198 1492,-283.302 1516.43,-263.426 1538.81,-233.377 1549.46,-218.046"/>
<polygon fill="#9a32cd" stroke="#9a32cd" points="1331.76,-371.596 1323.96,-378.768 1334.53,-378.024 1331.76,-371.596"/>
<text text-anchor="middle" x="1448" y="-342.302" font-family="Helvetica,sans-Serif" font-size="10.00"> ParticleTree</text>
</g>
<!-- Node10 -->
<g id="node10" class="node"><title>Node10</title>
<polygon fill="white" stroke="#bfbfbf" points="383,-547.802 383,-566.802 490,-566.802 490,-547.802 383,-547.802"/>
<text text-anchor="middle" x="436.5" y="-554.802" font-family="Helvetica,sans-Serif" font-size="10.00">std::list&lt; node_t &gt;</text>
</g>
<!-- Node10&#45;&gt;Node9 -->
<g id="edge9" class="edge"><title>Node10&#45;&gt;Node9</title>
<path fill="none" stroke="#9a32cd" stroke-dasharray="5,2" d="M477.685,-569.624C603.24,-605.378 991.891,-694.816 1195,-501.302 1225.8,-471.961 1183.37,-437.82 1213,-407.302 1218.4,-401.739 1225.05,-397.638 1232.22,-394.637"/>
<polygon fill="#9a32cd" stroke="#9a32cd" points="478.65,-566.26 468.072,-566.844 476.706,-572.984 478.65,-566.26"/>
<text text-anchor="middle" x="858" y="-624.302" font-family="Helvetica,sans-Serif" font-size="10.00"> daughters</text>
</g>
<!-- Node12 -->
<g id="node12" class="node"><title>Node12</title>
<g id="a_node12"><a xlink:href="classant_1_1_tree.html" target="_top" xlink:title="ant::Tree\&lt; T \&gt;">
<polygon fill="white" stroke="black" points="640,-512.802 640,-531.802 726,-531.802 726,-512.802 640,-512.802"/>
<text text-anchor="middle" x="683" y="-519.802" font-family="Helvetica,sans-Serif" font-size="10.00">ant::Tree&lt; T &gt;</text>
</a>
</g>
</g>
<!-- Node10&#45;&gt;Node12 -->
<g id="edge12" class="edge"><title>Node10&#45;&gt;Node12</title>
<path fill="none" stroke="#9a32cd" stroke-dasharray="5,2" d="M500.368,-547.174C508.976,-545.841 517.703,-544.517 526,-543.302 564.531,-537.662 608.503,-531.794 639.919,-527.7"/>
<polygon fill="#9a32cd" stroke="#9a32cd" points="499.692,-543.737 490.351,-548.737 500.771,-550.653 499.692,-543.737"/>
<text text-anchor="middle" x="555" y="-546.302" font-family="Helvetica,sans-Serif" font-size="10.00"> daughters</text>
</g>
<!-- Node11 -->
<g id="node11" class="node"><title>Node11</title>
<polygon fill="white" stroke="#bfbfbf" points="955,-479.802 955,-498.802 1077,-498.802 1077,-479.802 955,-479.802"/>
<text text-anchor="middle" x="1016" y="-486.802" font-family="Helvetica,sans-Serif" font-size="10.00">std::weak_ptr&lt; Tree &gt;</text>
</g>
<!-- Node11&#45;&gt;Node9 -->
<g id="edge10" class="edge"><title>Node11&#45;&gt;Node9</title>
<path fill="none" stroke="#9a32cd" stroke-dasharray="5,2" d="M1087.48,-479.002C1122.43,-471.19 1163.74,-457.635 1195,-434.302 1206.56,-425.675 1201.1,-415.455 1213,-407.302 1218.9,-403.263 1225.51,-400.066 1232.38,-397.539"/>
<polygon fill="#9a32cd" stroke="#9a32cd" points="1086.39,-475.655 1077.33,-481.151 1087.84,-482.503 1086.39,-475.655"/>
<text text-anchor="middle" x="1146.5" y="-489.302" font-family="Helvetica,sans-Serif" font-size="10.00"> parent</text>
<text text-anchor="middle" x="1146.5" y="-478.302" font-family="Helvetica,sans-Serif" font-size="10.00">self</text>
</g>
<!-- Node11&#45;&gt;Node12 -->
<g id="edge13" class="edge"><title>Node11&#45;&gt;Node12</title>
<path fill="none" stroke="#9a32cd" stroke-dasharray="5,2" d="M944.905,-480.416C898.233,-476.442 835.828,-474.879 782,-486.302 773.436,-488.12 772.138,-491.076 764,-494.302 747.311,-500.919 728.36,-507.588 713.093,-512.757"/>
<polygon fill="#9a32cd" stroke="#9a32cd" points="944.639,-483.906 954.915,-481.325 945.272,-476.935 944.639,-483.906"/>
<text text-anchor="middle" x="858" y="-500.302" font-family="Helvetica,sans-Serif" font-size="10.00"> parent</text>
<text text-anchor="middle" x="858" y="-489.302" font-family="Helvetica,sans-Serif" font-size="10.00">self</text>
</g>
<!-- Node12&#45;&gt;Node11 -->
<g id="edge11" class="edge"><title>Node12&#45;&gt;Node11</title>
<path fill="none" stroke="#9a32cd" stroke-dasharray="5,2" d="M736.412,-523.789C787.243,-524.39 866.382,-523.098 934,-512.302 952.189,-509.398 972.095,-503.781 987.622,-498.825"/>
<polygon fill="#9a32cd" stroke="#9a32cd" points="736.373,-520.288 726.322,-523.641 736.27,-527.288 736.373,-520.288"/>
<text text-anchor="middle" x="858" y="-526.302" font-family="Helvetica,sans-Serif" font-size="10.00"> ptr</text>
</g>
<!-- Node13 -->
<g id="node13" class="node"><title>Node13</title>
<polygon fill="white" stroke="#bfbfbf" points="422,-498.802 422,-517.802 451,-517.802 451,-498.802 422,-498.802"/>
<text text-anchor="middle" x="436.5" y="-505.802" font-family="Helvetica,sans-Serif" font-size="10.00">T</text>
</g>
<!-- Node13&#45;&gt;Node12 -->
<g id="edge14" class="edge"><title>Node13&#45;&gt;Node12</title>
<path fill="none" stroke="#9a32cd" stroke-dasharray="5,2" d="M461.259,-507.554C490.267,-506.85 540.802,-506.302 584,-509.302 602.32,-510.575 622.446,-513.055 639.668,-515.511"/>
<polygon fill="#9a32cd" stroke="#9a32cd" points="461.158,-504.055 451.256,-507.824 461.347,-511.053 461.158,-504.055"/>
<text text-anchor="middle" x="555" y="-512.302" font-family="Helvetica,sans-Serif" font-size="10.00"> data</text>
</g>
<!-- Node14 -->
<g id="node14" class="node"><title>Node14</title>
<g id="a_node14"><a xlink:href="structant_1_1std__ext_1_1cc__shared__ptr.html" target="_top" xlink:title="ant::std_ext::cc_shared\l_ptr\&lt; T \&gt;">
<polygon fill="white" stroke="black" points="952,-416.302 952,-446.302 1080,-446.302 1080,-416.302 952,-416.302"/>
<text text-anchor="start" x="960" y="-434.302" font-family="Helvetica,sans-Serif" font-size="10.00">ant::std_ext::cc_shared</text>
<text text-anchor="middle" x="1016" y="-423.302" font-family="Helvetica,sans-Serif" font-size="10.00">_ptr&lt; T &gt;</text>
</a>
</g>
</g>
<!-- Node14&#45;&gt;Node9 -->
<g id="edge15" class="edge"><title>Node14&#45;&gt;Node9</title>
<path fill="none" stroke="#9a32cd" stroke-dasharray="5,2" d="M1090.22,-420.118C1135.47,-413.206 1192.92,-404.43 1236.02,-397.846"/>
<polygon fill="#9a32cd" stroke="#9a32cd" points="1089.53,-416.682 1080.17,-421.652 1090.59,-423.602 1089.53,-416.682"/>
<text text-anchor="middle" x="1146.5" y="-422.302" font-family="Helvetica,sans-Serif" font-size="10.00"> data</text>
</g>
<!-- Node15 -->
<g id="node15" class="node"><title>Node15</title>
<polygon fill="white" stroke="#bfbfbf" points="1225.5,-286.302 1225.5,-316.302 1373.5,-316.302 1373.5,-286.302 1225.5,-286.302"/>
<text text-anchor="start" x="1233.5" y="-304.302" font-family="Helvetica,sans-Serif" font-size="10.00">std::vector&lt; ant::TDetector</text>
<text text-anchor="middle" x="1299.5" y="-293.302" font-family="Helvetica,sans-Serif" font-size="10.00">ReadHit &gt;</text>
</g>
<!-- Node15&#45;&gt;Node6 -->
<g id="edge16" class="edge"><title>Node15&#45;&gt;Node6</title>
<path fill="none" stroke="#9a32cd" stroke-dasharray="5,2" d="M1360.1,-283.125C1398.18,-271.085 1448.42,-254.407 1492,-237.302 1507.1,-231.375 1523.79,-223.779 1536.33,-217.848"/>
<polygon fill="#9a32cd" stroke="#9a32cd" points="1358.69,-279.901 1350.2,-286.239 1360.79,-286.579 1358.69,-279.901"/>
<text text-anchor="middle" x="1448" y="-271.302" font-family="Helvetica,sans-Serif" font-size="10.00"> DetectorReadHits</text>
</g>
<!-- Node16 -->
<g id="node16" class="node"><title>Node16</title>
<g id="a_node16"><a xlink:href="structant_1_1_t_detector_read_hit.html" target="_top" xlink:title="ant::TDetectorReadHit">
<polygon fill="white" stroke="black" points="955,-377.802 955,-396.802 1077,-396.802 1077,-377.802 955,-377.802"/>
<text text-anchor="middle" x="1016" y="-384.802" font-family="Helvetica,sans-Serif" font-size="10.00">ant::TDetectorReadHit</text>
</a>
</g>
</g>
<!-- Node16&#45;&gt;Node15 -->
<g id="edge17" class="edge"><title>Node16&#45;&gt;Node15</title>
<path fill="none" stroke="#9a32cd" stroke-dasharray="5,2" d="M1057.84,-374.825C1108.53,-359.339 1194.9,-332.953 1249.21,-316.359"/>
<polygon fill="#9a32cd" stroke="#9a32cd" points="1056.74,-371.501 1048.2,-377.77 1058.79,-378.196 1056.74,-371.501"/>
<text text-anchor="middle" x="1146.5" y="-365.302" font-family="Helvetica,sans-Serif" font-size="10.00"> elements</text>
</g>
<!-- Node17 -->
<g id="node17" class="node"><title>Node17</title>
<polygon fill="white" stroke="#bfbfbf" points="609,-416.302 609,-446.302 757,-446.302 757,-416.302 609,-416.302"/>
<text text-anchor="start" x="617" y="-434.302" font-family="Helvetica,sans-Serif" font-size="10.00">std::vector&lt; ant::TDetector</text>
<text text-anchor="middle" x="683" y="-423.302" font-family="Helvetica,sans-Serif" font-size="10.00">ReadHit::Value_t &gt;</text>
</g>
<!-- Node17&#45;&gt;Node16 -->
<g id="edge18" class="edge"><title>Node17&#45;&gt;Node16</title>
<path fill="none" stroke="#9a32cd" stroke-dasharray="5,2" d="M767.233,-421.067C815.885,-414.979 878.459,-406.97 934,-399.302 940.76,-398.369 947.832,-397.364 954.862,-396.347"/>
<polygon fill="#9a32cd" stroke="#9a32cd" points="766.56,-417.624 757.071,-422.336 767.427,-424.57 766.56,-417.624"/>
<text text-anchor="middle" x="858" y="-422.302" font-family="Helvetica,sans-Serif" font-size="10.00"> Values</text>
</g>
<!-- Node18 -->
<g id="node18" class="node"><title>Node18</title>
<g id="a_node18"><a xlink:href="structant_1_1_t_detector_read_hit_1_1_value__t.html" target="_top" xlink:title="ant::TDetectorReadHit\l::Value_t">
<polygon fill="white" stroke="black" points="375.5,-416.302 375.5,-446.302 497.5,-446.302 497.5,-416.302 375.5,-416.302"/>
<text text-anchor="start" x="383.5" y="-434.302" font-family="Helvetica,sans-Serif" font-size="10.00">ant::TDetectorReadHit</text>
<text text-anchor="middle" x="436.5" y="-423.302" font-family="Helvetica,sans-Serif" font-size="10.00">::Value_t</text>
</a>
</g>
</g>
<!-- Node18&#45;&gt;Node17 -->
<g id="edge19" class="edge"><title>Node18&#45;&gt;Node17</title>
<path fill="none" stroke="#9a32cd" stroke-dasharray="5,2" d="M507.671,-431.302C539.274,-431.302 576.589,-431.302 608.57,-431.302"/>
<polygon fill="#9a32cd" stroke="#9a32cd" points="507.625,-427.803 497.625,-431.302 507.625,-434.803 507.625,-427.803"/>
<text text-anchor="middle" x="555" y="-434.302" font-family="Helvetica,sans-Serif" font-size="10.00"> elements</text>
</g>
<!-- Node19 -->
<g id="node19" class="node"><title>Node19</title>
<polygon fill="white" stroke="#bfbfbf" points="628,-377.802 628,-396.802 738,-396.802 738,-377.802 628,-377.802"/>
<text text-anchor="middle" x="683" y="-384.802" font-family="Helvetica,sans-Serif" font-size="10.00">std::vector&lt; bool &gt;</text>
</g>
<!-- Node19&#45;&gt;Node16 -->
<g id="edge20" class="edge"><title>Node19&#45;&gt;Node16</title>
<path fill="none" stroke="#9a32cd" stroke-dasharray="5,2" d="M748.361,-387.302C808.118,-387.302 896.408,-387.302 954.795,-387.302"/>
<polygon fill="#9a32cd" stroke="#9a32cd" points="748.287,-383.803 738.287,-387.302 748.287,-390.803 748.287,-383.803"/>
<text text-anchor="middle" x="858" y="-390.302" font-family="Helvetica,sans-Serif" font-size="10.00"> ValueBits</text>
</g>
<!-- Node20 -->
<g id="node20" class="node"><title>Node20</title>
<polygon fill="white" stroke="#bfbfbf" points="611,-465.802 611,-484.802 755,-484.802 755,-465.802 611,-465.802"/>
<text text-anchor="middle" x="683" y="-472.802" font-family="Helvetica,sans-Serif" font-size="10.00">std::vector&lt; std::uint8_t &gt;</text>
</g>
<!-- Node20&#45;&gt;Node16 -->
<g id="edge21" class="edge"><title>Node20&#45;&gt;Node16</title>
<path fill="none" stroke="#9a32cd" stroke-dasharray="5,2" d="M758.556,-464.248C829.507,-453.502 926.562,-438.119 934,-433.302 946.106,-425.464 940.414,-414.89 952,-406.302 957.231,-402.425 963.256,-399.332 969.462,-396.867"/>
<polygon fill="#9a32cd" stroke="#9a32cd" points="757.657,-460.844 748.291,-465.798 758.702,-467.766 757.657,-460.844"/>
<text text-anchor="middle" x="858" y="-464.302" font-family="Helvetica,sans-Serif" font-size="10.00"> RawData</text>
</g>
<!-- Node21 -->
<g id="node21" class="node"><title>Node21</title>
<polygon fill="white" stroke="#bfbfbf" points="782,-116.302 782,-146.302 934,-146.302 934,-116.302 782,-116.302"/>
<text text-anchor="start" x="790" y="-134.302" font-family="Helvetica,sans-Serif" font-size="10.00">std::vector&lt; ant::TUnpacker</text>
<text text-anchor="middle" x="858" y="-123.302" font-family="Helvetica,sans-Serif" font-size="10.00">Message &gt;</text>
</g>
<!-- Node21&#45;&gt;Node6 -->
<g id="edge22" class="edge"><title>Node21&#45;&gt;Node6</title>
<path fill="none" stroke="#9a32cd" stroke-dasharray="5,2" d="M944.462,-133.597C1012.48,-135.973 1110.01,-140.608 1195,-149.302 1327.81,-162.889 1360.72,-170.025 1492,-194.302 1499.27,-195.647 1506.97,-197.211 1514.42,-198.797"/>
<polygon fill="#9a32cd" stroke="#9a32cd" points="944.34,-130.091 934.226,-133.249 944.101,-137.087 944.34,-130.091"/>
<text text-anchor="middle" x="1146.5" y="-152.302" font-family="Helvetica,sans-Serif" font-size="10.00"> UnpackerMessages</text>
</g>
<!-- Node22 -->
<g id="node22" class="node"><title>Node22</title>
<g id="a_node22"><a xlink:href="structant_1_1_t_unpacker_message.html" target="_top" xlink:title="ant::TUnpackerMessage">
<polygon fill="white" stroke="black" points="370.5,-115.802 370.5,-134.802 502.5,-134.802 502.5,-115.802 370.5,-115.802"/>
<text text-anchor="middle" x="436.5" y="-122.802" font-family="Helvetica,sans-Serif" font-size="10.00">ant::TUnpackerMessage</text>
</a>
</g>
</g>
<!-- Node22&#45;&gt;Node21 -->
<g id="edge23" class="edge"><title>Node22&#45;&gt;Node21</title>
<path fill="none" stroke="#9a32cd" stroke-dasharray="5,2" d="M513.046,-126.383C589.142,-127.471 705.865,-129.141 781.828,-130.227"/>
<polygon fill="#9a32cd" stroke="#9a32cd" points="512.636,-122.877 502.587,-126.233 512.535,-129.876 512.636,-122.877"/>
<text text-anchor="middle" x="555" y="-130.302" font-family="Helvetica,sans-Serif" font-size="10.00"> elements</text>
</g>
<!-- Node23 -->
<g id="node23" class="node"><title>Node23</title>
<g id="a_node23"><a xlink:title="STL class. ">
<polygon fill="white" stroke="#bfbfbf" points="168.5,-178.802 168.5,-197.802 233.5,-197.802 233.5,-178.802 168.5,-178.802"/>
<text text-anchor="middle" x="201" y="-185.802" font-family="Helvetica,sans-Serif" font-size="10.00">std::string</text>
</a>
</g>
</g>
<!-- Node23&#45;&gt;Node22 -->
<g id="edge24" class="edge"><title>Node23&#45;&gt;Node22</title>
<path fill="none" stroke="#9a32cd" stroke-dasharray="5,2" d="M230.862,-174.38C245.343,-167.838 263.313,-160.38 280,-155.302 309.197,-146.417 342.309,-139.597 370.452,-134.722"/>
<polygon fill="#9a32cd" stroke="#9a32cd" points="229.065,-171.354 221.452,-178.722 231.998,-177.71 229.065,-171.354"/>
<text text-anchor="middle" x="313.5" y="-158.302" font-family="Helvetica,sans-Serif" font-size="10.00"> Message</text>
</g>
<!-- Node34 -->
<g id="node34" class="node"><title>Node34</title>
<g id="a_node34"><a xlink:href="structant_1_1_t_slow_control.html" target="_top" xlink:title="ant::TSlowControl">
<polygon fill="white" stroke="black" points="966,-235.802 966,-254.802 1066,-254.802 1066,-235.802 966,-235.802"/>
<text text-anchor="middle" x="1016" y="-242.802" font-family="Helvetica,sans-Serif" font-size="10.00">ant::TSlowControl</text>
</a>
</g>
</g>
<!-- Node23&#45;&gt;Node34 -->
<g id="edge40" class="edge"><title>Node23&#45;&gt;Node34</title>
<path fill="none" stroke="#9a32cd" stroke-dasharray="5,2" d="M243.893,-190.08C337.322,-194.176 569.805,-205.11 764,-220.302 834.29,-225.802 915.445,-234.272 965.997,-239.801"/>
<polygon fill="#9a32cd" stroke="#9a32cd" points="243.863,-186.575 233.721,-189.637 243.559,-193.568 243.863,-186.575"/>
<text text-anchor="middle" x="555" y="-222.302" font-family="Helvetica,sans-Serif" font-size="10.00"> Description</text>
<text text-anchor="middle" x="555" y="-211.302" font-family="Helvetica,sans-Serif" font-size="10.00">Name</text>
</g>
<!-- Node40 -->
<g id="node40" class="node"><title>Node40</title>
<g id="a_node40"><a xlink:href="structant_1_1_t_key_value.html" target="_top" xlink:title="ant::TKeyValue\&lt; std\l::string \&gt;">
<polygon fill="white" stroke="black" points="380,-325.302 380,-355.302 493,-355.302 493,-325.302 380,-325.302"/>
<text text-anchor="start" x="388" y="-343.302" font-family="Helvetica,sans-Serif" font-size="10.00">ant::TKeyValue&lt; std</text>
<text text-anchor="middle" x="436.5" y="-332.302" font-family="Helvetica,sans-Serif" font-size="10.00">::string &gt;</text>
</a>
</g>
</g>
<!-- Node23&#45;&gt;Node40 -->
<g id="edge43" class="edge"><title>Node23&#45;&gt;Node40</title>
<path fill="none" stroke="#9a32cd" stroke-dasharray="5,2" d="M219.908,-204.865C248.676,-230.791 307.778,-281.296 365,-313.302 372.893,-317.717 381.652,-321.713 390.238,-325.196"/>
<polygon fill="#9a32cd" stroke="#9a32cd" points="222.058,-202.089 212.306,-197.947 217.346,-207.267 222.058,-202.089"/>
<text text-anchor="middle" x="313.5" y="-305.302" font-family="Helvetica,sans-Serif" font-size="10.00"> Value</text>
</g>
<!-- Node43 -->
<g id="node43" class="node"><title>Node43</title>
<g id="a_node43"><a xlink:href="structant_1_1_t_d_a_q_error.html" target="_top" xlink:title="ant::TDAQError">
<polygon fill="white" stroke="black" points="392,-153.802 392,-172.802 481,-172.802 481,-153.802 392,-153.802"/>
<text text-anchor="middle" x="436.5" y="-160.802" font-family="Helvetica,sans-Serif" font-size="10.00">ant::TDAQError</text>
</a>
</g>
</g>
<!-- Node23&#45;&gt;Node43 -->
<g id="edge47" class="edge"><title>Node23&#45;&gt;Node43</title>
<path fill="none" stroke="#9a32cd" stroke-dasharray="5,2" d="M243.773,-181.33C255.473,-179.526 268.214,-177.7 280,-176.302 317.663,-171.836 360.638,-168.367 391.851,-166.14"/>
<polygon fill="#9a32cd" stroke="#9a32cd" points="243.144,-177.886 233.81,-182.898 244.233,-184.801 243.144,-177.886"/>
<text text-anchor="middle" x="313.5" y="-179.302" font-family="Helvetica,sans-Serif" font-size="10.00"> ModuleName</text>
</g>
<!-- Node24 -->
<g id="node24" class="node"><title>Node24</title>
<g id="a_node24"><a xlink:title="STL class. ">
<polygon fill="white" stroke="#bfbfbf" points="0,-173.302 0,-203.302 103,-203.302 103,-173.302 0,-173.302"/>
<text text-anchor="start" x="8" y="-191.302" font-family="Helvetica,sans-Serif" font-size="10.00">std::basic_string&lt;</text>
<text text-anchor="middle" x="51.5" y="-180.302" font-family="Helvetica,sans-Serif" font-size="10.00"> char &gt;</text>
</a>
</g>
</g>
<!-- Node24&#45;&gt;Node23 -->
<g id="edge25" class="edge"><title>Node24&#45;&gt;Node23</title>
<path fill="none" stroke="midnightblue" d="M113.519,-188.302C132.251,-188.302 152.112,-188.302 168.071,-188.302"/>
<polygon fill="midnightblue" stroke="midnightblue" points="113.261,-184.803 103.261,-188.302 113.261,-191.803 113.261,-184.803"/>
</g>
<!-- Node25 -->
<g id="node25" class="node"><title>Node25</title>
<polygon fill="white" stroke="#bfbfbf" points="140,-97.8024 140,-116.802 262,-116.802 262,-97.8024 140,-97.8024"/>
<text text-anchor="middle" x="201" y="-104.802" font-family="Helvetica,sans-Serif" font-size="10.00">std::vector&lt; double &gt;</text>
</g>
<!-- Node25&#45;&gt;Node22 -->
<g id="edge26" class="edge"><title>Node25&#45;&gt;Node22</title>
<path fill="none" stroke="#9a32cd" stroke-dasharray="5,2" d="M272.108,-105.206C295.927,-105.179 322.668,-105.902 347,-108.302 362.57,-109.838 379.48,-112.768 394.307,-115.769"/>
<polygon fill="#9a32cd" stroke="#9a32cd" points="272.075,-101.706 262.094,-105.261 272.113,-108.706 272.075,-101.706"/>
<text text-anchor="middle" x="313.5" y="-111.302" font-family="Helvetica,sans-Serif" font-size="10.00"> Payload</text>
</g>
<!-- Node26 -->
<g id="node26" class="node"><title>Node26</title>
<polygon fill="white" stroke="#bfbfbf" points="1231,-78.3024 1231,-108.302 1368,-108.302 1368,-78.3024 1231,-78.3024"/>
<text text-anchor="start" x="1239" y="-96.3024" font-family="Helvetica,sans-Serif" font-size="10.00">std::vector&lt; ant::TTagger</text>
<text text-anchor="middle" x="1299.5" y="-85.3024" font-family="Helvetica,sans-Serif" font-size="10.00">Hit &gt;</text>
</g>
<!-- Node26&#45;&gt;Node6 -->
<g id="edge27" class="edge"><title>Node26&#45;&gt;Node6</title>
<path fill="none" stroke="#9a32cd" stroke-dasharray="5,2" d="M1378.49,-86.2213C1415.27,-86.4344 1458.36,-92.0982 1492,-112.302 1525.83,-132.619 1545.49,-178.516 1552.76,-198.593"/>
<polygon fill="#9a32cd" stroke="#9a32cd" points="1378.27,-82.7228 1368.3,-86.2982 1378.33,-89.7226 1378.27,-82.7228"/>
<text text-anchor="middle" x="1448" y="-115.302" font-family="Helvetica,sans-Serif" font-size="10.00"> TaggerHits</text>
</g>
<!-- Node27 -->
<g id="node27" class="node"><title>Node27</title>
<g id="a_node27"><a xlink:href="structant_1_1_t_tagger_hit.html" target="_top" xlink:title="ant::TTaggerHit">
<polygon fill="white" stroke="black" points="971.5,-79.8024 971.5,-98.8024 1060.5,-98.8024 1060.5,-79.8024 971.5,-79.8024"/>
<text text-anchor="middle" x="1016" y="-86.8024" font-family="Helvetica,sans-Serif" font-size="10.00">ant::TTaggerHit</text>
</a>
</g>
</g>
<!-- Node27&#45;&gt;Node26 -->
<g id="edge28" class="edge"><title>Node27&#45;&gt;Node26</title>
<path fill="none" stroke="#9a32cd" stroke-dasharray="5,2" d="M1070.93,-90.0688C1116.44,-90.7154 1181.82,-91.6444 1230.83,-92.3409"/>
<polygon fill="#9a32cd" stroke="#9a32cd" points="1070.72,-86.5656 1060.68,-89.923 1070.62,-93.5648 1070.72,-86.5656"/>
<text text-anchor="middle" x="1146.5" y="-95.3024" font-family="Helvetica,sans-Serif" font-size="10.00"> elements</text>
</g>
<!-- Node28 -->
<g id="node28" class="node"><title>Node28</title>
<polygon fill="white" stroke="#bfbfbf" points="614.5,-66.3024 614.5,-96.3024 751.5,-96.3024 751.5,-66.3024 614.5,-66.3024"/>
<text text-anchor="start" x="622.5" y="-84.3024" font-family="Helvetica,sans-Serif" font-size="10.00">std::vector&lt; ant::TTagger</text>
<text text-anchor="middle" x="683" y="-73.3024" font-family="Helvetica,sans-Serif" font-size="10.00">Hit::Electron_t &gt;</text>
</g>
<!-- Node28&#45;&gt;Node27 -->
<g id="edge29" class="edge"><title>Node28&#45;&gt;Node27</title>
<path fill="none" stroke="#9a32cd" stroke-dasharray="5,2" d="M762.017,-83.188C827.215,-84.7638 917.833,-86.954 971.058,-88.2404"/>
<polygon fill="#9a32cd" stroke="#9a32cd" points="761.863,-79.6834 751.782,-82.9406 761.694,-86.6813 761.863,-79.6834"/>
<text text-anchor="middle" x="858" y="-90.3024" font-family="Helvetica,sans-Serif" font-size="10.00"> Electrons</text>
</g>
<!-- Node29 -->
<g id="node29" class="node"><title>Node29</title>
<g id="a_node29"><a xlink:href="structant_1_1_t_tagger_hit_1_1_electron__t.html" target="_top" xlink:title="ant::TTaggerHit::Electron_t">
<polygon fill="white" stroke="black" points="365,-71.8024 365,-90.8024 508,-90.8024 508,-71.8024 365,-71.8024"/>
<text text-anchor="middle" x="436.5" y="-78.8024" font-family="Helvetica,sans-Serif" font-size="10.00">ant::TTaggerHit::Electron_t</text>
</a>
</g>
</g>
<!-- Node29&#45;&gt;Node28 -->
<g id="edge30" class="edge"><title>Node29&#45;&gt;Node28</title>
<path fill="none" stroke="#9a32cd" stroke-dasharray="5,2" d="M518.585,-81.3024C549.643,-81.3024 584.715,-81.3024 614.383,-81.3024"/>
<polygon fill="#9a32cd" stroke="#9a32cd" points="518.22,-77.8025 508.22,-81.3024 518.219,-84.8025 518.22,-77.8025"/>
<text text-anchor="middle" x="555" y="-84.3024" font-family="Helvetica,sans-Serif" font-size="10.00"> elements</text>
</g>
<!-- Node30 -->
<g id="node30" class="node"><title>Node30</title>
<g id="a_node30"><a xlink:href="structant_1_1_t_i_d.html" target="_top" xlink:title="ant::TID">
<polygon fill="white" stroke="black" points="1273,-39.8024 1273,-58.8024 1326,-58.8024 1326,-39.8024 1273,-39.8024"/>
<text text-anchor="middle" x="1299.5" y="-46.8024" font-family="Helvetica,sans-Serif" font-size="10.00">ant::TID</text>
</a>
</g>
</g>
<!-- Node30&#45;&gt;Node6 -->
<g id="edge31" class="edge"><title>Node30&#45;&gt;Node6</title>
<path fill="none" stroke="#9a32cd" stroke-dasharray="5,2" d="M1336.41,-44.1866C1377.89,-40.2796 1446.3,-40.2353 1492,-73.3024 1535.29,-104.626 1550.35,-172.953 1554.58,-198.449"/>
<polygon fill="#9a32cd" stroke="#9a32cd" points="1335.79,-40.7326 1326.22,-45.2754 1336.53,-47.693 1335.79,-40.7326"/>
<text text-anchor="middle" x="1448" y="-76.3024" font-family="Helvetica,sans-Serif" font-size="10.00"> ID</text>
</g>
<!-- Node31 -->
<g id="node31" class="node"><title>Node31</title>
<g id="a_node31"><a xlink:href="structant_1_1_t_target.html" target="_top" xlink:title="ant::TTarget">
<polygon fill="white" stroke="black" points="1263,-1.80241 1263,-20.8024 1336,-20.8024 1336,-1.80241 1263,-1.80241"/>
<text text-anchor="middle" x="1299.5" y="-8.80241" font-family="Helvetica,sans-Serif" font-size="10.00">ant::TTarget</text>
</a>
</g>
</g>
<!-- Node31&#45;&gt;Node6 -->
<g id="edge32" class="edge"><title>Node31&#45;&gt;Node6</title>
<path fill="none" stroke="#9a32cd" stroke-dasharray="5,2" d="M1346.03,-2.82322C1388.28,2.34969 1450.71,2.78087 1492,-29.3024 1547.51,-72.4339 1554.95,-167.709 1555.89,-198.499"/>
<polygon fill="#9a32cd" stroke="#9a32cd" points="1345.45,0.6302 1336.01,-4.18392 1346.39,-6.30611 1345.45,0.6302"/>
<text text-anchor="middle" x="1448" y="-32.3024" font-family="Helvetica,sans-Serif" font-size="10.00"> Target</text>
</g>
<!-- Node32 -->
<g id="node32" class="node"><title>Node32</title>
<g id="a_node32"><a xlink:href="structant_1_1vec3.html" target="_top" xlink:title="ant::vec3">
<polygon fill="white" stroke="black" points="985.5,-1.80241 985.5,-20.8024 1046.5,-20.8024 1046.5,-1.80241 985.5,-1.80241"/>
<text text-anchor="middle" x="1016" y="-8.80241" font-family="Helvetica,sans-Serif" font-size="10.00">ant::vec3</text>
</a>
</g>
</g>
<!-- Node32&#45;&gt;Node31 -->
<g id="edge33" class="edge"><title>Node32&#45;&gt;Node31</title>
<path fill="none" stroke="#9a32cd" stroke-dasharray="5,2" d="M1056.64,-11.3024C1111.55,-11.3024 1209.93,-11.3024 1262.72,-11.3024"/>
<polygon fill="#9a32cd" stroke="#9a32cd" points="1056.59,-7.80251 1046.59,-11.3024 1056.59,-14.8025 1056.59,-7.80251"/>
<text text-anchor="middle" x="1146.5" y="-14.3024" font-family="Helvetica,sans-Serif" font-size="10.00"> Vertex</text>
</g>
<!-- Node33 -->
<g id="node33" class="node"><title>Node33</title>
<polygon fill="white" stroke="#bfbfbf" points="1213,-221.802 1213,-240.802 1386,-240.802 1386,-221.802 1213,-221.802"/>
<text text-anchor="middle" x="1299.5" y="-228.802" font-family="Helvetica,sans-Serif" font-size="10.00">std::vector&lt; ant::TSlowControl &gt;</text>
</g>
<!-- Node33&#45;&gt;Node6 -->
<g id="edge34" class="edge"><title>Node33&#45;&gt;Node6</title>
<path fill="none" stroke="#9a32cd" stroke-dasharray="5,2" d="M1396.58,-222.653C1435.37,-219.161 1478.33,-215.294 1509.87,-212.455"/>
<polygon fill="#9a32cd" stroke="#9a32cd" points="1395.93,-219.197 1386.29,-223.58 1396.56,-226.169 1395.93,-219.197"/>
<text text-anchor="middle" x="1448" y="-225.302" font-family="Helvetica,sans-Serif" font-size="10.00"> SlowControls</text>
</g>
<!-- Node34&#45;&gt;Node33 -->
<g id="edge35" class="edge"><title>Node34&#45;&gt;Node33</title>
<path fill="none" stroke="#9a32cd" stroke-dasharray="5,2" d="M1076.07,-242.365C1115.7,-240.393 1168.55,-237.765 1212.79,-235.565"/>
<polygon fill="#9a32cd" stroke="#9a32cd" points="1075.85,-238.871 1066.03,-242.864 1076.2,-245.863 1075.85,-238.871"/>
<text text-anchor="middle" x="1146.5" y="-244.302" font-family="Helvetica,sans-Serif" font-size="10.00"> elements</text>
</g>
<!-- Node35 -->
<g id="node35" class="node"><title>Node35</title>
<polygon fill="white" stroke="#bfbfbf" points="608.5,-279.302 608.5,-309.302 757.5,-309.302 757.5,-279.302 608.5,-279.302"/>
<text text-anchor="start" x="616.5" y="-297.302" font-family="Helvetica,sans-Serif" font-size="10.00">std::vector&lt; ant::TKeyValue</text>
<text text-anchor="middle" x="683" y="-286.302" font-family="Helvetica,sans-Serif" font-size="10.00">&lt; double &gt; &gt;</text>
</g>
<!-- Node35&#45;&gt;Node34 -->
<g id="edge36" class="edge"><title>Node35&#45;&gt;Node34</title>
<path fill="none" stroke="#9a32cd" stroke-dasharray="5,2" d="M767.859,-283.917C816.465,-277.643 878.785,-269.164 934,-260.302 944.308,-258.648 955.324,-256.717 965.806,-254.803"/>
<polygon fill="#9a32cd" stroke="#9a32cd" points="767.175,-280.476 757.703,-285.222 768.067,-287.419 767.175,-280.476"/>
<text text-anchor="middle" x="858" y="-285.302" font-family="Helvetica,sans-Serif" font-size="10.00"> Payload_Float</text>
</g>
<!-- Node36 -->
<g id="node36" class="node"><title>Node36</title>
<g id="a_node36"><a xlink:href="structant_1_1_t_key_value.html" target="_top" xlink:title="ant::TKeyValue\&lt; double \&gt;">
<polygon fill="white" stroke="black" points="366,-284.802 366,-303.802 507,-303.802 507,-284.802 366,-284.802"/>
<text text-anchor="middle" x="436.5" y="-291.802" font-family="Helvetica,sans-Serif" font-size="10.00">ant::TKeyValue&lt; double &gt;</text>
</a>
</g>
</g>
<!-- Node36&#45;&gt;Node35 -->
<g id="edge37" class="edge"><title>Node36&#45;&gt;Node35</title>
<path fill="none" stroke="#9a32cd" stroke-dasharray="5,2" d="M517.421,-294.302C546.684,-294.302 579.64,-294.302 608.331,-294.302"/>
<polygon fill="#9a32cd" stroke="#9a32cd" points="517.237,-290.803 507.237,-294.302 517.237,-297.803 517.237,-290.803"/>
<text text-anchor="middle" x="555" y="-297.302" font-family="Helvetica,sans-Serif" font-size="10.00"> elements</text>
</g>
<!-- Node37 -->
<g id="node37" class="node"><title>Node37</title>
<polygon fill="white" stroke="#bfbfbf" points="608.5,-230.302 608.5,-260.302 757.5,-260.302 757.5,-230.302 608.5,-230.302"/>
<text text-anchor="start" x="616.5" y="-248.302" font-family="Helvetica,sans-Serif" font-size="10.00">std::vector&lt; ant::TKeyValue</text>
<text text-anchor="middle" x="683" y="-237.302" font-family="Helvetica,sans-Serif" font-size="10.00">&lt; std::int64_t &gt; &gt;</text>
</g>
<!-- Node37&#45;&gt;Node34 -->
<g id="edge38" class="edge"><title>Node37&#45;&gt;Node34</title>
<path fill="none" stroke="#9a32cd" stroke-dasharray="5,2" d="M768.118,-245.302C830.681,-245.302 913.9,-245.302 965.956,-245.302"/>
<polygon fill="#9a32cd" stroke="#9a32cd" points="767.871,-241.803 757.871,-245.302 767.871,-248.803 767.871,-241.803"/>
<text text-anchor="middle" x="858" y="-248.302" font-family="Helvetica,sans-Serif" font-size="10.00"> Payload_Int</text>
</g>
<!-- Node38 -->
<g id="node38" class="node"><title>Node38</title>
<g id="a_node38"><a xlink:href="structant_1_1_t_key_value.html" target="_top" xlink:title="ant::TKeyValue\&lt; std\l::int64_t \&gt;">
<polygon fill="white" stroke="black" points="380,-231.302 380,-261.302 493,-261.302 493,-231.302 380,-231.302"/>
<text text-anchor="start" x="388" y="-249.302" font-family="Helvetica,sans-Serif" font-size="10.00">ant::TKeyValue&lt; std</text>
<text text-anchor="middle" x="436.5" y="-238.302" font-family="Helvetica,sans-Serif" font-size="10.00">::int64_t &gt;</text>
</a>
</g>
</g>
<!-- Node38&#45;&gt;Node37 -->
<g id="edge39" class="edge"><title>Node38&#45;&gt;Node37</title>
<path fill="none" stroke="#9a32cd" stroke-dasharray="5,2" d="M503.547,-246.032C535.926,-245.9 575.027,-245.74 608.366,-245.604"/>
<polygon fill="#9a32cd" stroke="#9a32cd" points="503.272,-242.533 493.287,-246.074 503.301,-249.533 503.272,-242.533"/>
<text text-anchor="middle" x="555" y="-249.302" font-family="Helvetica,sans-Serif" font-size="10.00"> elements</text>
</g>
<!-- Node39 -->
<g id="node39" class="node"><title>Node39</title>
<polygon fill="white" stroke="#bfbfbf" points="608.5,-328.302 608.5,-358.302 757.5,-358.302 757.5,-328.302 608.5,-328.302"/>
<text text-anchor="start" x="616.5" y="-346.302" font-family="Helvetica,sans-Serif" font-size="10.00">std::vector&lt; ant::TKeyValue</text>
<text text-anchor="middle" x="683" y="-335.302" font-family="Helvetica,sans-Serif" font-size="10.00">&lt; std::string &gt; &gt;</text>
</g>
<!-- Node39&#45;&gt;Node34 -->
<g id="edge41" class="edge"><title>Node39&#45;&gt;Node34</title>
<path fill="none" stroke="#9a32cd" stroke-dasharray="5,2" d="M767.785,-336.103C817.427,-329.844 880.819,-318.318 934,-297.302 960.887,-286.678 988.425,-266.665 1003.46,-254.806"/>
<polygon fill="#9a32cd" stroke="#9a32cd" points="767.234,-332.644 757.728,-337.323 768.077,-339.593 767.234,-332.644"/>
<text text-anchor="middle" x="858" y="-337.302" font-family="Helvetica,sans-Serif" font-size="10.00"> Payload_String</text>
</g>
<!-- Node40&#45;&gt;Node39 -->
<g id="edge42" class="edge"><title>Node40&#45;&gt;Node39</title>
<path fill="none" stroke="#9a32cd" stroke-dasharray="5,2" d="M503.547,-341.113C535.926,-341.51 575.027,-341.99 608.366,-342.399"/>
<polygon fill="#9a32cd" stroke="#9a32cd" points="503.329,-337.61 493.287,-340.987 503.243,-344.609 503.329,-337.61"/>
<text text-anchor="middle" x="555" y="-345.302" font-family="Helvetica,sans-Serif" font-size="10.00"> elements</text>
</g>
<!-- Node41 -->
<g id="node41" class="node"><title>Node41</title>
<g id="a_node41"><a xlink:href="structant_1_1_t_trigger.html" target="_top" xlink:title="ant::TTrigger">
<polygon fill="white" stroke="black" points="1109,-169.802 1109,-188.802 1184,-188.802 1184,-169.802 1109,-169.802"/>
<text text-anchor="middle" x="1146.5" y="-176.802" font-family="Helvetica,sans-Serif" font-size="10.00">ant::TTrigger</text>
</a>
</g>
</g>
<!-- Node41&#45;&gt;Node6 -->
<g id="edge44" class="edge"><title>Node41&#45;&gt;Node6</title>
<path fill="none" stroke="#9a32cd" stroke-dasharray="5,2" d="M1194.23,-182.62C1273,-188.212 1431.3,-199.45 1509.75,-205.019"/>
<polygon fill="#9a32cd" stroke="#9a32cd" points="1194.33,-179.118 1184.11,-181.901 1193.84,-186.101 1194.33,-179.118"/>
<text text-anchor="middle" x="1299.5" y="-199.302" font-family="Helvetica,sans-Serif" font-size="10.00"> Trigger</text>
</g>
<!-- Node42 -->
<g id="node42" class="node"><title>Node42</title>
<polygon fill="white" stroke="#bfbfbf" points="602,-153.802 602,-172.802 764,-172.802 764,-153.802 602,-153.802"/>
<text text-anchor="middle" x="683" y="-160.802" font-family="Helvetica,sans-Serif" font-size="10.00">std::vector&lt; ant::TDAQError &gt;</text>
</g>
<!-- Node42&#45;&gt;Node41 -->
<g id="edge45" class="edge"><title>Node42&#45;&gt;Node41</title>
<path fill="none" stroke="#9a32cd" stroke-dasharray="5,2" d="M774.41,-166.437C876.327,-169.97 1037.14,-175.546 1108.86,-178.032"/>
<polygon fill="#9a32cd" stroke="#9a32cd" points="774.239,-162.929 764.124,-166.08 773.996,-169.925 774.239,-162.929"/>
<text text-anchor="middle" x="858" y="-175.302" font-family="Helvetica,sans-Serif" font-size="10.00"> DAQErrors</text>
</g>
<!-- Node43&#45;&gt;Node42 -->
<g id="edge46" class="edge"><title>Node43&#45;&gt;Node42</title>
<path fill="none" stroke="#9a32cd" stroke-dasharray="5,2" d="M491.359,-163.302C523.689,-163.302 565.428,-163.302 601.606,-163.302"/>
<polygon fill="#9a32cd" stroke="#9a32cd" points="491.212,-159.803 481.212,-163.302 491.212,-166.803 491.212,-159.803"/>
<text text-anchor="middle" x="555" y="-166.302" font-family="Helvetica,sans-Serif" font-size="10.00"> elements</text>
</g>
</g>
</svg>
