<?xml version="1.0" encoding="UTF-8" standalone="no"?>
<!DOCTYPE svg PUBLIC "-//W3C//DTD SVG 1.1//EN"
 "http://www.w3.org/Graphics/SVG/1.1/DTD/svg11.dtd">
<!-- Generated by graphviz version 2.38.0 (20140413.2041)
 -->
<!-- Title: ant::TTrigger Pages: 1 -->
<svg width="170pt" height="297pt"
 viewBox="0.00 0.00 170.00 297.00" xmlns="http://www.w3.org/2000/svg" xmlns:xlink="http://www.w3.org/1999/xlink">
<g id="graph0" class="graph" transform="scale(1 1) rotate(0) translate(4 293)">
<title>ant::TTrigger</title>
<polygon fill="white" stroke="none" points="-4,4 -4,-293 166,-293 166,4 -4,4"/>
<!-- Node1 -->
<g id="node1" class="node"><title>Node1</title>
<polygon fill="#bfbfbf" stroke="black" points="43.5,-0.5 43.5,-19.5 118.5,-19.5 118.5,-0.5 43.5,-0.5"/>
<text text-anchor="middle" x="81" y="-7.5" font-family="Helvetica,sans-Serif" font-size="10.00">ant::TTrigger</text>
</g>
<!-- Node2 -->
<g id="node2" class="node"><title>Node2</title>
<polygon fill="white" stroke="#bfbfbf" points="0,-67.5 0,-86.5 162,-86.5 162,-67.5 0,-67.5"/>
<text text-anchor="middle" x="81" y="-74.5" font-family="Helvetica,sans-Serif" font-size="10.00">std::vector&lt; ant::TDAQError &gt;</text>
</g>
<!-- Node2&#45;&gt;Node1 -->
<g id="edge1" class="edge"><title>Node2&#45;&gt;Node1</title>
<path fill="none" stroke="#9a32cd" stroke-dasharray="5,2" d="M81,-57.037C81,-44.6703 81,-29.1198 81,-19.6273"/>
<polygon fill="#9a32cd" stroke="#9a32cd" points="77.5001,-57.2338 81,-67.2338 84.5001,-57.2338 77.5001,-57.2338"/>
<text text-anchor="middle" x="108" y="-41" font-family="Helvetica,sans-Serif" font-size="10.00"> DAQErrors</text>
</g>
<!-- Node3 -->
<g id="node3" class="node"><title>Node3</title>
<g id="a_node3"><a xlink:href="structant_1_1_t_d_a_q_error.html" target="_top" xlink:title="ant::TDAQError">
<polygon fill="white" stroke="black" points="36.5,-134.5 36.5,-153.5 125.5,-153.5 125.5,-134.5 36.5,-134.5"/>
<text text-anchor="middle" x="81" y="-141.5" font-family="Helvetica,sans-Serif" font-size="10.00">ant::TDAQError</text>
</a>
</g>
</g>
<!-- Node3&#45;&gt;Node2 -->
<g id="edge2" class="edge"><title>Node3&#45;&gt;Node2</title>
<path fill="none" stroke="#9a32cd" stroke-dasharray="5,2" d="M81,-124.037C81,-111.67 81,-96.1198 81,-86.6273"/>
<polygon fill="#9a32cd" stroke="#9a32cd" points="77.5001,-124.234 81,-134.234 84.5001,-124.234 77.5001,-124.234"/>
<text text-anchor="middle" x="105.5" y="-108" font-family="Helvetica,sans-Serif" font-size="10.00"> elements</text>
</g>
<!-- Node4 -->
<g id="node4" class="node"><title>Node4</title>
<g id="a_node4"><a xlink:title="STL class. ">
<polygon fill="white" stroke="#bfbfbf" points="48.5,-201.5 48.5,-220.5 113.5,-220.5 113.5,-201.5 48.5,-201.5"/>
<text text-anchor="middle" x="81" y="-208.5" font-family="Helvetica,sans-Serif" font-size="10.00">std::string</text>
</a>
</g>
</g>
<!-- Node4&#45;&gt;Node3 -->
<g id="edge3" class="edge"><title>Node4&#45;&gt;Node3</title>
<path fill="none" stroke="#9a32cd" stroke-dasharray="5,2" d="M81,-191.037C81,-178.67 81,-163.12 81,-153.627"/>
<polygon fill="#9a32cd" stroke="#9a32cd" points="77.5001,-191.234 81,-201.234 84.5001,-191.234 77.5001,-191.234"/>
<text text-anchor="middle" x="114.5" y="-175" font-family="Helvetica,sans-Serif" font-size="10.00"> ModuleName</text>
</g>
<!-- Node5 -->
<g id="node5" class="node"><title>Node5</title>
<g id="a_node5"><a xlink:title="STL class. ">
<polygon fill="white" stroke="#bfbfbf" points="29.5,-258.5 29.5,-288.5 132.5,-288.5 132.5,-258.5 29.5,-258.5"/>
<text text-anchor="start" x="37.5" y="-276.5" font-family="Helvetica,sans-Serif" font-size="10.00">std::basic_string&lt;</text>
<text text-anchor="middle" x="81" y="-265.5" font-family="Helvetica,sans-Serif" font-size="10.00"> char &gt;</text>
</a>
</g>
</g>
<!-- Node5&#45;&gt;Node4 -->
<g id="edge4" class="edge"><title>Node5&#45;&gt;Node4</title>
<path fill="none" stroke="midnightblue" d="M81,-248.352C81,-238.513 81,-227.775 81,-220.54"/>
<polygon fill="midnightblue" stroke="midnightblue" points="77.5001,-248.468 81,-258.468 84.5001,-248.468 77.5001,-248.468"/>
</g>
</g>
</svg>
