<?xml version="1.0" encoding="UTF-8" standalone="no"?>
<!DOCTYPE svg PUBLIC "-//W3C//DTD SVG 1.1//EN"
 "http://www.w3.org/Graphics/SVG/1.1/DTD/svg11.dtd">
<!-- Generated by graphviz version 2.38.0 (20140413.2041)
 -->
<!-- Title: ant::analysis::physics::EtapDalitz::PerChannel_t Pages: 1 -->
<svg width="149pt" height="185pt"
 viewBox="0.00 0.00 149.00 185.00" xmlns="http://www.w3.org/2000/svg" xmlns:xlink="http://www.w3.org/1999/xlink">
<g id="graph0" class="graph" transform="scale(1 1) rotate(0) translate(4 181)">
<title>ant::analysis::physics::EtapDalitz::PerChannel_t</title>
<polygon fill="white" stroke="none" points="-4,4 -4,-181 145,-181 145,4 -4,4"/>
<!-- Node1 -->
<g id="node1" class="node"><title>Node1</title>
<polygon fill="#bfbfbf" stroke="black" points="0,-0.5 0,-30.5 141,-30.5 141,-0.5 0,-0.5"/>
<text text-anchor="start" x="8" y="-18.5" font-family="Helvetica,sans-Serif" font-size="10.00">ant::analysis::physics</text>
<text text-anchor="middle" x="70.5" y="-7.5" font-family="Helvetica,sans-Serif" font-size="10.00">::EtapDalitz::PerChannel_t</text>
</g>
<!-- Node2 -->
<g id="node2" class="node"><title>Node2</title>
<g id="a_node2"><a xlink:title="STL class. ">
<polygon fill="white" stroke="#bfbfbf" points="38,-89.5 38,-108.5 103,-108.5 103,-89.5 38,-89.5"/>
<text text-anchor="middle" x="70.5" y="-96.5" font-family="Helvetica,sans-Serif" font-size="10.00">std::string</text>
</a>
</g>
</g>
<!-- Node2&#45;&gt;Node1 -->
<g id="edge1" class="edge"><title>Node2&#45;&gt;Node1</title>
<path fill="none" stroke="#9a32cd" stroke-dasharray="5,2" d="M70.5,-79.229C70.5,-64.4075 70.5,-44.0505 70.5,-30.5974"/>
<polygon fill="#9a32cd" stroke="#9a32cd" points="67.0001,-79.278 70.5,-89.2781 74.0001,-79.2781 67.0001,-79.278"/>
<text text-anchor="middle" x="84.5" y="-63" font-family="Helvetica,sans-Serif" font-size="10.00"> title</text>
<text text-anchor="middle" x="84.5" y="-52" font-family="Helvetica,sans-Serif" font-size="10.00">name</text>
</g>
<!-- Node3 -->
<g id="node3" class="node"><title>Node3</title>
<g id="a_node3"><a xlink:title="STL class. ">
<polygon fill="white" stroke="#bfbfbf" points="19,-146.5 19,-176.5 122,-176.5 122,-146.5 19,-146.5"/>
<text text-anchor="start" x="27" y="-164.5" font-family="Helvetica,sans-Serif" font-size="10.00">std::basic_string&lt;</text>
<text text-anchor="middle" x="70.5" y="-153.5" font-family="Helvetica,sans-Serif" font-size="10.00"> char &gt;</text>
</a>
</g>
</g>
<!-- Node3&#45;&gt;Node2 -->
<g id="edge2" class="edge"><title>Node3&#45;&gt;Node2</title>
<path fill="none" stroke="midnightblue" d="M70.5,-136.352C70.5,-126.513 70.5,-115.775 70.5,-108.54"/>
<polygon fill="midnightblue" stroke="midnightblue" points="67.0001,-136.468 70.5,-146.468 74.0001,-136.468 67.0001,-136.468"/>
</g>
</g>
</svg>
