<?xml version="1.0" encoding="UTF-8" standalone="no"?>
<!DOCTYPE svg PUBLIC "-//W3C//DTD SVG 1.1//EN"
 "http://www.w3.org/Graphics/SVG/1.1/DTD/svg11.dtd">
<!-- Generated by graphviz version 2.38.0 (20140413.2041)
 -->
<!-- Title: ant::TAntHeader Pages: 1 -->
<svg width="258pt" height="207pt"
 viewBox="0.00 0.00 257.50 207.00" xmlns="http://www.w3.org/2000/svg" xmlns:xlink="http://www.w3.org/1999/xlink">
<g id="graph0" class="graph" transform="scale(1 1) rotate(0) translate(4 203)">
<title>ant::TAntHeader</title>
<polygon fill="white" stroke="none" points="-4,4 -4,-203 253.5,-203 253.5,4 -4,4"/>
<!-- Node2 -->
<g id="node1" class="node"><title>Node2</title>
<polygon fill="#bfbfbf" stroke="black" points="54,-0.5 54,-19.5 149,-19.5 149,-0.5 54,-0.5"/>
<text text-anchor="middle" x="101.5" y="-7.5" font-family="Helvetica,sans-Serif" font-size="10.00">ant::TAntHeader</text>
</g>
<!-- Node3 -->
<g id="node2" class="node"><title>Node3</title>
<polygon fill="white" stroke="#bfbfbf" points="0,-111.5 0,-130.5 57,-130.5 57,-111.5 0,-111.5"/>
<text text-anchor="middle" x="28.5" y="-118.5" font-family="Helvetica,sans-Serif" font-size="10.00">TNamed</text>
</g>
<!-- Node3&#45;&gt;Node2 -->
<g id="edge1" class="edge"><title>Node3&#45;&gt;Node2</title>
<path fill="none" stroke="midnightblue" d="M39.8103,-103.112C55.6305,-79.49 83.7751,-37.466 95.7984,-19.5133"/>
<polygon fill="midnightblue" stroke="midnightblue" points="36.8847,-101.191 34.2282,-111.447 42.7009,-105.086 36.8847,-101.191"/>
</g>
<!-- Node4 -->
<g id="node3" class="node"><title>Node4</title>
<g id="a_node3"><a xlink:href="structant_1_1_t_i_d.html" target="_top" xlink:title="ant::TID">
<polygon fill="white" stroke="black" points="75,-111.5 75,-130.5 128,-130.5 128,-111.5 75,-111.5"/>
<text text-anchor="middle" x="101.5" y="-118.5" font-family="Helvetica,sans-Serif" font-size="10.00">ant::TID</text>
</a>
</g>
</g>
<!-- Node4&#45;&gt;Node2 -->
<g id="edge2" class="edge"><title>Node4&#45;&gt;Node2</title>
<path fill="none" stroke="#9a32cd" stroke-dasharray="5,2" d="M101.5,-101.193C101.5,-77.2756 101.5,-36.9893 101.5,-19.5133"/>
<polygon fill="#9a32cd" stroke="#9a32cd" points="98.0001,-101.447 101.5,-111.447 105,-101.447 98.0001,-101.447"/>
<text text-anchor="middle" x="118.5" y="-68.5" font-family="Helvetica,sans-Serif" font-size="10.00"> LastID</text>
<text text-anchor="middle" x="118.5" y="-57.5" font-family="Helvetica,sans-Serif" font-size="10.00">FirstID</text>
</g>
<!-- Node5 -->
<g id="node4" class="node"><title>Node5</title>
<g id="a_node4"><a xlink:title="STL class. ">
<polygon fill="white" stroke="#bfbfbf" points="146,-111.5 146,-130.5 211,-130.5 211,-111.5 146,-111.5"/>
<text text-anchor="middle" x="178.5" y="-118.5" font-family="Helvetica,sans-Serif" font-size="10.00">std::string</text>
</a>
</g>
</g>
<!-- Node5&#45;&gt;Node2 -->
<g id="edge3" class="edge"><title>Node5&#45;&gt;Node2</title>
<path fill="none" stroke="#9a32cd" stroke-dasharray="5,2" d="M172.792,-101.594C166.643,-83.8976 155.535,-57.0952 139.5,-38 133.359,-30.6867 124.806,-24.3789 117.368,-19.7034"/>
<polygon fill="#9a32cd" stroke="#9a32cd" points="169.53,-102.879 175.979,-111.285 176.18,-100.692 169.53,-102.879"/>
<text text-anchor="middle" x="209" y="-85" font-family="Helvetica,sans-Serif" font-size="10.00"> GitInfoDatabase</text>
<text text-anchor="middle" x="209" y="-74" font-family="Helvetica,sans-Serif" font-size="10.00">GitInfo</text>
<text text-anchor="middle" x="209" y="-63" font-family="Helvetica,sans-Serif" font-size="10.00">CmdLine</text>
<text text-anchor="middle" x="209" y="-52" font-family="Helvetica,sans-Serif" font-size="10.00">WorkingDir</text>
<text text-anchor="middle" x="209" y="-41" font-family="Helvetica,sans-Serif" font-size="10.00">SetupName</text>
</g>
<!-- Node6 -->
<g id="node5" class="node"><title>Node6</title>
<g id="a_node5"><a xlink:title="STL class. ">
<polygon fill="white" stroke="#bfbfbf" points="127,-168.5 127,-198.5 230,-198.5 230,-168.5 127,-168.5"/>
<text text-anchor="start" x="135" y="-186.5" font-family="Helvetica,sans-Serif" font-size="10.00">std::basic_string&lt;</text>
<text text-anchor="middle" x="178.5" y="-175.5" font-family="Helvetica,sans-Serif" font-size="10.00"> char &gt;</text>
</a>
</g>
</g>
<!-- Node6&#45;&gt;Node5 -->
<g id="edge4" class="edge"><title>Node6&#45;&gt;Node5</title>
<path fill="none" stroke="midnightblue" d="M178.5,-158.352C178.5,-148.513 178.5,-137.775 178.5,-130.54"/>
<polygon fill="midnightblue" stroke="midnightblue" points="175,-158.468 178.5,-168.468 182,-158.468 175,-158.468"/>
</g>
</g>
</svg>
