<?xml version="1.0" encoding="UTF-8" standalone="no"?>
<!DOCTYPE svg PUBLIC "-//W3C//DTD SVG 1.1//EN"
 "http://www.w3.org/Graphics/SVG/1.1/DTD/svg11.dtd">
<!-- Generated by graphviz version 2.38.0 (20140413.2041)
 -->
<!-- Title: ant::expconfig::detector::TAPS::PbWO4_Element_t Pages: 1 -->
<svg width="304pt" height="398pt"
 viewBox="0.00 0.00 304.00 398.00" xmlns="http://www.w3.org/2000/svg" xmlns:xlink="http://www.w3.org/1999/xlink">
<g id="graph0" class="graph" transform="scale(1 1) rotate(0) translate(4 394)">
<title>ant::expconfig::detector::TAPS::PbWO4_Element_t</title>
<polygon fill="white" stroke="none" points="-4,4 -4,-394 300,-394 300,4 -4,4"/>
<!-- Node4 -->
<g id="node1" class="node"><title>Node4</title>
<polygon fill="#bfbfbf" stroke="black" points="119,-0.5 119,-30.5 259,-30.5 259,-0.5 119,-0.5"/>
<text text-anchor="start" x="127" y="-18.5" font-family="Helvetica,sans-Serif" font-size="10.00">ant::expconfig::detector</text>
<text text-anchor="middle" x="189" y="-7.5" font-family="Helvetica,sans-Serif" font-size="10.00">::TAPS::PbWO4_Element_t</text>
</g>
<!-- Node5 -->
<g id="node2" class="node"><title>Node5</title>
<g id="a_node2"><a xlink:href="structant_1_1expconfig_1_1detector_1_1_t_a_p_s_1_1_t_a_p_s___element__t.html" target="_top" xlink:title="ant::expconfig::detector\l::TAPS::TAPS_Element_t">
<polygon fill="white" stroke="black" points="123.5,-68.5 123.5,-98.5 254.5,-98.5 254.5,-68.5 123.5,-68.5"/>
<text text-anchor="start" x="131.5" y="-86.5" font-family="Helvetica,sans-Serif" font-size="10.00">ant::expconfig::detector</text>
<text text-anchor="middle" x="189" y="-75.5" font-family="Helvetica,sans-Serif" font-size="10.00">::TAPS::TAPS_Element_t</text>
</a>
</g>
</g>
<!-- Node5&#45;&gt;Node4 -->
<g id="edge1" class="edge"><title>Node5&#45;&gt;Node4</title>
<path fill="none" stroke="midnightblue" d="M189,-58.0322C189,-48.8606 189,-38.7449 189,-30.7931"/>
<polygon fill="midnightblue" stroke="midnightblue" points="185.5,-58.1789 189,-68.179 192.5,-58.179 185.5,-58.1789"/>
</g>
<!-- Node6 -->
<g id="node3" class="node"><title>Node6</title>
<g id="a_node3"><a xlink:href="structant_1_1_cluster_detector__t_1_1_element__t.html" target="_top" xlink:title="ant::ClusterDetector\l_t::Element_t">
<polygon fill="white" stroke="black" points="132,-136.5 132,-166.5 246,-166.5 246,-136.5 132,-136.5"/>
<text text-anchor="start" x="140" y="-154.5" font-family="Helvetica,sans-Serif" font-size="10.00">ant::ClusterDetector</text>
<text text-anchor="middle" x="189" y="-143.5" font-family="Helvetica,sans-Serif" font-size="10.00">_t::Element_t</text>
</a>
</g>
</g>
<!-- Node6&#45;&gt;Node5 -->
<g id="edge2" class="edge"><title>Node6&#45;&gt;Node5</title>
<path fill="none" stroke="midnightblue" d="M189,-126.032C189,-116.861 189,-106.745 189,-98.7931"/>
<polygon fill="midnightblue" stroke="midnightblue" points="185.5,-126.179 189,-136.179 192.5,-126.179 185.5,-126.179"/>
</g>
<!-- Node7 -->
<g id="node4" class="node"><title>Node7</title>
<g id="a_node4"><a xlink:href="structant_1_1_detector__t_1_1_element__t.html" target="_top" xlink:title="ant::Detector_t::Element_t">
<polygon fill="white" stroke="black" points="0,-214.5 0,-233.5 144,-233.5 144,-214.5 0,-214.5"/>
<text text-anchor="middle" x="72" y="-221.5" font-family="Helvetica,sans-Serif" font-size="10.00">ant::Detector_t::Element_t</text>
</a>
</g>
</g>
<!-- Node7&#45;&gt;Node6 -->
<g id="edge3" class="edge"><title>Node7&#45;&gt;Node6</title>
<path fill="none" stroke="midnightblue" d="M95.0088,-209.136C115.426,-196.833 145.116,-178.943 165.64,-166.576"/>
<polygon fill="midnightblue" stroke="midnightblue" points="93.1053,-206.196 86.3465,-214.355 96.7181,-212.192 93.1053,-206.196"/>
</g>
<!-- Node8 -->
<g id="node5" class="node"><title>Node8</title>
<g id="a_node5"><a xlink:href="structant_1_1vec3.html" target="_top" xlink:title="ant::vec3">
<polygon fill="white" stroke="black" points="9.5,-287 9.5,-306 70.5,-306 70.5,-287 9.5,-287"/>
<text text-anchor="middle" x="40" y="-294" font-family="Helvetica,sans-Serif" font-size="10.00">ant::vec3</text>
</a>
</g>
</g>
<!-- Node8&#45;&gt;Node7 -->
<g id="edge4" class="edge"><title>Node8&#45;&gt;Node7</title>
<path fill="none" stroke="#9a32cd" stroke-dasharray="5,2" d="M48.0875,-277.682C54.4658,-263.63 63.0861,-244.638 68.0441,-233.715"/>
<polygon fill="#9a32cd" stroke="#9a32cd" points="44.87,-276.303 43.9238,-286.855 51.2441,-279.196 44.87,-276.303"/>
<text text-anchor="middle" x="79.5" y="-255" font-family="Helvetica,sans-Serif" font-size="10.00"> Position</text>
</g>
<!-- Node9 -->
<g id="node6" class="node"><title>Node9</title>
<g id="a_node6"><a xlink:href="classant_1_1bitflag.html" target="_top" xlink:title="ant::bitflag\&lt; ElementFlag\l_t, 16 \&gt;">
<polygon fill="white" stroke="black" points="89,-281.5 89,-311.5 227,-311.5 227,-281.5 89,-281.5"/>
<text text-anchor="start" x="97" y="-299.5" font-family="Helvetica,sans-Serif" font-size="10.00">ant::bitflag&lt; ElementFlag</text>
<text text-anchor="middle" x="158" y="-288.5" font-family="Helvetica,sans-Serif" font-size="10.00">_t, 16 &gt;</text>
</a>
</g>
</g>
<!-- Node9&#45;&gt;Node7 -->
<g id="edge5" class="edge"><title>Node9&#45;&gt;Node7</title>
<path fill="none" stroke="#9a32cd" stroke-dasharray="5,2" d="M132.85,-274.883C116.249,-261.274 95.3332,-244.128 82.8484,-233.893"/>
<polygon fill="#9a32cd" stroke="#9a32cd" points="130.644,-277.6 140.597,-281.233 135.082,-272.187 130.644,-277.6"/>
<text text-anchor="middle" x="132" y="-255" font-family="Helvetica,sans-Serif" font-size="10.00"> Flags</text>
</g>
<!-- Node10 -->
<g id="node7" class="node"><title>Node10</title>
<polygon fill="white" stroke="#bfbfbf" points="101.5,-359.5 101.5,-389.5 214.5,-389.5 214.5,-359.5 101.5,-359.5"/>
<text text-anchor="start" x="109.5" y="-377.5" font-family="Helvetica,sans-Serif" font-size="10.00">std::bitset&lt; number</text>
<text text-anchor="middle" x="158" y="-366.5" font-family="Helvetica,sans-Serif" font-size="10.00">_of_bits &gt;</text>
</g>
<!-- Node10&#45;&gt;Node9 -->
<g id="edge6" class="edge"><title>Node10&#45;&gt;Node9</title>
<path fill="none" stroke="#9a32cd" stroke-dasharray="5,2" d="M158,-349.09C158,-336.757 158,-322.224 158,-311.731"/>
<polygon fill="#9a32cd" stroke="#9a32cd" points="154.5,-349.205 158,-359.205 161.5,-349.205 154.5,-349.205"/>
<text text-anchor="middle" x="168.5" y="-333" font-family="Helvetica,sans-Serif" font-size="10.00"> bits</text>
</g>
<!-- Node11 -->
<g id="node8" class="node"><title>Node11</title>
<polygon fill="white" stroke="#bfbfbf" points="162,-214.5 162,-233.5 296,-233.5 296,-214.5 162,-214.5"/>
<text text-anchor="middle" x="229" y="-221.5" font-family="Helvetica,sans-Serif" font-size="10.00">std::vector&lt; unsigned &gt;</text>
</g>
<!-- Node11&#45;&gt;Node6 -->
<g id="edge7" class="edge"><title>Node11&#45;&gt;Node6</title>
<path fill="none" stroke="#9a32cd" stroke-dasharray="5,2" d="M218.971,-205.324C212.172,-193.341 203.308,-177.717 196.986,-166.576"/>
<polygon fill="#9a32cd" stroke="#9a32cd" points="216.116,-207.385 224.095,-214.355 222.205,-203.931 216.116,-207.385"/>
<text text-anchor="middle" x="242" y="-188" font-family="Helvetica,sans-Serif" font-size="10.00"> Neighbours</text>
</g>
</g>
</svg>
