<?xml version="1.0" encoding="UTF-8" standalone="no"?>
<!DOCTYPE svg PUBLIC "-//W3C//DTD SVG 1.1//EN"
 "http://www.w3.org/Graphics/SVG/1.1/DTD/svg11.dtd">
<!-- Generated by graphviz version 2.38.0 (20140413.2041)
 -->
<!-- Title: ant::expconfig::detector::Trigger_2014 Pages: 1 -->
<svg width="1003pt" height="396pt"
 viewBox="0.00 0.00 1003.00 396.00" xmlns="http://www.w3.org/2000/svg" xmlns:xlink="http://www.w3.org/1999/xlink">
<g id="graph0" class="graph" transform="scale(1 1) rotate(0) translate(4 392)">
<title>ant::expconfig::detector::Trigger_2014</title>
<polygon fill="white" stroke="none" points="-4,4 -4,-392 999,-392 999,4 -4,4"/>
<!-- Node6 -->
<g id="node1" class="node"><title>Node6</title>
<polygon fill="#bfbfbf" stroke="black" points="864,-92 864,-122 995,-122 995,-92 864,-92"/>
<text text-anchor="start" x="872" y="-110" font-family="Helvetica,sans-Serif" font-size="10.00">ant::expconfig::detector</text>
<text text-anchor="middle" x="929.5" y="-99" font-family="Helvetica,sans-Serif" font-size="10.00">::Trigger_2014</text>
</g>
<!-- Node7 -->
<g id="node2" class="node"><title>Node7</title>
<g id="a_node2"><a xlink:href="structant_1_1expconfig_1_1detector_1_1_trigger.html" target="_top" xlink:title="ant::expconfig::detector\l::Trigger">
<polygon fill="white" stroke="black" points="618,-244 618,-274 749,-274 749,-244 618,-244"/>
<text text-anchor="start" x="626" y="-262" font-family="Helvetica,sans-Serif" font-size="10.00">ant::expconfig::detector</text>
<text text-anchor="middle" x="683.5" y="-251" font-family="Helvetica,sans-Serif" font-size="10.00">::Trigger</text>
</a>
</g>
</g>
<!-- Node7&#45;&gt;Node6 -->
<g id="edge1" class="edge"><title>Node7&#45;&gt;Node6</title>
<path fill="none" stroke="midnightblue" d="M717.556,-238.408C767.328,-207.402 860.354,-149.452 904.311,-122.069"/>
<polygon fill="midnightblue" stroke="midnightblue" points="715.425,-235.612 708.788,-243.87 719.126,-241.553 715.425,-235.612"/>
</g>
<!-- Node8 -->
<g id="node3" class="node"><title>Node8</title>
<g id="a_node3"><a xlink:href="structant_1_1_detector__t.html" target="_top" xlink:title="The Detector_t struct is the minimal base class for all detectors. ">
<polygon fill="white" stroke="black" points="287.5,-368.5 287.5,-387.5 376.5,-387.5 376.5,-368.5 287.5,-368.5"/>
<text text-anchor="middle" x="332" y="-375.5" font-family="Helvetica,sans-Serif" font-size="10.00">ant::Detector_t</text>
</a>
</g>
</g>
<!-- Node8&#45;&gt;Node7 -->
<g id="edge2" class="edge"><title>Node8&#45;&gt;Node7</title>
<path fill="none" stroke="midnightblue" d="M386.936,-383.562C443.237,-386.937 532.554,-385.284 600,-351 634.233,-333.599 660.928,-295.553 673.89,-274.24"/>
<polygon fill="midnightblue" stroke="midnightblue" points="387.033,-380.061 376.82,-382.88 386.562,-387.045 387.033,-380.061"/>
</g>
<!-- Node9 -->
<g id="node4" class="node"><title>Node9</title>
<g id="a_node4"><a xlink:href="classant_1_1_unpacker_acqu_config.html" target="_top" xlink:title="ant::UnpackerAcquConfig">
<polygon fill="white" stroke="black" points="263,-330.5 263,-349.5 401,-349.5 401,-330.5 263,-330.5"/>
<text text-anchor="middle" x="332" y="-337.5" font-family="Helvetica,sans-Serif" font-size="10.00">ant::UnpackerAcquConfig</text>
</a>
</g>
</g>
<!-- Node9&#45;&gt;Node7 -->
<g id="edge3" class="edge"><title>Node9&#45;&gt;Node7</title>
<path fill="none" stroke="midnightblue" d="M411.552,-348.414C466.199,-351.303 539.764,-349.172 600,-326 628.415,-315.069 654.473,-290.396 669.409,-274.236"/>
<polygon fill="midnightblue" stroke="midnightblue" points="411.422,-344.9 401.231,-347.797 411.004,-351.887 411.422,-344.9"/>
</g>
<!-- Node10 -->
<g id="node5" class="node"><title>Node10</title>
<g id="a_node5"><a xlink:href="structant_1_1expconfig_1_1detector_1_1_trigger_1_1_reference_timing_hit_mapping__t.html" target="_top" xlink:title="ant::expconfig::detector\l::Trigger::ReferenceTimingHitMapping_t">
<polygon fill="white" stroke="black" points="231,-164 231,-194 433,-194 433,-164 231,-164"/>
<text text-anchor="start" x="239" y="-182" font-family="Helvetica,sans-Serif" font-size="10.00">ant::expconfig::detector</text>
<text text-anchor="middle" x="332" y="-171" font-family="Helvetica,sans-Serif" font-size="10.00">::Trigger::ReferenceTimingHitMapping_t</text>
</a>
</g>
</g>
<!-- Node10&#45;&gt;Node7 -->
<g id="edge4" class="edge"><title>Node10&#45;&gt;Node7</title>
<path fill="none" stroke="#9a32cd" stroke-dasharray="5,2" d="M400.964,-161.999C456.766,-151.539 536.634,-144.762 600,-172 634.04,-186.632 660.628,-222.977 673.671,-243.767"/>
<polygon fill="#9a32cd" stroke="#9a32cd" points="399.972,-158.627 390.834,-163.988 401.321,-165.496 399.972,-158.627"/>
<text text-anchor="start" x="451" y="-318" font-family="Helvetica,sans-Serif" font-size="10.00"> Reference_V1190_TaggerTDC2</text>
<text text-anchor="middle" x="525.5" y="-307" font-family="Helvetica,sans-Serif" font-size="10.00">_2</text>
<text text-anchor="start" x="451" y="-296" font-family="Helvetica,sans-Serif" font-size="10.00">Reference_V1190_TaggerTDC1</text>
<text text-anchor="middle" x="525.5" y="-285" font-family="Helvetica,sans-Serif" font-size="10.00">_2</text>
<text text-anchor="middle" x="525.5" y="-274" font-family="Helvetica,sans-Serif" font-size="10.00">Reference_CATCH_TaggerCrate</text>
<text text-anchor="start" x="451" y="-263" font-family="Helvetica,sans-Serif" font-size="10.00">Reference_V1190_TaggerTDC3</text>
<text text-anchor="middle" x="525.5" y="-252" font-family="Helvetica,sans-Serif" font-size="10.00">_1</text>
<text text-anchor="start" x="451" y="-241" font-family="Helvetica,sans-Serif" font-size="10.00">Reference_V1190_TaggerTDC3</text>
<text text-anchor="middle" x="525.5" y="-230" font-family="Helvetica,sans-Serif" font-size="10.00">_2</text>
<text text-anchor="start" x="451" y="-219" font-family="Helvetica,sans-Serif" font-size="10.00">Reference_V1190_TaggerTDC3</text>
<text text-anchor="middle" x="525.5" y="-208" font-family="Helvetica,sans-Serif" font-size="10.00">_3</text>
<text text-anchor="middle" x="525.5" y="-197" font-family="Helvetica,sans-Serif" font-size="10.00">Reference_CATCH_CBCrate</text>
<text text-anchor="middle" x="525.5" y="-186" font-family="Helvetica,sans-Serif" font-size="10.00">Reference_V1190_TaggerTDC1</text>
<text text-anchor="middle" x="525.5" y="-175" font-family="Helvetica,sans-Serif" font-size="10.00">Reference_V1190_TaggerTDC2</text>
</g>
<!-- Node11 -->
<g id="node6" class="node"><title>Node11</title>
<g id="a_node6"><a xlink:href="structant_1_1_logical_channel__t.html" target="_top" xlink:title="The LogicalChannel_t struct uniquely identifies detector element within setup. ">
<polygon fill="white" stroke="black" points="0,-169.5 0,-188.5 119,-188.5 119,-169.5 0,-169.5"/>
<text text-anchor="middle" x="59.5" y="-176.5" font-family="Helvetica,sans-Serif" font-size="10.00">ant::LogicalChannel_t</text>
</a>
</g>
</g>
<!-- Node11&#45;&gt;Node10 -->
<g id="edge5" class="edge"><title>Node11&#45;&gt;Node10</title>
<path fill="none" stroke="#9a32cd" stroke-dasharray="5,2" d="M129.398,-179C160.213,-179 197.138,-179 230.918,-179"/>
<polygon fill="#9a32cd" stroke="#9a32cd" points="129.195,-175.5 119.194,-179 129.194,-182.5 129.195,-175.5"/>
<text text-anchor="middle" x="175" y="-182" font-family="Helvetica,sans-Serif" font-size="10.00"> LogicalChannel</text>
</g>
<!-- Node12 -->
<g id="node7" class="node"><title>Node12</title>
<g id="a_node7"><a xlink:href="structant_1_1_reconstruct_hook_1_1_detector_read_hits.html" target="_top" xlink:title="The DetectorReadHits struct instances are applied before hit matching. ">
<polygon fill="white" stroke="black" points="624,-115 624,-145 743,-145 743,-115 624,-115"/>
<text text-anchor="start" x="632" y="-133" font-family="Helvetica,sans-Serif" font-size="10.00">ant::ReconstructHook</text>
<text text-anchor="middle" x="683.5" y="-122" font-family="Helvetica,sans-Serif" font-size="10.00">::DetectorReadHits</text>
</a>
</g>
</g>
<!-- Node12&#45;&gt;Node6 -->
<g id="edge6" class="edge"><title>Node12&#45;&gt;Node6</title>
<path fill="none" stroke="midnightblue" d="M753.297,-123.515C787.962,-120.247 829.753,-116.308 863.824,-113.096"/>
<polygon fill="midnightblue" stroke="midnightblue" points="752.882,-120.039 743.255,-124.462 753.539,-127.008 752.882,-120.039"/>
</g>
<!-- Node13 -->
<g id="node8" class="node"><title>Node13</title>
<g id="a_node8"><a xlink:href="structant_1_1_reconstruct_hook_1_1_base.html" target="_top" xlink:title="The Base struct just defines some useful types. ">
<polygon fill="white" stroke="black" points="272.5,-115 272.5,-145 391.5,-145 391.5,-115 272.5,-115"/>
<text text-anchor="start" x="280.5" y="-133" font-family="Helvetica,sans-Serif" font-size="10.00">ant::ReconstructHook</text>
<text text-anchor="middle" x="332" y="-122" font-family="Helvetica,sans-Serif" font-size="10.00">::Base</text>
</a>
</g>
</g>
<!-- Node13&#45;&gt;Node12 -->
<g id="edge7" class="edge"><title>Node13&#45;&gt;Node12</title>
<path fill="none" stroke="midnightblue" d="M402.019,-130C466.843,-130 562.771,-130 623.949,-130"/>
<polygon fill="midnightblue" stroke="midnightblue" points="401.893,-126.5 391.893,-130 401.893,-133.5 401.893,-126.5"/>
</g>
<!-- Node14 -->
<g id="node9" class="node"><title>Node14</title>
<g id="a_node9"><a xlink:title="STL class. ">
<polygon fill="white" stroke="#bfbfbf" points="634,-76.5 634,-95.5 733,-95.5 733,-76.5 634,-76.5"/>
<text text-anchor="middle" x="683.5" y="-83.5" font-family="Helvetica,sans-Serif" font-size="10.00">std::map&lt; K, T &gt;</text>
</a>
</g>
</g>
<!-- Node14&#45;&gt;Node6 -->
<g id="edge8" class="edge"><title>Node14&#45;&gt;Node6</title>
<path fill="none" stroke="#9a32cd" stroke-dasharray="5,2" d="M743.708,-91.0958C779.953,-94.2152 826.362,-98.2095 863.604,-101.415"/>
<polygon fill="#9a32cd" stroke="#9a32cd" points="743.554,-87.5697 733.291,-90.1992 742.954,-94.5439 743.554,-87.5697"/>
<text text-anchor="middle" x="806.5" y="-103" font-family="Helvetica,sans-Serif" font-size="10.00"> scaler_mapping</text>
</g>
<!-- Node15 -->
<g id="node10" class="node"><title>Node15</title>
<polygon fill="white" stroke="#bfbfbf" points="317.5,-76.5 317.5,-95.5 346.5,-95.5 346.5,-76.5 317.5,-76.5"/>
<text text-anchor="middle" x="332" y="-83.5" font-family="Helvetica,sans-Serif" font-size="10.00">K</text>
</g>
<!-- Node15&#45;&gt;Node14 -->
<g id="edge9" class="edge"><title>Node15&#45;&gt;Node14</title>
<path fill="none" stroke="#9a32cd" stroke-dasharray="5,2" d="M356.843,-86C413.601,-86 557.658,-86 633.729,-86"/>
<polygon fill="#9a32cd" stroke="#9a32cd" points="356.701,-82.5001 346.701,-86 356.701,-89.5001 356.701,-82.5001"/>
<text text-anchor="middle" x="525.5" y="-89" font-family="Helvetica,sans-Serif" font-size="10.00"> keys</text>
</g>
<!-- Node16 -->
<g id="node11" class="node"><title>Node16</title>
<polygon fill="white" stroke="#bfbfbf" points="317.5,-38.5 317.5,-57.5 346.5,-57.5 346.5,-38.5 317.5,-38.5"/>
<text text-anchor="middle" x="332" y="-45.5" font-family="Helvetica,sans-Serif" font-size="10.00">T</text>
</g>
<!-- Node16&#45;&gt;Node14 -->
<g id="edge10" class="edge"><title>Node16&#45;&gt;Node14</title>
<path fill="none" stroke="#9a32cd" stroke-dasharray="5,2" d="M356.69,-49.2913C403.387,-52.0022 510.558,-59.0435 600,-71 611.111,-72.4853 623.001,-74.4341 634.197,-76.4332"/>
<polygon fill="#9a32cd" stroke="#9a32cd" points="356.847,-45.7947 346.665,-48.7225 356.45,-52.7835 356.847,-45.7947"/>
<text text-anchor="middle" x="525.5" y="-74" font-family="Helvetica,sans-Serif" font-size="10.00"> elements</text>
</g>
<!-- Node17 -->
<g id="node12" class="node"><title>Node17</title>
<polygon fill="white" stroke="#bfbfbf" points="620,-11 620,-41 747,-41 747,-11 620,-11"/>
<text text-anchor="start" x="628" y="-29" font-family="Helvetica,sans-Serif" font-size="10.00">std::vector&lt; std::bitset</text>
<text text-anchor="middle" x="683.5" y="-18" font-family="Helvetica,sans-Serif" font-size="10.00">&lt; 16 &gt; &gt;</text>
</g>
<!-- Node17&#45;&gt;Node6 -->
<g id="edge11" class="edge"><title>Node17&#45;&gt;Node6</title>
<path fill="none" stroke="#9a32cd" stroke-dasharray="5,2" d="M740.621,-44.2634C771.702,-54.4168 811.018,-67.3239 846,-79 858.482,-83.1662 872.009,-87.7345 884.428,-91.9505"/>
<polygon fill="#9a32cd" stroke="#9a32cd" points="741.427,-40.8449 730.835,-41.0686 739.255,-47.4993 741.427,-40.8449"/>
<text text-anchor="middle" x="806.5" y="-82" font-family="Helvetica,sans-Serif" font-size="10.00"> patterns</text>
</g>
<!-- Node18 -->
<g id="node13" class="node"><title>Node18</title>
<polygon fill="white" stroke="#bfbfbf" points="282.5,-0.5 282.5,-19.5 381.5,-19.5 381.5,-0.5 282.5,-0.5"/>
<text text-anchor="middle" x="332" y="-7.5" font-family="Helvetica,sans-Serif" font-size="10.00">std::bitset&lt; 16 &gt;</text>
</g>
<!-- Node18&#45;&gt;Node17 -->
<g id="edge12" class="edge"><title>Node18&#45;&gt;Node17</title>
<path fill="none" stroke="#9a32cd" stroke-dasharray="5,2" d="M391.908,-9.1823C446.07,-8.88633 528.557,-9.58583 600,-15 606.484,-15.4914 613.237,-16.1499 619.965,-16.9016"/>
<polygon fill="#9a32cd" stroke="#9a32cd" points="391.776,-5.68302 381.8,-9.25093 391.823,-12.6829 391.776,-5.68302"/>
<text text-anchor="middle" x="525.5" y="-18" font-family="Helvetica,sans-Serif" font-size="10.00"> elements</text>
</g>
</g>
</svg>
