<?xml version="1.0" encoding="UTF-8" standalone="no"?>
<!DOCTYPE svg PUBLIC "-//W3C//DTD SVG 1.1//EN"
 "http://www.w3.org/Graphics/SVG/1.1/DTD/svg11.dtd">
<!-- Generated by graphviz version 2.38.0 (20140413.2041)
 -->
<!-- Title: canvas_tester Pages: 1 -->
<svg width="363pt" height="543pt"
 viewBox="0.00 0.00 362.50 543.00" xmlns="http://www.w3.org/2000/svg" xmlns:xlink="http://www.w3.org/1999/xlink">
<g id="graph0" class="graph" transform="scale(1 1) rotate(0) translate(4 539)">
<title>canvas_tester</title>
<polygon fill="white" stroke="none" points="-4,4 -4,-539 358.5,-539 358.5,4 -4,4"/>
<!-- Node2 -->
<g id="node1" class="node"><title>Node2</title>
<polygon fill="#bfbfbf" stroke="black" points="101.5,-0.5 101.5,-19.5 185.5,-19.5 185.5,-0.5 101.5,-0.5"/>
<text text-anchor="middle" x="143.5" y="-7.5" font-family="Helvetica,sans-Serif" font-size="10.00">canvas_tester</text>
</g>
<!-- Node3 -->
<g id="node2" class="node"><title>Node3</title>
<g id="a_node2"><a xlink:href="classant_1_1canvas.html" target="_top" xlink:title="The canvas class. ">
<polygon fill="white" stroke="black" points="107.5,-57.5 107.5,-76.5 179.5,-76.5 179.5,-57.5 107.5,-57.5"/>
<text text-anchor="middle" x="143.5" y="-64.5" font-family="Helvetica,sans-Serif" font-size="10.00">ant::canvas</text>
</a>
</g>
</g>
<!-- Node3&#45;&gt;Node2 -->
<g id="edge1" class="edge"><title>Node3&#45;&gt;Node2</title>
<path fill="none" stroke="midnightblue" d="M143.5,-47.1166C143.5,-37.8173 143.5,-27.0557 143.5,-19.7149"/>
<polygon fill="midnightblue" stroke="midnightblue" points="140,-47.4062 143.5,-57.4062 147,-47.4063 140,-47.4062"/>
</g>
<!-- Node4 -->
<g id="node3" class="node"><title>Node4</title>
<polygon fill="white" stroke="#bfbfbf" points="68.5,-308 68.5,-327 208.5,-327 208.5,-308 68.5,-308"/>
<text text-anchor="middle" x="138.5" y="-315" font-family="Helvetica,sans-Serif" font-size="10.00">std::list&lt; padmodifier_t &gt;</text>
</g>
<!-- Node4&#45;&gt;Node3 -->
<g id="edge2" class="edge"><title>Node4&#45;&gt;Node3</title>
<path fill="none" stroke="#9a32cd" stroke-dasharray="5,2" d="M138.874,-297.915C139.88,-247.915 142.616,-111.921 143.329,-76.518"/>
<polygon fill="#9a32cd" stroke="#9a32cd" points="135.374,-297.878 138.672,-307.946 142.373,-298.019 135.374,-297.878"/>
<text text-anchor="middle" x="192.5" y="-187" font-family="Helvetica,sans-Serif" font-size="10.00"> onetime_padoptions</text>
<text text-anchor="middle" x="192.5" y="-176" font-family="Helvetica,sans-Serif" font-size="10.00">global_padoptions</text>
</g>
<!-- Node6 -->
<g id="node5" class="node"><title>Node6</title>
<g id="a_node5"><a xlink:href="structant_1_1canvas_1_1pad__t.html" target="_top" xlink:title="ant::canvas::pad_t">
<polygon fill="white" stroke="black" points="216,-213.5 216,-232.5 321,-232.5 321,-213.5 216,-213.5"/>
<text text-anchor="middle" x="268.5" y="-220.5" font-family="Helvetica,sans-Serif" font-size="10.00">ant::canvas::pad_t</text>
</a>
</g>
</g>
<!-- Node4&#45;&gt;Node6 -->
<g id="edge5" class="edge"><title>Node4&#45;&gt;Node6</title>
<path fill="none" stroke="#9a32cd" stroke-dasharray="5,2" d="M153.684,-300.455C167.737,-286.223 189.691,-265.502 211.5,-251 222.442,-243.724 235.65,-237.337 246.596,-232.604"/>
<polygon fill="#9a32cd" stroke="#9a32cd" points="150.83,-298.371 146.384,-307.988 155.857,-303.242 150.83,-298.371"/>
<text text-anchor="middle" x="240.5" y="-265" font-family="Helvetica,sans-Serif" font-size="10.00"> PadOptions</text>
</g>
<!-- Node5 -->
<g id="node4" class="node"><title>Node5</title>
<polygon fill="white" stroke="#bfbfbf" points="190.5,-124.5 190.5,-154.5 308.5,-154.5 308.5,-124.5 190.5,-124.5"/>
<text text-anchor="start" x="198.5" y="-142.5" font-family="Helvetica,sans-Serif" font-size="10.00">std::list&lt; ant::canvas</text>
<text text-anchor="middle" x="249.5" y="-131.5" font-family="Helvetica,sans-Serif" font-size="10.00">::pad_t &gt;</text>
</g>
<!-- Node5&#45;&gt;Node3 -->
<g id="edge3" class="edge"><title>Node5&#45;&gt;Node3</title>
<path fill="none" stroke="#9a32cd" stroke-dasharray="5,2" d="M219.769,-118.726C198.876,-104.831 171.965,-86.9316 156.331,-76.5336"/>
<polygon fill="#9a32cd" stroke="#9a32cd" points="218.039,-121.779 228.304,-124.403 221.916,-115.95 218.039,-121.779"/>
<text text-anchor="middle" x="214" y="-98" font-family="Helvetica,sans-Serif" font-size="10.00"> pads</text>
</g>
<!-- Node6&#45;&gt;Node5 -->
<g id="edge4" class="edge"><title>Node6&#45;&gt;Node5</title>
<path fill="none" stroke="#9a32cd" stroke-dasharray="5,2" d="M264.124,-203.229C260.669,-188.408 255.923,-168.051 252.787,-154.597"/>
<polygon fill="#9a32cd" stroke="#9a32cd" points="260.788,-204.334 266.467,-213.278 267.605,-202.745 260.788,-204.334"/>
<text text-anchor="middle" x="287" y="-181.5" font-family="Helvetica,sans-Serif" font-size="10.00"> elements</text>
</g>
<!-- Node7 -->
<g id="node6" class="node"><title>Node7</title>
<polygon fill="white" stroke="#bfbfbf" points="226.5,-302.5 226.5,-332.5 344.5,-332.5 344.5,-302.5 226.5,-302.5"/>
<text text-anchor="start" x="234.5" y="-320.5" font-family="Helvetica,sans-Serif" font-size="10.00">std::list&lt; ant::canvas</text>
<text text-anchor="middle" x="285.5" y="-309.5" font-family="Helvetica,sans-Serif" font-size="10.00">::DrawableItem &gt;</text>
</g>
<!-- Node7&#45;&gt;Node6 -->
<g id="edge6" class="edge"><title>Node7&#45;&gt;Node6</title>
<path fill="none" stroke="#9a32cd" stroke-dasharray="5,2" d="M281.067,-292.382C277.457,-272.736 272.565,-246.119 270.084,-232.619"/>
<polygon fill="#9a32cd" stroke="#9a32cd" points="277.668,-293.249 282.918,-302.451 284.553,-291.983 277.668,-293.249"/>
<text text-anchor="middle" x="317" y="-265" font-family="Helvetica,sans-Serif" font-size="10.00"> DrawableItems</text>
</g>
<!-- Node8 -->
<g id="node7" class="node"><title>Node8</title>
<g id="a_node7"><a xlink:href="structant_1_1canvas_1_1_drawable_item.html" target="_top" xlink:title="ant::canvas::DrawableItem">
<polygon fill="white" stroke="black" points="140.5,-380.5 140.5,-399.5 284.5,-399.5 284.5,-380.5 140.5,-380.5"/>
<text text-anchor="middle" x="212.5" y="-387.5" font-family="Helvetica,sans-Serif" font-size="10.00">ant::canvas::DrawableItem</text>
</a>
</g>
</g>
<!-- Node8&#45;&gt;Node7 -->
<g id="edge7" class="edge"><title>Node8&#45;&gt;Node7</title>
<path fill="none" stroke="#9a32cd" stroke-dasharray="5,2" d="M228.971,-373.093C241.581,-360.915 258.812,-344.274 270.925,-332.576"/>
<polygon fill="#9a32cd" stroke="#9a32cd" points="226.213,-370.891 221.451,-380.355 231.076,-375.926 226.213,-370.891"/>
<text text-anchor="middle" x="276" y="-354" font-family="Helvetica,sans-Serif" font-size="10.00"> elements</text>
</g>
<!-- Node9 -->
<g id="node8" class="node"><title>Node9</title>
<g id="a_node8"><a xlink:title="STL class. ">
<polygon fill="white" stroke="#bfbfbf" points="19,-447.5 19,-466.5 84,-466.5 84,-447.5 19,-447.5"/>
<text text-anchor="middle" x="51.5" y="-454.5" font-family="Helvetica,sans-Serif" font-size="10.00">std::string</text>
</a>
</g>
</g>
<!-- Node9&#45;&gt;Node3 -->
<g id="edge10" class="edge"><title>Node9&#45;&gt;Node3</title>
<path fill="none" stroke="#9a32cd" stroke-dasharray="5,2" d="M44.5345,-437.819C40.2213,-424.945 35.5,-407.161 35.5,-391 35.5,-391 35.5,-391 35.5,-138.5 35.5,-103.458 75.862,-84.9126 107.237,-75.7905"/>
<polygon fill="#9a32cd" stroke="#9a32cd" points="41.2774,-439.105 47.9491,-447.336 47.8662,-436.741 41.2774,-439.105"/>
<text text-anchor="middle" x="82" y="-276" font-family="Helvetica,sans-Serif" font-size="10.00"> title</text>
<text text-anchor="middle" x="82" y="-265" font-family="Helvetica,sans-Serif" font-size="10.00">name</text>
<text text-anchor="middle" x="82" y="-254" font-family="Helvetica,sans-Serif" font-size="10.00">current_drawoption</text>
</g>
<!-- Node9&#45;&gt;Node8 -->
<g id="edge8" class="edge"><title>Node9&#45;&gt;Node8</title>
<path fill="none" stroke="#9a32cd" stroke-dasharray="5,2" d="M82.2036,-443.604C114.17,-430.698 163.39,-410.827 191.288,-399.564"/>
<polygon fill="#9a32cd" stroke="#9a32cd" points="80.8421,-440.379 72.8796,-447.369 83.4627,-446.87 80.8421,-440.379"/>
<text text-anchor="middle" x="160" y="-421" font-family="Helvetica,sans-Serif" font-size="10.00"> Option</text>
</g>
<!-- Node10 -->
<g id="node9" class="node"><title>Node10</title>
<g id="a_node9"><a xlink:title="STL class. ">
<polygon fill="white" stroke="#bfbfbf" points="0,-504.5 0,-534.5 103,-534.5 103,-504.5 0,-504.5"/>
<text text-anchor="start" x="8" y="-522.5" font-family="Helvetica,sans-Serif" font-size="10.00">std::basic_string&lt;</text>
<text text-anchor="middle" x="51.5" y="-511.5" font-family="Helvetica,sans-Serif" font-size="10.00"> char &gt;</text>
</a>
</g>
</g>
<!-- Node10&#45;&gt;Node9 -->
<g id="edge9" class="edge"><title>Node10&#45;&gt;Node9</title>
<path fill="none" stroke="midnightblue" d="M51.5,-494.352C51.5,-484.513 51.5,-473.775 51.5,-466.54"/>
<polygon fill="midnightblue" stroke="midnightblue" points="48.0001,-494.468 51.5,-504.468 55.0001,-494.468 48.0001,-494.468"/>
</g>
</g>
</svg>
