<?xml version="1.0" encoding="UTF-8" standalone="no"?>
<!DOCTYPE svg PUBLIC "-//W3C//DTD SVG 1.1//EN"
 "http://www.w3.org/Graphics/SVG/1.1/DTD/svg11.dtd">
<!-- Generated by graphviz version 2.38.0 (20140413.2041)
 -->
<!-- Title: ant::analysis::physics::EtapOmegaG::Sig_t::OmegaPi0_t::Tree_t Pages: 1 -->
<svg width="195pt" height="251pt"
 viewBox="0.00 0.00 195.00 251.00" xmlns="http://www.w3.org/2000/svg" xmlns:xlink="http://www.w3.org/1999/xlink">
<g id="graph0" class="graph" transform="scale(1 1) rotate(0) translate(4 247)">
<title>ant::analysis::physics::EtapOmegaG::Sig_t::OmegaPi0_t::Tree_t</title>
<polygon fill="white" stroke="none" points="-4,4 -4,-247 191,-247 191,4 -4,4"/>
<!-- Node4 -->
<g id="node1" class="node"><title>Node4</title>
<polygon fill="#bfbfbf" stroke="black" points="7,-0.5 7,-41.5 180,-41.5 180,-0.5 7,-0.5"/>
<text text-anchor="start" x="15" y="-29.5" font-family="Helvetica,sans-Serif" font-size="10.00">ant::analysis::physics</text>
<text text-anchor="start" x="15" y="-18.5" font-family="Helvetica,sans-Serif" font-size="10.00">::EtapOmegaG::Sig_t::OmegaPi0</text>
<text text-anchor="middle" x="93.5" y="-7.5" font-family="Helvetica,sans-Serif" font-size="10.00">_t::Tree_t</text>
</g>
<!-- Node5 -->
<g id="node2" class="node"><title>Node5</title>
<g id="a_node2"><a xlink:href="structant_1_1analysis_1_1physics_1_1_etap_omega_g_1_1_sig__t_1_1_fit__t_1_1_base_tree__t.html" target="_top" xlink:title="ant::analysis::physics\l::EtapOmegaG::Sig_t::Fit\l_t::BaseTree_t">
<polygon fill="white" stroke="black" points="26.5,-78.5 26.5,-119.5 160.5,-119.5 160.5,-78.5 26.5,-78.5"/>
<text text-anchor="start" x="34.5" y="-107.5" font-family="Helvetica,sans-Serif" font-size="10.00">ant::analysis::physics</text>
<text text-anchor="start" x="34.5" y="-96.5" font-family="Helvetica,sans-Serif" font-size="10.00">::EtapOmegaG::Sig_t::Fit</text>
<text text-anchor="middle" x="93.5" y="-85.5" font-family="Helvetica,sans-Serif" font-size="10.00">_t::BaseTree_t</text>
</a>
</g>
</g>
<!-- Node5&#45;&gt;Node4 -->
<g id="edge1" class="edge"><title>Node5&#45;&gt;Node4</title>
<path fill="none" stroke="midnightblue" d="M93.5,-68.2965C93.5,-59.3009 93.5,-49.6532 93.5,-41.5056"/>
<polygon fill="midnightblue" stroke="midnightblue" points="90.0001,-68.4281 93.5,-78.4281 97.0001,-68.4281 90.0001,-68.4281"/>
</g>
<!-- Node6 -->
<g id="node3" class="node"><title>Node6</title>
<g id="a_node3"><a xlink:href="structant_1_1analysis_1_1physics_1_1_etap_omega_g_1_1_proton_photon_tree__t.html" target="_top" xlink:title="ant::analysis::physics\l::EtapOmegaG::ProtonPhotonTree_t">
<polygon fill="white" stroke="black" points="-1.42109e-14,-156.5 -1.42109e-14,-186.5 187,-186.5 187,-156.5 -1.42109e-14,-156.5"/>
<text text-anchor="start" x="8" y="-174.5" font-family="Helvetica,sans-Serif" font-size="10.00">ant::analysis::physics</text>
<text text-anchor="middle" x="93.5" y="-163.5" font-family="Helvetica,sans-Serif" font-size="10.00">::EtapOmegaG::ProtonPhotonTree_t</text>
</a>
</g>
</g>
<!-- Node6&#45;&gt;Node5 -->
<g id="edge2" class="edge"><title>Node6&#45;&gt;Node5</title>
<path fill="none" stroke="midnightblue" d="M93.5,-145.982C93.5,-137.347 93.5,-127.762 93.5,-119.588"/>
<polygon fill="midnightblue" stroke="midnightblue" points="90.0001,-146.233 93.5,-156.233 97.0001,-146.233 90.0001,-146.233"/>
</g>
<!-- Node7 -->
<g id="node4" class="node"><title>Node7</title>
<g id="a_node4"><a xlink:href="classant_1_1_wrap_t_tree.html" target="_top" xlink:title="The WrapTTree struct simplifies TTree handling in physics classes. ">
<polygon fill="white" stroke="black" points="50.5,-223.5 50.5,-242.5 136.5,-242.5 136.5,-223.5 50.5,-223.5"/>
<text text-anchor="middle" x="93.5" y="-230.5" font-family="Helvetica,sans-Serif" font-size="10.00">ant::WrapTTree</text>
</a>
</g>
</g>
<!-- Node7&#45;&gt;Node6 -->
<g id="edge3" class="edge"><title>Node7&#45;&gt;Node6</title>
<path fill="none" stroke="midnightblue" d="M93.5,-213.235C93.5,-204.586 93.5,-194.497 93.5,-186.523"/>
<polygon fill="midnightblue" stroke="midnightblue" points="90.0001,-213.475 93.5,-223.475 97.0001,-213.475 90.0001,-213.475"/>
</g>
</g>
</svg>
