<?xml version="1.0" encoding="UTF-8" standalone="no"?>
<!DOCTYPE svg PUBLIC "-//W3C//DTD SVG 1.1//EN"
 "http://www.w3.org/Graphics/SVG/1.1/DTD/svg11.dtd">
<!-- Generated by graphviz version 2.38.0 (20140413.2041)
 -->
<!-- Title: ant::analysis::physics::EtapOmegaG::Sig_t::Fit_t::BaseTree_t Pages: 1 -->
<svg width="696pt" height="110pt"
 viewBox="0.00 0.00 696.00 110.00" xmlns="http://www.w3.org/2000/svg" xmlns:xlink="http://www.w3.org/1999/xlink">
<g id="graph0" class="graph" transform="scale(1 1) rotate(0) translate(4 106)">
<title>ant::analysis::physics::EtapOmegaG::Sig_t::Fit_t::BaseTree_t</title>
<polygon fill="white" stroke="none" points="-4,4 -4,-106 692,-106 692,4 -4,4"/>
<!-- Node0 -->
<g id="node1" class="node"><title>Node0</title>
<polygon fill="#bfbfbf" stroke="black" points="345,-30.5 345,-71.5 479,-71.5 479,-30.5 345,-30.5"/>
<text text-anchor="start" x="353" y="-59.5" font-family="Helvetica,sans-Serif" font-size="10.00">ant::analysis::physics</text>
<text text-anchor="start" x="353" y="-48.5" font-family="Helvetica,sans-Serif" font-size="10.00">::EtapOmegaG::Sig_t::Fit</text>
<text text-anchor="middle" x="412" y="-37.5" font-family="Helvetica,sans-Serif" font-size="10.00">_t::BaseTree_t</text>
</g>
<!-- Node3 -->
<g id="node4" class="node"><title>Node3</title>
<g id="a_node4"><a xlink:href="structant_1_1analysis_1_1physics_1_1_etap_omega_g_1_1_sig__t_1_1_omega_pi0__t_1_1_tree__t.html" target="_top" xlink:title="ant::analysis::physics\l::EtapOmegaG::Sig_t::OmegaPi0\l_t::Tree_t">
<polygon fill="white" stroke="black" points="515,-60.5 515,-101.5 688,-101.5 688,-60.5 515,-60.5"/>
<text text-anchor="start" x="523" y="-89.5" font-family="Helvetica,sans-Serif" font-size="10.00">ant::analysis::physics</text>
<text text-anchor="start" x="523" y="-78.5" font-family="Helvetica,sans-Serif" font-size="10.00">::EtapOmegaG::Sig_t::OmegaPi0</text>
<text text-anchor="middle" x="601.5" y="-67.5" font-family="Helvetica,sans-Serif" font-size="10.00">_t::Tree_t</text>
</a>
</g>
</g>
<!-- Node0&#45;&gt;Node3 -->
<g id="edge3" class="edge"><title>Node0&#45;&gt;Node3</title>
<path fill="none" stroke="midnightblue" d="M489.02,-63.1633C497.561,-64.5298 506.306,-65.929 514.957,-67.3131"/>
<polygon fill="midnightblue" stroke="midnightblue" points="489.533,-59.7008 479.105,-61.5769 488.427,-66.6129 489.533,-59.7008"/>
</g>
<!-- Node4 -->
<g id="node5" class="node"><title>Node4</title>
<g id="a_node5"><a xlink:href="structant_1_1analysis_1_1physics_1_1_etap_omega_g_1_1_sig__t_1_1_pi0__t_1_1_tree__t.html" target="_top" xlink:title="ant::analysis::physics\l::EtapOmegaG::Sig_t::Pi0\l_t::Tree_t">
<polygon fill="white" stroke="black" points="533,-0.5 533,-41.5 670,-41.5 670,-0.5 533,-0.5"/>
<text text-anchor="start" x="541" y="-29.5" font-family="Helvetica,sans-Serif" font-size="10.00">ant::analysis::physics</text>
<text text-anchor="start" x="541" y="-18.5" font-family="Helvetica,sans-Serif" font-size="10.00">::EtapOmegaG::Sig_t::Pi0</text>
<text text-anchor="middle" x="601.5" y="-7.5" font-family="Helvetica,sans-Serif" font-size="10.00">_t::Tree_t</text>
</a>
</g>
</g>
<!-- Node0&#45;&gt;Node4 -->
<g id="edge4" class="edge"><title>Node0&#45;&gt;Node4</title>
<path fill="none" stroke="midnightblue" d="M489.02,-38.8367C503.503,-36.5195 518.571,-34.1086 532.774,-31.8362"/>
<polygon fill="midnightblue" stroke="midnightblue" points="488.427,-35.3871 479.105,-40.4231 489.533,-42.2992 488.427,-35.3871"/>
</g>
<!-- Node1 -->
<g id="node2" class="node"><title>Node1</title>
<g id="a_node2"><a xlink:href="structant_1_1analysis_1_1physics_1_1_etap_omega_g_1_1_proton_photon_tree__t.html" target="_top" xlink:title="ant::analysis::physics\l::EtapOmegaG::ProtonPhotonTree_t">
<polygon fill="white" stroke="black" points="122,-36 122,-66 309,-66 309,-36 122,-36"/>
<text text-anchor="start" x="130" y="-54" font-family="Helvetica,sans-Serif" font-size="10.00">ant::analysis::physics</text>
<text text-anchor="middle" x="215.5" y="-43" font-family="Helvetica,sans-Serif" font-size="10.00">::EtapOmegaG::ProtonPhotonTree_t</text>
</a>
</g>
</g>
<!-- Node1&#45;&gt;Node0 -->
<g id="edge1" class="edge"><title>Node1&#45;&gt;Node0</title>
<path fill="none" stroke="midnightblue" d="M319.353,-51C327.998,-51 336.585,-51 344.837,-51"/>
<polygon fill="midnightblue" stroke="midnightblue" points="319.193,-47.5001 309.193,-51 319.193,-54.5001 319.193,-47.5001"/>
</g>
<!-- Node2 -->
<g id="node3" class="node"><title>Node2</title>
<g id="a_node3"><a xlink:href="classant_1_1_wrap_t_tree.html" target="_top" xlink:title="The WrapTTree struct simplifies TTree handling in physics classes. ">
<polygon fill="white" stroke="black" points="0,-41.5 0,-60.5 86,-60.5 86,-41.5 0,-41.5"/>
<text text-anchor="middle" x="43" y="-48.5" font-family="Helvetica,sans-Serif" font-size="10.00">ant::WrapTTree</text>
</a>
</g>
</g>
<!-- Node2&#45;&gt;Node1 -->
<g id="edge2" class="edge"><title>Node2&#45;&gt;Node1</title>
<path fill="none" stroke="midnightblue" d="M96.207,-51C104.374,-51 113.02,-51 121.772,-51"/>
<polygon fill="midnightblue" stroke="midnightblue" points="96.1461,-47.5001 86.1461,-51 96.146,-54.5001 96.1461,-47.5001"/>
</g>
</g>
</svg>
