<?xml version="1.0" encoding="UTF-8" standalone="no"?>
<!DOCTYPE svg PUBLIC "-//W3C//DTD SVG 1.1//EN"
 "http://www.w3.org/Graphics/SVG/1.1/DTD/svg11.dtd">
<!-- Generated by graphviz version 2.38.0 (20140413.2041)
 -->
<!-- Title: src/root&#45;addons/analysis_codes/symmetric_pi0.cc Pages: 1 -->
<svg width="917pt" height="319pt"
 viewBox="0.00 0.00 916.50 319.00" xmlns="http://www.w3.org/2000/svg" xmlns:xlink="http://www.w3.org/1999/xlink">
<g id="graph0" class="graph" transform="scale(1 1) rotate(0) translate(4 315)">
<title>src/root&#45;addons/analysis_codes/symmetric_pi0.cc</title>
<polygon fill="white" stroke="none" points="-4,4 -4,-315 912.5,-315 912.5,4 -4,4"/>
<!-- Node0 -->
<g id="node1" class="node"><title>Node0</title>
<polygon fill="#bfbfbf" stroke="black" points="302.5,-280.5 302.5,-310.5 439.5,-310.5 439.5,-280.5 302.5,-280.5"/>
<text text-anchor="start" x="310.5" y="-298.5" font-family="Helvetica,sans-Serif" font-size="10.00">src/root&#45;addons/analysis</text>
<text text-anchor="middle" x="371" y="-287.5" font-family="Helvetica,sans-Serif" font-size="10.00">_codes/symmetric_pi0.cc</text>
</g>
<!-- Node1 -->
<g id="node2" class="node"><title>Node1</title>
<g id="a_node2"><a xlink:href="symmetric__pi0_8h.html" target="_top" xlink:title="symmetric_pi0.h">
<polygon fill="white" stroke="black" points="0,-224.5 0,-243.5 96,-243.5 96,-224.5 0,-224.5"/>
<text text-anchor="middle" x="48" y="-231.5" font-family="Helvetica,sans-Serif" font-size="10.00">symmetric_pi0.h</text>
</a>
</g>
</g>
<!-- Node0&#45;&gt;Node1 -->
<g id="edge1" class="edge"><title>Node0&#45;&gt;Node1</title>
<path fill="none" stroke="midnightblue" d="M302.105,-281.809C243.15,-270.949 159.33,-255.508 104.321,-245.375"/>
<polygon fill="midnightblue" stroke="midnightblue" points="104.866,-241.917 94.3975,-243.547 103.598,-248.801 104.866,-241.917"/>
</g>
<!-- Node2 -->
<g id="node3" class="node"><title>Node2</title>
<polygon fill="white" stroke="#bfbfbf" points="114,-224.5 114,-243.5 164,-243.5 164,-224.5 114,-224.5"/>
<text text-anchor="middle" x="139" y="-231.5" font-family="Helvetica,sans-Serif" font-size="10.00">TTree.h</text>
</g>
<!-- Node0&#45;&gt;Node2 -->
<g id="edge2" class="edge"><title>Node0&#45;&gt;Node2</title>
<path fill="none" stroke="midnightblue" d="M315.49,-280.485C278.106,-271.013 227.429,-258.111 174.209,-244.299"/>
<polygon fill="midnightblue" stroke="midnightblue" points="174.803,-240.837 164.244,-241.709 173.043,-247.612 174.803,-240.837"/>
</g>
<!-- Node3 -->
<g id="node4" class="node"><title>Node3</title>
<polygon fill="white" stroke="#bfbfbf" points="182,-224.5 182,-243.5 226,-243.5 226,-224.5 182,-224.5"/>
<text text-anchor="middle" x="204" y="-231.5" font-family="Helvetica,sans-Serif" font-size="10.00">TH2.h</text>
</g>
<!-- Node0&#45;&gt;Node3 -->
<g id="edge3" class="edge"><title>Node0&#45;&gt;Node3</title>
<path fill="none" stroke="midnightblue" d="M331.423,-280.399C302.216,-269.993 262.985,-256.016 235.804,-246.331"/>
<polygon fill="midnightblue" stroke="midnightblue" points="236.971,-243.032 226.376,-242.972 234.621,-249.626 236.971,-243.032"/>
</g>
<!-- Node4 -->
<g id="node5" class="node"><title>Node4</title>
<polygon fill="white" stroke="#bfbfbf" points="243.5,-224.5 243.5,-243.5 332.5,-243.5 332.5,-224.5 243.5,-224.5"/>
<text text-anchor="middle" x="288" y="-231.5" font-family="Helvetica,sans-Serif" font-size="10.00">TGraphErrors.h</text>
</g>
<!-- Node0&#45;&gt;Node4 -->
<g id="edge4" class="edge"><title>Node0&#45;&gt;Node4</title>
<path fill="none" stroke="midnightblue" d="M351.33,-280.399C338.399,-271.129 321.514,-259.025 308.432,-249.647"/>
<polygon fill="midnightblue" stroke="midnightblue" points="310.244,-246.639 300.077,-243.658 306.165,-252.329 310.244,-246.639"/>
</g>
<!-- Node5 -->
<g id="node6" class="node"><title>Node5</title>
<polygon fill="white" stroke="#bfbfbf" points="350,-224.5 350,-243.5 392,-243.5 392,-224.5 350,-224.5"/>
<text text-anchor="middle" x="371" y="-231.5" font-family="Helvetica,sans-Serif" font-size="10.00">TF1.h</text>
</g>
<!-- Node0&#45;&gt;Node5 -->
<g id="edge5" class="edge"><title>Node0&#45;&gt;Node5</title>
<path fill="none" stroke="midnightblue" d="M371,-280.399C371,-272.466 371,-262.458 371,-253.858"/>
<polygon fill="midnightblue" stroke="midnightblue" points="374.5,-253.658 371,-243.658 367.5,-253.658 374.5,-253.658"/>
</g>
<!-- Node6 -->
<g id="node7" class="node"><title>Node6</title>
<polygon fill="white" stroke="#bfbfbf" points="410.5,-224.5 410.5,-243.5 475.5,-243.5 475.5,-224.5 410.5,-224.5"/>
<text text-anchor="middle" x="443" y="-231.5" font-family="Helvetica,sans-Serif" font-size="10.00">TCanvas.h</text>
</g>
<!-- Node0&#45;&gt;Node6 -->
<g id="edge6" class="edge"><title>Node0&#45;&gt;Node6</title>
<path fill="none" stroke="midnightblue" d="M388.063,-280.399C399.065,-271.308 413.365,-259.49 424.618,-250.191"/>
<polygon fill="midnightblue" stroke="midnightblue" points="427.044,-252.726 432.523,-243.658 422.585,-247.33 427.044,-252.726"/>
</g>
<!-- Node7 -->
<g id="node8" class="node"><title>Node7</title>
<polygon fill="white" stroke="#bfbfbf" points="493.5,-224.5 493.5,-243.5 566.5,-243.5 566.5,-224.5 493.5,-224.5"/>
<text text-anchor="middle" x="530" y="-231.5" font-family="Helvetica,sans-Serif" font-size="10.00">TDirectory.h</text>
</g>
<!-- Node0&#45;&gt;Node7 -->
<g id="edge7" class="edge"><title>Node0&#45;&gt;Node7</title>
<path fill="none" stroke="midnightblue" d="M408.681,-280.399C435.596,-270.327 471.452,-256.909 497.193,-247.277"/>
<polygon fill="midnightblue" stroke="midnightblue" points="498.725,-250.441 506.864,-243.658 496.272,-243.885 498.725,-250.441"/>
</g>
<!-- Node8 -->
<g id="node9" class="node"><title>Node8</title>
<polygon fill="white" stroke="#bfbfbf" points="584.5,-224.5 584.5,-243.5 631.5,-243.5 631.5,-224.5 584.5,-224.5"/>
<text text-anchor="middle" x="608" y="-231.5" font-family="Helvetica,sans-Serif" font-size="10.00">TCut.h</text>
</g>
<!-- Node0&#45;&gt;Node8 -->
<g id="edge8" class="edge"><title>Node0&#45;&gt;Node8</title>
<path fill="none" stroke="midnightblue" d="M430.338,-280.424C469.017,-271.124 520.821,-258.435 574.56,-244.327"/>
<polygon fill="midnightblue" stroke="midnightblue" points="575.48,-247.704 584.258,-241.77 573.696,-240.935 575.48,-247.704"/>
</g>
<!-- Node9 -->
<g id="node10" class="node"><title>Node9</title>
<g id="a_node10"><a xlink:href="_tree_tools_8h.html" target="_top" xlink:title="TreeTools.h">
<polygon fill="white" stroke="black" points="650,-224.5 650,-243.5 718,-243.5 718,-224.5 650,-224.5"/>
<text text-anchor="middle" x="684" y="-231.5" font-family="Helvetica,sans-Serif" font-size="10.00">TreeTools.h</text>
</a>
</g>
</g>
<!-- Node0&#45;&gt;Node9 -->
<g id="edge9" class="edge"><title>Node0&#45;&gt;Node9</title>
<path fill="none" stroke="midnightblue" d="M439.602,-282.088C491.874,-272.534 565.896,-258.798 639.795,-244.208"/>
<polygon fill="midnightblue" stroke="midnightblue" points="640.616,-247.614 649.746,-242.238 639.257,-240.747 640.616,-247.614"/>
</g>
<!-- Node10 -->
<g id="node11" class="node"><title>Node10</title>
<polygon fill="white" stroke="#bfbfbf" points="605,-112.5 605,-131.5 649,-131.5 649,-112.5 605,-112.5"/>
<text text-anchor="middle" x="627" y="-119.5" font-family="Helvetica,sans-Serif" font-size="10.00">string</text>
</g>
<!-- Node9&#45;&gt;Node10 -->
<g id="edge10" class="edge"><title>Node9&#45;&gt;Node10</title>
<path fill="none" stroke="midnightblue" d="M675.212,-224.453C666.888,-215.918 654.568,-202.075 647,-188 639.137,-173.376 633.878,-155.205 630.734,-141.796"/>
<polygon fill="midnightblue" stroke="midnightblue" points="634.115,-140.87 628.58,-131.836 627.273,-142.349 634.115,-140.87"/>
</g>
<!-- Node11 -->
<g id="node12" class="node"><title>Node11</title>
<g id="a_node12"><a xlink:href="_histogram_factory_8h.html" target="_top" xlink:title="analysis/plot/HistogramFactory.h">
<polygon fill="white" stroke="black" points="655.5,-168.5 655.5,-187.5 826.5,-187.5 826.5,-168.5 655.5,-168.5"/>
<text text-anchor="middle" x="741" y="-175.5" font-family="Helvetica,sans-Serif" font-size="10.00">analysis/plot/HistogramFactory.h</text>
</a>
</g>
</g>
<!-- Node9&#45;&gt;Node11 -->
<g id="edge11" class="edge"><title>Node9&#45;&gt;Node11</title>
<path fill="none" stroke="midnightblue" d="M693.158,-224.324C701.501,-216.42 714.032,-204.548 724.177,-194.938"/>
<polygon fill="midnightblue" stroke="midnightblue" points="726.823,-197.252 731.675,-187.834 722.009,-192.171 726.823,-197.252"/>
</g>
<!-- Node11&#45;&gt;Node10 -->
<g id="edge26" class="edge"><title>Node11&#45;&gt;Node10</title>
<path fill="none" stroke="midnightblue" d="M722.936,-168.444C704.425,-159.675 675.419,-145.935 654.145,-135.858"/>
<polygon fill="midnightblue" stroke="midnightblue" points="655.515,-132.634 644.979,-131.516 652.518,-138.96 655.515,-132.634"/>
</g>
<!-- Node12 -->
<g id="node13" class="node"><title>Node12</title>
<g id="a_node13"><a xlink:href="interval_8h.html" target="_top" xlink:title="base/interval.h">
<polygon fill="white" stroke="black" points="633.5,-56.5 633.5,-75.5 720.5,-75.5 720.5,-56.5 633.5,-56.5"/>
<text text-anchor="middle" x="677" y="-63.5" font-family="Helvetica,sans-Serif" font-size="10.00">base/interval.h</text>
</a>
</g>
</g>
<!-- Node11&#45;&gt;Node12 -->
<g id="edge12" class="edge"><title>Node11&#45;&gt;Node12</title>
<path fill="none" stroke="midnightblue" d="M730.091,-168.472C720.143,-160.157 705.71,-146.652 697,-132 688.422,-117.569 683.203,-99.1169 680.258,-85.562"/>
<polygon fill="midnightblue" stroke="midnightblue" points="683.649,-84.666 678.295,-75.5235 676.779,-86.0093 683.649,-84.666"/>
</g>
<!-- Node20 -->
<g id="node21" class="node"><title>Node20</title>
<g id="a_node21"><a xlink:href="_bin_settings_8h.html" target="_top" xlink:title="base/BinSettings.h">
<polygon fill="white" stroke="black" points="705.5,-112.5 705.5,-131.5 812.5,-131.5 812.5,-112.5 705.5,-112.5"/>
<text text-anchor="middle" x="759" y="-119.5" font-family="Helvetica,sans-Serif" font-size="10.00">base/BinSettings.h</text>
</a>
</g>
</g>
<!-- Node11&#45;&gt;Node20 -->
<g id="edge20" class="edge"><title>Node11&#45;&gt;Node20</title>
<path fill="none" stroke="midnightblue" d="M743.972,-168.083C746.384,-160.849 749.864,-150.409 752.868,-141.397"/>
<polygon fill="midnightblue" stroke="midnightblue" points="756.241,-142.345 756.083,-131.751 749.6,-140.131 756.241,-142.345"/>
</g>
<!-- Node21 -->
<g id="node22" class="node"><title>Node21</title>
<polygon fill="white" stroke="#bfbfbf" points="852.5,-56.5 852.5,-75.5 899.5,-75.5 899.5,-56.5 852.5,-56.5"/>
<text text-anchor="middle" x="876" y="-63.5" font-family="Helvetica,sans-Serif" font-size="10.00">vector</text>
</g>
<!-- Node11&#45;&gt;Node21 -->
<g id="edge27" class="edge"><title>Node11&#45;&gt;Node21</title>
<path fill="none" stroke="midnightblue" d="M760.924,-168.482C778.151,-160.546 803.178,-147.609 822,-132 838.86,-118.018 854.421,-98.2374 864.464,-84.1767"/>
<polygon fill="midnightblue" stroke="midnightblue" points="867.395,-86.0913 870.224,-75.8812 861.646,-82.0985 867.395,-86.0913"/>
</g>
<!-- Node13 -->
<g id="node14" class="node"><title>Node13</title>
<g id="a_node14"><a xlink:href="types_8h.html" target="_top" xlink:title="types.h">
<polygon fill="white" stroke="black" points="506,-0.5 506,-19.5 558,-19.5 558,-0.5 506,-0.5"/>
<text text-anchor="middle" x="532" y="-7.5" font-family="Helvetica,sans-Serif" font-size="10.00">types.h</text>
</a>
</g>
</g>
<!-- Node12&#45;&gt;Node13 -->
<g id="edge13" class="edge"><title>Node12&#45;&gt;Node13</title>
<path fill="none" stroke="midnightblue" d="M654.024,-56.4435C629.843,-47.4381 591.582,-33.1891 564.354,-23.049"/>
<polygon fill="midnightblue" stroke="midnightblue" points="565.461,-19.7265 554.868,-19.5164 563.018,-26.2864 565.461,-19.7265"/>
</g>
<!-- Node14 -->
<g id="node15" class="node"><title>Node14</title>
<polygon fill="white" stroke="#bfbfbf" points="576,-0.5 576,-19.5 638,-19.5 638,-0.5 576,-0.5"/>
<text text-anchor="middle" x="607" y="-7.5" font-family="Helvetica,sans-Serif" font-size="10.00">algorithm</text>
</g>
<!-- Node12&#45;&gt;Node14 -->
<g id="edge14" class="edge"><title>Node12&#45;&gt;Node14</title>
<path fill="none" stroke="midnightblue" d="M665.753,-56.324C655.203,-48.1849 639.199,-35.8395 626.558,-26.0874"/>
<polygon fill="midnightblue" stroke="midnightblue" points="628.507,-23.1707 618.451,-19.8339 624.231,-28.7132 628.507,-23.1707"/>
</g>
<!-- Node15 -->
<g id="node16" class="node"><title>Node15</title>
<polygon fill="white" stroke="#bfbfbf" points="424,-0.5 424,-19.5 488,-19.5 488,-0.5 424,-0.5"/>
<text text-anchor="middle" x="456" y="-7.5" font-family="Helvetica,sans-Serif" font-size="10.00">stdexcept</text>
</g>
<!-- Node12&#45;&gt;Node15 -->
<g id="edge15" class="edge"><title>Node12&#45;&gt;Node15</title>
<path fill="none" stroke="midnightblue" d="M641.982,-56.4435C602.965,-46.9101 539.899,-31.5001 498.193,-21.3096"/>
<polygon fill="midnightblue" stroke="midnightblue" points="498.883,-17.8752 488.338,-18.9015 497.221,-24.6752 498.883,-17.8752"/>
</g>
<!-- Node16 -->
<g id="node17" class="node"><title>Node16</title>
<polygon fill="white" stroke="#bfbfbf" points="656,-0.5 656,-19.5 698,-19.5 698,-0.5 656,-0.5"/>
<text text-anchor="middle" x="677" y="-7.5" font-family="Helvetica,sans-Serif" font-size="10.00">limits</text>
</g>
<!-- Node12&#45;&gt;Node16 -->
<g id="edge16" class="edge"><title>Node12&#45;&gt;Node16</title>
<path fill="none" stroke="midnightblue" d="M677,-56.083C677,-49.0059 677,-38.8611 677,-29.9865"/>
<polygon fill="midnightblue" stroke="midnightblue" points="680.5,-29.751 677,-19.7511 673.5,-29.7511 680.5,-29.751"/>
</g>
<!-- Node17 -->
<g id="node18" class="node"><title>Node17</title>
<polygon fill="white" stroke="#bfbfbf" points="855.5,-0.5 855.5,-19.5 908.5,-19.5 908.5,-0.5 855.5,-0.5"/>
<text text-anchor="middle" x="882" y="-7.5" font-family="Helvetica,sans-Serif" font-size="10.00">istream</text>
</g>
<!-- Node12&#45;&gt;Node17 -->
<g id="edge17" class="edge"><title>Node12&#45;&gt;Node17</title>
<path fill="none" stroke="midnightblue" d="M709.483,-56.4435C746.482,-46.6975 806.795,-30.8101 845.419,-20.6359"/>
<polygon fill="midnightblue" stroke="midnightblue" points="846.443,-23.9856 855.222,-18.0537 844.66,-17.2165 846.443,-23.9856"/>
</g>
<!-- Node18 -->
<g id="node19" class="node"><title>Node18</title>
<polygon fill="white" stroke="#bfbfbf" points="716,-0.5 716,-19.5 772,-19.5 772,-0.5 716,-0.5"/>
<text text-anchor="middle" x="744" y="-7.5" font-family="Helvetica,sans-Serif" font-size="10.00">sstream</text>
</g>
<!-- Node12&#45;&gt;Node18 -->
<g id="edge18" class="edge"><title>Node12&#45;&gt;Node18</title>
<path fill="none" stroke="midnightblue" d="M687.765,-56.324C697.766,-48.2631 712.887,-36.0765 724.93,-26.3695"/>
<polygon fill="midnightblue" stroke="midnightblue" points="727.45,-28.8343 733.039,-19.8339 723.057,-23.3841 727.45,-28.8343"/>
</g>
<!-- Node19 -->
<g id="node20" class="node"><title>Node19</title>
<polygon fill="white" stroke="#bfbfbf" points="790.5,-0.5 790.5,-19.5 837.5,-19.5 837.5,-0.5 790.5,-0.5"/>
<text text-anchor="middle" x="814" y="-7.5" font-family="Helvetica,sans-Serif" font-size="10.00">cmath</text>
</g>
<!-- Node12&#45;&gt;Node19 -->
<g id="edge19" class="edge"><title>Node12&#45;&gt;Node19</title>
<path fill="none" stroke="midnightblue" d="M698.708,-56.4435C721.355,-47.5171 757.072,-33.4387 782.752,-23.3168"/>
<polygon fill="midnightblue" stroke="midnightblue" points="784.374,-26.4397 792.394,-19.5164 781.807,-19.9273 784.374,-26.4397"/>
</g>
<!-- Node20&#45;&gt;Node12 -->
<g id="edge21" class="edge"><title>Node20&#45;&gt;Node12</title>
<path fill="none" stroke="midnightblue" d="M745.825,-112.324C733.153,-103.979 713.767,-91.2122 698.794,-81.3524"/>
<polygon fill="midnightblue" stroke="midnightblue" points="700.419,-78.2313 690.142,-75.6545 696.569,-84.0776 700.419,-78.2313"/>
</g>
<!-- Node20&#45;&gt;Node15 -->
<g id="edge23" class="edge"><title>Node20&#45;&gt;Node15</title>
<path fill="none" stroke="midnightblue" d="M732.441,-112.456C705.321,-103.643 662.059,-89.3423 625,-76 576.275,-58.4577 520.277,-36.5759 486.543,-23.204"/>
<polygon fill="midnightblue" stroke="midnightblue" points="487.818,-19.9445 477.232,-19.5052 485.233,-26.45 487.818,-19.9445"/>
</g>
<!-- Node20&#45;&gt;Node17 -->
<g id="edge24" class="edge"><title>Node20&#45;&gt;Node17</title>
<path fill="none" stroke="midnightblue" d="M757.824,-112.368C756.475,-98.8252 755.917,-72.4375 769,-56 778.91,-43.5482 816.324,-30.1592 845.418,-21.2533"/>
<polygon fill="midnightblue" stroke="midnightblue" points="846.724,-24.516 855.303,-18.2991 844.72,-17.8091 846.724,-24.516"/>
</g>
<!-- Node20&#45;&gt;Node21 -->
<g id="edge22" class="edge"><title>Node20&#45;&gt;Node21</title>
<path fill="none" stroke="midnightblue" d="M777.539,-112.444C796.623,-103.636 826.575,-89.8116 848.436,-79.722"/>
<polygon fill="midnightblue" stroke="midnightblue" points="849.935,-82.8849 857.548,-75.5164 847.001,-76.5292 849.935,-82.8849"/>
</g>
<!-- Node22 -->
<g id="node23" class="node"><title>Node22</title>
<polygon fill="white" stroke="#bfbfbf" points="777.5,-56.5 777.5,-75.5 834.5,-75.5 834.5,-56.5 777.5,-56.5"/>
<text text-anchor="middle" x="806" y="-63.5" font-family="Helvetica,sans-Serif" font-size="10.00">ostream</text>
</g>
<!-- Node20&#45;&gt;Node22 -->
<g id="edge25" class="edge"><title>Node20&#45;&gt;Node22</title>
<path fill="none" stroke="midnightblue" d="M766.761,-112.083C773.537,-104.298 783.543,-92.8015 791.755,-83.3665"/>
<polygon fill="midnightblue" stroke="midnightblue" points="794.458,-85.592 798.383,-75.7511 789.178,-80.9963 794.458,-85.592"/>
</g>
</g>
</svg>
