<?xml version="1.0" encoding="UTF-8" standalone="no"?>
<!DOCTYPE svg PUBLIC "-//W3C//DTD SVG 1.1//EN"
 "http://www.w3.org/Graphics/SVG/1.1/DTD/svg11.dtd">
<!-- Generated by graphviz version 2.38.0 (20140413.2041)
 -->
<!-- Title: src/base/std_ext/system.h Pages: 1 -->
<svg width="4928pt" height="95pt"
 viewBox="0.00 0.00 4927.50 95.00" xmlns="http://www.w3.org/2000/svg" xmlns:xlink="http://www.w3.org/1999/xlink">
<g id="graph0" class="graph" transform="scale(1 1) rotate(0) translate(4 91)">
<title>src/base/std_ext/system.h</title>
<polygon fill="white" stroke="none" points="-4,4 -4,-91 4923.5,-91 4923.5,4 -4,4"/>
<!-- Node3 -->
<g id="node1" class="node"><title>Node3</title>
<polygon fill="#bfbfbf" stroke="black" points="2450,-67.5 2450,-86.5 2593,-86.5 2593,-67.5 2450,-67.5"/>
<text text-anchor="middle" x="2521.5" y="-74.5" font-family="Helvetica,sans-Serif" font-size="10.00">src/base/std_ext/system.h</text>
</g>
<!-- Node4 -->
<g id="node2" class="node"><title>Node4</title>
<g id="a_node2"><a xlink:href="_ant-alt_veto_cal_tool_8cc.html" target="_top" xlink:title="progs/Ant&#45;altVetoCalTool.cc">
<polygon fill="white" stroke="black" points="0,-6 0,-25 147,-25 147,-6 0,-6"/>
<text text-anchor="middle" x="73.5" y="-13" font-family="Helvetica,sans-Serif" font-size="10.00">progs/Ant&#45;altVetoCalTool.cc</text>
</a>
</g>
</g>
<!-- Node3&#45;&gt;Node4 -->
<g id="edge1" class="edge"><title>Node3&#45;&gt;Node4</title>
<path fill="none" stroke="midnightblue" d="M2439.71,-76.1343C2077.24,-76.4693 613.637,-75.0155 156.5,-31 142.959,-29.6962 128.302,-27.426 115.128,-25.0638"/>
<polygon fill="midnightblue" stroke="midnightblue" points="2439.86,-79.6342 2449.85,-76.1242 2439.85,-72.6342 2439.86,-79.6342"/>
</g>
<!-- Node5 -->
<g id="node3" class="node"><title>Node5</title>
<g id="a_node3"><a xlink:href="_ant-calib-dump_8cc.html" target="_top" xlink:title="progs/Ant&#45;calib&#45;dump.cc">
<polygon fill="white" stroke="black" points="165.5,-6 165.5,-25 299.5,-25 299.5,-6 165.5,-6"/>
<text text-anchor="middle" x="232.5" y="-13" font-family="Helvetica,sans-Serif" font-size="10.00">progs/Ant&#45;calib&#45;dump.cc</text>
</a>
</g>
</g>
<!-- Node3&#45;&gt;Node5 -->
<g id="edge2" class="edge"><title>Node3&#45;&gt;Node5</title>
<path fill="none" stroke="midnightblue" d="M2439.57,-76.1792C2091.49,-76.6562 733.684,-75.5631 308.5,-31 296.076,-29.6978 282.649,-27.4282 270.587,-25.0658"/>
<polygon fill="midnightblue" stroke="midnightblue" points="2439.83,-79.679 2449.82,-76.1643 2439.82,-72.679 2439.83,-79.679"/>
</g>
<!-- Node6 -->
<g id="node4" class="node"><title>Node6</title>
<g id="a_node4"><a xlink:href="_ant-calib-readin_8cc.html" target="_top" xlink:title="progs/Ant&#45;calib&#45;readin.cc">
<polygon fill="white" stroke="black" points="317.5,-6 317.5,-25 453.5,-25 453.5,-6 317.5,-6"/>
<text text-anchor="middle" x="385.5" y="-13" font-family="Helvetica,sans-Serif" font-size="10.00">progs/Ant&#45;calib&#45;readin.cc</text>
</a>
</g>
</g>
<!-- Node3&#45;&gt;Node6 -->
<g id="edge3" class="edge"><title>Node3&#45;&gt;Node6</title>
<path fill="none" stroke="midnightblue" d="M2439.82,-76.0073C2107.48,-75.7599 855.939,-72.0626 462.5,-31 449.918,-29.6868 436.315,-27.4141 424.094,-25.0524"/>
<polygon fill="midnightblue" stroke="midnightblue" points="2439.85,-79.5072 2449.85,-76.0139 2439.85,-72.5072 2439.85,-79.5072"/>
</g>
<!-- Node7 -->
<g id="node5" class="node"><title>Node7</title>
<g id="a_node5"><a xlink:href="_ant-calib-regedit_8cc.html" target="_top" xlink:title="progs/Ant&#45;calib&#45;regedit.cc">
<polygon fill="white" stroke="black" points="471.5,-6 471.5,-25 611.5,-25 611.5,-6 471.5,-6"/>
<text text-anchor="middle" x="541.5" y="-13" font-family="Helvetica,sans-Serif" font-size="10.00">progs/Ant&#45;calib&#45;regedit.cc</text>
</a>
</g>
</g>
<!-- Node3&#45;&gt;Node7 -->
<g id="edge4" class="edge"><title>Node3&#45;&gt;Node7</title>
<path fill="none" stroke="midnightblue" d="M2439.4,-75.7824C2122.83,-74.6754 981.225,-68.1392 620.5,-31 607.6,-29.6718 593.647,-27.3951 581.108,-25.0342"/>
<polygon fill="midnightblue" stroke="midnightblue" points="2439.85,-79.2839 2449.86,-75.8181 2439.88,-72.2839 2439.85,-79.2839"/>
</g>
<!-- Node8 -->
<g id="node6" class="node"><title>Node8</title>
<g id="a_node6"><a xlink:href="_ant-calib-smooth_8cc.html" target="_top" xlink:title="progs/Ant&#45;calib&#45;smooth.cc">
<polygon fill="white" stroke="black" points="630,-6 630,-25 773,-25 773,-6 630,-6"/>
<text text-anchor="middle" x="701.5" y="-13" font-family="Helvetica,sans-Serif" font-size="10.00">progs/Ant&#45;calib&#45;smooth.cc</text>
</a>
</g>
</g>
<!-- Node3&#45;&gt;Node8 -->
<g id="edge5" class="edge"><title>Node3&#45;&gt;Node8</title>
<path fill="none" stroke="midnightblue" d="M2439.18,-75.5471C2139.75,-73.6385 1109.02,-64.7156 781.5,-31 768.442,-29.6558 754.313,-27.3746 741.616,-25.0146"/>
<polygon fill="midnightblue" stroke="midnightblue" points="2439.5,-79.0491 2449.52,-75.6121 2439.54,-72.0492 2439.5,-79.0491"/>
</g>
<!-- Node9 -->
<g id="node7" class="node"><title>Node9</title>
<g id="a_node7"><a xlink:href="_ant-calib-viewer_8cc.html" target="_top" xlink:title="progs/Ant&#45;calib&#45;viewer.cc">
<polygon fill="white" stroke="black" points="791,-6 791,-25 926,-25 926,-6 791,-6"/>
<text text-anchor="middle" x="858.5" y="-13" font-family="Helvetica,sans-Serif" font-size="10.00">progs/Ant&#45;calib&#45;viewer.cc</text>
</a>
</g>
</g>
<!-- Node3&#45;&gt;Node9 -->
<g id="edge6" class="edge"><title>Node3&#45;&gt;Node9</title>
<path fill="none" stroke="midnightblue" d="M2439.41,-75.3825C2157.71,-72.9951 1231.39,-62.8566 935.5,-31 922.922,-29.6458 909.321,-27.3619 897.1,-25.0025"/>
<polygon fill="midnightblue" stroke="midnightblue" points="2439.53,-78.8835 2449.56,-75.4674 2439.59,-71.8837 2439.53,-78.8835"/>
</g>
<!-- Node10 -->
<g id="node8" class="node"><title>Node10</title>
<g id="a_node8"><a xlink:href="_ant-chain_8cc.html" target="_top" xlink:title="hadd like tool to concatenate TTrees in ROOT files using TChains. ">
<polygon fill="white" stroke="black" points="944.5,-6 944.5,-25 1050.5,-25 1050.5,-6 944.5,-6"/>
<text text-anchor="middle" x="997.5" y="-13" font-family="Helvetica,sans-Serif" font-size="10.00">progs/Ant&#45;chain.cc</text>
</a>
</g>
</g>
<!-- Node3&#45;&gt;Node10 -->
<g id="edge7" class="edge"><title>Node3&#45;&gt;Node10</title>
<path fill="none" stroke="midnightblue" d="M2439.56,-75.6221C2172.57,-74.0538 1329.4,-66.3562 1059.5,-31 1049.31,-29.6647 1038.34,-27.3859 1028.5,-25.0255"/>
<polygon fill="midnightblue" stroke="midnightblue" points="2439.93,-79.1242 2449.95,-75.6817 2439.97,-72.1243 2439.93,-79.1242"/>
</g>
<!-- Node11 -->
<g id="node9" class="node"><title>Node11</title>
<g id="a_node9"><a xlink:href="_ant-fake_raw_8cc.html" target="_top" xlink:title="progs/Ant&#45;fakeRaw.cc">
<polygon fill="white" stroke="black" points="1069,-6 1069,-25 1188,-25 1188,-6 1069,-6"/>
<text text-anchor="middle" x="1128.5" y="-13" font-family="Helvetica,sans-Serif" font-size="10.00">progs/Ant&#45;fakeRaw.cc</text>
</a>
</g>
</g>
<!-- Node3&#45;&gt;Node11 -->
<g id="edge8" class="edge"><title>Node3&#45;&gt;Node11</title>
<path fill="none" stroke="midnightblue" d="M2439.71,-75.0754C2189.98,-71.9591 1439.73,-60.3443 1197.5,-31 1186.32,-29.6457 1174.26,-27.3921 1163.41,-25.0605"/>
<polygon fill="midnightblue" stroke="midnightblue" points="2439.76,-78.5762 2449.8,-75.2001 2439.84,-71.5767 2439.76,-78.5762"/>
</g>
<!-- Node12 -->
<g id="node10" class="node"><title>Node12</title>
<g id="a_node10"><a xlink:href="_ant-hadd_8cc.html" target="_top" xlink:title="progs/Ant&#45;hadd.cc">
<polygon fill="white" stroke="black" points="1206.5,-6 1206.5,-25 1310.5,-25 1310.5,-6 1206.5,-6"/>
<text text-anchor="middle" x="1258.5" y="-13" font-family="Helvetica,sans-Serif" font-size="10.00">progs/Ant&#45;hadd.cc</text>
</a>
</g>
</g>
<!-- Node3&#45;&gt;Node12 -->
<g id="edge9" class="edge"><title>Node3&#45;&gt;Node12</title>
<path fill="none" stroke="midnightblue" d="M2439.66,-75.0249C2205.65,-71.9047 1536.64,-60.5807 1319.5,-31 1309.58,-29.6482 1298.91,-27.3953 1289.31,-25.0636"/>
<polygon fill="midnightblue" stroke="midnightblue" points="2439.76,-78.5264 2449.81,-75.1586 2439.85,-71.527 2439.76,-78.5264"/>
</g>
<!-- Node13 -->
<g id="node11" class="node"><title>Node13</title>
<g id="a_node11"><a xlink:href="_ant-make_lin_pol_8cc.html" target="_top" xlink:title="progs/Ant&#45;makeLinPol.cc">
<polygon fill="white" stroke="black" points="1329,-6 1329,-25 1464,-25 1464,-6 1329,-6"/>
<text text-anchor="middle" x="1396.5" y="-13" font-family="Helvetica,sans-Serif" font-size="10.00">progs/Ant&#45;makeLinPol.cc</text>
</a>
</g>
</g>
<!-- Node3&#45;&gt;Node13 -->
<g id="edge10" class="edge"><title>Node3&#45;&gt;Node13</title>
<path fill="none" stroke="midnightblue" d="M2439.98,-76.5325C2263.14,-76.8052 1831.29,-72.6974 1472.5,-31 1460.36,-29.5889 1447.25,-27.3488 1435.39,-25.0474"/>
<polygon fill="midnightblue" stroke="midnightblue" points="2440,-80.0326 2449.99,-76.5119 2439.98,-73.0326 2440,-80.0326"/>
</g>
<!-- Node14 -->
<g id="node12" class="node"><title>Node14</title>
<g id="a_node12"><a xlink:href="_ant-make_sigmas_8cc.html" target="_top" xlink:title="progs/Ant&#45;makeSigmas.cc">
<polygon fill="white" stroke="black" points="1482,-6 1482,-25 1625,-25 1625,-6 1482,-6"/>
<text text-anchor="middle" x="1553.5" y="-13" font-family="Helvetica,sans-Serif" font-size="10.00">progs/Ant&#45;makeSigmas.cc</text>
</a>
</g>
</g>
<!-- Node3&#45;&gt;Node14 -->
<g id="edge11" class="edge"><title>Node3&#45;&gt;Node14</title>
<path fill="none" stroke="midnightblue" d="M2439.84,-75.3677C2283.03,-73.3781 1929.1,-65.1351 1633.5,-31 1620.88,-29.5427 1607.25,-27.3179 1594.87,-25.0454"/>
<polygon fill="midnightblue" stroke="midnightblue" points="2439.84,-78.8678 2449.88,-75.4899 2439.92,-71.8683 2439.84,-78.8678"/>
</g>
<!-- Node15 -->
<g id="node13" class="node"><title>Node15</title>
<g id="a_node13"><a xlink:href="_ant-make_tagg_eff_8cc.html" target="_top" xlink:title="progs/Ant&#45;makeTaggEff.cc">
<polygon fill="white" stroke="black" points="1643,-6 1643,-25 1784,-25 1784,-6 1643,-6"/>
<text text-anchor="middle" x="1713.5" y="-13" font-family="Helvetica,sans-Serif" font-size="10.00">progs/Ant&#45;makeTaggEff.cc</text>
</a>
</g>
</g>
<!-- Node3&#45;&gt;Node15 -->
<g id="edge12" class="edge"><title>Node3&#45;&gt;Node15</title>
<path fill="none" stroke="midnightblue" d="M2439.57,-74.1423C2304.35,-70.3601 2026.19,-59.5544 1792.5,-31 1780.18,-29.4948 1766.88,-27.2836 1754.77,-25.0393"/>
<polygon fill="midnightblue" stroke="midnightblue" points="2439.75,-77.6485 2449.84,-74.4238 2439.94,-70.6511 2439.75,-77.6485"/>
</g>
<!-- Node16 -->
<g id="node14" class="node"><title>Node16</title>
<g id="a_node14"><a xlink:href="_ant-mc-omegagun_8cc.html" target="_top" xlink:title="progs/Ant&#45;mc&#45;omegagun.cc">
<polygon fill="white" stroke="black" points="1802,-6 1802,-25 1953,-25 1953,-6 1802,-6"/>
<text text-anchor="middle" x="1877.5" y="-13" font-family="Helvetica,sans-Serif" font-size="10.00">progs/Ant&#45;mc&#45;omegagun.cc</text>
</a>
</g>
</g>
<!-- Node3&#45;&gt;Node16 -->
<g id="edge13" class="edge"><title>Node3&#45;&gt;Node16</title>
<path fill="none" stroke="midnightblue" d="M2439.38,-71.7405C2330.03,-65.5338 2130.71,-52.358 1961.5,-31 1948.73,-29.3876 1934.93,-27.1965 1922.29,-25.0062"/>
<polygon fill="midnightblue" stroke="midnightblue" points="2439.5,-75.2525 2449.68,-72.3194 2439.89,-68.2635 2439.5,-75.2525"/>
</g>
<!-- Node17 -->
<g id="node15" class="node"><title>Node17</title>
<g id="a_node15"><a xlink:href="_ant-mc-pi0gun_8cc.html" target="_top" xlink:title="progs/Ant&#45;mc&#45;pi0gun.cc">
<polygon fill="white" stroke="black" points="1971,-6 1971,-25 2102,-25 2102,-6 1971,-6"/>
<text text-anchor="middle" x="2036.5" y="-13" font-family="Helvetica,sans-Serif" font-size="10.00">progs/Ant&#45;mc&#45;pi0gun.cc</text>
</a>
</g>
</g>
<!-- Node3&#45;&gt;Node17 -->
<g id="edge14" class="edge"><title>Node3&#45;&gt;Node17</title>
<path fill="none" stroke="midnightblue" d="M2439.68,-69.0024C2356.74,-61.4441 2224.84,-48.1462 2111.5,-31 2100.35,-29.3138 2088.34,-27.1488 2077.27,-25.0088"/>
<polygon fill="midnightblue" stroke="midnightblue" points="2439.52,-72.5023 2449.8,-69.918 2440.15,-65.5308 2439.52,-72.5023"/>
</g>
<!-- Node18 -->
<g id="node16" class="node"><title>Node18</title>
<g id="a_node16"><a xlink:href="_ant-plot_8cc.html" target="_top" xlink:title="progs/Ant&#45;plot.cc">
<polygon fill="white" stroke="black" points="2120.5,-6 2120.5,-25 2218.5,-25 2218.5,-6 2120.5,-6"/>
<text text-anchor="middle" x="2169.5" y="-13" font-family="Helvetica,sans-Serif" font-size="10.00">progs/Ant&#45;plot.cc</text>
</a>
</g>
</g>
<!-- Node3&#45;&gt;Node18 -->
<g id="edge15" class="edge"><title>Node3&#45;&gt;Node18</title>
<path fill="none" stroke="midnightblue" d="M2443.98,-66.1404C2384.49,-58.0915 2300.48,-45.6742 2227.5,-31 2218.95,-29.2813 2209.77,-27.1293 2201.29,-25.0135"/>
<polygon fill="midnightblue" stroke="midnightblue" points="2443.67,-69.6306 2454.05,-67.4931 2444.6,-62.6929 2443.67,-69.6306"/>
</g>
<!-- Node19 -->
<g id="node17" class="node"><title>Node19</title>
<g id="a_node17"><a xlink:href="_ant-rawdump_8cc.html" target="_top" xlink:title="progs/Ant&#45;rawdump.cc">
<polygon fill="white" stroke="black" points="2237,-6 2237,-25 2362,-25 2362,-6 2237,-6"/>
<text text-anchor="middle" x="2299.5" y="-13" font-family="Helvetica,sans-Serif" font-size="10.00">progs/Ant&#45;rawdump.cc</text>
</a>
</g>
</g>
<!-- Node3&#45;&gt;Node19 -->
<g id="edge16" class="edge"><title>Node3&#45;&gt;Node19</title>
<path fill="none" stroke="midnightblue" d="M2479.8,-64.8225C2436.67,-53.2645 2370.29,-35.4732 2331.25,-25.0091"/>
<polygon fill="midnightblue" stroke="midnightblue" points="2479.13,-68.2669 2489.69,-67.4751 2480.94,-61.5055 2479.13,-68.2669"/>
</g>
<!-- Node20 -->
<g id="node18" class="node"><title>Node20</title>
<g id="a_node18"><a xlink:href="_ant-smooth_tagg_eff_8cc.html" target="_top" xlink:title="progs/Ant&#45;smoothTaggEff.cc">
<polygon fill="white" stroke="black" points="2380,-6 2380,-25 2531,-25 2531,-6 2380,-6"/>
<text text-anchor="middle" x="2455.5" y="-13" font-family="Helvetica,sans-Serif" font-size="10.00">progs/Ant&#45;smoothTaggEff.cc</text>
</a>
</g>
</g>
<!-- Node3&#45;&gt;Node20 -->
<g id="edge17" class="edge"><title>Node3&#45;&gt;Node20</title>
<path fill="none" stroke="midnightblue" d="M2504.47,-60.6496C2491.89,-49.3058 2475.22,-34.2811 2464.94,-25.0091"/>
<polygon fill="midnightblue" stroke="midnightblue" points="2502.27,-63.3788 2512.04,-67.4751 2506.96,-58.1796 2502.27,-63.3788"/>
</g>
<!-- Node21 -->
<g id="node19" class="node"><title>Node21</title>
<g id="a_node19"><a xlink:href="_ant_8cc.html" target="_top" xlink:title="Main Ant executable. ">
<polygon fill="white" stroke="black" points="2549,-6 2549,-25 2626,-25 2626,-6 2549,-6"/>
<text text-anchor="middle" x="2587.5" y="-13" font-family="Helvetica,sans-Serif" font-size="10.00">progs/Ant.cc</text>
</a>
</g>
</g>
<!-- Node3&#45;&gt;Node21 -->
<g id="edge18" class="edge"><title>Node3&#45;&gt;Node21</title>
<path fill="none" stroke="midnightblue" d="M2538.53,-60.6496C2551.11,-49.3058 2567.78,-34.2811 2578.06,-25.0091"/>
<polygon fill="midnightblue" stroke="midnightblue" points="2536.04,-58.1796 2530.96,-67.4751 2540.73,-63.3788 2536.04,-58.1796"/>
</g>
<!-- Node22 -->
<g id="node20" class="node"><title>Node22</title>
<g id="a_node20"><a xlink:href="_etap_dalitz__fit_8cc.html" target="_top" xlink:title="progs/EtapDalitz_fit.cc">
<polygon fill="white" stroke="black" points="2644,-6 2644,-25 2767,-25 2767,-6 2644,-6"/>
<text text-anchor="middle" x="2705.5" y="-13" font-family="Helvetica,sans-Serif" font-size="10.00">progs/EtapDalitz_fit.cc</text>
</a>
</g>
</g>
<!-- Node3&#45;&gt;Node22 -->
<g id="edge19" class="edge"><title>Node3&#45;&gt;Node22</title>
<path fill="none" stroke="midnightblue" d="M2557.43,-64.3806C2593.2,-52.8152 2647.24,-35.3407 2679.19,-25.0091"/>
<polygon fill="midnightblue" stroke="midnightblue" points="2556.3,-61.068 2547.86,-67.4751 2558.45,-67.7284 2556.3,-61.068"/>
</g>
<!-- Node23 -->
<g id="node21" class="node"><title>Node23</title>
<g id="a_node21"><a xlink:href="_etap_omega_g__fit_8cc.html" target="_top" xlink:title="progs/EtapOmegaG_fit.cc">
<polygon fill="white" stroke="black" points="2785,-6 2785,-25 2924,-25 2924,-6 2785,-6"/>
<text text-anchor="middle" x="2854.5" y="-13" font-family="Helvetica,sans-Serif" font-size="10.00">progs/EtapOmegaG_fit.cc</text>
</a>
</g>
</g>
<!-- Node3&#45;&gt;Node23 -->
<g id="edge20" class="edge"><title>Node3&#45;&gt;Node23</title>
<path fill="none" stroke="midnightblue" d="M2580.88,-65.6795C2632.58,-56.656 2709.53,-43.1344 2776.5,-31 2787.07,-29.0847 2798.44,-26.9904 2809.14,-25.004"/>
<polygon fill="midnightblue" stroke="midnightblue" points="2580.14,-62.2561 2570.89,-67.4225 2581.34,-69.152 2580.14,-62.2561"/>
</g>
<!-- Node24 -->
<g id="node22" class="node"><title>Node24</title>
<g id="a_node22"><a xlink:href="_omega_eta_g__fit_8cc.html" target="_top" xlink:title="progs/OmegaEtaG_fit.cc">
<polygon fill="white" stroke="black" points="2942,-6 2942,-25 3075,-25 3075,-6 2942,-6"/>
<text text-anchor="middle" x="3008.5" y="-13" font-family="Helvetica,sans-Serif" font-size="10.00">progs/OmegaEtaG_fit.cc</text>
</a>
</g>
</g>
<!-- Node3&#45;&gt;Node24 -->
<g id="edge21" class="edge"><title>Node3&#45;&gt;Node24</title>
<path fill="none" stroke="midnightblue" d="M2603.35,-69.0584C2686.67,-61.5234 2819.44,-48.2246 2933.5,-31 2944.65,-29.3167 2956.66,-27.1527 2967.73,-25.0127"/>
<polygon fill="midnightblue" stroke="midnightblue" points="2602.83,-65.5906 2593.18,-69.971 2603.46,-72.5625 2602.83,-65.5906"/>
</g>
<!-- Node25 -->
<g id="node23" class="node"><title>Node25</title>
<g id="a_node23"><a xlink:href="_p_c_a_8cc.html" target="_top" xlink:title="Tool to perform a Principal Component Analysis, based on ROOTs TPrincipal class, to create principal ...">
<polygon fill="white" stroke="black" points="3093.5,-6 3093.5,-25 3173.5,-25 3173.5,-6 3093.5,-6"/>
<text text-anchor="middle" x="3133.5" y="-13" font-family="Helvetica,sans-Serif" font-size="10.00">progs/PCA.cc</text>
</a>
</g>
</g>
<!-- Node3&#45;&gt;Node25 -->
<g id="edge22" class="edge"><title>Node3&#45;&gt;Node25</title>
<path fill="none" stroke="midnightblue" d="M2603.27,-74.7771C2713.45,-71.9242 2915.29,-62.4441 3084.5,-31 3092.35,-29.5412 3100.74,-27.316 3108.31,-25.0436"/>
<polygon fill="midnightblue" stroke="midnightblue" points="2603.13,-71.2793 2593.22,-75.0253 2603.31,-78.2771 2603.13,-71.2793"/>
</g>
<!-- Node26 -->
<g id="node24" class="node"><title>Node26</title>
<g id="a_node24"><a xlink:href="_single_pi0__fit_8cc.html" target="_top" xlink:title="progs/SinglePi0_fit.cc">
<polygon fill="white" stroke="black" points="3191.5,-6 3191.5,-25 3309.5,-25 3309.5,-6 3191.5,-6"/>
<text text-anchor="middle" x="3250.5" y="-13" font-family="Helvetica,sans-Serif" font-size="10.00">progs/SinglePi0_fit.cc</text>
</a>
</g>
</g>
<!-- Node3&#45;&gt;Node26 -->
<g id="edge23" class="edge"><title>Node3&#45;&gt;Node26</title>
<path fill="none" stroke="midnightblue" d="M2603.53,-74.1591C2728.86,-70.5035 2975.31,-59.9932 3182.5,-31 3193.14,-29.5112 3204.6,-27.305 3215.02,-25.0602"/>
<polygon fill="midnightblue" stroke="midnightblue" points="2603.14,-70.6684 2593.25,-74.4514 2603.34,-77.6656 2603.14,-70.6684"/>
</g>
<!-- Node27 -->
<g id="node25" class="node"><title>Node27</title>
<g id="a_node25"><a xlink:href="tagg_eff_plot_8cc.html" target="_top" xlink:title="progs/taggEffPlot.cc">
<polygon fill="white" stroke="black" points="3327.5,-6 3327.5,-25 3439.5,-25 3439.5,-6 3327.5,-6"/>
<text text-anchor="middle" x="3383.5" y="-13" font-family="Helvetica,sans-Serif" font-size="10.00">progs/taggEffPlot.cc</text>
</a>
</g>
</g>
<!-- Node3&#45;&gt;Node27 -->
<g id="edge24" class="edge"><title>Node3&#45;&gt;Node27</title>
<path fill="none" stroke="midnightblue" d="M2603.19,-75.7694C2748,-74.3871 3058.94,-67.0337 3318.5,-31 3328.92,-29.5532 3340.15,-27.3028 3350.29,-25.003"/>
<polygon fill="midnightblue" stroke="midnightblue" points="2603.02,-72.2707 2593.05,-75.859 2603.08,-79.2704 2603.02,-72.2707"/>
</g>
<!-- Node28 -->
<g id="node26" class="node"><title>Node28</title>
<g id="a_node26"><a xlink:href="tagger_energies_8cc.html" target="_top" xlink:title="progs/taggerEnergies.cc">
<polygon fill="white" stroke="black" points="3458,-6 3458,-25 3591,-25 3591,-6 3458,-6"/>
<text text-anchor="middle" x="3524.5" y="-13" font-family="Helvetica,sans-Serif" font-size="10.00">progs/taggerEnergies.cc</text>
</a>
</g>
</g>
<!-- Node3&#45;&gt;Node28 -->
<g id="edge25" class="edge"><title>Node3&#45;&gt;Node28</title>
<path fill="none" stroke="midnightblue" d="M2603.38,-75.8656C2765.36,-74.7527 3137.93,-67.981 3448.5,-31 3460.64,-29.5547 3473.75,-27.3048 3485.61,-25.0048"/>
<polygon fill="midnightblue" stroke="midnightblue" points="2603,-72.3678 2593.02,-75.931 2603.04,-79.3677 2603,-72.3678"/>
</g>
<!-- Node29 -->
<g id="node27" class="node"><title>Node29</title>
<g id="a_node27"><a xlink:href="_particle_i_d_8cc.html" target="_top" xlink:title="src/analysis/utils\l/ParticleID.cc">
<polygon fill="white" stroke="black" points="3609,-0.5 3609,-30.5 3704,-30.5 3704,-0.5 3609,-0.5"/>
<text text-anchor="start" x="3617" y="-18.5" font-family="Helvetica,sans-Serif" font-size="10.00">src/analysis/utils</text>
<text text-anchor="middle" x="3656.5" y="-7.5" font-family="Helvetica,sans-Serif" font-size="10.00">/ParticleID.cc</text>
</a>
</g>
</g>
<!-- Node3&#45;&gt;Node29 -->
<g id="edge26" class="edge"><title>Node3&#45;&gt;Node29</title>
<path fill="none" stroke="midnightblue" d="M2603.2,-74.8308C2820.35,-71.3652 3408.36,-59.5523 3600.5,-31 3603.28,-30.5867 3606.12,-30.0903 3608.98,-29.534"/>
<polygon fill="midnightblue" stroke="midnightblue" points="2603.08,-71.332 2593.14,-74.9895 2603.2,-78.3312 2603.08,-71.332"/>
</g>
<!-- Node30 -->
<g id="node28" class="node"><title>Node30</title>
<g id="a_node28"><a xlink:href="_m_c_extracted_8cc.html" target="_top" xlink:title="src/analysis/utils\l/uncertainties/MCExtracted.cc">
<polygon fill="white" stroke="black" points="3722,-0.5 3722,-30.5 3881,-30.5 3881,-0.5 3722,-0.5"/>
<text text-anchor="start" x="3730" y="-18.5" font-family="Helvetica,sans-Serif" font-size="10.00">src/analysis/utils</text>
<text text-anchor="middle" x="3801.5" y="-7.5" font-family="Helvetica,sans-Serif" font-size="10.00">/uncertainties/MCExtracted.cc</text>
</a>
</g>
</g>
<!-- Node3&#45;&gt;Node30 -->
<g id="edge27" class="edge"><title>Node3&#45;&gt;Node30</title>
<path fill="none" stroke="midnightblue" d="M2603.36,-76.4424C2796.91,-76.719 3297.77,-72.9303 3713.5,-31 3716.27,-30.7203 3719.09,-30.4083 3721.93,-30.0698"/>
<polygon fill="midnightblue" stroke="midnightblue" points="2603.27,-72.9424 2593.26,-76.4239 2603.26,-79.9424 2603.27,-72.9424"/>
</g>
<!-- Node31 -->
<g id="node29" class="node"><title>Node31</title>
<g id="a_node29"><a xlink:href="_git_info_8cc.html" target="_top" xlink:title="src/base/GitInfo.cc">
<polygon fill="white" stroke="black" points="3899.5,-6 3899.5,-25 4003.5,-25 4003.5,-6 3899.5,-6"/>
<text text-anchor="middle" x="3951.5" y="-13" font-family="Helvetica,sans-Serif" font-size="10.00">src/base/GitInfo.cc</text>
</a>
</g>
</g>
<!-- Node3&#45;&gt;Node31 -->
<g id="edge28" class="edge"><title>Node3&#45;&gt;Node31</title>
<path fill="none" stroke="midnightblue" d="M2603.43,-75.4606C2859.01,-73.4381 3639.57,-64.6014 3890.5,-31 3900.53,-29.6564 3911.33,-27.3754 3921.01,-25.0154"/>
<polygon fill="midnightblue" stroke="midnightblue" points="2603.08,-71.9631 2593.1,-75.5408 2603.13,-78.9629 2603.08,-71.9631"/>
</g>
<!-- Node32 -->
<g id="node30" class="node"><title>Node32</title>
<g id="a_node30"><a xlink:href="system_8cc.html" target="_top" xlink:title="src/base/std_ext/system.cc">
<polygon fill="white" stroke="black" points="4022,-6 4022,-25 4169,-25 4169,-6 4022,-6"/>
<text text-anchor="middle" x="4095.5" y="-13" font-family="Helvetica,sans-Serif" font-size="10.00">src/base/std_ext/system.cc</text>
</a>
</g>
</g>
<!-- Node3&#45;&gt;Node32 -->
<g id="edge29" class="edge"><title>Node3&#45;&gt;Node32</title>
<path fill="none" stroke="midnightblue" d="M2603.19,-75.0726C2873.23,-71.7652 3735.72,-59.2079 4012.5,-31 4025.89,-29.6355 4040.37,-27.3791 4053.44,-25.048"/>
<polygon fill="midnightblue" stroke="midnightblue" points="2603.03,-71.5742 2593.07,-75.1956 2603.11,-78.5737 2603.03,-71.5742"/>
</g>
<!-- Node33 -->
<g id="node31" class="node"><title>Node33</title>
<g id="a_node31"><a xlink:href="_wrap_t_file_8cc.html" target="_top" xlink:title="src/base/WrapTFile.cc">
<polygon fill="white" stroke="black" points="4187,-6 4187,-25 4304,-25 4304,-6 4187,-6"/>
<text text-anchor="middle" x="4245.5" y="-13" font-family="Helvetica,sans-Serif" font-size="10.00">src/base/WrapTFile.cc</text>
</a>
</g>
</g>
<!-- Node3&#45;&gt;Node33 -->
<g id="edge30" class="edge"><title>Node3&#45;&gt;Node33</title>
<path fill="none" stroke="midnightblue" d="M2603.36,-75.7914C2893,-74.7387 3868.44,-68.4316 4178.5,-31 4189.49,-29.6735 4201.34,-27.3971 4211.97,-25.0361"/>
<polygon fill="midnightblue" stroke="midnightblue" points="2603.34,-72.2913 2593.35,-75.8267 2603.36,-79.2913 2603.34,-72.2913"/>
</g>
<!-- Node34 -->
<g id="node32" class="node"><title>Node34</title>
<g id="a_node32"><a xlink:href="_data_base_8cc.html" target="_top" xlink:title="src/calibration/DataBase.cc">
<polygon fill="white" stroke="black" points="4322,-6 4322,-25 4469,-25 4469,-6 4322,-6"/>
<text text-anchor="middle" x="4395.5" y="-13" font-family="Helvetica,sans-Serif" font-size="10.00">src/calibration/DataBase.cc</text>
</a>
</g>
</g>
<!-- Node3&#45;&gt;Node34 -->
<g id="edge31" class="edge"><title>Node3&#45;&gt;Node34</title>
<path fill="none" stroke="midnightblue" d="M2603.22,-75.5761C2907.55,-73.7439 3974.99,-64.9864 4313.5,-31 4326.88,-29.6569 4341.36,-27.376 4354.37,-25.016"/>
<polygon fill="midnightblue" stroke="midnightblue" points="2603.13,-72.0765 2593.15,-75.6358 2603.17,-79.0763 2603.13,-72.0765"/>
</g>
<!-- Node35 -->
<g id="node33" class="node"><title>Node35</title>
<g id="a_node33"><a xlink:href="hstack_8cc.html" target="_top" xlink:title="src/root&#45;addons/analysis\l_codes/hstack.cc">
<polygon fill="white" stroke="black" points="4487.5,-0.5 4487.5,-30.5 4621.5,-30.5 4621.5,-0.5 4487.5,-0.5"/>
<text text-anchor="start" x="4495.5" y="-18.5" font-family="Helvetica,sans-Serif" font-size="10.00">src/root&#45;addons/analysis</text>
<text text-anchor="middle" x="4554.5" y="-7.5" font-family="Helvetica,sans-Serif" font-size="10.00">_codes/hstack.cc</text>
</a>
</g>
</g>
<!-- Node3&#45;&gt;Node35 -->
<g id="edge32" class="edge"><title>Node3&#45;&gt;Node35</title>
<path fill="none" stroke="midnightblue" d="M2603.36,-75.9241C2925.49,-75.3452 4106.26,-70.5146 4478.5,-31 4481.44,-30.6881 4484.43,-30.3226 4487.45,-29.9152"/>
<polygon fill="midnightblue" stroke="midnightblue" points="2603.17,-72.4243 2593.17,-75.9415 2603.18,-79.4243 2603.17,-72.4243"/>
</g>
<!-- Node36 -->
<g id="node34" class="node"><title>Node36</title>
<g id="a_node34"><a xlink:href="pi0__true__calib_8cc.html" target="_top" xlink:title="src/root&#45;addons/analysis\l_codes/pi0_true_calib.cc">
<polygon fill="white" stroke="black" points="4639.5,-0.5 4639.5,-30.5 4773.5,-30.5 4773.5,-0.5 4639.5,-0.5"/>
<text text-anchor="start" x="4647.5" y="-18.5" font-family="Helvetica,sans-Serif" font-size="10.00">src/root&#45;addons/analysis</text>
<text text-anchor="middle" x="4706.5" y="-7.5" font-family="Helvetica,sans-Serif" font-size="10.00">_codes/pi0_true_calib.cc</text>
</a>
</g>
</g>
<!-- Node3&#45;&gt;Node36 -->
<g id="edge33" class="edge"><title>Node3&#45;&gt;Node36</title>
<path fill="none" stroke="midnightblue" d="M2603.46,-76.0829C2941.28,-76.1417 4226.87,-73.5081 4630.5,-31 4633.44,-30.6905 4636.43,-30.3271 4639.45,-29.9213"/>
<polygon fill="midnightblue" stroke="midnightblue" points="2603.27,-72.583 2593.27,-76.0803 2603.27,-79.583 2603.27,-72.583"/>
</g>
<!-- Node37 -->
<g id="node35" class="node"><title>Node37</title>
<g id="a_node35"><a xlink:href="_test_std_ext_8cc.html" target="_top" xlink:title="test/base/TestStdExt.cc">
<polygon fill="white" stroke="black" points="4791.5,-6 4791.5,-25 4919.5,-25 4919.5,-6 4791.5,-6"/>
<text text-anchor="middle" x="4855.5" y="-13" font-family="Helvetica,sans-Serif" font-size="10.00">test/base/TestStdExt.cc</text>
</a>
</g>
</g>
<!-- Node3&#45;&gt;Node37 -->
<g id="edge34" class="edge"><title>Node3&#45;&gt;Node37</title>
<path fill="none" stroke="midnightblue" d="M2603.18,-76.3025C2955.56,-77.3108 4347.43,-78.1662 4782.5,-31 4794.45,-29.7048 4807.35,-27.4371 4818.93,-25.0743"/>
<polygon fill="midnightblue" stroke="midnightblue" points="2603.07,-72.8023 2593.06,-76.2727 2603.05,-79.8023 2603.07,-72.8023"/>
</g>
</g>
</svg>
