<?xml version="1.0" encoding="UTF-8" standalone="no"?>
<!DOCTYPE svg PUBLIC "-//W3C//DTD SVG 1.1//EN"
 "http://www.w3.org/Graphics/SVG/1.1/DTD/svg11.dtd">
<!-- Generated by graphviz version 2.38.0 (20140413.2041)
 -->
<!-- Title: src/base/math_functions/voigtian.cc Pages: 1 -->
<svg width="302pt" height="95pt"
 viewBox="0.00 0.00 301.50 95.00" xmlns="http://www.w3.org/2000/svg" xmlns:xlink="http://www.w3.org/1999/xlink">
<g id="graph0" class="graph" transform="scale(1 1) rotate(0) translate(4 91)">
<title>src/base/math_functions/voigtian.cc</title>
<polygon fill="white" stroke="none" points="-4,4 -4,-91 297.5,-91 297.5,4 -4,4"/>
<!-- Node0 -->
<g id="node1" class="node"><title>Node0</title>
<polygon fill="#bfbfbf" stroke="black" points="84.5,-56.5 84.5,-86.5 218.5,-86.5 218.5,-56.5 84.5,-56.5"/>
<text text-anchor="start" x="92.5" y="-74.5" font-family="Helvetica,sans-Serif" font-size="10.00">src/base/math_functions</text>
<text text-anchor="middle" x="151.5" y="-63.5" font-family="Helvetica,sans-Serif" font-size="10.00">/voigtian.cc</text>
</g>
<!-- Node1 -->
<g id="node2" class="node"><title>Node1</title>
<g id="a_node2"><a xlink:href="voigtian_8h.html" target="_top" xlink:title="voigtian.h">
<polygon fill="white" stroke="black" points="0,-0.5 0,-19.5 63,-19.5 63,-0.5 0,-0.5"/>
<text text-anchor="middle" x="31.5" y="-7.5" font-family="Helvetica,sans-Serif" font-size="10.00">voigtian.h</text>
</a>
</g>
</g>
<!-- Node0&#45;&gt;Node1 -->
<g id="edge1" class="edge"><title>Node0&#45;&gt;Node1</title>
<path fill="none" stroke="midnightblue" d="M123.062,-56.3993C103.377,-46.6391 77.3567,-33.7373 58.0868,-24.1826"/>
<polygon fill="midnightblue" stroke="midnightblue" points="59.475,-20.9644 48.9611,-19.6578 56.3654,-27.2358 59.475,-20.9644"/>
</g>
<!-- Node2 -->
<g id="node3" class="node"><title>Node2</title>
<polygon fill="white" stroke="#bfbfbf" points="81,-0.5 81,-19.5 138,-19.5 138,-0.5 81,-0.5"/>
<text text-anchor="middle" x="109.5" y="-7.5" font-family="Helvetica,sans-Serif" font-size="10.00">complex</text>
</g>
<!-- Node0&#45;&gt;Node2 -->
<g id="edge2" class="edge"><title>Node0&#45;&gt;Node2</title>
<path fill="none" stroke="midnightblue" d="M141.547,-56.3993C135.506,-47.8424 127.762,-36.8708 121.399,-27.857"/>
<polygon fill="midnightblue" stroke="midnightblue" points="124.238,-25.8091 115.611,-19.6578 118.519,-29.8459 124.238,-25.8091"/>
</g>
<!-- Node3 -->
<g id="node4" class="node"><title>Node3</title>
<polygon fill="white" stroke="#bfbfbf" points="156,-0.5 156,-19.5 233,-19.5 233,-0.5 156,-0.5"/>
<text text-anchor="middle" x="194.5" y="-7.5" font-family="Helvetica,sans-Serif" font-size="10.00">Faddeeva.hh</text>
</g>
<!-- Node0&#45;&gt;Node3 -->
<g id="edge3" class="edge"><title>Node0&#45;&gt;Node3</title>
<path fill="none" stroke="midnightblue" d="M161.69,-56.3993C167.874,-47.8424 175.803,-36.8708 182.318,-27.857"/>
<polygon fill="midnightblue" stroke="midnightblue" points="185.222,-29.8129 188.243,-19.6578 179.549,-25.7127 185.222,-29.8129"/>
</g>
<!-- Node4 -->
<g id="node5" class="node"><title>Node4</title>
<polygon fill="white" stroke="#bfbfbf" points="251.5,-0.5 251.5,-19.5 293.5,-19.5 293.5,-0.5 251.5,-0.5"/>
<text text-anchor="middle" x="272.5" y="-7.5" font-family="Helvetica,sans-Serif" font-size="10.00">TF1.h</text>
</g>
<!-- Node0&#45;&gt;Node4 -->
<g id="edge4" class="edge"><title>Node0&#45;&gt;Node4</title>
<path fill="none" stroke="midnightblue" d="M180.175,-56.3993C200.024,-46.6391 226.261,-33.7373 245.692,-24.1826"/>
<polygon fill="midnightblue" stroke="midnightblue" points="247.464,-27.2114 254.893,-19.6578 244.375,-20.9297 247.464,-27.2114"/>
</g>
</g>
</svg>
